<svg xmlns="http://www.w3.org/2000/svg" xmlns:svg="http://www.w3.org/2000/svg" xmlns:xlink="http://www.w3.org/1999/xlink" id="svg2" width="22" height="22" version="1.0"><defs id="defs4"><linearGradient id="linearGradient3390-178-986-453"><stop id="stop3624" offset="0" stop-color="#bb5e12" stop-opacity="1"/><stop id="stop3626" offset="1" stop-color="#cd8033" stop-opacity="1"/></linearGradient><linearGradient id="linearGradient7012-661-145-733-759-865-745-661-970-94"><stop id="stop3618" offset="0" stop-color="#edd563" stop-opacity="1"/><stop id="stop3620" offset="1" stop-color="#e08223" stop-opacity="1"/></linearGradient><linearGradient id="linearGradient11223" x1="4.191" x2="47.32" y1="11.113" y2="56.052" gradientUnits="userSpaceOnUse"><stop id="stop11225" offset="0" stop-color="#fff" stop-opacity="1"/><stop id="stop11227" offset="1" stop-color="#fff" stop-opacity="0"/></linearGradient><linearGradient id="linearGradient3051" x1="29.127" x2="29.291" y1="19.788" y2="57.567" gradientTransform="matrix(0.46904905,0,-0.00204175,0.46095441,-2.621461,-6.8285042)" gradientUnits="userSpaceOnUse" xlink:href="#linearGradient11223"/><linearGradient id="linearGradient3055" x1="24" x2="24" y1="-3" y2="47" gradientTransform="matrix(0.46668728,0,0,0.44188097,-0.20045794,0.81457539)" gradientUnits="userSpaceOnUse" xlink:href="#linearGradient7012-661-145-733-759-865-745-661-970-94"/><linearGradient id="linearGradient3057" x1="20" x2="20" y1="47" y2="-3" gradientTransform="matrix(0.46668728,0,0,0.44188097,-0.20045794,0.81457539)" gradientUnits="userSpaceOnUse" xlink:href="#linearGradient3390-178-986-453"/></defs><path id="path11155" fill="url(#linearGradient3055)" fill-opacity="1" fill-rule="nonzero" stroke="url(#linearGradient3057)" stroke-dasharray="none" stroke-miterlimit="4" stroke-opacity="1" stroke-width="1" d="M 21.350618,18.489387 12.236119,2.2037014 c -0.261978,-0.452371 -0.73602,-0.703701 -1.263959,-0.703701 -0.527945,0 -1.0044152,0.301529 -1.2703702,0.753917 L 0.65516436,18.539584 c -0.2129412,0.402039 -0.2153858,0.954939 0.046777,1.357168 0.2622015,0.402039 0.68367574,0.603249 1.21160124,0.603249 l 18.1611224,0 c 0.527944,0 1.004184,-0.25137 1.217124,-0.653409 0.265744,-0.40204 0.267958,-0.904779 0.05871,-1.357168 z"/><path id="path11159" fill="none" stroke="url(#linearGradient3051)" stroke-dasharray="none" stroke-miterlimit="4" stroke-opacity="1" stroke-width="1" d="M 20.076746,17.72089 11.958831,3.3194478 C 11.613095,2.6990491 11.489089,2.5000003 10.963669,2.5000003 c -0.4519,0 -0.688348,0.2898889 -1.0149148,0.8754936 L 1.9209435,17.765342 c -0.4661593,0.807904 -0.5161041,1.018497 -0.2917273,1.374086 0.2243758,0.355593 0.5124629,0.336226 1.5769196,0.35942 l 15.7781792,0 c 0.990991,0.01159 1.214218,-0.05988 1.396553,-0.415466 0.227524,-0.355593 0.130747,-0.637713 -0.304122,-1.362492 z" opacity=".4"/><g id="g2481" transform="matrix(1,0,0,0.86666663,34.813304,3.3014124)"><path font-stretch="normal" style="text-align:start;line-height:125%" id="path3295" fill="#000" fill-opacity="1" stroke="none" d="m -25.214077,4.4004423 c 0.331945,2.8104459 0.71217,5.6015497 0.99474,8.4230037 0.284211,0 0.617557,0 0.901768,0 0.234383,-2.709491 0.612431,-5.4026096 0.885143,-8.1087415 0.139014,-0.6407739 -0.240553,-1.4015727 -1.021214,-1.5572521 -0.771408,-0.1954857 -1.633264,0.2885987 -1.735838,0.9800741 -0.01701,0.086803 -0.0246,0.1749018 -0.0246,0.2629158 l -2e-6,0 z m -0.09838,11.4264807 c -0.0351,0.836563 1.026892,1.492345 1.933628,1.227123 0.87824,-0.194275 1.340822,-1.151039 0.890723,-1.831133 -0.402917,-0.703026 -1.584447,-0.93466 -2.264126,-0.396605 -0.343566,0.244652 -0.571285,0.609885 -0.560225,1.000616 l 0,-10e-7 z" font-family="Georgia" font-size="62.458" font-style="normal" font-variant="normal" font-weight="normal" opacity=".2" text-anchor="start" writing-mode="lr-tb"/><path font-stretch="normal" style="text-align:start;line-height:125%" id="text2315" fill="#fff" fill-opacity="1" stroke="none" d="m -25.214077,5.4004426 c 0.331945,2.810446 0.71217,5.6015504 0.99474,8.4230044 0.284211,0 0.617557,0 0.901768,0 0.234383,-2.709492 0.612431,-5.4026103 0.885143,-8.1087421 0.139014,-0.6407739 -0.240553,-1.4015727 -1.021214,-1.5572522 -0.771408,-0.1954855 -1.633264,0.2885986 -1.735838,0.9800742 -0.01701,0.086803 -0.0246,0.1749017 -0.0246,0.2629157 l -2e-6,0 z m -0.09838,11.4264814 c -0.0351,0.836563 1.026892,1.492345 1.933628,1.227122 0.87824,-0.194275 1.340822,-1.151039 0.890723,-1.831132 -0.402917,-0.703026 -1.584447,-0.93466 -2.264126,-0.396605 -0.343566,0.244652 -0.571285,0.609885 -0.560225,1.000616 l 0,-10e-7 z" font-family="Georgia" font-size="62.458" font-style="normal" font-variant="normal" font-weight="normal" text-anchor="start" writing-mode="lr-tb"/></g></svg>