<svg xmlns="http://www.w3.org/2000/svg" xmlns:svg="http://www.w3.org/2000/svg" xmlns:xlink="http://www.w3.org/1999/xlink" id="svg3929" width="16" height="16" version="1.0"><defs id="defs3931"><linearGradient id="linearGradient3894" x1="36.372" x2="36.372" y1="14.278" y2="42.571" gradientTransform="matrix(0.4203412,0,0,0.3897622,-2.2782225,-1.5648954)" gradientUnits="userSpaceOnUse" xlink:href="#linearGradient3587-6-5"/><linearGradient id="linearGradient3905" x1="11.339" x2="11.339" y1="24.238" y2="43.075" gradientUnits="userSpaceOnUse" xlink:href="#linearGradient3587-6-5"/><linearGradient id="linearGradient3827" x1="14.275" x2="14.275" y1="10.333" y2="25.508" gradientTransform="matrix(0.3533407,0,0,0.3956899,-1.563877,-1.0885543)" gradientUnits="userSpaceOnUse" xlink:href="#linearGradient3587-6-5"/><linearGradient id="linearGradient3587-6-5"><stop id="stop3589-9-2" offset="0" stop-color="#000" stop-opacity="1"/><stop id="stop3591-7-4" offset="1" stop-color="#363636" stop-opacity="1"/></linearGradient><linearGradient id="linearGradient3892" x1="10.513" x2="10.513" y1="0" y2="6.02" gradientUnits="userSpaceOnUse" xlink:href="#linearGradient3587-6-5"/></defs><g id="layer1"><rect id="rect3919" width="6" height="6" x="8" y="1" fill="#fff" fill-opacity="1" fill-rule="evenodd" stroke="none" stroke-dasharray="none" stroke-dashoffset="0" stroke-linecap="butt" stroke-linejoin="miter" stroke-miterlimit="4" stroke-opacity="1" stroke-width="1" marker-end="none" marker-mid="none" marker-start="none" display="inline" enable-background="accumulate" opacity=".6" overflow="visible" rx=".829" ry=".829" visibility="visible" style="marker:none"/><path id="path3911" fill="#fff" fill-opacity="1" fill-rule="evenodd" stroke="none" stroke-dashoffset="0" stroke-linecap="butt" stroke-linejoin="miter" stroke-miterlimit="4" stroke-opacity="1" stroke-width="1" marker-end="none" marker-mid="none" marker-start="none" d="M 6.71875,4.9999994 C 6.3286899,4.9999993 6,5.263316 6,5.6249994 L 6,8.4999994 C 6,8.861683 6.7661902,8.9999994 7.15625,8.9999994 L 8.5625,8.9999994 C 8.0184705,8.9999993 8.0405214,9.4017965 8.0405214,9.9062494 L 8.0405214,15.093749 C 8.0405216,15.598203 8.0184696,15.999999 8.5625,15.999999 L 10.388907,15.999999 C 10.867185,15.999999 10.910592,15.419189 11,14.999999 C 11.067993,15.430975 11.124517,15.999999 11.609675,15.999999 L 13.471368,15.999999 C 14.005133,15.999999 14,15.619934 14,15.124999 L 14,9.8749994 C 14,9.3800643 13.97721,8.9999994 13.443445,8.9999994 L 15.28125,8.9999994 C 15.671312,8.9999993 16.000001,8.8616831 16,8.4999994 L 16,5.6249994 C 16,5.2633159 15.671311,4.9999994 15.28125,4.9999994 L 15,4.9999994 L 15,7.1562494 C 15,7.615345 14.518378,7.9999994 13.90625,7.9999994 L 8.09375,7.9999994 C 7.4816226,7.9999994 7,7.615345 7,7.1562494 L 7,4.9999994 L 6.71875,4.9999994 z" display="inline" enable-background="accumulate" opacity=".6" overflow="visible" visibility="visible" style="marker:none"/><path id="path3815" fill="url(#linearGradient3894)" fill-opacity="1" fill-rule="evenodd" stroke="none" stroke-dashoffset="0" stroke-linecap="butt" stroke-linejoin="miter" stroke-miterlimit="4" stroke-opacity="1" stroke-width="1" marker-end="none" marker-mid="none" marker-start="none" d="M 6.71875,4 C 6.3286899,3.9999999 6,4.2633166 6,4.625 L 6,7.5 C 6,7.8616836 6.7661902,8 7.15625,8 L 8.5625,8 C 8.0184705,7.9999999 8.0405214,8.4017971 8.0405214,8.90625 L 8.0405214,14.09375 C 8.0405216,14.598204 8.0184696,15 8.5625,15 L 10.388907,15 C 10.867185,15 10.910592,14.41919 11,14 C 11.067993,14.430976 11.124517,15 11.609675,15 L 13.471368,15 C 14.005133,15 14,14.619935 14,14.125 L 14,8.875 C 14,8.3800649 13.97721,8 13.443445,8 L 15.28125,8 C 15.671312,7.9999999 16.000001,7.8616837 16,7.5 L 16,4.625 C 16,4.2633165 15.671311,4 15.28125,4 L 15,4 L 15,6.15625 C 15,6.6153456 14.518378,7 13.90625,7 L 8.09375,7 C 7.4816226,7 7,6.6153456 7,6.15625 L 7,4 L 6.71875,4 z" display="inline" enable-background="accumulate" opacity=".7" overflow="visible" visibility="visible" style="marker:none"/><g id="g3913" fill="#fff" opacity=".6" transform="translate(0,0.9999994)"><path id="path3915" fill="#fff" fill-opacity="1" fill-rule="evenodd" stroke="none" stroke-dasharray="none" stroke-dashoffset="0" stroke-linecap="butt" stroke-linejoin="miter" stroke-miterlimit="4" stroke-opacity="1" stroke-width="1" marker-end="none" marker-mid="none" marker-start="none" d="M 2.09375,3 C 1.1221134,3.0920443 0.22645919,3.6159904 0,4.625 L 0.03125,9 L 2,9 L 2,12.5 L 3,12.5 L 3,9 L 5,9 L 5,4.625 C 4.7212278,3.473388 3.3429971,2.8816573 2.09375,3 z" display="inline" enable-background="accumulate" overflow="visible" visibility="visible" style="marker:none"/><path id="path3917" fill="none" fill-opacity="1" fill-rule="evenodd" stroke="#fff" stroke-dasharray="none" stroke-dashoffset="0" stroke-linecap="butt" stroke-linejoin="miter" stroke-miterlimit="4" stroke-opacity="1" stroke-width="3.237" marker-end="none" marker-mid="none" marker-start="none" d="M 16.38255,38.400002 A 5.0432229,3.116883 0 1 1 6.296104,38.400002 A 5.0432229,3.116883 0 1 1 16.38255,38.400002 z" display="inline" enable-background="accumulate" overflow="visible" transform="matrix(0.2974289,0,0,0.3208332,-0.8726432,1.1800056)" visibility="visible" style="marker:none"/></g><g id="g3907" opacity=".7"><path id="path3817" fill="url(#linearGradient3827)" fill-opacity="1" fill-rule="evenodd" stroke="none" stroke-dasharray="none" stroke-dashoffset="0" stroke-linecap="butt" stroke-linejoin="miter" stroke-miterlimit="4" stroke-opacity="1" stroke-width="1" marker-end="none" marker-mid="none" marker-start="none" d="M 2.09375,3 C 1.1221134,3.0920443 0.22645919,3.6159904 0,4.625 L 0.03125,9 L 2,9 L 2,12.5 L 3,12.5 L 3,9 L 5,9 L 5,4.625 C 4.7212278,3.473388 3.3429971,2.8816573 2.09375,3 z" display="inline" enable-background="accumulate" overflow="visible" visibility="visible" style="marker:none"/><path id="path3819" fill="none" fill-opacity="1" fill-rule="evenodd" stroke="url(#linearGradient3905)" stroke-dasharray="none" stroke-dashoffset="0" stroke-linecap="butt" stroke-linejoin="miter" stroke-miterlimit="4" stroke-opacity="1" stroke-width="3.237" marker-end="none" marker-mid="none" marker-start="none" d="M 16.38255,38.400002 A 5.0432229,3.116883 0 1 1 6.296104,38.400002 A 5.0432229,3.116883 0 1 1 16.38255,38.400002 z" display="inline" enable-background="accumulate" overflow="visible" transform="matrix(0.2974289,0,0,0.3208332,-0.8726432,1.1800056)" visibility="visible" style="marker:none"/></g><rect id="rect3823" width="6" height="6" x="8" y="0" fill="url(#linearGradient3892)" fill-opacity="1" fill-rule="evenodd" stroke="none" stroke-dasharray="none" stroke-dashoffset="0" stroke-linecap="butt" stroke-linejoin="miter" stroke-miterlimit="4" stroke-opacity="1" stroke-width="1" marker-end="none" marker-mid="none" marker-start="none" display="inline" enable-background="accumulate" opacity=".7" overflow="visible" rx=".829" ry=".829" visibility="visible" style="marker:none"/></g></svg>