<svg xmlns="http://www.w3.org/2000/svg" xmlns:svg="http://www.w3.org/2000/svg" xmlns:xlink="http://www.w3.org/1999/xlink" id="svg3208" width="16" height="16" version="1.0"><defs id="defs3210"><linearGradient id="linearGradient6323"><stop id="stop6325" offset="0" stop-color="#b0b7a8" stop-opacity="1"/><stop id="stop6327" offset="1" stop-color="#e5e8e3" stop-opacity="1"/></linearGradient><linearGradient id="linearGradient5587" x1="44" x2="26.109" y1="47.325" y2="17.964" gradientTransform="matrix(0.5203279,0,0,0.496061,-2.1260659,-1.582594)" gradientUnits="userSpaceOnUse" xlink:href="#linearGradient6323"/><linearGradient id="linearGradient6299"><stop id="stop6301" offset="0" stop-color="#fff" stop-opacity="1"/><stop id="stop6303" offset="1" stop-color="#fff" stop-opacity="0"/></linearGradient><linearGradient id="linearGradient6305" x1="14.313" x2="14.313" y1="6.614" y2="22.833" gradientUnits="userSpaceOnUse" xlink:href="#linearGradient6299"/><filter id="filter6355" width="1.278" height="2.738" x="-.139" y="-.869"><feGaussianBlur id="feGaussianBlur6357" stdDeviation=".588"/></filter><linearGradient id="linearGradient6375"><stop id="stop6377" offset="0" stop-color="#f9f9f8" stop-opacity="1"/><stop id="stop6379" offset="1" stop-color="#c7c7c0" stop-opacity="1"/></linearGradient><linearGradient id="linearGradient5582" x1="13.09" x2="12.968" y1="22.901" y2="13.613" gradientTransform="matrix(0.3533407,0,0,0.3956899,-6.387652e-2,-1.5936285)" gradientUnits="userSpaceOnUse" xlink:href="#linearGradient6375"/><linearGradient id="linearGradient6347"><stop id="stop6349" offset="0" stop-color="#eeeeec" stop-opacity="1"/><stop id="stop6351" offset="1" stop-color="#c2c2ba" stop-opacity="1"/></linearGradient><radialGradient id="radialGradient5573" cx="26.163" cy="6.662" r="8" fx="26.163" fy="6.662" gradientTransform="matrix(0.8649153,-7.4140862e-3,6.154404e-3,0.7179628,-12.989855,-2.9393299)" gradientUnits="userSpaceOnUse" xlink:href="#linearGradient6347"/></defs><g id="layer1"><path id="path5579" fill="url(#linearGradient5587)" fill-opacity="1" fill-rule="evenodd" stroke="gray" stroke-dashoffset="0" stroke-linecap="butt" stroke-linejoin="miter" stroke-miterlimit="4" stroke-opacity="1" stroke-width="1.286" marker-end="none" marker-mid="none" marker-start="none" d="M 8.9962987,5.5 C 8.5134555,5.4999999 8.1212987,5.8521757 8.1212987,6.3125 L 8.1212987,9.9641013 C 8.1212989,10.424426 9.0759556,10.589101 9.5587987,10.589101 L 11.308799,10.589101 C 10.635361,10.589101 10.090049,11.10332 10.090049,11.745351 L 10.090049,18.34375 C 10.090049,18.985782 10.63536,19.5 11.308799,19.5 L 12.707734,19.5 C 13.29978,19.5 13.878308,19.096015 13.988984,18.5625 C 14.002138,18.499091 14.01839,12.191644 14.020234,12.125 C 14.020234,12.182365 14.011802,18.476294 14.020234,18.53125 C 14.104402,19.079764 14.000174,19.5 14.600737,19.5 L 16.736753,19.5 C 17.397485,19.5 17.924253,19.004918 17.924253,18.375 L 17.924253,11.714101 C 17.924252,11.084184 17.397485,10.589101 16.736753,10.589101 L 19.625,10.589101 C 20.107845,10.589101 20.500001,10.424426 20.5,9.9641013 L 20.5,6.3125 C 20.499999,5.8521756 20.107844,5.5 19.625,5.5 L 8.9962987,5.5 z" display="inline" enable-background="accumulate" overflow="visible" transform="matrix(0.7692308,0,0,0.7857143,-0.2692307,0.1785713)" visibility="visible" style="marker:none"/><path id="path5535" fill="none" fill-opacity="1" fill-rule="evenodd" stroke="url(#linearGradient6305)" stroke-dashoffset="0" stroke-linecap="butt" stroke-linejoin="miter" stroke-miterlimit="4" stroke-opacity="1" stroke-width="1.286" marker-end="none" marker-mid="none" marker-start="none" d="M 9.4375,6.8125 L 9.4375,9.25 C 9.4798147,9.254285 9.5394538,9.28125 9.5625,9.28125 L 11.3125,9.28125 L 11.3125,11.90625 C 11.311926,11.90625 11.40625,11.856425 11.40625,11.75 L 11.40625,18.1875 L 12.6875,18.1875 C 12.689036,18.015624 12.685951,17.804956 12.6875,17.53125 C 12.690892,16.931704 12.684533,16.139918 12.6875,15.34375 C 12.690467,14.547582 12.716761,13.757961 12.71875,13.15625 C 12.719744,12.855394 12.718102,12.585582 12.71875,12.40625 C 12.719074,12.316584 12.718523,12.238144 12.71875,12.1875 C 12.718977,12.136856 12.71502,12.228562 12.71875,12.09375 C 12.806116,11.430085 13.375775,10.93647 14.045118,10.944439 C 14.714462,10.952407 15.272208,11.459443 15.34375,12.125 C 15.34375,12.307196 15.337071,17.851644 15.34375,18.1875 L 16.625,18.1875 L 16.625,11.71875 C 16.625,11.825738 16.75045,11.90625 16.75,11.90625 L 16.75,9.28125 L 19.1875,9.28125 L 19.1875,6.8125 L 9.4375,6.8125 z" display="inline" enable-background="accumulate" overflow="visible" transform="matrix(0.7692308,0,0,0.7857143,-0.2692307,0.1785713)" visibility="visible" style="marker:none"/><rect stroke-opacity="1" style="marker:none" id="rect6353" width="9.132" height=".623" x="25.777" y="19.169" fill="none" fill-opacity="1" fill-rule="evenodd" stroke="#000" stroke-dasharray="none" stroke-dashoffset="0" stroke-linecap="butt" stroke-linejoin="miter" stroke-miterlimit="4" stroke-width="1.613" marker-end="none" marker-mid="none" marker-start="none" display="inline" enable-background="accumulate" filter="url(#filter6355)" opacity=".4" overflow="visible" rx="2.072" ry=".623" transform="matrix(0.4919607,0,0,0.7810297,-4.5003103,-8.9197524)" visibility="visible"/><path id="path5515" fill="url(#linearGradient5582)" fill-opacity="1" fill-rule="evenodd" stroke="gray" stroke-dasharray="none" stroke-dashoffset="0" stroke-linecap="butt" stroke-linejoin="miter" stroke-miterlimit="4" stroke-opacity="1" stroke-width="1" marker-end="none" marker-mid="none" marker-start="none" d="M 1.5330397,8.4949256 L 6.5000001,8.4949256 L 6.5000001,4.1289744 C 6.0044055,2.0816639 2.0176213,1.8226668 1.5000001,4.1289744 L 1.5330397,8.4949256 z" display="inline" enable-background="accumulate" overflow="visible" transform="translate(-1.0000001,5.0744712e-3)" visibility="visible" style="marker:none"/><path id="path5517" fill="#eeeeec" fill-opacity="1" fill-rule="evenodd" stroke="gray" stroke-dasharray="none" stroke-dashoffset="0" stroke-linecap="butt" stroke-linejoin="miter" stroke-miterlimit="4" stroke-opacity="1" stroke-width="3.237" marker-end="none" marker-mid="none" marker-start="none" d="M 16.38255,38.400002 A 5.0432229,3.116883 0 1 1 6.296104,38.400002 A 5.0432229,3.116883 0 1 1 16.38255,38.400002 z" display="inline" enable-background="accumulate" overflow="visible" transform="matrix(0.2974289,0,0,0.3208332,-0.3726434,1.1800056)" visibility="visible" style="marker:none"/><rect id="rect5519" width="2" height="4" x="3" y="8.495" fill="gray" fill-opacity="1" fill-rule="evenodd" stroke="none" stroke-dasharray="none" stroke-dashoffset="0" stroke-linecap="butt" stroke-linejoin="miter" stroke-miterlimit="4" stroke-opacity="1" stroke-width="1" marker-end="none" marker-mid="none" marker-start="none" display="inline" enable-background="accumulate" overflow="visible" rx="1.684" ry="0" transform="translate(-1.0000001,5.0744712e-3)" visibility="visible" style="marker:none"/><rect id="rect5500" width="6" height="6" x="8.5" y=".495" fill="url(#radialGradient5573)" fill-opacity="1" fill-rule="evenodd" stroke="gray" stroke-dasharray="none" stroke-dashoffset="0" stroke-linecap="butt" stroke-linejoin="miter" stroke-miterlimit="4" stroke-opacity="1" stroke-width="1" marker-end="none" marker-mid="none" marker-start="none" display="inline" enable-background="accumulate" overflow="visible" rx=".829" ry=".829" transform="translate(-1.0000001,5.0744712e-3)" visibility="visible" style="marker:none"/><path id="path6303" fill="none" fill-opacity="1" fill-rule="evenodd" stroke="#fff" stroke-dasharray="none" stroke-dashoffset="0" stroke-linecap="butt" stroke-linejoin="miter" stroke-miterlimit="4" stroke-opacity="1" stroke-width="1" marker-end="none" marker-mid="none" marker-start="none" d="M 2.519824,7.4949251 L 5.5000003,7.4949251 L 5.5000003,4.5842913 C 5.2026432,3.2194176 2.8105729,3.0467529 2.5000001,4.5842913 L 2.519824,7.4949251 z" display="inline" enable-background="accumulate" overflow="visible" transform="translate(-1.0000001,5.0744712e-3)" visibility="visible" style="marker:none"/><rect id="rect6329" width="4" height="4" x="9.5" y="1.495" fill="none" fill-opacity="1" fill-rule="evenodd" stroke="#fff" stroke-dasharray="none" stroke-dashoffset="0" stroke-linecap="butt" stroke-linejoin="miter" stroke-miterlimit="4" stroke-opacity="1" stroke-width="1" marker-end="none" marker-mid="none" marker-start="none" display="inline" enable-background="accumulate" overflow="visible" rx="0" ry="0" transform="translate(-1.0000001,5.0744712e-3)" visibility="visible" style="marker:none"/></g></svg>