<svg xmlns="http://www.w3.org/2000/svg" xmlns:svg="http://www.w3.org/2000/svg" xmlns:xlink="http://www.w3.org/1999/xlink" id="svg3282" width="16" height="16" version="1.0"><defs id="defs3284"><linearGradient id="linearGradient3587-6-5"><stop id="stop3589-9-2" offset="0" stop-color="#000" stop-opacity="1"/><stop id="stop3591-7-4" offset="1" stop-color="#363636" stop-opacity="1"/></linearGradient><linearGradient id="linearGradient3276" x1="9" x2="9" y1="3.845" y2="17.855" gradientTransform="translate(-5.6409134,-2.8473895)" gradientUnits="userSpaceOnUse" xlink:href="#linearGradient3587-6-5"/></defs><g id="layer1"><path id="path3278" fill="#fff" fill-opacity="1" fill-rule="evenodd" stroke="none" stroke-dasharray="none" stroke-dashoffset="0" stroke-linecap="butt" stroke-linejoin="miter" stroke-miterlimit="4" stroke-opacity="1" stroke-width="1" marker-end="none" marker-mid="none" marker-start="none" d="M 2.875,2 C 1.8408712,2 1,2.8408712 1,3.875 L 1,14.125 C 1,15.159129 1.8408712,16 2.875,16 L 13.125,16 C 14.159129,16 15,15.159129 15,14.125 L 15,3.875 C 15,2.8408712 14.159129,2 13.125,2 L 2.875,2 z M 11.0625,4.03125 C 11.349376,4.0466442 11.668558,4.0955326 12,4.125 L 12,6 C 11,5.7024176 10.48396,5.7425246 10.28125,6 C 10.078541,6.2574754 9.999997,6.5065358 10,7 L 12,7 L 12,9 L 10,9 L 10,14 L 8,14 L 8,9 L 6,9 L 6,7 L 8,7 L 8,6.5 C 7.9999991,5.5499596 8.2807034,5.1937844 8.8125,4.71875 C 9.5288404,4.0888063 10.201871,3.9850673 11.0625,4.03125 z" display="inline" enable-background="accumulate" opacity=".6" overflow="visible" visibility="visible" style="marker:none"/><path id="rect5505-3" fill="url(#linearGradient3276)" fill-opacity="1" fill-rule="evenodd" stroke="none" stroke-dasharray="none" stroke-dashoffset="0" stroke-linecap="butt" stroke-linejoin="miter" stroke-miterlimit="4" stroke-opacity="1" stroke-width="1" marker-end="none" marker-mid="none" marker-start="none" d="M 2.875,1 C 1.8408712,1 1,1.8408712 1,2.875 L 1,13.125 C 1,14.159129 1.8408712,15 2.875,15 L 13.125,15 C 14.159129,15 15,14.159129 15,13.125 L 15,2.875 C 15,1.8408712 14.159129,1 13.125,1 L 2.875,1 z M 11.0625,3.03125 C 11.349376,3.0466442 11.668558,3.0955326 12,3.125 L 12,5 C 11,4.7024176 10.48396,4.7425246 10.28125,5 C 10.078541,5.2574754 9.999997,5.5065358 10,6 L 12,6 L 12,8 L 10,8 L 10,13 L 8,13 L 8,8 L 6,8 L 6,6 L 8,6 L 8,5.5 C 7.9999991,4.5499596 8.2807034,4.1937844 8.8125,3.71875 C 9.5288404,3.0888063 10.201871,2.9850673 11.0625,3.03125 z" display="inline" enable-background="accumulate" opacity=".7" overflow="visible" visibility="visible" style="marker:none"/></g></svg>