<svg xmlns="http://www.w3.org/2000/svg" xmlns:svg="http://www.w3.org/2000/svg" xmlns:xlink="http://www.w3.org/1999/xlink" id="svg3821" width="16" height="16" version="1.0"><defs id="defs3823"><linearGradient id="linearGradient3809" x1="29.106" x2="29.106" y1="13.696" y2="38.359" gradientTransform="matrix(0.3655063,0,0,0.3655063,-8.4465313,-1.0061434)" gradientUnits="userSpaceOnUse" xlink:href="#linearGradient3587-6-5"/><linearGradient id="linearGradient3587-6-5"><stop id="stop3589-9-2" offset="0" stop-color="#000" stop-opacity="1"/><stop id="stop3591-7-4" offset="1" stop-color="#363636" stop-opacity="1"/></linearGradient><linearGradient id="linearGradient3802" x1="31.879" x2="31.879" y1="13.696" y2="38.396" gradientTransform="translate(-24.542893,-2.6003598)" gradientUnits="userSpaceOnUse" xlink:href="#linearGradient3587-6-5"/></defs><g id="layer1"><path id="path3811" fill="#fff" fill-opacity="1" fill-rule="evenodd" stroke="none" stroke-dasharray="none" stroke-dashoffset="0" stroke-linecap="butt" stroke-linejoin="miter" stroke-miterlimit="4" stroke-opacity="1" stroke-width="3.078" marker-end="none" marker-mid="none" marker-start="none" d="M 4.5,5 C 2.0160002,5 -3.3277708e-15,7.0160005 0,9.5 C 2.8912058e-19,11.984 2.0160004,14 4.5,14 C 5.654835,14 6.703025,13.559677 7.5,12.84375 C 6.5827164,12.019749 6,10.829165 6,9.5 C 6,8.1708353 6.5827164,6.9802514 7.5,6.15625 C 6.703025,5.4403226 5.6548351,5.0000001 4.5,5 z" display="inline" enable-background="accumulate" opacity=".6" overflow="visible" visibility="visible" style="marker:none"/><path stroke-width="3.078" style="marker:none" id="path3813" fill="#fff" fill-opacity="1" fill-rule="evenodd" stroke="none" stroke-dasharray="none" stroke-dashoffset="0" stroke-linecap="butt" stroke-linejoin="miter" stroke-miterlimit="4" stroke-opacity="1" marker-end="none" marker-mid="none" marker-start="none" d="M 23.18961,23.407793 A 12.311688,12.311688 0 1 1 -1.4337664,23.407793 A 12.311688,12.311688 0 1 1 23.18961,23.407793 z" display="inline" enable-background="accumulate" opacity=".6" overflow="visible" transform="matrix(0.3655063,0,0,0.3655063,7.5240506,0.9443045)" visibility="visible"/><path id="path5475" fill="url(#linearGradient3809)" fill-opacity="1" fill-rule="evenodd" stroke="none" stroke-dasharray="none" stroke-dashoffset="0" stroke-linecap="butt" stroke-linejoin="miter" stroke-miterlimit="4" stroke-opacity="1" stroke-width="3.078" marker-end="none" marker-mid="none" marker-start="none" d="M 4.5,4 C 2.0160002,4 -3.3277708e-15,6.0160005 0,8.5 C 2.8912058e-19,10.984 2.0160004,13 4.5,13 C 5.654835,13 6.6123842,12.650318 7.4093592,11.934391 C 6.4920756,11.11039 6,9.8291648 6,8.5 C 6,7.1708353 6.4467552,5.8896106 7.3640388,5.0656092 C 6.5670638,4.3496818 5.6548351,4.0000001 4.5,4 z" display="inline" enable-background="accumulate" opacity=".7" overflow="visible" visibility="visible" style="marker:none"/><path stroke-width="3.078" style="marker:none" id="path5477" fill="url(#linearGradient3802)" fill-opacity="1" fill-rule="evenodd" stroke="none" stroke-dasharray="none" stroke-dashoffset="0" stroke-linecap="butt" stroke-linejoin="miter" stroke-miterlimit="4" stroke-opacity="1" marker-end="none" marker-mid="none" marker-start="none" d="M 23.18961,23.407793 A 12.311688,12.311688 0 1 1 -1.4337664,23.407793 A 12.311688,12.311688 0 1 1 23.18961,23.407793 z" display="inline" enable-background="accumulate" opacity=".7" overflow="visible" transform="matrix(0.3655063,0,0,0.3655063,7.5240506,-5.56955e-2)" visibility="visible"/></g></svg>