<svg xmlns="http://www.w3.org/2000/svg" xmlns:svg="http://www.w3.org/2000/svg" xmlns:xlink="http://www.w3.org/1999/xlink" id="svg3192" width="16" height="16" version="1.0"><defs id="defs3194"><linearGradient id="linearGradient6261"><stop id="stop6263" offset="0" stop-color="#a0bfdf" stop-opacity="1"/><stop id="stop6265" offset="1" stop-color="#3e78b6" stop-opacity="1"/></linearGradient><radialGradient id="radialGradient5532" cx="7.308" cy="18.809" r="12.898" fx="7.308" fy="18.809" gradientUnits="userSpaceOnUse" xlink:href="#linearGradient6261"/><linearGradient id="linearGradient3184"><stop id="stop3186" offset="0" stop-color="#fff" stop-opacity="1"/><stop id="stop3188" offset="1" stop-color="#fff" stop-opacity="0"/></linearGradient><linearGradient id="linearGradient3190" x1="10.878" x2="10.878" y1="9.044" y2="42.069" gradientUnits="userSpaceOnUse" xlink:href="#linearGradient3184"/><linearGradient id="linearGradient6275"><stop id="stop6277" offset="0" stop-color="#f572a7" stop-opacity="1"/><stop id="stop6279" offset="1" stop-color="#f13581" stop-opacity="1"/></linearGradient><radialGradient id="radialGradient5534" cx="6.492" cy="17.853" r="12.898" fx="6.492" fy="17.853" gradientUnits="userSpaceOnUse" xlink:href="#linearGradient6275"/><linearGradient id="linearGradient3176"><stop id="stop3178" offset="0" stop-color="#fff" stop-opacity="1"/><stop id="stop3180" offset="1" stop-color="#fff" stop-opacity="0"/></linearGradient><linearGradient id="linearGradient3182" x1="10.878" x2="10.878" y1="9.044" y2="41.747" gradientUnits="userSpaceOnUse" xlink:href="#linearGradient3176"/></defs><g id="layer1"><path id="path5475" fill="url(#radialGradient5532)" fill-opacity="1" fill-rule="evenodd" stroke="#204a87" stroke-dasharray="none" stroke-dashoffset="0" stroke-linecap="butt" stroke-linejoin="miter" stroke-miterlimit="4" stroke-opacity="1" stroke-width="3.078" marker-end="none" marker-mid="none" marker-start="none" d="M 23.18961,23.407793 A 12.311688,12.311688 0 1 1 -1.4337664,23.407793 A 12.311688,12.311688 0 1 1 23.18961,23.407793 z" display="inline" enable-background="accumulate" overflow="visible" transform="matrix(0.3248945,0,0,0.3248945,0.9658226,0.8949368)" visibility="visible" style="marker:none"/><path stroke-width="4.104" style="marker:none" id="path5479" fill="none" fill-opacity="1" fill-rule="evenodd" stroke="url(#linearGradient3190)" stroke-dasharray="none" stroke-dashoffset="0" stroke-linecap="butt" stroke-linejoin="miter" stroke-miterlimit="4" stroke-opacity="1" marker-end="none" marker-mid="none" marker-start="none" d="M 23.18961,23.407793 A 12.311688,12.311688 0 1 1 -1.4337664,23.407793 A 12.311688,12.311688 0 1 1 23.18961,23.407793 z" display="inline" enable-background="accumulate" opacity=".4" overflow="visible" transform="matrix(0.2436709,0,0,0.2436709,1.8493672,2.796202)" visibility="visible"/><path id="path5477" fill="url(#radialGradient5534)" fill-opacity="1" fill-rule="evenodd" stroke="#d70061" stroke-dasharray="none" stroke-dashoffset="0" stroke-linecap="butt" stroke-linejoin="miter" stroke-miterlimit="4" stroke-opacity="1" stroke-width="3.078" marker-end="none" marker-mid="none" marker-start="none" d="M 23.18961,23.407793 A 12.311688,12.311688 0 1 1 -1.4337664,23.407793 A 12.311688,12.311688 0 1 1 23.18961,23.407793 z" display="inline" enable-background="accumulate" overflow="visible" transform="matrix(0.3248945,0,0,0.3248945,7.965823,0.8949368)" visibility="visible" style="marker:none"/><path stroke-width="4.104" style="marker:none" id="path6251" fill="none" fill-opacity="1" fill-rule="evenodd" stroke="url(#linearGradient3182)" stroke-dasharray="none" stroke-dashoffset="0" stroke-linecap="butt" stroke-linejoin="miter" stroke-miterlimit="4" stroke-opacity="1" marker-end="none" marker-mid="none" marker-start="none" d="M 23.18961,23.407793 A 12.311688,12.311688 0 1 1 -1.4337664,23.407793 A 12.311688,12.311688 0 1 1 23.18961,23.407793 z" display="inline" enable-background="accumulate" opacity=".4" overflow="visible" transform="matrix(0.2436709,0,0,0.243671,8.8493672,2.7961997)" visibility="visible"/></g></svg>