<svg xmlns="http://www.w3.org/2000/svg" xmlns:svg="http://www.w3.org/2000/svg" xmlns:xlink="http://www.w3.org/1999/xlink" id="svg3273" width="16" height="16" version="1.0"><defs id="defs3275"><linearGradient id="linearGradient2490-182-124"><stop id="stop2788" offset="0" stop-color="#1f4b6a" stop-opacity="1"/><stop id="stop2790" offset="1" stop-color="#4083c2" stop-opacity="1"/></linearGradient><linearGradient id="linearGradient3574" x1="11.169" x2="11.169" y1="16" y2="-.097" gradientUnits="userSpaceOnUse" xlink:href="#linearGradient2490-182-124"/><linearGradient id="linearGradient3242-187-536"><stop id="stop2778" offset="0" stop-color="#8badea" stop-opacity="1"/><stop id="stop2780" offset=".262" stop-color="#6396cd" stop-opacity="1"/><stop id="stop2782" offset=".661" stop-color="#3b7caf" stop-opacity="1"/><stop id="stop2784" offset="1" stop-color="#194c70" stop-opacity="1"/></linearGradient><radialGradient id="radialGradient4516" cx="12.011" cy="13.195" r="20" fx="12.011" fy="13.195" gradientTransform="matrix(2.1670072e-8,0.6462002,-0.9321321,0,15.876374,-3.8828059)" gradientUnits="userSpaceOnUse" xlink:href="#linearGradient3242-187-536"/><linearGradient id="linearGradient3308-4-6-931-761-6"><stop id="stop2919-1" offset="0" stop-color="#fff" stop-opacity="1"/><stop id="stop2921-0" offset="1" stop-color="#fff" stop-opacity="0"/></linearGradient><linearGradient id="linearGradient4513" x1="24" x2="24" y1="5" y2="43" gradientTransform="matrix(0.3513515,0,0,0.3513515,-0.4324325,-0.4324409)" gradientUnits="userSpaceOnUse" xlink:href="#linearGradient3308-4-6-931-761-6"/></defs><g id="layer1"><rect id="rect5505-3" width="15" height="15" x=".5" y=".5" fill="url(#radialGradient4516)" fill-opacity="1" stroke="url(#linearGradient3574)" stroke-dasharray="none" stroke-dashoffset="0" stroke-linecap="round" stroke-linejoin="round" stroke-miterlimit="4" stroke-opacity="1" stroke-width="1" rx="2" ry="2"/><rect id="rect6741" width="13" height="13" x="1.5" y="1.5" fill="none" stroke="url(#linearGradient4513)" stroke-dasharray="none" stroke-dashoffset="0" stroke-linecap="round" stroke-linejoin="round" stroke-miterlimit="4" stroke-opacity="1" stroke-width="1" opacity=".4" rx="1" ry="1"/><path id="path2499" fill="#fff" fill-opacity="1" stroke="none" stroke-linecap="butt" stroke-linejoin="miter" stroke-opacity="1" stroke-width="1" d="M 13,6.000001 C 12,5.7024186 11.48425,5.7425256 11.28154,6.000001 C 11.078831,6.2574764 10.999997,6.5065368 11,7.000001 L 13.005938,7.0073105 L 13.005938,8.9999492 L 10.996758,8.9999492 L 10.996758,14 L 9.009243,14 L 9.009243,8.9999492 L 6.999999,8.9999492 L 6.999999,7.0073105 L 9.009243,7.0073105 L 9.009243,6.5063989 C 9.0092421,5.5563583 9.2751388,5.1875718 9.8069354,4.7125374 C 10.762056,3.8726124 11.674231,4.000001 13,4.1178705 L 13,6.000001 z" font-family="Bitstream Vera Sans" font-size="44.038" font-style="normal" font-weight="normal" opacity=".4" style="line-height:125%"/><path id="text6275" fill="#1f4c6c" fill-opacity="1" stroke="none" stroke-linecap="butt" stroke-linejoin="miter" stroke-opacity="1" stroke-width="1" d="M 13,5 C 12,4.7024176 11.48425,4.7425246 11.28154,5 C 11.078831,5.2574754 10.999997,5.5065358 11,6 L 13.005938,6.0073095 L 13.005938,7.9999482 L 10.996758,7.9999482 L 10.996758,12.999999 L 9.009243,12.999999 L 9.009243,7.9999482 L 6.999999,7.9999482 L 6.999999,6.0073095 L 9.009243,6.0073095 L 9.009243,5.5063979 C 9.0092421,4.5563573 9.2751388,4.1875708 9.8069354,3.7125364 C 10.762056,2.8726114 11.674231,3 13,3.1178695 L 13,5 z" font-family="Bitstream Vera Sans" font-size="44.038" font-style="normal" font-weight="normal" style="line-height:125%"/><path id="path2501" fill="#fff" fill-opacity="1" stroke="none" stroke-linecap="butt" stroke-linejoin="miter" stroke-opacity="1" stroke-width="1" d="M 9.000001,6.000001 C 8.000001,5.7024186 7.484251,5.7425256 7.281541,6.000001 C 7.078832,6.2574764 6.999998,6.5065368 7.000001,7.000001 L 9.005939,7.0073105 L 9.005939,8.9999492 L 6.9967585,8.9999492 L 6.9967585,14 L 5.009244,14 L 5.009244,8.9999492 L 3,8.9999492 L 3,7.0073105 L 5.009244,7.0073105 L 5.009244,6.5063989 C 5.0092431,5.5563583 5.2751398,5.1875718 5.8069364,4.7125374 C 6.7620568,3.8726124 7.674232,4.000001 9.000001,4.1178705 L 9.000001,6.000001 z" font-family="Bitstream Vera Sans" font-size="44.038" font-style="normal" font-weight="normal" opacity=".4" style="line-height:125%"/><path id="path2497" fill="#1f4c6c" fill-opacity="1" stroke="none" stroke-linecap="butt" stroke-linejoin="miter" stroke-opacity="1" stroke-width="1" d="M 9.000001,5 C 8.000001,4.7024176 7.484251,4.7425246 7.281541,5 C 7.078832,5.2574754 6.999998,5.5065358 7.000001,6 L 9.005939,6.0073095 L 9.005939,7.9999482 L 6.9967585,7.9999482 L 6.9967585,12.999999 L 5.009244,12.999999 L 5.009244,7.9999482 L 3,7.9999482 L 3,6.0073095 L 5.009244,6.0073095 L 5.009244,5.5063979 C 5.0092431,4.5563573 5.2751398,4.1875708 5.8069364,3.7125364 C 6.7620568,2.8726114 7.674232,3 9.000001,3.1178695 L 9.000001,5 z" font-family="Bitstream Vera Sans" font-size="44.038" font-style="normal" font-weight="normal" style="line-height:125%"/></g></svg>