<svg xmlns="http://www.w3.org/2000/svg" xmlns:svg="http://www.w3.org/2000/svg" xmlns:xlink="http://www.w3.org/1999/xlink" id="svg3315" width="16" height="16" version="1.0"><defs id="defs3317"><linearGradient id="linearGradient2490"><stop id="stop2492" offset="0" stop-color="#791235" stop-opacity="1"/><stop id="stop2494" offset="1" stop-color="#dd3b27" stop-opacity="1"/></linearGradient><linearGradient id="linearGradient3307" x1="76.773" x2="76.773" y1="32.431" y2="3.278" gradientTransform="matrix(0.7240758,0,0,0.67002,-54.23517,-2.1962594)" gradientUnits="userSpaceOnUse" xlink:href="#linearGradient2490"/><linearGradient id="linearGradient3242"><stop id="stop3244" offset="0" stop-color="#f8b17e" stop-opacity="1"/><stop id="stop3246" offset=".312" stop-color="#e35d4f" stop-opacity="1"/><stop id="stop3248" offset=".571" stop-color="#c6262e" stop-opacity="1"/><stop id="stop3250" offset="1" stop-color="#690b54" stop-opacity="1"/></linearGradient><linearGradient id="linearGradient3305" x1="87.482" x2="87.482" y1="3.278" y2="44.216" gradientTransform="matrix(0.7240758,0,0,0.67002,-54.23517,-2.1962594)" gradientUnits="userSpaceOnUse" xlink:href="#linearGradient3242"/><linearGradient id="linearGradient2780"><stop id="stop2782" offset="0" stop-color="#fff" stop-opacity="1"/><stop id="stop2784" offset="1" stop-color="#fff" stop-opacity="0"/></linearGradient><linearGradient id="linearGradient3313" x1="66.519" x2="66.519" y1="5.588" y2="26.461" gradientTransform="matrix(0.6685591,0,0,0.678517,-33.617023,-2.814222)" gradientUnits="userSpaceOnUse" xlink:href="#linearGradient2780"/></defs><g id="layer1"><path id="path3269" fill="url(#linearGradient3305)" fill-opacity="1" fill-rule="evenodd" stroke="url(#linearGradient3307)" stroke-dasharray="none" stroke-dashoffset="0" stroke-linecap="butt" stroke-linejoin="miter" stroke-miterlimit="4" stroke-opacity="1" stroke-width="1" marker-end="none" marker-mid="none" marker-start="none" d="M 8,0.5 C 3.86,0.5 0.5,3.8600001 0.5,8 C 0.5,12.14 3.86,15.5 8,15.5 C 9.296155,15.5 10.515855,15.170654 11.579924,14.591137 C 11.957314,14.385601 15.163296,15.768143 15.498,15.503203 C 14.940904,13.977978 14.460756,11.809588 14.460756,11.809588 C 15.121006,10.692864 15.5,9.3904224 15.5,8 C 15.5,3.8599999 12.14,0.50000001 8,0.5 z M 8,3.5 C 10.484,3.5000001 12.5,5.516 12.5,8 C 12.5,8.6674631 12.35444,9.3011355 12.093353,9.8709844 C 12.093353,9.8709844 12.898369,12.917323 12.898369,12.917323 C 12.898369,12.917323 9.4359556,12.265741 9.4359556,12.265741 C 8.9849391,12.417654 8.5020276,12.5 8,12.5 C 5.5160001,12.5 3.5,10.484 3.5,8 C 3.5000001,5.5159998 5.516,3.5 8,3.5 z" display="inline" enable-background="accumulate" opacity="1" overflow="visible" visibility="visible" style="marker:none"/><path stroke-width="1.005" style="marker:none" id="path3309" fill="none" fill-opacity="1" fill-rule="evenodd" stroke="url(#linearGradient3313)" stroke-dasharray="none" stroke-dashoffset="0" stroke-linecap="butt" stroke-linejoin="miter" stroke-miterlimit="4" stroke-opacity="1" marker-end="none" marker-mid="none" marker-start="none" d="M 14.547993,8.0139618 A 6.5340314,6.5340314 0 1 1 1.4799304,8.0139618 A 6.5340314,6.5340314 0 1 1 14.547993,8.0139618 z" display="inline" enable-background="accumulate" opacity=".4" overflow="visible" transform="matrix(0.9947917,0,0,0.9947917,2.7777558e-2,2.7777545e-2)" visibility="visible"/></g></svg>