<svg xmlns="http://www.w3.org/2000/svg" xmlns:svg="http://www.w3.org/2000/svg" xmlns:xlink="http://www.w3.org/1999/xlink" id="svg2547" width="48" height="48" version="1.0"><defs id="defs2549"><linearGradient id="linearGradient3275"><stop id="stop3277" offset="0" stop-color="#fff" stop-opacity="0"/><stop id="stop3283" offset=".245" stop-color="#fff" stop-opacity="1"/><stop id="stop3285" offset=".774" stop-color="#fff" stop-opacity="1"/><stop id="stop3279" offset="1" stop-color="#fff" stop-opacity="0"/></linearGradient><linearGradient id="linearGradient2815" x1="44.995" x2="3.005" y1="17.5" y2="17.5" gradientUnits="userSpaceOnUse" spreadMethod="reflect" xlink:href="#linearGradient3275"/><linearGradient id="linearGradient3827"><stop id="stop3829" offset="0" stop-color="#fff" stop-opacity="1"/><stop id="stop4295" offset=".302" stop-color="#fff" stop-opacity="1"/><stop id="stop4293" offset=".344" stop-color="#fff" stop-opacity=".69"/><stop id="stop3832" offset="1" stop-color="#fff" stop-opacity="0"/></linearGradient><linearGradient id="linearGradient2813" x1="26" x2="26" y1="22" y2="8" gradientUnits="userSpaceOnUse" xlink:href="#linearGradient3827"/><linearGradient id="linearGradient4559"><stop id="stop4561" offset="0" stop-color="#fff" stop-opacity="0"/><stop id="stop4563" offset="1" stop-color="#fff" stop-opacity="0"/></linearGradient><linearGradient id="linearGradient2811" x1="23.452" x2="43.007" y1="30.555" y2="45.934" gradientTransform="matrix(1.2822251,0,0,1.1746872,-6.0701918,-5.3031677)" gradientUnits="userSpaceOnUse" xlink:href="#linearGradient4559"/><linearGradient id="linearGradient3295"><stop id="stop3297" offset="0" stop-color="#c9af8b" stop-opacity="1"/><stop id="stop3299" offset=".239" stop-color="#ad8757" stop-opacity="1"/><stop id="stop3301" offset=".276" stop-color="#c2a57f" stop-opacity="1"/><stop id="stop3303" offset="1" stop-color="#9d7d53" stop-opacity="1"/></linearGradient><linearGradient id="linearGradient2809" x1="15.464" x2="15.464" y1="7.976" y2="45.042" gradientUnits="userSpaceOnUse" xlink:href="#linearGradient3295"/><linearGradient id="linearGradient3199"><stop id="stop3201" offset="0" stop-color="#dac197" stop-opacity="1"/><stop id="stop3203" offset=".239" stop-color="#c1a581" stop-opacity="1"/><stop id="stop3205" offset=".276" stop-color="#dbc298" stop-opacity="1"/><stop id="stop3207" offset="1" stop-color="#a68b60" stop-opacity="1"/></linearGradient><linearGradient id="linearGradient2807" x1="24.823" x2="24.997" y1="15.378" y2="37.277" gradientTransform="matrix(1.2822251,0,0,1.5572619,-6.0701918,-15.290756)" gradientUnits="userSpaceOnUse" xlink:href="#linearGradient3199"/><radialGradient id="radialGradient2805" cx="5" cy="41.5" r="5" fx="5" fy="41.5" gradientTransform="matrix(0.5938225,0,0,1.5366531,41.140892,-103.93618)" gradientUnits="userSpaceOnUse" xlink:href="#linearGradient3681"/><linearGradient id="linearGradient3703"><stop id="stop3705" offset="0" stop-color="#000" stop-opacity="0"/><stop id="stop3711" offset=".5" stop-color="#000" stop-opacity="1"/><stop id="stop3707" offset="1" stop-color="#000" stop-opacity="0"/></linearGradient><linearGradient id="linearGradient2803" x1="17.554" x2="17.554" y1="46" y2="35" gradientTransform="matrix(1.7570316,0,0,1.3969574,-17.394014,-16.411698)" gradientUnits="userSpaceOnUse" xlink:href="#linearGradient3703"/><linearGradient id="linearGradient3681"><stop id="stop3683" offset="0" stop-color="#000" stop-opacity="1"/><stop id="stop3685" offset="1" stop-color="#000" stop-opacity="0"/></linearGradient><radialGradient id="radialGradient2801" cx="5" cy="41.5" r="5" fx="5" fy="41.5" gradientTransform="matrix(0.5938225,0,0,1.5366531,-6.6594735,-103.93618)" gradientUnits="userSpaceOnUse" xlink:href="#linearGradient3681"/><linearGradient id="linearGradient5128"><stop id="stop5130" offset="0" stop-color="#fff" stop-opacity="1"/><stop id="stop5132" offset="1" stop-color="#959595" stop-opacity="1"/></linearGradient><linearGradient id="linearGradient2521" x1="86.133" x2="84.639" y1="105.105" y2="20.895" gradientTransform="matrix(0.2014014,0,0,0.2014015,-48.937888,10.408091)" gradientUnits="userSpaceOnUse" xlink:href="#linearGradient5128"/><linearGradient id="linearGradient3397"><stop id="stop3399" offset="0" stop-color="#aaa" stop-opacity="1"/><stop id="stop3401" offset="1" stop-color="#8c8c8c" stop-opacity="1"/></linearGradient><linearGradient id="linearGradient2519" x1="25.923" x2="25.923" y1="19" y2="47.045" gradientTransform="translate(-67.048193,-9.9036144)" gradientUnits="userSpaceOnUse" xlink:href="#linearGradient3397"/><linearGradient id="linearGradient3309" x1="63.999" x2="63.999" y1="3.1" y2="122.899" gradientUnits="userSpaceOnUse"><stop id="stop3311" offset="0" stop-color="#f6f6f6" stop-opacity="1"/><stop id="stop3313" offset="1" stop-color="#d2d2d2" stop-opacity="1"/></linearGradient><linearGradient id="linearGradient2517" x1="32.036" x2="32.036" y1="19" y2="47.012" gradientTransform="translate(-67.048193,-9.9036144)" gradientUnits="userSpaceOnUse" xlink:href="#linearGradient3309"/></defs><g id="layer1"><g id="g2791" transform="translate(6.1178597e-7,-0.9999989)"><g id="g3305" display="inline" opacity=".4" transform="matrix(0.9926623,0,0,0.9761474,0.2751901,1.2929634)"><rect id="rect2484" width="2.96" height="15.367" x="-3.69" y="-47.848" fill="url(#radialGradient2801)" fill-opacity="1" stroke="none" stroke-dasharray="none" stroke-dashoffset="1.2" stroke-linecap="round" stroke-linejoin="miter" stroke-miterlimit="4" stroke-opacity="1" stroke-width="1" opacity="1" transform="scale(-1,-1)"/><rect id="rect2486" width="40.412" height="15.367" x="3.69" y="32.482" fill="url(#linearGradient2803)" fill-opacity="1" stroke="none" stroke-dasharray="none" stroke-dashoffset="1.2" stroke-linecap="round" stroke-linejoin="miter" stroke-miterlimit="4" stroke-opacity="1" stroke-width="1" opacity="1"/><rect id="rect3444" width="2.96" height="15.367" x="44.11" y="-47.848" fill="url(#radialGradient2805)" fill-opacity="1" stroke="none" stroke-dasharray="none" stroke-dashoffset="1.2" stroke-linecap="round" stroke-linejoin="miter" stroke-miterlimit="4" stroke-opacity="1" stroke-width="1" display="inline" opacity="1" transform="scale(1,-1)"/></g><path id="path2488" fill="url(#linearGradient2807)" fill-opacity="1" fill-rule="nonzero" stroke="url(#linearGradient2809)" stroke-dasharray="none" stroke-dashoffset="0" stroke-linecap="round" stroke-linejoin="miter" stroke-miterlimit="4" stroke-opacity="1" stroke-width=".994" marker-end="none" marker-mid="none" marker-start="none" d="M 9.010725,8.5 L 38.508448,8.5 C 40.230433,8.5 41.00537,8.2134495 41.5,9.5 L 44.501734,17.5 L 44.501734,43.173912 C 44.501734,44.727216 44.604664,44.489888 42.882671,44.489888 L 5.1173288,44.489888 C 3.3953364,44.489888 3.4982653,44.727216 3.4982653,43.173912 L 3.4982653,17.5 L 6.5,9.5 C 6.9808316,8.2394378 7.2887325,8.5 9.010725,8.5 z" display="block" overflow="visible" visibility="visible" style="marker:none"/><path id="path2490" fill="none" fill-opacity="1" fill-rule="nonzero" stroke="url(#linearGradient2811)" stroke-dasharray="none" stroke-dashoffset="0" stroke-linecap="butt" stroke-linejoin="miter" stroke-miterlimit="4" stroke-opacity="1" stroke-width=".742" marker-end="none" marker-mid="none" marker-start="none" d="M 9.948194,9.5129459 L 37.601066,9.5129459 C 39.215359,9.5129459 40.214446,10.069482 40.890587,11.598974 L 43.219527,18.018695 L 43.219527,41.163252 C 43.219527,42.623928 42.400768,43.359337 40.786471,43.359337 L 7.0532679,43.359337 C 5.4389745,43.359337 4.7804918,42.55051 4.7804918,41.089833 L 4.7804918,18.018695 L 7.0343027,11.461335 C 7.4850649,10.275943 8.3338968,9.5129459 9.948194,9.5129459 z" display="block" opacity=".505" overflow="visible" visibility="visible" style="marker:none"/><path id="rect3326" fill="url(#linearGradient2813)" fill-opacity="1" fill-rule="nonzero" stroke="none" stroke-dasharray="none" stroke-dashoffset="0" stroke-linecap="square" stroke-linejoin="round" stroke-miterlimit="4" stroke-opacity="1" stroke-width="1" marker-end="none" marker-mid="none" marker-start="none" d="M 22,8 C 23.333333,8 24.666667,8 26,8 C 26,12.666667 26,17.333333 26,22 C 25.606271,22 25.212542,22 24.818813,22 C 24.415688,22 24.012563,22 23.609438,22 C 23.284909,22 22.960381,22 22.635853,22 C 22.423902,22 22.211951,22 22,22 C 22,17.333333 22,12.666667 22,8 z" display="inline" enable-background="accumulate" opacity=".4" overflow="visible" visibility="visible" style="marker:none"/><path id="path3273" fill="none" fill-rule="evenodd" stroke="url(#linearGradient2815)" stroke-linecap="square" stroke-linejoin="miter" stroke-opacity="1" stroke-width="1" d="M 3.5052248,17.5 L 44.494775,17.5" display="inline" opacity=".4"/></g><g id="g2512" transform="translate(70.048193,10.903614)"><path id="rect2576" fill="url(#linearGradient2517)" fill-opacity="1" fill-rule="nonzero" stroke="url(#linearGradient2519)" stroke-dasharray="none" stroke-dashoffset="0" stroke-linecap="butt" stroke-linejoin="round" stroke-miterlimit="4" stroke-opacity="1" stroke-width="1" marker-end="none" marker-mid="none" marker-start="none" d="M -38.173192,9.5963856 C -38.921931,9.5963856 -39.548192,10.191398 -39.548192,10.940136 L -39.548192,12.690135 C -40.021594,12.849011 -40.480943,13.033541 -40.923192,13.252635 L -42.141942,12.033885 C -42.671381,11.504447 -43.518755,11.504447 -44.048192,12.033885 L -47.110692,15.065135 C -47.640131,15.594573 -47.640128,16.441948 -47.110692,16.971385 L -45.891942,18.190136 C -46.116269,18.640068 -46.292575,19.114068 -46.454442,19.596386 L -48.173192,19.596386 C -48.921931,19.596386 -49.548195,20.191398 -49.548192,20.940136 L -49.548192,25.252636 C -49.548193,26.001374 -48.921928,26.596388 -48.173192,26.596386 L -46.454442,26.596386 C -46.292575,27.078704 -46.116269,27.552704 -45.891942,28.002636 L -47.110692,29.221386 C -47.640131,29.750824 -47.640132,30.598198 -47.110692,31.127636 L -44.048192,34.158886 C -43.518755,34.688324 -42.671379,34.688322 -42.141942,34.158886 L -40.923192,32.940136 C -40.480943,33.15923 -40.021594,33.34376 -39.548192,33.502636 L -39.548192,35.252636 C -39.548193,36.001374 -38.921926,36.596388 -38.173192,36.596386 L -33.891942,36.596386 C -33.143203,36.596386 -32.548192,36.001372 -32.548192,35.252636 L -32.548192,33.502636 C -32.065874,33.340768 -31.591874,33.164463 -31.141942,32.940136 L -29.923193,34.158886 C -29.393754,34.688324 -28.546382,34.688324 -28.016943,34.158886 L -24.954443,31.127636 C -24.425004,30.598198 -24.425009,29.750822 -24.954443,29.221386 L -26.204443,27.971386 C -25.985349,27.529137 -25.800819,27.069788 -25.641943,26.596386 L -23.891943,26.596386 C -23.143204,26.596386 -22.548193,26.001372 -22.548193,25.252636 L -22.548193,20.940136 C -22.548192,20.191398 -23.143209,19.596386 -23.891943,19.596386 L -25.641943,19.596386 C -25.800819,19.122984 -25.985349,18.663635 -26.204443,18.221386 L -24.954443,16.971385 C -24.425004,16.441947 -24.425005,15.594573 -24.954443,15.065135 L -28.016943,12.033885 C -28.54638,11.504447 -29.393757,11.504447 -29.923193,12.033885 L -31.141942,13.252635 C -31.591874,13.028308 -32.065874,12.852003 -32.548192,12.690135 L -32.548192,10.940136 C -32.548191,10.191398 -33.143208,9.5963856 -33.891942,9.5963856 L -38.173192,9.5963856 z M -36.048192,19.596386 C -34.116192,19.596386 -32.548192,21.164386 -32.548192,23.096386 C -32.548192,25.028386 -34.116192,26.596386 -36.048192,26.596386 C -37.980193,26.596386 -39.548192,25.028386 -39.548192,23.096386 C -39.548193,21.164386 -37.980192,19.596386 -36.048192,19.596386 z" display="block" enable-background="accumulate" overflow="visible" visibility="visible" style="marker:none"/><path id="path3315" fill="#000" fill-opacity="1" stroke="none" stroke-dasharray="none" stroke-miterlimit="4" stroke-width="1" d="M -36.048192,15.096385 C -40.459465,15.096385 -44.04819,18.685113 -44.04819,23.096386 C -44.04819,27.50766 -40.459465,31.096386 -36.048192,31.096386 C -31.636919,31.096386 -28.048193,27.50766 -28.048193,23.096386 C -28.048193,18.685113 -31.636919,15.096385 -36.048192,15.096385 z M -36.048192,18.788695 C -33.670348,18.788695 -31.740499,20.718541 -31.740499,23.096386 C -31.740499,25.474233 -33.670348,27.404079 -36.048192,27.404079 C -38.426038,27.404079 -40.355883,25.474233 -40.355883,23.096386 C -40.355883,20.718541 -38.426038,18.788695 -36.048192,18.788695 z" opacity=".05"/><path id="path28" fill="none" stroke="url(#linearGradient2521)" stroke-dasharray="none" stroke-miterlimit="4" stroke-width="1" d="M -36.048192,14.717076 C -40.668545,14.717076 -44.427501,18.476034 -44.427501,23.096385 C -44.427501,27.716737 -40.668545,31.475695 -36.048192,31.475695 C -31.427839,31.475695 -27.668883,27.716737 -27.668883,23.096385 C -27.668883,18.476034 -31.427839,14.717076 -36.048192,14.717076 z"/></g></g></svg>