<svg xmlns="http://www.w3.org/2000/svg" xmlns:svg="http://www.w3.org/2000/svg" xmlns:xlink="http://www.w3.org/1999/xlink" id="svg4100" width="48" height="48" version="1.1"><defs id="defs4102"><linearGradient id="linearGradient2959" x1="24" x2="24" y1="5" y2="43" gradientTransform="translate(3.7e-6,1.00001)" gradientUnits="userSpaceOnUse" xlink:href="#linearGradient3924"/><linearGradient id="linearGradient3924"><stop id="stop3926" offset="0" stop-color="#fff" stop-opacity="1"/><stop id="stop3928" offset=".063" stop-color="#fff" stop-opacity=".235"/><stop id="stop3930" offset=".951" stop-color="#fff" stop-opacity=".157"/><stop id="stop3932" offset="1" stop-color="#fff" stop-opacity=".392"/></linearGradient><linearGradient id="linearGradient4010" x1="26.687" x2="26.687" y1="44.576" y2="4.999" gradientUnits="userSpaceOnUse" xlink:href="#linearGradient3707-319-631-407-324"/><linearGradient id="linearGradient3707-319-631-407-324"><stop id="stop3760" offset="0" stop-color="#185f9a" stop-opacity="1"/><stop id="stop3762" offset="1" stop-color="#599ec9" stop-opacity="1"/></linearGradient><linearGradient id="linearGradient4018" x1="22.859" x2="22.859" y1="44.713" y2="5.419" gradientUnits="userSpaceOnUse" xlink:href="#linearGradient3707-319-631-407-324"/><linearGradient id="linearGradient4026" x1="23.831" x2="23.831" y1="44.428" y2="4.703" gradientUnits="userSpaceOnUse" xlink:href="#linearGradient3707-319-631-407-324"/><radialGradient id="radialGradient2874" cx="7.496" cy="8.45" r="20" fx="7.496" fy="8.45" gradientTransform="matrix(1.9428467e-8,2.33699,-2.4722567,-4.3056275e-8,44.890104,-11.434799)" gradientUnits="userSpaceOnUse" xlink:href="#linearGradient2867-449-88-871-390-598-476-591-434-148-57-177"/><linearGradient id="linearGradient2867-449-88-871-390-598-476-591-434-148-57-177"><stop id="stop3750" offset="0" stop-color="#90dbec" stop-opacity="1"/><stop id="stop3752" offset=".262" stop-color="#55c1ec" stop-opacity="1"/><stop id="stop3754" offset=".705" stop-color="#3689e6" stop-opacity="1"/><stop id="stop3756" offset="1" stop-color="#2b63a0" stop-opacity="1"/></linearGradient><linearGradient id="linearGradient2876" x1="24" x2="24" y1="44" y2="3.899" gradientTransform="translate(1.2e-6,1)" gradientUnits="userSpaceOnUse" xlink:href="#linearGradient3707-319-631-407-324"/><radialGradient id="radialGradient3013" cx="4.993" cy="43.5" r="2.5" fx="4.993" fy="43.5" gradientTransform="matrix(2.003784,0,0,1.4,27.98813,-17.4)" gradientUnits="userSpaceOnUse" xlink:href="#linearGradient3688-166-749"/><linearGradient id="linearGradient3688-166-749"><stop id="stop2883" offset="0" stop-color="#181818" stop-opacity="1"/><stop id="stop2885" offset="1" stop-color="#181818" stop-opacity="0"/></linearGradient><radialGradient id="radialGradient3015" cx="4.993" cy="43.5" r="2.5" fx="4.993" fy="43.5" gradientTransform="matrix(2.003784,0,0,1.4,-20.01187,-104.4)" gradientUnits="userSpaceOnUse" xlink:href="#linearGradient3688-464-309"/><linearGradient id="linearGradient3688-464-309"><stop id="stop2889" offset="0" stop-color="#181818" stop-opacity="1"/><stop id="stop2891" offset="1" stop-color="#181818" stop-opacity="0"/></linearGradient><linearGradient id="linearGradient3702-501-757"><stop id="stop2895" offset="0" stop-color="#181818" stop-opacity="0"/><stop id="stop2897" offset=".5" stop-color="#181818" stop-opacity="1"/><stop id="stop2899" offset="1" stop-color="#181818" stop-opacity="0"/></linearGradient><linearGradient id="linearGradient4098" x1="25.058" x2="25.058" y1="47.028" y2="39.999" gradientUnits="userSpaceOnUse" xlink:href="#linearGradient3702-501-757"/></defs><metadata id="metadata4105"/><g id="layer1"><g id="g3712" opacity=".4" transform="matrix(1.1578952,0,0,0.57142859,-3.789484,19.142856)"><rect id="rect2801" width="5" height="7" x="38" y="40" fill="url(#radialGradient3013)" fill-opacity="1" stroke="none"/><rect id="rect3696" width="5" height="7" x="-10" y="-47" fill="url(#radialGradient3015)" fill-opacity="1" stroke="none" transform="scale(-1,-1)"/><rect id="rect3700" width="28" height="7" x="10" y="40" fill="url(#linearGradient4098)" fill-opacity="1" stroke="none"/></g><rect stroke-linejoin="round" style="marker:none" id="rect5505-21" width="39" height="39" x="4.5" y="5.5" fill="url(#radialGradient2874)" fill-opacity="1" fill-rule="nonzero" stroke="url(#linearGradient2876)" stroke-dasharray="none" stroke-dashoffset="0" stroke-linecap="round" stroke-miterlimit="4" stroke-opacity="1" stroke-width="1" color="#000" display="inline" enable-background="accumulate" overflow="visible" rx="2" ry="2" visibility="visible"/><path color="#000" style="marker:none" id="path3997-2" fill="url(#linearGradient4026)" fill-opacity="1" fill-rule="nonzero" stroke="none" stroke-width=".985" d="m 37.63817,22.998108 c 1.039336,-0.07692 1.486554,-1.180407 1.34375,-2.09397 -0.02119,-2.900955 0.04244,-5.807434 -0.03191,-8.704933 -0.203349,-1.257636 -1.994818,-1.607855 -2.710595,-0.583597 -0.762917,0.762917 -1.525833,1.525833 -2.28875,2.28875 -3.922367,-3.655281 -9.870909,-4.911247 -14.917285,-3.068996 -4.693981,1.619018 -8.510105,5.721495 -9.595784,10.585061 -0.0872,1.090761 1.045067,1.753758 2.022187,1.577685 1.064329,-0.05737 2.163417,0.129159 3.201201,-0.123463 1.02061,-0.470146 0.981492,-1.784353 1.634721,-2.581447 2.197879,-3.735769 7.36933,-5.466133 11.276354,-3.433096 0.507772,0.453593 2.551749,0.995598 1.706107,1.716756 -0.715477,0.795868 -1.626286,1.445052 -2.185747,2.359663 -0.482059,1.087782 0.60503,2.277517 1.728908,2.061587 2.938943,0 5.877907,0 8.816838,0 z M 10.34375,27 C 9.3044144,27.07692 8.8571964,28.180407 9,29.09397 c 0.021192,2.900955 -0.04244,5.807434 0.031905,8.704933 0.2033488,1.257636 1.994818,1.607855 2.710595,0.583597 0.762917,-0.762917 1.525833,-1.525833 2.28875,-2.28875 3.922368,3.655281 9.87091,4.911247 14.917286,3.068996 4.693981,-1.619018 8.510105,-5.721495 9.595784,-10.585061 C 38.63152,27.486924 37.499253,26.823927 36.522133,27 c -1.064329,0.05737 -2.163417,-0.129159 -3.201201,0.123463 -1.02061,0.470146 -0.981492,1.784353 -1.634721,2.581447 -2.197879,3.735769 -7.36933,5.466133 -11.276354,3.433096 -0.507772,-0.453593 -2.551749,-0.995598 -1.706107,-1.716756 0.715477,-0.795868 1.626286,-1.445052 2.185747,-2.359663 C 21.371556,27.973805 20.284467,26.78407 19.160589,27 c -2.938944,0 -5.877908,0 -8.816839,0 z" display="inline" enable-background="accumulate" opacity=".25" overflow="visible" visibility="visible"/><path color="#000" style="marker:none" id="path3997-7-7" fill="url(#linearGradient4018)" fill-opacity="1" fill-rule="nonzero" stroke="none" stroke-width=".985" d="m 37.73192,23.966858 c 1.532083,-0.106764 2.42607,-1.683028 2.21875,-3.10108 -0.0082,-2.871405 0.01642,-5.743633 -0.01242,-8.614517 -0.09824,-2.002127 -2.861546,-2.989444 -4.206329,-1.503153 -0.604167,0.604167 -1.208333,1.208333 -1.8125,1.8125 -4.835512,-4.011082 -12.09679,-4.675185 -17.569066,-1.582541 -3.90996,2.143193 -6.95109,5.992638 -7.850388,10.382903 -0.142245,1.61668 1.466249,2.840248 2.992703,2.605888 1.256146,-0.08266 2.587697,0.223592 3.769628,-0.298003 1.527966,-0.940766 1.480601,-3.092171 2.891599,-4.200142 2.42255,-2.663515 6.759312,-3.33224 9.782298,-1.300462 0.431743,0.342785 -0.670592,0.868509 -0.916523,1.292107 -1.35651,0.993808 -1.340304,3.281336 0.160235,4.135503 1.204281,0.636113 2.614069,0.276007 3.921669,0.370997 2.210114,0 4.420237,0 6.630345,0 z M 10.25,26.03125 c -1.5320826,0.106764 -2.4260697,1.683028 -2.21875,3.10108 0.00817,2.871405 -0.016419,5.743633 0.012421,8.614517 0.098238,2.002127 2.861546,2.989444 4.206329,1.503153 0.604167,-0.604167 1.208333,-1.208333 1.8125,-1.8125 4.835513,4.011082 12.096791,4.675185 17.569067,1.582541 3.90996,-2.143193 6.95109,-5.992638 7.850388,-10.382903 0.142245,-1.61668 -1.466249,-2.840248 -2.992703,-2.605888 -1.256146,0.08266 -2.587697,-0.223592 -3.769628,0.298003 -1.527966,0.940766 -1.480601,3.092171 -2.891599,4.200142 -2.42255,2.663515 -6.759312,3.33224 -9.782298,1.300462 -0.431743,-0.342785 0.670592,-0.868509 0.916523,-1.292107 1.35651,-0.993808 1.340304,-3.281336 -0.160235,-4.135503 -1.204281,-0.636113 -2.614069,-0.276007 -3.92167,-0.370997 -2.210114,0 -4.420237,0 -6.630345,0 z" display="inline" enable-background="accumulate" opacity=".1" overflow="visible" visibility="visible"/><path color="#000" style="marker:none" id="path4090" fill="url(#linearGradient4010)" fill-opacity="1" fill-rule="nonzero" stroke="none" stroke-width=".985" d="m 18.875,25 c -0.748452,-0.0015 -1.415497,0.06917 -1.9375,0.03125 a 1.0062028,1.0062028 0 0 0 -0.0625,0 l -6.625,0 a 1.0062028,1.0062028 0 0 0 -0.0625,0 c -1.0934508,0.0762 -1.9976951,0.700768 -2.53125,1.5 -0.5046121,0.755877 -0.7213398,1.679192 -0.625,2.59375 0.00553,0.05246 -0.00766,0.103827 0,0.15625 0.00642,2.809873 -0.028469,5.634743 0,8.46875 a 1.0062028,1.0062028 0 0 0 0,0.0625 c 0.1421514,2.897098 3.972652,4.268382 5.9375,2.15625 C 12.97924,39.95748 12.98962,39.94897 13,39.9375 l 1.21875,-1.21875 c 5.135728,3.752289 12.300977,4.323542 17.875,1.1875 0.0075,-0.0041 0.02376,0.0041 0.03125,0 4.154626,-2.285667 7.380245,-6.390032 8.34375,-11.09375 a 1.0062028,1.0062028 0 0 0 0,-0.09375 c 0.200297,-2.276467 -1.918245,-3.953803 -4.03125,-3.6875 -0.02636,0.0017 -0.06684,-0.0012 -0.09375,0 -1.049633,0.04741 -2.504101,-0.267692 -4.03125,0.40625 A 1.0062028,1.0062028 0 0 0 32.1875,25.5 c -1.05657,0.650528 -1.508796,1.662529 -1.875,2.46875 -0.366204,0.806221 -0.669788,1.4238 -1.125,1.78125 a 1.0062028,1.0062028 0 0 0 -0.125,0.09375 C 27.206283,31.8846 24.003341,32.480314 21.5,31.375 c 0.01711,-0.0168 0.0451,-0.01289 0.0625,-0.03125 l 0,-0.03125 c 0.04663,-0.05041 0.07704,-0.06153 0.125,-0.125 0.05298,-0.04402 0.07534,-0.109621 0.125,-0.15625 l 0.03125,0 c 1.605107,-1.525281 1.50405,-4.341427 -0.53125,-5.5 a 1.0062028,1.0062028 0 0 0 -0.03125,0 C 20.473877,25.104788 19.627449,25.001537 18.875,25 z m 10.23192,-0.0019 c 0.748452,0.0015 1.415497,-0.06917 1.9375,-0.03125 a 1.0062028,1.0062028 0 0 0 0.0625,0 l 6.625,0 a 1.0062028,1.0062028 0 0 0 0.0625,0 c 1.093451,-0.0762 1.997695,-0.700768 2.53125,-1.5 0.504612,-0.755877 0.72134,-1.679192 0.625,-2.59375 -0.0055,-0.05246 0.0077,-0.103827 0,-0.15625 -0.0064,-2.809873 0.02847,-5.634743 0,-8.46875 a 1.0062028,1.0062028 0 0 0 0,-0.0625 c -0.142151,-2.897098 -3.972652,-4.268382 -5.9375,-2.15625 -0.01049,0.01127 -0.02087,0.01978 -0.03125,0.03125 l -1.21875,1.21875 c -5.135728,-3.752289 -12.300977,-4.323542 -17.875,-1.1875 -0.0075,0.0041 -0.02376,-0.0041 -0.03125,0 -4.154626,2.285667 -7.380245,6.390032 -8.34375,11.09375 a 1.0062028,1.0062028 0 0 0 0,0.09375 c -0.200297,2.276467 1.918245,3.953803 4.03125,3.6875 0.02636,-0.0017 0.06684,0.0012 0.09375,0 1.049633,-0.04741 2.504101,0.267692 4.03125,-0.40625 a 1.0062028,1.0062028 0 0 0 0.125,-0.0625 c 1.05657,-0.650528 1.508796,-1.662529 1.875,-2.46875 0.366204,-0.806221 0.669788,-1.4238 1.125,-1.78125 a 1.0062028,1.0062028 0 0 0 0.125,-0.09375 c 1.856217,-2.04085 5.059159,-2.636564 7.5625,-1.53125 -0.01711,0.0168 -0.0451,0.01289 -0.0625,0.03125 l 0,0.03125 c -0.04663,0.05041 -0.07704,0.06153 -0.125,0.125 -0.05298,0.04402 -0.07534,0.109621 -0.125,0.15625 l -0.03125,0 c -1.605107,1.525281 -1.50405,4.341427 0.53125,5.5 a 1.0062028,1.0062028 0 0 0 0.03125,0 c 0.807373,0.426462 1.653801,0.529713 2.40625,0.53125 z" display="inline" enable-background="accumulate" opacity=".05" overflow="visible" visibility="visible"/><rect id="rect6741" width="37" height="37" x="5.5" y="6.5" fill="none" stroke="url(#linearGradient2959)" stroke-dasharray="none" stroke-dashoffset="0" stroke-linecap="round" stroke-linejoin="round" stroke-miterlimit="4" stroke-opacity="1" stroke-width="1" opacity=".5" rx="1" ry="1"/><path id="path3858-3-5" fill="#f7f7f7" fill-opacity="1" fill-rule="nonzero" stroke="#fff" stroke-dasharray="none" stroke-dashoffset="0" stroke-linecap="butt" stroke-linejoin="miter" stroke-miterlimit="4" stroke-opacity="1" stroke-width=".985" d="m 37.48192,21.498108 0,-9 -3.46875,3.46875 c -2.467007,-2.743102 -6.045742,-4.46875 -10.031249,-4.46875 -6.249741,0 -11.491361,4.238015 -13.03125,10 l 3.125,0 c 1.440083,-4.079879 5.330745,-7 9.90625,-7 3.14566,0 5.981759,1.374105 7.906249,3.5625 0.0053,0.0061 -0.0053,0.02517 0,0.03125 l -3.406249,3.40625 5.406249,0 3.125,0 0.46875,0 z M 10.5,28.5 l 0,9 3.46875,-3.46875 C 16.435757,36.774352 20.014493,38.5 24,38.5 c 6.249741,0 11.491361,-4.238015 13.03125,-10 l -3.125,0 c -1.440083,4.079879 -5.330745,7 -9.90625,7 -3.14566,0 -5.981759,-1.374105 -7.90625,-3.5625 -0.0053,-0.0061 0.0053,-0.02517 0,-0.03125 L 19.5,28.5 l -5.40625,0 -3.125,0 -0.46875,0 z" color="#000" display="inline" enable-background="accumulate" overflow="visible" visibility="visible" style="marker:none"/></g></svg>