<svg xmlns="http://www.w3.org/2000/svg" xmlns:svg="http://www.w3.org/2000/svg" xmlns:xlink="http://www.w3.org/1999/xlink" id="svg5090" width="48" height="48" version="1.0"><metadata id="metadata70"/><defs id="defs5092"><linearGradient id="linearGradient4982" x1="21.512" x2="13.015" y1="28.375" y2="28.375" gradientTransform="matrix(0.9583404,0,0,1.1331788,3.395655,-1.3944541)" gradientUnits="userSpaceOnUse" spreadMethod="reflect" xlink:href="#linearGradient2793-2-0-669"/><linearGradient id="linearGradient3280-373"><stop id="stop4633" offset="0" stop-color="#000" stop-opacity="1"/><stop id="stop4635" offset="1" stop-color="#000" stop-opacity="0"/></linearGradient><radialGradient id="radialGradient2671" cx="21.344" cy="14.125" r="11.969" fx="21.344" fy="14.125" gradientTransform="matrix(1.2532661,0,0,0.5125818,-2.749384,33.624816)" gradientUnits="userSpaceOnUse" xlink:href="#linearGradient3280-373"/><linearGradient id="linearGradient3578-995-735-4-566-885-385-488-812-692-100-298-982-943"><stop id="stop4639" offset="0" stop-color="#115984" stop-opacity="1"/><stop id="stop4641" offset="1" stop-color="#5498c5" stop-opacity="1"/></linearGradient><linearGradient id="linearGradient2668" x1="13.042" x2="21.512" y1="32.543" y2="32.543" gradientTransform="matrix(0.9583404,0,0,1.1331788,3.395655,-1.3944541)" gradientUnits="userSpaceOnUse" spreadMethod="reflect" xlink:href="#linearGradient3578-995-735-4-566-885-385-488-812-692-100-298-982-943"/><linearGradient id="linearGradient3355-273"><stop id="stop4657" offset="0" stop-color="#e1e1e1" stop-opacity="1"/><stop id="stop4659" offset="1" stop-color="#a6a6a6" stop-opacity="1"/></linearGradient><linearGradient id="linearGradient2661" x1="24" x2="24" y1="9.373" y2="5.603" gradientTransform="matrix(0.9200488,0,0,1,1.91933,-7.078e-4)" gradientUnits="userSpaceOnUse" xlink:href="#linearGradient3355-273"/><linearGradient id="linearGradient3844-342"><stop id="stop4651" offset="0" stop-color="#a6a6a6" stop-opacity="1"/><stop id="stop4653" offset="1" stop-color="#e8e8e8" stop-opacity="1"/></linearGradient><linearGradient id="linearGradient2659" x1="17.243" x2="17.243" y1="11.001" y2="2" gradientTransform="matrix(0.9200488,0,0,1,1.91933,-7.078e-4)" gradientUnits="userSpaceOnUse" xlink:href="#linearGradient3844-342"/><linearGradient id="linearGradient3254-8-457"><stop id="stop4669" offset="0" stop-color="#fff" stop-opacity="1"/><stop id="stop4671" offset="1" stop-color="#fff" stop-opacity="0"/></linearGradient><linearGradient id="linearGradient2653" x1="23.5" x2="23.5" y1="10.996" y2="39.851" gradientTransform="matrix(0.9583174,0,0,1.4262344,1.479494,-12.86101)" gradientUnits="userSpaceOnUse" xlink:href="#linearGradient3254-8-457"/><linearGradient id="linearGradient2509-6-3-746"><stop id="stop4699" offset="0" stop-color="#b3b3b3" stop-opacity="1"/><stop id="stop4701" offset="1" stop-color="#dadada" stop-opacity="1"/></linearGradient><linearGradient id="linearGradient2646" x1="109.956" x2="109.956" y1="-24.911" y2="-2.376" gradientTransform="matrix(0.1792665,0,0,0.1462979,5.307569,3.9776969)" gradientUnits="userSpaceOnUse" xlink:href="#linearGradient2509-6-3-746"/><linearGradient id="linearGradient3844-9-5-84"><stop id="stop4693" offset="0" stop-color="#a6a6a6" stop-opacity="1"/><stop id="stop4695" offset="1" stop-color="#e8e8e8" stop-opacity="1"/></linearGradient><linearGradient id="linearGradient2644" x1="102.308" x2="102.308" y1="-2.393" y2="-24.582" gradientTransform="matrix(0.1792665,0,0,0.1462979,5.307569,3.9776969)" gradientUnits="userSpaceOnUse" spreadMethod="reflect" xlink:href="#linearGradient3844-9-5-84"/><linearGradient id="linearGradient3858-1-3-594"><stop id="stop4687" offset="0" stop-color="#a0a0a0" stop-opacity="1"/><stop id="stop4689" offset="1" stop-color="#646464" stop-opacity="1"/></linearGradient><linearGradient id="linearGradient2642" x1="89.018" x2="89.018" y1="22.537" y2="27.546" gradientTransform="matrix(0.3895815,0,0,0.3605526,-12.76462,-2.2515447)" gradientUnits="userSpaceOnUse" xlink:href="#linearGradient3858-1-3-594"/><linearGradient id="linearGradient2793-2-0-669"><stop id="stop4681" offset="0" stop-color="#878787" stop-opacity="1"/><stop id="stop4683" offset="1" stop-color="#d9d9d9" stop-opacity="1"/></linearGradient><linearGradient id="linearGradient2640" x1="103.95" x2="89.424" y1="-7.666" y2="-7.666" gradientTransform="matrix(0.1783638,0,0,0.1558618,5.376436,8.0089281)" gradientUnits="userSpaceOnUse" spreadMethod="reflect" xlink:href="#linearGradient2793-2-0-669"/><linearGradient id="linearGradient4126-65-434-2-3-659"><stop id="stop4675" offset="0" stop-color="#000" stop-opacity="1"/><stop id="stop4677" offset="1" stop-color="#000" stop-opacity="0"/></linearGradient><radialGradient id="radialGradient2638" cx="23.857" cy="40" r="17.143" fx="23.857" fy="40" gradientTransform="matrix(0.361547,0,0,0.185261,15.374522,-2.9009258)" gradientUnits="userSpaceOnUse" xlink:href="#linearGradient4126-65-434-2-3-659"/><linearGradient id="linearGradient3598-871-484-814-161-889-287-317-39-832-801-67-687-466"><stop id="stop3875" offset="0" stop-color="#68b1e0" stop-opacity="1"/><stop id="stop3877" offset="1" stop-color="#236894" stop-opacity="1"/></linearGradient><linearGradient id="linearGradient2602-37-628-783-106" x1="24" x2="24" y1="16.525" y2="13.285" gradientUnits="userSpaceOnUse" xlink:href="#linearGradient3598-871-484-814-161-889-287-317-39-832-801-67-687-466"/><linearGradient id="linearGradient3592-990-183-196-279-371-272-744-724-968-605-252-895-210"><stop id="stop3869" offset="0" stop-color="#7aa7c4" stop-opacity="1"/><stop id="stop3871" offset="1" stop-color="#1f7dbb" stop-opacity="1"/></linearGradient><linearGradient id="linearGradient2600-196-385-673-400" x1="15.036" x2="19.777" y1="11.206" y2="18.185" gradientUnits="userSpaceOnUse" xlink:href="#linearGradient3592-990-183-196-279-371-272-744-724-968-605-252-895-210"/><linearGradient id="linearGradient3254-3-182"><stop id="stop4663" offset="0" stop-color="#fff" stop-opacity="1"/><stop id="stop4665" offset="1" stop-color="#fff" stop-opacity="0"/></linearGradient><linearGradient id="linearGradient2656" x1="12.25" x2="17.125" y1="20.231" y2="34.174" gradientTransform="matrix(0.9583175,0,0,1.365896,3.39613,-10.809396)" gradientUnits="userSpaceOnUse" xlink:href="#linearGradient3254-3-182"/></defs><g id="layer1"><path id="path4967" fill="url(#linearGradient4982)" fill-opacity="1" fill-rule="nonzero" stroke="#9f9f9f" stroke-opacity="1" stroke-width="1" d="M 22.96875,2.53125 C 17.102845,2.7418889 12.5,4.7324404 12.5,7.15625 L 12.5,14.46875 L 12.5,15.78125 L 12.5,40.53125 C 12.5,42.720554 17.651952,44.500002 24,44.5 C 30.348047,44.500002 35.5,42.720554 35.5,40.53125 L 35.5,15.78125 L 35.5,14.46875 L 35.5,7.15625 C 35.499999,4.5922189 30.347896,2.53125 24,2.53125 C 23.65285,2.53125 23.308099,2.519041 22.96875,2.53125 z" display="inline" overflow="visible" visibility="visible" style="marker:none"/><path id="path3278" fill="url(#radialGradient2671)" fill-opacity="1" fill-rule="nonzero" stroke="none" stroke-width="1" d="M 39.000021,40.865035 C 39.000021,44.253283 32.284283,47 24,47 C 15.715717,47 8.999979,44.253283 8.999979,40.865035 C 8.999979,37.476787 15.715717,34.73007 24,34.73007 C 32.284283,34.73007 39.000021,37.476787 39.000021,40.865035 z" display="inline" opacity=".7" overflow="visible" visibility="visible" style="marker:none"/><path id="path2230" fill="url(#linearGradient2668)" fill-opacity="1" fill-rule="nonzero" stroke="#2b719c" stroke-opacity="1" stroke-width="1" d="M 12.499891,15.051234 L 12.499891,40.533165 C 12.499891,42.722469 17.651928,44.499294 23.999976,44.499292 C 30.348022,44.499292 35.500059,42.722469 35.500059,40.533165 L 35.500059,15.051234 C 28.38738,15.051234 20.961137,15.051234 12.499891,15.051234 z" display="inline" overflow="visible" visibility="visible" style="marker:none"/><path id="path2206" fill="none" stroke="url(#linearGradient2653)" stroke-dasharray="none" stroke-dashoffset="0" stroke-linecap="round" stroke-linejoin="round" stroke-miterlimit="4" stroke-opacity="1" stroke-width="1" d="M 13.419897,6.6997513 C 13.419897,8.32967 13.419897,38.276938 13.419897,39.909665 C 13.419897,41.877869 18.181045,43.475251 23.999955,43.475251 C 29.818864,43.475251 34.580051,41.877869 34.580051,39.909665 C 34.580051,38.398977 34.580051,8.210442 34.580051,6.6997513 C 34.580051,5.0553429 29.815753,3.5136276 23.999955,3.5406875 C 18.184156,3.5677475 13.419897,5.0629 13.419897,6.6997513 z" display="inline" opacity=".15" overflow="visible" visibility="visible" style="marker:none"/><path id="path2675" fill="url(#linearGradient2600-196-385-673-400)" fill-opacity="1" fill-rule="nonzero" stroke="url(#linearGradient2602-37-628-783-106)" stroke-dasharray="none" stroke-dashoffset="0" stroke-linecap="butt" stroke-linejoin="round" stroke-miterlimit="10" stroke-opacity="1" stroke-width="1.294" marker-end="none" marker-mid="none" marker-start="none" d="M 36.857142,14.071428 A 12.857142,5.5 0 1 1 11.142858,14.071428 A 12.857142,5.5 0 1 1 36.857142,14.071428 z" display="block" overflow="visible" transform="matrix(0.8953,0,0,0.6383636,2.512799,6.0173126)" visibility="visible" style="marker:none"/><path id="rect3244" fill="url(#linearGradient2656)" fill-opacity="1" fill-rule="nonzero" stroke="none" stroke-width="1" d="M 15.854257,10.176485 L 20.645845,11.044943 L 20.645845,44.253296 L 15.854257,43.143505 L 15.854257,10.176485 L 15.854257,10.176485 z" display="inline" opacity=".2" overflow="visible" visibility="visible" style="marker:none"/><path id="path3164" fill="url(#linearGradient2659)" fill-opacity="1" fill-rule="nonzero" stroke="url(#linearGradient2661)" stroke-dasharray="none" stroke-dashoffset="0" stroke-linecap="round" stroke-linejoin="round" stroke-miterlimit="4" stroke-opacity="1" stroke-width=".984" d="M 35.508537,6.4992922 C 35.508537,8.71288 30.356205,10.507347 24.000483,10.507347 C 17.644759,10.507347 12.492427,8.71288 12.492427,6.4992922 C 12.492427,4.2857044 17.644759,2.491237 24.000483,2.491237 C 30.356205,2.491237 35.508537,4.2857044 35.508537,6.4992922 L 35.508537,6.4992922 z" display="inline" overflow="visible" visibility="visible" style="marker:none"/><g id="g3361" transform="translate(0,-7.078e-4)"><path id="path2560" fill="url(#radialGradient2638)" fill-opacity="1" fill-rule="nonzero" stroke="none" stroke-width="2.473" d="M 30.197948,4.5095162 C 30.197948,6.2635193 27.423032,7.6854198 24,7.6854198 C 20.576967,7.6854198 17.802051,6.2635193 17.802051,4.5095162 C 17.802051,2.7555131 20.576967,1.3336126 24,1.3336126 C 27.423032,1.3336126 30.197948,2.7555131 30.197948,4.5095162 L 30.197948,4.5095162 z" display="block" opacity=".2" overflow="visible" visibility="visible" style="marker:none"/><path id="path3878" fill="url(#linearGradient2640)" fill-opacity="1" stroke="url(#linearGradient2642)" stroke-dasharray="none" stroke-miterlimit="4" stroke-opacity="1" stroke-width="1" d="M 28.393743,5.9019405 C 28.393743,6.7840697 26.387893,7.4999997 23.916405,7.4999997 C 21.444913,7.4999997 19.439064,6.7840697 19.439064,5.9019405 C 19.439064,1.6023697 18.891811,0.71826195 23.916405,0.68499455 C 29.056071,0.65065855 28.393743,1.4725892 28.393743,5.9019405 z"/><path id="path3880" fill="url(#linearGradient2644)" fill-opacity="1" stroke="url(#linearGradient2646)" stroke-dasharray="none" stroke-miterlimit="4" stroke-opacity="1" stroke-width="1" d="M 28.441368,1.9999981 C 28.441368,2.8284255 26.426648,3.4999993 23.941368,3.4999993 C 21.456086,3.4999993 19.441367,2.8284255 19.441367,1.9999981 C 19.441367,1.1715728 21.456086,0.49999885 23.941368,0.49999885 C 26.426648,0.49999885 28.441368,1.1715728 28.441368,1.9999981 L 28.441368,1.9999981 z"/></g></g></svg>