<svg xmlns="http://www.w3.org/2000/svg" xmlns:svg="http://www.w3.org/2000/svg" xmlns:xlink="http://www.w3.org/1999/xlink" id="svg3265" width="48" height="48" version="1.0"><metadata id="metadata84"/><defs id="defs3267"><linearGradient id="linearGradient3437"><stop id="stop3439" offset="0" stop-color="#000" stop-opacity="1"/><stop id="stop3441" offset="1" stop-color="#000" stop-opacity="0"/></linearGradient><linearGradient id="linearGradient3257"><stop id="stop3259" offset="0" stop-color="#957747" stop-opacity="1"/><stop id="stop3261" offset="1" stop-color="#ae8c56" stop-opacity="1"/></linearGradient><linearGradient id="linearGradient2411"><stop id="stop2413" offset="0" stop-color="#fee7b1" stop-opacity="1"/><stop id="stop2419" offset=".258" stop-color="#ebd4b4" stop-opacity="1"/><stop id="stop2421" offset=".508" stop-color="#c8a775" stop-opacity="1"/><stop id="stop2423" offset=".74" stop-color="#ebd4b4" stop-opacity="1"/><stop id="stop2415" offset="1" stop-color="#c2a65e" stop-opacity="1"/></linearGradient><linearGradient id="linearGradient9845"><stop id="stop9847" offset="0" stop-color="#fff" stop-opacity="1"/><stop id="stop9849" offset="1" stop-color="#fff" stop-opacity=".495"/></linearGradient><linearGradient id="linearGradient5881"><stop id="stop5883" offset="0" stop-color="#d6c8a7" stop-opacity="1"/><stop id="stop5885" offset="1" stop-color="#d0bd99" stop-opacity="1"/></linearGradient><linearGradient id="linearGradient12071"><stop id="stop12073" offset="0" stop-color="#fff" stop-opacity="1"/><stop id="stop12075" offset="1" stop-color="#fff" stop-opacity="0"/></linearGradient><filter id="filter5957" width="1.988" height="1.165" x="-.494" y="-.082"><feGaussianBlur id="feGaussianBlur5959" stdDeviation=".699"/></filter><linearGradient id="linearGradient6075"><stop id="stop6077" offset="0" stop-color="#000" stop-opacity="1"/><stop id="stop6079" offset="1" stop-color="#000" stop-opacity="0"/></linearGradient><filter id="filter6251" width="1.485" height="1.095" x="-.242" y="-.048"><feGaussianBlur id="feGaussianBlur6253" stdDeviation=".244"/></filter><linearGradient id="linearGradient6227"><stop id="stop6229" offset="0" stop-color="#000" stop-opacity="1"/><stop id="stop6231" offset="1" stop-color="#000" stop-opacity="0"/></linearGradient><linearGradient id="linearGradient10591"><stop id="stop10593" offset="0" stop-color="#cad0c6" stop-opacity="1"/><stop id="stop10599" offset=".5" stop-color="#eaece9" stop-opacity="1"/><stop id="stop10595" offset="1" stop-color="#c5cbc0" stop-opacity="1"/></linearGradient><filter id="filter5745"><feGaussianBlur id="feGaussianBlur5747" stdDeviation=".836"/></filter><linearGradient id="linearGradient6057"><stop id="stop6059" offset="0" stop-color="#fff" stop-opacity="1"/><stop id="stop6061" offset="1" stop-color="#fff" stop-opacity="0"/></linearGradient><linearGradient id="linearGradient3322" x1="10.651" x2="27.192" y1="2.914" y2="17.47" gradientTransform="translate(0,-1.926279)" gradientUnits="userSpaceOnUse" xlink:href="#linearGradient10591"/><linearGradient id="linearGradient3324" x1="35.005" x2="33.004" y1="14.85" y2="14.85" gradientTransform="translate(1.6824037,1.125)" gradientUnits="userSpaceOnUse" xlink:href="#linearGradient6227"/><linearGradient id="linearGradient3326" x1="32.128" x2="35.021" y1="13.789" y2="13.789" gradientTransform="translate(-19.532826,1.7437184)" gradientUnits="userSpaceOnUse" xlink:href="#linearGradient6227"/><radialGradient id="radialGradient3328" cx="18.031" cy="6.281" r="3.182" fx="18.031" fy="6.281" gradientUnits="userSpaceOnUse" xlink:href="#linearGradient6057"/><radialGradient id="radialGradient3339" cx="15.938" cy="20.313" r="3.313" fx="15.938" fy="20.313" gradientTransform="matrix(1.3870968,0,0,0.8113208,10.987903,1.9296697)" gradientUnits="userSpaceOnUse" xlink:href="#linearGradient6075"/><radialGradient id="radialGradient3342" cx="15.938" cy="20.313" r="3.313" fx="15.938" fy="20.313" gradientTransform="matrix(1.3870968,0,0,0.8113208,-7.0120971,1.9296697)" gradientUnits="userSpaceOnUse" xlink:href="#linearGradient6075"/><linearGradient id="linearGradient3346" x1="21.942" x2="21.942" y1="21.551" y2="18.038" gradientTransform="matrix(0.9413543,0,0,0.7755502,1.4105206,6.2414233)" gradientUnits="userSpaceOnUse" xlink:href="#linearGradient12071"/><linearGradient id="linearGradient3349" x1="24.875" x2="24.75" y1="21" y2="17" gradientTransform="matrix(0.9422167,0,0,1.5,1.3898222,-9.4028767)" gradientUnits="userSpaceOnUse" xlink:href="#linearGradient5881"/><linearGradient id="linearGradient3352" x1="10.907" x2="30.875" y1="25.002" y2="36.127" gradientTransform="matrix(0.9405192,0,0,1.1176137,1.4447998,-5.9978884)" gradientUnits="userSpaceOnUse" xlink:href="#linearGradient9845"/><linearGradient id="linearGradient3365" x1="6.727" x2="40.938" y1="32.162" y2="32.162" gradientTransform="matrix(0.943025,0,0,1.1298556,1.3703378,-7.8420138)" gradientUnits="userSpaceOnUse" xlink:href="#linearGradient2411"/><linearGradient id="linearGradient3367" x1="22.015" x2="22.015" y1="45" y2="13.997" gradientUnits="userSpaceOnUse" xlink:href="#linearGradient3257"/><radialGradient id="radialGradient3370" cx="24.454" cy="46.87" r="19.614" fx="24.454" fy="46.87" gradientTransform="matrix(1.0196564,0,0,0.2039312,-0.935075,33.441752)" gradientUnits="userSpaceOnUse" xlink:href="#linearGradient3437"/><radialGradient id="radialGradient3374" cx="24" cy="21.822" r="17" fx="24" fy="21.822" gradientTransform="matrix(3.5913266e-8,0.5232304,-0.7982339,5.4788839e-8,41.419381,9.9685873)" gradientUnits="userSpaceOnUse" xlink:href="#linearGradient12071"/><linearGradient id="linearGradient3443" x1="10.651" x2="27.192" y1="2.914" y2="17.47" gradientTransform="matrix(0.8563683,0,0,0.9968005,3.3880698,-4.3947632)" gradientUnits="userSpaceOnUse" xlink:href="#linearGradient10591"/></defs><path id="path3435" fill="url(#radialGradient3370)" fill-opacity="1" stroke="none" stroke-dasharray="none" stroke-dashoffset="0" stroke-linecap="butt" stroke-miterlimit="4" stroke-opacity="1" stroke-width=".462" d="M 44,43 C 44,45.209138 35.045694,47 24,47 C 12.954305,47 3.9999999,45.209138 3.9999999,43 C 3.9999999,40.790861 12.954305,38.999999 24,38.999999 C 35.045694,38.999999 44,40.790861 44,43 z" opacity=".4"/><path id="rect1314" fill="url(#linearGradient3365)" fill-opacity="1" fill-rule="evenodd" stroke="url(#linearGradient3367)" stroke-dashoffset="0" stroke-linecap="round" stroke-linejoin="round" stroke-miterlimit="4" stroke-opacity="1" stroke-width="1" d="M 9.6076372,15.597122 C 19.114978,14.153723 28.723482,14.377806 38.392362,15.597122 C 39.559995,15.597122 40.5,16.640692 40.5,17.936966 L 40.5,41.257278 C 40.5,42.553552 39.499328,43.409622 38.392362,43.597122 C 28.368002,44.805725 19.772786,44.796184 9.6076372,43.597122 C 8.2580044,43.159622 7.5000002,42.553552 7.5000002,41.257278 L 7.5000002,17.936966 C 7.5000002,16.640692 8.4400063,15.597122 9.6076372,15.597122 z"/><path id="path3372" fill="url(#radialGradient3374)" fill-opacity="1" fill-rule="evenodd" stroke="url(#linearGradient3367)" stroke-dashoffset="0" stroke-linecap="round" stroke-linejoin="round" stroke-miterlimit="4" stroke-opacity="1" stroke-width="1" d="M 9.6076372,15.597122 C 19.114978,14.153723 28.723482,14.377806 38.392362,15.597122 C 39.559995,15.597122 40.5,16.640692 40.5,17.936966 L 40.5,41.257278 C 40.5,42.553552 39.499328,43.409622 38.392362,43.597122 C 28.368002,44.805725 19.772786,44.796184 9.6076372,43.597122 C 8.2580044,43.159622 7.5000002,42.553552 7.5000002,41.257278 L 7.5000002,17.936966 C 7.5000002,16.640692 8.4400063,15.597122 9.6076372,15.597122 z" opacity=".6"/><g id="g4695" transform="matrix(0.9706771,0,0,1,-0.7507553,-1.9028777)"><path id="path6193" fill="#000" fill-opacity="1" fill-rule="evenodd" stroke="none" stroke-dasharray="none" stroke-dashoffset="0" stroke-linecap="round" stroke-linejoin="miter" stroke-miterlimit="4" stroke-opacity="1" stroke-width="1" marker-end="none" marker-mid="none" marker-start="none" d="M 41.940271,24.444505 C 41.542065,25.774817 37.406119,26.114917 36.638195,26.217936 C 36.638195,26.217936 20.32932,26.698408 20.32932,26.698408 C 20.32932,26.698408 36.59256,26.857542 36.59256,26.857542 C 37.418473,26.760419 41.811211,26.960931 42.02866,25.151612 L 41.940271,24.444505 z" display="inline" enable-background="accumulate" opacity=".141" overflow="visible" visibility="visible" style="marker:none"/><path id="path4678" fill="#000" fill-opacity="1" fill-rule="evenodd" stroke="none" stroke-dasharray="none" stroke-dashoffset="0" stroke-linecap="round" stroke-linejoin="miter" stroke-miterlimit="4" stroke-opacity="1" stroke-width="1" marker-end="none" marker-mid="none" marker-start="none" d="M 41.940271,26.444505 C 41.542065,27.774817 37.406119,28.114917 36.638195,28.217936 C 36.638195,28.217936 17.57932,28.698408 17.57932,28.698408 C 17.57932,28.698408 36.59256,28.857542 36.59256,28.857542 C 37.418473,28.760419 41.811211,28.960931 42.02866,27.151612 L 41.940271,26.444505 z" display="inline" enable-background="accumulate" opacity=".141" overflow="visible" visibility="visible" style="marker:none"/><path id="path4680" fill="#000" fill-opacity="1" fill-rule="evenodd" stroke="none" stroke-dasharray="none" stroke-dashoffset="0" stroke-linecap="round" stroke-linejoin="miter" stroke-miterlimit="4" stroke-opacity="1" stroke-width="1" marker-end="none" marker-mid="none" marker-start="none" d="M 41.940271,28.444505 C 41.542065,29.774817 37.406119,30.114917 36.638195,30.217936 C 36.638195,30.217936 20.32932,30.698408 20.32932,30.698408 C 20.32932,30.698408 36.59256,30.857542 36.59256,30.857542 C 37.418473,30.760419 41.811211,30.960931 42.02866,29.151612 L 41.940271,28.444505 z" display="inline" enable-background="accumulate" opacity=".141" overflow="visible" visibility="visible" style="marker:none"/><path id="path4682" fill="#000" fill-opacity="1" fill-rule="evenodd" stroke="none" stroke-dasharray="none" stroke-dashoffset="0" stroke-linecap="round" stroke-linejoin="miter" stroke-miterlimit="4" stroke-opacity="1" stroke-width="1" marker-end="none" marker-mid="none" marker-start="none" d="M 41.940271,30.444505 C 41.542065,31.774817 37.406119,32.114917 36.638195,32.217936 C 36.638195,32.217936 25.57932,32.698408 25.57932,32.698408 C 25.57932,32.698408 36.59256,32.857542 36.59256,32.857542 C 37.418473,32.760419 41.811211,32.960931 42.02866,31.151612 L 41.940271,30.444505 z" display="inline" enable-background="accumulate" opacity=".141" overflow="visible" visibility="visible" style="marker:none"/><path id="path4684" fill="#000" fill-opacity="1" fill-rule="evenodd" stroke="none" stroke-dasharray="none" stroke-dashoffset="0" stroke-linecap="round" stroke-linejoin="miter" stroke-miterlimit="4" stroke-opacity="1" stroke-width="1" marker-end="none" marker-mid="none" marker-start="none" d="M 41.940271,32.444505 C 41.542065,33.774817 37.406119,34.114917 36.638195,34.217936 C 36.638195,34.217936 20.32932,34.698408 20.32932,34.698408 C 20.32932,34.698408 36.59256,34.857542 36.59256,34.857542 C 37.418473,34.760419 41.811211,34.960931 42.02866,33.151612 L 41.940271,32.444505 z" display="inline" enable-background="accumulate" opacity=".141" overflow="visible" visibility="visible" style="marker:none"/><path id="path4686" fill="#000" fill-opacity="1" fill-rule="evenodd" stroke="none" stroke-dasharray="none" stroke-dashoffset="0" stroke-linecap="round" stroke-linejoin="miter" stroke-miterlimit="4" stroke-opacity="1" stroke-width="1" marker-end="none" marker-mid="none" marker-start="none" d="M 41.940271,34.444505 C 41.542065,35.774817 37.406119,36.114917 36.638195,36.217936 C 36.638195,36.217936 17.89182,36.698408 17.89182,36.698408 C 17.89182,36.698408 36.59256,36.857542 36.59256,36.857542 C 37.418473,36.760419 41.811211,36.960931 42.02866,35.151612 L 41.940271,34.444505 z" display="inline" enable-background="accumulate" opacity=".141" overflow="visible" visibility="visible" style="marker:none"/><path id="path4688" fill="#000" fill-opacity="1" fill-rule="evenodd" stroke="none" stroke-dasharray="none" stroke-dashoffset="0" stroke-linecap="round" stroke-linejoin="miter" stroke-miterlimit="4" stroke-opacity="1" stroke-width="1" marker-end="none" marker-mid="none" marker-start="none" d="M 41.940271,36.444505 C 41.542065,37.774817 37.406119,38.114917 36.638195,38.217936 C 36.638195,38.217936 22.64182,38.698408 22.64182,38.698408 C 22.64182,38.698408 36.59256,38.857542 36.59256,38.857542 C 37.418473,38.760419 41.811211,38.960931 42.02866,37.151612 L 41.940271,36.444505 z" display="inline" enable-background="accumulate" opacity=".141" overflow="visible" visibility="visible" style="marker:none"/><path id="path4690" fill="#000" fill-opacity="1" fill-rule="evenodd" stroke="none" stroke-dasharray="none" stroke-dashoffset="0" stroke-linecap="round" stroke-linejoin="miter" stroke-miterlimit="4" stroke-opacity="1" stroke-width="1" marker-end="none" marker-mid="none" marker-start="none" d="M 41.940271,38.444505 C 41.542065,39.774817 37.406119,40.114917 36.638195,40.217936 C 36.638195,40.217936 28.20432,40.698408 28.20432,40.698408 C 28.20432,40.698408 36.59256,40.857542 36.59256,40.857542 C 37.418473,40.760419 41.811211,40.960931 42.02866,39.151612 L 41.940271,38.444505 z" display="inline" enable-background="accumulate" opacity=".141" overflow="visible" visibility="visible" style="marker:none"/><path id="path4692" fill="#000" fill-opacity="1" fill-rule="evenodd" stroke="none" stroke-dasharray="none" stroke-dashoffset="0" stroke-linecap="round" stroke-linejoin="miter" stroke-miterlimit="4" stroke-opacity="1" stroke-width="1" marker-end="none" marker-mid="none" marker-start="none" d="M 41.940271,40.444505 C 41.542065,41.774817 37.406119,42.114917 36.638195,42.217936 C 36.638195,42.217936 20.32932,42.698408 20.32932,42.698408 C 20.32932,42.698408 36.59256,42.857542 36.59256,42.857542 C 37.418473,42.760419 41.811211,42.960931 42.02866,41.151612 L 41.940271,40.444505 z" display="inline" enable-background="accumulate" opacity=".141" overflow="visible" visibility="visible" style="marker:none"/></g><path id="rect6903" fill="none" fill-opacity="1" fill-rule="evenodd" stroke="url(#linearGradient3352)" stroke-dashoffset="0" stroke-linecap="round" stroke-linejoin="round" stroke-miterlimit="4" stroke-opacity=".601" stroke-width="1" d="M 9.6836237,17.092483 L 38.323301,17.092483 C 38.995272,17.092483 39.536247,17.678598 39.536247,18.406642 L 39.536247,41.282963 C 39.536247,42.011007 39.05594,42.347122 38.323301,42.597122 C 28.958745,43.800735 19.715521,43.797943 9.6836237,42.597122 C 9.0116511,42.347122 8.4706773,42.011007 8.4706773,41.282963 L 8.4706773,18.406642 C 8.4706773,17.678598 9.0116511,17.092483 9.6836237,17.092483 z" opacity=".38"/><path id="rect1460" fill="url(#linearGradient3349)" fill-opacity="1" fill-rule="evenodd" stroke="none" stroke-dashoffset="0" stroke-linecap="round" stroke-linejoin="round" stroke-miterlimit="4" stroke-opacity="1" stroke-width="2" marker-end="none" marker-mid="none" marker-start="none" d="M 9.545921,16.097122 C 19.183989,14.636375 28.822055,14.896553 38.460124,16.097122 C 39.324686,16.097122 40.020707,16.814168 40.020707,17.704847 L 40.020707,20.489397 C 40.020707,21.380076 39.324686,22.097122 38.460124,22.097122 C 28.402231,22.787222 19.148089,22.540932 9.545921,22.097122 C 8.6813588,22.097122 7.9853391,21.380076 7.9853391,20.489397 L 7.9853391,17.704847 C 7.9853391,16.814168 8.6813588,16.097122 9.545921,16.097122 z" display="inline" overflow="visible" visibility="visible" style="marker:none"/><path id="rect1593" fill="none" fill-opacity="1" fill-rule="evenodd" stroke="url(#linearGradient3346)" stroke-dashoffset="0" stroke-linecap="round" stroke-linejoin="round" stroke-miterlimit="4" stroke-opacity="1" stroke-width="1" marker-end="none" marker-mid="none" marker-start="none" d="M 9.6004853,19.813555 L 38.405562,19.813555 C 39.031475,19.813555 39.535371,20.21211 39.535371,20.707178 L 39.535371,21.246583 C 39.535371,21.74165 39.031475,22.140206 38.405562,22.140206 C 28.893476,23.117928 19.273933,23.177761 9.6004853,22.140206 C 8.9745713,22.140206 8.4706773,21.74165 8.4706773,21.246583 L 8.4706773,20.707178 C 8.4706773,20.21211 8.9745713,19.813555 9.6004853,19.813555 z" display="inline" opacity=".6" overflow="visible" visibility="visible" style="marker:none"/><rect stroke-opacity="1" style="marker:none" id="rect5887" width="2.828" height="16.971" x="14.594" y="23.226" fill="#fff" fill-opacity="1" fill-rule="evenodd" stroke="none" stroke-dasharray="none" stroke-dashoffset="0" stroke-linecap="round" stroke-linejoin="miter" stroke-miterlimit="4" stroke-width="1" marker-end="none" marker-mid="none" marker-start="none" display="inline" enable-background="accumulate" filter="url(#filter5957)" opacity=".2" overflow="visible" rx="1.608" ry="1.608" transform="matrix(1.9144392,0,0,1.2283366,-15.858733,-7.2062543)" visibility="visible"/><path id="path6073" fill="url(#radialGradient3342)" fill-opacity="1" fill-rule="evenodd" stroke="none" stroke-dasharray="none" stroke-dashoffset="0" stroke-linecap="round" stroke-linejoin="miter" stroke-miterlimit="4" stroke-opacity="1" stroke-width="1" marker-end="none" marker-mid="none" marker-start="none" d="M 19.689516,18.409623 C 19.689516,19.893889 17.632372,21.097123 15.094758,21.097123 C 12.557143,21.097123 10.5,19.893889 10.5,18.409623 C 10.5,16.925357 12.557143,15.722123 15.094758,15.722123 C 17.632372,15.722123 19.689516,16.925357 19.689516,18.409623 z" display="inline" enable-background="accumulate" opacity=".3" overflow="visible" visibility="visible" style="marker:none"/><path id="path6083" fill="url(#radialGradient3339)" fill-opacity="1" fill-rule="evenodd" stroke="none" stroke-dasharray="none" stroke-dashoffset="0" stroke-linecap="round" stroke-linejoin="miter" stroke-miterlimit="4" stroke-opacity="1" stroke-width="1" marker-end="none" marker-mid="none" marker-start="none" d="M 37.689516,18.409623 C 37.689516,19.893889 35.632373,21.097123 33.094758,21.097123 C 30.557144,21.097123 28.5,19.893889 28.5,18.409623 C 28.5,16.925357 30.557144,15.722123 33.094758,15.722123 C 35.632373,15.722123 37.689516,16.925357 37.689516,18.409623 z" display="inline" enable-background="accumulate" opacity=".3" overflow="visible" visibility="visible" style="marker:none"/><path id="path2086" fill="url(#linearGradient3443)" fill-opacity="1" fill-rule="evenodd" stroke="#888a85" stroke-dasharray="none" stroke-linecap="butt" stroke-linejoin="miter" stroke-miterlimit="4" stroke-opacity="1" stroke-width="1" d="M 12.5,17.695457 L 12.5,11.97896 C 12.5,4.134007 17.002278,0.40710952 23.958059,0.50508056 C 30.951688,0.6030517 35.501881,4.0417149 35.501881,11.97896 L 35.501881,17.944657 C 35.501881,19.892634 30.799819,20.14056 30.799819,17.944657 L 30.799819,13.972561 C 30.799819,11.97896 31.286624,5.5278136 24.007056,5.5278136 C 16.787517,5.5278136 17.313553,12.018717 17.341548,13.964612 L 17.341548,17.729028 C 17.341548,20.076114 12.5,20.066135 12.5,17.695457 z"/><path id="rect1345" fill="url(#linearGradient3324)" fill-opacity="1" fill-rule="evenodd" stroke="none" stroke-dashoffset="0" stroke-linecap="round" stroke-linejoin="round" stroke-miterlimit="4" stroke-opacity="1" stroke-width="1" d="M 34.687087,10.837069 L 35.951035,10.962069 C 36.878274,13.784802 36.687087,20.472482 36.687087,20.472482 C 36.624587,21.597482 34.655837,21.003732 34.687087,20.472482 L 34.687087,10.837069 z" filter="url(#filter6251)" opacity=".182" transform="matrix(0.8563683,0,0,0.9968005,3.3880698,-2.4746473)"/><path id="path6332" fill="url(#linearGradient3326)" fill-opacity="1" fill-rule="evenodd" stroke="none" stroke-dashoffset="0" stroke-linecap="round" stroke-linejoin="round" stroke-miterlimit="4" stroke-opacity="1" stroke-width="1" d="M 12.926606,11.544175 L 13.298325,11.71337 C 15.018656,12.768336 15.471857,21.0912 15.471857,21.0912 C 15.409357,22.2162 13.440607,21.62245 13.471857,21.0912 C 13.471857,21.0912 13.850077,14.22056 12.926606,11.544175 z" filter="url(#filter6251)" opacity=".141" transform="matrix(-0.8563683,0,0,0.9968005,28.273088,-3.0913861)"/><path id="path5675" fill="none" fill-opacity="1" fill-rule="evenodd" stroke="#fff" stroke-dasharray="none" stroke-dashoffset="0" stroke-linecap="round" stroke-linejoin="miter" stroke-miterlimit="4" stroke-opacity="1" stroke-width="2.044" marker-end="none" marker-mid="none" marker-start="none" d="M 13.876557,17.722122 L 14.001556,10.222122 C 14.001556,0.3457492 32.689056,-0.454278 32.689056,11.097122 L 32.689056,17.972122" display="inline" enable-background="accumulate" filter="url(#filter5745)" opacity=".624" overflow="visible" transform="matrix(0.9605048,0,0,0.9968005,0.9443375,-8.7389207e-2)" visibility="visible" style="marker:none"/><g id="g6067" transform="matrix(0.9605048,0,0,0.9968005,0.3540496,-2.5128119)"><path id="path6055" fill="url(#radialGradient3328)" fill-opacity="1" fill-rule="evenodd" stroke="none" stroke-dasharray="none" stroke-dashoffset="0" stroke-linecap="round" stroke-linejoin="miter" stroke-miterlimit="4" stroke-opacity="1" stroke-width="1" marker-end="none" marker-mid="none" marker-start="none" d="M 21.213204,6.2806997 C 21.213645,8.0383706 19.788894,9.463478 18.031223,9.463478 C 16.273553,9.463478 14.848802,8.0383706 14.849243,6.2806997 C 14.848802,4.5230288 16.273553,3.0979214 18.031223,3.0979214 C 19.788894,3.0979214 21.213645,4.5230288 21.213204,6.2806997 L 21.213204,6.2806997 z" display="inline" enable-background="accumulate" opacity="1" overflow="visible" visibility="visible" style="marker:none"/><path stroke-width="1" style="marker:none" id="path6065" fill="#fff" fill-opacity="1" fill-rule="evenodd" stroke="none" stroke-dasharray="none" stroke-dashoffset="0" stroke-linecap="round" stroke-linejoin="miter" stroke-miterlimit="4" stroke-opacity="1" marker-end="none" marker-mid="none" marker-start="none" d="M 21.213204,6.2806997 C 21.213645,8.0383706 19.788894,9.463478 18.031223,9.463478 C 16.273553,9.463478 14.848802,8.0383706 14.849243,6.2806997 C 14.848802,4.5230288 16.273553,3.0979214 18.031223,3.0979214 C 19.788894,3.0979214 21.213645,4.5230288 21.213204,6.2806997 L 21.213204,6.2806997 z" display="inline" enable-background="accumulate" opacity="1" overflow="visible" transform="matrix(0.4343344,0,0,0.4343344,10.199642,3.5527756)" visibility="visible"/></g><g id="g3380" fill="#fff" transform="matrix(0.9706771,0,0,1,-0.7507553,-0.857542)"><path id="path3382" fill="#fff" fill-opacity="1" fill-rule="evenodd" stroke="none" stroke-dasharray="none" stroke-dashoffset="0" stroke-linecap="round" stroke-linejoin="miter" stroke-miterlimit="4" stroke-opacity="1" stroke-width="1" marker-end="none" marker-mid="none" marker-start="none" d="M 41.940271,24.444505 C 41.542065,25.774817 37.406119,26.114917 36.638195,26.217936 C 36.638195,26.217936 20.32932,26.698408 20.32932,26.698408 C 20.32932,26.698408 36.59256,26.857542 36.59256,26.857542 C 37.418473,26.760419 41.811211,26.960931 42.02866,25.151612 L 41.940271,24.444505 z" display="inline" enable-background="accumulate" opacity=".141" overflow="visible" visibility="visible" style="marker:none"/><path id="path3384" fill="#fff" fill-opacity="1" fill-rule="evenodd" stroke="none" stroke-dasharray="none" stroke-dashoffset="0" stroke-linecap="round" stroke-linejoin="miter" stroke-miterlimit="4" stroke-opacity="1" stroke-width="1" marker-end="none" marker-mid="none" marker-start="none" d="M 41.940271,26.444505 C 41.542065,27.774817 37.406119,28.114917 36.638195,28.217936 C 36.638195,28.217936 17.57932,28.698408 17.57932,28.698408 C 17.57932,28.698408 36.59256,28.857542 36.59256,28.857542 C 37.418473,28.760419 41.811211,28.960931 42.02866,27.151612 L 41.940271,26.444505 z" display="inline" enable-background="accumulate" opacity=".141" overflow="visible" visibility="visible" style="marker:none"/><path id="path3386" fill="#fff" fill-opacity="1" fill-rule="evenodd" stroke="none" stroke-dasharray="none" stroke-dashoffset="0" stroke-linecap="round" stroke-linejoin="miter" stroke-miterlimit="4" stroke-opacity="1" stroke-width="1" marker-end="none" marker-mid="none" marker-start="none" d="M 41.940271,28.444505 C 41.542065,29.774817 37.406119,30.114917 36.638195,30.217936 C 36.638195,30.217936 20.32932,30.698408 20.32932,30.698408 C 20.32932,30.698408 36.59256,30.857542 36.59256,30.857542 C 37.418473,30.760419 41.811211,30.960931 42.02866,29.151612 L 41.940271,28.444505 z" display="inline" enable-background="accumulate" opacity=".141" overflow="visible" visibility="visible" style="marker:none"/><path id="path3388" fill="#fff" fill-opacity="1" fill-rule="evenodd" stroke="none" stroke-dasharray="none" stroke-dashoffset="0" stroke-linecap="round" stroke-linejoin="miter" stroke-miterlimit="4" stroke-opacity="1" stroke-width="1" marker-end="none" marker-mid="none" marker-start="none" d="M 41.940271,30.444505 C 41.542065,31.774817 37.406119,32.114917 36.638195,32.217936 C 36.638195,32.217936 25.57932,32.698408 25.57932,32.698408 C 25.57932,32.698408 36.59256,32.857542 36.59256,32.857542 C 37.418473,32.760419 41.811211,32.960931 42.02866,31.151612 L 41.940271,30.444505 z" display="inline" enable-background="accumulate" opacity=".141" overflow="visible" visibility="visible" style="marker:none"/><path id="path3390" fill="#fff" fill-opacity="1" fill-rule="evenodd" stroke="none" stroke-dasharray="none" stroke-dashoffset="0" stroke-linecap="round" stroke-linejoin="miter" stroke-miterlimit="4" stroke-opacity="1" stroke-width="1" marker-end="none" marker-mid="none" marker-start="none" d="M 41.940271,32.444505 C 41.542065,33.774817 37.406119,34.114917 36.638195,34.217936 C 36.638195,34.217936 20.32932,34.698408 20.32932,34.698408 C 20.32932,34.698408 36.59256,34.857542 36.59256,34.857542 C 37.418473,34.760419 41.811211,34.960931 42.02866,33.151612 L 41.940271,32.444505 z" display="inline" enable-background="accumulate" opacity=".141" overflow="visible" visibility="visible" style="marker:none"/><path id="path3392" fill="#fff" fill-opacity="1" fill-rule="evenodd" stroke="none" stroke-dasharray="none" stroke-dashoffset="0" stroke-linecap="round" stroke-linejoin="miter" stroke-miterlimit="4" stroke-opacity="1" stroke-width="1" marker-end="none" marker-mid="none" marker-start="none" d="M 41.940271,34.444505 C 41.542065,35.774817 37.406119,36.114917 36.638195,36.217936 C 36.638195,36.217936 17.89182,36.698408 17.89182,36.698408 C 17.89182,36.698408 36.59256,36.857542 36.59256,36.857542 C 37.418473,36.760419 41.811211,36.960931 42.02866,35.151612 L 41.940271,34.444505 z" display="inline" enable-background="accumulate" opacity=".141" overflow="visible" visibility="visible" style="marker:none"/><path id="path3394" fill="#fff" fill-opacity="1" fill-rule="evenodd" stroke="none" stroke-dasharray="none" stroke-dashoffset="0" stroke-linecap="round" stroke-linejoin="miter" stroke-miterlimit="4" stroke-opacity="1" stroke-width="1" marker-end="none" marker-mid="none" marker-start="none" d="M 41.940271,36.444505 C 41.542065,37.774817 37.406119,38.114917 36.638195,38.217936 C 36.638195,38.217936 22.64182,38.698408 22.64182,38.698408 C 22.64182,38.698408 36.59256,38.857542 36.59256,38.857542 C 37.418473,38.760419 41.811211,38.960931 42.02866,37.151612 L 41.940271,36.444505 z" display="inline" enable-background="accumulate" opacity=".141" overflow="visible" visibility="visible" style="marker:none"/><path id="path3396" fill="#fff" fill-opacity="1" fill-rule="evenodd" stroke="none" stroke-dasharray="none" stroke-dashoffset="0" stroke-linecap="round" stroke-linejoin="miter" stroke-miterlimit="4" stroke-opacity="1" stroke-width="1" marker-end="none" marker-mid="none" marker-start="none" d="M 41.940271,38.444505 C 41.542065,39.774817 37.406119,40.114917 36.638195,40.217936 C 36.638195,40.217936 28.20432,40.698408 28.20432,40.698408 C 28.20432,40.698408 36.59256,40.857542 36.59256,40.857542 C 37.418473,40.760419 41.811211,40.960931 42.02866,39.151612 L 41.940271,38.444505 z" display="inline" enable-background="accumulate" opacity=".141" overflow="visible" visibility="visible" style="marker:none"/><path id="path3398" fill="#fff" fill-opacity="1" fill-rule="evenodd" stroke="none" stroke-dasharray="none" stroke-dashoffset="0" stroke-linecap="round" stroke-linejoin="miter" stroke-miterlimit="4" stroke-opacity="1" stroke-width="1" marker-end="none" marker-mid="none" marker-start="none" d="M 41.940271,40.444505 C 41.542065,41.774817 37.406119,42.114917 36.638195,42.217936 C 36.638195,42.217936 20.32932,42.698408 20.32932,42.698408 C 20.32932,42.698408 36.59256,42.857542 36.59256,42.857542 C 37.418473,42.760419 41.811211,42.960931 42.02866,41.151612 L 41.940271,40.444505 z" display="inline" enable-background="accumulate" opacity=".141" overflow="visible" visibility="visible" style="marker:none"/></g></svg>