<svg xmlns="http://www.w3.org/2000/svg" xmlns:svg="http://www.w3.org/2000/svg" xmlns:xlink="http://www.w3.org/1999/xlink" id="svg4569" width="48" height="48" version="1.0"><defs id="defs4571"><linearGradient id="linearGradient3636"><stop id="stop3638" offset="0" stop-color="#a5a6aa" stop-opacity="1"/><stop id="stop3640" offset=".347" stop-color="#e2e2e4" stop-opacity="1"/><stop id="stop3642" offset="1" stop-color="#595959" stop-opacity="1"/></linearGradient><linearGradient id="linearGradient6592-2-7"><stop id="stop6594-0-2" offset="0" stop-color="#fff" stop-opacity=".275"/><stop id="stop6596-2-5" offset="1" stop-color="#fff" stop-opacity="0"/></linearGradient><linearGradient id="linearGradient9936"><stop id="stop9938" offset="0" stop-color="#575757" stop-opacity="1"/><stop id="stop9940" offset="1" stop-color="#333" stop-opacity="1"/></linearGradient><linearGradient id="linearGradient4518"><stop id="stop4520" offset="0" stop-color="#7e7e7e" stop-opacity=".949"/><stop id="stop4522" offset="1" stop-color="#969696" stop-opacity="1"/></linearGradient><linearGradient id="linearGradient10691-1"><stop id="stop10693-3" offset="0" stop-color="#000" stop-opacity="1"/><stop id="stop10695-1" offset="1" stop-color="#000" stop-opacity="0"/></linearGradient><linearGradient id="linearGradient2847" x1="12.938" x2="15.25" y1="8.438" y2="19.813" gradientTransform="matrix(0.7142858,0,0,0.866666,-1.1428572,0.4000016)" gradientUnits="userSpaceOnUse" xlink:href="#linearGradient6592-2-7"/><radialGradient id="radialGradient2850" cx="12.244" cy="4.863" r="21" fx="12.244" fy="4.863" gradientTransform="matrix(0.9445089,1.35654e-2,-8.7941e-3,0.7583043,-3.5503801,4.4065437)" gradientUnits="userSpaceOnUse" xlink:href="#linearGradient9936"/><linearGradient id="linearGradient2857" x1="318.421" x2="318.421" y1="93.292" y2="78.342" gradientTransform="matrix(1.0008871,0,0,0.4293034,-304.218,-10.917541)" gradientUnits="userSpaceOnUse" xlink:href="#linearGradient3636"/><linearGradient id="linearGradient2859" x1="24.687" x2="24.739" y1="40.813" y2="34" gradientTransform="matrix(0.7638902,0,0,0.6060464,-2.3333911,3.743031)" gradientUnits="userSpaceOnUse" xlink:href="#linearGradient4518"/><radialGradient id="radialGradient2862" cx="6.703" cy="73.616" r="7.228" fx="6.703" fy="73.616" gradientTransform="matrix(1.2774741,0,0,0.2737444,7.2655931,8.8693684)" gradientUnits="userSpaceOnUse" xlink:href="#linearGradient10691-1"/><radialGradient id="radialGradient2415" cx="6.703" cy="73.616" r="7.228" fx="6.703" fy="73.616" gradientTransform="matrix(1.2774741,0,0,0.2737444,7.2655931,8.8693684)" gradientUnits="userSpaceOnUse" xlink:href="#linearGradient10691-1"/><linearGradient id="linearGradient2417" x1="318.421" x2="318.421" y1="93.292" y2="78.342" gradientTransform="matrix(1.0008871,0,0,0.4293034,-304.218,-10.917541)" gradientUnits="userSpaceOnUse" xlink:href="#linearGradient3636"/><linearGradient id="linearGradient2419" x1="24.687" x2="24.739" y1="40.813" y2="34" gradientTransform="matrix(0.7638902,0,0,0.6060464,-2.3333911,3.743031)" gradientUnits="userSpaceOnUse" xlink:href="#linearGradient4518"/><radialGradient id="radialGradient2421" cx="12.244" cy="4.863" r="21" fx="12.244" fy="4.863" gradientTransform="matrix(0.9445089,1.35654e-2,-8.7941e-3,0.7583043,-3.5503801,4.4065437)" gradientUnits="userSpaceOnUse" xlink:href="#linearGradient9936"/><linearGradient id="linearGradient2423" x1="12.938" x2="15.25" y1="8.438" y2="19.813" gradientTransform="matrix(0.7142858,0,0,0.866666,-1.1428572,0.4000016)" gradientUnits="userSpaceOnUse" xlink:href="#linearGradient6592-2-7"/><radialGradient id="radialGradient2439" cx="6.703" cy="73.616" r="7.228" fx="6.703" fy="73.616" gradientTransform="matrix(1.2774741,0,0,0.2737444,7.2655931,8.8693684)" gradientUnits="userSpaceOnUse" xlink:href="#linearGradient10691-1"/><linearGradient id="linearGradient2441" x1="318.421" x2="318.421" y1="93.292" y2="78.342" gradientTransform="matrix(1.0008871,0,0,0.4293034,-304.218,-10.917541)" gradientUnits="userSpaceOnUse" xlink:href="#linearGradient3636"/><linearGradient id="linearGradient2443" x1="24.687" x2="24.739" y1="40.813" y2="34" gradientTransform="matrix(0.7638902,0,0,0.6060464,-2.3333911,3.743031)" gradientUnits="userSpaceOnUse" xlink:href="#linearGradient4518"/><radialGradient id="radialGradient2445" cx="12.244" cy="4.863" r="21" fx="12.244" fy="4.863" gradientTransform="matrix(0.9445089,1.35654e-2,-8.7941e-3,0.7583043,-3.5503801,4.4065437)" gradientUnits="userSpaceOnUse" xlink:href="#linearGradient9936"/><linearGradient id="linearGradient2447" x1="12.938" x2="15.25" y1="8.438" y2="19.813" gradientTransform="matrix(0.7142858,0,0,0.866666,-1.1428572,0.4000016)" gradientUnits="userSpaceOnUse" xlink:href="#linearGradient6592-2-7"/><linearGradient id="linearGradient2491" x1="63.397" x2="63.397" y1="-12.489" y2="5.468" gradientTransform="matrix(1.0862728,0,0,1.0862481,-55.56661,15.813638)" gradientUnits="userSpaceOnUse" xlink:href="#linearGradient4873"/><linearGradient id="linearGradient4873"><stop id="stop4875" offset="0" stop-color="#fff" stop-opacity="1"/><stop id="stop4877" offset="1" stop-color="#fff" stop-opacity="0"/></linearGradient><radialGradient id="radialGradient2494" cx="23.896" cy="3.99" r="20.397" fx="23.896" fy="3.99" gradientTransform="matrix(0,1.2316137,-1.6257082,0,18.486581,-28.720783)" gradientUnits="userSpaceOnUse" xlink:href="#linearGradient3242"/><linearGradient id="linearGradient3242"><stop id="stop3244" offset="0" stop-color="#f8b17e" stop-opacity="1"/><stop id="stop3246" offset=".262" stop-color="#e35d4f" stop-opacity="1"/><stop id="stop3248" offset=".661" stop-color="#c6262e" stop-opacity="1"/><stop id="stop3250" offset="1" stop-color="#690b54" stop-opacity="1"/></linearGradient><linearGradient id="linearGradient2496" x1="18.379" x2="18.379" y1="44.98" y2="3.082" gradientTransform="matrix(0.5160413,0,0,0.5160413,-0.384991,-0.3849911)" gradientUnits="userSpaceOnUse" xlink:href="#linearGradient2490"/><linearGradient id="linearGradient2490"><stop id="stop2492" offset="0" stop-color="#791235" stop-opacity="1"/><stop id="stop2494" offset="1" stop-color="#dd3b27" stop-opacity="1"/></linearGradient><radialGradient id="radialGradient2499" cx="62.625" cy="4.625" r="10.625" fx="62.625" fy="4.625" gradientTransform="matrix(1.1294118,0,0,0.2823525,-58.729414,19.694118)" gradientUnits="userSpaceOnUse" xlink:href="#linearGradient8838"/><linearGradient id="linearGradient8838"><stop id="stop8840" offset="0" stop-color="#000" stop-opacity="1"/><stop id="stop8842" offset="1" stop-color="#000" stop-opacity="0"/></linearGradient></defs><g id="g2425" transform="translate(15.999679,-2.0000002)"><path id="path2427" fill="url(#radialGradient2439)" fill-opacity="1" fill-rule="nonzero" stroke="none" stroke-width=".8" d="M 25.062248,29.021262 C 25.062248,30.114089 20.927995,31 15.828134,31 C 10.728274,31 6.594021,30.114089 6.594021,29.021262 C 6.594021,27.928435 10.728274,27.042523 15.828134,27.042523 C 20.927995,27.042523 25.062248,27.928435 25.062248,29.021262 L 25.062248,29.021262 z" display="inline" opacity=".4" overflow="visible" visibility="visible" style="marker:none"/><path id="path2429" fill="url(#linearGradient2441)" fill-opacity="1" stroke="url(#linearGradient2443)" stroke-dasharray="none" stroke-dashoffset=".5" stroke-linecap="round" stroke-linejoin="round" stroke-miterlimit="4" stroke-opacity="1" stroke-width="1" d="M 11.798578,24.5 C 11.798578,24.5 11.895578,26.398544 11.411765,27 C 10.927949,27.601454 9.965242,27.5 9.965242,27.5 C 9.3474769,27.56319 9.3423665,29.5 9.965242,29.5 L 22.034709,29.5 C 22.657585,29.5 22.652603,27.562381 22.034709,27.5 C 22.034709,27.5 21.072045,27.60147 20.588235,27 C 20.104425,26.398546 20.201372,24.5 20.201372,24.5 L 11.798578,24.5 z" display="inline" enable-background="new"/><path id="path2431" fill="none" stroke="#fff" stroke-linecap="square" stroke-linejoin="miter" stroke-opacity="1" stroke-width="1" d="M 10.480886,28.5 L 21.519114,28.5" opacity=".6"/><rect id="rect2433" width="31" height="22" x=".5" y="2.5" fill="#1a1a1a" fill-opacity="1" stroke="#000" stroke-dasharray="none" stroke-dashoffset=".5" stroke-linecap="round" stroke-linejoin="round" stroke-miterlimit="4" stroke-opacity="1" stroke-width="1" rx=".506" ry=".506"/><rect id="rect2435" width="28" height="19" x="2" y="4" fill="url(#radialGradient2445)" fill-opacity="1" fill-rule="evenodd" stroke="none" display="inline" enable-background="new"/><path id="path2437" fill="url(#linearGradient2447)" fill-opacity="1" stroke="none" d="M 1,3 L 31,3 L 31,9.9333359 L 1,16 L 1,3 z"/></g><g id="g2407" transform="translate(0,17)"><path id="path2589" fill="url(#radialGradient2415)" fill-opacity="1" fill-rule="nonzero" stroke="none" stroke-width=".8" d="M 25.062248,29.021262 C 25.062248,30.114089 20.927995,31 15.828134,31 C 10.728274,31 6.594021,30.114089 6.594021,29.021262 C 6.594021,27.928435 10.728274,27.042523 15.828134,27.042523 C 20.927995,27.042523 25.062248,27.928435 25.062248,29.021262 L 25.062248,29.021262 z" display="inline" opacity=".4" overflow="visible" visibility="visible" style="marker:none"/><path id="rect1789" fill="url(#linearGradient2417)" fill-opacity="1" stroke="url(#linearGradient2419)" stroke-dasharray="none" stroke-dashoffset=".5" stroke-linecap="round" stroke-linejoin="round" stroke-miterlimit="4" stroke-opacity="1" stroke-width="1" d="M 11.798578,24.5 C 11.798578,24.5 11.895578,26.398544 11.411765,27 C 10.927949,27.601454 9.965242,27.5 9.965242,27.5 C 9.3474769,27.56319 9.3423665,29.5 9.965242,29.5 L 22.034709,29.5 C 22.657585,29.5 22.652603,27.562381 22.034709,27.5 C 22.034709,27.5 21.072045,27.60147 20.588235,27 C 20.104425,26.398546 20.201372,24.5 20.201372,24.5 L 11.798578,24.5 z" display="inline" enable-background="new"/><path id="path3340" fill="none" stroke="#fff" stroke-linecap="square" stroke-linejoin="miter" stroke-opacity="1" stroke-width="1" d="M 10.480886,28.5 L 21.519114,28.5" opacity=".6"/><rect id="rect2722" width="31" height="22" x=".5" y="2.5" fill="#1a1a1a" fill-opacity="1" stroke="#000" stroke-dasharray="none" stroke-dashoffset=".5" stroke-linecap="round" stroke-linejoin="round" stroke-miterlimit="4" stroke-opacity="1" stroke-width="1" rx=".506" ry=".506"/><rect id="rect2716" width="28" height="19" x="2" y="4" fill="url(#radialGradient2421)" fill-opacity="1" fill-rule="evenodd" stroke="none" display="inline" enable-background="new"/><path id="rect6588" fill="url(#linearGradient2423)" fill-opacity="1" stroke="none" d="M 1,3 L 31,3 L 31,9.9333359 L 1,16 L 1,3 z"/></g><g id="layer1" transform="translate(24,24)"><path id="path8836" fill="url(#radialGradient2499)" fill-opacity="1" fill-rule="evenodd" stroke="none" stroke-dasharray="none" stroke-dashoffset="0" stroke-linecap="butt" stroke-linejoin="round" stroke-miterlimit="4" stroke-opacity="1" stroke-width="1" marker-end="none" marker-mid="none" marker-start="none" d="M 24,21 C 24,22.656854 18.627417,24 12,24 C 5.3725828,24 -2.5e-07,22.656854 -2.5e-07,21 C -2.5e-07,19.343146 5.3725828,18 12,18 C 18.627417,18 24,19.343146 24,21 L 24,21 z" display="inline" opacity=".3" overflow="visible" visibility="visible" style="marker:none"/><path id="path2555" fill="url(#radialGradient2494)" fill-opacity="1" stroke="url(#linearGradient2496)" stroke-dasharray="none" stroke-dashoffset="0" stroke-linecap="round" stroke-linejoin="round" stroke-miterlimit="4" stroke-opacity="1" stroke-width="1.004" d="M 12.000002,1.501785 C 6.207449,1.501785 1.501785,6.2074466 1.501785,11.999999 C 1.501785,17.792553 6.207449,22.498218 12.000002,22.498215 C 17.792552,22.498215 22.498221,17.792553 22.498215,11.999999 C 22.498215,6.2074466 17.792552,1.501785 12.000002,1.501785 z"/><path id="path2463" fill="none" fill-opacity="1" fill-rule="nonzero" stroke="url(#linearGradient2491)" stroke-dasharray="none" stroke-miterlimit="4" stroke-opacity="1" stroke-width="1" d="M 21.499999,11.999663 C 21.499999,17.246537 17.24639,21.499999 12.00012,21.499999 C 6.7533674,21.499999 2.4999999,17.24649 2.4999999,11.999663 C 2.4999999,6.7530318 6.7533674,2.5000007 12.00012,2.5000007 C 17.24639,2.5000007 21.499999,6.7530318 21.499999,11.999663 L 21.499999,11.999663 z" opacity=".4"/><path id="path3360" fill="#000" fill-opacity="1" stroke="none" stroke-dasharray="none" stroke-linecap="round" stroke-linejoin="round" stroke-miterlimit="4" stroke-opacity="1" stroke-width=".769" d="M 4,13 C 9.333333,13 14.666667,13 20,13 C 20,12.000001 20,11 20,10 C 14.666667,10 9.333333,10 4,10 C 4,11 4,12.000001 4,13 z" font-family="Georgia" font-size="89.631" font-stretch="normal" font-style="normal" font-variant="normal" font-weight="normal" opacity=".2" text-anchor="start" writing-mode="lr-tb" style="text-align:start;line-height:125%"/><path id="path3271" fill="#fff" fill-opacity="1" stroke="none" stroke-dasharray="none" stroke-linecap="round" stroke-linejoin="round" stroke-miterlimit="4" stroke-opacity="1" stroke-width=".769" d="M 4,14 C 9.333333,14 14.666667,14 20,14 C 20,13.000001 20,12 20,11 C 14.666667,11 9.333333,11 4,11 C 4,12 4,13.000001 4,14 z" font-family="Georgia" font-size="89.631" font-stretch="normal" font-style="normal" font-variant="normal" font-weight="normal" text-anchor="start" writing-mode="lr-tb" style="text-align:start;line-height:125%"/></g></svg>