<svg xmlns="http://www.w3.org/2000/svg" xmlns:svg="http://www.w3.org/2000/svg" xmlns:xlink="http://www.w3.org/1999/xlink" id="svg3506" width="48" height="48" version="1.0"><metadata id="metadata53"/><defs id="defs3508"><linearGradient id="linearGradient3198"><stop id="stop3200" offset="0" stop-color="#fff" stop-opacity="1"/><stop id="stop3202" offset="1" stop-color="#fff" stop-opacity="0"/></linearGradient><radialGradient id="radialGradient3873" cx="605.714" cy="486.648" r="117.143" fx="605.714" fy="486.648" gradientTransform="matrix(2.409717e-2,0,0,1.537476e-2,26.477584,38.629039)" gradientUnits="userSpaceOnUse" xlink:href="#linearGradient5060"/><linearGradient id="linearGradient5060"><stop id="stop5062" offset="0" stop-color="#000" stop-opacity="1"/><stop id="stop5064" offset="1" stop-color="#000" stop-opacity="0"/></linearGradient><radialGradient id="radialGradient3586" cx="605.714" cy="486.648" r="117.143" fx="605.714" fy="486.648" gradientTransform="matrix(-2.409717e-2,0,0,1.537476e-2,21.522412,38.629039)" gradientUnits="userSpaceOnUse" xlink:href="#linearGradient5060"/><linearGradient id="linearGradient5048"><stop id="stop5050" offset="0" stop-color="#000" stop-opacity="0"/><stop id="stop5056" offset=".5" stop-color="#000" stop-opacity="1"/><stop id="stop5052" offset="1" stop-color="#000" stop-opacity="0"/></linearGradient><linearGradient id="linearGradient3584" x1="302.857" x2="302.857" y1="366.648" y2="609.505" gradientTransform="matrix(7.04142e-2,0,0,1.537476e-2,-1.4497047,38.629007)" gradientUnits="userSpaceOnUse" xlink:href="#linearGradient5048"/><linearGradient id="linearGradient3319"><stop id="stop3321" offset="0" stop-color="#af9b7f" stop-opacity="1"/><stop id="stop3323" offset="1" stop-color="#736148" stop-opacity="1"/></linearGradient><linearGradient id="linearGradient2878" x1="22.334" x2="53.453" y1="11.03" y2="61.22" gradientTransform="matrix(0.7007108,0,0,0.7543894,2.0789348,-0.169135)" gradientUnits="userSpaceOnUse" xlink:href="#linearGradient3319"/><linearGradient id="linearGradient8967"><stop id="stop8969" offset="0" stop-color="#ddcfbd" stop-opacity="1"/><stop id="stop8971" offset="1" stop-color="#856f50" stop-opacity="1"/></linearGradient><linearGradient id="linearGradient2876" x1="16.102" x2="38.491" y1="9.889" y2="46" gradientTransform="matrix(0.9739077,0,0,1.0485146,2.0472158,-2.2169248)" gradientUnits="userSpaceOnUse" xlink:href="#linearGradient8967"/><linearGradient id="linearGradient8978"><stop id="stop8980" offset="0" stop-color="#4d5459" stop-opacity=".996"/><stop id="stop8982" offset="1" stop-color="#141b1f" stop-opacity="1"/></linearGradient><linearGradient id="linearGradient2873" x1="5.48" x2="8.5" y1="25.019" y2="25.019" gradientTransform="matrix(0.8371182,0,0,1.0428015,1.9516137,-2.0971749)" gradientUnits="userSpaceOnUse" xlink:href="#linearGradient8978"/><linearGradient id="linearGradient3913"><stop id="stop3915" offset="0" stop-color="#4e555a" stop-opacity="1"/><stop id="stop3917" offset=".16" stop-color="#151c20" stop-opacity="1"/><stop id="stop3919" offset=".167" stop-color="#9b876c" stop-opacity="1"/><stop id="stop3921" offset=".752" stop-color="#9b876c" stop-opacity="1"/><stop id="stop3923" offset=".939" stop-color="#9b876c" stop-opacity="1"/><stop id="stop3925" offset=".949" stop-color="#c2c2c2" stop-opacity="1"/><stop id="stop3927" offset="1" stop-color="#c2c2c2" stop-opacity="1"/></linearGradient><linearGradient id="linearGradient2867" x1="5.754" x2="55.495" y1="5.244" y2=".065" gradientTransform="matrix(0.7162781,0,0,0.7471593,2.1541503,-5.165144e-2)" gradientUnits="userSpaceOnUse" xlink:href="#linearGradient3913"/><linearGradient id="linearGradient2346"><stop id="stop2348" offset="0" stop-color="#eee" stop-opacity="1"/><stop id="stop2350" offset="1" stop-color="#d9d9da" stop-opacity="1"/></linearGradient><linearGradient id="linearGradient2865" x1="24.627" x2="24.64" y1="3.123" y2="4.883" gradientTransform="matrix(1.0040453,0,0,1.5380658,1.2232785,-4.0400177)" gradientUnits="userSpaceOnUse" xlink:href="#linearGradient2346"/><linearGradient id="linearGradient3204" x1="28.252" x2="40.978" y1="4.034" y2="24.62" gradientUnits="userSpaceOnUse" xlink:href="#linearGradient3198"/><linearGradient id="linearGradient3242-7"><stop id="stop3244-5" offset="0" stop-color="#eef87e" stop-opacity="1"/><stop id="stop3246-9" offset=".262" stop-color="#cde34f" stop-opacity="1"/><stop id="stop3248-7" offset=".661" stop-color="#93b723" stop-opacity="1"/><stop id="stop3250-8" offset="1" stop-color="#5a7e0d" stop-opacity="1"/></linearGradient><linearGradient id="linearGradient2490-3"><stop id="stop2492-3" offset="0" stop-color="#365f0e" stop-opacity="1"/><stop id="stop2494-8" offset="1" stop-color="#84a718" stop-opacity="1"/></linearGradient><linearGradient id="linearGradient5530" x1="22.369" x2="22.369" y1="8.032" y2="38.274" gradientTransform="matrix(0.59881541,0,0,0.59520313,23.605196,23.21913)" gradientUnits="userSpaceOnUse" xlink:href="#linearGradient3943"/><linearGradient id="linearGradient3943"><stop id="stop3945" offset="0" stop-color="#fff" stop-opacity="1"/><stop id="stop3947" offset="1" stop-color="#fff" stop-opacity="0"/></linearGradient><radialGradient id="radialGradient3088" cx="69.448" cy="51.695" r="31" fx="69.448" fy="51.695" gradientTransform="matrix(0,0.67923629,-0.73892459,0,72.902805,-17.489952)" gradientUnits="userSpaceOnUse" xlink:href="#linearGradient3242-7"/><linearGradient id="linearGradient3090" x1="72.422" x2="72.422" y1="123.191" y2="52.809" gradientTransform="matrix(0.28214379,0,0,0.28445169,12.171345,11.958204)" gradientUnits="userSpaceOnUse" xlink:href="#linearGradient2490-3"/></defs><g id="layer1"><g id="g2877" display="inline" transform="matrix(0.9561265,0,0,0.9561265,1.044962,1.1059282)"><rect id="rect2879" width="34" height="3.734" x="7" y="44.266" fill="url(#linearGradient3584)" fill-opacity="1" fill-rule="nonzero" stroke="none" stroke-width="1" display="inline" opacity=".402" overflow="visible" visibility="visible" style="marker:none"/><path id="path2881" fill="url(#radialGradient3586)" fill-opacity="1" fill-rule="nonzero" stroke="none" stroke-width="1" d="M 7,44.266291 C 7,44.266291 7,47.999956 7,47.999956 C 5.7590552,48.006956 4,47.163431 4,46.132883 C 4,45.102336 5.3848007,44.266292 7,44.266291 L 7,44.266291 z" display="inline" opacity=".402" overflow="visible" visibility="visible" style="marker:none"/><path id="path2883" fill="url(#radialGradient3873)" fill-opacity="1" fill-rule="nonzero" stroke="none" stroke-width="1" d="M 41,44.266291 C 41,44.266291 41,47.999956 41,47.999956 C 42.240944,48.006956 44,47.163431 44,46.132883 C 44,45.102336 42.615199,44.266292 41,44.266291 L 41,44.266291 z" display="inline" opacity=".402" overflow="visible" visibility="visible" style="marker:none"/></g><rect id="rect2719" width="33.978" height="41.941" x="7.513" y="3.55" fill="url(#linearGradient2876)" fill-opacity="1" stroke="url(#linearGradient2878)" stroke-dasharray="none" stroke-dashoffset="0" stroke-linecap="round" stroke-linejoin="round" stroke-miterlimit="0" stroke-opacity="1" stroke-width="1.019" display="inline" rx=".31" ry=".33"/><path id="path2721" fill="url(#linearGradient2873)" fill-opacity="1" stroke="none" d="M 6.1372046,2.0740311 C 8.5557147,3.6043366 10.720729,2.9696932 11.997032,3.1275982 L 11.997032,45.871697 C 11.997032,45.871697 8.2895762,45.871697 7.3334602,45.871697 C 7.3334602,45.871697 6.1372046,45.871697 6.1372046,44.645785 L 6.1372046,2.0740311 L 6.1372046,2.0740311 z" display="inline"/><rect id="rect2725" width="1.78" height="40.77" x="10.112" y="4.275" fill="#4d4d4d" fill-opacity="1" stroke="none" display="inline" rx=".64" ry=".799"/><path id="path2781" fill="#fff" fill-opacity="1" stroke="none" d="M 24.160633,24.538419 C 24.160624,25.588536 24.376307,26.41667 24.807692,27.022829 C 25.247347,27.628994 25.840486,27.932073 26.587103,27.932069 C 27.325402,27.932073 27.914389,27.628994 28.354071,27.022829 C 28.793727,26.408134 29.013557,25.579999 29.013574,24.538419 C 29.013557,23.50539 28.789579,22.690061 28.341629,22.092425 C 27.901941,21.486276 27.308808,21.183194 26.562216,21.183183 C 25.83219,21.183194 25.247347,21.486276 24.807692,22.092425 C 24.376307,22.690061 24.160624,23.50539 24.160633,24.538419 M 29.262442,28.393095 C 29.013557,28.999258 28.611222,29.473089 28.055427,29.814588 C 27.507903,30.147549 26.86499,30.314032 26.126696,30.314031 C 24.699837,30.314032 23.53845,29.784709 22.642533,28.72606 C 21.754894,27.658875 21.311078,26.271535 21.311087,24.564032 C 21.311078,22.856541 21.759041,21.4692 22.654977,20.402005 C 23.550893,19.33483 24.708132,18.801239 26.126696,18.801225 C 26.86499,18.801239 27.507903,18.971986 28.055427,19.313475 C 28.611222,19.654985 29.013557,20.128815 29.262442,20.734965 L 29.262442,19.057349 L 31.863121,19.057349 L 31.863121,27.932069 C 32.891759,27.769862 33.70058,27.261882 34.289587,26.408129 C 34.87856,25.545846 35.173052,24.444513 35.173074,23.104119 C 35.173052,22.25038 35.052769,21.452125 34.812216,20.709355 C 34.571622,19.958064 34.206614,19.270797 33.717192,18.64755 C 32.929088,17.605989 31.941914,16.803465 30.755654,16.239977 C 29.577659,15.676519 28.300135,15.394781 26.923078,15.394766 C 25.960771,15.394781 25.039956,15.527112 24.160633,15.791759 C 23.281287,16.047899 22.468316,16.427817 21.721718,16.931514 C 20.493959,17.768203 19.535816,18.852462 18.847283,20.184298 C 18.16704,21.507619 17.826918,22.941913 17.826923,24.487192 C 17.826918,25.759284 18.046751,26.954533 18.486425,28.07294 C 18.934385,29.182817 19.577294,30.164628 20.41516,31.018374 C 21.244712,31.855047 22.194559,32.491089 23.264707,32.926503 C 24.343126,33.370452 25.492068,33.592425 26.71154,33.592428 C 27.756772,33.592425 28.802021,33.391796 29.847285,32.990534 C 30.892515,32.589272 31.784295,32.047142 32.522622,31.364142 L 33.854068,33.438754 C 32.817097,34.266887 31.684747,34.898659 30.457011,35.334077 C 29.23754,35.778022 27.997346,35.999994 26.736424,36 C 25.20172,35.999994 23.754136,35.71826 22.393665,35.154791 C 21.033174,34.59985 19.822014,33.788789 18.76018,32.721604 C 17.698339,31.654417 16.889514,30.420751 16.333712,29.020601 C 15.7779,27.611918 15.499999,26.100786 15.5,24.487192 C 15.499999,22.933378 15.782047,21.452125 16.346152,20.04343 C 16.910255,18.634757 17.714928,17.396821 18.76018,16.329622 C 19.805425,15.270986 21.020734,14.451389 22.406107,13.870822 C 23.79976,13.290291 25.243199,13.000018 26.736424,13 C 28.594629,13.000018 30.282786,13.367128 31.800904,14.101334 C 33.318981,14.827041 34.588212,15.877149 35.608594,17.25167 C 36.230745,18.088358 36.699447,18.997599 37.014704,19.979396 C 37.338211,20.952682 37.499973,21.97718 37.5,23.052897 C 37.499973,25.366561 36.823881,27.163703 35.471717,28.444319 C 34.11951,29.724947 32.211519,30.365258 29.747735,30.365256 L 29.262442,30.365256 L 29.262442,28.393095" display="inline" font-family="Bitstream Vera Sans" font-size="23.554" font-style="normal" font-weight="normal" opacity=".4"/><path id="path4743" fill="none" fill-rule="evenodd" stroke="url(#linearGradient3204)" stroke-dasharray="none" stroke-linecap="square" stroke-linejoin="round" stroke-miterlimit="4" stroke-opacity="1" stroke-width=".967" d="M 12.446486,4.5504784 L 40.494277,4.5174634 L 40.494277,44.722892" display="inline" opacity=".4"/><path id="path2723" fill="url(#linearGradient2865)" fill-opacity="1" stroke="url(#linearGradient2867)" stroke-dasharray="none" stroke-dashoffset="0" stroke-linecap="butt" stroke-linejoin="round" stroke-miterlimit="0" stroke-opacity="1" stroke-width="1.017" d="M 40.838991,3.2171542 C 40.543588,2.2259356 40.727705,1.4540642 40.56455,0.50871776 C 40.56455,0.50871776 11.974106,0.50871776 10.324787,0.50871776 C 8.7544893,0.50871776 7.2029761,0.73902896 6.7651887,1.6761543 C 6.7405257,1.7289503 6.7132717,1.7821545 6.6980377,1.8395954 C 6.2963772,2.8056474 7.9598534,3.5612007 10.503265,3.5612007 C 12.245924,3.5612007 11.388464,3.5612007 12.018168,3.5612007" display="inline"/><path id="path4494" fill="#a18d72" fill-opacity="1" fill-rule="evenodd" stroke="#a18d72" stroke-linecap="butt" stroke-linejoin="miter" stroke-opacity="1" stroke-width="1" d="M 41.308287,3.5554517 L 11.989213,3.5554517" display="inline"/><path id="path2779" fill="#746956" fill-opacity="1" stroke="none" d="M 24.160633,23.53842 C 24.160624,24.588538 24.376307,25.416673 24.807692,26.022828 C 25.247347,26.628996 25.840486,26.932073 26.587103,26.93207 C 27.325402,26.932073 27.914389,26.628996 28.354071,26.022828 C 28.793727,25.408134 29.013557,24.579999 29.013574,23.53842 C 29.013557,22.505389 28.789579,21.690062 28.341629,21.092426 C 27.901941,20.486274 27.308808,20.183195 26.562216,20.183185 C 25.83219,20.183195 25.247347,20.486274 24.807692,21.092426 C 24.376307,21.690062 24.160624,22.505389 24.160633,23.53842 M 29.262442,27.393095 C 29.013557,27.999259 28.611222,28.473088 28.055427,28.814588 C 27.507903,29.147551 26.86499,29.314033 26.126696,29.314031 C 24.699837,29.314033 23.53845,28.784708 22.642533,27.726057 C 21.754894,26.658874 21.311078,25.271534 21.311087,23.56403 C 21.311078,21.85654 21.759041,20.469202 22.654977,19.402004 C 23.550893,18.33483 24.708132,17.801238 26.126696,17.801225 C 26.86499,17.801238 27.507903,17.971986 28.055427,18.313475 C 28.611222,18.654987 29.013557,19.128815 29.262442,19.734964 L 29.262442,18.057351 L 31.863121,18.057351 L 31.863121,26.93207 C 32.891759,26.769862 33.70058,26.261883 34.289587,25.408128 C 34.87856,24.545848 35.173052,23.444513 35.173074,22.10412 C 35.173052,21.25038 35.052769,20.452126 34.812216,19.709353 C 34.571622,18.958066 34.206614,18.270799 33.717192,17.647551 C 32.929088,16.605989 31.941914,15.803465 30.755654,15.239977 C 29.577659,14.676519 28.300135,14.394782 26.923078,14.394768 C 25.960771,14.394782 25.039956,14.527113 24.160633,14.79176 C 23.281287,15.047899 22.468316,15.427817 21.721718,15.931517 C 20.493959,16.768202 19.535816,17.852461 18.847283,19.184298 C 18.16704,20.507618 17.826918,21.941915 17.826923,23.487195 C 17.826918,24.759284 18.046751,25.954532 18.486425,27.072942 C 18.934385,28.182813 19.577294,29.164626 20.41516,30.018372 C 21.244712,30.855046 22.194559,31.491091 23.264707,31.926502 C 24.343126,32.37045 25.492068,32.592425 26.71154,32.592427 C 27.756772,32.592425 28.802021,32.391793 29.847285,31.990533 C 30.892515,31.589272 31.784295,31.047141 32.522622,30.364141 L 33.854068,32.438752 C 32.817097,33.266886 31.684747,33.89866 30.457011,34.334074 C 29.23754,34.77802 27.997346,34.999996 26.736424,35 C 25.20172,34.999996 23.754136,34.718258 22.393665,34.154788 C 21.033174,33.599848 19.822014,32.788785 18.76018,31.721604 C 17.698339,30.654416 16.889514,29.420754 16.333712,28.020599 C 15.7779,26.611919 15.499999,25.100784 15.5,23.487195 C 15.499999,21.933379 15.782047,20.452126 16.346152,19.04343 C 16.910255,17.634756 17.714928,16.396821 18.76018,15.329622 C 19.805425,14.270987 21.020734,13.45139 22.406107,12.870823 C 23.79976,12.29029 25.243199,12.000019 26.736424,12 C 28.594629,12.000019 30.282786,12.36713 31.800904,13.101338 C 33.318981,13.827041 34.588212,14.877151 35.608594,16.251671 C 36.230745,17.088357 36.699447,17.9976 37.014704,18.979398 C 37.338211,19.952679 37.499973,20.97718 37.5,22.052893 C 37.499973,24.366563 36.823881,26.163699 35.471717,27.444321 C 34.11951,28.724947 32.211519,29.365256 29.747735,29.365255 L 29.262442,29.365255 L 29.262442,27.393095" display="inline" font-family="Bitstream Vera Sans" font-size="23.554" font-style="normal" font-weight="normal" opacity="1"/><path id="path2262" fill="url(#radialGradient3088)" fill-opacity="1" fill-rule="nonzero" stroke="url(#linearGradient3090)" stroke-dasharray="none" stroke-dashoffset="0" stroke-linecap="round" stroke-linejoin="round" stroke-miterlimit="4" stroke-opacity="1" stroke-width=".985" d="m 33.500001,33.5 0,-6.02737 7,0 0,6.02737 6.007286,0 0,7 -6.007286,0 0,6.007286 -7,0 0,-6.007286 -6.007287,0 0,-7 6.007287,0 z" color="#000" display="inline" enable-background="accumulate" overflow="visible" visibility="visible" style="marker:none"/><path id="path2272" fill="none" stroke="url(#linearGradient5530)" stroke-dasharray="none" stroke-linecap="butt" stroke-linejoin="miter" stroke-miterlimit="4" stroke-opacity="1" stroke-width="1" d="m 34.500001,34.5 0,-6.000001 5,0 0,6.000001 6,0 0,5 -6,0 0,6 -5,0 0,-6 -6,0 0,-5 6,0 z" display="inline" opacity=".4"/></g></svg>