<svg xmlns="http://www.w3.org/2000/svg" xmlns:svg="http://www.w3.org/2000/svg" xmlns:xlink="http://www.w3.org/1999/xlink" id="svg5555" width="48" height="48" version="1.0"><defs id="defs5557"><linearGradient id="linearGradient4222"><stop id="stop4224" offset="0" stop-color="#fff" stop-opacity="1"/><stop id="stop4226" offset="1" stop-color="#fff" stop-opacity="0"/></linearGradient><linearGradient id="linearGradient2583" x1="24.139" x2="24.139" y1="6.532" y2="45.69" gradientTransform="matrix(0.5399382,0,0,0.5366811,-39.283657,23.13804)" gradientUnits="userSpaceOnUse" xlink:href="#linearGradient4222"/><linearGradient id="linearGradient2264"><stop id="stop2266" offset="0" stop-color="#d7e866" stop-opacity="1"/><stop id="stop2268" offset="1" stop-color="#8cab2a" stop-opacity="1"/></linearGradient><linearGradient id="linearGradient2581" x1="24.104" x2="24.104" y1="15.181" y2="34.225" gradientTransform="matrix(0.8988874,0,0,0.8934652,-47.898438,15.078266)" gradientUnits="userSpaceOnUse" xlink:href="#linearGradient2264"/><linearGradient id="linearGradient3227"><stop id="stop3229" offset="0" stop-color="#4d4d4d" stop-opacity="1"/><stop id="stop3231" offset="1" stop-color="#333" stop-opacity="1"/></linearGradient><linearGradient id="linearGradient8838"><stop id="stop8840" offset="0" stop-color="#000" stop-opacity="1"/><stop id="stop8842" offset="1" stop-color="#000" stop-opacity="0"/></linearGradient><linearGradient id="linearGradient3334-995-903-143-677-209-356-728"><stop id="stop5026" offset="0" stop-color="gray" stop-opacity="1"/><stop id="stop5028" offset=".873" stop-color="#6d6d6d" stop-opacity="1"/><stop id="stop5030" offset="1" stop-color="#4f5053" stop-opacity="1"/></linearGradient><linearGradient id="linearGradient2480"><stop id="stop2482" offset="0" stop-color="#636467" stop-opacity="1"/><stop id="stop2484" offset="1" stop-color="#4a4a4a" stop-opacity="1"/></linearGradient><linearGradient id="linearGradient3268"><stop id="stop3270" offset="0" stop-color="#fff" stop-opacity="1"/><stop id="stop3272" offset="1" stop-color="#d8d8d8" stop-opacity="1"/></linearGradient><linearGradient id="linearGradient3996"><stop id="stop3998" offset="0" stop-color="#fff" stop-opacity="1"/><stop id="stop4000" offset="1" stop-color="#fff" stop-opacity="0"/></linearGradient><linearGradient id="linearGradient3708"><stop id="stop3710" offset="0" stop-color="#000" stop-opacity="1"/><stop id="stop3712" offset="1" stop-color="#000" stop-opacity="1"/></linearGradient><linearGradient id="linearGradient3301"><stop id="stop3303" offset="0" stop-color="#fff" stop-opacity="0"/><stop id="stop3309" offset=".7" stop-color="#fff" stop-opacity="0"/><stop id="stop3305" offset="1" stop-color="#000" stop-opacity="1"/></linearGradient><radialGradient id="radialGradient3199" cx="24" cy="24" r="17" fx="24" fy="24" gradientUnits="userSpaceOnUse" xlink:href="#linearGradient3301"/><linearGradient id="linearGradient3201" x1="29.05" x2="29.05" y1="7.028" y2="26.494" gradientTransform="matrix(1,0,0,-1,1e-6,47.999998)" gradientUnits="userSpaceOnUse" xlink:href="#linearGradient3708"/><linearGradient id="linearGradient3212" x1="24.398" x2="24.398" y1="3.602" y2="26.091" gradientTransform="translate(-0.3976755,0.3981273)" gradientUnits="userSpaceOnUse" xlink:href="#linearGradient3996"/><radialGradient id="radialGradient3215" cx="27.412" cy="12.08" r="18" fx="27.412" fy="12.08" gradientTransform="matrix(1.7637903e-8,1.7731075,-2.6591116,2.6451386e-8,59.480381,-17.99927)" gradientUnits="userSpaceOnUse" xlink:href="#linearGradient3268"/><linearGradient id="linearGradient3217" x1="29.05" x2="29.05" y1="7.028" y2="40.32" gradientTransform="matrix(1.0606061,0,0,1.060606,-1.4545467,-1.4545435)" gradientUnits="userSpaceOnUse" xlink:href="#linearGradient2480"/><radialGradient id="radialGradient3220" cx="24.012" cy="24.003" r="21" fx="24.012" fy="24.003" gradientTransform="matrix(0.9532054,0,0,0.9532054,1.1236313,1.1232247)" gradientUnits="userSpaceOnUse" xlink:href="#linearGradient3334-995-903-143-677-209-356-728"/><linearGradient id="linearGradient3222" x1="7.554" x2="7.554" y1="3" y2="45.184" gradientUnits="userSpaceOnUse" xlink:href="#linearGradient3227"/><radialGradient id="radialGradient3225" cx="62.625" cy="4.625" r="10.625" fx="62.625" fy="4.625" gradientTransform="matrix(2.1647059,0,0,0.7529402,-111.56471,36.517647)" gradientUnits="userSpaceOnUse" xlink:href="#linearGradient8838"/></defs><path id="path8836" fill="url(#radialGradient3225)" fill-opacity="1" fill-rule="evenodd" stroke="none" stroke-width="1" d="M 46.999997,40 C 46.999997,44.418278 36.702545,48 23.999997,48 C 11.297449,48 0.9999968,44.418278 0.9999968,40 C 0.9999968,35.581722 11.297449,32 23.999997,32 C 36.702545,32 46.999997,35.581722 46.999997,40 L 46.999997,40 z" display="inline" opacity=".3" overflow="visible" visibility="visible" style="marker:none"/><path id="path6495" fill="url(#radialGradient3220)" fill-opacity="1" fill-rule="nonzero" stroke="url(#linearGradient3222)" stroke-dasharray="none" stroke-miterlimit="4" stroke-opacity="1" stroke-width="1" d="M 44.5,23.999273 C 44.5,35.321475 35.32116,44.5 24.000257,44.5 C 12.678317,44.5 3.5,35.321371 3.5,23.999273 C 3.5,12.67759 12.678317,3.499998 24.000257,3.499998 C 35.32116,3.499998 44.5,12.67759 44.5,23.999273 L 44.5,23.999273 z"/><path id="path3215" fill="url(#radialGradient3215)" fill-opacity="1" fill-rule="nonzero" stroke="url(#linearGradient3217)" stroke-dasharray="none" stroke-miterlimit="4" stroke-width="1" d="M 41.500001,23.999379 C 41.500001,33.664672 33.664405,41.499998 24.000221,41.499998 C 14.335149,41.499998 6.4999987,33.664583 6.4999987,23.999379 C 6.4999987,14.334528 14.335149,6.4999998 24.000221,6.4999998 C 33.664405,6.4999998 41.500001,14.334528 41.500001,23.999379 L 41.500001,23.999379 L 41.500001,23.999379 L 41.500001,23.999379 z"/><path id="path3222" fill="none" stroke="url(#linearGradient3212)" stroke-dasharray="none" stroke-miterlimit="4" stroke-opacity="1" stroke-width="1" d="M 43.5,23.999308 C 43.5,34.769206 34.768909,43.499998 24.000245,43.499998 C 13.230594,43.499998 4.4999995,34.769107 4.4999995,23.999308 C 4.4999995,13.229904 13.230594,4.4999996 24.000245,4.4999996 C 34.768909,4.4999996 43.5,13.229904 43.5,23.999308 L 43.5,23.999308 z" opacity=".4"/><path id="path2291" fill="none" fill-opacity="1" fill-rule="evenodd" stroke="#000" stroke-dasharray="none" stroke-linecap="round" stroke-linejoin="miter" stroke-miterlimit="4" stroke-opacity="1" stroke-width=".926" d="M 9.861727,24.537057 C 12.628048,24.537057 12.978317,24.45747 12.978317,24.45747" opacity=".3"/><path id="path2296" fill="none" fill-opacity="1" fill-rule="evenodd" stroke="#000" stroke-dasharray="none" stroke-linecap="round" stroke-linejoin="miter" stroke-miterlimit="4" stroke-opacity="1" stroke-width=".926" d="M 35.02168,24.537057 C 37.788003,24.537057 38.138273,24.45747 38.138273,24.45747" opacity=".3"/><path id="path2306" fill="none" fill-opacity="1" fill-rule="evenodd" stroke="#000" stroke-dasharray="none" stroke-linecap="round" stroke-linejoin="miter" stroke-miterlimit="4" stroke-opacity="1" stroke-width=".926" d="M 23.542531,38.03347 C 23.542531,35.26715 23.462943,34.91688 23.462943,34.91688" opacity=".3"/><path id="path2308" fill="none" fill-opacity="1" fill-rule="evenodd" stroke="#000" stroke-dasharray="none" stroke-linecap="round" stroke-linejoin="miter" stroke-miterlimit="4" stroke-opacity="1" stroke-width=".926" d="M 23.542531,13.08316 C 23.542531,10.316802 23.462943,9.9665285 23.462943,9.9665285" opacity=".3"/><g id="g2318" stroke-dasharray="none" stroke-linecap="round" stroke-miterlimit="4" stroke-width="1.615" transform="matrix(0.5733387,0,0,0.5733387,10.842297,11.895428)"><path id="path2312" fill="none" fill-rule="evenodd" stroke="#000" stroke-dasharray="none" stroke-linecap="round" stroke-linejoin="miter" stroke-miterlimit="4" stroke-opacity="1" stroke-width="1.615" d="M 21.168246,23.652869 L 40.199004,4.6221125"/><path id="path2314" fill="none" fill-rule="evenodd" stroke="#000" stroke-dasharray="none" stroke-linecap="round" stroke-linejoin="miter" stroke-miterlimit="4" stroke-opacity="1" stroke-width="1.615" d="M 24.25811,23.793317 L 11.547531,11.082739"/><path id="path2316" fill="red" fill-rule="evenodd" stroke="red" stroke-dasharray="none" stroke-linecap="round" stroke-linejoin="miter" stroke-miterlimit="4" stroke-opacity="1" stroke-width="1.615" d="M 21.589592,22.66973 L 43.260774,16.862955"/></g><path id="path3215-4" fill="url(#radialGradient3199)" fill-opacity="1" stroke="url(#linearGradient3201)" stroke-dasharray="none" stroke-miterlimit="4" stroke-width="1" d="M 40.5,24.000585 C 40.5,14.887594 33.112152,7.4999999 24.000208,7.4999999 C 14.887427,7.4999999 7.5,14.887677 7.5,24.000585 C 7.5,33.113159 14.887427,40.5 24.000208,40.5 C 33.112152,40.5 40.5,33.113159 40.5,24.000585 L 40.5,24.000585 z" opacity=".2"/><g id="g2577" transform="translate(64.434734,2.355762)"><path id="path2543" fill="url(#linearGradient2581)" fill-opacity="1" fill-rule="evenodd" stroke="#699536" stroke-dasharray="none" stroke-linecap="butt" stroke-linejoin="round" stroke-miterlimit="4" stroke-opacity="1" stroke-width="1" d="M -29.868354,32.139057 L -29.868354,26.144238 L -22.934734,26.144238 L -22.934734,32.139057 L -16.934734,32.139057 L -16.934734,39.144238 L -22.934734,39.144238 L -22.934734,45.144238 L -29.874462,45.144238 L -29.902331,39.144238 L -35.934734,39.144238 L -35.934734,32.139057 L -29.868354,32.139057 z" display="inline"/><path id="path2545" fill="none" fill-opacity="1" fill-rule="evenodd" stroke="url(#linearGradient2583)" stroke-dasharray="none" stroke-linecap="butt" stroke-linejoin="miter" stroke-miterlimit="4" stroke-opacity="1" stroke-width="1" d="M -28.934734,33.139057 L -28.934734,27.144238 L -23.934734,27.144238 L -23.934734,33.139057 L -17.934734,33.139057 L -17.934734,38.144238 L -23.934734,38.144238 L -23.934734,44.144238 L -28.934734,44.144238 L -28.934734,38.144238 L -34.934734,38.144238 L -34.934734,33.139057 L -28.934734,33.139057 z" display="inline" opacity=".4"/></g></svg>