<svg xmlns="http://www.w3.org/2000/svg" xmlns:svg="http://www.w3.org/2000/svg" xmlns:xlink="http://www.w3.org/1999/xlink" id="svg3786" width="48" height="48" version="1.0"><defs id="defs3788"><linearGradient id="linearGradient2901" x1="8.527" x2="57.411" y1="33.332" y2="33.332" gradientTransform="matrix(0,0.798445,-0.7913078,0,44.889795,-5.6111935)" gradientUnits="userSpaceOnUse" xlink:href="#linearGradient4222"/><linearGradient id="linearGradient4222"><stop id="stop4224" offset="0" stop-color="#fff" stop-opacity="1"/><stop id="stop4226" offset="1" stop-color="#fff" stop-opacity="0"/></linearGradient><linearGradient id="linearGradient2264"><stop id="stop2266" offset="0" stop-color="#d7e866" stop-opacity="1"/><stop id="stop2268" offset="1" stop-color="#8cab2a" stop-opacity="1"/></linearGradient><linearGradient id="linearGradient3390" x1="28.671" x2="1.31" y1="23.891" y2="23.891" gradientTransform="matrix(0,-0.6884294,-0.6854408,0,40.375844,29.770525)" gradientUnits="userSpaceOnUse" xlink:href="#linearGradient2264"/><linearGradient id="linearGradient5048-8"><stop id="stop5050-1" offset="0" stop-color="#000" stop-opacity="0"/><stop id="stop5056-2" offset=".5" stop-color="#000" stop-opacity="1"/><stop id="stop5052-9" offset="1" stop-color="#000" stop-opacity="0"/></linearGradient><radialGradient id="radialGradient2939" cx="605.714" cy="486.648" r="117.143" fx="605.714" fy="486.648" gradientTransform="matrix(0.04484747,0,0,0.02058824,15.231827,34.839926)" gradientUnits="userSpaceOnUse" xlink:href="#linearGradient5060-3"/><linearGradient id="linearGradient5060-3"><stop id="stop5062-9" offset="0" stop-color="#000" stop-opacity="1"/><stop id="stop5064-0" offset="1" stop-color="#000" stop-opacity="0"/></linearGradient><radialGradient id="radialGradient2936" cx="605.714" cy="486.648" r="117.143" fx="605.714" fy="486.648" gradientTransform="matrix(-0.04484747,0,0,0.02058824,32.454077,34.839926)" gradientUnits="userSpaceOnUse" xlink:href="#linearGradient5060-3"/><linearGradient id="linearGradient2933" x1="29.938" x2="30" y1="41" y2="50" gradientTransform="matrix(1.0017502,0,0,0.7596403,-5.2079507,7.3249279)" gradientUnits="userSpaceOnUse" xlink:href="#linearGradient2215-8"/><linearGradient id="linearGradient2215-8"><stop id="stop2223-8" offset="0" stop-color="#7a7a7a" stop-opacity="1"/><stop id="stop2219-5" offset="1" stop-color="#474747" stop-opacity="1"/></linearGradient><radialGradient id="radialGradient2927" cx="11.734" cy="8.49" r="23.048" fx="11.734" fy="8.49" gradientTransform="matrix(1.3767077,0.69719425,-0.46810846,0.92434578,-0.2062097,-0.5500743)" gradientUnits="userSpaceOnUse" xlink:href="#linearGradient7056-0"/><linearGradient id="linearGradient7056-0"><stop id="stop7064-9" offset="0" stop-color="#e6e6e6" stop-opacity="1"/><stop id="stop7060-6" offset="1" stop-color="#c8c8c8" stop-opacity="1"/></linearGradient><linearGradient id="linearGradient2929" x1="17.814" x2="18.073" y1="29.797" y2="10" gradientTransform="translate(-0.1570532,1.3884067)" gradientUnits="userSpaceOnUse" xlink:href="#linearGradient3484-3"/><linearGradient id="linearGradient3484-3"><stop id="stop3486-8" offset="0" stop-color="#969696" stop-opacity="1"/><stop id="stop3488-5" offset="1" stop-color="#b4b4b4" stop-opacity="1"/></linearGradient><radialGradient id="radialGradient2923" cx="141.747" cy="206.426" r="78.728" fx="141.747" fy="206.426" gradientTransform="matrix(0.35160878,-0.0050244,0.00260227,0.28909275,-27.181393,-22.828984)" gradientUnits="userSpaceOnUse" xlink:href="#linearGradient4035"/><linearGradient id="linearGradient4035"><stop id="stop4037" offset="0" stop-color="#f5f5f5" stop-opacity="1"/><stop id="stop4039" offset=".47" stop-color="#e7e7e7" stop-opacity="1"/><stop id="stop4041" offset=".693" stop-color="#8c8c8c" stop-opacity="1"/><stop id="stop4043" offset=".835" stop-color="#ddd" stop-opacity="1"/><stop id="stop4045" offset="1" stop-color="#a8a8a8" stop-opacity="1"/></linearGradient><radialGradient id="radialGradient2920" cx="142.622" cy="191.854" r="78.728" fx="142.622" fy="191.854" gradientTransform="matrix(0.18495239,0,0,-0.13074306,-3.2682255,47.43699)" gradientUnits="userSpaceOnUse" xlink:href="#linearGradient7609"/><linearGradient id="linearGradient7609"><stop id="stop7611" offset="0" stop-color="#fff" stop-opacity="1"/><stop id="stop7677" offset=".47" stop-color="#e7e7e7" stop-opacity="1"/><stop id="stop7613" offset=".672" stop-color="#8c8c8c" stop-opacity="1"/><stop id="stop7617" offset=".835" stop-color="#ddd" stop-opacity="1"/><stop id="stop7615" offset="1" stop-color="#a8a8a8" stop-opacity="1"/></linearGradient><radialGradient id="radialGradient2965" cx="113.065" cy="97.588" r="2.563" fx="113.667" fy="98" gradientTransform="matrix(-0.32948872,0,0,0.34974643,41.805988,2.8823791)" gradientUnits="userSpaceOnUse" xlink:href="#radialGradient4241"/><radialGradient id="radialGradient4241" cx="113.065" cy="97.588" r="2.563" fx="113.667" fy="98" gradientUnits="userSpaceOnUse"><stop id="stop4243" offset="0" stop-color="#eee" stop-opacity="1"/><stop id="stop4245" offset=".16" stop-color="#cecece" stop-opacity="1"/><stop id="stop4247" offset=".468" stop-color="#888" stop-opacity="1"/><stop id="stop4249" offset="1" stop-color="#555" stop-opacity="1"/></radialGradient><radialGradient id="radialGradient2959" cx="113.065" cy="97.588" r="2.563" fx="113.667" fy="98" gradientTransform="matrix(0.22282769,-0.03752228,0.02509892,0.149051,-18.302971,2.9208339)" gradientUnits="userSpaceOnUse" xlink:href="#radialGradient4241"/><radialGradient id="radialGradient2953" cx="113.065" cy="97.588" r="2.563" fx="113.667" fy="98" gradientTransform="matrix(0.22333209,0.03439303,-0.02300572,0.14938839,14.634388,-5.2432873)" gradientUnits="userSpaceOnUse" xlink:href="#radialGradient4241"/><linearGradient id="linearGradient2908" x1="7.063" x2="24.688" y1="35.281" y2="35.281" gradientTransform="matrix(1.0212766,0,0,0.89887639,0.6301868,10.175067)" gradientUnits="userSpaceOnUse" xlink:href="#linearGradient5060-3"/><linearGradient id="linearGradient2905" x1="12.277" x2="12.222" y1="37.206" y2="33.759" gradientTransform="matrix(1.0212766,0,0,0.89887639,-0.1822315,11.366816)" gradientUnits="userSpaceOnUse" xlink:href="#linearGradient4236"/><linearGradient id="linearGradient4236"><stop id="stop4238" offset="0" stop-color="#eee" stop-opacity="1"/><stop id="stop4240" offset="1" stop-color="#eee" stop-opacity="0"/></linearGradient><radialGradient id="radialGradient2902" cx="127.317" cy="143.828" r="78.728" fx="127.317" fy="143.828" gradientTransform="matrix(0.19054222,-0.02505584,0.00619351,0.10073457,-7.5942276,6.81724)" gradientUnits="userSpaceOnUse" xlink:href="#linearGradient4035"/><radialGradient id="radialGradient2947" cx="113.065" cy="97.588" r="2.563" fx="113.667" fy="98" gradientTransform="matrix(0.32948872,0,0,0.34974643,5.89787,2.8823791)" gradientUnits="userSpaceOnUse" xlink:href="#radialGradient4241"/><radialGradient id="radialGradient2896" cx="24" cy="42" r="21" fx="24" fy="42" gradientTransform="matrix(0.99999995,-1.0652117e-8,2.7812622e-8,0.35714279,-0.1570521,26.888557)" gradientUnits="userSpaceOnUse" xlink:href="#linearGradient6310-8"/><linearGradient id="linearGradient6310-8"><stop id="stop6312-6" offset="0" stop-color="#fff" stop-opacity="1"/><stop id="stop6314-6" offset="1" stop-color="#fff" stop-opacity="0"/></linearGradient><linearGradient id="linearGradient3032" x1="302.857" x2="302.857" y1="366.648" y2="609.505" gradientTransform="matrix(0.07635654,0,0,0.02058824,-3.7544815,34.839926)" gradientUnits="userSpaceOnUse" xlink:href="#linearGradient5048-8"/></defs><rect id="rect2723-6" width="36.869" height="5" x="5.408" y="42.389" fill="url(#linearGradient3032)" fill-opacity="1" fill-rule="nonzero" stroke="none" stroke-width=".5" display="inline" opacity=".3" overflow="visible" visibility="visible" style="marker:none"/><path id="path2725-1" fill="url(#radialGradient2939)" fill-opacity="1" fill-rule="nonzero" stroke="none" stroke-width=".5" d="m 42.259617,42.388728 c 0,0 0,4.999723 0,4.999723 2.30953,0.0094 5.58333,-1.120185 5.58333,-2.500182 0,-1.379997 -2.57726,-2.499541 -5.58333,-2.499541 z" display="inline" opacity=".3" overflow="visible" visibility="visible" style="marker:none"/><path id="path2727-1" fill="url(#radialGradient2936)" fill-opacity="1" fill-rule="nonzero" stroke="none" stroke-width="1" d="m 5.426277,42.388728 c 0,0 0,4.999723 0,4.999723 -2.30954,0.0094 -5.5833302,-1.120185 -5.5833302,-2.500182 0,-1.379997 2.5772702,-2.499541 5.5833302,-2.499541 z" display="inline" opacity=".3" overflow="visible" visibility="visible" style="marker:none"/><path id="rect6431-5" fill="url(#linearGradient2933)" fill-opacity="1" fill-rule="evenodd" stroke="#353537" stroke-dasharray="none" stroke-dashoffset="0" stroke-linecap="round" stroke-linejoin="round" stroke-miterlimit="4" stroke-opacity="1" stroke-width=".928" d="m 1.3068005,38.852555 45.0720005,0 -0.901202,6.072 -43.169419,0 -1.0013795,-6.072 z" display="inline" enable-background="new"/><rect id="rect6381-9" width="45" height="1" x="1.343" y="38.388" fill="#d2d2d3" fill-opacity="1" fill-rule="evenodd" stroke="none" display="inline" enable-background="new"/><path id="path6345-8" fill="url(#radialGradient2927)" fill-opacity="1" fill-rule="nonzero" stroke="url(#linearGradient2929)" stroke-dasharray="none" stroke-dashoffset="0" stroke-linecap="round" stroke-linejoin="round" stroke-miterlimit="4" stroke-opacity="1" stroke-width=".996" d="M 46.392947,38.990516 39.583314,13.216178 c -0.192553,-0.733973 -1.2012,-1.329879 -2.049166,-1.329879 l -27.617218,0 c -1.30274,0 -2.049257,0.198573 -2.323959,1.329879 L 1.2929468,38.96542" display="inline" enable-background="accumulate" overflow="visible" visibility="visible" style="marker:none"/><path id="path7046-4" fill="none" stroke="#fff" stroke-dasharray="none" stroke-dashoffset="0" stroke-linecap="round" stroke-linejoin="miter" stroke-miterlimit="4" stroke-opacity="1" stroke-width="1" d="M 45.342949,38.888408 2.342947,38.864357" display="inline" enable-background="accumulate" opacity=".4" overflow="visible" visibility="visible" style="marker:none"/><path id="path9001" fill="url(#radialGradient2923)" fill-opacity="1" d="m 40.814344,27.762368 c -0.21768,-1.997975 -1.676509,-3.903122 -4.1004,-5.406472 -0.04876,-0.577862 -0.670055,-7.97019 -0.670055,-7.97019 -0.04762,-0.568265 -0.771749,-0.997153 -1.685016,-0.997153 l -5.731268,0 c -0.919834,0 -1.630882,0.434524 -1.654073,1.010704 -0.10517,2.603206 -3.312025,3.962376 -8.095624,5.198802 -1.67612,0.29034 -6.046005,1.655156 -7.048964,2.254184 -2.952438,1.573605 -4.713226,3.67147 -4.957204,5.910125 -0.22194,2.036069 0.844826,4.073551 3.003866,5.737168 3.160059,2.435045 8.381346,3.889018 13.967237,3.889018 5.5859,0 10.807176,-1.453973 13.967635,-3.889018 1.971903,-1.519149 3.032469,-3.350655 3.032469,-5.207826 0,-0.17636 -0.01031,-0.352992 -0.02866,-0.529342 l 5.7e-5,0 z m -16.971501,8.616336 c -9.303498,0 -16.427483,-4.080325 -15.912079,-8.810179 0.222328,-2.039173 1.854362,-4.216036 4.557022,-5.650539 0.506122,-0.381482 5.077073,-1.865368 6.716838,-2.126087 4.544655,-1.17209 8.700731,-2.693216 8.831026,-5.89884 0.0057,-0.153501 0.267557,-0.275107 0.591955,-0.275107 l 5.730502,0 c 0.33174,0 0.611698,0.127531 0.62484,0.284984 l 0.695941,8.281975 c 2.408816,1.395843 3.86841,3.479309 4.075655,5.383614 0.515781,4.729854 -6.608191,8.810179 -15.9117,8.810179 l 0,0 z"/><path id="path9003" fill="url(#radialGradient2920)" fill-opacity="1" fill-rule="nonzero" stroke-dasharray="none" stroke-dashoffset="0" stroke-linecap="butt" stroke-linejoin="miter" stroke-miterlimit="4" stroke-opacity="1" stroke-width="1" d="m 23.842716,30.388554 c -3.364964,0 -5.944551,-1.267115 -5.998923,-2.947825 -4.28e-4,-0.01817 -8.46e-4,-0.03604 -8.46e-4,-0.0539 0,-0.608175 0.338098,-1.186584 0.980563,-1.676322 1.086804,-0.827824 2.963209,-1.321951 5.019622,-1.321951 2.055997,0 3.932391,0.494127 5.019195,1.321951 0.661441,0.503521 1.000395,1.101987 0.979728,1.729907 -0.05524,1.68071 -2.634804,2.948137 -5.999339,2.948137 l 0,3e-6 z m 0,-5.059679 c -3.161777,0 -4.77259,1.255831 -4.734647,2.402312 0.03667,1.128624 2.156333,2.030394 4.734647,2.030394 2.578314,0 4.697955,-0.902088 4.734637,-2.030394 0.03749,-1.146798 -1.572872,-2.402312 -4.734637,-2.402312 l 0,0 z" display="inline" enable-background="accumulate" overflow="visible" visibility="visible" style="marker:none"/><path id="path9007" fill="#e1e1e1" fill-opacity="1" d="m 5.85877,37.007838 c -0.04152,0.595269 -0.663261,1.080716 -1.388137,1.080716 -0.724546,0 -1.273145,-0.485447 -1.22471,-1.080716 0.04811,-0.592121 0.669522,-1.070225 1.387148,-1.070225 0.717957,2.81e-4 1.266555,0.478104 1.225699,1.070225 z"/><path id="path9009" fill="url(#radialGradient2965)" fill-opacity="1" d="m 5.389906,36.589191 c 0.06623,0.07554 0.142011,0.196558 0.142011,0.357441 0,0.01155 -6.61e-4,0.02308 -0.0013,0.03533 -0.02867,0.410252 -0.514003,0.756851 -1.059637,0.756851 -0.310707,0 -0.594726,-0.113668 -0.759471,-0.304629 -0.07084,-0.08149 -0.151565,-0.216493 -0.137067,-0.396263 0.03328,-0.406755 0.517955,-0.750556 1.058977,-0.750556 0.308401,2.8e-4 0.591431,0.112968 0.756505,0.301831 l 3e-6,0 z"/><path id="path9019" fill="#f0f0f0" fill-opacity="1" d="m 8.456482,13.370357 c 0.0708,0.248957 0.526108,0.385035 1.016329,0.302486 0.489999,-0.08251 0.82617,-0.351869 0.750696,-0.600038 -0.07503,-0.246865 -0.52959,-0.379851 -1.014908,-0.298127 -0.485522,0.08188 -0.82224,0.347988 -0.752117,0.595679 z"/><path id="path9021" fill="url(#radialGradient2959)" fill-opacity="1" d="m 8.743523,13.138549 c -0.03937,0.03974 -0.08193,0.09994 -0.07039,0.168502 8.29e-4,0.0049 0.0021,0.0098 0.0034,0.0149 0.04883,0.171572 0.401926,0.264011 0.770928,0.201874 0.210127,-0.03538 0.394047,-0.116169 0.491757,-0.216312 0.04206,-0.0428 0.08696,-0.109523 0.06426,-0.184484 -0.0517,-0.169557 -0.404147,-0.260879 -0.770031,-0.199267 -0.208546,0.03524 -0.391868,0.115496 -0.489951,0.214782 l -2e-6,1e-6 z"/><path id="path9025" fill="#e1e1e1" fill-opacity="1" d="m 36.755204,13.085116 c -0.01101,0.258593 0.37848,0.530843 0.869811,0.606508 0.491108,0.07563 0.894887,-0.07446 0.901213,-0.333771 0.0063,-0.257936 -0.383413,-0.527015 -0.869831,-0.601923 -0.486659,-0.07482 -0.889937,0.07201 -0.901193,0.329186 z"/><path id="path9027" fill="url(#radialGradient2953)" fill-opacity="1" d="m 37.100544,12.955239 c -0.04986,0.02535 -0.109185,0.06913 -0.119768,0.137852 -7.6e-4,0.0049 -0.0011,0.0099 -0.0014,0.01523 -0.0076,0.178225 0.298614,0.37693 0.668452,0.433884 0.210602,0.03243 0.410591,0.01353 0.534819,-0.05084 0.05338,-0.02741 0.116973,-0.07665 0.118971,-0.15495 0.0042,-0.177212 -0.301707,-0.374653 -0.668419,-0.431126 -0.209057,-0.03207 -0.408312,-0.01348 -0.532624,0.04996 l -2e-6,-1e-6 z"/><path id="rect8993" fill="url(#linearGradient2908)" fill-opacity="1" fill-rule="evenodd" stroke="none" stroke-width="2.409" d="m 7.342947,39.388553 18.500009,0 0,5.000001 -18,0 -0.500009,-5.000001 z" display="inline" overflow="visible" visibility="visible" style="marker:none"/><path id="path8995" fill="url(#linearGradient2905)" fill-opacity="1" fill-rule="evenodd" stroke="none" d="m 7.842955,44.38855 c 0,0 -0.400008,-3.605827 -0.400008,-3.605827 1.874581,2.857731 8.873019,3.605827 13.612771,3.605827 0,0 -13.212763,0 -13.212763,0 z" opacity=".811"/><path id="path9039" fill="url(#radialGradient2902)" fill-opacity="1" fill-rule="nonzero" stroke="none" stroke-width="1" d="m 10.749526,13.388553 -0.103274,0.381009 -1.54175,5.670889 -0.261555,0.948102 0.763997,-0.203795 12.994774,-3.544305 0.04127,-0.01771 0.03442,-0.01771 c 0.688135,-0.354354 1.05583,-1.07045 1.142548,-1.727849 0.0434,-0.328702 0.03039,-0.650575 -0.08254,-0.948099 C 23.630774,13.648209 23.35314,13.398308 23.0629,13.406298 l 0,-0.01771 -0.04821,0 -11.955461,0 -0.30973,0 3.3e-5,10e-7 z m 0.439836,0.350376 11.976544,0 c 0.0056,0.04787 0.01906,0.07443 0.0067,0.165 -0.03757,0.285021 -0.199195,1.304699 -0.605242,1.527141 l -12.596058,3.437485 1.217592,-5.129624 3.91e-4,0 z" display="inline" enable-background="accumulate" overflow="visible" visibility="visible" style="marker:none"/><path id="path9091" fill="#e1e1e1" fill-opacity="1" d="m 41.845089,37.007838 c 0.04152,0.595269 0.663261,1.080716 1.388137,1.080716 0.724546,0 1.273145,-0.485447 1.22471,-1.080716 -0.04811,-0.592121 -0.669522,-1.070225 -1.387148,-1.070225 -0.717957,2.81e-4 -1.266555,0.478104 -1.225699,1.070225 z"/><path id="path9093" fill="url(#radialGradient2947)" fill-opacity="1" d="m 42.313953,36.589191 c -0.06623,0.07554 -0.142011,0.196558 -0.142011,0.357441 0,0.01155 6.6e-4,0.02308 0.0013,0.03533 0.02867,0.410252 0.514002,0.756851 1.059636,0.756851 0.310708,0 0.594727,-0.113668 0.759471,-0.304629 0.07084,-0.08149 0.151565,-0.216493 0.137068,-0.396263 -0.03328,-0.406755 -0.517956,-0.750556 -1.058978,-0.750556 -0.308401,2.8e-4 -0.591431,0.112968 -0.756505,0.301831 l -2e-6,0 z"/><rect id="rect6300-3" width="42" height="5" x="2.843" y="39.389" fill="url(#radialGradient2896)" fill-opacity="1" stroke="none" opacity=".3"/><path id="path4348" fill="url(#linearGradient3390)" fill-opacity="1" fill-rule="nonzero" stroke="#548820" stroke-dasharray="none" stroke-dashoffset="0" stroke-linecap="round" stroke-linejoin="round" stroke-miterlimit="4" stroke-opacity="1" stroke-width=".98" d="M 37.509771,13.5 23.966059,28.509772 10.490228,13.5 16.5,13.5 l 0,-13.009772 15,0 0,13.009772 6.009771,0 z" display="inline" overflow="visible" visibility="visible" style="marker:none"/><path id="path4360" fill="none" stroke="url(#linearGradient2901)" stroke-dasharray="none" stroke-dashoffset="0" stroke-linecap="butt" stroke-linejoin="miter" stroke-miterlimit="4" stroke-opacity="1" stroke-width=".98" d="M 35.205341,14.5 24,27 12.632926,14.5 17.5,14.5 l 0,-13.0000004 13,0 0,13.0000004 4.705341,0 z" display="inline" opacity=".354" overflow="visible" visibility="visible" style="marker:none"/></svg>