<svg xmlns="http://www.w3.org/2000/svg" xmlns:svg="http://www.w3.org/2000/svg" xmlns:xlink="http://www.w3.org/1999/xlink" id="svg5555" width="48" height="48" version="1.0"><defs id="defs5557"><linearGradient id="linearGradient3425"><stop id="stop3427" offset="0" stop-color="#eee" stop-opacity="1"/><stop id="stop3429" offset="1" stop-color="#eeeeec" stop-opacity="0"/></linearGradient><linearGradient id="linearGradient7101"><stop id="stop7103" offset="0" stop-color="#000" stop-opacity="1"/><stop id="stop7105" offset="1" stop-color="#000" stop-opacity="0"/></linearGradient><linearGradient id="linearGradient3566" x1="79.25" x2="83.625" y1="15.75" y2="14.781" gradientUnits="userSpaceOnUse" xlink:href="#linearGradient7101"/><linearGradient id="linearGradient7065"><stop id="stop7067" offset="0" stop-color="#fff" stop-opacity="1"/><stop id="stop7069" offset="1" stop-color="#fff" stop-opacity="0"/></linearGradient><linearGradient id="linearGradient3549" x1="78.5" x2="83.031" y1="16.406" y2="16.438" gradientTransform="matrix(1.7881959,0,0,1.9336095,-124.28795,-14.379954)" gradientUnits="userSpaceOnUse" xlink:href="#linearGradient7065"/><linearGradient id="linearGradient3747"><stop id="stop3749" offset="0" stop-color="#494949" stop-opacity="1"/><stop id="stop3751" offset="1" stop-color="#888a85" stop-opacity="0"/></linearGradient><linearGradient id="linearGradient3554" x1="78.313" x2="83.203" y1="12.313" y2="12.093" gradientTransform="matrix(1.6399715,0,0,1.7710483,-112.55969,-11.636734)" gradientUnits="userSpaceOnUse" xlink:href="#linearGradient3747"/><linearGradient id="linearGradient7089"><stop id="stop7091" offset="0" stop-color="#eeeeec" stop-opacity="1"/><stop id="stop7093" offset="1" stop-color="#eeeeec" stop-opacity="0"/></linearGradient><linearGradient id="linearGradient3552" x1="80.625" x2="83.219" y1="14.063" y2="13.875" gradientTransform="matrix(1.6399715,0,0,1.7710483,-112.55969,-11.636734)" gradientUnits="userSpaceOnUse" xlink:href="#linearGradient3425"/><linearGradient id="linearGradient3227"><stop id="stop3229" offset="0" stop-color="#4d4d4d" stop-opacity="1"/><stop id="stop3231" offset="1" stop-color="#333" stop-opacity="1"/></linearGradient><linearGradient id="linearGradient8838"><stop id="stop8840" offset="0" stop-color="#000" stop-opacity="1"/><stop id="stop8842" offset="1" stop-color="#000" stop-opacity="0"/></linearGradient><linearGradient id="linearGradient3334-995-903-143-677-209-356-728"><stop id="stop5026" offset="0" stop-color="gray" stop-opacity="1"/><stop id="stop5028" offset=".873" stop-color="#6d6d6d" stop-opacity="1"/><stop id="stop5030" offset="1" stop-color="#4f5053" stop-opacity="1"/></linearGradient><linearGradient id="linearGradient2480"><stop id="stop2482" offset="0" stop-color="#636467" stop-opacity="1"/><stop id="stop2484" offset="1" stop-color="#4a4a4a" stop-opacity="1"/></linearGradient><linearGradient id="linearGradient3268"><stop id="stop3270" offset="0" stop-color="#fff" stop-opacity="1"/><stop id="stop3272" offset="1" stop-color="#d8d8d8" stop-opacity="1"/></linearGradient><linearGradient id="linearGradient3996"><stop id="stop3998" offset="0" stop-color="#fff" stop-opacity="1"/><stop id="stop4000" offset="1" stop-color="#fff" stop-opacity="0"/></linearGradient><linearGradient id="linearGradient3708"><stop id="stop3710" offset="0" stop-color="#000" stop-opacity="1"/><stop id="stop3712" offset="1" stop-color="#000" stop-opacity="1"/></linearGradient><linearGradient id="linearGradient3301"><stop id="stop3303" offset="0" stop-color="#fff" stop-opacity="0"/><stop id="stop3309" offset=".7" stop-color="#fff" stop-opacity="0"/><stop id="stop3305" offset="1" stop-color="#000" stop-opacity="1"/></linearGradient><radialGradient id="radialGradient3199" cx="24" cy="24" r="17" fx="24" fy="24" gradientUnits="userSpaceOnUse" xlink:href="#linearGradient3301"/><linearGradient id="linearGradient3201" x1="29.05" x2="29.05" y1="7.028" y2="26.494" gradientTransform="matrix(1,0,0,-1,1e-6,47.999998)" gradientUnits="userSpaceOnUse" xlink:href="#linearGradient3708"/><linearGradient id="linearGradient3212" x1="24.398" x2="24.398" y1="3.602" y2="26.091" gradientTransform="translate(-0.3976755,0.3981273)" gradientUnits="userSpaceOnUse" xlink:href="#linearGradient3996"/><radialGradient id="radialGradient3215" cx="27.412" cy="12.08" r="18" fx="27.412" fy="12.08" gradientTransform="matrix(1.7637903e-8,1.7731075,-2.6591116,2.6451386e-8,59.480381,-17.99927)" gradientUnits="userSpaceOnUse" xlink:href="#linearGradient3268"/><linearGradient id="linearGradient3217" x1="29.05" x2="29.05" y1="7.028" y2="40.32" gradientTransform="matrix(1.0606061,0,0,1.060606,-1.4545467,-1.4545435)" gradientUnits="userSpaceOnUse" xlink:href="#linearGradient2480"/><radialGradient id="radialGradient3220" cx="24.012" cy="24.003" r="21" fx="24.012" fy="24.003" gradientTransform="matrix(0.9532054,0,0,0.9532054,1.1236313,1.1232247)" gradientUnits="userSpaceOnUse" xlink:href="#linearGradient3334-995-903-143-677-209-356-728"/><linearGradient id="linearGradient3222" x1="7.554" x2="7.554" y1="3" y2="45.184" gradientUnits="userSpaceOnUse" xlink:href="#linearGradient3227"/><radialGradient id="radialGradient3225" cx="62.625" cy="4.625" r="10.625" fx="62.625" fy="4.625" gradientTransform="matrix(2.1647059,0,0,0.7529402,-111.56471,36.517647)" gradientUnits="userSpaceOnUse" xlink:href="#linearGradient8838"/><filter id="filter3403"><feGaussianBlur id="feGaussianBlur3405" stdDeviation=".412"/></filter><linearGradient id="linearGradient3409" x1="80.625" x2="83.219" y1="14.063" y2="13.875" gradientTransform="matrix(1.6399715,0,0,1.7710483,-112.55969,-11.636734)" gradientUnits="userSpaceOnUse" xlink:href="#linearGradient7089"/><linearGradient id="linearGradient3411" x1="78.313" x2="83.203" y1="12.313" y2="12.093" gradientTransform="matrix(1.6399715,0,0,1.7710483,-112.55969,-11.636734)" gradientUnits="userSpaceOnUse" xlink:href="#linearGradient3747"/><linearGradient id="linearGradient3417" x1="78.313" x2="83.203" y1="12.313" y2="12.093" gradientTransform="matrix(1.6399715,0,0,1.7710483,-112.55969,-11.636734)" gradientUnits="userSpaceOnUse" xlink:href="#linearGradient3996"/></defs><path id="path8836" fill="url(#radialGradient3225)" fill-opacity="1" fill-rule="evenodd" stroke="none" stroke-width="1" d="M 46.999997,40 C 46.999997,44.418278 36.702545,48 23.999997,48 C 11.297449,48 0.9999968,44.418278 0.9999968,40 C 0.9999968,35.581722 11.297449,32 23.999997,32 C 36.702545,32 46.999997,35.581722 46.999997,40 L 46.999997,40 z" display="inline" opacity=".3" overflow="visible" visibility="visible" style="marker:none"/><path id="path6495" fill="url(#radialGradient3220)" fill-opacity="1" fill-rule="nonzero" stroke="url(#linearGradient3222)" stroke-dasharray="none" stroke-miterlimit="4" stroke-opacity="1" stroke-width="1" d="M 44.5,23.999273 C 44.5,35.321475 35.32116,44.5 24.000257,44.5 C 12.678317,44.5 3.5,35.321371 3.5,23.999273 C 3.5,12.67759 12.678317,3.499998 24.000257,3.499998 C 35.32116,3.499998 44.5,12.67759 44.5,23.999273 L 44.5,23.999273 z"/><path id="path3215" fill="url(#radialGradient3215)" fill-opacity="1" fill-rule="nonzero" stroke="url(#linearGradient3217)" stroke-dasharray="none" stroke-miterlimit="4" stroke-width="1" d="M 41.500001,23.999379 C 41.500001,33.664672 33.664405,41.499998 24.000221,41.499998 C 14.335149,41.499998 6.4999987,33.664583 6.4999987,23.999379 C 6.4999987,14.334528 14.335149,6.4999998 24.000221,6.4999998 C 33.664405,6.4999998 41.500001,14.334528 41.500001,23.999379 L 41.500001,23.999379 L 41.500001,23.999379 L 41.500001,23.999379 z"/><path id="path3222" fill="none" stroke="url(#linearGradient3212)" stroke-dasharray="none" stroke-miterlimit="4" stroke-opacity="1" stroke-width="1" d="M 43.5,23.999308 C 43.5,34.769206 34.768909,43.499998 24.000245,43.499998 C 13.230594,43.499998 4.4999995,34.769107 4.4999995,23.999308 C 4.4999995,13.229904 13.230594,4.4999996 24.000245,4.4999996 C 34.768909,4.4999996 43.5,13.229904 43.5,23.999308 L 43.5,23.999308 z" opacity=".4"/><path id="path2296" fill="none" fill-opacity="1" fill-rule="evenodd" stroke="#000" stroke-dasharray="none" stroke-linecap="round" stroke-linejoin="miter" stroke-miterlimit="4" stroke-opacity="1" stroke-width=".926" d="M 35.02168,24.537057 C 37.788003,24.537057 38.138273,24.45747 38.138273,24.45747" opacity=".3"/><path id="path2306" fill="none" fill-opacity="1" fill-rule="evenodd" stroke="#000" stroke-dasharray="none" stroke-linecap="round" stroke-linejoin="miter" stroke-miterlimit="4" stroke-opacity="1" stroke-width=".926" d="M 23.542531,38.03347 C 23.542531,35.26715 23.462943,34.91688 23.462943,34.91688" opacity=".3"/><path id="path2308" fill="none" fill-opacity="1" fill-rule="evenodd" stroke="#000" stroke-dasharray="none" stroke-linecap="round" stroke-linejoin="miter" stroke-miterlimit="4" stroke-opacity="1" stroke-width=".926" d="M 23.542531,13.08316 C 23.542531,10.316802 23.462943,9.9665285 23.462943,9.9665285" opacity=".3"/><g id="g2318" stroke-dasharray="none" stroke-linecap="round" stroke-miterlimit="4" stroke-width="1.615" transform="matrix(0.5733387,0,0,0.5733387,10.842297,11.895428)"><path id="path2312" fill="none" fill-rule="evenodd" stroke="#000" stroke-dasharray="none" stroke-linecap="round" stroke-linejoin="miter" stroke-miterlimit="4" stroke-opacity="1" stroke-width="1.615" d="M 21.168246,23.652869 L 40.199004,4.6221125"/><path id="path2314" fill="none" fill-rule="evenodd" stroke="#000" stroke-dasharray="none" stroke-linecap="round" stroke-linejoin="miter" stroke-miterlimit="4" stroke-opacity="1" stroke-width="1.615" d="M 24.25811,23.793317 L 11.547531,11.082739"/><path id="path2316" fill="red" fill-rule="evenodd" stroke="red" stroke-dasharray="none" stroke-linecap="round" stroke-linejoin="miter" stroke-miterlimit="4" stroke-opacity="1" stroke-width="1.615" d="M 21.589592,22.66973 L 43.260774,16.862955"/></g><path id="path3215-4" fill="url(#radialGradient3199)" fill-opacity="1" stroke="url(#linearGradient3201)" stroke-dasharray="none" stroke-miterlimit="4" stroke-width="1" d="M 40.5,24.000585 C 40.5,14.887594 33.112152,7.4999999 24.000208,7.4999999 C 14.887427,7.4999999 7.5,14.887677 7.5,24.000585 C 7.5,33.113159 14.887427,40.5 24.000208,40.5 C 33.112152,40.5 40.5,33.113159 40.5,24.000585 L 40.5,24.000585 z" opacity=".2"/><path id="path7099" fill="url(#linearGradient3566)" fill-opacity="1" fill-rule="evenodd" stroke="none" stroke-dasharray="none" stroke-dashoffset=".7" stroke-linecap="round" stroke-linejoin="round" stroke-miterlimit="10" stroke-opacity="1" stroke-width=".587" d="M 85,9.96875 C 80.686562,9.96875 76.855621,11.957361 74.28125,15.03125 L 71.875,12.625 C 71.735656,12.480659 71.526888,12.42712 71.335276,12.486585 C 71.143665,12.546051 71.001891,12.708379 70.96875,12.90625 L 68.96875,23.40625 C 68.934004,23.580378 68.988539,23.760353 69.114093,23.885907 C 69.239647,24.011461 69.419622,24.065996 69.59375,24.03125 L 80.09375,22.03125 C 80.291621,21.998109 80.453949,21.856335 80.513415,21.664724 C 80.57288,21.473112 80.519341,21.264344 80.375,21.125 L 77.875,18.625 C 79.509966,16.462524 82.078208,15.03125 85,15.03125 C 85.061007,15.03125 85.66768,15.024538 86.25,15.03125 C 86.83232,15.037962 87.481192,15.063152 87.46875,15.0625 C 87.614974,15.071101 87.758262,15.018952 87.864753,14.918378 C 87.971243,14.817804 88.031488,14.677727 88.03125,14.53125 L 88.03125,10.53125 C 88.031711,10.249642 87.812369,10.016591 87.53125,10 C 87.247954,9.9895391 85.221832,9.96875 85,9.96875 z" filter="url(#filter3403)" opacity=".15" transform="matrix(1.6399715,0,0,1.7710483,-112.55969,-10.578712)"/><path id="path7007" fill="url(#linearGradient3552)" fill-opacity="1" fill-rule="evenodd" stroke="url(#linearGradient3554)" stroke-dasharray="none" stroke-dashoffset=".7" stroke-linecap="round" stroke-linejoin="round" stroke-miterlimit="10" stroke-opacity="1" stroke-width="1" d="M 26.837891,6.9592735 C 19.685841,6.9592735 13.470348,9.3748107 9.2594411,16.312622 L 4.6982711,11.386894 L 1.4183311,29.982901 L 18.638031,26.440804 L 13.974361,21.404386 C 16.774781,16.967483 21.491141,12.272418 26.837891,12.272418 C 27.115271,12.272418 30.663991,12.312275 30.937821,12.327763 L 30.937821,7.0146185 C 30.662321,7.0036325 27.115861,6.9592735 26.837891,6.9592735 z"/><path id="path3413" fill="none" fill-opacity="1" fill-rule="evenodd" stroke="url(#linearGradient3417)" stroke-dasharray="none" stroke-dashoffset=".7" stroke-linecap="round" stroke-linejoin="miter" stroke-miterlimit="10" stroke-opacity="1" stroke-width="1" d="M 26.84375,8.125 C 19.948814,8.1250002 14.230382,10.296761 10.21875,16.90625 C 10.032194,17.210972 9.7142496,17.411311 9.3588527,17.448076 C 9.0034558,17.484841 8.6512335,17.35383 8.40625,17.09375 L 5.40625,13.84375 L 2.8125,28.5 L 16.40625,25.71875 L 13.125,22.1875 C 12.765473,21.803017 12.713926,21.22312 13,20.78125 C 15.916725,16.160076 20.82684,11.125 26.84375,11.125 C 27.004156,11.125 27.950161,11.150364 28.90625,11.15625 C 29.224946,11.158212 29.492371,11.153927 29.78125,11.15625 L 29.78125,8.125 C 29.414375,8.1212248 29.300152,8.1278689 28.875,8.125 C 27.921848,8.1185682 26.954876,8.125 26.84375,8.125 z" opacity="1"/></svg>