<svg xmlns="http://www.w3.org/2000/svg" xmlns:svg="http://www.w3.org/2000/svg" xmlns:xlink="http://www.w3.org/1999/xlink" id="svg3508" width="48" height="48" version="1.0"><defs id="defs3510"><linearGradient id="linearGradient5048"><stop id="stop5050" offset="0" stop-color="#000" stop-opacity="0"/><stop id="stop5056" offset=".5" stop-color="#000" stop-opacity="1"/><stop id="stop5052" offset="1" stop-color="#000" stop-opacity="0"/></linearGradient><linearGradient id="linearGradient2721" x1="302.857" x2="302.857" y1="366.648" y2="609.505" gradientTransform="matrix(6.7324884e-2,0,0,1.4700216e-2,-0.3411391,37.040146)" gradientUnits="userSpaceOnUse" xlink:href="#linearGradient5048"/><radialGradient id="radialGradient2718" cx="605.714" cy="486.648" r="117.143" fx="605.714" fy="486.648" gradientTransform="matrix(-2.3039943e-2,0,0,1.4700216e-2,21.62311,37.040176)" gradientUnits="userSpaceOnUse" xlink:href="#linearGradient5060"/><linearGradient id="linearGradient5060"><stop id="stop5062" offset="0" stop-color="#000" stop-opacity="1"/><stop id="stop5064" offset="1" stop-color="#000" stop-opacity="0"/></linearGradient><radialGradient id="radialGradient2715" cx="605.714" cy="486.648" r="117.143" fx="605.714" fy="486.648" gradientTransform="matrix(2.3039948e-2,0,0,1.4700216e-2,26.360882,37.040176)" gradientUnits="userSpaceOnUse" xlink:href="#linearGradient5060"/><linearGradient id="linearGradient2712" x1="-51.786" x2="-51.786" y1="50.786" y2="2.906" gradientTransform="matrix(0.8074968,0,0,0.8948322,59.410232,-2.9805533)" gradientUnits="userSpaceOnUse" xlink:href="#linearGradient3104"/><linearGradient id="linearGradient3600"><stop id="stop3602" offset="0" stop-color="#f4f4f4" stop-opacity="1"/><stop id="stop3604" offset="1" stop-color="#dbdbdb" stop-opacity="1"/></linearGradient><linearGradient id="linearGradient2710" x1="25.132" x2="25.132" y1=".985" y2="47.013" gradientTransform="matrix(1,0,0,0.9561695,-1.0064697e-7,-1.914922)" gradientUnits="userSpaceOnUse" xlink:href="#linearGradient3600"/><radialGradient id="XMLID_8_" cx="102" cy="112.305" r="139.559" gradientUnits="userSpaceOnUse"><stop id="stop41" offset="0" stop-color="#b7b8b9" stop-opacity="1"/><stop id="stop47" offset=".189" stop-color="#ececec" stop-opacity="1"/><stop id="stop49" offset=".257" stop-color="#fafafa" stop-opacity="0"/><stop id="stop51" offset=".301" stop-color="#fff" stop-opacity="0"/><stop id="stop53" offset=".531" stop-color="#fafafa" stop-opacity="0"/><stop id="stop55" offset=".845" stop-color="#ebecec" stop-opacity="0"/><stop id="stop57" offset="1" stop-color="#e1e2e3" stop-opacity="0"/></radialGradient><radialGradient id="radialGradient2707" cx="102" cy="112.305" r="139.559" gradientTransform="matrix(0.3617022,0,0,-0.3907784,0.8510637,47.517004)" gradientUnits="userSpaceOnUse" xlink:href="#XMLID_8_"/><linearGradient id="linearGradient3211"><stop id="stop3213" offset="0" stop-color="#fff" stop-opacity="1"/><stop id="stop3215" offset="1" stop-color="#fff" stop-opacity="0"/></linearGradient><linearGradient id="linearGradient2704" x1="24" x2="24" y1="2" y2="46.017" gradientTransform="matrix(1,0,0,0.9777778,0,-0.9666693)" gradientUnits="userSpaceOnUse" xlink:href="#linearGradient3211"/><linearGradient id="linearGradient3104"><stop id="stop3106" offset="0" stop-color="#aaa" stop-opacity="1"/><stop id="stop3108" offset="1" stop-color="#c8c8c8" stop-opacity="1"/></linearGradient><linearGradient id="linearGradient2701" x1="22.004" x2="22.004" y1="47.813" y2="3.364" gradientTransform="translate(-1.982096,-3.0470736)" gradientUnits="userSpaceOnUse" xlink:href="#linearGradient3104"/><filter id="filter3248" width="1.297" height="1.329" x="-.148" y="-.164"><feGaussianBlur id="feGaussianBlur3250" stdDeviation=".774"/></filter><linearGradient id="linearGradient8589"><stop id="stop8591" offset="0" stop-color="#fefefe" stop-opacity="1"/><stop id="stop8593" offset="1" stop-color="#cbcbcb" stop-opacity="1"/></linearGradient><linearGradient id="linearGradient2697" x1="32.892" x2="36.358" y1="8.059" y2="5.457" gradientTransform="matrix(0.9976985,0,0,1.0406866,0.1638029,-1.1057939)" gradientUnits="userSpaceOnUse" xlink:href="#linearGradient8589"/></defs><g id="layer1"><rect id="rect2879" width="32.508" height="3.57" x="7.738" y="42.43" fill="url(#linearGradient2721)" fill-opacity="1" fill-rule="nonzero" stroke="none" stroke-dasharray="none" stroke-dashoffset="0" stroke-linecap="round" stroke-linejoin="miter" stroke-miterlimit="4" stroke-opacity="1" stroke-width="1" marker-end="none" marker-mid="none" marker-start="none" display="inline" opacity=".3" overflow="visible" visibility="visible" style="marker:none"/><path id="path2881" fill="url(#radialGradient2718)" fill-opacity="1" fill-rule="nonzero" stroke="none" stroke-dasharray="none" stroke-dashoffset="0" stroke-linecap="round" stroke-linejoin="miter" stroke-miterlimit="4" stroke-opacity="1" stroke-width="1" marker-end="none" marker-mid="none" marker-start="none" d="M 7.7378475,42.430102 C 7.7378475,42.430102 7.7378475,45.999958 7.7378475,45.999958 C 6.5513473,46.006679 4.869468,45.200135 4.869468,44.2148 C 4.869468,43.229467 6.1935126,42.430103 7.7378475,42.430102 z" display="inline" opacity=".3" overflow="visible" visibility="visible" style="marker:none"/><path id="path2883" fill="url(#radialGradient2715)" fill-opacity="1" fill-rule="nonzero" stroke="none" stroke-dasharray="none" stroke-dashoffset="0" stroke-linecap="round" stroke-linejoin="miter" stroke-miterlimit="4" stroke-opacity="1" stroke-width="1" marker-end="none" marker-mid="none" marker-start="none" d="M 40.246148,42.430102 C 40.246148,42.430102 40.246148,45.999958 40.246148,45.999958 C 41.432648,46.006679 43.114528,45.200135 43.114528,44.2148 C 43.114528,43.229467 41.790483,42.430103 40.246148,42.430102 z" display="inline" opacity=".3" overflow="visible" visibility="visible" style="marker:none"/><path id="path4160" fill="url(#linearGradient2710)" fill-opacity="1" stroke="url(#linearGradient2712)" stroke-dasharray="none" stroke-dashoffset="0" stroke-linecap="butt" stroke-linejoin="round" stroke-miterlimit="4" stroke-opacity="1" stroke-width="1" d="M 6.4999609,0.49719878 C 14.520256,0.49719878 22.540551,0.49719878 30.560847,0.49719878 C 31.96778,0.97185188 39.526301,6.3794034 41.500042,10.123605 C 41.500042,21.583338 41.500042,33.04307 41.500042,44.502803 C 29.833348,44.502803 18.166655,44.502803 6.4999609,44.502803 C 6.4999609,29.834268 6.4999609,15.165733 6.4999609,0.49719878 z" display="inline"/><path id="path4191" fill="url(#radialGradient2707)" fill-opacity="1" d="M 7.3617017,44 C 7.1624047,44 6.9999997,43.824541 6.9999997,43.60922 L 6.9999997,1.4051701 C 6.9999997,1.1894613 7.1624047,1.0143926 7.3617017,1.0143926 C 14.844793,1.1224073 23.137385,0.85281757 30.611384,1.0412872 L 40.894021,9.9073127 L 41,43.60922 C 41,43.824541 40.837957,44 40.638297,44 L 7.3617017,44 z"/><path id="path2435" fill="none" fill-opacity="1" stroke="url(#linearGradient2704)" stroke-dasharray="none" stroke-dashoffset="0" stroke-linecap="butt" stroke-linejoin="round" stroke-miterlimit="4" stroke-opacity="1" stroke-width="1" d="M 40.500039,10.258811 C 40.500039,21.207848 40.500039,32.573221 40.500039,43.522258 C 29.500013,43.522258 18.499987,43.522258 7.4999609,43.522258 C 7.4999609,29.507417 7.4999609,15.492577 7.4999609,1.4777367 C 15.061954,1.4777367 22.804295,1.4777367 30.366289,1.4777367" display="inline" opacity=".6"/><path id="path3475" fill="none" fill-rule="evenodd" stroke="url(#linearGradient2701)" stroke-linecap="butt" stroke-linejoin="miter" stroke-opacity="1" stroke-width="1" d="M 11,8.5 L 13.34375,8.5 L 11,8.5 z M 13.6875,8.5 L 15.875,8.5 L 13.6875,8.5 z M 16.21875,8.5 L 18.15625,8.5 L 16.21875,8.5 z M 18.46875,8.5 L 19.3125,8.5 L 18.46875,8.5 z M 19.65625,8.5 L 21.53125,8.5 L 19.65625,8.5 z M 21.90625,8.5 L 26.84375,8.5 L 21.90625,8.5 z M 27.15625,8.5 L 30.9375,8.5 L 27.15625,8.5 z M 31.25,8.5 L 32.40625,8.5 L 31.25,8.5 z M 11,10.5 L 14.65625,10.5 L 11,10.5 z M 15.0625,10.5 L 16.8125,10.5 L 15.0625,10.5 z M 17.125,10.5 L 18,10.5 L 17.125,10.5 z M 18.34375,10.5 L 19.9375,10.5 L 18.34375,10.5 z M 20.28125,10.5 L 21.90625,10.5 L 20.28125,10.5 z M 22.21875,10.5 L 24.8125,10.5 L 22.21875,10.5 z M 25.15625,10.5 L 28.53125,10.5 L 25.15625,10.5 z M 28.84375,10.5 L 31.09375,10.5 L 28.84375,10.5 z M 31.40625,10.5 L 31.96875,10.5 L 31.40625,10.5 z M 11,12.46875 L 14.09375,12.46875 L 11,12.46875 z M 14.40625,12.46875 L 19.46875,12.46875 L 14.40625,12.46875 z M 19.78125,12.46875 L 22.25,12.46875 L 19.78125,12.46875 z M 22.5625,12.46875 L 24.875,12.46875 L 22.5625,12.46875 z M 25.1875,12.46875 L 27.15625,12.46875 L 25.1875,12.46875 z M 27.46875,12.46875 L 30.5625,12.5 L 27.46875,12.46875 z M 30.84375,12.5 L 35.875,12.5 L 30.84375,12.5 z M 11,14.5 L 15.28125,14.5 L 11,14.5 z M 15.625,14.5 L 20.25,14.5 L 15.625,14.5 z M 20.5625,14.5 L 22.40625,14.5 L 20.5625,14.5 z M 22.71875,14.5 L 27.0625,14.5 L 22.71875,14.5 z M 27.34375,14.5 L 30.3125,14.5 L 27.34375,14.5 z M 30.65625,14.5 L 31.84375,14.5 L 30.65625,14.5 z M 32.15625,14.5 L 32.8125,14.5 L 32.15625,14.5 z M 33.15625,14.5 L 35,14.5 L 33.15625,14.5 z M 11,16.5 L 12.59375,16.5 L 11,16.5 z M 13.09375,16.5 L 19,16.5 L 13.09375,16.5 z M 11,20.46875 L 14.09375,20.46875 L 11,20.46875 z M 14.40625,20.46875 L 19.46875,20.46875 L 14.40625,20.46875 z M 19.78125,20.46875 L 22.25,20.46875 L 19.78125,20.46875 z M 22.5625,20.46875 L 24.875,20.46875 L 22.5625,20.46875 z M 25.1875,20.46875 L 27.15625,20.46875 L 25.1875,20.46875 z M 27.46875,20.46875 L 30.5625,20.5 L 27.46875,20.46875 z M 30.84375,20.5 L 35.875,20.5 L 30.84375,20.5 z M 11,22.5 L 13.34375,22.5 L 11,22.5 z M 13.6875,22.5 L 15.84375,22.5 L 13.6875,22.5 z M 16.21875,22.5 L 18.15625,22.5 L 16.21875,22.5 z M 18.46875,22.5 L 19.3125,22.5 L 18.46875,22.5 z M 19.65625,22.5 L 21.53125,22.5 L 19.65625,22.5 z M 21.90625,22.5 L 26.8125,22.5 L 21.90625,22.5 z M 27.15625,22.5 L 30.90625,22.5 L 27.15625,22.5 z M 31.21875,22.5 L 32.40625,22.5 L 31.21875,22.5 z M 32.71875,22.5 L 35.53125,22.5 L 32.71875,22.5 z M 11,24.5 L 14.9375,24.5 L 11,24.5 z M 15.25,24.5 L 19.46875,24.5 L 15.25,24.5 z M 19.78125,24.5 L 21.40625,24.5 L 19.78125,24.5 z M 21.71875,24.5 L 25.6875,24.5 L 21.71875,24.5 z M 26,24.5 L 31,24.5 L 26,24.5 z M 31.34375,24.5 L 33.1875,24.5 L 31.34375,24.5 z M 11,26.5 L 15.28125,26.5 L 11,26.5 z M 15.625,26.5 L 20.25,26.5 L 15.625,26.5 z M 20.5625,26.5 L 22.40625,26.5 L 20.5625,26.5 z M 22.71875,26.5 L 27.0625,26.5 L 22.71875,26.5 z M 27.34375,26.5 L 30.3125,26.5 L 27.34375,26.5 z M 30.65625,26.5 L 31.84375,26.5 L 30.65625,26.5 z M 32.15625,26.5 L 32.8125,26.5 L 32.15625,26.5 z M 33.15625,26.5 L 35,26.5 L 33.15625,26.5 z M 11,28.5 L 14.65625,28.5 L 11,28.5 z M 15.0625,28.5 L 16.8125,28.5 L 15.0625,28.5 z M 17.125,28.5 L 18,28.5 L 17.125,28.5 z M 18.34375,28.5 L 19.9375,28.5 L 18.34375,28.5 z M 20.28125,28.5 L 21.90625,28.5 L 20.28125,28.5 z M 22.21875,28.5 L 24.8125,28.5 L 22.21875,28.5 z M 25.15625,28.5 L 28.53125,28.5 L 25.15625,28.5 z M 28.84375,28.5 L 31.09375,28.5 L 28.84375,28.5 z M 31.40625,28.5 L 31.96875,28.5 L 31.40625,28.5 z M 11,32.46875 L 14.09375,32.46875 L 11,32.46875 z M 14.40625,32.46875 L 19.46875,32.46875 L 14.40625,32.46875 z M 19.78125,32.46875 L 22.25,32.46875 L 19.78125,32.46875 z M 22.5625,32.46875 L 24.875,32.46875 L 22.5625,32.46875 z M 25.1875,32.46875 L 27.15625,32.46875 L 25.1875,32.46875 z M 27.46875,32.46875 L 30.5625,32.5 L 27.46875,32.46875 z M 30.84375,32.5 L 35.875,32.5 L 30.84375,32.5 z M 11,34.5 L 14.65625,34.5 L 11,34.5 z M 15.0625,34.5 L 16.8125,34.5 L 15.0625,34.5 z M 17.125,34.5 L 18,34.5 L 17.125,34.5 z M 18.34375,34.5 L 19.9375,34.5 L 18.34375,34.5 z M 20.28125,34.5 L 21.90625,34.5 L 20.28125,34.5 z M 22.21875,34.5 L 24.8125,34.5 L 22.21875,34.5 z M 25.15625,34.5 L 28.53125,34.5 L 25.15625,34.5 z M 28.84375,34.5 L 31.09375,34.5 L 28.84375,34.5 z M 31.40625,34.5 L 31.96875,34.5 L 31.40625,34.5 z M 11,36.5 L 14.875,36.5 L 11,36.5 z M 15.21875,36.5 L 16.4375,36.5 L 15.21875,36.5 z M 16.75,36.5 L 19.53125,36.5 L 16.75,36.5 z M 19.84375,36.5 L 23.9375,36.5 L 19.84375,36.5 z M 24.28125,36.5 L 27.0625,36.5 L 24.28125,36.5 z M 27.34375,36.5 L 27.9375,36.5 L 27.34375,36.5 z M 28.25,36.5 L 31.78125,36.5 L 28.25,36.5 z M 32.15625,36.5 L 34,36.5 L 32.15625,36.5 z M 11,38.5 L 14.875,38.5 L 11,38.5 z M 15.21875,38.5 L 16.96875,38.5 L 15.21875,38.5 z M 17.28125,38.5 L 20.03125,38.5 L 17.28125,38.5 z M 20.34375,38.5 L 23.3125,38.5 L 20.34375,38.5 z M 23.65625,38.5 L 24.84375,38.5 L 23.65625,38.5 z M 25.15625,38.5 L 25.8125,38.5 L 25.15625,38.5 z M 26.15625,38.5 L 28,38.5 L 26.15625,38.5 z"/><path id="rect2878" fill="#729fcf" fill-opacity="1" stroke="none" stroke-dasharray="none" stroke-dashoffset="0" stroke-linecap="round" stroke-linejoin="miter" stroke-miterlimit="4" stroke-opacity="1" stroke-width="2" d="M 10,7 L 10,37 L 10,38 L 10,40 L 27,40 L 27,38 L 37,38 L 37,7 L 10,7 z" display="inline" opacity=".3"/><path id="rect3782" fill="#fff" fill-opacity="1" stroke="none" stroke-dasharray="none" stroke-dashoffset="0" stroke-linecap="round" stroke-linejoin="miter" stroke-miterlimit="4" stroke-opacity="1" stroke-width="2" d="M 24,35 L 24,38 L 25,38 L 25,39 L 24,39 L 24,42 L 29,42 L 29,39 L 28.03125,39 L 28.03125,38 L 29,38 L 29,35 L 24,35 z" display="inline" opacity="1"/><path id="rect3789" fill="#000" fill-opacity="1" stroke="none" stroke-dasharray="none" stroke-dashoffset="0" stroke-linecap="round" stroke-linejoin="miter" stroke-miterlimit="4" stroke-opacity="1" stroke-width="2" d="M 25,36 L 25,37 L 26,37 L 26,40 L 25,40 L 25,41 L 28,41 L 28,40 L 27,40 L 27,37 L 28,37 L 28,36 L 25,36 z" display="inline" opacity="1"/><path id="path12038" fill="#000" fill-opacity="1" fill-rule="evenodd" stroke="none" stroke-linecap="butt" stroke-linejoin="miter" stroke-opacity="1" stroke-width="1" d="M 28.617256,0.92125832 C 32.899778,0.92125832 30.770506,9.4044296 30.770506,9.4044296 C 30.770506,9.4044296 41.128148,7.6020829 41.128148,12.223174 C 41.128148,9.6134507 29.825844,1.4945784 28.617256,0.92125832 z" display="inline" filter="url(#filter3248)" opacity=".4"/><path id="path4474" fill="url(#linearGradient2697)" fill-opacity="1" fill-rule="evenodd" stroke="none" stroke-linecap="butt" stroke-linejoin="miter" stroke-opacity="1" stroke-width="1" d="M 28.617256,0.92125832 C 31.803749,0.92125832 30.953016,8.5831368 30.953016,8.5831368 C 30.953016,8.5831368 41.128148,7.6020829 41.128148,12.223174 C 41.128148,11.097235 41.214061,10.290929 40.994371,9.9395812 C 39.416058,7.4154025 32.598855,1.7511811 30.137071,1.008793 C 29.952849,0.95323837 29.544367,0.92125832 28.617256,0.92125832 z" display="inline"/></g></svg>