<svg xmlns="http://www.w3.org/2000/svg" xmlns:svg="http://www.w3.org/2000/svg" xmlns:xlink="http://www.w3.org/1999/xlink" id="svg2619" width="48" height="48" version="1.0"><defs id="defs2621"><linearGradient id="linearGradient3497"><stop id="stop3499" offset="0" stop-color="#699536" stop-opacity="1"/><stop id="stop3501" offset="1" stop-color="#587d2d" stop-opacity="1"/></linearGradient><linearGradient id="linearGradient8265-821-176-38-919-66-249"><stop id="stop2687" offset="0" stop-color="#fff" stop-opacity=".2"/><stop id="stop2689" offset="1" stop-color="#fff" stop-opacity="0"/></linearGradient><linearGradient id="linearGradient6087-437-184-795-110-662-495"><stop id="stop2693" offset="0" stop-color="#fff" stop-opacity=".4"/><stop id="stop2695" offset="1" stop-color="#fff" stop-opacity="0"/></linearGradient><linearGradient id="linearGradient6129-963-697-142-998-580-273"><stop id="stop2661" offset="0" stop-color="#0a0a0a" stop-opacity=".498"/><stop id="stop2663" offset="1" stop-color="#0a0a0a" stop-opacity="0"/></linearGradient><linearGradient id="linearGradient3390"><stop id="stop3392" offset="0" stop-color="#425e7b" stop-opacity="1"/><stop id="stop3394" offset="1" stop-color="#7a91a7" stop-opacity="1"/></linearGradient><linearGradient id="linearGradient7012-661-145-733-759-865-745"><stop id="stop2699" offset="0" stop-color="#9cbbd9" stop-opacity="1"/><stop id="stop2701" offset="1" stop-color="#5c82ab" stop-opacity="1"/></linearGradient><linearGradient id="linearGradient5060-820"><stop id="stop2681" offset="0" stop-color="#000" stop-opacity="1"/><stop id="stop2683" offset="1" stop-color="#000" stop-opacity="0"/></linearGradient><radialGradient id="radialGradient7600-312" cx="605.714" cy="486.648" r="117.143" fx="605.714" fy="486.648" gradientTransform="matrix(-3.2129558e-2,0,0,3.7058823e-2,23.363215,25.412461)" gradientUnits="userSpaceOnUse" xlink:href="#linearGradient5060-820"/><linearGradient id="linearGradient5060-179"><stop id="stop2675" offset="0" stop-color="#000" stop-opacity="1"/><stop id="stop2677" offset="1" stop-color="#000" stop-opacity="0"/></linearGradient><radialGradient id="radialGradient7598-526" cx="605.714" cy="486.648" r="117.143" fx="605.714" fy="486.648" gradientTransform="matrix(3.2129565e-2,0,0,3.7058823e-2,24.636785,25.412461)" gradientUnits="userSpaceOnUse" xlink:href="#linearGradient5060-179"/><linearGradient id="linearGradient5048-585"><stop id="stop2667" offset="0" stop-color="#000" stop-opacity="0"/><stop id="stop2669" offset=".5" stop-color="#000" stop-opacity="1"/><stop id="stop2671" offset="1" stop-color="#000" stop-opacity="0"/></linearGradient><linearGradient id="linearGradient7596-975" x1="302.857" x2="302.857" y1="366.648" y2="609.505" gradientTransform="matrix(8.2840237e-2,0,0,3.7058823e-2,-5.9408285,25.412461)" gradientUnits="userSpaceOnUse" xlink:href="#linearGradient5048-585"/><linearGradient id="linearGradient3484"><stop id="stop3486" offset="0" stop-color="#bdbdbd" stop-opacity="1"/><stop id="stop3488" offset="1" stop-color="#d0d0d0" stop-opacity="1"/></linearGradient><linearGradient id="linearGradient6404"><stop id="stop6406" offset="0" stop-color="#f9f9f9" stop-opacity="1"/><stop id="stop6408" offset="1" stop-color="#c9c9c9" stop-opacity="1"/></linearGradient><linearGradient id="linearGradient4222"><stop id="stop4224" offset="0" stop-color="#fff" stop-opacity="1"/><stop id="stop4226" offset="1" stop-color="#fff" stop-opacity="0"/></linearGradient><linearGradient id="linearGradient2264"><stop id="stop2266" offset="0" stop-color="#d7e866" stop-opacity="1"/><stop id="stop2268" offset="1" stop-color="#8cab2a" stop-opacity="1"/></linearGradient><linearGradient id="linearGradient2091"><stop id="stop2093" offset="0" stop-color="#000" stop-opacity="1"/><stop id="stop2095" offset="1" stop-color="#000" stop-opacity="0"/></linearGradient><radialGradient id="radialGradient2613" cx="23.071" cy="35.127" r="10.319" fx="23.071" fy="35.127" gradientTransform="matrix(0.914812,1.265023e-2,-8.21502e-3,0.213562,2.253914,27.18889)" gradientUnits="userSpaceOnUse" xlink:href="#linearGradient2091"/><linearGradient id="linearGradient2698" x1="11.566" x2="15.215" y1="22.292" y2="33.955" gradientUnits="userSpaceOnUse" xlink:href="#linearGradient8265-821-176-38-919-66-249"/><radialGradient id="radialGradient2701" cx="7.265" cy="8.302" r="20.98" fx="7.265" fy="8.302" gradientTransform="matrix(0,1.2079744,-1.6271642,0,26.371748,8.2664685)" gradientUnits="userSpaceOnUse" xlink:href="#linearGradient6087-437-184-795-110-662-495"/><linearGradient id="linearGradient2704" x1="22.935" x2="22.809" y1="49.629" y2="36.658" gradientTransform="matrix(1.1446925,0,0,0.9977536,-3.4661413,1.0988425)" gradientUnits="userSpaceOnUse" xlink:href="#linearGradient6129-963-697-142-998-580-273"/><radialGradient id="radialGradient2707" cx="63.969" cy="14.113" r="23.097" fx="63.969" fy="14.113" gradientTransform="matrix(1.5646925,-9.5143002e-8,6.1772287e-8,1.015888,-86.212573,8.1461173)" gradientUnits="userSpaceOnUse" xlink:href="#linearGradient7012-661-145-733-759-865-745"/><linearGradient id="linearGradient2709" x1="82.453" x2="65.34" y1="45.114" y2="15.944" gradientTransform="translate(-53.765393,-0.1141929)" gradientUnits="userSpaceOnUse" xlink:href="#linearGradient3390"/><linearGradient id="linearGradient2716" x1="62.989" x2="62.989" y1="13.183" y2="16.19" gradientTransform="translate(-50.940898,0)" gradientUnits="userSpaceOnUse" xlink:href="#linearGradient6404"/><radialGradient id="radialGradient2718" cx="3" cy="5.017" r="21" fx="3" fy="5.017" gradientTransform="matrix(-1.274898e-8,1.7142916,-2.159331,-1.4599595e-8,12.809361,2.8570011)" gradientUnits="userSpaceOnUse" xlink:href="#linearGradient3484"/><linearGradient id="linearGradient2721" x1="24.139" x2="24.139" y1="6.532" y2="47.273" gradientTransform="matrix(0.5399382,0,0,0.5366811,23.151077,23.493801)" gradientUnits="userSpaceOnUse" xlink:href="#linearGradient4222"/><linearGradient id="linearGradient2724" x1="24.104" x2="24.104" y1="15.169" y2="32.485" gradientTransform="matrix(0.8988874,0,0,0.8934652,14.536296,15.434027)" gradientUnits="userSpaceOnUse" xlink:href="#linearGradient2264"/><linearGradient id="linearGradient3503" x1="28.857" x2="28.857" y1="26" y2="46.073" gradientUnits="userSpaceOnUse" xlink:href="#linearGradient3497"/></defs><g id="layer1"><path id="path2447" fill="url(#radialGradient2613)" fill-opacity="1" stroke="none" stroke-dasharray="none" stroke-dashoffset="0" stroke-linecap="round" stroke-linejoin="round" stroke-miterlimit="4" stroke-opacity="1" stroke-width="3" d="M 33.278212,34.94062 A 10.31934,2.320194 0 1 1 12.639532,34.94062 A 10.31934,2.320194 0 1 1 33.278212,34.94062 z" display="inline" opacity=".3" transform="matrix(1.1628651,0,0,1.0848501,9.301929,7.5776017)"/><path id="path3468" fill="url(#linearGradient2716)" fill-opacity="1" stroke="url(#radialGradient2718)" stroke-dasharray="none" stroke-linecap="round" stroke-linejoin="round" stroke-miterlimit="4" stroke-opacity="1" stroke-width="1" d="M 5.4999991,8.4999995 C 4.8097281,8.5076711 4.4999991,8.8421456 4.4999991,9.4999995 L 4.4999991,11.506647 C 2.5161375,11.506647 2.5000001,11.647147 2.5000001,12.506647 C 2.5344111,22.796692 2.5000001,23.376785 2.5000001,24.25043 C 3.9354707,24.25043 45.499998,20.550698 45.499998,18.958166 L 45.499998,12.506647 C 45.499998,11.848794 44.945794,11.498976 44.255519,11.506647 L 21.499999,11.506647 L 21.499999,9.4999995 C 21.499999,8.8421456 21.19027,8.492328 20.499999,8.4999995 L 5.4999991,8.4999995 z" display="inline"/><g id="g7591" opacity=".4" transform="matrix(0.9583333,0,0,0.6666667,1.0000008,15)"><rect id="rect4173" width="40" height="9" x="4" y="39" fill="url(#linearGradient7596-975)" fill-opacity="1" fill-rule="nonzero" stroke="none" stroke-dasharray="none" stroke-dashoffset="0" stroke-linecap="round" stroke-linejoin="miter" stroke-miterlimit="4" stroke-opacity="1" stroke-width="1" marker-end="none" marker-mid="none" marker-start="none" display="inline" opacity="1" overflow="visible" visibility="visible" style="marker:none"/><path id="path5058" fill="url(#radialGradient7598-526)" fill-opacity="1" fill-rule="nonzero" stroke="none" stroke-dasharray="none" stroke-dashoffset="0" stroke-linecap="round" stroke-linejoin="miter" stroke-miterlimit="4" stroke-opacity="1" stroke-width="1" marker-end="none" marker-mid="none" marker-start="none" d="M 44,39.00031 C 44,39.00031 44,47.999814 44,47.999814 C 45.654593,48.016755 48.000001,45.983481 48,43.499483 C 48,41.015484 46.153598,39.00031 44,39.00031 z" display="inline" opacity="1" overflow="visible" visibility="visible" style="marker:none"/><path id="path5018" fill="url(#radialGradient7600-312)" fill-opacity="1" fill-rule="nonzero" stroke="none" stroke-dasharray="none" stroke-dashoffset="0" stroke-linecap="round" stroke-linejoin="miter" stroke-miterlimit="4" stroke-opacity="1" stroke-width="1" marker-end="none" marker-mid="none" marker-start="none" d="M 4,39.00031 C 4,39.00031 4,47.999814 4,47.999814 C 2.3454068,48.016755 0,45.983481 0,43.499483 C 0,41.015484 1.8464008,39.00031 4,39.00031 z" display="inline" opacity="1" overflow="visible" visibility="visible" style="marker:none"/></g><path id="path3388" fill="url(#radialGradient2707)" fill-opacity="1" stroke="url(#linearGradient2709)" stroke-dashoffset="0" stroke-linecap="round" stroke-linejoin="round" stroke-miterlimit="4" stroke-opacity="1" stroke-width="1" d="M 2.1628556,16.525193 C 1.0901486,16.648887 1.6630856,17.927311 1.5775586,18.646205 C 1.9700906,27.116295 2.3664906,35.41566 2.7566056,43.885807 C 3.0984416,44.8515 4.3510406,44.356967 5.1447226,44.479557 C 18.338267,44.479557 31.531812,44.479557 44.725358,44.479557 C 45.814738,44.372906 45.361818,43.071876 45.515058,42.327295 C 45.907598,33.857205 46.303998,25.55784 46.694108,17.087693 C 46.442938,16.133404 45.174598,16.663679 44.430985,16.525193 C 30.341611,16.525193 16.252234,16.525193 2.1628556,16.525193 z"/><path id="path6127" fill="url(#linearGradient2704)" fill-opacity="1" stroke="none" stroke-dashoffset="0" stroke-linecap="round" stroke-linejoin="round" stroke-miterlimit="4" stroke-opacity="1" stroke-width="1" d="M 2.0582428,16.065146 L 45.954718,16.065549 C 46.588878,16.065549 46.999873,16.51016 46.999873,17.062916 L 45.755637,44.002247 C 45.755637,44.555002 45.245105,45 44.610947,45 L 3.4020122,45 C 2.7678523,45 2.2573195,44.555002 2.2573195,44.002247 L 1.0130886,17.0629 C 1.0130886,16.510143 1.4240829,16.065146 2.0582428,16.065146 z" opacity=".4"/><path id="path2435" fill="none" fill-rule="evenodd" stroke="url(#radialGradient2701)" stroke-dasharray="none" stroke-linecap="round" stroke-linejoin="round" stroke-miterlimit="4" stroke-opacity="1" stroke-width="1" d="M 46.5,17.5 C 32.96875,17.5 16.03125,17.5 2.5,17.5 C 2.8854167,25.677083 3.2708333,33.854167 3.65625,42.03125"/><path id="path3455" fill="url(#linearGradient2698)" fill-opacity="1" stroke="none" stroke-dashoffset="0" stroke-linecap="round" stroke-linejoin="round" stroke-miterlimit="4" stroke-opacity="1" stroke-width="1" d="M 45.75,16 C 31.20041,16.073348 16.645416,15.978851 2.09375,16 C 0.28698984,16.411117 1.2593433,18.46661 1.1213236,19.771525 C 1.3433531,23.934872 1.4443903,28.116464 1.7417851,32.268407 C 16.742298,29.905609 31.66833,27.661153 46.40625,25.21875 C 47.187241,22.632172 47.193628,19.548156 47.063607,16.789526 C 46.834471,16.284964 46.276599,15.988682 45.75,16 z"/><path id="path2262" fill="url(#linearGradient2724)" fill-opacity="1" fill-rule="evenodd" stroke="url(#linearGradient3503)" stroke-dasharray="none" stroke-linecap="butt" stroke-linejoin="round" stroke-miterlimit="4" stroke-opacity="1" stroke-width="1" d="M 32.56638,32.494819 L 32.56638,26.5 L 39.5,26.5 L 39.5,32.494819 L 45.5,32.494819 L 45.5,39.5 L 39.5,39.5 L 39.5,45.5 L 32.560272,45.5 L 32.532403,39.5 L 26.5,39.5 L 26.5,32.494819 L 32.56638,32.494819 z" display="inline"/><path id="path2272" fill="none" fill-opacity="1" fill-rule="evenodd" stroke="url(#linearGradient2721)" stroke-dasharray="none" stroke-linecap="butt" stroke-linejoin="miter" stroke-miterlimit="4" stroke-opacity="1" stroke-width="1" d="M 33.5,33.494819 L 33.5,27.5 L 38.5,27.5 L 38.5,33.494819 L 44.5,33.494819 L 44.5,38.5 L 38.5,38.5 L 38.5,44.5 L 33.5,44.5 L 33.5,38.5 L 27.5,38.5 L 27.5,33.494819 L 33.5,33.494819 z" display="inline" opacity=".4"/></g></svg>