<svg xmlns="http://www.w3.org/2000/svg" xmlns:svg="http://www.w3.org/2000/svg" xmlns:xlink="http://www.w3.org/1999/xlink" id="svg3437" width="48" height="48" version="1.0"><defs id="defs3439"><linearGradient id="linearGradient5060-370"><stop id="stop3150" offset="0" stop-color="#000" stop-opacity="1"/><stop id="stop3152" offset="1" stop-color="#000" stop-opacity="0"/></linearGradient><radialGradient id="radialGradient2951-889" cx="605.714" cy="486.648" r="117.143" fx="605.714" fy="486.648" gradientTransform="matrix(-2.774389,0,0,1.969706,112.7623,-872.8854)" gradientUnits="userSpaceOnUse" xlink:href="#linearGradient5060-370"/><linearGradient id="linearGradient5060-824"><stop id="stop3144" offset="0" stop-color="#000" stop-opacity="1"/><stop id="stop3146" offset="1" stop-color="#000" stop-opacity="0"/></linearGradient><radialGradient id="radialGradient2949-476" cx="605.714" cy="486.648" r="117.143" fx="605.714" fy="486.648" gradientTransform="matrix(2.774389,0,0,1.969706,-1891.633,-872.8854)" gradientUnits="userSpaceOnUse" xlink:href="#linearGradient5060-824"/><linearGradient id="linearGradient5048-279"><stop id="stop3136" offset="0" stop-color="#000" stop-opacity="0"/><stop id="stop3138" offset=".5" stop-color="#000" stop-opacity="1"/><stop id="stop3140" offset="1" stop-color="#000" stop-opacity="0"/></linearGradient><linearGradient id="linearGradient2947-320" x1="302.857" x2="302.857" y1="366.648" y2="609.505" gradientTransform="matrix(2.774389,0,0,1.969706,-1892.179,-872.8854)" gradientUnits="userSpaceOnUse" xlink:href="#linearGradient5048-279"/><linearGradient id="linearGradient5157-32"><stop id="stop3164" offset="0" stop-color="#c1c1c1" stop-opacity="1"/><stop id="stop3166" offset="1" stop-color="#909090" stop-opacity="1"/></linearGradient><linearGradient id="linearGradient2977-492" x1="9.876" x2="9.876" y1="2.601" y2="23.062" gradientTransform="matrix(1.0909552,0,0,1.1016115,5.9936347,0.714308)" gradientUnits="userSpaceOnUse" xlink:href="#linearGradient5157-32"/><linearGradient id="linearGradient11111-6"><stop id="stop3156" offset="0" stop-color="#fff" stop-opacity="1"/><stop id="stop3158" offset=".91" stop-color="#cdcdcd" stop-opacity="1"/><stop id="stop3160" offset="1" stop-color="#a1a1a1" stop-opacity="1"/></linearGradient><linearGradient id="linearGradient2975-173" x1="-28.531" x2="-28.531" y1="17.956" y2="37.503" gradientTransform="matrix(1.0909552,0,0,1.1016115,43.498497,-15.260516)" gradientUnits="userSpaceOnUse" xlink:href="#linearGradient11111-6"/><linearGradient id="linearGradient3390-887"><stop id="stop3176" offset="0" stop-color="#5e5e5e" stop-opacity="1"/><stop id="stop3178" offset="1" stop-color="#909090" stop-opacity="1"/></linearGradient><linearGradient id="linearGradient2972-271" x1="9.705" x2="9.705" y1="20.882" y2="4.303" gradientTransform="matrix(1.0775743,0,0,1.0923309,5.6295757,2.609362)" gradientUnits="userSpaceOnUse" xlink:href="#linearGradient3390-887"/><linearGradient id="linearGradient7012-661-145-733-759-865-745-763"><stop id="stop3170" offset="0" stop-color="#bababa" stop-opacity="1"/><stop id="stop3172" offset="1" stop-color="#838383" stop-opacity="1"/></linearGradient><radialGradient id="radialGradient2970-136" cx="7.819" cy="8.561" r="11.268" fx="7.819" fy="8.561" gradientTransform="matrix(1.8309812,0,0,1.1461838,9.34577e-2,1.779032)" gradientUnits="userSpaceOnUse" xlink:href="#linearGradient7012-661-145-733-759-865-745-763"/><linearGradient id="linearGradient3752-561"><stop id="stop3182" offset="0" stop-color="#fff" stop-opacity="1"/><stop id="stop3184" offset=".848" stop-color="#fff" stop-opacity="1"/><stop id="stop3186" offset="1" stop-color="#fff" stop-opacity="0"/></linearGradient><radialGradient id="radialGradient2967-194" cx="4.02" cy="5.593" r="10.273" fx="4.02" fy="5.593" gradientTransform="matrix(-1.82044e-2,1.5313239,-1.9465512,-2.3778757e-2,21.445611,3.091346)" gradientUnits="userSpaceOnUse" xlink:href="#linearGradient3752-561"/><linearGradient id="linearGradient8265-821-176-38-919-66-249-346"><stop id="stop3190" offset="0" stop-color="#fff" stop-opacity="1"/><stop id="stop3192" offset="1" stop-color="#fff" stop-opacity="0"/></linearGradient><linearGradient id="linearGradient2963-533" x1="18.031" x2="20.055" y1="16.408" y2="24.628" gradientUnits="userSpaceOnUse" xlink:href="#linearGradient8265-821-176-38-919-66-249-346"/><linearGradient id="linearGradient8265-821-176-38-919-66-249"><stop id="stop2687" offset="0" stop-color="#fff" stop-opacity="1"/><stop id="stop2689" offset="1" stop-color="#fff" stop-opacity="0"/></linearGradient><linearGradient id="linearGradient2886" x1="18.031" x2="20.055" y1="16.408" y2="24.628" gradientUnits="userSpaceOnUse" xlink:href="#linearGradient8265-821-176-38-919-66-249"/><linearGradient id="linearGradient3752"><stop id="stop3754" offset="0" stop-color="#fff" stop-opacity="1"/><stop id="stop3760" offset=".848" stop-color="#fff" stop-opacity="1"/><stop id="stop3756" offset="1" stop-color="#fff" stop-opacity="0"/></linearGradient><radialGradient id="radialGradient2869" cx="4.02" cy="5.593" r="10.273" fx="4.02" fy="5.593" gradientTransform="matrix(-1.82044e-2,1.5313239,-1.9465512,-2.3778757e-2,31.44561,21.091344)" gradientUnits="userSpaceOnUse" xlink:href="#linearGradient3752"/><linearGradient id="linearGradient3390"><stop id="stop3392" offset="0" stop-color="#425e7b" stop-opacity="1"/><stop id="stop3394" offset="1" stop-color="#7a91a7" stop-opacity="1"/></linearGradient><linearGradient id="linearGradient2874" x1="9.705" x2="9.705" y1="20.882" y2="4.303" gradientTransform="matrix(1.0775743,0,0,1.0923309,15.629575,20.60936)" gradientUnits="userSpaceOnUse" xlink:href="#linearGradient3390"/><linearGradient id="linearGradient7012-661-145-733-759-865-745"><stop id="stop2699" offset="0" stop-color="#9cbbd9" stop-opacity="1"/><stop id="stop2701" offset="1" stop-color="#5c82ab" stop-opacity="1"/></linearGradient><radialGradient id="radialGradient2872" cx="7.819" cy="8.561" r="11.268" fx="7.819" fy="8.561" gradientTransform="matrix(1.8309812,0,0,1.1461838,10.093457,19.77903)" gradientUnits="userSpaceOnUse" xlink:href="#linearGradient7012-661-145-733-759-865-745"/><linearGradient id="linearGradient5157"><stop id="stop5159" offset="0" stop-color="#c1c1c1" stop-opacity="1"/><stop id="stop5161" offset="1" stop-color="#909090" stop-opacity="1"/></linearGradient><linearGradient id="linearGradient2879" x1="9.876" x2="9.876" y1="2.601" y2="23.062" gradientTransform="matrix(1.0909552,0,0,1.1016115,15.993634,18.714306)" gradientUnits="userSpaceOnUse" xlink:href="#linearGradient5157"/><linearGradient id="linearGradient11111"><stop id="stop11113" offset="0" stop-color="#fff" stop-opacity="1"/><stop id="stop11115" offset=".91" stop-color="#cdcdcd" stop-opacity="1"/><stop id="stop11117" offset="1" stop-color="#a1a1a1" stop-opacity="1"/></linearGradient><linearGradient id="linearGradient2877" x1="-28.531" x2="-28.531" y1="17.956" y2="37.503" gradientTransform="matrix(1.0909552,0,0,1.1016115,53.498496,2.7394817)" gradientUnits="userSpaceOnUse" xlink:href="#linearGradient11111"/><radialGradient id="radialGradient2853" cx="605.714" cy="486.648" r="117.143" fx="605.714" fy="486.648" gradientTransform="matrix(-2.774389,0,0,1.969706,112.7623,-872.8854)" gradientUnits="userSpaceOnUse" xlink:href="#linearGradient5060"/><linearGradient id="linearGradient5060"><stop id="stop5062" offset="0" stop-color="#000" stop-opacity="1"/><stop id="stop5064" offset="1" stop-color="#000" stop-opacity="0"/></linearGradient><radialGradient id="radialGradient2851" cx="605.714" cy="486.648" r="117.143" fx="605.714" fy="486.648" gradientTransform="matrix(2.774389,0,0,1.969706,-1891.633,-872.8854)" gradientUnits="userSpaceOnUse" xlink:href="#linearGradient5060"/><linearGradient id="linearGradient5048"><stop id="stop5050" offset="0" stop-color="#000" stop-opacity="0"/><stop id="stop5056" offset=".5" stop-color="#000" stop-opacity="1"/><stop id="stop5052" offset="1" stop-color="#000" stop-opacity="0"/></linearGradient><linearGradient id="linearGradient2849" x1="302.857" x2="302.857" y1="366.648" y2="609.505" gradientTransform="matrix(2.774389,0,0,1.969706,-1892.179,-872.8854)" gradientUnits="userSpaceOnUse" xlink:href="#linearGradient5048"/></defs><g id="layer1"><g id="g2901" stroke-dasharray="none" stroke-miterlimit="4" stroke-width="1.883" transform="matrix(0.5905269,0,0,0.5656841,4.9553707,9.9696e-2)"><g id="g2903" stroke-dasharray="none" stroke-miterlimit="4" stroke-width="104.962" display="inline" transform="matrix(2.165152e-2,0,0,1.485743e-2,43.0076,42.68539)"><rect id="rect2905" width="1339.633" height="478.357" x="-1559.252" y="-150.697" fill="url(#linearGradient2947-320)" fill-opacity="1" fill-rule="nonzero" stroke="none" stroke-dasharray="none" stroke-dashoffset="0" stroke-linecap="round" stroke-linejoin="miter" stroke-miterlimit="4" stroke-opacity="1" stroke-width="104.962" marker-end="none" marker-mid="none" marker-start="none" display="inline" opacity=".402" overflow="visible" visibility="visible" style="marker:none"/><path id="path2907" fill="url(#radialGradient2949-476)" fill-opacity="1" fill-rule="nonzero" stroke="none" stroke-dasharray="none" stroke-dashoffset="0" stroke-linecap="round" stroke-linejoin="miter" stroke-miterlimit="4" stroke-opacity="1" stroke-width="104.962" marker-end="none" marker-mid="none" marker-start="none" d="M -219.61876,-150.68038 C -219.61876,-150.68038 -219.61876,327.65041 -219.61876,327.65041 C -76.744594,328.55086 125.78146,220.48075 125.78138,88.454235 C 125.78138,-43.572302 -33.655436,-150.68036 -219.61876,-150.68038 z" display="inline" opacity=".402" overflow="visible" visibility="visible" style="marker:none"/><path id="path2909" fill="url(#radialGradient2951-889)" fill-opacity="1" fill-rule="nonzero" stroke="none" stroke-dasharray="none" stroke-dashoffset="0" stroke-linecap="round" stroke-linejoin="miter" stroke-miterlimit="4" stroke-opacity="1" stroke-width="104.962" marker-end="none" marker-mid="none" marker-start="none" d="M -1559.2523,-150.68038 C -1559.2523,-150.68038 -1559.2523,327.65041 -1559.2523,327.65041 C -1702.1265,328.55086 -1904.6525,220.48075 -1904.6525,88.454235 C -1904.6525,-43.572302 -1745.2157,-150.68036 -1559.2523,-150.68038 z" display="inline" opacity=".402" overflow="visible" visibility="visible" style="marker:none"/></g></g><path id="path2911" fill="url(#linearGradient2975-173)" fill-opacity="1" stroke="url(#linearGradient2977-492)" stroke-dasharray="none" stroke-linecap="round" stroke-linejoin="round" stroke-miterlimit="4" stroke-opacity="1" stroke-width="1.011" d="M 8.8857897,3.505574 C 8.7924707,3.505574 8.7124707,3.607747 8.7124707,3.713277 L 8.7124707,5.500002 C 8.7124707,5.500002 8.1770527,5.500002 7.4068427,5.500002 C 6.5479017,5.500002 6.5402507,5.502116 6.5402507,6.323047 C 6.5474637,12.15845 6.5114487,17.993768 6.5055867,23.829158 C 6.5373157,24.815139 7.0916917,25.48724 7.4761707,25.490764 C 8.5810207,25.500894 8.0644917,25.486326 8.6200747,25.490764 C 15.678918,25.47303 23.434065,25.404649 30.492907,25.386914 C 30.552052,25.394536 28.881877,25.268244 28.898375,23.79454 C 28.898376,18.646769 28.500001,11.470821 28.500001,6.323047 C 28.514137,6.060377 28.533074,5.500002 28.142681,5.500002 L 17.41295,5.500002 L 17.41295,3.713277 C 17.41295,3.607747 17.332949,3.505574 17.239631,3.505574 L 8.8857897,3.505574 z" display="inline"/><path id="path2913" fill="url(#radialGradient2970-136)" fill-opacity="1" stroke="url(#linearGradient2972-271)" stroke-dasharray="none" stroke-linecap="round" stroke-linejoin="round" stroke-miterlimit="4" stroke-opacity="1" stroke-width="1" d="M 9.5000007,7.500002 C 20.951982,7.500002 23.95586,7.530753 31.500001,7.500002 C 31.500001,9.224803 31.730238,25.499997 30.926026,25.499997 C 30.152389,25.499997 15.708239,25.396373 8.1640997,25.427125 C 9.7585977,25.427125 9.5000007,24.329783 9.5000007,7.500002 z" display="inline"/><path id="path2915" fill="none" fill-rule="evenodd" stroke="url(#radialGradient2967-194)" stroke-dasharray="none" stroke-linecap="butt" stroke-linejoin="miter" stroke-miterlimit="4" stroke-opacity="1" stroke-width=".981" d="M 30.746412,8.510102 C 30.746412,8.510102 12.422605,8.540044 10.595387,8.540044 C 10.505526,23.728759 10.621989,23.609947 10.09643,24.748657" display="inline" opacity=".4"/><path id="path2917" fill="url(#linearGradient2963-533)" fill-opacity="1" fill-rule="evenodd" stroke="none" stroke-dasharray="none" stroke-dashoffset="0" stroke-linecap="round" stroke-linejoin="round" stroke-miterlimit="4" stroke-opacity="1" stroke-width="1.002" d="M 3.21875,5.34375 C 1.6798019,5.34375 0.40625,6.617302 0.40625,8.15625 L 0.40625,24.15625 C 0.41214423,24.442483 0.55466957,24.768827 0.78125,24.96875 C 1.0078275,25.168671 1.2974446,25.253022 1.625,25.21875 C 1.635415,25.219016 1.645835,25.219016 1.65625,25.21875 L 46.65625,18.09375 C 47.178023,18.01146 47.586456,17.55942 47.59375,17.03125 L 47.59375,8.15625 C 47.59375,6.617302 46.320198,5.34375 44.78125,5.34375 L 3.21875,5.34375 z" opacity=".2" transform="matrix(0.4874172,0,0,0.4526608,8.8019877,4.581096)"/><g id="g2888"><g id="g3490" stroke-dasharray="none" stroke-miterlimit="4" stroke-width="1.883" transform="matrix(0.5905269,0,0,0.5656841,14.95537,18.099694)"><g id="g5022" stroke-dasharray="none" stroke-miterlimit="4" stroke-width="104.962" display="inline" transform="matrix(2.165152e-2,0,0,1.485743e-2,43.0076,42.68539)"><rect id="rect4173" width="1339.633" height="478.357" x="-1559.252" y="-150.697" fill="url(#linearGradient2849)" fill-opacity="1" fill-rule="nonzero" stroke="none" stroke-dasharray="none" stroke-dashoffset="0" stroke-linecap="round" stroke-linejoin="miter" stroke-miterlimit="4" stroke-opacity="1" stroke-width="104.962" marker-end="none" marker-mid="none" marker-start="none" display="inline" opacity=".402" overflow="visible" visibility="visible" style="marker:none"/><path id="path5058" fill="url(#radialGradient2851)" fill-opacity="1" fill-rule="nonzero" stroke="none" stroke-dasharray="none" stroke-dashoffset="0" stroke-linecap="round" stroke-linejoin="miter" stroke-miterlimit="4" stroke-opacity="1" stroke-width="104.962" marker-end="none" marker-mid="none" marker-start="none" d="M -219.61876,-150.68038 C -219.61876,-150.68038 -219.61876,327.65041 -219.61876,327.65041 C -76.744594,328.55086 125.78146,220.48075 125.78138,88.454235 C 125.78138,-43.572302 -33.655436,-150.68036 -219.61876,-150.68038 z" display="inline" opacity=".402" overflow="visible" visibility="visible" style="marker:none"/><path id="path5018" fill="url(#radialGradient2853)" fill-opacity="1" fill-rule="nonzero" stroke="none" stroke-dasharray="none" stroke-dashoffset="0" stroke-linecap="round" stroke-linejoin="miter" stroke-miterlimit="4" stroke-opacity="1" stroke-width="104.962" marker-end="none" marker-mid="none" marker-start="none" d="M -1559.2523,-150.68038 C -1559.2523,-150.68038 -1559.2523,327.65041 -1559.2523,327.65041 C -1702.1265,328.55086 -1904.6525,220.48075 -1904.6525,88.454235 C -1904.6525,-43.572302 -1745.2157,-150.68036 -1559.2523,-150.68038 z" display="inline" opacity=".402" overflow="visible" visibility="visible" style="marker:none"/></g></g><path id="path3496" fill="url(#linearGradient2877)" fill-opacity="1" stroke="url(#linearGradient2879)" stroke-dasharray="none" stroke-linecap="round" stroke-linejoin="round" stroke-miterlimit="4" stroke-opacity="1" stroke-width="1.011" d="M 18.885789,21.505572 C 18.79247,21.505572 18.71247,21.607745 18.71247,21.713275 L 18.71247,23.5 C 18.71247,23.5 18.177052,23.5 17.406842,23.5 C 16.547901,23.5 16.54025,23.502114 16.54025,24.323045 C 16.547463,30.158448 16.511448,35.993766 16.505586,41.829156 C 16.537315,42.815137 17.091691,43.487238 17.47617,43.490762 C 18.58102,43.500892 18.064491,43.486324 18.620074,43.490762 C 25.678917,43.473028 33.434064,43.404647 40.492906,43.386912 C 40.552051,43.394534 38.881876,43.268242 38.898374,41.794538 C 38.898375,36.646767 38.5,29.470819 38.5,24.323045 C 38.514136,24.060375 38.533073,23.5 38.14268,23.5 L 27.412949,23.5 L 27.412949,21.713275 C 27.412949,21.607745 27.332948,21.505572 27.23963,21.505572 L 18.885789,21.505572 z" display="inline"/><path id="path3498" fill="url(#radialGradient2872)" fill-opacity="1" stroke="url(#linearGradient2874)" stroke-dasharray="none" stroke-linecap="round" stroke-linejoin="round" stroke-miterlimit="4" stroke-opacity="1" stroke-width="1" d="M 19.5,25.5 C 30.951981,25.5 33.955859,25.530751 41.5,25.5 C 41.5,27.224801 41.730237,43.499995 40.926025,43.499995 C 40.152388,43.499995 25.708238,43.396371 18.164099,43.427123 C 19.758597,43.427123 19.5,42.329781 19.5,25.5 z" display="inline"/><path id="path3211" fill="none" fill-rule="evenodd" stroke="url(#radialGradient2869)" stroke-dasharray="none" stroke-linecap="butt" stroke-linejoin="miter" stroke-miterlimit="4" stroke-opacity="1" stroke-width=".981" d="M 40.746411,26.5101 C 40.746411,26.5101 22.422604,26.540042 20.595386,26.540042 C 20.505525,41.728757 20.621988,41.609945 20.096429,42.748655" display="inline" opacity=".4"/><path id="path2608" fill="url(#linearGradient2886)" fill-opacity="1" fill-rule="evenodd" stroke="none" stroke-dasharray="none" stroke-dashoffset="0" stroke-linecap="round" stroke-linejoin="round" stroke-miterlimit="4" stroke-opacity="1" stroke-width="1.002" d="M 3.21875,5.34375 C 1.6798019,5.34375 0.40625,6.617302 0.40625,8.15625 L 0.40625,24.15625 C 0.41214423,24.442483 0.55466957,24.768827 0.78125,24.96875 C 1.0078275,25.168671 1.2974446,25.253022 1.625,25.21875 C 1.635415,25.219016 1.645835,25.219016 1.65625,25.21875 L 46.65625,18.09375 C 47.178023,18.01146 47.586456,17.55942 47.59375,17.03125 L 47.59375,8.15625 C 47.59375,6.617302 46.320198,5.34375 44.78125,5.34375 L 3.21875,5.34375 z" opacity=".2" transform="matrix(0.4874172,0,0,0.4526608,18.801987,22.581094)"/></g></g></svg>