<svg xmlns="http://www.w3.org/2000/svg" xmlns:svg="http://www.w3.org/2000/svg" xmlns:xlink="http://www.w3.org/1999/xlink" id="svg2405" width="48" height="48"><defs id="defs2407"><linearGradient id="linearGradient2804"><stop id="stop2806" offset="0" stop-color="#000" stop-opacity="0"/><stop id="stop2812" offset=".5" stop-color="#000" stop-opacity="1"/><stop id="stop2808" offset="1" stop-color="#000" stop-opacity="0"/></linearGradient><linearGradient id="linearGradient2831" x1="21.875" x2="21.875" y1="48.001" y2="40" gradientUnits="userSpaceOnUse" xlink:href="#linearGradient2804"/><radialGradient id="radialGradient2829" cx="1" cy="44" r="5" fx="1" fy="44" gradientTransform="matrix(2,0,0,0.8,36,8.8)" gradientUnits="userSpaceOnUse" xlink:href="#linearGradient2781"/><linearGradient id="linearGradient2781"><stop id="stop2783" offset="0" stop-color="#000" stop-opacity="1"/><stop id="stop2785" offset="1" stop-color="#000" stop-opacity="0"/></linearGradient><radialGradient id="radialGradient2827" cx="1" cy="44" r="5" fx="1" fy="44" gradientTransform="matrix(2,0,0,0.8,-13,-79.2)" gradientUnits="userSpaceOnUse" xlink:href="#linearGradient2781"/><linearGradient id="linearGradient5106"><stop id="stop5108" offset="0" stop-color="#729fcf" stop-opacity="1"/><stop id="stop5110" offset="1" stop-color="#386ea6" stop-opacity="1"/></linearGradient><linearGradient id="linearGradient2780" x1="8.177" x2="8.177" y1="5.858" y2="15.677" gradientTransform="matrix(3.137165,0,0,3.184122,-1.606682,-3.916379)" gradientUnits="userSpaceOnUse" xlink:href="#linearGradient5106"/><linearGradient id="linearGradient2782"><stop id="stop2784" offset="0" stop-color="#fff" stop-opacity="1"/><stop id="stop2786" offset="1" stop-color="#fff" stop-opacity="0"/></linearGradient><linearGradient id="linearGradient2788" x1="26.063" x2="29.031" y1="23.266" y2="55.266" gradientTransform="translate(0,0.944685)" gradientUnits="userSpaceOnUse" xlink:href="#linearGradient2782"/></defs><metadata id="metadata2410"/><g id="layer1"><g id="g2822" opacity=".3" transform="matrix(1,0,0,1.037397,0,-1.648602)"><rect id="rect1892" width="10" height="8" x="-11" y="-48" fill="url(#radialGradient2827)" fill-opacity="1" fill-rule="nonzero" stroke="none" stroke-dasharray="none" stroke-dashoffset="1.2" stroke-linecap="square" stroke-linejoin="round" stroke-miterlimit="4" stroke-opacity="1" stroke-width="1" marker-end="none" marker-mid="none" marker-start="none" color="#000" display="inline" opacity="1" overflow="visible" transform="scale(-1,-1)" visibility="visible" style="marker:none"/><rect stroke-linejoin="round" style="marker:none" id="rect2789" width="10" height="8" x="38" y="40" fill="url(#radialGradient2829)" fill-opacity="1" fill-rule="nonzero" stroke="none" stroke-dasharray="none" stroke-dashoffset="1.2" stroke-linecap="square" stroke-miterlimit="4" stroke-opacity="1" stroke-width="1" marker-end="none" marker-mid="none" marker-start="none" color="#000" display="inline" opacity="1" overflow="visible" visibility="visible"/><rect stroke-linejoin="round" style="marker:none" id="rect2793" width="27" height="8" x="11" y="40" fill="url(#linearGradient2831)" fill-opacity="1" fill-rule="nonzero" stroke="none" stroke-dasharray="none" stroke-dashoffset="1.2" stroke-linecap="square" stroke-miterlimit="4" stroke-opacity="1" stroke-width="1" marker-end="none" marker-mid="none" marker-start="none" color="#000" display="inline" opacity="1" overflow="visible" visibility="visible"/></g><path id="rect5117" fill="url(#linearGradient2780)" fill-opacity="1" fill-rule="nonzero" stroke="#204a87" stroke-dasharray="none" stroke-dashoffset="0" stroke-linecap="butt" stroke-linejoin="round" stroke-miterlimit="4" stroke-opacity="1" stroke-width="1" marker-end="none" marker-mid="none" marker-start="none" d="M 24.046494,2.4518645 L 1.2179878,26.520272 L 6.4862366,26.520272 L 6.5487366,45.5 L 42.546511,45.4375 L 42.399171,26.413846 L 46.875,26.457772 L 37.54055,16.629108 L 37.549608,4.4773591 L 30.505837,4.4682321 L 30.537459,9.1316489 L 24.046494,2.4518645 z" display="inline" opacity="1" overflow="visible" visibility="visible" style="marker:none"/><path id="path2778" fill="none" fill-opacity="1" fill-rule="nonzero" stroke="url(#linearGradient2788)" stroke-dasharray="none" stroke-dashoffset="0" stroke-linecap="butt" stroke-linejoin="round" stroke-miterlimit="4" stroke-opacity="1" stroke-width="1" marker-end="none" marker-mid="none" marker-start="none" d="M 24.03125,3.975935 L 3.6875,25.444685 L 6.5,25.444685 C 6.7820332,25.443897 7.0527421,25.555586 7.2521704,25.755015 C 7.4515988,25.954443 7.5632875,26.225152 7.5625,26.507185 L 7.625,44.444685 L 41.46875,44.382185 L 41.34375,26.413435 C 41.342962,26.131402 41.454651,25.860693 41.65408,25.661265 C 41.853508,25.461836 42.124217,25.350147 42.40625,25.350935 L 44.375,25.350935 L 36.75,17.350935 C 36.569219,17.155233 36.468801,16.898608 36.46875,16.632185 L 36.5,5.538435 L 31.5625,5.538435 L 31.59375,9.132185 C 31.595602,9.562526 31.336979,9.9512393 30.939333,10.115782 C 30.541687,10.280326 30.084018,10.188009 29.78125,9.882185 L 24.03125,3.975935 z" display="inline" opacity=".412" overflow="visible" visibility="visible" style="marker:none"/></g></svg>