<svg xmlns="http://www.w3.org/2000/svg" xmlns:svg="http://www.w3.org/2000/svg" xmlns:xlink="http://www.w3.org/1999/xlink" id="svg3362" width="48" height="48" version="1.1"><defs id="defs3364"><radialGradient id="radialGradient3932" cx="11.25" cy="19.031" r="8.063" fx="11.25" fy="19.031" gradientTransform="matrix(-1.4061954,0,0,0.3867044,27.819698,13.522738)" gradientUnits="userSpaceOnUse" xlink:href="#linearGradient5105-262-943-861"/><linearGradient id="linearGradient5105-262-943-861"><stop id="stop2487" offset="0" stop-color="#0d0d0d" stop-opacity="1"/><stop id="stop2489" offset="1" stop-color="#0d0d0d" stop-opacity="0"/></linearGradient><linearGradient id="linearGradient3927" x1="22.182" x2="22.182" y1="14.5" y2="44.051" gradientTransform="matrix(-0.5165267,0,0,0.5333212,23.457373,-0.7415553)" gradientUnits="userSpaceOnUse" xlink:href="#linearGradient7012-661-145-733-759-865-745-661-970-94"/><linearGradient id="linearGradient7012-661-145-733-759-865-745-661-970-94"><stop id="stop3618" offset="0" stop-color="#f0c178" stop-opacity="1"/><stop id="stop3270" offset=".5" stop-color="#e18941" stop-opacity="1"/><stop id="stop3620" offset="1" stop-color="#ec4f18" stop-opacity="1"/></linearGradient><linearGradient id="linearGradient3929" x1="17.482" x2="17.482" y1="23" y2=".987" gradientTransform="matrix(-1,0,0,1,24,0)" gradientUnits="userSpaceOnUse" xlink:href="#linearGradient3390-178-986-453"/><linearGradient id="linearGradient3390-178-986-453"><stop id="stop3624" offset="0" stop-color="#bb2b12" stop-opacity="1"/><stop id="stop3626" offset="1" stop-color="#cd7233" stop-opacity="1"/></linearGradient><linearGradient id="linearGradient3924" x1="29.367" x2="29.367" y1="11.492" y2="40.446" gradientTransform="matrix(0.599071,0,0,0.6156931,-3.232032,-3.9814102)" gradientUnits="userSpaceOnUse" xlink:href="#linearGradient4222"/><linearGradient id="linearGradient4222"><stop id="stop4224" offset="0" stop-color="#fff" stop-opacity="1"/><stop id="stop4226" offset="1" stop-color="#fff" stop-opacity="0"/></linearGradient><radialGradient id="radialGradient3434" cx="23.335" cy="41.636" r="22.627" fx="23.335" fy="41.636" gradientTransform="matrix(0.6629126,0,0,0.1988553,0.5312494,18.220454)" gradientUnits="userSpaceOnUse" xlink:href="#linearGradient23419-1"/><linearGradient id="linearGradient23419-1"><stop id="stop23421-5" offset="0" stop-color="#000" stop-opacity="1"/><stop id="stop23423-9" offset="1" stop-color="#000" stop-opacity="0"/></linearGradient><linearGradient id="linearGradient3431" x1="12.274" x2="35.391" y1="32.416" y2="14.203" gradientTransform="matrix(0,0.7714354,-0.7714354,0,33.82016,-2.5144527)" gradientUnits="userSpaceOnUse" xlink:href="#linearGradient3263"/><linearGradient id="linearGradient3263" x1="12.274" x2="35.391" y1="32.416" y2="14.203" gradientUnits="userSpaceOnUse"><stop id="stop3265" offset="0" stop-color="#dedbde" stop-opacity="1"/><stop id="stop3267" offset=".5" stop-color="#e6e6e6" stop-opacity="1"/><stop id="stop3269" offset="1" stop-color="#d2d2d2" stop-opacity="1"/></linearGradient><linearGradient id="linearGradient3446" x1="20.58" x2="24.274" y1="10.775" y2="9.862" gradientUnits="userSpaceOnUse" spreadMethod="reflect" xlink:href="#linearGradient3487"/><linearGradient id="linearGradient3487"><stop id="stop3489" offset="0" stop-color="#e6cde2" stop-opacity="1"/><stop id="stop3491" offset="1" stop-color="#e6cde2" stop-opacity="0"/></linearGradient><linearGradient id="linearGradient3448" x1="17.495" x2="21.047" y1="11.2" y2="9.796" gradientUnits="userSpaceOnUse" spreadMethod="reflect" xlink:href="#linearGradient3495"/><linearGradient id="linearGradient3495"><stop id="stop3497" offset="0" stop-color="#c1cbe4" stop-opacity="1"/><stop id="stop3499" offset="1" stop-color="#c1cbe4" stop-opacity="0"/></linearGradient><linearGradient id="linearGradient3450" x1="14.085" x2="16.994" y1="13.046" y2="10.732" gradientUnits="userSpaceOnUse" spreadMethod="reflect" xlink:href="#linearGradient3503"/><linearGradient id="linearGradient3503"><stop id="stop3505" offset="0" stop-color="#c4ebdd" stop-opacity="1"/><stop id="stop3507" offset="1" stop-color="#c4ebdd" stop-opacity="0"/></linearGradient><linearGradient id="linearGradient3452" x1="12.372" x2="14.609" y1="16.188" y2="13.462" gradientUnits="userSpaceOnUse" spreadMethod="reflect" xlink:href="#linearGradient3511"/><linearGradient id="linearGradient3511"><stop id="stop3513" offset="0" stop-color="#ebeec7" stop-opacity="1"/><stop id="stop3515" offset="1" stop-color="#ebeec7" stop-opacity="0"/></linearGradient><linearGradient id="linearGradient3454" x1="10.609" x2="9.73" y1="17.886" y2="20.613" gradientUnits="userSpaceOnUse" spreadMethod="reflect" xlink:href="#linearGradient3519"/><linearGradient id="linearGradient3519"><stop id="stop3521" offset="0" stop-color="#fcd9cd" stop-opacity="1"/><stop id="stop3523" offset="1" stop-color="#fcd9cd" stop-opacity="0"/></linearGradient><linearGradient id="linearGradient3436" x1="20.58" x2="24.274" y1="10.775" y2="9.862" gradientUnits="userSpaceOnUse" spreadMethod="reflect" xlink:href="#linearGradient3487"/><linearGradient id="linearGradient3438" x1="17.495" x2="21.047" y1="11.2" y2="9.796" gradientUnits="userSpaceOnUse" spreadMethod="reflect" xlink:href="#linearGradient3495"/><linearGradient id="linearGradient3440" x1="14.085" x2="16.994" y1="13.046" y2="10.732" gradientUnits="userSpaceOnUse" spreadMethod="reflect" xlink:href="#linearGradient3503"/><linearGradient id="linearGradient3442" x1="12.372" x2="14.609" y1="16.188" y2="13.462" gradientUnits="userSpaceOnUse" spreadMethod="reflect" xlink:href="#linearGradient3511"/><linearGradient id="linearGradient3444" x1="10.609" x2="9.73" y1="17.886" y2="20.613" gradientUnits="userSpaceOnUse" spreadMethod="reflect" xlink:href="#linearGradient3519"/><linearGradient id="linearGradient3412" x1="10.502" x2="48.799" y1="3.61" y2="54.698" gradientTransform="matrix(0.6313887,0,0,0.6313887,0.6275783,0.2152854)" gradientUnits="userSpaceOnUse" xlink:href="#linearGradient6036-7"/><linearGradient id="linearGradient6036-7"><stop id="stop6038-7" offset="0" stop-color="#fff" stop-opacity="1"/><stop id="stop6040-6" offset="1" stop-color="#fff" stop-opacity="0"/></linearGradient><linearGradient id="linearGradient3409" x1="20.019" x2="20.019" y1="3" y2="45.176" gradientTransform="matrix(0.6585366,0,0,0.6585366,0.195122,0.1951224)" gradientUnits="userSpaceOnUse" xlink:href="#linearGradient3772"/><linearGradient id="linearGradient3772"><stop id="stop3774" offset="0" stop-color="#b4b4b4" stop-opacity="1"/><stop id="stop3776" offset="1" stop-color="#969696" stop-opacity="1"/></linearGradient><linearGradient id="linearGradient3406" x1="18.776" x2="18.203" y1="4.038" y2="45.962" gradientTransform="matrix(0.3283222,0,0,0.3283221,8.0063392,7.7919482)" gradientUnits="userSpaceOnUse" xlink:href="#linearGradient6036-7"/><linearGradient id="linearGradient3427" x1="21.448" x2="21.448" y1="15.5" y2="32.509" gradientTransform="matrix(0.6875,0,0,0.6875,-0.5000014,-0.5000001)" gradientUnits="userSpaceOnUse" xlink:href="#linearGradient3428"/><linearGradient id="linearGradient3428"><stop id="stop3430" offset="0" stop-color="#aaa" stop-opacity="1"/><stop id="stop3432" offset="1" stop-color="#d4d4d4" stop-opacity="1"/></linearGradient><linearGradient id="linearGradient3056" x1="32.892" x2="36.358" y1="8.059" y2="5.457" gradientTransform="matrix(0.9976985,0,0,1.0406866,0.1638029,-1.1057942)" gradientUnits="userSpaceOnUse" xlink:href="#linearGradient8589"/><linearGradient id="linearGradient8589"><stop id="stop8591" offset="0" stop-color="#fefefe" stop-opacity="1"/><stop id="stop8593" offset="1" stop-color="#cbcbcb" stop-opacity="1"/></linearGradient><filter id="filter3212" width="1.297" height="1.329" x="-.148" y="-.164" color-interpolation-filters="sRGB"><feGaussianBlur id="feGaussianBlur3214" stdDeviation=".774"/></filter><linearGradient id="linearGradient3060" x1="24" x2="24" y1="2" y2="46.017" gradientTransform="matrix(1,0,0,0.9777778,0,-0.96666964)" gradientUnits="userSpaceOnUse" xlink:href="#linearGradient3211"/><linearGradient id="linearGradient3211"><stop id="stop3213" offset="0" stop-color="#fff" stop-opacity="1"/><stop id="stop3215" offset="1" stop-color="#fff" stop-opacity="0"/></linearGradient><radialGradient id="radialGradient3063" cx="102" cy="112.305" r="139.559" gradientTransform="matrix(0.3617022,0,0,-0.3907784,0.8510637,47.517004)" gradientUnits="userSpaceOnUse" xlink:href="#XMLID_8_"/><radialGradient id="XMLID_8_" cx="102" cy="112.305" r="139.559" gradientUnits="userSpaceOnUse"><stop id="stop41" offset="0" stop-color="#b7b8b9" stop-opacity="1"/><stop id="stop47" offset=".189" stop-color="#ececec" stop-opacity="1"/><stop id="stop49" offset=".257" stop-color="#fafafa" stop-opacity="0"/><stop id="stop51" offset=".301" stop-color="#fff" stop-opacity="0"/><stop id="stop53" offset=".531" stop-color="#fafafa" stop-opacity="0"/><stop id="stop55" offset=".845" stop-color="#ebecec" stop-opacity="0"/><stop id="stop57" offset="1" stop-color="#e1e2e3" stop-opacity="0"/></radialGradient><linearGradient id="linearGradient3066" x1="25.132" x2="25.132" y1=".985" y2="47.013" gradientTransform="matrix(1,0,0,0.9561695,-9.9999999e-8,-1.9149223)" gradientUnits="userSpaceOnUse" xlink:href="#linearGradient3600"/><linearGradient id="linearGradient3600"><stop id="stop3602" offset="0" stop-color="#f4f4f4" stop-opacity="1"/><stop id="stop3604" offset="1" stop-color="#dbdbdb" stop-opacity="1"/></linearGradient><linearGradient id="linearGradient3068" x1="-51.786" x2="-51.786" y1="50.786" y2="2.906" gradientTransform="matrix(0.8074968,0,0,0.8948322,59.410232,-2.9805536)" gradientUnits="userSpaceOnUse" xlink:href="#linearGradient3104"/><linearGradient id="linearGradient3104"><stop id="stop3106" offset="0" stop-color="#aaa" stop-opacity="1"/><stop id="stop3108" offset="1" stop-color="#c8c8c8" stop-opacity="1"/></linearGradient><radialGradient id="radialGradient3071" cx="605.714" cy="486.648" r="117.143" fx="605.714" fy="486.648" gradientTransform="matrix(0.02303995,0,0,0.01470022,26.360882,37.040176)" gradientUnits="userSpaceOnUse" xlink:href="#linearGradient5060"/><linearGradient id="linearGradient5060"><stop id="stop5062" offset="0" stop-color="#000" stop-opacity="1"/><stop id="stop5064" offset="1" stop-color="#000" stop-opacity="0"/></linearGradient><radialGradient id="radialGradient3074" cx="605.714" cy="486.648" r="117.143" fx="605.714" fy="486.648" gradientTransform="matrix(-0.02303994,0,0,0.01470022,21.62311,37.040176)" gradientUnits="userSpaceOnUse" xlink:href="#linearGradient5060"/><linearGradient id="linearGradient5048"><stop id="stop5050" offset="0" stop-color="#000" stop-opacity="0"/><stop id="stop5056" offset=".5" stop-color="#000" stop-opacity="1"/><stop id="stop5052" offset="1" stop-color="#000" stop-opacity="0"/></linearGradient><linearGradient id="linearGradient3360" x1="302.857" x2="302.857" y1="366.648" y2="609.505" gradientTransform="matrix(0.06732488,0,0,0.01470022,-0.3411391,37.040146)" gradientUnits="userSpaceOnUse" xlink:href="#linearGradient5048"/></defs><metadata id="metadata3367"/><g id="layer1"><rect id="rect2879" width="32.508" height="3.57" x="7.738" y="42.43" fill="url(#linearGradient3360)" fill-opacity="1" fill-rule="nonzero" stroke="none" stroke-width="1" display="inline" opacity=".3" overflow="visible" visibility="visible" style="marker:none"/><path id="path2881" fill="url(#radialGradient3074)" fill-opacity="1" fill-rule="nonzero" stroke="none" stroke-width="1" d="m 7.7378475,42.430102 c 0,0 0,3.569856 0,3.569856 -1.1865002,0.0067 -2.8683795,-0.799823 -2.8683795,-1.785158 0,-0.985333 1.3240446,-1.784697 2.8683795,-1.784698 z" display="inline" opacity=".3" overflow="visible" visibility="visible" style="marker:none"/><path id="path2883" fill="url(#radialGradient3071)" fill-opacity="1" fill-rule="nonzero" stroke="none" stroke-width="1" d="m 40.246148,42.430102 c 0,0 0,3.569856 0,3.569856 1.1865,0.0067 2.86838,-0.799823 2.86838,-1.785158 0,-0.985333 -1.324045,-1.784697 -2.86838,-1.784698 z" display="inline" opacity=".3" overflow="visible" visibility="visible" style="marker:none"/><path id="path4160" fill="url(#linearGradient3066)" fill-opacity="1" stroke="url(#linearGradient3068)" stroke-dasharray="none" stroke-dashoffset="0" stroke-linecap="butt" stroke-linejoin="round" stroke-miterlimit="4" stroke-opacity="1" stroke-width="1" d="m 6.4999609,0.49719839 c 8.0202951,0 16.0405901,0 24.0608861,0 1.406933,0.4746531 8.965454,5.88220471 10.939195,9.62640661 0,11.459733 0,22.919465 0,34.379198 -11.666694,0 -23.333387,0 -35.0000811,0 0,-14.668535 0,-29.33707 0,-44.00560461 z" display="inline"/><path id="path4191" fill="url(#radialGradient3063)" fill-opacity="1" d="m 7.3617017,44 c -0.199297,0 -0.361702,-0.175459 -0.361702,-0.39078 l 0,-42.2040502 c 0,-0.2157088 0.162405,-0.3907775 0.361702,-0.3907775 C 14.844793,1.122407 23.137385,0.85281719 30.611384,1.0412869 L 40.894021,9.907312 41,43.60922 C 41,43.824541 40.837957,44 40.638297,44 L 7.3617017,44 z"/><path id="path2435" fill="none" stroke="url(#linearGradient3060)" stroke-dasharray="none" stroke-dashoffset="0" stroke-linecap="butt" stroke-linejoin="round" stroke-miterlimit="4" stroke-opacity="1" stroke-width="1" d="m 40.500039,10.258811 c 0,10.949037 0,22.31441 0,33.263447 -11.000026,0 -22.000052,0 -33.0000781,0 0,-14.014841 0,-28.029681 0,-42.0445216 7.5619931,0 15.3043341,0 22.8663281,0" display="inline" opacity=".6"/><path id="path12038" fill="#000" fill-opacity="1" fill-rule="evenodd" stroke="none" d="m 28.617256,0.92125799 c 4.282522,0 2.15325,8.48317101 2.15325,8.48317101 0,0 10.357642,-1.8023464 10.357642,2.818745 0,-2.609724 -11.302304,-10.7285959 -12.510892,-11.30191601 z" display="inline" filter="url(#filter3212)" opacity=".4"/><path id="path4474" fill="url(#linearGradient3056)" fill-opacity="1" fill-rule="evenodd" stroke="none" d="m 28.617256,0.92125799 c 3.186493,0 2.33576,7.66187851 2.33576,7.66187851 0,0 10.175132,-0.9810539 10.175132,3.6400375 0,-1.125939 0.08591,-1.932245 -0.133777,-2.283593 -1.578313,-2.5241788 -8.395516,-8.1884002 -10.8573,-8.9307883 -0.184222,-0.0555547 -0.592704,-0.0875347 -1.519815,-0.0875347 z" display="inline"/><g id="g3015" transform="translate(17,17)"><path id="path23417-7" fill="url(#radialGradient3434)" fill-opacity="1" fill-rule="evenodd" stroke="none" stroke-width="2" d="M 31,26.499999 C 31.000773,28.985213 24.284818,31 16,31 7.7151822,31 0.9992275,28.985213 1.0000001,26.499999 0.9992275,24.014787 7.7151822,22 16,22 c 8.284818,0 15.000773,2.014787 15,4.499999 z" display="inline" opacity=".3" overflow="visible" visibility="visible" style="marker:none"/><path id="path2781" fill="url(#linearGradient3431)" fill-rule="nonzero" stroke="none" d="M 29.5,16 C 29.5,8.5170749 23.482924,2.5000004 16,2.5000004 8.5170738,2.5000004 2.5,8.5170755 2.5,16 c -1.3e-6,7.482925 6.0170745,13.5 13.5,13.5 7.482924,-1e-6 13.5,-6.017074 13.5,-13.5 z m -8.231707,0 c 0,3.044415 -2.223878,5.268293 -5.268293,5.268293 -3.044414,0 -5.268293,-2.223878 -5.268293,-5.268293 0,-3.044414 2.223879,-5.268293 5.268293,-5.268293 3.044415,0 5.268293,2.223879 5.268293,5.268293 z"/><path id="path2474" fill="#fff" fill-opacity="1" fill-rule="nonzero" stroke="none" stroke-width="1" d="m 16,10.731707 c -2.908097,0 -5.268293,2.360196 -5.268293,5.268293 0,2.908098 2.360196,5.268293 5.268293,5.268293 2.908098,0 5.268293,-2.360195 5.268293,-5.268293 0,-2.908097 -2.360195,-5.268293 -5.268293,-5.268293 z m 0,2.634147 c 1.454049,0 2.634147,1.180098 2.634147,2.634146 0,1.454049 -1.180098,2.634147 -2.634147,2.634147 -1.454048,0 -2.634146,-1.180098 -2.634146,-2.634147 0,-1.454048 1.180098,-2.634146 2.634146,-2.634146 z" display="inline" enable-background="accumulate" opacity=".5" overflow="visible" visibility="visible" style="marker:none"/><g id="g3527" transform="matrix(0.6585366,0,0,0.6585366,0.195122,0.1951224)"><path id="path3296" fill="url(#linearGradient3446)" fill-opacity="1" fill-rule="nonzero" stroke="none" d="m 24,3.5 c -2.975804,0 -5.797406,0.6208152 -8.34375,1.75 L 20.625,16.34375 C 21.660403,15.885186 22.795334,15.625 24,15.625 c 0.03206,0 0.06178,-3.6e-4 0.09375,0 l 0,-12.125 C 24.06248,3.4998614 24.0313,3.5 24,3.5 z" opacity=".8" transform="matrix(0.9996011,0.02824295,-0.02824295,0.9996011,0.6924114,-0.6708346)"/><path id="path3308" fill="url(#linearGradient3448)" fill-opacity="1" fill-rule="nonzero" stroke="none" d="m 19.597283,3.9975155 c -2.9067,0.6375811 -5.529765,1.8485223 -7.775043,3.4970525 l 7.230257,9.771547 c 0.913109,-0.669755 1.965938,-1.167064 3.142629,-1.425169 0.03132,-0.0069 0.06026,-0.01359 0.09157,-0.02009 L 19.688856,3.9774292 c -0.03058,0.00656 -0.061,0.013379 -0.09157,0.020086 z" opacity=".8"/><path id="path3310" fill="url(#linearGradient3450)" fill-opacity="1" fill-rule="nonzero" stroke="none" d="M 14.558173,5.8448691 C 11.915535,7.2130345 9.6952631,9.061613 7.9531621,11.235092 l 9.5129549,7.567261 c 0.70865,-0.883264 1.596891,-1.636119 2.666685,-2.18998 0.02847,-0.01474 0.05469,-0.02872 0.08325,-0.0431 L 14.641427,5.8017664 c -0.02783,0.014254 -0.05545,0.02871 -0.08325,0.043103 z" opacity=".8"/><path id="path3312" fill="url(#linearGradient3452)" fill-opacity="1" fill-rule="nonzero" stroke="none" d="M 10.168897,8.9334932 C 7.970412,10.939005 6.3042413,13.299243 5.1840387,15.849551 L 16.331399,20.69683 c 0.455898,-1.036579 1.119019,-1.993675 2.009011,-2.805547 0.02369,-0.02161 0.0454,-0.0419 0.06926,-0.06318 L 10.238158,8.8703115 c -0.0232,0.020972 -0.04613,0.042084 -0.06926,0.063182 z" opacity=".8"/><path id="path3314" fill="url(#linearGradient3454)" fill-opacity="1" fill-rule="nonzero" stroke="none" d="m 6.78125,12.96875 c -0.016978,0.02626 -0.045621,0.06739 -0.0625,0.09375 -1.1482224,1.793482 -1.9616625,3.681269 -2.5,5.625 l 11.75,3.125 C 16.184264,21.049497 16.486796,20.297733 16.9375,19.59375 16.95479,19.56675 16.98246,19.52673 17,19.5 L 6.78125,12.96875 z" opacity=".8"/></g><g id="g3642" opacity=".8" transform="matrix(-0.6585366,0,0,-0.6585366,31.804879,31.804879)"><path id="path3644" fill="url(#linearGradient3436)" fill-opacity="1" fill-rule="nonzero" stroke="none" d="m 24,3.5 c -2.975804,0 -5.797406,0.6208152 -8.34375,1.75 L 20.625,16.34375 C 21.660403,15.885186 22.795334,15.625 24,15.625 c 0.03206,0 0.06178,-3.6e-4 0.09375,0 l 0,-12.125 C 24.06248,3.4998614 24.0313,3.5 24,3.5 z" opacity=".8" transform="matrix(0.9996011,0.02824295,-0.02824295,0.9996011,0.6924114,-0.6708346)"/><path id="path3646" fill="url(#linearGradient3438)" fill-opacity="1" fill-rule="nonzero" stroke="none" d="m 19.597283,3.9975155 c -2.9067,0.6375811 -5.529765,1.8485223 -7.775043,3.4970525 l 7.230257,9.771547 c 0.913109,-0.669755 1.965938,-1.167064 3.142629,-1.425169 0.03132,-0.0069 0.06026,-0.01359 0.09157,-0.02009 L 19.688856,3.9774292 c -0.03058,0.00656 -0.061,0.013379 -0.09157,0.020086 z" opacity=".8"/><path id="path3648" fill="url(#linearGradient3440)" fill-opacity="1" fill-rule="nonzero" stroke="none" d="M 14.558173,5.8448691 C 11.915535,7.2130345 9.6952631,9.061613 7.9531621,11.235092 l 9.5129549,7.567261 c 0.70865,-0.883264 1.596891,-1.636119 2.666685,-2.18998 0.02847,-0.01474 0.05469,-0.02872 0.08325,-0.0431 L 14.641427,5.8017664 c -0.02783,0.014254 -0.05545,0.02871 -0.08325,0.043103 z" opacity=".8"/><path id="path3650" fill="url(#linearGradient3442)" fill-opacity="1" fill-rule="nonzero" stroke="none" d="M 10.168897,8.9334932 C 7.970412,10.939005 6.3042413,13.299243 5.1840387,15.849551 L 16.331399,20.69683 c 0.455898,-1.036579 1.119019,-1.993675 2.009011,-2.805547 0.02369,-0.02161 0.0454,-0.0419 0.06926,-0.06318 L 10.238158,8.8703115 c -0.0232,0.020972 -0.04613,0.042084 -0.06926,0.063182 z" opacity=".8"/><path id="path3652" fill="url(#linearGradient3444)" fill-opacity="1" fill-rule="nonzero" stroke="none" d="m 6.78125,12.96875 c -0.016978,0.02626 -0.045621,0.06739 -0.0625,0.09375 -1.1482224,1.793482 -1.9616625,3.681269 -2.5,5.625 l 11.75,3.125 C 16.184264,21.049497 16.486796,20.297733 16.9375,19.59375 16.95479,19.56675 16.98246,19.52673 17,19.5 L 6.78125,12.96875 z" opacity=".8"/></g><path id="path2787" fill="none" stroke="url(#linearGradient3412)" stroke-miterlimit="4" stroke-opacity="1" stroke-width="1" d="M 15.999999,3.4999998 C 9.0714285,3.4999998 3.4999996,9.0714298 3.4999996,16 c 0,6.928573 5.5714289,12.500001 12.4999994,12.500001 6.928572,0 12.5,-5.571428 12.5,-12.500001 0,-6.9285702 -5.571428,-12.5000002 -12.5,-12.5000002 l 0,0 0,0 z" opacity=".5"/><path id="path3287" fill="none" stroke="url(#linearGradient3409)" stroke-miterlimit="4" stroke-opacity="1" stroke-width="1" d="M 16,2.5000004 C 8.5170743,2.5000004 2.5,8.517076 2.5,16 2.5,23.482926 8.517075,29.5 16,29.5 23.482925,29.5 29.499999,23.482926 29.499999,16 29.499998,8.5170767 23.482926,2.5000004 16,2.5000004 z"/><path id="path3281" fill="none" stroke="url(#linearGradient3406)" stroke-miterlimit="4" stroke-opacity="1" stroke-width="1" d="M 15.999999,9.4999999 C 12.397142,9.4999999 9.5,12.397142 9.5,15.999999 9.5,19.602857 12.397142,22.5 15.999999,22.5 c 3.60286,0 6.5,-2.897143 6.5,-6.500001 0,-3.602857 -2.89714,-6.4999991 -6.5,-6.4999991 l 0,0 0,0 z" opacity=".8"/><path id="path3418" fill="none" stroke="url(#linearGradient3427)" stroke-dasharray="none" stroke-dashoffset="0" stroke-linecap="butt" stroke-linejoin="round" stroke-miterlimit="4" stroke-opacity="1" stroke-width="1" d="M 15.999999,10.5 C 12.964,10.5 10.5,12.964001 10.5,16 c 0,3.036 2.464,5.5 5.499999,5.5 3.036,0 5.5,-2.464 5.5,-5.5 0,-3.035999 -2.464,-5.5 -5.5,-5.5 z m 0,2.75 c 1.518001,0 2.75,1.232001 2.75,2.75 0,1.518001 -1.231999,2.75 -2.75,2.75 -1.517999,0 -2.75,-1.231999 -2.75,-2.75 0,-1.517999 1.232001,-2.75 2.75,-2.75 z" display="inline" enable-background="accumulate" overflow="visible" visibility="visible" style="marker:none"/></g><g id="layer1-7" transform="translate(7.06245,21)"><path id="path2621" fill="url(#radialGradient3932)" fill-opacity="1" fill-rule="nonzero" stroke="none" stroke-width="1" d="M 0.66255,20.882198 C 0.66255,22.604113 5.738499,24 12,24 c 6.261501,0 11.337451,-1.395887 11.33745,-3.117802 1e-6,-1.721915 -5.075949,-3.117801 -11.33745,-3.117801 -6.261501,0 -11.33745,1.395886 -11.33745,3.117801 l 0,0 z" display="inline" opacity=".163" overflow="visible" visibility="visible" style="marker:none"/><path id="path2624" fill="url(#linearGradient3927)" fill-opacity="1" fill-rule="nonzero" stroke="url(#linearGradient3929)" stroke-dasharray="none" stroke-dashoffset="0" stroke-linecap="round" stroke-linejoin="round" stroke-miterlimit="4" stroke-opacity="1" stroke-width=".977" d="m 10.499999,1.4884489 12.011552,10.5379601 -12.011552,10.485143 0,-5.011552 -9.011551,0 0,-11 9.011551,0 0,-5.0115511 0,0 z" display="inline" overflow="visible" visibility="visible" style="marker:none"/><path id="path2626" fill="none" stroke="url(#linearGradient3924)" stroke-dasharray="none" stroke-dashoffset="0" stroke-linecap="butt" stroke-linejoin="miter" stroke-miterlimit="4" stroke-opacity="1" stroke-width="1" d="M 11.499999,3.5938361 21.017235,12 l -9.517236,8.363535 0,-3.863535 -9,0 0,-9 9,0 0,-3.9061639 0,0 z" display="inline" opacity=".4" overflow="visible" visibility="visible" style="marker:none"/></g></g></svg>