<svg xmlns="http://www.w3.org/2000/svg" xmlns:svg="http://www.w3.org/2000/svg" xmlns:xlink="http://www.w3.org/1999/xlink" id="svg3314" width="48" height="48" version="1.0"><metadata id="metadata49"/><defs id="defs3316"><linearGradient id="linearGradient3215"><stop id="stop3217" offset="0" stop-color="#e78780" stop-opacity="1"/><stop id="stop3219" offset="1" stop-color="#d35b54" stop-opacity="0"/></linearGradient><radialGradient id="radialGradient2506" cx="605.714" cy="486.648" r="117.143" fx="605.714" fy="486.648" gradientTransform="matrix(-6.553443e-2,0,0,2.470588e-2,-21.829255,10.577352)" gradientUnits="userSpaceOnUse" xlink:href="#linearGradient5060-6"/><linearGradient id="linearGradient5060-6"><stop id="stop5062-3" offset="0" stop-color="#000" stop-opacity="1"/><stop id="stop5064-1" offset="1" stop-color="#000" stop-opacity="0"/></linearGradient><radialGradient id="radialGradient2504" cx="605.714" cy="486.648" r="117.143" fx="605.714" fy="486.648" gradientTransform="matrix(6.553443e-2,0,0,2.470588e-2,-69.175497,10.577352)" gradientUnits="userSpaceOnUse" xlink:href="#linearGradient5060-6"/><linearGradient id="linearGradient5048-7"><stop id="stop5050-5" offset="0" stop-color="#000" stop-opacity="0"/><stop id="stop5056-9" offset=".5" stop-color="#000" stop-opacity="1"/><stop id="stop5052-6" offset="1" stop-color="#000" stop-opacity="0"/></linearGradient><linearGradient id="linearGradient2501" x1="302.857" x2="302.857" y1="366.648" y2="609.505" gradientTransform="matrix(6.553443e-2,0,0,2.470588e-2,-69.188394,10.577352)" gradientUnits="userSpaceOnUse" xlink:href="#linearGradient5048-7"/><linearGradient id="linearGradient2490"><stop id="stop2492" offset="0" stop-color="#791235" stop-opacity="1"/><stop id="stop2494" offset="1" stop-color="#dd3b27" stop-opacity="1"/></linearGradient><linearGradient id="linearGradient3242"><stop id="stop3244" offset="0" stop-color="#f89b7e" stop-opacity="1"/><stop id="stop3246" offset=".12" stop-color="#e35d4f" stop-opacity="1"/><stop id="stop3248" offset=".811" stop-color="#c6262e" stop-opacity="1"/><stop id="stop3250" offset="1" stop-color="#690b2c" stop-opacity="1"/></linearGradient><linearGradient id="linearGradient3333"><stop id="stop3335" offset="0" stop-color="#fff" stop-opacity="1"/><stop id="stop3337" offset="1" stop-color="#fff" stop-opacity="0"/></linearGradient><linearGradient id="linearGradient8265-821-176-38-919-66-249-7-7"><stop id="stop2687-1-9" offset="0" stop-color="#fff" stop-opacity="1"/><stop id="stop2689-5-4" offset="1" stop-color="#fff" stop-opacity="0"/></linearGradient><linearGradient id="linearGradient2428" x1="16.626" x2="20.055" y1="15.298" y2="24.628" gradientTransform="matrix(0.9986003,0,0,1.0843613,-1.298513e-2,3.8058986)" gradientUnits="userSpaceOnUse" xlink:href="#linearGradient8265-821-176-38-919-66-249-7-7"/><linearGradient id="linearGradient2431" x1="25.525" x2="25.525" y1="30.189" y2="15.738" gradientTransform="translate(0,-2.6324579)" gradientUnits="userSpaceOnUse" spreadMethod="reflect" xlink:href="#linearGradient3215"/><linearGradient id="linearGradient2434" x1="25.577" x2="25.577" y1="15" y2="44.001" gradientTransform="matrix(0.9999999,0,0,1.1071427,7.4171649e-7,-5.6607243)" gradientUnits="userSpaceOnUse" xlink:href="#linearGradient3333"/><linearGradient id="linearGradient2437" x1="20.053" x2="20.053" y1="8.163" y2="48.072" gradientTransform="translate(0,-0.9999999)" gradientUnits="userSpaceOnUse" xlink:href="#linearGradient3242"/><linearGradient id="linearGradient2439" x1="28.103" x2="28.103" y1="45" y2="14.038" gradientTransform="matrix(0.9999999,0,0,1.1014118,-2.709852e-7,-5.5128101)" gradientUnits="userSpaceOnUse" xlink:href="#linearGradient2490"/></defs><g id="g3511" stroke-dasharray="none" stroke-miterlimit="4" stroke-width="1.03" transform="matrix(1.0008068,0,0,1.0008068,69.539093,20.343603)"><rect id="rect2512" width="31.644" height="6" x="-61.324" y="19.636" fill="url(#linearGradient2501)" fill-opacity="1" fill-rule="nonzero" stroke="none" stroke-dasharray="none" stroke-miterlimit="4" stroke-width="1.03" display="inline" opacity=".402" overflow="visible" visibility="visible" style="marker:none"/><path id="path2514" fill="url(#radialGradient2504)" fill-opacity="1" fill-rule="nonzero" stroke="none" stroke-dasharray="none" stroke-miterlimit="4" stroke-width="1.03" d="M -29.680498,19.635919 C -29.680498,19.635919 -29.680498,25.635588 -29.680498,25.635588 C -26.305637,25.646878 -21.521727,24.291367 -21.521729,22.635367 C -21.521729,20.979368 -25.287819,19.635919 -29.680498,19.635919 z" display="inline" opacity=".402" overflow="visible" visibility="visible" style="marker:none"/><path id="path2516" fill="url(#radialGradient2506)" fill-opacity="1" fill-rule="nonzero" stroke="none" stroke-dasharray="none" stroke-miterlimit="4" stroke-width="1.03" d="M -61.324263,19.635919 C -61.324263,19.635919 -61.324263,25.635588 -61.324263,25.635588 C -64.699124,25.646878 -69.483034,24.291367 -69.483034,22.635367 C -69.483034,20.979368 -65.716943,19.635919 -61.324263,19.635919 z" display="inline" opacity=".402" overflow="visible" visibility="visible" style="marker:none"/></g><rect stroke-miterlimit="4" style="marker:none" id="rect2396" width="45" height="33" x="1.5" y="10.5" fill="url(#linearGradient2437)" fill-opacity="1" fill-rule="evenodd" stroke="url(#linearGradient2439)" stroke-dasharray="none" stroke-dashoffset="0" stroke-linecap="square" stroke-linejoin="round" stroke-opacity="1" stroke-width="1" marker-end="none" marker-mid="none" marker-start="none" display="inline" enable-background="accumulate" overflow="visible" rx="1" ry="1" visibility="visible"/><rect stroke-miterlimit="4" style="marker:none" id="rect3331" width="43" height="31" x="2.5" y="11.5" fill="none" fill-opacity="1" fill-rule="evenodd" stroke="url(#linearGradient2434)" stroke-dasharray="none" stroke-dashoffset="0" stroke-linecap="square" stroke-linejoin="miter" stroke-opacity="1" stroke-width="1" marker-end="none" marker-mid="none" marker-start="none" display="inline" enable-background="accumulate" opacity=".4" overflow="visible" rx=".083" ry=".083" visibility="visible"/><path id="path3341" fill="none" fill-opacity="1" fill-rule="evenodd" stroke="url(#linearGradient2431)" stroke-dasharray="none" stroke-dashoffset="0" stroke-linecap="butt" stroke-linejoin="miter" stroke-miterlimit="4" stroke-opacity="1" stroke-width="1" marker-end="none" marker-mid="none" marker-start="none" d="M 3.236705,13.730544 L 24,32.367542 L 45.077092,13.60522 M 18.65625,27.867542 L 5.1806904,41.5 L 18.65625,27.867542 z M 29.375,27.930042 L 42.94431,41.249352 L 29.375,27.930042 z" display="inline" enable-background="accumulate" opacity="1" overflow="visible" visibility="visible" style="marker:none"/><path id="path3333" fill="url(#linearGradient2428)" fill-opacity="1" fill-rule="evenodd" stroke="none" stroke-dasharray="none" stroke-miterlimit="4" stroke-width="1" d="M 2.4745419,10 C 1.6524134,10 1.0015208,10.760388 1.0015208,11.5 L 1.0168213,30 C 2.3400497,29.979857 45.994386,22.627577 46.998751,22.273924 L 46.998751,11.5 C 46.998751,10.934663 46.355788,10 45.643918,10 L 2.4745419,10 z" opacity=".2"/><g id="g3243" transform="translate(51.075104,1.5686179)"><path id="path3295" fill="#000" fill-opacity="1" stroke="none" stroke-dasharray="none" stroke-linecap="round" stroke-linejoin="round" stroke-miterlimit="4" stroke-opacity="1" stroke-width=".5" d="M -29.450843,12.554367 C -28.887858,18.053692 -28.242987,23.515169 -27.763742,29.036034 C -27.281714,29.036034 -26.716351,29.036034 -26.234323,29.036034 C -25.836803,23.734252 -25.195626,18.464507 -24.733102,13.169298 C -24.49733,11.915467 -25.141086,10.426778 -26.465101,10.122153 C -27.773429,9.7396376 -29.235155,10.686867 -29.409124,12.039908 C -29.437976,12.20976 -29.450848,12.382146 -29.450842,12.554367 L -29.450843,12.554367 z M -29.617699,34.913073 C -29.677232,36.550012 -27.876067,37.83321 -26.338221,37.314237 C -24.848708,36.93409 -24.064158,35.061948 -24.827537,33.731179 C -25.510892,32.355537 -27.514793,31.902288 -28.667544,32.955124 C -29.250238,33.433846 -29.636457,34.148513 -29.617698,34.913074 L -29.617699,34.913073 z" font-family="Georgia" font-size="62.458" font-stretch="normal" font-style="normal" font-variant="normal" font-weight="normal" opacity=".2" text-anchor="start" writing-mode="lr-tb" style="text-align:start;line-height:125%"/><path id="text2315" fill="#fff" fill-opacity="1" stroke="none" stroke-dasharray="none" stroke-linecap="round" stroke-linejoin="round" stroke-miterlimit="4" stroke-opacity="1" stroke-width=".5" d="M -29.450843,13.554676 C -28.887858,19.054001 -28.242987,24.515478 -27.763742,30.036343 C -27.281714,30.036343 -26.716351,30.036343 -26.234323,30.036343 C -25.836803,24.734561 -25.195626,19.464816 -24.733102,14.169607 C -24.49733,12.915776 -25.141086,11.427087 -26.465101,11.122462 C -27.773429,10.739947 -29.235155,11.687176 -29.409124,13.040217 C -29.437976,13.210069 -29.450848,13.382455 -29.450842,13.554676 L -29.450843,13.554676 z M -29.617699,35.913382 C -29.677232,37.550321 -27.876067,38.833519 -26.338221,38.314546 C -24.848708,37.934399 -24.064158,36.062257 -24.827537,34.731488 C -25.510892,33.355846 -27.514793,32.902597 -28.667544,33.955433 C -29.250238,34.434155 -29.636457,35.148822 -29.617698,35.913383 L -29.617699,35.913382 z" font-family="Georgia" font-size="62.458" font-stretch="normal" font-style="normal" font-variant="normal" font-weight="normal" text-anchor="start" writing-mode="lr-tb" style="text-align:start;line-height:125%"/></g></svg>