<svg xmlns="http://www.w3.org/2000/svg" xmlns:svg="http://www.w3.org/2000/svg" xmlns:xlink="http://www.w3.org/1999/xlink" id="svg2436" width="48" height="48"><defs id="defs2438"><linearGradient id="linearGradient2399" x1="46.81" x2="22.683" y1="-3.761" y2="36.569" gradientUnits="userSpaceOnUse" xlink:href="#linearGradient4222"/><linearGradient id="linearGradient4222"><stop id="stop4224" offset="0" stop-color="#fff" stop-opacity="1"/><stop id="stop4226" offset="1" stop-color="#fff" stop-opacity="0"/></linearGradient><linearGradient id="linearGradient2397" x1="54.57" x2="20.825" y1="-14.909" y2="40.394" gradientUnits="userSpaceOnUse" xlink:href="#linearGradient4222"/><linearGradient id="linearGradient2395" x1="33.748" x2="33.748" y1="27.631" y2="12.5" gradientUnits="userSpaceOnUse" xlink:href="#linearGradient5106"/><linearGradient id="linearGradient5106"><stop id="stop5108" offset="0" stop-color="#729fcf" stop-opacity="1"/><stop id="stop5110" offset="1" stop-color="#386ea6" stop-opacity="1"/></linearGradient><linearGradient id="linearGradient2393" x1="15.748" x2="15.748" y1="27.193" y2="12.5" gradientUnits="userSpaceOnUse" xlink:href="#linearGradient5106"/></defs><metadata id="metadata2441"/><g id="layer1"><g id="g2379" transform="matrix(-1,0,0,1,48.747885,0)"><path id="path8027" fill="url(#linearGradient2393)" fill-opacity="1" fill-rule="evenodd" stroke="#204a87" stroke-dashoffset=".7" stroke-linecap="square" stroke-linejoin="miter" stroke-miterlimit="4" stroke-opacity="1" stroke-width="1" d="M 6.5,35 L 6.5,13.000461 L 24.99577,24.010194 L 6.5,35 z" transform="matrix(1,0,0,-1,0,48.000461)"/><path id="path8033" fill="url(#linearGradient2395)" fill-opacity="1" fill-rule="evenodd" stroke="#204a87" stroke-dashoffset=".7" stroke-linecap="square" stroke-linejoin="miter" stroke-miterlimit="4" stroke-opacity="1" stroke-width="1" d="M 24.5,35 L 24.5,13.000461 L 42.99577,24.010194 L 24.5,35 z" transform="matrix(1,0,0,-1,0,48.000461)"/><path id="path8035" fill="none" fill-opacity="1" fill-rule="evenodd" stroke="url(#linearGradient2397)" stroke-dashoffset=".7" stroke-linecap="square" stroke-linejoin="miter" stroke-miterlimit="4" stroke-opacity="1" stroke-width="1" d="M 22.5,14.78125 L 22.5,33.21875 L 38.03125,24 L 22.5,14.78125 z" transform="matrix(1,0,0,-1,3,48.000461)"/><path id="path8029" fill="none" fill-opacity="1" fill-rule="evenodd" stroke="url(#linearGradient2399)" stroke-dashoffset=".7" stroke-linecap="square" stroke-linejoin="miter" stroke-miterlimit="4" stroke-opacity="1" stroke-width="1" d="M 22.5,14.78125 L 22.5,33.21875 L 38.03125,24 L 22.5,14.78125 z" transform="matrix(1,0,0,-1,-15,48.000461)"/></g></g></svg>