<svg xmlns="http://www.w3.org/2000/svg" xmlns:svg="http://www.w3.org/2000/svg" xmlns:xlink="http://www.w3.org/1999/xlink" id="svg3367" width="48" height="48" version="1.0"><defs id="defs3369"><linearGradient id="linearGradient3673"><stop id="stop3675" offset="0" stop-color="#ececec" stop-opacity="1"/><stop id="stop3677" offset="1" stop-color="#979797" stop-opacity="1"/></linearGradient><linearGradient id="linearGradient23419"><stop id="stop23421" offset="0" stop-color="#000" stop-opacity="1"/><stop id="stop23423" offset="1" stop-color="#000" stop-opacity="0"/></linearGradient><linearGradient id="linearGradient3772"><stop id="stop3774" offset="0" stop-color="#b4b4b4" stop-opacity="1"/><stop id="stop3776" offset="1" stop-color="#969696" stop-opacity="1"/></linearGradient><linearGradient id="linearGradient3263" x1="12.274" x2="35.391" y1="32.416" y2="14.203" gradientUnits="userSpaceOnUse"><stop id="stop3265" offset="0" stop-color="#dedbde" stop-opacity="1"/><stop id="stop3267" offset=".5" stop-color="#e6e6e6" stop-opacity="1"/><stop id="stop3269" offset="1" stop-color="#d2d2d2" stop-opacity="1"/></linearGradient><linearGradient id="linearGradient3428"><stop id="stop3430" offset="0" stop-color="#aaa" stop-opacity="1"/><stop id="stop3432" offset="1" stop-color="#d4d4d4" stop-opacity="1"/></linearGradient><linearGradient id="linearGradient3354" x1="10.609" x2="9.73" y1="17.886" y2="20.613" gradientUnits="userSpaceOnUse" spreadMethod="reflect" xlink:href="#linearGradient3519"/><linearGradient id="linearGradient3352" x1="12.372" x2="14.609" y1="16.188" y2="13.462" gradientUnits="userSpaceOnUse" spreadMethod="reflect" xlink:href="#linearGradient3511"/><linearGradient id="linearGradient3350" x1="14.085" x2="16.994" y1="13.046" y2="10.732" gradientUnits="userSpaceOnUse" spreadMethod="reflect" xlink:href="#linearGradient3503"/><linearGradient id="linearGradient3348" x1="17.495" x2="21.047" y1="11.2" y2="9.796" gradientUnits="userSpaceOnUse" spreadMethod="reflect" xlink:href="#linearGradient3495"/><linearGradient id="linearGradient3346" x1="20.58" x2="24.274" y1="10.775" y2="9.862" gradientUnits="userSpaceOnUse" spreadMethod="reflect" xlink:href="#linearGradient3487"/><linearGradient id="linearGradient6036"><stop id="stop6038" offset="0" stop-color="#fff" stop-opacity="1"/><stop id="stop6040" offset="1" stop-color="#fff" stop-opacity="0"/></linearGradient><linearGradient id="linearGradient3519"><stop id="stop3521" offset="0" stop-color="#fcd9cd" stop-opacity="1"/><stop id="stop3523" offset="1" stop-color="#fcd9cd" stop-opacity="0"/></linearGradient><linearGradient id="linearGradient3319" x1="10.609" x2="9.73" y1="17.886" y2="20.613" gradientUnits="userSpaceOnUse" spreadMethod="reflect" xlink:href="#linearGradient3519"/><linearGradient id="linearGradient3511"><stop id="stop3513" offset="0" stop-color="#ebeec7" stop-opacity="1"/><stop id="stop3515" offset="1" stop-color="#ebeec7" stop-opacity="0"/></linearGradient><linearGradient id="linearGradient3317" x1="12.372" x2="14.609" y1="16.188" y2="13.462" gradientUnits="userSpaceOnUse" spreadMethod="reflect" xlink:href="#linearGradient3511"/><linearGradient id="linearGradient3503"><stop id="stop3505" offset="0" stop-color="#c4ebdd" stop-opacity="1"/><stop id="stop3507" offset="1" stop-color="#c4ebdd" stop-opacity="0"/></linearGradient><linearGradient id="linearGradient3315" x1="14.085" x2="16.994" y1="13.046" y2="10.732" gradientUnits="userSpaceOnUse" spreadMethod="reflect" xlink:href="#linearGradient3503"/><linearGradient id="linearGradient3495"><stop id="stop3497" offset="0" stop-color="#c1cbe4" stop-opacity="1"/><stop id="stop3499" offset="1" stop-color="#c1cbe4" stop-opacity="0"/></linearGradient><linearGradient id="linearGradient3313" x1="17.495" x2="21.047" y1="11.2" y2="9.796" gradientUnits="userSpaceOnUse" spreadMethod="reflect" xlink:href="#linearGradient3495"/><linearGradient id="linearGradient3487"><stop id="stop3489" offset="0" stop-color="#e6cde2" stop-opacity="1"/><stop id="stop3491" offset="1" stop-color="#e6cde2" stop-opacity="0"/></linearGradient><linearGradient id="linearGradient3311" x1="20.58" x2="24.274" y1="10.775" y2="9.862" gradientUnits="userSpaceOnUse" spreadMethod="reflect" xlink:href="#linearGradient3487"/><linearGradient id="linearGradient2453" x1="10.502" x2="48.799" y1="3.61" y2="54.698" gradientTransform="matrix(0.9849664,0,0,0.9849663,0.01902206,-0.6241532)" gradientUnits="userSpaceOnUse" xlink:href="#linearGradient6036"/><linearGradient id="linearGradient2462" x1="18.776" x2="18.203" y1="4.038" y2="45.962" gradientTransform="matrix(0.4293444,0,0,0.4293442,13.546752,13.266392)" gradientUnits="userSpaceOnUse" xlink:href="#linearGradient6036"/><linearGradient id="linearGradient2465" x1="21.448" x2="21.448" y1="15.5" y2="32.509" gradientTransform="matrix(0.9375,0,0,0.9375,1.5,1.5)" gradientUnits="userSpaceOnUse" xlink:href="#linearGradient3428"/><linearGradient id="linearGradient2470" x1="12.274" x2="35.391" y1="32.416" y2="14.203" gradientTransform="matrix(0,1.1714389,-1.1714389,0,51.060244,-4.11454)" gradientUnits="userSpaceOnUse" xlink:href="#linearGradient3263"/><linearGradient id="linearGradient2472" x1="-21.916" x2="-21.916" y1="3" y2="45.033" gradientTransform="translate(50.26506,0)" gradientUnits="userSpaceOnUse" xlink:href="#linearGradient3772"/><radialGradient id="radialGradient2475" cx="23.335" cy="41.636" r="22.627" fx="23.335" fy="41.636" gradientTransform="matrix(0.9722718,0,0,0.2872354,1.3124992,27.540524)" gradientUnits="userSpaceOnUse" xlink:href="#linearGradient23419"/><linearGradient id="linearGradient3658" x1="3.053" x2="3.053" y1="2.19" y2="9.875" gradientTransform="matrix(2.5447729,0,0,2.8624253,37.231977,15.732168)" gradientUnits="userSpaceOnUse" xlink:href="#linearGradient3576"/><linearGradient id="linearGradient3576"><stop id="stop3578" offset="0" stop-color="#ddd" stop-opacity="1"/><stop id="stop3580" offset="1" stop-color="#ccc" stop-opacity="1"/></linearGradient><linearGradient id="linearGradient3642" x1="3.053" x2="3.053" y1="2.19" y2="9.875" gradientTransform="matrix(2.5447729,0,0,2.8624253,19.231977,15.732168)" gradientUnits="userSpaceOnUse" xlink:href="#linearGradient3673"/><linearGradient id="linearGradient2763" x1="12.872" x2="12.872" y1="5.056" y2="21.468" gradientTransform="matrix(1.2108499,0,0,1.1790292,20.082975,19.376465)" gradientUnits="userSpaceOnUse" xlink:href="#linearGradient3522"/><linearGradient id="linearGradient3522"><stop id="stop3524" offset="0" stop-color="#81aac3" stop-opacity="1"/><stop id="stop3526" offset="1" stop-color="#4e82a3" stop-opacity="1"/></linearGradient><linearGradient id="linearGradient2868" x1="302.857" x2="302.857" y1="366.648" y2="609.505" gradientTransform="matrix(0.03816858,0,0,0.01509651,20.237967,38.732952)" gradientUnits="userSpaceOnUse" xlink:href="#linearGradient5048"/><linearGradient id="linearGradient5048"><stop id="stop5050" offset="0" stop-color="#000" stop-opacity="0"/><stop id="stop5056" offset=".5" stop-color="#000" stop-opacity="1"/><stop id="stop5052" offset="1" stop-color="#000" stop-opacity="0"/></linearGradient><radialGradient id="radialGradient2865" cx="605.714" cy="486.648" r="117.143" fx="605.714" fy="486.648" gradientTransform="matrix(0.03816858,0,0,0.01509651,20.245478,38.732952)" gradientUnits="userSpaceOnUse" xlink:href="#linearGradient5060"/><linearGradient id="linearGradient5060"><stop id="stop5062" offset="0" stop-color="#000" stop-opacity="1"/><stop id="stop5064" offset="1" stop-color="#000" stop-opacity="0"/></linearGradient><radialGradient id="radialGradient2862" cx="605.714" cy="486.648" r="117.143" fx="605.714" fy="486.648" gradientTransform="matrix(-0.03816858,0,0,0.01509651,47.820891,38.732952)" gradientUnits="userSpaceOnUse" xlink:href="#linearGradient5060"/><linearGradient id="linearGradient5060-179"><stop id="stop2675" offset="0" stop-color="#000" stop-opacity="1"/><stop id="stop2677" offset="1" stop-color="#000" stop-opacity="0"/></linearGradient><radialGradient id="radialGradient3574" cx="605.714" cy="486.648" r="117.143" fx="605.714" fy="486.648" gradientTransform="matrix(0.03079083,0,0,0.02470588,24.610252,31.941642)" gradientUnits="userSpaceOnUse" xlink:href="#linearGradient5060-179"/></defs><path id="path23417" fill="url(#radialGradient2475)" fill-opacity="1" fill-rule="evenodd" stroke="none" stroke-width="2" d="m 46,39.499867 c 0.0011,3.589753 -9.848934,6.500001 -22,6.500001 -12.151066,0 -22.001133,-2.910248 -21.9999999,-6.500001 C 1.998867,35.910116 11.848934,32.999868 24,32.999868 c 12.151066,0 22.001133,2.910248 22,6.499999 l 0,0 z" display="inline" opacity=".3" overflow="visible" visibility="visible" style="marker:none"/><path id="path2781" fill="url(#linearGradient2470)" fill-rule="nonzero" stroke="url(#linearGradient2472)" stroke-miterlimit="4" stroke-opacity="1" stroke-width="1" d="M 44.5,24 C 44.5,12.637039 35.362959,3.5 24,3.5 12.637038,3.5 3.5000001,12.63704 3.5000001,24 3.4999981,35.36296 12.637039,44.5 24,44.5 35.362958,44.499998 44.5,35.362961 44.5,24 z m -13,0 c 0,4.12813 -3.28927,7.5 -7.5,7.5 -4.29333,0 -7.5,-3.455313 -7.5,-7.5 0,-4.127303 3.041467,-7.5 7.5,-7.5 4.458533,0 7.5,3.45447 7.5,7.5 z"/><path id="path2474" fill="#fff" fill-opacity="1" fill-rule="nonzero" stroke="none" stroke-width="1" d="m 24,16 c -4.416,0 -8,3.584 -8,8 0,4.416 3.584,8 8,8 4.416,0 8,-3.584 8,-8 0,-4.416 -3.584,-8 -8,-8 z m 0,4 c 2.208,0 4,1.792 4,4 0,2.208 -1.792,4 -4,4 -2.208,0 -4,-1.792 -4,-4 0,-2.208 1.792,-4 4,-4 z" display="inline" enable-background="accumulate" opacity=".5" overflow="visible" visibility="visible" style="marker:none"/><path id="path3418" fill="none" stroke="url(#linearGradient2465)" stroke-dasharray="none" stroke-dashoffset="0" stroke-linecap="butt" stroke-linejoin="round" stroke-miterlimit="4" stroke-opacity="1" stroke-width="1" d="m 24,16.5 c -4.14,0 -7.5,3.36 -7.5,7.5 0,4.14 3.36,7.5 7.5,7.5 4.14,0 7.5,-3.36 7.5,-7.5 0,-4.14 -3.36,-7.5 -7.5,-7.5 z m 0,3.75 c 2.07,0 3.75,1.68 3.75,3.75 0,2.07 -1.68,3.75 -3.75,3.75 -2.07,0 -3.75,-1.68 -3.75,-3.75 0,-2.07 1.68,-3.75 3.75,-3.75 z" display="inline" enable-background="accumulate" overflow="visible" visibility="visible" style="marker:none"/><path id="path3281" fill="none" stroke="url(#linearGradient2462)" stroke-miterlimit="4" stroke-opacity="1" stroke-width="1" d="m 24,15.499999 c -4.711429,0 -8.5,3.788571 -8.5,8.5 0,4.711429 3.788571,8.500001 8.5,8.500001 4.711431,0 8.5,-3.788572 8.5,-8.500001 0,-4.711429 -3.788569,-8.5 -8.5,-8.5 l 0,0 0,0 0,0 z" opacity=".8"/><g id="g3527"><path id="path3296" fill="url(#linearGradient3346)" fill-opacity="1" fill-rule="nonzero" stroke="none" d="M 15.856928,5.7307748 20.625,16.34375 C 21.660403,15.885186 22.795334,15.625 24,15.625 c 0.03206,0 0.06178,-3.6e-4 0.09375,0 L 24.10801,4.0047512 c -2.94215,-0.070687 -5.543041,0.6572865 -8.251083,1.7260236 l 10e-7,0 z" opacity=".8" transform="matrix(0.9996011,0.02824295,-0.02824295,0.9996011,0.6924114,-0.6708346)"/><path id="path3308" fill="url(#linearGradient3348)" fill-opacity="1" fill-rule="nonzero" stroke="none" d="m 12.121471,7.9060109 6.931026,9.3601041 c 0.913109,-0.669755 1.965938,-1.167064 3.142629,-1.425169 0.03132,-0.0069 0.06026,-0.01359 0.09157,-0.02009 L 19.857174,4.426276 c -2.888973,0.5613244 -5.31953,1.8556038 -7.735703,3.4797349 l 0,0 z" opacity=".8"/><path id="path3310" fill="url(#linearGradient3350)" fill-opacity="1" fill-rule="nonzero" stroke="none" d="m 8.2523933,11.646535 9.2137237,7.155818 c 0.70865,-0.883264 1.596891,-1.636119 2.666685,-2.18998 0.02847,-0.01474 0.05469,-0.02872 0.08325,-0.0431 L 14.86585,6.2506132 C 12.220599,7.5405321 10.165881,9.452393 8.2523933,11.646535 z" opacity=".8"/><path id="path3312" fill="url(#linearGradient3352)" fill-opacity="1" fill-rule="nonzero" stroke="none" d="m 5.6328855,16.073974 c 7.1748065,2.242248 7.8502625,7.031463 12.7767855,1.754127 L 10.499985,9.1321388 C 8.2787249,11.062747 6.9132871,13.459349 5.6328855,16.073974 z" opacity=".8"/><path id="path3314" fill="url(#linearGradient3354)" fill-opacity="1" fill-rule="nonzero" stroke="none" d="M 7.155289,13.193173 C 5.9722117,14.945185 5.2475768,16.829547 4.6301929,18.837116 L 15.96875,21.8125 C 16.184264,21.049497 16.486796,20.297733 16.9375,19.59375 16.95479,19.56675 16.98246,19.52673 17,19.5 L 7.155289,13.193173 z" opacity=".8"/></g><path id="path3272" fill="none" stroke="url(#linearGradient2453)" stroke-miterlimit="4" stroke-opacity="1" stroke-width="1" d="m 24.000001,4.5000009 c -10.808572,0 -19.5000015,8.6914301 -19.5000015,19.5000001 0,10.808571 8.6914295,19.499998 19.5000015,19.499998 C 34.808573,43.499999 43.5,34.808572 43.5,24.000001 43.5,13.191431 34.808573,4.5000009 24.000001,4.5000009 l 0,0 0,0 z" opacity=".4"/><g id="g3297" transform="matrix(-1,0,0,-1,49.999999,47.990833)"><path id="path3299" fill="url(#linearGradient3311)" fill-opacity="1" fill-rule="nonzero" stroke="none" d="M 15.856928,5.7307748 20.625,16.34375 C 21.660403,15.885186 22.795334,15.625 24,15.625 c 0.03206,0 0.06178,-3.6e-4 0.09375,0 L 24.10801,4.0047512 c -2.94215,-0.070687 -5.543041,0.6572865 -8.251083,1.7260236 l 10e-7,0 z" opacity=".8" transform="matrix(0.9996011,0.02824295,-0.02824295,0.9996011,0.6924114,-0.6708346)"/><path id="path3301" fill="url(#linearGradient3313)" fill-opacity="1" fill-rule="nonzero" stroke="none" d="m 12.121471,7.9060109 6.931026,9.3601041 c 0.913109,-0.669755 1.965938,-1.167064 3.142629,-1.425169 0.03132,-0.0069 0.06026,-0.01359 0.09157,-0.02009 L 19.857174,4.426276 c -2.888973,0.5613244 -5.31953,1.8556038 -7.735703,3.4797349 l 0,0 z" opacity=".8"/><path id="path3303" fill="url(#linearGradient3315)" fill-opacity="1" fill-rule="nonzero" stroke="none" d="m 8.2523933,11.646535 9.2137237,7.155818 c 0.70865,-0.883264 1.596891,-1.636119 2.666685,-2.18998 0.02847,-0.01474 0.05469,-0.02872 0.08325,-0.0431 L 14.86585,6.2506132 C 12.220599,7.5405321 10.165881,9.452393 8.2523933,11.646535 z" opacity=".8"/><path id="path3305" fill="url(#linearGradient3317)" fill-opacity="1" fill-rule="nonzero" stroke="none" d="m 5.6328855,16.073974 c 7.1748065,2.242248 7.8502625,7.031463 12.7767855,1.754127 L 10.499985,9.1321388 C 8.2787249,11.062747 6.9132871,13.459349 5.6328855,16.073974 z" opacity=".8"/><path id="path3307" fill="url(#linearGradient3319)" fill-opacity="1" fill-rule="nonzero" stroke="none" d="M 7.155289,13.193173 C 5.9722117,14.945185 5.2475768,16.829547 4.6301929,18.837116 L 15.96875,21.8125 C 16.184264,21.049497 16.486796,20.297733 16.9375,19.59375 16.95479,19.56675 16.98246,19.52673 17,19.5 L 7.155289,13.193173 z" opacity=".8"/></g><g id="g2872" opacity=".4" transform="matrix(0.9307775,0,0,0.979386,3.3226808,1.053766)"><rect id="rect2768" width="18.43" height="3.666" x="24.818" y="44.268" fill="url(#linearGradient2868)" fill-opacity="1" fill-rule="nonzero" stroke="none" stroke-width="1" display="inline" opacity=".402" overflow="visible" visibility="visible" style="marker:none"/><path id="path2770" fill="url(#radialGradient2865)" fill-opacity="1" fill-rule="nonzero" stroke="none" stroke-width="1" d="m 43.248167,44.268181 c 0,0 0,3.666092 0,3.666092 1.965587,0.0069 4.751834,-0.821384 4.751833,-1.833282 0,-1.011896 -2.193448,-1.83281 -4.751833,-1.83281 z" display="inline" opacity=".402" overflow="visible" visibility="visible" style="marker:none"/><path id="path2772" fill="url(#radialGradient2862)" fill-opacity="1" fill-rule="nonzero" stroke="none" stroke-width="1" d="m 24.818197,44.268181 c 0,0 0,3.666092 0,3.666092 -1.965588,0.0069 -4.751834,-0.821384 -4.751834,-1.833282 0,-1.011896 2.193447,-1.83281 4.751834,-1.83281 z" display="inline" opacity=".402" overflow="visible" visibility="visible" style="marker:none"/><rect id="rect3482" width="1.135" height="1.133" x="24.272" y="43.85" fill="#fff" fill-opacity="1" stroke="none"/><rect id="rect2579" width="1.135" height="1.133" x="42.656" y="43.85" fill="#fff" fill-opacity="1" stroke="none"/></g><path id="path3570" fill="#4d4d4d" fill-opacity="1" fill-rule="nonzero" stroke="#333" stroke-dasharray="none" stroke-dashoffset="0" stroke-linecap="butt" stroke-linejoin="round" stroke-miterlimit="4" stroke-opacity="1" stroke-width="1" d="m 27.5,45.499661 c -0.958616,0 -1.917233,0 -2.875849,0 -0.233002,-0.296005 -0.05582,-0.883697 -0.111186,-1.30275 0,-7.850971 0,-15.701949 0,-23.552922 l 0.03249,-0.101665 0.07869,-0.04198 0,0 c 0.997725,0 1.839016,0 2.836742,0" display="block" overflow="visible" visibility="visible" style="marker:none"/><path id="path2702" fill="#4d4d4d" fill-opacity="1" fill-rule="nonzero" stroke="#333" stroke-dasharray="none" stroke-dashoffset="0" stroke-linecap="butt" stroke-linejoin="round" stroke-miterlimit="4" stroke-opacity="1" stroke-width="1" d="m 42.5,20.5 c 0.967227,0 1.930316,0 2.886179,0 0.135691,0 0.11228,0.785325 0.11228,1.302781 0,7.851187 2e-6,15.702373 2e-6,23.553562 0,0.134055 -0.443979,0.143657 -1.018269,0.143657 -0.651966,0 -1.30393,0 -1.955895,0" display="block" overflow="visible" visibility="visible" style="marker:none"/><rect id="rect2704" width="15" height="25" x="27.5" y="20.5" fill="url(#linearGradient2763)" fill-opacity="1" stroke="#333" stroke-dasharray="none" stroke-dashoffset="0" stroke-linecap="butt" stroke-linejoin="miter" stroke-miterlimit="4" stroke-opacity="1" stroke-width="1" display="inline" rx="0" ry="0"/><path id="rect15660" fill="none" stroke="#fff" stroke-dasharray="none" stroke-dashoffset="0" stroke-linecap="square" stroke-linejoin="round" stroke-miterlimit="4" stroke-opacity="1" stroke-width="1" d="m 28.530107,21.52381 c 4.313285,0 8.626569,0 12.939854,0" display="block" opacity=".3" overflow="visible" visibility="visible" style="marker:none"/><path id="rect3464" fill="url(#linearGradient3642)" fill-opacity="1" stroke="none" d="m 25,22 2,0 0,2 -2,0 0,-2 z m 0,4 2,0 0,2 -2,0 0,-2 z m 0,4 2,0 0,2 -2,0 0,-2 z m 0,4 2,0 0,2 -2,0 0,-2 z m 0,4 2,0 0,2 -2,0 0,-2 z m 0,4 2,0 0,2 -2,0 0,-2 z"/><path id="path4318" fill="none" stroke="#fff" stroke-dasharray="none" stroke-dashoffset="0" stroke-linecap="square" stroke-linejoin="round" stroke-miterlimit="4" stroke-opacity="1" stroke-width="1" d="m 28.500002,33.499999 c 4.333206,0 8.666413,0 12.999621,0" display="block" opacity=".3" overflow="visible" visibility="visible" style="marker:none"/><path id="path4320" fill="#333" stroke="#333" stroke-dasharray="none" stroke-dashoffset="0" stroke-linecap="square" stroke-linejoin="round" stroke-miterlimit="4" stroke-opacity="1" stroke-width="1" d="m 28.500002,32.499999 c 4.333206,0 8.666413,0 12.999621,0" display="block" overflow="visible" visibility="visible" style="marker:none"/><path id="path3656" fill="url(#linearGradient3658)" fill-opacity="1" stroke="none" d="m 43,22 2,0 0,2 -2,0 0,-2 z m 0,4 2,0 0,2 -2,0 0,-2 z m 0,4 2,0 0,2 -2,0 0,-2 z m 0,4 2,0 0,2 -2,0 0,-2 z m 0,4 2,0 0,2 -2,0 0,-2 z m 0,4 2,0 0,2 -2,0 0,-2 z"/></svg>