<svg xmlns="http://www.w3.org/2000/svg" xmlns:svg="http://www.w3.org/2000/svg" xmlns:xlink="http://www.w3.org/1999/xlink" id="svg4486" width="48" height="48" version="1.0"><defs id="defs4488"><linearGradient id="linearGradient5840" x1="173.096" x2="173.096" y1="75.319" y2="11.949" gradientTransform="matrix(0.3845313,0,0,0.3807249,-1.399825,-0.9351299)" gradientUnits="userSpaceOnUse" xlink:href="#linearGradient6209-717"/><linearGradient id="linearGradient5846" x1="41.542" x2="41.485" y1="68.292" y2="4.536" gradientTransform="matrix(0.4037708,0,0,0.399774,47.537071,1.4823095)" gradientUnits="userSpaceOnUse" xlink:href="#linearGradient11104-770"/><linearGradient id="linearGradient5843" x1="173.096" x2="173.096" y1="75.319" y2="11.949" gradientTransform="matrix(0.4037708,0,0,0.399774,-4.836512,-1.5263508)" gradientUnits="userSpaceOnUse" xlink:href="#linearGradient2300-465"/><radialGradient id="radialGradient5849" cx="15.414" cy="13.078" r="6.656" fx="15.414" fy="13.078" gradientTransform="matrix(3.0710057,0,0,2.3628614,13.986567,-22.539066)" gradientUnits="userSpaceOnUse" xlink:href="#linearGradient4467-402"/><radialGradient id="radialGradient5828" cx="18.241" cy="21.818" r="8.309" fx="18.241" fy="21.818" gradientUnits="userSpaceOnUse" xlink:href="#linearGradient4454-600"/><linearGradient id="linearGradient5854" x1="277.573" x2="201.871" y1="146.151" y2="67.35" gradientTransform="matrix(0.3936567,0,0,0.38976,-3.211595,-1.6662606)" gradientUnits="userSpaceOnUse" xlink:href="#linearGradient12093-170"/><linearGradient id="linearGradient5859" x1="32.893" x2="31.364" y1="27.988" y2="29.484" gradientTransform="matrix(1.0113456,0,0,1.0013346,46.849579,0.6207219)" gradientUnits="userSpaceOnUse" xlink:href="#linearGradient3277-442"/><linearGradient id="linearGradient5857" x1="-172.653" x2="-164.718" y1="99.667" y2="91.973" gradientTransform="matrix(0.3936567,0,0,0.38976,148.37527,-5.4329178)" gradientUnits="userSpaceOnUse" xlink:href="#linearGradient11114-516"/><linearGradient id="linearGradient6209-717"><stop id="stop3366" offset="0" stop-color="#979797" stop-opacity="1"/><stop id="stop3368" offset="1" stop-color="#000" stop-opacity=".341"/></linearGradient><linearGradient id="linearGradient2768" x1="173.096" x2="173.096" y1="75.319" y2="11.949" gradientTransform="matrix(0.3845313,0,0,0.3807249,-48.396976,0.258476)" gradientUnits="userSpaceOnUse" xlink:href="#linearGradient6209-717"/><linearGradient id="linearGradient11104-770"><stop id="stop3402" offset="0" stop-color="#333" stop-opacity="1"/><stop id="stop3404" offset="1" stop-color="#333" stop-opacity=".612"/></linearGradient><linearGradient id="linearGradient2772" x1="41.542" x2="41.485" y1="68.292" y2="4.536" gradientTransform="matrix(0.4037708,0,0,0.399774,0.5399201,2.6759154)" gradientUnits="userSpaceOnUse" xlink:href="#linearGradient11104-770"/><linearGradient id="linearGradient2300-465"><stop id="stop3396" offset="0" stop-color="#343434" stop-opacity=".976"/><stop id="stop3398" offset="1" stop-color="#929292" stop-opacity="1"/></linearGradient><linearGradient id="linearGradient2770" x1="173.096" x2="173.096" y1="75.319" y2="11.949" gradientTransform="matrix(0.4037708,0,0,0.399774,-51.833663,-0.3327449)" gradientUnits="userSpaceOnUse" xlink:href="#linearGradient2300-465"/><linearGradient id="linearGradient4467-402"><stop id="stop3390" offset="0" stop-color="#fff" stop-opacity="1"/><stop id="stop3392" offset="1" stop-color="#fff" stop-opacity=".248"/></linearGradient><radialGradient id="radialGradient2774" cx="15.414" cy="13.078" r="6.656" fx="15.414" fy="13.078" gradientTransform="matrix(3.0710057,0,0,2.3628614,-33.010584,-21.34546)" gradientUnits="userSpaceOnUse" xlink:href="#linearGradient4467-402"/><linearGradient id="linearGradient4454-600"><stop id="stop3408" offset="0" stop-color="#a1a1a1" stop-opacity=".208"/><stop id="stop3410" offset="1" stop-color="#a1a1a1" stop-opacity=".678"/></linearGradient><radialGradient id="radialGradient2776" cx="18.241" cy="21.818" r="8.309" fx="18.241" fy="21.818" gradientUnits="userSpaceOnUse" xlink:href="#linearGradient4454-600"/><linearGradient id="linearGradient12093-170"><stop id="stop3384" offset="0" stop-color="#fff" stop-opacity="1"/><stop id="stop3386" offset="1" stop-color="#fff" stop-opacity="0"/></linearGradient><linearGradient id="linearGradient2778" x1="277.573" x2="201.871" y1="146.151" y2="67.35" gradientTransform="matrix(0.3936567,0,0,0.38976,-50.208746,-0.4726547)" gradientUnits="userSpaceOnUse" xlink:href="#linearGradient12093-170"/><linearGradient id="linearGradient3277-442"><stop id="stop3378" offset="0" stop-color="#575757" stop-opacity="1"/><stop id="stop3380" offset="1" stop-color="#333" stop-opacity="1"/></linearGradient><linearGradient id="linearGradient2782" x1="32.893" x2="31.364" y1="27.988" y2="29.484" gradientTransform="matrix(1.0113456,0,0,1.0013346,-0.1475723,1.8143278)" gradientUnits="userSpaceOnUse" xlink:href="#linearGradient3277-442"/><linearGradient id="linearGradient11114-516"><stop id="stop3372" offset="0" stop-color="#242424" stop-opacity=".992"/><stop id="stop3374" offset="1" stop-color="#656565" stop-opacity="1"/></linearGradient><linearGradient id="linearGradient2780" x1="-172.653" x2="-164.718" y1="99.667" y2="91.973" gradientTransform="matrix(0.3936567,0,0,0.38976,101.37812,-4.2393119)" gradientUnits="userSpaceOnUse" xlink:href="#linearGradient11114-516"/><linearGradient id="linearGradient8838"><stop id="stop8840" offset="0" stop-color="#000" stop-opacity="1"/><stop id="stop8842" offset="1" stop-color="#000" stop-opacity="0"/></linearGradient><radialGradient id="radialGradient2759" cx="62.625" cy="4.625" r="10.625" fx="62.625" fy="4.625" gradientTransform="matrix(1,0,0,0.341176,0,3.047059)" gradientUnits="userSpaceOnUse" xlink:href="#linearGradient8838"/><linearGradient id="linearGradient5048"><stop id="stop5050" offset="0" stop-color="#000" stop-opacity="0"/><stop id="stop5056" offset=".5" stop-color="#000" stop-opacity="1"/><stop id="stop5052" offset="1" stop-color="#000" stop-opacity="0"/></linearGradient><linearGradient id="linearGradient5060"><stop id="stop5062" offset="0" stop-color="#000" stop-opacity="1"/><stop id="stop5064" offset="1" stop-color="#000" stop-opacity="0"/></linearGradient><linearGradient id="linearGradient3104"><stop id="stop3106" offset="0" stop-color="#aaa" stop-opacity="1"/><stop id="stop3108" offset="1" stop-color="#c8c8c8" stop-opacity="1"/></linearGradient><linearGradient id="linearGradient3600"><stop id="stop3602" offset="0" stop-color="#f4f4f4" stop-opacity="1"/><stop id="stop3604" offset="1" stop-color="#dbdbdb" stop-opacity="1"/></linearGradient><radialGradient id="XMLID_8_" cx="102" cy="112.305" r="139.559" gradientUnits="userSpaceOnUse"><stop id="stop41" offset="0" stop-color="#b7b8b9" stop-opacity="1"/><stop id="stop47" offset=".189" stop-color="#ececec" stop-opacity="1"/><stop id="stop49" offset=".257" stop-color="#fafafa" stop-opacity="0"/><stop id="stop51" offset=".301" stop-color="#fff" stop-opacity="0"/><stop id="stop53" offset=".531" stop-color="#fafafa" stop-opacity="0"/><stop id="stop55" offset=".845" stop-color="#ebecec" stop-opacity="0"/><stop id="stop57" offset="1" stop-color="#e1e2e3" stop-opacity="0"/></radialGradient><linearGradient id="linearGradient3211"><stop id="stop3213" offset="0" stop-color="#fff" stop-opacity="1"/><stop id="stop3215" offset="1" stop-color="#fff" stop-opacity="0"/></linearGradient><linearGradient id="linearGradient8589"><stop id="stop8591" offset="0" stop-color="#fefefe" stop-opacity="1"/><stop id="stop8593" offset="1" stop-color="#cbcbcb" stop-opacity="1"/></linearGradient><linearGradient id="linearGradient3312" x1="32.892" x2="36.358" y1="8.059" y2="5.457" gradientTransform="matrix(0.9976985,0,0,1.0406866,0.1638029,-1.1057939)" gradientUnits="userSpaceOnUse" xlink:href="#linearGradient8589"/><linearGradient id="linearGradient3316" x1="24" x2="24" y1="2" y2="46.017" gradientTransform="matrix(1,0,0,0.9777778,0,-0.9666693)" gradientUnits="userSpaceOnUse" xlink:href="#linearGradient3211"/><radialGradient id="radialGradient3319" cx="102" cy="112.305" r="139.559" gradientTransform="matrix(0.3617022,0,0,-0.3907784,0.8510637,47.517004)" gradientUnits="userSpaceOnUse" xlink:href="#XMLID_8_"/><linearGradient id="linearGradient3322" x1="25.132" x2="25.132" y1=".985" y2="47.013" gradientTransform="matrix(1,0,0,0.9561695,-1.0064697e-7,-1.914922)" gradientUnits="userSpaceOnUse" xlink:href="#linearGradient3600"/><linearGradient id="linearGradient3324" x1="-51.786" x2="-51.786" y1="50.786" y2="2.906" gradientTransform="matrix(0.8074968,0,0,0.8948322,59.410232,-2.9805533)" gradientUnits="userSpaceOnUse" xlink:href="#linearGradient3104"/><radialGradient id="radialGradient3327" cx="605.714" cy="486.648" r="117.143" fx="605.714" fy="486.648" gradientTransform="matrix(2.3039948e-2,0,0,1.4700216e-2,26.360882,37.040176)" gradientUnits="userSpaceOnUse" xlink:href="#linearGradient5060"/><radialGradient id="radialGradient3330" cx="605.714" cy="486.648" r="117.143" fx="605.714" fy="486.648" gradientTransform="matrix(-2.3039943e-2,0,0,1.4700216e-2,21.62311,37.040176)" gradientUnits="userSpaceOnUse" xlink:href="#linearGradient5060"/><linearGradient id="linearGradient3333" x1="302.857" x2="302.857" y1="366.648" y2="609.505" gradientTransform="matrix(6.7324884e-2,0,0,1.4700216e-2,-0.3411391,37.040146)" gradientUnits="userSpaceOnUse" xlink:href="#linearGradient5048"/><filter id="filter3212" width="1.297" height="1.329" x="-.148" y="-.164"><feGaussianBlur id="feGaussianBlur3214" stdDeviation=".774"/></filter><linearGradient id="linearGradient2818" x1="173.096" x2="173.096" y1="75.319" y2="11.949" gradientTransform="matrix(0.2861419,0,0,0.2833094,-22.84742,14.708773)" gradientUnits="userSpaceOnUse" xlink:href="#linearGradient6209-717"/><linearGradient id="linearGradient2821" x1="173.096" x2="173.096" y1="75.319" y2="11.949" gradientTransform="matrix(0.3004586,0,0,0.2974845,-25.404767,14.268827)" gradientUnits="userSpaceOnUse" xlink:href="#linearGradient2300-465"/><linearGradient id="linearGradient2823" x1="41.542" x2="41.485" y1="68.292" y2="4.536" gradientTransform="matrix(0.3004586,0,0,0.2974845,13.568071,16.507666)" gradientUnits="userSpaceOnUse" xlink:href="#linearGradient11104-770"/><radialGradient id="radialGradient2826" cx="15.414" cy="13.078" r="6.656" fx="15.414" fy="13.078" gradientTransform="matrix(2.2852324,0,0,1.7582798,-11.39792,-1.3673982)" gradientUnits="userSpaceOnUse" xlink:href="#linearGradient4467-402"/><linearGradient id="linearGradient2831" x1="277.573" x2="201.871" y1="146.151" y2="67.35" gradientTransform="matrix(0.2929324,0,0,0.2900327,-24.195615,14.164716)" gradientUnits="userSpaceOnUse" xlink:href="#linearGradient12093-170"/><linearGradient id="linearGradient2834" x1="-172.653" x2="-164.718" y1="99.667" y2="91.973" gradientTransform="matrix(0.2929324,0,0,0.2900327,88.604961,11.361827)" gradientUnits="userSpaceOnUse" xlink:href="#linearGradient11114-516"/><linearGradient id="linearGradient2836" x1="32.893" x2="31.364" y1="27.988" y2="29.484" gradientTransform="matrix(0.7525742,0,0,0.7451247,13.056486,15.866532)" gradientUnits="userSpaceOnUse" xlink:href="#linearGradient3277-442"/></defs><rect id="rect2879" width="32.508" height="3.57" x="7.738" y="42.43" fill="url(#linearGradient3333)" fill-opacity="1" fill-rule="nonzero" stroke="none" stroke-dasharray="none" stroke-dashoffset="0" stroke-linecap="round" stroke-linejoin="miter" stroke-miterlimit="4" stroke-opacity="1" stroke-width="1" marker-end="none" marker-mid="none" marker-start="none" display="inline" opacity=".3" overflow="visible" visibility="visible" style="marker:none"/><path id="path2881" fill="url(#radialGradient3330)" fill-opacity="1" fill-rule="nonzero" stroke="none" stroke-dasharray="none" stroke-dashoffset="0" stroke-linecap="round" stroke-linejoin="miter" stroke-miterlimit="4" stroke-opacity="1" stroke-width="1" marker-end="none" marker-mid="none" marker-start="none" d="M 7.7378475,42.430102 C 7.7378475,42.430102 7.7378475,45.999958 7.7378475,45.999958 C 6.5513473,46.006679 4.869468,45.200135 4.869468,44.2148 C 4.869468,43.229467 6.1935126,42.430103 7.7378475,42.430102 z" display="inline" opacity=".3" overflow="visible" visibility="visible" style="marker:none"/><path id="path2883" fill="url(#radialGradient3327)" fill-opacity="1" fill-rule="nonzero" stroke="none" stroke-dasharray="none" stroke-dashoffset="0" stroke-linecap="round" stroke-linejoin="miter" stroke-miterlimit="4" stroke-opacity="1" stroke-width="1" marker-end="none" marker-mid="none" marker-start="none" d="M 40.246148,42.430102 C 40.246148,42.430102 40.246148,45.999958 40.246148,45.999958 C 41.432648,46.006679 43.114528,45.200135 43.114528,44.2148 C 43.114528,43.229467 41.790483,42.430103 40.246148,42.430102 z" display="inline" opacity=".3" overflow="visible" visibility="visible" style="marker:none"/><path id="path4160" fill="url(#linearGradient3322)" fill-opacity="1" stroke="url(#linearGradient3324)" stroke-dasharray="none" stroke-dashoffset="0" stroke-linecap="butt" stroke-linejoin="round" stroke-miterlimit="4" stroke-opacity="1" stroke-width="1" d="M 6.4999609,0.49719878 C 14.520256,0.49719878 22.540551,0.49719878 30.560847,0.49719878 C 31.96778,0.97185188 39.526301,6.3794034 41.500042,10.123605 C 41.500042,21.583338 41.500042,33.04307 41.500042,44.502803 C 29.833348,44.502803 18.166655,44.502803 6.4999609,44.502803 C 6.4999609,29.834268 6.4999609,15.165733 6.4999609,0.49719878 z" display="inline"/><path id="path4191" fill="url(#radialGradient3319)" fill-opacity="1" d="M 7.3617017,44 C 7.1624047,44 6.9999997,43.824541 6.9999997,43.60922 L 6.9999997,1.4051701 C 6.9999997,1.1894613 7.1624047,1.0143926 7.3617017,1.0143926 C 14.844793,1.1224073 23.137385,0.85281757 30.611384,1.0412872 L 40.894021,9.9073127 L 41,43.60922 C 41,43.824541 40.837957,44 40.638297,44 L 7.3617017,44 z"/><path id="path2435" fill="none" fill-opacity="1" stroke="url(#linearGradient3316)" stroke-dasharray="none" stroke-dashoffset="0" stroke-linecap="butt" stroke-linejoin="round" stroke-miterlimit="4" stroke-opacity="1" stroke-width="1" d="M 40.500039,10.258811 C 40.500039,21.207848 40.500039,32.573221 40.500039,43.522258 C 29.500013,43.522258 18.499987,43.522258 7.4999609,43.522258 C 7.4999609,29.507417 7.4999609,15.492577 7.4999609,1.4777367 C 15.061954,1.4777367 22.804295,1.4777367 30.366289,1.4777367" display="inline" opacity=".6"/><path id="path12038" fill="#000" fill-opacity="1" fill-rule="evenodd" stroke="none" stroke-linecap="butt" stroke-linejoin="miter" stroke-opacity="1" stroke-width="1" d="M 28.617256,0.92125832 C 32.899778,0.92125832 30.770506,9.4044296 30.770506,9.4044296 C 30.770506,9.4044296 41.128148,7.6020829 41.128148,12.223174 C 41.128148,9.6134507 29.825844,1.4945784 28.617256,0.92125832 z" display="inline" filter="url(#filter3212)" opacity=".4"/><path id="path4474" fill="url(#linearGradient3312)" fill-opacity="1" fill-rule="evenodd" stroke="none" stroke-linecap="butt" stroke-linejoin="miter" stroke-opacity="1" stroke-width="1" d="M 28.617256,0.92125832 C 31.803749,0.92125832 30.953016,8.5831368 30.953016,8.5831368 C 30.953016,8.5831368 41.128148,7.6020829 41.128148,12.223174 C 41.128148,11.097235 41.214061,10.290929 40.994371,9.9395812 C 39.416058,7.4154025 32.598855,1.7511811 30.137071,1.008793 C 29.952849,0.95323837 29.544367,0.92125832 28.617256,0.92125832 z" display="inline"/><path id="path11112" fill="url(#linearGradient2834)" fill-opacity="1" fill-rule="evenodd" stroke="url(#linearGradient2836)" stroke-dasharray="none" stroke-linecap="round" stroke-linejoin="round" stroke-miterlimit="4" stroke-opacity="1" stroke-width=".936" d="M 34.138851,32.949914 L 47.236654,45.019282 L 45.421116,47.458831 L 32.370749,34.403003 L 34.138851,32.949914 z" display="inline"/><path id="path11122" fill="url(#linearGradient2831)" fill-opacity="1" fill-rule="evenodd" stroke="none" stroke-dasharray="none" stroke-linecap="butt" stroke-linejoin="miter" stroke-miterlimit="4" stroke-opacity="1" stroke-width="3.211" d="M 45.443191,46.666592 L 34.939015,33.698442 L 47.647774,44.74063 L 45.443191,46.666592 z" display="inline"/><path id="path13082" fill="#3e3e3e" fill-opacity="1" stroke="none" stroke-dasharray="none" stroke-linecap="round" stroke-linejoin="round" stroke-miterlimit="4" stroke-opacity="1" stroke-width="3.005" d="M 247.90924,110.29199 A 4.8668494,2.6562009 0 1 1 238.17554,110.29199 A 4.8668494,2.6562009 0 1 1 247.90924,110.29199 z" display="inline" transform="matrix(0.275472,-0.3088431,0.3530977,0.2301519,-59.38847,96.055097)"/><path id="path4340" fill="url(#radialGradient5828)" fill-opacity="1" fill-rule="evenodd" stroke="none" stroke-dasharray="none" stroke-dashoffset="0" stroke-linecap="round" stroke-linejoin="miter" stroke-miterlimit="4" stroke-opacity="1" stroke-width=".882" marker-end="none" marker-mid="none" marker-start="none" d="M 25.897786,18.478292 A 8.3085051,8.3085051 0 1 1 9.280776,18.478292 A 8.3085051,8.3085051 0 1 1 25.897786,18.478292 z" display="inline" transform="matrix(1.1079784,0,0,1.0703357,7.5804984,7.0727343)" visibility="visible" style="marker:none"/><path id="path4342" fill="url(#radialGradient2826)" fill-opacity="1" fill-rule="evenodd" stroke="none" stroke-dasharray="none" stroke-dashoffset="0" stroke-linecap="round" stroke-linejoin="miter" stroke-miterlimit="10" stroke-opacity="1" stroke-width="1" marker-end="none" marker-mid="none" marker-start="none" d="M 26.68983,19.195167 C 22.100273,19.195167 18.383779,22.487462 18.383779,26.553172 C 18.383779,27.727366 18.486687,28.940172 19.039152,29.925552 C 20.142901,30.285946 21.582913,30.398713 22.827346,30.398713 C 28.265938,30.398713 32.943777,26.404443 33.279405,21.661139 C 31.753869,20.064136 29.234608,19.195167 26.68983,19.195167 z" display="inline" opacity=".834" overflow="visible" visibility="visible" style="marker:none"/><path id="path2298" fill="url(#linearGradient2821)" fill-opacity="1" stroke="url(#linearGradient2823)" stroke-dasharray="none" stroke-linecap="round" stroke-linejoin="round" stroke-miterlimit="4" stroke-opacity="1" stroke-width=".96" d="M 26.866667,17.970308 C 21.213077,17.970308 16.622903,22.16103 16.622906,27.322476 C 16.622906,32.483921 21.213077,36.674642 26.866667,36.674643 C 32.520251,36.674643 37.110426,32.483921 37.110426,27.322476 C 37.110426,22.16103 32.520254,17.970308 26.866667,17.970308 z M 26.988727,18.58387 C 32.048724,18.58387 36.162104,22.331093 36.162104,26.95062 C 36.162104,31.570147 32.048724,35.31737 26.988727,35.31737 C 21.928728,35.317371 17.82474,31.570148 17.82474,26.95062 C 17.82474,22.331093 21.928728,18.58387 26.988727,18.58387 z" display="inline"/><path id="path4267" fill="url(#linearGradient2818)" fill-opacity="1" stroke="none" stroke-dasharray="none" stroke-linecap="round" stroke-linejoin="round" stroke-miterlimit="4" stroke-opacity="1" stroke-width="3.211" d="M 26.932391,18.239903 C 21.548195,18.239903 17.186266,22.230338 17.186266,27.145844 C 17.186266,32.06135 21.548192,36.051785 26.932391,36.051785 C 32.316588,36.051785 36.687906,32.061349 36.687906,27.145844 C 36.687906,22.230338 32.316585,18.239903 26.932391,18.239903 z M 26.988727,18.58387 C 32.048723,18.58387 35.760823,22.331093 35.760823,26.95062 C 35.760823,31.570147 32.048723,34.920061 26.988727,34.920061 C 21.928728,34.920062 18.159142,31.570148 18.159142,26.95062 C 18.159142,22.331093 21.928728,18.58387 26.988727,18.58387 z" display="inline"/></svg>