<svg xmlns="http://www.w3.org/2000/svg" xmlns:svg="http://www.w3.org/2000/svg" xmlns:xlink="http://www.w3.org/1999/xlink" id="svg2439" width="48" height="48"><defs id="defs2441"><linearGradient id="linearGradient5238"><stop id="stop5240" offset="0" stop-color="#fff" stop-opacity="1"/><stop id="stop5242" offset="1" stop-color="#a0a0a0" stop-opacity="1"/></linearGradient><radialGradient id="radialGradient3233" cx="11.329" cy="10.584" r="15.532" fx="11.329" fy="10.584" gradientUnits="userSpaceOnUse" xlink:href="#linearGradient5238"/><linearGradient id="linearGradient42174"><stop id="stop42176" offset="0" stop-color="#a0a0a0" stop-opacity="1"/><stop id="stop42178" offset="1" stop-color="#fff" stop-opacity="1"/></linearGradient><linearGradient id="linearGradient3231" x1="6.342" x2="22.218" y1="7.789" y2="25.884" gradientUnits="userSpaceOnUse" xlink:href="#linearGradient42174"/><linearGradient id="linearGradient2145"><stop id="stop2147" offset="0" stop-color="#fffffd" stop-opacity="1"/><stop id="stop2149" offset="1" stop-color="#cbcbc9" stop-opacity="1"/></linearGradient><radialGradient id="radialGradient3229" cx="11.902" cy="10.045" r="29.293" fx="11.902" fy="10.045" gradientUnits="userSpaceOnUse" xlink:href="#linearGradient2145"/><linearGradient id="linearGradient10691"><stop id="stop10693" offset="0" stop-color="#000" stop-opacity="1"/><stop id="stop10695" offset="1" stop-color="#000" stop-opacity="0"/></linearGradient><radialGradient id="radialGradient3227" cx="6.703" cy="73.616" r="7.228" fx="6.703" fy="73.616" gradientTransform="scale(1.902215,0.525703)" gradientUnits="userSpaceOnUse" xlink:href="#linearGradient10691"/><linearGradient id="linearGradient37935"><stop id="stop37937" offset="0" stop-color="#7c7c7c" stop-opacity="1"/><stop id="stop37939" offset="1" stop-color="#242424" stop-opacity="1"/></linearGradient><radialGradient id="radialGradient3225" cx="8.747" cy="6.828" r="29.89" fx="8.747" fy="6.828" gradientUnits="userSpaceOnUse" xlink:href="#linearGradient37935"/><linearGradient id="linearGradient2152"><stop id="stop2154" offset="0" stop-color="#9aa29a" stop-opacity="1"/><stop id="stop2156" offset="1" stop-color="#b5beb5" stop-opacity="1"/></linearGradient><linearGradient id="linearGradient2449" x1="40.547" x2="47.375" y1="1.125" y2="37.75" gradientTransform="matrix(0.8942788,0,0,0.8942788,5.0323663,2.6455471e-2)" gradientUnits="userSpaceOnUse" xlink:href="#linearGradient13678"/><linearGradient id="linearGradient13678"><stop id="stop13680" offset="0" stop-color="#fff" stop-opacity="1"/><stop id="stop13682" offset="1" stop-color="#fff" stop-opacity="0"/></linearGradient><linearGradient id="linearGradient2444" x1="40.547" x2="47.375" y1="1.125" y2="37.75" gradientTransform="matrix(0.5078153,0,0,0.5078153,11.546533,16.52496)" gradientUnits="userSpaceOnUse" xlink:href="#linearGradient13678"/><linearGradient id="linearGradient2511" x1="8.916" x2="9.886" y1="37.197" y2="52.091" gradientTransform="matrix(3.1132961,0,0,0.9664172,-31.84632,-19.049003)" gradientUnits="userSpaceOnUse" xlink:href="#linearGradient2152"/></defs><metadata id="metadata2444"/><g id="layer1"><path id="path14341" fill="url(#linearGradient2511)" fill-opacity="1" fill-rule="evenodd" stroke="none" stroke-dasharray="none" stroke-dashoffset="0" stroke-linecap="round" stroke-linejoin="miter" stroke-miterlimit="4" stroke-opacity="1" stroke-width="1" marker-end="none" marker-mid="none" marker-start="none" d="M 18.458465,1.8787696 L 4.146104,18.515359 L 5.4005712,19.754341 L 18.458465,1.8787696 z" display="inline" overflow="visible" visibility="visible" style="marker:none"/><path id="path18921" fill="#fefefe" fill-opacity="1" fill-rule="evenodd" stroke="none" stroke-dasharray="none" stroke-linecap="round" stroke-linejoin="miter" stroke-miterlimit="4" stroke-opacity="1" stroke-width="1" d="M 18.338456,1.7891477 L 5.5750808,19.488013 L 7.3984311,21.097861 L 18.338456,1.7891477 z"/><path id="path27786" fill="url(#radialGradient3225)" fill-opacity="1" fill-rule="evenodd" stroke="#333" stroke-dasharray="none" stroke-dashoffset="0" stroke-linecap="round" stroke-linejoin="round" stroke-miterlimit="4" stroke-opacity="1" stroke-width=".701" d="M 31.160714,16.910715 A 14.910714,14.910714 0 1 1 1.3392859,16.910715 A 14.910714,14.910714 0 1 1 31.160714,16.910715 z" transform="matrix(1.4258278,0,0,1.42585,0.3132332,-1.4131567)"/><path id="path10689" fill="url(#radialGradient3227)" fill-opacity="1" fill-rule="nonzero" stroke="none" stroke-dasharray="none" stroke-dashoffset="0" stroke-linecap="butt" stroke-linejoin="miter" stroke-miterlimit="4" stroke-opacity="1" stroke-width=".576" marker-end="none" marker-mid="none" marker-start="none" d="M 26.5,38.700001 A 13.75,3.8 0 1 1 -1,38.700001 A 13.75,3.8 0 1 1 26.5,38.700001 z" display="inline" opacity=".4" overflow="visible" transform="matrix(1.6473388,0,0,1.8303764,2.9964303,-29.790998)" visibility="visible" style="marker:none"/><path id="path35549" fill="url(#radialGradient3229)" fill-opacity="1" fill-rule="evenodd" stroke="url(#linearGradient3231)" stroke-dasharray="none" stroke-dashoffset="0" stroke-linecap="round" stroke-linejoin="bevel" stroke-miterlimit="4" stroke-opacity="1" stroke-width=".842" d="M 31.160714,16.910715 A 14.910714,14.910714 0 1 1 1.3392859,16.910715 A 14.910714,14.910714 0 1 1 31.160714,16.910715 z" transform="matrix(1.1869436,0,0,1.1869751,4.1964498,2.6278264)"/><path id="path10651" fill="none" fill-opacity="1" fill-rule="evenodd" stroke="url(#radialGradient3233)" stroke-dasharray="none" stroke-dashoffset="0" stroke-linecap="round" stroke-linejoin="round" stroke-miterlimit="4" stroke-opacity="1" stroke-width=".737" d="M 31.160714,16.910715 A 14.910714,14.910714 0 1 1 1.3392859,16.910715 A 14.910714,14.910714 0 1 1 31.160714,16.910715 z" opacity=".4" transform="matrix(1.3560116,0,0,1.3576612,1.4059117,-0.2708017)"/><path id="path2291" fill="#616161" fill-opacity="1" fill-rule="evenodd" stroke="#5f5f5f" stroke-dasharray="none" stroke-linecap="round" stroke-linejoin="miter" stroke-miterlimit="4" stroke-opacity="1" stroke-width="1" d="M 8.3653383,22.517418 C 11.353094,22.517418 11.731401,22.431459 11.731401,22.431459"/><path id="path2296" fill="#1f1f1f" fill-opacity="1" fill-rule="evenodd" stroke="#1f1f1f" stroke-dasharray="none" stroke-linecap="round" stroke-linejoin="miter" stroke-miterlimit="4" stroke-opacity="1" stroke-width="1" d="M 35.539262,22.517418 C 38.52702,22.517418 38.905328,22.431459 38.905328,22.431459"/><path id="path2306" fill="#131313" fill-opacity="1" fill-rule="evenodd" stroke="#121212" stroke-dasharray="none" stroke-linecap="round" stroke-linejoin="miter" stroke-miterlimit="4" stroke-opacity="1" stroke-width="1" d="M 23.565256,37.631119 C 23.565256,34.643365 23.479297,34.265057 23.479297,34.265057"/><path id="path2308" fill="#1f1f1f" fill-opacity="1" fill-rule="evenodd" stroke="#727272" stroke-dasharray="none" stroke-linecap="round" stroke-linejoin="miter" stroke-miterlimit="4" stroke-opacity="1" stroke-width="1" d="M 23.565256,10.683621 C 23.565256,7.6958253 23.479297,7.3175129 23.479297,7.3175129"/><g id="g2318" stroke-dasharray="none" stroke-linecap="round" stroke-miterlimit="4" stroke-width="1.615" transform="matrix(0.6192326,0,0,0.6192326,9.765907,8.6245378)"><path id="path2312" fill="none" fill-rule="evenodd" stroke="#000" stroke-dasharray="none" stroke-linecap="round" stroke-linejoin="miter" stroke-miterlimit="4" stroke-opacity="1" stroke-width="1.615" d="M 21.168246,23.652869 L 40.199004,4.6221125"/><path id="path2314" fill="none" fill-rule="evenodd" stroke="#000" stroke-dasharray="none" stroke-linecap="round" stroke-linejoin="miter" stroke-miterlimit="4" stroke-opacity="1" stroke-width="1.615" d="M 24.25811,23.793317 L 11.547531,11.082739"/><path id="path2316" fill="red" fill-rule="evenodd" stroke="red" stroke-dasharray="none" stroke-linecap="round" stroke-linejoin="miter" stroke-miterlimit="4" stroke-opacity="1" stroke-width="1.615" d="M 21.589592,22.66973 L 43.260774,16.862955"/></g><path id="path13687" fill="#5c8ebd" fill-opacity="1" stroke="#356ca0" stroke-dasharray="none" stroke-linecap="butt" stroke-linejoin="miter" stroke-miterlimit="4" stroke-opacity="1" stroke-width="1" d="M 47.5,3.503442 L 40.762237,11.5 L 47.5,11.5 L 47.5,14.5 L 35.5,14.5 L 35.5,13.5 L 43.843784,3.5782561 L 35.5,3.5782561 L 35.5,0.5 L 47.5,0.5 L 47.5,3.503442 z" font-family="Segoe" font-size="10" font-stretch="normal" font-style="normal" font-variant="normal" font-weight="normal" text-anchor="start" writing-mode="lr-tb" style="line-height:100%"/><path id="path13676" fill="#5c8ebd" fill-opacity="1" stroke="url(#linearGradient2449)" stroke-linecap="butt" stroke-linejoin="miter" stroke-opacity="1" stroke-width=".894" d="M 36.5,1.5 L 36.5,2.631821 L 45.162623,2.631821 C 45.28463,2.6392869 45.392914,2.7125391 45.445241,2.8230079 C 45.497568,2.9334765 45.485652,3.0636658 45.414139,3.162799 L 36.736794,13.547153 L 46.5,13.515129 L 46.5,12.463711 L 39.430579,12.463711 C 39.303543,12.466388 39.185903,12.397044 39.126723,12.284603 C 39.067544,12.172162 39.076988,12.035933 39.151117,11.932733 L 46.5,3.1558354 L 46.5,1.5 L 36.5,1.5 z" font-family="Segoe" font-size="10" font-stretch="normal" font-style="normal" font-variant="normal" font-weight="normal" opacity=".213" text-anchor="start" writing-mode="lr-tb" style="line-height:100%"/><path id="path13696" fill="#5c8ebd" fill-opacity="1" stroke="#356ca0" stroke-dasharray="none" stroke-linecap="butt" stroke-linejoin="miter" stroke-miterlimit="4" stroke-opacity="1" stroke-width="1" d="M 36.5,18.499363 L 31.835704,23.5 L 36.5,23.5 L 36.5,25.5 L 28.5,25.5 L 28.5,24.255742 L 33.829815,18.541846 L 28.5,18.541846 L 28.5,16.5 L 36.5,16.5 L 36.5,18.499363 z" font-family="Segoe" font-size="10" font-stretch="normal" font-style="normal" font-variant="normal" font-weight="normal" text-anchor="start" writing-mode="lr-tb" style="line-height:100%"/><path id="path13700" fill="none" fill-opacity="1" stroke="url(#linearGradient2444)" stroke-dasharray="none" stroke-linecap="square" stroke-linejoin="miter" stroke-miterlimit="4" stroke-opacity="1" stroke-width=".894" d="M 35.5,24.5 C 33.65623,24.541896 31.412567,24.476867 29.618969,24.476867 L 35.5,18.160583 L 35.5,17.5 L 29.5,17.5" font-family="Segoe" font-size="10" font-stretch="normal" font-style="normal" font-variant="normal" font-weight="normal" opacity=".213" text-anchor="start" writing-mode="lr-tb" style="line-height:100%"/></g></svg>