<svg xmlns="http://www.w3.org/2000/svg" xmlns:svg="http://www.w3.org/2000/svg" xmlns:xlink="http://www.w3.org/1999/xlink" id="svg3027" width="48" height="48" version="1.1"><defs id="defs3029"><linearGradient id="linearGradient2865" x1="17.592" x2="17.592" y1="7" y2="-.025" gradientTransform="matrix(2,0,0,2,-1.9999999,1.9989042)" gradientUnits="userSpaceOnUse" xlink:href="#linearGradient3251"/><linearGradient id="linearGradient3251"><stop id="stop3253" offset="0" stop-color="#917f6e" stop-opacity="1"/><stop id="stop3255" offset="1" stop-color="#cbbaa9" stop-opacity="1"/></linearGradient><linearGradient id="linearGradient2979" x1="38.382" x2="38.382" y1="5.485" y2="22.698" gradientTransform="matrix(2,0,0,2,-50,-4.0010958)" gradientUnits="userSpaceOnUse" xlink:href="#linearGradient4222-4"/><linearGradient id="linearGradient4222-4"><stop id="stop4224-8" offset="0" stop-color="#fff" stop-opacity="1"/><stop id="stop4226-7" offset="1" stop-color="#fff" stop-opacity="0"/></linearGradient><linearGradient id="linearGradient2868" x1="40.007" x2="40.007" y1="12.911" y2="7.092" gradientTransform="matrix(1.6599332,0,0,1.6599262,-35.908559,-1.1011412)" gradientUnits="userSpaceOnUse" xlink:href="#linearGradient4222"/><linearGradient id="linearGradient4222"><stop id="stop4224" offset="0" stop-color="#fff" stop-opacity="1"/><stop id="stop4226" offset="1" stop-color="#fff" stop-opacity="0"/></linearGradient><linearGradient id="linearGradient2874" x1="39.906" x2="39.906" y1="6.123" y2="24.034" gradientTransform="matrix(2,0,0,2,-49.5,-4.4999998)" gradientUnits="userSpaceOnUse" xlink:href="#linearGradient3243"/><linearGradient id="linearGradient3243"><stop id="stop3245" offset="0" stop-color="#fff4e9" stop-opacity="1"/><stop id="stop3247" offset="1" stop-color="#e7d6c5" stop-opacity="1"/></linearGradient><linearGradient id="linearGradient2876" x1="32.016" x2="32.016" y1="24.011" y2="5" gradientTransform="matrix(2,0,0,2,-49.5,-4.4999998)" gradientUnits="userSpaceOnUse" xlink:href="#linearGradient3251"/><linearGradient id="linearGradient3283"><stop id="stop3285" offset="0" stop-color="#000" stop-opacity="1"/><stop id="stop3287" offset="1" stop-color="#000" stop-opacity="0"/></linearGradient><radialGradient id="radialGradient3025" cx="10.471" cy="20.147" r="9.215" fx="10.471" fy="20.147" gradientTransform="matrix(1.953409,0,0,0.65113636,-2.4545442,24.880632)" gradientUnits="userSpaceOnUse" xlink:href="#linearGradient3283"/><linearGradient id="linearGradient5530" x1="22.369" x2="22.369" y1="8.032" y2="38.274" gradientTransform="matrix(0.59881541,0,0,0.59520313,23.605196,21.21913)" gradientUnits="userSpaceOnUse" xlink:href="#linearGradient3943"/><linearGradient id="linearGradient3943"><stop id="stop3945" offset="0" stop-color="#fff" stop-opacity="1"/><stop id="stop3947" offset="1" stop-color="#fff" stop-opacity="0"/></linearGradient><linearGradient id="linearGradient3242-7"><stop id="stop3244-5" offset="0" stop-color="#eef87e" stop-opacity="1"/><stop id="stop3246-9" offset=".262" stop-color="#cde34f" stop-opacity="1"/><stop id="stop3248-7" offset=".661" stop-color="#93b723" stop-opacity="1"/><stop id="stop3250-8" offset="1" stop-color="#5a7e0d" stop-opacity="1"/></linearGradient><linearGradient id="linearGradient2490-3"><stop id="stop2492-3" offset="0" stop-color="#365f0e" stop-opacity="1"/><stop id="stop2494-8" offset="1" stop-color="#84a718" stop-opacity="1"/></linearGradient><radialGradient id="radialGradient3419" cx="69.448" cy="51.695" r="31" fx="69.448" fy="51.695" gradientTransform="matrix(0,0.67923629,-0.73892459,0,72.902805,-19.489952)" gradientUnits="userSpaceOnUse" xlink:href="#linearGradient3242-7"/><linearGradient id="linearGradient3421" x1="72.422" x2="72.422" y1="123.191" y2="52.809" gradientTransform="matrix(0.28214379,0,0,0.28445169,12.171345,9.958204)" gradientUnits="userSpaceOnUse" xlink:href="#linearGradient2490-3"/></defs><metadata id="metadata3032"/><g id="layer1"><path id="path3281" fill="url(#radialGradient3025)" fill-opacity="1" fill-rule="evenodd" stroke="none" stroke-width="1" d="m 35.999998,37.998816 a 17.999999,6.0000002 0 1 1 -35.9999977375,0 17.999999,6.0000002 0 1 1 35.9999977375,0 z" display="inline" enable-background="accumulate" opacity=".3" overflow="visible" visibility="visible" style="marker:none"/><path id="path2463" fill="url(#linearGradient2874)" fill-opacity="1" fill-rule="evenodd" stroke="url(#linearGradient2876)" stroke-linecap="butt" stroke-linejoin="miter" stroke-opacity="1" stroke-width="1" d="M 22.5,6.5 3.4999999,26.1875 20,42.5 l 19.5,-19 0,-17 -17,0 z m 8,6 c 1.656,0 3,1.344 3,3 0,1.656 -1.344,3 -3,3 -1.656,0 -3,-1.344 -3,-3 0,-1.656 1.344,-3 3,-3 z"/><path id="path3294" fill="none" stroke="url(#linearGradient2868)" stroke-linecap="butt" stroke-linejoin="miter" stroke-opacity="1" stroke-width="1" d="m 30.488772,11.503924 c 2.511957,-0.08856 4.583186,2.579182 3.868223,4.991099 -0.53091,2.366752 -3.445216,3.730714 -5.598169,2.602754 -2.216007,-0.978839 -2.988457,-4.095182 -1.469605,-5.987762 0.73783,-0.998426 1.956475,-1.615707 3.199551,-1.606091 z" opacity=".6"/><path id="path2935" fill="none" stroke="url(#linearGradient2979)" stroke-dasharray="none" stroke-dashoffset="0" stroke-linecap="butt" stroke-linejoin="miter" stroke-miterlimit="4" stroke-opacity="1" stroke-width="1" d="M 22.9375,7.46875 C 16.916667,13.708333 10.895833,19.947917 4.8749999,26.1875 9.9166666,31.166667 14.958333,36.145833 20,41.125 26.177083,35.104167 32.354167,29.083333 38.53125,23.0625 c 0,-5.197917 0,-10.395833 0,-15.59375 -5.197917,0 -10.395833,0 -15.59375,0 z" color="#000" display="inline" enable-background="accumulate" opacity=".6" overflow="visible" visibility="visible" style="marker:none"/><path id="path3298" fill="none" stroke="url(#linearGradient2865)" stroke-linecap="butt" stroke-linejoin="miter" stroke-opacity="1" stroke-width="1" d="m 31,14.998904 c 2.218036,-1.174438 5.108048,-1.534238 7.853744,-1.595478 1.234294,-0.02752 2.481888,0.2238 3.69306,-0.06428 1.541484,-0.36666 2.591966,-1.496026 2.438298,-2.528498 C 44.77882,9.42472 42.917068,8.4016 41.17098,7.66945 39.622164,7.020018 38.430092,5.862746 37.800108,4.64022 37.481816,4.022554 38.03768,3.3739982 38.929294,3.1749 c 0.809992,-0.180872 1.658364,-0.2523656 2.48259,-0.068712 1.254484,0.2795234 2.735364,0.6205406 3.31894,1.50932"/><path id="path2262" fill="url(#radialGradient3419)" fill-opacity="1" fill-rule="nonzero" stroke="url(#linearGradient3421)" stroke-dasharray="none" stroke-dashoffset="0" stroke-linecap="round" stroke-linejoin="round" stroke-miterlimit="4" stroke-opacity="1" stroke-width=".985" d="m 33.500001,31.5 0,-6.02737 7,0 0,6.02737 6.007286,0 0,7 -6.007286,0 0,6.007286 -7,0 0,-6.007286 -6.007287,0 0,-7 6.007287,0 z" color="#000" display="inline" enable-background="accumulate" overflow="visible" visibility="visible" style="marker:none"/><path id="path2272" fill="none" stroke="url(#linearGradient5530)" stroke-dasharray="none" stroke-linecap="butt" stroke-linejoin="miter" stroke-miterlimit="4" stroke-opacity="1" stroke-width="1" d="m 34.500001,32.5 0,-6.000001 5,0 0,6.000001 6,0 0,5 -6,0 0,6 -5,0 0,-6 -6,0 0,-5 6,0 z" display="inline" opacity=".4"/></g></svg>