<svg xmlns="http://www.w3.org/2000/svg" xmlns:svg="http://www.w3.org/2000/svg" xmlns:xlink="http://www.w3.org/1999/xlink" id="svg3310" width="64" height="64" version="1.0"><defs id="defs3312"><linearGradient id="linearGradient4222"><stop id="stop4224" offset="0" stop-color="#fff" stop-opacity="1"/><stop id="stop4226" offset="1" stop-color="#fff" stop-opacity="0"/></linearGradient><linearGradient id="linearGradient2789" x1="13.472" x2="57.726" y1="25.411" y2="25.411" gradientTransform="matrix(0,0.7184498,-0.6945215,0,51.285166,15.157787)" gradientUnits="userSpaceOnUse" xlink:href="#linearGradient4222"/><linearGradient id="linearGradient2264"><stop id="stop2266" offset="0" stop-color="#d7e866" stop-opacity="1"/><stop id="stop2268" offset="1" stop-color="#8cab2a" stop-opacity="1"/></linearGradient><linearGradient id="linearGradient2787" x1="28.315" x2=".816" y1="20.71" y2="20.71" gradientTransform="matrix(0,-0.6024053,-0.584028,0,46.952993,46.614196)" gradientUnits="userSpaceOnUse" xlink:href="#linearGradient2264"/><linearGradient id="linearGradient23419"><stop id="stop23421" offset="0" stop-color="#000" stop-opacity="1"/><stop id="stop23423" offset="1" stop-color="#000" stop-opacity="0"/></linearGradient><radialGradient id="radialGradient2528" cx="23.335" cy="41.636" r="22.627" fx="23.335" fy="41.636" gradientTransform="matrix(1.281631,0,0,0.3756156,2.0937489,36.860857)" gradientUnits="userSpaceOnUse" xlink:href="#linearGradient23419"/><linearGradient id="linearGradient3772"><stop id="stop3774" offset="0" stop-color="#b4b4b4" stop-opacity="1"/><stop id="stop3776" offset="1" stop-color="#969696" stop-opacity="1"/></linearGradient><linearGradient id="linearGradient2525" x1="-21.916" x2="-21.916" y1="3" y2="45.033" gradientTransform="matrix(1.3414634,0,0,1.3414634,67.233617,-0.195122)" gradientUnits="userSpaceOnUse" xlink:href="#linearGradient3772"/><linearGradient id="linearGradient3263" x1="12.274" x2="35.391" y1="32.416" y2="14.203" gradientUnits="userSpaceOnUse"><stop id="stop3265" offset="0" stop-color="#dedbde" stop-opacity="1"/><stop id="stop3267" offset=".5" stop-color="#e6e6e6" stop-opacity="1"/><stop id="stop3269" offset="1" stop-color="#d2d2d2" stop-opacity="1"/></linearGradient><linearGradient id="linearGradient2523" x1="12.274" x2="35.391" y1="32.416" y2="14.203" gradientTransform="matrix(0,1.5714424,-1.5714424,0,68.300327,-5.7146268)" gradientUnits="userSpaceOnUse" xlink:href="#linearGradient3263"/><linearGradient id="linearGradient3428"><stop id="stop3430" offset="0" stop-color="#aaa" stop-opacity="1"/><stop id="stop3432" offset="1" stop-color="#d4d4d4" stop-opacity="1"/></linearGradient><linearGradient id="linearGradient2519" x1="21.448" x2="21.448" y1="15.5" y2="32.509" gradientTransform="matrix(1.3125,0,0,1.3125,0.5000004,0.4999995)" gradientUnits="userSpaceOnUse" xlink:href="#linearGradient3428"/><linearGradient id="linearGradient2516" x1="18.776" x2="18.203" y1="4.038" y2="45.962" gradientTransform="matrix(0.5808777,0,0,0.5808775,17.85737,17.478061)" gradientUnits="userSpaceOnUse" xlink:href="#linearGradient6036"/><linearGradient id="linearGradient2485" x1="10.609" x2="9.73" y1="17.886" y2="20.613" gradientUnits="userSpaceOnUse" spreadMethod="reflect" xlink:href="#linearGradient3519"/><linearGradient id="linearGradient2483" x1="12.372" x2="14.609" y1="16.188" y2="13.462" gradientUnits="userSpaceOnUse" spreadMethod="reflect" xlink:href="#linearGradient3511"/><linearGradient id="linearGradient2481" x1="14.085" x2="16.994" y1="13.046" y2="10.732" gradientUnits="userSpaceOnUse" spreadMethod="reflect" xlink:href="#linearGradient3503"/><linearGradient id="linearGradient2479" x1="17.495" x2="21.047" y1="11.2" y2="9.796" gradientUnits="userSpaceOnUse" spreadMethod="reflect" xlink:href="#linearGradient3495"/><linearGradient id="linearGradient2477" x1="20.58" x2="24.274" y1="10.775" y2="9.862" gradientUnits="userSpaceOnUse" spreadMethod="reflect" xlink:href="#linearGradient3487"/><linearGradient id="linearGradient6036"><stop id="stop6038" offset="0" stop-color="#fff" stop-opacity="1"/><stop id="stop6040" offset="1" stop-color="#fff" stop-opacity="0"/></linearGradient><linearGradient id="linearGradient2507" x1="10.502" x2="48.799" y1="3.61" y2="54.698" gradientTransform="matrix(1.338544,0,0,1.3385441,-0.5895336,-1.4635946)" gradientUnits="userSpaceOnUse" xlink:href="#linearGradient6036"/><linearGradient id="linearGradient3519"><stop id="stop3521" offset="0" stop-color="#fcd9cd" stop-opacity="1"/><stop id="stop3523" offset="1" stop-color="#fcd9cd" stop-opacity="0"/></linearGradient><linearGradient id="linearGradient2497" x1="10.609" x2="9.73" y1="17.886" y2="20.613" gradientUnits="userSpaceOnUse" spreadMethod="reflect" xlink:href="#linearGradient3519"/><linearGradient id="linearGradient3511"><stop id="stop3513" offset="0" stop-color="#ebeec7" stop-opacity="1"/><stop id="stop3515" offset="1" stop-color="#ebeec7" stop-opacity="0"/></linearGradient><linearGradient id="linearGradient2495" x1="12.372" x2="14.609" y1="16.188" y2="13.462" gradientUnits="userSpaceOnUse" spreadMethod="reflect" xlink:href="#linearGradient3511"/><linearGradient id="linearGradient3503"><stop id="stop3505" offset="0" stop-color="#c4ebdd" stop-opacity="1"/><stop id="stop3507" offset="1" stop-color="#c4ebdd" stop-opacity="0"/></linearGradient><linearGradient id="linearGradient2493" x1="14.085" x2="16.994" y1="13.046" y2="10.732" gradientUnits="userSpaceOnUse" spreadMethod="reflect" xlink:href="#linearGradient3503"/><linearGradient id="linearGradient3495"><stop id="stop3497" offset="0" stop-color="#c1cbe4" stop-opacity="1"/><stop id="stop3499" offset="1" stop-color="#c1cbe4" stop-opacity="0"/></linearGradient><linearGradient id="linearGradient2491" x1="17.495" x2="21.047" y1="11.2" y2="9.796" gradientUnits="userSpaceOnUse" spreadMethod="reflect" xlink:href="#linearGradient3495"/><linearGradient id="linearGradient3487"><stop id="stop3489" offset="0" stop-color="#e6cde2" stop-opacity="1"/><stop id="stop3491" offset="1" stop-color="#e6cde2" stop-opacity="0"/></linearGradient><linearGradient id="linearGradient2489" x1="20.58" x2="24.274" y1="10.775" y2="9.862" gradientUnits="userSpaceOnUse" spreadMethod="reflect" xlink:href="#linearGradient3487"/></defs><g id="layer1"><path id="path23417" fill="url(#radialGradient2528)" fill-opacity="1" fill-rule="evenodd" stroke="none" stroke-width="2" d="M 61,52.499999 C 61.001449,57.194291 48.017314,61 32,61 C 15.982686,61 2.9985065,57.194291 3.0000001,52.499999 C 2.9985065,47.805709 15.982686,44 32,44 C 48.017314,44 61.001493,47.805709 61,52.499999 L 61,52.499999 z" display="inline" opacity=".3" overflow="visible" visibility="visible" style="marker:none"/><path id="path2781" fill="url(#linearGradient2523)" fill-rule="nonzero" stroke="url(#linearGradient2525)" stroke-miterlimit="4" stroke-opacity="1" stroke-width="1" d="M 59.5,31.999999 C 59.5,16.757004 47.242994,4.4999999 32,4.4999999 C 16.757002,4.4999999 4.5,16.757005 4.5,31.999999 C 4.4999974,47.242994 16.757004,59.499999 32,59.499999 C 47.242992,59.499996 59.5,47.242996 59.5,31.999999 z M 42.5,31.999999 C 42.5,37.537735 37.64854,42.5 32,42.5 C 26.240655,42.5 21.5,37.425799 21.5,31.999999 C 21.5,26.463373 26.019041,21.5 32,21.5 C 37.980959,21.5 42.5,26.573069 42.5,31.999999 z"/><path id="path3418" fill="#fff" fill-opacity=".498" stroke="url(#linearGradient2519)" stroke-dasharray="none" stroke-dashoffset="0" stroke-linecap="butt" stroke-linejoin="round" stroke-miterlimit="4" stroke-opacity="1" stroke-width="1" d="M 31.999999,21.499999 C 26.204,21.499999 21.499999,26.203998 21.499999,31.999998 C 21.499999,37.795997 26.204,42.499998 31.999999,42.499998 C 37.795998,42.499998 42.499998,37.795997 42.499998,31.999998 C 42.499998,26.203998 37.795998,21.499999 31.999999,21.499999 z M 31.999999,26.749998 C 34.897999,26.749998 37.249998,29.101998 37.249998,31.999998 C 37.249998,34.897998 34.897999,37.249997 31.999999,37.249997 C 29.101999,37.249997 26.749999,34.897998 26.749999,31.999998 C 26.749999,29.101998 29.101999,26.749998 31.999999,26.749998 z" display="inline" enable-background="accumulate" overflow="visible" visibility="visible" style="marker:none"/><path id="path3281" fill="none" stroke="url(#linearGradient2516)" stroke-miterlimit="4" stroke-opacity="1" stroke-width="1" d="M 31.999999,20.5 C 25.625713,20.5 20.499999,25.625713 20.499999,32 C 20.499999,38.374285 25.625713,43.500001 31.999999,43.500001 C 38.374288,43.500001 43.499999,38.374285 43.499999,32 C 43.499999,25.625713 38.374288,20.5 31.999999,20.5 L 31.999999,20.5 L 31.999999,20.5 L 31.999999,20.5 z" opacity=".8"/><g id="g3527" transform="matrix(1.3333334,0,0,1.3333334,-1.6e-6,5.889256e-2)"><path id="path3296" fill="url(#linearGradient2477)" fill-opacity="1" fill-rule="nonzero" stroke="none" d="M 15.856928,5.7307748 L 20.625,16.34375 C 21.660403,15.885186 22.795334,15.625 24,15.625 C 24.03206,15.625 24.06178,15.62464 24.09375,15.625 L 24.10801,4.0047512 C 21.16586,3.9340642 18.564969,4.6620377 15.856927,5.7307748 L 15.856928,5.7307748 z" opacity=".8" transform="matrix(0.9996011,2.824295e-2,-2.824295e-2,0.9996011,0.6924114,-0.6708346)"/><path id="path3308" fill="url(#linearGradient2479)" fill-opacity="1" fill-rule="nonzero" stroke="none" d="M 12.121471,7.9060109 L 19.052497,17.266115 C 19.965606,16.59636 21.018435,16.099051 22.195126,15.840946 C 22.226446,15.834046 22.255386,15.827356 22.286696,15.820856 L 19.857174,4.426276 C 16.968201,4.9876004 14.537644,6.2818798 12.121471,7.9060109 L 12.121471,7.9060109 z" opacity=".8"/><path id="path3310" fill="url(#linearGradient2481)" fill-opacity="1" fill-rule="nonzero" stroke="none" d="M 8.2523933,11.646535 L 17.466117,18.802353 C 18.174767,17.919089 19.063008,17.166234 20.132802,16.612373 C 20.161272,16.597633 20.187492,16.583653 20.216052,16.569273 L 14.86585,6.2506132 C 12.220599,7.5405321 10.165881,9.452393 8.2523933,11.646535 z" opacity=".8"/><path id="path3312" fill="url(#linearGradient2483)" fill-opacity="1" fill-rule="nonzero" stroke="none" d="M 5.6328855,16.073974 C 12.807692,18.316222 13.483148,23.105437 18.409671,17.828101 L 10.499985,9.1321388 C 8.2787249,11.062747 6.9132871,13.459349 5.6328855,16.073974 z" opacity=".8"/><path id="path3314" fill="url(#linearGradient2485)" fill-opacity="1" fill-rule="nonzero" stroke="none" d="M 7.155289,13.193173 C 5.9722117,14.945185 5.2475768,16.829547 4.6301929,18.837116 L 15.96875,21.8125 C 16.184264,21.049497 16.486796,20.297733 16.9375,19.59375 C 16.95479,19.56675 16.98246,19.52673 17,19.5 L 7.155289,13.193173 z" opacity=".8"/></g><path id="path3272" fill="none" stroke="url(#linearGradient2507)" stroke-miterlimit="4" stroke-opacity="1" stroke-width="1" d="M 32.000001,5.5 C 17.311429,5.5 5.4999996,17.311431 5.4999996,32.000002 C 5.4999996,46.688574 17.311429,58.500001 32.000001,58.500001 C 46.688573,58.500001 58.499999,46.688574 58.499999,32.000002 C 58.499999,17.311431 46.688573,5.5 32.000001,5.5 L 32.000001,5.5 L 32.000001,5.5 z" opacity=".4"/><g id="g3297" transform="matrix(-1.3333334,0,0,-1.3333334,64,64.046673)"><path id="path3299" fill="url(#linearGradient2489)" fill-opacity="1" fill-rule="nonzero" stroke="none" d="M 15.856928,5.7307748 L 20.625,16.34375 C 21.660403,15.885186 22.795334,15.625 24,15.625 C 24.03206,15.625 24.06178,15.62464 24.09375,15.625 L 24.10801,4.0047512 C 21.16586,3.9340642 18.564969,4.6620377 15.856927,5.7307748 L 15.856928,5.7307748 z" opacity=".8" transform="matrix(0.9996011,2.824295e-2,-2.824295e-2,0.9996011,0.6924114,-0.6708346)"/><path id="path3301" fill="url(#linearGradient2491)" fill-opacity="1" fill-rule="nonzero" stroke="none" d="M 12.121471,7.9060109 L 19.052497,17.266115 C 19.965606,16.59636 21.018435,16.099051 22.195126,15.840946 C 22.226446,15.834046 22.255386,15.827356 22.286696,15.820856 L 19.857174,4.426276 C 16.968201,4.9876004 14.537644,6.2818798 12.121471,7.9060109 L 12.121471,7.9060109 z" opacity=".8"/><path id="path3303" fill="url(#linearGradient2493)" fill-opacity="1" fill-rule="nonzero" stroke="none" d="M 8.2523933,11.646535 L 17.466117,18.802353 C 18.174767,17.919089 19.063008,17.166234 20.132802,16.612373 C 20.161272,16.597633 20.187492,16.583653 20.216052,16.569273 L 14.86585,6.2506132 C 12.220599,7.5405321 10.165881,9.452393 8.2523933,11.646535 z" opacity=".8"/><path id="path3305" fill="url(#linearGradient2495)" fill-opacity="1" fill-rule="nonzero" stroke="none" d="M 5.6328855,16.073974 C 12.807692,18.316222 13.483148,23.105437 18.409671,17.828101 L 10.499985,9.1321388 C 8.2787249,11.062747 6.9132871,13.459349 5.6328855,16.073974 z" opacity=".8"/><path id="path3307" fill="url(#linearGradient2497)" fill-opacity="1" fill-rule="nonzero" stroke="none" d="M 7.155289,13.193173 C 5.9722117,14.945185 5.2475768,16.829547 4.6301929,18.837116 L 15.96875,21.8125 C 16.184264,21.049497 16.486796,20.297733 16.9375,19.59375 C 16.95479,19.56675 16.98246,19.52673 17,19.5 L 7.155289,13.193173 z" opacity=".8"/></g></g><g id="g2783" transform="matrix(1.3385643,0,0,1.3325,3.7327001,0.6094627)"><path id="path3288" fill="url(#linearGradient2787)" fill-opacity="1" fill-rule="nonzero" stroke="#699536" stroke-dasharray="none" stroke-dashoffset="0" stroke-linecap="round" stroke-linejoin="round" stroke-miterlimit="4" stroke-opacity="1" stroke-width=".745" d="M 44.510965,31.406005 L 32.971081,45.510983 L 21.489033,31.481051 L 26.721817,31.481051 L 26.721817,20.992687 L 39.352514,20.992687 L 39.352514,31.406005 L 44.510965,31.406005 L 44.510965,31.406005 z" display="inline" overflow="visible" visibility="visible" style="marker:none"/><path id="path3290" fill="none" stroke="url(#linearGradient2789)" stroke-dasharray="none" stroke-dashoffset="0" stroke-linecap="butt" stroke-linejoin="miter" stroke-miterlimit="4" stroke-opacity="1" stroke-width=".744" d="M 42.691406,32.224766 L 32.999687,44.274758 L 23.329129,32.299813 L 27.387345,32.299813 L 27.387345,21.663171 L 38.612029,21.663171 L 38.612029,32.224766 L 42.691406,32.224766 L 42.691406,32.224766 z" display="inline" opacity=".354" overflow="visible" visibility="visible" style="marker:none"/></g></svg>