<svg xmlns="http://www.w3.org/2000/svg" xmlns:svg="http://www.w3.org/2000/svg" xmlns:xlink="http://www.w3.org/1999/xlink" id="svg3985" width="64" height="64" version="1.1"><defs id="defs3987"><linearGradient id="linearGradient3047" x1="63.397" x2="63.397" y1="-12.489" y2="5.468" gradientTransform="matrix(2.8014404,0,0,2.8013767,-142.25072,43.835172)" gradientUnits="userSpaceOnUse" xlink:href="#linearGradient4873-2"/><linearGradient id="linearGradient4873-2"><stop id="stop4875-7" offset="0" stop-color="#fff" stop-opacity="1"/><stop id="stop4877-6" offset="1" stop-color="#fff" stop-opacity="0"/></linearGradient><radialGradient id="radialGradient3050" cx="23.896" cy="3.99" r="20.397" fx="23.896" fy="3.99" gradientTransform="matrix(0,2.9913581,-3.9485396,0,47.754682,-64.903143)" gradientUnits="userSpaceOnUse" xlink:href="#linearGradient3242"/><linearGradient id="linearGradient3242"><stop id="stop3244" offset="0" stop-color="#f8b17e" stop-opacity="1"/><stop id="stop3246" offset=".262" stop-color="#e35d4f" stop-opacity="1"/><stop id="stop3248" offset=".661" stop-color="#c6262e" stop-opacity="1"/><stop id="stop3250" offset="1" stop-color="#690b54" stop-opacity="1"/></linearGradient><linearGradient id="linearGradient3052" x1="18.379" x2="18.379" y1="44.98" y2="3.082" gradientTransform="matrix(1.2533672,0,0,1.2533674,1.919184,3.919169)" gradientUnits="userSpaceOnUse" xlink:href="#linearGradient2490"/><linearGradient id="linearGradient2490"><stop id="stop2492" offset="0" stop-color="#791235" stop-opacity="1"/><stop id="stop2494" offset="1" stop-color="#dd3b27" stop-opacity="1"/></linearGradient><linearGradient id="linearGradient8838-1"><stop id="stop8840-3" offset="0" stop-color="#000" stop-opacity="1"/><stop id="stop8842-2" offset="1" stop-color="#000" stop-opacity="0"/></linearGradient><radialGradient id="radialGradient3983" cx="62.625" cy="4.625" r="10.625" fx="62.625" fy="4.625" gradientTransform="matrix(2.9176471,0,0,0.988234,-150.71765,48.92941)" gradientUnits="userSpaceOnUse" xlink:href="#linearGradient8838-1"/></defs><g id="layer1"><path id="path8836-1" fill="url(#radialGradient3983)" fill-opacity="1" fill-rule="evenodd" stroke="none" stroke-width="1" d="m 63,53.499998 c 0,5.79899 -13.879175,10.5 -31,10.5 -17.120825,0 -31,-4.70101 -31,-10.5 0,-5.79899 13.879175,-10.5 31,-10.5 17.120825,0 31,4.70101 31,10.5 l 0,0 z" display="inline" opacity=".3" overflow="visible" visibility="visible" style="marker:none"/><path id="path2555-5" fill="url(#radialGradient3050)" fill-opacity="1" stroke="url(#linearGradient3052)" stroke-dasharray="none" stroke-dashoffset="0" stroke-linecap="round" stroke-linejoin="round" stroke-miterlimit="4" stroke-opacity="1" stroke-width="1" d="m 32.000001,8.501793 c -14.069021,0 -25.4981918,11.429168 -25.4981918,25.49819 0,14.069021 11.4291708,25.498194 25.4981918,25.49819 14.069016,0 25.4982,-11.429169 25.498187,-25.49819 0,-14.069022 -11.429171,-25.49819 -25.498187,-25.49819 z"/><path id="path8655-9" fill="none" stroke="url(#linearGradient3047)" stroke-dasharray="none" stroke-miterlimit="4" stroke-opacity="1" stroke-width="1" d="m 56.499998,33.999131 c 0,13.531412 -10.96983,24.500867 -24.499689,24.500867 -13.531098,0 -24.5003092,-10.969579 -24.5003092,-24.500867 0,-13.530787 10.9692112,-24.4991303 24.5003092,-24.4991303 13.529859,0 24.499689,10.9683433 24.499689,24.4991303 l 0,0 z" opacity=".4"/></g></svg>