<svg xmlns="http://www.w3.org/2000/svg" xmlns:svg="http://www.w3.org/2000/svg" xmlns:xlink="http://www.w3.org/1999/xlink" id="svg5599" width="64" height="64" version="1.1"><defs id="defs5601"><linearGradient id="linearGradient3076" x1="22.369" x2="22.369" y1="8.032" y2="38.274" gradientTransform="matrix(0.81016199,0,0,0.80527479,30.877614,31.355294)" gradientUnits="userSpaceOnUse" xlink:href="#linearGradient3943-1"/><linearGradient id="linearGradient3943-1"><stop id="stop3945-9" offset="0" stop-color="#fff" stop-opacity="1"/><stop id="stop3947-8" offset="1" stop-color="#fff" stop-opacity="0"/></linearGradient><radialGradient id="radialGradient5480" cx="69.448" cy="48.588" r="31" fx="69.448" fy="48.588" gradientTransform="matrix(0,0.89356802,-0.97209033,0,96.23184,-21.684159)" gradientUnits="userSpaceOnUse" xlink:href="#linearGradient3242-7-7"/><linearGradient id="linearGradient3242-7-7"><stop id="stop3244-5-7" offset="0" stop-color="#eef87e" stop-opacity="1"/><stop id="stop3246-9-6" offset=".262" stop-color="#cde34f" stop-opacity="1"/><stop id="stop3248-7-8" offset=".661" stop-color="#93b723" stop-opacity="1"/><stop id="stop3250-8-7" offset="1" stop-color="#5a7e0d" stop-opacity="1"/></linearGradient><linearGradient id="linearGradient5482" x1="72.422" x2="72.422" y1="123.191" y2="52.809" gradientTransform="matrix(0.37117353,0,0,0.37420988,16.336726,17.056306)" gradientUnits="userSpaceOnUse" xlink:href="#linearGradient2490-3-3"/><linearGradient id="linearGradient2490-3-3"><stop id="stop2492-3-2" offset="0" stop-color="#365f0e" stop-opacity="1"/><stop id="stop2494-8-5" offset="1" stop-color="#84a718" stop-opacity="1"/></linearGradient><linearGradient id="linearGradient3675" x1="16" x2="16" y1="4" y2="10" gradientTransform="matrix(2.0434784,0,0,2.2000003,-0.69565202,-1.4007899)" gradientUnits="userSpaceOnUse" xlink:href="#linearGradient3669"/><linearGradient id="linearGradient3669"><stop id="stop3671" offset="0" stop-color="#fff" stop-opacity="1"/><stop id="stop3673" offset="1" stop-color="#fff" stop-opacity=".2"/></linearGradient><linearGradient id="linearGradient2877" x1="25" x2="25" y1="17.829" y2="8.197" gradientTransform="matrix(1.4848467,0,0,1.6065587,-5.1211954,-6.959036)" gradientUnits="userSpaceOnUse" xlink:href="#linearGradient2781"/><linearGradient id="linearGradient2781"><stop id="stop2783" offset="0" stop-color="#cdcdcd" stop-opacity="1"/><stop id="stop2785" offset="1" stop-color="#fff" stop-opacity="1"/></linearGradient><linearGradient id="linearGradient3663" x1="302.857" x2="302.857" y1="366.648" y2="609.505" gradientTransform="matrix(0.03104752,0,0,0.01366805,0.7785389,15.669255)" gradientUnits="userSpaceOnUse" xlink:href="#linearGradient5048"/><linearGradient id="linearGradient5048"><stop id="stop5050" offset="0" stop-color="#000" stop-opacity="0"/><stop id="stop5056" offset=".5" stop-color="#000" stop-opacity="1"/><stop id="stop5052" offset="1" stop-color="#000" stop-opacity="0"/></linearGradient><radialGradient id="radialGradient3665" cx="605.714" cy="486.648" r="117.143" fx="605.714" fy="486.648" gradientTransform="matrix(0.03104752,0,0,0.01366805,0.7846491,15.669255)" gradientUnits="userSpaceOnUse" xlink:href="#linearGradient5060"/><linearGradient id="linearGradient5060"><stop id="stop5062" offset="0" stop-color="#000" stop-opacity="1"/><stop id="stop5064" offset="1" stop-color="#000" stop-opacity="0"/></linearGradient><radialGradient id="radialGradient5597" cx="605.714" cy="486.648" r="117.143" fx="605.714" fy="486.648" gradientTransform="matrix(-0.03104752,0,0,0.01366805,23.215356,15.669255)" gradientUnits="userSpaceOnUse" xlink:href="#linearGradient5060"/></defs><metadata id="metadata5604"/><g id="layer1"><g id="g3217" transform="matrix(2.6406012,0,0,2.1088253,0.31278522,9.388194)"><rect id="rect4173" width="14.992" height="3.319" x="4.504" y="20.681" fill="url(#linearGradient3663)" fill-opacity="1" fill-rule="nonzero" stroke="none" stroke-width="1" display="inline" opacity=".236" overflow="visible" visibility="visible" style="marker:none"/><path id="path5058" fill="url(#radialGradient3665)" fill-opacity="1" fill-rule="nonzero" stroke="none" stroke-width="1" d="m 19.495759,20.680731 c 0,0 0,3.3192 0,3.3192 1.598871,0.0062 3.865291,-0.743664 3.86529,-1.659813 0,-0.91615 -1.784219,-1.659387 -3.86529,-1.659387 z" display="inline" opacity=".236" overflow="visible" visibility="visible" style="marker:none"/><path id="path5018" fill="url(#radialGradient5597)" fill-opacity="1" fill-rule="nonzero" stroke="none" stroke-width="1" d="m 4.5042417,20.680731 c 0,0 0,3.3192 0,3.3192 -1.5988709,0.0062 -3.8652907,-0.743664 -3.8652907,-1.659813 0,-0.91615 1.784219,-1.659387 3.8652907,-1.659387 z" display="inline" opacity=".236" overflow="visible" visibility="visible" style="marker:none"/></g><path id="rect1887" fill="url(#linearGradient2877)" fill-opacity="1" stroke="#8c8c8c" stroke-dasharray="none" stroke-miterlimit="4" stroke-opacity="1" stroke-width="1" d="m 10.5,7.5000001 c -1.662,0 -3,1.338 -3,2.9999999 l 0,1 0,18 0,3.78125 0,18.0625 0,5.15625 5.15625,0 38.6875,0 5.15625,0 0,-5.15625 0,-18.0625 0,-3.78125 0,-17.375 0,-1.625 c 0,-1.6619999 -1.338,-2.9999999 -3,-2.9999999 l -43,0 z"/><path id="rect2779" fill="none" stroke="url(#linearGradient3675)" stroke-dasharray="none" stroke-miterlimit="4" stroke-opacity="1" stroke-width="1" d="m 8.5000004,19.5 46.9999986,0 0,-8.456497 c 0,-2.0313323 -0.909438,-2.5435025 -2.441086,-2.5435025 l -42.098794,0 c -1.5316462,0 -2.4601186,0.5121702 -2.4601186,2.5435025 l 0,8.456497 z" opacity=".8"/><rect id="rect4122" width="48" height="35" x="8" y="21" fill="#fff" fill-opacity="1" fill-rule="nonzero" stroke="none" stroke-width="1" color="#000" display="inline" enable-background="accumulate" overflow="visible" visibility="visible" style="marker:none"/><rect id="rect4122-3" width="15" height="35" x="8" y="21" fill="#eee" fill-opacity="1" fill-rule="nonzero" stroke="none" stroke-width="1" color="#000" display="inline" enable-background="accumulate" overflow="visible" visibility="visible" style="marker:none"/><path id="path4146" fill="none" stroke="#a0a0a0" stroke-linecap="butt" stroke-linejoin="miter" stroke-opacity="1" stroke-width="1" d="m 8,20.5 48.000105,0"/><path id="path4146-4" fill="gray" stroke="#b3b3b3" stroke-linecap="square" stroke-linejoin="miter" stroke-opacity="1" stroke-width="1" d="M 22.5,21.499598 22.5,55.5"/><path id="path4146-4-9" fill="gray" stroke="#fff" stroke-dasharray="none" stroke-linecap="square" stroke-linejoin="miter" stroke-miterlimit="4" stroke-opacity="1" stroke-width="1" d="M 21.5,21.499981 21.5,55.5" opacity=".4"/><path id="path4146-0" fill="none" stroke="#000" stroke-linecap="butt" stroke-linejoin="miter" stroke-opacity="1" stroke-width="1" d="m 8,21.5 48.000105,0" opacity=".1"/><path id="path5006-6" fill="#fff" fill-opacity="1" fill-rule="nonzero" stroke="none" stroke-width="1" d="m 12.152256,10.674741 a 0.95482016,0.52081102 0 1 1 -1.90964,0 0.95482016,0.52081102 0 1 1 1.90964,0 z" color="#000" display="inline" enable-background="accumulate" opacity=".6" overflow="visible" transform="matrix(1.0473176,0,0,1.9200823,-0.72727239,-8.496381)" visibility="visible" style="marker:none"/><path id="path5006" fill="#a0a0a0" fill-opacity="1" fill-rule="nonzero" stroke="none" stroke-width="1" d="m 12.152256,10.674741 a 0.95482016,0.52081102 0 1 1 -1.90964,0 0.95482016,0.52081102 0 1 1 1.90964,0 z" color="#000" display="inline" enable-background="accumulate" overflow="visible" transform="matrix(1.0473176,0,0,1.9200823,-0.72727219,-9.496381)" visibility="visible" style="marker:none"/><path id="path5006-4-4" fill="#fff" fill-opacity="1" fill-rule="nonzero" stroke="none" stroke-width="1" d="m 12.152256,10.674741 a 0.95482016,0.52081102 0 1 1 -1.90964,0 0.95482016,0.52081102 0 1 1 1.90964,0 z" color="#000" display="inline" enable-background="accumulate" opacity=".6" overflow="visible" transform="matrix(1.0473176,0,0,1.9200823,4.2727276,-8.496381)" visibility="visible" style="marker:none"/><path id="path5006-4" fill="#a0a0a0" fill-opacity="1" fill-rule="nonzero" stroke="none" stroke-width="1" d="m 12.152256,10.674741 a 0.95482016,0.52081102 0 1 1 -1.90964,0 0.95482016,0.52081102 0 1 1 1.90964,0 z" color="#000" display="inline" enable-background="accumulate" overflow="visible" transform="matrix(1.0473176,0,0,1.9200823,4.2727283,-9.496381)" visibility="visible" style="marker:none"/><path id="path5006-3-5" fill="#fff" fill-opacity="1" fill-rule="nonzero" stroke="none" stroke-width="1" d="m 12.152256,10.674741 a 0.95482016,0.52081102 0 1 1 -1.90964,0 0.95482016,0.52081102 0 1 1 1.90964,0 z" color="#000" display="inline" enable-background="accumulate" opacity=".6" overflow="visible" transform="matrix(1.0473176,0,0,1.9200823,9.2727277,-8.496381)" visibility="visible" style="marker:none"/><path id="path5006-3" fill="#a0a0a0" fill-opacity="1" fill-rule="nonzero" stroke="none" stroke-width="1" d="m 12.152256,10.674741 a 0.95482016,0.52081102 0 1 1 -1.90964,0 0.95482016,0.52081102 0 1 1 1.90964,0 z" color="#000" display="inline" enable-background="accumulate" overflow="visible" transform="matrix(1.0473176,0,0,1.9200823,9.2727283,-9.496381)" visibility="visible" style="marker:none"/><path id="path2262" fill="url(#radialGradient5480)" fill-opacity="1" fill-rule="nonzero" stroke="url(#linearGradient5482)" stroke-dasharray="none" stroke-dashoffset="0" stroke-linecap="round" stroke-linejoin="round" stroke-miterlimit="4" stroke-opacity="1" stroke-width=".985" d="m 44.499999,45.499999 0,-8.033718 9.104417,0 -0.104416,8.033718 8.007287,0 0,9.000001 -8.007287,0 0,8.007286 -9.000001,0 0,-8.007286 -8.007286,0 0,-9.000001 8.007286,0 z" color="#000" display="inline" enable-background="accumulate" overflow="visible" visibility="visible" style="marker:none"/><path id="path2272" fill="none" stroke="url(#linearGradient3076)" stroke-dasharray="none" stroke-linecap="butt" stroke-linejoin="miter" stroke-miterlimit="4" stroke-opacity="1" stroke-width="1" d="m 45.499999,46.499999 0,-7.999999 7.000001,0 0,7.999999 7.999999,0 0,7.000001 -7.999999,0 0,7.999999 -7.000001,0 0,-7.999999 -8.000001,0 0,-7.000001 8.000001,0 z" display="inline" opacity=".4"/></g></svg>