<svg xmlns="http://www.w3.org/2000/svg" xmlns:svg="http://www.w3.org/2000/svg" xmlns:xlink="http://www.w3.org/1999/xlink" id="svg2475" width="24" height="24" version="1.0"><metadata id="metadata53"/><defs id="defs2477"><linearGradient id="linearGradient3705"><stop id="stop3707" offset="0" stop-color="#fff" stop-opacity="1"/><stop id="stop3713" offset=".519" stop-color="#000" stop-opacity="1"/><stop id="stop3709" offset="1" stop-color="#000" stop-opacity="1"/></linearGradient><linearGradient id="linearGradient4873"><stop id="stop4875" offset="0" stop-color="#fff" stop-opacity="1"/><stop id="stop4877" offset="1" stop-color="#fff" stop-opacity="0"/></linearGradient><linearGradient id="linearGradient2901" x1="21.629" x2="22.245" y1="2.11" y2="43.366" gradientTransform="matrix(0.4873978,0,0,0.4781595,-0.345297,0.700712)" gradientUnits="userSpaceOnUse" xlink:href="#linearGradient4873"/><linearGradient id="linearGradient2904" x1="13.611" x2="15.373" y1="9.896" y2="22.6" gradientTransform="matrix(0.4873978,0,0,0.4781595,-0.345297,0.700712)" gradientUnits="userSpaceOnUse" xlink:href="#linearGradient3191"/><linearGradient id="linearGradient2918" x1="15.373" x2="15.373" y1="5.047" y2="22.6" gradientTransform="matrix(-0.4873978,0,0,-0.4781595,23.842396,23.296914)" gradientUnits="userSpaceOnUse" xlink:href="#linearGradient3191"/><linearGradient id="linearGradient2926" x1="21.629" x2="22.245" y1="2.11" y2="43.366" gradientTransform="matrix(-0.4873978,0,0,-0.4781595,23.842396,23.296914)" gradientUnits="userSpaceOnUse" xlink:href="#linearGradient4873"/><linearGradient id="linearGradient3743" x1="18" x2="21" y1="17" y2="12" gradientUnits="userSpaceOnUse" xlink:href="#linearGradient3705"/><mask id="mask3739"><rect id="rect3741" width="22" height="12" x="1" y="12" fill="url(#linearGradient3743)" fill-opacity="1" stroke="none"/></mask><linearGradient id="linearGradient3753" x1="18" x2="21" y1="17" y2="12" gradientTransform="translate(-24,-24)" gradientUnits="userSpaceOnUse" xlink:href="#linearGradient3705"/><mask id="mask3749"><rect id="rect3751" width="22" height="12" x="-23" y="-12" fill="url(#linearGradient3753)" fill-opacity="1" stroke="none" transform="scale(-1,-1)"/></mask><linearGradient id="linearGradient3191"><stop id="stop3193" offset="0" stop-color="#e9e9e9" stop-opacity="1"/><stop id="stop3195" offset="1" stop-color="#bcbcbc" stop-opacity="1"/></linearGradient><linearGradient id="linearGradient2492" x1="1.5" x2="14.5" y1="1037.862" y2="1050.862" gradientTransform="translate(0,-1036.3622)" gradientUnits="userSpaceOnUse" xlink:href="#linearGradient3195-405"/><linearGradient id="linearGradient3195-405"><stop id="stop2418" offset="0" stop-color="#fff" stop-opacity="1"/><stop id="stop2420" offset="1" stop-color="#fff" stop-opacity="0"/></linearGradient><linearGradient id="linearGradient2487-569-96" x1="5.682" x2="5.682" y1="1038.588" y2="1050.293" gradientTransform="translate(0,-1036.3622)" gradientUnits="userSpaceOnUse" xlink:href="#linearGradient7012-661-145-733-759-865-745-271-756-820"/><linearGradient id="linearGradient7012-661-145-733-759-865-745-271-756-820"><stop id="stop2644" offset="0" stop-color="#d2d2d2" stop-opacity="1"/><stop id="stop2646" offset="1" stop-color="#9b9b9b" stop-opacity="1"/></linearGradient><linearGradient id="linearGradient2489-735-841" x1="11.375" x2="11.375" y1="1051.449" y2="1037.362" gradientTransform="translate(0,-1036.3622)" gradientUnits="userSpaceOnUse" xlink:href="#linearGradient3390-861-676-84"/><linearGradient id="linearGradient3390-861-676-84"><stop id="stop2650" offset="0" stop-color="#767676" stop-opacity="1"/><stop id="stop2652" offset="1" stop-color="#a8a8a8" stop-opacity="1"/></linearGradient><linearGradient id="linearGradient2483" x1="8" x2="8" y1="1037.362" y2="1051.362" gradientTransform="matrix(0.8461539,0,0,0.8461527,1.2307693,-875.68989)" gradientUnits="userSpaceOnUse" xlink:href="#linearGradient3195-97"/><linearGradient id="linearGradient3195-97"><stop id="stop2436" offset="0" stop-color="#fff" stop-opacity="1"/><stop id="stop2438" offset="1" stop-color="#fff" stop-opacity="0"/></linearGradient><linearGradient id="linearGradient2431" x1="8" x2="8" y1="1037.362" y2="1051.362" gradientTransform="matrix(0.8461539,0,0,0.8461527,10.730769,-866.18987)" gradientUnits="userSpaceOnUse" xlink:href="#linearGradient3195-97"/><linearGradient id="linearGradient2434" x1="5.682" x2="5.682" y1="1038.588" y2="1050.293" gradientTransform="translate(9.4999999,-1026.8622)" gradientUnits="userSpaceOnUse" xlink:href="#linearGradient7012-661-145-733-759-865-745-271-756-820"/><linearGradient id="linearGradient2436" x1="11.375" x2="11.375" y1="1051.449" y2="1037.362" gradientTransform="translate(9.4999999,-1026.8622)" gradientUnits="userSpaceOnUse" xlink:href="#linearGradient3390-861-676-84"/><linearGradient id="linearGradient2439" x1="1.5" x2="14.5" y1="1037.862" y2="1050.862" gradientTransform="translate(9.4999999,-1026.8622)" gradientUnits="userSpaceOnUse" xlink:href="#linearGradient3195-405"/></defs><g id="g3731" mask="url(#mask3739)" transform="translate(-0.34137619,0)"><path id="path3372" fill="url(#linearGradient2918)" fill-opacity="1" stroke="#969696" stroke-dasharray="none" stroke-linecap="butt" stroke-linejoin="round" stroke-miterlimit="4" stroke-opacity="1" stroke-width="1.005" d="M 16.96875,12.78125 C 16.813534,15.319623 13.94201,17.150169 11.6875,17 10.480174,17 9.30456,16.726823 8.4375,15.90625 L 10.84375,13.5 l -9,0 0,9 2.84375,-2.8125 c 1.893804,1.825725 4.079985,2.782319 6.875,2.8125 l 0,-0.03125 c 4.752004,0.168344 10.292725,-3.27161 10.4375,-9.5 l -5.03125,-0.1875 z"/><path id="path3370" fill="none" stroke="url(#linearGradient2926)" stroke-dasharray="none" stroke-linecap="butt" stroke-linejoin="miter" stroke-miterlimit="4" stroke-opacity="1" stroke-width="1.005" d="m 17.84375,12.75 c -0.07062,2.868458 -2.40943,5.343011 -6.1875,5.25 -1.365148,-0.01958 -3.039493,-0.265347 -4.75,-1.875 l 1.5625,-1.625 -5.625,0 0,5.625 2,-1.8125 c 1.8020961,1.972022 3.9362225,3.178557 6.75,3.1875 0.01066,3.4e-5 0.02057,0 0.03125,0 3.634267,0.06435 9.132588,-2.523862 9.28125,-8.5625 L 17.84375,12.75 z" opacity=".4"/></g><g id="g3745" mask="url(#mask3749)"><path id="path3595" fill="url(#linearGradient2904)" fill-opacity="1" stroke="#969696" stroke-dasharray="none" stroke-linecap="butt" stroke-linejoin="round" stroke-miterlimit="4" stroke-opacity="1" stroke-width="1.005" d="M 11.9375,1.5 C 7.185496,1.331656 1.644775,4.80286 1.5,11.03125 l 5.03125,0.1875 C 6.686466,8.680377 9.55799,6.849831 11.8125,7 c 1.207326,0 2.38294,0.273177 3.25,1.09375 L 12.65625,10.5 l 9,0 0,-9 -2.84375,2.8125 C 16.918696,2.486775 14.732515,1.530181 11.9375,1.5 z"/><path id="path3597" fill="none" stroke="url(#linearGradient2901)" stroke-dasharray="none" stroke-linecap="butt" stroke-linejoin="miter" stroke-miterlimit="4" stroke-opacity="1" stroke-width="1.005" d="M 11.1875,2.5 C 7.5878629,2.7409187 2.7335003,5.3858513 2.59375,11.0625 l 3.0625,0.15625 c 0.07062,-2.868458 2.40943,-5.343011 6.1875,-5.25 l 0,0.03125 c 1.365148,0.01958 3.039493,0.265347 4.75,1.875 l -1.5625,1.625 5.625,0 0,-5.625 L 18.625,5.65625 C 16.822904,3.6842276 14.720027,2.5089433 11.90625,2.5 11.89635,2.4997853 11.8849,2.5001753 11.875,2.5 11.657142,2.49614 11.417042,2.484637 11.1875,2.5 z" opacity=".4"/></g><rect id="rect3180" width="13" height="13" x="11.5" y="11.5" fill="none" stroke="url(#linearGradient2439)" stroke-dasharray="none" stroke-miterlimit="4" stroke-opacity="1" stroke-width="1" rx="3.021" ry="3.021"/><rect id="rect7169" width="11" height="11" x="12.5" y="12.5" fill="url(#linearGradient2434)" fill-opacity="1" stroke="url(#linearGradient2436)" stroke-dasharray="none" stroke-miterlimit="4" stroke-opacity="1" stroke-width="1" rx="2" ry="2"/><rect id="rect3419" width="9" height="9" x="13.5" y="13.5" fill="none" stroke="url(#linearGradient2431)" stroke-dasharray="none" stroke-miterlimit="4" stroke-opacity="1" stroke-width="1" opacity=".3" rx="1.036" ry="1.036"/><rect id="rect2441" width="2" height="2" x="17" y="21" fill="#fff" fill-opacity="1" fill-rule="nonzero" stroke="none" stroke-width="1" display="inline" enable-background="accumulate" opacity=".6" overflow="visible" rx="1" ry="1" visibility="visible" style="marker:none"/><rect id="rect4230" width="2" height="2" x="17" y="20" fill="#000" fill-opacity="1" fill-rule="nonzero" stroke="none" stroke-width="1" display="inline" enable-background="accumulate" opacity=".6" overflow="visible" rx="1" ry="1" visibility="visible" style="marker:none"/><rect id="rect2443" width="2" height="5" x="17" y="15" fill="#fff" fill-opacity="1" fill-rule="nonzero" stroke="none" stroke-width="1" display="inline" enable-background="accumulate" opacity=".6" overflow="visible" rx=".944" ry="1" visibility="visible" style="marker:none"/><rect id="rect4232" width="2" height="5" x="17" y="14" fill="#000" fill-opacity="1" fill-rule="nonzero" stroke="none" stroke-width="1" display="inline" enable-background="accumulate" opacity=".6" overflow="visible" rx=".944" ry="1" visibility="visible" style="marker:none"/></svg>