<svg xmlns="http://www.w3.org/2000/svg" xmlns:svg="http://www.w3.org/2000/svg" xmlns:xlink="http://www.w3.org/1999/xlink" id="svg2" width="24" height="24" version="1.0"><defs id="defs4"><linearGradient id="linearGradient5048-2"><stop id="stop5050-1" offset="0" stop-color="#000" stop-opacity="0"/><stop id="stop5056-7" offset=".5" stop-color="#000" stop-opacity="1"/><stop id="stop5052-56" offset="1" stop-color="#000" stop-opacity="0"/></linearGradient><linearGradient id="linearGradient5060-4"><stop id="stop5062-2" offset="0" stop-color="#000" stop-opacity="1"/><stop id="stop5064-21" offset="1" stop-color="#000" stop-opacity="0"/></linearGradient><linearGradient id="linearGradient11223" x1="4.191" x2="47.32" y1="11.113" y2="56.052" gradientUnits="userSpaceOnUse"><stop id="stop11225" offset="0" stop-color="#fff" stop-opacity="1"/><stop id="stop11227" offset="1" stop-color="#fff" stop-opacity="0"/></linearGradient><linearGradient id="linearGradient7012-661-145-733-759-865-745-661-970-94"><stop id="stop3618" offset="0" stop-color="#edd563" stop-opacity="1"/><stop id="stop3620" offset="1" stop-color="#e08223" stop-opacity="1"/></linearGradient><linearGradient id="linearGradient3390-178-986-453"><stop id="stop3624" offset="0" stop-color="#bb5e12" stop-opacity="1"/><stop id="stop3626" offset="1" stop-color="#cd8033" stop-opacity="1"/></linearGradient><linearGradient id="linearGradient3041" x1="29.127" x2="29.291" y1="19.788" y2="57.567" gradientTransform="matrix(0.51842262,0,-0.00225667,0.51518438,-3.055299,-7.9259755)" gradientUnits="userSpaceOnUse" xlink:href="#linearGradient11223"/><linearGradient id="linearGradient3044" x1="24" x2="24" y1="-3" y2="47" gradientTransform="matrix(0.51113369,0,0,0.48839474,-0.26716831,0.74242737)" gradientUnits="userSpaceOnUse" xlink:href="#linearGradient7012-661-145-733-759-865-745-661-970-94"/><linearGradient id="linearGradient3046" x1="20" x2="20" y1="47" y2="-3" gradientTransform="matrix(0.51113369,0,0,0.48839474,-0.26716831,0.74242737)" gradientUnits="userSpaceOnUse" xlink:href="#linearGradient3390-178-986-453"/><linearGradient id="linearGradient3054" x1="302.857" x2="302.857" y1="366.648" y2="609.505" gradientTransform="matrix(0.04372487,0,0,0.02470588,0.19658457,16.941641)" gradientUnits="userSpaceOnUse" xlink:href="#linearGradient5048-2"/><radialGradient id="radialGradient3056" cx="605.714" cy="486.648" r="117.143" fx="605.714" fy="486.648" gradientTransform="matrix(0.04372487,0,0,0.02470588,0.20518964,16.941641)" gradientUnits="userSpaceOnUse" xlink:href="#linearGradient5060-4"/><radialGradient id="radialGradient3058" cx="605.714" cy="486.648" r="117.143" fx="605.714" fy="486.648" gradientTransform="matrix(-0.04372487,0,0,0.02470588,31.794818,16.941641)" gradientUnits="userSpaceOnUse" xlink:href="#linearGradient5060-4"/></defs><g id="g4815" transform="matrix(0.75,0,0,0.5,0,8.0000001)"><rect id="rect13073" width="21.113" height="6" x="5.444" y="26" fill="url(#linearGradient3054)" fill-opacity="1" fill-rule="nonzero" stroke="none" stroke-width="1" display="inline" opacity=".5" overflow="visible" visibility="visible" style="marker:none"/><path id="path13075" fill="url(#radialGradient3056)" fill-opacity="1" fill-rule="nonzero" stroke="none" stroke-width="1" d="m 26.556433,26.000207 c 0,0 0,5.999668 0,5.999668 2.251722,0.01129 5.443569,-1.344221 5.443567,-3.00022 0,-1.655999 -2.512752,-2.999448 -5.443567,-2.999448 z" display="inline" opacity=".5" overflow="visible" visibility="visible" style="marker:none"/><path id="path13077" fill="url(#radialGradient3058)" fill-opacity="1" fill-rule="nonzero" stroke="none" stroke-width="1" d="m 5.4435688,26.000207 c 0,0 0,5.999668 0,5.999668 C 3.1918459,32.01117 0,30.655654 0,28.999655 0,27.343656 2.5127524,26.000207 5.4435688,26.000207 z" display="inline" opacity=".5" overflow="visible" visibility="visible" style="marker:none"/></g><path id="path11155" fill="url(#linearGradient3044)" fill-opacity="1" fill-rule="nonzero" stroke="url(#linearGradient3046)" stroke-dasharray="none" stroke-miterlimit="4" stroke-opacity="1" stroke-width="1" d="M 23.336391,20.277743 13.353845,2.2777761 C 13.066916,1.7777882 12.547728,1.5000008 11.969509,1.5000008 c -0.578226,0 -1.100074,0.3332694 -1.391358,0.8332782 L 0.66994185,20.333225 c -0.2332213,0.444358 -0.2358987,1.055458 0.0512321,1.500027 0.28717305,0.444359 0.74878765,0.666749 1.32699175,0.666749 l 19.8907533,0 c 0.578224,0 1.09982,-0.27783 1.333041,-0.722189 0.291052,-0.44436 0.293477,-1.000019 0.0643,-1.500027 z"/><path id="path11159" fill="none" stroke="url(#linearGradient3041)" stroke-dasharray="none" stroke-miterlimit="4" stroke-opacity="1" stroke-width="1" d="M 22.032193,19.511583 13.059761,3.4158526 c -0.382129,-0.693386 -0.519189,-0.9158525 -1.099916,-0.9158525 -0.499469,0 -0.760806,0.3239928 -1.121748,0.9784932 L 1.9652532,19.561263 c -0.5152287,0.902952 -0.5704308,1.138321 -0.3224354,1.535744 0.2479943,0.397428 0.5664064,0.375782 1.742911,0.401705 l 17.4390402,0 c 1.095306,0.01295 1.342031,-0.06692 1.543559,-0.464344 0.251474,-0.397427 0.14451,-0.712737 -0.336135,-1.522785 z" opacity=".4"/><path font-stretch="normal" style="text-align:start;line-height:125%" id="path3295" fill="#000" fill-opacity="1" stroke="none" d="m 10.599227,7.286687 c 0.331945,2.810446 0.71217,5.601549 0.99474,8.423003 0.284211,0 0.617557,0 0.901768,0 0.234383,-2.709491 0.612431,-5.402609 0.885143,-8.108741 C 13.519892,6.960175 13.140325,6.199376 12.359664,6.043697 11.588256,5.848211 10.7264,6.332296 10.623826,7.023771 c -0.01701,0.0868 -0.0246,0.174902 -0.0246,0.262916 l -2e-6,0 z m -0.09838,11.42648 c -0.0351,0.836563 1.026892,1.492345 1.933628,1.227123 0.87824,-0.194275 1.340822,-1.151039 0.890723,-1.831133 -0.402917,-0.703026 -1.584447,-0.93466 -2.264126,-0.396605 -0.343566,0.244652 -0.571285,0.609885 -0.560225,1.000616 l 0,-1e-6 z" font-family="Georgia" font-size="62.458" font-style="normal" font-variant="normal" font-weight="normal" opacity=".2" text-anchor="start" writing-mode="lr-tb"/><path font-stretch="normal" style="text-align:start;line-height:125%" id="text2315" fill="#fff" fill-opacity="1" stroke="none" d="m 10.599227,8.286687 c 0.331945,2.810446 0.71217,5.60155 0.99474,8.423004 0.284211,0 0.617557,0 0.901768,0 0.234383,-2.709492 0.612431,-5.40261 0.885143,-8.108742 C 13.519892,7.960175 13.140325,7.199377 12.359664,7.043697 11.588256,6.848212 10.7264,7.332296 10.623826,8.023771 c -0.01701,0.0868 -0.0246,0.174902 -0.0246,0.262916 l -2e-6,0 z m -0.09838,11.426481 c -0.0351,0.836563 1.026892,1.492345 1.933628,1.227122 0.87824,-0.194275 1.340822,-1.151039 0.890723,-1.831132 -0.402917,-0.703026 -1.584447,-0.93466 -2.264126,-0.396605 -0.343566,0.244652 -0.571285,0.609885 -0.560225,1.000616 l 0,-1e-6 z" font-family="Georgia" font-size="62.458" font-style="normal" font-variant="normal" font-weight="normal" text-anchor="start" writing-mode="lr-tb"/></svg>