<svg xmlns="http://www.w3.org/2000/svg" xmlns:svg="http://www.w3.org/2000/svg" xmlns:xlink="http://www.w3.org/1999/xlink" id="svg3386" width="24" height="24" version="1.0"><metadata id="metadata36"/><defs id="defs3388"><linearGradient id="linearGradient3104"><stop id="stop3106" offset="0" stop-color="#aaa" stop-opacity="1"/><stop id="stop3108" offset="1" stop-color="#c8c8c8" stop-opacity="1"/></linearGradient><linearGradient id="linearGradient3600"><stop id="stop3602" offset="0" stop-color="#f4f4f4" stop-opacity="1"/><stop id="stop3604" offset="1" stop-color="#dbdbdb" stop-opacity="1"/></linearGradient><radialGradient id="XMLID_8_" cx="102" cy="112.305" r="139.559" gradientUnits="userSpaceOnUse"><stop id="stop41" offset="0" stop-color="#b7b8b9" stop-opacity="1"/><stop id="stop47" offset=".189" stop-color="#ececec" stop-opacity="1"/><stop id="stop49" offset=".257" stop-color="#fafafa" stop-opacity="0"/><stop id="stop51" offset=".301" stop-color="#fff" stop-opacity="0"/><stop id="stop53" offset=".531" stop-color="#fafafa" stop-opacity="0"/><stop id="stop55" offset=".845" stop-color="#ebecec" stop-opacity="0"/><stop id="stop57" offset="1" stop-color="#e1e2e3" stop-opacity="0"/></radialGradient><linearGradient id="linearGradient3211"><stop id="stop3213" offset="0" stop-color="#fff" stop-opacity="1"/><stop id="stop3215" offset="1" stop-color="#fff" stop-opacity="0"/></linearGradient><linearGradient id="linearGradient8589"><stop id="stop8591" offset="0" stop-color="#fefefe" stop-opacity="1"/><stop id="stop8593" offset="1" stop-color="#cbcbcb" stop-opacity="1"/></linearGradient><linearGradient id="linearGradient2456" x1="25.132" x2="25.132" y1=".985" y2="47.013" gradientTransform="matrix(0.4857154,0,0,0.4780255,0.3428305,-0.7059501)" gradientUnits="userSpaceOnUse" xlink:href="#linearGradient3600"/><linearGradient id="linearGradient2458" x1="-51.786" x2="-51.786" y1="50.786" y2="2.906" gradientTransform="matrix(0.3922135,0,0,0.4473607,29.199293,-1.2386997)" gradientUnits="userSpaceOnUse" xlink:href="#linearGradient3104"/><radialGradient id="radialGradient2460" cx="102" cy="112.305" r="139.559" gradientTransform="matrix(0.1702128,0,0,-0.1907226,1.1063831,23.716504)" gradientUnits="userSpaceOnUse" xlink:href="#XMLID_8_"/><linearGradient id="linearGradient2462" x1="24" x2="24" y1="2" y2="46.017" gradientTransform="matrix(0.4545444,0,0,0.4651153,1.0909345,0.3372293)" gradientUnits="userSpaceOnUse" xlink:href="#linearGradient3211"/><linearGradient id="linearGradient2464" x1="32.892" x2="36.358" y1="8.059" y2="5.457" gradientTransform="matrix(0.4778466,0,0,0.5524833,0.3722548,-7.6128303e-2)" gradientUnits="userSpaceOnUse" xlink:href="#linearGradient8589"/></defs><g id="g2449" transform="translate(0.9999608,0)"><path id="path4160" fill="url(#linearGradient2456)" fill-opacity="1" stroke="url(#linearGradient2458)" stroke-dasharray="none" stroke-dashoffset="0" stroke-linecap="butt" stroke-linejoin="round" stroke-miterlimit="4" stroke-opacity="1" stroke-width="1" d="M 2.5,0.49996097 C 6.3955799,0.49996097 11.104417,0.49996097 15,0.49996097 C 15.683368,0.73725787 19.541325,3.628131 20.5,5.5 C 20.5,11.229157 20.500039,17.770842 20.500039,23.5 C 14.833346,23.5 8.1666928,23.5 2.5,23.5 C 2.5,16.16664 2.5,7.8333189 2.5,0.49996097 z" display="inline"/><path id="path4191" fill="url(#radialGradient2460)" fill-opacity="1" d="M 4.1702128,22 C 4.0764256,22 4,21.914366 4,21.809277 L 4,1.2112452 C 4,1.1059667 4.0764256,1.0205233 4.1702128,1.0205233 C 7.6916683,1.0732401 11.594065,0.94166522 15.11124,1.0336487 L 19.950127,5.3607855 L 20,21.809277 C 20,21.914366 19.923743,22 19.829786,22 L 4.1702128,22 z"/><path id="path2435" fill="none" fill-opacity="1" stroke="url(#linearGradient2462)" stroke-dasharray="none" stroke-dashoffset="0" stroke-linecap="butt" stroke-linejoin="miter" stroke-miterlimit="4" stroke-opacity="1" stroke-width="1" d="M 19.500001,5.6770357 C 19.500001,10.885341 19.500001,17.291693 19.500001,22.5 C 14.500001,22.5 8.5000012,22.5 3.5,22.5 C 3.5,15.83333 3.5,8.1666657 3.5,1.4999999 C 6.9372614,1.4999999 11.456499,1.4999999 14.893761,1.4999999" display="inline" opacity=".6"/><path id="path3370" fill="silver" fill-opacity="1" fill-rule="evenodd" stroke="none" stroke-linecap="butt" stroke-linejoin="miter" stroke-opacity="1" stroke-width="1" d="M 14.075474,1 C 15.231777,1.3287671 14.414533,5.6143789 14.414533,5.6143789 C 14.414533,5.6143789 18.929921,5.1866427 20.022243,6.809375 C 21.511396,9.0216317 19.954018,6.1742029 19.848796,5.9876778 C 19.092868,4.6476323 15.982456,1.4405918 14.803387,1.0464703 C 14.715155,1.0169778 14.519511,1 14.075474,1 z" display="inline"/><path id="path4474" fill="url(#linearGradient2464)" fill-opacity="1" fill-rule="evenodd" stroke="none" stroke-linecap="butt" stroke-linejoin="miter" stroke-opacity="1" stroke-width="1" d="M 14,1 C 15.526166,1 15,5 15,5 C 15,5 19.992074,4.54674 19.992074,7 C 19.992074,6.4022581 20.047825,5.5215662 19.928002,5.3440674 C 19.088897,4.1010616 16.184239,1.4821803 15.129935,1.0464703 C 15.043957,1.0109384 14.444037,1 14,1 z" display="inline"/></g></svg>