<svg xmlns="http://www.w3.org/2000/svg" xmlns:svg="http://www.w3.org/2000/svg" xmlns:xlink="http://www.w3.org/1999/xlink" id="svg2461" width="24" height="24" version="1.0"><metadata id="metadata55"/><defs id="defs2463"><linearGradient id="linearGradient7067-814-120-245-2"><stop id="stop3877-9" offset="0" stop-color="#aaa" stop-opacity="1"/><stop id="stop3879-7" offset="1" stop-color="#4d4d4d" stop-opacity="1"/></linearGradient><linearGradient id="linearGradient7067-561-456-275-6"><stop id="stop3871-4" offset="0" stop-color="#aaa" stop-opacity="1"/><stop id="stop3873-6" offset="1" stop-color="#4d4d4d" stop-opacity="1"/></linearGradient><linearGradient id="linearGradient2372-270-7"><stop id="stop3239-9" offset="0" stop-color="#fff" stop-opacity="1"/><stop id="stop3241-7" offset="1" stop-color="#fff" stop-opacity=".379"/></linearGradient><linearGradient id="linearGradient2372-378-9"><stop id="stop3245-1" offset="0" stop-color="#fff" stop-opacity="1"/><stop id="stop3247-7" offset="1" stop-color="#fff" stop-opacity=".379"/></linearGradient><linearGradient id="linearGradient2558" x1="28.739" x2="26.257" y1="144.117" y2="125.391" gradientTransform="matrix(0.4456319,0,0,0.2231125,8.5843386,-29.769131)" gradientUnits="userSpaceOnUse" xlink:href="#linearGradient2372-378-9"/><linearGradient id="linearGradient2561" x1="28.739" x2="25.4" y1="144.117" y2="119.865" gradientTransform="matrix(0.2214737,0,0,0.2231125,2.9547396,-28.073656)" gradientUnits="userSpaceOnUse" xlink:href="#linearGradient2372-270-7"/><radialGradient id="radialGradient2564" cx="17.059" cy="41.059" r="5.738" fx="14.109" fy="38.981" gradientTransform="matrix(0.6633252,0,-0.1085925,0.6357966,10.159125,-8.497375)" gradientUnits="userSpaceOnUse" xlink:href="#linearGradient7067-561-456-275-6"/><radialGradient id="radialGradient2567" cx="17.059" cy="41.059" r="5.738" fx="14.638" fy="38.175" gradientTransform="matrix(0.6649828,0,-0.1088639,0.6373854,-1.1391334,-6.732191)" gradientUnits="userSpaceOnUse" xlink:href="#linearGradient7067-814-120-245-2"/></defs><g id="layer1" transform="translate(2.0050703,0)"><path id="path4031" fill="#4d4d4d" fill-opacity="1" stroke="#333" stroke-dasharray="none" stroke-linecap="round" stroke-linejoin="round" stroke-miterlimit="4" stroke-opacity="1" stroke-width="1" d="M 20.393523,0.509 C 16.2666,1.16719 12.516143,1.84505 8.4006926,2.54 C 7.3108996,3.066246 7.5559006,3.421755 7.5076866,4.405 C 7.5076866,8.792432 7.5076866,11.179529 7.5076866,15.566961 C 4.7068396,14.925761 1.6325486,17.017815 1.5110786,19.991618 C 1.3127916,21.843042 2.9716456,23.454601 4.7754976,23.497937 C 8.0052186,23.575527 10.459897,21.454795 10.49493,18.77275 C 10.45966,14.268412 10.50483,12.762029 10.49493,8.257 C 10.99493,8.22035 17.819078,6.790225 18.500104,6.695 C 18.500104,10.06908 18.500104,10.443358 18.500104,13.817438 C 15.91671,13.056379 13.334422,14.646982 12.698213,17.313002 C 12.227475,18.857402 12.937198,20.683068 14.469274,21.315816 C 17.460133,22.675979 21.667025,19.920823 21.500104,16.687308 C 21.453784,10.681011 21.538074,7.671938 21.500104,1.665 C 21.421554,1.100515 21.035067,0.468253 20.393523,0.509 L 20.393523,0.509 z"/><path id="path2937" fill="url(#radialGradient2567)" fill-opacity="1" stroke="none" d="M 9.6307636,18.772714 C 9.6307636,20.760542 7.8865106,22.669909 5.7348666,23.037404 C 3.5832216,23.4049 1.8389696,22.091361 1.8389696,20.103533 C 1.8389696,18.115705 3.5832226,16.206338 5.7348666,15.838843 C 7.8865116,15.471347 9.6307636,16.784886 9.6307636,18.772714 z"/><path id="path2941" fill="url(#radialGradient2564)" fill-opacity="1" stroke="none" d="M 20.911887,16.942295 C 20.912378,18.93036 19.167982,20.840252 17.01599,21.207807 C 14.863998,21.575362 13.119602,20.261347 13.120094,18.273114 C 13.120585,16.285523 14.864694,14.376682 17.015991,14.009246 C 19.167288,13.64181 20.911396,14.954872 20.911887,16.942295 z"/><path id="path2945" fill="url(#linearGradient2561)" fill-opacity="1" fill-rule="evenodd" stroke="none" d="M 8.1016726,16.171278 L 8.0076726,4.1623812 C 8.0076726,4.1623812 8.1105696,3.0121882 8.8738436,3.0086822 C 9.1445466,2.9618122 20.073896,1.1216176 20.073896,1.1216176 C 20.073896,1.1216176 22.542289,1.7324922 9.9949276,3.7722962 C 8.7078286,4.0197362 8.9949156,4.2393408 8.9949156,5.0884388 C 8.9949156,7.3786288 8.9949176,8.337494 8.9949176,16.676408 C 8.9949176,16.736068 8.4251256,16.253704 8.1016706,16.171278 L 8.1016726,16.171278 z" opacity=".3"/><path id="path2947" fill="url(#linearGradient2558)" fill-opacity="1" fill-rule="evenodd" stroke="none" d="M 18.9406,14.322586 L 19,5.9569616 C 19.625915,5.9009916 19.0961,5.840834 19.940117,5.756994 C 19.951727,7.879988 19.940597,6.7492376 19.940597,14.767223 C 19.940597,14.826883 19.591434,14.405012 18.9406,14.322586 z" opacity=".3"/></g></svg>