<svg xmlns="http://www.w3.org/2000/svg" xmlns:svg="http://www.w3.org/2000/svg" xmlns:xlink="http://www.w3.org/1999/xlink" id="svg3265" width="24" height="24" version="1.0"><defs id="defs3267"><linearGradient id="linearGradient2490"><stop id="stop2492" offset="0" stop-color="#455f0e" stop-opacity="1"/><stop id="stop2494" offset="1" stop-color="#84a718" stop-opacity="1"/></linearGradient><linearGradient id="linearGradient3390" x1="10" x2="10" y1="29.485" y2="0" gradientUnits="userSpaceOnUse" xlink:href="#linearGradient2490"/><linearGradient id="linearGradient3255"><stop id="stop3257" offset="0" stop-color="#eef87e" stop-opacity="1"/><stop id="stop3259" offset=".317" stop-color="#cde34f" stop-opacity="1"/><stop id="stop3261" offset=".793" stop-color="#93b723" stop-opacity="1"/><stop id="stop3263" offset="1" stop-color="#5a7e0d" stop-opacity="1"/></linearGradient><linearGradient id="linearGradient3253" x1="17.49" x2="17.49" y1="0" y2="30.318" gradientUnits="userSpaceOnUse" xlink:href="#linearGradient3255"/><linearGradient id="linearGradient4222"><stop id="stop4224" offset="0" stop-color="#fff" stop-opacity="1"/><stop id="stop4226" offset="1" stop-color="#fff" stop-opacity="0"/></linearGradient><linearGradient id="linearGradient3236" x1="14" x2="14" y1="0" y2="19.168" gradientUnits="userSpaceOnUse" xlink:href="#linearGradient4222"/></defs><g id="layer1"><path id="path1542" fill="url(#linearGradient3253)" fill-opacity="1" fill-rule="nonzero" stroke="url(#linearGradient3390)" stroke-dasharray="none" stroke-dashoffset="0" stroke-linecap="round" stroke-linejoin="round" stroke-miterlimit="4" stroke-opacity="1" stroke-width="1.003" marker-end="none" marker-mid="none" marker-start="none" d="M 19.197367,0.50609523 C 18.833297,0.46983298 18.471341,0.64483475 18.284282,0.98080883 L 10.314316,15.292551 L 5.1901428,11.293824 C 4.7337028,11.049042 4.1642238,11.206513 3.9148118,11.654481 L 1.6169158,14.549912 C 1.3675088,14.997872 1.5352938,15.556615 1.9917288,15.801394 C 1.9917288,15.801394 11.347827,23.385275 11.359372,23.390885 C 11.466348,23.448258 11.578218,23.477125 11.691936,23.491227 C 12.063413,23.537294 12.443574,23.366005 12.634526,23.023033 L 23.383083,3.7218718 C 23.632492,3.2739074 23.464709,2.7151681 23.008272,2.4703886 L 19.559439,0.61295466 C 19.445328,0.55175893 19.318725,0.51818277 19.197367,0.50609523 z" display="inline" overflow="visible" visibility="visible" style="marker:none"/><path id="path3231" fill="none" fill-opacity="1" fill-rule="nonzero" stroke="url(#linearGradient3236)" stroke-dasharray="none" stroke-dashoffset="0" stroke-linecap="round" stroke-linejoin="round" stroke-miterlimit="4" stroke-opacity="1" stroke-width="1.003" marker-end="none" marker-mid="none" marker-start="none" d="M 19.125,1.53125 C 16.479167,6.28125 13.833333,11.03125 11.1875,15.78125 C 10.709917,16.651798 9.6978243,16.239286 9.1633475,15.68239 C 7.6922316,14.527843 6.2211158,13.373297 4.75,12.21875 C 4.0055465,13.121813 3.2941739,14.054315 2.5625,14.96875 C 5.6391146,17.462611 8.7289018,19.943998 11.78125,22.46875 C 15.333333,16.083333 18.885417,9.6979167 22.4375,3.3125 C 21.333333,2.71875 20.229167,2.125 19.125,1.53125 z" display="inline" opacity=".4" overflow="visible" visibility="visible" style="marker:none"/></g></svg>