<svg xmlns="http://www.w3.org/2000/svg" xmlns:svg="http://www.w3.org/2000/svg" xmlns:xlink="http://www.w3.org/1999/xlink" id="svg3567" width="24" height="24" version="1.0"><defs id="defs3569"><linearGradient id="linearGradient2926" x1="21.629" x2="22.245" y1="2.11" y2="43.366" gradientTransform="matrix(-0.4873978,0,0,-0.4781595,23.842396,23.296914)" gradientUnits="userSpaceOnUse" xlink:href="#linearGradient4873"/><linearGradient id="linearGradient3533"><stop id="stop3535" offset="0" stop-color="#b0cce6" stop-opacity="1"/><stop id="stop3545" offset="1" stop-color="#83acd5" stop-opacity="1"/></linearGradient><linearGradient id="linearGradient2918" x1="15.373" x2="15.373" y1="5.047" y2="22.6" gradientTransform="matrix(-0.4873978,0,0,-0.4781595,23.842396,23.296914)" gradientUnits="userSpaceOnUse" xlink:href="#linearGradient3533"/><linearGradient id="linearGradient3743" x1="18" x2="21" y1="17" y2="12" gradientUnits="userSpaceOnUse" xlink:href="#linearGradient3705"/><mask id="mask3739"><rect id="rect3741" width="22" height="12" x="1" y="12" fill="url(#linearGradient3743)" fill-opacity="1" stroke="none"/></mask><linearGradient id="linearGradient4873"><stop id="stop4875" offset="0" stop-color="#fff" stop-opacity="1"/><stop id="stop4877" offset="1" stop-color="#fff" stop-opacity="0"/></linearGradient><linearGradient id="linearGradient2901" x1="21.629" x2="22.245" y1="2.11" y2="43.366" gradientTransform="matrix(0.4873978,0,0,0.4781595,-0.345297,0.700712)" gradientUnits="userSpaceOnUse" xlink:href="#linearGradient4873"/><linearGradient id="linearGradient3429"><stop id="stop3431" offset="0" stop-color="#9853c6" stop-opacity="1"/><stop id="stop3435" offset="1" stop-color="#7d38aa" stop-opacity="1"/></linearGradient><linearGradient id="linearGradient3565" x1="16.946" x2="16.946" y1=".992" y2="11.73" gradientUnits="userSpaceOnUse" xlink:href="#linearGradient3429"/><linearGradient id="linearGradient3437"><stop id="stop3439" offset="0" stop-color="#be93db" stop-opacity="1"/><stop id="stop3443" offset="1" stop-color="#dcb6f6" stop-opacity="1"/></linearGradient><linearGradient id="linearGradient2904" x1="13.611" x2="15.373" y1="9.896" y2="22.6" gradientTransform="matrix(0.4873978,0,0,0.4781595,-0.345297,0.700712)" gradientUnits="userSpaceOnUse" xlink:href="#linearGradient3437"/><linearGradient id="linearGradient3705"><stop id="stop3707" offset="0" stop-color="#fff" stop-opacity="1"/><stop id="stop3713" offset=".519" stop-color="#000" stop-opacity="1"/><stop id="stop3709" offset="1" stop-color="#000" stop-opacity="1"/></linearGradient><linearGradient id="linearGradient3753" x1="18" x2="21" y1="17" y2="12" gradientTransform="translate(-24,-24)" gradientUnits="userSpaceOnUse" xlink:href="#linearGradient3705"/><mask id="mask3749"><rect id="rect3751" width="22" height="12" x="-23" y="-12" fill="url(#linearGradient3753)" fill-opacity="1" stroke="none" transform="scale(-1,-1)"/></mask></defs><g id="layer1"><g id="g3731" mask="url(#mask3739)"><path id="path3372" fill="url(#linearGradient2918)" fill-opacity="1" stroke="#538ec6" stroke-dasharray="none" stroke-linecap="butt" stroke-linejoin="round" stroke-miterlimit="4" stroke-opacity="1" stroke-width="1.005" d="M 16.96875,12.78125 C 16.813534,15.319623 13.94201,17.150169 11.6875,17 C 10.480174,17 9.30456,16.726823 8.4375,15.90625 L 10.84375,13.5 L 1.84375,13.5 L 1.84375,22.5 L 4.6875,19.6875 C 6.581304,21.513225 8.767485,22.469819 11.5625,22.5 L 11.5625,22.46875 C 16.314504,22.637094 21.855225,19.19714 22,12.96875 L 16.96875,12.78125 L 16.96875,12.78125 z"/><path id="path3370" fill="none" stroke="url(#linearGradient2926)" stroke-dasharray="none" stroke-linecap="butt" stroke-linejoin="miter" stroke-miterlimit="4" stroke-opacity="1" stroke-width="1.005" d="M 17.84375,12.75 C 17.77313,15.618458 15.43432,18.093011 11.65625,18 C 10.291102,17.98042 8.616757,17.734653 6.90625,16.125 L 8.46875,14.5 L 2.84375,14.5 L 2.84375,20.125 L 4.84375,18.3125 C 6.6458461,20.284522 8.7799725,21.491057 11.59375,21.5 C 11.60441,21.500034 11.61432,21.5 11.625,21.5 C 15.259267,21.56435 20.757588,18.976138 20.90625,12.9375 L 17.84375,12.75 z" opacity=".4"/></g><g id="g3745" mask="url(#mask3749)"><path id="path3595" fill="url(#linearGradient2904)" fill-opacity="1" stroke="url(#linearGradient3565)" stroke-dasharray="none" stroke-linecap="butt" stroke-linejoin="round" stroke-miterlimit="4" stroke-opacity="1" stroke-width="1.005" d="M 11.9375,1.5 C 7.185496,1.331656 1.644775,4.80286 1.5,11.03125 L 6.53125,11.21875 C 6.686466,8.680377 9.55799,6.849831 11.8125,7 C 13.019826,7 14.19544,7.273177 15.0625,8.09375 L 12.65625,10.5 L 21.65625,10.5 L 21.65625,1.5 L 18.8125,4.3125 C 16.918696,2.486775 14.732515,1.530181 11.9375,1.5 z"/><path id="path3597" fill="none" stroke="url(#linearGradient2901)" stroke-dasharray="none" stroke-linecap="butt" stroke-linejoin="miter" stroke-miterlimit="4" stroke-opacity="1" stroke-width="1.005" d="M 11.1875,2.5 C 7.5878629,2.7409187 2.7335003,5.3858513 2.59375,11.0625 L 5.65625,11.21875 C 5.72687,8.350292 8.06568,5.875739 11.84375,5.96875 L 11.84375,6 C 13.208898,6.01958 14.883243,6.265347 16.59375,7.875 L 15.03125,9.5 L 20.65625,9.5 L 20.65625,3.875 L 18.625,5.65625 C 16.822904,3.6842276 14.720027,2.5089433 11.90625,2.5 C 11.89635,2.4997853 11.8849,2.5001753 11.875,2.5 C 11.657142,2.49614 11.417042,2.484637 11.1875,2.5 z" opacity=".4"/></g></g></svg>