<svg xmlns="http://www.w3.org/2000/svg" xmlns:svg="http://www.w3.org/2000/svg" xmlns:xlink="http://www.w3.org/1999/xlink" id="svg2528" width="24" height="24" version="1.0"><defs id="defs2530"><linearGradient id="linearGradient2867-449-88-871-390-598-476-591-434-148-7-5-9-5"><stop id="stop4627-7-9-8-4" offset="0" stop-color="#51cfee" stop-opacity="1"/><stop id="stop4629-6-9-8-1" offset=".262" stop-color="#49a3d2" stop-opacity="1"/><stop id="stop4631-4-1-5-5" offset=".705" stop-color="#3470b4" stop-opacity="1"/><stop id="stop4633-3-4-8-5" offset="1" stop-color="#1b5699" stop-opacity="1"/></linearGradient><linearGradient id="linearGradient2473" x1="19.262" x2="19.262" y1="6.984" y2="30.052" gradientTransform="matrix(0.4916517,0,0,0.4916517,-0.2997013,0.200359)" gradientUnits="userSpaceOnUse" xlink:href="#linearGradient2867-449-88-871-390-598-476-591-434-148-7-5-9-5"/><linearGradient id="linearGradient3242-593-605-251-305-2-0"><stop id="stop2749-6-9" offset="0" stop-color="#d78ec1" stop-opacity="1"/><stop id="stop2751-7-7" offset=".262" stop-color="#c564be" stop-opacity="1"/><stop id="stop2753-5-5" offset=".661" stop-color="#9d3ea4" stop-opacity="1"/><stop id="stop2755-6-9" offset="1" stop-color="#5e2c73" stop-opacity="1"/></linearGradient><linearGradient id="linearGradient2476" x1="35.393" x2="35.393" y1="13.2" y2="43.618" gradientTransform="matrix(0.4916517,0,0,0.4916517,-0.480812,0.200359)" gradientUnits="userSpaceOnUse" xlink:href="#linearGradient3242-593-605-251-305-2-0"/><linearGradient id="linearGradient4222-8-1-7"><stop id="stop4224-4-3-2" offset="0" stop-color="#fff" stop-opacity="1"/><stop id="stop4226-8-1-6" offset="1" stop-color="#fff" stop-opacity="0"/></linearGradient><linearGradient id="linearGradient2470" x1="55.563" x2="-28.734" y1="26.023" y2="26.023" gradientTransform="matrix(0,-0.2804064,-0.2737862,0,14.295353,15.863544)" gradientUnits="userSpaceOnUse" xlink:href="#linearGradient4222-8-1-7"/></defs><g id="layer1"><path id="path4348" fill="url(#linearGradient2473)" fill-opacity="1" fill-rule="nonzero" stroke="#404040" stroke-dasharray="none" stroke-dashoffset=".06" stroke-linecap="butt" stroke-linejoin="round" stroke-miterlimit="4" stroke-opacity="1" stroke-width="1" d="M 12,9.5000001 L 7,3.5 L 2,9.5000001 L 4.5,9.5000001 L 4.5,14.5 L 9.5000002,14.5 L 9.5000002,9.5000001 L 11.761338,9.5000001 L 12,9.5000001 z" display="inline" enable-background="accumulate" overflow="visible" visibility="visible" style="marker:none"/><path id="path2487" fill="url(#linearGradient2476)" fill-opacity="1" fill-rule="nonzero" stroke="#404040" stroke-dasharray="none" stroke-dashoffset=".06" stroke-linecap="butt" stroke-linejoin="round" stroke-miterlimit="4" stroke-opacity="1" stroke-width="1" marker-end="none" marker-mid="none" marker-start="none" d="M 22,14.5 L 17,20.5 L 12,14.5 L 14.5,14.5 L 14.5,9.5 L 19.5,9.5 L 19.5,14.5 L 21.761338,14.5 L 22,14.5 z" display="inline" enable-background="accumulate" opacity="1" overflow="visible" visibility="visible" style="marker:none"/><path id="path2523" fill="none" stroke="url(#linearGradient2470)" stroke-dasharray="none" stroke-dashoffset="0" stroke-linecap="butt" stroke-linejoin="miter" stroke-miterlimit="4" stroke-opacity="1" stroke-width=".985" d="M 10,8.5000002 C 10,8.5000002 7,5 7,5 L 4.2587725,8.5000002 L 5.5000001,8.5000002 L 5.5000001,13.5 L 8.4999998,13.5 L 8.4999998,8.5000002 C 8.4999998,8.5000002 10,8.5000002 10,8.5000002 z M 20,15.5 C 20,15.5 17,19 17,19 L 14.258772,15.5 L 15.5,15.5 L 15.5,10.5 L 18.5,10.5 L 18.5,15.5 C 18.5,15.5 20,15.5 20,15.5 z" display="inline" opacity=".3" overflow="visible" visibility="visible" style="marker:none"/></g></svg>