<svg xmlns="http://www.w3.org/2000/svg" xmlns:svg="http://www.w3.org/2000/svg" xmlns:xlink="http://www.w3.org/1999/xlink" id="svg3172" width="16" height="16" version="1.0"><metadata id="metadata10"/><defs id="defs3174"><linearGradient id="linearGradient3587-6-5-3"><stop id="stop3589-9-2-2" offset="0" stop-color="#000" stop-opacity="1"/><stop id="stop3591-7-4-73" offset="1" stop-color="#363636" stop-opacity="1"/></linearGradient><linearGradient id="linearGradient3776" x1="9.443" x2="9.443" y1="3.968" y2="18.105" gradientTransform="translate(-3.0000003,-3)" gradientUnits="userSpaceOnUse" xlink:href="#linearGradient3587-6-5-3"/></defs><path id="path2396-7" fill="#fff" fill-opacity="1" fill-rule="nonzero" stroke="none" stroke-width="3" d="M 7.9999997,2 C 4.1360001,2 1,5.1360005 1,9 1,12.864 4.1359999,15.999999 7.9999997,16 11.864,16 15,12.864 15,9 15,5.1360001 11.864,2.0000002 7.9999997,2 z M 11,4 13,6 7.4999997,13.5 3.5,10 5.5,8 7.4999997,10 11,4 z" display="inline" enable-background="accumulate" opacity=".6" overflow="visible" visibility="visible" style="marker:none"/><path id="path2396" fill="url(#linearGradient3776)" fill-opacity="1" fill-rule="nonzero" stroke="none" stroke-width="3" d="M 7.9999997,0.9991931 C 4.1360001,0.9991931 1,4.1351936 1,7.999193 c 0,3.864 3.1359999,6.999999 6.9999997,7 C 11.864,14.999193 15,11.863193 15,7.999193 15,4.1351932 11.864,0.9991933 7.9999997,0.9991931 z m 3.0000003,2 2,2 L 7.4999997,12.499193 3.5,8.999193 5.5,6.9991931 7.4999997,8.999193 11,2.9991931 z" display="inline" enable-background="accumulate" opacity=".7" overflow="visible" visibility="visible" style="marker:none"/><path id="path3170" fill="none" stroke="#fff" stroke-dasharray="none" stroke-linecap="butt" stroke-linejoin="miter" stroke-miterlimit="4" stroke-opacity="1" stroke-width=".5" d="M 3.8544493,8.999193 5.5,7.353642 7.5545307,9.408173 11.054531,3.4081731 12.672816,5.0264584 7.4727347,12.144744 3.8544493,8.999193 z" opacity=".3"/></svg>