<svg xmlns="http://www.w3.org/2000/svg" xmlns:svg="http://www.w3.org/2000/svg" xmlns:xlink="http://www.w3.org/1999/xlink" id="svg3762" width="16" height="16" version="1.1"><metadata id="metadata12"/><defs id="defs3764"><linearGradient id="linearGradient3587-8-5-1"><stop id="stop3589-2-7-3" offset="0" stop-color="#fff" stop-opacity="1"/><stop id="stop3591-3-5-1" offset="1" stop-color="#c8c8c8" stop-opacity="1"/></linearGradient><linearGradient id="linearGradient3595" x1="58.695" x2="58.695" y1="2.589" y2="20.589" gradientTransform="matrix(1,0,0,1.0833333,-54.998647,-5.5089412)" gradientUnits="userSpaceOnUse" xlink:href="#linearGradient3587-8-5-1"/><linearGradient id="linearGradient8157" x1="7.091" x2="7.091" y1="0" y2="14.003" gradientUnits="userSpaceOnUse" xlink:href="#linearGradient3587-8-5-1"/><linearGradient id="linearGradient3629" x1="8.286" x2="8.286" y1="7.876" y2="10.07" gradientUnits="userSpaceOnUse" xlink:href="#linearGradient3623"/><linearGradient id="linearGradient3623"><stop id="stop3625" offset="0" stop-color="#fff" stop-opacity="1"/><stop id="stop3627" offset="1" stop-color="#fff" stop-opacity="0"/></linearGradient><linearGradient id="linearGradient2842" x1="24.097" x2="23.673" y1="9.596" y2="22.839" gradientTransform="matrix(0.5115713,0,0,0.5681819,-4.3053904,-4.3408645)" gradientUnits="userSpaceOnUse" xlink:href="#linearGradient3230"/><linearGradient id="linearGradient3230"><stop id="stop3232" offset="0" stop-color="#ffefa7" stop-opacity="1"/><stop id="stop3234" offset="1" stop-color="#ffc64c" stop-opacity="1"/></linearGradient><linearGradient id="linearGradient2848" x1="21.483" x2="21.483" y1="21.671" y2="33.41" gradientTransform="matrix(0.5531951,0,0,0.5781824,-3.8848294,-5.2726386)" gradientUnits="userSpaceOnUse" xlink:href="#linearGradient2250"/><linearGradient id="linearGradient2250"><stop id="stop2252" offset="0" stop-color="#ffc349" stop-opacity="1"/><stop id="stop2256" offset="1" stop-color="#ff921a" stop-opacity="1"/></linearGradient><linearGradient id="linearGradient2850" x1="21.483" x2="21.483" y1="36.346" y2="13.091" gradientTransform="matrix(0.5531951,0,0,0.5781824,-3.8848294,-5.2726386)" gradientUnits="userSpaceOnUse" xlink:href="#linearGradient3903"/><linearGradient id="linearGradient3903"><stop id="stop3905" offset="0" stop-color="#964e00" stop-opacity="1"/><stop id="stop3907" offset="1" stop-color="#b99300" stop-opacity="1"/></linearGradient><linearGradient id="linearGradient8040" x1="5.831" x2="5.831" y1="13.15" y2="2.85" gradientTransform="matrix(1.53974,0,0,1.53974,-4.3179203,-4.31792)" gradientUnits="userSpaceOnUse" xlink:href="#linearGradient2490-182-124"/><linearGradient id="linearGradient4873-2"><stop id="stop4875-0" offset="0" stop-color="#fff" stop-opacity="1"/><stop id="stop4877-1" offset="1" stop-color="#fff" stop-opacity="0"/></linearGradient><linearGradient id="linearGradient2406-6" x1="63.397" x2="63.397" y1="-12.489" y2="5.468" gradientTransform="matrix(0.7432394,0,0,0.7432224,-38.229789,10.609333)" gradientUnits="userSpaceOnUse" xlink:href="#linearGradient4873-2"/><linearGradient id="linearGradient2490-182-124-1"><stop id="stop2788-9" offset="0" stop-color="#1f4b6a" stop-opacity="1"/><stop id="stop2790-4" offset="1" stop-color="#4083c2" stop-opacity="1"/></linearGradient><linearGradient id="linearGradient2411-9" x1="18.379" x2="18.379" y1="44.98" y2="3.082" gradientTransform="matrix(0.3685738,0,0,0.3685738,-0.84577,-0.8457701)" gradientUnits="userSpaceOnUse" xlink:href="#linearGradient2490-182-124-1"/><linearGradient id="linearGradient3242-187-536-9"><stop id="stop2778-6" offset="0" stop-color="#8badea" stop-opacity="1"/><stop id="stop2780-9" offset=".262" stop-color="#6396cd" stop-opacity="1"/><stop id="stop2782-4" offset=".661" stop-color="#3b7caf" stop-opacity="1"/><stop id="stop2784-2" offset="1" stop-color="#194c70" stop-opacity="1"/></linearGradient><radialGradient id="radialGradient2409-0" cx="23.896" cy="3.99" r="20.397" fx="23.896" fy="3.99" gradientTransform="matrix(0,0.8796593,-1.1611346,0,12.632931,-21.08413)" gradientUnits="userSpaceOnUse" xlink:href="#linearGradient3242-187-536-9"/><linearGradient id="linearGradient7991" x1="8" x2="8" y1=".952" y2="14.712" gradientUnits="userSpaceOnUse" xlink:href="#linearGradient3242-187-536"/><linearGradient id="linearGradient7962" x1="11.15" x2="11.15" y1="1.087" y2="14.508" gradientTransform="matrix(1.53974,0,0,1.53974,-4.3179203,-4.31792)" gradientUnits="userSpaceOnUse" xlink:href="#linearGradient3242-187-536"/><radialGradient id="radialGradient2409" cx="23.896" cy="3.99" r="20.397" fx="23.896" fy="3.99" gradientTransform="matrix(0,0.8796593,-1.1611346,0,12.632931,-21.08413)" gradientUnits="userSpaceOnUse" xlink:href="#linearGradient3242-187-536"/><linearGradient id="linearGradient3242-187-536"><stop id="stop2778" offset="0" stop-color="#8badea" stop-opacity="1"/><stop id="stop2780" offset=".262" stop-color="#6396cd" stop-opacity="1"/><stop id="stop2782" offset=".661" stop-color="#3b7caf" stop-opacity="1"/><stop id="stop2784" offset="1" stop-color="#194c70" stop-opacity="1"/></linearGradient><linearGradient id="linearGradient2411" x1="18.379" x2="18.379" y1="44.98" y2="3.082" gradientTransform="matrix(0.3685738,0,0,0.3685738,-0.84577,-0.8457701)" gradientUnits="userSpaceOnUse" xlink:href="#linearGradient2490-182-124"/><linearGradient id="linearGradient2490-182-124"><stop id="stop2788" offset="0" stop-color="#1f4b6a" stop-opacity="1"/><stop id="stop2790" offset="1" stop-color="#4083c2" stop-opacity="1"/></linearGradient><linearGradient id="linearGradient2406" x1="63.397" x2="63.397" y1="-12.489" y2="5.468" gradientTransform="matrix(0.7432394,0,0,0.7432224,-38.229789,10.609333)" gradientUnits="userSpaceOnUse" xlink:href="#linearGradient4873"/><linearGradient id="linearGradient4873"><stop id="stop4875" offset="0" stop-color="#fff" stop-opacity="1"/><stop id="stop4877" offset="1" stop-color="#fff" stop-opacity="0"/></linearGradient><linearGradient id="linearGradient7262" x1="8" x2="8" y1=".952" y2="14.712" gradientUnits="userSpaceOnUse" xlink:href="#linearGradient3242-187-536"/><linearGradient id="linearGradient8052" x1="8" x2="8" y1="14" y2="0" gradientUnits="userSpaceOnUse" xlink:href="#linearGradient2490-182-124-1"/></defs><path id="path3601" fill="url(#linearGradient8157)" fill-opacity="1" fill-rule="nonzero" stroke="url(#linearGradient8052)" stroke-dasharray="none" stroke-dashoffset="0" stroke-linecap="butt" stroke-linejoin="miter" stroke-miterlimit="4" stroke-opacity=".392" stroke-width="1" d="m 7.1055046,0.49999995 c 3.6481194,0 6.6055044,2.91014865 6.6055044,6.49999935 0,1.036116 -0.24985,2.0057549 -0.688073,2.8750002 C 14.213958,11.430989 15.5,12.09375 15.5,12.09375 l -4.266055,0 C 10.104446,12.98162 8.6635556,13.5 7.1055046,13.5 3.4573848,13.5 0.49999998,10.58985 0.49999998,6.9999993 c 0,-3.5898507 2.95738482,-6.49999935 6.60550462,-6.49999935 z" color="#000" display="inline" enable-background="accumulate" opacity="1" overflow="visible" visibility="visible" style="marker:none"/><g id="layer1" stroke="url(#linearGradient7991)" stroke-dasharray="none" stroke-miterlimit="4" stroke-opacity="1" stroke-width=".3" transform="matrix(0.5876443,0,0,0.5876443,2.3897541,2.3594519)"><path id="path3298" fill="url(#linearGradient7962)" fill-opacity="1" stroke="url(#linearGradient8040)" stroke-dasharray="none" stroke-linecap="round" stroke-linejoin="round" stroke-miterlimit="4" stroke-opacity="1" stroke-width=".462" d="M 8.525689,11.057893 C 8.4875349,9.6610164 8.7926653,8.3049459 10.079403,7.344391 11.438529,6.2580633 12.747474,4.8989209 12.609147,3.2967983 12.578942,1.7516968 10.823679,0.54094131 8.932508,0.36685584 6.80525,0.0646004 4.2312819,0.81203917 3.5184509,2.515943 3.1569204,3.3446633 3.4921786,4.8314845 4.705473,4.8314845 c 0.7096571,0 1.0356068,-0.4701738 1.0891559,-0.9002728 C 5.8351431,3.6057861 5.7048805,3.3151827 5.6279523,3.0463792 5.5402969,2.7400941 5.9144899,2.1464792 6.3220388,1.9046201 6.6625908,1.7025138 7.0188967,1.6347446 7.0714187,1.6217991 8.2944404,1.3203383 9.5136172,1.9862232 10.02228,2.7966885 10.530942,3.607152 9.9710591,4.8364674 9.1660747,6.0319292 8.3610903,7.2273926 7.4972001,8.5851937 7.5006517,10.027401 c 0,0.549049 -0.047698,0.735574 -0.013808,0.957705 0.027077,0.177477 0.6000517,0.156028 1.0388453,0.07279 z m -0.5581488,1.880121 c -1.1694021,-0.06511 -1.9787914,1.294563 -1.2762719,2.160862 0.6273825,0.95648 2.3864183,0.720364 2.6879169,-0.362752 0.3134497,-0.842262 -0.4408714,-1.812169 -1.411645,-1.798111 l 0,1e-6 z" font-family="Standard Symbols L" font-size="72" font-style="normal" font-weight="bold"/></g></svg>