<svg xmlns="http://www.w3.org/2000/svg" xmlns:svg="http://www.w3.org/2000/svg" xmlns:xlink="http://www.w3.org/1999/xlink" id="svg3294" width="16" height="16" version="1.0"><defs id="defs3296"><linearGradient id="linearGradient3274" x1="-33.806" x2="-33.806" y1="3" y2="15.042" gradientTransform="translate(44.805604,0)" gradientUnits="userSpaceOnUse" xlink:href="#linearGradient3587-6-5"/><linearGradient id="linearGradient3587-6-5"><stop id="stop3589-9-2" offset="0" stop-color="#000" stop-opacity="1"/><stop id="stop3591-7-4" offset="1" stop-color="#363636" stop-opacity="1"/></linearGradient><linearGradient id="linearGradient3276" x1="-33.806" x2="-33.806" y1="16" y2="19" gradientTransform="translate(44.805604,0)" gradientUnits="userSpaceOnUse" xlink:href="#linearGradient3587-6-5"/><linearGradient id="linearGradient3389" x1="-33.806" x2="-33.806" y1="3" y2="15.042" gradientTransform="translate(44.805604,0)" gradientUnits="userSpaceOnUse" xlink:href="#linearGradient3587-6-5"/><linearGradient id="linearGradient3391" x1="-33.806" x2="-33.806" y1="16" y2="19" gradientTransform="translate(44.805604,0)" gradientUnits="userSpaceOnUse" xlink:href="#linearGradient3587-6-5"/><linearGradient id="linearGradient3394" x1="-33.806" x2="-33.806" y1="16" y2="19" gradientTransform="translate(41.805604,-3)" gradientUnits="userSpaceOnUse" xlink:href="#linearGradient3587-6-5"/><linearGradient id="linearGradient3397" x1="-33.806" x2="-33.806" y1="3" y2="15.042" gradientTransform="translate(41.805604,-3)" gradientUnits="userSpaceOnUse" xlink:href="#linearGradient3587-6-5"/></defs><g id="layer1"><path id="path3404" fill="#fff" fill-opacity="1" fill-rule="nonzero" stroke="none" stroke-dasharray="none" stroke-dashoffset="0" stroke-linecap="square" stroke-linejoin="miter" stroke-miterlimit="4" stroke-opacity="1" stroke-width="1" marker-end="none" marker-mid="none" marker-start="none" d="M 1,1 C 0.446,1 0,1.4893865 0,2.09375 L 0,11.90625 C 0,12.510614 0.446,13 1,13 L 15,13 C 15.554,13 16,12.510614 16,11.90625 L 16,2.09375 C 16,1.4893863 15.554,1 15,1 L 1,1 z" display="inline" enable-background="accumulate" opacity=".6" overflow="visible" visibility="visible" style="marker:none"/><path id="path3402" fill="#fff" fill-opacity="1" fill-rule="nonzero" stroke="none" stroke-dasharray="none" stroke-dashoffset="0" stroke-linecap="square" stroke-linejoin="miter" stroke-miterlimit="4" stroke-opacity="1" stroke-width="1" marker-end="none" marker-mid="none" marker-start="none" d="M 2,3 L 14,3 L 14,11 L 2,11 L 2,3 z" display="inline" enable-background="accumulate" opacity=".6" overflow="visible" visibility="visible" style="marker:none"/><path id="rect2722" fill="url(#linearGradient3397)" fill-opacity="1" fill-rule="nonzero" stroke="none" stroke-dasharray="none" stroke-dashoffset="0" stroke-linecap="square" stroke-linejoin="miter" stroke-miterlimit="4" stroke-opacity="1" stroke-width="1" marker-end="none" marker-mid="none" marker-start="none" d="M 1,0 C 0.446,0 0,0.4893865 0,1.09375 L 0,10.90625 C 0,11.510614 0.446,12 1,12 L 15,12 C 15.554,12 16,11.510614 16,10.90625 L 16,1.09375 C 16,0.4893863 15.554,0 15,0 L 1,0 z M 2,2 L 14,2 L 14,10 L 2,10 L 2,2 z" display="inline" enable-background="accumulate" opacity=".7" overflow="visible" visibility="visible" style="marker:none"/><path id="path3271" fill="url(#linearGradient3394)" fill-opacity="1" fill-rule="nonzero" stroke="none" stroke-dasharray="none" stroke-dashoffset="0" stroke-linecap="square" stroke-linejoin="miter" stroke-miterlimit="4" stroke-opacity="1" stroke-width="1" marker-end="none" marker-mid="none" marker-start="none" d="M 5,13 L 11,13 L 11,14 L 13,14 L 13,16 L 3,16 L 3,14 L 5,14 L 5,13 z" display="inline" enable-background="accumulate" opacity=".7" overflow="visible" visibility="visible" style="marker:none"/></g></svg>