<svg xmlns="http://www.w3.org/2000/svg" xmlns:svg="http://www.w3.org/2000/svg" xmlns:xlink="http://www.w3.org/1999/xlink" id="svg3803" width="16" height="16" version="1.1"><defs id="defs3805"><linearGradient id="linearGradient4873-275-174-730-0"><stop id="stop3091-4" offset="0" stop-color="#fff" stop-opacity="1"/><stop id="stop3093-4" offset="1" stop-color="#fff" stop-opacity="0"/></linearGradient><linearGradient id="linearGradient3242-141-111-307-57-927"><stop id="stop3881" offset="0" stop-color="#fff" stop-opacity="1"/><stop id="stop3883" offset="1" stop-color="#b4b4b4" stop-opacity="1"/></linearGradient><linearGradient id="linearGradient2490-322-551-880-5-882"><stop id="stop3887" offset="0" stop-color="#8c8c8c" stop-opacity="1"/><stop id="stop3889" offset="1" stop-color="#b4b4b4" stop-opacity="1"/></linearGradient><radialGradient id="radialGradient3799" cx="20.573" cy="-35.522" r="20.397" fx="20.573" fy="-35.522" gradientTransform="matrix(0,0.49633911,0.63877963,0,31.860165,-8.0955713)" gradientUnits="userSpaceOnUse" xlink:href="#linearGradient3242-141-111-307-57-927"/><linearGradient id="linearGradient3801" x1="128.718" x2="128.718" y1="46.304" y2="-5.81" gradientTransform="matrix(-0.20276498,0,0,0.20796414,39.275256,3.3237245)" gradientUnits="userSpaceOnUse" xlink:href="#linearGradient2490-322-551-880-5-882"/><linearGradient id="linearGradient2901" x1="139.23" x2="139.23" y1="-1.707" y2="41.87" gradientTransform="matrix(-0.20276498,0,0,0.20796414,39.275256,3.3237245)" gradientUnits="userSpaceOnUse" xlink:href="#linearGradient4873-275-174-730-0"/><linearGradient id="linearGradient3242-7-9"><stop id="stop3244-5-2" offset="0" stop-color="#eef87e" stop-opacity="1"/><stop id="stop3246-9-2" offset=".262" stop-color="#cde34f" stop-opacity="1"/><stop id="stop3248-7-3" offset=".661" stop-color="#93b723" stop-opacity="1"/><stop id="stop3250-8-1" offset="1" stop-color="#5a7e0d" stop-opacity="1"/></linearGradient><linearGradient id="linearGradient2490-3-8"><stop id="stop2492-3-3" offset="0" stop-color="#365f0e" stop-opacity="1"/><stop id="stop2494-8-4" offset="1" stop-color="#84a718" stop-opacity="1"/></linearGradient><linearGradient id="linearGradient5530" x1="24.139" x2="24.139" y1="7.048" y2="39.268" gradientTransform="matrix(0.20131127,0,0,0.1999165,7.4133025,7.3088517)" gradientUnits="userSpaceOnUse" xlink:href="#linearGradient3943-2"/><linearGradient id="linearGradient3943-2"><stop id="stop3945-2" offset="0" stop-color="#fff" stop-opacity="1"/><stop id="stop3947-4" offset="1" stop-color="#fff" stop-opacity="0"/></linearGradient><radialGradient id="radialGradient3893" cx="69.448" cy="51.695" r="31" fx="69.448" fy="51.695" gradientTransform="matrix(0,0.25030935,-0.27259303,0,25.244726,-8.076711)" gradientUnits="userSpaceOnUse" xlink:href="#linearGradient3242-7-9"/><linearGradient id="linearGradient3895" x1="72.422" x2="72.422" y1="124.756" y2="51.244" gradientTransform="matrix(0.10408428,0,0,0.10482496,2.8405826,2.7754018)" gradientUnits="userSpaceOnUse" xlink:href="#linearGradient2490-3-8"/></defs><metadata id="metadata3808"/><g id="layer1"><path id="path2396" fill="url(#radialGradient3799)" fill-opacity="1" fill-rule="nonzero" stroke="url(#linearGradient3801)" stroke-dasharray="none" stroke-dashoffset="0" stroke-linecap="round" stroke-linejoin="round" stroke-miterlimit="4" stroke-opacity="1" stroke-width="1" d="m 9.125,2.5 c -3.519,0 -6.375,2.2400004 -6.375,5 0,0.4233369 0.084469,0.8332984 0.2109375,1.2259615 L 0.5,10.889423 4.53125,10.961539 C 5.6916035,11.909361 7.318628,12.5 9.125,12.5 c 3.519,0 6.375001,-2.24 6.375,-5 0,-2.7599998 -2.856,-5.0000001 -6.375,-5 z" color="#000" display="inline" enable-background="accumulate" overflow="visible" visibility="visible" style="marker:none"/><path id="path2897" fill="none" fill-opacity="1" fill-rule="nonzero" stroke="url(#linearGradient2901)" stroke-dasharray="none" stroke-dashoffset="0" stroke-linecap="round" stroke-linejoin="round" stroke-miterlimit="4" stroke-opacity="1" stroke-width="1" d="m 9.125,3.46875 c -1.5526684,0 -2.9416921,0.493484 -3.90625,1.25 -0.9645579,0.756516 -1.5,1.7374808 -1.5,2.78125 0,0.2816771 0.07824,0.5670172 0.1875,0.90625 A 0.97488364,0.97488364 0 0 1 3.625,9.4375 L 3.03125,9.96875 4.5625,10 a 0.97488364,0.97488364 0 0 1 0.59375,0.21875 c 0.966383,0.789379 2.3722711,1.3125 3.96875,1.3125 1.552668,0 2.941692,-0.493484 3.90625,-1.25 0.964558,-0.756516 1.5,-1.7374808 1.5,-2.78125 0,-1.0437693 -0.535442,-2.024734 -1.5,-2.78125 -0.964558,-0.756516 -2.353582,-1.25 -3.90625,-1.25 z" color="#000" display="inline" enable-background="accumulate" opacity=".4" overflow="visible" visibility="visible" style="marker:none"/><path id="path2262" fill="url(#radialGradient3893)" fill-opacity="1" fill-rule="nonzero" stroke="url(#linearGradient3895)" stroke-dasharray="none" stroke-dashoffset="0" stroke-linecap="round" stroke-linejoin="round" stroke-miterlimit="4" stroke-opacity="1" stroke-width=".985" d="m 10.5,10.5 0,-2.0072863 3,0 0,2.0072863 2.007286,0 0,3 -2.007286,0 0,2.007286 -3,0 0,-2.007286 -2.0072863,0 0,-3 2.0072863,0 z" color="#000" display="inline" enable-background="accumulate" overflow="visible" visibility="visible" style="marker:none"/><path id="path2272" fill="none" stroke="url(#linearGradient5530)" stroke-dasharray="none" stroke-linecap="butt" stroke-linejoin="miter" stroke-miterlimit="4" stroke-opacity="1" stroke-width="1" d="m 11.5,11.5 0,-1.9999997 1,0 0,1.9999997 2,0 0,1 -2,0 0,2.292538 -1,0 0,-2.292538 -2,0 0,-1 2,0 z" display="inline" opacity=".4"/></g></svg>