<svg xmlns="http://www.w3.org/2000/svg" xmlns:svg="http://www.w3.org/2000/svg" xmlns:xlink="http://www.w3.org/1999/xlink" id="svg3211" width="12" height="16" version="1.0"><metadata id="metadata25"/><defs id="defs3213"><linearGradient id="linearGradient2867-449-88-871-390-598-476-591-434-148-69-4"><stop id="stop4629-22-2" offset="0" stop-color="#49a3d2" stop-opacity="1"/><stop id="stop4631-4-9" offset=".705" stop-color="#3470b4" stop-opacity="1"/><stop id="stop4633-7-6" offset="1" stop-color="#1b5699" stop-opacity="1"/></linearGradient><linearGradient id="linearGradient2878" x1="15.487" x2="15.487" y1="19.006" y2="5" gradientTransform="translate(-6,-4)" gradientUnits="userSpaceOnUse" xlink:href="#linearGradient2867-449-88-871-390-598-476-591-434-148-69-4"/></defs><path id="path3224" fill="#fff" fill-opacity="1" fill-rule="evenodd" stroke="none" d="m 6,2 0,2 c -3.312,0 -6,2.688 -6,6 0,3.312 2.688,6 6,6 3.312,0 6,-2.688 6,-6 l -2,0 C 10,12.208 8.208,14 6,14 3.7920001,14 2,12.208 2,10 2,7.792 3.7919999,6 6,6 L 6,8 11,5 6,2 z" opacity=".7"/><path id="path4199" fill="url(#linearGradient2878)" fill-opacity="1" fill-rule="evenodd" stroke="none" d="M 6,1 6,3 C 2.688,3 0,5.6879996 0,9 c 0,3.312 2.688,6 6,6 3.312,0 6,-2.688 6,-6 L 10,9 C 10,11.208 8.208,13 6,13 3.7920001,13 2,11.208 2,9 2,6.792 3.7919999,5 6,5 L 6,7 11,4 6,1 z"/></svg>