<svg xmlns="http://www.w3.org/2000/svg" xmlns:svg="http://www.w3.org/2000/svg" xmlns:xlink="http://www.w3.org/1999/xlink" id="svg3185" width="20" height="16" version="1.0"><metadata id="metadata12"/><defs id="defs3187"><linearGradient id="linearGradient3587-6-5-3"><stop id="stop3589-9-2-2" offset="0" stop-color="#000" stop-opacity="1"/><stop id="stop3591-7-4-73" offset="1" stop-color="#363636" stop-opacity="1"/></linearGradient><linearGradient id="linearGradient3158" x1="222.85" x2="222.85" y1="13.784" y2="37.823" gradientTransform="matrix(-0.4100229,0,0,0.5447147,101.0059,-6.508554)" gradientUnits="userSpaceOnUse" xlink:href="#linearGradient3587-6-5-3"/></defs><path id="path2411" fill="#fff" fill-opacity="1" fill-rule="nonzero" stroke="none" stroke-width="1" d="m 8.5,2 c 4.692,0 8.5,2.912 8.5,6.5 0,0.550338 -0.112625,1.083288 -0.28125,1.59375 L 20,12.90625 14.625,13 C 13.077862,14.23217 10.908496,15 8.5,15 3.808,15 -9.999998e-7,12.088 0,8.5 0,4.912 3.808,1.9999999 8.5,2 z M 10.6875,5 8.5,7.25 6.25,5.03125 5,6.3125 7.25,8.5 5.03125,10.75 6.3125,12 8.5,9.75 10.75,11.96875 12,10.6875 9.75,8.5 11.96875,6.25 10.6875,5 z" display="inline" enable-background="accumulate" opacity=".6" overflow="visible" visibility="visible" style="marker:none"/><path id="path2396" fill="url(#linearGradient3158)" fill-opacity="1" fill-rule="nonzero" stroke="none" stroke-width="1" d="M 8.5,1 C 13.192,1 17,3.9120003 17,7.5 17,8.050338 16.887375,8.583288 16.71875,9.09375 L 20,11.90625 14.625,12 C 13.077862,13.23217 10.908496,14 8.5,14 3.808,14 -9.999998e-7,11.088 0,7.5 0,3.9120001 3.808,0.9999999 8.5,1 z M 10.6875,4 8.5,6.25 6.25,4.03125 5,5.3125 7.25,7.5 5.03125,9.75 6.3125,11 8.5,8.75 10.75,10.96875 12,9.6875 9.75,7.5 11.96875,5.25 10.6875,4 z" display="inline" enable-background="accumulate" opacity=".7" overflow="visible" visibility="visible" style="marker:none"/></svg>