<svg xmlns="http://www.w3.org/2000/svg" xmlns:svg="http://www.w3.org/2000/svg" xmlns:xlink="http://www.w3.org/1999/xlink" id="svg3955" width="24" height="24" version="1.1"><defs id="defs3957"><linearGradient id="linearGradient2907" x1="23.47" x2="23.47" y1="11.21" y2="35.051" gradientTransform="matrix(0.77056228,0,0,0.77077837,-4.5546733,17.801037)" gradientUnits="userSpaceOnUse" xlink:href="#linearGradient3642"/><linearGradient id="linearGradient3642"><stop id="stop3644" offset="0" stop-color="#fff" stop-opacity="1"/><stop id="stop3646" offset="1" stop-color="#fff" stop-opacity="0"/></linearGradient><linearGradient id="linearGradient3683" x1="11.566" x2="15.215" y1="22.292" y2="33.955" gradientTransform="matrix(0.4893617,0,0,0.4893617,1.7131795,22.728095)" gradientUnits="userSpaceOnUse" xlink:href="#linearGradient8265-821-176-38-919-66-249"/><linearGradient id="linearGradient8265-821-176-38-919-66-249"><stop id="stop2687" offset="0" stop-color="#fff" stop-opacity=".275"/><stop id="stop2689" offset="1" stop-color="#fff" stop-opacity="0"/></linearGradient><radialGradient id="radialGradient3627" cx="13.139" cy="25.625" r="13.931" fx="13.139" fy="25.625" gradientTransform="matrix(0,1.2347038,-1.4762672,0,46.15859,-19.609815)" gradientUnits="userSpaceOnUse" xlink:href="#linearGradient3690"/><linearGradient id="linearGradient3690"><stop id="stop3692" offset="0" stop-color="#ffeb9f" stop-opacity="1"/><stop id="stop3694" offset=".262" stop-color="#ffd57e" stop-opacity="1"/><stop id="stop3696" offset=".661" stop-color="#ffbc43" stop-opacity="1"/><stop id="stop3698" offset="1" stop-color="#ff921a" stop-opacity="1"/></linearGradient><linearGradient id="linearGradient3629" x1="21.483" x2="21.483" y1="36.255" y2="9.58" gradientTransform="matrix(0.77056228,0,0,0.77077837,-4.5542786,-14.199358)" gradientUnits="userSpaceOnUse" xlink:href="#linearGradient3603"/><linearGradient id="linearGradient3603"><stop id="stop3605" offset="0" stop-color="#a7651c" stop-opacity="1"/><stop id="stop3607" offset="1" stop-color="#c8a700" stop-opacity="1"/></linearGradient><linearGradient id="linearGradient8838"><stop id="stop8840" offset="0" stop-color="#000" stop-opacity="1"/><stop id="stop8842" offset="1" stop-color="#000" stop-opacity="0"/></linearGradient><radialGradient id="radialGradient3953" cx="62.625" cy="4.625" r="10.625" fx="62.625" fy="4.625" gradientTransform="matrix(1.0352941,0,0,0.42352883,-52.835297,9.541176)" gradientUnits="userSpaceOnUse" xlink:href="#linearGradient8838"/><linearGradient id="linearGradient5530" x1="24.139" x2="24.139" y1="7.048" y2="39.268" gradientTransform="matrix(0.2817955,0,0,0.2800956,12.186027,3.0148937)" gradientUnits="userSpaceOnUse" xlink:href="#linearGradient3943"/><linearGradient id="linearGradient3943"><stop id="stop3945" offset="0" stop-color="#fff" stop-opacity="1"/><stop id="stop3947" offset="1" stop-color="#fff" stop-opacity="0"/></linearGradient><linearGradient id="linearGradient3242-7"><stop id="stop3244-5" offset="0" stop-color="#eef87e" stop-opacity="1"/><stop id="stop3246-9" offset=".262" stop-color="#cde34f" stop-opacity="1"/><stop id="stop3248-7" offset=".661" stop-color="#93b723" stop-opacity="1"/><stop id="stop3250-8" offset="1" stop-color="#5a7e0d" stop-opacity="1"/></linearGradient><linearGradient id="linearGradient2490-3"><stop id="stop2492-3" offset="0" stop-color="#365f0e" stop-opacity="1"/><stop id="stop2494-8" offset="1" stop-color="#84a718" stop-opacity="1"/></linearGradient><radialGradient id="radialGradient3883" cx="69.448" cy="51.695" r="31" fx="69.448" fy="51.695" gradientTransform="matrix(0,0.35684158,-0.38820022,0,37.356571,-19.1214)" gradientUnits="userSpaceOnUse" xlink:href="#linearGradient3242-7"/><linearGradient id="linearGradient3885" x1="72.422" x2="72.422" y1="124.756" y2="51.244" gradientTransform="matrix(0.1482266,0,0,0.1494387,5.4507907,-3.650604)" gradientUnits="userSpaceOnUse" xlink:href="#linearGradient2490-3"/></defs><metadata id="metadata3960"/><g id="layer1" transform="translate(0,8)"><path id="path8836" fill="url(#radialGradient3953)" fill-opacity="1" fill-rule="evenodd" stroke="none" stroke-width="1" d="M 23,11.499999 C 23,13.985281 18.075131,16 12,16 5.9248685,16 0.99999999,13.985281 0.99999999,11.499999 0.99999999,9.014718 5.9248685,7 12,7 c 6.075131,0 11,2.014718 11,4.499999 l 0,0 z" display="inline" opacity=".3" overflow="visible" visibility="visible" style="marker:none"/><path id="path1307" fill="url(#radialGradient3627)" fill-opacity="1" fill-rule="nonzero" stroke="url(#linearGradient3629)" stroke-dasharray="none" stroke-dashoffset="0" stroke-linecap="butt" stroke-linejoin="round" stroke-miterlimit="4" stroke-opacity="1" stroke-width=".992" d="m 12.000001,-6.5038643 c 0.708911,0 2.994425,5.710702 3.567948,6.127507 0.57352,0.416804 6.709462,0.826364 6.928527,1.500768 0.219066,0.674404 -4.504349,4.6133713 -4.723415,5.2877753 -0.219065,0.674404 1.287639,6.638229 0.714118,7.055033 C 17.913658,13.884024 12.708912,10.607738 12,10.607738 c -0.708911,0 -5.9136574,3.276286 -6.4871791,2.859481 C 4.9392998,13.050415 6.4460042,7.086589 6.2269387,6.412186 6.007873,5.737782 1.2844585,1.7988137 1.5035242,1.1244097 c 0.2190656,-0.674403 6.3550063,-1.083963 6.9285281,-1.500767 0.5735207,-0.416805 2.8590377,-6.127507 3.5679487,-6.127507 z" display="inline" overflow="visible" visibility="visible" style="marker:none"/><path id="path3681" fill="url(#linearGradient3683)" fill-opacity="1" fill-rule="nonzero" stroke="none" stroke-width="1" d="m 11.96875,26.09375 c -0.45703,0.693479 -1.679762,2.629165 -3.03125,5.8125 A 0.43670935,0.43670935 0 0 1 8.59375,32.1875 c -2.1354674,0.348211 -4.8091853,0.716906 -6.5625,1.15625 1.1001782,1.3189 2.393494,2.529956 3.625,3.78125 L 20.8125,34.40625 c 0.353244,-0.353813 0.697176,-0.697415 1.0625,-1.0625 -2.051482,-0.507486 -4.36574,-0.808235 -6.5,-1.15625 a 0.43670935,0.43670935 0 0 1 -0.34375,-0.25 c -1.039472,-2.413271 -2.582922,-5.037031 -3.0625,-5.84375 z" display="inline" enable-background="accumulate" opacity=".8" overflow="visible" transform="translate(3.9466715e-4,-32.000395)" visibility="visible" style="marker:none"/><path id="path2903" fill="none" stroke="url(#linearGradient2907)" stroke-dasharray="none" stroke-dashoffset="0" stroke-linecap="butt" stroke-linejoin="round" stroke-miterlimit="4" stroke-opacity="1" stroke-width=".992" d="m 12,26.9375 c -0.289389,0.492394 -0.61844,1.165503 -0.96875,1.875 -0.361907,0.732986 -0.746865,1.511515 -1.0625,2.125 C 9.8109327,31.244242 9.6704356,31.520046 9.53125,31.75 9.3920644,31.979954 9.3680081,32.138801 9,32.40625 c -0.3684354,0.267759 -0.5505426,0.251058 -0.8125,0.3125 -0.2619574,0.06144 -0.5652425,0.100734 -0.90625,0.15625 -0.6820149,0.111033 -1.5021108,0.22551 -2.3125,0.34375 -0.7742066,0.112961 -1.5055387,0.221892 -2.0625,0.34375 0.3780266,0.425859 0.9075435,0.983352 1.46875,1.53125 0.5845803,0.570717 1.1708703,1.135202 1.65625,1.625 0.2426898,0.244899 0.4494983,0.484046 0.625,0.6875 0.1755017,0.203454 0.3283605,0.286554 0.46875,0.71875 0.1407051,0.433167 0.085066,0.575594 0.0625,0.84375 C 7.1649339,39.236906 7.115147,39.533479 7.0625,39.875 6.9572061,40.558043 6.7943936,41.380117 6.65625,42.1875 6.5239085,42.960973 6.3999,43.713286 6.34375,44.28125 6.869114,44.051705 7.547246,43.7136 8.25,43.34375 8.9758699,42.961734 9.7261784,42.562086 10.34375,42.25 c 0.308786,-0.156043 0.564288,-0.301637 0.8125,-0.40625 0.248212,-0.104613 0.387156,-0.1875 0.84375,-0.1875 0.456594,0 0.595538,0.08289 0.84375,0.1875 0.248212,0.104613 0.503714,0.250207 0.8125,0.40625 0.617572,0.312086 1.36788,0.711734 2.09375,1.09375 0.702754,0.36985 1.380886,0.707955 1.90625,0.9375 -0.05615,-0.567964 -0.180159,-1.320277 -0.3125,-2.09375 -0.138144,-0.807383 -0.300956,-1.629457 -0.40625,-2.3125 -0.05265,-0.341521 -0.102434,-0.638094 -0.125,-0.90625 -0.02257,-0.268156 -0.0782,-0.410584 0.0625,-0.84375 0.14039,-0.432195 0.293248,-0.515296 0.46875,-0.71875 0.175502,-0.203454 0.38231,-0.442601 0.625,-0.6875 0.48538,-0.489798 1.07167,-1.054283 1.65625,-1.625 0.561206,-0.547898 1.090723,-1.105391 1.46875,-1.53125 -0.556961,-0.121858 -1.288293,-0.230789 -2.0625,-0.34375 C 18.220861,33.10051 17.400765,32.986033 16.71875,32.875 16.377743,32.819484 16.074457,32.780192 15.8125,32.71875 15.550543,32.657308 15.368436,32.67401 15,32.40625 14.631991,32.138801 14.607936,31.979954 14.46875,31.75 14.329564,31.520046 14.189067,31.244242 14.03125,30.9375 13.715615,30.324015 13.330657,29.545486 12.96875,28.8125 12.618441,28.103003 12.289388,27.429894 12,26.9375 z" display="inline" opacity=".4" overflow="visible" transform="translate(3.9466715e-4,-32.000395)" visibility="visible" style="marker:none"/><path id="path2262" fill="url(#radialGradient3883)" fill-opacity="1" fill-rule="nonzero" stroke="url(#linearGradient3885)" stroke-dasharray="none" stroke-dashoffset="0" stroke-linecap="round" stroke-linejoin="round" stroke-miterlimit="4" stroke-opacity="1" stroke-width=".985" d="m 16.489465,7.5000087 0,-3 4,0 0,3 3,0 0,4.0000003 -3,0 0,2.999991 -4,0 0,-2.999991 -2.989465,0 0,-4.0000003 2.989465,0 z" color="#000" display="inline" enable-background="accumulate" overflow="visible" visibility="visible" style="marker:none"/><path id="path2272" fill="none" stroke="url(#linearGradient5530)" stroke-dasharray="none" stroke-linecap="butt" stroke-linejoin="miter" stroke-miterlimit="4" stroke-opacity="1" stroke-width="1" d="m 17.489465,8.5000087 0,-3 2,0 0,3 3,0 0,2.0000003 -3,0 0,3 -2,0 0,-3 -3,0 0,-2.0000003 3,0 z" display="inline" opacity=".4"/></g></svg>