<svg xmlns="http://www.w3.org/2000/svg" xmlns:svg="http://www.w3.org/2000/svg" xmlns:xlink="http://www.w3.org/1999/xlink" id="svg2841" width="24" height="24" version="1.0"><defs id="defs2843"><linearGradient id="linearGradient5105-262-943-861"><stop id="stop2487" offset="0" stop-color="#0d0d0d" stop-opacity="1"/><stop id="stop2489" offset="1" stop-color="#0d0d0d" stop-opacity="0"/></linearGradient><radialGradient id="radialGradient4811" cx="11.25" cy="19.031" r="8.063" fx="11.25" fy="19.031" gradientTransform="matrix(1,0,0,0.282946,0,13.64644)" gradientUnits="userSpaceOnUse" xlink:href="#linearGradient5105-262-943-861"/><linearGradient id="linearGradient2264"><stop id="stop2266" offset="0" stop-color="#d7e866" stop-opacity="1"/><stop id="stop2268" offset="1" stop-color="#8cab2a" stop-opacity="1"/></linearGradient><linearGradient id="linearGradient4813" x1="-86.129" x2="-93.088" y1="2.069" y2="31.138" gradientTransform="matrix(0.5112838,-0.1216744,0.12241,0.5082113,56.783012,-3.2077143)" gradientUnits="userSpaceOnUse" xlink:href="#linearGradient2264"/><linearGradient id="linearGradient3400"><stop id="stop3402" offset="0" stop-color="#fff" stop-opacity="1"/><stop id="stop3404" offset="1" stop-color="#fff" stop-opacity="0"/></linearGradient><linearGradient id="linearGradient3597" x1="20.494" x2="20.494" y1="6.01" y2="47.76" gradientTransform="matrix(0.5025885,0,0,0.4995683,1.1940063,0.7665261)" gradientUnits="userSpaceOnUse" xlink:href="#linearGradient3400"/></defs><metadata id="metadata2846"/><g id="layer1"><path stroke-width="1" style="marker:none" id="path4346" fill="url(#radialGradient4811)" fill-opacity="1" fill-rule="nonzero" stroke="none" stroke-dasharray="none" stroke-dashoffset="0" stroke-linecap="butt" stroke-linejoin="miter" stroke-miterlimit="4" stroke-opacity="1" marker-end="none" marker-mid="none" marker-start="none" d="M 19.3125,19.03125 A 8.0625,2.28125 0 1 1 3.1875,19.03125 A 8.0625,2.28125 0 1 1 19.3125,19.03125 z" display="inline" opacity=".163" overflow="visible" transform="matrix(1.4883719,0,0,1.4465766,-4.7441839,-6.8301638)" visibility="visible"/><path id="path1542" fill="url(#linearGradient4813)" fill-opacity="1" fill-rule="nonzero" stroke="#699536" stroke-dasharray="none" stroke-dashoffset="0" stroke-linecap="round" stroke-linejoin="round" stroke-miterlimit="4" stroke-opacity="1" stroke-width="1.003" marker-end="none" marker-mid="none" marker-start="none" d="M 18.175045,3.5050734 C 17.893728,3.4766952 17.614045,3.6136485 17.469505,3.8765759 L 11.311125,15.076693 L 7.3516838,11.94736 C 6.9989939,11.755797 6.5589582,11.879032 6.3662377,12.229603 L 4.5906573,14.495517 C 4.3979411,14.846082 4.527588,15.283344 4.8802754,15.474904 C 4.8802754,15.474904 12.109718,21.409916 12.118638,21.414306 C 12.201298,21.459205 12.28774,21.481796 12.375609,21.492832 C 12.662649,21.528883 12.956399,21.394835 13.103948,21.126432 L 21.409341,6.0216833 C 21.602059,5.6711143 21.472414,5.2338548 21.119725,5.0422946 L 18.454817,3.5886997 C 18.366643,3.540809 18.268818,3.5145329 18.175045,3.5050734 z" display="inline" overflow="visible" visibility="visible" style="marker:none"/><path id="path1544" fill="none" fill-opacity="1" fill-rule="nonzero" stroke="url(#linearGradient3597)" stroke-dasharray="none" stroke-dashoffset="0" stroke-linecap="round" stroke-linejoin="miter" stroke-miterlimit="4" stroke-opacity="1" stroke-width="1.003" marker-end="none" marker-mid="none" marker-start="none" d="M 18.214219,4.6150802 L 11.621039,16.59425 L 7.0429763,12.993376 C 6.5430041,13.593 6.1940911,14.084983 5.6268868,14.793063 C 5.6268868,14.793063 12.308087,20.243713 12.388561,20.327429 C 12.639581,19.922831 20.280248,5.9994113 20.392067,5.786567 C 20.224636,5.6712228 18.271997,4.6613945 18.214219,4.6150802 z" display="inline" opacity=".4" overflow="visible" visibility="visible" style="marker:none"/></g></svg>