<svg xmlns="http://www.w3.org/2000/svg" xmlns:svg="http://www.w3.org/2000/svg" xmlns:xlink="http://www.w3.org/1999/xlink" id="svg4840" width="24" height="24" version="1.0"><defs id="defs4842"><linearGradient id="linearGradient8838"><stop id="stop8840" offset="0" stop-color="#000" stop-opacity="1"/><stop id="stop8842" offset="1" stop-color="#000" stop-opacity="0"/></linearGradient><radialGradient id="radialGradient5323" cx="62.625" cy="4.625" r="10.625" fx="62.625" fy="4.625" gradientTransform="matrix(1,0,0,0.341176,0,3.047059)" gradientUnits="userSpaceOnUse" xlink:href="#linearGradient8838"/><linearGradient id="linearGradient5354"><stop id="stop5356" offset="0" stop-color="#3f3f3f" stop-opacity="1"/><stop id="stop5358" offset="1" stop-color="#000" stop-opacity="1"/></linearGradient><linearGradient id="linearGradient5130" x1="19.177" x2="19.177" y1="13.48" y2="45.359" gradientTransform="matrix(0.4916775,0,0,0.4916774,0.6986745,-0.3018277)" gradientUnits="userSpaceOnUse" xlink:href="#linearGradient5354"/><linearGradient id="linearGradient37935"><stop id="stop37937" offset="0" stop-color="#929292" stop-opacity="1"/><stop id="stop37939" offset="1" stop-color="#4a4a4a" stop-opacity="1"/></linearGradient><linearGradient id="linearGradient5128" x1="28.771" x2="28.771" y1="12.918" y2="45.348" gradientTransform="matrix(0.4916775,0,0,0.4916774,0.6986745,-0.3018277)" gradientUnits="userSpaceOnUse" xlink:href="#linearGradient37935"/><linearGradient id="linearGradient2145"><stop id="stop2147" offset="0" stop-color="#fffffd" stop-opacity="1"/><stop id="stop2149" offset="1" stop-color="#cbcbc9" stop-opacity="1"/></linearGradient><radialGradient id="radialGradient5350" cx="11.902" cy="10.045" r="29.293" fx="11.902" fy="10.045" gradientUnits="userSpaceOnUse" xlink:href="#linearGradient2145"/><linearGradient id="linearGradient7065"><stop id="stop7067" offset="0" stop-color="#fff" stop-opacity="1"/><stop id="stop7069" offset="1" stop-color="#fff" stop-opacity="0"/></linearGradient><linearGradient id="linearGradient12026" x1="78.5" x2="83.031" y1="16.406" y2="16.438" gradientTransform="matrix(1.6399715,0,0,1.7710483,-116.65334,9.4899309)" gradientUnits="userSpaceOnUse" xlink:href="#linearGradient7065"/><linearGradient id="linearGradient3747"><stop id="stop3749" offset="0" stop-color="#494949" stop-opacity="1"/><stop id="stop3751" offset="1" stop-color="#888a85" stop-opacity="0"/></linearGradient><linearGradient id="linearGradient12024" x1="78.313" x2="83.203" y1="12.313" y2="12.093" gradientTransform="matrix(1.6399715,0,0,1.7710483,-116.65334,9.4899309)" gradientUnits="userSpaceOnUse" xlink:href="#linearGradient3747"/><linearGradient id="linearGradient7089"><stop id="stop7091" offset="0" stop-color="#eeeeec" stop-opacity="1"/><stop id="stop7093" offset="1" stop-color="#eeeeec" stop-opacity="0"/></linearGradient><linearGradient id="linearGradient12022" x1="80.625" x2="83.219" y1="14.063" y2="13.875" gradientTransform="matrix(1.6399715,0,0,1.7710483,-116.65334,9.4899309)" gradientUnits="userSpaceOnUse" xlink:href="#linearGradient7089"/><linearGradient id="linearGradient7101"><stop id="stop7103" offset="0" stop-color="#000" stop-opacity="1"/><stop id="stop7105" offset="1" stop-color="#000" stop-opacity="0"/></linearGradient><linearGradient id="linearGradient12020" x1="79.25" x2="83.625" y1="15.75" y2="14.781" gradientUnits="userSpaceOnUse" xlink:href="#linearGradient7101"/></defs><metadata id="metadata4845"/><g id="layer1"><path id="path2774" fill="url(#radialGradient5323)" fill-opacity="1" fill-rule="evenodd" stroke="none" stroke-dasharray="none" stroke-dashoffset="0" stroke-linecap="butt" stroke-linejoin="round" stroke-miterlimit="4" stroke-opacity="1" stroke-width="1" marker-end="none" marker-mid="none" marker-start="none" d="M 73.25,4.625 A 10.625,3.625 0 1 1 52,4.625 A 10.625,3.625 0 1 1 73.25,4.625 z" display="inline" opacity=".56" overflow="visible" transform="matrix(1.0823528,0,0,1.2906765,-55.282346,13.351919)" visibility="visible" style="marker:none"/><path id="path2555" fill="url(#linearGradient5128)" fill-opacity="1" stroke="url(#linearGradient5130)" stroke-dasharray="none" stroke-dashoffset="0" stroke-linecap="round" stroke-linejoin="round" stroke-miterlimit="4" stroke-opacity="1" stroke-width="1" d="M 12.492145,1.4999735 C 6.9730765,1.4999735 2.4999745,5.9730745 2.4999745,11.492145 C 2.4999745,17.011214 6.9730765,21.500027 12.492145,21.500026 C 18.011213,21.500026 22.500032,17.011214 22.500027,11.492145 C 22.500027,5.9730745 18.011213,1.4999735 12.492145,1.4999735 z"/><path id="path35549" fill="url(#radialGradient5350)" fill-opacity="1" fill-rule="evenodd" stroke="none" stroke-dasharray="none" stroke-dashoffset="0" stroke-linecap="round" stroke-linejoin="bevel" stroke-miterlimit="4" stroke-opacity="1" stroke-width="1.396" d="M 31.160714,16.910715 A 14.910714,14.910714 0 1 1 1.3392859,16.910715 A 14.910714,14.910714 0 1 1 31.160714,16.910715 z" transform="matrix(0.5700599,0,0,0.5700599,3.2365269,1.8598792)"/><path id="path2308" fill="#1f1f1f" fill-opacity="1" fill-rule="evenodd" stroke="#727272" stroke-dasharray="none" stroke-linecap="round" stroke-linejoin="miter" stroke-miterlimit="4" stroke-opacity="1" stroke-width="1" d="M 12.5,6.4999999 C 12.5,5.1073274 12.5,4.9309883 12.5,4.9309883"/><path id="path2312" fill="none" fill-rule="evenodd" stroke="#000" stroke-dasharray="none" stroke-linecap="round" stroke-linejoin="miter" stroke-miterlimit="4" stroke-opacity="1" stroke-width=".5" d="M 12.194529,11.713855 L 17.596253,6.3122524"/><path id="path2314" fill="none" fill-rule="evenodd" stroke="#000" stroke-dasharray="none" stroke-linecap="round" stroke-linejoin="miter" stroke-miterlimit="4" stroke-opacity="1" stroke-width=".5" d="M 13.071561,11.753718 L 9.4637681,8.1460064"/><path id="path2316" fill="red" fill-rule="evenodd" stroke="red" stroke-dasharray="none" stroke-linecap="round" stroke-linejoin="miter" stroke-miterlimit="4" stroke-opacity="1" stroke-width=".5" d="M 12.314125,11.434805 L 18.465311,9.7866365"/><path id="path5368" fill="#121212" fill-opacity="1" fill-rule="evenodd" stroke="#121212" stroke-dasharray="none" stroke-linecap="round" stroke-linejoin="miter" stroke-miterlimit="4" stroke-opacity="1" stroke-width="1" d="M 12.5,18.284507 C 12.5,16.891834 12.5,16.715495 12.5,16.715495"/><path id="path5370" fill="#1f1f1f" fill-opacity="1" fill-rule="evenodd" stroke="#1f1f1f" stroke-dasharray="none" stroke-linecap="round" stroke-linejoin="miter" stroke-miterlimit="4" stroke-opacity="1" stroke-width="1" d="M 17.5,11.5 C 18.892673,11.5 19.069013,11.5 19.069013,11.5"/><path id="path5372" fill="#1f1f1f" fill-opacity="1" fill-rule="evenodd" stroke="#5f5f5f" stroke-dasharray="none" stroke-linecap="round" stroke-linejoin="miter" stroke-miterlimit="4" stroke-opacity="1" stroke-width="1" d="M 5.7331351,11.5 C 7.0944914,11.5 7.2668652,11.5 7.2668652,11.5"/><g id="g12015" transform="matrix(0.5373686,0,0,0.5340745,1.9655643,-11.862146)"><path id="path11284" fill="url(#linearGradient12020)" fill-opacity="1" fill-rule="evenodd" stroke="none" stroke-dasharray="none" stroke-dashoffset=".7" stroke-linecap="round" stroke-linejoin="round" stroke-miterlimit="10" stroke-opacity="1" stroke-width=".587" d="M 85,9.96875 C 80.686562,9.96875 76.855621,11.957361 74.28125,15.03125 L 71.875,12.625 C 71.735656,12.480659 71.526888,12.42712 71.335276,12.486585 C 71.143665,12.546051 71.001891,12.708379 70.96875,12.90625 L 68.96875,23.40625 C 68.934004,23.580378 68.988539,23.760353 69.114093,23.885907 C 69.239647,24.011461 69.419622,24.065996 69.59375,24.03125 L 80.09375,22.03125 C 80.291621,21.998109 80.453949,21.856335 80.513415,21.664724 C 80.57288,21.473112 80.519341,21.264344 80.375,21.125 L 77.875,18.625 C 79.509966,16.462524 82.078208,15.03125 85,15.03125 C 85.061007,15.03125 85.66768,15.024538 86.25,15.03125 C 86.83232,15.037962 87.481192,15.063152 87.46875,15.0625 C 87.614974,15.071101 87.758262,15.018952 87.864753,14.918378 C 87.971243,14.817804 88.031488,14.677727 88.03125,14.53125 L 88.03125,10.53125 C 88.031711,10.249642 87.812369,10.016591 87.53125,10 C 87.247954,9.9895391 85.221832,9.96875 85,9.96875 z" opacity=".1" transform="matrix(1.6399715,0,0,1.7710483,-116.65334,11.260979)"/><path id="path7007" fill="url(#linearGradient12022)" fill-opacity="1" fill-rule="evenodd" stroke="url(#linearGradient12024)" stroke-dasharray="none" stroke-dashoffset=".7" stroke-linecap="round" stroke-linejoin="round" stroke-miterlimit="10" stroke-opacity="1" stroke-width="1.867" d="M 22.744245,28.085938 C 15.592195,28.085938 9.2111849,31.742855 5.1657949,37.439287 L 0.60462492,32.513559 L -2.6753151,51.109566 L 14.544385,47.567469 L 9.8807149,42.531051 C 12.681135,38.094148 17.397495,33.399083 22.744245,33.399083 C 23.021625,33.399083 26.570345,33.43894 26.844175,33.454428 L 26.844175,28.141283 C 26.568675,28.130297 23.022215,28.085938 22.744245,28.085938 z"/><path id="path7062" fill="none" fill-opacity="1" fill-rule="evenodd" stroke="url(#linearGradient12026)" stroke-dasharray="none" stroke-dashoffset=".7" stroke-linecap="round" stroke-linejoin="round" stroke-miterlimit="10" stroke-opacity="1" stroke-width="1.867" d="M 22.744245,29.856986 C 16.109845,29.856986 10.291605,33.692152 6.5467545,38.96539 C 6.2659445,39.376312 5.8345545,39.636339 5.3632845,39.67875 C 4.8920045,39.721164 4.4267145,39.541831 4.0868045,39.186771 L 1.9288036,36.830706 L -0.22378477,48.705939 L 10.765669,46.270747 L 8.203337,43.898901 C 7.649547,43.282755 7.584747,42.326383 8.049597,41.629745 C 11.143787,36.727379 16.843835,31.628034 22.744245,31.628034 C 22.955675,31.628034 25.476045,31.616108 26.434185,31.628034 C 26.616575,31.630305 26.679115,31.626414 26.844175,31.628034 L 26.844175,29.912331 C 25.691355,29.896435 22.814975,29.856986 22.744245,29.856986 z"/></g></g></svg>