<svg xmlns="http://www.w3.org/2000/svg" xmlns:svg="http://www.w3.org/2000/svg" xmlns:xlink="http://www.w3.org/1999/xlink" id="svg2" width="24" height="24" version="1.0"><defs id="defs4"><linearGradient id="linearGradient8265-821-176-38-919-66-249-311"><stop id="stop2662" offset="0" stop-color="#fff" stop-opacity="1"/><stop id="stop2664" offset="1" stop-color="#fff" stop-opacity="0"/></linearGradient><linearGradient id="linearGradient2558-342" x1="18.031" x2="20.055" y1="16.408" y2="24.628" gradientUnits="userSpaceOnUse" xlink:href="#linearGradient8265-821-176-38-919-66-249-311"/><linearGradient id="linearGradient3390-725"><stop id="stop2656" offset="0" stop-color="#5e5e5e" stop-opacity="1"/><stop id="stop2658" offset="1" stop-color="#909090" stop-opacity="1"/></linearGradient><linearGradient id="linearGradient2556-839" x1="10.318" x2="4.176" y1="14.993" y2="4.051" gradientTransform="matrix(1.0083043,0,0,1.0006232,-10.500284,-26.477671)" gradientUnits="userSpaceOnUse" xlink:href="#linearGradient3390-725"/><linearGradient id="linearGradient7012-661-145-733-759-865-745-340"><stop id="stop2650" offset="0" stop-color="#bababa" stop-opacity="1"/><stop id="stop2652" offset="1" stop-color="#838383" stop-opacity="1"/></linearGradient><linearGradient id="linearGradient2554-641" x1="126.698" x2="169.23" y1="58.583" y2="238.4" gradientTransform="matrix(5.4893416e-2,1.3851317e-2,2.572632e-3,5.248166e-2,-11.212261,-26.738461)" gradientUnits="userSpaceOnUse" xlink:href="#linearGradient7012-661-145-733-759-865-745-340"/><linearGradient id="linearGradient5060-925"><stop id="stop2644" offset="0" stop-color="#000" stop-opacity="1"/><stop id="stop2646" offset="1" stop-color="#000" stop-opacity="0"/></linearGradient><radialGradient id="radialGradient2552-332" cx="605.714" cy="486.648" r="117.143" fx="605.714" fy="486.648" gradientTransform="matrix(-2.774389,0,0,1.969706,112.7623,-872.8854)" gradientUnits="userSpaceOnUse" xlink:href="#linearGradient5060-925"/><linearGradient id="linearGradient5060-311"><stop id="stop2638" offset="0" stop-color="#000" stop-opacity="1"/><stop id="stop2640" offset="1" stop-color="#000" stop-opacity="0"/></linearGradient><radialGradient id="radialGradient2550-690" cx="605.714" cy="486.648" r="117.143" fx="605.714" fy="486.648" gradientTransform="matrix(2.774389,0,0,1.969706,-1891.633,-872.8854)" gradientUnits="userSpaceOnUse" xlink:href="#linearGradient5060-311"/><linearGradient id="linearGradient5048-380"><stop id="stop2630" offset="0" stop-color="#000" stop-opacity="0"/><stop id="stop2632" offset=".5" stop-color="#000" stop-opacity="1"/><stop id="stop2634" offset="1" stop-color="#000" stop-opacity="0"/></linearGradient><linearGradient id="linearGradient2548-464" x1="302.857" x2="302.857" y1="366.648" y2="609.505" gradientTransform="matrix(2.774389,0,0,1.969706,-1892.179,-872.8854)" gradientUnits="userSpaceOnUse" xlink:href="#linearGradient5048-380"/><linearGradient id="linearGradient8265-821-176-38-919-66-249"><stop id="stop2687" offset="0" stop-color="#fff" stop-opacity="1"/><stop id="stop2689" offset="1" stop-color="#fff" stop-opacity="0"/></linearGradient><linearGradient id="linearGradient2580" x1="18.031" x2="20.055" y1="16.408" y2="24.628" gradientUnits="userSpaceOnUse" xlink:href="#linearGradient8265-821-176-38-919-66-249"/><linearGradient id="linearGradient3390"><stop id="stop3392" offset="0" stop-color="#425e7b" stop-opacity="1"/><stop id="stop3394" offset="1" stop-color="#7a91a7" stop-opacity="1"/></linearGradient><linearGradient id="linearGradient2578" x1="10.318" x2="4.176" y1="14.993" y2="4.051" gradientTransform="matrix(1.0083043,0,0,1.0006232,-10.500284,-26.477671)" gradientUnits="userSpaceOnUse" xlink:href="#linearGradient3390"/><linearGradient id="linearGradient7012-661-145-733-759-865-745"><stop id="stop2699" offset="0" stop-color="#9cbbd9" stop-opacity="1"/><stop id="stop2701" offset="1" stop-color="#5c82ab" stop-opacity="1"/></linearGradient><linearGradient id="linearGradient2576" x1="126.698" x2="169.23" y1="58.583" y2="238.4" gradientTransform="matrix(5.4893416e-2,1.3851317e-2,2.572632e-3,5.248166e-2,-11.212261,-26.738461)" gradientUnits="userSpaceOnUse" xlink:href="#linearGradient7012-661-145-733-759-865-745"/><radialGradient id="radialGradient2574" cx="605.714" cy="486.648" r="117.143" fx="605.714" fy="486.648" gradientTransform="matrix(-2.774389,0,0,1.969706,112.7623,-872.8854)" gradientUnits="userSpaceOnUse" xlink:href="#linearGradient5060"/><linearGradient id="linearGradient5060"><stop id="stop5062" offset="0" stop-color="#000" stop-opacity="1"/><stop id="stop5064" offset="1" stop-color="#000" stop-opacity="0"/></linearGradient><radialGradient id="radialGradient2572" cx="605.714" cy="486.648" r="117.143" fx="605.714" fy="486.648" gradientTransform="matrix(2.774389,0,0,1.969706,-1891.633,-872.8854)" gradientUnits="userSpaceOnUse" xlink:href="#linearGradient5060"/><linearGradient id="linearGradient5048"><stop id="stop5050" offset="0" stop-color="#000" stop-opacity="0"/><stop id="stop5056" offset=".5" stop-color="#000" stop-opacity="1"/><stop id="stop5052" offset="1" stop-color="#000" stop-opacity="0"/></linearGradient><linearGradient id="linearGradient2570" x1="302.857" x2="302.857" y1="366.648" y2="609.505" gradientTransform="matrix(2.774389,0,0,1.969706,-1892.179,-872.8854)" gradientUnits="userSpaceOnUse" xlink:href="#linearGradient5048"/></defs><metadata id="metadata7"/><g id="layer1"><g id="g2526" opacity=".5" transform="translate(2.0617314e-3,-1.004415)"><g id="g2528" transform="matrix(0.3639508,0,0,0.3445682,-0.6458828,-0.3854516)"><g id="g2530" display="inline" transform="matrix(2.165152e-2,0,0,1.485743e-2,43.0076,42.68539)"><rect id="rect2532" width="1339.633" height="478.357" x="-1559.252" y="-150.697" fill="url(#linearGradient2548-464)" fill-opacity="1" fill-rule="nonzero" stroke="none" stroke-dasharray="none" stroke-dashoffset="0" stroke-linecap="round" stroke-linejoin="miter" stroke-miterlimit="4" stroke-opacity="1" stroke-width="1" marker-end="none" marker-mid="none" marker-start="none" display="inline" opacity=".402" overflow="visible" visibility="visible" style="marker:none"/><path id="path2534" fill="url(#radialGradient2550-690)" fill-opacity="1" fill-rule="nonzero" stroke="none" stroke-dasharray="none" stroke-dashoffset="0" stroke-linecap="round" stroke-linejoin="miter" stroke-miterlimit="4" stroke-opacity="1" stroke-width="1" marker-end="none" marker-mid="none" marker-start="none" d="M -219.61876,-150.68038 C -219.61876,-150.68038 -219.61876,327.65041 -219.61876,327.65041 C -76.744594,328.55086 125.78146,220.48075 125.78138,88.454235 C 125.78138,-43.572302 -33.655436,-150.68036 -219.61876,-150.68038 z" display="inline" opacity=".402" overflow="visible" visibility="visible" style="marker:none"/><path id="path2536" fill="url(#radialGradient2552-332)" fill-opacity="1" fill-rule="nonzero" stroke="none" stroke-dasharray="none" stroke-dashoffset="0" stroke-linecap="round" stroke-linejoin="miter" stroke-miterlimit="4" stroke-opacity="1" stroke-width="1" marker-end="none" marker-mid="none" marker-start="none" d="M -1559.2523,-150.68038 C -1559.2523,-150.68038 -1559.2523,327.65041 -1559.2523,327.65041 C -1702.1265,328.55086 -1904.6525,220.48075 -1904.6525,88.454235 C -1904.6525,-43.572302 -1745.2157,-150.68036 -1559.2523,-150.68038 z" display="inline" opacity=".402" overflow="visible" visibility="visible" style="marker:none"/></g></g><g id="g2538" transform="translate(10.498428,26.471051)"><path id="path2540" fill="#fff" fill-opacity="1" stroke="#a8a8a8" stroke-dasharray="none" stroke-linecap="round" stroke-linejoin="round" stroke-miterlimit="4" stroke-opacity="1" stroke-width=".979" d="M -8.8386583,-24.977136 C -8.8949163,-24.977136 -8.9431463,-24.916791 -8.9431463,-24.854463 L -8.9431463,-23.791302 L -9.4597683,-23.791302 L -9.8568233,-23.791302 C -9.9270293,-23.791302 -9.9822083,-23.729582 -9.9822083,-23.668629 L -9.9822083,-23.423284 L -9.9822083,-20.581372 C -9.9892953,-18.008402 -10.003106,-14.339122 -10.003106,-11.96967 C -5.2967803,-11.993637 -0.58799732,-12.017926 4.1194097,-12.035191 C 3.7022807,-12.035191 3.0070807,-12.10528 3.0170257,-12.975678 C 3.0205677,-16.572708 3.0399867,-20.218799 3.0278027,-23.791302 L -3.0029943,-23.791302 L -3.0029943,-24.854463 C -3.0029943,-24.916791 -3.0512223,-24.977136 -3.1074813,-24.977136 L -8.8386583,-24.977136 z" display="inline"/><path id="path2542" fill="url(#linearGradient2554-641)" fill-opacity="1" stroke="url(#linearGradient2556-839)" stroke-dasharray="none" stroke-linecap="round" stroke-linejoin="round" stroke-miterlimit="4" stroke-opacity="1" stroke-width=".953" d="M -7.9740723,-21.947037 C -7.3177083,-21.947037 4.5059697,-21.915644 5.0149287,-21.915644 C 5.0149287,-21.300231 4.9902447,-11.957569 4.9608617,-11.957569 C 0.40201868,-11.939815 -6.6985383,-11.971464 -8.0259523,-11.971464 C -8.0259523,-13.132935 -7.9740723,-19.556793 -7.9740723,-21.947037 z" display="inline"/></g><path id="path2544" fill="url(#linearGradient2558-342)" fill-opacity="1" fill-rule="evenodd" stroke="none" stroke-dasharray="none" stroke-dashoffset="0" stroke-linecap="round" stroke-linejoin="round" stroke-miterlimit="4" stroke-opacity="1" stroke-width="1.002" d="M 3.21875,5.34375 C 1.6798019,5.34375 0.40625,6.617302 0.40625,8.15625 L 0.40625,24.15625 C 0.41214423,24.442483 0.55466957,24.768827 0.78125,24.96875 C 1.0078275,25.168671 1.2974446,25.253022 1.625,25.21875 C 1.635415,25.219016 1.645835,25.219016 1.65625,25.21875 L 46.65625,18.09375 C 47.178023,18.01146 47.586456,17.55942 47.59375,17.03125 L 47.59375,8.15625 C 47.59375,6.617302 46.320198,5.34375 44.78125,5.34375 L 3.21875,5.34375 z" opacity=".2" transform="matrix(0.2966887,0,0,0.3520695,1.8794702,2.1186294)"/><path id="path2546" fill="none" fill-rule="evenodd" stroke="#fff" stroke-linecap="butt" stroke-linejoin="miter" stroke-opacity="1" stroke-width="1" d="M 3.497937,14 L 3.497937,5.5 L 14.997937,5.5" opacity=".35"/></g><g id="g2509" transform="translate(8.000002,8)"><g id="g2511" transform="matrix(0.3639508,0,0,0.3445682,-0.6458828,-0.3854516)"><g id="g2488" display="inline" transform="matrix(2.165152e-2,0,0,1.485743e-2,43.0076,42.68539)"><rect id="rect2490" width="1339.633" height="478.357" x="-1559.252" y="-150.697" fill="url(#linearGradient2570)" fill-opacity="1" fill-rule="nonzero" stroke="none" stroke-dasharray="none" stroke-dashoffset="0" stroke-linecap="round" stroke-linejoin="miter" stroke-miterlimit="4" stroke-opacity="1" stroke-width="1" marker-end="none" marker-mid="none" marker-start="none" display="inline" opacity=".402" overflow="visible" visibility="visible" style="marker:none"/><path id="path2492" fill="url(#radialGradient2572)" fill-opacity="1" fill-rule="nonzero" stroke="none" stroke-dasharray="none" stroke-dashoffset="0" stroke-linecap="round" stroke-linejoin="miter" stroke-miterlimit="4" stroke-opacity="1" stroke-width="1" marker-end="none" marker-mid="none" marker-start="none" d="M -219.61876,-150.68038 C -219.61876,-150.68038 -219.61876,327.65041 -219.61876,327.65041 C -76.744594,328.55086 125.78146,220.48075 125.78138,88.454235 C 125.78138,-43.572302 -33.655436,-150.68036 -219.61876,-150.68038 z" display="inline" opacity=".402" overflow="visible" visibility="visible" style="marker:none"/><path id="path2494" fill="url(#radialGradient2574)" fill-opacity="1" fill-rule="nonzero" stroke="none" stroke-dasharray="none" stroke-dashoffset="0" stroke-linecap="round" stroke-linejoin="miter" stroke-miterlimit="4" stroke-opacity="1" stroke-width="1" marker-end="none" marker-mid="none" marker-start="none" d="M -1559.2523,-150.68038 C -1559.2523,-150.68038 -1559.2523,327.65041 -1559.2523,327.65041 C -1702.1265,328.55086 -1904.6525,220.48075 -1904.6525,88.454235 C -1904.6525,-43.572302 -1745.2157,-150.68036 -1559.2523,-150.68038 z" display="inline" opacity=".402" overflow="visible" visibility="visible" style="marker:none"/></g></g><g id="g2517" transform="translate(10.498428,26.471051)"><path id="path2519" fill="#fff" fill-opacity="1" stroke="#a8a8a8" stroke-dasharray="none" stroke-linecap="round" stroke-linejoin="round" stroke-miterlimit="4" stroke-opacity="1" stroke-width=".979" d="M -8.8386583,-24.977136 C -8.8949163,-24.977136 -8.9431463,-24.916791 -8.9431463,-24.854463 L -8.9431463,-23.791302 L -9.4597683,-23.791302 L -9.8568233,-23.791302 C -9.9270293,-23.791302 -9.9822083,-23.729582 -9.9822083,-23.668629 L -9.9822083,-23.423284 L -9.9822083,-20.581372 C -9.9892953,-18.008402 -10.003106,-14.339122 -10.003106,-11.96967 C -5.2967803,-11.993637 -0.58799732,-12.017926 4.1194097,-12.035191 C 3.7022807,-12.035191 3.0070807,-12.10528 3.0170257,-12.975678 C 3.0205677,-16.572708 3.0399867,-20.218799 3.0278027,-23.791302 L -3.0029943,-23.791302 L -3.0029943,-24.854463 C -3.0029943,-24.916791 -3.0512223,-24.977136 -3.1074813,-24.977136 L -8.8386583,-24.977136 z" display="inline"/><path id="path2521" fill="url(#linearGradient2576)" fill-opacity="1" stroke="url(#linearGradient2578)" stroke-dasharray="none" stroke-linecap="round" stroke-linejoin="round" stroke-miterlimit="4" stroke-opacity="1" stroke-width=".953" d="M -7.9740723,-21.947037 C -7.3177083,-21.947037 4.5059697,-21.915644 5.0149287,-21.915644 C 5.0149287,-21.300231 4.9902447,-11.957569 4.9608617,-11.957569 C 0.40201868,-11.939815 -6.6985383,-11.971464 -8.0259523,-11.971464 C -8.0259523,-13.132935 -7.9740723,-19.556793 -7.9740723,-21.947037 z" display="inline"/></g><path id="path2608" fill="url(#linearGradient2580)" fill-opacity="1" fill-rule="evenodd" stroke="none" stroke-dasharray="none" stroke-dashoffset="0" stroke-linecap="round" stroke-linejoin="round" stroke-miterlimit="4" stroke-opacity="1" stroke-width="1.002" d="M 3.21875,5.34375 C 1.6798019,5.34375 0.40625,6.617302 0.40625,8.15625 L 0.40625,24.15625 C 0.41214423,24.442483 0.55466957,24.768827 0.78125,24.96875 C 1.0078275,25.168671 1.2974446,25.253022 1.625,25.21875 C 1.635415,25.219016 1.645835,25.219016 1.65625,25.21875 L 46.65625,18.09375 C 47.178023,18.01146 47.586456,17.55942 47.59375,17.03125 L 47.59375,8.15625 C 47.59375,6.617302 46.320198,5.34375 44.78125,5.34375 L 3.21875,5.34375 z" opacity=".2" transform="matrix(0.2966887,0,0,0.3520695,1.8794702,2.1186294)"/><path id="path2524" fill="none" fill-rule="evenodd" stroke="#fff" stroke-linecap="butt" stroke-linejoin="miter" stroke-opacity="1" stroke-width="1" d="M 3.497937,14 L 3.497937,5.5 L 14.997937,5.5" opacity=".35"/></g></g></svg>