<svg xmlns="http://www.w3.org/2000/svg" xmlns:svg="http://www.w3.org/2000/svg" xmlns:xlink="http://www.w3.org/1999/xlink" id="svg3803" width="24" height="24" version="1.1"><defs id="defs3805"><linearGradient id="linearGradient3742" x1="24.139" x2="24.139" y1="7.048" y2="39.268" gradientTransform="matrix(0.2817955,0,0,0.2800956,11.178741,3.0221797)" gradientUnits="userSpaceOnUse" xlink:href="#linearGradient3943"/><linearGradient id="linearGradient3943"><stop id="stop3945" offset="0" stop-color="#fff" stop-opacity="1"/><stop id="stop3947" offset="1" stop-color="#fff" stop-opacity="0"/></linearGradient><radialGradient id="radialGradient3745" cx="69.448" cy="51.695" r="31" fx="69.448" fy="51.695" gradientTransform="matrix(0,0.35684158,-0.38820022,0,36.349285,-19.114114)" gradientUnits="userSpaceOnUse" xlink:href="#linearGradient3242-7"/><linearGradient id="linearGradient3242-7"><stop id="stop3244-5" offset="0" stop-color="#eef87e" stop-opacity="1"/><stop id="stop3246-9" offset=".262" stop-color="#cde34f" stop-opacity="1"/><stop id="stop3248-7" offset=".661" stop-color="#93b723" stop-opacity="1"/><stop id="stop3250-8" offset="1" stop-color="#5a7e0d" stop-opacity="1"/></linearGradient><linearGradient id="linearGradient3747" x1="72.422" x2="72.422" y1="124.756" y2="51.244" gradientTransform="matrix(0.1482266,0,0,0.1494387,4.4435038,-3.643318)" gradientUnits="userSpaceOnUse" xlink:href="#linearGradient2490-3"/><linearGradient id="linearGradient2490-3"><stop id="stop2492-3" offset="0" stop-color="#365f0e" stop-opacity="1"/><stop id="stop2494-8" offset="1" stop-color="#84a718" stop-opacity="1"/></linearGradient><linearGradient id="linearGradient3750" x1="144.459" x2="144.459" y1="-2.227" y2="42.42" gradientTransform="matrix(-0.2703533,0,0,0.27035337,54.200342,-1.4291582)" gradientUnits="userSpaceOnUse" xlink:href="#linearGradient4873-275-174-730-0"/><linearGradient id="linearGradient4873-275-174-730-0"><stop id="stop3091-4" offset="0" stop-color="#fff" stop-opacity="1"/><stop id="stop3093-4" offset="1" stop-color="#fff" stop-opacity="0"/></linearGradient><linearGradient id="linearGradient3242-141-111-307-57-927"><stop id="stop3881" offset="0" stop-color="#fff" stop-opacity="1"/><stop id="stop3883" offset="1" stop-color="#b4b4b4" stop-opacity="1"/></linearGradient><linearGradient id="linearGradient2490-322-551-880-5-882"><stop id="stop3887" offset="0" stop-color="#8c8c8c" stop-opacity="1"/><stop id="stop3889" offset="1" stop-color="#b4b4b4" stop-opacity="1"/></linearGradient><radialGradient id="radialGradient3799" cx="20.573" cy="-35.522" r="20.397" fx="20.573" fy="-35.522" gradientTransform="matrix(0,0.64524082,0.85170617,0,44.313554,-16.274242)" gradientUnits="userSpaceOnUse" xlink:href="#linearGradient3242-141-111-307-57-927"/><linearGradient id="linearGradient3801" x1="128.718" x2="128.718" y1="46.304" y2="-5.81" gradientTransform="matrix(-0.2703533,0,0,0.27035337,54.200342,-1.4291582)" gradientUnits="userSpaceOnUse" xlink:href="#linearGradient2490-322-551-880-5-882"/></defs><metadata id="metadata3808"/><g id="layer1" transform="translate(0,8)"><path id="path2396" fill="url(#radialGradient3799)" fill-opacity="1" fill-rule="nonzero" stroke="url(#linearGradient3801)" stroke-dasharray="none" stroke-dashoffset="0" stroke-linecap="round" stroke-linejoin="round" stroke-miterlimit="4" stroke-opacity="1" stroke-width="1" d="m 14,-2.5 c -4.692,0 -8.5,2.9120003 -8.5,6.4999997 0,0.550338 0.112625,1.083288 0.28125,1.59375 L 2.5,8.40625 7.875,8.5 c 1.547138,1.23217 3.716504,2 6.125,2 4.692,0 8.500001,-2.912 8.5,-6.5000003 C 22.5,0.4120001 18.692,-2.5000001 14,-2.5 z" color="#000" display="inline" enable-background="accumulate" overflow="visible" visibility="visible" style="marker:none"/><path id="path3811" fill="none" stroke="url(#linearGradient3750)" stroke-dasharray="none" stroke-dashoffset="0" stroke-linecap="round" stroke-linejoin="round" stroke-miterlimit="4" stroke-opacity="1" stroke-width="1" d="m 14,-1.53125 c 2.143173,0 4.058764,0.6883198 5.40625,1.71875 1.347486,1.03043 2.125,2.3653457 2.125,3.8124997 0,1.447153 -0.777514,2.78207 -2.125,3.8125003 C 18.058764,8.84293 16.143173,9.53125 14,9.53125 c -2.200123,0 -4.146962,-0.734915 -5.5,-1.8125 A 0.98052209,0.98052209 0 0 0 7.90625,7.53125 l -2.8125,-0.0625 1.3125,-1.1250003 a 0.98052209,0.98052209 0 0 0 0.3125,-1.0625 c -0.145656,-0.440932 -0.25,-0.864673 -0.25,-1.28125 0,-1.447153 0.777514,-2.7820697 2.125,-3.8124997 C 9.941236,-0.8429302 11.856827,-1.53125 14,-1.53125 z" color="#000" display="inline" enable-background="accumulate" opacity=".4" overflow="visible" visibility="visible" style="marker:none"/><path id="path2262" fill="url(#radialGradient3745)" fill-opacity="1" fill-rule="nonzero" stroke="url(#linearGradient3747)" stroke-dasharray="none" stroke-dashoffset="0" stroke-linecap="round" stroke-linejoin="round" stroke-miterlimit="4" stroke-opacity="1" stroke-width=".985" d="m 15.482179,7.507295 0,-3.0000003 4,0 0,3.0000003 3,0 0,4 -3,0 0,2.999991 -4,0 0,-2.999991 -2.989465,0 0,-4 2.989465,0 z" color="#000" display="inline" enable-background="accumulate" overflow="visible" visibility="visible" style="marker:none"/><path id="path2272" fill="none" stroke="url(#linearGradient3742)" stroke-dasharray="none" stroke-linecap="butt" stroke-linejoin="miter" stroke-miterlimit="4" stroke-opacity="1" stroke-width="1" d="m 16.482179,8.507295 0,-3.0000003 2,0 0,3.0000003 3,0 0,2 -3,0 0,3 -2,0 0,-3 -3,0 0,-2 3,0 z" display="inline" opacity=".4"/></g></svg>