<svg xmlns="http://www.w3.org/2000/svg" xmlns:svg="http://www.w3.org/2000/svg" xmlns:xlink="http://www.w3.org/1999/xlink" id="svg2" width="24" height="24" version="1.0"><defs id="defs4"><linearGradient id="linearGradient2886" x1="44.995" x2="3.005" y1="17.5" y2="17.5" gradientTransform="matrix(0.5123229,0,0,0.4997434,-0.2958069,-0.2455087)" gradientUnits="userSpaceOnUse" spreadMethod="reflect" xlink:href="#linearGradient3275"/><linearGradient id="linearGradient3275"><stop id="stop3277" offset="0" stop-color="#fff" stop-opacity="0"/><stop id="stop3283" offset=".245" stop-color="#fff" stop-opacity="1"/><stop id="stop3285" offset=".774" stop-color="#fff" stop-opacity="1"/><stop id="stop3279" offset="1" stop-color="#fff" stop-opacity="0"/></linearGradient><linearGradient id="linearGradient2889" x1="26" x2="26" y1="22" y2="8" gradientTransform="matrix(0.5,0,0,0.5714285,1.0587409e-6,-1.5714267)" gradientUnits="userSpaceOnUse" xlink:href="#linearGradient2929"/><linearGradient id="linearGradient2929"><stop id="stop2931" offset="0" stop-color="#fff" stop-opacity="1"/><stop id="stop2933" offset=".271" stop-color="#fff" stop-opacity="1"/><stop id="stop2935" offset=".39" stop-color="#fff" stop-opacity=".69"/><stop id="stop2937" offset="1" stop-color="#fff" stop-opacity="0"/></linearGradient><linearGradient id="linearGradient2892" x1="23.452" x2="43.007" y1="30.555" y2="45.934" gradientTransform="matrix(0.6568374,0,0,0.5870422,-3.4028653,-3.3874657)" gradientUnits="userSpaceOnUse" xlink:href="#linearGradient4559"/><linearGradient id="linearGradient4559"><stop id="stop4561" offset="0" stop-color="#fff" stop-opacity="0"/><stop id="stop4563" offset="1" stop-color="#fff" stop-opacity="0"/></linearGradient><linearGradient id="linearGradient2895" x1="24.823" x2="24.997" y1="15.378" y2="37.277" gradientTransform="matrix(0.6568374,0,0,0.7782314,-3.4038718,-8.378696)" gradientUnits="userSpaceOnUse" xlink:href="#linearGradient2919"/><linearGradient id="linearGradient2919"><stop id="stop2921" offset="0" stop-color="#dac197" stop-opacity="1"/><stop id="stop2923" offset=".261" stop-color="#c1a581" stop-opacity="1"/><stop id="stop2925" offset=".316" stop-color="#dbc298" stop-opacity="1"/><stop id="stop2927" offset="1" stop-color="#a68b60" stop-opacity="1"/></linearGradient><linearGradient id="linearGradient2897" x1="15.464" x2="15.464" y1="7.976" y2="45.042" gradientTransform="matrix(0.5122637,0,0,0.4997434,-0.2943328,-0.7372407)" gradientUnits="userSpaceOnUse" xlink:href="#linearGradient2909"/><linearGradient id="linearGradient2909"><stop id="stop2911" offset="0" stop-color="#c9af8b" stop-opacity="1"/><stop id="stop2913" offset=".249" stop-color="#ad8757" stop-opacity="1"/><stop id="stop2915" offset=".312" stop-color="#c2a57f" stop-opacity="1"/><stop id="stop2917" offset="1" stop-color="#9d7d53" stop-opacity="1"/></linearGradient><radialGradient id="radialGradient2903" cx="5" cy="41.5" r="5" fx="5" fy="41.5" gradientTransform="matrix(0.5938225,0,0,1.5366531,-6.6594735,-103.93618)" gradientUnits="userSpaceOnUse" xlink:href="#linearGradient3681"/><linearGradient id="linearGradient3681"><stop id="stop3683" offset="0" stop-color="#000" stop-opacity="1"/><stop id="stop3685" offset="1" stop-color="#000" stop-opacity="0"/></linearGradient><linearGradient id="linearGradient2905" x1="17.554" x2="17.554" y1="46" y2="35" gradientTransform="matrix(1.7570316,0,0,1.3969574,-17.394014,-16.411698)" gradientUnits="userSpaceOnUse" xlink:href="#linearGradient3703"/><linearGradient id="linearGradient3703"><stop id="stop3705" offset="0" stop-color="#000" stop-opacity="0"/><stop id="stop3711" offset=".5" stop-color="#000" stop-opacity="1"/><stop id="stop3707" offset="1" stop-color="#000" stop-opacity="0"/></linearGradient><radialGradient id="radialGradient3003" cx="5" cy="41.5" r="5" fx="5" fy="41.5" gradientTransform="matrix(0.5938225,0,0,1.5366531,41.140892,-103.93618)" gradientUnits="userSpaceOnUse" xlink:href="#linearGradient3681"/><filter id="filter3407"><feGaussianBlur id="feGaussianBlur3409" stdDeviation=".827"/></filter><linearGradient id="linearGradient2629" x1="32.128" x2="35.021" y1="13.789" y2="13.789" gradientTransform="translate(-19.532826,1.7437184)" gradientUnits="userSpaceOnUse" xlink:href="#linearGradient6227"/><linearGradient id="linearGradient6227"><stop id="stop6229" offset="0" stop-color="#000" stop-opacity="1"/><stop id="stop6231" offset="1" stop-color="#000" stop-opacity="0"/></linearGradient><filter id="filter6251" width="1.485" height="1.095" x="-.242" y="-.048"><feGaussianBlur id="feGaussianBlur6253" stdDeviation=".244"/></filter><linearGradient id="linearGradient2631" x1="35.005" x2="33.004" y1="14.85" y2="14.85" gradientTransform="translate(1.6824037,1.125)" gradientUnits="userSpaceOnUse" xlink:href="#linearGradient6227"/><linearGradient id="linearGradient2608" x1="10.651" x2="27.192" y1="2.914" y2="17.47" gradientTransform="matrix(0.2606375,0,0,0.3148868,1.7267638,-1.0477761)" gradientUnits="userSpaceOnUse" xlink:href="#linearGradient10591"/><linearGradient id="linearGradient10591"><stop id="stop10593" offset="0" stop-color="#cad0c6" stop-opacity="1"/><stop id="stop10599" offset=".5" stop-color="#eaece9" stop-opacity="1"/><stop id="stop10595" offset="1" stop-color="#c5cbc0" stop-opacity="1"/></linearGradient><linearGradient id="linearGradient2618" x1="21.942" x2="21.942" y1="21.551" y2="18.038" gradientTransform="matrix(0.2727273,0,0,0.2515932,1.4545456,3.0971183)" gradientUnits="userSpaceOnUse" xlink:href="#linearGradient12071"/><linearGradient id="linearGradient12071"><stop id="stop12073" offset="0" stop-color="#fff" stop-opacity="1"/><stop id="stop12075" offset="1" stop-color="#fff" stop-opacity="0"/></linearGradient><linearGradient id="linearGradient2621" x1="24.875" x2="24.75" y1="21" y2="17" gradientTransform="matrix(0.2941176,0,0,0.6056132,0.9411765,-3.8915329)" gradientUnits="userSpaceOnUse" xlink:href="#linearGradient5881"/><linearGradient id="linearGradient5881"><stop id="stop5883" offset="0" stop-color="#d6c8a7" stop-opacity="1"/><stop id="stop5885" offset="1" stop-color="#d0bd99" stop-opacity="1"/></linearGradient><linearGradient id="linearGradient2624" x1="10.907" x2="30.875" y1="25.002" y2="36.127" gradientTransform="matrix(0.2724775,0,0,0.33859,1.4645347,-0.4954112)" gradientUnits="userSpaceOnUse" xlink:href="#linearGradient9845"/><linearGradient id="linearGradient9845"><stop id="stop9847" offset="0" stop-color="#fff" stop-opacity="1"/><stop id="stop9849" offset="1" stop-color="#fff" stop-opacity=".495"/></linearGradient><linearGradient id="linearGradient2627" x1="6.727" x2="40.938" y1="32.162" y2="32.162" gradientTransform="matrix(0.3143416,0,0,0.3778382,0.456779,-2.0038484)" gradientUnits="userSpaceOnUse" xlink:href="#linearGradient2411"/><linearGradient id="linearGradient2411"><stop id="stop2413" offset="0" stop-color="#fee7b1" stop-opacity="1"/><stop id="stop2419" offset=".258" stop-color="#ebd4b4" stop-opacity="1"/><stop id="stop2421" offset=".508" stop-color="#c8a775" stop-opacity="1"/><stop id="stop2423" offset=".74" stop-color="#b0935b" stop-opacity="1"/><stop id="stop2415" offset="1" stop-color="#fcebbf" stop-opacity="1"/></linearGradient></defs><g id="layer1"><g id="g3305" display="inline" opacity=".4" transform="matrix(0.5179108,0,0,0.4555355,-0.3781617,2.2033833)"><rect id="rect2484" width="2.96" height="15.367" x="-3.69" y="-47.848" fill="url(#radialGradient2903)" fill-opacity="1" stroke="none" transform="scale(-1,-1)"/><rect id="rect2486" width="40.412" height="15.367" x="3.69" y="32.482" fill="url(#linearGradient2905)" fill-opacity="1" stroke="none"/><rect id="rect3444" width="2.96" height="15.367" x="44.11" y="-47.848" fill="url(#radialGradient3003)" fill-opacity="1" stroke="none" display="inline" transform="scale(1,-1)"/></g><path id="path2488" fill="url(#linearGradient2895)" fill-opacity="1" fill-rule="nonzero" stroke="url(#linearGradient2897)" stroke-dasharray="none" stroke-dashoffset="0" stroke-linecap="round" stroke-linejoin="miter" stroke-miterlimit="4" stroke-opacity="1" stroke-width=".994" d="M 4.3215344,3.5105773 L 19.432145,3.5105773 C 20.314256,3.5105773 20.711228,3.3673773 20.964609,4.0103213 L 22.502289,8.5000003 L 22.502289,20.838636 C 22.502289,21.61489 22.555019,21.496287 21.672903,21.496287 L 2.3270889,21.496287 C 1.4449747,21.496287 1.4977016,21.61489 1.4977016,20.838636 L 1.4977016,8.5000003 L 3.0353812,4.0103213 C 3.2816937,3.3803633 3.4394202,3.5105773 4.3215344,3.5105773 L 4.3215344,3.5105773 z" display="block" overflow="visible" visibility="visible" style="marker:none"/><path id="path2490" fill="none" stroke="url(#linearGradient2892)" stroke-dasharray="none" stroke-dashoffset="0" stroke-linecap="butt" stroke-linejoin="miter" stroke-miterlimit="4" stroke-opacity="1" stroke-width=".742" d="M 4.8027725,4.0167913 L 18.968333,4.0167913 C 19.795277,4.0167913 20.307074,4.2949153 20.653435,5.0592713 L 21.846468,8.2674833 L 21.846468,19.833823 C 21.846468,20.563785 21.427047,20.931301 20.600102,20.931301 L 3.3198068,20.931301 C 2.4928628,20.931301 2.155546,20.527096 2.155546,19.797131 L 2.155546,8.2674833 L 3.3100916,4.9904863 C 3.5410007,4.3980933 3.9758263,4.0167913 4.8027725,4.0167913 L 4.8027725,4.0167913 z" display="block" opacity=".505" overflow="visible" visibility="visible" style="marker:none"/><path id="rect3326" fill="url(#linearGradient2889)" fill-opacity="1" fill-rule="nonzero" stroke="none" stroke-width="1" d="M 11,3.0000003 C 11.666667,3.0000003 12.333333,3.0000003 13,3.0000003 C 13,5.6666653 13,8.3333343 13,11 C 12.803135,11 12.60627,11 12.409407,11 C 12.207844,11 12.006281,11 11.804719,11 C 11.642454,11 11.480189,11 11.317927,11 C 11.21195,11 11.105975,11 11,11 C 11,8.3333343 11,5.6666653 11,3.0000003 z" display="inline" enable-background="accumulate" opacity=".4" overflow="visible" visibility="visible" style="marker:none"/><path id="path3273" fill="none" stroke="url(#linearGradient2886)" stroke-linecap="square" stroke-linejoin="miter" stroke-opacity="1" stroke-width="1" d="M 1.5,8.5000003 L 22.499885,8.5000003" display="inline" opacity=".4"/></g><g id="g2510" transform="translate(10,8.0000066)"><path id="rect1314" fill="url(#linearGradient2627)" fill-opacity="1" fill-rule="evenodd" stroke="#a2824e" stroke-dashoffset="0" stroke-linecap="round" stroke-linejoin="round" stroke-miterlimit="4" stroke-opacity="1" stroke-width="1" d="M 3.2025454,5.8345004 C 6.3716587,5.351809 9.5744922,5.426745 12.797452,5.8345004 C 13.186665,5.8345004 13.5,6.1834834 13.5,6.6169756 L 13.5,14.415585 C 13.5,14.849076 13.166442,15.135358 12.797452,15.198059 C 9.4559991,15.602232 6.5909279,15.599042 3.2025454,15.198059 C 2.7526678,15.051755 2.4999997,14.849076 2.4999997,14.415585 L 2.4999997,6.6169756 C 2.4999997,6.1834834 2.8133351,5.8345004 3.2025454,5.8345004 z"/><path id="rect6903" fill="none" fill-opacity="1" fill-rule="evenodd" stroke="url(#linearGradient2624)" stroke-dashoffset="0" stroke-linecap="round" stroke-linejoin="round" stroke-miterlimit="4" stroke-opacity=".601" stroke-width="1" d="M 3.8514026,6.5 L 12.148596,6.5 C 12.343274,6.5 12.5,6.6775695 12.5,6.8981361 L 12.5,13.828699 C 12.5,14.049266 12.360849,14.151094 12.148596,14.226834 C 9.4355939,14.591476 6.7577412,14.590634 3.8514026,14.226834 C 3.6567255,14.151094 3.5000002,14.049266 3.5000002,13.828699 L 3.5000002,6.8981361 C 3.5000002,6.6775695 3.6567255,6.5 3.8514026,6.5 z" opacity=".38"/><path id="rect1460" fill="url(#linearGradient2621)" fill-opacity="1" fill-rule="evenodd" stroke="none" stroke-dashoffset="0" stroke-linecap="round" stroke-linejoin="round" stroke-miterlimit="4" stroke-opacity="1" stroke-width="2" marker-end="none" marker-mid="none" marker-start="none" d="M 3.4871432,6.4038898 C 6.4957135,5.8141254 9.5042845,5.9191701 12.512854,6.4038898 C 12.782733,6.4038898 13,6.693392 13,7.0529961 L 13,8.1772364 C 13,8.5368417 12.782733,8.8263427 12.512854,8.8263427 C 9.3732339,9.1049648 6.484507,9.0055284 3.4871432,8.8263427 C 3.2172657,8.8263427 3,8.5368417 3,8.1772364 L 3,7.0529961 C 3,6.693392 3.2172657,6.4038898 3.4871432,6.4038898 z" display="inline" overflow="visible" visibility="visible" style="marker:none"/><path id="rect1593" fill="none" fill-opacity="1" fill-rule="evenodd" stroke="url(#linearGradient2618)" stroke-dashoffset="0" stroke-linecap="round" stroke-linejoin="round" stroke-miterlimit="4" stroke-opacity="1" stroke-width="1" marker-end="none" marker-mid="none" marker-start="none" d="M 3.8273257,7.4999997 L 12.172674,7.4999997 C 12.354013,7.4999997 12.5,7.629297 12.5,7.7899008 L 12.5,7.9648851 C 12.5,8.1254873 12.354013,8.2547832 12.172674,8.2547832 C 9.4168513,8.5719615 6.6298976,8.5913712 3.8273257,8.2547832 C 3.645987,8.2547832 3.5000001,8.1254873 3.5000001,7.9648851 L 3.5000001,7.7899008 C 3.5000001,7.629297 3.645987,7.4999997 3.8273257,7.4999997 z" display="inline" opacity=".6" overflow="visible" visibility="visible" style="marker:none"/><path id="path2086" fill="url(#linearGradient2608)" fill-opacity="1" fill-rule="evenodd" stroke="#888a85" stroke-dasharray="none" stroke-linecap="butt" stroke-linejoin="miter" stroke-miterlimit="4" stroke-opacity="1" stroke-width="1" d="M 4.4999998,5.9304706 L 4.4999998,4.1246426 C 4.4999998,1.6464415 5.8702783,0.469124 7.9872863,0.50007261 C 10.115811,0.53102133 11.500672,1.6172868 11.500672,4.1246426 L 11.500672,6.0091926 C 11.500672,6.6245531 10.06959,6.7028727 10.06959,6.0091926 L 10.06959,4.7544171 C 10.06959,4.1246426 10.217749,2.0867417 8.0021983,2.0867417 C 5.8049151,2.0867417 5.9650154,4.137202 5.9735354,4.7519066 L 5.9735354,5.9410747 C 5.9735354,6.6825145 4.4999998,6.6793616 4.4999998,5.9304706 z"/><path id="rect1345" fill="url(#linearGradient2631)" fill-opacity="1" fill-rule="evenodd" stroke="none" stroke-dashoffset="0" stroke-linecap="round" stroke-linejoin="round" stroke-miterlimit="4" stroke-opacity="1" stroke-width="1" d="M 34.687087,10.837069 L 35.951035,10.962069 C 36.878274,13.784802 36.687087,20.472482 36.687087,20.472482 C 36.624587,21.597482 34.655837,21.003732 34.687087,20.472482 L 34.687087,10.837069 z" filter="url(#filter6251)" opacity=".182" transform="matrix(0.2606375,0,0,0.3148869,1.7267636,-0.4412164)"/><path id="path6332" fill="url(#linearGradient2629)" fill-opacity="1" fill-rule="evenodd" stroke="none" stroke-dashoffset="0" stroke-linecap="round" stroke-linejoin="round" stroke-miterlimit="4" stroke-opacity="1" stroke-width="1" d="M 12.926606,11.544175 L 13.298325,11.71337 C 15.018656,12.768336 15.471857,21.0912 15.471857,21.0912 C 15.409357,22.2162 13.440607,21.62245 13.471857,21.0912 C 13.471857,21.0912 13.850077,14.22056 12.926606,11.544175 z" filter="url(#filter6251)" opacity=".141" transform="matrix(-0.2606375,0,0,0.3148869,9.3005723,-0.6360427)"/><path marker-end="none" style="marker:none" id="path3411" fill="none" fill-opacity="1" fill-rule="evenodd" stroke="#fff" stroke-dasharray="none" stroke-dashoffset="0" stroke-linecap="round" stroke-linejoin="miter" stroke-miterlimit="4" stroke-opacity="1" stroke-width="6.592" marker-mid="none" marker-start="none" d="M 31.84375,17.125 C 31.840796,15.012024 31.849758,12.898928 31.839085,10.78603 C 31.804864,9.1752941 31.296169,7.5407729 30.226768,6.3133656 C 28.87195,4.7291294 26.848173,3.8507901 24.812968,3.5710963 C 24.326293,3.503818 23.835045,3.4697581 23.34375,3.46875 C 21.26875,3.474327 19.148809,4.0109089 17.44326,5.2230877 C 16.260787,6.0592338 15.332445,7.2946513 15.011924,8.7207968 C 14.788648,9.6242213 14.854617,10.559561 14.820044,11.48111 C 14.786279,13.279073 14.752515,15.077037 14.71875,16.875" display="inline" enable-background="accumulate" filter="url(#filter3407)" opacity=".624" overflow="visible" transform="matrix(0.292332,0,0,0.3148869,0.9830082,0.3129125)" visibility="visible"/></g></svg>