<svg xmlns="http://www.w3.org/2000/svg" xmlns:svg="http://www.w3.org/2000/svg" xmlns:xlink="http://www.w3.org/1999/xlink" id="svg3894" width="24" height="24" version="1.0"><defs id="defs3896"><linearGradient id="linearGradient3587-6-5"><stop id="stop3589-9-2" offset="0" stop-color="#000" stop-opacity="1"/><stop id="stop3591-7-4" offset="1" stop-color="#363636" stop-opacity="1"/></linearGradient><linearGradient id="linearGradient3892" x1="-11.032" x2="-11.032" y1="7.181" y2="18.182" gradientTransform="matrix(-1,0,0,1,7.4207958e-2,-1.1818178)" gradientUnits="userSpaceOnUse" xlink:href="#linearGradient3587-6-5"/></defs><g id="layer1"><path id="path3888" fill="#fff" fill-opacity="1" fill-rule="evenodd" stroke="none" stroke-dasharray="none" stroke-dashoffset="0" stroke-linecap="butt" stroke-linejoin="miter" stroke-miterlimit="4" stroke-opacity="1" stroke-width="1" marker-end="none" marker-mid="none" marker-start="none" d="M 2.006131,7 C 1.992687,10.84584 2.005443,14.047563 2.006131,18 L 4.006131,18 L 4.006131,12.5 L 13.006131,18 L 13.006131,12.5 L 22.006131,18 L 22.006131,7 L 13.006131,12.5 L 13.006131,7 L 4.006131,12.5 C 4.006973,10.636574 4.006131,8.7418973 4.006131,7 L 2.006131,7 z" display="inline" enable-background="accumulate" opacity=".6" overflow="visible" visibility="visible" style="marker:none"/><path id="path3375" fill="url(#linearGradient3892)" fill-opacity="1" fill-rule="evenodd" stroke="none" stroke-dasharray="none" stroke-dashoffset="0" stroke-linecap="butt" stroke-linejoin="miter" stroke-miterlimit="4" stroke-opacity="1" stroke-width="1" marker-end="none" marker-mid="none" marker-start="none" d="M 2.006131,6 C 1.992687,9.8458404 2.005443,13.047563 2.006131,17 L 4.006131,17 L 4.006131,11.5 L 13.006131,17 L 13.006131,11.5 L 22.006131,17 L 22.006131,6 L 13.006131,11.5 L 13.006131,6 L 4.006131,11.5 C 4.006973,9.6365737 4.006131,7.7418973 4.006131,6 L 2.006131,6 z" display="inline" enable-background="accumulate" opacity=".7" overflow="visible" visibility="visible" style="marker:none"/></g></svg>