<svg xmlns="http://www.w3.org/2000/svg" xmlns:svg="http://www.w3.org/2000/svg" xmlns:xlink="http://www.w3.org/1999/xlink" id="svg3349" width="24" height="24" version="1.0"><defs id="defs3351"><linearGradient id="linearGradient3319-940"><stop id="stop2623" offset="0" stop-color="#fff" stop-opacity="0"/><stop id="stop2625" offset=".631" stop-color="#fff" stop-opacity=".275"/><stop id="stop2627" offset="1" stop-color="#fff" stop-opacity="0"/></linearGradient><linearGradient id="linearGradient2494-614" x1="28.117" x2="39.686" y1="41.674" y2="28.505" gradientTransform="matrix(0.4865175,2.9279582e-2,-2.8724737e-2,0.4772959,1.2842788,1.9626372)" gradientUnits="userSpaceOnUse" xlink:href="#linearGradient3319-940"/><linearGradient id="linearGradient2508-60"><stop id="stop2599" offset="0" stop-color="#ce81bd" stop-opacity="1"/><stop id="stop2601" offset="1" stop-color="#a452a9" stop-opacity="1"/></linearGradient><linearGradient id="linearGradient2505-174" x1="20.137" x2="16.597" y1="4.476" y2="17.943" gradientTransform="matrix(0.3446423,-0.3446422,0.3381098,0.3381098,-3.8821968,14.32142)" gradientUnits="userSpaceOnUse" xlink:href="#linearGradient2508-60"/><radialGradient id="radialGradient3400-552" cx="62.625" cy="4.625" r="10.625" fx="62.625" fy="4.625" gradientTransform="matrix(1,0,0,0.341176,0,3.047059)" gradientUnits="userSpaceOnUse" xlink:href="#linearGradient8838-634"/><linearGradient id="linearGradient8838-634"><stop id="stop2746" offset="0" stop-color="#000" stop-opacity="1"/><stop id="stop2748" offset="1" stop-color="#000" stop-opacity="0"/></linearGradient><linearGradient id="linearGradient3402-693" x1="20.137" x2="16.597" y1="4.476" y2="17.943" gradientTransform="matrix(0.3446423,-0.3446422,0.3381098,0.3381098,0.1178032,10.322607)" gradientUnits="userSpaceOnUse" xlink:href="#linearGradient3533-867"/><linearGradient id="linearGradient3533-867"><stop id="stop2752" offset="0" stop-color="#d1b0e6" stop-opacity="1"/><stop id="stop2754" offset="1" stop-color="#b483d5" stop-opacity="1"/></linearGradient><linearGradient id="linearGradient3404-708" x1="31.226" x2="34.966" y1="34.601" y2="26.843" gradientTransform="matrix(0.5097808,3.0679686e-2,-3.0098127e-2,0.5001183,5.2256066,-3.4926097)" gradientUnits="userSpaceOnUse" xlink:href="#linearGradient3276-54"/><linearGradient id="linearGradient3276-54"><stop id="stop2758" offset="0" stop-color="#b483d5" stop-opacity="1"/><stop id="stop2760" offset="1" stop-color="#b483d5" stop-opacity="0"/></linearGradient><linearGradient id="linearGradient3406-498" x1="33.687" x2="37.04" y1="35.774" y2="29.857" gradientTransform="matrix(0.5097808,3.0679686e-2,-3.0098127e-2,0.5001183,5.2256066,-3.4926097)" gradientUnits="userSpaceOnUse" xlink:href="#linearGradient3266-587"/><linearGradient id="linearGradient3266-587"><stop id="stop2764" offset="0" stop-color="#9853c6" stop-opacity="1"/><stop id="stop2766" offset="1" stop-color="#903fc4" stop-opacity="0"/></linearGradient><linearGradient id="linearGradient3408-109" x1="32.326" x2="22.245" y1="5.02" y2="43.366" gradientTransform="matrix(0.3446423,-0.3446422,0.3381098,0.3381098,0.1178032,10.322607)" gradientUnits="userSpaceOnUse" xlink:href="#linearGradient4873-523"/><linearGradient id="linearGradient4873-523"><stop id="stop2770" offset="0" stop-color="#fff" stop-opacity="1"/><stop id="stop2772" offset="1" stop-color="#fff" stop-opacity="0"/></linearGradient><linearGradient id="linearGradient3410-460" x1="28.117" x2="39.686" y1="41.674" y2="28.505" gradientTransform="matrix(0.4865175,2.9279582e-2,-2.8724737e-2,0.4772959,5.2842788,-2.0361756)" gradientUnits="userSpaceOnUse" xlink:href="#linearGradient3319-458"/><linearGradient id="linearGradient3319-458"><stop id="stop2776" offset="0" stop-color="#fff" stop-opacity="0"/><stop id="stop2778" offset=".631" stop-color="#fff" stop-opacity=".275"/><stop id="stop2780" offset="1" stop-color="#fff" stop-opacity="0"/></linearGradient></defs><g id="layer1"><g id="g3391" transform="matrix(-1,0,0,1,28,3.9988128)"><path id="path8836" fill="url(#radialGradient3400-552)" fill-opacity="1" fill-rule="evenodd" stroke="none" stroke-dasharray="none" stroke-dashoffset="0" stroke-linecap="butt" stroke-linejoin="round" stroke-miterlimit="4" stroke-opacity="1" stroke-width="1" marker-end="none" marker-mid="none" marker-start="none" d="M 73.25,4.625 A 10.625,3.625 0 1 1 52,4.625 A 10.625,3.625 0 1 1 73.25,4.625 z" display="inline" opacity=".4" overflow="visible" transform="matrix(1.0352941,0,0,1.2413793,-49.028857,9.759808)" visibility="visible" style="marker:none"/><path id="path3372" fill="url(#linearGradient3402-693)" fill-opacity="1" stroke="#9853c6" stroke-dasharray="none" stroke-linecap="butt" stroke-linejoin="round" stroke-miterlimit="4" stroke-opacity="1" stroke-width="1.005" d="M 16.301845,14.817779 C 15.173117,14.883646 13.442793,14.474646 12.395729,13.427583 C 10.647896,11.67975 10.236906,7.540427 12.377849,5.4649683 C 13.244713,4.6246194 15.303356,3.5340581 16.496692,3.501187 L 16.509636,6.5011872 L 22.606793,1.691903 C 22.606793,1.691903 16.509636,-3.4988135 16.509636,-3.4988135 L 16.495596,-0.67624165 C 13.865492,-0.62810325 11.374282,0.24340145 9.3765673,2.1984338 C 5.3125823,6.175589 5.3191067,12.595314 9.2015404,16.566649 C 11.186992,18.597564 13.787686,19.565804 16.398642,19.495217"/><path id="path3453" fill="url(#linearGradient3404-708)" fill-opacity="1" stroke="url(#linearGradient3406-498)" stroke-dasharray="none" stroke-linecap="butt" stroke-linejoin="miter" stroke-miterlimit="4" stroke-opacity="1" stroke-width="1.005" d="M 15.945075,19.464053 C 20.68811,19.800933 26.325469,16.504506 26.69119,10.285177 L 22.322343,10.861098 C 22.077144,13.392362 18.443137,15.177413 16.248644,14.867427"/><path id="path3370" fill="none" fill-opacity="1" stroke="url(#linearGradient3408-109)" stroke-dasharray="none" stroke-linecap="butt" stroke-linejoin="miter" stroke-miterlimit="4" stroke-opacity="1" stroke-width="1.005" d="M 16.308423,15.967233 C 14.861952,15.980137 12.823826,15.25788 11.7204,14.166468 C 9.1415301,11.612109 9.3111441,6.799345 11.690556,4.6070794 C 12.69464,3.6819691 14.249773,2.5583333 17.5,2.5583333 L 17.5,4.4843873 L 21.19258,1.691903 C 21.19258,1.691903 17.5,-1.4324867 17.5,-1.4324867 L 17.5,0.41157025 C 14.821186,0.29095915 12.022415,0.96257255 10.021559,2.9634285 C 6.344991,6.639997 6.5515194,12.506687 9.9443421,15.89951 C 12.092186,18.047353 14.345166,18.625044 16.390128,18.471852" opacity=".4"/><path id="path2557" fill="none" fill-opacity="1" stroke="url(#linearGradient3410-460)" stroke-dasharray="none" stroke-linecap="butt" stroke-linejoin="round" stroke-miterlimit="4" stroke-opacity="1" stroke-width="1.005" d="M 16.846488,18.344994 C 19.517962,18.511192 25.224893,16.280528 25.588752,10.234542 L 24.054468,9.948019 C 23.882096,12.812164 19.774589,15.933848 16.668047,15.999791"/><rect id="rect3290" width="3.709" height="1.229" x="14.728" y="16.385" fill="#b483d5" fill-opacity="1" stroke="none" stroke-dasharray="none" stroke-dashoffset="0" stroke-linecap="butt" stroke-linejoin="miter" stroke-miterlimit="4" stroke-opacity="1" stroke-width="1" opacity="1"/><path id="path3347" fill="#bb8dd9" fill-opacity="1" stroke="#9853c6" stroke-dasharray="none" stroke-dashoffset="0" stroke-linecap="round" stroke-linejoin="round" stroke-miterlimit="4" stroke-opacity="1" stroke-width="1" d="M 13.751634,13.915468 A 1.1787115,1.1787115 0 1 1 11.394211,13.915468 A 1.1787115,1.1787115 0 1 1 13.751634,13.915468 z" opacity="1" transform="translate(3.9122268,-4.0929927)"/></g></g></svg>