<svg xmlns="http://www.w3.org/2000/svg" xmlns:svg="http://www.w3.org/2000/svg" xmlns:xlink="http://www.w3.org/1999/xlink" id="svg3365" width="24" height="24" version="1.0"><defs id="defs3367"><linearGradient id="linearGradient8838"><stop id="stop8840" offset="0" stop-color="#000" stop-opacity="1"/><stop id="stop8842" offset="1" stop-color="#000" stop-opacity="0"/></linearGradient><radialGradient id="radialGradient2436" cx="62.625" cy="4.625" r="10.625" fx="62.625" fy="4.625" gradientTransform="matrix(1.1294118,0,0,0.2823525,-58.729414,19.694118)" gradientUnits="userSpaceOnUse" xlink:href="#linearGradient8838"/><linearGradient id="linearGradient3334-995-903-143-677-209-356-728"><stop id="stop5026" offset="0" stop-color="gray" stop-opacity="1"/><stop id="stop5028" offset=".873" stop-color="#6d6d6d" stop-opacity="1"/><stop id="stop5030" offset="1" stop-color="#4f5053" stop-opacity="1"/></linearGradient><linearGradient id="linearGradient2433" x1="12.963" x2="12.963" y1="2.684" y2="45.326" gradientTransform="matrix(0.5160413,0,0,0.5160413,-0.384991,-0.3849911)" gradientUnits="userSpaceOnUse" xlink:href="#linearGradient3334-995-903-143-677-209-356-728"/><linearGradient id="linearGradient3268"><stop id="stop3270" offset="0" stop-color="#fff" stop-opacity="1"/><stop id="stop3272" offset="1" stop-color="#cdcdcd" stop-opacity="1"/></linearGradient><linearGradient id="linearGradient3227"><stop id="stop3229" offset="0" stop-color="#4d4d4d" stop-opacity="1"/><stop id="stop3231" offset="1" stop-color="#333" stop-opacity="1"/></linearGradient><linearGradient id="linearGradient3354" x1="56.323" x2="72.452" y1="25.883" y2="25.883" gradientTransform="translate(-52.626503,-11.909638)" gradientUnits="userSpaceOnUse" xlink:href="#linearGradient3227"/><linearGradient id="linearGradient3356"><stop id="stop3358" offset="0" stop-color="gray" stop-opacity="1"/><stop id="stop3360" offset=".546" stop-color="#6d6d6d" stop-opacity="1"/><stop id="stop3362" offset="1" stop-color="#4f5053" stop-opacity="1"/></linearGradient><linearGradient id="linearGradient3352" x1="3.697" x2="19.821" y1="16.723" y2="16.723" gradientUnits="userSpaceOnUse" xlink:href="#linearGradient3356"/><linearGradient id="linearGradient4873"><stop id="stop4875" offset="0" stop-color="#fff" stop-opacity="1"/><stop id="stop4877" offset="1" stop-color="#fff" stop-opacity="0"/></linearGradient><linearGradient id="linearGradient2428" x1="63.397" x2="63.397" y1="-12.489" y2="5.468" gradientTransform="matrix(1.0862728,0,0,1.0862481,-55.56661,15.813638)" gradientUnits="userSpaceOnUse" xlink:href="#linearGradient4873"/><linearGradient id="linearGradient3914" x1="17.61" x2="17.61" y1="1" y2="23.063" gradientUnits="userSpaceOnUse" xlink:href="#linearGradient3268"/></defs><g id="layer1"><path id="path8836" fill="url(#radialGradient2436)" fill-opacity="1" fill-rule="evenodd" stroke="none" stroke-dasharray="none" stroke-dashoffset="0" stroke-linecap="butt" stroke-linejoin="round" stroke-miterlimit="4" stroke-opacity="1" stroke-width="1" marker-end="none" marker-mid="none" marker-start="none" d="M 24,21 C 24,22.656854 18.627417,24 12,24 C 5.3725828,24 -2.5e-07,22.656854 -2.5e-07,21 C -2.5e-07,19.343146 5.3725828,18 12,18 C 18.627417,18 24,19.343146 24,21 L 24,21 z" display="inline" opacity=".3" overflow="visible" visibility="visible" style="marker:none"/><path id="path2555" fill="url(#linearGradient3914)" fill-opacity="1" stroke="url(#linearGradient2433)" stroke-dasharray="none" stroke-dashoffset="0" stroke-linecap="round" stroke-linejoin="round" stroke-miterlimit="4" stroke-opacity="1" stroke-width="1.004" d="M 12.000002,1.501785 C 6.207449,1.501785 1.501785,6.2074466 1.501785,11.999999 C 1.501785,17.792553 6.207449,22.498218 12.000002,22.498215 C 17.792552,22.498215 22.498221,17.792553 22.498215,11.999999 C 22.498215,6.2074466 17.792552,1.501785 12.000002,1.501785 z"/><path stroke-width=".743" style="marker:none" id="path3314" fill="url(#linearGradient3352)" fill-opacity="1" fill-rule="nonzero" stroke="url(#linearGradient3354)" stroke-dasharray="none" stroke-dashoffset="0" stroke-linecap="butt" stroke-linejoin="miter" stroke-miterlimit="4" stroke-opacity="1" marker-end="none" marker-mid="none" marker-start="none" d="M 19.373494,12.915663 A 7.6144576,7.6144576 0 1 1 4.1445785,12.915662 L 11.759036,12.915663 z" display="inline" enable-background="accumulate" opacity="1" overflow="visible" transform="matrix(0,1.3789557,-1.3132911,0,28.462025,-4.2151905)" visibility="visible"/><path id="path2463" fill="none" fill-opacity="1" fill-rule="nonzero" stroke="url(#linearGradient2428)" stroke-dasharray="none" stroke-miterlimit="4" stroke-opacity="1" stroke-width="1" d="M 21.499999,11.999663 C 21.499999,17.246537 17.24639,21.499999 12.00012,21.499999 C 6.7533674,21.499999 2.4999999,17.24649 2.4999999,11.999663 C 2.4999999,6.7530318 6.7533674,2.5000007 12.00012,2.5000007 C 17.24639,2.5000007 21.499999,6.7530318 21.499999,11.999663 L 21.499999,11.999663 z" opacity=".4"/></g></svg>