<svg xmlns="http://www.w3.org/2000/svg" xmlns:svg="http://www.w3.org/2000/svg" xmlns:xlink="http://www.w3.org/1999/xlink" id="svg2" width="24" height="24" version="1.0"><defs id="defs4"><radialGradient id="radialGradient4536" cx="605.714" cy="486.648" r="117.143" fx="605.714" fy="486.648" gradientTransform="matrix(-2.774389,0,0,1.969706,112.7623,-872.8854)" gradientUnits="userSpaceOnUse" xlink:href="#linearGradient5060"/><linearGradient id="linearGradient5060"><stop id="stop5062" offset="0" stop-color="#000" stop-opacity="1"/><stop id="stop5064" offset="1" stop-color="#000" stop-opacity="0"/></linearGradient><radialGradient id="radialGradient4534" cx="605.714" cy="486.648" r="117.143" fx="605.714" fy="486.648" gradientTransform="matrix(2.774389,0,0,1.969706,-1891.633,-872.8854)" gradientUnits="userSpaceOnUse" xlink:href="#linearGradient5060"/><linearGradient id="linearGradient5048"><stop id="stop5050" offset="0" stop-color="#000" stop-opacity="0"/><stop id="stop5056" offset=".5" stop-color="#000" stop-opacity="1"/><stop id="stop5052" offset="1" stop-color="#000" stop-opacity="0"/></linearGradient><linearGradient id="linearGradient4532" x1="302.857" x2="302.857" y1="366.648" y2="609.505" gradientTransform="matrix(2.774389,0,0,1.969706,-1892.179,-872.8854)" gradientUnits="userSpaceOnUse" xlink:href="#linearGradient5048"/><linearGradient id="linearGradient3931"><stop id="stop3933" offset="0" stop-color="#8d8f8a" stop-opacity="1"/><stop id="stop3935" offset="1" stop-color="#cbcbcb" stop-opacity="1"/></linearGradient><linearGradient id="linearGradient4547" x1="-51.786" x2="-51.786" y1="50.786" y2="2.906" gradientTransform="matrix(0.4383743,0,0,0.4575444,31.223522,-0.7786496)" gradientUnits="userSpaceOnUse" xlink:href="#linearGradient3931"/><linearGradient id="linearGradient3600"><stop id="stop3602" offset="0" stop-color="#f4f4f4" stop-opacity="1"/><stop id="stop3604" offset="1" stop-color="#dbdbdb" stop-opacity="1"/></linearGradient><linearGradient id="linearGradient4545" x1="25.132" x2="25.132" y1="6.729" y2="47.013" gradientTransform="matrix(0.5428805,0,0,0.4889072,-1.0291327,-0.2337718)" gradientUnits="userSpaceOnUse" xlink:href="#linearGradient3600"/><linearGradient id="linearGradient4559"><stop id="stop4561" offset="0" stop-color="#cacaca" stop-opacity="1"/><stop id="stop4563" offset="1" stop-color="#949492" stop-opacity="1"/></linearGradient><linearGradient id="linearGradient4565" x1="17.289" x2="15.18" y1="2.185" y2="5.821" gradientUnits="userSpaceOnUse" xlink:href="#linearGradient4559"/><linearGradient id="linearGradient8589"><stop id="stop8591" offset="0" stop-color="#fefefe" stop-opacity="1"/><stop id="stop8593" offset="1" stop-color="#cbcbcb" stop-opacity="1"/></linearGradient><linearGradient id="linearGradient4543" x1="32.892" x2="36.358" y1="8.059" y2="5.457" gradientTransform="matrix(0.541631,0,0,0.5202974,-0.9402078,-0.3018562)" gradientUnits="userSpaceOnUse" xlink:href="#linearGradient8589"/><linearGradient id="linearGradient11114"><stop id="stop11116" offset="0" stop-color="#242424" stop-opacity=".992"/><stop id="stop11118" offset="1" stop-color="#656565" stop-opacity="1"/></linearGradient><linearGradient id="linearGradient2710" x1="-172.653" x2="-166.64" y1="99.667" y2="93.654" gradientTransform="matrix(0.1365758,0,0,0.1412118,42.854804,6.0390025)" gradientUnits="userSpaceOnUse" xlink:href="#linearGradient11114"/><linearGradient id="linearGradient4454"><stop id="stop4456" offset="0" stop-color="#a1a1a1" stop-opacity=".208"/><stop id="stop4458" offset="1" stop-color="#a1a1a1" stop-opacity=".678"/></linearGradient><radialGradient id="radialGradient4193" cx="18.241" cy="21.818" r="8.309" fx="18.241" fy="21.818" gradientUnits="userSpaceOnUse" xlink:href="#linearGradient4454"/><linearGradient id="linearGradient4467"><stop id="stop4469" offset="0" stop-color="#fff" stop-opacity="1"/><stop id="stop4471" offset="1" stop-color="#fff" stop-opacity=".248"/></linearGradient><radialGradient id="radialGradient2705" cx="15.414" cy="13.078" r="6.656" fx="15.414" fy="13.078" gradientTransform="matrix(1.03877,0,0,0.8346314,-3.3500394,0.2168552)" gradientUnits="userSpaceOnUse" xlink:href="#linearGradient4467"/><linearGradient id="linearGradient11104"><stop id="stop11106" offset="0" stop-color="#333" stop-opacity="1"/><stop id="stop11108" offset="1" stop-color="#333" stop-opacity=".612"/></linearGradient><linearGradient id="linearGradient2702" x1="41.542" x2="41.485" y1="68.292" y2="4.536" gradientTransform="matrix(0.1365758,0,0,0.1412118,7.9984436,8.7019038)" gradientUnits="userSpaceOnUse" xlink:href="#linearGradient11104"/><linearGradient id="linearGradient2300"><stop id="stop2302" offset="0" stop-color="#343435" stop-opacity=".976"/><stop id="stop2304" offset="1" stop-color="#919295" stop-opacity="1"/></linearGradient><linearGradient id="linearGradient2700" x1="173.096" x2="173.096" y1="75.319" y2="11.949" gradientTransform="matrix(0.1365758,0,0,0.1412118,-9.716959,7.6391574)" gradientUnits="userSpaceOnUse" xlink:href="#linearGradient2300"/></defs><metadata id="metadata7"/><g id="layer1"><g id="g3490" stroke-dasharray="none" stroke-miterlimit="4" stroke-width="1.883" display="inline" transform="matrix(0.5459263,0,0,0.5168524,-0.9657323,-0.5781821)"><g id="g5022" stroke-dasharray="none" stroke-miterlimit="4" stroke-width="104.962" display="inline" transform="matrix(2.165152e-2,0,0,1.485743e-2,43.0076,42.68539)"><rect id="rect4173" width="1339.633" height="478.357" x="-1559.252" y="-150.697" fill="url(#linearGradient4532)" fill-opacity="1" fill-rule="nonzero" stroke="none" stroke-dasharray="none" stroke-dashoffset="0" stroke-linecap="round" stroke-linejoin="miter" stroke-miterlimit="4" stroke-opacity="1" stroke-width="104.962" marker-end="none" marker-mid="none" marker-start="none" display="inline" opacity=".402" overflow="visible" visibility="visible" style="marker:none"/><path id="path5058" fill="url(#radialGradient4534)" fill-opacity="1" fill-rule="nonzero" stroke="none" stroke-dasharray="none" stroke-dashoffset="0" stroke-linecap="round" stroke-linejoin="miter" stroke-miterlimit="4" stroke-opacity="1" stroke-width="104.962" marker-end="none" marker-mid="none" marker-start="none" d="M -219.61876,-150.68038 C -219.61876,-150.68038 -219.61876,327.65041 -219.61876,327.65041 C -76.744594,328.55086 125.78146,220.48075 125.78138,88.454235 C 125.78138,-43.572302 -33.655436,-150.68036 -219.61876,-150.68038 z" display="inline" opacity=".402" overflow="visible" visibility="visible" style="marker:none"/><path id="path5018" fill="url(#radialGradient4536)" fill-opacity="1" fill-rule="nonzero" stroke="none" stroke-dasharray="none" stroke-dashoffset="0" stroke-linecap="round" stroke-linejoin="miter" stroke-miterlimit="4" stroke-opacity="1" stroke-width="104.962" marker-end="none" marker-mid="none" marker-start="none" d="M -1559.2523,-150.68038 C -1559.2523,-150.68038 -1559.2523,327.65041 -1559.2523,327.65041 C -1702.1265,328.55086 -1904.6525,220.48075 -1904.6525,88.454235 C -1904.6525,-43.572302 -1745.2157,-150.68036 -1559.2523,-150.68038 z" display="inline" opacity=".402" overflow="visible" visibility="visible" style="marker:none"/></g></g><path id="rect2594" fill="url(#linearGradient4545)" fill-opacity="1" stroke="url(#linearGradient4547)" stroke-dasharray="none" stroke-dashoffset="0" stroke-linecap="butt" stroke-linejoin="round" stroke-miterlimit="4" stroke-opacity="1" stroke-width=".999" d="M 2.4995695,0.49956995 C 6.8536276,0.49956995 11.207692,0.49956995 15.561752,0.49956995 C 16.325552,0.7368753 20.428924,3.4404149 21.50043,5.3123518 C 21.50043,11.041709 21.50043,16.771071 21.50043,22.500431 C 15.166811,22.500431 8.8331869,22.500431 2.4995695,22.500431 C 2.4995695,15.166809 2.4995695,7.8331917 2.4995695,0.49956995 z" display="inline"/><path id="path12038" fill="url(#linearGradient4543)" fill-opacity="1" fill-rule="evenodd" stroke="url(#linearGradient4565)" stroke-dasharray="none" stroke-linecap="butt" stroke-linejoin="round" stroke-miterlimit="4" stroke-opacity="1" stroke-width="1" d="M 15.5,0.5 C 15.5,2.762965 15.5,5.5 15.5,5.5 C 15.5,5.5 20.153658,5.5 21.5,5.5 C 21.5,4.663413 16.679532,0.51428239 15.5,0.5 z" display="inline"/><path id="path11112" fill="url(#linearGradient2710)" fill-opacity="1" fill-rule="evenodd" stroke="#333" stroke-dasharray="none" stroke-linecap="round" stroke-linejoin="round" stroke-miterlimit="4" stroke-opacity="1" stroke-width=".772" d="M 17.460715,16.54986 L 23.56739,22.426222 L 22.720919,23.613995 L 16.636361,17.257344 L 17.460715,16.54986 z" display="inline"/><path id="path13082" fill="#3e3e3e" fill-opacity="1" stroke="none" stroke-dasharray="none" stroke-linecap="round" stroke-linejoin="round" stroke-miterlimit="4" stroke-opacity="1" stroke-width="4.253" d="M 248.35479,110.29199 A 5.3124018,2.6562009 0 1 1 237.72999,110.29199 A 5.3124018,2.6562009 0 1 1 248.35479,110.29199 z" display="inline" transform="matrix(0.1354007,-0.1564671,0.1513302,0.1399968,-26.42267,45.63132)"/><path id="path4452" fill="url(#radialGradient4193)" fill-opacity="1" fill-rule="evenodd" stroke="none" stroke-dasharray="none" stroke-dashoffset="0" stroke-linecap="round" stroke-linejoin="miter" stroke-miterlimit="4" stroke-opacity="1" stroke-width="1.526" marker-end="none" marker-mid="none" marker-start="none" d="M 25.897786,18.478292 A 8.3085051,8.3085051 0 1 1 9.280776,18.478292 A 8.3085051,8.3085051 0 1 1 25.897786,18.478292 z" display="inline" transform="matrix(0.5036401,0,0,0.5080737,5.2767465,4.2232703)" visibility="visible" style="marker:none"/><path id="path4462" fill="url(#radialGradient2705)" fill-opacity="1" fill-rule="evenodd" stroke="none" stroke-dasharray="none" stroke-dashoffset="0" stroke-linecap="round" stroke-linejoin="miter" stroke-miterlimit="4" stroke-opacity="1" stroke-width=".75" marker-end="none" marker-mid="none" marker-start="none" d="M 13.963041,9.9776238 C 11.876822,9.9776238 10.187461,11.540431 10.187461,13.470368 C 10.187461,14.027742 10.355842,14.540579 10.606969,15.008326 C 11.108687,15.179399 11.641651,15.295794 12.207318,15.295794 C 14.679473,15.295794 16.653816,13.494067 16.806378,11.242485 C 16.112934,10.48441 15.119789,9.9776238 13.963041,9.9776238 z" display="inline" opacity=".834" overflow="visible" visibility="visible" style="marker:none"/><path id="path2298" fill="url(#linearGradient2700)" fill-opacity="1" stroke="url(#linearGradient2702)" stroke-dasharray="none" stroke-linecap="round" stroke-linejoin="round" stroke-miterlimit="4" stroke-opacity="1" stroke-width=".772" d="M 14.043423,9.3961997 C 11.473541,9.3961997 9.387041,11.385478 9.3870423,13.835546 C 9.3870423,16.285614 11.473541,18.274892 14.043423,18.274892 C 16.613303,18.274892 18.699803,16.285614 18.699803,13.835546 C 18.699803,11.385479 16.613305,9.3961997 14.043423,9.3961997 z M 14.098906,9.6874491 C 16.398967,9.6874491 18.268736,11.466205 18.268736,13.659031 C 18.268736,15.851858 16.398967,17.630614 14.098906,17.630614 C 11.798845,17.630614 9.9333455,15.851858 9.9333455,13.659031 C 9.9333455,11.466205 11.798845,9.6874491 14.098906,9.6874491 z" display="inline"/></g></svg>