<svg xmlns="http://www.w3.org/2000/svg" xmlns:svg="http://www.w3.org/2000/svg" xmlns:xlink="http://www.w3.org/1999/xlink" id="svg4138" width="24" height="24" version="1.0"><defs id="defs4140"><linearGradient id="linearGradient8838"><stop id="stop8840" offset="0" stop-color="#000" stop-opacity="1"/><stop id="stop8842" offset="1" stop-color="#000" stop-opacity="0"/></linearGradient><radialGradient id="radialGradient5323" cx="62.625" cy="4.625" r="10.625" fx="62.625" fy="4.625" gradientTransform="matrix(1,0,0,0.341176,0,3.047059)" gradientUnits="userSpaceOnUse" xlink:href="#linearGradient8838"/><linearGradient id="linearGradient5354"><stop id="stop5356" offset="0" stop-color="#3f3f3f" stop-opacity="1"/><stop id="stop5358" offset="1" stop-color="#000" stop-opacity="1"/></linearGradient><linearGradient id="linearGradient5130" x1="19.177" x2="19.177" y1="13.48" y2="45.359" gradientTransform="matrix(0.4916775,0,0,0.4916774,0.6986745,-0.3018277)" gradientUnits="userSpaceOnUse" xlink:href="#linearGradient5354"/><linearGradient id="linearGradient37935"><stop id="stop37937" offset="0" stop-color="#929292" stop-opacity="1"/><stop id="stop37939" offset="1" stop-color="#4a4a4a" stop-opacity="1"/></linearGradient><linearGradient id="linearGradient5128" x1="28.771" x2="28.771" y1="12.918" y2="45.348" gradientTransform="matrix(0.4916775,0,0,0.4916774,0.6986745,-0.3018277)" gradientUnits="userSpaceOnUse" xlink:href="#linearGradient37935"/><linearGradient id="linearGradient2145"><stop id="stop2147" offset="0" stop-color="#fffffd" stop-opacity="1"/><stop id="stop2149" offset="1" stop-color="#cbcbc9" stop-opacity="1"/></linearGradient><radialGradient id="radialGradient5350" cx="11.902" cy="10.045" r="29.293" fx="11.902" fy="10.045" gradientUnits="userSpaceOnUse" xlink:href="#linearGradient2145"/></defs><metadata id="metadata4143"/><g id="layer1"><path id="path2774" fill="url(#radialGradient5323)" fill-opacity="1" fill-rule="evenodd" stroke="none" stroke-dasharray="none" stroke-dashoffset="0" stroke-linecap="butt" stroke-linejoin="round" stroke-miterlimit="4" stroke-opacity="1" stroke-width="1" marker-end="none" marker-mid="none" marker-start="none" d="M 73.25,4.625 A 10.625,3.625 0 1 1 52,4.625 A 10.625,3.625 0 1 1 73.25,4.625 z" display="inline" opacity=".56" overflow="visible" transform="matrix(1.0823528,0,0,1.2906765,-55.282346,13.351919)" visibility="visible" style="marker:none"/><path id="path2555" fill="url(#linearGradient5128)" fill-opacity="1" stroke="url(#linearGradient5130)" stroke-dasharray="none" stroke-dashoffset="0" stroke-linecap="round" stroke-linejoin="round" stroke-miterlimit="4" stroke-opacity="1" stroke-width="1" d="M 12.492145,1.4999735 C 6.9730765,1.4999735 2.4999745,5.9730745 2.4999745,11.492145 C 2.4999745,17.011214 6.9730765,21.500027 12.492145,21.500026 C 18.011213,21.500026 22.500032,17.011214 22.500027,11.492145 C 22.500027,5.9730745 18.011213,1.4999735 12.492145,1.4999735 z"/><path id="path35549" fill="url(#radialGradient5350)" fill-opacity="1" fill-rule="evenodd" stroke="none" stroke-dasharray="none" stroke-dashoffset="0" stroke-linecap="round" stroke-linejoin="bevel" stroke-miterlimit="4" stroke-opacity="1" stroke-width="1.396" d="M 31.160714,16.910715 A 14.910714,14.910714 0 1 1 1.3392859,16.910715 A 14.910714,14.910714 0 1 1 31.160714,16.910715 z" transform="matrix(0.5700599,0,0,0.5700599,3.2365269,1.8598792)"/><path id="path2308" fill="#1f1f1f" fill-opacity="1" fill-rule="evenodd" stroke="#727272" stroke-dasharray="none" stroke-linecap="round" stroke-linejoin="miter" stroke-miterlimit="4" stroke-opacity="1" stroke-width="1" d="M 12.5,6.4999999 C 12.5,5.1073274 12.5,4.9309883 12.5,4.9309883"/><path id="path2312" fill="none" fill-rule="evenodd" stroke="#000" stroke-dasharray="none" stroke-linecap="round" stroke-linejoin="miter" stroke-miterlimit="4" stroke-opacity="1" stroke-width=".5" d="M 12.194529,11.713855 L 17.596253,6.3122524"/><path id="path2314" fill="none" fill-rule="evenodd" stroke="#000" stroke-dasharray="none" stroke-linecap="round" stroke-linejoin="miter" stroke-miterlimit="4" stroke-opacity="1" stroke-width=".5" d="M 13.071561,11.753718 L 9.4637681,8.1460064"/><path id="path2316" fill="red" fill-rule="evenodd" stroke="red" stroke-dasharray="none" stroke-linecap="round" stroke-linejoin="miter" stroke-miterlimit="4" stroke-opacity="1" stroke-width=".5" d="M 12.314125,11.434805 L 18.465311,9.7866365"/><path id="path5368" fill="#121212" fill-opacity="1" fill-rule="evenodd" stroke="#121212" stroke-dasharray="none" stroke-linecap="round" stroke-linejoin="miter" stroke-miterlimit="4" stroke-opacity="1" stroke-width="1" d="M 12.5,18.284507 C 12.5,16.891834 12.5,16.715495 12.5,16.715495"/><path id="path5370" fill="#1f1f1f" fill-opacity="1" fill-rule="evenodd" stroke="#1f1f1f" stroke-dasharray="none" stroke-linecap="round" stroke-linejoin="miter" stroke-miterlimit="4" stroke-opacity="1" stroke-width="1" d="M 17.5,11.5 C 18.892673,11.5 19.069013,11.5 19.069013,11.5"/><path id="path5372" fill="#1f1f1f" fill-opacity="1" fill-rule="evenodd" stroke="#5f5f5f" stroke-dasharray="none" stroke-linecap="round" stroke-linejoin="miter" stroke-miterlimit="4" stroke-opacity="1" stroke-width="1" d="M 5.7331351,11.5 C 7.0944914,11.5 7.2668652,11.5 7.2668652,11.5"/><path id="path13687" fill="#7da5ca" fill-opacity="1" stroke="#356ca0" stroke-dasharray="none" stroke-linecap="butt" stroke-linejoin="miter" stroke-miterlimit="4" stroke-opacity="1" stroke-width="1" d="M 23.499726,2.5080278 L 20.13115,5.5358721 L 23.499726,5.5358721 L 23.499726,7.4997268 L 17.500272,7.4997268 L 17.500272,5.3125957 L 20.617302,2.5454325 L 17.500272,2.5454325 L 17.500272,0.50027323 L 23.499726,0.50027323 L 23.499726,2.5080278 z" font-family="Segoe" font-size="10" font-stretch="normal" font-style="normal" font-variant="normal" font-weight="normal" text-anchor="start" writing-mode="lr-tb" style="line-height:100%"/><path id="path13696" fill="#7da5ca" fill-opacity="1" stroke="#356ca0" stroke-dasharray="none" stroke-linecap="butt" stroke-linejoin="miter" stroke-miterlimit="4" stroke-opacity="1" stroke-width="1" d="M 20.499999,11.671256 L 18.17364,13.527419 L 20.499999,13.527419 L 20.499999,15.487697 L 15.5,15.487697 L 15.5,13.357669 L 17.694321,11.484012 L 15.5,11.484012 L 15.5,9.4999995 L 20.499999,9.4999995 L 20.499999,11.671256 z" font-family="Segoe" font-size="10" font-stretch="normal" font-style="normal" font-variant="normal" font-weight="normal" text-anchor="start" writing-mode="lr-tb" style="line-height:100%"/></g></svg>