<svg xmlns="http://www.w3.org/2000/svg" xmlns:svg="http://www.w3.org/2000/svg" xmlns:xlink="http://www.w3.org/1999/xlink" id="svg3291" width="24" height="24" version="1.0"><defs id="defs3293"><linearGradient id="linearGradient10691-1"><stop id="stop10693-3" offset="0" stop-color="#000" stop-opacity="1"/><stop id="stop10695-1" offset="1" stop-color="#000" stop-opacity="0"/></linearGradient><radialGradient id="radialGradient2503" cx="6.703" cy="73.616" r="7.228" fx="6.703" fy="73.616" gradientTransform="matrix(0.9684004,0,0,0.2075143,5.509091,7.223683)" gradientUnits="userSpaceOnUse" xlink:href="#linearGradient10691-1"/><linearGradient id="linearGradient3924"><stop id="stop3926" offset="0" stop-color="#464646" stop-opacity="1"/><stop id="stop3928" offset=".35" stop-color="#8c8c8c" stop-opacity="1"/><stop id="stop3930" offset=".51" stop-color="#969696" stop-opacity="1"/><stop id="stop3932" offset=".62" stop-color="#aaa" stop-opacity="1"/><stop id="stop3934" offset="1" stop-color="#646464" stop-opacity="1"/></linearGradient><linearGradient id="linearGradient2500" x1="61.969" x2="61.969" y1="35.944" y2="43.378" gradientTransform="matrix(0.5790465,0,0,0.6062555,-23.900882,-3.8712552)" gradientUnits="userSpaceOnUse" xlink:href="#linearGradient3924"/><linearGradient id="linearGradient3912"><stop id="stop3914" offset="0" stop-color="#787878" stop-opacity="1"/><stop id="stop3916" offset=".35" stop-color="#bebebe" stop-opacity="1"/><stop id="stop3918" offset=".494" stop-color="#c8c8c8" stop-opacity="1"/><stop id="stop3920" offset=".589" stop-color="#e6e6e6" stop-opacity="1"/><stop id="stop3922" offset="1" stop-color="#8c8c8c" stop-opacity="1"/></linearGradient><linearGradient id="linearGradient2498" x1="361.106" x2="361.106" y1="87.05" y2="94.396" gradientTransform="matrix(0.5769671,0,0,0.6063427,-194.65125,-34.797997)" gradientUnits="userSpaceOnUse" xlink:href="#linearGradient3912"/><linearGradient id="linearGradient3342"><stop id="stop3344" offset="0" stop-color="#fff" stop-opacity="0"/><stop id="stop3346" offset="1" stop-color="#fff" stop-opacity="1"/></linearGradient><linearGradient id="linearGradient2495" x1="15.574" x2="23.578" y1="46.971" y2="46.971" gradientTransform="matrix(0.6041001,0,0,0.4850453,-2.2435196,-1.2830676)" gradientUnits="userSpaceOnUse" spreadMethod="reflect" xlink:href="#linearGradient3342"/><linearGradient id="linearGradient2327"><stop id="stop2329" offset="0" stop-color="#fff" stop-opacity="1"/><stop id="stop2331" offset="1" stop-color="#ccc" stop-opacity="1"/></linearGradient><radialGradient id="radialGradient2491" cx="12.244" cy="4.863" r="21" fx="12.244" fy="4.863" gradientTransform="matrix(0.6746493,9.28159e-3,-6.28149e-3,0.5188398,-1.9645574,3.278161)" gradientUnits="userSpaceOnUse" xlink:href="#linearGradient2327"/><linearGradient id="linearGradient6592-2-7"><stop id="stop6594-0-2" offset="0" stop-color="#fff" stop-opacity=".275"/><stop id="stop6596-2-5" offset="1" stop-color="#fff" stop-opacity="0"/></linearGradient><linearGradient id="linearGradient2488" x1="12.938" x2="15.25" y1="8.438" y2="19.813" gradientTransform="matrix(0.5238096,0,0,0.6666661,-0.5714286,1.4e-6)" gradientUnits="userSpaceOnUse" xlink:href="#linearGradient6592-2-7"/></defs><g id="layer1"><path id="path2589" fill="url(#radialGradient2503)" fill-opacity="1" fill-rule="nonzero" stroke="none" stroke-width=".8" d="M 19,22.500001 C 19,23.328428 15.865993,24 11.999999,24 C 8.1340066,24 5,23.328428 5,22.500001 C 5,21.671573 8.1340066,21 11.999999,21 C 15.865993,21 19,21.671573 19,22.500001 L 19,22.500001 z" display="inline" opacity=".3" overflow="visible" visibility="visible" style="marker:none"/><path id="rect1789" fill="url(#linearGradient2498)" fill-opacity="1" fill-rule="nonzero" stroke="url(#linearGradient2500)" stroke-dasharray="none" stroke-dashoffset=".5" stroke-linecap="round" stroke-linejoin="round" stroke-miterlimit="4" stroke-opacity="1" stroke-width=".998" d="M 8.5,17.499134 C 8.5,17.499134 8.7272727,19.645179 8.5,20 C 8.1074638,20.612833 6.8927921,20.5 6.8927921,20.5 C 6.369978,20.56321 6.3656531,22.500859 6.8927921,22.500859 L 17.107166,22.500859 C 17.634305,22.500859 17.630089,20.562403 17.107166,20.5 C 17.107166,20.5 15.935658,20.58298 15.5,20 C 15.254189,19.671064 15.5,17.499134 15.5,17.499134 L 8.5,17.499134 L 8.5,17.499134 z" display="inline" enable-background="new" overflow="visible" visibility="visible" style="marker:none"/><path id="path3340" fill="none" stroke="url(#linearGradient2495)" stroke-linecap="square" stroke-linejoin="miter" stroke-opacity="1" stroke-width="1" d="M 7.4667247,21.5 L 16.533275,21.5"/><rect id="rect2722" width="23" height="16" x=".5" y="1.5" fill="#1a1a1a" fill-opacity="1" stroke="#000" stroke-dasharray="none" stroke-dashoffset=".5" stroke-linecap="round" stroke-linejoin="round" stroke-miterlimit="4" stroke-opacity="1" stroke-width="1" rx=".511" ry=".485"/><rect id="rect2716" width="20" height="13" x="2" y="3" fill="url(#radialGradient2491)" fill-opacity="1" fill-rule="evenodd" stroke="none" display="inline" enable-background="new"/><path id="rect6588" fill="url(#linearGradient2488)" fill-opacity="1" stroke="none" d="M 0.99999996,2 L 23,2 L 23,7.333336 L 0.99999996,12 L 0.99999996,2 z"/><path id="path2086" fill="#888a85" fill-opacity="1" fill-rule="nonzero" stroke="none" stroke-dasharray="none" stroke-dashoffset="0" stroke-linecap="butt" stroke-linejoin="miter" stroke-miterlimit="4" stroke-opacity="1" stroke-width="1" marker-end="none" marker-mid="none" marker-start="none" d="M 11.750002,5.0148104 C 10.036141,5.0698682 8.900003,5.9149003 8.900003,7.657846 L 8.900003,9.023733 L 8.514285,9.023733 C 8.231276,9.023733 8,9.22361 8,9.473921 L 8,13.549812 C 8,13.800124 8.231276,14.000001 8.514285,14 L 15.492854,14 C 15.775868,14 16,13.800124 16,13.549812 L 16,9.473921 C 16,9.22361 15.775868,9.023733 15.492854,9.023733 L 15.099996,9.023733 L 15.107141,7.686891 C 15.107141,5.8367149 13.873798,5.0376459 12.007144,5.0148104 C 11.920116,5.0137393 11.83429,5.0121015 11.750002,5.0148104 z M 11.921429,6.1838445 C 11.952944,6.1831168 11.988842,6.1838445 12.021429,6.1838445 C 14.092521,6.1838445 13.933702,7.694264 13.964285,8.14434 L 13.964285,9.023733 L 10.064285,9.023733 L 10.064285,8.1516 C 10.056933,7.705098 9.935997,6.2297713 11.921429,6.1838445 z" display="block" opacity=".699" overflow="visible" visibility="visible" style="marker:none"/></g></svg>