<svg xmlns="http://www.w3.org/2000/svg" xmlns:svg="http://www.w3.org/2000/svg" xmlns:xlink="http://www.w3.org/1999/xlink" id="svg3506" width="32" height="32" version="1.0"><metadata id="metadata53"/><defs id="defs3508"><linearGradient id="linearGradient5060"><stop id="stop5062" offset="0" stop-color="#000" stop-opacity="1"/><stop id="stop5064" offset="1" stop-color="#000" stop-opacity="0"/></linearGradient><linearGradient id="linearGradient5048"><stop id="stop5050" offset="0" stop-color="#000" stop-opacity="0"/><stop id="stop5056" offset=".5" stop-color="#000" stop-opacity="1"/><stop id="stop5052" offset="1" stop-color="#000" stop-opacity="0"/></linearGradient><linearGradient id="linearGradient3319"><stop id="stop3321" offset="0" stop-color="#af9b7f" stop-opacity="1"/><stop id="stop3323" offset="1" stop-color="#736148" stop-opacity="1"/></linearGradient><linearGradient id="linearGradient8967"><stop id="stop8969" offset="0" stop-color="#ddcfbd" stop-opacity="1"/><stop id="stop8971" offset="1" stop-color="#856f50" stop-opacity="1"/></linearGradient><linearGradient id="linearGradient8978"><stop id="stop8980" offset="0" stop-color="#4d5459" stop-opacity=".996"/><stop id="stop8982" offset="1" stop-color="#141b1f" stop-opacity="1"/></linearGradient><linearGradient id="linearGradient3913"><stop id="stop3915" offset="0" stop-color="#4e555a" stop-opacity="1"/><stop id="stop3917" offset=".16" stop-color="#151c20" stop-opacity="1"/><stop id="stop3919" offset=".167" stop-color="#9b876c" stop-opacity="1"/><stop id="stop3921" offset=".752" stop-color="#9b876c" stop-opacity="1"/><stop id="stop3923" offset=".939" stop-color="#9b876c" stop-opacity="1"/><stop id="stop3925" offset=".949" stop-color="#c2c2c2" stop-opacity="1"/><stop id="stop3927" offset="1" stop-color="#c2c2c2" stop-opacity="1"/></linearGradient><linearGradient id="linearGradient2346"><stop id="stop2348" offset="0" stop-color="#eee" stop-opacity="1"/><stop id="stop2350" offset="1" stop-color="#d9d9da" stop-opacity="1"/></linearGradient><linearGradient id="linearGradient3203" x1="24.627" x2="24.64" y1="3.123" y2="4.883" gradientTransform="matrix(0.6747109,0,0,0.9989811,0.8698393,-2.4456849)" gradientUnits="userSpaceOnUse" xlink:href="#linearGradient2346"/><linearGradient id="linearGradient3205" x1="5.754" x2="55.495" y1="5.244" y2=".065" gradientTransform="matrix(0.4813336,0,0,0.4852836,1.4953782,0.1447783)" gradientUnits="userSpaceOnUse" xlink:href="#linearGradient3913"/><linearGradient id="linearGradient3211" x1="5.48" x2="8.5" y1="25.019" y2="25.019" gradientTransform="matrix(0.5714285,0,0,0.6904762,1.1428573,-0.7618626)" gradientUnits="userSpaceOnUse" xlink:href="#linearGradient8978"/><linearGradient id="linearGradient3214" x1="16.102" x2="38.491" y1="9.889" y2="46" gradientTransform="matrix(0.6587085,0,0,0.6995241,0.8127822,-1.3378195)" gradientUnits="userSpaceOnUse" xlink:href="#linearGradient8967"/><linearGradient id="linearGradient3216" x1="22.334" x2="53.453" y1="11.03" y2="61.22" gradientTransform="matrix(0.4739302,0,0,0.5032963,0.8342355,2.8378404e-2)" gradientUnits="userSpaceOnUse" xlink:href="#linearGradient3319"/><linearGradient id="linearGradient3222" x1="302.857" x2="302.857" y1="366.648" y2="609.505" gradientTransform="matrix(7.04142e-2,0,0,1.537476e-2,-1.4497047,38.629007)" gradientUnits="userSpaceOnUse" xlink:href="#linearGradient5048"/><radialGradient id="radialGradient3224" cx="605.714" cy="486.648" r="117.143" fx="605.714" fy="486.648" gradientTransform="matrix(-2.409717e-2,0,0,1.537476e-2,21.522412,38.629039)" gradientUnits="userSpaceOnUse" xlink:href="#linearGradient5060"/><radialGradient id="radialGradient3226" cx="605.714" cy="486.648" r="117.143" fx="605.714" fy="486.648" gradientTransform="matrix(2.409717e-2,0,0,1.537476e-2,26.477584,38.629039)" gradientUnits="userSpaceOnUse" xlink:href="#linearGradient5060"/><linearGradient id="linearGradient3059" x1="24.139" x2="24.139" y1="7.048" y2="39.268" gradientTransform="matrix(0.37573149,0,0,0.37346493,16.248216,16.686376)" gradientUnits="userSpaceOnUse" xlink:href="#linearGradient3943"/><linearGradient id="linearGradient3943"><stop id="stop3945" offset="0" stop-color="#fff" stop-opacity="1"/><stop id="stop3947" offset="1" stop-color="#fff" stop-opacity="0"/></linearGradient><linearGradient id="linearGradient3242-7"><stop id="stop3244-5" offset="0" stop-color="#eef87e" stop-opacity="1"/><stop id="stop3246-9" offset=".262" stop-color="#cde34f" stop-opacity="1"/><stop id="stop3248-7" offset=".661" stop-color="#93b723" stop-opacity="1"/><stop id="stop3250-8" offset="1" stop-color="#5a7e0d" stop-opacity="1"/></linearGradient><linearGradient id="linearGradient2490-3"><stop id="stop2492-3" offset="0" stop-color="#365f0e" stop-opacity="1"/><stop id="stop2494-8" offset="1" stop-color="#84a718" stop-opacity="1"/></linearGradient><radialGradient id="radialGradient3110" cx="69.448" cy="51.695" r="31" fx="69.448" fy="51.695" gradientTransform="matrix(0,0.46490462,-0.50575881,0,49.573765,-12.295707)" gradientUnits="userSpaceOnUse" xlink:href="#linearGradient3242-7"/><linearGradient id="linearGradient3112" x1="72.422" x2="72.422" y1="124.756" y2="51.244" gradientTransform="matrix(0.19311403,0,0,0.19469352,8.005964,7.8601412)" gradientUnits="userSpaceOnUse" xlink:href="#linearGradient2490-3"/></defs><g id="g2877" display="inline" transform="matrix(0.6374177,0,0,0.634005,0.6966414,1.5678024)"><rect id="rect2879" width="34" height="3.734" x="7" y="44.266" fill="url(#linearGradient3222)" fill-opacity="1" fill-rule="nonzero" stroke="none" stroke-width="1" display="inline" opacity=".402" overflow="visible" visibility="visible" style="marker:none"/><path id="path2881" fill="url(#radialGradient3224)" fill-opacity="1" fill-rule="nonzero" stroke="none" stroke-width="1" d="M 7,44.266291 C 7,44.266291 7,47.999956 7,47.999956 C 5.7590552,48.006956 4,47.163431 4,46.132883 C 4,45.102336 5.3848007,44.266292 7,44.266291 L 7,44.266291 z" display="inline" opacity=".402" overflow="visible" visibility="visible" style="marker:none"/><path id="path2883" fill="url(#radialGradient3226)" fill-opacity="1" fill-rule="nonzero" stroke="none" stroke-width="1" d="M 41,44.266291 C 41,44.266291 41,47.999956 41,47.999956 C 42.240944,48.006956 44,47.163431 44,46.132883 C 44,45.102336 42.615199,44.266292 41,44.266291 L 41,44.266291 z" display="inline" opacity=".402" overflow="visible" visibility="visible" style="marker:none"/></g><rect id="rect2719" width="22.981" height="27.981" x="4.51" y="2.51" fill="url(#linearGradient3214)" fill-opacity="1" stroke="url(#linearGradient3216)" stroke-dasharray="none" stroke-dashoffset="0" stroke-linecap="round" stroke-linejoin="round" stroke-miterlimit="0" stroke-opacity="1" stroke-width="1.019" display="inline" rx=".31" ry=".33"/><path id="path2721" fill="url(#linearGradient3211)" fill-opacity="1" stroke="none" d="M 4,2.000042 C 5.6509088,3.013312 7.1287778,2.5930919 8,2.6976464 L 8,31.000042 C 8,31.000042 5.4692389,31.000042 4.8165808,31.000042 C 4.8165808,31.000042 4,31.000042 4,30.188322 L 4,2.000042 L 4,2.000042 z" display="inline"/><rect id="rect2725" width="1.187" height="27.035" x="6.741" y="3.161" fill="#4d4d4d" fill-opacity="1" stroke="none" display="inline" rx=".64" ry=".799"/><path id="path2781" fill="#fff" fill-opacity="1" stroke="none" d="M 15.904977,17.525097 C 15.90497,18.209956 16.052027,18.750044 16.346153,19.145365 C 16.645919,19.54069 17.050332,19.73835 17.559388,19.738348 C 18.062775,19.73835 18.464357,19.54069 18.764139,19.145365 C 19.063905,18.744477 19.213789,18.204389 19.213801,17.525097 C 19.213789,16.851383 19.061077,16.319647 18.755656,15.929884 C 18.455869,15.534569 18.05146,15.336907 17.54242,15.3369 C 17.044675,15.336907 16.645919,15.534569 16.346153,15.929884 C 16.052027,16.319647 15.90497,16.851383 15.904977,17.525097 M 19.383484,20.039017 C 19.213789,20.43434 18.93947,20.743361 18.560519,20.966077 C 18.187207,21.183226 17.748857,21.291802 17.245474,21.291802 C 16.272616,21.291802 15.480762,20.946591 14.869909,20.256168 C 14.2647,19.560177 13.962099,18.655391 13.962105,17.541802 C 13.962099,16.42822 14.267528,15.523433 14.878394,14.827436 C 15.489245,14.131453 16.278272,13.783458 17.245474,13.78345 C 17.748857,13.783458 18.187207,13.894815 18.560519,14.117525 C 18.93947,14.340249 19.213789,14.649269 19.383484,15.044584 L 19.383484,13.950487 L 21.156674,13.950487 L 21.156674,19.738348 C 21.858017,19.632561 22.409486,19.301269 22.811082,18.744474 C 23.212654,18.182115 23.413445,17.463854 23.41346,16.589685 C 23.413445,16.032899 23.331434,15.512297 23.16742,15.027882 C 23.003379,14.53791 22.754509,14.089692 22.420813,13.683226 C 21.883469,13.003948 21.210396,12.480562 20.401582,12.11307 C 19.598404,11.745597 18.727365,11.561856 17.788463,11.561846 C 17.132344,11.561856 16.504516,11.648158 15.904977,11.820754 C 15.305423,11.987802 14.751124,12.235574 14.24208,12.564072 C 13.404972,13.10974 12.751693,13.816865 12.282238,14.685454 C 11.818437,15.548489 11.586535,16.483898 11.586538,17.491689 C 11.586535,18.321314 11.736421,19.100824 12.036199,19.83022 C 12.341626,20.554052 12.779973,21.194365 13.351245,21.751156 C 13.916849,22.296811 14.564472,22.711622 15.294118,22.995587 C 16.029404,23.285119 16.812774,23.429884 17.644232,23.429886 C 18.35689,23.429884 19.06956,23.29904 19.78224,23.037347 C 20.494897,22.775654 21.102928,22.422091 21.606333,21.976656 L 22.514138,23.329664 C 21.807112,23.869751 21.035055,24.281775 20.197962,24.565744 C 19.366504,24.855274 18.520918,25.000038 17.661199,25.000042 C 16.61481,25.000038 15.62782,24.816299 14.700226,24.448819 C 13.772619,24.086901 12.946828,23.557948 12.22285,22.861958 C 11.498867,22.165966 10.947396,21.361401 10.56844,20.448259 C 10.189478,19.529553 9.999999,18.544033 10,17.491689 C 9.999999,16.478332 10.192304,15.512297 10.576921,14.593583 C 10.961537,13.674883 11.510178,12.867534 12.22285,12.171534 C 12.935517,11.48112 13.764136,10.9466 14.708709,10.56797 C 15.658927,10.189362 16.64309,10.000054 17.661199,10.000042 C 18.928156,10.000054 20.079172,10.239473 21.114253,10.718304 C 22.149305,11.19159 23.01469,11.876444 23.710405,12.77287 C 24.134599,13.318537 24.454168,13.911519 24.669117,14.551822 C 24.88969,15.186573 24.999982,15.854724 25,16.556278 C 24.999982,18.06519 24.53901,19.237239 23.61708,20.072423 C 22.695121,20.907615 21.394218,21.32521 19.714365,21.325209 L 19.383484,21.325209 L 19.383484,20.039017" display="inline" font-family="Bitstream Vera Sans" font-size="23.554" font-style="normal" font-weight="normal" opacity=".4"/><path id="path4743" fill="#fff" fill-rule="evenodd" stroke="#fff" stroke-dasharray="none" stroke-linecap="square" stroke-linejoin="round" stroke-miterlimit="4" stroke-opacity="1" stroke-width="1" d="M 8.4999997,3.5107536 L 26.499999,3.4893304" display="inline" opacity=".4"/><path id="path2723" fill="url(#linearGradient3203)" fill-opacity="1" stroke="url(#linearGradient3205)" stroke-dasharray="none" stroke-dashoffset="0" stroke-linecap="butt" stroke-linejoin="round" stroke-miterlimit="0" stroke-opacity="1" stroke-width="1.017" d="M 27.491301,2.2678833 C 27.292793,1.624082 27.416518,1.1227478 27.306879,0.50874075 C 27.306879,0.50874075 8.0943148,0.50874075 6.9859848,0.50874075 C 5.9307565,0.50874075 4.8881513,0.65832899 4.5939614,1.2669965 C 4.5773881,1.3012876 4.5590736,1.335844 4.5488365,1.3731522 C 4.2789236,2.0006076 5.3967671,2.4913431 7.1059207,2.4913431 C 8.2769744,2.4913431 7.7007677,2.4913431 8.1239241,2.4913431" display="inline"/><path id="path4494" fill="#a18d72" fill-opacity="1" fill-rule="evenodd" stroke="#a18d72" stroke-linecap="butt" stroke-linejoin="miter" stroke-opacity="1" stroke-width="1" d="M 27.54605,2.5000419 L 8.0000001,2.5000419" display="inline"/><path id="path2779" fill="#746956" fill-opacity="1" stroke="none" d="M 15.904977,16.525099 C 15.90497,17.209958 16.052027,17.750046 16.346153,18.145365 C 16.645919,18.540691 17.050332,18.738351 17.559388,18.738349 C 18.062775,18.738351 18.464357,18.540691 18.764139,18.145365 C 19.063905,17.744477 19.213789,17.204389 19.213801,16.525099 C 19.213789,15.851382 19.061077,15.319648 18.755656,14.929885 C 18.455869,14.534568 18.05146,14.336909 17.54242,14.336902 C 17.044675,14.336909 16.645919,14.534568 16.346153,14.929885 C 16.052027,15.319648 15.90497,15.851382 15.904977,16.525099 M 19.383484,19.039017 C 19.213789,19.434341 18.93947,19.74336 18.560519,19.966078 C 18.187207,20.183228 17.748857,20.291802 17.245474,20.291801 C 16.272616,20.291802 15.480762,19.94659 14.869909,19.256167 C 14.2647,18.560177 13.962099,17.65539 13.962105,16.5418 C 13.962099,15.42822 14.267528,14.523435 14.878394,13.827436 C 15.489245,13.131453 16.278272,12.783458 17.245474,12.783449 C 17.748857,12.783458 18.187207,12.894816 18.560519,13.117526 C 18.93947,13.340251 19.213789,13.649269 19.383484,14.044584 L 19.383484,12.950488 L 21.156674,12.950488 L 21.156674,18.738349 C 21.858017,18.632561 22.409486,18.30127 22.811082,17.744473 C 23.212654,17.182116 23.413445,16.463855 23.41346,15.589686 C 23.413445,15.032898 23.331434,14.512298 23.16742,14.027881 C 23.003379,13.537911 22.754509,13.089694 22.420813,12.683228 C 21.883469,12.003948 21.210396,11.480563 20.401582,11.113071 C 19.598404,10.745598 18.727365,10.561856 17.788463,10.561847 C 17.132344,10.561856 16.504516,10.64816 15.904977,10.820755 C 15.305423,10.987802 14.751124,11.235575 14.24208,11.564075 C 13.404972,12.109739 12.751693,12.816864 12.282238,13.685454 C 11.818437,14.548489 11.586535,15.483899 11.586538,16.491691 C 11.586535,17.321314 11.736421,18.100824 12.036199,18.830222 C 12.341626,19.55405 12.779973,20.194363 13.351245,20.751155 C 13.916849,21.296811 14.564472,21.711623 15.294118,21.995587 C 16.029404,22.285119 16.812774,22.429885 17.644232,22.429886 C 18.35689,22.429885 19.06956,22.299038 19.78224,22.037347 C 20.494897,21.775655 21.102928,21.422091 21.606333,20.976656 L 22.514138,22.329664 C 21.807112,22.869751 21.035055,23.281777 20.197962,23.565743 C 19.366504,23.855273 18.520918,24.00004 17.661199,24.000042 C 16.61481,24.00004 15.62782,23.816298 14.700226,23.448818 C 13.772619,23.086899 12.946828,22.557945 12.22285,21.861958 C 11.498867,21.165966 10.947396,20.361404 10.56844,19.448259 C 10.189478,18.529555 9.999999,17.544032 10,16.491691 C 9.999999,15.478333 10.192304,14.512298 10.576921,13.593583 C 10.961537,12.674882 11.510178,11.867534 12.22285,11.171535 C 12.935517,10.48112 13.764136,9.9466007 14.708709,9.5679701 C 15.658927,9.1893615 16.64309,9.0000544 17.661199,9.000042 C 18.928156,9.0000544 20.079172,9.2394746 21.114253,9.718306 C 22.149305,10.19159 23.01469,10.876445 23.710405,11.772871 C 24.134599,12.318535 24.454168,12.91152 24.669117,13.551823 C 24.88969,14.186572 24.999982,14.854725 25,15.556276 C 24.999982,17.065192 24.53901,18.237237 23.61708,19.072425 C 22.695121,19.907616 21.394218,20.325209 19.714365,20.325209 L 19.383484,20.325209 L 19.383484,19.039017" display="inline" font-family="Bitstream Vera Sans" font-size="23.554" font-style="normal" font-weight="normal"/><path id="path2262" fill="url(#radialGradient3110)" fill-opacity="1" fill-rule="nonzero" stroke="url(#linearGradient3112)" stroke-dasharray="none" stroke-dashoffset="0" stroke-linecap="round" stroke-linejoin="round" stroke-miterlimit="4" stroke-opacity="1" stroke-width=".985" d="m 22.5,22.500042 0,-4.021022 5,0 0,4.021022 4.007287,0 0,5 -4.007287,0 0,4.007286 -5,0 0,-4.007286 -4.007286,0 0,-5 4.007286,0 z" color="#000" display="inline" enable-background="accumulate" overflow="visible" visibility="visible" style="marker:none"/><path id="path2272" fill="none" stroke="url(#linearGradient3059)" stroke-dasharray="none" stroke-linecap="butt" stroke-linejoin="miter" stroke-miterlimit="4" stroke-opacity="1" stroke-width="1" d="m 23.5,23.500042 0,-4 3,0 0,4 4.02,0 0,3 -4.02,0 0,4 -3,0 0,-4 -4,0 0,-3 4,0 z" display="inline" opacity=".4"/></svg>