<svg xmlns="http://www.w3.org/2000/svg" xmlns:svg="http://www.w3.org/2000/svg" xmlns:xlink="http://www.w3.org/1999/xlink" id="svg3056" width="32" height="32" version="1.1"><defs id="defs3058"><linearGradient id="linearGradient2924" x1="63.397" x2="63.397" y1="-12.489" y2="5.468" gradientTransform="matrix(1.5436509,0,0,1.5436158,-80.015712,21.419381)" gradientUnits="userSpaceOnUse" xlink:href="#linearGradient4873"/><linearGradient id="linearGradient4873"><stop id="stop4875" offset="0" stop-color="#fff" stop-opacity="1"/><stop id="stop4877" offset="1" stop-color="#fff" stop-opacity="0"/></linearGradient><linearGradient id="linearGradient2952-6" x1="17.61" x2="17.61" y1="1" y2="23.063" gradientTransform="matrix(1.3810131,0,0,1.3809689,-0.572157,-0.5716268)" gradientUnits="userSpaceOnUse" xlink:href="#linearGradient3268-4"/><linearGradient id="linearGradient3268-4"><stop id="stop3270-6" offset="0" stop-color="#fff" stop-opacity="1"/><stop id="stop3272-2" offset="1" stop-color="#cdcdcd" stop-opacity="1"/></linearGradient><linearGradient id="linearGradient2954-5" x1="12.963" x2="12.963" y1="2.684" y2="45.326" gradientTransform="matrix(0.71265979,0,0,0.71263699,-1.103835,-1.1032876)" gradientUnits="userSpaceOnUse" xlink:href="#linearGradient3334-995-903-143-677-209-356-728-8"/><linearGradient id="linearGradient3334-995-903-143-677-209-356-728-8"><stop id="stop5026-6" offset="0" stop-color="gray" stop-opacity="1"/><stop id="stop5028-2" offset=".873" stop-color="#6d6d6d" stop-opacity="1"/><stop id="stop5030-8" offset="1" stop-color="#4f5053" stop-opacity="1"/></linearGradient><linearGradient id="linearGradient8838"><stop id="stop8840" offset="0" stop-color="#000" stop-opacity="1"/><stop id="stop8842" offset="1" stop-color="#000" stop-opacity="0"/></linearGradient><radialGradient id="radialGradient3054" cx="62.625" cy="4.625" r="10.625" fx="62.625" fy="4.625" gradientTransform="matrix(1.5058824,0,0,0.37647,-78.305888,26.258824)" gradientUnits="userSpaceOnUse" xlink:href="#linearGradient8838"/><linearGradient id="linearGradient2947-6" x1="3.697" x2="19.821" y1="16.723" y2="16.723" gradientTransform="matrix(0,1.9042949,-1.8386075,0,39.246833,-6.3926738)" gradientUnits="userSpaceOnUse" xlink:href="#linearGradient3356-2"/><linearGradient id="linearGradient3356-2"><stop id="stop3358-8" offset="0" stop-color="gray" stop-opacity="1"/><stop id="stop3360-9" offset=".546" stop-color="#6d6d6d" stop-opacity="1"/><stop id="stop3362-6" offset="1" stop-color="#4f5053" stop-opacity="1"/></linearGradient><linearGradient id="linearGradient2949-0" x1="56.323" x2="72.452" y1="25.883" y2="25.883" gradientTransform="matrix(0,1.9042949,-1.8386075,0,61.143982,-106.60905)" gradientUnits="userSpaceOnUse" xlink:href="#linearGradient3227-7"/><linearGradient id="linearGradient3227-7"><stop id="stop3229-0" offset="0" stop-color="#4d4d4d" stop-opacity="1"/><stop id="stop3231-1" offset="1" stop-color="#333" stop-opacity="1"/></linearGradient></defs><metadata id="metadata3061"/><g id="layer1"><path id="path8836" fill="url(#radialGradient3054)" fill-opacity="1" fill-rule="evenodd" stroke="none" stroke-width="1" d="m 31.999998,28 c 0,2.209139 -7.163445,4 -16.000001,4 C 7.1634417,32 -3.2e-6,30.209139 -3.2e-6,28 c 0,-2.209139 7.1634449,-4 16.0000002,-4 8.836556,0 16.000001,1.790861 16.000001,4 l 0,0 z" display="inline" opacity=".3" overflow="visible" visibility="visible" style="marker:none"/><path id="path2555" fill="url(#linearGradient2952-6)" fill-opacity="1" fill-rule="nonzero" stroke="url(#linearGradient2954-5)" stroke-dasharray="none" stroke-dashoffset="0" stroke-linecap="round" stroke-linejoin="round" stroke-miterlimit="4" stroke-opacity="1" stroke-width="1.004" d="m 16.000001,1.5017975 c -7.9996072,0 -14.4982032,6.4985937 -14.4982032,14.4982015 0,7.999609 6.498596,14.498206 14.4982032,14.498203 7.999605,0 14.498209,-6.498594 14.498201,-14.498203 0,-7.9996078 -6.498596,-14.4982015 -14.498201,-14.4982015 z" color="#000" display="inline" enable-background="accumulate" overflow="visible" visibility="visible" style="marker:none"/><path id="path2555-9" fill="url(#linearGradient2947-6)" fill-opacity="1" fill-rule="nonzero" stroke="url(#linearGradient2949-0)" stroke-dasharray="none" stroke-dashoffset="0" stroke-linecap="butt" stroke-linejoin="miter" stroke-miterlimit="4" stroke-opacity="1" stroke-width="1" d="M 15.5 1.53125 C 7.735525 1.7999085 1.5 8.1707404 1.5 16 C 1.5 23.82926 7.735525 30.200094 15.5 30.46875 L 15.5 1.53125 z" color="#000" display="inline" enable-background="accumulate" overflow="visible" visibility="visible" style="marker:none"/><path id="path8655" fill="none" stroke="url(#linearGradient2924)" stroke-dasharray="none" stroke-miterlimit="4" stroke-opacity="1" stroke-width="1" d="M 29.5,15.999522 C 29.5,23.455607 23.455399,29.5 16.000172,29.5 8.5442598,29.5 2.5,23.455539 2.5,15.999522 2.5,8.5437822 8.5442598,2.5000011 16.000172,2.5000011 23.455399,2.5000011 29.5,8.5437822 29.5,15.999522 l 0,0 z" opacity=".4"/></g></svg>