<svg xmlns="http://www.w3.org/2000/svg" xmlns:svg="http://www.w3.org/2000/svg" xmlns:xlink="http://www.w3.org/1999/xlink" id="svg2932" width="32" height="32" version="1.1"><defs id="defs2934"><linearGradient id="linearGradient2865" x1="17.592" x2="17.592" y1="7" y2="-.025" gradientTransform="matrix(1.3333333,0,0,1.3333333,-1.3333332,1.3326026)" gradientUnits="userSpaceOnUse" xlink:href="#linearGradient3251"/><linearGradient id="linearGradient3251"><stop id="stop3253" offset="0" stop-color="#917f6e" stop-opacity="1"/><stop id="stop3255" offset="1" stop-color="#cbbaa9" stop-opacity="1"/></linearGradient><linearGradient id="linearGradient2868" x1="40.007" x2="40.007" y1="12.911" y2="7.092" gradientTransform="matrix(1.24495,0,0,1.2452213,-29.306419,-1.9542885)" gradientUnits="userSpaceOnUse" xlink:href="#linearGradient4222"/><linearGradient id="linearGradient4222"><stop id="stop4224" offset="0" stop-color="#fff" stop-opacity="1"/><stop id="stop4226" offset="1" stop-color="#fff" stop-opacity="0"/></linearGradient><linearGradient id="linearGradient2871" x1="38.382" x2="38.382" y1="5.906" y2="22.698" gradientTransform="matrix(1.3913044,0,0,1.3913096,-34.652174,-3.9537464)" gradientUnits="userSpaceOnUse" xlink:href="#linearGradient4222"/><linearGradient id="linearGradient2874" x1="39.906" x2="39.906" y1="6.123" y2="24.034" gradientTransform="matrix(1.3333333,0,0,1.3333333,-32.833332,-2.8333323)" gradientUnits="userSpaceOnUse" xlink:href="#linearGradient3243"/><linearGradient id="linearGradient3243"><stop id="stop3245" offset="0" stop-color="#fff4e9" stop-opacity="1"/><stop id="stop3247" offset="1" stop-color="#e7d6c5" stop-opacity="1"/></linearGradient><linearGradient id="linearGradient2876" x1="32.016" x2="32.016" y1="24.011" y2="5" gradientTransform="matrix(1.3333333,0,0,1.3333333,-32.833332,-2.8333323)" gradientUnits="userSpaceOnUse" xlink:href="#linearGradient3251"/><linearGradient id="linearGradient3283"><stop id="stop3285" offset="0" stop-color="#000" stop-opacity="1"/><stop id="stop3287" offset="1" stop-color="#000" stop-opacity="0"/></linearGradient><radialGradient id="radialGradient2930" cx="10.471" cy="20.147" r="9.215" fx="10.471" fy="20.147" gradientTransform="matrix(1.3022726,0,0,0.4340909,-1.6363627,16.587087)" gradientUnits="userSpaceOnUse" xlink:href="#linearGradient3283"/><linearGradient id="linearGradient3287" x1="24.139" x2="24.139" y1="7.048" y2="39.268" gradientTransform="matrix(0.37573149,0,0,0.37346493,16.248216,14.686334)" gradientUnits="userSpaceOnUse" xlink:href="#linearGradient3943"/><linearGradient id="linearGradient3943"><stop id="stop3945" offset="0" stop-color="#fff" stop-opacity="1"/><stop id="stop3947" offset="1" stop-color="#fff" stop-opacity="0"/></linearGradient><linearGradient id="linearGradient3242-7"><stop id="stop3244-5" offset="0" stop-color="#eef87e" stop-opacity="1"/><stop id="stop3246-9" offset=".262" stop-color="#cde34f" stop-opacity="1"/><stop id="stop3248-7" offset=".661" stop-color="#93b723" stop-opacity="1"/><stop id="stop3250-8" offset="1" stop-color="#5a7e0d" stop-opacity="1"/></linearGradient><linearGradient id="linearGradient2490-3"><stop id="stop2492-3" offset="0" stop-color="#365f0e" stop-opacity="1"/><stop id="stop2494-8" offset="1" stop-color="#84a718" stop-opacity="1"/></linearGradient><radialGradient id="radialGradient3338" cx="69.448" cy="51.695" r="31" fx="69.448" fy="51.695" gradientTransform="matrix(0,0.46490462,-0.50575881,0,49.573765,-14.295749)" gradientUnits="userSpaceOnUse" xlink:href="#linearGradient3242-7"/><linearGradient id="linearGradient3340" x1="72.422" x2="72.422" y1="124.756" y2="51.244" gradientTransform="matrix(0.19311403,0,0,0.19469352,8.005964,5.860099)" gradientUnits="userSpaceOnUse" xlink:href="#linearGradient2490-3"/></defs><metadata id="metadata2937"/><g id="layer1"><path id="path3281" fill="url(#radialGradient2930)" fill-opacity="1" fill-rule="evenodd" stroke="none" stroke-width="1" d="m 23.999998,25.332543 a 11.999999,4 0 1 1 -23.99999782499999,0 11.999999,4 0 1 1 23.99999782499999,0 z" display="inline" enable-background="accumulate" opacity=".3" overflow="visible" visibility="visible" style="marker:none"/><path id="path2463" fill="url(#linearGradient2874)" fill-opacity="1" fill-rule="evenodd" stroke="url(#linearGradient2876)" stroke-linecap="butt" stroke-linejoin="miter" stroke-opacity="1" stroke-width="1" d="M 15.166666,4.5000007 2.5,17.625 13.5,28.5 26.499999,15.833333 l 0,-11.3333323 -11.333333,0 z M 20.5,8.5000006 c 1.104,0 1.999999,0.896 1.999999,1.9999994 0,1.104 -0.895999,2 -1.999999,2 -1.104,0 -2,-0.896 -2,-2 0,-1.1039994 0.896,-1.9999994 2,-1.9999994 z"/><path id="path3265" fill="none" stroke="url(#linearGradient2871)" stroke-linecap="butt" stroke-linejoin="miter" stroke-opacity="1" stroke-width="1" d="M 15.606156,5.5000004 C 15.606156,5.5000004 4,17.591241 4,17.591241 c 0,0 9.5,9.525114 9.5,9.525114 0,0 12,-11.78853 12,-11.78853 0,0 0,-9.8278246 0,-9.8278246 0,0 -9.893844,0 -9.893844,0 z" opacity=".6"/><path id="path3294" fill="none" stroke="url(#linearGradient2868)" stroke-linecap="butt" stroke-linejoin="miter" stroke-opacity="1" stroke-width="1" d="m 20.491579,7.5016105 c 1.883968,-0.066433 3.437389,1.9348161 2.901167,3.7441565 -0.398183,1.775458 -2.583912,2.798657 -4.198626,1.952499 -1.662006,-0.734293 -2.241344,-3.07207 -1.102204,-4.4918193 0.553372,-0.7489857 1.467356,-1.2120498 2.399663,-1.2048362 z" opacity=".6"/><path id="path3298" fill="none" stroke="url(#linearGradient2865)" stroke-linecap="butt" stroke-linejoin="miter" stroke-opacity="1" stroke-width="1" d="m 20.666666,9.9992689 c 1.478691,-0.7829587 3.405365,-1.0228253 5.235829,-1.063652 0.822863,-0.018347 1.654592,0.1492 2.46204,-0.042853 1.027656,-0.24444 1.727978,-0.9973507 1.625532,-1.6856653 C 29.852546,6.2831466 28.611378,5.6010666 27.447319,5.1129666 26.414775,4.680012 25.620061,3.9084973 25.200071,3.09348 24.987877,2.6817027 25.358453,2.2493322 25.952862,2.1166 c 0.539995,-0.1205813 1.105576,-0.1682437 1.65506,-0.045808 0.836323,0.186349 1.823576,0.4136938 2.212627,1.0062134"/><path id="path2262" fill="url(#radialGradient3338)" fill-opacity="1" fill-rule="nonzero" stroke="url(#linearGradient3340)" stroke-dasharray="none" stroke-dashoffset="0" stroke-linecap="round" stroke-linejoin="round" stroke-miterlimit="4" stroke-opacity="1" stroke-width=".985" d="m 22.5,20.5 0,-4.021022 5,0 0,4.021022 4.007287,0 0,5 -4.007287,0 0,4.007286 -5,0 0,-4.007286 -4.007286,0 0,-5 4.007286,0 z" color="#000" display="inline" enable-background="accumulate" overflow="visible" visibility="visible" style="marker:none"/><path id="path2272" fill="none" stroke="url(#linearGradient3287)" stroke-dasharray="none" stroke-linecap="butt" stroke-linejoin="miter" stroke-miterlimit="4" stroke-opacity="1" stroke-width="1" d="m 23.5,21.5 0,-4 3,0 0,4 4.02,0 0,3 -4.02,0 0,4 -3,0 0,-4 -4,0 0,-3 4,0 z" display="inline" opacity=".4"/></g></svg>