<svg xmlns="http://www.w3.org/2000/svg" xmlns:svg="http://www.w3.org/2000/svg" xmlns:xlink="http://www.w3.org/1999/xlink" id="svg2945" width="24" height="24" version="1.1"><defs id="defs2947"><linearGradient id="linearGradient4384"><stop id="stop4386" offset="0" stop-color="#8badea" stop-opacity="1"/><stop id="stop4388" offset="1" stop-color="#fbfbfb" stop-opacity="0"/></linearGradient><linearGradient id="linearGradient4376"><stop id="stop4378" offset="0" stop-color="#2a648f" stop-opacity="1"/><stop id="stop4380" offset=".379" stop-color="#8badea" stop-opacity="1"/><stop id="stop4382" offset="1" stop-color="#2a648f" stop-opacity="1"/></linearGradient><linearGradient id="linearGradient4364"><stop id="stop4366" offset="0" stop-color="#4083c2" stop-opacity="1"/><stop id="stop4368" offset="1" stop-color="#1f4b6a" stop-opacity="1"/></linearGradient><linearGradient id="linearGradient3956"><stop id="stop3958" offset="0" stop-color="#e08223" stop-opacity="1"/><stop id="stop3960" offset=".379" stop-color="#edd563" stop-opacity="1"/><stop id="stop3962" offset="1" stop-color="#e08223" stop-opacity="1"/></linearGradient><linearGradient id="linearGradient3936"><stop id="stop3938" offset="0" stop-color="#cd8033" stop-opacity="1"/><stop id="stop3940" offset="1" stop-color="#fbfbfb" stop-opacity="0"/></linearGradient><linearGradient id="linearGradient3926"><stop id="stop3928" offset="0" stop-color="#cd8033" stop-opacity="1"/><stop id="stop3930" offset="1" stop-color="#bb5e12" stop-opacity="1"/></linearGradient><linearGradient id="linearGradient4299"><stop id="stop4301" offset="0" stop-color="#d7e866" stop-opacity="1"/><stop id="stop4303" offset="1" stop-color="#fbfbfb" stop-opacity="0"/></linearGradient><linearGradient id="linearGradient4291"><stop id="stop4293" offset="0" stop-color="#8cab2a" stop-opacity="1"/><stop id="stop4295" offset=".379" stop-color="#d7e866" stop-opacity="1"/><stop id="stop4297" offset="1" stop-color="#8cab2a" stop-opacity="1"/></linearGradient><linearGradient id="linearGradient4281"><stop id="stop4283" offset="0" stop-color="#69aa28" stop-opacity="1"/><stop id="stop4285" offset="1" stop-color="#548820" stop-opacity="1"/></linearGradient><linearGradient id="linearGradient4253"><stop id="stop4255" offset="0" stop-color="#000" stop-opacity=".351"/><stop id="stop4257" offset=".5" stop-color="#000" stop-opacity="0"/><stop id="stop4259" offset="1" stop-color="#000" stop-opacity=".106"/></linearGradient><linearGradient id="linearGradient4241"><stop id="stop4243" offset="0" stop-color="#000" stop-opacity=".271"/><stop id="stop4249" offset=".5" stop-color="#000" stop-opacity="0"/><stop id="stop4245" offset="1" stop-color="#000" stop-opacity=".271"/></linearGradient><linearGradient id="linearGradient3280"><stop id="stop3282" offset="0" stop-color="#000" stop-opacity="1"/><stop id="stop3284" offset="1" stop-color="#000" stop-opacity="0"/></linearGradient><linearGradient id="linearGradient9421"><stop id="stop9423" offset="0" stop-color="#fff" stop-opacity="1"/><stop id="stop9425" offset="1" stop-color="#fff" stop-opacity="0"/></linearGradient><filter id="filter9752" width="2.659" height="1.129" x="-.83" y="-.065" color-interpolation-filters="sRGB"><feGaussianBlur id="feGaussianBlur9754" stdDeviation="1.037"/></filter><linearGradient id="linearGradient4241-2"><stop id="stop4243-0" offset="0" stop-color="#000" stop-opacity=".271"/><stop id="stop4249-3" offset=".5" stop-color="#000" stop-opacity="0"/><stop id="stop4245-2" offset="1" stop-color="#000" stop-opacity=".271"/></linearGradient><linearGradient id="linearGradient4253-9"><stop id="stop4255-7" offset="0" stop-color="#000" stop-opacity=".106"/><stop id="stop4257-5" offset=".5" stop-color="#000" stop-opacity="0"/><stop id="stop4259-1" offset="1" stop-color="#000" stop-opacity=".106"/></linearGradient><linearGradient id="linearGradient9421-2"><stop id="stop9423-1" offset="0" stop-color="#fff" stop-opacity="1"/><stop id="stop9425-3" offset="1" stop-color="#fff" stop-opacity="0"/></linearGradient><filter id="filter9752-2" width="2.659" height="1.129" x="-.83" y="-.065" color-interpolation-filters="sRGB"><feGaussianBlur id="feGaussianBlur9754-7" stdDeviation="1.037"/></filter><linearGradient id="linearGradient10367"><stop id="stop10369" offset="0" stop-color="#fff" stop-opacity="1"/><stop id="stop10371" offset="1" stop-color="#204a87" stop-opacity="1"/></linearGradient><radialGradient id="radialGradient7311" cx="550.625" cy="221.125" r="2.75" fx="550.625" fy="221.125" gradientTransform="matrix(0.13839531,0,0,0.13775173,-67.758232,-14.061022)" gradientUnits="userSpaceOnUse" xlink:href="#linearGradient10367"/><radialGradient id="radialGradient7314" cx="550.625" cy="221.125" r="2.75" fx="550.625" fy="221.125" gradientTransform="matrix(0.13839531,0,0,0.13775173,-67.636884,-15.570801)" gradientUnits="userSpaceOnUse" xlink:href="#linearGradient10367"/><radialGradient id="radialGradient7317" cx="550.625" cy="221.125" r="2.75" fx="550.625" fy="221.125" gradientTransform="matrix(0.13839531,0,0,0.13775173,-58.050503,-10.195987)" gradientUnits="userSpaceOnUse" xlink:href="#linearGradient10367"/><radialGradient id="radialGradient7320" cx="550.625" cy="221.125" r="2.75" fx="550.625" fy="221.125" gradientTransform="matrix(0.13839531,0,0,0.13775173,-57.346878,-10.739508)" gradientUnits="userSpaceOnUse" xlink:href="#linearGradient10367"/><radialGradient id="radialGradient7323" cx="550.625" cy="221.125" r="2.75" fx="550.625" fy="221.125" gradientTransform="matrix(0.13839531,0,0,0.13775173,-61.933594,-10.195987)" gradientUnits="userSpaceOnUse" xlink:href="#linearGradient10367"/><radialGradient id="radialGradient7326" cx="550.625" cy="221.125" r="2.75" fx="550.625" fy="221.125" gradientTransform="matrix(0.13839531,0,0,0.13775173,-70.088271,-15.993539)" gradientUnits="userSpaceOnUse" xlink:href="#linearGradient10367"/><radialGradient id="radialGradient7329" cx="550.625" cy="221.125" r="2.75" fx="550.625" fy="221.125" gradientTransform="matrix(0.13839531,0,0,0.13775173,-59.40977,-10.195987)" gradientUnits="userSpaceOnUse" xlink:href="#linearGradient10367"/><radialGradient id="radialGradient7332" cx="550.625" cy="221.125" r="2.75" fx="550.625" fy="221.125" gradientTransform="matrix(0.13839531,0,0,0.13775173,-62.200741,-10.739508)" gradientUnits="userSpaceOnUse" xlink:href="#linearGradient10367"/><linearGradient id="linearGradient7338" x1="20.007" x2="23.5" y1="20.094" y2="47.798" gradientTransform="matrix(0.39830718,0,0,0.34533329,7.4279323,3.4960017)" gradientUnits="userSpaceOnUse" xlink:href="#linearGradient4364"/><linearGradient id="linearGradient7342" x1="13.776" x2="32.697" y1="44.446" y2="43.446" gradientTransform="matrix(0.30868148,0,0,0.45290127,9.440781,-1.824696)" gradientUnits="userSpaceOnUse" xlink:href="#linearGradient4384"/><linearGradient id="linearGradient7345" x1="15" x2="32" y1="23" y2="23" gradientTransform="matrix(0.42340875,0,0,0.40620388,6.4971586,4.1711317)" gradientUnits="userSpaceOnUse" xlink:href="#linearGradient4253"/><linearGradient id="linearGradient7348" x1="15" x2="32" y1="23" y2="23" gradientTransform="matrix(0.40098747,0,0,0.3475242,7.1856801,5.4006061)" gradientUnits="userSpaceOnUse" xlink:href="#linearGradient4376"/><linearGradient id="linearGradient7350" x1="18.805" x2="26.856" y1="5.8" y2="43.218" gradientTransform="matrix(0.40098747,0,0,0.3475242,7.1856801,5.4006061)" gradientUnits="userSpaceOnUse" xlink:href="#linearGradient4364"/><linearGradient id="linearGradient7354" x1="15" x2="32" y1="23" y2="23" gradientTransform="matrix(0.45617214,0,0,0.42355858,5.7799123,2.7985432)" gradientUnits="userSpaceOnUse" xlink:href="#linearGradient4241"/><radialGradient id="radialGradient7357" cx="21.344" cy="14.125" r="11.969" fx="21.344" fy="14.125" gradientTransform="matrix(0.54308121,0,0,0.24558719,-4.0913833,17.031121)" gradientUnits="userSpaceOnUse" xlink:href="#linearGradient3280"/><radialGradient id="radialGradient7360" cx="550.625" cy="221.125" r="2.75" fx="550.625" fy="221.125" gradientTransform="matrix(0.13839531,0,0,0.13775173,-69.699778,-12.128505)" gradientUnits="userSpaceOnUse" xlink:href="#linearGradient10367"/><radialGradient id="radialGradient7364" cx="550.625" cy="221.125" r="2.75" fx="550.625" fy="221.125" gradientTransform="matrix(0.13839531,0,0,0.13775173,-69.578431,-13.638284)" gradientUnits="userSpaceOnUse" xlink:href="#linearGradient10367"/><linearGradient id="linearGradient7367" x1="718.5" x2="718.5" y1="56.875" y2="110.925" gradientTransform="translate(-696.9706,-54.49978)" gradientUnits="userSpaceOnUse" xlink:href="#linearGradient9421-2"/><linearGradient id="linearGradient7371" x1="22" x2="29.624" y1="27.732" y2="61.085" gradientTransform="matrix(0.46905226,0,0,0.34530254,-2.319223,-4.5027533)" gradientUnits="userSpaceOnUse" xlink:href="#linearGradient3926"/><linearGradient id="linearGradient7375" x1="13.776" x2="32.697" y1="44.446" y2="43.446" gradientTransform="matrix(0.39171062,0,0,0.45290127,-1.0481545,-9.816067)" gradientUnits="userSpaceOnUse" xlink:href="#linearGradient3936"/><linearGradient id="linearGradient7378" x1="15" x2="32" y1="23" y2="23" gradientTransform="matrix(0.42105266,0,0,0.43882559,-1.052632,0.80587221)" gradientUnits="userSpaceOnUse" xlink:href="#linearGradient4253-9"/><radialGradient id="radialGradient7381" cx="550.625" cy="221.125" r="2.75" fx="550.625" fy="221.125" gradientTransform="matrix(0.27679057,0,0,0.27550343,-144.23902,-48.278654)" gradientUnits="userSpaceOnUse" xlink:href="#linearGradient10367"/><linearGradient id="linearGradient7384" x1="15" x2="32" y1="23" y2="23" gradientTransform="matrix(0.46903985,0,0,0.42467155,-2.3189449,1.0446951)" gradientUnits="userSpaceOnUse" xlink:href="#linearGradient3956"/><linearGradient id="linearGradient7386" x1="18.805" x2="26.856" y1="5.8" y2="43.218" gradientTransform="matrix(0.46903985,0,0,0.42467155,-2.3189449,1.0446951)" gradientUnits="userSpaceOnUse" xlink:href="#linearGradient3926"/><linearGradient id="linearGradient7390" x1="15" x2="32" y1="23" y2="23" gradientTransform="matrix(0.47458577,0,0,0.44348434,-2.4315682,0.8708699)" gradientUnits="userSpaceOnUse" xlink:href="#linearGradient4241-2"/><linearGradient id="linearGradient7397" x1="718.251" x2="718.5" y1="65.346" y2="110.925" gradientTransform="translate(-679.65702,-63.585216)" gradientUnits="userSpaceOnUse" xlink:href="#linearGradient9421"/><linearGradient id="linearGradient7401" x1="22" x2="29.624" y1="27.732" y2="61.085" gradientTransform="matrix(0.44805852,0,0,0.17404515,5.9851741,1.0330351)" gradientUnits="userSpaceOnUse" xlink:href="#linearGradient4281"/><linearGradient id="linearGradient7405" x1="13.776" x2="32.697" y1="44.446" y2="43.446" gradientTransform="matrix(0.48832422,0,0,0.45290127,4.8402749,-11.487282)" gradientUnits="userSpaceOnUse" xlink:href="#linearGradient4299"/><linearGradient id="linearGradient7408" x1="15" x2="32" y1="23" y2="23" gradientTransform="matrix(0.39130366,0,0,0.42673368,7.3043558,-2.723919)" gradientUnits="userSpaceOnUse" xlink:href="#linearGradient4253"/><linearGradient id="linearGradient7411" x1="15" x2="32" y1="23" y2="23" gradientTransform="matrix(0.44805339,0,0,0.38192868,5.9853409,-2.0959899)" gradientUnits="userSpaceOnUse" xlink:href="#linearGradient4291"/><linearGradient id="linearGradient7413" x1="18.805" x2="26.856" y1="5.8" y2="43.218" gradientTransform="matrix(0.44805339,0,0,0.38192868,5.9853409,-2.0959899)" gradientUnits="userSpaceOnUse" xlink:href="#linearGradient4281"/><linearGradient id="linearGradient7417" x1="15" x2="32" y1="23" y2="23" gradientTransform="matrix(0.45351227,0,0,0.43489748,5.8717154,-3.7293563)" gradientUnits="userSpaceOnUse" xlink:href="#linearGradient4241"/><linearGradient id="linearGradient7422" x1="718.251" x2="718.5" y1="65.346" y2="110.925" gradientTransform="translate(-629.65702,-79.585216)" gradientUnits="userSpaceOnUse" xlink:href="#linearGradient9421"/><radialGradient id="radialGradient7428" cx="21.344" cy="14.125" r="11.969" fx="21.344" fy="14.125" gradientTransform="matrix(0.58485669,0,0,0.17543169,4.5169718,19.022231)" gradientUnits="userSpaceOnUse" xlink:href="#linearGradient3280"/><radialGradient id="radialGradient7432" cx="21.344" cy="14.125" r="11.969" fx="21.344" fy="14.125" gradientTransform="matrix(0.62663217,0,0,0.24560437,3.1253269,12.031123)" gradientUnits="userSpaceOnUse" xlink:href="#linearGradient3280"/></defs><path d="M 24,15.500286 C 22.961305,18.705636 19.094522,18.901707 16.5,19 13.846872,18.866427 10.110792,18.712939 9,15.500286 10.037911,12.294336 13.905536,12.098302 16.5,12 c 2.653053,0.133616 6.390018,0.286986 7.5,3.500286 z" style="marker:none" id="path7430" fill="url(#radialGradient7432)" fill-opacity="1" fill-rule="nonzero" stroke="none" stroke-width="1" color="#000" display="inline" opacity=".5" overflow="visible" visibility="visible"/><path d="M 24,21.500204 C 23.030551,23.78974 19.421554,23.929791 17,24 14.523747,23.904591 11.036739,23.794957 10,21.500204 10.968717,19.21024 14.5785,19.070216 17,19 c 2.476183,0.09544 5.964017,0.20499 7,2.500204 z" style="marker:none" id="path7426" fill="url(#radialGradient7428)" fill-opacity="1" fill-rule="nonzero" stroke="none" stroke-width="1" color="#000" display="inline" opacity=".5" overflow="visible" visibility="visible"/><path d="M 14,20.500041 C 13.099797,23.705167 9.7485862,23.901225 7.5,23.99951 5.2006215,23.865947 1.9626855,23.71247 1,20.500041 1.8995231,17.294315 5.2514632,17.098295 7.5,17 c 2.2993133,0.133607 5.538016,0.286966 6.5,3.500041 z" style="marker:none" id="path4302" fill="url(#radialGradient7357)" fill-opacity="1" fill-rule="nonzero" stroke="none" stroke-width="1" color="#000" display="inline" opacity=".5" overflow="visible" visibility="visible"/><path id="path7434" fill="#fff" fill-opacity="1" stroke="none" d="m 13,20.000316 a 5,2 0 0 1 -9.9999999,0 5,2 0 1 1 9.9999999,0 z" opacity=".9"/><path id="path8212" fill="#fff" fill-opacity="1" stroke="none" d="m 22,14.500158 a 5.5,2.500158 0 0 1 -11,0 5.5,2.500158 0 1 1 11,0 z" opacity=".9"/><path id="path2957" fill="url(#linearGradient7417)" fill-opacity="1" stroke="#454545" stroke-linecap="butt" stroke-linejoin="round" stroke-opacity="1" stroke-width=".964" d="m 11.54062,4.1210333 0,10.6327537 c -0.0085,1.056301 2.810084,1.764121 4.988634,1.764121 2.21905,0 4.997091,-0.746658 4.988635,-1.764121 l 0,-10.6327537 C 21.48585,3.2977591 20.000128,2.5061458 16.529254,2.4837117 12,2.4545562 8.4910553,4 11.54062,4.1210333 z" opacity=".6"/><path id="path4265" fill="url(#linearGradient7411)" fill-opacity="1" stroke="url(#linearGradient7413)" stroke-linecap="butt" stroke-linejoin="miter" stroke-opacity="1" stroke-width=".964" d="m 12.482116,7.9723228 0,5.3997992 c -0.0084,0.927648 2.240266,1.145786 4.03248,1.145786 1.792213,0 4.040834,-0.252245 4.03248,-1.145786 l 0,-5.3997992 C 20.515426,7.2493193 18.306809,7.057816 16.514596,7.057816 c -1.792214,0 -4.040836,0.1573957 -4.03248,0.9145068 z"/><path id="path4251" fill="url(#linearGradient7408)" fill-opacity="1" stroke="none" d="m 12,4 0,10.280847 c -0.0074,1.265125 2.934777,1.714859 4.499992,1.714859 1.565214,0 4.507288,-0.373515 4.499992,-1.714859 L 20.999984,4 c 0.0074,0.8308534 -3.144445,1.3492998 -4.70966,1.3492998 C 14.72511,5.3492998 11.992703,4.8689632 12,4 z"/><path id="path4271" fill="url(#linearGradient7405)" fill-opacity="1" stroke="none" d="m 20.304383,8.189255 a 4.1257846,0.97069316 0 0 1 -8.251569,0 4.1257846,0.97069316 0 1 1 8.251569,0 z"/><path id="path4417" fill="none" stroke="url(#linearGradient7401)" stroke-dasharray="none" stroke-linecap="round" stroke-linejoin="miter" stroke-miterlimit="4" stroke-opacity="1" stroke-width=".964" d="M 12.482023,8.0818639 C 12.473623,8.5045911 14.722315,8.604 16.51455,8.604 c 1.792233,0 4.04088,-0.1150149 4.032526,-0.522136"/><path id="path4440" fill="none" stroke="#585858" stroke-linecap="round" stroke-linejoin="round" stroke-opacity="1" stroke-width=".964" d="M 21.218,3.4820926 C 21.18577,4.5057353 20,5.517908 16.500008,5.517908 13,5.517908 11.473602,4.5540255 11.482109,3.4820926" opacity=".6"/><rect id="rect9419" width="3.247" height="19.72" x="37.096" y="10.695" fill="url(#linearGradient7397)" fill-opacity="1" stroke="none" display="inline" enable-background="new" filter="url(#filter9752)" rx="1.163" ry="1.921" transform="matrix(0.48538642,0,0,0.48312926,-0.08184715,1.0187)"/><path id="path2957-3" fill="url(#linearGradient7390)" fill-opacity="1" stroke="#454545" stroke-linecap="butt" stroke-linejoin="round" stroke-opacity="1" stroke-width=".964" d="m 3.5009019,3.1517438 0,16.5672112 c -0.00886,1.077157 1.9913426,1.798953 4.2711246,1.798953 2.3221625,0 4.7547065,-0.761401 4.7458575,-1.798953 l 0,-16.5672112 C 12.484357,2.3122134 11,1.482093 7.7720265,1.482093 4,1.482093 1,3 3.5009019,3.1517438 z" opacity=".6"/><path id="path4265-3" fill="url(#linearGradient7384)" fill-opacity="1" stroke="url(#linearGradient7386)" stroke-linecap="butt" stroke-linejoin="miter" stroke-opacity="1" stroke-width=".964" d="m 4.4821327,9.4989445 0,8.7449475 c -0.00876,1.031465 1.4071196,1.274016 3.2832797,1.274016 1.8761579,0 3.7612096,-0.280475 3.7524646,-1.274016 l 0,-8.7449475 C 11,9 10,8.4820923 7.7654124,8.4820923 6,8.4820923 5,9 4.4821327,9.4989445 z"/><path id="path10450" fill="url(#radialGradient7381)" fill-opacity="1" stroke="none" d="m 8.6983078,12.378518 a 0.72808,0.72469425 0 0 1 -1.45616,0 0.72808,0.72469425 0 1 1 1.45616,0 z" display="inline" enable-background="new" opacity=".6"/><path id="path4251-8" fill="url(#linearGradient7378)" fill-opacity="1" stroke="none" d="M 4,3 4,19.236548 C 3.99214,20.537521 7.1578949,21 8.8421058,21 10.526317,21 12.007853,20.6159 12,19.236548 L 12,3 C 12.007894,3.8543974 10.300708,4.3875336 8.616498,4.3875336 6.932287,4.3875336 3.9921491,3.8935861 4,3 z"/><path id="path4271-6" fill="url(#linearGradient7375)" fill-opacity="1" stroke="none" d="m 11.356422,9.860471 a 3.3095095,0.97069319 0 0 1 -6.6190189,0 3.3095095,0.97069319 0 1 1 6.6190189,0 z"/><path id="path4417-6" fill="none" stroke="url(#linearGradient7371)" stroke-dasharray="none" stroke-linecap="round" stroke-linejoin="miter" stroke-miterlimit="4" stroke-opacity="1" stroke-width=".964" d="M 4.4820346,9.482 C 5,10 6,10.473806 8.000073,10.518 9.9995368,10.561042 11,10 11.517965,9.4820769"/><path id="path4440-0" fill="none" stroke="#686868" stroke-linecap="round" stroke-linejoin="round" stroke-opacity="1" stroke-width=".964" d="m 12.517908,3.4821359 c -0.03361,0.5208046 -2.8534555,1.0357717 -4.755757,1.0357717 -1.9023036,0 -4.2889014,-0.4904417 -4.2800339,-1.0358152" opacity=".6"/><rect id="rect9419-9" width="3.87" height="30.557" x="19.16" y="8.943" fill="url(#linearGradient7367)" fill-opacity="1" stroke="none" display="inline" enable-background="new" filter="url(#filter9752-2)" rx="2.446" ry="1.921" transform="matrix(0.48538642,0,0,0.48312926,-0.08184715,1.0187)"/><path id="path10456" fill="url(#radialGradient7364)" fill-opacity="1" stroke="none" d="m 6.8902451,16.690308 a 0.36403985,0.36234699 0 0 1 -0.7280796,0 0.36403985,0.36234699 0 1 1 0.7280796,0 z" display="inline" enable-background="new" opacity=".7"/><path id="path10458" fill="url(#radialGradient7360)" fill-opacity="1" stroke="none" d="m 6.7688986,18.200087 a 0.36403985,0.36234699 0 0 1 -0.7280797,0 0.36403985,0.36234699 0 1 1 0.7280797,0 z" display="inline" enable-background="new" opacity=".7"/><path id="path8210" fill="#fff" fill-opacity="1" stroke="none" d="m 22,20.500158 a 5.5,2.500158 0 0 1 -11,0 5.5,2.500158 0 1 1 11,0 z" opacity=".9"/><path id="path4304" fill="url(#linearGradient7354)" fill-opacity="1" stroke="#454545" stroke-linecap="butt" stroke-linejoin="round" stroke-opacity="1" stroke-width=".964" d="m 15.131442,8.6218145 -0.0015,2.0952805 -3.647826,10.082688 c -0.0086,1.028761 2.826565,1.718125 5.017893,1.718125 2.232065,0 5.026399,-0.727189 5.017894,-1.718125 l -3.64781,-10.082688 -0.0015,-2.0952805 C 18.081875,8.1037824 18,7.5055616 16.500077,7.4828319 14.999969,7.4600157 13,7.9679054 15.131561,8.6218145 l -1.19e-4,0 z" opacity=".6"/><path id="path4308" fill="url(#linearGradient7348)" fill-opacity="1" stroke="url(#linearGradient7350)" stroke-linecap="butt" stroke-linejoin="miter" stroke-opacity="1" stroke-width=".964" d="M 13.801973,17.552529 13,19.475336 c -0.0076,0.844084 2.004935,1.042572 3.608886,1.042572 1.603949,0 3.616363,-0.229523 3.608887,-1.042572 l -0.801975,-1.922807 c -0.02834,-0.657874 -1.202963,-0.832127 -2.806912,-0.832127 -1.603951,0 -2.814389,0.143217 -2.806913,0.832127 z"/><path id="path4310" fill="url(#linearGradient7345)" fill-opacity="1" stroke="none" d="m 15.442942,11.224728 -3.442924,9.731815 C 13,22 14.753629,21.990171 16.447265,21.990171 18.140899,21.990171 20,22 21,20.902112 l -3.334526,-9.622954 c 0.06063,-0.896449 -0.236994,-1.1138 -1.339592,-1.273827 -0.375029,-0.054426 -0.996323,0.304793 -0.88294,1.219397 z"/><path id="path4312" fill="url(#linearGradient7342)" fill-opacity="1" stroke="none" d="m 19.216015,17.851841 c -0.61006,1.018004 -1.751128,0.9448 -2.608007,0.970692 -0.890722,-0.05119 -1.95653,0.03088 -2.608008,-0.970692 0.610061,-1.018005 1.751129,-0.9448 2.608008,-0.970694 0.890721,0.05119 1.956529,-0.03088 2.608007,0.970694 z"/><path id="path4316" fill="none" stroke="url(#linearGradient7338)" stroke-dasharray="none" stroke-linecap="round" stroke-linejoin="miter" stroke-miterlimit="4" stroke-opacity="1" stroke-width=".964" d="M 14,17.482 C 14,18 15.194922,18.518 16.788151,18.518 18.38138,18.518 19,18 19.476,17.482"/><path id="path4318" fill="none" stroke="#585858" stroke-linecap="butt" stroke-linejoin="round" stroke-opacity="1" stroke-width=".964" d="M 17.918,8.5820925 C 17.89403,9.4913405 16.884628,9.5977907 16.500027,9.6154572 16.030939,9.6370052 15.075673,9.5342362 15.082,8.5820925" opacity=".6"/><rect id="rect4320" width="5.34" height="19.334" x="85.003" y="-4.919" fill="url(#linearGradient7422)" fill-opacity="1" stroke="none" display="inline" enable-background="new" filter="url(#filter9752)" rx="1.579" ry="1.943" transform="matrix(0.33233349,-0.12049101,0.08558745,0.46786301,-11.985635,25.239873)"/><path id="path4326" fill="url(#radialGradient7332)" fill-opacity="1" stroke="none" d="m 14.267935,19.589084 a 0.36404005,0.36234718 0 0 1 -0.72808,0 0.36404005,0.36234718 0 1 1 0.72808,0 z" display="inline" enable-background="new" opacity=".7"/><path id="path4328" fill="url(#radialGradient7329)" fill-opacity="1" stroke="none" d="m 17.058907,20.132605 a 0.36404005,0.36234718 0 0 1 -0.72808,0 0.36404005,0.36234718 0 1 1 0.72808,0 z" display="inline" enable-background="new" opacity=".7"/><path id="path4360" fill="url(#radialGradient7326)" fill-opacity="1" stroke="none" d="m 6.3804049,14.335053 a 0.36403984,0.36234698 0 0 1 -0.7280795,0 0.36403984,0.36234698 0 1 1 0.7280795,0 z" display="inline" enable-background="new" opacity=".7"/><path id="path4390" fill="url(#radialGradient7323)" fill-opacity="1" stroke="none" d="m 14.535082,20.132605 a 0.3640405,0.36234763 0 0 1 -0.728081,0 0.3640405,0.36234763 0 1 1 0.728081,0 z" display="inline" enable-background="new" opacity=".7"/><path id="path4394" fill="url(#radialGradient7320)" fill-opacity="1" stroke="none" d="m 19.121798,19.589084 a 0.36403985,0.36234699 0 0 1 -0.728079,0 0.36403985,0.36234699 0 1 1 0.728079,0 z" display="inline" enable-background="new" opacity=".7"/><path id="path4396" fill="url(#radialGradient7317)" fill-opacity="1" stroke="none" d="m 18.418173,20.132605 a 0.36404005,0.36234718 0 0 1 -0.728079,0 0.36404005,0.36234718 0 1 1 0.728079,0 z" display="inline" enable-background="new" opacity=".7"/><path id="path2961" fill="url(#radialGradient7314)" fill-opacity="1" stroke="none" d="m 8.8317908,14.757792 a 0.36404,0.36234713 0 0 1 -0.72808,0 0.36404,0.36234713 0 1 1 0.72808,0 z" display="inline" enable-background="new" opacity=".7"/><path id="path2963" fill="url(#radialGradient7311)" fill-opacity="1" stroke="none" d="m 8.7104438,16.26757 a 0.36403984,0.36234698 0 0 1 -0.728079,0 0.36403984,0.36234698 0 1 1 0.728079,0 z" display="inline" enable-background="new" opacity=".7"/></svg>