<svg xmlns="http://www.w3.org/2000/svg" xmlns:svg="http://www.w3.org/2000/svg" xmlns:xlink="http://www.w3.org/1999/xlink" id="svg3138" width="24" height="24" version="1.1"><defs id="defs3140"><linearGradient id="linearGradient6945" x1="6.36" x2="18" y1="2.568" y2="41.976" gradientTransform="translate(10,0)" gradientUnits="userSpaceOnUse" xlink:href="#linearGradient6939"/><linearGradient id="linearGradient6939"><stop id="stop6941" offset="0" stop-color="#babdb6" stop-opacity="1"/><stop id="stop7051" offset=".247" stop-color="#ededed" stop-opacity="1"/><stop id="stop7053" offset=".534" stop-color="#b6b9b1" stop-opacity="1"/><stop id="stop7049" offset=".832" stop-color="#e9eae8" stop-opacity="1"/><stop id="stop6943" offset="1" stop-color="#b5b9b2" stop-opacity="1"/></linearGradient><linearGradient id="linearGradient6937" x1="15.563" x2="15.563" y1="18.873" y2="22.003" gradientTransform="translate(1,0)" gradientUnits="userSpaceOnUse" xlink:href="#linearGradient6931"/><linearGradient id="linearGradient6931"><stop id="stop6933" offset="0" stop-color="#a1a29e" stop-opacity="1"/><stop id="stop6935" offset="1" stop-color="#888a85" stop-opacity="0"/></linearGradient><linearGradient id="linearGradient7039" x1="12.688" x2="12.688" y1="17.55" y2="23.322" gradientTransform="translate(10,-1)" gradientUnits="userSpaceOnUse" xlink:href="#linearGradient6958"/><linearGradient id="linearGradient6958"><stop id="stop6960" offset="0" stop-color="#fff" stop-opacity="1"/><stop id="stop6962" offset="1" stop-color="#fff" stop-opacity="0"/></linearGradient><linearGradient id="linearGradient6961" x1="9.016" x2="22.226" y1="8.177" y2="34.39" gradientTransform="translate(10,0)" gradientUnits="userSpaceOnUse" xlink:href="#linearGradient6955"/><linearGradient id="linearGradient6955"><stop id="stop6957" offset="0" stop-color="#fff" stop-opacity="1"/><stop id="stop6959" offset="1" stop-color="#fff" stop-opacity="0"/></linearGradient><linearGradient id="linearGradient6976" x1="3.801" x2="3.801" y1="9.581" y2="7.998" gradientTransform="translate(-1,-2)" gradientUnits="userSpaceOnUse" xlink:href="#linearGradient6970"/><linearGradient id="linearGradient6970"><stop id="stop6972" offset="0" stop-color="#fff" stop-opacity="1"/><stop id="stop6974" offset="1" stop-color="#eeeeec" stop-opacity="0"/></linearGradient><linearGradient id="linearGradient6984" x1="3.712" x2="3.712" y1="3.527" y2="5.011" gradientTransform="translate(-1,0)" gradientUnits="userSpaceOnUse" xlink:href="#linearGradient6978"/><linearGradient id="linearGradient6978"><stop id="stop6980" offset="0" stop-color="#babdb6" stop-opacity="1"/><stop id="stop6982" offset="1" stop-color="#555753" stop-opacity="0"/></linearGradient><linearGradient id="linearGradient7071" x1="20.462" x2="20.462" y1="15.327" y2="11.747" gradientTransform="matrix(1,0,0,0.75,7,2.875)" gradientUnits="userSpaceOnUse" xlink:href="#linearGradient7065"/><linearGradient id="linearGradient7065"><stop id="stop7067" offset="0" stop-color="#888a85" stop-opacity="1"/><stop id="stop7073" offset=".704" stop-color="#cfd0ce" stop-opacity="1"/><stop id="stop7069" offset="1" stop-color="#888a85" stop-opacity="1"/></linearGradient><linearGradient id="linearGradient7043" x1="12.688" x2="12.688" y1="17.55" y2="21.501" gradientTransform="matrix(0.5,0,0,1,14.5,-4)" gradientUnits="userSpaceOnUse" xlink:href="#linearGradient7033"/><linearGradient id="linearGradient7033"><stop id="stop7035" offset="0" stop-color="#000" stop-opacity="1"/><stop id="stop7037" offset="1" stop-color="#000" stop-opacity="0"/></linearGradient><linearGradient id="linearGradient7047" x1="12.688" x2="12.688" y1="17.55" y2="21.501" gradientTransform="matrix(0.5,0,0,1,18.5,-4)" gradientUnits="userSpaceOnUse" xlink:href="#linearGradient7033"/><linearGradient id="linearGradient6967"><stop id="stop6969" offset="0" stop-color="#fff" stop-opacity="1"/><stop id="stop6971" offset="1" stop-color="#fff" stop-opacity="0"/></linearGradient><linearGradient id="linearGradient3132" x1="6.36" x2="18" y1="2.568" y2="41.976" gradientTransform="translate(10,0)" gradientUnits="userSpaceOnUse" xlink:href="#linearGradient6939"/><linearGradient id="linearGradient3134" x1="15.563" x2="15.563" y1="18.873" y2="22.003" gradientTransform="translate(1,0)" gradientUnits="userSpaceOnUse" xlink:href="#linearGradient6931"/><linearGradient id="linearGradient3136" x1="9.531" x2="11.157" y1="17.563" y2="17.563" gradientTransform="translate(0,-1)" gradientUnits="userSpaceOnUse" xlink:href="#linearGradient6967"/></defs><g id="layer1" transform="translate(0,-8)"><g id="g22" display="inline" transform="translate(1,8)"><path id="path6950" fill="url(#linearGradient3132)" fill-opacity="1" fill-rule="evenodd" stroke="url(#linearGradient3134)" stroke-linecap="butt" stroke-linejoin="miter" stroke-opacity="1" stroke-width="1" d="m 16.5,0.5 -6,0 C 8.4651474,0.5 1.4722718,1.5277282 1.4722718,1.5277282 0.6034698,2.0293312 0.5,2.9407971 0.5,4.5 l 11,0 5,1.03125 c 2.257372,0 5,-1.4980165 5,-3.03125 l -5,0 0,-2 z"/><path id="path5979" fill="#babdb6" fill-opacity="1" fill-rule="evenodd" stroke="#888a85" stroke-dasharray="none" stroke-linecap="round" stroke-linejoin="miter" stroke-miterlimit="10" stroke-opacity="1" stroke-width="1" d="m 0.5,6.5 c 0,1.559203 0.0999481,2.467147 0.96875,2.96875 L 10,10.5 c 0.373164,0.185835 0.5,0.5 0.5,1 l 0,6 2,0 0,-11 -12,0 z m 15,0 0,11 2,0 0,-11 -2,0 z"/><path id="path206" fill="#babdb6" fill-rule="evenodd" stroke="#888a85" stroke-linecap="butt" stroke-linejoin="miter" stroke-opacity="1" stroke-width="1" d="m 17.5,6.5 4,0 c 0,-1.309637 -2.222373,-2.6533694 -4,-3 l 0,3 z"/><rect id="rect208" width="4" height="2" x="16.5" y="11.5" fill="#eeeeec" fill-opacity="1" fill-rule="evenodd" stroke="#babdb6" stroke-dasharray="none" stroke-linecap="round" stroke-linejoin="miter" stroke-miterlimit="10" stroke-opacity="1" stroke-width="1" rx="0" ry="0"/><path id="path210" fill="url(#linearGradient6945)" fill-opacity="1" fill-rule="evenodd" stroke="url(#linearGradient6937)" stroke-linecap="butt" stroke-linejoin="miter" stroke-opacity="1" stroke-width="1" d="m 16.5,0.5 -6,0 C 8.4651474,0.5 1.4722718,1.5277282 1.4722718,1.5277282 0.6034698,2.0293312 0.5,2.9407971 0.5,4.5 l 11,0 0,19 5,0 0,-17.96875 c 2.257372,0 5,-1.4980165 5,-3.03125 l -5,0 0,-2 z"/><path id="path212" fill="url(#linearGradient7039)" fill-opacity="1" fill-rule="evenodd" stroke="none" d="m 12,8 0,1 3,0 0,-1 -3,0 z m 0,2 0,1 2,0 0,-1 -2,0 z m 0,2 0,1 3,0 0,-1 -3,0 z m 0,2 0,1 2,0 0,-1 -2,0 z m 0,2 0,1 3,0 0,-1 -3,0 z m 0,2 0,1 2,0 0,-1 -2,0 z m 0,2 0,1 3,0 0,-1 -3,0 z" opacity=".694"/><path id="path214" fill="none" stroke="url(#linearGradient6961)" stroke-linecap="butt" stroke-linejoin="miter" stroke-opacity="1" stroke-width="1" d="m 10.5,1.46875 c -1.9657567,0.2058833 -6.3280478,0.729474 -8.53125,1.0625 -0.4787855,0.2498717 -0.403901,0.4525177 -0.4375,1 l 9.96875,0 C 12.034202,3.53323 12.466765,3.9657983 12.46875,4.5 l 0,19.03125 3.0625,-1 0,-17 C 15.53325,4.9970483 15.965798,4.5644846 16.5,4.5625 c 0.913616,0 2.029559,-0.3362164 2.84375,-0.8125 0.187767,-0.1098394 0.140807,-0.1658019 0.28125,-0.28125 l -3.125,0 C 15.965798,3.4667654 15.533235,3.0342017 15.53125,2.5 l 0,-1.03125 -5.03125,0 z" opacity=".78"/><path id="path216" fill="#babdb6" fill-opacity="1" fill-rule="evenodd" stroke="#888a85" stroke-dasharray="none" stroke-linecap="round" stroke-linejoin="miter" stroke-miterlimit="10" stroke-opacity="1" stroke-width="1" d="m 0.5,6.5 c 0,1.559203 0.0999481,2.467147 0.96875,2.96875 L 10,10.5 c 0.373164,0.185835 0.5,0.5 0.5,1 l 0,4 -1,0 c -0.554,0 -1,0.446 -1,1 0,0.554 0.446,1 1,1 l 1,0 2,0 0,-11 -12,0 z m 15,0 0,11 2,0 0,-11 -2,0 z"/><g id="g218" opacity=".627" transform="translate(1,-1)"><path id="path220" fill="none" stroke="#fff" stroke-linecap="butt" stroke-linejoin="miter" stroke-opacity="1" stroke-width="1" d="m 0.515625,8.5 c 0,0.5073099 0.1649948,0.8023 0.546875,1 3.272305,0.573037 9.326061,0.613478 9.21875,1.9375 C 10.452659,11.79686 10.5,13.165442 10.5,13.5 l 0,-5 -9.984375,0 z"/><path id="path222" fill="none" stroke="#fff" stroke-linecap="butt" stroke-linejoin="miter" stroke-opacity="1" stroke-width="1" d="m 10.5,18 0,-5.5"/><path id="path224" fill="none" stroke="#fff" stroke-linecap="butt" stroke-linejoin="miter" stroke-opacity="1" stroke-width="1" d="m 15.5,18 0,-9"/></g><path id="path226" fill="url(#linearGradient6976)" fill-opacity="1" fill-rule="evenodd" stroke="none" d="M 5,6 5,7.03125 C 5,7.5679375 4.5679375,8 4.03125,8 L 1.6417354,8 C 1.6417354,8 1,7.5399631 1,7.03125 L 1,6 5,6 z"/><path id="path228" fill="url(#linearGradient6984)" fill-opacity="1" fill-rule="evenodd" stroke="none" d="M 5,5 5,3.96875 C 5,3.4320625 4.5679375,3 4.03125,3 L 1.6104854,3 C 1.6104854,3 1,3.4600369 1,3.96875 L 1,5 5,5 z"/><rect id="rect230" width="2" height="4" x="19.5" y="10.5" fill="#eeeeec" fill-opacity="1" fill-rule="evenodd" stroke="url(#linearGradient7071)" stroke-dasharray="none" stroke-linecap="round" stroke-linejoin="miter" stroke-miterlimit="10" stroke-opacity="1" stroke-width="1" rx=".483" ry=".483"/><rect id="rect232" width="1" height="1" x="20" y="12" fill="#000" fill-opacity="1" fill-rule="evenodd" stroke="none" opacity=".213"/><path id="path234" fill="url(#linearGradient7043)" fill-opacity="1" fill-rule="evenodd" stroke="none" d="m 11,9 0,1 1,0 0,-1 -1,0 z m 0,2 0,1 1,0 0,-1 -1,0 z m 0,2 0,1 1,0 0,-1 -1,0 z m 0,2 0,1 1,0 0,-1 -1,0 z" opacity=".157"/><path id="path236" fill="url(#linearGradient7047)" fill-opacity="1" fill-rule="evenodd" stroke="none" d="m 16,9 0,1 1,0 0,-1 -1,0 z m 0,2 0,1 1,0 0,-1 -1,0 z m 0,2 0,1 1,0 0,-1 -1,0 z m 0,2 0,1 1,0 0,-1 -1,0 z" opacity=".1"/><path id="path238" fill="none" stroke="url(#linearGradient3136)" stroke-linecap="round" stroke-linejoin="miter" stroke-opacity="1" stroke-width="1" d="m 9.5,16.5 2,0" opacity=".537"/></g></g></svg>