<svg xmlns="http://www.w3.org/2000/svg" xmlns:svg="http://www.w3.org/2000/svg" xmlns:xlink="http://www.w3.org/1999/xlink" id="svg2963" width="24" height="24" version="1.1"><defs id="defs3"><linearGradient id="linearGradient3919"><stop id="stop3921" offset="0" stop-color="#fff" stop-opacity="1"/><stop id="stop3923" offset="1" stop-color="#fff" stop-opacity="0"/></linearGradient><linearGradient id="linearGradient3251"><stop id="stop3253" offset="0" stop-color="#695337" stop-opacity="1"/><stop id="stop3255" offset="1" stop-color="#695337" stop-opacity="0"/></linearGradient><linearGradient id="linearGradient3243"><stop id="stop3245" offset="0" stop-color="#000" stop-opacity="1"/><stop id="stop3247" offset="1" stop-color="#000" stop-opacity="0"/></linearGradient><linearGradient id="linearGradient3275"><stop id="stop3277" offset="0" stop-color="#fff" stop-opacity="0"/><stop id="stop3283" offset=".245" stop-color="#fff" stop-opacity="1"/><stop id="stop3285" offset=".774" stop-color="#fff" stop-opacity="1"/><stop id="stop3279" offset="1" stop-color="#fff" stop-opacity="0"/></linearGradient><linearGradient id="linearGradient3199"><stop id="stop3201" offset="0" stop-color="#dac197" stop-opacity="1"/><stop id="stop3203" offset=".239" stop-color="#c1a581" stop-opacity="1"/><stop id="stop3205" offset=".276" stop-color="#dbc298" stop-opacity="1"/><stop id="stop3207" offset="1" stop-color="#a68b60" stop-opacity="1"/></linearGradient><linearGradient id="linearGradient3295"><stop id="stop3297" offset="0" stop-color="#c3a67d" stop-opacity="1"/><stop id="stop3299" offset=".239" stop-color="#a17d4f" stop-opacity="1"/><stop id="stop3301" offset=".276" stop-color="#bb9b71" stop-opacity="1"/><stop id="stop3303" offset="1" stop-color="#836945" stop-opacity="1"/></linearGradient><linearGradient id="linearGradient3681-3"><stop id="stop3683-8" offset="0" stop-color="#000" stop-opacity="1"/><stop id="stop3685-0" offset="1" stop-color="#000" stop-opacity="0"/></linearGradient><linearGradient id="linearGradient3703-9"><stop id="stop3705-0" offset="0" stop-color="#000" stop-opacity="0"/><stop id="stop3711-2" offset=".5" stop-color="#000" stop-opacity="1"/><stop id="stop3707-8" offset="1" stop-color="#000" stop-opacity="0"/></linearGradient><radialGradient id="radialGradient3351" cx="5" cy="41.5" r="5" fx="5" fy="41.5" gradientTransform="matrix(0.5938225,0,0,1.5366531,-6.6594735,-103.93618)" gradientUnits="userSpaceOnUse" xlink:href="#linearGradient3681-3"/><linearGradient id="linearGradient3353" x1="17.554" x2="17.554" y1="46" y2="35" gradientTransform="matrix(1.7570316,0,0,1.3969574,-17.394014,-16.411698)" gradientUnits="userSpaceOnUse" xlink:href="#linearGradient3703-9"/><radialGradient id="radialGradient3355" cx="5" cy="41.5" r="5" fx="5" fy="41.5" gradientTransform="matrix(0.5938225,0,0,1.5366531,41.140892,-103.93618)" gradientUnits="userSpaceOnUse" xlink:href="#linearGradient3681-3"/><linearGradient id="linearGradient3086" x1="44.995" x2="3.005" y1="17.5" y2="17.5" gradientTransform="matrix(0.36670254,0,0,0.48831015,3.1991391,4.9545726)" gradientUnits="userSpaceOnUse" spreadMethod="reflect" xlink:href="#linearGradient3275"/><linearGradient id="linearGradient3090" x1="20.781" x2="20.813" y1="24.594" y2="23.531" gradientTransform="matrix(0.46498852,0,0,0.39999963,1.0373012,2.7000077)" gradientUnits="userSpaceOnUse" xlink:href="#linearGradient3243"/><linearGradient id="linearGradient3142" x1="11.124" x2="13.168" y1="21.563" y2="21.563" gradientTransform="matrix(-0.60037134,0,0,-0.48831015,24.405201,24.210573)" gradientUnits="userSpaceOnUse" xlink:href="#linearGradient3251"/><linearGradient id="linearGradient3154" x1="10.749" x2="12.11" y1="21.5" y2="21.5" gradientTransform="matrix(0.59306924,0,0,-0.48831015,-0.57088525,24.210573)" gradientUnits="userSpaceOnUse" xlink:href="#linearGradient3251"/><linearGradient id="linearGradient3157" x1="22.188" x2="22.188" y1="20" y2="24.08" gradientTransform="matrix(0.4880174,0,0,0.49999964,0.54684114,0.47944907)" gradientUnits="userSpaceOnUse" xlink:href="#linearGradient3251"/><linearGradient id="linearGradient3160" x1="23" x2="23" y1="19" y2="44" gradientTransform="matrix(0.46801716,0,0,0.45773486,1.0015972,1.5771286)" gradientUnits="userSpaceOnUse" xlink:href="#linearGradient3919"/><linearGradient id="linearGradient3163" x1="24.823" x2="24.997" y1="15.378" y2="37.277" gradientTransform="matrix(0.5317638,0,0,0.56212532,-0.47063945,0.91916698)" gradientUnits="userSpaceOnUse" xlink:href="#linearGradient3199"/><linearGradient id="linearGradient3165" x1="15.464" x2="15.464" y1="7.976" y2="45.042" gradientTransform="matrix(0.41471956,0,0,0.36097033,2.0467879,6.4386761)" gradientUnits="userSpaceOnUse" xlink:href="#linearGradient3295"/><linearGradient id="linearGradient3943" x1="24.823" x2="24.997" y1="15.378" y2="37.277" gradientTransform="matrix(0.46529332,0,0,0.56212532,1.0881905,0.91916698)" gradientUnits="userSpaceOnUse" xlink:href="#linearGradient3199"/><linearGradient id="linearGradient3262" x1="25" x2="25" y1="0" y2="16" gradientTransform="matrix(1.0555344,0,0,1.0555345,-18.44978,-0.44412594)" gradientUnits="userSpaceOnUse" xlink:href="#linearGradient3309"/><linearGradient id="linearGradient3309" x1="63.999" x2="63.999" y1="3.1" y2="122.899" gradientUnits="userSpaceOnUse"><stop id="stop3311" offset="0" stop-color="#f6f6f6" stop-opacity="1"/><stop id="stop3313" offset="1" stop-color="#ccc" stop-opacity="1"/></linearGradient><linearGradient id="linearGradient3264" x1="21" x2="21" y1="0" y2="16.005" gradientTransform="matrix(1.0555344,0,0,1.0555345,-18.44978,-0.44412594)" gradientUnits="userSpaceOnUse" xlink:href="#linearGradient3397"/><linearGradient id="linearGradient3397"><stop id="stop3399" offset="0" stop-color="#aaa" stop-opacity="1"/><stop id="stop3401" offset="1" stop-color="#8c8c8c" stop-opacity="1"/></linearGradient><linearGradient id="linearGradient3950"><stop id="stop3952" offset="0" stop-color="#eeeeec" stop-opacity="1"/><stop id="stop3954" offset="1" stop-color="#fff" stop-opacity="1"/></linearGradient><linearGradient id="linearGradient3958"><stop id="stop3960" offset="0" stop-color="#555753" stop-opacity="1"/><stop id="stop3962" offset="1" stop-color="#888a85" stop-opacity="1"/></linearGradient><linearGradient id="linearGradient3969-3"><stop id="stop3971" offset="0" stop-color="#fff" stop-opacity="1"/><stop id="stop3973" offset="1" stop-color="#fff" stop-opacity="0"/></linearGradient><linearGradient id="linearGradient7381"><stop id="stop7383" offset="0" stop-color="#babdb6" stop-opacity="1"/><stop id="stop7385" offset="1" stop-color="#fff" stop-opacity="1"/></linearGradient><linearGradient id="linearGradient7444"><stop id="stop7446" offset="0" stop-color="#888a85" stop-opacity="1"/><stop id="stop7448" offset="1" stop-color="#555753" stop-opacity="1"/></linearGradient><linearGradient id="linearGradient5443"><stop id="stop5445" offset="0" stop-color="#fff" stop-opacity="1"/><stop id="stop5447" offset="1" stop-color="#fff" stop-opacity="0"/></linearGradient><linearGradient id="linearGradient4093"><stop id="stop4095" offset="0" stop-color="#bb5e12" stop-opacity="1"/><stop id="stop4097" offset="1" stop-color="#cd8033" stop-opacity="1"/></linearGradient><linearGradient id="linearGradient4099"><stop id="stop4101" offset="0" stop-color="#edd563" stop-opacity="1"/><stop id="stop4103" offset="1" stop-color="#e08223" stop-opacity="1"/></linearGradient><linearGradient id="linearGradient3513" x1="-2.197" x2="-10.566" y1="40.972" y2="40.949" gradientTransform="matrix(0.30070466,-1.0669373e-8,0,0.59925602,-29.483716,-49.116348)" gradientUnits="userSpaceOnUse" xlink:href="#linearGradient4099"/><linearGradient id="linearGradient3515" x1="-45.569" x2="-36.083" y1="7.714" y2="12.324" gradientTransform="matrix(0.37257704,0,0,0.37259555,-16.627573,-28.787593)" gradientUnits="userSpaceOnUse" xlink:href="#linearGradient4093"/><radialGradient id="radialGradient3517" cx="-39.458" cy="11.84" r="3.906" fx="-39.458" fy="11.84" gradientTransform="matrix(0.76416071,-0.05305347,0.09313312,1.9396059,-1.6116004,-49.772789)" gradientUnits="userSpaceOnUse" xlink:href="#linearGradient5443"/><linearGradient id="linearGradient3519" x1="25.572" x2="27.368" y1="20.762" y2="22.476" gradientTransform="matrix(-0.3299477,0,0,-0.32761047,8.3442124,52.752686)" gradientUnits="userSpaceOnUse" xlink:href="#linearGradient7381"/><linearGradient id="linearGradient3521" x1="22.376" x2="32.447" y1="35.624" y2="24.412" gradientTransform="matrix(0.33136213,0,0,0.33046092,-7.7670725,33.877099)" gradientUnits="userSpaceOnUse" xlink:href="#linearGradient7444"/><linearGradient id="linearGradient3523" x1="54.765" x2="54.721" y1="1" y2="12.585" gradientTransform="matrix(-0.30643538,-0.29976753,0.30643538,-0.29976753,11.939045,66.803996)" gradientUnits="userSpaceOnUse" xlink:href="#linearGradient5443"/><linearGradient id="linearGradient3543" x1="314.093" x2="315.013" y1="230.782" y2="229.862" gradientUnits="userSpaceOnUse" xlink:href="#linearGradient3950"/><linearGradient id="linearGradient3545" x1="312.958" x2="311" y1="234.931" y2="220.601" gradientUnits="userSpaceOnUse" xlink:href="#linearGradient3958"/><radialGradient id="radialGradient3547" cx="307.658" cy="223.93" r="2.27" fx="307.658" fy="223.93" gradientTransform="matrix(1.9522293,-1.9522293,1.4892817,1.4892819,-626.26973,490.96044)" gradientUnits="userSpaceOnUse" xlink:href="#linearGradient3969-3"/></defs><g id="g3305" display="inline" opacity=".4" transform="matrix(0.43159232,0,0,0.26030598,1.6848653,11.544791)"><rect id="rect2484" width="2.96" height="15.367" x="-3.69" y="-47.848" fill="url(#radialGradient3351)" fill-opacity="1" stroke="none" transform="scale(-1,-1)"/><rect id="rect2486" width="40.412" height="15.367" x="3.69" y="32.482" fill="url(#linearGradient3353)" fill-opacity="1" stroke="none"/><rect id="rect3444" width="2.96" height="15.367" x="44.11" y="-47.848" fill="url(#radialGradient3355)" fill-opacity="1" stroke="none" display="inline" transform="scale(1,-1)"/></g><path id="path2488" fill="url(#linearGradient3163)" fill-opacity="1" fill-rule="nonzero" stroke="url(#linearGradient3165)" stroke-dasharray="none" stroke-dashoffset="0" stroke-linecap="round" stroke-linejoin="miter" stroke-miterlimit="4" stroke-opacity="1" stroke-width=".994" d="m 5.7837117,9.5069242 12.2332833,0 c 0.71414,0 1.035522,-0.1034366 1.240655,0.3609701 l 1.244877,2.8877627 0,9.26752 c 0,0.560699 0.04269,0.47503 -0.671457,0.47503 l -15.6620259,0 c -0.7141439,0 -0.6714572,0.08567 -0.6714572,-0.47503 l 0,-9.26752 1.244878,-2.8877627 C 4.9418751,9.4128687 5.0695678,9.5069242 5.7837117,9.5069242 z" display="block" overflow="visible" visibility="visible" style="marker:none"/><path id="path3772" fill="none" stroke="url(#linearGradient3160)" stroke-dasharray="none" stroke-dashoffset="0" stroke-linecap="round" stroke-linejoin="miter" stroke-miterlimit="4" stroke-opacity="1" stroke-width=".994" d="m 5.6817688,10.502958 c -0.4143412,0.867526 -0.786633,1.756236 -1.1846684,2.631977 0,2.789321 0,5.578643 0,8.367965 5.0019306,0 10.0038696,0 15.0058006,0 0,-2.789322 0,-5.578644 0,-8.367965 -0.384488,-0.874789 -0.78711,-1.742986 -1.160266,-2.621891 -0.304873,-0.03493 -0.740308,-7.2e-5 -1.099965,-0.01009 -3.85363,-6e-6 -7.7072918,10e-6 -11.5609012,0 z" display="block" opacity=".3" overflow="visible" visibility="visible" style="marker:none"/><path d="m 6.2962964,9.979442 c -0.2021614,0 -0.2669195,0.035203 -0.3202615,0.078127 -0.053342,0.04292 -0.1225546,0.133512 -0.1830065,0.312499 L 5,12.979442 l 14,0 -0.808279,-2.515624 c -0.101823,-0.259342 -0.1747,-0.342935 -0.244008,-0.390624 -0.06931,-0.0477 -0.175117,-0.093752 -0.411766,-0.093752 l -11.2396506,0 z" style="marker:none" id="path3692" fill="url(#linearGradient3157)" fill-opacity="1" fill-rule="nonzero" stroke="none" stroke-width="1" color="#000" display="block" opacity=".6" overflow="visible" visibility="visible"/><path d="m 6.416212,10.049579 c -0.2456789,0 -0.3243772,0.03438 -0.389202,0.0763 -0.064825,0.04192 -0.1489355,0.130391 -0.2224008,0.305194 l -0.9637375,2.548369 2.8912126,0 0,-2.929861 -1.3158723,0 z" style="marker:none" id="path3694" fill="url(#linearGradient3154)" fill-opacity="1" fill-rule="nonzero" stroke="none" stroke-width="1" color="#000" display="block" opacity=".6" overflow="visible" visibility="visible"/><path d="m 17.332074,10.049579 c 0.248704,0 0.328371,0.03438 0.393994,0.0763 0.06562,0.04192 0.150769,0.130391 0.225139,0.305194 l 0.975604,2.548369 -2.926811,0 0,-2.929861 1.332074,0 z" style="marker:none" id="path3696" fill="url(#linearGradient3142)" fill-opacity="1" fill-rule="nonzero" stroke="none" stroke-width="1" color="#000" display="block" opacity=".67" overflow="visible" visibility="visible"/><g id="g3507" transform="matrix(0.93552409,-0.35326289,0.35326289,0.93552409,-1.7681882,-28.715227)"><rect id="rect5288" width="3.294" height="10.684" x="-33.543" y="-29.537" fill="url(#linearGradient3513)" fill-opacity="1" stroke="url(#linearGradient3515)" stroke-dasharray="none" stroke-linecap="round" stroke-linejoin="round" stroke-miterlimit="4" stroke-opacity="1" stroke-width="1" rx="1.794" ry="1.794" transform="matrix(-0.70745471,-0.70675868,0.70394288,-0.71025659,0,0)"/><rect id="rect5292" width="2.331" height="9.073" x="-32.966" y="-28.916" fill="none" stroke="url(#radialGradient3517)" stroke-dasharray="none" stroke-linecap="round" stroke-linejoin="round" stroke-miterlimit="4" stroke-opacity="1" stroke-width="1" opacity=".6" rx="2.115" ry="2.116" transform="matrix(-0.70545697,-0.70875276,0.70051753,-0.7136352,0,0)"/><path id="path3822" fill="url(#linearGradient3519)" fill-opacity="1" stroke="url(#linearGradient3521)" stroke-dasharray="none" stroke-linecap="round" stroke-linejoin="round" stroke-miterlimit="4" stroke-opacity="1" stroke-width=".7" d="m 1.93501,42.565679 c -0.1959186,-0.0317 -0.3938297,0.01257 -0.5767962,0.158871 a 0.35804719,0.35749485 0 0 0 -0.039779,0.01985 l -4.7734854,4.766127 -0.5370171,0.15887 A 0.35804719,0.35749485 0 0 0 -4.190963,47.80841 l -1.0541446,1.548989 a 0.35804719,0.35749485 0 0 0 0.039779,0.456754 l 0.6762437,0.6752 a 0.35804719,0.35749485 0 0 0 0.457459,0.03972 l 1.5513827,-1.072377 a 0.35804719,0.35749485 0 0 0 0.1392266,-0.198588 l 0.1392267,-0.51633 4.7933747,-4.78598 a 0.35804719,0.35749485 0 0 0 0,-0.01986 C 3.0162915,43.413385 2.522766,42.660793 1.93501,42.565679 z"/><path id="path5450" fill="url(#linearGradient3523)" fill-opacity="1" stroke="none" d="m -4.3267967,50.292549 1.8297984,-1.198192 0.204852,-0.762458 c 0.168506,-0.190213 -0.492204,-0.790834 -0.6703277,-0.655743 l -0.7698424,0.209763 -1.2248181,1.790008 c 0.2404696,0.235238 0.3898684,0.381384 0.6303378,0.616622 z"/></g><g id="g7817" display="inline" transform="matrix(0.89268468,0.45068178,-0.45068178,0.89268468,-165.55238,-291.9268)"><g id="g3539" transform="translate(-19.118585,-34.90668)"><path id="path3935" fill="url(#linearGradient3543)" fill-opacity="1" fill-rule="evenodd" stroke="url(#linearGradient3545)" stroke-dasharray="none" stroke-dashoffset=".361" stroke-linecap="round" stroke-linejoin="round" stroke-miterlimit="4" stroke-opacity="1" stroke-width=".9" d="m 306.75,219.5 c -0.37511,0.0471 -0.77839,0.25308 -1.1875,0.65625 l 1.71875,1.6875 c 0.3584,0.36046 0.34912,0.93023 0,1.28125 l -0.125,0.125 c -0.34912,0.35106 -0.92283,0.36044 -1.28125,0 l -1.6875,-1.6875 c -1.15661,1.13978 -0.64599,2.06839 0.125,2.84375 l 0.46875,0.46875 c 0.73274,0.7369 1.86697,0.81164 2.6875,0.21875 l 5.4375,5.4375 1.625,-1.62505 -5.4375,-5.4375 c 0.59284,-0.82529 0.54644,-1.98062 -0.1875,-2.71875 l -0.46875,-0.5 c -0.48639,-0.48917 -1.06232,-0.82854 -1.6875,-0.75 l 0,5e-5 z" display="inline" enable-background="new"/><path id="path3967" fill="none" stroke="url(#radialGradient3547)" stroke-linecap="butt" stroke-linejoin="miter" stroke-opacity="1" stroke-width="1" d="m 305.21569,223.99896 c 1.74834,1.52344 4.48908,-1.00133 2.72395,-2.92439" display="inline" enable-background="new"/></g></g><g id="layer1" transform="matrix(0.600012,0,0,0.600012,7.199904,6.199814)"><g id="g2479"><path id="path2426" fill="url(#linearGradient3262)" fill-opacity="1" fill-rule="nonzero" stroke="url(#linearGradient3264)" stroke-dasharray="none" stroke-dashoffset="0" stroke-linecap="butt" stroke-linejoin="round" stroke-miterlimit="4" stroke-opacity="1" stroke-width="1.167" d="m 6.8784944,0.08364131 c -0.2622126,0 -0.4617963,0.19958276 -0.4617963,0.46179631 l 0,1.31941808 C 5.8320345,2.0149533 5.3071583,2.2573861 4.8004111,2.5575503 L 3.843833,1.6009721 c -0.1854119,-0.1854129 -0.4742959,-0.1854129 -0.659709,0 L 1.6008224,3.1842739 c -0.185412,0.1854129 -0.185412,0.4742961 0,0.659709 L 2.5574005,4.8005611 C 2.257237,5.307308 2.014804,5.8321843 1.864706,6.4168483 l -1.31941803,0 c -0.26221268,0 -0.4617963,0.1995827 -0.4617963,0.4617963 l 0,2.2430108 c 10e-9,0.2622136 0.19958361,0.4617964 0.4617963,0.4617964 l 1.31941803,0 c 0.1500979,0.5846632 0.3925311,1.1095392 0.6926945,1.6162872 l -0.9565781,0.956578 c -0.185412,0.185413 -0.185412,0.474296 0,0.659709 l 1.5833016,1.583302 c 0.185413,0.185413 0.4742959,0.185413 0.659709,0 l 0.9565781,-0.956579 c 0.5067473,0.300165 1.0316233,0.542598 1.616287,0.692695 l 0,1.319418 c 1e-7,0.262214 0.1995836,0.461796 0.4617963,0.461796 l 2.2430106,0 c 0.2622133,0 0.4617963,-0.199582 0.4617963,-0.461796 l 0,-1.319418 c 0.5846637,-0.150097 1.1095397,-0.39253 1.6162877,-0.692695 l 0.956578,0.956579 c 0.185413,0.185413 0.474296,0.185413 0.659709,0 l 1.583301,-1.583302 c 0.185413,-0.185413 0.185413,-0.474296 0,-0.659709 l -0.956578,-0.956578 c 0.300165,-0.506748 0.542598,-1.031624 0.692695,-1.6162872 l 1.319418,0 c 0.262213,0 0.461796,-0.1995832 0.461796,-0.4617964 l 0,-2.2430108 c 0,-0.2622135 -0.199584,-0.4617963 -0.461796,-0.4617963 l -1.319418,0 C 13.985197,5.8321843 13.742764,5.307308 13.442599,4.8005611 l 0.956578,-0.9565782 c 0.185413,-0.1854129 0.185413,-0.4742959 0,-0.659709 L 12.815876,1.6009721 c -0.185413,-0.1854129 -0.474296,-0.1854129 -0.659709,0 L 11.199589,2.5575503 C 10.692841,2.2573861 10.167965,2.0149533 9.5833013,1.8648557 l 0,-1.31941808 C 9.5833009,0.28322407 9.3837187,0.08364131 9.121505,0.08364131 l -2.2430106,0 z M 7.9999997,5.889081 c 1.16531,0 2.1110693,0.9457589 2.1110693,2.111069 0,1.1653101 -0.9457593,2.111069 -2.1110693,2.111069 -1.16531,0 -2.1110688,-0.9457589 -2.1110688,-2.111069 0,-1.1653101 0.9457588,-2.111069 2.1110688,-2.111069 z" display="block" enable-background="accumulate" overflow="visible" visibility="visible" style="marker:none"/></g></g><path id="path3167" fill="url(#linearGradient3943)" fill-opacity="1" fill-rule="nonzero" stroke="none" stroke-width=".994" d="m 20,13 0,2 -1,0 0,6 -14,0 0,-6 -1,0 0,-2 16,0 z" display="block" overflow="visible" visibility="visible" style="marker:none"/><path id="path3730" fill="none" stroke="url(#linearGradient3090)" stroke-dashoffset="0" stroke-linecap="butt" stroke-linejoin="miter" stroke-miterlimit="4" stroke-opacity="1" stroke-width="1" d="m 6.5154468,10.500002 c -0.083138,0 -0.1297064,0.0086 -0.1453089,0.0125 -0.015605,0.0038 -8.153e-4,0.0032 -0.014537,0.0125 -0.00271,0.0018 -0.054122,0.03168 -0.1017163,0.15 L 5.6000004,12.5 18.3,12.5 l -0.668421,-1.737498 0,-0.0125 c -0.08087,-0.168673 -0.122077,-0.199078 -0.145309,-0.2125 -0.03263,-0.01886 -0.0655,-0.0375 -0.261557,-0.0375 l -10.7092665,0 z" color="#000" display="block" opacity=".15" overflow="visible" visibility="visible" style="marker:none"/><path id="path3357" fill="none" stroke="url(#linearGradient3086)" stroke-linecap="square" stroke-linejoin="miter" stroke-opacity="1" stroke-width="1" d="m 4.484514,13.5 15.030972,0" display="inline" opacity=".4"/></svg>