<svg xmlns="http://www.w3.org/2000/svg" xmlns:svg="http://www.w3.org/2000/svg" xmlns:xlink="http://www.w3.org/1999/xlink" id="svg2425" width="16" height="16" version="1.0"><defs id="defs2427"><linearGradient id="linearGradient3616"><stop id="stop3618" offset="0" stop-color="#eee" stop-opacity="1"/><stop id="stop3620" offset="1" stop-color="#d9d9da" stop-opacity="1"/></linearGradient><linearGradient id="linearGradient3608"><stop id="stop3610" offset="0" stop-color="#791235" stop-opacity="1"/><stop id="stop3612" offset="1" stop-color="#dd3b27" stop-opacity="1"/></linearGradient><linearGradient id="linearGradient8997"><stop id="stop8999" offset="0" stop-color="#cdcdcd" stop-opacity="1"/><stop id="stop3632" offset="1" stop-color="#cdcdcd" stop-opacity=".247"/></linearGradient><linearGradient id="linearGradient6223"><stop id="stop6225" offset="0" stop-color="#e35d4f" stop-opacity="1"/><stop id="stop6227" offset=".621" stop-color="#c6262e" stop-opacity="1"/><stop id="stop6229" offset="1" stop-color="#690b2c" stop-opacity="1"/></linearGradient><radialGradient id="radialGradient3596" cx="44.436" cy="21.372" r="20.714" fx="44.436" fy="21.372" gradientTransform="matrix(0.57037134,-0.38271418,0.48972887,0.69244959,-31.724275,4.7017949)" gradientUnits="userSpaceOnUse" xlink:href="#linearGradient6223"/><linearGradient id="linearGradient3600" x1="23.638" x2="23.638" y1="35.094" y2="31.405" gradientTransform="matrix(0.3359647,0,0,0.2536878,0.03333693,4.4625018)" gradientUnits="userSpaceOnUse" xlink:href="#linearGradient3616"/><linearGradient id="linearGradient3618" x1="3.317" x2="15.902" y1=".01" y2="6.004" gradientTransform="translate(-0.99454203,0.99520321)" gradientUnits="userSpaceOnUse" xlink:href="#linearGradient8997"/><linearGradient id="linearGradient3614" x1="7.984" x2="7.984" y1="13.229" y2="-1.279" gradientUnits="userSpaceOnUse" xlink:href="#linearGradient3608"/><radialGradient id="radialGradient3624" cx="11.405" cy="11.013" r="5.381" fx="11.405" fy="11.013" gradientTransform="matrix(1.6327444,-1.3338343,3.3845719,4.3039685,-44.490229,-23.469737)" gradientUnits="userSpaceOnUse" xlink:href="#linearGradient3616"/><linearGradient id="linearGradient3632" x1="7.975" x2="7.88" y1="13.365" y2="-.113" gradientUnits="userSpaceOnUse" xlink:href="#linearGradient3608"/></defs><g id="layer1" transform="matrix(1.0052214,0,0,1.0052214,-0.02576061,-0.00975004)"><path id="rect8840" fill="url(#linearGradient3600)" fill-opacity="1" fill-rule="nonzero" stroke="url(#linearGradient3632)" stroke-dasharray="none" stroke-dashoffset=".06" stroke-linecap="round" stroke-linejoin="round" stroke-miterlimit="4" stroke-opacity="1" stroke-width=".995" d="m 0.81764214,11.384744 14.31417186,0 c 0.130411,0 -0.06444,-0.178968 -0.06444,-0.03928 -0.193269,0.429788 0.05842,3.088549 0.02834,3.831418 0,0.139691 -0.104986,0.25215 -0.235397,0.25215 l -13.99434169,0 c -0.13041015,0 -0.23539743,-0.112459 -0.23539743,-0.25215 l -0.0483304,-3.539991 c 0,-0.13969 0.10498738,-0.25215 0.23539763,-0.25215 z" display="inline" enable-background="accumulate" overflow="visible" visibility="visible" style="marker:none"/><path id="path9017" fill="none" stroke="#666" stroke-dasharray="none" stroke-linecap="round" stroke-linejoin="miter" stroke-miterlimit="4" stroke-opacity="1" stroke-width=".995" d="m 14.656909,14.736459 c -0.09624,-0.423642 -0.405267,-2.009033 0.127788,-2.709237"/><path id="rect8064" fill="url(#radialGradient3596)" fill-opacity="1" fill-rule="nonzero" stroke="url(#linearGradient3614)" stroke-dasharray="none" stroke-dashoffset=".06" stroke-linecap="round" stroke-linejoin="round" stroke-miterlimit="4" stroke-opacity="1" stroke-width=".995" d="m 1.5430619,0.50725534 c -0.1352635,0 -0.2405545,0.14696757 -0.2405543,0.33315743 L 0.56370577,11.166993 c 0,0.18619 0.11574965,0.333158 0.25101314,0.333157 l 14.33912609,0 c 0.135263,1e-6 0.251014,-0.146967 0.251014,-0.333157 L 14.578636,0.84041277 c 0,-0.18618986 -0.105291,-0.33315743 -0.240555,-0.33315743 l -12.7950191,0 z" display="inline" enable-background="accumulate" overflow="visible" visibility="visible" style="marker:none"/><path id="path3267" fill="none" stroke="#000" stroke-dasharray="none" stroke-linecap="square" stroke-linejoin="miter" stroke-miterlimit="4" stroke-opacity="1" stroke-width=".995" d="M 1.6108534,14.409925 1.5880147,12.487123" opacity=".2"/><text id="text2537" x="3.075" y="8.599" fill="url(#radialGradient3624)" fill-opacity="1" stroke="none" font-family="Serif" font-size="8.301" font-stretch="normal" font-style="normal" font-variant="normal" font-weight="normal" transform="scale(1.009572,0.9905187)" xml:space="preserve" style="-inkscape-font-specification:Serif"><tspan id="tspan2539" x="3.075" y="8.599" fill="url(#radialGradient3624)" fill-opacity="1">Aa</tspan></text><path id="path2838" fill="none" stroke="url(#linearGradient3618)" stroke-dasharray="none" stroke-dashoffset=".06" stroke-linecap="round" stroke-linejoin="round" stroke-miterlimit="4" stroke-opacity="1" stroke-width=".995" d="m 2.5381313,1.5024586 c -0.1352635,0 -0.2405545,0.1469675 -0.2405543,0.3331574 l -0.7388018,8.336969 c 0,0.18619 0.1157497,0.333158 0.2510132,0.333157 l 12.3495146,0 c 0.135263,1e-6 0.251014,-0.146967 0.251014,-0.333157 L 13.584094,1.835616 c 0,-0.1861899 -0.105291,-0.3331574 -0.240555,-0.3331574 l -10.8054077,0 z" display="inline" enable-background="accumulate" opacity=".2" overflow="visible" visibility="visible" style="marker:none"/></g></svg>