<svg xmlns="http://www.w3.org/2000/svg" xmlns:svg="http://www.w3.org/2000/svg" xmlns:xlink="http://www.w3.org/1999/xlink" id="svg3355" width="16" height="16" version="1.0"><defs id="defs3357"><linearGradient id="linearGradient10691-1"><stop id="stop10693-3" offset="0" stop-color="#000" stop-opacity="1"/><stop id="stop10695-1" offset="1" stop-color="#000" stop-opacity="0"/></linearGradient><radialGradient id="radialGradient2456" cx="6.703" cy="73.616" r="7.228" fx="6.703" fy="73.616" gradientTransform="matrix(0.6456002,0,0,0.1383429,3.6727279,4.4824554)" gradientUnits="userSpaceOnUse" xlink:href="#linearGradient10691-1"/><linearGradient id="linearGradient3924"><stop id="stop3926" offset="0" stop-color="#464646" stop-opacity="1"/><stop id="stop3928" offset=".35" stop-color="#8c8c8c" stop-opacity="1"/><stop id="stop3930" offset=".51" stop-color="#969696" stop-opacity="1"/><stop id="stop3932" offset=".62" stop-color="#aaa" stop-opacity="1"/><stop id="stop3934" offset="1" stop-color="#646464" stop-opacity="1"/></linearGradient><linearGradient id="linearGradient2453" x1="61.969" x2="61.969" y1="35.944" y2="43.378" gradientTransform="matrix(0.3685119,0,0,0.4850461,-14.847737,-5.598644)" gradientUnits="userSpaceOnUse" xlink:href="#linearGradient3924"/><linearGradient id="linearGradient3912"><stop id="stop3914" offset="0" stop-color="#787878" stop-opacity="1"/><stop id="stop3916" offset=".35" stop-color="#bebebe" stop-opacity="1"/><stop id="stop3918" offset=".494" stop-color="#c8c8c8" stop-opacity="1"/><stop id="stop3920" offset=".589" stop-color="#e6e6e6" stop-opacity="1"/><stop id="stop3922" offset="1" stop-color="#8c8c8c" stop-opacity="1"/></linearGradient><linearGradient id="linearGradient2451" x1="361.106" x2="361.106" y1="87.05" y2="94.396" gradientTransform="matrix(0.3671886,0,0,0.4851158,-123.51526,-30.342164)" gradientUnits="userSpaceOnUse" xlink:href="#linearGradient3912"/><linearGradient id="linearGradient3342"><stop id="stop3344" offset="0" stop-color="#fff" stop-opacity="0"/><stop id="stop3346" offset="1" stop-color="#fff" stop-opacity="1"/></linearGradient><linearGradient id="linearGradient2448" x1="15.574" x2="23.578" y1="46.971" y2="46.971" gradientTransform="matrix(0.372549,0,0,0.3333333,-0.7839889,-1.1570001)" gradientUnits="userSpaceOnUse" spreadMethod="reflect" xlink:href="#linearGradient3342"/><linearGradient id="linearGradient3654"><stop id="stop3656" offset="0" stop-color="#76de98" stop-opacity="1"/><stop id="stop3658" offset=".5" stop-color="#37b862" stop-opacity="1"/><stop id="stop3660" offset="1" stop-color="#2f7b48" stop-opacity="1"/></linearGradient><radialGradient id="radialGradient3230" cx="12.244" cy="4.863" r="21" fx="12.244" fy="4.863" gradientTransform="matrix(0.6323187,0,2.1910431e-3,0.5343465,-3.7671112,0.6437145)" gradientUnits="userSpaceOnUse" xlink:href="#linearGradient3654"/><linearGradient id="linearGradient6592-2-7"><stop id="stop6594-0-2" offset="0" stop-color="#fff" stop-opacity=".275"/><stop id="stop6596-2-5" offset="1" stop-color="#fff" stop-opacity="0"/></linearGradient><linearGradient id="linearGradient2441" x1="12.938" x2="15.25" y1="8.438" y2="19.813" gradientTransform="matrix(0.3333334,0,0,0.4666664,0,-0.3999992)" gradientUnits="userSpaceOnUse" xlink:href="#linearGradient6592-2-7"/><linearGradient id="linearGradient3202"><stop id="stop3204" offset="0" stop-color="#fff" stop-opacity="1"/><stop id="stop3206" offset="1" stop-color="#d3fce1" stop-opacity="1"/></linearGradient><linearGradient id="linearGradient3346" x1="-83.757" x2="-92.223" y1="-7.838" y2="27.521" gradientTransform="matrix(0.2406436,-5.4085877e-2,5.7614225e-2,0.2259066,28.607148,-1.203926)" gradientUnits="userSpaceOnUse" xlink:href="#linearGradient3202"/></defs><g id="layer1"><path id="path2589" fill="url(#radialGradient2456)" fill-opacity="1" fill-rule="nonzero" stroke="none" stroke-width=".8" d="M 12.666666,14.666666 C 12.666666,15.218951 10.577329,15.666666 7.9999998,15.666666 C 5.4226714,15.666666 3.3333339,15.218951 3.3333339,14.666666 C 3.3333339,14.114381 5.4226714,13.666666 7.9999998,13.666666 C 10.577329,13.666666 12.666666,14.114381 12.666666,14.666666 L 12.666666,14.666666 z" display="inline" opacity=".3" overflow="visible" visibility="visible" style="marker:none"/><path id="rect1789" fill="url(#linearGradient2451)" fill-opacity="1" fill-rule="nonzero" stroke="url(#linearGradient2453)" stroke-dasharray="none" stroke-dashoffset=".5" stroke-linecap="round" stroke-linejoin="round" stroke-miterlimit="4" stroke-opacity="1" stroke-width=".998" d="M 5.737139,11.499138 C 5.737139,11.499138 5.7893837,13.327417 5.528803,13.808789 C 5.2682223,14.29016 4.7497143,14.295774 4.7497143,14.295774 C 4.4169894,14.346346 4.4142369,15.500863 4.7497143,15.500863 L 11.25026,15.500863 C 11.585738,15.500863 11.583055,14.345701 11.25026,14.295774 C 11.25026,14.295774 10.731774,14.290157 10.471198,13.808789 C 10.210621,13.327417 10.262836,11.499138 10.262836,11.499138 L 5.737139,11.499138 L 5.737139,11.499138 z" display="inline" enable-background="new" overflow="visible" visibility="visible" style="marker:none"/><path id="path3340" fill="none" stroke="url(#linearGradient2448)" stroke-linecap="square" stroke-linejoin="miter" stroke-opacity="1" stroke-width="1" d="M 5.2043261,14.499999 L 10.795674,14.499999"/><rect id="rect2722" width="15" height="11" x=".5" y=".5" fill="#1a1a1a" fill-opacity="1" stroke="#000" stroke-dasharray="none" stroke-dashoffset=".5" stroke-linecap="round" stroke-linejoin="round" stroke-miterlimit="4" stroke-opacity="1" stroke-width="1" rx=".333" ry=".333"/><rect id="rect2716" width="14" height="10" x="1" y="1" fill="url(#radialGradient3230)" fill-opacity="1" fill-rule="evenodd" stroke="none" display="inline" enable-background="new"/><path id="rect6588" fill="url(#linearGradient2441)" fill-opacity="1" stroke="none" d="M 1,1 L 15,1 L 15,4.7333352 L 1,8 L 1,1 z"/><path id="path3351" fill="#1f6235" fill-opacity="1" fill-rule="nonzero" stroke="none" stroke-width="1.003" d="M 10.435715,1.0016359 C 10.303308,0.98901849 10.17167,1.0498995 10.103642,1.1667721 L 7.2051056,6.145371 L 5.3415336,4.7543425 C 5.1755353,4.6691894 4.9684249,4.7239702 4.8777185,4.8798028 L 4.0420129,5.8870318 C 3.9513081,6.0428622 4.0123273,6.2372326 4.1783265,6.322383 C 4.1783265,6.322383 7.5809751,8.9605756 7.5851743,8.9625276 C 7.6240791,8.9824846 7.6647631,8.9925276 7.7061215,8.9974336 C 7.8412215,9.0134593 7.9794783,8.9538716 8.0489255,8.8345646 L 11.957987,2.1203011 C 12.048692,1.9644688 11.98767,1.7701 11.821675,1.6849476 L 10.567393,1.0388097 C 10.525893,1.0175186 10.47985,1.0058407 10.435715,1.0016359 z" display="inline" overflow="visible" visibility="visible" style="marker:none"/><path id="path4368" fill="url(#linearGradient3346)" fill-opacity="1" fill-rule="nonzero" stroke="none" stroke-width="1.003" d="M 10.435715,2.001636 C 10.303308,1.9890186 10.17167,2.0498996 10.103642,2.1667722 L 7.2051056,7.1453711 L 5.3415336,5.7543426 C 5.1755353,5.6691895 4.9684249,5.7239703 4.8777185,5.8798029 L 4.0420129,6.8870319 C 3.9513081,7.0428623 4.0123273,7.2372327 4.1783265,7.3223831 C 4.1783265,7.3223831 7.5809751,9.9605753 7.5851743,9.9625273 C 7.6240791,9.9824843 7.6647631,9.9925273 7.7061215,9.9974333 C 7.8412215,10.013459 7.9794783,9.9538713 8.0489255,9.8345643 L 11.957987,3.1203012 C 12.048692,2.9644689 11.98767,2.7701001 11.821675,2.6849477 L 10.567393,2.0388098 C 10.525893,2.0175187 10.47985,2.0058408 10.435715,2.001636 z" display="inline" overflow="visible" visibility="visible" style="marker:none"/></g></svg>