<svg xmlns="http://www.w3.org/2000/svg" xmlns:svg="http://www.w3.org/2000/svg" xmlns:xlink="http://www.w3.org/1999/xlink" id="svg3279" width="16" height="16" version="1.1"><defs id="defs3281"><linearGradient id="linearGradient2863" x1="17.592" x2="17.592" y1="7" y2="-.025" gradientTransform="matrix(0.6666711,0,0,0.6666711,-0.66667106,0.66620135)" gradientUnits="userSpaceOnUse" xlink:href="#linearGradient3251"/><linearGradient id="linearGradient3251"><stop id="stop3253" offset="0" stop-color="#917f6e" stop-opacity="1"/><stop id="stop3255" offset="1" stop-color="#cbbaa9" stop-opacity="1"/></linearGradient><linearGradient id="linearGradient2866" x1="40.007" x2="40.007" y1="12.911" y2="7.092" gradientTransform="matrix(0.82996661,0,0,0.83014725,-23.704279,-2.8028554)" gradientUnits="userSpaceOnUse" xlink:href="#linearGradient4222"/><linearGradient id="linearGradient4222"><stop id="stop4224" offset="0" stop-color="#fff" stop-opacity="1"/><stop id="stop4226" offset="1" stop-color="#fff" stop-opacity="0"/></linearGradient><linearGradient id="linearGradient2869" x1="38.382" x2="38.382" y1="5.906" y2="22.698" gradientTransform="matrix(0.63241105,0,0,0.63366331,-16.06917,-0.5594047)" gradientUnits="userSpaceOnUse" xlink:href="#linearGradient4222"/><linearGradient id="linearGradient3243"><stop id="stop3245" offset="0" stop-color="#fff4e9" stop-opacity="1"/><stop id="stop3247" offset="1" stop-color="#e7d6c5" stop-opacity="1"/></linearGradient><linearGradient id="linearGradient3275" x1="39.906" x2="39.906" y1="6.123" y2="24.034" gradientTransform="matrix(0.6666711,0,0,0.6666711,-17.166785,-1.1667711)" gradientUnits="userSpaceOnUse" xlink:href="#linearGradient3243"/><linearGradient id="linearGradient3277" x1="32.016" x2="32.016" y1="24.011" y2="5" gradientTransform="matrix(0.6666711,0,0,0.6666711,-17.166785,-1.1667711)" gradientUnits="userSpaceOnUse" xlink:href="#linearGradient3251"/></defs><metadata id="metadata3284"/><g id="layer1"><path id="path2463" fill="url(#linearGradient3275)" fill-opacity="1" fill-rule="evenodd" stroke="url(#linearGradient3277)" stroke-linecap="butt" stroke-linejoin="miter" stroke-opacity="1" stroke-width="1" d="M 6.8333755,2.4999192 0.50000006,9.0624632 6.0000368,14.5 12.500078,8.1666242 l 0,-5.666705 -5.6667025,0 z m 2.6666849,2.000014 c 0.5520026,0 1.0000066,0.448002 1.0000066,1.000006 0,0.552004 -0.448004,1.000007 -1.0000066,1.000007 -0.5520042,0 -1.0000072,-0.448003 -1.0000072,-1.000007 0,-0.552004 0.448003,-1.000006 1.0000072,-1.000006 z"/><path id="path3265" fill="none" stroke="url(#linearGradient2869)" stroke-linecap="butt" stroke-linejoin="miter" stroke-opacity="1" stroke-width="1" d="m 7.3435443,3.5000004 c 0,0 -5.4055851,5.4975779 -5.4055851,5.4975779 0,0 4.1443391,4.3564347 4.1443391,4.3564347 0,0 5.3593077,-5.5623316 5.3593077,-5.5623316 0,0 0.05839,-4.291681 0.05839,-4.291681 0,0 -4.1564557,0 -4.1564557,0 z" opacity=".6"/><path id="path3294" fill="none" stroke="url(#linearGradient2866)" stroke-linecap="butt" stroke-linejoin="miter" stroke-opacity="1" stroke-width="1" d="M 9.4943871,3.5010736 C 10.750366,3.4567938 11.785978,4.7909532 11.428498,5.9971782 11.163042,7.1808175 9.7058904,7.86295 8.6294138,7.298845 7.5214098,6.8093158 7.1351849,5.250799 7.8946109,4.3042992 8.263526,3.8049752 8.8728487,3.4962646 9.4943871,3.5010736 z" opacity=".6"/><path id="path3298" fill="none" stroke="url(#linearGradient2863)" stroke-linecap="butt" stroke-linejoin="miter" stroke-opacity="1" stroke-width="1" d="m 10.333402,4.9995634 c 0.73935,-0.391482 1.702694,-0.511416 2.617932,-0.53183 0.411434,-0.0092 0.8273,0.0746 1.231029,-0.02143 0.513831,-0.122222 0.863993,-0.498679 0.812771,-0.842839 -0.06877,-0.461979 -0.68935,-0.803021 -1.271382,-1.047072 -0.516276,-0.216476 -0.913636,-0.6022352 -1.123633,-1.0097466 -0.106098,-0.20589 0.07919,-0.4220767 0.376399,-0.4884432 0.269998,-0.060291 0.552791,-0.084123 0.827535,-0.022904 0.418164,0.093175 0.911794,0.2068481 1.106321,0.5031098"/></g></svg>