<svg xmlns="http://www.w3.org/2000/svg" xmlns:svg="http://www.w3.org/2000/svg" xmlns:xlink="http://www.w3.org/1999/xlink" id="svg4375" width="16" height="16" version="1.0"><defs id="defs4377"><linearGradient id="linearGradient2973"><stop id="stop2975" offset="0" stop-color="#621359" stop-opacity="1"/><stop id="stop2977" offset="1" stop-color="#a35f9c" stop-opacity="1"/></linearGradient><linearGradient id="linearGradient4373" x1="34.581" x2="34.581" y1="46.148" y2="3.045" gradientTransform="matrix(0.3191203,0,0,0.3174019,0.3411166,0.3784635)" gradientUnits="userSpaceOnUse" xlink:href="#linearGradient2973"/><linearGradient id="linearGradient3242-593-605"><stop id="stop2544" offset="0" stop-color="#d196bf" stop-opacity="1"/><stop id="stop2546" offset=".262" stop-color="#bb70b6" stop-opacity="1"/><stop id="stop2548" offset=".661" stop-color="#954a9a" stop-opacity="1"/><stop id="stop2550" offset="1" stop-color="#6c3b77" stop-opacity="1"/></linearGradient><linearGradient id="linearGradient4371" x1="22.226" x2="22.226" y1="3.811" y2="44.286" gradientTransform="matrix(0.3191203,0,0,0.3174019,0.3411166,0.3784635)" gradientUnits="userSpaceOnUse" xlink:href="#linearGradient3242-593-605"/><linearGradient id="linearGradient2238"><stop id="stop2240" offset="0" stop-color="#fff" stop-opacity="1"/><stop id="stop2242" offset="1" stop-color="#fff" stop-opacity="0"/></linearGradient><linearGradient id="linearGradient4367" x1="24.676" x2="24.676" y1="4.158" y2="46.698" gradientTransform="matrix(0.2885901,0,0,0.281741,1.0734846,1.5216395)" gradientUnits="userSpaceOnUse" xlink:href="#linearGradient2238"/></defs><g id="layer1"><g id="g4402"><rect id="rect1316" width="14.998" height="12.998" x=".501" y="1.501" fill="url(#linearGradient4371)" fill-opacity="1" fill-rule="evenodd" stroke="url(#linearGradient4373)" stroke-dasharray="none" stroke-dashoffset="0" stroke-linecap="round" stroke-linejoin="round" stroke-miterlimit="4" stroke-opacity="1" stroke-width="1.002" rx="1.528" ry="1.562"/><path id="path12664" fill="#eeeeec" fill-opacity="1" fill-rule="nonzero" stroke="none" stroke-dasharray="none" stroke-dashoffset="0" stroke-linecap="butt" stroke-linejoin="miter" stroke-miterlimit="4" stroke-opacity="1" stroke-width="1" marker-end="none" marker-mid="none" marker-start="none" d="M 8.0060546,3.0190045 C 7.5455826,3.0190045 7.2388156,2.9061655 7.2388156,3.3667325 L 7.2388156,4.8175965 C 6.9388976,4.8950135 6.6006976,5.0262035 6.3397066,5.1773135 L 5.3806576,4.2900085 C 5.2178546,4.1271725 5.1735376,4.1699765 4.9610726,4.1699765 C 4.7486096,4.1699765 4.6538446,4.2922545 4.4695606,4.4698675 C 4.0531116,4.8712405 3.9417566,5.0231485 4.2126676,5.2888645 L 5.1528836,6.3164205 C 4.9939246,6.5800455 4.8611356,6.9458625 4.7812516,7.2516885 L 3.3426786,7.2516885 C 2.8822066,7.2516885 3.0189996,7.5465295 3.0189996,8.0070945 C 3.0189996,8.4676615 2.9061826,8.7864865 3.3666536,8.7864865 L 4.7812516,8.7864865 C 4.8609816,9.0903125 4.9944086,9.4349505 5.1528836,9.6977715 L 4.2178096,10.692993 C 3.8525016,11.068303 4.1086746,11.28375 4.4575726,11.580295 C 4.8084616,11.878534 5.0130956,12.133785 5.3386986,11.808117 L 6.3397066,10.836879 C 6.6006966,10.987987 6.9748616,11.119179 7.2747796,11.196598 L 7.2388156,12.587507 C 7.2388156,13.048074 7.5455826,12.995186 8.0060546,12.995186 C 8.4665256,12.995186 8.7972706,13.072054 8.7972706,12.611488 L 8.7852816,11.196598 C 9.0852006,11.119179 9.4114096,10.987987 9.6724026,10.836879 L 10.679404,11.784135 C 11.014031,12.154936 11.276651,11.969142 11.602489,11.616266 C 11.92207,11.270168 12.201545,11.090604 11.830263,10.764935 L 10.859226,9.6977715 C 11.018183,9.4341445 11.150974,9.0923095 11.230858,8.7864865 L 12.561539,8.7864865 C 13.022009,8.7864865 12.993111,8.4676615 12.993111,8.0070945 C 12.993111,7.5465295 13.081949,7.2516885 12.62148,7.2516885 L 11.230858,7.2516885 C 11.151127,6.9478595 11.0177,6.5792395 10.859226,6.3164205 L 11.794298,5.2372655 C 12.1199,4.9115965 11.956591,4.8251345 11.656435,4.4758625 C 11.336067,4.1030715 11.099302,3.7870025 10.763321,4.2060735 L 9.6724026,5.1773135 C 9.4114086,5.0262035 9.0732116,4.8830225 8.7732926,4.8056035 L 8.7732926,3.3427505 C 8.7732936,2.8821835 8.4665256,3.0190045 8.0060546,3.0190045 z M 8.0060546,6.4722975 C 8.8530856,6.4722975 9.5405326,7.1598875 9.5405326,8.0070945 C 9.5405326,8.8543025 8.8530866,9.5418935 8.0060546,9.5418935 C 7.1590206,9.5418935 6.4715756,8.8543025 6.4715756,8.0070945 C 6.4715756,7.1598875 7.1590206,6.4722975 8.0060546,6.4722975 z" display="inline" enable-background="accumulate" overflow="visible" visibility="visible" style="marker:none"/><rect id="rect2232" width="12.998" height="10.998" x="1.501" y="2.501" fill="none" fill-opacity="1" fill-rule="evenodd" stroke="url(#linearGradient4367)" stroke-dasharray="none" stroke-dashoffset="0" stroke-linecap="round" stroke-linejoin="round" stroke-miterlimit="4" stroke-opacity="1" stroke-width="1.002" opacity=".4" rx=".537" ry=".537"/></g></g></svg>