<svg xmlns="http://www.w3.org/2000/svg" xmlns:svg="http://www.w3.org/2000/svg" xmlns:xlink="http://www.w3.org/1999/xlink" id="svg3401" width="16" height="16" version="1.0"><metadata id="metadata35"/><defs id="defs3403"><linearGradient id="linearGradient3377" x1="24" x2="24" y1="44" y2="3.899" gradientTransform="matrix(0.3756098,0,0,0.3756098,-1.0146238,-1.0268546)" gradientUnits="userSpaceOnUse" xlink:href="#linearGradient2490-113-765"/><radialGradient id="radialGradient3375" cx="12.011" cy="10.291" r="20" fx="12.011" fy="10.291" gradientTransform="matrix(2.2636253e-8,0.77384,-1.1162701,0,17.811431,-5.3313905)" gradientUnits="userSpaceOnUse" xlink:href="#linearGradient3839"/><linearGradient id="linearGradient2490-113-765"><stop id="stop3686" offset="0" stop-color="#861318" stop-opacity="1"/><stop id="stop3688" offset="1" stop-color="#f67e2a" stop-opacity="1"/></linearGradient><linearGradient id="linearGradient3399" x1="24" x2="24" y1="44" y2="3.899" gradientTransform="matrix(0.3906505,0,0,0.3927622,-1.1723579,-1.7494096)" gradientUnits="userSpaceOnUse" xlink:href="#linearGradient2490-113-765"/><linearGradient id="linearGradient3839"><stop id="stop3841" offset="0" stop-color="#ffed8c" stop-opacity="1"/><stop id="stop3843" offset=".262" stop-color="#fb9858" stop-opacity="1"/><stop id="stop3845" offset=".661" stop-color="#dc572a" stop-opacity="1"/><stop id="stop3847" offset="1" stop-color="#9f3110" stop-opacity="1"/></linearGradient><radialGradient id="radialGradient3397" cx="12.011" cy="10.291" r="20" fx="12.011" fy="10.291" gradientTransform="matrix(2.3542686e-8,0.8091777,-1.1609694,0,18.407556,-6.2505136)" gradientUnits="userSpaceOnUse" xlink:href="#linearGradient3839"/><linearGradient id="linearGradient3385" x1="30.15" x2="30.15" y1="5.07" y2="44.02" gradientTransform="matrix(0.3756098,0,0,0.3756098,-1.0146238,-1.0268546)" gradientUnits="userSpaceOnUse" xlink:href="#linearGradient3308-4-6"/><linearGradient id="linearGradient3389" x1="15.8" x2="15.8" y1="20.445" y2="44.109" gradientTransform="matrix(0.3756098,0,0,0.3756098,-1.0146238,-1.0268546)" gradientUnits="userSpaceOnUse" xlink:href="#linearGradient3308-4-6"/><linearGradient id="linearGradient3308-4-6"><stop id="stop3310-1-4" offset="0" stop-color="#fff" stop-opacity="1"/><stop id="stop3312-5-3" offset="1" stop-color="#fff" stop-opacity="0"/></linearGradient><linearGradient id="linearGradient3366" x1="9.65" x2="9.65" y1="36.845" y2="42.995" gradientTransform="matrix(0.1746115,0,0,0.1766297,0.5828507,6.9181016)" gradientUnits="userSpaceOnUse" xlink:href="#linearGradient3308-4-6"/><linearGradient id="linearGradient8265-821-176-38-919-66-249-7-7"><stop id="stop2687-1-9" offset="0" stop-color="#fff" stop-opacity="1"/><stop id="stop2689-5-4" offset="1" stop-color="#fff" stop-opacity="0"/></linearGradient><linearGradient id="linearGradient3381" x1="16.626" x2="20.055" y1="15.298" y2="24.628" gradientTransform="matrix(0.3687618,0,0,0.3920389,0.4545347,0.5618318)" gradientUnits="userSpaceOnUse" xlink:href="#linearGradient8265-821-176-38-919-66-249-7-7"/><radialGradient id="radialGradient2414" cx="12.011" cy="10.291" r="20" fx="12.011" fy="10.291" gradientTransform="matrix(2.2636253e-8,0.77384,-1.1162701,0,17.811431,-5.3313905)" gradientUnits="userSpaceOnUse" xlink:href="#linearGradient3839"/><linearGradient id="linearGradient2416" x1="24" x2="24" y1="44" y2="3.899" gradientTransform="matrix(0.3756098,0,0,0.3756098,-1.0146238,-1.0268546)" gradientUnits="userSpaceOnUse" xlink:href="#linearGradient2490-113-765"/><linearGradient id="linearGradient2419" x1="16.626" x2="20.055" y1="15.298" y2="24.628" gradientTransform="matrix(0.3687618,0,0,0.3920389,0.4545347,0.5618318)" gradientUnits="userSpaceOnUse" xlink:href="#linearGradient8265-821-176-38-919-66-249-7-7"/><linearGradient id="linearGradient2422" x1="9.65" x2="9.65" y1="36.845" y2="42.995" gradientTransform="matrix(0.1746115,0,0,0.1766297,0.5828507,6.9181016)" gradientUnits="userSpaceOnUse" xlink:href="#linearGradient3308-4-6"/><linearGradient id="linearGradient2425" x1="15.8" x2="15.8" y1="20.445" y2="44.109" gradientTransform="matrix(0.3756098,0,0,0.3756098,-0.9587773,-1.0547778)" gradientUnits="userSpaceOnUse" xlink:href="#linearGradient3308-4-6"/><linearGradient id="linearGradient2428" x1="30.15" x2="30.15" y1="5.07" y2="44.02" gradientTransform="matrix(0.3756098,0,0,0.3756098,-1.0146238,-1.0268546)" gradientUnits="userSpaceOnUse" xlink:href="#linearGradient3308-4-6"/><radialGradient id="radialGradient2431" cx="12.011" cy="10.291" r="20" fx="12.011" fy="10.291" gradientTransform="matrix(2.3542686e-8,0.8091777,-1.1609694,0,18.407556,-6.2505136)" gradientUnits="userSpaceOnUse" xlink:href="#linearGradient3839"/><linearGradient id="linearGradient2433" x1="24" x2="24" y1="44" y2="3.899" gradientTransform="matrix(0.3906505,0,0,0.3927622,-1.1723579,-1.7494096)" gradientUnits="userSpaceOnUse" xlink:href="#linearGradient2490-113-765"/><radialGradient id="radialGradient2436" cx="12.011" cy="10.291" r="20" fx="12.011" fy="10.291" gradientTransform="matrix(2.2636253e-8,0.77384,-1.1162701,0,17.811431,-5.3313905)" gradientUnits="userSpaceOnUse" xlink:href="#linearGradient3839"/><linearGradient id="linearGradient2438" x1="24" x2="24" y1="44" y2="3.899" gradientTransform="matrix(0.3756098,0,0,0.3756098,-1.0146238,-1.0268546)" gradientUnits="userSpaceOnUse" xlink:href="#linearGradient2490-113-765"/><radialGradient id="radialGradient2441" cx="12.011" cy="10.291" r="20" fx="12.011" fy="10.291" gradientTransform="matrix(2.2636253e-8,0.77384,-1.1162701,0,17.811431,-5.3313905)" gradientUnits="userSpaceOnUse" xlink:href="#linearGradient3839"/><linearGradient id="linearGradient2443" x1="24" x2="24" y1="44" y2="3.899" gradientTransform="matrix(0.3756098,0,0,0.3756098,-1.0146238,-1.0268546)" gradientUnits="userSpaceOnUse" xlink:href="#linearGradient2490-113-765"/><linearGradient id="linearGradient2450" x1="24" x2="24" y1="56.763" y2="3.899" gradientTransform="matrix(0.3756098,0,0,0.3756098,-1.0146238,-1.0268546)" gradientUnits="userSpaceOnUse" xlink:href="#linearGradient2490-113-765"/></defs><path marker-start="none" style="text-align:start;line-height:125%;marker:none" id="path3395" fill="url(#radialGradient2441)" fill-opacity="1" fill-rule="nonzero" stroke="url(#linearGradient2450)" stroke-dasharray="none" stroke-dashoffset="0" stroke-linecap="round" stroke-linejoin="round" stroke-miterlimit="4" stroke-opacity="1" stroke-width=".976" marker-end="none" marker-mid="none" d="M 0.4878151,0.48781494 L 0.4878151,3.1299818 C 7.2596616,3.2561703 12.729934,8.7338349 12.854406,15.512206 L 15.512206,15.512206 C 15.386553,7.2670614 8.7252258,0.61331816 0.4878151,0.48781494 zM 0.4878151,6.5694881 L 0.4878151,8.9458743 C 4.0621701,9.0702471 6.9296332,11.934763 7.0541459,15.512206 L 9.4305318,15.512206 C 9.3050158,10.615683 5.3798206,6.6948561 0.4878151,6.5694881 zM 2.0162604,12.487825 C 1.5803152,12.487838 1.2450265,12.641722 0.94308918,12.94557 C 0.6407442,13.244424 0.48780498,13.569489 0.48780488,14.008194 C 0.48780488,14.440045 0.64180889,14.773042 0.94308918,15.070817 C 1.2434663,15.367721 1.5769743,15.512227 2.0162604,15.512215 C 2.4419227,15.512226 2.7611132,15.36851 3.0569109,15.070817 C 3.3598049,14.766003 3.5121904,14.433144 3.5121953,14.008194 C 3.5121904,13.569486 3.3592556,13.244423 3.0569109,12.94557 C 2.7595576,12.640896 2.4384971,12.487838 2.0162604,12.487825 z" display="inline" enable-background="accumulate" font-family="Bitstream Vera Serif" font-size="13.59" font-stretch="normal" font-style="normal" font-variant="normal" font-weight="bold" overflow="visible" text-anchor="start" visibility="visible" writing-mode="lr-tb"/><path d="M 1.46875,1.5625 C 1.46875,1.8032164 1.46875,2.0410778 1.46875,2.28125 C 5.8567822,2.6501041 9.9611637,5.2009193 12.09375,9.0625 C 13.036462,10.732928 13.547689,12.620371 13.71875,14.53125 C 13.947927,14.53125 14.177061,14.53125 14.40625,14.53125 C 14.078736,10.557589 12.019462,6.7157078 8.8125,4.34375 C 6.7045341,2.7576191 4.0987533,1.7884383 1.46875,1.5625 z" style="text-align:start;line-height:125%;marker:none" id="path3383" fill="none" fill-opacity="1" fill-rule="nonzero" stroke="url(#linearGradient2428)" stroke-dasharray="none" stroke-dashoffset="0" stroke-linecap="round" stroke-linejoin="round" stroke-miterlimit="4" stroke-opacity="1" stroke-width=".976" marker-end="none" marker-mid="none" marker-start="none" display="inline" enable-background="accumulate" font-family="Bitstream Vera Serif" font-size="13.59" font-stretch="normal" font-style="normal" font-variant="normal" font-weight="bold" opacity=".4" overflow="visible" text-anchor="start" visibility="visible" writing-mode="lr-tb"/><path d="M 1.5245965,7.7220768 C 1.5245965,7.846925 1.5245965,7.9721579 1.5245965,8.0970768 C 4.5091117,8.5565257 7.0842249,10.833798 7.8058465,13.784577 C 7.8137542,13.816912 7.829635,13.84584 7.8370965,13.878327 C 7.9262049,14.171322 7.9257085,14.35972 7.9308465,14.503327 C 8.0639629,14.503327 8.2006031,14.503327 8.3370965,14.503327 C 7.9334159,11.794445 6.0859475,9.2858834 3.5558465,8.2220768 C 2.9053899,7.9402458 2.2186259,7.8310256 1.5245965,7.7220768 z" style="text-align:start;line-height:125%;marker:none" id="path3387" fill="none" fill-opacity="1" fill-rule="nonzero" stroke="url(#linearGradient2425)" stroke-dasharray="none" stroke-dashoffset="0" stroke-linecap="round" stroke-linejoin="round" stroke-miterlimit="4" stroke-opacity="1" stroke-width=".976" marker-end="none" marker-mid="none" marker-start="none" display="inline" enable-background="accumulate" font-family="Bitstream Vera Serif" font-size="13.59" font-stretch="normal" font-style="normal" font-variant="normal" font-weight="bold" opacity=".4" overflow="visible" text-anchor="start" visibility="visible" writing-mode="lr-tb"/><path d="M 2.0105722,13.488269 C 1.6345131,13.47102 1.3313789,13.961422 1.5759672,14.278813 C 1.7602692,14.5821 2.2458381,14.596491 2.4275366,14.282733 C 2.6573434,13.96186 2.3862371,13.489899 2.0105722,13.488269 z" style="text-align:start;line-height:125%;marker:none" id="path3219" fill="none" fill-opacity="1" fill-rule="nonzero" stroke="url(#linearGradient2422)" stroke-dasharray="none" stroke-dashoffset="0" stroke-linecap="round" stroke-linejoin="round" stroke-miterlimit="4" stroke-opacity="1" stroke-width=".976" marker-end="none" marker-mid="none" marker-start="none" display="inline" enable-background="accumulate" font-family="Bitstream Vera Serif" font-size="13.59" font-stretch="normal" font-style="normal" font-variant="normal" font-weight="bold" opacity=".4" overflow="visible" text-anchor="start" visibility="visible" writing-mode="lr-tb"/><path id="path3379" fill="url(#linearGradient2419)" fill-opacity="1" fill-rule="evenodd" stroke="none" stroke-dasharray="none" stroke-dashoffset="0" stroke-linecap="butt" stroke-linejoin="miter" stroke-miterlimit="4" stroke-opacity="1" stroke-width="1" marker-end="none" marker-mid="none" marker-start="none" d="M 0.46875,0 C 0.34024134,0.0056042331 0.20432918,0.087303897 0.125,0.1875 C 0.045670822,0.2876961 -0.0022666774,0.39160696 0,0.5 L 0,3.125 C -0.0003866159,3.1441704 -0.011441999,3.1817436 0,3.25 C 0.011441999,3.3182564 0.065890534,3.4096412 0.125,3.46875 C 0.24321522,3.5869639 0.33543123,3.6283206 0.5,3.625 C 4.4776057,3.6991208 7.9367177,5.6915027 10.09375,8.71875 C 10.1582,8.80603 10.229588,8.8378433 10.3125,8.875 C 10.395412,8.9121567 10.494519,8.9662971 10.625,8.9375 L 13.46875,8.4375 C 13.575556,8.4119942 13.748067,8.3044457 13.8125,8.15625 C 13.873522,8.0158954 13.88688,7.8736388 13.78125,7.6875 C 11.071733,3.1352401 6.1538784,0.086141929 0.5,0 C 0.45843906,-0.0013256917 0.51031094,-0.0013256917 0.46875,0 z M 0.46875,6.0625 C 0.34023985,6.0681041 0.20432859,6.1498041 0.125,6.25 C 0.045671407,6.3501959 -0.0022667066,6.4541068 0,6.5625 L 0,8.9375 C -0.0022802482,9.0465411 0.027753835,9.1472033 0.09375,9.25 C 0.15974616,9.3527967 0.30929956,9.4617964 0.46875,9.46875 C 1.4006518,9.5011771 2.2765701,9.7334562 3.0625,10.125 C 3.2188489,10.195903 3.3205819,10.168787 3.375,10.15625 L 6.6875,9.59375 C 6.8581635,9.5550446 6.990011,9.3840271 7.03125,9.25 C 7.0745237,9.1093601 7.0790806,8.9017464 6.9375,8.75 C 5.2606203,7.1555345 2.9896444,6.1263008 0.5,6.0625 C 0.45836746,6.0611698 0.51030373,6.0611744 0.46875,6.0625 z" display="inline" enable-background="accumulate" opacity=".2" overflow="visible" visibility="visible" style="marker:none"/></svg>