<svg xmlns="http://www.w3.org/2000/svg" xmlns:svg="http://www.w3.org/2000/svg" xmlns:xlink="http://www.w3.org/1999/xlink" id="svg2" width="16" height="16" version="1.0"><defs id="defs4"><linearGradient id="linearGradient3308-4-6-931-761-6"><stop id="stop2919-1" offset="0" stop-color="#fff" stop-opacity="1"/><stop id="stop2921-0" offset="1" stop-color="#fff" stop-opacity="0"/></linearGradient><linearGradient id="linearGradient3707"><stop id="stop3709" offset="0" stop-color="#4c2a4e" stop-opacity="1"/><stop id="stop3711" offset="1" stop-color="#a85394" stop-opacity="1"/></linearGradient><linearGradient id="linearGradient3824"><stop id="stop3826" offset="0" stop-color="#fff" stop-opacity="1"/><stop id="stop3828" offset="1" stop-color="#fff" stop-opacity="0"/></linearGradient><linearGradient id="linearGradient3924"><stop id="stop3926" offset="0" stop-color="#fff" stop-opacity="1"/><stop id="stop3928" offset="1" stop-color="#fff" stop-opacity="0"/></linearGradient><linearGradient id="linearGradient7209"><stop id="stop7211" offset="0" stop-color="#e384c6" stop-opacity="1"/><stop id="stop7213" offset=".262" stop-color="#c467be" stop-opacity="1"/><stop id="stop7215" offset=".705" stop-color="#93399a" stop-opacity="1"/><stop id="stop7217" offset="1" stop-color="#48274f" stop-opacity="1"/></linearGradient><linearGradient id="linearGradient3036" x1="24" x2="24" y1="5" y2="43" gradientTransform="matrix(0.51351371,0,0,0.51351372,-1.3243241,-7.3245164)" gradientUnits="userSpaceOnUse" xlink:href="#linearGradient3308-4-6-931-761-6"/><radialGradient id="radialGradient3044" cx="12.011" cy="13.195" r="20" fx="12.011" fy="13.195" gradientTransform="matrix(3.0337968e-8,0.90467628,-1.3049793,0,22.02683,-11.63581)" gradientUnits="userSpaceOnUse" xlink:href="#linearGradient7209"/><linearGradient id="linearGradient3046" x1="24" x2="24" y1="44" y2="3.899" gradientTransform="matrix(0.53846153,0,0,0.53847115,-1.9230779,-7.9234959)" gradientUnits="userSpaceOnUse" xlink:href="#linearGradient3707"/><linearGradient id="linearGradient4028" x1="17" x2="17" y1="25" y2="6" gradientTransform="matrix(0.52216996,0,0,0.52217053,-1.4180309,-8.0544519)" gradientUnits="userSpaceOnUse" spreadMethod="reflect" xlink:href="#linearGradient3924"/><radialGradient id="radialGradient4031" cx="24" cy="9.489" r="18.5" fx="24" fy="9.489" gradientTransform="matrix(0,0.70783234,-2.1158858,0,37.313977,-15.431227)" gradientUnits="userSpaceOnUse" xlink:href="#linearGradient3824"/><radialGradient id="radialGradient4494" cx="12.011" cy="13.195" r="20" fx="12.011" fy="13.195" gradientTransform="matrix(3.0337968e-8,0.90467628,-1.3049793,0,22.02683,-11.63581)" gradientUnits="userSpaceOnUse" xlink:href="#linearGradient7209"/><linearGradient id="linearGradient4496" x1="24" x2="24" y1="44" y2="3.899" gradientTransform="matrix(0.53846153,0,0,0.53847115,-1.9230779,-7.9234959)" gradientUnits="userSpaceOnUse" xlink:href="#linearGradient3707"/><linearGradient id="linearGradient4498" x1="24" x2="24" y1="5" y2="43" gradientTransform="matrix(0.51351371,0,0,0.51351372,-1.3243241,-7.3245164)" gradientUnits="userSpaceOnUse" xlink:href="#linearGradient3308-4-6-931-761-6"/><radialGradient id="radialGradient4500" cx="24" cy="9.489" r="18.5" fx="24" fy="9.489" gradientTransform="matrix(0,0.70783234,-2.1158858,0,37.313977,-15.431227)" gradientUnits="userSpaceOnUse" xlink:href="#linearGradient3824"/><linearGradient id="linearGradient4502" x1="17" x2="17" y1="25" y2="6" gradientTransform="matrix(0.52216996,0,0,0.52217053,-1.4180309,-8.0544519)" gradientUnits="userSpaceOnUse" spreadMethod="reflect" xlink:href="#linearGradient3924"/><linearGradient id="linearGradient4505" x1="17" x2="17" y1="25" y2="6" gradientTransform="matrix(0.37298017,0,0,0.37298058,-0.87004999,-1.7246554)" gradientUnits="userSpaceOnUse" spreadMethod="reflect" xlink:href="#linearGradient3924"/><radialGradient id="radialGradient4508" cx="24" cy="9.489" r="18.5" fx="24" fy="9.489" gradientTransform="matrix(0,0.52841246,-1.4829018,0,26.457108,-7.6819019)" gradientUnits="userSpaceOnUse" xlink:href="#linearGradient3824"/><linearGradient id="linearGradient4513" x1="24" x2="24" y1="5" y2="43" gradientTransform="matrix(0.3513515,0,0,0.3513515,-0.4324325,-0.43244088)" gradientUnits="userSpaceOnUse" xlink:href="#linearGradient3308-4-6-931-761-6"/><radialGradient id="radialGradient4516" cx="12.011" cy="13.195" r="20" fx="12.011" fy="13.195" gradientTransform="matrix(2.1670072e-8,0.64620016,-0.93213214,0,15.876374,-3.8828059)" gradientUnits="userSpaceOnUse" xlink:href="#linearGradient7209"/><linearGradient id="linearGradient4518" x1="24" x2="24" y1="44" y2="3.899" gradientTransform="matrix(0.38461706,0,0,0.38462393,-1.2307775,-1.2311414)" gradientUnits="userSpaceOnUse" xlink:href="#linearGradient3707"/></defs><rect id="rect5505-3" width="15" height="15" x=".5" y=".5" fill="url(#radialGradient4516)" fill-opacity="1" stroke="url(#linearGradient4518)" stroke-dasharray="none" stroke-dashoffset="0" stroke-linecap="round" stroke-linejoin="round" stroke-miterlimit="4" stroke-opacity="1" stroke-width="1" rx="2" ry="2"/><rect id="rect6741" width="13" height="13" x="1.5" y="1.5" fill="none" stroke="url(#linearGradient4513)" stroke-dasharray="none" stroke-dashoffset="0" stroke-linecap="round" stroke-linejoin="round" stroke-miterlimit="4" stroke-opacity="1" stroke-width="1" opacity=".4" rx="1" ry="1"/><path id="path3701" fill="none" stroke="#fff" stroke-linecap="butt" stroke-linejoin="miter" stroke-opacity="1" stroke-width="1" d="M 1.5008407,8.3660992 C 2.9006967,4.587813 4.2572294,10.052382 5.1940227,9.1095203 6.0012199,8.2970939 6.1082263,5.9591302 6.96675,5.0950466 7.7360991,4.320713 8.2716601,7.5978837 8.4440228,7.7713624 9.501167,8.8353549 9.6048525,6.0403691 10.069023,6.5075461 c 0.766148,0.771112 -0.089954,2.8088059 0.738636,3.6427649 0.664809,0.669115 1.346195,-5.9080213 3.693182,-1.8585542" opacity=".8"/><path id="path3782" fill="url(#radialGradient4508)" fill-opacity="1" stroke="none" d="M 7.201544,5.0000004 C 6.7248004,5.2843278 6.5650567,5.9225178 6.3667009,6.4374283 6.0178981,7.3975893 5.8900021,8.514137 5.2002074,9.2879273 4.7585816,9.7130246 4.2508006,9.1800279 3.98797,8.8006627 3.5257864,8.24705 3.1882812,7.4973964 2.5355722,7.168325 1.9204333,7.04893 1.664174,7.847893 1.4491318,8.3255797 1.421806,8.4729485 1.0957042,8.4902058 1,8.4717585 L 1,14.233665 C 1,14.528486 1.4696924,15 1.7464731,15 L 14.280558,15 C 14.557338,15 15,14.528486 15,14.233665 L 15,8.6423015 C 14.647484,8.0745191 13.880517,7.2096539 13.388534,7.0830542 12.707707,7.0796202 12.425176,7.8962429 12.153423,8.435214 11.849319,9.0616661 11.696653,9.7871575 11.284271,10.347729 10.677737,10.747576 10.378685,9.6470458 10.369375,9.1539296 10.285381,8.3428624 10.526267,7.4606533 10.163522,6.7054238 9.8705398,6.441741 9.8221091,7.381354 9.6145848,7.6068641 9.424589,8.3136063 8.4322262,8.3526449 8.2422397,7.6434138 7.9710005,6.7915015 7.851418,5.8483119 7.3387794,5.1096369 L 7.2587254,5.036547 7.2015434,5 z" opacity=".4"/></svg>