<svg xmlns="http://www.w3.org/2000/svg" xmlns:svg="http://www.w3.org/2000/svg" xmlns:xlink="http://www.w3.org/1999/xlink" id="svg3320" width="16" height="16" version="1.0"><defs id="defs3322"><linearGradient id="linearGradient3699"><stop id="stop3701" offset="0" stop-color="#f8b17e" stop-opacity="1"/><stop id="stop3703" offset=".262" stop-color="#e35d4f" stop-opacity="1"/><stop id="stop3705" offset=".747" stop-color="#c6262e" stop-opacity="1"/><stop id="stop3707" offset="1" stop-color="#690b54" stop-opacity="1"/></linearGradient><radialGradient id="radialGradient2848" cx="-1.75" cy="-9.28" r="18.657" fx="-1.75" fy="-9.28" gradientTransform="matrix(-0.00343383,0.85759817,-0.80521375,-0.00322408,-2.4787726,3.470843)" gradientUnits="userSpaceOnUse" xlink:href="#linearGradient3699"/><linearGradient id="linearGradient2490"><stop id="stop2492" offset="0" stop-color="#791235" stop-opacity="1"/><stop id="stop2494" offset="1" stop-color="#dd3b27" stop-opacity="1"/></linearGradient><linearGradient id="linearGradient4873"><stop id="stop4875" offset="0" stop-color="#fff" stop-opacity="1"/><stop id="stop4877" offset="1" stop-color="#fff" stop-opacity="0"/></linearGradient><linearGradient id="linearGradient3697" x1="3.82" x2="4" y1="18.827" y2="0" gradientUnits="userSpaceOnUse" xlink:href="#linearGradient2490"/><linearGradient id="linearGradient3715" x1="7.193" x2="7.193" y1="1.804" y2="23.644" gradientUnits="userSpaceOnUse" xlink:href="#linearGradient4873"/></defs><g id="layer1"><path id="path2160" fill="url(#radialGradient2848)" fill-opacity="1" stroke="url(#linearGradient3697)" stroke-dasharray="none" stroke-dashoffset="0" stroke-linecap="round" stroke-linejoin="round" stroke-miterlimit="4" stroke-opacity="1" stroke-width=".985" d="M 14.518855,14.154319 9.5359355,12.423018 5.4693972,15.48067 4.5204956,11.478572 0.57733003,12.481465 3.5049382,8.5018995 0.80506946,4.5079228 4.5675542,4.5392438 6.034122,0.49023572 9.374496,2.7276399 14.388377,0.67238371 12.405309,5.5985426 15.50767,8.1184833 12.419671,9.5817702 14.518855,14.154319 z"/><path id="rect3153" fill="#fff" fill-opacity="1" stroke="none" d="m 7.0001383,3.999643 1.9999684,0 -0.5597847,4.0000019 -0.9687865,0 L 7.0001383,3.999643 z"/><path id="path3157" fill="#fff" fill-opacity="1" stroke="none" d="m 12.96875,13.546875 a 1.421875,1.421875 0 1 1 -2.84375,0 1.421875,1.421875 0 1 1 2.84375,0 z" transform="matrix(0.70328565,0,0,0.70329707,-0.12062927,0.47216821)"/><path id="path3200" fill="none" stroke="url(#linearGradient3715)" stroke-dasharray="none" stroke-dashoffset="0" stroke-linecap="round" stroke-linejoin="miter" stroke-miterlimit="4" stroke-opacity="1" stroke-width="1.328" d="M 9.21875,3.09375 7.84375,7.0625 A 1.2893515,1.2893515 0 0 1 6.625,7.90625 L 4,7.875 6.25,11.3125 a 1.2893515,1.2893515 0 0 1 0,1.46875 L 4.4375,15.3125 6.25,14.84375 a 1.2893515,1.2893515 0 0 1 1.5625,0.96875 l 0.8125,3.5 3.8125,-2.9375 a 1.2893515,1.2893515 0 0 1 1.21875,-0.1875 L 17.4375,17.53125 15.875,14.0625 A 1.2893515,1.2893515 0 0 1 16.5,12.375 L 18.84375,11.25 16.25,9.09375 A 1.2893515,1.2893515 0 0 1 15.875,7.625 l 1.53125,-3.90625 -3.875,1.625 a 1.2893515,1.2893515 0 0 1 -1.21875,-0.125 l -3.09375,-2.125 z" opacity=".4" transform="matrix(0.75085062,0,0,0.73261737,-0.40098082,-0.32175428)"/></g></svg>