<svg xmlns="http://www.w3.org/2000/svg" xmlns:svg="http://www.w3.org/2000/svg" xmlns:xlink="http://www.w3.org/1999/xlink" id="svg3785" width="16" height="16" version="1.1"><defs id="defs3787"><linearGradient id="linearGradient2966" x1="23.97" x2="23.97" y1="3.981" y2="44.024" gradientTransform="matrix(0.31578947,0,0,0.31531012,0.421053,0.42344985)" gradientUnits="userSpaceOnUse" xlink:href="#linearGradient4246"/><linearGradient id="linearGradient4246"><stop id="stop4248" offset="0" stop-color="#fff" stop-opacity="1"/><stop id="stop4250" offset="1" stop-color="#dcdcdc" stop-opacity="1"/></linearGradient><linearGradient id="linearGradient3242"><stop id="stop3244" offset="0" stop-color="#f89b7e" stop-opacity="1"/><stop id="stop3246" offset=".262" stop-color="#e35d4f" stop-opacity="1"/><stop id="stop3248" offset=".661" stop-color="#c6262e" stop-opacity="1"/><stop id="stop3250" offset="1" stop-color="#690b2c" stop-opacity="1"/></linearGradient><linearGradient id="linearGradient2490"><stop id="stop2492" offset="0" stop-color="#791235" stop-opacity="1"/><stop id="stop2494" offset="1" stop-color="#dd3b27" stop-opacity="1"/></linearGradient><radialGradient id="radialGradient3781" cx="7.496" cy="8.45" r="20" fx="7.496" fy="8.45" gradientTransform="matrix(0,0.76658888,-1.0260686,-3.2347008e-8,16.670075,-4.0519301)" gradientUnits="userSpaceOnUse" xlink:href="#linearGradient3242"/><linearGradient id="linearGradient3783" x1="24" x2="24" y1="44" y2="3.899" gradientTransform="matrix(0.33333341,0,0,0.33333341,-4.6e-6,-2e-6)" gradientUnits="userSpaceOnUse" xlink:href="#linearGradient2490"/><linearGradient id="linearGradient3924-4"><stop id="stop3926-0" offset="0" stop-color="#fff" stop-opacity="1"/><stop id="stop3928-6" offset=".063" stop-color="#fff" stop-opacity=".235"/><stop id="stop3930-2" offset=".951" stop-color="#fff" stop-opacity=".157"/><stop id="stop3932-9" offset="1" stop-color="#fff" stop-opacity=".392"/></linearGradient><linearGradient id="linearGradient3079" x1="24" x2="24" y1="5" y2="43" gradientTransform="matrix(0.2972973,0,0,0.2972973,0.8648665,0.8648673)" gradientUnits="userSpaceOnUse" xlink:href="#linearGradient3924-4"/></defs><metadata id="metadata3790"/><g id="layer1"><rect stroke-linejoin="round" style="marker:none" id="rect5505" width="13" height="13" x="1.5" y="1.5" fill="url(#radialGradient3781)" fill-opacity="1" fill-rule="nonzero" stroke="url(#linearGradient3783)" stroke-dasharray="none" stroke-dashoffset="0" stroke-linecap="round" stroke-miterlimit="4" stroke-opacity="1" stroke-width="1" color="#000" display="inline" enable-background="accumulate" overflow="visible" rx="1" ry="1" visibility="visible"/><path id="path6711-0-7-1" fill="#000" fill-opacity="1" fill-rule="evenodd" stroke="none" d="M 9.203947,2.9641455 C 5.113768,6.4737435 2.777195,6.9691385 2,7.0237645 l 0,1.26124 c 0.586627,-0.0819 2.061183,-0.366325 3.631579,-1.349922 2.01368,-1.26124 4.421053,-3.655626 4.421053,-3.655626 C 9.428735,4.5032655 9.225634,8.5743065 9.194079,14 l 4.174342,0 c 0.159564,0 0.303527,-0.06089 0.414474,-0.157654 -0.657016,-1.573283 -1.114932,-3.642124 -1.460527,-5.5179285 -0.327633,-2.486232 0.156159,-4.659924 0.335527,-5.360272 l -3.453948,0 z M 2,9.0831335 2,10.472469 c 1.471584,0 3.632183,1.536222 5.003289,3.527532 l 1.184211,0 C 6.833236,11.8278 3.123423,9.0831335 2,9.0831335 z" opacity=".05"/><path id="path6711-0-7" fill="#000" fill-opacity="1" fill-rule="evenodd" stroke="none" d="M 9.203947,2.6488365 C 5.113768,6.1584335 2.777195,6.6538275 2,6.7084535 l 0,1.261241 c 0.586627,-0.08191 2.061183,-0.366326 3.631579,-1.349921 2.01368,-1.261241 4.421053,-3.655628 4.421053,-3.655628 -0.63601,1.247572 -0.833198,5.451123 -0.858553,11.0358555 l 4.174342,0 c 0.208429,0 0.388393,-0.101638 0.50329,-0.25619 -0.708198,-1.595773 -1.187635,-3.7714435 -1.549343,-5.7347025 -0.327633,-2.486234 0.156159,-4.659926 0.335527,-5.360272 l -3.453948,0 z M 2,8.7678225 2,10.157159 c 1.549006,0 3.8586,1.698826 5.210526,3.842842 l 1.154606,0 C 7.202676,11.78868 3.179212,8.7678225 2,8.7678225 z" opacity=".1"/><path id="path6711-0" fill="#000" fill-opacity="1" fill-rule="evenodd" stroke="none" d="M 9.203947,2.3335255 C 5.113768,5.8431225 2.777195,6.3385175 2,6.3931435 l 0,1.261241 c 0.586627,-0.08191 2.061183,-0.366325 3.631579,-1.349922 2.01368,-1.26124 4.421053,-3.655626 4.421053,-3.655626 C 9.404505,3.9201745 9.203295,8.2552835 9.184211,14 l 4.18421,0 c 0.262421,0 0.486612,-0.157793 0.582237,-0.384284 -0.754479,-1.608907 -1.252606,-3.8827965 -1.62829,-5.9219175 -0.327633,-2.486233 0.156159,-4.659926 0.335527,-5.360273 l -3.453948,0 z M 2,8.4525135 2,9.8418475 c 1.624312,0 4.082137,1.8672795 5.398026,4.1581535 l 1.125,0 C 7.607706,11.774078 3.235815,8.4525135 2,8.4525135 z" opacity=".25"/><path id="path6711" fill="url(#linearGradient2966)" fill-opacity="1" fill-rule="evenodd" stroke="none" d="M 9.203947,2.0000005 C 5.113768,5.5095975 2.777195,6.0049915 2,6.0596175 l 0,1.261241 c 0.586627,-0.08191 2.061183,-0.366325 3.631579,-1.349921 2.01368,-1.26124 4.421053,-3.655627 4.421053,-3.655627 -0.660241,1.2951 -0.852507,5.760981 -0.865264,11.6664755 l 4.220527,0 C 13.73834,13.981786 14,13.720523 14,13.390579 13.217568,11.776849 12.706243,9.4438505 12.322368,7.3602725 c -0.327633,-2.486233 0.156159,-4.659926 0.335527,-5.360272 l -3.453948,0 z M 2,8.1150105 2,9.5119055 c 1.698054,0 4.308546,2.0376275 5.571388,4.4698805 l 1.060729,0 C 8.038739,11.77063 3.295479,8.1150105 2,8.1150105 z"/><path id="path6713" fill="#000" fill-opacity="1" fill-rule="evenodd" stroke="none" d="M 12.845395,2.0182155 C 11.23774,2.9976215 5.974052,5.9827755 2,5.6048685 l 0,2.699843 c 0,0 8.836753,1.319162 12,-1.290801 l 0,-4.365074 c 0,-0.349364 -0.281684,-0.630621 -0.631579,-0.630621 l -0.523026,0 z" opacity=".1"/><path id="path6715" fill="#000" fill-opacity="1" fill-rule="evenodd" stroke="none" d="m 14,8.1470565 c -1.590329,1.583945 -3.224806,3.6862705 -4.3125,5.8529445 l 1.273026,0 C 11.840965,12.512638 12.988778,10.878982 14,9.8714085 l 0,-1.724352 z" opacity=".1"/><rect id="rect6741-0-3" width="11" height="11" x="2.5" y="2.5" fill="none" stroke="url(#linearGradient3079)" stroke-dasharray="none" stroke-dashoffset="0" stroke-linecap="round" stroke-linejoin="round" stroke-miterlimit="4" stroke-opacity="1" stroke-width="1" opacity=".5"/></g></svg>