<svg xmlns="http://www.w3.org/2000/svg" xmlns:svg="http://www.w3.org/2000/svg" xmlns:xlink="http://www.w3.org/1999/xlink" id="svg3324" width="16" height="16" version="1.1"><defs id="defs3326"><linearGradient id="linearGradient3050" x1="16.626" x2="20.055" y1="15.298" y2="24.628" gradientTransform="matrix(0.30315308,0,0,0.32156297,1.6873734,0.0806712)" gradientUnits="userSpaceOnUse" xlink:href="#linearGradient8265-821-176-38-919-66-249"/><linearGradient id="linearGradient8265-821-176-38-919-66-249"><stop id="stop2687" offset="0" stop-color="#fff" stop-opacity="1"/><stop id="stop2689" offset="1" stop-color="#fff" stop-opacity="0"/></linearGradient><linearGradient id="linearGradient3053" x1="23" x2="23" y1="20" y2="41" gradientTransform="matrix(0.25925926,0,0,0.3076923,1.7777778,0.48430232)" gradientUnits="userSpaceOnUse" xlink:href="#linearGradient2867-449-88-871-390-598-476-591-434-148"/><linearGradient id="linearGradient2867-449-88-871-390-598-476-591-434-148"><stop id="stop4627" offset="0" stop-color="#51cfee" stop-opacity="1"/><stop id="stop4629" offset=".262" stop-color="#49a3d2" stop-opacity="1"/><stop id="stop4631" offset=".705" stop-color="#3470b4" stop-opacity="1"/><stop id="stop4633" offset="1" stop-color="#1b5699" stop-opacity="1"/></linearGradient><linearGradient id="linearGradient3055" x1="35" x2="35" y1="32.036" y2="18" gradientTransform="matrix(0.25925926,0,0,0.3076923,1.7777778,0.48430232)" gradientUnits="userSpaceOnUse" xlink:href="#linearGradient3332-412-419-652-471-761-410-156-661-505"/><linearGradient id="linearGradient3332-412-419-652-471-761-410-156-661-505"><stop id="stop8032" offset="0" stop-color="#205286" stop-opacity="1"/><stop id="stop8034" offset="1" stop-color="#5492be" stop-opacity="1"/></linearGradient><linearGradient id="linearGradient3135" x1="34.542" x2="34.542" y1="41" y2="6.845" gradientTransform="matrix(0.33333332,0,0,0.33333336,1.0395355e-7,7.4632568e-7)" gradientUnits="userSpaceOnUse" xlink:href="#linearGradient3996-4"/><linearGradient id="linearGradient3996-4"><stop id="stop3998-0" offset="0" stop-color="#fff" stop-opacity="1"/><stop id="stop4000-8" offset="1" stop-color="#fff" stop-opacity="0"/></linearGradient><radialGradient id="radialGradient3061" cx="24" cy="24" r="17" fx="24" fy="24" gradientTransform="matrix(0.21212122,0,0,0.21212122,2.9090907,2.9090908)" gradientUnits="userSpaceOnUse" xlink:href="#linearGradient3301"/><linearGradient id="linearGradient3301"><stop id="stop3303" offset="0" stop-color="#fff" stop-opacity="0"/><stop id="stop3309" offset=".7" stop-color="#fff" stop-opacity="0"/><stop id="stop3305" offset="1" stop-color="#000" stop-opacity="1"/></linearGradient><linearGradient id="linearGradient3063" x1="29.05" x2="29.05" y1="7.028" y2="26.494" gradientTransform="matrix(0.21212122,0,0,-0.21212122,2.9090909,13.090909)" gradientUnits="userSpaceOnUse" xlink:href="#linearGradient3708"/><linearGradient id="linearGradient3708"><stop id="stop3710" offset="0" stop-color="#000" stop-opacity="1"/><stop id="stop3712" offset="1" stop-color="#000" stop-opacity="1"/></linearGradient><radialGradient id="radialGradient3066" cx="27.412" cy="12.08" r="18" fx="27.412" fy="12.08" gradientTransform="matrix(0,0.45594192,-0.68377152,0,17.123526,-2.7998112)" gradientUnits="userSpaceOnUse" xlink:href="#linearGradient3268-1"/><linearGradient id="linearGradient3268-1"><stop id="stop3270-7" offset="0" stop-color="#fff" stop-opacity="1"/><stop id="stop3272-0" offset="1" stop-color="#d8d8d8" stop-opacity="1"/></linearGradient><linearGradient id="linearGradient3068" x1="29.05" x2="29.05" y1="5.108" y2="43.199" gradientTransform="matrix(0.27272728,0,0,0.27272728,1.4545454,1.4545466)" gradientUnits="userSpaceOnUse" xlink:href="#linearGradient3332-412-419-652-471-761-410-156-661-505"/><linearGradient id="linearGradient2867-449-88-871-390-598-476-591-434-148-5"><stop id="stop4627-6" offset="0" stop-color="#51cfee" stop-opacity="1"/><stop id="stop4629-7" offset=".262" stop-color="#49a3d2" stop-opacity="1"/><stop id="stop4631-7" offset=".705" stop-color="#3470b4" stop-opacity="1"/><stop id="stop4633-4" offset="1" stop-color="#1b5699" stop-opacity="1"/></linearGradient><linearGradient id="linearGradient3332-412-419-652-471-761-410-156-661-505-6"><stop id="stop8032-4" offset="0" stop-color="#205286" stop-opacity="1"/><stop id="stop8034-7" offset="1" stop-color="#5492be" stop-opacity="1"/></linearGradient><radialGradient id="radialGradient3304" cx="7.496" cy="8.45" r="20" fx="7.496" fy="8.45" gradientTransform="matrix(0,0.76660201,-1.0260862,-3.2347561e-8,16.670338,-4.0522499)" gradientUnits="userSpaceOnUse" xlink:href="#linearGradient2867-449-88-871-390-598-476-591-434-148-5"/><linearGradient id="linearGradient3306" x1="24" x2="24" y1="44" y2="3.899" gradientTransform="matrix(0.33333912,0,0,0.33333912,-2.7097968e-5,-2.5252047e-4)" gradientUnits="userSpaceOnUse" xlink:href="#linearGradient3332-412-419-652-471-761-410-156-661-505-6"/><radialGradient id="radialGradient3308" cx="7.496" cy="8.45" r="20" fx="7.496" fy="8.45" gradientTransform="matrix(0,0.76660201,-1.0260862,-3.2347561e-8,16.670338,-4.0522499)" gradientUnits="userSpaceOnUse" xlink:href="#linearGradient2867-449-88-871-390-598-476-591-434-148-5"/><linearGradient id="linearGradient3310" x1="24" x2="24" y1="44" y2="3.899" gradientTransform="matrix(0.33333912,0,0,0.33333912,-2.7097968e-5,-2.5252047e-4)" gradientUnits="userSpaceOnUse" xlink:href="#linearGradient3332-412-419-652-471-761-410-156-661-505-6"/><radialGradient id="radialGradient3312" cx="7.496" cy="8.45" r="20" fx="7.496" fy="8.45" gradientTransform="matrix(0,0.76660201,-1.0260862,-3.2347561e-8,16.670338,-4.0522499)" gradientUnits="userSpaceOnUse" xlink:href="#linearGradient2867-449-88-871-390-598-476-591-434-148-5"/><linearGradient id="linearGradient3314" x1="24" x2="24" y1="44" y2="3.899" gradientTransform="matrix(0.33333912,0,0,0.33333912,-2.7097968e-5,-2.5252047e-4)" gradientUnits="userSpaceOnUse" xlink:href="#linearGradient3332-412-419-652-471-761-410-156-661-505-6"/><radialGradient id="radialGradient3316" cx="7.496" cy="8.45" r="20" fx="7.496" fy="8.45" gradientTransform="matrix(0,0.76660201,-1.0260862,-3.2347561e-8,16.670338,-4.0522499)" gradientUnits="userSpaceOnUse" xlink:href="#linearGradient2867-449-88-871-390-598-476-591-434-148-5"/><linearGradient id="linearGradient3318" x1="24" x2="24" y1="44" y2="3.899" gradientTransform="matrix(0.33333912,0,0,0.33333912,-2.7097968e-5,-2.5252047e-4)" gradientUnits="userSpaceOnUse" xlink:href="#linearGradient3332-412-419-652-471-761-410-156-661-505-6"/><radialGradient id="radialGradient3320" cx="7.496" cy="8.45" r="20" fx="7.496" fy="8.45" gradientTransform="matrix(0,0.76660201,-1.0260862,-3.2347561e-8,16.670338,-4.0522499)" gradientUnits="userSpaceOnUse" xlink:href="#linearGradient2867-449-88-871-390-598-476-591-434-148-5"/><linearGradient id="linearGradient3322" x1="24" x2="24" y1="44" y2="3.899" gradientTransform="matrix(0.33333912,0,0,0.33333912,-2.7097968e-5,-2.5252047e-4)" gradientUnits="userSpaceOnUse" xlink:href="#linearGradient3332-412-419-652-471-761-410-156-661-505-6"/></defs><metadata id="metadata3329"/><g id="layer1"><g id="layer1-5" fill="url(#radialGradient3320)" fill-opacity="1" fill-rule="nonzero" stroke="url(#linearGradient3322)" stroke-dasharray="none" stroke-dashoffset="0" stroke-linecap="round" stroke-linejoin="round" stroke-miterlimit="4" stroke-opacity="1" stroke-width="1" color="#000" display="inline" visibility="visible" style="marker:none"><rect id="rect5505" width="13" height="13" x="1.5" y="1.5" fill="url(#radialGradient3304)" fill-opacity="1" fill-rule="nonzero" stroke="url(#linearGradient3306)" stroke-dasharray="none" stroke-dashoffset="0" stroke-linecap="round" stroke-linejoin="round" stroke-miterlimit="4" stroke-opacity="1" stroke-width="1" color="#000" display="inline" enable-background="accumulate" overflow="visible" rx=".744" ry=".744" visibility="visible" style="marker:none"/><rect id="rect6741" width="11" height="11" x="2.5" y="2.5" fill="url(#radialGradient3308)" fill-opacity="1" fill-rule="nonzero" stroke="url(#linearGradient3310)" stroke-dasharray="none" stroke-dashoffset="0" stroke-linecap="round" stroke-linejoin="round" stroke-miterlimit="4" stroke-opacity="1" stroke-width="1" color="#000" display="inline" enable-background="accumulate" opacity=".4" overflow="visible" rx=".406" ry=".406" visibility="visible" style="marker:none"/><path id="path2502" fill="url(#radialGradient3312)" fill-opacity="1" fill-rule="nonzero" stroke="url(#linearGradient3314)" stroke-dasharray="none" stroke-dashoffset="0" stroke-linecap="round" stroke-linejoin="round" stroke-miterlimit="4" stroke-opacity="1" stroke-width="1" d="M 7.25,5 C 7.1115,5 7,5.1115 7,5.25 L 7,6.1875 C 6.903914,6.221989 6.8100205,6.268764 6.71875,6.3125 L 6.0625,5.65625 C 6.0135329,5.6072829 5.9389048,5.5625 5.875,5.5625 5.811095,5.5625 5.7364672,5.607283 5.6875,5.65625 L 4.65625,6.6875 c -0.097934,0.097934 -0.097935,0.2770659 0,0.375 L 5.3125,7.71875 C 5.2687639,7.8100205 5.2219888,7.9039138 5.1875,8 L 4.25,8 C 4.1115,8 4,8.1115 4,8.25 l 0,1.5 C 4,9.8885 4.1115,10 4.25,10 l 0.9375,0 c 0.034489,0.09609 0.081264,0.189979 0.125,0.28125 L 4.65625,10.9375 c -0.097934,0.09793 -0.097935,0.277065 0,0.375 l 1.03125,1.03125 c 0.097934,0.09793 0.2770659,0.09793 0.375,0 L 6.71875,11.6875 C 6.810021,11.73124 6.9039138,11.77801 7,11.8125 L 7,12.75 C 7,12.8885 7.1115,13 7.25,13 l 1.5,0 C 8.8885,13 9,12.8885 9,12.75 l 0,-0.9375 c 0.096086,-0.03449 0.1899795,-0.08126 0.28125,-0.125 l 0.65625,0.65625 c 0.097934,0.09793 0.277065,0.09793 0.375,0 l 1.03125,-1.03125 c 0.09793,-0.09793 0.09793,-0.277066 0,-0.375 L 10.6875,10.28125 C 10.73124,10.18998 10.77801,10.096086 10.8125,10 L 11.75,10 C 11.8885,10 12,9.8885 12,9.75 l 0,-1.5 C 12,8.1115 11.8885,8 11.75,8 L 10.8125,8 C 10.77801,7.903914 10.73124,7.8100205 10.6875,7.71875 L 11.34375,7.0625 c 0.09793,-0.097934 0.09793,-0.2770656 0,-0.375 L 10.3125,5.65625 c -0.09793,-0.097934 -0.277066,-0.097935 -0.375,0 L 9.28125,6.3125 C 9.1899795,6.2687639 9.0960862,6.2219888 9,6.1875 L 9,5.25 C 9,5.1115 8.8885,5 8.75,5 L 7.25,5 z M 8,8 C 8.552,8 9,8.448 9,9 9,9.552 8.552,10 8,10 7.448,10 7,9.552 7,9 7,8.448 7.448,8 8,8 z" color="#000" display="inline" enable-background="accumulate" opacity=".4" overflow="visible" visibility="visible" style="marker:none"/><path id="rect2484" fill="url(#radialGradient3316)" fill-opacity="1" fill-rule="nonzero" stroke="url(#linearGradient3318)" stroke-dasharray="none" stroke-dashoffset="0" stroke-linecap="round" stroke-linejoin="round" stroke-miterlimit="4" stroke-opacity="1" stroke-width="1" d="M 7.25,4 C 7.1115,4 7,4.1115 7,4.25 L 7,5.1875 C 6.903914,5.221989 6.8100205,5.268764 6.71875,5.3125 L 6.0625,4.65625 C 6.0135329,4.6072829 5.9389048,4.5625 5.875,4.5625 5.811095,4.5625 5.7364672,4.607283 5.6875,4.65625 L 4.65625,5.6875 c -0.097934,0.097934 -0.097935,0.2770659 0,0.375 L 5.3125,6.71875 C 5.2687639,6.8100205 5.2219888,6.9039138 5.1875,7 L 4.25,7 C 4.1115,7 4,7.1115 4,7.25 l 0,1.5 C 4,8.8885 4.1115,9 4.25,9 l 0.9375,0 c 0.034489,0.096086 0.081264,0.1899795 0.125,0.28125 L 4.65625,9.9375 c -0.097934,0.097934 -0.097935,0.277065 0,0.375 l 1.03125,1.03125 c 0.097934,0.09793 0.2770659,0.09793 0.375,0 L 6.71875,10.6875 C 6.810021,10.73124 6.9039138,10.77801 7,10.8125 L 7,11.75 C 7,11.8885 7.1115,12 7.25,12 l 1.5,0 C 8.8885,12 9,11.8885 9,11.75 l 0,-0.9375 c 0.096086,-0.03449 0.1899795,-0.08126 0.28125,-0.125 l 0.65625,0.65625 c 0.097934,0.09793 0.277065,0.09793 0.375,0 l 1.03125,-1.03125 c 0.09793,-0.09793 0.09793,-0.277066 0,-0.375 L 10.6875,9.28125 C 10.731236,9.1899795 10.778011,9.0960862 10.8125,9 L 11.75,9 C 11.8885,9 12,8.8885 12,8.75 l 0,-1.5 C 12,7.1115 11.8885,7 11.75,7 L 10.8125,7 C 10.77801,6.903914 10.73124,6.8100205 10.6875,6.71875 L 11.34375,6.0625 c 0.09793,-0.097934 0.09793,-0.2770656 0,-0.375 L 10.3125,4.65625 c -0.09793,-0.097934 -0.277066,-0.097935 -0.375,0 L 9.28125,5.3125 C 9.1899795,5.2687639 9.0960862,5.2219888 9,5.1875 L 9,4.25 C 9,4.1115 8.8885,4 8.75,4 L 7.25,4 z M 8,7 C 8.552,7 9,7.448 9,8 9,8.552 8.552,9 8,9 7.448,9 7,8.552 7,8 7,7.448 7.448,7 8,7 z" color="#000" display="inline" enable-background="accumulate" overflow="visible" visibility="visible" style="marker:none"/></g><path id="path3215-6" fill="url(#radialGradient3066)" fill-opacity="1" fill-rule="nonzero" stroke="url(#linearGradient3068)" stroke-dasharray="none" stroke-miterlimit="4" stroke-width="1" d="M 12.5,7.9998407 C 12.5,10.485202 10.485132,12.5 8.0000568,12.5 5.5147526,12.5 3.5,10.485179 3.5,7.9998407 3.5,5.5145936 5.5147526,3.5000003 8.0000568,3.5000003 10.485132,3.5000003 12.5,5.5145936 12.5,7.9998407 l 0,0 0,0 0,0 z"/><path id="path3215-4" fill="url(#radialGradient3061)" fill-opacity="1" stroke="url(#linearGradient3063)" stroke-dasharray="none" stroke-miterlimit="4" stroke-width="1" d="M 11.5,8.0001241 C 11.5,6.0670654 9.9328804,4.5 8.0000437,4.5 6.0670299,4.5 4.4999999,6.067083 4.4999999,8.0001241 4.4999999,9.9330951 6.0670299,11.5 8.0000437,11.5 9.9328804,11.5 11.5,9.9330951 11.5,8.0001241 l 0,0 z" opacity=".2"/><path id="path3215-6-0" fill="none" stroke="url(#linearGradient3135)" stroke-dasharray="none" stroke-miterlimit="4" stroke-width="1" d="M 13.5,7.9998052 C 13.5,11.037469 11.037383,13.5 8.0000694,13.5 4.9624753,13.5 2.5,11.037441 2.5,7.9998052 2.5,4.9622804 4.9624753,2.4999999 8.0000694,2.4999999 11.037383,2.4999999 13.5,4.9622804 13.5,7.9998052 l 0,0 0,0 0,0 z" opacity=".4"/><path id="path4293" fill="url(#linearGradient3053)" fill-opacity="1" stroke="url(#linearGradient3055)" stroke-linecap="butt" stroke-linejoin="miter" stroke-opacity="1" stroke-width="1" d="m 6.8333332,7.5 2.3333334,0 0,-1.333408 L 11,8 l -1.8333334,2 0,-1.5 -2.3333334,0 0,1.5 L 5,8 6.8333332,6.166592 l 0,1.333408 z"/><path id="path3333" fill="url(#linearGradient3050)" fill-opacity="1" fill-rule="evenodd" stroke="none" d="M 2.6631474,2.0000002 C 2.2968543,2.0000002 2,2.314882 2,2.7034192 l 0,5.1450075 c 8.545e-4,0.043283 0.018733,0.084215 0.049338,0.1128582 0.030602,0.028642 0.07112,0.042379 0.111712,0.037875 L 13.876845,5.7080232 C 13.947025,5.6962852 13.999019,5.6326382 14,5.5572907 L 14,2.7034192 C 14,2.314882 13.703146,2.0000002 13.336852,2.0000002 l -10.6737046,0 z" opacity=".2"/></g></svg>