<svg xmlns="http://www.w3.org/2000/svg" xmlns:svg="http://www.w3.org/2000/svg" xmlns:xlink="http://www.w3.org/1999/xlink" id="svg2" width="24" height="24" version="1.0"><defs id="defs4"><linearGradient id="linearGradient8838"><stop id="stop8840" offset="0" stop-color="#000" stop-opacity="1"/><stop id="stop8842" offset="1" stop-color="#000" stop-opacity="0"/></linearGradient><radialGradient id="radialGradient2493" cx="62.625" cy="4.625" r="10.625" fx="62.625" fy="4.625" gradientTransform="matrix(1,0,0,0.341176,0,3.047059)" gradientUnits="userSpaceOnUse" xlink:href="#linearGradient8838"/><linearGradient id="linearGradient3811"><stop id="stop3813" offset="0" stop-color="#243c53" stop-opacity="1"/><stop id="stop3815" offset="1" stop-color="#416f9b" stop-opacity="1"/></linearGradient><linearGradient id="linearGradient3738" x1="14.953" x2="14.953" y1="45.381" y2="13.214" gradientTransform="matrix(0.4916775,0,0,0.4916774,0.6986745,-0.3018276)" gradientUnits="userSpaceOnUse" xlink:href="#linearGradient3811"/><linearGradient id="linearGradient5106"><stop id="stop5108" offset="0" stop-color="#6294ca" stop-opacity="1"/><stop id="stop5110" offset="1" stop-color="#376da5" stop-opacity="1"/></linearGradient><linearGradient id="linearGradient3736" x1="28.771" x2="28.771" y1="12.918" y2="45.348" gradientTransform="matrix(0.4916775,0,0,0.4916774,0.6986745,-0.3018276)" gradientUnits="userSpaceOnUse" xlink:href="#linearGradient5106"/><linearGradient id="linearGradient4873"><stop id="stop4875" offset="0" stop-color="#fff" stop-opacity="1"/><stop id="stop4877" offset="1" stop-color="#fff" stop-opacity="0"/></linearGradient><linearGradient id="linearGradient3630" x1="63.397" x2="63.397" y1="-9.383" y2="7.443" gradientTransform="matrix(1.0299253,0,0,1.0299249,-51.56277,15.114325)" gradientUnits="userSpaceOnUse" xlink:href="#linearGradient4873"/><linearGradient id="linearGradient3210"><stop id="stop3212" offset="0" stop-color="#21415c" stop-opacity="1"/><stop id="stop3214" offset="1" stop-color="#3a70a1" stop-opacity="1"/></linearGradient><linearGradient id="linearGradient3542" x1="-32.441" x2="-32.441" y1="34.834" y2="8.99" gradientUnits="userSpaceOnUse" xlink:href="#linearGradient3210"/></defs><metadata id="metadata7"/><g id="layer1"><path id="path2774" fill="url(#radialGradient2493)" fill-opacity="1" fill-rule="evenodd" stroke="none" stroke-dasharray="none" stroke-dashoffset="0" stroke-linecap="butt" stroke-linejoin="round" stroke-miterlimit="4" stroke-opacity="1" stroke-width="1" marker-end="none" marker-mid="none" marker-start="none" d="M 73.25,4.625 A 10.625,3.625 0 1 1 52,4.625 A 10.625,3.625 0 1 1 73.25,4.625 z" display="inline" opacity=".56" overflow="visible" transform="matrix(1.0352941,0,0,0.8275862,-52.835295,17.172414)" visibility="visible" style="marker:none"/><g id="g2924" transform="translate(0,0.9999995)"><path id="path2555" fill="url(#linearGradient3736)" fill-opacity="1" stroke="url(#linearGradient3738)" stroke-dasharray="none" stroke-dashoffset="0" stroke-linecap="round" stroke-linejoin="round" stroke-miterlimit="4" stroke-opacity="1" stroke-width="1" d="M 12.492145,1.4999736 C 6.9730765,1.4999736 2.4999745,5.9730746 2.4999745,11.492145 C 2.4999745,17.011214 6.9730765,21.500027 12.492145,21.500026 C 18.011213,21.500026 22.500032,17.011214 22.500027,11.492145 C 22.500027,5.9730746 18.011213,1.4999736 12.492145,1.4999736 z"/><path id="path8655" fill="none" fill-opacity="1" fill-rule="nonzero" stroke="url(#linearGradient3630)" stroke-dasharray="none" stroke-miterlimit="4" stroke-opacity="1" stroke-width="1" d="M 21.506203,11.498108 C 21.506203,16.472926 17.473242,20.505842 12.499105,20.505842 C 7.5245157,20.505842 3.4917816,16.472881 3.4917816,11.498108 C 3.4917816,6.5235191 7.5245157,2.4910118 12.499105,2.4910118 C 17.473242,2.4910118 21.506203,6.5235191 21.506203,11.498108 L 21.506203,11.498108 z" opacity=".527"/><path id="path3199" fill="url(#linearGradient3542)" fill-opacity="1" stroke="none" stroke-dasharray="none" stroke-linecap="round" stroke-linejoin="round" stroke-miterlimit="0" stroke-opacity="1" stroke-width="1.013" d="M -19.415211,22.686497 A 13.025394,13.025394 0 1 1 -45.466,22.686497 A 13.025394,13.025394 0 1 1 -19.415211,22.686497 z" transform="matrix(0.4990252,0,0,0.4990252,28.688679,0.1788666)"/><path id="path3218" fill="#fff" fill-opacity="1" stroke="#20425b" stroke-dasharray="none" stroke-dashoffset="0" stroke-linecap="round" stroke-linejoin="round" stroke-miterlimit="0" stroke-opacity="1" stroke-width="2.037" d="M -135.111,14.485592 C -135.06174,14.617515 -139.53125,19.784036 -139.62177,19.89191 C -139.71316,20.000827 -144.06623,25.348656 -144.20645,25.325129 C -144.34533,25.301828 -146.58491,18.847856 -146.63307,18.715529 C -146.6817,18.581922 -149.13652,12.138141 -149.04604,12.028468 C -148.95642,11.919847 -142.24732,13.207297 -142.10864,13.23175 C -141.96862,13.25644 -135.16073,14.352393 -135.111,14.485592 z" transform="matrix(0.4578528,0.1691718,-0.1666448,0.4647962,80.774888,27.624132)"/></g></g></svg>