<svg xmlns="http://www.w3.org/2000/svg" xmlns:svg="http://www.w3.org/2000/svg" xmlns:xlink="http://www.w3.org/1999/xlink" id="svg3277" width="24" height="24" version="1.1"><metadata id="metadata46"/><defs id="defs3279"><linearGradient id="linearGradient3251"><stop id="stop3253" offset="0" stop-color="#917f6e" stop-opacity="1"/><stop id="stop3255" offset="1" stop-color="#cbbaa9" stop-opacity="1"/></linearGradient><linearGradient id="linearGradient4222"><stop id="stop4224" offset="0" stop-color="#fff" stop-opacity="1"/><stop id="stop4226" offset="1" stop-color="#fff" stop-opacity="0"/></linearGradient><linearGradient id="linearGradient3243"><stop id="stop3245" offset="0" stop-color="#fff4e9" stop-opacity="1"/><stop id="stop3247" offset="1" stop-color="#e7d6c5" stop-opacity="1"/></linearGradient><linearGradient id="linearGradient3283"><stop id="stop3285" offset="0" stop-color="#000" stop-opacity="1"/><stop id="stop3287" offset="1" stop-color="#000" stop-opacity="0"/></linearGradient><linearGradient id="linearGradient3032" x1="17.592" x2="17.592" y1="7" y2="-.025" gradientTransform="translate(-0.99999992,0.9994521)" gradientUnits="userSpaceOnUse" xlink:href="#linearGradient3251"/><linearGradient id="linearGradient3035" x1="40.007" x2="40.007" y1="12.911" y2="7.092" gradientTransform="translate(-25,-2.0005479)" gradientUnits="userSpaceOnUse" xlink:href="#linearGradient4222"/><linearGradient id="linearGradient3038" x1="38.382" x2="38.382" y1="5.906" y2="22.698" gradientTransform="translate(-25,-2.0005479)" gradientUnits="userSpaceOnUse" xlink:href="#linearGradient4222"/><linearGradient id="linearGradient3041" x1="39.906" x2="39.906" y1="6.123" y2="24.034" gradientTransform="translate(-25,-2.0005479)" gradientUnits="userSpaceOnUse" xlink:href="#linearGradient3243"/><linearGradient id="linearGradient3043" x1="32.016" x2="32.016" y1="24.011" y2="5" gradientTransform="translate(-25,-2.0005479)" gradientUnits="userSpaceOnUse" xlink:href="#linearGradient3251"/><radialGradient id="radialGradient3046" cx="10.471" cy="20.147" r="9.215" fx="10.471" fy="20.147" gradientTransform="matrix(0.9767045,0,0,0.32556818,-1.2272721,12.440316)" gradientUnits="userSpaceOnUse" xlink:href="#linearGradient3283"/></defs><path id="path3281" fill="url(#radialGradient3046)" fill-opacity="1" fill-rule="evenodd" stroke="none" stroke-width="1" d="m 17.999999,18.999408 a 8.9999996,3.0000001 0 1 1 -17.99999885,0 8.9999996,3.0000001 0 1 1 17.99999885,0 z" display="inline" enable-background="accumulate" opacity=".3" overflow="visible" visibility="visible" style="marker:none"/><path id="path2463" fill="url(#linearGradient3041)" fill-opacity="1" fill-rule="evenodd" stroke="url(#linearGradient3043)" stroke-linecap="butt" stroke-linejoin="miter" stroke-opacity="1" stroke-width="1" d="m 11,3.499452 -9.4999999,9.84375 8.2500001,8.15625 9.7499998,-9.5 0,-8.5 -8.5,0 z m 4,3 c 0.828,0 1.5,0.672 1.5,1.5 0,0.828 -0.672,1.5 -1.5,1.5 -0.828,0 -1.5,-0.672 -1.5,-1.5 0,-0.828 0.672,-1.5 1.5,-1.5 z"/><path id="path3265" fill="none" stroke="url(#linearGradient3038)" stroke-linecap="butt" stroke-linejoin="miter" stroke-opacity="1" stroke-width="1" d="m 11.375,4.405702 c -2.8645828,2.96875 -5.7291668,5.9375 -8.5937498,8.90625 2.322917,2.291667 4.645833,4.583333 6.96875,6.875 2.9479168,-2.864583 5.8958328,-5.729167 8.8437498,-8.59375 0,-2.395833 0,-4.791667 0,-7.1875 -2.40625,0 -4.8125,0 -7.21875,0 z" opacity=".6"/><path id="path3294" fill="none" stroke="url(#linearGradient3035)" stroke-linecap="butt" stroke-linejoin="miter" stroke-opacity="1" stroke-width="1" d="m 15,5.593202 c 1.513288,-0.05335 2.761066,1.553793 2.330349,3.00682 C 17.01051,10.02584 15.254834,10.84754 13.957822,10.168016 12.622824,9.578328 12.157474,7.700929 13.072482,6.56077 13.516976,5.959282 14.251129,5.587409 15,5.593202 z" opacity=".6"/><path id="path3298" fill="none" stroke="url(#linearGradient3032)" stroke-linecap="butt" stroke-linejoin="miter" stroke-opacity="1" stroke-width="1" d="m 15.5,7.499452 c 1.109018,-0.587219 2.554024,-0.767119 3.926872,-0.797739 0.617147,-0.01376 1.240944,0.1119 1.84653,-0.03214 C 22.044144,6.486243 22.569385,5.92156 22.492551,5.405324 22.38941,4.71236 21.458534,4.2008 20.58549,3.834725 19.811082,3.510009 19.215046,2.931373 18.900054,2.32011 18.740908,2.011277 19.01884,1.6869991 19.464647,1.58745 c 0.404996,-0.090436 0.829182,-0.1261828 1.241295,-0.034356 0.627242,0.1397617 1.367682,0.3102703 1.65947,0.75466"/></svg>