<svg xmlns="http://www.w3.org/2000/svg" xmlns:svg="http://www.w3.org/2000/svg" xmlns:xlink="http://www.w3.org/1999/xlink" id="svg3366" width="24" height="24" version="1.0"><defs id="defs3368"><linearGradient id="linearGradient3364" x1="29.768" x2="29.768" y1="2.719" y2="29.373" gradientTransform="matrix(0.512195,0,0,0.6399998,-0.2926781,-0.7399985)" gradientUnits="userSpaceOnUse" xlink:href="#linearGradient6592-0"/><linearGradient id="linearGradient3664"><stop id="stop3666" offset="0" stop-color="#fff" stop-opacity="1"/><stop id="stop3668" offset="1" stop-color="#fff" stop-opacity="0"/></linearGradient><linearGradient id="linearGradient3362" x1="22" x2="22" y1="38" y2="44" gradientTransform="matrix(0.5,0,0,0.5,0,-3)" gradientUnits="userSpaceOnUse" xlink:href="#linearGradient3664"/><linearGradient id="linearGradient3360" x1="15.085" x2="14.973" y1="25.62" y2="14.926" gradientTransform="matrix(0.9915856,0,0,1.0188632,-11.437474,-12.03631)" gradientUnits="userSpaceOnUse" xlink:href="#linearGradient2490-654-721"/><linearGradient id="linearGradient6592-0"><stop id="stop6594-0" offset="0" stop-color="#fff" stop-opacity=".275"/><stop id="stop6596-6" offset="1" stop-color="#fff" stop-opacity="0"/></linearGradient><linearGradient id="linearGradient3358" x1="12.938" x2="15.25" y1="8.438" y2="19.813" gradientTransform="matrix(0.6233766,0,0,0.6,-2.9610391,-2.7999993)" gradientUnits="userSpaceOnUse" xlink:href="#linearGradient6592-0"/><linearGradient id="linearGradient2490-654-721"><stop id="stop2913" offset="0" stop-color="#545454" stop-opacity="1"/><stop id="stop2915" offset="1" stop-color="#a4a4a4" stop-opacity="1"/></linearGradient><linearGradient id="linearGradient3356" x1="24.875" x2="25" y1="29" y2="3" gradientTransform="matrix(0.5609755,0,0,0.7199998,-1.4634103,-2.0199998)" gradientUnits="userSpaceOnUse" xlink:href="#linearGradient2490-654-721"/><linearGradient id="linearGradient3242-52-665"><stop id="stop2903" offset="0" stop-color="#d3d3d3" stop-opacity="1"/><stop id="stop2905" offset=".262" stop-color="#b1b1b1" stop-opacity="1"/><stop id="stop2907" offset=".661" stop-color="#8e8e8e" stop-opacity="1"/><stop id="stop2909" offset="1" stop-color="#525252" stop-opacity="1"/></linearGradient><radialGradient id="radialGradient3354" cx="12.099" cy="8.196" r="21" fx="12.099" fy="8.196" gradientTransform="matrix(1.1938796,4.08102e-3,1.358124e-2,0.897523,-9.2874071,-0.4768784)" gradientUnits="userSpaceOnUse" xlink:href="#linearGradient3242-52-665"/><radialGradient id="radialGradient3352" cx="605.714" cy="486.648" r="117.143" fx="605.714" fy="486.648" gradientTransform="matrix(-6.652698e-2,0,0,3.501497e-2,47.812816,25.161837)" gradientUnits="userSpaceOnUse" xlink:href="#linearGradient5060"/><linearGradient id="linearGradient5060"><stop id="stop5062" offset="0" stop-color="#000" stop-opacity="1"/><stop id="stop5064" offset="1" stop-color="#000" stop-opacity="0"/></linearGradient><radialGradient id="radialGradient3350" cx="605.714" cy="486.648" r="117.143" fx="605.714" fy="486.648" gradientTransform="matrix(6.652698e-2,0,0,3.501497e-2,-0.2505064,25.161837)" gradientUnits="userSpaceOnUse" xlink:href="#linearGradient5060"/><linearGradient id="linearGradient5048"><stop id="stop5050" offset="0" stop-color="#000" stop-opacity="0"/><stop id="stop5056" offset=".5" stop-color="#000" stop-opacity="1"/><stop id="stop5052" offset="1" stop-color="#000" stop-opacity="0"/></linearGradient><linearGradient id="linearGradient3348" x1="302.857" x2="302.857" y1="366.648" y2="609.505" gradientTransform="matrix(6.652698e-2,0,0,3.501497e-2,-0.2635996,25.161837)" gradientUnits="userSpaceOnUse" xlink:href="#linearGradient5048"/><linearGradient id="linearGradient7381"><stop id="stop7383" offset="0" stop-color="#babdb6" stop-opacity="1"/><stop id="stop7385" offset="1" stop-color="#fff" stop-opacity="1"/></linearGradient><linearGradient id="linearGradient3182" x1="302.292" x2="308.649" y1="58.443" y2="60.768" gradientTransform="matrix(0.801996,0,0,0.7960034,69.746815,998.18246)" gradientUnits="userSpaceOnUse" xlink:href="#linearGradient7381"/><linearGradient id="linearGradient7444-4"><stop id="stop7446-4" offset="0" stop-color="#888a85" stop-opacity="1"/><stop id="stop7448-9" offset="1" stop-color="#555753" stop-opacity="1"/></linearGradient><linearGradient id="linearGradient3180" x1="324.497" x2="330.061" y1="70.282" y2="99.274" gradientTransform="matrix(0.7811541,-3.481362e-2,-3.481362e-2,0.7811541,70.230423,94.3198)" gradientUnits="userSpaceOnUse" xlink:href="#linearGradient7444-4"/><linearGradient id="linearGradient4434-3"><stop id="stop4436-3" offset="0" stop-color="#d3d7cf" stop-opacity="1"/><stop id="stop4438-8" offset=".183" stop-color="#babdb6" stop-opacity="1"/><stop id="stop4440-0" offset=".319" stop-color="#fff" stop-opacity="1"/><stop id="stop4442-5" offset=".876" stop-color="#babdb6" stop-opacity="1"/><stop id="stop4444-6" offset="1" stop-color="#eeeeec" stop-opacity="1"/></linearGradient><linearGradient id="linearGradient3178" x1="309.297" x2="335.3" y1="67.298" y2="81.926" gradientTransform="matrix(0.7811541,-3.481362e-2,-3.481362e-2,0.7811541,70.230423,94.3198)" gradientUnits="userSpaceOnUse" xlink:href="#linearGradient4434-3"/><linearGradient id="linearGradient7693-9"><stop id="stop7695-3" offset="0" stop-color="#fff" stop-opacity="1"/><stop id="stop7697-6" offset="1" stop-color="#000" stop-opacity="1"/></linearGradient><linearGradient id="linearGradient3191" x1="321.556" x2="322.707" y1="1051.492" y2="1053.79" gradientTransform="translate(-5.0837085,-912.59472)" gradientUnits="userSpaceOnUse" xlink:href="#linearGradient7693-9"/><mask id="mask3187"><rect id="rect3189" width="23.375" height="22.5" x="303.541" y="125.905" fill="url(#linearGradient3191)" fill-opacity="1" fill-rule="nonzero" stroke="none" display="inline" visibility="visible"/></mask></defs><g id="layer1"><g id="g3334" transform="translate(-8.5233863e-7,2.0000024)"><g id="g5672" opacity=".537" transform="matrix(0.5340158,0,0,0.470387,-0.6995086,-1.8747079)"><rect id="rect4173" width="32.123" height="8.504" x="7.72" y="38" fill="url(#linearGradient3348)" fill-opacity="1" fill-rule="nonzero" stroke="none" stroke-width="1" display="inline" overflow="visible" visibility="visible" style="marker:none"/><path id="path5058" fill="url(#radialGradient3350)" fill-opacity="1" fill-rule="nonzero" stroke="none" stroke-width="1" d="M 39.842663,38.000295 C 39.842663,38.000295 39.842663,46.503461 39.842663,46.503461 C 43.268636,46.519471 48.125002,44.598333 48.125,42.25133 C 48.125,39.904328 44.30187,38.000295 39.842663,38.000295 z" display="inline" overflow="visible" visibility="visible" style="marker:none"/><path id="path5018" fill="url(#radialGradient3352)" fill-opacity="1" fill-rule="nonzero" stroke="none" stroke-width="1" d="M 7.7196385,38.000295 C 7.7196385,38.000295 7.7196385,46.503461 7.7196385,46.503461 C 4.2936621,46.519471 -0.56270146,44.598333 -0.56270146,42.25133 C -0.56270146,39.904328 3.2604286,38.000295 7.7196385,38.000295 z" display="inline" overflow="visible" visibility="visible" style="marker:none"/></g><rect id="rect2716" width="23" height="18" x=".5" y=".5" fill="url(#radialGradient3354)" fill-opacity="1" fill-rule="evenodd" stroke="url(#linearGradient3356)" stroke-dasharray="none" stroke-linecap="butt" stroke-linejoin="miter" stroke-miterlimit="4" stroke-opacity="1" stroke-width="1" display="inline" enable-background="new" rx="2" ry="2"/><path id="rect6588" fill="url(#linearGradient3358)" fill-opacity="1" stroke="none" d="M 2.5,2e-07 L 21.7,2e-07 C 22.878511,2e-07 24,1.2214887 24,2.4 L 24,3.8000007 L 0,8 L 0,2.5 C 0,1.2272727 1.1115702,-0.0909089 2.5,2e-07 z"/><rect id="rect7303" width="12.995" height="4.995" x="5.503" y="6.503" fill="#fff" fill-opacity="1" stroke="url(#linearGradient3360)" stroke-dasharray="none" stroke-miterlimit="4" stroke-opacity="1" stroke-width="1" opacity=".9" rx=".992" ry="1.019"/><path id="path3713" fill="#000" fill-opacity="1" stroke="none" d="M 17,9 C 17.000237,9.552214 16.552453,10 16,10 C 15.447545,10 14.999759,9.552214 15,9 C 14.999759,8.447785 15.447545,8 16,8 C 16.552453,8 17.000237,8.447785 17,9 L 17,9 z"/><path id="path6630" fill="#000" fill-opacity="1" stroke="none" d="M 9.0000001,9 C 9.0002371,9.552214 8.5524531,10 8.0000001,10 C 7.4475451,10 6.9997591,9.552214 7.0000001,9 C 6.9997591,8.447785 7.4475451,8 8.0000001,8 C 8.5524531,8 9.0002371,8.447785 9.0000001,9 L 9.0000001,9 z"/><path id="path3711" fill="#000" fill-opacity="1" stroke="none" d="M 13,9 C 13.000237,9.552214 12.552453,10 12,10 C 11.447545,10 10.999759,9.552214 11,9 C 10.999759,8.447785 11.447545,8 12,8 C 12.552453,8 13.000237,8.447785 13,9 L 13,9 z"/><path id="rect2881" fill="url(#linearGradient3362)" fill-opacity="1" stroke="none" d="M 23,16 L 23,16.65 C 23,17.216176 22.316176,18 21.75,18 L 2.35,18 C 1.7331081,18 1,17.266892 1,16.65 L 1,16 L 23,16 z" opacity=".45"/><rect id="rect3320" width="21" height="16" x="1.5" y="1.5" fill="none" fill-opacity="1" fill-rule="evenodd" stroke="url(#linearGradient3364)" stroke-dasharray="none" stroke-linecap="butt" stroke-linejoin="miter" stroke-miterlimit="4" stroke-opacity="1" stroke-width="1" display="inline" enable-background="new" rx="1.826" ry="1.778"/></g><path id="path4010" fill="none" stroke="#000" stroke-dasharray="none" stroke-dashoffset=".361" stroke-linecap="round" stroke-linejoin="round" stroke-miterlimit="4" stroke-opacity="1" stroke-width="2" d="M 14.999984,11.580757 C 14.947544,11.596427 14.913234,11.629827 14.874984,11.674507 C 14.798454,11.763867 14.759834,11.891342 14.812484,11.987007 L 16.218734,14.643257 C 16.344716,14.88262 16.266214,15.216752 16.031234,15.549507 C 15.794003,15.885414 15.423187,16.238086 14.937484,16.518257 C 14.451676,16.798497 13.95954,16.955862 13.562484,16.987007 C 13.167773,17.017997 12.845037,16.914537 12.718734,16.674507 L 11.312484,13.987007 C 11.273134,13.912497 11.211546,13.868266 11.124984,13.862007 C 11.038464,13.855907 10.935903,13.888557 10.874984,13.955757 C 10.842144,13.990747 10.825164,14.035557 10.812484,14.080757 C 10.46052,15.368988 10.547125,16.82032 11.062484,17.799507 C 11.766308,19.136762 13.334149,19.739731 14.906234,19.393257 C 15.53405,19.57966 14.445677,18.366712 15.403393,19.319397 L 20.290909,19.600647 L 19.749984,18.518261 C 18.88663,17.659452 18.465724,16.897325 18.249984,16.299511 C 18.498073,15.448684 18.439183,14.543374 18.031234,13.768261 C 17.516074,12.789501 16.381862,11.95798 15.156234,11.580761 C 15.103684,11.563571 15.052426,11.565091 14.999984,11.580761 L 14.999984,11.580757 z" display="inline" enable-background="new" opacity=".4"/><g id="g6305" display="inline" mask="url(#mask3187)" transform="matrix(0.8686611,0,0,0.8704732,-253.90735,-98.906489)"><path id="path3688" fill="url(#linearGradient3178)" fill-opacity="1" fill-rule="evenodd" stroke="url(#linearGradient3180)" stroke-dasharray="none" stroke-dashoffset=".361" stroke-linecap="round" stroke-linejoin="round" stroke-miterlimit="4" stroke-opacity="1" stroke-width="1.15" d="M 319.39329,139.2285 L 315.05123,134.86875 C 314.05734,133.88215 313.55109,133.02098 313.30273,132.33421 C 313.58833,131.35678 313.53553,130.32917 313.0659,129.43872 C 312.47285,128.31432 311.16604,127.35498 309.7551,126.92163 C 309.63411,126.88213 309.49715,126.92255 309.40909,127.02521 C 309.32099,127.12787 309.30017,127.27042 309.36079,127.38032 L 310.97518,130.44869 C 311.12021,130.72367 311.02178,131.09005 310.75127,131.47232 C 310.47817,131.85821 310.03485,132.25141 309.47571,132.57327 C 308.91645,132.89521 308.36327,133.08281 307.90618,133.11859 C 307.45179,133.15419 307.10088,133.04419 306.95548,132.76845 L 305.33132,129.68308 C 305.28602,129.59748 305.20222,129.54381 305.10257,129.53662 C 305.00297,129.52962 304.90023,129.57002 304.8301,129.64722 L 304.83009,129.64722 C 304.79229,129.68742 304.76429,129.73532 304.74969,129.78725 C 304.34451,131.26717 304.4302,132.94303 305.02348,134.06792 C 305.83372,135.60416 307.63396,136.27417 309.44374,135.87614 C 310.16648,136.09028 311.11554,136.59035 312.21806,137.68479 L 315.5136,140.89574" display="inline" enable-background="new"/><path id="path2777" fill="url(#linearGradient3182)" fill-opacity="1" fill-rule="evenodd" stroke="none" d="M 314.50598,1039.6243 C 314.52098,1039.6343 314.51198,1039.6493 314.50598,1039.6493 L 316.31047,1042.8582 C 316.5539,1043.2905 316.37827,1043.801 316.08491,1044.2263 C 315.78857,1044.6559 315.32943,1045.072 314.73154,1045.3955 C 314.13237,1045.7196 313.5039,1045.8753 312.97717,1045.893 C 312.45159,1045.911 311.95826,1045.7617 311.72406,1045.3457 L 309.91956,1042.112 C 309.90916,1042.112 309.89276,1042.112 309.89446,1042.112 C 309.91096,1042.094 309.89746,1042.125 309.89446,1042.137 C 309.56171,1043.5604 309.73429,1045.2055 310.34559,1046.2912 C 311.18177,1047.7762 312.92754,1048.4856 314.65632,1048.1817 C 316.37697,1047.876 317.84823,1046.3881 318.21518,1044.9728 C 318.44689,1044.0561 318.34817,1043.071 317.8643,1042.2117 C 317.25467,1041.129 315.91355,1040.1094 314.50595,1039.6246 L 314.50598,1039.6243 z" display="inline" enable-background="new" transform="translate(-5.0837137,-912.59475)"/><path id="path3711-4" fill="none" stroke="#fff" stroke-dasharray="none" stroke-dashoffset=".361" stroke-linecap="round" stroke-linejoin="round" stroke-miterlimit="4" stroke-opacity="1" stroke-width=".575" d="M 310.21875,127.75 L 311.46875,130.1875 C 311.75769,130.73532 311.55375,131.30796 311.21875,131.78125 C 310.8802,132.25964 310.36455,132.70874 309.75,133.0625 C 309.14312,133.41185 308.52568,133.64146 307.9375,133.6875 C 307.6574,133.7094 307.3876,133.6855 307.125,133.5938 C 306.8624,133.5017 306.61138,133.30175 306.46875,133.0313 L 305.21875,130.6563 C 305.04589,131.82031 305.11915,133.03115 305.53125,133.81255 C 306.21463,135.10828 307.70773,135.69674 309.3125,135.3438 C 309.4042,135.32 309.50202,135.32 309.59375,135.3438 C 310.41692,135.5877 311.46862,136.1334 312.625,137.2813 L 316.65532,141.12781 L 319.31449,139.75438 L 314.65625,135.28125 C 313.61486,134.24751 313.06189,133.30728 312.78125,132.53125 C 312.74545,132.42041 312.74545,132.29834 312.78125,132.1875 C 313.03041,131.3348 312.95845,130.43825 312.5625,129.6875 C 312.15196,128.90914 311.23897,128.21391 310.21875,127.75 L 310.21875,127.75 z" display="inline" enable-background="new"/><path id="rect3610" fill="#000" fill-opacity="1" fill-rule="evenodd" stroke="none" d="M 318.61464,140.71739 L 318.48963,140.8424 C 318.14118,141.19085 317.30027,140.911 316.60418,140.2149 L 312.42845,136.54458 C 311.73236,135.84849 311.4525,135.00758 311.80095,134.65912 L 311.92595,134.53412 C 312.27441,134.18567 313.11532,134.46552 313.81141,135.16162 L 317.98714,138.83194 C 318.68323,139.52803 318.96309,140.36894 318.61464,140.71739 L 318.61464,140.71739 z" display="inline" enable-background="new" opacity=".08"/></g></g></svg>