<svg xmlns="http://www.w3.org/2000/svg" xmlns:svg="http://www.w3.org/2000/svg" xmlns:xlink="http://www.w3.org/1999/xlink" id="svg3370" width="24" height="24" version="1.0"><defs id="defs3372"><radialGradient id="radialGradient3976" cx="605.714" cy="486.648" r="117.143" fx="605.714" fy="486.648" gradientTransform="matrix(-2.774389,0,0,1.969706,112.7623,-872.8854)" gradientUnits="userSpaceOnUse" xlink:href="#linearGradient5060"/><linearGradient id="linearGradient5060"><stop id="stop5062" offset="0" stop-color="#000" stop-opacity="1"/><stop id="stop5064" offset="1" stop-color="#000" stop-opacity="0"/></linearGradient><radialGradient id="radialGradient2662" cx="605.714" cy="486.648" r="117.143" fx="605.714" fy="486.648" gradientTransform="matrix(2.774389,0,0,1.969706,-1891.633,-872.8854)" gradientUnits="userSpaceOnUse" xlink:href="#linearGradient5060"/><linearGradient id="linearGradient5048"><stop id="stop5050" offset="0" stop-color="#000" stop-opacity="0"/><stop id="stop5056" offset=".5" stop-color="#000" stop-opacity="1"/><stop id="stop5052" offset="1" stop-color="#000" stop-opacity="0"/></linearGradient><linearGradient id="linearGradient2660" x1="302.857" x2="302.857" y1="366.648" y2="609.505" gradientTransform="matrix(2.774389,0,0,1.969706,-1892.179,-872.8854)" gradientUnits="userSpaceOnUse" xlink:href="#linearGradient5048"/><linearGradient id="linearGradient4008-764"><stop id="stop4334" offset="0" stop-color="#595959" stop-opacity="1"/><stop id="stop4336" offset="1" stop-color="#b3b3b3" stop-opacity="1"/></linearGradient><linearGradient id="linearGradient2437" x1="10.592" x2="10.592" y1="44.78" y2="2.426" gradientTransform="matrix(0.4893421,0,0,0.4639192,0.2558016,0.8602544)" gradientUnits="userSpaceOnUse" xlink:href="#linearGradient4008-764"/><linearGradient id="linearGradient3023"><stop id="stop3029" offset="0" stop-color="#d8d8d8" stop-opacity="1"/><stop id="stop3031" offset="1" stop-color="#8f8f8f" stop-opacity="1"/></linearGradient><linearGradient id="linearGradient2435" x1="13.424" x2="13.424" y1="2" y2="22.051" gradientUnits="userSpaceOnUse" xlink:href="#linearGradient3023"/><linearGradient id="linearGradient2238"><stop id="stop2240" offset="0" stop-color="#fff" stop-opacity="1"/><stop id="stop2242" offset="1" stop-color="#fff" stop-opacity="0"/></linearGradient><linearGradient id="linearGradient2432" x1="22.763" x2="22.763" y1="-4.877" y2="43.844" gradientTransform="matrix(0.4662133,0,0,0.4354479,0.8103191,1.987307)" gradientUnits="userSpaceOnUse" xlink:href="#linearGradient2238"/><linearGradient id="linearGradient2506"><stop id="stop2508" offset="0" stop-color="#4a4a3d" stop-opacity="1"/><stop id="stop2510" offset="1" stop-color="#000" stop-opacity="1"/></linearGradient><radialGradient id="radialGradient2429" cx="16.352" cy="12.225" r="19.17" fx="16.352" fy="12.225" gradientTransform="matrix(0,0.4984012,-1.1479657,0,24.468551,1.8233917)" gradientUnits="userSpaceOnUse" xlink:href="#linearGradient2506"/><linearGradient id="linearGradient8265-821-176-38-919-66-249-2"><stop id="stop2687-1" offset="0" stop-color="#fff" stop-opacity="1"/><stop id="stop2689-3" offset="1" stop-color="#fff" stop-opacity="0"/></linearGradient><linearGradient id="linearGradient2426" x1="16.626" x2="20.055" y1="15.298" y2="24.628" gradientTransform="matrix(0.4789116,0,0,0.5359383,0.5061227,-0.1988816)" gradientUnits="userSpaceOnUse" xlink:href="#linearGradient8265-821-176-38-919-66-249-2"/><filter id="filter3366" width="1.164" height="1.446" x="-.082" y="-.223"><feGaussianBlur id="feGaussianBlur3368" stdDeviation=".65"/></filter></defs><g id="layer1"><g id="g5022" transform="matrix(1.182016e-2,0,0,9.90682e-3,22.513267,19.753927)"><rect id="rect2969" width="1339.633" height="478.357" x="-1559.252" y="-150.697" fill="url(#linearGradient2660)" fill-opacity="1" fill-rule="nonzero" stroke="none" stroke-width="1" display="inline" opacity=".402" overflow="visible" visibility="visible" style="marker:none"/><path id="path2971" fill="url(#radialGradient2662)" fill-opacity="1" fill-rule="nonzero" stroke="none" stroke-width="1" d="M -219.61876,-150.68038 C -219.61876,-150.68038 -219.61876,327.65041 -219.61876,327.65041 C -76.744594,328.55086 125.78146,220.48075 125.78138,88.454235 C 125.78138,-43.572302 -33.655436,-150.68036 -219.61876,-150.68038 L -219.61876,-150.68038 z" display="inline" opacity=".402" overflow="visible" visibility="visible" style="marker:none"/><path id="path2973" fill="url(#radialGradient3976)" fill-opacity="1" fill-rule="nonzero" stroke="none" stroke-width="1" d="M -1559.2523,-150.68038 C -1559.2523,-150.68038 -1559.2523,327.65041 -1559.2523,327.65041 C -1702.1265,328.55086 -1904.6525,220.48075 -1904.6525,88.454235 C -1904.6525,-43.572302 -1745.2157,-150.68036 -1559.2523,-150.68038 L -1559.2523,-150.68038 z" display="inline" opacity=".402" overflow="visible" visibility="visible" style="marker:none"/></g><rect id="rect1316" width="22.998" height="18.998" x=".501" y="2.501" fill="url(#linearGradient2435)" fill-opacity="1" fill-rule="evenodd" stroke="url(#linearGradient2437)" stroke-dasharray="none" stroke-dashoffset="0" stroke-linecap="round" stroke-linejoin="round" stroke-miterlimit="4" stroke-opacity="1" stroke-width="1.002" rx="1.592" ry="1.592"/><rect id="rect2232" width="20.998" height="16.998" x="1.501" y="3.501" fill="none" stroke="url(#linearGradient2432)" stroke-dasharray="none" stroke-dashoffset="0" stroke-linecap="round" stroke-linejoin="round" stroke-miterlimit="4" stroke-opacity="1" stroke-width="1.002" opacity=".4" rx=".618" ry=".618"/><rect id="rect1314" width="18.998" height="14.998" x="2.501" y="4.501" fill="url(#radialGradient2429)" fill-opacity="1" fill-rule="evenodd" stroke="#1e1f1f" stroke-dasharray="none" stroke-dashoffset="0" stroke-linecap="round" stroke-linejoin="round" stroke-miterlimit="4" stroke-opacity="1" stroke-width="1.002" rx="0" ry="0"/><path id="path2976" fill="url(#linearGradient2426)" fill-opacity="1" fill-rule="evenodd" stroke="none" d="M 2.0476194,3.0000001 C 1.4689615,3.0000001 1.0000003,3.5248033 1.0000003,4.1723652 L 1.0000003,12.747378 C 1.0013303,12.819518 1.0295963,12.887736 1.0779433,12.935475 C 1.1262903,12.983215 1.1902956,13.006105 1.2544223,12.998595 L 22.805444,9.1800387 C 22.916302,9.1604727 22.998452,9.054397 23.000002,8.9288176 L 23.000002,4.1723652 C 23.000002,3.5248033 22.53104,3.0000001 21.952382,3.0000001 L 2.0476194,3.0000001 L 2.0476194,3.0000001 z" opacity=".2"/><path id="path3968" fill="#a1e14f" fill-opacity="1" fill-rule="evenodd" stroke="none" d="M 5.04,9 L 5.04,10 L 5.04,12 L 3,12 L 3,13 L 5.04,13 L 6.04,13 L 6.04,10 L 7.04,10 L 7.04,15 L 7.04,16 L 10.04,16 L 10.04,15 L 10.04,13 L 12.068571,13 L 13.068571,13 L 13.068571,10 L 14.068571,10 L 14.068571,15 L 14.068571,16 L 17.114286,16 L 17.114286,15 L 17.114286,13 L 19.011429,13 L 20.011429,13 L 20.011429,10 L 22,10 L 22,9 L 19.011429,9 L 19.011429,10 L 19.011429,12 L 16.114286,12 L 16.114286,13 L 16.114286,15 L 15.068571,15 L 15.068571,10 L 15.068571,9 L 12.068571,9 L 12.068571,10 L 12.068571,12 L 9.04,12 L 9.04,13 L 9.04,15 L 8.04,15 L 8.04,10 L 8.04,9 L 5.04,9 z" filter="url(#filter3366)" opacity=".5"/><path id="path3618" fill="none" stroke="#dfe0de" stroke-linecap="square" stroke-linejoin="miter" stroke-opacity="1" stroke-width="1" d="M 3.4638566,12.5 L 5.5438566,12.5 L 5.5438566,9.5 L 7.5438566,9.5 L 7.5438566,15.5 L 9.543857,15.5 L 9.543857,12.5 L 12.602857,12.5 L 12.602857,9.5 L 14.582857,9.5 L 14.582857,15.5 L 16.582857,15.5 L 16.582857,12.5 L 19.56,12.5 L 19.56,9.5 L 21.56,9.5"/></g></svg>