<svg xmlns="http://www.w3.org/2000/svg" xmlns:svg="http://www.w3.org/2000/svg" xmlns:xlink="http://www.w3.org/1999/xlink" id="svg2679" width="24" height="24" version="1.1"><defs id="defs2681"><linearGradient id="linearGradient3242"><stop id="stop3244" offset="0" stop-color="#f8b17e" stop-opacity="1"/><stop id="stop3246" offset=".262" stop-color="#e35d4f" stop-opacity="1"/><stop id="stop3248" offset=".661" stop-color="#c6262e" stop-opacity="1"/><stop id="stop3250" offset="1" stop-color="#690b54" stop-opacity="1"/></linearGradient><linearGradient id="linearGradient2490"><stop id="stop2492" offset="0" stop-color="#791235" stop-opacity="1"/><stop id="stop2494" offset="1" stop-color="#dd3b27" stop-opacity="1"/></linearGradient><linearGradient id="linearGradient2837" x1="63.397" x2="63.397" y1="-12.489" y2="5.468" gradientTransform="matrix(0.4002058,0,0,0.40019669,-18.892964,7.4050246)" gradientUnits="userSpaceOnUse" xlink:href="#linearGradient4873"/><linearGradient id="linearGradient4873"><stop id="stop4875" offset="0" stop-color="#fff" stop-opacity="1"/><stop id="stop4877" offset="1" stop-color="#fff" stop-opacity="0"/></linearGradient><radialGradient id="radialGradient2885" cx="23.896" cy="3.99" r="20.397" fx="23.896" fy="3.99" gradientTransform="matrix(0,0.52770626,-0.69656271,0,8.7792876,-11.447494)" gradientUnits="userSpaceOnUse" xlink:href="#linearGradient3242"/><linearGradient id="linearGradient2887" x1="18.379" x2="18.379" y1="44.98" y2="3.082" gradientTransform="matrix(0.22110679,0,0,0.22110685,0.69343711,0.69346564)" gradientUnits="userSpaceOnUse" xlink:href="#linearGradient2490"/><linearGradient id="linearGradient6672"><stop id="stop6674" offset="0" stop-color="#000" stop-opacity="1"/><stop id="stop6676" offset="1" stop-color="#000" stop-opacity="0"/></linearGradient><linearGradient id="linearGradient3324-2"><stop id="stop3830-5" offset="0" stop-color="#fff" stop-opacity=".749"/><stop id="stop3328-4" offset="1" stop-color="#fff" stop-opacity="0"/></linearGradient><linearGradient id="linearGradient3155-1"><stop id="stop3157-9" offset="0" stop-color="#fff" stop-opacity="1"/><stop id="stop3159-6" offset="1" stop-color="#9b9b9b" stop-opacity="1"/></linearGradient><linearGradient id="linearGradient3685-2"><stop id="stop3687-8" offset="0" stop-color="#fff" stop-opacity="0"/><stop id="stop3689-3" offset=".771" stop-color="#000" stop-opacity=".498"/><stop id="stop3691-8" offset="1" stop-color="#000" stop-opacity="1"/></linearGradient><linearGradient id="linearGradient3165-5"><stop id="stop3167-2" offset="0" stop-color="#1e1e1e" stop-opacity="1"/><stop id="stop3173-9" offset=".266" stop-color="#8d8d8d" stop-opacity="1"/><stop id="stop3169-0" offset="1" stop-color="#eee" stop-opacity="1"/></linearGradient><linearGradient id="linearGradient3179-2"><stop id="stop3181-0" offset="0" stop-color="#fff" stop-opacity="1"/><stop id="stop3183-5" offset="1" stop-color="#fff" stop-opacity="0"/></linearGradient><linearGradient id="linearGradient3449-4"><stop id="stop3451-2" offset="0" stop-color="#fff" stop-opacity="1"/><stop id="stop3453-2" offset="1" stop-color="#9b9b9b" stop-opacity="0"/></linearGradient><linearGradient id="linearGradient3787-6"><stop id="stop3789-1" offset="0" stop-color="#3c3c3c" stop-opacity="1"/><stop id="stop3791-0" offset="1" stop-color="#1e1e1e" stop-opacity="1"/></linearGradient><linearGradient id="linearGradient3968" x1="26.546" x2="28.415" y1="25.605" y2="23.377" gradientTransform="matrix(0.50949066,0,0,0.52040707,1.5043936,-1.9054658)" gradientUnits="userSpaceOnUse" xlink:href="#linearGradient3165-5"/><radialGradient id="radialGradient3971" cx="36.993" cy="13.954" r="10.024" fx="36.993" fy="13.954" gradientTransform="matrix(0.81861479,0.06647403,-0.05597644,0.70333853,-9.6738468,-6.3734066)" gradientUnits="userSpaceOnUse" xlink:href="#linearGradient3449-4"/><linearGradient id="linearGradient3974" x1="34.204" x2="39" y1="17.334" y2="23.119" gradientTransform="matrix(0.44730171,0.00833834,-0.00805699,0.44851767,3.4832056,-0.77867254)" gradientUnits="userSpaceOnUse" spreadMethod="reflect" xlink:href="#linearGradient3179-2"/><linearGradient id="linearGradient3977" x1="32.303" x2="34.59" y1="18.646" y2="16.081" gradientTransform="matrix(0.44730171,0.00833834,-0.00805699,0.44851767,3.4832056,-0.77867254)" gradientUnits="userSpaceOnUse" xlink:href="#linearGradient3165-5"/><radialGradient id="radialGradient3980" cx="31.002" cy="20.938" r=".914" fx="31.002" fy="20.938" gradientTransform="matrix(8.2147609,0.15313478,-0.150325,8.3683102,-229.75279,-175.36909)" gradientUnits="userSpaceOnUse" xlink:href="#linearGradient3685-2"/><radialGradient id="radialGradient4226" cx="37.972" cy="11.218" r="10.024" fx="37.972" fy="11.218" gradientTransform="matrix(0.46874366,0.00871116,-0.00844322,0.46857164,2.5216937,-0.87381985)" gradientUnits="userSpaceOnUse" xlink:href="#linearGradient3155-1"/><linearGradient id="linearGradient4229" x1="17.676" x2="14.221" y1="28.648" y2="25.907" gradientTransform="matrix(0.50949066,0,0,0.52040707,0.4562985,1.385489)" gradientUnits="userSpaceOnUse" xlink:href="#linearGradient3324-2"/><radialGradient id="radialGradient4232" cx="22.68" cy="15.931" r="17.407" fx="22.68" fy="15.931" gradientTransform="matrix(-0.29660425,0.70713337,-0.26731906,-0.12270121,23.962892,-4.1793307)" gradientUnits="userSpaceOnUse" xlink:href="#linearGradient3787-6"/><radialGradient id="radialGradient4235" cx="25" cy="45" r="20" fx="25" fy="45" gradientTransform="matrix(0.3,0,0,0.075,0.5,19.125)" gradientUnits="userSpaceOnUse" xlink:href="#linearGradient6672"/></defs><path id="path2555" fill="url(#radialGradient2885)" fill-opacity="1" stroke="url(#linearGradient2887)" stroke-dasharray="none" stroke-dashoffset="0" stroke-linecap="round" stroke-linejoin="round" stroke-miterlimit="4" stroke-opacity="1" stroke-width="1.004" d="m 6.0000011,1.5018877 c -2.4819194,0 -4.4981423,2.0162224 -4.4981423,4.4981418 0,2.4819204 2.0162229,4.4981445 4.4981423,4.4981435 2.4819174,0 4.4981419,-2.0162231 4.4981399,-4.4981435 0,-2.4819194 -2.0162225,-4.4981418 -4.4981399,-4.4981418 z"/><path id="path2463" fill="none" stroke="url(#linearGradient2837)" stroke-dasharray="none" stroke-miterlimit="4" stroke-opacity="1" stroke-width="1" d="M 9.5,5.9998759 C 9.5,7.9329347 7.9328798,9.5 6.0000445,9.5 4.0670303,9.5 2.5,7.9329175 2.5,5.9998759 2.5,4.0669066 4.0670303,2.5 6.0000445,2.5 7.9328798,2.5 9.5,4.0669066 9.5,5.9998759 l 0,0 z" opacity=".4"/><path id="path3412" fill="url(#radialGradient4235)" fill-opacity="1" stroke="none" d="m 14,22.5 a 6,1.5 0 0 1 -12,0 6,1.5 0 1 1 12,0 z" opacity=".4"/><path id="path3320" fill="url(#radialGradient4232)" fill-opacity="1" fill-rule="evenodd" stroke="none" d="M 13.122308,9.0035282 4,20.224496 C 4.46582,22.88105 7.1054667,23 7.1054667,23 L 17.780507,13.127135 13.122308,9.0035282 z"/><path id="path3322-4" fill="url(#linearGradient4229)" fill-opacity="1" fill-rule="evenodd" stroke="none" d="M 13.987197,10.769864 C 5.0189491,21.202293 4.6268612,21.412783 4.6268612,21.412783 c 0,0 -0.532649,-0.557831 -0.5714673,-1.152581 L 12.905972,9.3960842 c 0,0 0.307094,0.6432148 1.081225,1.3737798 z" opacity=".24"/><path id="path2383" fill="url(#radialGradient4226)" fill-opacity="1" stroke="#787878" stroke-dasharray="none" stroke-miterlimit="4" stroke-opacity="1" stroke-width=".5" d="M 22.749288,7.5792504 A 4.2506628,4.2477763 29.174262 1 1 14.250713,7.4213126 4.2506628,4.2477763 29.174262 1 1 22.749288,7.5792504 z"/><path id="path3681" fill="url(#radialGradient3980)" fill-opacity="1" stroke="none" d="M 22.807982,7.5718228 A 4.4043293,4.4866543 0 1 1 14.0008,7.4076446 4.4043293,4.4866543 0 1 1 22.807982,7.5718228 z" opacity=".191"/><path id="path3163" fill="url(#linearGradient3977)" fill-opacity="1" fill-rule="evenodd" stroke="none" d="m 15.646653,3.9455609 c 0,0 1.775144,2.4130198 6.619302,6.0479704 0.197926,0.1485217 -0.374942,0.7692117 -0.571347,0.5947817 0,0 -2.999324,-1.4739662 -6.664747,-5.9190827 -0.18159,-0.2202187 0.13633,-0.386665 0.616792,-0.7236694 z"/><path id="path3177" fill="url(#linearGradient3974)" fill-opacity="1" fill-rule="evenodd" stroke="none" d="m 15.646653,3.9455609 c 0,0 1.775144,2.4130198 6.619302,6.0479704 0.197926,0.1485217 -0.374942,0.7692117 -0.571347,0.5947817 0,0 -2.999324,-1.4739662 -6.664747,-5.9190827 -0.18159,-0.2202187 0.13633,-0.386665 0.616792,-0.7236694 z" opacity=".674"/><path id="path2677" fill="url(#radialGradient3971)" fill-opacity="1" stroke="none" d="m 22.999256,7.5854774 a 4.4968969,4.4843861 84.010257 1 1 -8.96759,-0.1671684 4.4968969,4.4843861 84.010257 1 1 8.96759,0.1671684 z" opacity=".479"/><path id="path3302" fill="url(#linearGradient3968)" fill-opacity="1" fill-rule="evenodd" stroke="#787878" stroke-dasharray="none" stroke-miterlimit="4" stroke-opacity="1" stroke-width=".3" d="M 17.60599,13.22978 C 17.976674,13.18245 19,12 19,12 17.382023,12 14,8 14,8 c 0,0 -0.958059,0.899239 -0.888556,1.1595443 0,0 2.224105,2.6977137 4.494546,4.0702357 z"/></svg>