<svg xmlns="http://www.w3.org/2000/svg" xmlns:svg="http://www.w3.org/2000/svg" xmlns:xlink="http://www.w3.org/1999/xlink" id="svg2" width="24" height="24" version="1.0"><defs id="defs4"><linearGradient id="linearGradient4231"><stop id="stop4233" offset="0" stop-color="#828282" stop-opacity="1"/><stop id="stop4235" offset="1" stop-color="#828282" stop-opacity="0"/></linearGradient><linearGradient id="linearGradient4185"><stop id="stop4187" offset="0" stop-color="#fff" stop-opacity="1"/><stop id="stop4189" offset="1" stop-color="#fff" stop-opacity="0"/></linearGradient><linearGradient id="linearGradient10997"><stop id="stop10999" offset="0" stop-color="#000" stop-opacity="1"/><stop id="stop11001" offset="1" stop-color="#000" stop-opacity="0"/></linearGradient><linearGradient id="linearGradient7361" x1="19.49" x2="19.387" y1="6.144" y2="8.1" gradientUnits="userSpaceOnUse" xlink:href="#linearGradient10997"/><linearGradient id="linearGradient272-6"><stop id="stop273-1" offset="0" stop-color="#474747" stop-opacity="0"/><stop id="stop275-8" offset=".1" stop-color="#474747" stop-opacity="1"/><stop id="stop276-3" offset=".9" stop-color="#474747" stop-opacity="1"/><stop id="stop274-5" offset="1" stop-color="#474747" stop-opacity="0"/></linearGradient><linearGradient id="linearGradient178-9"><stop id="stop179-9" offset="0" stop-color="#fff" stop-opacity="0"/><stop id="stop180-2" offset=".108" stop-color="#e6e6e6" stop-opacity="1"/><stop id="stop181-7" offset="1" stop-color="#e6e6e6" stop-opacity="1"/></linearGradient><linearGradient id="linearGradient3832" x1=".612" x2="5.086" y1="372.578" y2="372.578" gradientTransform="matrix(9.3885424,0,0,0.2235366,29.130395,-51.784906)" gradientUnits="userSpaceOnUse" xlink:href="#linearGradient272-6"/><linearGradient id="linearGradient3834" x1=".612" x2="5.086" y1="372.578" y2="372.578" gradientTransform="matrix(9.3885418,0,0,0.2235361,29.130383,-45.865211)" gradientUnits="userSpaceOnUse" xlink:href="#linearGradient272-6"/><linearGradient id="linearGradient3836" x1="1.642" x2="15.343" y1="117.827" y2="117.827" gradientTransform="matrix(3.1119049,0,0,0.09123576,28.948795,19.750004)" gradientUnits="userSpaceOnUse" xlink:href="#linearGradient178-9"/><linearGradient id="linearGradient6443"><stop id="stop6445" offset="0" stop-color="#f7ff00" stop-opacity="1"/><stop id="stop6447" offset="1" stop-color="#0f0" stop-opacity="1"/></linearGradient><linearGradient id="linearGradient6270"><stop id="stop6272" offset="0" stop-color="#f5f5f5" stop-opacity="1"/><stop id="stop6274" offset="1" stop-color="#c8c8c8" stop-opacity="1"/></linearGradient><radialGradient id="radialGradient3400" cx="6.5" cy="16.5" r="2" fx="6.5" fy="16.5" gradientTransform="matrix(0.83333334,0,0,0.83333334,2.0833333,-6.2500001)" gradientUnits="userSpaceOnUse" xlink:href="#linearGradient6443"/><linearGradient id="linearGradient3405" x1="10.5" x2="10.5" y1="2.5" y2="9.5" gradientTransform="translate(1.5,-1.500146)" gradientUnits="userSpaceOnUse" xlink:href="#linearGradient6270"/><linearGradient id="linearGradient4191" x1="11" x2="11" y1="2" y2="18" gradientUnits="userSpaceOnUse" xlink:href="#linearGradient4185"/><linearGradient id="linearGradient4226" x1=".945" x2=".595" y1="335.985" y2="335.985" gradientTransform="matrix(4.0332364,0,0,0.2235361,-29.976272,-81.468652)" gradientUnits="userSpaceOnUse" xlink:href="#linearGradient4231"/><linearGradient id="linearGradient4229" x1=".945" x2=".595" y1="375.119" y2="375.119" gradientTransform="matrix(4.0332366,0,0,0.2235366,-29.976267,-87.388347)" gradientUnits="userSpaceOnUse" xlink:href="#linearGradient4231"/><linearGradient id="linearGradient4240" x1="1.642" x2="15.343" y1="117.827" y2="117.827" gradientTransform="matrix(1.3368474,0,0,0.09123576,-30.054281,-15.853437)" gradientUnits="userSpaceOnUse" xlink:href="#linearGradient178-9"/><linearGradient id="linearGradient4248" x1=".945" x2=".595" y1="335.985" y2="335.985" gradientTransform="matrix(4.0332364,0,0,0.2235361,-14.347273,-97.097648)" gradientUnits="userSpaceOnUse" xlink:href="#linearGradient4231"/><linearGradient id="linearGradient4250" x1=".945" x2=".595" y1="375.119" y2="375.119" gradientTransform="matrix(4.0332366,0,0,0.2235366,-14.347268,-103.01732)" gradientUnits="userSpaceOnUse" xlink:href="#linearGradient4231"/><linearGradient id="linearGradient4252" x1="1.642" x2="15.343" y1="117.827" y2="117.827" gradientTransform="matrix(1.3368474,0,0,0.09123576,-14.425282,-31.482436)" gradientUnits="userSpaceOnUse" xlink:href="#linearGradient178-9"/><linearGradient id="linearGradient4262" x1="11" x2="11" y1="4" y2="18" gradientUnits="userSpaceOnUse" xlink:href="#linearGradient6270"/><linearGradient id="linearGradient6368"><stop id="stop6370" offset="0" stop-color="#afafaf" stop-opacity="1"/><stop id="stop6372" offset="1" stop-color="#828282" stop-opacity="1"/></linearGradient><linearGradient id="linearGradient4020" x1="9.814" x2="10.034" y1="1" y2="19" gradientUnits="userSpaceOnUse" xlink:href="#linearGradient6368"/></defs><rect id="rect2902" width="6.267" height="1" x="-27.508" y="-6.603" fill="url(#linearGradient4226)" fill-opacity="1" fill-rule="nonzero" stroke="none" stroke-width="1" display="block" overflow="visible" transform="matrix(-0.70710678,-0.70710678,0.70710678,-0.70710678,0,0)" visibility="visible" style="marker:none"/><g id="g3822" display="inline" transform="matrix(0.18770798,0,0,1,9.500216,-21.000146)"><rect id="rect3824" width="42" height="1" x="34.877" y="31" fill="url(#linearGradient3832)" fill-opacity="1" fill-rule="nonzero" stroke="none" stroke-width="1" display="block" opacity=".65" overflow="visible" visibility="visible" style="marker:none"/><rect id="rect3826" width="42" height="1" x="34.877" y="29" fill="url(#linearGradient3834)" fill-opacity="1" fill-rule="nonzero" stroke="none" stroke-width="1" display="block" opacity=".65" overflow="visible" visibility="visible" style="marker:none"/><rect id="rect3828" width="41.5" height="1" x="34.627" y="30" fill="url(#linearGradient3836)" fill-opacity="1" fill-rule="nonzero" stroke="none" stroke-width="1" display="block" overflow="visible" visibility="visible" style="marker:none"/></g><rect id="rect3838" width="2.877" height="4.126" x="17.6" y="7.5" fill="none" stroke="#0e0e0e" stroke-dasharray="none" stroke-miterlimit="4" stroke-opacity="1" stroke-width="1" rx="1.121" ry="1.121"/><path id="path2887" fill="url(#linearGradient3405)" fill-opacity="1" stroke="url(#linearGradient4020)" stroke-linecap="butt" stroke-linejoin="round" stroke-opacity="1" stroke-width="1" d="M 3.5,3.499854 3.5,17.5 c 0,0.47137 0.5286299,0.999854 1,0.999854 l 14,0 c 0.47137,0 1,-0.528484 1,-0.999854 l 0,-14.000146 -3,-2 -10,0 -3,2 z"/><rect id="rect4254" width="15" height="14" x="4" y="4" fill="url(#linearGradient4262)" fill-opacity="1" stroke="none" rx=".5" ry=".5"/><rect id="rect2900" width="6.267" height="1" x="-27.508" y="-4.603" fill="url(#linearGradient4229)" fill-opacity="1" fill-rule="nonzero" stroke="none" stroke-width="1" display="block" overflow="visible" transform="matrix(-0.70710678,-0.70710678,0.70710678,-0.70710678,0,0)" visibility="visible" style="marker:none"/><path id="path3701" fill="none" stroke="url(#linearGradient4191)" stroke-linecap="butt" stroke-linejoin="round" stroke-opacity="1" stroke-width="1" d="M 4.661765,3.961619 4.5,17.499854 l 14,0 L 18.338235,4.142501 16,2.499854 l -9,0 -2.338235,1.461765 z" opacity=".4"/><rect id="rect4244" width="6.267" height="1" x="-11.879" y="-20.232" fill="url(#linearGradient4250)" fill-opacity="1" fill-rule="nonzero" stroke="none" stroke-width="1" display="block" overflow="visible" transform="matrix(0.70710678,-0.70710678,-0.70710678,-0.70710678,0,0)" visibility="visible" style="marker:none"/><rect id="rect8955" width="3" height="4.2" x="9.5" y="15.5" fill="#e6e6e6" fill-opacity="1" stroke="#828282" stroke-dasharray="none" stroke-miterlimit="4" stroke-opacity="1" stroke-width="1" rx="1.121" ry="1.121"/><path id="path6441" fill="url(#radialGradient3400)" fill-opacity="1" stroke="#828282" stroke-dasharray="none" stroke-linecap="square" stroke-linejoin="round" stroke-miterlimit="4" stroke-opacity="1" stroke-width=".5" d="m 8.75,7.5 a 1.25,1.25 0 0 1 -2.5,0 1.25,1.25 0 1 1 2.5,0 z"/><path id="path2948" fill="#fafafa" fill-opacity="1" stroke="none" d="m 14.5,5.699854 c -0.276,0 -0.5,0.224 -0.5,0.5 0,0.276 0.224,0.5 0.5,0.5 0.276,0 0.5,-0.224 0.5,-0.5 0,-0.276 -0.224,-0.5 -0.5,-0.5 z"/><path id="path2946" fill="#fafafa" fill-opacity="1" stroke="none" d="m 16.5,5.699854 c -0.276,0 -0.5,0.224 -0.5,0.5 0,0.276 0.224,0.5 0.5,0.5 0.276,0 0.5,-0.224 0.5,-0.5 0,-0.276 -0.224,-0.5 -0.5,-0.5 z"/><path id="path2940" fill="#fafafa" fill-opacity="1" stroke="none" d="m 14.5,7.699854 c -0.276,0 -0.5,0.224 -0.5,0.5 0,0.276 0.224,0.5 0.5,0.5 0.276,0 0.5,-0.224 0.5,-0.5 0,-0.276 -0.224,-0.5 -0.5,-0.5 z"/><path id="path2938" fill="#fafafa" fill-opacity="1" stroke="none" d="m 16.5,7.699854 c -0.276,0 -0.5,0.224 -0.5,0.5 0,0.276 0.224,0.5 0.5,0.5 0.276,0 0.5,-0.224 0.5,-0.5 0,-0.276 -0.224,-0.5 -0.5,-0.5 z"/><path id="path2936" fill="#fafafa" fill-opacity="1" stroke="none" d="m 14.5,12.699854 c -0.276,0 -0.5,0.224 -0.5,0.5 0,0.276 0.224,0.5 0.5,0.5 0.276,0 0.5,-0.224 0.5,-0.5 0,-0.276 -0.224,-0.5 -0.5,-0.5 z"/><path id="path2934" fill="#fafafa" fill-opacity="1" stroke="none" d="m 16.5,12.699854 c -0.276,0 -0.5,0.224 -0.5,0.5 0,0.276 0.224,0.5 0.5,0.5 0.276,0 0.5,-0.224 0.5,-0.5 0,-0.276 -0.224,-0.5 -0.5,-0.5 z"/><path id="path2928" fill="#fafafa" fill-opacity="1" stroke="none" d="m 14.5,14.699854 c -0.276,0 -0.5,0.224 -0.5,0.5 0,0.276 0.224,0.5 0.5,0.5 0.276,0 0.5,-0.224 0.5,-0.5 0,-0.276 -0.224,-0.5 -0.5,-0.5 z"/><path id="path6534" fill="#fafafa" fill-opacity="1" stroke="none" d="m 16.5,14.699854 c -0.276,0 -0.5,0.224 -0.5,0.5 0,0.276 0.224,0.5 0.5,0.5 0.276,0 0.5,-0.224 0.5,-0.5 0,-0.276 -0.224,-0.5 -0.5,-0.5 z"/><path id="path2924" fill="#666" fill-opacity="1" stroke="none" d="m 14.5,5.999854 c -0.276,0 -0.5,0.224 -0.5,0.5 0,0.276 0.224,0.5 0.5,0.5 0.276,0 0.5,-0.224 0.5,-0.5 0,-0.276 -0.224,-0.5 -0.5,-0.5 z"/><path id="path2922" fill="#666" fill-opacity="1" stroke="none" d="m 16.5,5.999854 c -0.276,0 -0.5,0.224 -0.5,0.5 0,0.276 0.224,0.5 0.5,0.5 0.276,0 0.5,-0.224 0.5,-0.5 0,-0.276 -0.224,-0.5 -0.5,-0.5 z"/><path id="path2916" fill="#666" fill-opacity="1" stroke="none" d="m 14.5,7.999854 c -0.276,0 -0.5,0.224 -0.5,0.5 0,0.276 0.224,0.5 0.5,0.5 0.276,0 0.5,-0.224 0.5,-0.5 0,-0.276 -0.224,-0.5 -0.5,-0.5 z"/><path id="path2914" fill="#666" fill-opacity="1" stroke="none" d="m 16.5,7.999854 c -0.276,0 -0.5,0.224 -0.5,0.5 0,0.276 0.224,0.5 0.5,0.5 0.276,0 0.5,-0.224 0.5,-0.5 0,-0.276 -0.224,-0.5 -0.5,-0.5 z"/><path id="path2912" fill="#666" fill-opacity="1" stroke="none" d="m 14.5,12.999854 c -0.276,0 -0.5,0.224 -0.5,0.5 0,0.276 0.224,0.5 0.5,0.5 0.276,0 0.5,-0.224 0.5,-0.5 0,-0.276 -0.224,-0.5 -0.5,-0.5 z"/><path id="path2910" fill="#666" fill-opacity="1" stroke="none" d="m 16.5,12.999854 c -0.276,0 -0.5,0.224 -0.5,0.5 0,0.276 0.224,0.5 0.5,0.5 0.276,0 0.5,-0.224 0.5,-0.5 0,-0.276 -0.224,-0.5 -0.5,-0.5 z"/><path id="path2904" fill="#666" fill-opacity="1" stroke="none" d="m 14.5,14.999854 c -0.276,0 -0.5,0.224 -0.5,0.5 0,0.276 0.224,0.5 0.5,0.5 0.276,0 0.5,-0.224 0.5,-0.5 0,-0.276 -0.224,-0.5 -0.5,-0.5 z"/><path id="path6509" fill="#666" fill-opacity="1" stroke="none" d="m 16.5,14.999854 c -0.276,0 -0.5,0.224 -0.5,0.5 0,0.276 0.224,0.5 0.5,0.5 0.276,0 0.5,-0.224 0.5,-0.5 0,-0.276 -0.224,-0.5 -0.5,-0.5 z"/><path id="path5522" fill="none" stroke="gray" stroke-dasharray="none" stroke-linecap="square" stroke-linejoin="miter" stroke-miterlimit="4" stroke-opacity="1" stroke-width=".815" d="m 5.482656,12.48251 5.911836,0" opacity=".6"/><path id="path5530" fill="none" stroke="#fff" stroke-dasharray="none" stroke-linecap="square" stroke-linejoin="miter" stroke-miterlimit="4" stroke-opacity="1" stroke-width=".815" d="m 5.482656,13.494073 5.911836,0" opacity=".6"/><rect id="rect2904" width="6.374" height="1" x="-27.615" y="-5.603" fill="url(#linearGradient4240)" fill-opacity="1" fill-rule="nonzero" stroke="none" stroke-width="1" display="block" overflow="visible" transform="matrix(-0.70710678,-0.70710678,0.70710678,-0.70710678,0,0)" visibility="visible" style="marker:none"/><rect id="rect4242" width="6.267" height="1" x="-11.879" y="-22.232" fill="url(#linearGradient4248)" fill-opacity="1" fill-rule="nonzero" stroke="none" stroke-width="1" display="block" overflow="visible" transform="matrix(0.70710678,-0.70710678,-0.70710678,-0.70710678,0,0)" visibility="visible" style="marker:none"/><rect id="rect4246" width="6.374" height="1" x="-11.986" y="-21.232" fill="url(#linearGradient4252)" fill-opacity="1" fill-rule="nonzero" stroke="none" stroke-width="1" display="block" overflow="visible" transform="matrix(0.70710678,-0.70710678,-0.70710678,-0.70710678,0,0)" visibility="visible" style="marker:none"/></svg>