<svg xmlns="http://www.w3.org/2000/svg" xmlns:svg="http://www.w3.org/2000/svg" xmlns:xlink="http://www.w3.org/1999/xlink" id="svg11374" width="24" height="24" version="1.1"><metadata id="metadata86"/><defs id="defs11376"><linearGradient id="linearGradient6036-2"><stop id="stop6038-8" offset="0" stop-color="#fff" stop-opacity="1"/><stop id="stop6040-8" offset="1" stop-color="#fff" stop-opacity="0"/></linearGradient><linearGradient id="linearGradient6036-9"><stop id="stop6038-0" offset="0" stop-color="#fff" stop-opacity="1"/><stop id="stop6040-0" offset="1" stop-color="#fff" stop-opacity="0"/></linearGradient><linearGradient id="linearGradient6036"><stop id="stop6038" offset="0" stop-color="#fff" stop-opacity="1"/><stop id="stop6040" offset="1" stop-color="#fff" stop-opacity="0"/></linearGradient><linearGradient id="linearGradient6472-615-677-498"><stop id="stop10677" offset="0" stop-color="#f2f2f2" stop-opacity="1"/><stop id="stop10679" offset=".637" stop-color="#c3effb" stop-opacity="1"/><stop id="stop10681" offset=".747" stop-color="#79c3e9" stop-opacity="1"/><stop id="stop10683" offset="1" stop-color="#2b609c" stop-opacity="1"/></linearGradient><linearGradient id="linearGradient6269-922-214-380"><stop id="stop10687" offset="0" stop-color="#3c679c" stop-opacity="1"/><stop id="stop10689" offset="1" stop-color="#41cbf4" stop-opacity="1"/></linearGradient><linearGradient id="linearGradient6253"><stop id="stop6255" offset="0" stop-color="#c9fbff" stop-opacity="1"/><stop id="stop6261" offset=".476" stop-color="#c4effc" stop-opacity="1"/><stop id="stop6257" offset="1" stop-color="#bfe4f9" stop-opacity="0"/></linearGradient><linearGradient id="linearGradient11168"><stop id="stop11170" offset="0" stop-color="#ffeb9f" stop-opacity="1"/><stop id="stop11172" offset=".496" stop-color="#ffd57e" stop-opacity="1"/><stop id="stop11174" offset=".788" stop-color="#ffbc43" stop-opacity="1"/><stop id="stop11176" offset="1" stop-color="#ff921a" stop-opacity="1"/></linearGradient><linearGradient id="linearGradient3603-5"><stop id="stop3605-0" offset="0" stop-color="#a7651c" stop-opacity="1"/><stop id="stop3607-8" offset="1" stop-color="#c8a700" stop-opacity="1"/></linearGradient><linearGradient id="linearGradient11158"><stop id="stop11160" offset="0" stop-color="#eef87e" stop-opacity="1"/><stop id="stop11162" offset=".344" stop-color="#cde34f" stop-opacity="1"/><stop id="stop11164" offset=".629" stop-color="#93b723" stop-opacity="1"/><stop id="stop11166" offset="1" stop-color="#5a7e0d" stop-opacity="1"/></linearGradient><linearGradient id="linearGradient2490-3-3"><stop id="stop2492-3-6" offset="0" stop-color="#365f0e" stop-opacity="1"/><stop id="stop2494-8-4" offset="1" stop-color="#84a718" stop-opacity="1"/></linearGradient><linearGradient id="linearGradient5745"><stop id="stop5747" offset="0" stop-color="#ffed8c" stop-opacity="1"/><stop id="stop5749" offset=".468" stop-color="#ffb055" stop-opacity="1"/><stop id="stop5751" offset=".712" stop-color="#e05e31" stop-opacity="1"/><stop id="stop5753" offset="1" stop-color="#bd1515" stop-opacity="1"/></linearGradient><linearGradient id="linearGradient5755"><stop id="stop5757" offset="0" stop-color="#ce5c00" stop-opacity="1"/><stop id="stop5759" offset="1" stop-color="#971f31" stop-opacity="1"/></linearGradient><linearGradient id="linearGradient5138-0"><stop id="stop5140-0" offset="0" stop-color="#32455d" stop-opacity="1"/><stop id="stop5142-9" offset="1" stop-color="#19242b" stop-opacity="1"/></linearGradient><linearGradient id="linearGradient5216"><stop id="stop5218" offset="0" stop-color="#11191d" stop-opacity="1"/><stop id="stop5220" offset="1" stop-color="#000" stop-opacity="1"/></linearGradient><linearGradient id="linearGradient8838"><stop id="stop8840" offset="0" stop-color="#000" stop-opacity="1"/><stop id="stop8842" offset="1" stop-color="#000" stop-opacity="0"/></linearGradient><radialGradient id="radialGradient2904" cx="-36.642" cy="18.894" r="8.524" fx="-36.831" fy="17.431" gradientTransform="matrix(0.43916914,0,0,0.3764999,28.09182,3.3870307)" gradientUnits="userSpaceOnUse" xlink:href="#linearGradient6472-615-677-498"/><linearGradient id="linearGradient2906" x1="-36.642" x2="-36.642" y1="27.437" y2="10.35" gradientTransform="matrix(0.43916914,0,0,0.3764999,28.09182,3.3870307)" gradientUnits="userSpaceOnUse" xlink:href="#linearGradient6269-922-214-380"/><radialGradient id="radialGradient2909" cx="-36.642" cy="20.297" r="9.456" fx="-36.642" fy="18.265" gradientTransform="matrix(0.74028061,0,0,0.68740338,39.124999,-3.4508859)" gradientUnits="userSpaceOnUse" xlink:href="#linearGradient6253"/><radialGradient id="radialGradient2912" cx="37.017" cy="-2.044" r="13.931" fx="37.017" fy="-2.044" gradientTransform="matrix(-0.72415038,0.47244559,-0.42871461,-0.59573108,38.1988,-9.0039321)" gradientUnits="userSpaceOnUse" xlink:href="#linearGradient11168"/><linearGradient id="linearGradient2914" x1="77.329" x2="71.87" y1="63.334" y2="54.239" gradientTransform="matrix(0.78590777,0,0,0.7506353,-42.531101,-29.538878)" gradientUnits="userSpaceOnUse" xlink:href="#linearGradient3603-5"/><radialGradient id="radialGradient2917" cx="68.187" cy="33.752" r="31" fx="68.187" fy="33.752" gradientTransform="matrix(-0.20873995,0.28408631,-0.33607775,-0.22560498,36.70074,-1.856973)" gradientUnits="userSpaceOnUse" xlink:href="#linearGradient11158"/><linearGradient id="linearGradient2919" x1="75.306" x2="111.627" y1="121.736" y2="67.683" gradientTransform="matrix(0.13351401,0,0,0.12848544,-5.4011868,3.0645525)" gradientUnits="userSpaceOnUse" xlink:href="#linearGradient2490-3-3"/><radialGradient id="radialGradient2922" cx="10.615" cy="12.446" r="11" fx="10.615" fy="12.446" gradientTransform="matrix(0,-0.79353613,1.2692535,-1.1738467e-8,-3.4469558,18.394013)" gradientUnits="userSpaceOnUse" xlink:href="#linearGradient5745"/><linearGradient id="linearGradient2924" x1="7.757" x2="7.757" y1="16.041" y2=".332" gradientTransform="matrix(0.47483984,0,0,0.46588936,0.7732481,1.0558595)" gradientUnits="userSpaceOnUse" xlink:href="#linearGradient5755"/><radialGradient id="radialGradient2927" cx="-37.749" cy="19.402" r="18.733" fx="-37.749" fy="15.539" gradientTransform="matrix(0.55097503,0,0,0.51941882,32.864701,1.3875435)" gradientUnits="userSpaceOnUse" xlink:href="#linearGradient5138-0"/><linearGradient id="linearGradient2929" x1="-50.518" x2="-50.518" y1=".663" y2="38.16" gradientTransform="matrix(0.55097503,0,0,0.51941882,32.864701,1.3875435)" gradientUnits="userSpaceOnUse" xlink:href="#linearGradient5216"/><radialGradient id="radialGradient2932" cx="62.625" cy="4.625" r="10.625" fx="62.625" fy="4.625" gradientTransform="matrix(1.0352941,0,0,0.37647076,-52.835292,18.258814)" gradientUnits="userSpaceOnUse" xlink:href="#linearGradient8838"/><linearGradient id="linearGradient3667" x1="24.846" x2="24.846" y1="1.41" y2="14.964" gradientTransform="matrix(0.47483984,0,0,0.46588936,0.7732481,1.0558595)" gradientUnits="userSpaceOnUse" xlink:href="#linearGradient6036"/><linearGradient id="linearGradient3671" x1="45.247" x2="27.521" y1="43.235" y2="25.797" gradientTransform="matrix(0.47483984,0,0,0.46588936,0.7732481,1.0558595)" gradientUnits="userSpaceOnUse" xlink:href="#linearGradient6036-9"/><linearGradient id="linearGradient3675" x1="2.001" x2="16.137" y1="31.956" y2="23.877" gradientTransform="matrix(0.47483984,0,0,0.46588936,0.7732481,1.0558595)" gradientUnits="userSpaceOnUse" xlink:href="#linearGradient6036-2"/></defs><path id="path8836" fill="url(#radialGradient2932)" fill-opacity="1" fill-rule="evenodd" stroke="none" stroke-width="1" d="M 23,19.999993 C 23,22.209135 18.075131,24 11.999999,24 5.9248692,24 1,22.209135 1,19.999993 1,17.790849 5.9248697,15.999986 11.999999,15.999986 18.07513,15.999986 23,17.790849 23,19.999993 l 0,0 z" display="inline" opacity=".3" overflow="visible" visibility="visible" style="marker:none"/><path id="path3682-8" fill="url(#radialGradient2927)" fill-opacity="1" fill-rule="evenodd" stroke="url(#linearGradient2929)" stroke-dasharray="none" stroke-dashoffset="0" stroke-linecap="round" stroke-linejoin="miter" stroke-miterlimit="4" stroke-opacity=".843" stroke-width="1" d="m 22.150047,11.465254 a 10.084379,9.5068128 0 0 1 -20.168758,0 10.084379,9.5068128 0 1 1 20.168758,0 z" color="#000" display="inline" enable-background="accumulate" overflow="visible" visibility="visible" style="marker:none"/><path id="path5146" fill="url(#radialGradient2922)" fill-opacity="1" fill-rule="nonzero" stroke="url(#linearGradient2924)" stroke-dasharray="none" stroke-dashoffset="0" stroke-linecap="round" stroke-linejoin="round" stroke-miterlimit="4" stroke-opacity="1" stroke-width="1" d="M 11.274161,1.5057345 C 9.6354248,1.5727444 5.9747629,2.2063851 2.9193704,6.1035251 L 5.7043008,4.6322322 c 0,0 0.2017968,2.0022303 2.3745196,3.2679662 l 0.5130134,0.028298 c 0.8170421,-0.8774757 2.0685582,-1.443003 3.4738342,-1.443003 1.593173,0 2.978754,0.7252335 3.766984,1.8108221 l 0.05863,0 c 0,0 1.758519,-0.8606468 4.338628,-0.5941761 0,0 0.04092,-1.9602323 -1.724421,-4.3584721 0,0 -2.12769,-1.8096389 -6.324765,-1.8096389 0,0 -0.360318,-0.050628 -0.906564,-0.028298 z" color="#000" display="inline" enable-background="accumulate" overflow="visible" visibility="visible" style="marker:none"/><path id="path5767" fill="url(#radialGradient2917)" fill-opacity="1" fill-rule="nonzero" stroke="url(#linearGradient2919)" stroke-dasharray="none" stroke-dashoffset="0" stroke-linecap="round" stroke-linejoin="round" stroke-miterlimit="4" stroke-opacity="1" stroke-width=".985" d="m 4.996334,6.44311 c 0,0 -2.4955552,0.6031472 -3.3961411,3.1971753 0,0 -1.78041334,9.3795447 9.1740891,11.8670007 0,0 -3.3110774,-2.909103 -3.3110774,-4.326628 0,0 2.9608974,-0.598953 3.4298614,-2.687937 L 10.526627,13.940985 C 8.827828,13.397634 7.6097798,11.989557 7.6097798,10.33349 c 0,-0.221181 -0.1081519,-0.7698427 0.05863,-1.1871128 C 7.635154,9.1299768 5.8631253,8.2515815 4.9963339,6.44311 z" color="#000" display="inline" enable-background="accumulate" overflow="visible" visibility="visible" style="marker:none"/><path id="path5934" fill="url(#radialGradient2912)" fill-opacity="1" fill-rule="nonzero" stroke="url(#linearGradient2914)" stroke-dasharray="none" stroke-dashoffset="0" stroke-linecap="butt" stroke-linejoin="round" stroke-miterlimit="4" stroke-opacity="1" stroke-width=".992" d="m 21.354866,6.4837459 0,3.0156464 c 0,0 -0.619231,-1.0193695 -5.122659,-0.2987734 0.146552,0.3791954 0.168727,0.5149064 0.168727,0.9358811 0,2.08494 -1.944629,3.78341 -4.373744,3.850966 l -0.31241,0.396423 c 0,0 -0.284956,2.005121 -3.1687316,3.143068 0,0 1.3384667,2.688555 4.4332496,3.893439 0,0 4.493152,-0.07615 7.949974,-4.494891 0,0 3.239034,-4.283572 0.425594,-10.4417591 z" color="#000" display="inline" enable-background="accumulate" overflow="visible" visibility="visible" style="marker:none"/><path id="path6114" fill="url(#radialGradient2909)" fill-opacity="1" fill-rule="nonzero" stroke="none" stroke-width="1.023" d="m 19,10.501511 a 7,6.5 0 0 1 -14,0 7,6.5 0 1 1 14,0 z" color="#000" display="inline" enable-background="accumulate" opacity=".8" overflow="visible" visibility="visible" style="marker:none"/><path id="path6267" fill="url(#radialGradient2904)" fill-opacity="1" fill-rule="nonzero" stroke="url(#linearGradient2906)" stroke-opacity="1" stroke-width=".992" d="m 15.503864,10.500486 a 3.5038643,3.0038643 0 0 1 -7.0077283,0 3.5038643,3.0038643 0 1 1 7.0077283,0 z" color="#000" display="inline" enable-background="accumulate" overflow="visible" visibility="visible" style="marker:none"/><path id="path3665" fill="none" stroke="url(#linearGradient3667)" stroke-dasharray="none" stroke-dashoffset="0" stroke-linecap="round" stroke-linejoin="round" stroke-miterlimit="4" stroke-opacity="1" stroke-width="1" d="m 11.3125,2.4375 c -0.972532,0.039769 -2.8625455,0.4204441 -4.875,1.78125 0.068116,0.1131271 0.2028623,0.1672715 0.21875,0.3125 a 0.48830984,0.48830984 0 0 1 0,0.03125 c 0,0 0.1006106,1.3545634 1.71875,2.40625 0.9733825,-0.8345095 2.243547,-1.40625 3.6875,-1.40625 1.633812,0 3.06925,0.6763537 4.0625,1.71875 0.486901,-0.1858191 1.506241,-0.4389629 3,-0.46875 -0.247285,-0.9244783 -0.706201,-1.9274072 -1.3125,-2.78125 -0.003,-0.0042 -0.02827,0.00419 -0.03125,0 C 17.718842,3.9851047 17.619923,3.9206122 17.5,3.84375 17.260155,3.6900257 16.913399,3.4848918 16.4375,3.28125 15.491521,2.8764562 14.066785,2.4736867 12.15625,2.46875 c -0.0096,7.296e-4 -0.01962,-3.648e-4 -0.03125,0 -0.03488,0.00109 -0.06506,0.00219 -0.09375,0 A 0.48830984,0.48830984 0 0 1 11.96875,2.4375 c 0,0 -0.186899,-0.019184 -0.65625,0 z" color="#000" display="inline" enable-background="accumulate" opacity=".4" overflow="visible" visibility="visible" style="marker:none"/><path id="path3669" fill="none" stroke="url(#linearGradient3671)" stroke-dasharray="none" stroke-dashoffset="0" stroke-linecap="round" stroke-linejoin="round" stroke-miterlimit="4" stroke-opacity="1" stroke-width="1" d="m 18.9375,9.96875 c -0.344127,0.00293 -0.941305,0.086269 -1.5,0.15625 0,2.519668 -2.181078,4.426695 -4.8125,4.75 l -0.03125,0 c -9.77e-4,0.0046 0.0011,0.0263 0,0.03125 -0.04762,0.221698 -0.118869,0.619017 -0.5,1.1875 -0.410289,0.611975 -1.143582,1.189206 -2.0625,1.71875 0.410962,0.652572 1.264726,1.766233 3.15625,2.5625 0.550436,-0.03094 3.994418,-0.355483 6.90625,-4.0625 0,0 1.684714,-2.350321 1.1875,-6.125 a 0.56389725,0.56389725 0 0 1 -0.65625,0 c 0.06198,0.0404 -0.09114,-0.02892 -0.375,-0.09375 -0.262765,-0.06001 -0.686204,-0.1303224 -1.3125,-0.125 z" color="#000" display="inline" enable-background="accumulate" opacity=".4" overflow="visible" visibility="visible" style="marker:none"/><path id="path3673" fill="none" stroke="url(#linearGradient3675)" stroke-dasharray="none" stroke-dashoffset="0" stroke-linecap="round" stroke-linejoin="round" stroke-miterlimit="4" stroke-opacity="1" stroke-width="1" d="M 4.625,7.78125 C 4.0899909,7.9825702 2.9349018,8.51185 2.53125,9.875 c -0.014215,0.08741 -0.3439853,2.072431 0.4375,4.40625 0.5697289,1.701434 1.75539,3.571498 4.375,4.96875 -0.084186,-0.129107 -0.1599288,-0.226965 -0.25,-0.375 a 0.49172216,0.49172216 0 0 1 -0.03125,0 C 6.7770656,18.356451 6.53125,17.806612 6.53125,17.1875 c -0.00675,-0.447743 0.2859292,-0.812261 0.75,-0.90625 a 0.49172216,0.49172216 0 0 1 0,-0.03125 c 0,0 0.6491731,-0.09634 1.3125,-0.4375 C 9.1392372,15.531945 9.5766365,15.131273 9.8125,14.625 8.0107002,13.883668 6.65625,12.288293 6.65625,10.34375 c 0,-0.09051 0.024635,-0.168017 0.03125,-0.25 C 6.4293509,9.90937 6.1655699,9.720728 5.8125,9.34375 5.4344496,8.9401 5.0134004,8.376053 4.625,7.78125 z" color="#000" display="inline" enable-background="accumulate" opacity=".4" overflow="visible" visibility="visible" style="marker:none"/></svg>