<svg xmlns="http://www.w3.org/2000/svg" xmlns:svg="http://www.w3.org/2000/svg" xmlns:xlink="http://www.w3.org/1999/xlink" id="svg3376" width="24" height="24" version="1.0"><defs id="defs3378"><linearGradient id="linearGradient5048"><stop id="stop5050" offset="0" stop-color="#000" stop-opacity="0"/><stop id="stop5056" offset=".5" stop-color="#000" stop-opacity="1"/><stop id="stop5052" offset="1" stop-color="#000" stop-opacity="0"/></linearGradient><linearGradient id="linearGradient5060"><stop id="stop5062" offset="0" stop-color="#000" stop-opacity="1"/><stop id="stop5064" offset="1" stop-color="#000" stop-opacity="0"/></linearGradient><linearGradient id="linearGradient2264"><stop id="stop2266" offset="0" stop-color="#cbe866" stop-opacity="1"/><stop id="stop2268" offset="1" stop-color="#76ab2a" stop-opacity="1"/></linearGradient><linearGradient id="linearGradient3259"><stop id="stop3261" offset="0" stop-color="#fff" stop-opacity="1"/><stop id="stop3263" offset="1" stop-color="#fff" stop-opacity="0"/></linearGradient><radialGradient id="radialGradient2455" cx="605.714" cy="486.648" r="117.143" fx="605.714" fy="486.648" gradientTransform="matrix(-1.0931216e-2,0,0,1.0415184e-2,10.948475,16.651851)" gradientUnits="userSpaceOnUse" xlink:href="#linearGradient5060"/><radialGradient id="radialGradient2458" cx="605.714" cy="486.648" r="117.143" fx="605.714" fy="486.648" gradientTransform="matrix(1.0931216e-2,0,0,1.0415184e-2,3.0510669,16.651851)" gradientUnits="userSpaceOnUse" xlink:href="#linearGradient5060"/><linearGradient id="linearGradient2461" x1="302.857" x2="302.857" y1="366.648" y2="609.505" gradientTransform="matrix(1.0931216e-2,0,0,1.0415184e-2,3.0489156,16.651851)" gradientUnits="userSpaceOnUse" xlink:href="#linearGradient5048"/><radialGradient id="radialGradient2464" cx="605.714" cy="486.648" r="117.143" fx="605.714" fy="486.648" gradientTransform="matrix(-1.0931218e-2,0,0,1.0415184e-2,20.948704,16.651851)" gradientUnits="userSpaceOnUse" xlink:href="#linearGradient5060"/><radialGradient id="radialGradient2467" cx="605.714" cy="486.648" r="117.143" fx="605.714" fy="486.648" gradientTransform="matrix(1.0931218e-2,0,0,1.0415184e-2,13.051297,16.651851)" gradientUnits="userSpaceOnUse" xlink:href="#linearGradient5060"/><linearGradient id="linearGradient2470" x1="302.857" x2="302.857" y1="366.648" y2="609.505" gradientTransform="matrix(1.0931218e-2,0,0,1.0415184e-2,13.049145,16.651851)" gradientUnits="userSpaceOnUse" xlink:href="#linearGradient5048"/><linearGradient id="linearGradient2484" x1="62.948" x2="62.948" y1="11.471" y2="48.888" gradientTransform="matrix(0.4838747,0,0,0.4750035,-22.596986,0.1248392)" gradientUnits="userSpaceOnUse" xlink:href="#linearGradient2264"/><linearGradient id="linearGradient3268" x1="11.697" x2="11.697" y1="8.08" y2="24.125" gradientUnits="userSpaceOnUse" xlink:href="#linearGradient3259"/><linearGradient id="linearGradient3272" x1="11.697" x2="11.697" y1="8.08" y2="24.125" gradientUnits="userSpaceOnUse" xlink:href="#linearGradient3259"/></defs><rect id="rect3364" width="5.278" height="2.529" x="14.361" y="20.471" fill="url(#linearGradient2470)" fill-opacity="1" fill-rule="nonzero" stroke="none" stroke-dasharray="none" stroke-dashoffset="0" stroke-linecap="round" stroke-linejoin="miter" stroke-miterlimit="4" stroke-opacity="1" stroke-width="1.148" marker-end="none" marker-mid="none" marker-start="none" display="inline" opacity=".3" overflow="visible" visibility="visible" style="marker:none"/><path id="path3366" fill="url(#radialGradient2467)" fill-opacity="1" fill-rule="nonzero" stroke="none" stroke-dasharray="none" stroke-dashoffset="0" stroke-linecap="round" stroke-linejoin="miter" stroke-miterlimit="4" stroke-opacity="1" stroke-width="1.148" marker-end="none" marker-mid="none" marker-start="none" d="M 19.63911,20.470643 C 19.63911,20.470643 19.63911,22.999904 19.63911,22.999904 C 20.20204,23.004668 21,22.433226 21,21.735112 C 21,21.036996 20.371813,20.470644 19.63911,20.470643 z" display="inline" opacity=".3" overflow="visible" visibility="visible" style="marker:none"/><path id="path3368" fill="url(#radialGradient2464)" fill-opacity="1" fill-rule="nonzero" stroke="none" stroke-dasharray="none" stroke-dashoffset="0" stroke-linecap="round" stroke-linejoin="miter" stroke-miterlimit="4" stroke-opacity="1" stroke-width="1.148" marker-end="none" marker-mid="none" marker-start="none" d="M 14.360892,20.470643 C 14.360892,20.470643 14.360892,22.999904 14.360892,22.999904 C 13.79796,23.004668 13,22.433226 13,21.735112 C 13,21.036996 13.628188,20.470644 14.360892,20.470643 z" display="inline" opacity=".3" overflow="visible" visibility="visible" style="marker:none"/><rect id="rect2661" width="5.278" height="2.529" x="4.361" y="20.471" fill="url(#linearGradient2461)" fill-opacity="1" fill-rule="nonzero" stroke="none" stroke-dasharray="none" stroke-dashoffset="0" stroke-linecap="round" stroke-linejoin="miter" stroke-miterlimit="4" stroke-opacity="1" stroke-width="1.148" marker-end="none" marker-mid="none" marker-start="none" display="inline" opacity=".3" overflow="visible" visibility="visible" style="marker:none"/><path id="path2663" fill="url(#radialGradient2458)" fill-opacity="1" fill-rule="nonzero" stroke="none" stroke-dasharray="none" stroke-dashoffset="0" stroke-linecap="round" stroke-linejoin="miter" stroke-miterlimit="4" stroke-opacity="1" stroke-width="1.148" marker-end="none" marker-mid="none" marker-start="none" d="M 9.638877,20.470643 C 9.638877,20.470643 9.638877,22.999904 9.638877,22.999904 C 10.201809,23.004668 10.999769,22.433226 10.999769,21.735112 C 10.999769,21.036996 10.371581,20.470644 9.638877,20.470643 z" display="inline" opacity=".3" overflow="visible" visibility="visible" style="marker:none"/><path id="path2665" fill="url(#radialGradient2455)" fill-opacity="1" fill-rule="nonzero" stroke="none" stroke-dasharray="none" stroke-dashoffset="0" stroke-linecap="round" stroke-linejoin="miter" stroke-miterlimit="4" stroke-opacity="1" stroke-width="1.148" marker-end="none" marker-mid="none" marker-start="none" d="M 4.3606612,20.470643 C 4.3606612,20.470643 4.3606612,22.999904 4.3606612,22.999904 C 3.7977309,23.004668 2.9997694,22.433226 2.9997694,21.735112 C 2.9997694,21.036996 3.6279576,20.470644 4.3606612,20.470643 z" display="inline" opacity=".3" overflow="visible" visibility="visible" style="marker:none"/><path id="path3185" fill="url(#linearGradient2484)" fill-opacity="1" fill-rule="evenodd" stroke="#699536" stroke-linecap="butt" stroke-linejoin="miter" stroke-opacity="1" stroke-width="1" d="M 4.5,2.4998555 L 4.5,21.5 L 9.5,21.5 L 9.5,14.277773 C 9.5,13.812653 9.9163996,13.487866 10.426652,13.487866 L 13.569483,13.487866 C 14.079734,13.487866 14.537233,13.812653 14.537233,14.277773 L 14.537233,21.5 L 19.500118,21.5 L 19.500118,11.630838 C 19.500118,9.9203498 17.98946,8.5433148 16.112994,8.5433148 L 9.5,8.5433148 L 9.5,2.4998555 L 4.5,2.4998555 z"/><path id="path3270" fill="none" fill-opacity="1" fill-rule="evenodd" stroke="url(#linearGradient3272)" stroke-linecap="butt" stroke-linejoin="miter" stroke-opacity="1" stroke-width="1" d="M 5.5625,3.5625 L 5.5625,20.4375 L 8.4375,20.4375 L 8.4375,14.28125 C 8.4375,13.71927 8.705407,13.187263 9.09375,12.875 C 9.482093,12.562737 9.9601882,12.4375 10.4375,12.4375 L 13.5625,12.4375 C 14.039812,12.4375 14.513163,12.572764 14.90625,12.875 C 15.299337,13.177236 15.59375,13.695174 15.59375,14.28125 L 15.59375,20.4375 L 18.4375,20.4375 L 18.4375,11.625 C 18.4375,10.542876 17.472742,9.59375 16.125,9.59375 L 9.5,9.59375 C 8.9162325,9.5864867 8.4447633,9.1150175 8.4375,8.53125 L 8.4375,3.5625 L 5.5625,3.5625 z" opacity=".4"/></svg>