<svg xmlns="http://www.w3.org/2000/svg" xmlns:svg="http://www.w3.org/2000/svg" xmlns:xlink="http://www.w3.org/1999/xlink" id="svg11300" width="24" height="24" version="1.1"><defs id="defs3"><linearGradient id="linearGradient10591"><stop id="stop10593" offset="0" stop-color="#dcdcdc" stop-opacity="1"/><stop id="stop10599" offset=".5" stop-color="#fafafa" stop-opacity="1"/><stop id="stop10595" offset="1" stop-color="#c8c8c8" stop-opacity="1"/></linearGradient><linearGradient id="linearGradient7622-6"><stop id="stop7624-1" offset="0" stop-color="#fff" stop-opacity="1"/><stop id="stop7626-5" offset="1" stop-color="#fff" stop-opacity="0"/></linearGradient><linearGradient id="linearGradient14861-7"><stop id="stop14863-5" offset="0" stop-color="#fff" stop-opacity="1"/><stop id="stop14865-8" offset="1" stop-color="#fff" stop-opacity="0"/></linearGradient><linearGradient id="linearGradient14780-7-6"><stop id="stop14782-0-3" offset="0" stop-color="#d3ba00" stop-opacity="1"/><stop id="stop14784-4-7" offset="1" stop-color="#d3ba00" stop-opacity="0"/></linearGradient><linearGradient id="linearGradient14981-4-9"><stop id="stop14983-1-0" offset="0" stop-color="#6d9335" stop-opacity="1"/><stop id="stop14985-7-7" offset="1" stop-color="#364d17" stop-opacity="1"/></linearGradient><linearGradient id="linearGradient14993"><stop id="stop14995" offset="0" stop-color="#000" stop-opacity="1"/><stop id="stop14997" offset="1" stop-color="#000" stop-opacity="0"/></linearGradient><linearGradient id="linearGradient3222" x1="16.965" x2="18.968" y1="20.166" y2="31.347" gradientTransform="matrix(0.39731096,0,0,0.39082257,2.143028,-0.1067287)" gradientUnits="userSpaceOnUse" xlink:href="#linearGradient14861-7"/><radialGradient id="radialGradient3226" cx="10" cy="16.655" r="16" fx="10" fy="16.655" gradientTransform="matrix(1.4043815,0.04555468,-0.03427223,1.0005357,-11.151028,-10.219333)" gradientUnits="userSpaceOnUse" xlink:href="#linearGradient7622-6"/><linearGradient id="linearGradient3240" x1="6.221" x2="6.238" y1="42.891" y2="39.267" gradientTransform="matrix(0.9999997,0,0,0.56326439,4.000001,-4.3017486)" gradientUnits="userSpaceOnUse" xlink:href="#linearGradient14780-7-6"/><linearGradient id="linearGradient3243" x1="6.221" x2="6.238" y1="42.891" y2="39.267" gradientTransform="matrix(0.99999854,0,0,0.56326439,2.00001,-4.3017486)" gradientUnits="userSpaceOnUse" xlink:href="#linearGradient14780-7-6"/><linearGradient id="linearGradient3246" x1="6.221" x2="6.238" y1="42.891" y2="39.267" gradientTransform="matrix(1.0000004,0,0,0.56326439,-2e-6,-4.3017493)" gradientUnits="userSpaceOnUse" xlink:href="#linearGradient14780-7-6"/><linearGradient id="linearGradient3249" x1="6.221" x2="6.238" y1="42.891" y2="39.267" gradientTransform="matrix(1,0,0,0.56326439,-2,-4.3017493)" gradientUnits="userSpaceOnUse" xlink:href="#linearGradient14780-7-6"/><radialGradient id="radialGradient3259" cx="21.5" cy="44.75" r="17" fx="21.5" fy="44.75" gradientTransform="matrix(0.64705885,0,0,0.17647041,-2.911765,13.103433)" gradientUnits="userSpaceOnUse" xlink:href="#linearGradient14993"/><radialGradient id="radialGradient3262" cx="15" cy="19.77" r="17.001" fx="15" fy="19.77" gradientTransform="matrix(2.2011105,0,0,0.9928155,-28.19895,-11.347918)" gradientUnits="userSpaceOnUse" xlink:href="#linearGradient14981-4-9"/><linearGradient id="linearGradient4304" x1="42.366" x2="42.401" y1="15.05" y2="20.018" gradientTransform="matrix(0.73900817,0,0,0.62997639,-8.456032,-1.5460199)" gradientUnits="userSpaceOnUse" xlink:href="#linearGradient10591"/><linearGradient id="linearGradient4308" x1="42.366" x2="42.401" y1="15.05" y2="20.018" gradientTransform="matrix(0.73900817,0,0,0.62997639,-8.456032,2.4539802)" gradientUnits="userSpaceOnUse" xlink:href="#linearGradient10591"/><linearGradient id="linearGradient4316" x1="20" x2="23" y1="11.25" y2="11.25" gradientTransform="translate(0,-1)" gradientUnits="userSpaceOnUse" xlink:href="#linearGradient10591"/><radialGradient id="radialGradient3260" cx="23.896" cy="3.99" r="20.397" fx="23.896" fy="3.99" gradientTransform="matrix(0,0.86033195,-1.1356228,0,12.531139,-20.445112)" gradientUnits="userSpaceOnUse" xlink:href="#linearGradient3868"/><linearGradient id="linearGradient3868"><stop id="stop3870" offset="0" stop-color="#8badea" stop-opacity="1"/><stop id="stop3872" offset=".262" stop-color="#6396cd" stop-opacity="1"/><stop id="stop3874" offset=".661" stop-color="#3b7caf" stop-opacity="1"/><stop id="stop3876" offset="1" stop-color="#194c70" stop-opacity="1"/></linearGradient><linearGradient id="linearGradient3262" x1="18.379" x2="18.379" y1="44.98" y2="3.082" gradientTransform="matrix(0.36047566,0,0,0.36047572,-0.65141482,-0.65141768)" gradientUnits="userSpaceOnUse" xlink:href="#linearGradient3878"/><linearGradient id="linearGradient3878"><stop id="stop3880" offset="0" stop-color="#1f4b6a" stop-opacity="1"/><stop id="stop3882" offset="1" stop-color="#4083c2" stop-opacity="1"/></linearGradient><linearGradient id="linearGradient3264" x1="63.397" x2="63.397" y1="-12.489" y2="5.468" gradientTransform="matrix(0.68608831,0,0,0.6860727,-34.674967,10.408689)" gradientUnits="userSpaceOnUse" xlink:href="#linearGradient3341"/><linearGradient id="linearGradient3341"><stop id="stop3343" offset="0" stop-color="#fff" stop-opacity="1"/><stop id="stop3345" offset="1" stop-color="#fff" stop-opacity="0"/></linearGradient></defs><path d="M 22,21.000488 A 11,3 0 0 1 1.05e-7,21.000488 11,3 0 1 1 22,21.000488 z" style="marker:none" id="path14991" fill="url(#radialGradient3259)" fill-opacity="1" fill-rule="nonzero" stroke="none" stroke-width="1" color="#000" display="block" opacity=".4" overflow="visible" visibility="visible"/><rect id="rect4306" width="3.5" height="2.5" x="20.25" y="12.25" fill="url(#linearGradient4308)" fill-opacity="1" fill-rule="nonzero" stroke="#787878" stroke-dasharray="none" stroke-dashoffset="0" stroke-linecap="round" stroke-linejoin="round" stroke-miterlimit="4" stroke-opacity="1" stroke-width=".5" color="#000" display="block" overflow="visible" rx="1" ry="1" visibility="visible" style="marker:none"/><path id="rect14772-0" fill="url(#radialGradient3262)" fill-opacity="1" fill-rule="nonzero" stroke="#2d410f" stroke-dasharray="none" stroke-dashoffset="0" stroke-linecap="butt" stroke-linejoin="round" stroke-miterlimit="4" stroke-opacity="1" stroke-width="1" d="m 0.502669,18.5 1.997331,0 0,3 10,0 0,-3 6.999951,0 0,-15.0000563 L 0.5,3.499942 0.50273,18.5 l -6.1e-5,0 z" color="#000" display="block" overflow="visible" visibility="visible" style="marker:none"/><path id="path14957-6" fill="none" stroke="#305526" stroke-dasharray="none" stroke-dashoffset="0" stroke-linecap="butt" stroke-linejoin="miter" stroke-miterlimit="4" stroke-opacity="1" stroke-width=".5" d="m 12.874,13.275 -7.632,0 0,2.020419" color="#000" display="block" overflow="visible" visibility="visible" style="marker:none"/><path id="path14826-5" fill="none" stroke="#305526" stroke-dasharray="none" stroke-dashoffset="0" stroke-linecap="butt" stroke-linejoin="miter" stroke-miterlimit="4" stroke-opacity="1" stroke-width=".5" d="m 4.25,19.95 0.03097,-3.24193 1.07338,-1.49541 11.93565,0 0,-4.81266 -2.623305,-1.641 2.038425,0 0,-1.9664324 -4.10512,0" color="#000" display="block" overflow="visible" visibility="visible" style="marker:none"/><path id="path14830" fill="none" stroke="#305526" stroke-dasharray="none" stroke-dashoffset="0" stroke-linecap="butt" stroke-linejoin="miter" stroke-miterlimit="4" stroke-opacity="1" stroke-width=".5" d="m 8.25,20.078451 0.03097,-3.24193 1.073379,-1.49541" color="#000" display="block" overflow="visible" visibility="visible" style="marker:none"/><path id="path14838" fill="none" stroke="#305526" stroke-dasharray="none" stroke-dashoffset="0" stroke-linecap="butt" stroke-linejoin="miter" stroke-miterlimit="4" stroke-opacity="1" stroke-width=".5" d="m 6.25,20.078451 0.03097,-3.24193 1.07338,-1.49541" color="#000" display="block" overflow="visible" visibility="visible" style="marker:none"/><path id="path14840" fill="none" stroke="#305526" stroke-dasharray="none" stroke-dashoffset="0" stroke-linecap="butt" stroke-linejoin="miter" stroke-miterlimit="4" stroke-opacity="1" stroke-width=".5" d="m 10.25,20.078451 0.03096,-3.24193 1.073379,-1.49541" color="#000" display="block" overflow="visible" visibility="visible" style="marker:none"/><path d="M 4.5,18 C 4.902984,18 5,18.354433 5,18.510457 L 5,21 c 0,0 -1,0 -1,0 L 4,18.510457 C 4,18.354433 4.10489,18 4.5,18 z" style="marker:none" id="path14788" fill="url(#linearGradient3249)" fill-opacity="1" fill-rule="nonzero" stroke="none" stroke-width="1" color="#000" display="block" overflow="visible" visibility="visible"/><path d="M 6.499999,18 C 6.902984,18 7,18.354433 7,18.510457 L 7,21 c 0,0 -1,0 -1,0 L 6,18.510457 C 6,18.354433 6.104889,18 6.499999,18 z" style="marker:none" id="path14792" fill="url(#linearGradient3246)" fill-opacity="1" fill-rule="nonzero" stroke="none" stroke-width="1" color="#000" display="block" overflow="visible" visibility="visible"/><path d="M 8.499999,18 C 8.902984,18 9,18.354434 9,18.510459 L 9,21 c 0,0 -1,0 -1,0 L 8,18.510459 C 8,18.354434 8.104893,18 8.499999,18 z" style="marker:none" id="path14796-8" fill="url(#linearGradient3243)" fill-opacity="1" fill-rule="nonzero" stroke="none" stroke-width="1" color="#000" display="block" overflow="visible" visibility="visible"/><path d="M 10.499999,18 C 10.902984,18 11,18.354434 11,18.510459 L 11,21 c 0,0 -1,0 -1,0 l 0,-2.489541 C 10,18.354434 10.104893,18 10.499999,18 z" style="marker:none" id="path14800" fill="url(#linearGradient3240)" fill-opacity="1" fill-rule="nonzero" stroke="none" stroke-width="1" color="#000" display="block" overflow="visible" visibility="visible"/><path id="path15029-1" fill="none" stroke="#305526" stroke-dasharray="none" stroke-dashoffset="0" stroke-linecap="butt" stroke-linejoin="miter" stroke-miterlimit="4" stroke-opacity="1" stroke-width=".5" d="M 4.382777,7.0925382 2.8,7.6884103 2.8,14.201 l 2.5,0" color="#000" display="block" overflow="visible" visibility="visible" style="marker:none"/><path id="path14959-2" fill="none" stroke="#305526" stroke-dasharray="none" stroke-dashoffset="0" stroke-linecap="butt" stroke-linejoin="miter" stroke-miterlimit="4" stroke-opacity="1" stroke-width=".5" d="m 4.99307,10.73511 0.598904,2.35444 1.09799,0 -0.598903,-2.35444" color="#000" display="block" overflow="visible" visibility="visible" style="marker:none"/><path id="path14961-2" fill="none" stroke="#305526" stroke-dasharray="none" stroke-dashoffset="0" stroke-linecap="butt" stroke-linejoin="miter" stroke-miterlimit="4" stroke-opacity="1" stroke-width=".5" d="m 7.251678,10.791681 0.598903,2.297869 1.097991,0 -0.598904,-2.297869" color="#000" display="block" overflow="visible" visibility="visible" style="marker:none"/><path id="path14963-6" fill="none" stroke="#305526" stroke-dasharray="none" stroke-dashoffset="0" stroke-linecap="butt" stroke-linejoin="miter" stroke-miterlimit="4" stroke-opacity="1" stroke-width=".5" d="m 9.510285,10.705967 0.598903,2.383583 1.097992,0 -0.598905,-2.383583" color="#000" display="block" overflow="visible" visibility="visible" style="marker:none"/><path id="path14965-9" fill="none" stroke="#305526" stroke-dasharray="none" stroke-dashoffset="0" stroke-linecap="butt" stroke-linejoin="miter" stroke-miterlimit="4" stroke-opacity="1" stroke-width=".5" d="m 11.768891,10.681966 0.598904,2.407584" color="#000" display="block" overflow="visible" visibility="visible" style="marker:none"/><path id="path14989-1" fill="none" stroke="url(#radialGradient3226)" stroke-dasharray="none" stroke-dashoffset="0" stroke-linecap="butt" stroke-linejoin="miter" stroke-miterlimit="4" stroke-opacity="1" stroke-width="1" d="m 1.500089,17.5 1.999911,0 0,3 8,-0.0013 0,-2.9987 6.997903,0 c 0.0022,-2.19e-4 0.0021,-12.9988683 0.0021,-12.9988683 L 1.50192,4.5000006 C 1.504109,8.9497658 1.5,17.5 1.5,17.5 l 8.9e-5,0 z" color="#000" display="block" opacity=".239" overflow="visible" visibility="visible" style="marker:none"/><rect id="rect14857-2" width="8" height="4" x="4.5" y="6.5" fill="#646662" fill-opacity="1" fill-rule="nonzero" stroke="#2e3436" stroke-dasharray="none" stroke-dashoffset="0" stroke-linecap="butt" stroke-linejoin="miter" stroke-miterlimit="4" stroke-opacity="1" stroke-width="1" color="#000" display="block" overflow="visible" rx=".5" ry=".5" visibility="visible" style="marker:none"/><rect id="rect14859-2" width="6" height="2" x="5.5" y="7.5" fill="none" stroke="url(#linearGradient3222)" stroke-dasharray="none" stroke-dashoffset="0" stroke-linecap="butt" stroke-linejoin="miter" stroke-miterlimit="4" stroke-opacity="1" stroke-width="1" color="#000" display="block" opacity=".25" overflow="visible" rx="0" ry="0" visibility="visible" style="marker:none"/><rect id="rect15011" width="3.5" height="2.5" x="20.25" y="8.25" fill="url(#linearGradient4304)" fill-opacity="1" fill-rule="nonzero" stroke="#787878" stroke-dasharray="none" stroke-dashoffset="0" stroke-linecap="round" stroke-linejoin="round" stroke-miterlimit="4" stroke-opacity="1" stroke-width=".5" color="#000" display="block" overflow="visible" rx="1" ry="1" visibility="visible" style="marker:none"/><path id="path15001" fill="none" stroke="#787878" stroke-dasharray="none" stroke-dashoffset="0" stroke-linecap="round" stroke-linejoin="round" stroke-miterlimit="4" stroke-opacity="1" stroke-width="3" d="m 20.5,19.5 0,-17.95 2,0" color="#000" display="block" overflow="visible" visibility="visible" style="marker:none"/><path id="path15003" fill="none" stroke="url(#linearGradient4316)" stroke-dasharray="none" stroke-dashoffset="0" stroke-linecap="round" stroke-linejoin="round" stroke-miterlimit="4" stroke-opacity="1" stroke-width="2" d="m 20.5,19.4 0,-17.9 2,0" color="#000" display="block" overflow="visible" visibility="visible" style="marker:none"/><g id="layer1" transform="matrix(0.74999999,0,0,0.74999999,9,11.000001)"><path id="path2449" fill="url(#radialGradient3260)" fill-opacity="1" stroke="url(#linearGradient3262)" stroke-dasharray="none" stroke-dashoffset="0" stroke-linecap="round" stroke-linejoin="round" stroke-miterlimit="4" stroke-opacity="1" stroke-width="1.333" d="m 8.0000009,0.66657169 c -4.0463305,0 -7.33342755,3.28709451 -7.33342755,7.33342631 0,4.046334 3.28709705,7.333431 7.33342755,7.333428 4.0463311,0 7.3334311,-3.287094 7.3334271,-7.333428 0,-4.0463318 -3.287096,-7.33342631 -7.3334271,-7.33342631 z"/><path id="path2451" fill="none" stroke="url(#linearGradient3264)" stroke-dasharray="none" stroke-miterlimit="4" stroke-opacity="1" stroke-width="1.333" d="m 14.000184,7.9997877 c 0,3.3139163 -2.686571,6.0003953 -6.0001086,6.0003953 -3.3138406,0 -6.00026,-2.686508 -6.00026,-6.0003953 0,-3.3137649 2.6864194,-5.9999733 6.00026,-5.9999733 3.3135376,0 6.0001086,2.6862084 6.0001086,5.9999733 l 0,0 z" opacity=".4"/><path font-stretch="normal" style="text-align:start;line-height:100%;-inkscape-font-specification:URW Palladio L Bold" id="path3536" fill="#fff" fill-opacity="1" stroke="none" d="M 5.6000001,7.9818968 C 5.7090026,8.2528385 5.828327,8.4711836 6.0522052,8.1567054 6.3374959,7.9657855 7.2862216,7.1413414 7.2180895,7.9134779 6.9597842,9.3477088 6.6327904,10.769795 6.3963822,12.20751 6.1215881,13.000704 6.8419199,13.678324 7.5456214,13.140909 8.3019069,12.783128 8.9429493,12.224666 9.6,11.709525 9.498722,11.480589 9.4242553,11.148805 9.1812299,11.463646 8.8526697,11.633684 8.1504224,12.400512 7.9910256,11.798433 8.2123074,10.247823 8.6755082,8.7443246 8.9490788,7.2038552 9.228154,6.4892451 8.6933454,5.6228147 7.966962,6.2343339 7.0853254,6.6733141 6.3605033,7.3609779 5.6000001,7.9818968 z M 8.7288706,2.6685682 C 7.8114567,2.6562416 7.3918215,4.1943076 8.2779344,4.574016 8.9953049,4.8427934 9.7348494,4.066394 9.5335057,3.3292734 9.4649374,2.9439563 9.1144173,2.6396518 8.7288715,2.6685682 l -9e-7,0 z" font-family="URW Palladio L" font-size="40" font-style="normal" font-variant="normal" font-weight="bold" text-anchor="start" writing-mode="lr-tb"/></g></svg>