<svg xmlns="http://www.w3.org/2000/svg" xmlns:svg="http://www.w3.org/2000/svg" xmlns:xlink="http://www.w3.org/1999/xlink" id="svg5060" width="24" height="24" version="1.0"><defs id="defs5062"><linearGradient id="linearGradient8942"><stop id="stop8944" offset="0" stop-color="#fff" stop-opacity="1"/><stop id="stop8946" offset="1" stop-color="#fff" stop-opacity="0"/></linearGradient><linearGradient id="linearGradient6951"><stop id="stop6953" offset="0" stop-color="#6e3d09" stop-opacity="1"/><stop id="stop6959" offset=".242" stop-color="#ea8113" stop-opacity="1"/><stop id="stop6961" offset=".621" stop-color="#5c3307" stop-opacity="1"/><stop id="stop6955" offset="1" stop-color="#e07c12" stop-opacity="1"/></linearGradient><linearGradient id="linearGradient6939"><stop id="stop6941" offset="0" stop-color="#bdbdbd" stop-opacity="1"/><stop id="stop6947" offset=".333" stop-color="#e2e2e2" stop-opacity="1"/><stop id="stop6949" offset=".667" stop-color="#a3a3a3" stop-opacity="1"/><stop id="stop6943" offset="1" stop-color="#ddd" stop-opacity="1"/></linearGradient><linearGradient id="linearGradient6975"><stop id="stop6977" offset="0" stop-color="#000" stop-opacity="1"/><stop id="stop6979" offset="1" stop-color="#000" stop-opacity="0"/></linearGradient><linearGradient id="linearGradient6963"><stop id="stop6965" offset="0" stop-color="#696969" stop-opacity="1"/><stop id="stop6967" offset="1" stop-color="#000" stop-opacity="1"/></linearGradient><linearGradient id="linearGradient2446"><stop id="stop2448" offset="0" stop-color="#fff" stop-opacity="1"/><stop id="stop2450" offset="1" stop-color="#fff" stop-opacity="0"/></linearGradient><linearGradient id="linearGradient6543"><stop id="stop6545" offset="0" stop-color="#d3d7cf"/><stop id="stop6547" offset="1" stop-color="#fff" stop-opacity="1"/></linearGradient><linearGradient id="linearGradient6528"><stop id="stop6530" offset="0" stop-color="#2e3436"/><stop id="stop6532" offset="1" stop-color="#000" stop-opacity="1"/></linearGradient><radialGradient id="radialGradient2452" cx="26.782" cy="42.343" r="14.407" fx="26.782" fy="42.343" gradientTransform="matrix(1,0,0,0.282209,0,30.39355)" gradientUnits="userSpaceOnUse" xlink:href="#linearGradient6975"/><radialGradient id="radialGradient2454" cx="26.782" cy="42.343" r="14.407" fx="26.782" fy="42.343" gradientTransform="matrix(1,0,0,0.282209,0,30.39355)" gradientUnits="userSpaceOnUse" xlink:href="#linearGradient6975"/><radialGradient id="radialGradient2462" cx="26.782" cy="42.343" r="14.407" fx="26.782" fy="42.343" gradientTransform="matrix(1,0,0,0.282209,0,30.39355)" gradientUnits="userSpaceOnUse" xlink:href="#linearGradient6975"/><linearGradient id="linearGradient2464" x1="28.059" x2="33.437" y1="18.868" y2="23.743" gradientTransform="matrix(0.71362,-0.119336,5.179406e-2,0.809329,14.74036,9.12562)" gradientUnits="userSpaceOnUse" xlink:href="#linearGradient6951"/><linearGradient id="linearGradient2466" x1="19.395" x2="23.109" y1="30.001" y2="33.439" gradientTransform="matrix(0.71362,-0.119336,5.179406e-2,0.809329,14.74036,9.12562)" gradientUnits="userSpaceOnUse" xlink:href="#linearGradient6939"/><radialGradient id="radialGradient2468" cx="15.415" cy="35.357" r="7.579" fx="15.415" fy="35.357" gradientTransform="matrix(0.709807,-0.118699,5.020504e-2,0.7845,14.35988,10.7997)" gradientUnits="userSpaceOnUse" xlink:href="#linearGradient6963"/><linearGradient id="linearGradient2470" x1="13.236" x2="7.752" y1="37.752" y2="42.282" gradientTransform="matrix(0.608217,-0.10171,4.414374e-2,0.689789,16.62085,13.35659)" gradientUnits="userSpaceOnUse" xlink:href="#linearGradient2446"/><linearGradient id="linearGradient2483" x1="23.85" x2="24.565" y1="10.529" y2="35.243" gradientTransform="matrix(0.5280291,0,0,0.523556,-0.3112583,-0.6153384)" gradientUnits="userSpaceOnUse" xlink:href="#linearGradient8942"/><linearGradient id="linearGradient2486" x1="23.143" x2="23.143" y1="16.714" y2="12.643" gradientTransform="matrix(0.5659241,0,0,0.5611214,-1.3135934,-1.7753147)" gradientUnits="userSpaceOnUse" xlink:href="#linearGradient6543"/><linearGradient id="linearGradient2490" x1="24.5" x2="24.723" y1="23.614" y2="36.879" gradientTransform="matrix(0.5659241,0,0,0.5611214,-1.1982088,-1.5830059)" gradientUnits="userSpaceOnUse" xlink:href="#linearGradient6528"/></defs><metadata id="metadata5065"/><g id="layer1"><path id="path2415" fill="url(#radialGradient2452)" fill-opacity="1" fill-rule="nonzero" stroke="none" stroke-dasharray="none" stroke-dashoffset="0" stroke-linecap="round" stroke-linejoin="miter" stroke-miterlimit="4" stroke-opacity="1" stroke-width="1" marker-end="none" marker-mid="none" marker-start="none" d="M 41.188971,42.343147 A 14.407301,4.0658641 0 1 1 12.374369,42.343147 A 14.407301,4.0658641 0 1 1 41.188971,42.343147 z" display="inline" opacity=".672" overflow="visible" transform="matrix(0.6541156,0,0,0.7300891,-6.606264,-13.667228)" visibility="visible" style="marker:none"/><path id="path1685" fill="url(#radialGradient2454)" fill-opacity="1" fill-rule="nonzero" stroke="none" stroke-dasharray="none" stroke-dashoffset="0" stroke-linecap="round" stroke-linejoin="miter" stroke-miterlimit="4" stroke-opacity="1" stroke-width="1" marker-end="none" marker-mid="none" marker-start="none" d="M 41.188971,42.343147 A 14.407301,4.0658641 0 1 1 12.374369,42.343147 A 14.407301,4.0658641 0 1 1 41.188971,42.343147 z" display="inline" opacity=".672" overflow="visible" transform="matrix(0.8262511,0,0,0.7300891,-10.224336,-16.140939)" visibility="visible" style="marker:none"/><path id="path5072" fill="url(#linearGradient2490)" fill-opacity="1" fill-rule="evenodd" stroke="#000" stroke-linecap="butt" stroke-linejoin="miter" stroke-opacity="1" stroke-width="1" d="M 5.9465832,15.122764 C 5.2122293,15.175408 1.4865621,14.10581 1.5000366,13.416973 C 1.503459,12.048005 9.7706936,3.2757454 10.279105,2.9995641 C 10.968726,2.3193832 13.001772,2.3477241 13.634226,2.9995641 C 14.338761,3.3524962 22.538499,13.140001 22.499864,14.204738 C 22.457702,15.122764 16.927513,17.004379 16.456602,16.958814 C 16.466708,17.49067 18.174585,18.383249 18.427231,18.794864 C 18.494602,19.399565 13.670774,20.485226 13.657299,21.210168 L 14.819464,22.346726 C 14.787463,23.307375 11.764148,23.867225 10.519452,23.224669 C 10.649143,22.612653 10.657564,22.401436 10.46387,22.069981 C 10.110168,21.417794 7.7757309,21.687448 7.7858363,21.155501 C 7.6308808,20.794871 9.57793,20.474321 9.6250902,19.712889 C 9.6553055,19.049932 3.6544056,17.423385 3.7132044,16.958814 C 3.6573265,16.545183 5.9167107,16.188234 5.9465832,15.122764 z"/><rect id="rect2363" width="10.222" height="11.386" x="3.587" y="9.833" fill="none" fill-rule="evenodd" stroke="none" stroke-width=".052" transform="matrix(0.9155719,-0.4021544,0.3124329,0.9499398,0,0)"/><path id="path5074" fill="url(#linearGradient2486)" fill-opacity="1" fill-rule="evenodd" stroke="none" stroke-linecap="butt" stroke-linejoin="miter" stroke-opacity="1" stroke-width="1" d="M 6.5317029,9.0259618 L 10.821451,4.3970173 C 11.191996,3.9203293 12.856083,3.9246002 13.327685,4.4098333 L 15.571171,7.2354795 L 15.580418,8.3451298 L 13.587575,7.4559203 L 13.587575,10.261526 L 11.953299,8.0170415 L 11.043159,9.4904889 L 10.255528,6.894799 L 9.3614702,9.0259618 L 6.5317029,9.0259618 z"/><path id="path6536" fill="none" fill-opacity="1" fill-rule="evenodd" stroke="url(#linearGradient2483)" stroke-dasharray="none" stroke-linecap="butt" stroke-linejoin="miter" stroke-miterlimit="4" stroke-opacity="1" stroke-width="1" d="M 7.5020286,14.214372 C 6.1133479,14.237106 2.9685888,13.624118 2.9291804,12.915556 C 2.8131291,12.044494 10.193217,4.2842903 10.682798,4.0623784 C 11.369497,3.4827279 12.810524,3.5388224 13.308642,4.0623784 C 13.720705,4.2893792 21.322382,13.147036 21.283996,14.105734 L 15.137967,16.447672 L 16.861624,18.068502 L 13.157819,20.120981 L 13.962192,21.336601 L 11.43596,22.09413 L 11.033772,20.473302 L 9.3673994,20.258197 L 10.869467,18.931802 C 10.918939,18.602093 6.1373796,17.22153 6.0001644,16.865376 C 5.8293306,16.59861 7.4328371,15.723986 7.5020286,14.214372 z" opacity=".4"/><path id="path6973" fill="url(#radialGradient2462)" fill-opacity="1" fill-rule="nonzero" stroke="none" stroke-dasharray="none" stroke-dashoffset="0" stroke-linecap="round" stroke-linejoin="miter" stroke-miterlimit="4" stroke-opacity="1" stroke-width="1" marker-end="none" marker-mid="none" marker-start="none" d="M 41.188971,42.343147 A 14.407301,4.0658641 0 1 1 12.374369,42.343147 A 14.407301,4.0658641 0 1 1 41.188971,42.343147 z" display="inline" opacity=".3" overflow="visible" transform="matrix(0.6638343,0,0,0.4947402,-3.4524881,-0.152584)" visibility="visible" style="marker:none"/><g id="g8923" transform="matrix(0.4960021,0,0,0.4947402,-4.335e-3,1.465328)"><path id="path6937" fill="url(#linearGradient2464)" fill-opacity="1" fill-rule="nonzero" stroke="#673907" stroke-dasharray="none" stroke-dashoffset="0" stroke-linecap="round" stroke-linejoin="miter" stroke-miterlimit="4" stroke-opacity="1" stroke-width="2.019" marker-end="none" marker-mid="none" marker-start="none" d="M 32.815491,26.053448 L 35.913824,28.644257 C 40.677173,22.070645 47.362292,7.1165887 47.362292,7.1165887 C 47.605366,6.0743564 46.483038,5.6310026 45.984075,6.3896101 C 45.984075,6.3896101 36.94471,19.432505 32.815491,26.053448 z" display="inline" opacity="1" overflow="visible" visibility="visible" style="marker:none"/><path id="path6935" fill="url(#linearGradient2466)" fill-opacity="1" fill-rule="nonzero" stroke="#888a85" stroke-dasharray="none" stroke-dashoffset="0" stroke-linecap="round" stroke-linejoin="miter" stroke-miterlimit="4" stroke-opacity="1" stroke-width="2.019" marker-end="none" marker-mid="none" marker-start="none" d="M 27.920688,35.2377 L 29.623867,36.53473 L 35.302905,29.558887 L 35.462637,28.954815 L 36.242704,28.809797 C 35.849566,27.597429 33.916544,25.613168 32.578507,25.836923 L 32.693496,26.709365 L 32.23506,27.096886 L 27.920688,35.2377 z" display="inline" opacity="1" overflow="visible" visibility="visible" style="marker:none"/><path id="path6933" fill="url(#radialGradient2468)" fill-opacity="1" fill-rule="nonzero" stroke="none" stroke-dasharray="none" stroke-dashoffset="0" stroke-linecap="round" stroke-linejoin="miter" stroke-miterlimit="4" stroke-opacity="1" stroke-width=".2" marker-end="none" marker-mid="none" marker-start="none" d="M 20.985414,42.86777 C 25.699097,42.079518 29.317126,42.11792 29.745471,38.115298 C 30.090659,34.889736 26.194436,34.023384 24.490399,37.136386 C 22.848876,40.13519 20.985414,42.86777 20.985414,42.86777 z" display="inline" opacity="1" overflow="visible" visibility="visible" style="marker:none"/><path id="path6971" fill="#fff" fill-opacity="1" fill-rule="nonzero" stroke="none" stroke-dasharray="none" stroke-dashoffset="0" stroke-linecap="round" stroke-linejoin="miter" stroke-miterlimit="4" stroke-opacity="1" stroke-width="1" marker-end="none" marker-mid="none" marker-start="none" d="M 8.8749989,37.75 A 1.2499999,1.2499999 0 1 1 6.3749992,37.75 A 1.2499999,1.2499999 0 1 1 8.8749989,37.75 z" display="inline" opacity=".528" overflow="visible" transform="matrix(0.608217,-0.10171,4.414374e-2,0.689789,20.41956,11.75746)" visibility="visible" style="marker:none"/><path id="path6983" fill="#fff" fill-opacity="1" fill-rule="nonzero" stroke="none" stroke-dasharray="none" stroke-dashoffset="0" stroke-linecap="round" stroke-linejoin="miter" stroke-miterlimit="4" stroke-opacity="1" stroke-width="1" marker-end="none" marker-mid="none" marker-start="none" d="M 8.8749989,37.75 A 1.2499999,1.2499999 0 1 1 6.3749992,37.75 A 1.2499999,1.2499999 0 1 1 8.8749989,37.75 z" display="inline" opacity="1" overflow="visible" transform="matrix(0.562239,-9.402052e-2,4.080659e-2,0.637644,27.55723,4.593379)" visibility="visible" style="marker:none"/><path id="path6985" fill="none" fill-opacity="1" fill-rule="nonzero" stroke="#fff" stroke-dasharray="none" stroke-dashoffset="0" stroke-linecap="round" stroke-linejoin="round" stroke-miterlimit="4" stroke-opacity="1" stroke-width="2.019" marker-end="none" marker-mid="none" marker-start="none" d="M 32.506055,29.222896 L 29.039682,34.827469" display="inline" opacity="1" overflow="visible" visibility="visible" style="marker:none"/><path id="path1571" fill="url(#linearGradient2470)" fill-opacity="1" fill-rule="nonzero" stroke="none" stroke-dasharray="none" stroke-dashoffset="0" stroke-linecap="round" stroke-linejoin="miter" stroke-miterlimit="4" stroke-opacity="1" stroke-width="1" marker-end="none" marker-mid="none" marker-start="none" d="M 21.888602,42.180999 C 21.888602,42.180999 24.187849,40.453512 25.077204,38.304796 C 25.391855,37.544587 26.244092,38.005912 25.787238,38.786873 C 24.800446,40.473727 21.888602,42.180999 21.888602,42.180999 z" display="inline" opacity=".428" overflow="visible" visibility="visible" style="marker:none"/></g><path id="path8968" fill="#dde0da" fill-opacity="1" fill-rule="evenodd" stroke="none" stroke-linecap="butt" stroke-linejoin="miter" stroke-opacity="1" stroke-width="1" d="M 11.792056,15.823774 L 8.4224987,15.250628 L 8.4398227,15.819766 L 11.9191,16.493112 L 11.792056,15.823774 z"/></g></svg>