<svg xmlns="http://www.w3.org/2000/svg" xmlns:svg="http://www.w3.org/2000/svg" xmlns:xlink="http://www.w3.org/1999/xlink" id="svg2" width="24" height="24" version="1.0"><metadata id="metadata53"/><defs id="defs4"><linearGradient id="linearGradient3308-4-6-931-761-6"><stop id="stop2919-1" offset="0" stop-color="#fff" stop-opacity="1"/><stop id="stop2921-0" offset="1" stop-color="#fff" stop-opacity="0"/></linearGradient><radialGradient id="radialGradient2889" cx="4.993" cy="43.5" r="2.5" fx="4.993" fy="43.5" gradientTransform="matrix(2.003784,0,0,1.4,27.98813,-17.4)" gradientUnits="userSpaceOnUse" xlink:href="#linearGradient3688-166-749"/><linearGradient id="linearGradient3688-166-749"><stop id="stop2883" offset="0" stop-color="#181818" stop-opacity="1"/><stop id="stop2885" offset="1" stop-color="#181818" stop-opacity="0"/></linearGradient><radialGradient id="radialGradient2891" cx="4.993" cy="43.5" r="2.5" fx="4.993" fy="43.5" gradientTransform="matrix(2.003784,0,0,1.4,-20.01187,-104.4)" gradientUnits="userSpaceOnUse" xlink:href="#linearGradient3688-464-309"/><linearGradient id="linearGradient3688-464-309"><stop id="stop2889" offset="0" stop-color="#181818" stop-opacity="1"/><stop id="stop2891" offset="1" stop-color="#181818" stop-opacity="0"/></linearGradient><linearGradient id="linearGradient2893" x1="25.058" x2="25.058" y1="47.028" y2="39.999" gradientUnits="userSpaceOnUse" xlink:href="#linearGradient3702-501-757"/><linearGradient id="linearGradient3702-501-757"><stop id="stop2895" offset="0" stop-color="#181818" stop-opacity="0"/><stop id="stop2897" offset=".5" stop-color="#181818" stop-opacity="1"/><stop id="stop2899" offset="1" stop-color="#181818" stop-opacity="0"/></linearGradient><linearGradient id="linearGradient3707"><stop id="stop3709" offset="0" stop-color="#4c2a4e" stop-opacity="1"/><stop id="stop3711" offset="1" stop-color="#a85394" stop-opacity="1"/></linearGradient><linearGradient id="linearGradient3824"><stop id="stop3826" offset="0" stop-color="#fff" stop-opacity="1"/><stop id="stop3828" offset="1" stop-color="#fff" stop-opacity="0"/></linearGradient><linearGradient id="linearGradient3924"><stop id="stop3926" offset="0" stop-color="#fff" stop-opacity="1"/><stop id="stop3928" offset="1" stop-color="#fff" stop-opacity="0"/></linearGradient><linearGradient id="linearGradient7209"><stop id="stop7211" offset="0" stop-color="#e384c6" stop-opacity="1"/><stop id="stop7213" offset=".262" stop-color="#c467be" stop-opacity="1"/><stop id="stop7215" offset=".705" stop-color="#93399a" stop-opacity="1"/><stop id="stop7217" offset="1" stop-color="#48274f" stop-opacity="1"/></linearGradient><linearGradient id="linearGradient3036" x1="24" x2="24" y1="5" y2="43" gradientTransform="matrix(0.51351371,0,0,0.51351372,-0.32432424,-0.3243287)" gradientUnits="userSpaceOnUse" xlink:href="#linearGradient3308-4-6-931-761-6"/><radialGradient id="radialGradient3044" cx="12.011" cy="13.195" r="20" fx="12.011" fy="13.195" gradientTransform="matrix(3.0337968e-8,0.90467628,-1.3049793,0,23.02683,-4.635622)" gradientUnits="userSpaceOnUse" xlink:href="#linearGradient7209"/><linearGradient id="linearGradient3046" x1="24" x2="24" y1="44" y2="3.899" gradientTransform="matrix(0.53846153,0,0,0.53847115,-0.92307804,-0.9233082)" gradientUnits="userSpaceOnUse" xlink:href="#linearGradient3707"/><linearGradient id="linearGradient4028" x1="17" x2="17" y1="25" y2="6" gradientTransform="matrix(0.52216996,0,0,0.52217053,-0.41803103,-1.0542641)" gradientUnits="userSpaceOnUse" spreadMethod="reflect" xlink:href="#linearGradient3924"/><radialGradient id="radialGradient4031" cx="24" cy="9.489" r="18.5" fx="24" fy="9.489" gradientTransform="matrix(0,0.70783234,-2.1158858,0,38.313977,-8.4310394)" gradientUnits="userSpaceOnUse" xlink:href="#linearGradient3824"/></defs><g id="g2036" display="inline" transform="matrix(0.59999976,0,0,0.33333364,-2.4000002,8.3333283)"><g id="g3712" opacity=".4" transform="matrix(1.052632,0,0,1.285713,-1.263158,-13.42854)"><rect id="rect2801" width="5" height="7" x="38" y="40" fill="url(#radialGradient2889)" fill-opacity="1" stroke="none"/><rect id="rect3696" width="5" height="7" x="-10" y="-47" fill="url(#radialGradient2891)" fill-opacity="1" stroke="none" transform="scale(-1,-1)"/><rect id="rect3700" width="28" height="7" x="10" y="40" fill="url(#linearGradient2893)" fill-opacity="1" stroke="none"/></g></g><rect id="rect5505-3" width="21" height="21" x="1.5" y="1.5" fill="url(#radialGradient3044)" fill-opacity="1" stroke="url(#linearGradient3046)" stroke-dasharray="none" stroke-dashoffset="0" stroke-linecap="round" stroke-linejoin="round" stroke-miterlimit="4" stroke-opacity="1" stroke-width="1" rx="2.232" ry="2.232"/><rect id="rect6741" width="19" height="19" x="2.5" y="2.5" fill="none" stroke="url(#linearGradient3036)" stroke-dasharray="none" stroke-dashoffset="0" stroke-linecap="round" stroke-linejoin="round" stroke-miterlimit="4" stroke-opacity="1" stroke-width="1" opacity=".4" rx="1.365" ry="1.365"/><path id="path3701" fill="none" stroke="#fff" stroke-linecap="butt" stroke-linejoin="miter" stroke-opacity="1" stroke-width="1" d="m 2.34221,13.072731 c 2.080179,-5.2895779 4.09598,2.360785 5.48805,1.040785 1.199491,-1.137392 1.358502,-4.4105268 2.634264,-5.6202389 1.143249,-1.0840623 1.93909,3.5039569 2.19522,3.7468259 1.570911,1.489583 1.724987,-2.4233798 2.414741,-1.769335 1.138493,1.079552 -0.133672,3.932311 1.09761,5.099848 0.987902,0.936757 2.00044,-8.2711933 5.48805,-2.601964" opacity=".8"/><path id="path3782" fill="url(#radialGradient4031)" fill-opacity="1" stroke="none" d="M 10.839079,8.5569412 C 10.158835,8.9378105 9.930904,9.7926952 9.647879,10.482441 9.150188,11.76862 8.967699,13.264286 7.983462,14.300813 7.353326,14.87025 6.628796,14.156277 6.253775,13.6481 5.594306,12.906511 5.112735,11.902316 4.181414,11.46151 3.3037,11.301575 2.938055,12.371822 2.631221,13.011705 c -0.03899,0.197407 -0.50429,0.220524 -0.640846,0.195813 l 0,7.718334 c 0,0.394926 0.670183,1.02654 1.065109,1.02654 l 17.884321,0 c 0.394926,0 1.02654,-0.631614 1.02654,-1.02654 l 0,-7.489884 c -0.50299,-0.76057 -1.59734,-1.919096 -2.299329,-2.088682 -0.97144,-0.0046 -1.374572,1.089303 -1.762324,1.811279 -0.433913,0.839161 -0.651744,1.81099 -1.240153,2.5619 -0.865436,0.535614 -1.29214,-0.938596 -1.305425,-1.599148 -0.119846,-1.086461 0.223862,-2.26822 -0.293721,-3.279884 -0.418044,-0.353215 -0.487148,0.905439 -0.783255,1.20752 -0.271096,0.946713 -1.687054,0.999007 -1.958137,0.04896 -0.387019,-1.141175 -0.557646,-2.4046198 -1.289107,-3.3941088 l -0.114225,-0.097907 -0.08159,-0.048956 z" opacity=".4"/><path id="path3834-9-0" fill="none" stroke="url(#linearGradient4028)" stroke-dasharray="none" stroke-dashoffset="0" stroke-linecap="square" stroke-linejoin="miter" stroke-miterlimit="4" stroke-opacity="1" stroke-width="1" d="m 8.5,2.3398444 0,19.3203096 0,-19.3203096 z m 7,0 0,19.3203096 0,-19.3203096 z" color="#000" display="inline" enable-background="accumulate" opacity=".3" overflow="visible" visibility="visible" style="marker:none"/><path id="path4284" fill="none" stroke="#fff" stroke-linecap="round" stroke-linejoin="miter" stroke-opacity="1" stroke-width="1" d="m 4,19.5 3,0 -3,0 z m 6,0 4,0 -4,0 z m 7,0 3,0 -3,0 z" opacity=".2"/></svg>