<svg xmlns="http://www.w3.org/2000/svg" xmlns:svg="http://www.w3.org/2000/svg" xmlns:xlink="http://www.w3.org/1999/xlink" id="svg11300" width="24" height="24" version="1.1"><defs id="defs3"><linearGradient id="linearGradient10591"><stop id="stop10593" offset="0" stop-color="#dcdcdc" stop-opacity="1"/><stop id="stop10599" offset=".5" stop-color="#fafafa" stop-opacity="1"/><stop id="stop10595" offset="1" stop-color="#c8c8c8" stop-opacity="1"/></linearGradient><linearGradient id="linearGradient7622-6"><stop id="stop7624-1" offset="0" stop-color="#fff" stop-opacity="1"/><stop id="stop7626-5" offset="1" stop-color="#fff" stop-opacity="0"/></linearGradient><linearGradient id="linearGradient14861-7"><stop id="stop14863-5" offset="0" stop-color="#fff" stop-opacity="1"/><stop id="stop14865-8" offset="1" stop-color="#fff" stop-opacity="0"/></linearGradient><linearGradient id="linearGradient14780-7-6"><stop id="stop14782-0-3" offset="0" stop-color="#d3ba00" stop-opacity="1"/><stop id="stop14784-4-7" offset="1" stop-color="#d3ba00" stop-opacity="0"/></linearGradient><linearGradient id="linearGradient14981-4-9"><stop id="stop14983-1-0" offset="0" stop-color="#6d9335" stop-opacity="1"/><stop id="stop14985-7-7" offset="1" stop-color="#364d17" stop-opacity="1"/></linearGradient><linearGradient id="linearGradient14993"><stop id="stop14995" offset="0" stop-color="#000" stop-opacity="1"/><stop id="stop14997" offset="1" stop-color="#000" stop-opacity="0"/></linearGradient><linearGradient id="linearGradient3222" x1="16.965" x2="18.968" y1="20.166" y2="31.347" gradientTransform="matrix(0.39731096,0,0,0.39082257,2.143028,-0.1067287)" gradientUnits="userSpaceOnUse" xlink:href="#linearGradient14861-7"/><radialGradient id="radialGradient3226" cx="10" cy="16.655" r="16" fx="10" fy="16.655" gradientTransform="matrix(1.4043815,0.04555468,-0.03427223,1.0005357,-11.151028,-10.219333)" gradientUnits="userSpaceOnUse" xlink:href="#linearGradient7622-6"/><linearGradient id="linearGradient3240" x1="6.221" x2="6.238" y1="42.891" y2="39.267" gradientTransform="matrix(0.9999997,0,0,0.56326439,4.000001,-4.3017486)" gradientUnits="userSpaceOnUse" xlink:href="#linearGradient14780-7-6"/><linearGradient id="linearGradient3243" x1="6.221" x2="6.238" y1="42.891" y2="39.267" gradientTransform="matrix(0.99999854,0,0,0.56326439,2.00001,-4.3017486)" gradientUnits="userSpaceOnUse" xlink:href="#linearGradient14780-7-6"/><linearGradient id="linearGradient3246" x1="6.221" x2="6.238" y1="42.891" y2="39.267" gradientTransform="matrix(1.0000004,0,0,0.56326439,-2e-6,-4.3017493)" gradientUnits="userSpaceOnUse" xlink:href="#linearGradient14780-7-6"/><linearGradient id="linearGradient3249" x1="6.221" x2="6.238" y1="42.891" y2="39.267" gradientTransform="matrix(1,0,0,0.56326439,-2,-4.3017493)" gradientUnits="userSpaceOnUse" xlink:href="#linearGradient14780-7-6"/><radialGradient id="radialGradient3259" cx="21.5" cy="44.75" r="17" fx="21.5" fy="44.75" gradientTransform="matrix(0.64705885,0,0,0.17647041,-2.911765,13.103433)" gradientUnits="userSpaceOnUse" xlink:href="#linearGradient14993"/><radialGradient id="radialGradient3262" cx="15" cy="19.77" r="17.001" fx="15" fy="19.77" gradientTransform="matrix(2.2011105,0,0,0.9928155,-28.19895,-11.347918)" gradientUnits="userSpaceOnUse" xlink:href="#linearGradient14981-4-9"/><linearGradient id="linearGradient12071"><stop id="stop12073" offset="0" stop-color="#fff" stop-opacity="1"/><stop id="stop12075" offset="1" stop-color="#fff" stop-opacity="0"/></linearGradient><linearGradient id="linearGradient5881"><stop id="stop5883" offset="0" stop-color="#d6c8a7" stop-opacity="1"/><stop id="stop5885" offset="1" stop-color="#d0bd99" stop-opacity="1"/></linearGradient><linearGradient id="linearGradient2411-1"><stop id="stop2413-5" offset="0" stop-color="#fee7b1" stop-opacity="1"/><stop id="stop2419-3" offset=".258" stop-color="#ebd4b4" stop-opacity="1"/><stop id="stop2421-5" offset=".508" stop-color="#c8a775" stop-opacity="1"/><stop id="stop2423-1" offset=".74" stop-color="#b0935b" stop-opacity="1"/><stop id="stop2415-1" offset="1" stop-color="#fcebbf" stop-opacity="1"/></linearGradient><linearGradient id="linearGradient4275" x1="3.15" x2="46.798" y1="14.443" y2="14.443" gradientTransform="matrix(0.25316645,0,0,0.30433767,9.4062564,9.6045806)" gradientUnits="userSpaceOnUse" xlink:href="#linearGradient10591"/><linearGradient id="linearGradient4281" x1="24.875" x2="24.75" y1="21" y2="17" gradientTransform="matrix(0.20588235,0,0,0.40374204,10.558823,9.4056474)" gradientUnits="userSpaceOnUse" xlink:href="#linearGradient5881"/><linearGradient id="linearGradient4287" x1="6.727" x2="40.938" y1="32.162" y2="32.162" gradientTransform="matrix(0.22861209,0,0,0.26448676,10.014021,10.24731)" gradientUnits="userSpaceOnUse" xlink:href="#linearGradient2411-1"/><linearGradient id="linearGradient4297" x1="21.942" x2="21.942" y1="21.551" y2="18.038" gradientTransform="matrix(0.18181819,0,0,0.2515933,11.136364,12.097116)" gradientUnits="userSpaceOnUse" xlink:href="#linearGradient12071"/><linearGradient id="linearGradient4304" x1="42.366" x2="42.401" y1="15.05" y2="20.018" gradientTransform="matrix(0.73900817,0,0,0.62997639,-8.456032,-1.5460199)" gradientUnits="userSpaceOnUse" xlink:href="#linearGradient10591"/><linearGradient id="linearGradient4308" x1="42.366" x2="42.401" y1="15.05" y2="20.018" gradientTransform="matrix(0.73900817,0,0,0.62997639,-8.456032,2.4539802)" gradientUnits="userSpaceOnUse" xlink:href="#linearGradient10591"/><linearGradient id="linearGradient4316" x1="20" x2="23" y1="11.25" y2="11.25" gradientTransform="translate(0,-1)" gradientUnits="userSpaceOnUse" xlink:href="#linearGradient10591"/></defs><path d="M 22,21.000488 A 11,3 0 0 1 1.05e-7,21.000488 11,3 0 1 1 22,21.000488 z" style="marker:none" id="path14991" fill="url(#radialGradient3259)" fill-opacity="1" fill-rule="nonzero" stroke="none" stroke-width="1" color="#000" display="block" opacity=".4" overflow="visible" visibility="visible"/><rect id="rect4306" width="3.5" height="2.5" x="20.25" y="12.25" fill="url(#linearGradient4308)" fill-opacity="1" fill-rule="nonzero" stroke="#787878" stroke-dasharray="none" stroke-dashoffset="0" stroke-linecap="round" stroke-linejoin="round" stroke-miterlimit="4" stroke-opacity="1" stroke-width=".5" color="#000" display="block" overflow="visible" rx="1" ry="1" visibility="visible" style="marker:none"/><path id="rect14772-0" fill="url(#radialGradient3262)" fill-opacity="1" fill-rule="nonzero" stroke="#2d410f" stroke-dasharray="none" stroke-dashoffset="0" stroke-linecap="butt" stroke-linejoin="round" stroke-miterlimit="4" stroke-opacity="1" stroke-width="1" d="m 0.502669,18.5 1.997331,0 0,3 10,0 0,-3 6.999951,0 0,-15.0000563 L 0.5,3.499942 0.50273,18.5 l -6.1e-5,0 z" color="#000" display="block" overflow="visible" visibility="visible" style="marker:none"/><path id="path14957-6" fill="none" stroke="#305526" stroke-dasharray="none" stroke-dashoffset="0" stroke-linecap="butt" stroke-linejoin="miter" stroke-miterlimit="4" stroke-opacity="1" stroke-width=".5" d="m 12.874,13.275 -7.632,0 0,2.020419" color="#000" display="block" overflow="visible" visibility="visible" style="marker:none"/><path id="path14826-5" fill="none" stroke="#305526" stroke-dasharray="none" stroke-dashoffset="0" stroke-linecap="butt" stroke-linejoin="miter" stroke-miterlimit="4" stroke-opacity="1" stroke-width=".5" d="m 4.25,19.95 0.03097,-3.24193 1.07338,-1.49541 11.93565,0 0,-4.81266 -2.623305,-1.641 2.038425,0 0,-1.9664324 -4.10512,0" color="#000" display="block" overflow="visible" visibility="visible" style="marker:none"/><path id="path14830" fill="none" stroke="#305526" stroke-dasharray="none" stroke-dashoffset="0" stroke-linecap="butt" stroke-linejoin="miter" stroke-miterlimit="4" stroke-opacity="1" stroke-width=".5" d="m 8.25,20.078451 0.03097,-3.24193 1.073379,-1.49541" color="#000" display="block" overflow="visible" visibility="visible" style="marker:none"/><path id="path14838" fill="none" stroke="#305526" stroke-dasharray="none" stroke-dashoffset="0" stroke-linecap="butt" stroke-linejoin="miter" stroke-miterlimit="4" stroke-opacity="1" stroke-width=".5" d="m 6.25,20.078451 0.03097,-3.24193 1.07338,-1.49541" color="#000" display="block" overflow="visible" visibility="visible" style="marker:none"/><path id="path14840" fill="none" stroke="#305526" stroke-dasharray="none" stroke-dashoffset="0" stroke-linecap="butt" stroke-linejoin="miter" stroke-miterlimit="4" stroke-opacity="1" stroke-width=".5" d="m 10.25,20.078451 0.03096,-3.24193 1.073379,-1.49541" color="#000" display="block" overflow="visible" visibility="visible" style="marker:none"/><path d="M 4.5,18 C 4.902984,18 5,18.354433 5,18.510457 L 5,21 c 0,0 -1,0 -1,0 L 4,18.510457 C 4,18.354433 4.10489,18 4.5,18 z" style="marker:none" id="path14788" fill="url(#linearGradient3249)" fill-opacity="1" fill-rule="nonzero" stroke="none" stroke-width="1" color="#000" display="block" overflow="visible" visibility="visible"/><path d="M 6.499999,18 C 6.902984,18 7,18.354433 7,18.510457 L 7,21 c 0,0 -1,0 -1,0 L 6,18.510457 C 6,18.354433 6.104889,18 6.499999,18 z" style="marker:none" id="path14792" fill="url(#linearGradient3246)" fill-opacity="1" fill-rule="nonzero" stroke="none" stroke-width="1" color="#000" display="block" overflow="visible" visibility="visible"/><path d="M 8.499999,18 C 8.902984,18 9,18.354434 9,18.510459 L 9,21 c 0,0 -1,0 -1,0 L 8,18.510459 C 8,18.354434 8.104893,18 8.499999,18 z" style="marker:none" id="path14796-8" fill="url(#linearGradient3243)" fill-opacity="1" fill-rule="nonzero" stroke="none" stroke-width="1" color="#000" display="block" overflow="visible" visibility="visible"/><path d="M 10.499999,18 C 10.902984,18 11,18.354434 11,18.510459 L 11,21 c 0,0 -1,0 -1,0 l 0,-2.489541 C 10,18.354434 10.104893,18 10.499999,18 z" style="marker:none" id="path14800" fill="url(#linearGradient3240)" fill-opacity="1" fill-rule="nonzero" stroke="none" stroke-width="1" color="#000" display="block" overflow="visible" visibility="visible"/><path id="path15029-1" fill="none" stroke="#305526" stroke-dasharray="none" stroke-dashoffset="0" stroke-linecap="butt" stroke-linejoin="miter" stroke-miterlimit="4" stroke-opacity="1" stroke-width=".5" d="M 4.382777,7.0925382 2.8,7.6884103 2.8,14.201 l 2.5,0" color="#000" display="block" overflow="visible" visibility="visible" style="marker:none"/><path id="path14959-2" fill="none" stroke="#305526" stroke-dasharray="none" stroke-dashoffset="0" stroke-linecap="butt" stroke-linejoin="miter" stroke-miterlimit="4" stroke-opacity="1" stroke-width=".5" d="m 4.99307,10.73511 0.598904,2.35444 1.09799,0 -0.598903,-2.35444" color="#000" display="block" overflow="visible" visibility="visible" style="marker:none"/><path id="path14961-2" fill="none" stroke="#305526" stroke-dasharray="none" stroke-dashoffset="0" stroke-linecap="butt" stroke-linejoin="miter" stroke-miterlimit="4" stroke-opacity="1" stroke-width=".5" d="m 7.251678,10.791681 0.598903,2.297869 1.097991,0 -0.598904,-2.297869" color="#000" display="block" overflow="visible" visibility="visible" style="marker:none"/><path id="path14963-6" fill="none" stroke="#305526" stroke-dasharray="none" stroke-dashoffset="0" stroke-linecap="butt" stroke-linejoin="miter" stroke-miterlimit="4" stroke-opacity="1" stroke-width=".5" d="m 9.510285,10.705967 0.598903,2.383583 1.097992,0 -0.598905,-2.383583" color="#000" display="block" overflow="visible" visibility="visible" style="marker:none"/><path id="path14965-9" fill="none" stroke="#305526" stroke-dasharray="none" stroke-dashoffset="0" stroke-linecap="butt" stroke-linejoin="miter" stroke-miterlimit="4" stroke-opacity="1" stroke-width=".5" d="m 11.768891,10.681966 0.598904,2.407584" color="#000" display="block" overflow="visible" visibility="visible" style="marker:none"/><path id="path14989-1" fill="none" stroke="url(#radialGradient3226)" stroke-dasharray="none" stroke-dashoffset="0" stroke-linecap="butt" stroke-linejoin="miter" stroke-miterlimit="4" stroke-opacity="1" stroke-width="1" d="m 1.500089,17.5 1.999911,0 0,3 8,-0.0013 0,-2.9987 6.997903,0 c 0.0022,-2.19e-4 0.0021,-12.9988683 0.0021,-12.9988683 L 1.50192,4.5000006 C 1.504109,8.9497658 1.5,17.5 1.5,17.5 l 8.9e-5,0 z" color="#000" display="block" opacity=".239" overflow="visible" visibility="visible" style="marker:none"/><rect id="rect14857-2" width="8" height="4" x="4.5" y="6.5" fill="#646662" fill-opacity="1" fill-rule="nonzero" stroke="#2e3436" stroke-dasharray="none" stroke-dashoffset="0" stroke-linecap="butt" stroke-linejoin="miter" stroke-miterlimit="4" stroke-opacity="1" stroke-width="1" color="#000" display="block" overflow="visible" rx=".5" ry=".5" visibility="visible" style="marker:none"/><rect id="rect14859-2" width="6" height="2" x="5.5" y="7.5" fill="none" stroke="url(#linearGradient3222)" stroke-dasharray="none" stroke-dashoffset="0" stroke-linecap="butt" stroke-linejoin="miter" stroke-miterlimit="4" stroke-opacity="1" stroke-width="1" color="#000" display="block" opacity=".25" overflow="visible" rx="0" ry="0" visibility="visible" style="marker:none"/><rect id="rect15011" width="3.5" height="2.5" x="20.25" y="8.25" fill="url(#linearGradient4304)" fill-opacity="1" fill-rule="nonzero" stroke="#787878" stroke-dasharray="none" stroke-dashoffset="0" stroke-linecap="round" stroke-linejoin="round" stroke-miterlimit="4" stroke-opacity="1" stroke-width=".5" color="#000" display="block" overflow="visible" rx="1" ry="1" visibility="visible" style="marker:none"/><path id="path15001" fill="none" stroke="#787878" stroke-dasharray="none" stroke-dashoffset="0" stroke-linecap="round" stroke-linejoin="round" stroke-miterlimit="4" stroke-opacity="1" stroke-width="3" d="m 20.5,19.5 0,-17.95 2,0" color="#000" display="block" overflow="visible" visibility="visible" style="marker:none"/><path id="path15003" fill="none" stroke="url(#linearGradient4316)" stroke-dasharray="none" stroke-dashoffset="0" stroke-linecap="round" stroke-linejoin="round" stroke-miterlimit="4" stroke-opacity="1" stroke-width="2" d="m 20.5,19.4 0,-17.9 2,0" color="#000" display="block" overflow="visible" visibility="visible" style="marker:none"/><path id="rect1314" fill="url(#linearGradient4287)" fill-opacity="1" fill-rule="evenodd" stroke="#876c41" stroke-dashoffset="0" stroke-linecap="round" stroke-linejoin="round" stroke-miterlimit="4" stroke-opacity="1" stroke-width="1" d="m 12.010942,15.734154 c 2.304811,-0.337884 4.634144,-0.285428 6.978115,0 0.283064,0 0.510944,0.244288 0.510944,0.547734 l 0,5.459026 c 0,0.303444 -0.242588,0.503841 -0.510944,0.547732 -2.430148,0.28292 -4.513836,0.280688 -6.978115,0 C 11.683759,22.186233 11.5,22.044358 11.5,21.740914 l 0,-5.459026 c 0,-0.303446 0.227881,-0.547734 0.510942,-0.547734 z"/><path id="rect1460" fill="url(#linearGradient4281)" fill-opacity="1" fill-rule="evenodd" stroke="none" stroke-width="2" d="m 12.341,16.269261 c 2.105998,-0.393178 4.211999,-0.323147 6.317998,0 0.188914,0 0.341002,0.193001 0.341002,0.432737 l 0,0.749493 c 0,0.239737 -0.152088,0.432738 -0.341002,0.432738 -2.197734,0.185748 -4.219844,0.119457 -6.317998,0 -0.188914,0 -0.341,-0.193001 -0.341,-0.432738 l 0,-0.749493 c 0,-0.239736 0.152086,-0.432737 0.341,-0.432737 z" display="inline" overflow="visible" visibility="visible" style="marker:none"/><path id="rect1593" fill="none" stroke="url(#linearGradient4297)" stroke-dashoffset="0" stroke-linecap="round" stroke-linejoin="round" stroke-miterlimit="4" stroke-opacity="1" stroke-width="1" d="m 12.718218,16.499999 5.563564,0 c 0.120893,0 0.218218,0.1293 0.218218,0.2899 l 0,0.174986 c 0,0.160601 -0.09733,0.289897 -0.218218,0.289897 -1.837215,0.317179 -3.695183,0.336589 -5.563564,0 -0.120894,0 -0.218218,-0.1293 -0.218218,-0.289897 l 0,-0.174986 c 0,-0.160603 0.09732,-0.2899 0.218218,-0.2899 z" display="inline" opacity=".6" overflow="visible" visibility="visible" style="marker:none"/><path id="path2086" fill="url(#linearGradient4275)" fill-opacity="1" fill-rule="evenodd" stroke="#969696" stroke-dasharray="none" stroke-linecap="butt" stroke-linejoin="miter" stroke-miterlimit="4" stroke-opacity="1" stroke-width=".2" d="m 12.1,16.349044 0,-1.745328 c 0,-2.145179 1.330999,-3.470555 3.387324,-3.503142 C 17.554793,11.06781 18.9,12.39911 18.9,14.603716 l 0,1.821416 c 0,0.594744 -1.8,0.67044 -1.8,0 l 0,-1.212741 C 17.15008,13.999997 17.003322,12.893882 15.502266,12.9 13.96875,12.90625 13.891725,13.999997 13.9,15.209967 l 0,1.149328 c 0,0.7166 -1.8,0.713554 -1.8,-0.01023 l 0,-4.2e-5 0,2.1e-5 z"/></svg>