<svg xmlns="http://www.w3.org/2000/svg" xmlns:svg="http://www.w3.org/2000/svg" xmlns:xlink="http://www.w3.org/1999/xlink" id="svg11300" width="24" height="24" display="inline" enable-background="new" version="1.0"><title id="title8836">Optical Drive</title><defs id="defs3"><linearGradient id="linearGradient11114"><stop id="stop11116" offset="0" stop-color="#242424" stop-opacity=".992"/><stop id="stop11118" offset="1" stop-color="#656565" stop-opacity="1"/></linearGradient><linearGradient id="linearGradient4454"><stop id="stop4456" offset="0" stop-color="#a1a1a1" stop-opacity=".208"/><stop id="stop4458" offset="1" stop-color="#a1a1a1" stop-opacity=".678"/></linearGradient><linearGradient id="linearGradient4467"><stop id="stop4469" offset="0" stop-color="#fff" stop-opacity="1"/><stop id="stop4471" offset="1" stop-color="#fff" stop-opacity=".248"/></linearGradient><linearGradient id="linearGradient11104"><stop id="stop11106" offset="0" stop-color="#333" stop-opacity="1"/><stop id="stop11108" offset="1" stop-color="#333" stop-opacity=".612"/></linearGradient><linearGradient id="linearGradient2300"><stop id="stop2302" offset="0" stop-color="#343435" stop-opacity=".976"/><stop id="stop2304" offset="1" stop-color="#919295" stop-opacity="1"/></linearGradient><linearGradient id="linearGradient3384" x1="-172.653" x2="-166.64" y1="99.667" y2="93.654" gradientTransform="matrix(0.1365758,0,0,0.1412118,20.891763,-0.9386213)" gradientUnits="userSpaceOnUse" xlink:href="#linearGradient11114"/><radialGradient id="radialGradient3386" cx="18.241" cy="21.818" r="8.309" fx="18.241" fy="21.818" gradientUnits="userSpaceOnUse" xlink:href="#linearGradient4454"/><radialGradient id="radialGradient3388" cx="15.414" cy="13.078" r="6.656" fx="15.414" fy="13.078" gradientTransform="matrix(1.03877,0,0,0.8346314,-25.31308,-6.7607686)" gradientUnits="userSpaceOnUse" xlink:href="#linearGradient4467"/><linearGradient id="linearGradient3390" x1="173.096" x2="173.096" y1="75.319" y2="11.949" gradientTransform="matrix(0.1365758,0,0,0.1412118,-31.68,0.6615336)" gradientUnits="userSpaceOnUse" xlink:href="#linearGradient2300"/><linearGradient id="linearGradient3392" x1="41.542" x2="41.485" y1="68.292" y2="4.536" gradientTransform="matrix(0.1365758,0,0,0.1412118,-13.964597,1.72428)" gradientUnits="userSpaceOnUse" xlink:href="#linearGradient11104"/><linearGradient id="linearGradient3600"><stop id="stop3602" offset="0" stop-color="#f4f4f4" stop-opacity="1"/><stop id="stop3604" offset="1" stop-color="#dbdbdb" stop-opacity="1"/></linearGradient><linearGradient id="linearGradient3931"><stop id="stop3933" offset="0" stop-color="#8d8d8d" stop-opacity="1"/><stop id="stop3935" offset="1" stop-color="#c3c3c3" stop-opacity="1"/></linearGradient><linearGradient id="linearGradient5048"><stop id="stop5050" offset="0" stop-color="#000" stop-opacity="0"/><stop id="stop5056" offset=".5" stop-color="#000" stop-opacity="1"/><stop id="stop5052" offset="1" stop-color="#000" stop-opacity="0"/></linearGradient><linearGradient id="linearGradient5060"><stop id="stop5062" offset="0" stop-color="#000" stop-opacity="1"/><stop id="stop5064" offset="1" stop-color="#000" stop-opacity="0"/></linearGradient><linearGradient id="linearGradient5306" x1="13.3" x2="12.679" y1="23.048" y2="-5.018" gradientUnits="userSpaceOnUse" xlink:href="#linearGradient3931"/><linearGradient id="linearGradient5314" x1="13.132" x2="13.19" y1="23.033" y2="13.664" gradientUnits="userSpaceOnUse" xlink:href="#linearGradient3931"/><linearGradient id="linearGradient5322" x1="16.04" x2="15.99" y1=".377" y2="23.888" gradientUnits="userSpaceOnUse" xlink:href="#linearGradient3600"/><linearGradient id="linearGradient5338" x1="11.413" x2="11.719" y1="1.918" y2="21.982" gradientUnits="userSpaceOnUse" xlink:href="#linearGradient4467"/><radialGradient id="radialGradient5557" cx="605.714" cy="486.648" r="117.143" fx="605.714" fy="486.648" gradientTransform="matrix(-0.03006084,0,0,0.01647058,23.858936,13.961096)" gradientUnits="userSpaceOnUse" xlink:href="#linearGradient5060"/><radialGradient id="radialGradient5560" cx="605.714" cy="486.648" r="117.143" fx="605.714" fy="486.648" gradientTransform="matrix(0.03006084,0,0,0.01647058,2.1410724,13.961096)" gradientUnits="userSpaceOnUse" xlink:href="#linearGradient5060"/><linearGradient id="linearGradient5563" x1="302.857" x2="302.857" y1="366.648" y2="609.505" gradientTransform="matrix(0.03006084,0,0,0.01647058,2.1351565,13.961096)" gradientUnits="userSpaceOnUse" xlink:href="#linearGradient5048"/></defs><g id="g5565"><rect id="rect4173" width="14.515" height="4" x="5.742" y="20" fill="url(#linearGradient5563)" fill-opacity="1" fill-rule="nonzero" stroke="none" stroke-width="104.962" display="inline" opacity=".5" overflow="visible" visibility="visible" style="marker:none"/><path id="path5058" fill="url(#radialGradient5560)" fill-opacity="1" fill-rule="nonzero" stroke="none" stroke-width="104.962" d="m 20.257547,20.000138 c 0,0 0,3.999778 0,3.999778 1.548059,0.0075 3.742453,-0.896147 3.742452,-2.000146 0,-1.103999 -1.727517,-1.999632 -3.742452,-1.999632 z" display="inline" opacity=".5" overflow="visible" visibility="visible" style="marker:none"/><path id="path5018" fill="url(#radialGradient5557)" fill-opacity="1" fill-rule="nonzero" stroke="none" stroke-width="104.962" d="m 5.7424572,20.000138 c 0,0 0,3.999778 0,3.999778 -1.5480591,0.0075 -3.7424526,-0.896147 -3.7424526,-2.000146 0,-1.103999 1.7275169,-1.999632 3.7424526,-1.999632 z" display="inline" opacity=".5" overflow="visible" visibility="visible" style="marker:none"/></g><path id="path5295" fill="url(#linearGradient5322)" fill-opacity="1" stroke="url(#linearGradient5306)" stroke-linecap="round" stroke-linejoin="round" stroke-miterlimit="4" stroke-opacity="1" stroke-width="1" d="M 2.5,1.5 C 0.9340152,1.479277 0.4068575,3.0102894 0.531,4.5 l 1.969,0 0,16 c 0,0.942809 1.057191,2 2,2 l 17,0 0,-18.7 c 0,-0.942809 -1.357191,-2.3 -2.3,-2.3 l -16.7,0 z"/><path id="rect5429" fill="#000" fill-opacity="1" stroke="none" d="M 6,4 6,5 18,5 18,4 6,4 z M 6,6 6,7 18,7 18,6 6,6 z M 6,8 6,9 18,9 18,8 6,8 z m 0,2 0,1 12,0 0,-1 -12,0 z m 0,2 0,1 12,0 0,-1 -12,0 z m 0,2 0,1 12,0 0,-1 -12,0 z m 0,2 0,1 12,0 0,-1 -12,0 z m 0,2 0,1 12,0 0,-1 -12,0 z" opacity=".1"/><path id="rect5340" fill="#aaa" fill-opacity="1" stroke="none" d="M 4,4 4,5 5,5 5,4 4,4 z M 4,6 4,7 5,7 5,6 4,6 z M 4,8 4,9 5,9 5,8 4,8 z m 0,2 0,1 1,0 0,-1 -1,0 z m 0,2 0,1 1,0 0,-1 -1,0 z m 0,2 0,1 1,0 0,-1 -1,0 z m 0,2 0,1 1,0 0,-1 -1,0 z m 0,2 0,1 1,0 0,-1 -1,0 z m 0,2 0,1 1,0 0,-1 -1,0 z"/><path id="rect5358" fill="#aaa" fill-opacity="1" stroke="none" d="m 19,4 0,1 1,0 0,-1 -1,0 z m 0,2 0,1 1,0 0,-1 -1,0 z m 0,2 0,1 1,0 0,-1 -1,0 z m 0,2 0,1 1,0 0,-1 -1,0 z m 0,2 0,1 1,0 0,-1 -1,0 z m 0,2 0,1 1,0 0,-1 -1,0 z m 0,2 0,1 1,0 0,-1 -1,0 z m 0,2 0,1 1,0 0,-1 -1,0 z"/><path id="path5298" fill="none" stroke="url(#linearGradient5338)" stroke-dasharray="none" stroke-linecap="round" stroke-linejoin="round" stroke-miterlimit="4" stroke-opacity="1" stroke-width="1" d="M 3.289,2.5001882 C 1.7460567,2.3930506 1.6091655,3.0802576 1.5,3.5 l 2,0 0,16.69 c 0,0.853009 0.7408853,1.31 1.59,1.31 l 15.41,0 0,-17.39 c 0,-0.8530092 -0.751885,-1.6098118 -1.601,-1.6098118 l -15.61,0 z" opacity=".604"/><g id="g3312" transform="translate(21.962004,0.96742899)"><path id="path11112" fill="url(#linearGradient3384)" fill-opacity="1" fill-rule="evenodd" stroke="#333" stroke-dasharray="none" stroke-linecap="round" stroke-linejoin="round" stroke-miterlimit="4" stroke-opacity="1" stroke-width=".772" d="M -4.5023261,9.5722362 1.604349,15.448598 0.757878,16.636371 -5.3266801,10.27972 -4.5023261,9.5722362 z" display="inline"/><path id="path13082" fill="#3e3e3e" fill-opacity="1" stroke="none" d="m 248.35479,110.29199 a 5.3124018,2.6562009 0 1 1 -10.6248,0 5.3124018,2.6562009 0 1 1 10.6248,0 z" display="inline" transform="matrix(0.1354007,-0.1564671,0.1513302,0.1399968,-48.385711,38.653696)"/><path id="path4452" fill="url(#radialGradient3386)" fill-opacity="1" fill-rule="evenodd" stroke="none" stroke-width="1.526" d="m 25.897786,18.478292 a 8.3085051,8.3085051 0 1 1 -16.61701,0 8.3085051,8.3085051 0 1 1 16.61701,0 z" display="inline" transform="matrix(0.5036401,0,0,0.5080737,-16.686295,-2.7543535)" visibility="visible" style="marker:none"/><path id="path4462" fill="url(#radialGradient3388)" fill-opacity="1" fill-rule="evenodd" stroke="none" stroke-width=".75" d="m -8.0000001,3 c -2.0862189,0 -3.7755799,1.5628072 -3.7755799,3.4927442 0,0.557374 0.168381,1.070211 0.419508,1.537958 0.501718,0.171073 1.034682,0.287468 1.6003489,0.287468 2.472155,0 4.446498,-1.801727 4.59906,-4.053309 C -5.8501071,3.5067862 -6.8432521,3 -8.0000001,3 z" display="inline" opacity=".834" overflow="visible" visibility="visible" style="marker:none"/><path id="path2298" fill="url(#linearGradient3390)" fill-opacity="1" stroke="url(#linearGradient3392)" stroke-dasharray="none" stroke-linecap="round" stroke-linejoin="round" stroke-miterlimit="4" stroke-opacity="1" stroke-width=".772" d="m -7.9196181,2.4185759 c -2.5698819,0 -4.6563819,1.9892783 -4.6563809,4.4393463 0,2.450068 2.086499,4.4393458 4.6563809,4.4393458 2.56988,0 4.65638,-1.9892778 4.65638,-4.4393458 0,-2.450067 -2.086498,-4.4393463 -4.65638,-4.4393463 z m 0.05548,0.2912494 c 2.300061,0 4.16983,1.7787559 4.16983,3.9715819 0,2.192827 -1.869769,3.9715828 -4.16983,3.9715828 -2.3000609,0 -4.1655609,-1.7787558 -4.1655609,-3.9715828 0,-2.192826 1.8655,-3.9715819 4.1655609,-3.9715819 z" display="inline"/></g><path id="rect5292" fill="#c8c8c8" fill-opacity="1" stroke="url(#linearGradient5314)" stroke-linecap="round" stroke-linejoin="round" stroke-miterlimit="4" stroke-opacity="1" stroke-width="1" d="m 6.5,19.5 17,0 c 0.125,1.5 -0.408708,3.042536 -2,3 l -17,0 c 1.5112979,0 2.0040752,-1.375 2,-3 z"/><rect id="rect5457" width="16" height=".933" x="7" y="20.067" fill="#fff" fill-opacity="1" stroke="none" opacity=".7" rx=".3" ry=".3"/></svg>