<svg xmlns="http://www.w3.org/2000/svg" xmlns:svg="http://www.w3.org/2000/svg" xmlns:xlink="http://www.w3.org/1999/xlink" id="svg3390" width="24" height="24" version="1.0"><defs id="defs3392"><linearGradient id="linearGradient8838"><stop id="stop8840" offset="0" stop-color="#000" stop-opacity="1"/><stop id="stop8842" offset="1" stop-color="#000" stop-opacity="0"/></linearGradient><radialGradient id="radialGradient2913" cx="62.625" cy="4.625" r="10.625" fx="62.625" fy="4.625" gradientTransform="matrix(2.1647059,0,0,0.7529402,-111.56471,36.517647)" gradientUnits="userSpaceOnUse" xlink:href="#linearGradient8838"/><linearGradient id="linearGradient3271"><stop id="stop3273" offset="0" stop-color="#b3b3b3" stop-opacity="1"/><stop id="stop3275" offset="1" stop-color="gray" stop-opacity="1"/></linearGradient><linearGradient id="linearGradient2910" x1="7.554" x2="7.554" y1="3" y2="45.184" gradientUnits="userSpaceOnUse" xlink:href="#linearGradient3271"/><linearGradient id="linearGradient3334"><stop id="stop3336" offset="0" stop-color="#fff" stop-opacity="1"/><stop id="stop3338" offset=".873" stop-color="#dcdcdc" stop-opacity="1"/><stop id="stop3340" offset="1" stop-color="#a6a7aa" stop-opacity="1"/></linearGradient><radialGradient id="radialGradient2908" cx="24.012" cy="24.003" r="21" fx="24.012" fy="24.003" gradientTransform="matrix(0.9532054,0,0,0.9532054,1.1236313,1.1232247)" gradientUnits="userSpaceOnUse" xlink:href="#linearGradient3334"/><linearGradient id="linearGradient2480"><stop id="stop2482" offset="0" stop-color="#636467" stop-opacity="1"/><stop id="stop2484" offset="1" stop-color="#fcfcfc" stop-opacity="1"/></linearGradient><linearGradient id="linearGradient2905" x1="29.05" x2="29.05" y1="7.028" y2="40.32" gradientTransform="matrix(1.0606061,0,0,1.060606,-1.4545467,-1.4545435)" gradientUnits="userSpaceOnUse" xlink:href="#linearGradient2480"/><linearGradient id="linearGradient3268"><stop id="stop3270" offset="0" stop-color="#66e87a" stop-opacity="1"/><stop id="stop3272" offset="1" stop-color="#12604d" stop-opacity="1"/></linearGradient><radialGradient id="radialGradient2903" cx="27.412" cy="12.08" r="18" fx="27.412" fy="12.08" gradientTransform="matrix(1.7637903e-8,1.7731075,-2.6591116,2.6451386e-8,59.480381,-17.99927)" gradientUnits="userSpaceOnUse" xlink:href="#linearGradient3268"/><linearGradient id="linearGradient3996"><stop id="stop3998" offset="0" stop-color="#fff" stop-opacity="1"/><stop id="stop4000" offset="1" stop-color="#fff" stop-opacity="0"/></linearGradient><linearGradient id="linearGradient2900" x1="24.398" x2="24.398" y1="3.602" y2="26.091" gradientTransform="translate(-0.3976755,0.3981273)" gradientUnits="userSpaceOnUse" xlink:href="#linearGradient3996"/><filter id="filter3759"><feGaussianBlur id="feGaussianBlur3761" stdDeviation=".564"/></filter><linearGradient id="linearGradient3708"><stop id="stop3710" offset="0" stop-color="#000" stop-opacity="1"/><stop id="stop3712" offset="1" stop-color="#000" stop-opacity="1"/></linearGradient><linearGradient id="linearGradient2889" x1="29.05" x2="29.05" y1="7.028" y2="26.494" gradientTransform="matrix(1,0,0,-1,1e-6,47.999998)" gradientUnits="userSpaceOnUse" xlink:href="#linearGradient3708"/><linearGradient id="linearGradient3301"><stop id="stop3303" offset="0" stop-color="#fff" stop-opacity="0"/><stop id="stop3309" offset=".7" stop-color="#fff" stop-opacity="0"/><stop id="stop3305" offset="1" stop-color="#000" stop-opacity="1"/></linearGradient><radialGradient id="radialGradient2887" cx="24" cy="24" r="17" fx="24" fy="24" gradientUnits="userSpaceOnUse" xlink:href="#linearGradient3301"/><linearGradient id="linearGradient3326"><stop id="stop3328" offset="0" stop-color="#797979" stop-opacity="1"/><stop id="stop3330" offset="1" stop-color="#fdf5f5" stop-opacity="1"/></linearGradient><linearGradient id="linearGradient3332" x1="25.463" x2="25.463" y1="27.096" y2="21.226" gradientTransform="matrix(0.7916668,0,0,0.7916668,4.9999983,4.9999983)" gradientUnits="userSpaceOnUse" xlink:href="#linearGradient3326"/><linearGradient id="linearGradient3260"><stop id="stop3262" offset="0" stop-color="#fdf5f5" stop-opacity="1"/><stop id="stop3286" offset=".5" stop-color="#ebe9e9" stop-opacity="1"/><stop id="stop3264" offset="1" stop-color="#959595" stop-opacity="1"/></linearGradient><radialGradient id="radialGradient3266" cx="23.677" cy="21" r="3" fx="23.677" fy="21" gradientTransform="matrix(0,1.5833333,-1.8938912,0,63.771715,-15.863131)" gradientUnits="userSpaceOnUse" xlink:href="#linearGradient3260"/><radialGradient id="radialGradient2455" cx="24" cy="24" r="17" fx="24" fy="24" gradientUnits="userSpaceOnUse" xlink:href="#linearGradient3301"/><linearGradient id="linearGradient2457" x1="29.05" x2="29.05" y1="7.028" y2="26.494" gradientTransform="matrix(1,0,0,-1,1e-6,47.999998)" gradientUnits="userSpaceOnUse" xlink:href="#linearGradient3708"/><linearGradient id="linearGradient2461" x1="24.398" x2="24.398" y1="3.602" y2="26.091" gradientTransform="translate(-0.3976755,0.3981273)" gradientUnits="userSpaceOnUse" xlink:href="#linearGradient3996"/><radialGradient id="radialGradient2464" cx="27.412" cy="12.08" r="18" fx="27.412" fy="12.08" gradientTransform="matrix(1.7637903e-8,1.7731075,-2.6591116,2.6451386e-8,59.480381,-17.99927)" gradientUnits="userSpaceOnUse" xlink:href="#linearGradient3268"/><linearGradient id="linearGradient2466" x1="29.05" x2="29.05" y1="7.028" y2="40.32" gradientTransform="matrix(1.0606061,0,0,1.060606,-1.4545467,-1.4545435)" gradientUnits="userSpaceOnUse" xlink:href="#linearGradient2480"/><radialGradient id="radialGradient2469" cx="24.012" cy="24.003" r="21" fx="24.012" fy="24.003" gradientTransform="matrix(0.9532054,0,0,0.9532054,1.1236313,1.1232247)" gradientUnits="userSpaceOnUse" xlink:href="#linearGradient3334"/><linearGradient id="linearGradient2471" x1="7.554" x2="7.554" y1="3" y2="45.184" gradientUnits="userSpaceOnUse" xlink:href="#linearGradient3271"/><radialGradient id="radialGradient2474" cx="62.625" cy="4.625" r="10.625" fx="62.625" fy="4.625" gradientTransform="matrix(1.0352941,0,0,0.3764701,-52.835295,18.258824)" gradientUnits="userSpaceOnUse" xlink:href="#linearGradient8838"/><radialGradient id="radialGradient2494" cx="24.012" cy="24.003" r="21" fx="24.012" fy="24.003" gradientTransform="matrix(0.9532054,0,0,0.9532054,1.1236313,1.1232247)" gradientUnits="userSpaceOnUse" xlink:href="#linearGradient3334"/><linearGradient id="linearGradient2496" x1="7.554" x2="7.554" y1="3" y2="45.184" gradientUnits="userSpaceOnUse" xlink:href="#linearGradient3271"/><radialGradient id="radialGradient2498" cx="27.412" cy="12.08" r="18" fx="27.412" fy="12.08" gradientTransform="matrix(1.7637903e-8,1.7731075,-2.6591116,2.6451386e-8,59.480381,-17.99927)" gradientUnits="userSpaceOnUse" xlink:href="#linearGradient3268"/><linearGradient id="linearGradient2500" x1="29.05" x2="29.05" y1="7.028" y2="40.32" gradientTransform="matrix(1.0606061,0,0,1.060606,-1.4545467,-1.4545435)" gradientUnits="userSpaceOnUse" xlink:href="#linearGradient2480"/><linearGradient id="linearGradient2502" x1="24.398" x2="24.398" y1="3.602" y2="26.091" gradientTransform="translate(-0.3976755,0.3981273)" gradientUnits="userSpaceOnUse" xlink:href="#linearGradient3996"/><radialGradient id="radialGradient2504" cx="24" cy="24" r="17" fx="24" fy="24" gradientUnits="userSpaceOnUse" xlink:href="#linearGradient3301"/><linearGradient id="linearGradient2506" x1="29.05" x2="29.05" y1="7.028" y2="26.494" gradientTransform="matrix(1,0,0,-1,1e-6,47.999998)" gradientUnits="userSpaceOnUse" xlink:href="#linearGradient3708"/><radialGradient id="radialGradient2508" cx="23.677" cy="21" r="3" fx="23.677" fy="21" gradientTransform="matrix(0,1.5833333,-1.8938912,0,63.771715,-15.863131)" gradientUnits="userSpaceOnUse" xlink:href="#linearGradient3260"/><linearGradient id="linearGradient2510" x1="25.463" x2="25.463" y1="27.096" y2="21.226" gradientTransform="matrix(0.7916668,0,0,0.7916668,4.9999983,4.9999983)" gradientUnits="userSpaceOnUse" xlink:href="#linearGradient3326"/><radialGradient id="radialGradient2524" cx="24" cy="24" r="17" fx="24" fy="24" gradientTransform="matrix(0.4545455,0,0,0.4545454,1.090909,1.0909092)" gradientUnits="userSpaceOnUse" xlink:href="#linearGradient3301"/><linearGradient id="linearGradient2526" x1="29.05" x2="29.05" y1="7.028" y2="26.494" gradientTransform="matrix(0.4545455,0,0,-0.4545454,1.0909095,22.909089)" gradientUnits="userSpaceOnUse" xlink:href="#linearGradient3708"/><linearGradient id="linearGradient2530" x1="24.398" x2="24.398" y1="3.602" y2="26.091" gradientTransform="matrix(0.4871795,0,0,0.4871795,0.1139534,0.501652)" gradientUnits="userSpaceOnUse" xlink:href="#linearGradient3996"/><radialGradient id="radialGradient2533" cx="27.412" cy="12.08" r="18" fx="27.412" fy="12.08" gradientTransform="matrix(0,0.8612237,-1.2915685,1.2847817e-8,29.233328,-8.3996461)" gradientUnits="userSpaceOnUse" xlink:href="#linearGradient3268"/><linearGradient id="linearGradient2535" x1="29.05" x2="29.05" y1="7.028" y2="40.32" gradientTransform="matrix(0.5151515,0,0,0.5151516,-0.3636361,-0.3636355)" gradientUnits="userSpaceOnUse" xlink:href="#linearGradient2480"/><radialGradient id="radialGradient2538" cx="24.012" cy="24.003" r="21" fx="24.012" fy="24.003" gradientTransform="matrix(0.4882282,0,0,0.4882282,0.2828109,0.2826031)" gradientUnits="userSpaceOnUse" xlink:href="#linearGradient3334"/><linearGradient id="linearGradient2540" x1="7.554" x2="7.554" y1="3" y2="45.184" gradientTransform="matrix(0.5121962,0,0,0.5121962,-0.2927088,-0.2927083)" gradientUnits="userSpaceOnUse" xlink:href="#linearGradient3271"/><radialGradient id="radialGradient2546" cx="23.677" cy="21" r="3" fx="23.677" fy="21" gradientTransform="matrix(0,1.5833333,-1.8938912,0,63.771715,-15.863131)" gradientUnits="userSpaceOnUse" xlink:href="#linearGradient3260"/><linearGradient id="linearGradient2548" x1="25.463" x2="25.463" y1="27.096" y2="21.226" gradientTransform="matrix(0.7916668,0,0,0.7916668,4.9999983,4.9999983)" gradientUnits="userSpaceOnUse" xlink:href="#linearGradient3326"/><radialGradient id="radialGradient2551" cx="23.677" cy="21" r="3" fx="23.677" fy="21" gradientTransform="matrix(0,0.75,-0.8971064,0,30.839235,-6.8825356)" gradientUnits="userSpaceOnUse" xlink:href="#linearGradient3260"/><linearGradient id="linearGradient2553" x1="25.463" x2="25.463" y1="27.096" y2="21.226" gradientTransform="matrix(0.3750001,0,0,0.3750001,2.9999984,2.999999)" gradientUnits="userSpaceOnUse" xlink:href="#linearGradient3326"/></defs><path id="path8836" fill="url(#radialGradient2474)" fill-opacity="1" fill-rule="evenodd" stroke="none" stroke-width="1" d="M 23,20 C 23,22.20914 18.075131,24 12,24 C 5.9248683,24 0.9999999,22.20914 0.9999999,20 C 0.9999999,17.790862 5.9248683,16 12,16 C 18.075131,16 23,17.790862 23,20 L 23,20 z" display="inline" opacity=".3" overflow="visible" visibility="visible" style="marker:none"/><path id="path6495" fill="url(#radialGradient2538)" fill-opacity="1" fill-rule="nonzero" stroke="url(#linearGradient2540)" stroke-dasharray="none" stroke-miterlimit="4" stroke-opacity="1" stroke-width="1" d="M 22.500022,11.999628 C 22.500022,17.798817 17.798655,22.500023 12.000132,22.500023 C 6.201077,22.500023 1.4999779,17.798764 1.4999779,11.999628 C 1.4999779,6.2007051 6.201077,1.4999774 12.000132,1.4999774 C 17.798655,1.4999774 22.500022,6.2007051 22.500022,11.999628 L 22.500022,11.999628 z"/><path id="path3215" fill="url(#radialGradient2533)" fill-opacity="1" fill-rule="nonzero" stroke="url(#linearGradient2535)" stroke-dasharray="none" stroke-miterlimit="4" stroke-width="1" d="M 20.500001,11.999699 C 20.500001,16.694271 16.69414,20.500001 12.000108,20.500001 C 7.3056445,20.500001 3.5000001,16.694227 3.5000001,11.999699 C 3.5000001,7.3053428 7.3056445,3.5000002 12.000108,3.5000002 C 16.69414,3.5000002 20.500001,7.3053428 20.500001,11.999699 L 20.500001,11.999699 L 20.500001,11.999699 L 20.500001,11.999699 z"/><path id="path3222" fill="none" stroke="url(#linearGradient2530)" stroke-dasharray="none" stroke-miterlimit="4" stroke-opacity="1" stroke-width="1" d="M 21.499999,11.999664 C 21.499999,17.246538 17.246391,21.5 12.000118,21.5 C 6.7533664,21.5 2.5,17.246489 2.5,11.999664 C 2.5,6.7530307 6.7533664,2.5000001 12.000118,2.5000001 C 17.246391,2.5000001 21.499999,6.7530307 21.499999,11.999664 L 21.499999,11.999664 z" opacity=".8"/><path id="path2335-5" fill="#000" fill-opacity="1" fill-rule="evenodd" stroke="#000" stroke-dasharray="none" stroke-linecap="butt" stroke-linejoin="miter" stroke-miterlimit="4" stroke-opacity="1" stroke-width="1.952" d="M 13.03125,13.46875 L 21.5625,25.4375 L 23.28125,23.71875 L 25.03125,22 L 13.03125,13.46875 z M 26.9375,23.90625 L 25.1875,25.625 L 23.46875,27.34375 L 35.59375,36 L 26.9375,23.90625 z" filter="url(#filter3759)" opacity=".2" transform="matrix(0.5121962,0,0,0.5121962,-0.2927088,-0.2927083)"/><path id="path3215-4" fill="url(#radialGradient2524)" fill-opacity="1" stroke="url(#linearGradient2526)" stroke-dasharray="none" stroke-miterlimit="4" stroke-width="1" d="M 19.500001,12.000266 C 19.500001,7.8579973 16.141889,4.5 12.000096,4.5 C 7.8579219,4.5 4.5000002,7.858035 4.5000002,12.000266 C 4.5000002,16.142345 7.8579219,19.5 12.000096,19.5 C 16.141889,19.5 19.500001,16.142345 19.500001,12.000266 L 19.500001,12.000266 z" opacity=".2"/><path id="path3388" fill="#fff" fill-opacity="1" fill-rule="evenodd" stroke="none" d="M 12.018562,5 L 11.071926,9.2682927 C 10.723683,9.3562966 10.404214,9.4924758 10.106729,9.6689896 L 8.0464033,8.7979094 L 8.9744781,10.731707 C 8.7932935,11.00445 8.6579587,11.302502 8.5661256,11.620209 L 4,11.964286 L 4,12.491288 L 8.5661256,13.37979 C 8.6579587,13.697498 8.7932935,13.995549 8.9744787,14.268292 L 8.0464033,16.202091 L 10.106729,15.331011 C 10.39922,15.50456 10.711666,15.643587 11.053365,15.731707 L 11.981438,20 L 12.928074,15.731707 C 13.276317,15.643703 13.595786,15.507524 13.893271,15.331011 L 15.953596,16.202091 L 15.025521,14.268291 C 15.206706,13.995549 15.342041,13.697498 15.433874,13.37979 L 20,12.526132 L 20,11.964286 L 15.433874,11.637631 C 15.34216,11.314065 15.209691,11.008942 15.025521,10.731707 L 15.953596,8.7979094 L 13.893271,9.6689896 C 13.600779,9.4954387 13.288334,9.3564128 12.946636,9.2682927 L 12.018562,5 L 12.018562,5 L 12.018562,5 z M 11.703017,9.721254 C 11.802813,9.711732 11.897541,9.721254 12,9.721254 C 13.639351,9.721254 14.969837,10.970035 14.969837,12.508712 C 14.969837,14.047386 13.639351,15.278745 12,15.278745 C 10.360649,15.278745 9.0301621,14.029964 9.0301621,12.491287 C 9.0301621,11.04878 10.206062,9.8640843 11.703017,9.721254 L 11.703017,9.721254 z" opacity=".3"/><path id="path1118-6" fill="#328650" fill-opacity="1" fill-rule="evenodd" stroke="none" d="M 12.018562,4 L 11.071926,8.268293 C 10.723683,8.3562969 10.404214,8.4924761 10.106729,8.6689895 L 8.0464033,7.7979096 L 8.9744781,9.7317078 C 8.7932935,10.00445 8.6579587,10.302502 8.5661256,10.620209 L 4,11.491289 L 8.5661256,12.379791 C 8.6579587,12.697498 8.7932935,12.99555 8.9744787,13.268292 L 8.0464033,15.202091 L 10.106729,14.331011 C 10.39922,14.504561 10.711666,14.643587 11.053365,14.731707 L 11.981438,19 L 12.928074,14.731707 C 13.276317,14.643704 13.595786,14.507525 13.893271,14.331011 L 15.953596,15.202091 L 15.025521,13.268292 C 15.206706,12.99555 15.342041,12.697498 15.433874,12.379791 L 20,11.526133 L 15.433874,10.637631 C 15.34216,10.314065 15.209691,10.008943 15.025521,9.7317078 L 15.953596,7.7979096 L 13.893271,8.6689895 C 13.600779,8.495439 13.288334,8.3564131 12.946636,8.268293 L 12.018562,4 L 12.018562,4 L 12.018562,4 z M 11.703017,8.7212544 C 11.802813,8.7117326 11.897541,8.7212544 12,8.7212544 C 13.639351,8.7212544 14.969837,9.9700355 14.969837,11.508712 C 14.969837,13.047387 13.639351,14.278746 12,14.278746 C 10.360649,14.278746 9.0301621,13.029965 9.0301621,11.491288 C 9.0301621,10.04878 10.206062,8.8640843 11.703017,8.7212544 L 11.703017,8.7212544 z"/><g id="g3357" transform="matrix(0.526511,0,0,0.5272402,-0.6345354,-0.6553857)"><g id="g3353"><path id="path2341" fill="#d2d2d2" fill-opacity="1" fill-rule="evenodd" stroke="#000" stroke-linecap="butt" stroke-linejoin="miter" stroke-miterlimit="4" stroke-opacity=".455" stroke-width=".065" d="M 26.490493,23.042827 L 24.74323,24.758456 L 23.027381,26.474305 L 35.277033,35.261063 L 26.490493,23.042827 z"/><path id="path2342" fill="#fff" fill-opacity="1" fill-rule="evenodd" stroke="#000" stroke-linecap="butt" stroke-linejoin="miter" stroke-miterlimit="4" stroke-opacity=".455" stroke-width=".026" d="M 35.272928,35.260264 L 24.755,24.765615 L 26.484899,23.054733 L 35.272928,35.260264" opacity=".6"/></g><g id="g3306" transform="matrix(1.0114576,1.3145946e-2,1.3145918e-2,1.0114576,-0.6260218,-0.3924146)"><path id="path2335" fill="#ed000d" fill-opacity="1" fill-rule="evenodd" stroke="#000" stroke-linecap="butt" stroke-linejoin="miter" stroke-miterlimit="4" stroke-opacity=".457" stroke-width=".065" d="M 13.03125,12.8125 L 21.5625,24.78125 L 23.28125,23.0625 L 25.03125,21.34375 L 13.03125,12.8125 z"/><path id="path2336" fill="#fff" fill-opacity="1" fill-rule="evenodd" stroke="none" stroke-linecap="butt" stroke-linejoin="miter" stroke-miterlimit="4" stroke-opacity=".457" stroke-width=".034" d="M 13.020425,12.820343 L 23.293376,23.069974 L 25.025963,21.35596 L 13.020425,12.820343" opacity=".6"/></g></g><path id="path3321" fill="url(#radialGradient2551)" fill-opacity="1" fill-rule="nonzero" stroke="url(#linearGradient2553)" stroke-dasharray="none" stroke-dashoffset="0" stroke-linecap="butt" stroke-linejoin="round" stroke-miterlimit="4" stroke-opacity="1" stroke-width=".75" d="M 13.125,12 C 13.125,12.62132 12.621321,13.125 12,13.125 C 11.37868,13.125 10.875,12.62132 10.875,12 C 10.875,11.37868 11.37868,10.875 12,10.875 C 12.621321,10.875 13.125,11.37868 13.125,12 L 13.125,12 z" display="inline" enable-background="accumulate" overflow="visible" visibility="visible" style="marker:none"/></svg>