<svg xmlns="http://www.w3.org/2000/svg" xmlns:svg="http://www.w3.org/2000/svg" xmlns:xlink="http://www.w3.org/1999/xlink" id="svg2" width="24" height="24" version="1.0"><defs id="defs4"><linearGradient id="linearGradient8838"><stop id="stop8840" offset="0" stop-color="#000" stop-opacity="1"/><stop id="stop8842" offset="1" stop-color="#000" stop-opacity="0"/></linearGradient><radialGradient id="radialGradient2420" cx="62.625" cy="4.625" r="10.625" fx="62.625" fy="4.625" gradientTransform="matrix(1.1064069,0,0,0.4329412,-57.288731,17.397637)" gradientUnits="userSpaceOnUse" xlink:href="#linearGradient8838"/><linearGradient id="linearGradient2490"><stop id="stop2492" offset="0" stop-color="#791235" stop-opacity="1"/><stop id="stop2494" offset="1" stop-color="#dd3b27" stop-opacity="1"/></linearGradient><linearGradient id="linearGradient2417" x1="-23.916" x2="-23.916" y1="43.708" y2="4.65" gradientTransform="matrix(0.5111119,0,0,0.5,26.013267,0.9251409)" gradientUnits="userSpaceOnUse" xlink:href="#linearGradient2490"/><linearGradient id="linearGradient3242"><stop id="stop3244" offset="0" stop-color="#f8b17e" stop-opacity="1"/><stop id="stop3246" offset=".262" stop-color="#e35d4f" stop-opacity="1"/><stop id="stop3248" offset=".661" stop-color="#c6262e" stop-opacity="1"/><stop id="stop3250" offset="1" stop-color="#690b54" stop-opacity="1"/></linearGradient><radialGradient id="radialGradient2415" cx="32.807" cy="3.533" r="23" fx="32.807" fy="3.533" gradientTransform="matrix(0,0.8479103,-0.9076181,0,15.206388,-23.537551)" gradientUnits="userSpaceOnUse" xlink:href="#linearGradient3242"/><linearGradient id="linearGradient3230"><stop id="stop3232" offset="0" stop-color="#fff" stop-opacity="1"/><stop id="stop3234" offset="1" stop-color="#fff" stop-opacity="0"/></linearGradient><linearGradient id="linearGradient2424" x1="26.154" x2="26.154" y1="6.504" y2="42.502" gradientTransform="matrix(0.5111119,0,0,0.5,-0.2666857,0.75)" gradientUnits="userSpaceOnUse" xlink:href="#linearGradient3230"/><linearGradient id="linearGradient3202"><stop id="stop3204" offset="0" stop-color="#fff" stop-opacity="1"/><stop id="stop3206" offset="1" stop-color="#d3eefc" stop-opacity="1"/></linearGradient><linearGradient id="linearGradient2411" x1="22.885" x2="22.885" y1="17.629" y2="30.89" gradientTransform="matrix(0.5422862,0,0,0.4752147,0.9165477,0.7931271)" gradientUnits="userSpaceOnUse" xlink:href="#linearGradient3202"/></defs><g id="layer1"><path id="path8836" fill="url(#radialGradient2420)" fill-opacity="1" fill-rule="evenodd" stroke="none" stroke-dasharray="none" stroke-dashoffset="0" stroke-linecap="butt" stroke-linejoin="round" stroke-miterlimit="4" stroke-opacity="1" stroke-width="1" marker-end="none" marker-mid="none" marker-start="none" d="M 23.755577,19.399993 C 23.755577,21.940507 18.492427,24 12.000003,24 C 5.50758,24 0.24442968,21.940507 0.24442968,19.399993 C 0.24442968,16.85948 5.50758,14.799986 12.000003,14.799986 C 18.492427,14.799986 23.755577,16.85948 23.755577,19.399993 L 23.755577,19.399993 z" display="inline" opacity=".4" overflow="visible" visibility="visible" style="marker:none"/><path id="path2421" fill="url(#radialGradient2415)" fill-opacity="1" fill-rule="evenodd" stroke="url(#linearGradient2417)" stroke-linecap="butt" stroke-linejoin="miter" stroke-opacity="1" stroke-width="1" d="M 0.49998246,16.130614 C 0.49998246,16.130614 4.9035219,8.0738649 11.212322,4.8647207 C 14.889458,2.994245 20.81407,2.5142778 23.464306,6.9102193 C 23.464306,6.9102193 24.357088,18.459976 17.214836,21.711378 C 17.214836,21.711378 9.8245896,25.593649 0.49998246,16.130614 z"/><path id="path2422" fill="none" fill-opacity="1" fill-rule="evenodd" stroke="url(#linearGradient2424)" stroke-linecap="butt" stroke-linejoin="miter" stroke-opacity="1" stroke-width="1" d="M 16.0625,4.53125 C 14.490896,4.6468905 12.943367,5.1111691 11.6875,5.75 C 6.4993334,8.3891033 2.6620824,14.472162 1.8125,15.90625 C 6.0880261,20.025437 9.7643676,21.279628 12.40625,21.46875 C 15.131121,21.663813 16.636776,20.901716 16.6875,20.875 C 16.697467,20.864143 16.707893,20.853717 16.71875,20.84375 C 16.738855,20.831937 16.759736,20.821496 16.78125,20.8125 C 19.926949,19.380467 21.389568,16.05188 22.03125,12.90625 C 22.625195,9.9946349 22.487466,7.5744827 22.46875,7.25 C 21.016502,5.0331141 18.609036,4.3438732 16.0625,4.53125 z" opacity=".4"/><path font-family="URW Gothic L" style="text-align:start;line-height:125%;-inkscape-font-specification:URW Gothic L Book" id="path2438" fill="#a1ceef" fill-opacity="1" stroke="none" stroke-linecap="butt" stroke-linejoin="miter" stroke-opacity="1" stroke-width="1" d="M 8,10.24957 C 18.350434,10.24957 17.904039,10.125645 19.998181,12.521515 C 19.990761,11.045578 20.013665,12.047609 19.985508,10.572024 C 19.945412,9.679856 19.58754,8.6941106 18.635462,8.2422105 C 18.090787,8.070805 17.935048,8.0058995 17.255681,8.0058995 C 15.856585,8.0058995 10.427098,8 8,8 C 8,10.333333 8,7.9162367 8,10.24957 z" font-size="26.706" font-stretch="normal" font-style="normal" font-variant="normal" font-weight="bold" text-anchor="start" writing-mode="lr-tb"/><path font-family="URW Gothic L" style="text-align:start;line-height:125%;-inkscape-font-specification:URW Gothic L Book" id="text3190" fill="url(#linearGradient2411)" fill-opacity="1" stroke="none" stroke-linecap="butt" stroke-linejoin="miter" stroke-opacity="1" stroke-width="1" d="M 8,16 C 8.6392308,16 9.9690695,16 10.6083,16 C 10.618748,14.65478 10.564747,13.30871 10.6083,11.964119 C 10.6083,11.246897 10.717561,10.6056 11.597785,10.6056 C 12.607637,10.6056 12.687889,11.090508 12.687889,12.014135 C 12.687889,12.858253 12.687889,15.155881 12.687889,16 C 13.327119,16 14.664011,16 15.30324,16 C 15.310739,14.677147 15.27256,13.353802 15.30324,12.031307 C 15.307903,11.395218 15.244123,10.6056 16.342608,10.6056 C 17.330861,10.6056 17.389392,11.228857 17.389392,12.041982 C 17.389392,12.876818 17.389392,15.165164 17.389392,16 C 18.028623,16 19.35895,16 19.998181,16 C 19.990761,14.524063 20.013665,13.047609 19.985508,11.572024 C 19.945412,10.679857 19.58754,9.6941106 18.635462,9.2422105 C 18.090787,9.070805 17.935048,9.0058995 17.255681,9.0058995 C 15.856585,9.0058995 10.427098,9 8,9 C 8,11.333333 8,13.666667 8,16 z" font-size="26.706" font-stretch="normal" font-style="normal" font-variant="normal" font-weight="bold" text-anchor="start" writing-mode="lr-tb"/></g></svg>