<svg xmlns="http://www.w3.org/2000/svg" xmlns:svg="http://www.w3.org/2000/svg" xmlns:xlink="http://www.w3.org/1999/xlink" id="svg2" width="24" height="24" version="1.0"><defs id="defs4"><linearGradient id="linearGradient4588"><stop id="stop4591" offset="0" stop-color="#000" stop-opacity=".326"/><stop id="stop4590" offset=".5" stop-color="#000" stop-opacity=".192"/><stop id="stop4589" offset="1" stop-color="#000" stop-opacity="0"/></linearGradient><radialGradient id="radialGradient3351" cx="6.703" cy="73.616" r="7.228" fx="6.703" fy="73.616" gradientTransform="matrix(1.6248935,0,0,0.3559079,1.108806,-4.7730656)" gradientUnits="userSpaceOnUse" xlink:href="#linearGradient4588"/><linearGradient id="linearGradient3332-412-419"><stop id="stop2554" offset="0" stop-color="#611358" stop-opacity="1"/><stop id="stop2556" offset="1" stop-color="#a1619b" stop-opacity="1"/></linearGradient><linearGradient id="linearGradient3348" x1="18.531" x2="18.531" y1="24.151" y2="-.079" gradientUnits="userSpaceOnUse" xlink:href="#linearGradient3332-412-419"/><linearGradient id="linearGradient3242-593-605"><stop id="stop2544" offset="0" stop-color="#d196bf" stop-opacity="1"/><stop id="stop2546" offset=".262" stop-color="#bb70b6" stop-opacity="1"/><stop id="stop2548" offset=".661" stop-color="#954a9a" stop-opacity="1"/><stop id="stop2550" offset="1" stop-color="#6c3b77" stop-opacity="1"/></linearGradient><radialGradient id="radialGradient3346" cx="10.571" cy=".765" r="11.509" fx="10.571" fy=".765" gradientTransform="matrix(-1.7947178e-8,1.7575918,-1.5422016,-1.5747778e-8,11.750535,-16.821504)" gradientUnits="userSpaceOnUse" xlink:href="#linearGradient3242-593-605"/><linearGradient id="linearGradient4593"><stop id="stop12409" offset="0" stop-color="#fff" stop-opacity=".702"/><stop id="stop12411" offset="1" stop-color="#fff" stop-opacity="0"/></linearGradient><linearGradient id="linearGradient3343" x1="27.907" x2="24.774" y1="7.55" y2="39.4" gradientTransform="matrix(0.510074,-4.6449072e-2,5.0162281e-2,0.5555587,-1.305188,-0.2387709)" gradientUnits="userSpaceOnUse" xlink:href="#linearGradient4593"/></defs><g id="layer1"><path id="path3302" fill="url(#radialGradient3351)" fill-opacity="1" fill-rule="nonzero" stroke="none" stroke-dasharray="none" stroke-dashoffset="0" stroke-linecap="butt" stroke-linejoin="miter" stroke-miterlimit="0" stroke-opacity="1" stroke-width=".72" marker-end="none" marker-mid="none" marker-start="none" d="M 23.745406,21.42735 C 23.745406,22.848185 18.486808,24 12,24 C 5.513192,24 0.254595,22.848185 0.254595,21.42735 C 0.254595,20.006514 5.513192,18.854699 12,18.854699 C 18.486808,18.854699 23.745406,20.006514 23.745406,21.42735 z" display="inline" opacity=".4" overflow="visible" visibility="visible" style="marker:none"/><path id="path3304" fill="url(#radialGradient3346)" fill-opacity="1" fill-rule="evenodd" stroke="url(#linearGradient3348)" stroke-dasharray="none" stroke-dashoffset="0" stroke-linecap="butt" stroke-linejoin="round" stroke-miterlimit="4" stroke-opacity="1" stroke-width=".995" marker-end="none" marker-mid="none" marker-start="none" d="M 10.440348,2.3954884 C 4.804251,3.2251954 0.633881,7.1026954 1.012805,11.301 C 1.258174,14.019574 3.347855,16.257193 6.336181,17.437791 L 5.088812,22.291039 L 10.60708,18.306012 L 10.645229,18.302537 C 11.326223,18.335038 12.010377,18.345812 12.720333,18.281136 C 18.778623,17.729235 23.384738,13.703942 22.987176,9.299165 C 22.589616,4.8943874 17.337937,1.7671274 11.279647,2.3190294 C 10.995665,2.3448994 10.717534,2.3546824 10.440348,2.3954884 z" display="inline" overflow="visible" visibility="visible" style="marker:none"/><path id="path6179" fill="none" fill-opacity="1" fill-rule="evenodd" stroke="url(#linearGradient3343)" stroke-dasharray="none" stroke-dashoffset="0" stroke-linecap="butt" stroke-linejoin="miter" stroke-miterlimit="4" stroke-opacity="1" stroke-width=".995" marker-end="none" marker-mid="none" marker-start="none" d="M 10.655557,3.4062906 C 5.92063,4.094606 1.745653,7.1581206 2.07496,11.306254 C 2.296144,14.092425 4.892722,15.983071 7.593216,16.861998 L 6.60203,19.998532 L 10.296558,17.375419 C 10.868351,17.400214 11.957524,17.444437 12.553868,17.390131 C 17.062895,16.979524 22.545453,13.579381 22.023973,9.438994 C 21.496,5.2470647 16.495452,2.8516768 11.360544,3.3420917 C 11.122107,3.3648639 10.888422,3.3724404 10.655557,3.4062906 z" display="inline" opacity=".4" overflow="visible" visibility="visible" style="marker:none"/><path id="path3255" fill="#fff" fill-opacity="1" stroke="none" stroke-dasharray="none" stroke-linecap="round" stroke-linejoin="round" stroke-miterlimit="4" stroke-opacity="1" stroke-width="1.001" d="M 12.09375,4.8750004 C 11.841156,4.8388862 11.559922,4.8974488 11.375,5.0000004 C 11.190078,5.102552 11.156424,5.2163452 11.15625,5.2187504 C 11.156499,5.2291656 11.156499,5.2395852 11.15625,5.2500004 C 11.154473,5.2637858 11.151879,5.2716302 11.15625,5.3125004 C 11.654535,7.5262627 11.829164,9.689312 12.28125,11.78125 C 12.511983,11.769574 12.640238,11.761708 12.875,11.75 C 12.839149,9.684106 12.68618,7.6086523 12.71875,5.4687504 C 12.716503,5.4375408 12.716503,5.40621 12.71875,5.3750004 C 12.738579,5.2460159 12.638434,4.9262929 12.125,4.8750004 C 12.114585,4.8752497 12.104165,4.8752497 12.09375,4.8750004 z M 13.125,14 C 12.698028,13.953048 12.263067,14.074952 12.03125,14.28125 C 12.020835,14.281499 12.010415,14.281499 12,14.28125 C 11.726965,14.499721 11.625733,14.778647 11.65625,15 C 11.657248,15.020821 11.657248,15.041679 11.65625,15.0625 C 11.670827,15.29099 11.871364,15.56094 12.25,15.75 C 12.628636,15.93906 13.120154,15.977329 13.5,15.84375 C 13.510415,15.843501 13.520835,15.843501 13.53125,15.84375 C 13.903523,15.739734 14.153507,15.505206 14.25,15.25 C 14.346493,14.994794 14.315828,14.727856 14.125,14.5 C 14.114234,14.489939 14.103811,14.479516 14.09375,14.46875 C 13.921286,14.234401 13.552518,14.047012 13.125,14 z" font-family="Georgia" font-size="62.458" font-stretch="normal" font-style="normal" font-variant="normal" font-weight="normal" text-anchor="start" writing-mode="lr-tb" style="text-align:start;line-height:125%"/></g></svg>