<svg xmlns="http://www.w3.org/2000/svg" xmlns:svg="http://www.w3.org/2000/svg" xmlns:xlink="http://www.w3.org/1999/xlink" id="svg3823" width="24" height="24" version="1.1"><defs id="defs3825"><linearGradient id="linearGradient3097" x1="24" x2="24" y1="5" y2="43" gradientTransform="matrix(0.4594596,0,0,0.4594596,0.9729727,8.9729658)" gradientUnits="userSpaceOnUse" xlink:href="#linearGradient3308-4-6-931-761"/><linearGradient id="linearGradient3308-4-6-931-761"><stop id="stop2919" offset="0" stop-color="#fff" stop-opacity="1"/><stop id="stop2921" offset="1" stop-color="#fff" stop-opacity="0"/></linearGradient><linearGradient id="linearGradient3762" x1="23.97" x2="23.97" y1="3.981" y2="44.024" gradientTransform="matrix(0.47368421,0,0,0.47296517,0.631579,8.635174)" gradientUnits="userSpaceOnUse" xlink:href="#linearGradient4246"/><linearGradient id="linearGradient4246"><stop id="stop4248" offset="0" stop-color="#fff" stop-opacity="1"/><stop id="stop4250" offset="1" stop-color="#dcdcdc" stop-opacity="1"/></linearGradient><radialGradient id="radialGradient3066-0" cx="7.496" cy="8.45" r="20" fx="7.496" fy="8.45" gradientTransform="matrix(0,1.120399,-1.4996385,-4.7276386e-8,24.671651,2.3856436)" gradientUnits="userSpaceOnUse" xlink:href="#linearGradient3242"/><linearGradient id="linearGradient3242"><stop id="stop3244" offset="0" stop-color="#f89b7e" stop-opacity="1"/><stop id="stop3246" offset=".262" stop-color="#e35d4f" stop-opacity="1"/><stop id="stop3248" offset=".661" stop-color="#c6262e" stop-opacity="1"/><stop id="stop3250" offset="1" stop-color="#690b2c" stop-opacity="1"/></linearGradient><linearGradient id="linearGradient3069-5" x1="24" x2="24" y1="44" y2="3.899" gradientTransform="matrix(0.48717951,0,0,0.48717951,0.30769262,8.3076911)" gradientUnits="userSpaceOnUse" xlink:href="#linearGradient2490"/><linearGradient id="linearGradient2490"><stop id="stop2492" offset="0" stop-color="#791235" stop-opacity="1"/><stop id="stop2494" offset="1" stop-color="#dd3b27" stop-opacity="1"/></linearGradient><radialGradient id="radialGradient3082" cx="4.993" cy="43.5" r="2.5" fx="4.993" fy="43.5" gradientTransform="matrix(2.003784,0,0,1.4,27.98813,-17.4)" gradientUnits="userSpaceOnUse" xlink:href="#linearGradient3688-166-749"/><linearGradient id="linearGradient3688-166-749"><stop id="stop2883" offset="0" stop-color="#181818" stop-opacity="1"/><stop id="stop2885" offset="1" stop-color="#181818" stop-opacity="0"/></linearGradient><radialGradient id="radialGradient3084" cx="4.993" cy="43.5" r="2.5" fx="4.993" fy="43.5" gradientTransform="matrix(2.003784,0,0,1.4,-20.01187,-104.4)" gradientUnits="userSpaceOnUse" xlink:href="#linearGradient3688-464-309"/><linearGradient id="linearGradient3688-464-309"><stop id="stop2889" offset="0" stop-color="#181818" stop-opacity="1"/><stop id="stop2891" offset="1" stop-color="#181818" stop-opacity="0"/></linearGradient><linearGradient id="linearGradient3086" x1="25.058" x2="25.058" y1="47.028" y2="39.999" gradientUnits="userSpaceOnUse" xlink:href="#linearGradient3702-501-757"/><linearGradient id="linearGradient3702-501-757"><stop id="stop2895" offset="0" stop-color="#181818" stop-opacity="0"/><stop id="stop2897" offset=".5" stop-color="#181818" stop-opacity="1"/><stop id="stop2899" offset="1" stop-color="#181818" stop-opacity="0"/></linearGradient><linearGradient id="linearGradient3924"><stop id="stop3926" offset="0" stop-color="#fff" stop-opacity="1"/><stop id="stop3928" offset=".063" stop-color="#fff" stop-opacity=".235"/><stop id="stop3930" offset=".951" stop-color="#fff" stop-opacity=".157"/><stop id="stop3932" offset="1" stop-color="#fff" stop-opacity=".392"/></linearGradient><linearGradient id="linearGradient3302" x1="24" x2="24" y1="5" y2="43" gradientTransform="matrix(0.45945947,0,0,0.45945947,0.9742203,8.971733)" gradientUnits="userSpaceOnUse" xlink:href="#linearGradient3924"/></defs><metadata id="metadata3828"/><g id="layer1" transform="translate(0,-8)"><g id="g2036" display="inline" transform="matrix(0.55,0,0,0.3333336,-1.2000011,15.33331)"><g id="g3712" opacity=".4" transform="matrix(1.052632,0,0,1.285713,-1.263158,-13.42854)"><rect id="rect2801" width="5" height="7" x="38" y="40" fill="url(#radialGradient3082)" fill-opacity="1" stroke="none"/><rect id="rect3696" width="5" height="7" x="-10" y="-47" fill="url(#radialGradient3084)" fill-opacity="1" stroke="none" transform="scale(-1,-1)"/><rect id="rect3700" width="28" height="7" x="10" y="40" fill="url(#linearGradient3086)" fill-opacity="1" stroke="none"/></g></g><rect stroke-linejoin="round" style="marker:none" id="rect5505" width="19" height="19" x="2.5" y="10.5" fill="url(#radialGradient3066-0)" fill-opacity="1" fill-rule="nonzero" stroke="url(#linearGradient3069-5)" stroke-dasharray="none" stroke-dashoffset="0" stroke-linecap="round" stroke-miterlimit="4" stroke-opacity="1" stroke-width="1" color="#000" display="inline" enable-background="accumulate" overflow="visible" rx="1.087" ry="1.087" visibility="visible"/><path id="path6711-0-7-1" fill="#000" fill-opacity="1" fill-rule="evenodd" stroke="none" d="M 13.805921,12.446218 C 7.670651,17.710615 4.165793,18.453706 3,18.535646 l 0,1.891861 c 0.87994,-0.122864 3.091774,-0.549488 5.447368,-2.024883 3.02052,-1.891861 6.631579,-5.483441 6.631579,-5.483441 C 14.143103,14.754899 13.838451,20.86146 13.791118,29 l 6.261514,0 c 0.239346,0 0.45529,-0.09133 0.62171,-0.236482 -0.985523,-2.359925 -1.672398,-5.463187 -2.190789,-8.276891 -0.49145,-3.72935 0.234237,-6.989888 0.503289,-8.040409 l -5.180921,0 z M 3,21.6247 3,23.708702 c 2.207376,0 5.448275,2.304334 7.504934,5.291298 l 1.776316,0 C 10.249853,25.7417 4.685134,21.6247 3,21.6247 z" opacity=".05"/><path id="path6711-0-7" fill="#000" fill-opacity="1" fill-rule="evenodd" stroke="none" d="M 13.805921,11.973253 C 7.670651,17.237649 4.165793,17.980741 3,18.062681 l 0,1.89186 c 0.87994,-0.122863 3.091774,-0.549488 5.447368,-2.024882 3.02052,-1.891861 6.631579,-5.483441 6.631579,-5.483441 C 14.124933,14.317574 13.829151,20.622903 13.791118,29 l 6.261514,0 c 0.312643,0 0.582589,-0.152458 0.754934,-0.384284 -1.062297,-2.39366 -1.781453,-5.657165 -2.324013,-8.602054 -0.49145,-3.72935 0.234237,-6.989888 0.503289,-8.040409 l -5.180921,0 z M 3,21.151735 3,23.235737 c 2.32351,0 5.7879,2.548239 7.815789,5.764263 l 1.731908,0 C 10.804014,25.683018 4.768817,21.151735 3,21.151735 z" opacity=".1"/><path id="path6711-0" fill="#000" fill-opacity="1" fill-rule="evenodd" stroke="none" d="M 13.805921,11.500288 C 7.670651,16.764684 4.165793,17.507776 3,17.589715 l 0,1.891861 c 0.87994,-0.122864 3.091774,-0.549488 5.447368,-2.024882 3.02052,-1.891861 6.631579,-5.483441 6.631579,-5.483441 C 14.106757,13.880262 13.804942,20.382925 13.776316,29 l 6.276316,0 c 0.393631,0 0.729917,-0.23669 0.873355,-0.576427 -1.131719,-2.413359 -1.878909,-5.824194 -2.442434,-8.882876 -0.49145,-3.72935 0.234237,-6.989889 0.503289,-8.040409 l -5.180921,0 z M 3,20.678769 3,22.762771 c 2.436468,0 6.123205,2.800917 8.097039,6.237229 l 1.6875,0 C 11.411559,25.661116 4.853722,20.678769 3,20.678769 z" opacity=".25"/><path id="path6711" fill="url(#linearGradient3762)" fill-opacity="1" fill-rule="evenodd" stroke="none" d="M 13.805921,11 C 7.670651,16.264396 4.165793,17.007488 3,17.089426 l 0,1.891861 c 0.87994,-0.122863 3.091774,-0.549487 5.447368,-2.024881 3.02052,-1.891861 6.631579,-5.483441 6.631579,-5.483441 -0.99036,1.942651 -1.278759,8.641472 -1.297894,17.499712 l 6.330789,0 C 20.60751,28.972677 21,28.580783 21,28.085867 19.826353,25.665271 19.059364,22.165775 18.483553,19.040408 17.992103,15.311059 18.71779,12.05052 18.986842,11 l -5.180921,0 z M 3,20.172514 3,22.267858 c 2.547081,0 6.462819,3.05644 8.357082,6.704819 l 1.591094,0 C 12.058109,25.655944 4.943218,20.172514 3,20.172514 z"/><path id="path6713" fill="#000" fill-opacity="1" fill-rule="evenodd" stroke="none" d="M 19.268092,11.027323 C 16.856609,12.496433 8.961078,16.974163 3,16.407302 l 0,4.049765 c 0,0 13.25513,1.978743 18,-1.936202 l 0,-6.547612 c 0,-0.524045 -0.422526,-0.94593 -0.947368,-0.94593 l -0.78454,0 z" opacity=".1"/><path id="path6715" fill="#000" fill-opacity="1" fill-rule="evenodd" stroke="none" d="M 21,20.220584 C 18.614507,22.596501 16.162791,25.749989 14.53125,29 l 1.909539,0 C 17.761448,26.768955 19.483167,24.318471 21,22.807112 l 0,-2.586528 z" opacity=".1"/><rect id="rect6741-9" width="17" height="17" x="3.501" y="11.499" fill="none" stroke="url(#linearGradient3302)" stroke-dasharray="none" stroke-dashoffset="0" stroke-linecap="round" stroke-linejoin="round" stroke-miterlimit="4" stroke-opacity="1" stroke-width="1" opacity=".5"/></g></svg>