<svg xmlns="http://www.w3.org/2000/svg" xmlns:svg="http://www.w3.org/2000/svg" xmlns:xlink="http://www.w3.org/1999/xlink" id="svg3376" width="24" height="24" version="1.0"><defs id="defs3378"><linearGradient id="linearGradient3702-501-757"><stop id="stop2895" offset="0" stop-color="#181818" stop-opacity="0"/><stop id="stop2897" offset=".5" stop-color="#181818" stop-opacity="1"/><stop id="stop2899" offset="1" stop-color="#181818" stop-opacity="0"/></linearGradient><linearGradient id="linearGradient2554" x1="25.058" x2="25.058" y1="47.028" y2="39.999" gradientUnits="userSpaceOnUse" xlink:href="#linearGradient3702-501-757"/><linearGradient id="linearGradient3688-464-309"><stop id="stop2889" offset="0" stop-color="#181818" stop-opacity="1"/><stop id="stop2891" offset="1" stop-color="#181818" stop-opacity="0"/></linearGradient><radialGradient id="radialGradient2552" cx="4.993" cy="43.5" r="2.5" fx="4.993" fy="43.5" gradientTransform="matrix(2.003784,0,0,1.4,-20.01187,-104.4)" gradientUnits="userSpaceOnUse" xlink:href="#linearGradient3688-464-309"/><linearGradient id="linearGradient3688-166-749"><stop id="stop2883" offset="0" stop-color="#181818" stop-opacity="1"/><stop id="stop2885" offset="1" stop-color="#181818" stop-opacity="0"/></linearGradient><radialGradient id="radialGradient2550" cx="4.993" cy="43.5" r="2.5" fx="4.993" fy="43.5" gradientTransform="matrix(2.003784,0,0,1.4,27.98813,-17.4)" gradientUnits="userSpaceOnUse" xlink:href="#linearGradient3688-166-749"/><linearGradient id="linearGradient5554"><stop id="stop5556" offset="0" stop-color="#7d7f79" stop-opacity="1"/><stop id="stop5558" offset="1" stop-color="#a5a7a2" stop-opacity="1"/></linearGradient><linearGradient id="linearGradient2595" x1="16.066" x2="16.363" y1="26.937" y2="2.988" gradientTransform="matrix(0.5119994,0,0,0.5113879,-0.3295285,-0.2835504)" gradientUnits="userSpaceOnUse" xlink:href="#linearGradient5554"/><linearGradient id="linearGradient3368"><stop id="stop3370" offset="0" stop-color="#f1f1ef" stop-opacity="1"/><stop id="stop3372" offset="1" stop-color="#ccc" stop-opacity="1"/></linearGradient><radialGradient id="radialGradient2593" cx="4.08" cy="5.079" r="9.991" fx="4.08" fy="5.079" gradientTransform="matrix(0,1.4554793,-2.2034188,-3.5037039e-6,17.309584,-0.5030148)" gradientUnits="userSpaceOnUse" xlink:href="#linearGradient3368"/><linearGradient id="linearGradient5684"><stop id="stop5686" offset="0" stop-color="#fff" stop-opacity="1"/><stop id="stop5688" offset="1" stop-color="#fbfbfa" stop-opacity="0"/></linearGradient><linearGradient id="linearGradient2590" x1="11.054" x2="11.054" y1="7.069" y2="2.669" gradientTransform="matrix(1.0070317,0,0,1.0001135,0.8685415,0.9901662)" gradientUnits="userSpaceOnUse" xlink:href="#linearGradient5684"/><linearGradient id="linearGradient5566"><stop id="stop5568" offset="0" stop-color="#eeeeec" stop-opacity="1"/><stop id="stop5570" offset="1" stop-color="#eeeeec" stop-opacity="0"/></linearGradient><linearGradient id="linearGradient2588" x1="8.071" x2="8.133" y1="9.509" y2="5.696" gradientTransform="matrix(0.9997709,0,0,1.0001135,0.9956626,0.9901662)" gradientUnits="userSpaceOnUse" xlink:href="#linearGradient5566"/><linearGradient id="linearGradient5946"><stop id="stop5948" offset="0" stop-color="#fff" stop-opacity="1"/><stop id="stop5950" offset="1" stop-color="#fff" stop-opacity="0"/></linearGradient><linearGradient id="linearGradient2583" x1="39.767" x2="40.912" y1="38.498" y2="40.531" gradientTransform="matrix(0.4809353,0,0,0.483131,0.4058582,0.4311749)" gradientUnits="userSpaceOnUse" xlink:href="#linearGradient5946"/><linearGradient id="linearGradient5954"><stop id="stop5956" offset="0" stop-color="#fff" stop-opacity="1"/><stop id="stop5958" offset="1" stop-color="#fff" stop-opacity="0"/></linearGradient><linearGradient id="linearGradient2580" x1="9.19" x2="6.795" y1="38.017" y2="40.668" gradientTransform="matrix(0.4809353,0,0,0.483131,0.4058582,0.4311749)" gradientUnits="userSpaceOnUse" xlink:href="#linearGradient5954"/></defs><g id="layer1"><g id="g2036" display="inline" transform="matrix(0.5999998,0,0,0.3333336,-2.3000012,8.3333303)"><g id="g3712" opacity=".4" transform="matrix(1.052632,0,0,1.285713,-1.263158,-13.42854)"><rect id="rect2801" width="5" height="7" x="38" y="40" fill="url(#radialGradient2550)" fill-opacity="1" stroke="none"/><rect id="rect3696" width="5" height="7" x="-10" y="-47" fill="url(#radialGradient2552)" fill-opacity="1" stroke="none" transform="scale(-1,-1)"/><rect id="rect3700" width="28" height="7" x="10" y="40" fill="url(#linearGradient2554)" fill-opacity="1" stroke="none"/></g></g><path id="path5548" fill="#d3d7cf" fill-opacity="1" fill-rule="evenodd" stroke="none" stroke-linecap="butt" stroke-linejoin="miter" stroke-opacity="1" stroke-width="1" d="M 20.986371,2.6801238 L 18.865883,4.6844615 L 18.865883,19.152222 L 20.936759,21.066737 L 20.986371,2.6801238 z"/><rect id="rect4965" width="21" height="21" x="1.5" y="1.5" fill="url(#radialGradient2593)" fill-opacity="1" stroke="url(#linearGradient2595)" stroke-dasharray="none" stroke-dashoffset="0" stroke-linecap="round" stroke-linejoin="miter" stroke-miterlimit="4" stroke-opacity="1" stroke-width="1" rx="2.31" ry="2.31"/><rect id="rect5570" width="13" height="13" x="5.5" y="5.5" fill="url(#linearGradient2588)" fill-opacity="1" stroke="url(#linearGradient2590)" stroke-dasharray="none" stroke-dashoffset="0" stroke-linecap="round" stroke-linejoin="miter" stroke-miterlimit="4" stroke-opacity="1" stroke-width="1" rx=".661" ry=".659"/><rect id="rect5580" width="19" height="19" x="2.5" y="2.5" fill="none" fill-opacity="1" stroke="#fff" stroke-dasharray="none" stroke-dashoffset="0" stroke-linecap="round" stroke-linejoin="miter" stroke-miterlimit="4" stroke-opacity="1" stroke-width="1" opacity=".427" rx="1.241" ry="1.241"/><path id="path5574" fill="#eff0ed" fill-opacity="1" fill-rule="evenodd" stroke="#eff0ed" stroke-linecap="butt" stroke-linejoin="miter" stroke-opacity="1" stroke-width="1" d="M 20.519146,3.1662107 L 18.713756,4.9362972"/><path id="path5576" fill="none" fill-rule="evenodd" stroke="url(#linearGradient2583)" stroke-linecap="butt" stroke-linejoin="miter" stroke-opacity="1" stroke-width="1" d="M 18.583479,18.220269 L 20.479137,20.353448"/><path id="path5578" fill="none" fill-rule="evenodd" stroke="url(#linearGradient2580)" stroke-linecap="butt" stroke-linejoin="miter" stroke-opacity="1" stroke-width="1" d="M 5.2613877,18.286757 L 3.36573,20.419939"/><path id="text2424" fill="#000" fill-opacity="1" stroke="none" stroke-linecap="butt" stroke-linejoin="miter" stroke-opacity="1" stroke-width="1" d="M 13,16.075539 C 14.063307,15.891735 15.194925,15.300649 15.545297,14.211946 C 15.822574,13.336222 15.537795,12.248911 14.70315,11.780337 C 14.17311,11.273326 14.183822,12.190804 13.942805,12.516887 C 13.211837,14.10273 11.989378,15.555701 10.327388,16.199923 C 9.431333,16.522722 8.253096,16.553919 7.5717701,15.782232 C 6.9383792,14.990298 6.9922764,13.842879 7.3685123,12.949555 C 7.8560091,11.848803 8.91729,11.108641 10.032313,10.734214 C 10.032313,10.186385 10.032313,9.638556 10.032313,9.090729 C 9.204691,9.090729 8.3770685,9.090729 7.5494461,9.090729 C 7.5494461,8.7972504 7.5494461,8.5037712 7.5494461,8.2102908 C 8.3770685,8.2102908 9.204691,8.2102908 10.032313,8.2102908 C 10.032313,7.7309411 10.032313,7.2515921 10.032313,6.772242 C 10.365321,6.772242 10.698327,6.772242 11.031336,6.772242 C 11.031336,7.2515921 11.031336,7.7309411 11.031336,8.2102908 C 12.760039,8.2102908 14.48874,8.2102908 16.217442,8.2102908 C 16.217442,8.5037712 16.217442,8.7972504 16.217442,9.090729 C 14.48874,9.090729 12.760039,9.090729 11.031336,9.090729 C 11.031336,9.550513 11.031336,10.010298 11.031336,10.470083 C 12.451266,10.270332 14.018281,10.247425 15.285446,11.015543 C 16.137075,11.517979 16.683115,12.469984 16.671803,13.459602 C 16.738724,14.632986 16.055562,15.755222 15.055917,16.343067 C 14.510915,16.680429 13.892358,16.883974 13.264448,17 C 13.176298,16.691845 13.088148,16.383693 13,16.075539 z M 13.381979,11.335847 C 12.602129,11.231968 11.801309,11.261926 11.031336,11.42389 C 11.031336,12.53422 11.031336,13.64455 11.031336,14.754882 C 12.158439,13.903096 12.913104,12.649836 13.381979,11.335847 L 13.381979,11.335847 z M 10.032313,15.327166 C 10.032313,14.133682 10.032313,12.940201 10.032313,11.746717 C 9.0476448,12.163797 8.1076776,13.042362 8.1224161,14.182597 C 8.0948191,14.713753 8.3365512,15.352273 8.9236172,15.455621 C 9.295103,15.53803 9.681376,15.455333 10.032313,15.327167 L 10.032313,15.327166 z" font-family="Bitstream Vera Sans" font-size="28.694" font-style="normal" font-weight="normal" style="-inkscape-font-specification:Bitstream Vera Sans"/></g></svg>