<svg xmlns="http://www.w3.org/2000/svg" xmlns:svg="http://www.w3.org/2000/svg" xmlns:xlink="http://www.w3.org/1999/xlink" id="svg2454" width="24" height="24" version="1.1"><defs id="defs2456"><linearGradient id="linearGradient5048"><stop id="stop5050" offset="0" stop-color="#000" stop-opacity="0"/><stop id="stop5056" offset=".5" stop-color="#000" stop-opacity="1"/><stop id="stop5052" offset="1" stop-color="#000" stop-opacity="0"/></linearGradient><linearGradient id="linearGradient5060"><stop id="stop5062" offset="0" stop-color="#000" stop-opacity="1"/><stop id="stop5064" offset="1" stop-color="#000" stop-opacity="0"/></linearGradient><linearGradient id="linearGradient2601"><stop id="stop2603" offset="0" stop-color="#5d5d5d" stop-opacity="1"/><stop id="stop2605" offset="1" stop-color="#444" stop-opacity="1"/></linearGradient><linearGradient id="linearGradient2613"><stop id="stop2615" offset="0" stop-color="#fff" stop-opacity="1"/><stop id="stop2617" offset="1" stop-color="#fff" stop-opacity="0"/></linearGradient><linearGradient id="linearGradient2502"><stop id="stop2504" offset="0" stop-color="#fdfdfd" stop-opacity="1"/><stop id="stop2506" offset="1" stop-color="#d4d4d4" stop-opacity="1"/></linearGradient><linearGradient id="linearGradient2926" x1="5.464" x2="21.536" y1="13.143" y2="49.143" gradientTransform="matrix(0.471294,0,0,0.46050953,0.48696412,1.4455235)" gradientUnits="userSpaceOnUse" xlink:href="#linearGradient2613"/><radialGradient id="radialGradient2929" cx="27.216" cy="35.673" r="19.571" fx="27.216" fy="35.673" gradientTransform="matrix(1.4363066,0,0,1.0681623,-32.570827,-26.034042)" gradientUnits="userSpaceOnUse" xlink:href="#linearGradient2601"/><linearGradient id="linearGradient3010" x1="2.761" x2="18.773" y1="6.11" y2="18.693" gradientTransform="matrix(0.50607569,0,0,0.52812897,-21.560251,-0.91008558)" gradientUnits="userSpaceOnUse" xlink:href="#linearGradient2502"/><linearGradient id="linearGradient3036" x1="13.303" x2="8.693" y1="11.104" y2="18.146" gradientTransform="matrix(0.4852293,0,0,0.42676101,-0.67280082,0.71027256)" gradientUnits="userSpaceOnUse" xlink:href="#linearGradient2613"/><linearGradient id="linearGradient3041" x1="10.661" x2="10.661" y1="10.733" y2="19.656" gradientTransform="matrix(0.4852293,0,0,0.42676101,-0.67280082,0.71027256)" gradientUnits="userSpaceOnUse" xlink:href="#linearGradient2601"/><linearGradient id="linearGradient3057" x1="2.761" x2="18.773" y1="6.11" y2="18.693" gradientTransform="matrix(0.52674759,0,0,0.52557143,0.59834713,3.0430334)" gradientUnits="userSpaceOnUse" xlink:href="#linearGradient2502"/><radialGradient id="radialGradient3060" cx="605.714" cy="486.648" r="117.143" fx="605.714" fy="486.648" gradientTransform="matrix(-0.03549696,0,0,0.01235294,25.811839,16.470821)" gradientUnits="userSpaceOnUse" xlink:href="#linearGradient5060"/><radialGradient id="radialGradient3063" cx="605.714" cy="486.648" r="117.143" fx="605.714" fy="486.648" gradientTransform="matrix(0.03549696,0,0,0.01235294,-1.811834,16.470821)" gradientUnits="userSpaceOnUse" xlink:href="#linearGradient5060"/><linearGradient id="linearGradient3066" x1="302.857" x2="302.857" y1="366.648" y2="609.505" gradientTransform="matrix(0.03140949,0,0,0.01235294,0.64533726,16.470821)" gradientUnits="userSpaceOnUse" xlink:href="#linearGradient5048"/></defs><rect id="rect2990" width="20.145" height="3.437" x="-20.697" y="4.558" fill="url(#linearGradient3010)" fill-opacity="1" fill-rule="nonzero" stroke="#2b2b2b" stroke-dasharray="none" stroke-dashoffset="0" stroke-linecap="butt" stroke-linejoin="miter" stroke-miterlimit="4" stroke-opacity="1" stroke-width="1.001" display="block" rx="1.148" ry="1.133" transform="matrix(-0.97985854,0.19969289,0.15288024,0.98824472,0,0)" visibility="visible" style="marker:none"/><path id="path2992" fill="#000" fill-opacity="1" fill-rule="evenodd" stroke="none" d="M 18.453003,1.2861869 20.78893,3.6269221 18.346864,4.0296611 16.063056,1.812137 18.453003,1.2861869 z"/><path id="path2994" fill="#000" fill-opacity="1" fill-rule="evenodd" stroke="none" d="M 13.793867,2.249274 16.04987,4.5882118 13.633862,5.0525496 11.403918,2.7752161 13.793866,2.2492656 z"/><path id="path2996" fill="#000" fill-opacity="1" fill-rule="evenodd" stroke="none" d="M 8.9079879,3.2377727 11.150962,5.5459084 8.7349564,6.010269 6.5180416,3.7637387 8.9079902,3.2377884 z"/><path style="marker:none" id="path2998" fill="#000" fill-opacity="1" fill-rule="nonzero" stroke="none" stroke-width="1" d="M 1.7785156,4.6706948 3.8545303,6.9941084 6.2474089,6.5101789 4.0195559,4.2319396 1.7785163,4.6706995 z" display="block" visibility="visible"/><rect id="rect3000" width="19.202" height="2.172" x="-20.22" y="5.181" fill="none" stroke="#fff" stroke-dasharray="none" stroke-dashoffset="0" stroke-linecap="butt" stroke-linejoin="miter" stroke-miterlimit="4" stroke-opacity=".575" stroke-width="1.001" display="block" rx=".266" ry=".263" transform="matrix(-0.98002784,0.19886033,0.15374613,0.98811038,0,0)" visibility="visible" style="marker:none"/><rect id="rect4173" width="15.166" height="3" x="4.414" y="21" fill="url(#linearGradient3066)" fill-opacity="1" fill-rule="nonzero" stroke="none" stroke-width="1" display="inline" opacity=".5" overflow="visible" visibility="visible" style="marker:none"/><path id="path5058" fill="url(#radialGradient3063)" fill-opacity="1" fill-rule="nonzero" stroke="none" stroke-width="1" d="m 19.580773,21.000103 c 0,0 0,2.999835 0,2.999835 1.828006,0.0056 4.419228,-0.672111 4.419227,-1.50011 0,-0.828 -2.039916,-1.499724 -4.419227,-1.499725 z" display="inline" opacity=".5" overflow="visible" visibility="visible" style="marker:none"/><path id="path5018" fill="url(#radialGradient3060)" fill-opacity="1" fill-rule="nonzero" stroke="none" stroke-width="1" d="m 4.4192273,21.000103 c 0,0 0,2.999835 0,2.999835 C 2.5912215,24.005585 3.8e-8,23.327827 3.8e-8,22.499828 3.8e-8,21.671828 2.0399162,21.000104 4.4192273,21.000103 z" display="inline" opacity=".5" overflow="visible" visibility="visible" style="marker:none"/><rect id="rect1440" width="19.002" height="14.002" x="2.499" y="8.499" fill="url(#radialGradient2929)" fill-opacity="1" fill-rule="nonzero" stroke="#1b1b1b" stroke-dasharray="none" stroke-dashoffset="0" stroke-linecap="butt" stroke-linejoin="miter" stroke-miterlimit="4" stroke-opacity="1" stroke-width=".998" display="block" rx="1.139" ry="1.143" visibility="visible" style="marker:none"/><rect id="rect2609" width="17.001" height="12.001" x="3.5" y="9.5" fill="none" stroke="url(#linearGradient2926)" stroke-dasharray="none" stroke-dashoffset="0" stroke-linecap="butt" stroke-linejoin="miter" stroke-miterlimit="4" stroke-opacity="1" stroke-width=".999" display="block" opacity=".312" rx=".273" ry=".274" visibility="visible" style="marker:none"/><rect id="rect4362" width="20.968" height="3.421" x="1.497" y="8.484" fill="url(#linearGradient3057)" fill-opacity="1" fill-rule="nonzero" stroke="#2b2b2b" stroke-dasharray="none" stroke-dashoffset="0" stroke-linecap="butt" stroke-linejoin="miter" stroke-miterlimit="4" stroke-opacity="1" stroke-width="1" display="block" rx="1.15" ry="1.134" transform="matrix(0.99999809,-0.0019564,0.00192315,0.99999815,0,0)" visibility="visible" style="marker:none"/><path id="path4364" fill="#000" fill-opacity="1" fill-rule="evenodd" stroke="none" d="M 4.2587661,8.8672348 2.2314664,11.621007 4.8102238,11.523272 6.8037326,8.9002155 4.2587661,8.8672348 z"/><path id="path4366" fill="#000" fill-opacity="1" fill-rule="evenodd" stroke="none" d="M 9.2100757,8.8707915 7.2647599,11.606748 9.8266226,11.574363 11.755042,8.9037641 9.2100757,8.870783 z"/><path id="path4368" fill="#000" fill-opacity="1" fill-rule="evenodd" stroke="none" d="m 14.398889,8.85358 -1.936869,2.703278 2.561864,-0.03236 1.919973,-2.6379196 -2.544968,-0.032981 z"/><path style="marker:none" id="path4370" fill="#000" fill-opacity="1" fill-rule="nonzero" stroke="none" stroke-width="1" d="m 21.968872,8.819199 -1.762539,2.684635 -2.541211,0.0086 1.926122,-2.671063 2.377628,-0.022183 z" display="block" visibility="visible"/><rect id="rect4372" width="19.987" height="2.161" x="1.996" y="9.124" fill="none" stroke="#fff" stroke-dasharray="none" stroke-dashoffset="0" stroke-linecap="butt" stroke-linejoin="miter" stroke-miterlimit="4" stroke-opacity=".575" stroke-width="1" display="block" rx=".267" ry=".263" transform="matrix(0.99999616,-0.0027696,0.00100568,0.99999949,0,0)" visibility="visible" style="marker:none"/><path id="path3601" fill="none" stroke="#fff" stroke-dasharray="none" stroke-linecap="butt" stroke-linejoin="miter" stroke-miterlimit="4" stroke-opacity="1" stroke-width="1" d="m 5,15.505469 14.393529,0" opacity=".261"/><path id="path3603" fill="none" stroke="#fff" stroke-dasharray="none" stroke-linecap="butt" stroke-linejoin="miter" stroke-miterlimit="4" stroke-opacity="1" stroke-width="1" d="m 5,17.5 14.393529,0" opacity=".261"/><path id="path3607" fill="none" stroke="#fff" stroke-dasharray="none" stroke-linecap="butt" stroke-linejoin="miter" stroke-miterlimit="4" stroke-opacity="1" stroke-width="1" d="m 16.5,15 0,-2.060473" opacity=".261"/><path id="path3605" fill="none" stroke="#fff" stroke-dasharray="none" stroke-linecap="butt" stroke-linejoin="miter" stroke-miterlimit="4" stroke-opacity="1" stroke-width="1" d="m 5,17.5 14.393529,0" opacity=".261"/><path id="path3611" fill="none" stroke="#fff" stroke-dasharray="none" stroke-linecap="butt" stroke-linejoin="miter" stroke-miterlimit="4" stroke-opacity="1" stroke-width="1" d="m 11.5,15 0,-2.060473" opacity=".261"/><path id="path3615" fill="none" stroke="#fff" stroke-dasharray="none" stroke-linecap="butt" stroke-linejoin="miter" stroke-miterlimit="4" stroke-opacity="1" stroke-width="1" d="m 4.9999999,19.5 6.8368401,0" opacity=".261"/><path id="path3674" fill="#fff" fill-opacity="1" fill-rule="nonzero" stroke="none" d="m 10.715441,16.636018 c 0.03987,0.38177 0.08593,0.762512 0.138594,1.142326 L 10.11436,18.219512 C 10.0677,17.84636 10.02856,17.470619 9.9560799,17.102564 l 0.7593611,-0.466546 z"/><path id="path3676" fill="#fff" fill-opacity="1" fill-rule="nonzero" stroke="none" d="m 12.065837,16.966102 c -0.0085,0.822451 0.237935,0.471808 -0.670628,1.024127 0.286159,-0.515627 0.769125,-1.035702 1.245344,-0.571576 0.909344,0.166794 -0.50319,0.981758 0.124642,0.124333 0.912441,-0.897851 0.779889,-0.394572 1.545638,-0.343563 0.624746,0.170169 0.630351,0.02228 -0.200123,0.560365 0.01124,-0.01105 0.02248,-0.02209 0.03372,-0.03314 l 0.785615,-0.374573 c -0.0089,0.0153 -0.01775,0.03061 -0.02663,0.04591 -0.986606,0.66353 -0.585502,0.468237 -1.279968,0.366405 -0.654971,-0.129617 -1.00908,-0.218858 -0.0775,-0.587283 -0.399872,0.511813 -1.046218,1.305281 -1.620836,0.7448 -0.557466,-0.463012 0.748385,-0.9546 0.268331,-0.289141 -0.941407,0.584868 -0.84241,0.613842 -0.898659,-0.223852 l 0.77105,-0.442816 z"/><path id="path3678" fill="#fff" fill-opacity="1" fill-rule="nonzero" stroke="none" d="m 16.105097,16 c 0.05121,0.596476 0.07924,1.194388 0.142179,1.789751 0.499549,0.732067 -0.641154,1.832978 -0.472791,0.715489 0.120049,-1.283098 0.228221,-1.520572 1.238367,-1.930291 0.192205,0.388964 0.2975,0.84567 0.598005,1.079052 -1.698561,1.00932 0.594398,-0.585899 0.849599,-0.738632 0.163158,-0.04317 0.329829,-0.06539 0.495624,-0.09127 l -0.674064,0.568533 c -0.163131,0.02693 -0.328146,0.04703 -0.486042,0.103305 1.052312,-0.756126 -0.199474,0.333012 -0.879455,0.718937 -0.324176,-0.286469 -0.401283,-0.749345 -0.625801,-1.139316 1.104043,-0.877654 0.222013,-0.05587 0.223863,1.01947 -0.0995,0.929586 -1.165171,1.404167 -0.98788,0.121221 -0.06063,-0.586132 -0.08774,-1.179684 -0.186032,-1.759155 L 16.105097,16 z"/><path id="path3693" fill="#fff" fill-opacity="1" fill-rule="nonzero" stroke="none" d="m 5.3974406,13.959732 c 0.9715178,-0.719234 0.6014011,-0.151642 0.6020771,0.618702 -0.00782,0.693953 0.093843,1.379375 0.2467248,2.053565 L 5.5724162,17 C 5.4192015,16.320318 5.3166377,15.62955 5.3188055,14.930337 5.3082359,14.092649 5.1647952,13.876936 6.0375854,13.489473 l -0.6401448,0.470259 z"/><path id="path3695" fill="#fff" fill-opacity="1" fill-rule="nonzero" stroke="none" d="m 7.6888609,13.980915 c -0.013003,0.42635 -0.012795,0.853059 -0.0144,1.279583 -5.869e-4,0.17907 -5.335e-4,0.358141 -6.936e-4,0.537212 L 6.998977,16.145351 c -1.638e-4,-0.178825 -1.377e-4,-0.357651 -6.936e-4,-0.536476 -0.0016,-0.421576 -0.00128,-0.843349 -0.0144,-1.264744 l 0.7050202,-0.363216 z"/><path id="path3697" fill="#fff" fill-opacity="1" fill-rule="nonzero" stroke="none" d="m 8.8745879,13.326972 c 0.052699,0.429613 0.062482,0.892916 0.077444,1.334032 0.00427,0.130106 0.00704,0.260252 0.010559,0.390379 l -0.6709664,0.348064 c -0.00416,-0.129542 -0.00704,-0.259128 -0.012522,-0.388627 -0.019096,-0.439731 -0.02226,-0.889169 -0.1095384,-1.320633 l 0.7050202,-0.363215 z"/><path id="path3699" fill="#fff" fill-opacity="1" fill-rule="nonzero" stroke="none" d="m 10.168108,13 c -0.104663,0.368038 -0.143443,0.753043 -0.1801559,1.134853 -0.035961,0.41067 -0.052085,0.822639 -0.068645,1.234444 l -0.6707327,0.342402 c 0.015985,-0.411828 0.031784,-0.823733 0.061649,-1.234838 0.029543,-0.371226 0.044285,-0.758269 0.1528653,-1.113646 L 10.168108,13 z"/><path id="path3701" fill="#fff" fill-opacity="1" fill-rule="nonzero" stroke="none" d="m 4.640145,13.925436 c 0.4837824,0.103001 0.9746773,0.188041 1.4630959,0.271754 1.1471033,0.179187 2.2977738,0.338216 3.4510524,0.471293 C 10.036589,14.71839 10.518539,14.771135 11,14.828561 l -0.623197,0.445821 C 9.8997061,15.214776 9.4221735,15.159041 8.944309,15.105943 7.7905972,14.965444 6.6387902,14.806696 5.4895869,14.632737 4.9943894,14.552247 4.4961816,14.453948 4,14.395694 l 0.640145,-0.470258 z"/><path id="path3583" fill="url(#linearGradient3041)" fill-opacity="1" fill-rule="evenodd" stroke="#1b1b1b" stroke-dasharray="none" stroke-linecap="butt" stroke-linejoin="miter" stroke-miterlimit="4" stroke-opacity="1" stroke-width="1.015" d="M 3.9514533,9.38121 6.3931747,7.5684598 C 6.5387818,7.4603604 6.5233258,7.2806215 6.3574133,7.1778148 L 3.3465296,5.5714611 C 3.0170681,5.3956885 2.4648531,5.6060023 2.5100929,5.8969253 l 0.085647,2.9610659 C 2.5267645,9.3785419 3.5706342,9.6639328 3.9514533,9.38121 z"/><path style="marker:none" id="path3587" fill="#fff" fill-opacity="1" fill-rule="nonzero" stroke="none" stroke-width="1" d="m 3.6769333,6.614566 a 0.2339499,0.20575983 0 0 1 -0.4678998,0 0.2339499,0.20575983 0 1 1 0.4678998,0 z" display="block" visibility="visible"/><path style="marker:none" id="path3589" fill="#fff" fill-opacity="1" fill-rule="nonzero" stroke="none" stroke-width="1" d="m 3.6769333,8.5824899 a 0.23394986,0.20575979 0 0 1 -0.4678997,0 0.23394986,0.20575979 0 1 1 0.4678997,0 z" display="block" visibility="visible"/><path id="path10163" fill="none" stroke="url(#linearGradient3036)" stroke-dasharray="none" stroke-linecap="butt" stroke-linejoin="round" stroke-miterlimit="4" stroke-opacity="1" stroke-width="1.015" d="M 3.843647,8.9419517 5.8672565,7.3798251 3.02424,5.9066239 3.0875703,8.7635097 C 3.0406481,9.11289 3.5845859,9.1317085 3.843647,8.9419517 z" opacity=".4"/></svg>