<svg xmlns="http://www.w3.org/2000/svg" xmlns:svg="http://www.w3.org/2000/svg" xmlns:xlink="http://www.w3.org/1999/xlink" id="svg2" width="24" height="24" version="1.0"><defs id="defs4"><linearGradient id="linearGradient3509"><stop id="stop3511" offset="0" stop-color="#505050" stop-opacity="1"/><stop id="stop3513" offset="1" stop-color="#505050" stop-opacity="1"/></linearGradient><linearGradient id="linearGradient3507" x1="18.432" x2="18.432" y1="46.076" y2="42.812" gradientTransform="matrix(0.5440358,0,0,0.4373656,-1.0568614,3.5977124)" gradientUnits="userSpaceOnUse" xlink:href="#linearGradient3509"/><linearGradient id="linearGradient3505" x1="29.027" x2="28.942" y1="13.574" y2="44.196" gradientTransform="matrix(0.5432267,0,0,0.4374753,-1.0374389,3.594576)" gradientUnits="userSpaceOnUse" xlink:href="#linearGradient8025"/><linearGradient id="linearGradient3272"><stop id="stop3274" offset="0" stop-color="#505050" stop-opacity="1"/><stop id="stop3276" offset="1" stop-color="#ececec" stop-opacity="1"/></linearGradient><linearGradient id="linearGradient3497" x1="19.519" x2="19.519" y1="40.102" y2="45.248" gradientTransform="matrix(0.5440878,0,0,0.4061873,-1.0581091,4.0174743)" gradientUnits="userSpaceOnUse" xlink:href="#linearGradient3272"/><linearGradient id="linearGradient8025"><stop id="stop8027" offset="0" stop-color="#d8d8d8" stop-opacity="1"/><stop id="stop8029" offset="1" stop-color="#8b8b8b" stop-opacity="1"/></linearGradient><linearGradient id="linearGradient3495" x1="29.027" x2="28.942" y1="13.574" y2="44.196" gradientTransform="matrix(0.5432787,0,0,0.4062892,-1.0386849,4.0145615)" gradientUnits="userSpaceOnUse" xlink:href="#linearGradient8025"/><linearGradient id="linearGradient3258"><stop id="stop3260" offset="0" stop-color="silver" stop-opacity="1"/><stop id="stop3262" offset="1" stop-color="#484848" stop-opacity="1"/></linearGradient><linearGradient id="linearGradient3492" x1="18.813" x2="18.813" y1="15.495" y2="19.285" gradientTransform="matrix(0.5138785,0,0,0.3810859,-0.4390411,4.639052)" gradientUnits="userSpaceOnUse" xlink:href="#linearGradient3258"/><linearGradient id="linearGradient3162"><stop id="stop3164" offset="0" stop-color="#fff" stop-opacity="1"/><stop id="stop3166" offset="1" stop-color="#cdcdcd" stop-opacity="1"/></linearGradient><linearGradient id="linearGradient3490" x1="25" x2="25" y1="45.064" y2="23.928" gradientTransform="matrix(0.3834816,0,0,0.2931629,2.7119172,7.1624973)" gradientUnits="userSpaceOnUse" xlink:href="#linearGradient3162"/><linearGradient id="linearGradient3300"><stop id="stop3302" offset="0" stop-color="#949494" stop-opacity="1"/><stop id="stop3304" offset="1" stop-color="#090909" stop-opacity="1"/></linearGradient><linearGradient id="linearGradient3485" x1="23.377" x2="23.377" y1="29.139" y2="39.17" gradientTransform="matrix(0.675793,0,0,0.4931282,-4.4675828,-0.1431244)" gradientUnits="userSpaceOnUse" xlink:href="#linearGradient3300"/><linearGradient id="linearGradient3411"><stop id="stop3413" offset="0" stop-color="#600000" stop-opacity="1"/><stop id="stop3415" offset="1" stop-color="#ac2727" stop-opacity="1"/></linearGradient><linearGradient id="linearGradient3482" x1="11.115" x2="11.115" y1="10.61" y2=".593" gradientTransform="matrix(0.5085298,0,0,0.4422877,-0.156395,1.859908e-2)" gradientUnits="userSpaceOnUse" xlink:href="#linearGradient3411"/><linearGradient id="linearGradient27561"><stop id="stop27563" offset="0" stop-color="#cb6060" stop-opacity="1"/><stop id="stop27565" offset="1" stop-color="#6e0707" stop-opacity="1"/></linearGradient><linearGradient id="linearGradient3480" x1="18.053" x2="18.053" y1="7.101" y2="10.61" gradientTransform="matrix(0.7074741,0,0,0.7048962,-5.1307086,-2.9883891)" gradientUnits="userSpaceOnUse" xlink:href="#linearGradient27561"/><linearGradient id="linearGradient3231"><stop id="stop3233" offset="0" stop-color="#e0e0e0" stop-opacity="1"/><stop id="stop3235" offset="1" stop-color="#444" stop-opacity="1"/></linearGradient><linearGradient id="linearGradient3477" x1="23.914" x2="23.914" y1="4.463" y2="28.292" gradientTransform="matrix(0.5241265,0,0,0.5671322,-0.5341901,-2.316741)" gradientUnits="userSpaceOnUse" xlink:href="#linearGradient3231"/><linearGradient id="linearGradient22681"><stop id="stop22683" offset="0" stop-color="#c4c4c4" stop-opacity="1"/><stop id="stop22685" offset="1" stop-color="#818181" stop-opacity="1"/></linearGradient><linearGradient id="linearGradient3475" x1="23.914" x2="23.914" y1="20.529" y2="27.254" gradientTransform="matrix(0.5241265,0,0,0.5671322,-0.5341901,-2.316741)" gradientUnits="userSpaceOnUse" spreadMethod="reflect" xlink:href="#linearGradient22681"/><linearGradient id="linearGradient26574"><stop id="stop26576" offset="0" stop-color="#f9f9f9" stop-opacity="1"/><stop id="stop26578" offset="1" stop-color="#7e7e7e" stop-opacity="1"/></linearGradient><linearGradient id="linearGradient3472" x1="23.829" x2="23.829" y1="11.422" y2="5.947" gradientTransform="matrix(0.8495594,0,0,0.6404109,-8.3172523,-3.5068492)" gradientUnits="userSpaceOnUse" xlink:href="#linearGradient26574"/></defs><metadata id="metadata7"/><g id="layer1"><path id="path3499" fill="url(#linearGradient3505)" fill-opacity="1" stroke="url(#linearGradient3507)" stroke-dasharray="none" stroke-dashoffset="0" stroke-linecap="butt" stroke-linejoin="round" stroke-miterlimit="4" stroke-opacity="1" stroke-width="1" d="M 6.0075304,9.5004929 C 4.7919762,9.481149 3.6972366,10.275062 3.5969633,11.250395 C 3.5719905,11.304126 1.558339,21.200595 1.5168007,21.284983 C 1.3581051,22.33881 2.3525511,23.407916 3.6897072,23.486029 C 4.8271622,23.491694 6.9413025,23.483821 8.0785828,23.486029 L 8.0785828,23.499699 C 9.3860715,23.500042 10.692904,23.499707 12,23.499699 C 13.307096,23.499707 14.613928,23.500042 15.921417,23.499699 L 15.921417,23.486029 C 17.058698,23.483821 19.172837,23.491694 20.310293,23.486029 C 21.647449,23.407916 22.641895,22.33881 22.483199,21.284983 C 22.44166,21.200595 20.428009,11.304126 20.403038,11.250395 C 20.302762,10.275062 19.208025,9.481149 17.992469,9.5004929 C 15.63982,9.5037528 13.879718,9.5118274 12,9.5141643 C 10.120282,9.5118274 8.3601788,9.5037528 6.0075304,9.5004929 z"/><path id="rect2462" fill="url(#linearGradient3495)" fill-opacity="1" stroke="url(#linearGradient3497)" stroke-dasharray="none" stroke-dashoffset="0" stroke-linecap="butt" stroke-linejoin="round" stroke-miterlimit="4" stroke-opacity="1" stroke-width=".998" d="M 6.0069577,9.4994656 C 4.7912873,9.4814999 3.6964431,10.218818 3.5961603,11.124623 C 3.5711852,11.174523 1.5573412,20.365505 1.515799,20.443878 C 1.3570882,21.422581 2.3516293,22.415473 3.6889131,22.488019 C 4.8264767,22.493279 6.940819,22.485968 8.078208,22.488019 L 8.078208,22.500714 C 9.3858217,22.501032 10.692779,22.500721 12,22.500714 C 13.307221,22.500721 14.614178,22.501032 15.921791,22.500714 L 15.921791,22.488019 C 17.059181,22.485968 19.173523,22.493279 20.311086,22.488019 C 21.648371,22.415473 22.642912,21.422581 22.484201,20.443878 C 22.442659,20.365505 20.428814,11.174523 20.403841,11.124623 C 20.303556,10.218818 19.208713,9.4814999 17.993041,9.4994656 C 15.640168,9.5024927 13.879898,9.5099918 12,9.5121621 C 10.120102,9.5099918 8.359831,9.5024927 6.0069577,9.4994656 z"/><path id="path3254" fill="url(#linearGradient3490)" fill-opacity="1" stroke="url(#linearGradient3492)" stroke-dasharray="none" stroke-dashoffset="0" stroke-linecap="butt" stroke-linejoin="round" stroke-miterlimit="4" stroke-opacity="1" stroke-width=".997" d="M 7.3422948,10.498711 C 6.4841944,10.485746 5.7113828,11.017768 5.6405964,11.671362 C 5.6229668,11.70737 4.5395579,18.960732 4.5102348,19.017282 C 4.398206,19.723479 5.1002183,20.439912 6.0441594,20.492256 C 6.8471248,20.496054 8.3443694,20.490778 9.1472123,20.492256 L 9.1472123,20.501419 C 10.070214,20.50165 10.992748,20.501424 11.915469,20.501419 C 12.838191,20.501424 13.760725,20.50165 14.683726,20.501419 L 14.683726,20.492256 C 15.486568,20.490778 17.152874,20.496054 17.955841,20.492256 C 18.899783,20.439912 19.601792,19.723479 19.489766,19.017282 C 19.460444,18.960732 18.207971,11.70737 18.190342,11.671362 C 18.119555,11.017768 17.346743,10.485746 16.488643,10.498711 C 14.827832,10.500896 13.242424,10.506306 11.915469,10.507873 C 10.588515,10.506306 9.0031053,10.500896 7.3422948,10.498711 z"/><path id="path3280" fill="url(#linearGradient3485)" fill-opacity="1" fill-rule="evenodd" stroke="none" stroke-dasharray="none" stroke-linecap="butt" stroke-linejoin="round" stroke-miterlimit="4" stroke-opacity="1" stroke-width=".504" d="M 10,11 L 10,16 L 7.5,16 L 12,19 L 16.5,16 L 14,16 L 14,11 L 10,11 z"/><rect id="rect3339" width="15.981" height="3.981" x="4.01" y=".51" fill="url(#linearGradient3480)" fill-opacity="1" stroke="url(#linearGradient3482)" stroke-dasharray="none" stroke-dashoffset="0" stroke-linecap="butt" stroke-linejoin="round" stroke-miterlimit="4" stroke-opacity="1" stroke-width="1.019" rx="2.044" ry="1.99"/><rect id="rect3317" width="3.005" height="13.005" x="10.498" y=".498" fill="url(#linearGradient3475)" fill-opacity="1" stroke="url(#linearGradient3477)" stroke-dasharray="none" stroke-dashoffset="0" stroke-linecap="butt" stroke-linejoin="round" stroke-miterlimit="4" stroke-opacity="1" stroke-width=".995" rx=".19" ry=".205"/><rect id="rect3329" width="4" height="4" x="10" y="0" fill="url(#linearGradient3472)" fill-opacity="1" stroke="none" stroke-dasharray="none" stroke-dashoffset="0" stroke-linecap="butt" stroke-linejoin="round" stroke-miterlimit="4" stroke-opacity="1" stroke-width="1" rx="0" ry="0"/></g></svg>