<svg xmlns="http://www.w3.org/2000/svg" xmlns:svg="http://www.w3.org/2000/svg" xmlns:xlink="http://www.w3.org/1999/xlink" id="svg2" width="24" height="24" version="1.0"><defs id="defs4"><linearGradient id="linearGradient10691"><stop id="stop10693" offset="0" stop-color="#000" stop-opacity="1"/><stop id="stop10695" offset="1" stop-color="#000" stop-opacity="0"/></linearGradient><radialGradient id="radialGradient2540" cx="6.703" cy="73.616" r="7.228" fx="6.703" fy="73.616" gradientTransform="scale(1.902215,0.525703)" gradientUnits="userSpaceOnUse" xlink:href="#linearGradient10691"/><linearGradient id="linearGradient2190"><stop id="stop2192" offset="0" stop-color="#dadada" stop-opacity="1"/><stop id="stop2196" offset="1" stop-color="#707070" stop-opacity="1"/></linearGradient><linearGradient id="linearGradient2554" x1="72.679" x2="72.679" y1="204.053" y2="180.043" gradientTransform="matrix(9.73309e-2,0,0,9.528545e-2,4.9260911,1.211369)" gradientUnits="userSpaceOnUse" xlink:href="#linearGradient2190"/><linearGradient id="linearGradient2327-988-473"><stop id="stop2920" offset="0" stop-color="#2f537b" stop-opacity="1"/><stop id="stop2922" offset="1" stop-color="#76a7dd" stop-opacity="1"/></linearGradient><linearGradient id="linearGradient2550" x1="35.898" x2="35.898" y1="35.221" y2="2.918" gradientTransform="matrix(0.4960448,0,0,0.5115904,4.5412227e-2,-1.5944102e-2)" gradientUnits="userSpaceOnUse" xlink:href="#linearGradient2327-988-473"/><linearGradient id="linearGradient6240"><stop id="stop6242" offset="0" stop-color="#fff" stop-opacity="1"/><stop id="stop6244" offset="1" stop-color="#fff" stop-opacity="0"/></linearGradient><linearGradient id="linearGradient6034" x1="20.157" x2="20.157" y1="5.1" y2="26.039" gradientTransform="matrix(0.5838421,0,0,0.6097826,-2.01679,-3.378261)" gradientUnits="userSpaceOnUse" xlink:href="#linearGradient6240"/></defs><metadata id="metadata7"/><g id="layer1"><path id="path2883" fill="url(#radialGradient2540)" fill-opacity="1" fill-rule="nonzero" stroke="none" stroke-dashoffset="0" stroke-linecap="butt" stroke-linejoin="miter" stroke-miterlimit="4" stroke-opacity="1" stroke-width=".8" marker-end="none" marker-mid="none" marker-start="none" d="M 26.5,38.700001 A 13.75,3.8 0 1 1 -1,38.700001 A 13.75,3.8 0 1 1 26.5,38.700001 z" display="inline" opacity=".5" overflow="visible" transform="matrix(0.8236694,0,0,0.9151882,1.498215,-15.145499)" visibility="visible" style="marker:none"/><path id="path2170" fill="#b3b3b3" fill-opacity="1" fill-rule="evenodd" stroke="#4d4d4d" stroke-dasharray="none" stroke-linecap="round" stroke-linejoin="round" stroke-miterlimit="4" stroke-opacity="1" stroke-width=".52" d="M 6.9999998,18.253402 C 6.9999998,18.253402 6.2775208,21.238883 6.2775208,21.438312 C 6.2775208,21.626693 6.1149528,22.740129 6.7765798,22.740129 C 7.4266288,22.740129 16.845856,22.740129 17.350707,22.740129 C 17.856509,22.740129 17.694737,21.40682 17.738565,21.301703 C 17.780955,21.200037 17,18.25 17,18.25 L 6.9999998,18.253402 z"/><path id="path2186" fill="url(#linearGradient2554)" fill-opacity="1" fill-rule="evenodd" stroke="#b3b3b3" stroke-dasharray="none" stroke-linecap="round" stroke-linejoin="round" stroke-miterlimit="4" stroke-opacity="1" stroke-width=".519" d="M 6.9999998,17.012906 C 6.9999998,17.012906 6.4473598,19.986605 6.3207248,20.449282 C 6.1949518,20.908808 6.2228748,20.990328 6.7991633,20.990328 C 7.3638173,20.990328 16.813155,20.990328 17.269751,20.990328 C 17.737834,20.990328 17.788925,20.827543 17.709854,20.444081 C 17.632534,20.06912 17,17.009672 17,17.009672 L 6.9999998,17.012906 z" opacity=".6"/><path id="rect3170" fill="#333" fill-opacity="1" fill-rule="evenodd" stroke="#1a1a1a" stroke-dasharray="none" stroke-dashoffset="0" stroke-linecap="round" stroke-linejoin="round" stroke-miterlimit="4" stroke-opacity="1" stroke-width=".509" marker-end="none" marker-mid="none" marker-start="none" d="M 1.0939778,0.25458836 C 8.3646592,0.25458836 15.635341,0.25458836 22.906022,0.25458836 C 23.716582,0.24781673 23.785841,1.1512769 23.73161,1.7746345 C 23.73161,7.1447002 23.731608,12.514766 23.731608,17.88483 C 23.738216,18.715849 22.856995,18.786855 22.248984,18.731255 C 15.197315,18.731255 8.1456463,18.731255 1.0939778,18.731255 C 0.2834173,18.738028 0.21415894,17.834568 0.26839077,17.21121 C 0.26839077,11.841144 0.26839077,6.4710789 0.26839077,1.1010132 C 0.25767445,0.64603801 0.65005293,0.2436393 1.0939778,0.25458836 z" display="inline" enable-background="accumulate" overflow="visible" visibility="visible" style="marker:none"/><path id="rect4151" fill="url(#linearGradient2550)" fill-opacity="1" fill-rule="evenodd" stroke="#000" stroke-dasharray="none" stroke-dashoffset="0" stroke-linecap="round" stroke-linejoin="round" stroke-miterlimit="4" stroke-opacity="1" stroke-width=".509" marker-end="none" marker-mid="none" marker-start="none" d="M 1.2544863,1.2544866 C 8.4181627,1.2544866 15.581839,1.2544866 22.745514,1.2544866 C 22.745514,6.7514953 22.745514,12.248504 22.745514,17.745514 C 15.581839,17.745514 8.4181627,17.745514 1.2544863,17.745514 C 1.2544863,12.248504 1.2544863,6.7514953 1.2544863,1.2544866 z" display="inline" enable-background="accumulate" overflow="visible" visibility="visible" style="marker:none"/><path id="path4073" fill="url(#linearGradient6034)" fill-opacity="1" fill-rule="evenodd" stroke="none" stroke-linecap="butt" stroke-linejoin="miter" stroke-opacity="1" stroke-width="1" d="M 1.5,1.5191301 L 1.5,12.5 C 11.10096,11.674202 14.694065,6.3336231 22.499995,5.7756511 L 22.5,1.5000001 L 1.5,1.5191301 z" opacity=".4"/><path id="path2248" fill="#000" fill-opacity="1" fill-rule="nonzero" stroke="none" stroke-dasharray="none" stroke-dashoffset="0" stroke-linecap="round" stroke-linejoin="miter" stroke-miterlimit="4" stroke-opacity="1" stroke-width="1" marker-end="none" marker-mid="none" marker-start="none" d="M 26.295533,12.147767 A 2.1477668,2.1477668 0 1 1 21.999999,12.147767 A 2.1477668,2.1477668 0 1 1 26.295533,12.147767 z" display="inline" opacity=".4" overflow="visible" transform="matrix(0.7841712,0,0,0.7841699,-6.6833351,-4.3416985)" visibility="visible" style="marker:none"/><path id="path2250" fill="#000" fill-opacity="1" fill-rule="nonzero" stroke="none" stroke-dasharray="none" stroke-dashoffset="0" stroke-linecap="round" stroke-linejoin="miter" stroke-miterlimit="4" stroke-opacity="1" stroke-width="1" marker-end="none" marker-mid="none" marker-start="none" d="M 26.295533,12.147767 A 2.1477668,2.1477668 0 1 1 21.999999,12.147767 A 2.1477668,2.1477668 0 1 1 26.295533,12.147767 z" display="inline" opacity=".4" overflow="visible" transform="matrix(0.6273355,0,0,0.6273348,-6.2645319,-1.0891339)" visibility="visible" style="marker:none"/><path id="path2252" fill="#000" fill-opacity="1" fill-rule="nonzero" stroke="none" stroke-dasharray="none" stroke-dashoffset="0" stroke-linecap="round" stroke-linejoin="miter" stroke-miterlimit="4" stroke-opacity="1" stroke-width="1" marker-end="none" marker-mid="none" marker-start="none" d="M 26.295533,12.147767 A 2.1477668,2.1477668 0 1 1 21.999999,12.147767 A 2.1477668,2.1477668 0 1 1 26.295533,12.147767 z" display="inline" opacity=".4" overflow="visible" transform="matrix(0.4705018,0,0,0.4705011,-3.8247175,4.1844614)" visibility="visible" style="marker:none"/><path id="path2254" fill="#000" fill-opacity="1" fill-rule="nonzero" stroke="none" stroke-dasharray="none" stroke-dashoffset="0" stroke-linecap="round" stroke-linejoin="miter" stroke-miterlimit="4" stroke-opacity="1" stroke-width="1" marker-end="none" marker-mid="none" marker-start="none" d="M 26.295533,12.147767 A 2.1477668,2.1477668 0 1 1 21.999999,12.147767 A 2.1477668,2.1477668 0 1 1 26.295533,12.147767 z" display="inline" opacity=".4" overflow="visible" transform="matrix(0.4705018,0,0,0.4705011,-2.4773489,7.5528829)" visibility="visible" style="marker:none"/><path id="path2256" fill="#000" fill-opacity="1" fill-rule="nonzero" stroke="none" stroke-dasharray="none" stroke-dashoffset="0" stroke-linecap="round" stroke-linejoin="miter" stroke-miterlimit="4" stroke-opacity="1" stroke-width="1" marker-end="none" marker-mid="none" marker-start="none" d="M 26.295533,12.147767 A 2.1477668,2.1477668 0 1 1 21.999999,12.147767 A 2.1477668,2.1477668 0 1 1 26.295533,12.147767 z" display="inline" opacity=".4" overflow="visible" transform="matrix(0.4116891,0,0,0.4116885,2.3112685,9.6146937)" visibility="visible" style="marker:none"/><path id="path2258" fill="#000" fill-opacity="1" fill-rule="nonzero" stroke="none" stroke-dasharray="none" stroke-dashoffset="0" stroke-linecap="round" stroke-linejoin="miter" stroke-miterlimit="4" stroke-opacity="1" stroke-width="1" marker-end="none" marker-mid="none" marker-start="none" d="M 26.295533,12.147767 A 2.1477668,2.1477668 0 1 1 21.999999,12.147767 A 2.1477668,2.1477668 0 1 1 26.295533,12.147767 z" display="inline" opacity=".4" overflow="visible" transform="matrix(0.3136661,0,0,0.3136661,8.0467155,9.7371291)" visibility="visible" style="marker:none"/></g></svg>