<svg xmlns="http://www.w3.org/2000/svg" xmlns:svg="http://www.w3.org/2000/svg" xmlns:xlink="http://www.w3.org/1999/xlink" id="svg2417" width="48" height="48" version="1.0"><defs id="defs2419"><linearGradient id="linearGradient6297"><stop id="stop6299" offset="0" stop-color="#d87468" stop-opacity="1"/><stop id="stop6281" offset="1" stop-color="#8f3025" stop-opacity="1"/></linearGradient><linearGradient id="linearGradient6334" x1="8.813" x2="19.725" y1="5.939" y2="29.857" gradientTransform="translate(0,1.9833326)" gradientUnits="userSpaceOnUse" xlink:href="#linearGradient6297"/><linearGradient id="linearGradient2456"><stop id="stop2458" offset="0" stop-color="#000" stop-opacity="1"/><stop id="stop2460" offset="1" stop-color="#000" stop-opacity="0"/></linearGradient><radialGradient id="radialGradient6331" cx="28.284" cy="47.401" r="13.804" fx="28.284" fy="47.401" gradientTransform="matrix(1.7385775,0,0,1.2826837,-25.173331,-31.506667)" gradientUnits="userSpaceOnUse" xlink:href="#linearGradient2456"/><linearGradient id="linearGradient6699"><stop id="stop6701" offset="0" stop-color="#f8b17e" stop-opacity="1"/><stop id="stop6295" offset="1" stop-color="#c6262e" stop-opacity="1"/></linearGradient><linearGradient id="linearGradient6327" x1="-25.286" x2="-16.965" y1="17.743" y2="32.403" gradientTransform="matrix(1.6629504,0,0,2.075635,54.992555,-26.273307)" gradientUnits="userSpaceOnUse" xlink:href="#linearGradient6699"/><linearGradient id="linearGradient6711"><stop id="stop6713" offset="0" stop-color="#8badea" stop-opacity="1"/><stop id="stop6715" offset="1" stop-color="#3b7caf" stop-opacity="1"/></linearGradient><linearGradient id="linearGradient6323" x1="-15.861" x2="-11.915" y1="25.283" y2="30.298" gradientTransform="matrix(1.662906,0,0,2.2591945,54.992262,-32.169765)" gradientUnits="userSpaceOnUse" xlink:href="#linearGradient6711"/><linearGradient id="linearGradient6719"><stop id="stop6721" offset="0" stop-color="#8cab2a" stop-opacity="1"/><stop id="stop6723" offset="1" stop-color="#d7e866" stop-opacity="1"/></linearGradient><linearGradient id="linearGradient6319" x1="-15.06" x2="-19.197" y1="33.736" y2="26.485" gradientTransform="matrix(1.6710242,0,0,2.2484561,55.349573,-31.970094)" gradientUnits="userSpaceOnUse" xlink:href="#linearGradient6719"/><linearGradient id="linearGradient6316" x1="-20.75" x2="-19.5" y1="29" y2="18.75" gradientTransform="matrix(1.6595737,0,0,2.0645149,54.90956,-25.839218)" gradientUnits="userSpaceOnUse" xlink:href="#linearGradient6687"/><linearGradient id="linearGradient6687"><stop id="stop6689" offset="0" stop-color="#fff" stop-opacity="1"/><stop id="stop6691" offset="1" stop-color="#fff" stop-opacity="0"/></linearGradient><linearGradient id="linearGradient6313" x1="-20.75" x2="-19.5" y1="29" y2="18.75" gradientTransform="matrix(1.6595755,0,0,1.9354855,54.909593,-18.694127)" gradientUnits="userSpaceOnUse" xlink:href="#linearGradient6687"/></defs><g id="layer1"><path id="path6298" fill="url(#linearGradient6334)" fill-opacity="1" fill-rule="nonzero" stroke="none" stroke-dasharray="none" stroke-miterlimit="4" stroke-opacity="1" stroke-width="1" d="M 24,6.9833316 C 16.353012,6.9333898 8.2859562,10.625866 4.65625,17.608332 C 3.0140758,20.527426 2.9268123,23.913449 3,27.170832 C 2.7597165,31.011827 4.0183786,34.899514 6.625,37.764582 C 10.078752,41.64709 14.91223,43.935329 20,44.702082 L 20,23.077082 L 44.9375,23.077082 C 44.361407,16.521578 39.255206,11.159177 33.3125,8.7958316 C 30.372331,7.5852163 27.176783,6.982309 24,6.9833316 z"/><path id="path1693" fill="url(#radialGradient6331)" fill-opacity="1" fill-rule="evenodd" stroke="none" stroke-linecap="butt" stroke-linejoin="miter" stroke-opacity="1" stroke-width="1" d="M 47.999998,29.293334 C 47.999998,39.072455 37.254833,47 23.999999,47 C 10.745164,47 -1.0019047e-06,39.072455 -1.0019047e-06,29.293334 C -1.0019047e-06,19.514212 10.745164,11.586667 23.999999,11.586667 C 37.254833,11.586667 47.999998,19.514212 47.999998,29.293334 L 47.999998,29.293334 z"/><path id="path3933" fill="#a40000" fill-rule="nonzero" stroke="none" stroke-miterlimit="4" d="M 43.311283,24.448546 C 41.018766,17.84533 33.245349,12.983332 24.000535,12.983332 C 14.755719,12.983332 6.982302,17.84533 4.6897835,24.448546 L 4,24.448546 L 4,28.484647 C 4,37.044763 12.955447,43.983332 24.000535,43.983332 C 35.046688,43.983332 44,37.044763 44,28.484647 L 44,24.448546 L 43.311283,24.448546 L 43.311283,24.448546 z"/><path id="path3935" fill="url(#linearGradient6327)" fill-opacity="1" fill-rule="nonzero" stroke="none" stroke-miterlimit="4" d="M 44,24.483334 C 44,33.59711 35.046688,40.983332 24.000534,40.983332 C 12.95438,40.983332 4,33.59711 4,24.483334 C 4,15.369554 12.955446,7.9833317 24.000534,7.9833317 C 35.046688,7.9833317 44,15.369554 44,24.483334 L 44,24.483334 z"/><path id="path6338" fill="#1e3f5a" fill-opacity="1" fill-rule="nonzero" stroke="none" stroke-dasharray="none" stroke-miterlimit="4" stroke-opacity="1" stroke-width="1" d="M 30.90625,23.077082 L 30.90625,44.077082 C 36.776637,42.478643 42.33656,38.586315 44.34375,32.670832 C 45.3207,29.714854 44.944914,26.573176 44.96875,23.514582 C 44.960463,23.367241 44.950347,23.223267 44.9375,23.077082 L 30.90625,23.077082 z"/><path id="path3937" fill="#2d5f87" fill-opacity="1" fill-rule="nonzero" stroke="none" stroke-miterlimit="4" d="M 44,28.983332 L 43.972888,24.63061 C 41.67857,33.673488 36.51946,37.504481 30.033012,39.380001 L 30.033012,43.283332 C 37,41.604228 43.601955,36.442128 44,28.983332 L 44,28.983332 z"/><path id="path3939" fill="url(#linearGradient6323)" fill-opacity="1" fill-rule="nonzero" stroke="none" stroke-miterlimit="4" d="M 44,23.075555 C 44.711363,35.353795 32.600354,39.69637 30.760985,39.983332 L 24,22.989617 L 43.998932,23.075555 L 44,23.075555 z"/><path id="path6346" fill="#486725" fill-opacity="1" fill-rule="nonzero" stroke="none" stroke-dasharray="none" stroke-miterlimit="4" stroke-opacity="1" stroke-width="1" d="M 20,42.983332 L 20,44.702082 C 23.066032,45.168831 26.217746,45.080603 29.21875,44.483332 C 29.781235,44.373192 30.346833,44.229081 30.90625,44.077082 L 30.90625,42.983332 L 20,42.983332 z"/><path id="path3941" fill="#699536" fill-opacity="1" fill-rule="nonzero" stroke="none" stroke-miterlimit="4" d="M 20,40.33072 C 23.737802,40.799926 27.167032,40.882601 30.8709,39.990357 L 30.908012,43.083332 C 27.804314,44.064691 23,44.215411 20,43.683332 L 20,40.33072 z"/><path id="path3943" fill="url(#linearGradient6319)" fill-opacity="1" fill-rule="nonzero" stroke="none" stroke-miterlimit="4" d="M 24,22.983332 L 30.9,39.983332 C 26,41.567068 21,40.983332 20,40.595332 L 24,22.983332 z"/><path id="path5959" fill="none" fill-opacity="1" fill-rule="evenodd" stroke="url(#linearGradient6316)" stroke-dasharray="none" stroke-dashoffset="0" stroke-linecap="butt" stroke-linejoin="miter" stroke-miterlimit="4" stroke-opacity="1" stroke-width="1" marker-end="none" marker-mid="none" marker-start="none" d="M 43.499991,24.483333 C 43.499991,33.319884 34.769548,40.483323 24,40.483323 C 13.230452,40.483323 4.5000089,33.319884 4.5000089,24.483333 C 4.5000089,15.646782 13.230452,8.4833418 24,8.4833418 C 34.769548,8.4833418 43.499991,15.646782 43.499991,24.483333 L 43.499991,24.483333 z" display="block" opacity=".311" overflow="visible" visibility="visible" style="marker:none"/><path id="path6707" fill="none" fill-opacity="1" fill-rule="evenodd" stroke="url(#linearGradient6313)" stroke-dasharray="none" stroke-dashoffset="0" stroke-linecap="butt" stroke-linejoin="miter" stroke-miterlimit="4" stroke-opacity="1" stroke-width="1" marker-end="none" marker-mid="none" marker-start="none" d="M 43.500011,28.483332 C 43.500011,36.767611 34.769559,43.483345 23.999999,43.483345 C 13.23044,43.483345 4.4999872,36.767611 4.4999872,28.483332 C 4.4999872,20.199053 13.23044,13.483319 23.999999,13.483319 C 34.769559,13.483319 43.500011,20.199053 43.500011,28.483332 L 43.500011,28.483332 z" display="block" opacity=".133" overflow="visible" visibility="visible" style="marker:none"/></g></svg>