<svg xmlns="http://www.w3.org/2000/svg" xmlns:svg="http://www.w3.org/2000/svg" xmlns:xlink="http://www.w3.org/1999/xlink" id="svg3658" width="48" height="48" version="1.1"><defs id="defs3660"><linearGradient id="linearGradient3374" x1="19.875" x2="19.875" y1="44.52" y2="5.25" gradientUnits="userSpaceOnUse" xlink:href="#linearGradient3707-319-631-407-1-846"/><linearGradient id="linearGradient3707-319-631-407-1-846"><stop id="stop3788" offset="0" stop-color="#365a7c" stop-opacity="1"/><stop id="stop3790" offset="1" stop-color="#5ea1ca" stop-opacity="1"/></linearGradient><linearGradient id="linearGradient3372" x1="19.875" x2="19.875" y1="44.52" y2="5.25" gradientUnits="userSpaceOnUse" xlink:href="#linearGradient3707-319-631-407-1-4-477"/><linearGradient id="linearGradient3707-319-631-407-1-4-477"><stop id="stop3782" offset="0" stop-color="#365a7c" stop-opacity="1"/><stop id="stop3784" offset="1" stop-color="#5ea1ca" stop-opacity="1"/></linearGradient><linearGradient id="linearGradient3370" x1="19.875" x2="19.875" y1="44.52" y2="5.25" gradientUnits="userSpaceOnUse" xlink:href="#linearGradient3707-319-631-407-1-9-274"/><linearGradient id="linearGradient3707-319-631-407-1-9-274"><stop id="stop3776" offset="0" stop-color="#365a7c" stop-opacity="1"/><stop id="stop3778" offset="1" stop-color="#5ea1ca" stop-opacity="1"/></linearGradient><linearGradient id="linearGradient3568" x1="16.626" x2="20.055" y1="15.298" y2="24.628" gradientTransform="matrix(0.82498024,0,0,1.3012336,4.1618797,-1.4329212)" gradientUnits="userSpaceOnUse" xlink:href="#linearGradient8265-821-176-38-919-66-249-7-7"/><linearGradient id="linearGradient8265-821-176-38-919-66-249-7-7"><stop id="stop2687-1-9" offset="0" stop-color="#fff" stop-opacity="1"/><stop id="stop2689-5-4" offset="1" stop-color="#fff" stop-opacity="0"/></linearGradient><linearGradient id="linearGradient2959" x1="24" x2="24" y1="5" y2="43" gradientTransform="translate(3.7e-6,1.00001)" gradientUnits="userSpaceOnUse" xlink:href="#linearGradient3924"/><linearGradient id="linearGradient3924"><stop id="stop3926" offset="0" stop-color="#fff" stop-opacity="1"/><stop id="stop3928" offset=".063" stop-color="#fff" stop-opacity=".235"/><stop id="stop3930" offset=".951" stop-color="#fff" stop-opacity=".157"/><stop id="stop3932" offset="1" stop-color="#fff" stop-opacity=".392"/></linearGradient><radialGradient id="radialGradient2874" cx="7.496" cy="8.45" r="20" fx="7.496" fy="8.45" gradientTransform="matrix(1.9428467e-8,2.33699,-2.4722567,-4.3056275e-8,44.890104,-11.434799)" gradientUnits="userSpaceOnUse" xlink:href="#linearGradient2867-449-88-871-390-598-476-591-434-148-57-177"/><linearGradient id="linearGradient2867-449-88-871-390-598-476-591-434-148-57-177"><stop id="stop3750" offset="0" stop-color="#90dbec" stop-opacity="1"/><stop id="stop3752" offset=".262" stop-color="#55c1ec" stop-opacity="1"/><stop id="stop3754" offset=".705" stop-color="#3689e6" stop-opacity="1"/><stop id="stop3756" offset="1" stop-color="#2b63a0" stop-opacity="1"/></linearGradient><linearGradient id="linearGradient2876" x1="24" x2="24" y1="44" y2="3.899" gradientTransform="translate(1.2e-6,1)" gradientUnits="userSpaceOnUse" xlink:href="#linearGradient3707-319-631-407-324"/><linearGradient id="linearGradient3707-319-631-407-324"><stop id="stop3760" offset="0" stop-color="#185f9a" stop-opacity="1"/><stop id="stop3762" offset="1" stop-color="#599ec9" stop-opacity="1"/></linearGradient><radialGradient id="radialGradient3013" cx="4.993" cy="43.5" r="2.5" fx="4.993" fy="43.5" gradientTransform="matrix(2.003784,0,0,1.4,27.98813,-17.4)" gradientUnits="userSpaceOnUse" xlink:href="#linearGradient3688-166-749"/><linearGradient id="linearGradient3688-166-749"><stop id="stop2883" offset="0" stop-color="#181818" stop-opacity="1"/><stop id="stop2885" offset="1" stop-color="#181818" stop-opacity="0"/></linearGradient><radialGradient id="radialGradient3015" cx="4.993" cy="43.5" r="2.5" fx="4.993" fy="43.5" gradientTransform="matrix(2.003784,0,0,1.4,-20.01187,-104.4)" gradientUnits="userSpaceOnUse" xlink:href="#linearGradient3688-464-309"/><linearGradient id="linearGradient3688-464-309"><stop id="stop2889" offset="0" stop-color="#181818" stop-opacity="1"/><stop id="stop2891" offset="1" stop-color="#181818" stop-opacity="0"/></linearGradient><linearGradient id="linearGradient3702-501-757"><stop id="stop2895" offset="0" stop-color="#181818" stop-opacity="0"/><stop id="stop2897" offset=".5" stop-color="#181818" stop-opacity="1"/><stop id="stop2899" offset="1" stop-color="#181818" stop-opacity="0"/></linearGradient><linearGradient id="linearGradient3656" x1="25.058" x2="25.058" y1="47.028" y2="39.999" gradientUnits="userSpaceOnUse" xlink:href="#linearGradient3702-501-757"/></defs><metadata id="metadata3663"/><g id="layer1"><g id="g3712" opacity=".4" transform="matrix(1.1578952,0,0,0.57142859,-3.789484,19.142856)"><rect id="rect2801" width="5" height="7" x="38" y="40" fill="url(#radialGradient3013)" fill-opacity="1" stroke="none"/><rect id="rect3696" width="5" height="7" x="-10" y="-47" fill="url(#radialGradient3015)" fill-opacity="1" stroke="none" transform="scale(-1,-1)"/><rect id="rect3700" width="28" height="7" x="10" y="40" fill="url(#linearGradient3656)" fill-opacity="1" stroke="none"/></g><rect stroke-linejoin="round" style="marker:none" id="rect5505-21" width="39" height="39" x="4.5" y="5.5" fill="url(#radialGradient2874)" fill-opacity="1" fill-rule="nonzero" stroke="url(#linearGradient2876)" stroke-dasharray="none" stroke-dashoffset="0" stroke-linecap="round" stroke-miterlimit="4" stroke-opacity="1" stroke-width="1" color="#000" display="inline" enable-background="accumulate" overflow="visible" rx="2" ry="2" visibility="visible"/><rect id="rect6741" width="37" height="37" x="5.5" y="6.5" fill="none" stroke="url(#linearGradient2959)" stroke-dasharray="none" stroke-dashoffset="0" stroke-linecap="round" stroke-linejoin="round" stroke-miterlimit="4" stroke-opacity="1" stroke-width="1" opacity=".5" rx="1" ry="1"/><path id="path3333" fill="url(#linearGradient3568)" fill-opacity="1" fill-rule="evenodd" stroke="none" d="M 6.2169167,6 C 5.5377266,6 5,6.9124652 5,7.8 L 5.0126445,30 C 6.1058123,29.975834 42.170261,21.153092 43,20.728709 L 43,7.8 C 43,7.1215957 42.468817,6 41.88071,6 L 6.2169214,6 z" opacity=".2"/><path id="path4596-6" fill="url(#linearGradient3370)" fill-opacity="1" fill-rule="nonzero" stroke="none" stroke-width="1" d="M 10.84375,7.0625003 A 2.9506229,2.9506229 0 0 0 8.0625,10 l 0,24.65625 a 2.9506229,2.9506229 0 0 0 5.21875,1.875 l 3.3125,-4 5,11.5 C 21.72418,44.00469 21.8615,44 22,44 l 13.9375,0 a 2.9506229,2.9506229 0 0 0 -0.46875,-1.625 l -9.5,-14.40625 4.875,0 A 2.9506229,2.9506229 0 0 0 32.625,22.6875 L 12.78125,7.6562503 a 2.9506229,2.9506229 0 0 0 -1.9375,-0.59375 z" color="#000" display="inline" enable-background="accumulate" opacity=".05" overflow="visible" visibility="visible" style="marker:none"/><path id="path4596-2" fill="url(#linearGradient3372)" fill-opacity="1" fill-rule="nonzero" stroke="none" stroke-width="1" d="M 10.90625,8.0000003 A 1.9976516,1.9976516 0 0 0 9,10 l 0,24.65625 a 1.9976516,1.9976516 0 0 0 3.53125,1.28125 L 16.84375,30.71875 22.625,44 34.96875,44 a 1.9976516,1.9976516 0 0 0 -0.3125,-1.09375 L 24.1875,27 30.84375,27.03125 A 1.9976516,1.9976516 0 0 0 32.0625,23.4375 L 12.21875,8.4062503 a 1.9976516,1.9976516 0 0 0 -1.3125,-0.40625 z" color="#000" display="inline" enable-background="accumulate" opacity=".1" overflow="visible" visibility="visible" style="marker:none"/><path id="path4596" fill="url(#linearGradient3374)" fill-opacity="1" fill-rule="nonzero" stroke="none" stroke-width="1" d="M 10.84375,9.0000003 A 0.98841614,0.98841614 0 0 0 10,10 l 0,24.65625 a 0.98841614,0.98841614 0 0 0 1.75,0.625 l 5.34375,-6.5 6.625,15.21875 10.25,0 A 0.98841614,0.98841614 0 0 0 33.8125,43.46875 L 22.3125,26 30.84375,26.03125 A 0.98841614,0.98841614 0 0 0 31.4375,24.25 L 11.59375,9.2187503 a 0.98841614,0.98841614 0 0 0 -0.65625,-0.21875 0.98841614,0.98841614 0 0 0 -0.09375,0 z" color="#000" display="inline" enable-background="accumulate" opacity=".25" overflow="visible" visibility="visible" style="marker:none"/><path id="path3277-1" fill="#f7f7f7" fill-opacity="1" fill-rule="nonzero" stroke="#fff" stroke-dasharray="none" stroke-dashoffset="0" stroke-linecap="butt" stroke-linejoin="miter" stroke-miterlimit="4" stroke-opacity="1" stroke-width=".985" d="m 32.044067,43.5 -12.5,-19 9.854834,0 L 11.5,11.015679 11.5,33.270755 17.485702,25.96263 25.04743,43.5 z" color="#000" display="inline" enable-background="accumulate" overflow="visible" visibility="visible" style="marker:none"/></g></svg>