<svg xmlns="http://www.w3.org/2000/svg" xmlns:svg="http://www.w3.org/2000/svg" xmlns:xlink="http://www.w3.org/1999/xlink" id="svg3349" width="48" height="48" version="1.0"><defs id="defs3351"><linearGradient id="linearGradient10691-1"><stop id="stop10693-3" offset="0" stop-color="#000" stop-opacity="1"/><stop id="stop10695-1" offset="1" stop-color="#000" stop-opacity="0"/></linearGradient><radialGradient id="radialGradient3001" cx="6.703" cy="73.616" r="7.228" fx="6.703" fy="73.616" gradientTransform="matrix(1.9368007,0,0,0.4150287,11.018182,13.447365)" gradientUnits="userSpaceOnUse" xlink:href="#linearGradient10691-1"/><linearGradient id="linearGradient3924"><stop id="stop3926" offset="0" stop-color="#464646" stop-opacity="1"/><stop id="stop3928" offset=".35" stop-color="#8c8c8c" stop-opacity="1"/><stop id="stop3930" offset=".51" stop-color="#969696" stop-opacity="1"/><stop id="stop3932" offset=".62" stop-color="#aaa" stop-opacity="1"/><stop id="stop3934" offset="1" stop-color="#646464" stop-opacity="1"/></linearGradient><linearGradient id="linearGradient3834-6" x1="61.969" x2="61.969" y1="35.944" y2="43.378" gradientTransform="translate(-38,1)" gradientUnits="userSpaceOnUse" xlink:href="#linearGradient3924"/><linearGradient id="linearGradient3912"><stop id="stop3914" offset="0" stop-color="#787878" stop-opacity="1"/><stop id="stop3916" offset=".35" stop-color="#bebebe" stop-opacity="1"/><stop id="stop3918" offset=".494" stop-color="#c8c8c8" stop-opacity="1"/><stop id="stop3920" offset=".589" stop-color="#e6e6e6" stop-opacity="1"/><stop id="stop3922" offset="1" stop-color="#8c8c8c" stop-opacity="1"/></linearGradient><linearGradient id="linearGradient3832-9" x1="361.106" x2="361.106" y1="87.05" y2="94.396" gradientTransform="matrix(0.9964089,0,0,1.0001438,-332.882,-50.012717)" gradientUnits="userSpaceOnUse" xlink:href="#linearGradient3912"/><linearGradient id="linearGradient3342"><stop id="stop3344" offset="0" stop-color="#fff" stop-opacity="0"/><stop id="stop3346" offset="1" stop-color="#fff" stop-opacity="1"/></linearGradient><linearGradient id="linearGradient2993" x1="15.574" x2="23.578" y1="46.971" y2="46.971" gradientTransform="matrix(1.1176471,0,0,1,-2.3519696,-3.4710029)" gradientUnits="userSpaceOnUse" spreadMethod="reflect" xlink:href="#linearGradient3342"/><linearGradient id="linearGradient3654"><stop id="stop3656" offset="0" stop-color="#76de98" stop-opacity="1"/><stop id="stop3658" offset=".5" stop-color="#37b862" stop-opacity="1"/><stop id="stop3660" offset="1" stop-color="#2f7b48" stop-opacity="1"/></linearGradient><radialGradient id="radialGradient2989" cx="12.244" cy="4.863" r="21" fx="12.244" fy="4.863" gradientTransform="matrix(1.6561146,0,3.0120646e-3,1.3062517,-8.3350661,5.925988)" gradientUnits="userSpaceOnUse" xlink:href="#linearGradient3654"/><linearGradient id="linearGradient6592-2-7"><stop id="stop6594-0-2" offset="0" stop-color="#fff" stop-opacity=".275"/><stop id="stop6596-2-5" offset="1" stop-color="#fff" stop-opacity="0"/></linearGradient><linearGradient id="linearGradient2986" x1="12.938" x2="15.25" y1="8.438" y2="19.813" gradientTransform="matrix(1.0952382,0,0,1.3333324,-2.2857144,2.4e-6)" gradientUnits="userSpaceOnUse" xlink:href="#linearGradient6592-2-7"/><linearGradient id="linearGradient3202"><stop id="stop3204" offset="0" stop-color="#fff" stop-opacity="1"/><stop id="stop3206" offset="1" stop-color="#d3fce1" stop-opacity="1"/></linearGradient><linearGradient id="linearGradient3340" x1="-83.757" x2="-92.223" y1="-7.838" y2="27.521" gradientTransform="matrix(0.6617699,-0.1487362,0.158439,0.6212433,80.669663,0.1892042)" gradientUnits="userSpaceOnUse" xlink:href="#linearGradient3202"/></defs><g id="layer1"><path id="path2589" fill="url(#radialGradient3001)" fill-opacity="1" fill-rule="nonzero" stroke="none" stroke-width=".8" d="M 38,44 C 38,45.656855 31.731986,47 23.999999,47 C 16.268013,47 10,45.656855 10,44 C 10,42.343146 16.268013,41 23.999999,41 C 31.731986,41 38,42.343146 38,44 L 38,44 z" display="inline" opacity=".3" overflow="visible" visibility="visible" style="marker:none"/><path id="rect1789" fill="url(#linearGradient3832-9)" fill-opacity="1" fill-rule="nonzero" stroke="url(#linearGradient3834-6)" stroke-dasharray="none" stroke-dashoffset=".5" stroke-linecap="round" stroke-linejoin="round" stroke-miterlimit="4" stroke-opacity="1" stroke-width=".998" d="M 17.859462,36.249806 C 17.859462,36.249806 18.001234,40.507576 17.294118,41.5 C 16.587002,42.492424 15.17997,42.504 15.17997,42.504 C 14.277082,42.608262 14.269613,44.5 15.17997,44.5 L 32.81996,44.5 C 33.730317,44.5 33.723037,42.606932 32.81996,42.504 C 32.81996,42.504 31.412989,42.49242 30.705883,41.5 C 29.998777,40.507578 30.140468,36.249806 30.140468,36.249806 L 17.859462,36.249806 L 17.859462,36.249806 z" display="inline" enable-background="new" overflow="visible" visibility="visible" style="marker:none"/><path id="path3340" fill="none" stroke="url(#linearGradient2993)" stroke-linecap="square" stroke-linejoin="miter" stroke-opacity="1" stroke-width="1" d="M 15.612977,43.5 L 32.387023,43.5"/><rect id="rect2722" width="47" height="33" x=".5" y="3.5" fill="#1a1a1a" fill-opacity="1" stroke="#000" stroke-dasharray="none" stroke-dashoffset=".5" stroke-linecap="round" stroke-linejoin="round" stroke-miterlimit="4" stroke-opacity="1" stroke-width="1" rx="1.044" ry="1"/><rect id="rect2716" width="42" height="28" x="3" y="6" fill="url(#radialGradient2989)" fill-opacity="1" fill-rule="evenodd" stroke="none" display="inline" enable-background="new"/><path id="rect6588" fill="url(#linearGradient2986)" fill-opacity="1" stroke="none" d="M 1,4 L 47,4 L 47,14.666672 L 1,24 L 1,4 z"/><path id="path3345" fill="#1f6235" fill-opacity="1" fill-rule="nonzero" stroke="none" stroke-width="1.003" d="M 30.698218,8.0044983 C 30.3341,7.9698006 29.972097,8.1372236 29.785017,8.4586231 L 21.81404,22.149768 L 16.689217,18.324439 C 16.232721,18.090268 15.663168,18.240915 15.413724,18.669455 L 13.115537,21.439335 C 12.866097,21.867869 13.033901,22.402388 13.490398,22.63655 C 13.490398,22.63655 22.847682,29.891577 22.859228,29.896946 C 22.966218,29.95183 23.078102,29.979446 23.191835,29.992943 C 23.563358,30.037008 23.943567,29.873144 24.134545,29.545049 L 34.884464,11.080827 C 35.133905,10.652288 34.966098,10.117774 34.509605,9.8836053 L 31.060335,8.1067263 C 30.946208,8.0481759 30.81959,8.016062 30.698218,8.0044983 z" display="inline" overflow="visible" visibility="visible" style="marker:none"/><path id="path4368" fill="url(#linearGradient3340)" fill-opacity="1" fill-rule="nonzero" stroke="none" stroke-width="1.003" d="M 30.698218,9.004498 C 30.3341,8.9698003 29.972097,9.1372233 29.785017,9.4586228 L 21.81404,23.149768 L 16.689217,19.324439 C 16.232721,19.090268 15.663168,19.240915 15.413724,19.669455 L 13.115537,22.439335 C 12.866097,22.867869 13.033901,23.402388 13.490398,23.63655 C 13.490398,23.63655 22.847682,30.891577 22.859228,30.896946 C 22.966218,30.95183 23.078102,30.979446 23.191835,30.992943 C 23.563358,31.037008 23.943567,30.873144 24.134545,30.545049 L 34.884464,12.080827 C 35.133905,11.652288 34.966098,11.117774 34.509605,10.883605 L 31.060335,9.106726 C 30.946208,9.0481756 30.81959,9.0160617 30.698218,9.004498 z" display="inline" overflow="visible" visibility="visible" style="marker:none"/></g></svg>