<svg xmlns="http://www.w3.org/2000/svg" xmlns:svg="http://www.w3.org/2000/svg" xmlns:xlink="http://www.w3.org/1999/xlink" id="svg4428" width="48" height="48" version="1.1"><defs id="defs4430"><filter id="filter3974-5" width="1.145" height="1.703" x="-.072" y="-.351" color-interpolation-filters="sRGB"><feGaussianBlur id="feGaussianBlur3976-6" stdDeviation="1.025"/></filter><filter id="filter3706" width="1.16" height="1.48" x="-.08" y="-.24" color-interpolation-filters="sRGB"><feGaussianBlur id="feGaussianBlur3708" stdDeviation=".3"/></filter><linearGradient id="linearGradient2920" x1="12.579" x2="12.579" y1="-7.807" y2="41.827" gradientTransform="matrix(0.9546411,0,0,0.8965269,1.087452,5.3852456)" gradientUnits="userSpaceOnUse" xlink:href="#linearGradient2238-2-3"/><linearGradient id="linearGradient2238-2-3"><stop id="stop2240-1-6" offset="0" stop-color="#fff" stop-opacity="1"/><stop id="stop2242-7-3" offset="1" stop-color="#fff" stop-opacity="0"/></linearGradient><linearGradient id="linearGradient2923" x1="16.626" x2="20.055" y1="15.298" y2="24.628" gradientTransform="matrix(0.9578231,0,0,1.0182827,1.012241,1.922128)" gradientUnits="userSpaceOnUse" xlink:href="#linearGradient8265-821-176-38-919-66-249-7-7"/><linearGradient id="linearGradient8265-821-176-38-919-66-249-7-7"><stop id="stop2687-1-9" offset="0" stop-color="#fff" stop-opacity="1"/><stop id="stop2689-5-4" offset="1" stop-color="#fff" stop-opacity="0"/></linearGradient><linearGradient id="linearGradient2926" x1="23.071" x2="23.071" y1="36.047" y2="33.296" gradientTransform="matrix(0.9910545,0,0,1.0114758,0.2204965,5.8120995)" gradientUnits="userSpaceOnUse" xlink:href="#linearGradient2223-4"/><linearGradient id="linearGradient2223-4"><stop id="stop2225-6" offset="0" stop-color="#fff" stop-opacity="1"/><stop id="stop2229-2" offset="1" stop-color="#fff" stop-opacity="0"/></linearGradient><radialGradient id="radialGradient2929" cx="16.352" cy="12.225" r="19.17" fx="16.352" fy="12.225" gradientTransform="matrix(0,0.9636419,-2.2356343,0,48.282191,6.3238732)" gradientUnits="userSpaceOnUse" xlink:href="#linearGradient4128"/><linearGradient id="linearGradient4128"><stop id="stop4130" offset="0" stop-color="#4a4a3d" stop-opacity="1"/><stop id="stop4132" offset="1" stop-color="#000" stop-opacity="1"/></linearGradient><linearGradient id="linearGradient2932" x1="24" x2="24" y1="7.96" y2="43.865" gradientUnits="userSpaceOnUse" xlink:href="#linearGradient3994-617"/><linearGradient id="linearGradient3994-617"><stop id="stop4324" offset="0" stop-color="#d8d8d8" stop-opacity="1"/><stop id="stop2860" offset=".086" stop-color="#afafaf" stop-opacity="1"/><stop id="stop2862" offset=".922" stop-color="#aaa" stop-opacity="1"/><stop id="stop4326" offset="1" stop-color="#8f8f8f" stop-opacity="1"/></linearGradient><linearGradient id="linearGradient2934" x1="10.014" x2="10.014" y1="44.96" y2="2.876" gradientTransform="matrix(0.9574517,0,0,0.9034707,1.021174,4.3056309)" gradientUnits="userSpaceOnUse" xlink:href="#linearGradient4008-764"/><linearGradient id="linearGradient4008-764"><stop id="stop4334" offset="0" stop-color="#595959" stop-opacity="1"/><stop id="stop4336" offset="1" stop-color="#b3b3b3" stop-opacity="1"/></linearGradient><radialGradient id="radialGradient2937" cx="605.714" cy="486.648" r="117.143" fx="605.714" fy="486.648" gradientTransform="matrix(-0.06553443,0,0,0.02470588,47.673126,31.941639)" gradientUnits="userSpaceOnUse" xlink:href="#linearGradient5060-6"/><linearGradient id="linearGradient5060-6"><stop id="stop5062-3" offset="0" stop-color="#000" stop-opacity="1"/><stop id="stop5064-1" offset="1" stop-color="#000" stop-opacity="0"/></linearGradient><radialGradient id="radialGradient2940" cx="605.714" cy="486.648" r="117.143" fx="605.714" fy="486.648" gradientTransform="matrix(0.06553443,0,0,0.02470588,0.3268837,31.941639)" gradientUnits="userSpaceOnUse" xlink:href="#linearGradient5060-6"/><linearGradient id="linearGradient5048-7"><stop id="stop5050-5" offset="0" stop-color="#000" stop-opacity="0"/><stop id="stop5056-9" offset=".5" stop-color="#000" stop-opacity="1"/><stop id="stop5052-6" offset="1" stop-color="#000" stop-opacity="0"/></linearGradient><linearGradient id="linearGradient4426" x1="302.857" x2="302.857" y1="366.648" y2="609.505" gradientTransform="matrix(0.06553443,0,0,0.02470588,0.3139865,31.941639)" gradientUnits="userSpaceOnUse" xlink:href="#linearGradient5048-7"/></defs><g id="layer1"><rect id="rect2512" width="31.644" height="6" x="8.178" y="41" fill="url(#linearGradient4426)" fill-opacity="1" fill-rule="nonzero" stroke="none" stroke-width="1" display="inline" opacity=".402" overflow="visible" visibility="visible" style="marker:none"/><path id="path2514" fill="url(#radialGradient2940)" fill-opacity="1" fill-rule="nonzero" stroke="none" stroke-width="1" d="m 39.821883,41.000206 c 0,0 0,5.999669 0,5.999669 3.374861,0.01129 8.158771,-1.344221 8.158769,-3.000221 0,-1.655999 -3.76609,-2.999448 -8.158769,-2.999448 z" display="inline" opacity=".402" overflow="visible" visibility="visible" style="marker:none"/><path id="path2516" fill="url(#radialGradient2937)" fill-opacity="1" fill-rule="nonzero" stroke="none" stroke-width="1" d="m 8.178118,41.000206 c 0,0 0,5.999669 0,5.999669 -3.3748615,0.01129 -8.15877068,-1.344221 -8.15877068,-3.000221 0,-1.655999 3.76609018,-2.999448 8.15877068,-2.999448 z" display="inline" opacity=".402" overflow="visible" visibility="visible" style="marker:none"/><rect id="rect2551" width="44.998" height="36.998" x="1.501" y="7.501" fill="url(#linearGradient2932)" fill-opacity="1" fill-rule="evenodd" stroke="url(#linearGradient2934)" stroke-dasharray="none" stroke-dashoffset="0" stroke-linecap="round" stroke-linejoin="round" stroke-miterlimit="4" stroke-opacity="1" stroke-width="1.002" rx="1.499" ry="1.499"/><rect id="rect1314" width="36.998" height="28.998" x="5.501" y="11.501" fill="url(#radialGradient2929)" fill-opacity="1" fill-rule="evenodd" stroke="#1e1f1f" stroke-dasharray="none" stroke-dashoffset="0" stroke-linecap="round" stroke-linejoin="round" stroke-miterlimit="4" stroke-opacity="1" stroke-width="1.002" rx="0" ry="0"/><rect id="rect2221" width="38.998" height="30.998" x="4.501" y="10.501" fill="none" stroke="url(#linearGradient2926)" stroke-dasharray="none" stroke-dashoffset="0" stroke-linecap="round" stroke-linejoin="round" stroke-miterlimit="4" stroke-opacity="1" stroke-width="1.002" opacity=".4" rx="0" ry="0"/><path id="path3333" fill="url(#linearGradient2923)" fill-opacity="1" fill-rule="evenodd" stroke="none" d="m 4.095234,8.0000029 c -1.157316,0 -2.095238,0.9971259 -2.095238,2.2274911 l 0,16.292524 c 0.0027,0.137064 0.05919,0.26668 0.155886,0.357384 0.09669,0.0907 0.224704,0.134203 0.352957,0.119936 l 43.10204,-7.255264 c 0.221716,-0.03717 0.386016,-0.238719 0.389116,-0.47732 l 0,-9.03726 c 0,-1.2303652 -0.937923,-2.2274911 -2.095238,-2.2274911 l -39.809523,0 0,0 z" opacity=".2"/><rect id="rect2556" width="42.996" height="34.996" x="2.502" y="8.502" fill="none" stroke="url(#linearGradient2920)" stroke-dasharray="none" stroke-dashoffset="0" stroke-linecap="round" stroke-linejoin="round" stroke-miterlimit="4" stroke-opacity="1" stroke-width="1.004" opacity=".4" rx=".498" ry=".498"/><path id="path2233" fill="none" stroke="#b9ffeb" stroke-dasharray="none" stroke-dashoffset="0" stroke-linecap="square" stroke-linejoin="miter" stroke-miterlimit="4" stroke-opacity="1" stroke-width="1" d="m 6.5,13.499999 35,0" display="inline" enable-background="accumulate" opacity=".1" overflow="visible" visibility="visible" style="marker:none"/><path id="path2235" fill="none" stroke="#b9ffeb" stroke-dasharray="none" stroke-dashoffset="0" stroke-linecap="square" stroke-linejoin="miter" stroke-miterlimit="4" stroke-opacity="1" stroke-width="1" d="m 6.5,17.499999 35,0" display="inline" enable-background="accumulate" opacity=".1" overflow="visible" visibility="visible" style="marker:none"/><path id="path2237" fill="none" stroke="#b9ffeb" stroke-dasharray="none" stroke-dashoffset="0" stroke-linecap="square" stroke-linejoin="miter" stroke-miterlimit="4" stroke-opacity="1" stroke-width="1" d="m 6.5,21.499999 35,0" display="inline" enable-background="accumulate" opacity=".1" overflow="visible" visibility="visible" style="marker:none"/><path id="path2239" fill="none" stroke="#b9ffeb" stroke-dasharray="none" stroke-dashoffset="0" stroke-linecap="square" stroke-linejoin="miter" stroke-miterlimit="4" stroke-opacity="1" stroke-width="1" d="m 6.5,25.499999 35,0" display="inline" enable-background="accumulate" opacity=".1" overflow="visible" visibility="visible" style="marker:none"/><path id="path2241" fill="none" stroke="#b9ffeb" stroke-dasharray="none" stroke-dashoffset="0" stroke-linecap="square" stroke-linejoin="miter" stroke-miterlimit="4" stroke-opacity="1" stroke-width="1" d="m 6.5,29.499999 35,0" display="inline" enable-background="accumulate" opacity=".1" overflow="visible" visibility="visible" style="marker:none"/><path id="path2243" fill="none" stroke="#b9ffeb" stroke-dasharray="none" stroke-dashoffset="0" stroke-linecap="square" stroke-linejoin="miter" stroke-miterlimit="4" stroke-opacity="1" stroke-width="1" d="m 6.5,33.499999 35,0" display="inline" enable-background="accumulate" opacity=".1" overflow="visible" visibility="visible" style="marker:none"/><path id="path2245" fill="none" stroke="#b9ffeb" stroke-dasharray="none" stroke-dashoffset="0" stroke-linecap="square" stroke-linejoin="miter" stroke-miterlimit="4" stroke-opacity="1" stroke-width="1" d="m 6.5,37.5 35,0" display="inline" enable-background="accumulate" opacity=".1" overflow="visible" visibility="visible" style="marker:none"/><path id="path3979" fill="#a1e14f" fill-opacity="1" fill-rule="evenodd" stroke="none" d="m 35.02,34.046849 0,3 1,0 0,-3 -1,0 z m -2,1 0,2 1,0 0,-2 -1,0 z m 4,0 0,2 1,0 0,-2 -1,0 z m -6,1 0,1 1,0 0,-1 -1,0 z m 8,0 0,1 1,0 0,-1 -1,0 z" filter="url(#filter3706)" opacity=".8"/><path id="rect3103" fill="#eeeeec" fill-opacity="1" fill-rule="evenodd" stroke="none" d="m 35,34 0,3 1,0 0,-3 -1,0 z m -2,1 0,2 1,0 0,-2 -1,0 z m 4,0 0,2 1,0 0,-2 -1,0 z m -6,1 0,1 1,0 0,-1 -1,0 z m 8,0 0,1 1,0 0,-1 -1,0 z"/><path id="path3968" fill="#a1e14f" fill-opacity="1" fill-rule="evenodd" stroke="none" d="m 10,24 0,1 0,2 -3,0 0,1 3,0 1,0 0,-3 1,0 0,5 0,1 3,0 0,-1 0,-2 2,0 3,0 1,0 0,-3 1,0 0,5 0,1 3,0 0,-1 0,-2 2,0 2,0 1,0 0,-3 1,0 0,5 0,1 3,0 0,-1 0,-2 2,0 3,0 1,0 0,-3 1,0 0,-1 -2,0 0,1 0,2 -3,0 -3,0 0,1 0,2 -1,0 0,-5 0,-1 -3,0 0,1 0,2 -2,0 -3,0 0,1 0,2 -1,0 0,-5 0,-1 -3,0 0,1 0,2 -3,0 -3,0 0,1 0,2 -1,0 0,-5 0,-1 -3,0 z" filter="url(#filter3974-5)" opacity=".5"/><path id="path3618" fill="none" stroke="#dfe0de" stroke-linecap="square" stroke-linejoin="miter" stroke-opacity="1" stroke-width="1" d="m 6.5,27.5 4,0 0,-3 2,0 0,6 2,0 0,-3 6.02,0 0,-3 1.98,0 0,6 2,0 0,-3 5,0 0,-3 2,0 0,6 2,0 0,-3 6,0 0,-3 2,0"/></g></svg>