<svg xmlns="http://www.w3.org/2000/svg" xmlns:svg="http://www.w3.org/2000/svg" xmlns:xlink="http://www.w3.org/1999/xlink" id="svg2" width="48" height="48" version="1.0"><defs id="defs4"><linearGradient id="linearGradient4553"><stop id="stop4555" offset="0" stop-color="#fff" stop-opacity="1"/><stop id="stop4557" offset="1" stop-color="#fff" stop-opacity="0"/></linearGradient><linearGradient id="linearGradient4081"><stop id="stop4083" offset="0" stop-color="#7a7a7a" stop-opacity="1"/><stop id="stop4085" offset=".244" stop-color="#ebebeb" stop-opacity="1"/><stop id="stop4087" offset=".66" stop-color="#b9b9b9" stop-opacity="1"/><stop id="stop4089" offset="1" stop-color="#878787" stop-opacity="1"/></linearGradient><linearGradient id="linearGradient10997"><stop id="stop10999" offset="0" stop-color="#000" stop-opacity="1"/><stop id="stop11001" offset="1" stop-color="#000" stop-opacity="0"/></linearGradient><linearGradient id="linearGradient7361" x1="19.49" x2="19.387" y1="6.144" y2="8.1" gradientUnits="userSpaceOnUse" xlink:href="#linearGradient10997"/><linearGradient id="linearGradient272-6"><stop id="stop273-1" offset="0" stop-color="#474747" stop-opacity="0"/><stop id="stop275-8" offset=".1" stop-color="#474747" stop-opacity="1"/><stop id="stop276-3" offset=".9" stop-color="#474747" stop-opacity="1"/><stop id="stop274-5" offset="1" stop-color="#474747" stop-opacity="0"/></linearGradient><linearGradient id="linearGradient178-9"><stop id="stop179-9" offset="0" stop-color="#fff" stop-opacity="0"/><stop id="stop180-2" offset=".108" stop-color="#d9d9d9" stop-opacity="1"/><stop id="stop181-7" offset=".921" stop-color="#d9d9d9" stop-opacity="1"/><stop id="stop182-0" offset="1" stop-color="#fff" stop-opacity="0"/></linearGradient><linearGradient id="linearGradient3832" x1=".612" x2="5.086" y1="372.578" y2="372.578" gradientTransform="matrix(9.3885424,0,0,0.2235366,29.130395,-51.784906)" gradientUnits="userSpaceOnUse" xlink:href="#linearGradient272-6"/><linearGradient id="linearGradient3834" x1=".612" x2="5.086" y1="372.578" y2="372.578" gradientTransform="matrix(9.3885418,0,0,0.2235361,29.130383,-45.865211)" gradientUnits="userSpaceOnUse" xlink:href="#linearGradient272-6"/><linearGradient id="linearGradient3836" x1="1.642" x2="15.343" y1="117.827" y2="117.827" gradientTransform="matrix(3.1119049,0,0,0.09123576,28.948795,19.750004)" gradientUnits="userSpaceOnUse" xlink:href="#linearGradient178-9"/><linearGradient id="linearGradient6393"><stop id="stop6395" offset="0" stop-color="#f5f5f5" stop-opacity="1"/><stop id="stop6397" offset="1" stop-color="#f5f5f5" stop-opacity="0"/></linearGradient><linearGradient id="linearGradient5441"><stop id="stop5443" offset="0" stop-color="#555" stop-opacity="1"/><stop id="stop5445" offset="1" stop-color="#878787" stop-opacity="0"/></linearGradient><linearGradient id="linearGradient3544" x1="24.408" x2="16.729" y1="35.759" y2="48.084" gradientTransform="translate(-0.31472005,0.1155484)" gradientUnits="userSpaceOnUse" xlink:href="#linearGradient6393"/><linearGradient id="linearGradient3547" x1="25.703" x2="32.308" y1="38.042" y2="48.084" gradientTransform="translate(-0.31472005,0.1155484)" gradientUnits="userSpaceOnUse" xlink:href="#linearGradient6393"/><linearGradient id="linearGradient3550" x1="24.408" x2="6.736" y1="35.759" y2="46.911" gradientTransform="translate(-0.31472005,0.1155484)" gradientUnits="userSpaceOnUse" xlink:href="#linearGradient6393"/><linearGradient id="linearGradient3556" x1="27.061" x2="43.96" y1="36.951" y2="47.034" gradientTransform="translate(-0.31472005,0.1155484)" gradientUnits="userSpaceOnUse" xlink:href="#linearGradient6393"/><linearGradient id="linearGradient3571" x1="24.399" x2="6.147" y1="35.276" y2="46.669" gradientTransform="translate(-0.31472005,0.1155484)" gradientUnits="userSpaceOnUse" xlink:href="#linearGradient5441"/><linearGradient id="linearGradient3574" x1="24.399" x2="17.21" y1="35.276" y2="47.549" gradientTransform="translate(-0.31472005,0.1155484)" gradientUnits="userSpaceOnUse" xlink:href="#linearGradient5441"/><linearGradient id="linearGradient3580" x1="24.399" x2="44.068" y1="35.276" y2="47.804" gradientTransform="translate(-0.31472005,0.1155484)" gradientUnits="userSpaceOnUse" xlink:href="#linearGradient5441"/><linearGradient id="linearGradient3583" x1="24.399" x2="31.843" y1="35.276" y2="47.757" gradientTransform="translate(-0.31472005,0.1155484)" gradientUnits="userSpaceOnUse" xlink:href="#linearGradient5441"/><linearGradient id="linearGradient3598" x1="24.994" x2="25.011" y1="34.449" y2="39.183" gradientTransform="matrix(1.3434641,0,0,0.968327,-9.7568621,0.97088511)" gradientUnits="userSpaceOnUse" xlink:href="#linearGradient4081"/><radialGradient id="radialGradient3628" cx="6.5" cy="16.5" r="2" fx="6.5" fy="16.5" gradientTransform="translate(9.5,-1.500001)" gradientUnits="userSpaceOnUse" xlink:href="#linearGradient6443"/><linearGradient id="linearGradient3633" x1="10.5" x2="10.438" y1="-2.5" y2="13.536" gradientTransform="translate(13.5,4.5)" gradientUnits="userSpaceOnUse" xlink:href="#linearGradient6270"/><linearGradient id="linearGradient6270"><stop id="stop6272" offset="0" stop-color="#f5f5f5" stop-opacity="1"/><stop id="stop6274" offset="1" stop-color="#c8c8c8" stop-opacity="1"/></linearGradient><linearGradient id="linearGradient6368"><stop id="stop6370" offset="0" stop-color="#afafaf" stop-opacity="1"/><stop id="stop6372" offset="1" stop-color="#828282" stop-opacity="1"/></linearGradient><linearGradient id="linearGradient6443"><stop id="stop6445" offset="0" stop-color="#f7ff00" stop-opacity="1"/><stop id="stop6447" offset="1" stop-color="#0f0" stop-opacity="1"/></linearGradient><linearGradient id="linearGradient4523" x1="30" x2="30" y1="2" y2="33" gradientUnits="userSpaceOnUse" xlink:href="#linearGradient6368"/><linearGradient id="linearGradient4543" x1="25" x2="25" y1="9.072" y2="32" gradientUnits="userSpaceOnUse" xlink:href="#linearGradient6270"/><linearGradient id="linearGradient4559" x1="23.932" x2="23.963" y1="2.96" y2="32.128" gradientUnits="userSpaceOnUse" xlink:href="#linearGradient4553"/></defs><path id="path5486" fill="none" stroke="url(#linearGradient3583)" stroke-dasharray="none" stroke-dashoffset="0" stroke-linecap="round" stroke-linejoin="miter" stroke-miterlimit="4" stroke-opacity="1" stroke-width="3" d="m 24.2215,24.615548 0,11 L 31.49299,47.7" color="#000" display="inline" enable-background="accumulate" overflow="visible" visibility="visible" style="marker:none"/><path id="path5488" fill="none" stroke="url(#linearGradient3580)" stroke-dasharray="none" stroke-dashoffset="0" stroke-linecap="round" stroke-linejoin="miter" stroke-miterlimit="4" stroke-opacity="1" stroke-width="3" d="m 24.2215,24.615548 0,11 18.94926,11.885737" color="#000" display="inline" enable-background="accumulate" overflow="visible" visibility="visible" style="marker:none"/><path id="path5492" fill="none" stroke="url(#linearGradient3574)" stroke-dasharray="none" stroke-dashoffset="0" stroke-linecap="round" stroke-linejoin="miter" stroke-miterlimit="4" stroke-opacity="1" stroke-width="3" d="m 24.18528,24.615548 0,11 L 16.91379,47.7" color="#000" display="inline" enable-background="accumulate" overflow="visible" visibility="visible" style="marker:none"/><path id="path5494" fill="none" stroke="url(#linearGradient3571)" stroke-dasharray="none" stroke-dashoffset="0" stroke-linecap="round" stroke-linejoin="miter" stroke-miterlimit="4" stroke-opacity="1" stroke-width="3" d="m 24.18528,24.615548 0,11 -18.9492601,11.885737" color="#000" display="inline" enable-background="accumulate" overflow="visible" visibility="visible" style="marker:none"/><path id="path5508" fill="none" stroke="url(#linearGradient3556)" stroke-dasharray="none" stroke-dashoffset="0" stroke-linecap="round" stroke-linejoin="miter" stroke-miterlimit="4" stroke-opacity="1" stroke-width="1" d="m 24.2215,28.615548 0,7 18.92363,12.018214" color="#000" display="inline" enable-background="accumulate" overflow="visible" visibility="visible" style="marker:none"/><path id="path5512" fill="none" stroke="url(#linearGradient3550)" stroke-dasharray="none" stroke-dashoffset="0" stroke-linecap="round" stroke-linejoin="miter" stroke-miterlimit="4" stroke-opacity="1" stroke-width="1" d="m 24.18528,28.615548 0,7 -18.9236301,12.018214" color="#000" display="inline" enable-background="accumulate" overflow="visible" visibility="visible" style="marker:none"/><path id="path5514" fill="none" stroke="url(#linearGradient3547)" stroke-dasharray="none" stroke-dashoffset="0" stroke-linecap="round" stroke-linejoin="miter" stroke-miterlimit="4" stroke-opacity="1" stroke-width="1" d="m 24.2215,28.615548 0,7 L 31.49299,47.7" color="#000" display="inline" enable-background="accumulate" overflow="visible" visibility="visible" style="marker:none"/><path id="path5516" fill="none" stroke="url(#linearGradient3544)" stroke-dasharray="none" stroke-dashoffset="0" stroke-linecap="round" stroke-linejoin="miter" stroke-miterlimit="4" stroke-opacity="1" stroke-width="1" d="m 24.18528,28.615548 c 0,2.75 0,7 0,7 L 16.91379,47.7" color="#000" display="inline" enable-background="accumulate" overflow="visible" visibility="visible" style="marker:none"/><g id="g3822" display="inline" transform="matrix(0.3174382,0,0,1,23.008035,-15)"><rect id="rect3824" width="42" height="1" x="34.877" y="31" fill="url(#linearGradient3832)" fill-opacity="1" fill-rule="nonzero" stroke="none" stroke-width="1" display="block" opacity=".65" overflow="visible" visibility="visible" style="marker:none"/><rect id="rect3826" width="42" height="1" x="34.877" y="29" fill="url(#linearGradient3834)" fill-opacity="1" fill-rule="nonzero" stroke="none" stroke-width="1" display="block" opacity=".65" overflow="visible" visibility="visible" style="marker:none"/><rect id="rect3828" width="41.5" height="1" x="34.627" y="30" fill="url(#linearGradient3836)" fill-opacity="1" fill-rule="nonzero" stroke="none" stroke-width="1" display="block" overflow="visible" visibility="visible" style="marker:none"/></g><rect id="rect3838" width="2.877" height="4.126" x="36.6" y="13.5" fill="#646464" fill-opacity="1" stroke="#3c3c3c" stroke-dasharray="none" stroke-miterlimit="4" stroke-opacity="1" stroke-width="1" ry="1.121"/><path id="path2887" fill="url(#linearGradient3633)" fill-opacity="1" stroke="url(#linearGradient4523)" stroke-linecap="butt" stroke-linejoin="round" stroke-opacity="1" stroke-width="1" d="m 11.5,9.5 0,22 c 0,0.471405 0.528595,1 1,1 l 24,0 c 0.471405,0 1,-0.528595 1,-1 l 0,-22 -4,-7 -18,0 -4,7 z"/><rect id="rect4535" width="25" height="22.5" x="12" y="9.5" fill="url(#linearGradient4543)" fill-opacity="1" stroke="none" rx="1" ry="1"/><path id="path3701" fill="none" stroke="url(#linearGradient4559)" stroke-linecap="butt" stroke-linejoin="miter" stroke-opacity="1" stroke-width="1" d="m 12.5,9.5 0,22 24,0 0,-22 -3.5,-6 -17,0 -3.5,6 z" opacity=".4"/><rect id="rect8955" width="2.999" height="7" x="22.498" y="29.5" fill="#d9d9d9" fill-opacity="1" stroke="#828282" stroke-dasharray="none" stroke-miterlimit="4" stroke-opacity="1" stroke-width="1" rx="1.121" ry="1.121"/><path id="path6441" fill="url(#radialGradient3628)" fill-opacity="1" stroke="#828282" stroke-dasharray="none" stroke-linecap="square" stroke-linejoin="round" stroke-miterlimit="4" stroke-opacity="1" stroke-width="1" d="m 17.5,14.999999 a 1.5,1.5 0 0 1 -3,0 1.5,1.5 0 1 1 3,0 z"/><path id="path6477" fill="#fafafa" fill-opacity="1" stroke="none" d="m 21,14.7 a 1,1 0 0 1 -2,0 1,1 0 1 1 2,0 z"/><path id="path6471" fill="#646464" fill-opacity="1" stroke="none" d="m 21,15 a 1,1 0 0 1 -2,0 1,1 0 1 1 2,0 z"/><path id="path6534" fill="#fafafa" fill-opacity="1" stroke="none" d="m 28.5,12.7 c -0.276,0 -0.5,0.224 -0.5,0.5 0,0.276 0.224,0.5 0.5,0.5 0.276,0 0.5,-0.224 0.5,-0.5 0,-0.276 -0.224,-0.5 -0.5,-0.5 z m 2,0 c -0.276,0 -0.5,0.224 -0.5,0.5 0,0.276 0.224,0.5 0.5,0.5 0.276,0 0.5,-0.224 0.5,-0.5 0,-0.276 -0.224,-0.5 -0.5,-0.5 z m 2,0 c -0.276,0 -0.5,0.224 -0.5,0.5 0,0.276 0.224,0.5 0.5,0.5 0.276,0 0.5,-0.224 0.5,-0.5 0,-0.276 -0.224,-0.5 -0.5,-0.5 z m 2,0 c -0.276,0 -0.5,0.224 -0.5,0.5 0,0.276 0.224,0.5 0.5,0.5 0.276,0 0.5,-0.224 0.5,-0.5 0,-0.276 -0.224,-0.5 -0.5,-0.5 z m -6,2 c -0.276,0 -0.5,0.224 -0.5,0.5 0,0.276 0.224,0.5 0.5,0.5 0.276,0 0.5,-0.224 0.5,-0.5 0,-0.276 -0.224,-0.5 -0.5,-0.5 z m 2,0 c -0.276,0 -0.5,0.224 -0.5,0.5 0,0.276 0.224,0.5 0.5,0.5 0.276,0 0.5,-0.224 0.5,-0.5 0,-0.276 -0.224,-0.5 -0.5,-0.5 z m 2,0 c -0.276,0 -0.5,0.224 -0.5,0.5 0,0.276 0.224,0.5 0.5,0.5 0.276,0 0.5,-0.224 0.5,-0.5 0,-0.276 -0.224,-0.5 -0.5,-0.5 z m 2,0 c -0.276,0 -0.5,0.224 -0.5,0.5 0,0.276 0.224,0.5 0.5,0.5 0.276,0 0.5,-0.224 0.5,-0.5 0,-0.276 -0.224,-0.5 -0.5,-0.5 z m -6,2 c -0.276,0 -0.5,0.224 -0.5,0.5 0,0.276 0.224,0.5 0.5,0.5 0.276,0 0.5,-0.224 0.5,-0.5 0,-0.276 -0.224,-0.5 -0.5,-0.5 z m 2,0 c -0.276,0 -0.5,0.224 -0.5,0.5 0,0.276 0.224,0.5 0.5,0.5 0.276,0 0.5,-0.224 0.5,-0.5 0,-0.276 -0.224,-0.5 -0.5,-0.5 z m 2,0 c -0.276,0 -0.5,0.224 -0.5,0.5 0,0.276 0.224,0.5 0.5,0.5 0.276,0 0.5,-0.224 0.5,-0.5 0,-0.276 -0.224,-0.5 -0.5,-0.5 z m 2,0 c -0.276,0 -0.5,0.224 -0.5,0.5 0,0.276 0.224,0.5 0.5,0.5 0.276,0 0.5,-0.224 0.5,-0.5 0,-0.276 -0.224,-0.5 -0.5,-0.5 z"/><path id="path6509" fill="#666" fill-opacity="1" stroke="none" d="M 28.5,13 C 28.224,13 28,13.224 28,13.5 28,13.776 28.224,14 28.5,14 28.776,14 29,13.776 29,13.5 29,13.224 28.776,13 28.5,13 z m 2,0 C 30.224,13 30,13.224 30,13.5 30,13.776 30.224,14 30.5,14 30.776,14 31,13.776 31,13.5 31,13.224 30.776,13 30.5,13 z m 2,0 C 32.224,13 32,13.224 32,13.5 32,13.776 32.224,14 32.5,14 32.776,14 33,13.776 33,13.5 33,13.224 32.776,13 32.5,13 z m 2,0 C 34.224,13 34,13.224 34,13.5 34,13.776 34.224,14 34.5,14 34.776,14 35,13.776 35,13.5 35,13.224 34.776,13 34.5,13 z m -6,2 C 28.224,15 28,15.224 28,15.5 28,15.776 28.224,16 28.5,16 28.776,16 29,15.776 29,15.5 29,15.224 28.776,15 28.5,15 z m 2,0 C 30.224,15 30,15.224 30,15.5 30,15.776 30.224,16 30.5,16 30.776,16 31,15.776 31,15.5 31,15.224 30.776,15 30.5,15 z m 2,0 C 32.224,15 32,15.224 32,15.5 32,15.776 32.224,16 32.5,16 32.776,16 33,15.776 33,15.5 33,15.224 32.776,15 32.5,15 z m 2,0 C 34.224,15 34,15.224 34,15.5 34,15.776 34.224,16 34.5,16 34.776,16 35,15.776 35,15.5 35,15.224 34.776,15 34.5,15 z m -6,2 C 28.224,17 28,17.224 28,17.5 28,17.776 28.224,18 28.5,18 28.776,18 29,17.776 29,17.5 29,17.224 28.776,17 28.5,17 z m 2,0 C 30.224,17 30,17.224 30,17.5 30,17.776 30.224,18 30.5,18 30.776,18 31,17.776 31,17.5 31,17.224 30.776,17 30.5,17 z m 2,0 C 32.224,17 32,17.224 32,17.5 32,17.776 32.224,18 32.5,18 32.776,18 33,17.776 33,17.5 33,17.224 32.776,17 32.5,17 z m 2,0 C 34.224,17 34,17.224 34,17.5 34,17.776 34.224,18 34.5,18 34.776,18 35,17.776 35,17.5 35,17.224 34.776,17 34.5,17 z"/><path id="path6542" fill="#fafafa" fill-opacity="1" stroke="none" d="m 28.5,22.7 c -0.276,0 -0.5,0.224 -0.5,0.5 0,0.276 0.224,0.5 0.5,0.5 0.276,0 0.5,-0.224 0.5,-0.5 0,-0.276 -0.224,-0.5 -0.5,-0.5 z m 2,0 c -0.276,0 -0.5,0.224 -0.5,0.5 0,0.276 0.224,0.5 0.5,0.5 0.276,0 0.5,-0.224 0.5,-0.5 0,-0.276 -0.224,-0.5 -0.5,-0.5 z m 2,0 c -0.276,0 -0.5,0.224 -0.5,0.5 0,0.276 0.224,0.5 0.5,0.5 0.276,0 0.5,-0.224 0.5,-0.5 0,-0.276 -0.224,-0.5 -0.5,-0.5 z m 2,0 c -0.276,0 -0.5,0.224 -0.5,0.5 0,0.276 0.224,0.5 0.5,0.5 0.276,0 0.5,-0.224 0.5,-0.5 0,-0.276 -0.224,-0.5 -0.5,-0.5 z m -6,2 c -0.276,0 -0.5,0.224 -0.5,0.5 0,0.276 0.224,0.5 0.5,0.5 0.276,0 0.5,-0.224 0.5,-0.5 0,-0.276 -0.224,-0.5 -0.5,-0.5 z m 2,0 c -0.276,0 -0.5,0.224 -0.5,0.5 0,0.276 0.224,0.5 0.5,0.5 0.276,0 0.5,-0.224 0.5,-0.5 0,-0.276 -0.224,-0.5 -0.5,-0.5 z m 2,0 c -0.276,0 -0.5,0.224 -0.5,0.5 0,0.276 0.224,0.5 0.5,0.5 0.276,0 0.5,-0.224 0.5,-0.5 0,-0.276 -0.224,-0.5 -0.5,-0.5 z m 2,0 c -0.276,0 -0.5,0.224 -0.5,0.5 0,0.276 0.224,0.5 0.5,0.5 0.276,0 0.5,-0.224 0.5,-0.5 0,-0.276 -0.224,-0.5 -0.5,-0.5 z m -6,2 c -0.276,0 -0.5,0.224 -0.5,0.5 0,0.276 0.224,0.5 0.5,0.5 0.276,0 0.5,-0.224 0.5,-0.5 0,-0.276 -0.224,-0.5 -0.5,-0.5 z m 2,0 c -0.276,0 -0.5,0.224 -0.5,0.5 0,0.276 0.224,0.5 0.5,0.5 0.276,0 0.5,-0.224 0.5,-0.5 0,-0.276 -0.224,-0.5 -0.5,-0.5 z m 2,0 c -0.276,0 -0.5,0.224 -0.5,0.5 0,0.276 0.224,0.5 0.5,0.5 0.276,0 0.5,-0.224 0.5,-0.5 0,-0.276 -0.224,-0.5 -0.5,-0.5 z m 2,0 c -0.276,0 -0.5,0.224 -0.5,0.5 0,0.276 0.224,0.5 0.5,0.5 0.276,0 0.5,-0.224 0.5,-0.5 0,-0.276 -0.224,-0.5 -0.5,-0.5 z"/><path id="path6544" fill="#666" fill-opacity="1" stroke="none" d="M 28.5,23 C 28.224,23 28,23.224 28,23.5 28,23.776 28.224,24 28.5,24 28.776,24 29,23.776 29,23.5 29,23.224 28.776,23 28.5,23 z m 2,0 C 30.224,23 30,23.224 30,23.5 30,23.776 30.224,24 30.5,24 30.776,24 31,23.776 31,23.5 31,23.224 30.776,23 30.5,23 z m 2,0 C 32.224,23 32,23.224 32,23.5 32,23.776 32.224,24 32.5,24 32.776,24 33,23.776 33,23.5 33,23.224 32.776,23 32.5,23 z m 2,0 C 34.224,23 34,23.224 34,23.5 34,23.776 34.224,24 34.5,24 34.776,24 35,23.776 35,23.5 35,23.224 34.776,23 34.5,23 z m -6,2 C 28.224,25 28,25.224 28,25.5 28,25.776 28.224,26 28.5,26 28.776,26 29,25.776 29,25.5 29,25.224 28.776,25 28.5,25 z m 2,0 C 30.224,25 30,25.224 30,25.5 30,25.776 30.224,26 30.5,26 30.776,26 31,25.776 31,25.5 31,25.224 30.776,25 30.5,25 z m 2,0 C 32.224,25 32,25.224 32,25.5 32,25.776 32.224,26 32.5,26 32.776,26 33,25.776 33,25.5 33,25.224 32.776,25 32.5,25 z m 2,0 C 34.224,25 34,25.224 34,25.5 34,25.776 34.224,26 34.5,26 34.776,26 35,25.776 35,25.5 35,25.224 34.776,25 34.5,25 z m -6,2 C 28.224,27 28,27.224 28,27.5 28,27.776 28.224,28 28.5,28 28.776,28 29,27.776 29,27.5 29,27.224 28.776,27 28.5,27 z m 2,0 C 30.224,27 30,27.224 30,27.5 30,27.776 30.224,28 30.5,28 30.776,28 31,27.776 31,27.5 31,27.224 30.776,27 30.5,27 z m 2,0 C 32.224,27 32,27.224 32,27.5 32,27.776 32.224,28 32.5,28 32.776,28 33,27.776 33,27.5 33,27.224 32.776,27 32.5,27 z m 2,0 C 34.224,27 34,27.224 34,27.5 34,27.776 34.224,28 34.5,28 34.776,28 35,27.776 35,27.5 35,27.224 34.776,27 34.5,27 z"/><path id="path5522" fill="none" stroke="gray" stroke-dasharray="none" stroke-linecap="square" stroke-linejoin="miter" stroke-miterlimit="4" stroke-opacity="1" stroke-width="1" d="m 15.5,22.5 9,0" opacity=".6"/><path id="path5524" fill="none" stroke="gray" stroke-dasharray="none" stroke-linecap="square" stroke-linejoin="miter" stroke-miterlimit="4" stroke-opacity="1" stroke-width="1" d="m 15.5,24.5 9,0" opacity=".6"/><path id="path5526" fill="none" stroke="gray" stroke-dasharray="none" stroke-linecap="square" stroke-linejoin="miter" stroke-miterlimit="4" stroke-opacity="1" stroke-width="1" d="m 15.5,26.5 9,0" opacity=".6"/><path id="path5530" fill="none" stroke="#fff" stroke-dasharray="none" stroke-linecap="square" stroke-linejoin="miter" stroke-miterlimit="4" stroke-opacity="1" stroke-width="1" d="m 15.5,23.5 9,0" opacity=".6"/><path id="path5532" fill="none" stroke="#fff" stroke-dasharray="none" stroke-linecap="square" stroke-linejoin="miter" stroke-miterlimit="4" stroke-opacity="1" stroke-width="1" d="m 15.5,25.5 9,0" opacity=".6"/><path id="path5534" fill="none" stroke="#fff" stroke-dasharray="none" stroke-linecap="square" stroke-linejoin="miter" stroke-miterlimit="4" stroke-opacity="1" stroke-width="1" d="m 15.5,27.5 9,0" opacity=".6"/><rect id="rect3872" width="6.861" height="3.861" x="20.57" y="34.569" fill="url(#linearGradient3598)" fill-opacity="1" stroke="#5a5c58" stroke-dasharray="none" stroke-linecap="round" stroke-linejoin="round" stroke-miterlimit="4" stroke-opacity="1" stroke-width="1.139" rx="1.744" ry="1.744"/><path id="path8617" fill="#fff" fill-opacity=".72" fill-rule="nonzero" stroke="none" stroke-width="1.14" d="m 23.773314,35.786851 a 0.75,0.75 0 0 1 -1.5,0 0.75,0.75 0 1 1 1.5,0 z" display="block" enable-background="new" overflow="visible" visibility="visible" style="marker:none"/></svg>