<svg xmlns="http://www.w3.org/2000/svg" xmlns:svg="http://www.w3.org/2000/svg" xmlns:xlink="http://www.w3.org/1999/xlink" id="svg1325" width="48" height="48" version="1.1"><defs id="defs1327"><linearGradient id="linearGradient3958"><stop id="stop3960" offset="0" stop-color="#fff" stop-opacity="1"/><stop id="stop3962" offset=".515" stop-color="#000" stop-opacity="1"/><stop id="stop3964" offset="1" stop-color="#000" stop-opacity="1"/></linearGradient><linearGradient id="linearGradient2270"><stop id="stop2272" offset="0" stop-color="#fff" stop-opacity="1"/><stop id="stop2274" offset="1" stop-color="#fff" stop-opacity="0"/></linearGradient><linearGradient id="linearGradient2268" x1="31.67" x2="31.654" y1="17" y2="47" gradientTransform="translate(0,-8)" gradientUnits="userSpaceOnUse" xlink:href="#linearGradient2181"/><linearGradient id="linearGradient1341" x1="23.997" x2="23.788" y1="18.375" y2="46" gradientTransform="translate(0,-8)" gradientUnits="userSpaceOnUse" xlink:href="#linearGradient2270"/><linearGradient id="linearGradient2181"><stop id="stop2183" offset="0" stop-color="#f0f0f0" stop-opacity="1"/><stop id="stop2185" offset="1" stop-color="#d3d3d3" stop-opacity="1"/></linearGradient><radialGradient id="radialGradient3890" cx="9.5" cy="24" r="5.5" fx="9.5" fy="24" gradientTransform="matrix(1.5177196,1.0726872e-7,-1.6705603e-7,2.3636362,-4.9183319,-32.727271)" gradientUnits="userSpaceOnUse" xlink:href="#linearGradient2181"/><linearGradient id="linearGradient3898" x1="9.5" x2="9.5" y1="12" y2="36" gradientUnits="userSpaceOnUse" xlink:href="#linearGradient2270"/><linearGradient id="linearGradient3970" x1="44" x2="50" y1="24" y2="24" gradientTransform="translate(-1.336101,0.480508)" gradientUnits="userSpaceOnUse" xlink:href="#linearGradient3958"/><mask id="mask3966"><rect id="rect3968" width="49" height="32" x="-.336" y="8.481" fill="url(#linearGradient3970)" fill-opacity="1" stroke="none"/></mask><linearGradient id="linearGradient3976" x1="44" x2="50" y1="24" y2="24" gradientUnits="userSpaceOnUse" xlink:href="#linearGradient3958"/><mask id="mask3972"><rect id="rect3974" width="49" height="32" x="1" y="8" fill="url(#linearGradient3976)" fill-opacity="1" stroke="none"/></mask><linearGradient id="linearGradient3982" x1="44" x2="50" y1="24" y2="24" gradientUnits="userSpaceOnUse" xlink:href="#linearGradient3958"/><mask id="mask3978"><rect id="rect3980" width="49" height="32" x="1" y="8" fill="url(#linearGradient3982)" fill-opacity="1" stroke="none"/></mask><linearGradient id="linearGradient3988" x1="44" x2="50" y1="24" y2="24" gradientUnits="userSpaceOnUse" xlink:href="#linearGradient3958"/><mask id="mask3984"><rect id="rect3986" width="49" height="32" x="1" y="8" fill="url(#linearGradient3988)" fill-opacity="1" stroke="none"/></mask><linearGradient id="linearGradient3994" x1="44" x2="50" y1="24" y2="24" gradientUnits="userSpaceOnUse" xlink:href="#linearGradient3958"/><mask id="mask3990"><rect id="rect3992" width="49" height="32" x="1" y="8" fill="url(#linearGradient3994)" fill-opacity="1" stroke="none"/></mask><linearGradient id="linearGradient4000" x1="44" x2="50" y1="24" y2="24" gradientUnits="userSpaceOnUse" xlink:href="#linearGradient3958"/><mask id="mask3996"><rect id="rect3998" width="49" height="32" x="1" y="8" fill="url(#linearGradient4000)" fill-opacity="1" stroke="none"/></mask></defs><g id="layer1"><rect id="rect1333" width="46" height="29" x="2.5" y="9.5" fill="url(#linearGradient2268)" fill-opacity="1" stroke="#969696" stroke-dasharray="none" stroke-dashoffset="0" stroke-linecap="butt" stroke-linejoin="round" stroke-miterlimit="4" stroke-opacity="1" stroke-width="1" mask="url(#mask3996)"/><rect id="rect2210" width="45" height="27" x="3.5" y="10.5" fill="none" stroke="url(#linearGradient1341)" stroke-dasharray="none" stroke-dashoffset="0" stroke-linecap="butt" stroke-linejoin="round" stroke-miterlimit="4" stroke-opacity="1" stroke-width="1" mask="url(#mask3990)" opacity=".8"/><rect id="rect1337" width="10" height="25" x="4.5" y="11.5" fill="url(#radialGradient3890)" fill-opacity="1" fill-rule="nonzero" stroke="#969696" stroke-dasharray="none" stroke-dashoffset="0" stroke-linecap="square" stroke-linejoin="miter" stroke-miterlimit="4" stroke-opacity="1" stroke-width="1" color="#000" display="inline" mask="url(#mask3984)" overflow="visible" rx="1.625" ry="1.625" visibility="visible" style="marker:none"/><rect id="rect2212" width="8" height="23" x="5.5" y="12.5" fill="none" stroke="url(#linearGradient3898)" stroke-dasharray="none" stroke-dashoffset="0" stroke-linecap="square" stroke-linejoin="miter" stroke-miterlimit="4" stroke-opacity="1" stroke-width="1" color="#000" display="inline" mask="url(#mask3978)" opacity=".7" overflow="visible" rx=".563" ry=".563" visibility="visible" style="marker:none"/><path id="path2214" fill="#000" fill-opacity="1" fill-rule="evenodd" stroke="none" d="M 8,23.5 11,21 11,26 8,23.5 z" mask="url(#mask3972)"/><g id="layer6" fill="#2e3436" display="inline" mask="url(#mask3966)" transform="translate(1.336101,-0.480508)"><g id="g2450" fill="#2e3436" fill-opacity="1" display="inline" transform="matrix(1.111126,0,0,1.11111,-1.111123,-1.999954)"><path id="path4490" fill="#2e3436" fill-opacity="1" fill-rule="nonzero" stroke="none" d="m 29.825673,13.93243 c -3.952631,0 -4.694091,5.629792 -2.470515,5.629792 2.223255,0 6.423307,-5.629792 2.470515,-5.629792 z"/><path id="path4492" fill="#2e3436" fill-opacity="1" fill-rule="nonzero" stroke="none" d="m 23.262429,18.864623 c 1.183926,0.0723 2.482886,-4.518164 0.257703,-4.229453 -2.224379,0.288711 -1.442111,4.157155 -0.257703,4.229453 z"/><path id="path4494" fill="#2e3436" fill-opacity="1" fill-rule="nonzero" stroke="none" d="m 17.836518,21.717034 c 0.842035,-0.370649 0.108448,-3.99601 -1.323381,-3.00729 -1.431186,0.988881 0.481346,3.377779 1.323381,3.00729 z"/><path id="path4496" fill="#2e3436" fill-opacity="1" fill-rule="nonzero" stroke="none" d="m 20.209029,19.819444 c 1.002376,-0.204364 1.057323,-4.316051 -0.730214,-3.578447 -1.787858,0.737764 -0.27136,3.783131 0.730214,3.578447 l 0,0 z"/><path id="path4498" fill="#2e3436" fill-opacity="1" fill-rule="nonzero" stroke="none" d="m 25.443268,29.020774 c 0.177854,1.358245 -0.996431,2.029013 -2.146457,1.1534 -3.661028,-2.787342 6.061654,-4.17772 5.420769,-7.985915 -0.531955,-3.160884 -10.230377,-2.187748 -11.334774,2.757941 -0.747565,3.345325 3.077178,7.986236 7.068047,7.986236 1.963302,0 4.227847,-1.772755 4.651515,-4.018503 0.323576,-1.712506 -3.807552,-1.026315 -3.6591,0.106841 l 0,0 z"/></g></g></g></svg>