<svg xmlns="http://www.w3.org/2000/svg" xmlns:svg="http://www.w3.org/2000/svg" xmlns:xlink="http://www.w3.org/1999/xlink" id="svg2418" width="48" height="48"><defs id="defs2420"><radialGradient id="radialGradient2499-518" cx="62.625" cy="4.625" r="10.625" fx="62.625" fy="4.625" gradientTransform="matrix(1,0,0,0.341176,0,3.047059)" gradientUnits="userSpaceOnUse" xlink:href="#linearGradient8838-487"/><linearGradient id="linearGradient8838-487"><stop id="stop2432" offset="0" stop-color="#000" stop-opacity="1"/><stop id="stop2434" offset="1" stop-color="#000" stop-opacity="0"/></linearGradient><linearGradient id="linearGradient2465-608" x1="21.483" x2="21.483" y1="21.671" y2="33.41" gradientUnits="userSpaceOnUse" xlink:href="#linearGradient2250-714"/><linearGradient id="linearGradient2250-714"><stop id="stop2438" offset="0" stop-color="#c7c7c7" stop-opacity="1"/><stop id="stop2440" offset="1" stop-color="#a5a5a5" stop-opacity="1"/></linearGradient><linearGradient id="linearGradient2467-856" x1="21.483" x2="21.483" y1="36.346" y2="9.58" gradientUnits="userSpaceOnUse" xlink:href="#linearGradient3215-22"/><linearGradient id="linearGradient3215-22"><stop id="stop2444" offset="0" stop-color="#6d6d6d" stop-opacity="1"/><stop id="stop2446" offset="1" stop-color="#999" stop-opacity="1"/></linearGradient><linearGradient id="linearGradient5541-370" x1="21.483" x2="21.483" y1="9.463" y2="26.294" gradientTransform="matrix(1.5575239,0,0,1.5420736,-9.4936458,-12.492178)" gradientUnits="userSpaceOnUse" xlink:href="#linearGradient5178-177"/><linearGradient id="linearGradient5178-177"><stop id="stop2450" offset="0" stop-color="#fff" stop-opacity="1"/><stop id="stop2452" offset=".892" stop-color="#e1e1e1" stop-opacity="1"/><stop id="stop2454" offset="1" stop-color="#c3c3c3" stop-opacity="0"/></linearGradient><linearGradient id="linearGradient2476-945" x1="24.097" x2="23.673" y1="9.596" y2="22.839" gradientTransform="matrix(1.3469077,0,0,1.3469077,-8.3257881,-6.6326722)" gradientUnits="userSpaceOnUse" xlink:href="#linearGradient3230-405"/><linearGradient id="linearGradient3230-405"><stop id="stop2458" offset="0" stop-color="#ececec" stop-opacity="1"/><stop id="stop2460" offset="1" stop-color="#c9c9c9" stop-opacity="1"/></linearGradient></defs><metadata id="metadata2423"/><g id="layer1"><path id="path8836" fill="url(#radialGradient2499-518)" fill-opacity="1" fill-rule="evenodd" stroke="none" stroke-dasharray="none" stroke-dashoffset="0" stroke-linecap="butt" stroke-linejoin="round" stroke-miterlimit="4" stroke-opacity="1" stroke-width="1" marker-end="none" marker-mid="none" marker-start="none" d="M 73.25,4.625 A 10.625,3.625 0 1 1 52,4.625 A 10.625,3.625 0 1 1 73.25,4.625 z" display="inline" opacity=".3" overflow="visible" transform="matrix(2.149872,0,0,2.5636643,-110.63573,26.84977)" visibility="visible" style="marker:none"/><path id="path1307" fill="url(#linearGradient2465-608)" fill-opacity="1" fill-rule="nonzero" stroke="url(#linearGradient2467-856)" stroke-dasharray="none" stroke-dashoffset="0" stroke-linecap="butt" stroke-linejoin="round" stroke-miterlimit="4" stroke-opacity="1" stroke-width=".6" marker-end="none" marker-mid="none" marker-start="none" d="M 21.483376,9.9840555 C 22.403368,9.9840555 25.369404,17.393062 26.113694,17.93382 C 26.857983,18.474578 34.820922,19.005937 35.105216,19.880902 C 35.389509,20.755867 29.25968,25.866243 28.975387,26.741208 C 28.691094,27.616173 30.646425,35.353577 29.902135,35.894335 C 29.157846,36.435093 22.403368,32.184473 21.483375,32.184473 C 20.563383,32.184473 13.808905,36.435093 13.064615,35.894335 C 12.320326,35.353577 14.275657,27.616172 13.991364,26.741208 C 13.707071,25.866243 7.5772423,20.755866 7.8615356,19.880901 C 8.1458289,19.005937 16.108768,18.474578 16.853058,17.93382 C 17.597347,17.393062 20.563384,9.9840555 21.483376,9.9840555 z" display="inline" overflow="visible" transform="matrix(1.6508808,0,0,1.6568311,-11.466494,-15.045759)" visibility="visible" style="marker:none"/><path id="path1309" fill="none" fill-opacity="1" fill-rule="nonzero" stroke="url(#linearGradient5541-370)" stroke-dasharray="none" stroke-dashoffset="0" stroke-linecap="butt" stroke-linejoin="round" stroke-miterlimit="4" stroke-opacity="1" stroke-width="1" marker-end="none" marker-mid="none" marker-start="none" d="M 24,2.5 C 26.255601,6.8171106 28.478429,11.452433 30.73403,15.769542 C 35.578003,16.559406 40.685229,17.700275 45.529202,18.490139 C 42.079268,21.948123 38.629332,25.406109 35.179398,28.864094 C 35.917536,33.669368 36.392419,38.123635 37.130558,42.928909 C 32.742781,40.748952 28.355003,38.568994 23.967226,36.389035 C 19.579447,38.568994 15.19167,40.748952 10.803892,42.928909 C 11.542029,38.123635 11.929163,33.581617 12.6673,28.776343 C 9.2173666,25.318358 5.7674325,21.860372 2.3174996,18.402388 C 7.1614709,17.612524 12.356449,16.559406 17.20042,15.769542 C 19.456021,11.452433 21.744398,6.8171106 24,2.5 z" display="inline" overflow="visible" visibility="visible" style="marker:none"/><path id="path1322" fill="url(#linearGradient2476-945)" fill-opacity="1" fill-rule="nonzero" stroke="none" stroke-dasharray="none" stroke-dashoffset="0" stroke-linecap="butt" stroke-linejoin="round" stroke-miterlimit="4" stroke-opacity="1" stroke-width="1" marker-end="none" marker-mid="none" marker-start="none" d="M 24,3.5016193 L 17.482712,16.179705 L 3.4573308,18.606589 L 10.777151,26.144614 C 14.936585,22.073555 18.959155,22.096885 24,22.182123 C 29.040847,22.267361 32.896646,22.636912 36.898383,26.187075 L 44.627479,18.797249 L 30.344521,16.091954 L 24,3.5016193 z" display="inline" overflow="visible" visibility="visible" style="marker:none"/><path id="path11014" fill="none" fill-rule="evenodd" stroke="#b7b7b7" stroke-dasharray="none" stroke-linecap="butt" stroke-linejoin="miter" stroke-miterlimit="4" stroke-opacity="1" stroke-width="1" d="M 36.457966,42.854576 C 36.457966,42.854576 32.139552,39.111951 26.381667,37.960374" display="inline"/><path id="path11985" fill="none" fill-rule="evenodd" stroke="#b7b7b7" stroke-dasharray="none" stroke-linecap="butt" stroke-linejoin="miter" stroke-miterlimit="4" stroke-opacity="1" stroke-width="1" d="M 11.175618,42.854576 C 11.175618,42.854576 15.494031,39.111951 21.251916,37.960374" display="inline"/></g></svg>