<svg xmlns="http://www.w3.org/2000/svg" xmlns:svg="http://www.w3.org/2000/svg" xmlns:xlink="http://www.w3.org/1999/xlink" id="svg3222" width="48" height="48" version="1.1"><defs id="defs3224"><radialGradient id="radialGradient3950" cx="32" cy="41.5" r="21" fx="32" fy="41.5" gradientTransform="matrix(0.45320196,0,0,0.14285713,-4.9852241,19.071429)" gradientUnits="userSpaceOnUse" xlink:href="#linearGradient5060-6"/><linearGradient id="linearGradient5060-6"><stop id="stop5062-98" offset="0" stop-color="#000" stop-opacity="1"/><stop id="stop5064-7" offset="1" stop-color="#000" stop-opacity="0"/></linearGradient><radialGradient id="radialGradient3945" cx="25" cy="28.66" r="16" fx="25" fy="28.66" gradientTransform="matrix(0.67742075,0,0,0.20218688,-10.01617,13.392823)" gradientUnits="userSpaceOnUse" xlink:href="#linearGradient6954-4"/><linearGradient id="linearGradient6954-4"><stop id="stop6960-6" offset="0" stop-color="#f5f5f5" stop-opacity="1"/><stop id="stop6962-2" offset="1" stop-color="#d2d2d2" stop-opacity="1"/></linearGradient><linearGradient id="linearGradient3947" x1="30" x2="30" y1="25.085" y2="45" gradientTransform="matrix(0.51613011,0,0,0.54166819,-5.9839037,2.3957834)" gradientUnits="userSpaceOnUse" xlink:href="#linearGradient3785-4"/><linearGradient id="linearGradient3785-4"><stop id="stop3787-0" offset="0" stop-color="#b8b8b8" stop-opacity="1"/><stop id="stop3789-0" offset="1" stop-color="#878787" stop-opacity="1"/></linearGradient><linearGradient id="linearGradient4024" x1="30.969" x2="30.969" y1="17.731" y2="43.577" gradientTransform="matrix(0.51613011,0,0,0.54166819,-5.9839037,2.3957834)" gradientUnits="userSpaceOnUse" xlink:href="#linearGradient3341-6"/><linearGradient id="linearGradient3341-6"><stop id="stop3343-7" offset="0" stop-color="#fff" stop-opacity="1"/><stop id="stop3345-5" offset="1" stop-color="#fff" stop-opacity="0"/></linearGradient><radialGradient id="radialGradient3940" cx="26.376" cy="12.313" r="8" fx="26.376" fy="12.313" gradientTransform="matrix(0.65607306,-0.05767638,0.05124607,0.68946123,-9.8587459,1.8332903)" gradientUnits="userSpaceOnUse" xlink:href="#linearGradient6954-4"/><linearGradient id="linearGradient3942" x1="30" x2="30" y1="5" y2="44.679" gradientTransform="matrix(0.40000437,0,0,0.43502308,-2.5001279,4.1073409)" gradientUnits="userSpaceOnUse" xlink:href="#linearGradient3785-4"/><linearGradient id="linearGradient3937" x1="22" x2="17" y1="39" y2="37.438" gradientTransform="matrix(0.74999998,0,0,0.43478256,-10.249996,6.9173937)" gradientUnits="userSpaceOnUse" xlink:href="#linearGradient5060-6"/><radialGradient id="radialGradient3934" cx="30" cy="33.188" r="4.688" fx="30" fy="33.188" gradientTransform="matrix(1.0341041,-4.7098299e-7,1.4421293e-7,0.30724419,-21.505888,8.8033472)" gradientUnits="userSpaceOnUse" xlink:href="#linearGradient5060-6"/><linearGradient id="linearGradient3972" x1="31.25" x2="31.25" y1="4.351" y2="25.039" gradientTransform="matrix(0.40000437,0,0,0.43502308,-2.5001279,4.1073409)" gradientUnits="userSpaceOnUse" xlink:href="#linearGradient3341-6"/><radialGradient id="radialGradient2950" cx="32" cy="41.5" r="21" fx="32" fy="41.5" gradientTransform="matrix(0.57142856,0,0,0.16666666,1.7142828,20.583334)" gradientUnits="userSpaceOnUse" xlink:href="#linearGradient5060-6"/><radialGradient id="radialGradient2945" cx="25" cy="28.66" r="16" fx="25" fy="28.66" gradientTransform="matrix(0.88911393,0,0,0.26439791,-5.6149485,12.359857)" gradientUnits="userSpaceOnUse" xlink:href="#linearGradient6954-4"/><linearGradient id="linearGradient2947" x1="30" x2="30" y1="25.085" y2="45" gradientTransform="matrix(0.67742015,0,0,0.70833449,-0.32260348,-2.0208703)" gradientUnits="userSpaceOnUse" xlink:href="#linearGradient3785-4"/><linearGradient id="linearGradient3733" x1="24.349" x2="24.349" y1="57.333" y2="83.733" gradientTransform="matrix(0.65517451,0,0,0.68182253,3.0473758,-28.09122)" gradientUnits="userSpaceOnUse" xlink:href="#linearGradient3341-6"/><radialGradient id="radialGradient2937" cx="26.376" cy="12.313" r="8" fx="26.376" fy="12.313" gradientTransform="matrix(0.98412314,-0.08459387,0.07687018,1.0112316,-9.0385241,-4.3447189)" gradientUnits="userSpaceOnUse" xlink:href="#linearGradient6954-4"/><linearGradient id="linearGradient2939" x1="30" x2="30" y1="5" y2="44.679" gradientTransform="matrix(0.6000148,0,0,0.6380476,1.9995574,-1.0093725)" gradientUnits="userSpaceOnUse" xlink:href="#linearGradient3785-4"/><linearGradient id="linearGradient2934" x1="22" x2="17" y1="39" y2="37.438" gradientTransform="matrix(0.74999996,0,0,0.65217387,-1.7499962,0.22608877)" gradientUnits="userSpaceOnUse" xlink:href="#linearGradient5060-6"/><linearGradient id="linearGradient2931" x1="38" x2="43" y1="39" y2="38.6" gradientTransform="matrix(0.74999996,0,0,0.65217387,-3.2499956,0.22608875)" gradientUnits="userSpaceOnUse" xlink:href="#linearGradient5060-6"/><radialGradient id="radialGradient2928" cx="30" cy="33.188" r="4.688" fx="30" fy="33.188" gradientTransform="matrix(1.3038704,-4.7098302e-7,1.8183369e-7,0.3072442,-19.11612,9.803347)" gradientUnits="userSpaceOnUse" xlink:href="#linearGradient5060-6"/><linearGradient id="linearGradient3728" x1="30" x2="30" y1="5.703" y2="27.957" gradientTransform="matrix(0.5410937,0,0,0.60327904,3.7671936,-0.44038972)" gradientUnits="userSpaceOnUse" xlink:href="#linearGradient3341-6"/><linearGradient id="linearGradient3192" x1="22.004" x2="22.004" y1="44.854" y2="3.072" gradientTransform="translate(-1.3077739,-0.499257)" gradientUnits="userSpaceOnUse" xlink:href="#linearGradient3104-9"/><linearGradient id="linearGradient3104-9"><stop id="stop3106-3" offset="0" stop-color="#a0a0a0" stop-opacity="1"/><stop id="stop3108-9" offset="1" stop-color="#c8c8c8" stop-opacity="1"/></linearGradient><linearGradient id="linearGradient3214" x1="-60.97" x2="-60.908" y1="13.668" y2="114.535" gradientTransform="matrix(0.4503686,2.7172606e-4,-2.742051e-4,0.446297,45.500005,-7.4901617)" gradientUnits="userSpaceOnUse" xlink:href="#linearGradient3600-1"/><linearGradient id="linearGradient3600-1"><stop id="stop3828" offset="0" stop-color="#f4f4f4" stop-opacity="1"/><stop id="stop3604-2" offset="1" stop-color="#dbdbdb" stop-opacity="1"/></linearGradient><linearGradient id="linearGradient3216" x1="11.536" x2="11.536" y1="44.952" y2="-1.004" gradientTransform="translate(-1.3077734,-0.4516423)" gradientUnits="userSpaceOnUse" xlink:href="#linearGradient3104-9"/><radialGradient id="radialGradient3219" cx="605.714" cy="486.648" r="117.143" fx="605.714" fy="486.648" gradientTransform="matrix(0.02289231,0,0,0.01235294,25.045931,37.971592)" gradientUnits="userSpaceOnUse" xlink:href="#linearGradient5060-63"/><linearGradient id="linearGradient5060-63"><stop id="stop5062-94" offset="0" stop-color="#000" stop-opacity="1"/><stop id="stop5064-8" offset="1" stop-color="#000" stop-opacity="0"/></linearGradient><radialGradient id="radialGradient3222" cx="605.714" cy="486.648" r="117.143" fx="605.714" fy="486.648" gradientTransform="matrix(-0.02289231,0,0,0.01235294,20.338517,37.971592)" gradientUnits="userSpaceOnUse" xlink:href="#linearGradient5060-63"/><linearGradient id="linearGradient5048-7"><stop id="stop5050-3" offset="0" stop-color="#000" stop-opacity="0"/><stop id="stop5056-6" offset=".5" stop-color="#000" stop-opacity="1"/><stop id="stop5052-5" offset="1" stop-color="#000" stop-opacity="0"/></linearGradient><linearGradient id="linearGradient3220" x1="302.857" x2="302.857" y1="366.648" y2="609.505" gradientTransform="matrix(0.06689349,0,0,0.01235294,-1.4849934,37.971566)" gradientUnits="userSpaceOnUse" xlink:href="#linearGradient5048-7"/></defs><g id="layer1"><rect id="rect3706" width="32.3" height="3" x="6.542" y="42.501" fill="url(#linearGradient3220)" fill-opacity="1" fill-rule="nonzero" stroke="none" stroke-width="1.046" display="inline" opacity=".402" overflow="visible" visibility="visible" style="marker:none"/><path id="path3708" fill="url(#radialGradient3222)" fill-opacity="1" fill-rule="nonzero" stroke="none" stroke-width="1.046" d="m 6.5422261,42.500874 c 0,0 0,2.999834 0,2.999834 -1.1788976,0.0056 -2.85,-0.672111 -2.85,-1.50011 0,-0.827999 1.3155607,-1.499723 2.85,-1.499724 z" display="inline" opacity=".402" overflow="visible" visibility="visible" style="marker:none"/><path id="path3710" fill="url(#radialGradient3219)" fill-opacity="1" fill-rule="nonzero" stroke="none" stroke-width="1.046" d="m 38.842226,42.500874 c 0,0 0,2.999834 0,2.999834 1.178897,0.0056 2.85,-0.672111 2.85,-1.50011 0,-0.827999 -1.315561,-1.499723 -2.85,-1.499724 z" display="inline" opacity=".402" overflow="visible" visibility="visible" style="marker:none"/><path id="path2855" fill="url(#linearGradient3214)" fill-opacity="1" stroke="url(#linearGradient3216)" stroke-dasharray="none" stroke-linecap="round" stroke-linejoin="round" stroke-miterlimit="4" stroke-opacity="1" stroke-width="1" d="m 6.1922261,3.0007418 c 8.5221489,0.00514 24.4778529,-0.00514 32.9999999,0 0.07503,1.6057907 0.92418,38.1983792 0.999236,41.0000002 -11.666411,-0.007 -23.332822,-0.01408 -34.9992359,-0.02112 0.09181,-3.1471 0.9081898,-39.5667186 1,-40.9788792 z" display="inline"/><path id="path5685" fill="#80b3ff" fill-rule="evenodd" stroke="#f6abab" stroke-dasharray="none" stroke-linecap="round" stroke-linejoin="round" stroke-miterlimit="4" stroke-opacity="1" stroke-width=".5" d="M 11.379805,3.7506305 10.942226,43.250742" display="inline" opacity=".591"/><path id="path6656" fill="#80b3ff" fill-rule="evenodd" stroke="#80b3ff" stroke-dasharray="none" stroke-linecap="round" stroke-linejoin="round" stroke-miterlimit="4" stroke-opacity="1" stroke-width=".25" d="M 38.749665,9.3757418 6.5693773,9.1912098" display="inline" opacity=".437"/><path id="path6658" fill="#80b3ff" fill-rule="evenodd" stroke="#80b3ff" stroke-dasharray="none" stroke-linecap="round" stroke-linejoin="round" stroke-miterlimit="4" stroke-opacity="1" stroke-width=".25" d="M 38.823675,11.375742 6.5607723,11.191207" display="inline" opacity=".437"/><path id="path6660" fill="#80b3ff" fill-rule="evenodd" stroke="#80b3ff" stroke-dasharray="none" stroke-linecap="round" stroke-linejoin="round" stroke-miterlimit="4" stroke-opacity="1" stroke-width=".25" d="M 38.906293,13.375742 6.4781556,13.191211" display="inline" opacity=".437"/><path id="path6662" fill="#80b3ff" fill-rule="evenodd" stroke="#80b3ff" stroke-dasharray="none" stroke-linecap="round" stroke-linejoin="round" stroke-miterlimit="4" stroke-opacity="1" stroke-width=".25" d="M 38.98891,15.375742 6.3955405,15.191209" display="inline" opacity=".437"/><path id="path6664" fill="#80b3ff" fill-rule="evenodd" stroke="#80b3ff" stroke-dasharray="none" stroke-linecap="round" stroke-linejoin="round" stroke-miterlimit="4" stroke-opacity="1" stroke-width=".25" d="M 38.988911,17.375742 6.3955399,17.191209" display="inline" opacity=".437"/><path id="path6666" fill="#80b3ff" fill-rule="evenodd" stroke="#80b3ff" stroke-dasharray="none" stroke-linecap="round" stroke-linejoin="round" stroke-miterlimit="4" stroke-opacity="1" stroke-width=".25" d="M 39.071528,19.375742 6.3129234,19.191208" display="inline" opacity=".437"/><path id="path7637" fill="#80b3ff" fill-opacity="1" fill-rule="evenodd" stroke="#80b3ff" stroke-dasharray="none" stroke-dashoffset="0" stroke-linecap="round" stroke-linejoin="round" stroke-miterlimit="4" stroke-opacity="1" stroke-width=".25" d="M 39.071528,21.375742 6.3129235,21.19121" display="inline" enable-background="accumulate" opacity=".437" overflow="visible" visibility="visible" style="marker:none"/><path id="path7639" fill="#80b3ff" fill-opacity="1" fill-rule="evenodd" stroke="#80b3ff" stroke-dasharray="none" stroke-dashoffset="0" stroke-linecap="round" stroke-linejoin="round" stroke-miterlimit="4" stroke-opacity="1" stroke-width=".25" d="M 39.154141,23.375742 6.2303071,23.191209" display="inline" enable-background="accumulate" opacity=".437" overflow="visible" visibility="visible" style="marker:none"/><path id="path7641" fill="#80b3ff" fill-opacity="1" fill-rule="evenodd" stroke="#80b3ff" stroke-dasharray="none" stroke-dashoffset="0" stroke-linecap="round" stroke-linejoin="round" stroke-miterlimit="4" stroke-opacity="1" stroke-width=".25" d="M 39.154139,25.375742 6.2303082,25.191209" display="inline" enable-background="accumulate" opacity=".437" overflow="visible" visibility="visible" style="marker:none"/><path id="path7645" fill="#80b3ff" fill-opacity="1" fill-rule="evenodd" stroke="#80b3ff" stroke-dasharray="none" stroke-dashoffset="0" stroke-linecap="round" stroke-linejoin="round" stroke-miterlimit="4" stroke-opacity="1" stroke-width=".25" d="M 39.319374,27.375742 6.0650762,27.191212" display="inline" enable-background="accumulate" opacity=".437" overflow="visible" visibility="visible" style="marker:none"/><path id="path7647" fill="#80b3ff" fill-opacity="1" fill-rule="evenodd" stroke="#80b3ff" stroke-dasharray="none" stroke-dashoffset="0" stroke-linecap="round" stroke-linejoin="round" stroke-miterlimit="4" stroke-opacity="1" stroke-width=".25" d="M 39.319374,29.364874 6.0650758,29.18034" display="inline" enable-background="accumulate" opacity=".437" overflow="visible" visibility="visible" style="marker:none"/><path id="path7649" fill="#80b3ff" fill-opacity="1" fill-rule="evenodd" stroke="#80b3ff" stroke-dasharray="none" stroke-dashoffset="0" stroke-linecap="round" stroke-linejoin="round" stroke-miterlimit="4" stroke-opacity="1" stroke-width=".25" d="M 39.567222,31.375742 5.8172271,31.191209" display="inline" enable-background="accumulate" opacity=".437" overflow="visible" visibility="visible" style="marker:none"/><path id="path7651" fill="#80b3ff" fill-opacity="1" fill-rule="evenodd" stroke="#80b3ff" stroke-dasharray="none" stroke-dashoffset="0" stroke-linecap="round" stroke-linejoin="round" stroke-miterlimit="4" stroke-opacity="1" stroke-width=".25" d="M 39.567222,33.331171 5.8172271,33.146637" display="inline" enable-background="accumulate" opacity=".437" overflow="visible" visibility="visible" style="marker:none"/><path id="path7653" fill="#80b3ff" fill-opacity="1" fill-rule="evenodd" stroke="#80b3ff" stroke-dasharray="none" stroke-dashoffset="0" stroke-linecap="round" stroke-linejoin="round" stroke-miterlimit="4" stroke-opacity="1" stroke-width=".25" d="M 39.567221,35.314319 5.8172278,35.129787" display="inline" enable-background="accumulate" opacity=".437" overflow="visible" visibility="visible" style="marker:none"/><path id="path7655" fill="#80b3ff" fill-opacity="1" fill-rule="evenodd" stroke="#80b3ff" stroke-dasharray="none" stroke-dashoffset="0" stroke-linecap="round" stroke-linejoin="round" stroke-miterlimit="4" stroke-opacity="1" stroke-width=".25" d="M 39.567222,37.297467 5.817227,37.112931" display="inline" enable-background="accumulate" opacity=".437" overflow="visible" visibility="visible" style="marker:none"/><path id="path7657" fill="#80b3ff" fill-opacity="1" fill-rule="evenodd" stroke="#80b3ff" stroke-dasharray="none" stroke-dashoffset="0" stroke-linecap="round" stroke-linejoin="round" stroke-miterlimit="4" stroke-opacity="1" stroke-width=".25" d="M 39.567221,39.280616 5.8172279,39.096082" display="inline" enable-background="accumulate" opacity=".437" overflow="visible" visibility="visible" style="marker:none"/><path id="path7659" fill="#80b3ff" fill-opacity="1" fill-rule="evenodd" stroke="#80b3ff" stroke-dasharray="none" stroke-dashoffset="0" stroke-linecap="round" stroke-linejoin="round" stroke-miterlimit="4" stroke-opacity="1" stroke-width=".25" d="M 39.567221,41.375742 5.8172277,41.191209" display="inline" enable-background="accumulate" opacity=".437" overflow="visible" visibility="visible" style="marker:none"/><path id="path7671" fill="none" stroke="#b9d5ff" stroke-dasharray="none" stroke-linecap="round" stroke-linejoin="round" stroke-miterlimit="4" stroke-opacity="1" stroke-width=".5" d="M 33.942226,3.6680151 34.991734,43.168126" display="inline" opacity=".591"/><path id="path3715" fill="none" stroke="url(#linearGradient3192)" stroke-linecap="butt" stroke-linejoin="miter" stroke-opacity="1" stroke-width="1" d="m 11.69116,11.04709 2.34797,0 m 0.335425,0 2.180258,0 m 0.350956,0 1.945461,0 m 0.319893,0 0.83856,0 m 0.335425,0 1.878376,0 m 0.368967,0 4.930737,0 m 0.335426,0 3.756752,0 m 0.335425,0 1.140442,0 m -21.400073,1.953653 3.640632,0 m 0.423562,0 1.739577,0 m 0.321577,0 0.85845,0 m 0.349272,0 1.602406,0 m 0.335425,0 1.643346,0 m 0.31021,0 2.580441,0 m 0.335426,0 3.404208,0 m -17.544532,1.980028 3.081427,0 m 0.323704,0 5.074837,0 m 0.31103,0 2.461186,0 m 0.315453,0 2.30241,0 m 0.330181,0 1.961321,0 m 0.315454,0 3.084663,0.01997 m -19.561666,2 4.284352,0 m 0.336433,0 4.630578,0 m 0.319893,0 1.81966,0 m 0.335425,0 4.331127,0 m 0.291512,0 2.968536,0 m 0.335426,0 1.174909,0 m 0.335425,0 0.649892,0 m -21.813168,2 1.599235,0 m 0.491344,0 5.921499,0 m -8.012078,10 3.640632,0 m 0.423562,0 1.739577,0 m 0.321577,0 0.85845,0 m 0.349272,0 1.602406,0 m 0.335425,0 1.643346,0 m 0.31021,0 2.580441,0 m -13.804898,3.980028 3.081427,0 m 0.323704,0 5.074837,0 m 0.31103,0 2.461186,0 m 8.697299,0.06136 5.026898,0 m -24.976381,-6.041388 4.284352,0 m 0.336433,0 4.630578,0 m 0.319893,0 1.81966,0 m 0.335425,0 4.331127,0 m -16.057468,-4 2.34797,0 m 0.335425,0 2.180258,0 m 0.350956,0 1.945461,0 m 0.319893,0 0.83856,0 m 0.335425,0 1.878376,0 m 0.368967,0 4.930737,0 m 0.335426,0 3.756752,0 m -19.924206,2 3.954284,0 m 0.311043,0 4.198951,0 m 0.319893,0 1.641931,0 m 0.310036,0 3.950279,0 m 0.316902,0 4.314197,0 m -19.317516,10 3.695207,0 m 0.396663,0 1.629116,0 m 0.381575,0 0.812557,0 m 0.258655,0 1.604035,0 m 0.212949,0 8.492084,0 m 0.399586,0 2.266883,0 m 0.304807,0 0.572374,0 m -16.81675,2 1.20539,0 m -5.415131,0 3.856881,0 m 1.866532,0 2.804548,0 m 0.29667,0 4.116902,0 m 0.319893,0 2.792858,0 m 0.281139,0 0.575511,0 m 0.314681,0 3.546443,0 m 0.362569,0 1.85674,0 m -18.781626,2 1.701949,0 m -5.91169,0 3.856881,0 m 2.423647,0 2.392767,0"/><g id="g4005" transform="translate(16,17)"><g id="g3996"><path id="path3823-9" fill="url(#radialGradient3950)" fill-opacity="1" stroke="none" d="M 19.034483,25 A 9.5172416,3 0 0 1 -9.9999998e-8,25 9.5172416,3 0 1 1 19.034483,25 z" opacity=".8"/><path id="path3766-9" fill="url(#radialGradient3945)" fill-opacity="1" stroke="url(#linearGradient3947)" stroke-dasharray="none" stroke-miterlimit="4" stroke-opacity="1" stroke-width="1" d="m 7.554,13.499982 c 0.2375296,1.179065 0.1455472,2.070945 -0.047146,3.250008 -1.5022978,1.308063 -5.4965028,1.895841 -5.4907412,3.250011 l -0.516132,4.06251 c 0,1.346197 3.581731,2.437508 8.0000172,2.437508 4.41829,0 8.000019,-1.091311 8.000019,-2.437508 l -0.516131,-4.06251 C 16.977687,18.841014 12.960254,18.10416 11.476382,16.74999 11.349635,15.655638 11.326595,14.594334 11.546,13.499982 l -3.992,0 z"/><path id="path3980" fill="none" stroke="url(#linearGradient4024)" stroke-dasharray="none" stroke-miterlimit="4" stroke-opacity="1" stroke-width="1" d="m 8.3683748,17.178953 c -0.8083786,0.977128 -2.0765843,1.3663 -3.2071253,1.837423 -0.750209,0.285461 -1.514765,0.57267 -2.16602,1.053173 -0.15406,1.332571 -0.3530486,2.661815 -0.5264795,3.992951 1.2371776,0.883685 2.8021505,1.069307 4.2643523,1.30497 2.6657248,0.311213 5.4053537,0.200765 8.0078747,-0.478578 0.572425,-0.267709 1.627399,-0.361183 1.768407,-1.033257 C 16.327464,22.635634 16.171553,21.409841 16,20.1875 15.124958,19.495676 14.005817,19.246837 13.014357,18.77141 12.171058,18.413439 11.323846,17.995294 10.682064,17.324969 10.321341,13.599787 8.9733326,13.610844 8.3683748,17.178953 z" opacity=".6"/><path id="path3764-0" fill="url(#radialGradient3940)" fill-opacity="1" stroke="url(#linearGradient3942)" stroke-dasharray="none" stroke-miterlimit="4" stroke-opacity="1" stroke-width="1" d="m 9.4999999,6.499968 c -1.6568723,0 -3.0000315,1.3633656 -3.0000315,3.045162 0.012987,0.6224 0.061832,1.361788 0.4000042,3.045162 0.2000019,0.652533 1.9839251,2.829197 2.0000213,3.046708 0.3878718,0.217514 1.0000104,0.217514 1.4000141,0 0,-0.217511 1.600015,-2.394175 1.800018,-3.046708 0.380556,-1.749529 0.379595,-2.392628 0.400006,-3.045162 0,-1.6817964 -1.34316,-3.045162 -3.0000321,-3.045162 z"/><path id="path3848-9" fill="url(#linearGradient3937)" fill-opacity="1" stroke="none" d="M 5.5,25.7 C 3.7282379,24.838176 4.5730979,22.924843 4.75,21.7 4.0000009,22.569565 4.5000009,25 3,25 c 1.125,0.4375 1.56217,0.59817 2.5,0.7 z" opacity=".3"/><path id="path3833-1" fill="url(#radialGradient3934)" fill-opacity="1" stroke="none" d="m 6.3448275,17 c 0.4644771,1.163172 1.7047513,2 3.1724138,2 1.4676627,0 2.7079347,-0.836828 3.1724137,-2 l -6.3448275,0 z" opacity=".2"/><path id="path3958" fill="none" stroke="url(#linearGradient3972)" stroke-dasharray="none" stroke-miterlimit="4" stroke-opacity="1" stroke-width="1" d="M 9.5,7.46875 C 8.4603259,7.4368271 7.4998505,8.3403567 7.4782336,9.3833318 7.447796,10.17982 7.609521,10.968109 7.735492,11.751087 c 0.05615,0.294277 0.089967,0.601745 0.2786973,0.846791 0.4553888,0.761887 1.0246665,1.446356 1.517061,2.183372 0.4047553,-0.180795 0.4697617,-0.698234 0.7601777,-1.002182 0.309513,-0.492116 0.671885,-0.964633 0.87454,-1.51315 0.207481,-1.019553 0.428292,-2.060267 0.336434,-3.1058429 C 11.357299,8.2110422 10.467082,7.4394724 9.5,7.46875 z"/></g><g id="g3735"><path id="path3823" fill="url(#radialGradient2950)" fill-opacity="1" stroke="none" d="m 32,27.5 a 12,3.5 0 0 1 -24,0 12,3.5 0 1 1 24,0 z" opacity=".8"/><path id="path3766" fill="url(#radialGradient2945)" fill-opacity="1" stroke="url(#linearGradient2947)" stroke-dasharray="none" stroke-miterlimit="4" stroke-opacity="1" stroke-width="1" d="m 17.052,12.499986 c 0.311757,1.541852 0.584909,2.708155 0.332,4.250006 -1.971764,1.710542 -7.214153,2.479171 -7.206591,4.250007 l -0.6774226,5.312509 c 0,1.760409 4.7010176,3.187506 10.5000126,3.187506 5.798999,0 10.500015,-1.427097 10.500015,-3.187506 l -0.677422,-5.312509 c -0.0081,-1.515596 -5.281011,-2.47917 -7.228592,-4.250007 -0.166358,-1.431074 0.06603,-2.818931 0.354,-4.250006 l -5.896,0 z"/><path id="path3894" fill="none" stroke="url(#linearGradient3733)" stroke-dasharray="none" stroke-miterlimit="4" stroke-opacity="1" stroke-width="1" d="m 18.109,13.499954 c 0.207393,1.218146 0.570657,2.497463 0.262,3.709711 -0.585769,0.734972 -2.025119,1.099427 -2.851104,1.502651 -1.402263,0.659278 -2.992252,1.011179 -4.207909,2.009432 -0.266813,0.372919 -0.178552,0.888667 -0.282572,1.3286 -0.175558,1.361602 -0.358458,2.722727 -0.529428,4.084626 0.372246,0.828351 1.400214,1.075215 2.17834,1.390329 3.317714,1.00997 6.848903,1.122646 10.285027,0.837892 2.001225,-0.219888 4.070287,-0.507484 5.854322,-1.497126 0.548661,-0.230487 0.801396,-0.764344 0.609573,-1.311147 -0.190493,-1.518534 -0.410223,-3.035237 -0.582372,-4.55492 -0.763945,-0.784676 -1.874787,-1.099534 -2.846897,-1.555017 -1.343902,-0.592332 -3.411526,-1.104157 -4.45398,-2.178649 -0.2021,-1.20712 0.253539,-2.749145 0.191,-3.766385 -1.375118,2e-6 -2.250884,-4e-6 -3.626,3e-6 z"/><path id="path3764" fill="url(#radialGradient2937)" fill-opacity="1" stroke="url(#linearGradient2939)" stroke-dasharray="none" stroke-miterlimit="4" stroke-opacity="1" stroke-width="1" d="m 19.999999,2.4998895 c -2.485343,0 -4.50011,1.9996461 -4.50011,4.4663339 0.01948,0.912872 0.09275,1.9973308 0.600015,4.4663346 0.300007,0.95707 2.975929,3.709418 3.000073,4.028442 0.581816,0.319023 1.500037,0.319023 2.100051,0 0,-0.319024 2.400059,-3.071372 2.700066,-4.028442 0.57084,-2.5660315 0.569398,-3.5092631 0.600015,-4.4663346 0,-2.4666878 -2.014767,-4.4663339 -4.50011,-4.4663339 z"/><path id="path3848" fill="url(#linearGradient2934)" fill-opacity="1" stroke="none" d="m 14,28.4 c -1.771762,-1.292736 -0.926902,-4.162735 -0.75,-6 -0.749999,1.304348 -0.749999,5.217391 -2.25,5.217391 1.021958,0.299057 2.06217,0.629863 3,0.782609 z" opacity=".3"/><path id="path3850" fill="url(#linearGradient2931)" fill-opacity="1" stroke="none" d="m 26,28.4 c 1.762535,-1.137226 0.867541,-4.229946 0.749999,-6 0.75,1.304347 0.75,5.217391 2.250001,5.217391 -1.021958,0.299057 -2.062172,0.629862 -3,0.782609 z" opacity=".3"/><path id="path3833" fill="url(#radialGradient2928)" fill-opacity="1" stroke="none" d="m 16,18 c 0.585645,1.163172 2.149469,2 4,2 1.850531,0 3.414353,-0.836828 4,-2 l -8,0 z" opacity=".2"/><path id="path3906" fill="none" stroke="url(#linearGradient3728)" stroke-dasharray="none" stroke-miterlimit="4" stroke-opacity="1" stroke-width="1" d="m 20.000002,3.4997762 c -1.578445,-0.031463 -3.034642,1.1664635 -3.388069,2.6909471 -0.233174,1.0034105 -0.04469,2.0406579 0.07761,3.0470577 0.113228,0.6678987 0.192524,1.351298 0.375784,2.000751 0.66871,1.163508 1.691301,2.069914 2.461217,3.157989 0.412903,0.122857 1.079832,0.241399 1.323731,-0.198062 0.691144,-1.019356 1.571217,-1.917699 2.125742,-3.02571 C 23.274472,9.6804095 23.5787,8.1576319 23.470502,6.6280494 23.29848,5.0137106 21.908939,3.6071807 20.272085,3.5103276 c -0.09051,-0.00705 -0.181338,-0.010502 -0.272086,-0.010551 z" opacity=".7"/></g></g></g></svg>