<svg xmlns="http://www.w3.org/2000/svg" xmlns:svg="http://www.w3.org/2000/svg" xmlns:xlink="http://www.w3.org/1999/xlink" id="svg2579" width="48" height="48" version="1.1"><defs id="defs2581"><linearGradient id="linearGradient6117"><stop id="stop6119" offset="0" stop-color="#000" stop-opacity="1"/><stop id="stop6121" offset="1" stop-color="#000" stop-opacity="0"/></linearGradient><linearGradient id="linearGradient6091"><stop id="stop6093" offset="0" stop-color="#888a85" stop-opacity="1"/><stop id="stop6095" offset="1" stop-color="#81837e" stop-opacity=".986"/></linearGradient><linearGradient id="linearGradient6105"><stop id="stop6107" offset="0" stop-color="#fff" stop-opacity="0"/><stop id="stop6113" offset=".452" stop-color="#fff" stop-opacity="1"/><stop id="stop6109" offset="1" stop-color="#fff" stop-opacity="0"/></linearGradient><linearGradient id="linearGradient6041"><stop id="stop6043" offset="0" stop-color="#888a85" stop-opacity="1"/><stop id="stop6045" offset="1" stop-color="#2e3436" stop-opacity="1"/></linearGradient><linearGradient id="linearGradient6296"><stop id="stop6298" offset="0" stop-color="#fff" stop-opacity="1"/><stop id="stop6300" offset="1" stop-color="#fff" stop-opacity="0"/></linearGradient><linearGradient id="linearGradient6304"><stop id="stop6306" offset="0" stop-color="#eeeeec" stop-opacity="1"/><stop id="stop6308" offset="1" stop-color="#80827d" stop-opacity="1"/></linearGradient><radialGradient id="radialGradient2609" cx="17.832" cy="18.915" r="19.736" fx="17.832" fy="18.915" gradientTransform="matrix(0.4228001,0,0,0.3113668,9.6432324,19.361684)" gradientUnits="userSpaceOnUse" xlink:href="#linearGradient6304"/><linearGradient id="linearGradient3668-5"><stop id="stop3670-7" offset="0" stop-color="#fff" stop-opacity="1"/><stop id="stop3672-4" offset="1" stop-color="#fff" stop-opacity="0"/></linearGradient><linearGradient id="linearGradient2372-9"><stop id="stop2374-9" offset="0" stop-color="#fff" stop-opacity="1"/><stop id="stop2376-4" offset="1" stop-color="#fff" stop-opacity=".345"/></linearGradient><linearGradient id="linearGradient7067-5"><stop id="stop7069-9" offset="0" stop-color="#fff" stop-opacity="1"/><stop id="stop7071-3" offset="1" stop-color="#fff" stop-opacity="0"/></linearGradient><radialGradient id="radialGradient3198" cx="17.059" cy="41.059" r="5.738" fx="14.688" fy="37.456" gradientTransform="matrix(0.68315419,-0.12185712,0.02398557,0.64784268,16.764649,0.8299179)" gradientUnits="userSpaceOnUse" xlink:href="#linearGradient7067-5"/><linearGradient id="linearGradient3201" x1="28.503" x2="26.257" y1="137.539" y2="125.391" gradientTransform="matrix(0.23013199,0,0,0.23039255,26.647505,-23.979015)" gradientUnits="userSpaceOnUse" xlink:href="#linearGradient2372-9"/><radialGradient id="radialGradient3204" cx="17.059" cy="41.059" r="5.738" fx="14.758" fy="37.841" gradientTransform="matrix(0.7193066,-0.11623586,0.01570024,0.6700801,29.013508,-2.1361776)" gradientUnits="userSpaceOnUse" xlink:href="#linearGradient3668-5"/><linearGradient id="linearGradient3207" x1="28.739" x2="26.257" y1="144.117" y2="125.391" gradientTransform="matrix(0.31763863,0,0,0.23039255,37.291868,-25.882396)" gradientUnits="userSpaceOnUse" xlink:href="#linearGradient2372-9"/><linearGradient id="linearGradient4011" x1="34.826" x2="28.763" y1="42.346" y2="32.737" gradientTransform="translate(-2.7545076,-0.1836338)" gradientUnits="userSpaceOnUse" xlink:href="#linearGradient6296"/><radialGradient id="radialGradient4016" cx="29.923" cy="32.705" r="19.736" fx="29.923" fy="32.705" gradientTransform="matrix(0.94560281,0,0,0.8204423,-3.8927993,3.5285007)" gradientUnits="userSpaceOnUse" xlink:href="#linearGradient6041"/><linearGradient id="linearGradient4021" x1="15.552" x2="23.734" y1="41" y2="41" gradientTransform="translate(-2.7545076,-0.1836338)" gradientUnits="userSpaceOnUse" xlink:href="#linearGradient6105"/><linearGradient id="linearGradient4025" x1="10.602" x2="47.002" y1="35.895" y2="35.69" gradientTransform="matrix(0.5479662,0,0,0.3392172,6.4901656,29.075948)" gradientUnits="userSpaceOnUse" xlink:href="#linearGradient6091"/><radialGradient id="radialGradient4028" cx="26.927" cy="25.766" r="19.162" fx="26.927" fy="25.766" gradientTransform="matrix(1.0959323,0,0,0.8089025,-8.2651612,11.473831)" gradientUnits="userSpaceOnUse" xlink:href="#linearGradient6117"/></defs><path id="path6115" fill="url(#radialGradient4028)" fill-opacity="1" fill-rule="evenodd" stroke="none" stroke-width="1.062" d="m 42.245489,32.316367 a 20.999999,15.500001 0 0 1 -41.99999657,0 20.999999,15.500001 0 1 1 41.99999657,0 z" display="inline" enable-background="accumulate" opacity=".782" overflow="visible" visibility="visible" style="marker:none"/><path id="path6051" fill="url(#linearGradient4025)" fill-opacity="1" fill-rule="evenodd" stroke="#2e3436" stroke-dasharray="none" stroke-dashoffset="0" stroke-linecap="round" stroke-linejoin="miter" stroke-miterlimit="4" stroke-opacity="1" stroke-width="1" d="m 31.745493,37.816367 a 10.5,6.5000007 0 0 1 -21,0 10.5,6.5000007 0 1 1 21,0 z" display="inline" enable-background="accumulate" overflow="visible" visibility="visible" style="marker:none"/><path id="path6099" fill="none" stroke="#fff" stroke-dasharray="none" stroke-dashoffset="0" stroke-linecap="round" stroke-linejoin="miter" stroke-miterlimit="4" stroke-opacity=".356" stroke-width="1" d="m 30.745492,37.816365 a 9.4999995,5.4999999 0 0 1 -18.999999,0 9.4999995,5.4999999 0 1 1 18.999999,0 z" display="inline" enable-background="accumulate" overflow="visible" visibility="visible" style="marker:none"/><path id="path6103" fill="url(#linearGradient4021)" fill-opacity="1" fill-rule="evenodd" stroke="none" d="m 11.813706,39.816366 c 0,0 2.431786,4 9.431786,4 l 0,-6 -9.409006,0 -0.02278,2 z" display="inline" opacity=".568"/><path id="path6216" fill="#555753" fill-opacity="1" fill-rule="evenodd" stroke="#2e3436" stroke-dasharray="none" stroke-dashoffset="0" stroke-linecap="round" stroke-linejoin="miter" stroke-miterlimit="4" stroke-opacity="1" stroke-width="1" d="m 40.745492,24.316367 a 19.5,17.000001 0 0 1 -39,0 19.5,17.000001 0 1 1 39,0 z" display="inline" enable-background="accumulate" overflow="visible" visibility="visible" style="marker:none"/><path id="path6011" fill="#555753" fill-opacity="1" fill-rule="evenodd" stroke="#2e3436" stroke-dasharray="none" stroke-dashoffset="0" stroke-linecap="round" stroke-linejoin="miter" stroke-miterlimit="4" stroke-opacity="1" stroke-width="1" d="m 40.745492,23.316368 a 19.5,17.000001 0 0 1 -39,0 19.5,17.000001 0 1 1 39,0 z" display="inline" enable-background="accumulate" overflow="visible" visibility="visible" style="marker:none"/><path id="path6013" fill="url(#radialGradient4016)" fill-opacity="1" fill-rule="evenodd" stroke="#2e3436" stroke-dasharray="none" stroke-dashoffset="0" stroke-linecap="round" stroke-linejoin="miter" stroke-miterlimit="4" stroke-opacity="1" stroke-width="1" d="m 39.120493,23.816367 a 17.6875,15.500001 0 0 1 -35.3750008,0 17.6875,15.500001 0 1 1 35.3750008,0 z" display="inline" enable-background="accumulate" overflow="visible" visibility="visible" style="marker:none"/><path id="path6089" fill="#fff" fill-opacity=".374" fill-rule="evenodd" stroke="none" stroke-width=".573" d="m 22.739342,34.816366 a 1.000001,1.0000011 0 1 1 -2.000002,0 1.000001,1.0000011 0 1 1 2.000002,0 z" display="inline" enable-background="accumulate" overflow="visible" visibility="visible" style="marker:none"/><path id="path6015" fill="none" stroke="#fff" stroke-dasharray="none" stroke-dashoffset="0" stroke-linecap="round" stroke-linejoin="miter" stroke-miterlimit="4" stroke-opacity=".275" stroke-width="1" d="m 39.66216,23.316366 a 18.458334,16 0 0 1 -36.9166679,0 18.458334,16 0 1 1 36.9166679,0 z" display="inline" enable-background="accumulate" overflow="visible" visibility="visible" style="marker:none"/><path id="path6039" fill="url(#linearGradient4011)" fill-opacity="1" fill-rule="evenodd" stroke="none" d="m 14.279663,38.815551 c 4.370294,2.255137 21.03988,1.981742 24.965829,-10.999185 0,0 -5.636347,14.203426 -24.965829,10.999185 z" display="inline"/><path id="path6055" fill="none" stroke="#fff" stroke-dasharray="none" stroke-dashoffset="0" stroke-linecap="round" stroke-linejoin="miter" stroke-miterlimit="4" stroke-opacity=".266" stroke-width="1" d="m 28.469316,28.468733 c 0,2.484 -3.29488,4.847635 -6.882881,4.847635 -3.588,0 -5.840945,-2.016001 -5.840945,-4.500001 0,-2.484001 2.912001,-5.500001 6.500001,-5.500001 3.588001,0 6.223825,2.668366 6.223825,5.152367 z" display="inline" enable-background="accumulate" overflow="visible" visibility="visible" style="marker:none"/><path id="path6087" fill="#fff" fill-opacity=".374" fill-rule="evenodd" stroke="none" stroke-width=".573" d="m 19.739342,34.816366 a 1.000001,1.0000011 0 1 1 -2.000002,0 1.000001,1.0000011 0 1 1 2.000002,0 z" display="inline" enable-background="accumulate" overflow="visible" visibility="visible" style="marker:none"/><path id="path6083" fill="#2e3436" fill-opacity="1" fill-rule="evenodd" stroke="none" stroke-width=".81" d="m 19.739342,35.816366 a 0.50000043,1.0000009 0 1 1 -1,0 0.50000043,1.0000009 0 1 1 1,0 z" display="inline" enable-background="accumulate" overflow="visible" visibility="visible" style="marker:none"/><path id="path6085" fill="#2e3436" fill-opacity="1" fill-rule="evenodd" stroke="none" stroke-width=".81" d="m 22.739342,35.816366 a 0.50000043,1.0000009 0 1 1 -1,0 0.50000043,1.0000009 0 1 1 1,0 z" display="inline" enable-background="accumulate" overflow="visible" visibility="visible" style="marker:none"/><g id="g2589" display="inline"><path id="path6047" fill="url(#radialGradient2609)" fill-opacity="1" fill-rule="evenodd" stroke="#2e3436" stroke-dasharray="none" stroke-dashoffset="0" stroke-linecap="round" stroke-linejoin="miter" stroke-miterlimit="4" stroke-opacity="1" stroke-width="1" d="m 27.745492,27.816367 c 0,2.484 -2.912,4.500001 -6.500001,4.500001 -3.588,0 -6.500001,-2.016001 -6.500001,-4.500001 0,-2.484001 2.912001,-5.500001 6.500001,-5.500001 3.588001,0 6.500001,3.016 6.500001,5.500001 z" display="inline" enable-background="accumulate" overflow="visible" visibility="visible" style="marker:none"/><path id="path6208" fill="#eee" fill-opacity="1" fill-rule="evenodd" stroke="none" stroke-width="11.063" d="m 46.089207,25.766438 a 19.161766,19.161766 0 1 1 -38.3235324,0 19.161766,19.161766 0 1 1 38.3235324,0 z" display="inline" enable-background="accumulate" overflow="visible" transform="matrix(0.1043744,0,0,0.07828089,16.434954,25.299346)" visibility="visible" style="marker:none"/></g><path id="path3406" fill="#6a9ab8" fill-opacity="1" stroke="#2f5371" stroke-dasharray="none" stroke-linecap="round" stroke-linejoin="round" stroke-miterlimit="4" stroke-opacity="1" stroke-width="1" d="m 45.215509,2.5011202 c -4.281846,0.682425 -8.575548,1.295279 -12.854035,1.9951357 -1.164518,0.582411 -0.747806,2.061595 -0.822837,3.105017 -1e-6,4.5144261 0,9.0288541 0,13.5432811 -2.989902,-0.664117 -6.440524,1.660678 -6.466088,4.818689 -0.134616,2.028017 1.828741,3.708429 3.803895,3.5227 2.677392,-0.136845 4.876234,-2.72166 4.589556,-5.481694 -1e-6,-4.514918 0,-9.733437 0,-14.248353 3.531124,-0.507439 7.469018,-1.0655431 11,-1.5739411 -2e-6,3.4804011 0,7.6644051 0,11.1448091 -2.865041,-0.822601 -6.474407,1.063113 -6.949161,4.077642 -0.396968,1.7765 0.848645,3.562052 2.550074,4.069766 3.184888,1.040469 6.774713,-2.028268 6.399087,-5.309882 -0.0087,-6.155364 0.02682,-12.310743 0,-18.4660878 -0.07484,-0.611833 -0.581826,-1.2280184 -1.250491,-1.197082 z"/><path id="path3996-9" fill="url(#linearGradient3207)" fill-opacity="1" fill-rule="evenodd" stroke="none" d="m 44.673622,19.648016 0.04234,-11.7365381 c 0.44614,-0.0578 0.0685,-0.0093 0.670099,-0.09587 0.0081,2.1922681 0.01129,3.6688351 0.01129,11.9484441 0,0.06161 -0.259835,-0.03092 -0.723739,-0.116032 l 3e-6,0 z" opacity=".4"/><path id="path2716-1" fill="url(#radialGradient3204)" fill-opacity="1" stroke="none" d="m 46.056386,22.693461 c 0,2.091875 -1.848044,4.101181 -4.127723,4.487912 -2.279675,0.38673 -4.127719,-0.995562 -4.127719,-3.087436 0,-2.091875 1.848044,-4.101183 4.127719,-4.487914 2.279679,-0.38673 4.127723,0.995563 4.127723,3.087438 z" opacity=".6"/><path id="path2720-9" fill="url(#linearGradient3201)" fill-opacity="1" fill-rule="evenodd" stroke="none" d="m 31.897984,21.657734 0,-15.9625761 c 0,0 0.08338,-0.8857 0.837768,-0.888753 0.06556,0.113136 12.727381,-2.0473477 12.727381,-2.0473477 0,0 0.484543,0.783694 -4.991113,1.5675567 -7.793798,1.115713 -7.861261,1.160176 -7.861261,1.961935 0,2.364917 0,7.1339981 0,15.7450081 -0.167574,-0.142514 -0.376677,-0.290712 -0.712775,-0.375823 l 0,0 z" opacity=".4"/><path id="path2712-6" fill="url(#radialGradient3198)" fill-opacity="1" stroke="none" d="m 33.323535,24.673572 c 0,2.0233 -1.75516,3.96674 -3.92026,4.340793 -2.165102,0.374054 -3.920262,-0.962926 -3.920262,-2.986227 0,-2.023301 1.75516,-3.966741 3.920262,-4.340795 2.1651,-0.374053 3.92026,0.962927 3.92026,2.986229 z" opacity=".6"/></svg>