<svg xmlns="http://www.w3.org/2000/svg" xmlns:svg="http://www.w3.org/2000/svg" xmlns:xlink="http://www.w3.org/1999/xlink" id="svg4167" width="48" height="48" version="1.0"><metadata id="metadata99"/><defs id="defs4169"><linearGradient id="linearGradient23419"><stop id="stop23421" offset="0" stop-color="#000" stop-opacity="1"/><stop id="stop23423" offset="1" stop-color="#000" stop-opacity="0"/></linearGradient><linearGradient id="linearGradient3263" x1="12.274" x2="35.391" y1="32.416" y2="14.203" gradientUnits="userSpaceOnUse"><stop id="stop3265" offset="0" stop-color="#dededb" stop-opacity="1"/><stop id="stop3267" offset=".5" stop-color="#e6e6e6" stop-opacity="1"/><stop id="stop3269" offset="1" stop-color="#d2d2d2" stop-opacity="1"/></linearGradient><linearGradient id="linearGradient3428"><stop id="stop3430" offset="0" stop-color="#aaa" stop-opacity="1"/><stop id="stop3432" offset="1" stop-color="#d4d4d4" stop-opacity="1"/></linearGradient><linearGradient id="linearGradient3717" x1="10.609" x2="9.73" y1="17.886" y2="20.613" gradientUnits="userSpaceOnUse" spreadMethod="reflect" xlink:href="#linearGradient3519"/><linearGradient id="linearGradient3715" x1="12.372" x2="14.609" y1="16.188" y2="13.462" gradientUnits="userSpaceOnUse" spreadMethod="reflect" xlink:href="#linearGradient3511"/><linearGradient id="linearGradient3713" x1="14.085" x2="16.994" y1="13.046" y2="10.732" gradientUnits="userSpaceOnUse" spreadMethod="reflect" xlink:href="#linearGradient3503"/><linearGradient id="linearGradient3711" x1="17.495" x2="21.047" y1="11.2" y2="9.796" gradientUnits="userSpaceOnUse" spreadMethod="reflect" xlink:href="#linearGradient3495"/><linearGradient id="linearGradient3709" x1="20.58" x2="24.274" y1="10.775" y2="9.862" gradientUnits="userSpaceOnUse" spreadMethod="reflect" xlink:href="#linearGradient3487"/><linearGradient id="linearGradient3519"><stop id="stop3521" offset="0" stop-color="#fcd9cd" stop-opacity="1"/><stop id="stop3523" offset="1" stop-color="#fcd9cd" stop-opacity="0"/></linearGradient><linearGradient id="linearGradient3750" x1="10.609" x2="9.73" y1="17.886" y2="20.613" gradientUnits="userSpaceOnUse" spreadMethod="reflect" xlink:href="#linearGradient3519"/><linearGradient id="linearGradient3511"><stop id="stop3513" offset="0" stop-color="#ebeec7" stop-opacity="1"/><stop id="stop3515" offset="1" stop-color="#ebeec7" stop-opacity="0"/></linearGradient><linearGradient id="linearGradient3748" x1="12.372" x2="14.609" y1="16.188" y2="13.462" gradientUnits="userSpaceOnUse" spreadMethod="reflect" xlink:href="#linearGradient3511"/><linearGradient id="linearGradient3503"><stop id="stop3505" offset="0" stop-color="#c4ebdd" stop-opacity="1"/><stop id="stop3507" offset="1" stop-color="#c4ebdd" stop-opacity="0"/></linearGradient><linearGradient id="linearGradient3746" x1="14.085" x2="16.994" y1="13.046" y2="10.732" gradientUnits="userSpaceOnUse" spreadMethod="reflect" xlink:href="#linearGradient3503"/><linearGradient id="linearGradient3495"><stop id="stop3497" offset="0" stop-color="#c1cbe4" stop-opacity="1"/><stop id="stop3499" offset="1" stop-color="#c1cbe4" stop-opacity="0"/></linearGradient><linearGradient id="linearGradient3744" x1="17.495" x2="21.047" y1="11.2" y2="9.796" gradientUnits="userSpaceOnUse" spreadMethod="reflect" xlink:href="#linearGradient3495"/><linearGradient id="linearGradient3487"><stop id="stop3489" offset="0" stop-color="#e6cde2" stop-opacity="1"/><stop id="stop3491" offset="1" stop-color="#e6cde2" stop-opacity="0"/></linearGradient><linearGradient id="linearGradient3742" x1="20.58" x2="24.274" y1="10.775" y2="9.862" gradientUnits="userSpaceOnUse" spreadMethod="reflect" xlink:href="#linearGradient3487"/><linearGradient id="linearGradient3772"><stop id="stop3774" offset="0" stop-color="#b4b4b4" stop-opacity="1"/><stop id="stop3776" offset="1" stop-color="#969696" stop-opacity="1"/></linearGradient><linearGradient id="linearGradient6036"><stop id="stop6038" offset="0" stop-color="#fff" stop-opacity="1"/><stop id="stop6040" offset="1" stop-color="#fff" stop-opacity="0"/></linearGradient><linearGradient id="linearGradient8838"><stop id="stop8840" offset="0" stop-color="#000" stop-opacity="1"/><stop id="stop8842" offset="1" stop-color="#000" stop-opacity="0"/></linearGradient><linearGradient id="linearGradient2372-991"><stop id="stop3792" offset="0" stop-color="#fff" stop-opacity="1"/><stop id="stop3794" offset="1" stop-color="#fff" stop-opacity=".345"/></linearGradient><linearGradient id="linearGradient3242-978"><stop id="stop3812" offset="0" stop-color="#e4fc58" stop-opacity="1"/><stop id="stop3814" offset=".661" stop-color="#a3cb27" stop-opacity="1"/><stop id="stop3816" offset="1" stop-color="#74a111" stop-opacity="1"/></linearGradient><linearGradient id="linearGradient2490-435"><stop id="stop3806" offset="0" stop-color="#547411" stop-opacity="1"/><stop id="stop3808" offset="1" stop-color="#8aaf19" stop-opacity="1"/></linearGradient><linearGradient id="linearGradient3599-836"><stop id="stop3798" offset="0" stop-color="#e4fc58" stop-opacity="1"/><stop id="stop3800" offset=".325" stop-color="#a3cb27" stop-opacity="1"/><stop id="stop3802" offset="1" stop-color="#74a111" stop-opacity="1"/></linearGradient><radialGradient id="radialGradient2479" cx="62.625" cy="4.625" r="10.625" fx="62.625" fy="4.625" gradientTransform="matrix(1.0015074,0,0,0.4705876,-37.078385,40.823529)" gradientUnits="userSpaceOnUse" xlink:href="#linearGradient8838"/><linearGradient id="linearGradient2482" x1="18.776" x2="18.203" y1="4.038" y2="45.962" gradientTransform="matrix(0.4293444,0,0,0.4293442,13.546752,13.266392)" gradientUnits="userSpaceOnUse" xlink:href="#linearGradient6036"/><linearGradient id="linearGradient2485" x1="20.019" x2="20.019" y1="3" y2="45.176" gradientUnits="userSpaceOnUse" xlink:href="#linearGradient3772"/><linearGradient id="linearGradient2488" x1="10.502" x2="48.799" y1="3.61" y2="54.698" gradientTransform="matrix(0.9849664,0,0,0.9849663,1.902206e-2,-0.6241532)" gradientUnits="userSpaceOnUse" xlink:href="#linearGradient6036"/><linearGradient id="linearGradient2503" x1="21.448" x2="21.448" y1="15.5" y2="32.509" gradientTransform="matrix(0.9375,0,0,0.9375,1.5,1.5)" gradientUnits="userSpaceOnUse" xlink:href="#linearGradient3428"/><linearGradient id="linearGradient2507" x1="12.274" x2="35.391" y1="32.416" y2="14.203" gradientTransform="matrix(0,1.1714389,-1.1714389,0,51.060244,-4.11454)" gradientUnits="userSpaceOnUse" xlink:href="#linearGradient3263"/><radialGradient id="radialGradient2510" cx="23.335" cy="41.636" r="22.627" fx="23.335" fy="41.636" gradientTransform="matrix(0.9722718,0,0,0.2872354,1.3124992,27.540524)" gradientUnits="userSpaceOnUse" xlink:href="#linearGradient23419"/><linearGradient id="linearGradient2521" x1="28.479" x2="28.479" y1="115.945" y2="199.714" gradientTransform="matrix(0.3392427,0,0,0.3397666,25.269032,-32.856075)" gradientUnits="userSpaceOnUse" xlink:href="#linearGradient2372-991"/><radialGradient id="radialGradient2524" cx="17.059" cy="41.059" r="5.738" fx="14.688" fy="37.456" gradientTransform="matrix(1.0991524,-0.4658868,0.2431716,0.8930806,0.3681427,11.450733)" gradientUnits="userSpaceOnUse" xlink:href="#linearGradient3242-978"/><radialGradient id="radialGradient2527" cx="35.294" cy="16.98" r="12.03" fx="35.294" fy="16.98" gradientTransform="matrix(1.4108315,-1.4114253e-8,3.0161858e-8,3.0149168,-11.490868,-39.206704)" gradientUnits="userSpaceOnUse" xlink:href="#linearGradient3599-836"/><linearGradient id="linearGradient2529" x1="26.717" x2="26.717" y1="46.002" y2="4.034" gradientTransform="translate(3.0088718,1.0000002)" gradientUnits="userSpaceOnUse" xlink:href="#linearGradient2490-435"/></defs><path id="path23417" fill="url(#radialGradient2510)" fill-opacity="1" fill-rule="evenodd" stroke="none" stroke-width="2" d="M 46,39.499867 C 46.0011,43.08962 36.151066,45.999868 24,45.999868 C 11.848934,45.999868 1.998867,43.08962 2.0000001,39.499867 C 1.998867,35.910116 11.848934,32.999868 24,32.999868 C 36.151066,32.999868 46.001133,35.910116 46,39.499867 L 46,39.499867 z" display="inline" opacity=".3" overflow="visible" visibility="visible" style="marker:none"/><path id="path2781" fill="url(#linearGradient2507)" fill-rule="nonzero" stroke="none" d="M 44.5,24 C 44.5,12.637039 35.362959,3.5 24,3.5 C 12.637038,3.5 3.5,12.63704 3.5,24 C 3.499998,35.36296 12.637039,44.5 24,44.5 C 35.362958,44.499998 44.5,35.362961 44.5,24 z M 32,24 C 32,28.623 28.623,32 24,32 C 19.377,32 16,28.623 16,24 C 16,19.377 19.377,16 24,16 C 28.623,16 32,19.377 32,24 z"/><path id="path2474" fill="#fff" fill-opacity="1" fill-rule="nonzero" stroke="none" stroke-width="1" d="M 24,16 C 19.584,16 16,19.584 16,24 C 16,28.416 19.584,32 24,32 C 28.416,32 32,28.416 32,24 C 32,19.584 28.416,16 24,16 z M 24,20 C 26.208,20 28,21.792 28,24 C 28,26.208 26.208,28 24,28 C 21.792,28 20,26.208 20,24 C 20,21.792 21.792,20 24,20 z" display="inline" enable-background="accumulate" opacity=".5" overflow="visible" visibility="visible" style="marker:none"/><path id="path3418" fill="none" stroke="url(#linearGradient2503)" stroke-dasharray="none" stroke-dashoffset="0" stroke-linecap="butt" stroke-linejoin="round" stroke-miterlimit="4" stroke-opacity="1" stroke-width="1" d="M 24,16.5 C 19.86,16.5 16.5,19.86 16.5,24 C 16.5,28.14 19.86,31.5 24,31.5 C 28.14,31.5 31.5,28.14 31.5,24 C 31.5,19.86 28.14,16.5 24,16.5 z M 24,20.25 C 26.07,20.25 27.75,21.93 27.75,24 C 27.75,26.07 26.07,27.75 24,27.75 C 21.93,27.75 20.25,26.07 20.25,24 C 20.25,21.93 21.93,20.25 24,20.25 z" display="inline" enable-background="accumulate" overflow="visible" visibility="visible" style="marker:none"/><g id="g3527"><path id="path3296" fill="url(#linearGradient3709)" fill-opacity="1" fill-rule="nonzero" stroke="none" d="M 24,3.5 C 21.024196,3.5 18.202594,4.1208152 15.65625,5.25 L 20.625,16.34375 C 21.660403,15.885186 22.795334,15.625 24,15.625 C 24.03206,15.625 24.06178,15.62464 24.09375,15.625 L 24.09375,3.5 C 24.06248,3.4998614 24.0313,3.5 24,3.5 z" opacity=".8" transform="matrix(0.9996011,2.824295e-2,-2.824295e-2,0.9996011,0.6924114,-0.6708346)"/><path id="path3308" fill="url(#linearGradient3711)" fill-opacity="1" fill-rule="nonzero" stroke="none" d="M 19.597283,3.9975155 C 16.690583,4.6350966 14.067518,5.8460378 11.82224,7.494568 L 19.052497,17.266115 C 19.965606,16.59636 21.018435,16.099051 22.195126,15.840946 C 22.226446,15.834046 22.255386,15.827356 22.286696,15.820856 L 19.688856,3.9774292 C 19.658276,3.9839892 19.627856,3.9908082 19.597286,3.9975152 L 19.597283,3.9975155 z" opacity=".8"/><path id="path3310" fill="url(#linearGradient3713)" fill-opacity="1" fill-rule="nonzero" stroke="none" d="M 14.558173,5.8448691 C 11.915535,7.2130345 9.6952631,9.061613 7.9531621,11.235092 L 17.466117,18.802353 C 18.174767,17.919089 19.063008,17.166234 20.132802,16.612373 C 20.161272,16.597633 20.187492,16.583653 20.216052,16.569273 L 14.641427,5.8017664 C 14.613597,5.8160204 14.585977,5.8304764 14.558177,5.8448694 L 14.558173,5.8448691 z" opacity=".8"/><path id="path3312" fill="url(#linearGradient3715)" fill-opacity="1" fill-rule="nonzero" stroke="none" d="M 10.168897,8.9334932 C 7.970412,10.939005 6.3042413,13.299243 5.1840387,15.849551 L 16.331399,20.69683 C 16.787297,19.660251 17.450418,18.703155 18.34041,17.891283 C 18.3641,17.869673 18.38581,17.849383 18.40967,17.828103 L 10.238158,8.8703115 C 10.214958,8.8912835 10.192028,8.9123955 10.168898,8.9334935 L 10.168897,8.9334932 z" opacity=".8"/><path id="path3314" fill="url(#linearGradient3717)" fill-opacity="1" fill-rule="nonzero" stroke="none" d="M 6.78125,12.96875 C 6.764272,12.99501 6.735629,13.03614 6.71875,13.0625 C 5.5705276,14.855982 4.7570875,16.743769 4.21875,18.6875 L 15.96875,21.8125 C 16.184264,21.049497 16.486796,20.297733 16.9375,19.59375 C 16.95479,19.56675 16.98246,19.52673 17,19.5 L 6.78125,12.96875 z" opacity=".8"/></g><g id="g3642" opacity=".8" transform="matrix(-1,0,0,-1,48,48)"><path id="path3644" fill="url(#linearGradient3742)" fill-opacity="1" fill-rule="nonzero" stroke="none" d="M 24,3.5 C 21.024196,3.5 18.202594,4.1208152 15.65625,5.25 L 20.625,16.34375 C 21.660403,15.885186 22.795334,15.625 24,15.625 C 24.03206,15.625 24.06178,15.62464 24.09375,15.625 L 24.09375,3.5 C 24.06248,3.4998614 24.0313,3.5 24,3.5 z" opacity=".8" transform="matrix(0.9996011,2.824295e-2,-2.824295e-2,0.9996011,0.6924114,-0.6708346)"/><path id="path3646" fill="url(#linearGradient3744)" fill-opacity="1" fill-rule="nonzero" stroke="none" d="M 19.597283,3.9975155 C 16.690583,4.6350966 14.067518,5.8460378 11.82224,7.494568 L 19.052497,17.266115 C 19.965606,16.59636 21.018435,16.099051 22.195126,15.840946 C 22.226446,15.834046 22.255386,15.827356 22.286696,15.820856 L 19.688856,3.9774292 C 19.658276,3.9839892 19.627856,3.9908082 19.597286,3.9975152 L 19.597283,3.9975155 z" opacity=".8"/><path id="path3648" fill="url(#linearGradient3746)" fill-opacity="1" fill-rule="nonzero" stroke="none" d="M 14.558173,5.8448691 C 11.915535,7.2130345 9.6952631,9.061613 7.9531621,11.235092 L 17.466117,18.802353 C 18.174767,17.919089 19.063008,17.166234 20.132802,16.612373 C 20.161272,16.597633 20.187492,16.583653 20.216052,16.569273 L 14.641427,5.8017664 C 14.613597,5.8160204 14.585977,5.8304764 14.558177,5.8448694 L 14.558173,5.8448691 z" opacity=".8"/><path id="path3650" fill="url(#linearGradient3748)" fill-opacity="1" fill-rule="nonzero" stroke="none" d="M 10.168897,8.9334932 C 7.970412,10.939005 6.3042413,13.299243 5.1840387,15.849551 L 16.331399,20.69683 C 16.787297,19.660251 17.450418,18.703155 18.34041,17.891283 C 18.3641,17.869673 18.38581,17.849383 18.40967,17.828103 L 10.238158,8.8703115 C 10.214958,8.8912835 10.192028,8.9123955 10.168898,8.9334935 L 10.168897,8.9334932 z" opacity=".8"/><path id="path3652" fill="url(#linearGradient3750)" fill-opacity="1" fill-rule="nonzero" stroke="none" d="M 6.78125,12.96875 C 6.764272,12.99501 6.735629,13.03614 6.71875,13.0625 C 5.5705276,14.855982 4.7570875,16.743769 4.21875,18.6875 L 15.96875,21.8125 C 16.184264,21.049497 16.486796,20.297733 16.9375,19.59375 C 16.95479,19.56675 16.98246,19.52673 17,19.5 L 6.78125,12.96875 z" opacity=".8"/></g><path id="path2787" fill="none" stroke="url(#linearGradient2488)" stroke-miterlimit="4" stroke-opacity="1" stroke-width="1" d="M 24.000001,4.5000009 C 13.191429,4.5000009 4.4999995,13.191431 4.4999995,24.000001 C 4.4999995,34.808572 13.191429,43.499999 24.000001,43.499999 C 34.808573,43.499999 43.5,34.808572 43.5,24.000001 C 43.5,18.118013 40.926034,12.863016 36.837638,9.2945483 C 33.413316,6.3057034 28.926584,4.5000009 24.000001,4.5000009 L 24.000001,4.5000009 L 24.000001,4.5000009 z" opacity=".5"/><path id="path3287" fill="none" stroke="url(#linearGradient2485)" stroke-miterlimit="4" stroke-opacity="1" stroke-width="1" d="M 24,3.5 C 12.637039,3.5 3.5,12.637041 3.5,24 C 3.5,35.362962 12.63704,44.5 24,44.5 C 35.36296,44.500002 44.5,35.362961 44.5,24 C 44.499998,12.637042 35.362961,3.5 24,3.5 z"/><path id="path3281" fill="none" stroke="url(#linearGradient2482)" stroke-miterlimit="4" stroke-opacity="1" stroke-width="1" d="M 24,15.499999 C 19.288571,15.499999 15.5,19.28857 15.5,23.999999 C 15.5,28.711428 19.288571,32.5 24,32.5 C 28.711431,32.5 32.5,28.711428 32.5,23.999999 C 32.5,19.28857 28.711431,15.499999 24,15.499999 L 24,15.499999 L 24,15.499999 L 24,15.499999 z" opacity=".8"/><path id="path2598" fill="url(#radialGradient2479)" fill-opacity="1" fill-rule="evenodd" stroke="none" stroke-width="1" d="M 36.282032,43 C 36.282032,45.761424 31.517886,48 25.641016,48 C 19.764146,48 15,45.761424 15,43 C 15,40.238576 19.764146,38 25.641016,38 C 31.517886,38 36.282032,40.238576 36.282032,43 L 36.282032,43 z" display="inline" opacity=".15" overflow="visible" visibility="visible" style="marker:none"/><path id="path2588" fill="url(#radialGradient2527)" fill-opacity="1" stroke="url(#linearGradient2529)" stroke-dasharray="none" stroke-linecap="round" stroke-linejoin="round" stroke-miterlimit="4" stroke-opacity="1" stroke-width="1" d="M 35.508871,17.363199 C 35.508871,24.119163 35.508871,31.520388 35.508871,38.276352 C 35.935762,42.406369 32.46988,46.274196 28.482986,46.478966 C 25.541793,46.756884 22.308415,44.242374 22.508871,41.207722 C 22.546939,36.482185 28.056622,33.003445 32.508871,33.997206 C 32.508871,27.241976 32.508871,7.7583941 32.508871,6.7381077 C 32.508871,5.7963989 35.19738,5.5965546 35.310862,6.7381077 C 35.416612,7.8018803 36.112563,11.714767 40.575562,16.233136 C 44.957781,20.669723 46.266632,29.062021 40.339829,35.956116 C 43.492342,27.95431 43.744666,22.044239 35.508871,17.363199 z"/><path id="path2596" fill="url(#radialGradient2524)" fill-opacity="1" stroke="none" d="M 29.102735,45.771305 C 25.755212,46.342996 23.10113,44.239981 23.10113,41.147634 C 23.10113,38.055292 26.023512,35.085003 29.371035,34.513312 C 32.718559,33.941622 35.074527,34.792574 35.074527,37.884919 C 34.86814,43.611794 32.267627,44.726529 29.102735,45.771305 z"/><path id="path2594" fill="url(#linearGradient2521)" fill-opacity="1" fill-rule="evenodd" stroke="none" d="M 33.822584,8.2635478 C 33.822584,11.75116 33.822584,22.301094 33.822584,35 C 33.575559,34.78983 33.50433,34.571279 33.008881,34.445763 L 33.008871,34.288141 L 33.008881,6.7855726 C 33.008881,6.7855726 34.358893,6.2956429 34.660336,6.6975663 C 34.660336,6.6975663 35.005973,10.394043 38.089443,14.360767 C 38.089443,14.360767 44.158627,19.195899 43.752205,26.186351 C 43.46253,25.395708 45.089904,22.577266 38.683167,16.096673 C 34.306839,11.669895 33.822584,8.2635478 33.822584,8.2635478 z" opacity=".4"/></svg>