<svg xmlns="http://www.w3.org/2000/svg" xmlns:svg="http://www.w3.org/2000/svg" xmlns:xlink="http://www.w3.org/1999/xlink" id="svg3376" width="48" height="48" version="1.0"><metadata id="metadata35"/><defs id="defs3378"><linearGradient id="linearGradient3220"><stop id="stop3222" offset="0" stop-color="#a6ce39" stop-opacity="1"/><stop id="stop3224" offset="1" stop-color="#5d9d36" stop-opacity=".855"/></linearGradient><linearGradient id="linearGradient3370" x1="302.857" x2="302.857" y1="366.648" y2="609.505" gradientTransform="matrix(2.0496031e-2,0,0,2.0588236e-2,27.092149,34.451367)" gradientUnits="userSpaceOnUse" xlink:href="#linearGradient5048"/><radialGradient id="radialGradient3372" cx="605.714" cy="486.648" r="117.143" fx="605.714" fy="486.648" gradientTransform="matrix(2.0496031e-2,0,0,2.0588236e-2,27.096183,34.451367)" gradientUnits="userSpaceOnUse" xlink:href="#linearGradient5060"/><radialGradient id="radialGradient3374" cx="605.714" cy="486.648" r="117.143" fx="605.714" fy="486.648" gradientTransform="matrix(-2.0496031e-2,0,0,2.0588236e-2,41.90382,34.451367)" gradientUnits="userSpaceOnUse" xlink:href="#linearGradient5060"/><linearGradient id="linearGradient5048"><stop id="stop5050" offset="0" stop-color="#000" stop-opacity="0"/><stop id="stop5056" offset=".5" stop-color="#000" stop-opacity="1"/><stop id="stop5052" offset="1" stop-color="#000" stop-opacity="0"/></linearGradient><linearGradient id="linearGradient3362" x1="302.857" x2="302.857" y1="366.648" y2="609.505" gradientTransform="matrix(2.0496031e-2,0,0,2.0588236e-2,6.0921492,34.451367)" gradientUnits="userSpaceOnUse" xlink:href="#linearGradient5048"/><radialGradient id="radialGradient3359" cx="605.714" cy="486.648" r="117.143" fx="605.714" fy="486.648" gradientTransform="matrix(2.0496031e-2,0,0,2.0588236e-2,6.0961827,34.451367)" gradientUnits="userSpaceOnUse" xlink:href="#linearGradient5060"/><linearGradient id="linearGradient5060"><stop id="stop5062" offset="0" stop-color="#000" stop-opacity="1"/><stop id="stop5064" offset="1" stop-color="#000" stop-opacity="0"/></linearGradient><radialGradient id="radialGradient3356" cx="605.714" cy="486.648" r="117.143" fx="605.714" fy="486.648" gradientTransform="matrix(-2.0496031e-2,0,0,2.0588236e-2,20.90382,34.451367)" gradientUnits="userSpaceOnUse" xlink:href="#linearGradient5060"/><linearGradient id="linearGradient2264"><stop id="stop2266" offset="0" stop-color="#cbe866" stop-opacity="1"/><stop id="stop2268" offset="1" stop-color="#76ab2a" stop-opacity="1"/></linearGradient><linearGradient id="linearGradient3215" x1="62.948" x2="62.948" y1="5.5" y2="48.502" gradientTransform="translate(-47.5,-0.499999)" gradientUnits="userSpaceOnUse" xlink:href="#linearGradient2264"/><linearGradient id="linearGradient3259"><stop id="stop3261" offset="0" stop-color="#fff" stop-opacity="1"/><stop id="stop3263" offset="1" stop-color="#fff" stop-opacity="0"/></linearGradient><linearGradient id="linearGradient3242" x1="29.786" x2="29.786" y1="18.999" y2="48.093" gradientUnits="userSpaceOnUse" xlink:href="#linearGradient3259"/><linearGradient id="linearGradient3194" x1="29.786" x2="29.786" y1="18.999" y2="48.093" gradientUnits="userSpaceOnUse" xlink:href="#linearGradient3259"/><linearGradient id="linearGradient3197" x1="62.948" x2="62.948" y1="11.471" y2="48.888" gradientTransform="translate(-47.5,-0.499999)" gradientUnits="userSpaceOnUse" xlink:href="#linearGradient2264"/><radialGradient id="radialGradient3200" cx="605.714" cy="486.648" r="117.143" fx="605.714" fy="486.648" gradientTransform="matrix(-2.0496031e-2,0,0,2.0588236e-2,20.90382,34.451367)" gradientUnits="userSpaceOnUse" xlink:href="#linearGradient5060"/><radialGradient id="radialGradient3203" cx="605.714" cy="486.648" r="117.143" fx="605.714" fy="486.648" gradientTransform="matrix(2.0496031e-2,0,0,2.0588236e-2,6.0961827,34.451367)" gradientUnits="userSpaceOnUse" xlink:href="#linearGradient5060"/><linearGradient id="linearGradient3206" x1="302.857" x2="302.857" y1="366.648" y2="609.505" gradientTransform="matrix(2.0496031e-2,0,0,2.0588236e-2,6.0921492,34.451367)" gradientUnits="userSpaceOnUse" xlink:href="#linearGradient5048"/><radialGradient id="radialGradient3209" cx="605.714" cy="486.648" r="117.143" fx="605.714" fy="486.648" gradientTransform="matrix(-2.0496031e-2,0,0,2.0588236e-2,41.90382,34.451367)" gradientUnits="userSpaceOnUse" xlink:href="#linearGradient5060"/><radialGradient id="radialGradient3212" cx="605.714" cy="486.648" r="117.143" fx="605.714" fy="486.648" gradientTransform="matrix(2.0496031e-2,0,0,2.0588236e-2,27.096183,34.451367)" gradientUnits="userSpaceOnUse" xlink:href="#linearGradient5060"/><linearGradient id="linearGradient3216" x1="302.857" x2="302.857" y1="366.648" y2="609.505" gradientTransform="matrix(2.0496031e-2,0,0,2.0588236e-2,27.092149,34.451367)" gradientUnits="userSpaceOnUse" xlink:href="#linearGradient5048"/><linearGradient id="linearGradient3226" x1="-14.361" x2="-14.843" y1="8.771" y2="39.711" gradientTransform="translate(-2.6987954,1.8313253)" gradientUnits="userSpaceOnUse" xlink:href="#linearGradient3220"/></defs><rect id="rect3364" width="9.897" height="5" x="29.552" y="42" fill="url(#linearGradient3216)" fill-opacity="1" fill-rule="nonzero" stroke="none" stroke-dasharray="none" stroke-dashoffset="0" stroke-linecap="round" stroke-linejoin="miter" stroke-miterlimit="4" stroke-opacity="1" stroke-width="1.148" marker-end="none" marker-mid="none" marker-start="none" display="inline" opacity=".3" overflow="visible" visibility="visible" style="marker:none"/><path id="path3366" fill="url(#radialGradient3212)" fill-opacity="1" fill-rule="nonzero" stroke="none" stroke-dasharray="none" stroke-dashoffset="0" stroke-linecap="round" stroke-linejoin="miter" stroke-miterlimit="4" stroke-opacity="1" stroke-width="1.148" marker-end="none" marker-mid="none" marker-start="none" d="M 39.448328,42.000172 C 39.448328,42.000172 39.448328,46.999896 39.448328,46.999896 C 40.503823,47.009309 42,45.879713 42,44.499713 C 42,43.119712 40.822147,42.000173 39.448328,42.000172 z" display="inline" opacity=".3" overflow="visible" visibility="visible" style="marker:none"/><path id="path3368" fill="url(#radialGradient3209)" fill-opacity="1" fill-rule="nonzero" stroke="none" stroke-dasharray="none" stroke-dashoffset="0" stroke-linecap="round" stroke-linejoin="miter" stroke-miterlimit="4" stroke-opacity="1" stroke-width="1.148" marker-end="none" marker-mid="none" marker-start="none" d="M 29.551672,42.000172 C 29.551672,42.000172 29.551672,46.999896 29.551672,46.999896 C 28.496178,47.009309 27,45.879713 27,44.499713 C 27,43.119712 28.177853,42.000173 29.551672,42.000172 z" display="inline" opacity=".3" overflow="visible" visibility="visible" style="marker:none"/><rect id="rect2661" width="9.897" height="5" x="8.552" y="42" fill="url(#linearGradient3206)" fill-opacity="1" fill-rule="nonzero" stroke="none" stroke-dasharray="none" stroke-dashoffset="0" stroke-linecap="round" stroke-linejoin="miter" stroke-miterlimit="4" stroke-opacity="1" stroke-width="1.148" marker-end="none" marker-mid="none" marker-start="none" display="inline" opacity=".3" overflow="visible" visibility="visible" style="marker:none"/><path id="path2663" fill="url(#radialGradient3203)" fill-opacity="1" fill-rule="nonzero" stroke="none" stroke-dasharray="none" stroke-dashoffset="0" stroke-linecap="round" stroke-linejoin="miter" stroke-miterlimit="4" stroke-opacity="1" stroke-width="1.148" marker-end="none" marker-mid="none" marker-start="none" d="M 18.448328,42.000172 C 18.448328,42.000172 18.448328,46.999896 18.448328,46.999896 C 19.503823,47.009309 21,45.879713 21,44.499713 C 21,43.119712 19.822147,42.000173 18.448328,42.000172 z" display="inline" opacity=".3" overflow="visible" visibility="visible" style="marker:none"/><path id="path2665" fill="url(#radialGradient3200)" fill-opacity="1" fill-rule="nonzero" stroke="none" stroke-dasharray="none" stroke-dashoffset="0" stroke-linecap="round" stroke-linejoin="miter" stroke-miterlimit="4" stroke-opacity="1" stroke-width="1.148" marker-end="none" marker-mid="none" marker-start="none" d="M 8.5516722,42.000172 C 8.5516722,42.000172 8.5516722,46.999896 8.5516722,46.999896 C 7.4961778,47.009309 6.0000001,45.879713 6.0000001,44.499713 C 6.0000001,43.119712 7.1778531,42.000173 8.5516722,42.000172 z" display="inline" opacity=".3" overflow="visible" visibility="visible" style="marker:none"/><path id="path3185" fill="url(#linearGradient3197)" fill-opacity="1" fill-rule="evenodd" stroke="#699536" stroke-linecap="butt" stroke-linejoin="miter" stroke-opacity="1" stroke-width="1" d="M 8.5,4.5 L 8.5,44.5 L 18.5,44.5 L 18.5,28.162947 C 18.5,27.183759 19.35174,26.5 20.40625,26.5 L 27.5,26.5 C 28.55451,26.5 29.5,27.183759 29.5,28.162947 L 29.5,44.5 L 39.5,44.5 L 39.5,24.071429 C 39.5,20.470429 36.378,17.571429 32.5,17.571429 L 18.5,17.571429 L 18.5,4.5 L 8.5,4.5 z"/><path id="path3221" fill="none" fill-opacity="1" fill-rule="evenodd" stroke="url(#linearGradient3194)" stroke-linecap="butt" stroke-linejoin="miter" stroke-opacity="1" stroke-width="1" d="M 9.5,5.5 C 9.5,17.833333 9.5,31.166667 9.5,43.5 C 12.166667,43.5 14.833333,43.5 17.5,43.5 C 17.510424,38.289841 17.479103,33.078538 17.515737,27.869096 C 17.678745,26.147252 19.495187,25.195036 21.084058,25.40625 C 24.000873,25.40625 24.839519,25.460631 28,25.460631 C 29.00292,25.460631 30.5,26.388459 30.5,28.5 C 30.5,33.388648 30.5,38.611353 30.5,43.5 C 32.833333,43.5 36.166667,43.5 38.5,43.5 C 38.480229,36.834294 38.539786,30.165912 38.469785,23.501899 C 38.180848,20.400392 34.993279,18.292226 32.015851,18.5625 C 27.445351,18.550346 22.872597,18.586818 18.303505,18.544248 C 17.14915,18.243934 17.583576,16.886765 17.5,16.013224 C 17.5,12.842149 17.5,8.6710747 17.5,5.5 C 14.833333,5.5 12.166667,5.5 9.5,5.5 z" opacity=".4"/></svg>