<svg xmlns="http://www.w3.org/2000/svg" xmlns:svg="http://www.w3.org/2000/svg" xmlns:xlink="http://www.w3.org/1999/xlink" id="svg11300" width="48" height="48" version="1.1"><defs id="defs3"><linearGradient id="linearGradient4909"><stop id="stop4911" offset="0" stop-color="#747474" stop-opacity="1"/><stop id="stop4913" offset=".478" stop-color="#b0b0b0" stop-opacity="1"/><stop id="stop4915" offset="1" stop-color="#3f3f3f" stop-opacity="1"/></linearGradient><linearGradient id="linearGradient4877"><stop id="stop4879" offset="0" stop-color="#747474" stop-opacity="1"/><stop id="stop4881" offset=".453" stop-color="#fff" stop-opacity="1"/><stop id="stop4883" offset="1" stop-color="#3f3f3f" stop-opacity="1"/></linearGradient><linearGradient id="linearGradient7622"><stop id="stop7624" offset="0" stop-color="#fff" stop-opacity="1"/><stop id="stop7626" offset="1" stop-color="#fff" stop-opacity="0"/></linearGradient><linearGradient id="linearGradient14973"><stop id="stop14975" offset="0" stop-color="#747474" stop-opacity="1"/><stop id="stop14977" offset=".621" stop-color="#b0b0b0" stop-opacity="1"/><stop id="stop14979" offset="1" stop-color="#3f3f3f" stop-opacity="1"/></linearGradient><linearGradient id="linearGradient14861"><stop id="stop14863" offset="0" stop-color="#fff" stop-opacity="1"/><stop id="stop14865" offset="1" stop-color="#fff" stop-opacity="0"/></linearGradient><linearGradient id="linearGradient6215"><stop id="stop6217" offset="0" stop-color="#cfb900" stop-opacity="1"/><stop id="stop6219" offset=".21" stop-color="#e2d44d" stop-opacity="1"/><stop id="stop6221" offset=".84" stop-color="#9a8b00" stop-opacity="1"/><stop id="stop6223" offset="1" stop-color="#cfb900" stop-opacity="1"/></linearGradient><linearGradient id="linearGradient3437"><stop id="stop3439" offset="0" stop-color="#000" stop-opacity="1"/><stop id="stop3441" offset="1" stop-color="#000" stop-opacity="0"/></linearGradient><linearGradient id="linearGradient14780-7"><stop id="stop14782-0" offset="0" stop-color="#d3ba00" stop-opacity="1"/><stop id="stop14784-4" offset="1" stop-color="#d3ba00" stop-opacity="0"/></linearGradient><linearGradient id="linearGradient14981-4"><stop id="stop14983-1" offset="0" stop-color="#628430" stop-opacity="1"/><stop id="stop14985-7" offset="1" stop-color="#364d17" stop-opacity="1"/></linearGradient><linearGradient id="linearGradient3956" x1="12.647" x2="4.713" y1="11.5" y2="11.5" gradientTransform="matrix(0,0.66666668,-1,0,29,16.666664)" gradientUnits="userSpaceOnUse" xlink:href="#linearGradient6215"/><linearGradient id="linearGradient3982" x1="8" x2="4.328" y1="19.5" y2="19.5" gradientTransform="matrix(0,0.66666668,-1,0,29,7.6666672)" gradientUnits="userSpaceOnUse" xlink:href="#linearGradient6215"/><linearGradient id="linearGradient4002" x1="8" x2="4.328" y1="19.5" y2="19.5" gradientTransform="matrix(0.66666668,0,0,1,2.6666666,-5)" gradientUnits="userSpaceOnUse" xlink:href="#linearGradient6215"/><linearGradient id="linearGradient4005" x1="16.965" x2="18.968" y1="20.166" y2="31.347" gradientTransform="matrix(0.934742,0,0,1.14936,0.518753,-8.859611)" gradientUnits="userSpaceOnUse" xlink:href="#linearGradient14861"/><linearGradient id="linearGradient4022" x1="6.221" x2="6.238" y1="42.891" y2="39.267" gradientTransform="matrix(1.984375,0,0,1,3.09375,-5.013595)" gradientUnits="userSpaceOnUse" xlink:href="#linearGradient14780-7"/><radialGradient id="radialGradient4820" cx="9" cy="15.407" r="20" fx="9" fy="15.407" gradientTransform="matrix(2.3160736,0.01430413,-0.01016957,1.6466216,-11.68798,-8.4984166)" gradientUnits="userSpaceOnUse" xlink:href="#linearGradient14981-4"/><radialGradient id="radialGradient4830" cx="4" cy="9.17" r="19" fx="4" fy="9.17" gradientTransform="matrix(1.9989253,0.08328855,-0.05263072,1.2631372,-3.5130513,0.08325704)" gradientUnits="userSpaceOnUse" xlink:href="#linearGradient7622"/><linearGradient id="linearGradient4859" x1="24" x2="27" y1="19.5" y2="19.5" gradientTransform="matrix(-0.66666668,0,0,1,41,-5)" gradientUnits="userSpaceOnUse" xlink:href="#linearGradient6215"/><linearGradient id="linearGradient4867" x1="35.934" x2="51.449" y1="22.75" y2="22.75" gradientUnits="userSpaceOnUse" xlink:href="#linearGradient4877"/><linearGradient id="linearGradient4891" x1="39" x2="47.5" y1="22.75" y2="22.75" gradientUnits="userSpaceOnUse" xlink:href="#linearGradient14973"/><linearGradient id="linearGradient4899" x1="42.366" x2="42.401" y1="15.05" y2="20.018" gradientTransform="matrix(1.1612985,0,0,1.1339575,-5.8594808,-2.3828346)" gradientUnits="userSpaceOnUse" xlink:href="#linearGradient4877"/><linearGradient id="linearGradient4907" x1="43.161" x2="43.064" y1="13.901" y2="20.99" gradientTransform="matrix(1.1612985,0,0,1.1339575,-5.8594808,-2.3828346)" gradientUnits="userSpaceOnUse" xlink:href="#linearGradient4909"/><linearGradient id="linearGradient4925" x1="42.366" x2="42.401" y1="15.05" y2="20.018" gradientTransform="matrix(1.1612985,0,0,1.1339575,-5.8594808,4.6171654)" gradientUnits="userSpaceOnUse" xlink:href="#linearGradient4877"/><linearGradient id="linearGradient4927" x1="43.161" x2="43.064" y1="13.901" y2="20.99" gradientTransform="matrix(1.1612985,0,0,1.1339575,-5.8594808,4.6171654)" gradientUnits="userSpaceOnUse" xlink:href="#linearGradient4909"/><radialGradient id="radialGradient3018" cx="24.454" cy="46.87" r="19.614" fx="24.454" fy="46.87" gradientTransform="matrix(0.81572503,0,0,0.12745709,3.051938,34.526095)" gradientUnits="userSpaceOnUse" xlink:href="#linearGradient3437"/><radialGradient id="radialGradient2461" cx="62.625" cy="4.625" r="10.625" fx="62.625" fy="4.625" gradientTransform="matrix(1.1294118,0,0,0.2823525,-58.729414,20.694118)" gradientUnits="userSpaceOnUse" xlink:href="#linearGradient8838"/><linearGradient id="linearGradient8838"><stop id="stop8840" offset="0" stop-color="#000" stop-opacity="1"/><stop id="stop8842" offset="1" stop-color="#000" stop-opacity="0"/></linearGradient><radialGradient id="radialGradient2456" cx="23.896" cy="3.99" r="20.397" fx="23.896" fy="3.99" gradientTransform="matrix(0,1.2316137,-1.6257082,0,18.486581,-28.720783)" gradientUnits="userSpaceOnUse" xlink:href="#linearGradient3242-187-536"/><linearGradient id="linearGradient3242-187-536"><stop id="stop2778" offset="0" stop-color="#8badea" stop-opacity="1"/><stop id="stop2780" offset=".262" stop-color="#6396cd" stop-opacity="1"/><stop id="stop2782" offset=".661" stop-color="#3b7caf" stop-opacity="1"/><stop id="stop2784" offset="1" stop-color="#194c70" stop-opacity="1"/></linearGradient><linearGradient id="linearGradient2458" x1="18.379" x2="18.379" y1="44.98" y2="3.082" gradientTransform="matrix(0.5160413,0,0,0.5160413,-0.384991,-0.3849911)" gradientUnits="userSpaceOnUse" xlink:href="#linearGradient2490-182-124"/><linearGradient id="linearGradient2490-182-124"><stop id="stop2788" offset="0" stop-color="#1f4b6a" stop-opacity="1"/><stop id="stop2790" offset="1" stop-color="#4083c2" stop-opacity="1"/></linearGradient><linearGradient id="linearGradient2453" x1="63.397" x2="63.397" y1="-12.489" y2="5.468" gradientTransform="matrix(1.0862728,0,0,1.0862481,-55.56661,15.813638)" gradientUnits="userSpaceOnUse" xlink:href="#linearGradient4873"/><linearGradient id="linearGradient4873"><stop id="stop4875" offset="0" stop-color="#fff" stop-opacity="1"/><stop id="stop4877" offset="1" stop-color="#fff" stop-opacity="0"/></linearGradient></defs><rect id="rect4923" width="5.5" height="4.5" x="39.25" y="22.25" fill="url(#linearGradient4925)" fill-opacity="1" fill-rule="nonzero" stroke="url(#linearGradient4927)" stroke-dasharray="none" stroke-dashoffset="0" stroke-linecap="round" stroke-linejoin="round" stroke-miterlimit="4" stroke-opacity="1" stroke-width=".5" color="#000" display="block" overflow="visible" rx="1" ry="1" visibility="visible" style="marker:none"/><rect id="rect15011" width="5.5" height="4.5" x="39.25" y="15.25" fill="url(#linearGradient4899)" fill-opacity="1" fill-rule="nonzero" stroke="url(#linearGradient4907)" stroke-dasharray="none" stroke-dashoffset="0" stroke-linecap="round" stroke-linejoin="round" stroke-miterlimit="4" stroke-opacity="1" stroke-width=".5" color="#000" display="block" overflow="visible" rx="1" ry="1" visibility="visible" style="marker:none"/><path id="rect14772" fill="url(#radialGradient4820)" fill-opacity="1" fill-rule="nonzero" stroke="#28390d" stroke-dasharray="none" stroke-dashoffset="0" stroke-linecap="butt" stroke-linejoin="miter" stroke-miterlimit="4" stroke-opacity="1" stroke-width="1" d="M 1.5010327,8.630244 1.50494,35.34988 c 0,0.07888 0.088802,0.150207 0.1867815,0.150207 l 10.8115995,0.01563 -0.0039,4.853272 c 0,0.07127 0.0224,0.126335 0.124282,0.12677 l 18.755678,-0.0078 c 0.09242,-0.0037 0.124281,-0.06374 0.124281,-0.12677 l 0.0039,-4.868897 8.992438,0.0078 0,-26.996617 -38.8746858,0 c -0.078447,0.0043 -0.132094,0.05255 -0.1242815,0.126769 z" color="#000" display="block" overflow="visible" visibility="visible" style="marker:none"/><path id="path14957" fill="none" stroke="#305526" stroke-dasharray="none" stroke-dashoffset="0" stroke-linecap="butt" stroke-linejoin="miter" stroke-miterlimit="4" stroke-opacity="1" stroke-width=".5" d="m 25,18.472233 0.06435,0.530944 2.424421,1.892154 0,4.603776 -17.058951,0 0,3.933282" color="#000" display="block" overflow="visible" visibility="visible" style="marker:none"/><path id="path14826" fill="none" stroke="#305526" stroke-dasharray="none" stroke-dashoffset="0" stroke-linecap="butt" stroke-linejoin="miter" stroke-miterlimit="4" stroke-opacity="1" stroke-width=".5" d="m 15.504442,37.961011 0.05485,-5.644978 1.90096,-2.791366 14.009422,0 2.044194,-2.024489 0.04419,-3.033634 -8.043116,-5.961334 8.110058,0.04703 -0.1875,-3.989742 -8.9375,0" color="#000" display="block" overflow="visible" visibility="visible" style="marker:none"/><path id="path14842" fill="none" stroke="#305526" stroke-dasharray="none" stroke-dashoffset="0" stroke-linecap="butt" stroke-linejoin="miter" stroke-miterlimit="4" stroke-opacity="1" stroke-width=".5" d="m 19.5,37.96101 0.05485,-5.780683 1.900958,-2.666463" color="#000" display="block" overflow="visible" visibility="visible" style="marker:none"/><path id="path14844" fill="none" stroke="#305526" stroke-dasharray="none" stroke-dashoffset="0" stroke-linecap="butt" stroke-linejoin="miter" stroke-miterlimit="4" stroke-opacity="1" stroke-width=".5" d="m 22.5,37.96101 0.05485,-5.780683 1.900958,-2.666463" color="#000" display="block" overflow="visible" visibility="visible" style="marker:none"/><path id="path14846" fill="none" stroke="#305526" stroke-dasharray="none" stroke-dashoffset="0" stroke-linecap="butt" stroke-linejoin="miter" stroke-miterlimit="4" stroke-opacity="1" stroke-width=".5" d="M 25.544196,37.96101 25.599042,32.180327 27.5,29.513864" color="#000" display="block" overflow="visible" visibility="visible" style="marker:none"/><path d="M 15.71875,34.59375 C 15.153661,34.717979 15,35.257625 15,35.5 l 0,4.40625 2,0 L 17,35.5 c 0,-0.277 -0.200328,-0.90625 -1,-0.90625 -0.09801,0 -0.200523,-0.01775 -0.28125,0 z m 3,0 C 18.153661,34.717979 18,35.257625 18,35.5 l 0,4.40625 2,0 L 20,35.5 c 0,-0.277 -0.200328,-0.90625 -1,-0.90625 -0.09801,0 -0.200523,-0.01775 -0.28125,0 z m 3.03125,0 C 21.184911,34.717979 21,35.257625 21,35.5 l 0,4.40625 2,0 L 23,35.5 c 0,-0.277 -0.200328,-0.90625 -1,-0.90625 -0.09801,0 -0.169273,-0.01775 -0.25,0 z m 3,0 C 24.184911,34.717979 24,35.257625 24,35.5 l 0,4.40625 2,0 L 26,35.5 c 0,-0.277 -0.200328,-0.90625 -1,-0.90625 -0.09801,0 -0.169273,-0.01775 -0.25,0 z m 3,0 C 27.184911,34.717979 27,35.257625 27,35.5 l 0,4.40625 2,0 L 29,35.5 c 0,-0.277 -0.200328,-0.90625 -1,-0.90625 -0.09801,0 -0.169273,-0.01775 -0.25,0 z" style="marker:none" id="path14796" fill="url(#linearGradient4022)" fill-opacity="1" fill-rule="nonzero" stroke="none" stroke-width="1" color="#000" display="block" overflow="visible" visibility="visible"/><path id="path15029" fill="none" stroke="#305526" stroke-dasharray="none" stroke-dashoffset="0" stroke-linecap="butt" stroke-linejoin="miter" stroke-miterlimit="4" stroke-opacity="1" stroke-width=".5" d="m 6.5,14.5 -2.96875,1.0625 0,1.875 0,10.0625 7,0.0625" color="#000" display="block" overflow="visible" visibility="visible" style="marker:none"/><rect id="rect14857" width="16.056" height="7.93" x="7.472" y="12.504" fill="#555753" fill-opacity="1" fill-rule="nonzero" stroke="#2e3436" stroke-dasharray="none" stroke-dashoffset="0" stroke-linecap="butt" stroke-linejoin="miter" stroke-miterlimit="4" stroke-opacity="1" stroke-width="1" color="#000" display="block" overflow="visible" rx=".942" ry=".942" visibility="visible" style="marker:none"/><rect id="rect14859" width="14.116" height="5.882" x="8.417" y="13.511" fill="none" stroke="url(#linearGradient4005)" stroke-dasharray="none" stroke-dashoffset="0" stroke-linecap="butt" stroke-linejoin="miter" stroke-miterlimit="4" stroke-opacity="1" stroke-width="1" color="#000" display="block" opacity=".17" overflow="visible" rx="0" ry="0" visibility="visible" style="marker:none"/><path id="path15031" fill="none" stroke="#305526" stroke-dasharray="none" stroke-dashoffset="0" stroke-linecap="butt" stroke-linejoin="miter" stroke-miterlimit="4" stroke-opacity="1" stroke-width=".5" d="M 6.5,16.5 3.515625,17.5625" color="#000" display="block" overflow="visible" visibility="visible" style="marker:none"/><path id="path15033" fill="#98a332" fill-opacity="1" stroke="#305526" stroke-dasharray="none" stroke-dashoffset="0" stroke-linecap="butt" stroke-linejoin="miter" stroke-miterlimit="4" stroke-opacity="1" stroke-width=".5" d="M 6.5,18.5 3.5,20" color="#000" display="block" overflow="visible" visibility="visible" style="marker:none"/><path d="m 23,14 0,1 2,0 0,-1 -2,0 z m 0,2 0,1 2,0 0,-1 -2,0 z m 0,2 0,1 2,0 0,-1 -2,0 z" style="marker:none" id="rect14875" fill="url(#linearGradient4859)" fill-opacity="1" fill-rule="nonzero" stroke="none" stroke-width="1" color="#000" display="block" overflow="visible" visibility="visible"/><path d="m 9,11 0,2 1,0 0,-2 -1,0 z m 2,0 0,2 1,0 0,-2 -1,0 z m 2,0 0,2 1,0 0,-2 -1,0 z m 2,0 0,2 1,0 0,-2 -1,0 z m 2,0 0,2 1,0 0,-2 -1,0 z m 2,0 0,2 1,0 0,-2 -1,0 z m 2,0 0,2 1,0 0,-2 -1,0 z" style="marker:none" id="rect14901" fill="url(#linearGradient3982)" fill-opacity="1" fill-rule="nonzero" stroke="none" stroke-width="1" color="#000" display="block" overflow="visible" visibility="visible"/><path id="path14959" fill="none" stroke="#305526" stroke-dasharray="none" stroke-dashoffset="0" stroke-linecap="butt" stroke-linejoin="miter" stroke-miterlimit="4" stroke-opacity="1" stroke-width=".5" d="m 9.4575532,21.86 1.0606598,3.639107 1.944544,0 L 11.402097,21.86" color="#000" display="block" overflow="visible" visibility="visible" style="marker:none"/><path id="path14961" fill="none" stroke="#305526" stroke-dasharray="none" stroke-dashoffset="0" stroke-linecap="butt" stroke-linejoin="miter" stroke-miterlimit="4" stroke-opacity="1" stroke-width=".5" d="m 13.457553,21.86 1.06066,3.639107 1.944544,0 L 15.402097,21.86" color="#000" display="block" overflow="visible" visibility="visible" style="marker:none"/><path id="path14963" fill="none" stroke="#305526" stroke-dasharray="none" stroke-dashoffset="0" stroke-linecap="butt" stroke-linejoin="miter" stroke-miterlimit="4" stroke-opacity="1" stroke-width=".5" d="m 17.457553,21.76 1.06066,3.739107 1.944544,0 L 19.402097,21.76" color="#000" display="block" overflow="visible" visibility="visible" style="marker:none"/><path id="path14965" fill="none" stroke="#305526" stroke-dasharray="none" stroke-dashoffset="0" stroke-linecap="butt" stroke-linejoin="miter" stroke-miterlimit="4" stroke-opacity="1" stroke-width=".5" d="m 21.457553,21.782 1.06066,3.717107" color="#000" display="block" overflow="visible" visibility="visible" style="marker:none"/><path d="m 9,20 0,2 1,0 0,-2 -1,0 z m 2,0 0,2 1,0 0,-2 -1,0 z m 2,0 0,2 1,0 0,-2 -1,0 z m 2,0 0,2 1,0 0,-2 -1,0 z m 2,0 0,2 1,0 0,-2 -1,0 z m 2,0 0,2 1,0 0,-2 -1,0 z m 2,0 0,2 1,0 0,-2 -1,0 z" style="marker:none" id="rect14929" fill="url(#linearGradient3956)" fill-opacity="1" fill-rule="nonzero" stroke="none" stroke-width="1" color="#000" display="block" overflow="visible" visibility="visible"/><path id="path14989" fill="none" stroke="url(#radialGradient4830)" stroke-dasharray="none" stroke-dashoffset="0" stroke-linecap="butt" stroke-linejoin="miter" stroke-miterlimit="4" stroke-opacity="1" stroke-width="1" d="m 2.5012312,34.501619 10.9981128,-5.6e-5 0.01105,4.98312 17.000996,-0.0024 -0.0029,-4.987296 8.99151,0.0027 c 0.004,-4.09e-4 0,-24.994109 0,-24.994109 L 2.5046573,9.501378 c 0.00404,8.338625 -0.0035,25.00025 -0.0035,25.00025 l 7.39e-5,-9e-6 z" color="#000" display="block" opacity=".4" overflow="visible" visibility="visible" style="marker:none"/><path id="path15001" fill="none" stroke="url(#linearGradient4891)" stroke-dasharray="none" stroke-dashoffset="0" stroke-linecap="square" stroke-linejoin="round" stroke-miterlimit="4" stroke-opacity="1" stroke-width="3" d="m 40.499689,42 0,-38.5 5.5,0" color="#000" display="block" overflow="visible" visibility="visible" style="marker:none"/><path id="path15003" fill="none" stroke="url(#linearGradient4867)" stroke-dasharray="none" stroke-dashoffset="0" stroke-linecap="square" stroke-linejoin="round" stroke-miterlimit="4" stroke-opacity="1" stroke-width="2" d="m 40.499689,42 0,-38.5 5.5,0" color="#000" display="block" overflow="visible" visibility="visible" style="marker:none"/><path id="path15005" fill="#477ec5" fill-opacity="1" fill-rule="nonzero" stroke="#334560" stroke-dasharray="none" stroke-dashoffset="0" stroke-linecap="round" stroke-linejoin="round" stroke-miterlimit="4" stroke-opacity="1" stroke-width=".5" d="m 35.485699,14.000007 a 1.4856964,1.4856964 0 1 1 -2.971392,0 1.4856964,1.4856964 0 1 1 2.971392,0 z" color="#000" display="block" overflow="visible" visibility="visible" style="marker:none"/><path id="path15007" fill="#477ec5" fill-opacity="1" fill-rule="nonzero" stroke="#334560" stroke-dasharray="none" stroke-dashoffset="0" stroke-linecap="round" stroke-linejoin="round" stroke-miterlimit="4" stroke-opacity="1" stroke-width=".5" d="m 35.485699,18.985697 a 1.4856964,1.4856964 0 1 1 -2.971392,0 1.4856964,1.4856964 0 1 1 2.971392,0 z" color="#000" display="block" overflow="visible" visibility="visible" style="marker:none"/><path id="path15009" fill="#477ec5" fill-opacity="1" fill-rule="nonzero" stroke="#334560" stroke-dasharray="none" stroke-dashoffset="0" stroke-linecap="round" stroke-linejoin="round" stroke-miterlimit="4" stroke-opacity="1" stroke-width=".5" d="m 35.485699,24.014304 a 1.4856964,1.4856964 0 1 1 -2.971392,0 1.4856964,1.4856964 0 1 1 2.971392,0 z" color="#000" display="block" overflow="visible" visibility="visible" style="marker:none"/><path id="path2983" fill="url(#radialGradient3018)" fill-opacity="1" stroke="none" d="M 39,40.499999 C 39,41.880713 31.836558,43 23,43 14.163439,43 7,41.880713 7,40.499999 7,39.119287 14.163439,38 23,38 c 8.836558,0 16,1.119287 16,2.499999 z" opacity=".45"/><path id="path14848" fill="none" stroke="#305526" stroke-dasharray="none" stroke-dashoffset="0" stroke-linecap="butt" stroke-linejoin="miter" stroke-miterlimit="4" stroke-opacity="1" stroke-width=".5" d="m 28.5,37.96101 0.05485,-5.780683 1.900958,-2.666463" color="#000" display="block" overflow="visible" visibility="visible" style="marker:none"/><g id="layer1" transform="translate(25,23)"><path id="path8836" fill="url(#radialGradient2461)" fill-opacity="1" fill-rule="evenodd" stroke="none" stroke-width="1" d="m 24,22 c 0,1.656854 -5.372583,3 -12,3 C 5.3725828,25 -2.5e-7,23.656854 -2.5e-7,22 -2.5e-7,20.343146 5.3725828,19 12,19 c 6.627417,0 12,1.343146 12,3 l 0,0 z" display="inline" opacity=".3" overflow="visible" visibility="visible" style="marker:none"/><path id="path2555" fill="url(#radialGradient2456)" fill-opacity="1" stroke="url(#linearGradient2458)" stroke-dasharray="none" stroke-dashoffset="0" stroke-linecap="round" stroke-linejoin="round" stroke-miterlimit="4" stroke-opacity="1" stroke-width="1.004" d="m 12.000002,1.501785 c -5.792553,0 -10.498217,4.7056616 -10.498217,10.498214 0,5.792554 4.705664,10.498219 10.498217,10.498216 5.79255,0 10.498219,-4.705662 10.498213,-10.498216 0,-5.7925524 -4.705663,-10.498214 -10.498213,-10.498214 z"/><path id="path2463" fill="none" stroke="url(#linearGradient2453)" stroke-dasharray="none" stroke-miterlimit="4" stroke-opacity="1" stroke-width="1" d="m 21.499999,11.999663 c 0,5.246874 -4.253609,9.500336 -9.499879,9.500336 -5.2467526,0 -9.5001201,-4.253509 -9.5001201,-9.500336 0,-5.2466312 4.2533675,-9.4996623 9.5001201,-9.4996623 5.24627,0 9.499879,4.2530311 9.499879,9.4996623 l 0,0 z" opacity=".4"/><path font-stretch="normal" style="text-align:start;line-height:100%;-inkscape-font-specification:URW Palladio L Bold" id="text3482" fill="#000" fill-opacity="1" stroke="none" d="m 9,10.851312 c 0.133856,0.363882 0.284521,0.658836 0.605452,0.255527 0.397883,-0.236731 1.731043,-1.2743934 1.597644,-0.257979 -0.426877,1.880812 -0.946481,3.741845 -1.3437773,5.628452 -0.4154287,1.033002 0.5279303,1.967395 1.5128653,1.295629 1.046924,-0.431584 1.947798,-1.134561 2.868143,-1.779436 -0.125575,-0.307965 -0.209273,-0.750354 -0.556249,-0.347606 -0.455597,0.20679 -1.450673,1.181728 -1.635539,0.377622 0.382698,-2.03658 1.09175,-3.99777 1.544989,-6.018111 C 14.010625,9.0764616 13.329423,7.9027016 12.309742,8.6711396 11.088138,9.2031876 10.066557,10.07231 9,10.851312 z M 13.533765,4.001596 C 12.287368,3.935451 11.635709,5.9446775 12.820152,6.4944925 13.781082,6.8885796 14.827362,5.9030226 14.592611,4.9182248 14.519759,4.4054322 14.059369,3.9843465 13.533766,4.001596 l -10e-7,0 z" font-family="URW Palladio L" font-size="40" font-style="normal" font-variant="normal" font-weight="bold" opacity=".2" text-anchor="start" writing-mode="lr-tb"/><path font-stretch="normal" style="text-align:start;line-height:100%;-inkscape-font-specification:URW Palladio L Bold" id="path3536" fill="#fff" fill-opacity="1" stroke="none" d="m 9,11.851312 c 0.133856,0.363882 0.284521,0.658836 0.605452,0.255527 0.397883,-0.236731 1.731043,-1.274393 1.597644,-0.257979 -0.426877,1.880812 -0.946481,3.741845 -1.3437773,5.628452 -0.4154287,1.033002 0.5279303,1.967395 1.5128653,1.295629 1.046924,-0.431584 1.947798,-1.134561 2.868143,-1.779436 -0.125575,-0.307965 -0.209273,-0.750354 -0.556249,-0.347606 -0.455597,0.20679 -1.450673,1.181728 -1.635539,0.377622 0.382698,-2.03658 1.09175,-3.99777 1.544989,-6.018111 C 14.010625,10.076462 13.329423,8.9027016 12.309742,9.6711396 11.088138,10.203188 10.066557,11.07231 9,11.851312 z m 4.533765,-6.849716 c -1.246397,-0.066145 -1.898056,1.9430816 -0.713613,2.4928966 0.96093,0.394086 2.00721,-0.59147 1.772459,-1.5762678 C 14.519759,5.4054321 14.059369,4.9843465 13.533766,5.001596 l -10e-7,0 z" font-family="URW Palladio L" font-size="40" font-style="normal" font-variant="normal" font-weight="bold" text-anchor="start" writing-mode="lr-tb"/></g><path d="m 6,14 0,1 2,0 0,-1 -2,0 z m 0,2 0,1 2,0 0,-1 -2,0 z m 0,2 0,1 2,0 0,-1 -2,0 z" style="marker:none" id="rect14869" fill="url(#linearGradient4002)" fill-opacity="1" fill-rule="nonzero" stroke="none" stroke-width="1" color="#000" display="block" overflow="visible" visibility="visible"/></svg>