<svg xmlns="http://www.w3.org/2000/svg" xmlns:svg="http://www.w3.org/2000/svg" xmlns:xlink="http://www.w3.org/1999/xlink" id="svg2434" width="48" height="48" version="1.1"><defs id="defs2436"><radialGradient id="radialGradient2417" cx="26.782" cy="42.343" r="14.407" fx="26.782" fy="42.343" gradientTransform="matrix(1,0,0,0.282209,0,30.39355)" gradientUnits="userSpaceOnUse" xlink:href="#linearGradient6975"/><radialGradient id="radialGradient1687" cx="26.782" cy="42.343" r="14.407" fx="26.782" fy="42.343" gradientTransform="matrix(1,0,0,0.282209,0,30.39355)" gradientUnits="userSpaceOnUse" xlink:href="#linearGradient6975"/><linearGradient id="linearGradient6528"><stop id="stop6530" offset="0" stop-color="#2e3436" stop-opacity="1"/><stop id="stop6532" offset="1" stop-color="#000" stop-opacity="1"/></linearGradient><linearGradient id="linearGradient6534" x1="24.5" x2="24.723" y1="23.614" y2="36.879" gradientTransform="matrix(1.125413,0,0,1.125413,-2.601383,-5.668855)" gradientUnits="userSpaceOnUse" xlink:href="#linearGradient6528"/><linearGradient id="linearGradient6543"><stop id="stop6545" offset="0" stop-color="#d3d7cf" stop-opacity="1"/><stop id="stop6547" offset="1" stop-color="#fff" stop-opacity="1"/></linearGradient><linearGradient id="linearGradient6549" x1="23.143" x2="23.143" y1="16.714" y2="12.643" gradientTransform="matrix(1.125413,0,0,1.125413,-2.601383,-5.668855)" gradientUnits="userSpaceOnUse" xlink:href="#linearGradient6543"/><linearGradient id="linearGradient8942"><stop id="stop8944" offset="0" stop-color="#fff" stop-opacity="1"/><stop id="stop8946" offset="1" stop-color="#fff" stop-opacity="0"/></linearGradient><linearGradient id="linearGradient8948" x1="23.85" x2="24.565" y1="10.529" y2="35.243" gradientTransform="matrix(1.125413,0,0,1.125413,-2.601383,-5.668855)" gradientUnits="userSpaceOnUse" xlink:href="#linearGradient8942"/><linearGradient id="linearGradient6975"><stop id="stop6977" offset="0" stop-color="#000" stop-opacity="1"/><stop id="stop6979" offset="1" stop-color="#000" stop-opacity="0"/></linearGradient><radialGradient id="radialGradient6981" cx="26.782" cy="42.343" r="14.407" fx="26.782" fy="42.343" gradientTransform="matrix(1,0,0,0.282209,0,30.39355)" gradientUnits="userSpaceOnUse" xlink:href="#linearGradient6975"/><linearGradient id="linearGradient2446"><stop id="stop2448" offset="0" stop-color="#fff" stop-opacity="1"/><stop id="stop2450" offset="1" stop-color="#fff" stop-opacity="0"/></linearGradient><linearGradient id="linearGradient8938" x1="13.236" x2="7.752" y1="37.752" y2="42.282" gradientTransform="matrix(0.608217,-0.10171,0.04414374,0.689789,16.62085,13.35659)" gradientUnits="userSpaceOnUse" xlink:href="#linearGradient2446"/><linearGradient id="linearGradient6963"><stop id="stop6965" offset="0" stop-color="#696969" stop-opacity="1"/><stop id="stop6967" offset="1" stop-color="#000" stop-opacity="1"/></linearGradient><radialGradient id="radialGradient8936" cx="15.415" cy="35.357" r="7.579" fx="15.415" fy="35.357" gradientTransform="matrix(0.709807,-0.118699,0.05020504,0.7845,14.35988,10.7997)" gradientUnits="userSpaceOnUse" xlink:href="#linearGradient6963"/><linearGradient id="linearGradient6939"><stop id="stop6941" offset="0" stop-color="#bdbdbd" stop-opacity="1"/><stop id="stop6947" offset=".333" stop-color="#e2e2e2" stop-opacity="1"/><stop id="stop6949" offset=".667" stop-color="#a3a3a3" stop-opacity="1"/><stop id="stop6943" offset="1" stop-color="#ddd" stop-opacity="1"/></linearGradient><linearGradient id="linearGradient8934" x1="19.395" x2="23.109" y1="30.001" y2="33.439" gradientTransform="matrix(0.71362,-0.119336,0.05179406,0.809329,14.74036,9.12562)" gradientUnits="userSpaceOnUse" xlink:href="#linearGradient6939"/><linearGradient id="linearGradient6951"><stop id="stop6953" offset="0" stop-color="#6e3d09" stop-opacity="1"/><stop id="stop6959" offset=".242" stop-color="#ea8113" stop-opacity="1"/><stop id="stop6961" offset=".621" stop-color="#5c3307" stop-opacity="1"/><stop id="stop6955" offset="1" stop-color="#e07c12" stop-opacity="1"/></linearGradient><linearGradient id="linearGradient8932" x1="28.059" x2="33.437" y1="18.868" y2="23.743" gradientTransform="matrix(0.71362,-0.119336,0.05179406,0.809329,14.74036,9.12562)" gradientUnits="userSpaceOnUse" xlink:href="#linearGradient6951"/></defs><g id="layer1"><path id="path2415" fill="url(#radialGradient2417)" fill-opacity="1" fill-rule="nonzero" stroke="none" stroke-width="1" d="m 41.188971,42.343147 a 14.407301,4.0658641 0 1 1 -28.814602,0 14.407301,4.0658641 0 1 1 28.814602,0 z" color="#000" display="inline" opacity=".672" overflow="visible" transform="matrix(1.318776,0,0,1.475702,-13.31902,-30.48586)" visibility="visible" style="marker:none"/><path id="path1685" fill="url(#radialGradient1687)" fill-opacity="1" fill-rule="nonzero" stroke="none" stroke-width="1" d="m 41.188971,42.343147 a 14.407301,4.0658641 0 1 1 -28.814602,0 14.407301,4.0658641 0 1 1 28.814602,0 z" color="#000" display="inline" opacity=".672" overflow="visible" transform="matrix(1.665822,0,0,1.475702,-20.61349,-35.48588)" visibility="visible" style="marker:none"/><path id="path5072" fill="url(#linearGradient6534)" fill-opacity="1" fill-rule="evenodd" stroke="#000" stroke-linecap="butt" stroke-linejoin="miter" stroke-opacity="1" stroke-width="1" d="M 11.606956,27.837074 C 10.146599,27.942661 2.7376298,25.797421 2.7644254,24.415855 2.7712315,21.670185 19.211692,4.0761002 20.222734,3.522179 c 1.371402,-1.3642066 5.414374,-1.3073646 6.672091,0 1.40106,0.7078583 17.707292,20.338166 17.630461,22.473657 -0.08384,1.841238 -11.081334,5.615101 -12.017803,5.523712 0.0201,1.066718 3.416433,2.856917 3.91885,3.682475 0.133977,1.212818 -9.458829,3.390275 -9.485625,4.844253 l 2.311116,2.279537 c -0.06364,1.926727 -6.07589,3.049589 -8.551129,1.76085 0.257907,-1.227491 0.274655,-1.651117 -0.110531,-2.315902 -0.703383,-1.308059 -5.345712,-0.767226 -5.325616,-1.834127 -0.308149,-0.723298 3.563809,-1.36621 3.657593,-2.893374 C 18.982228,35.713601 7.0486657,32.451314 7.1655949,31.519548 7.0544743,30.689949 11.547551,29.974036 11.606956,27.837074 z"/><rect id="rect2363" width="20.357" height="22.817" x="7.712" y="17.324" fill="none" stroke="none" transform="matrix(0.914302,-0.405034,0.310037,0.950724,0,0)"/><path id="path5074" fill="url(#linearGradient6549)" fill-opacity="1" fill-rule="evenodd" stroke="none" d="m 13,15.994726 8.530719,-9.2840408 c 0.736878,-0.956072 4.046127,-0.9475042 4.983971,0.025703 l 4.461458,5.6672578 0.01839,2.225571 -3.963024,-1.783445 0,5.627064 -3.249969,-4.501651 -1.809931,2.955219 -1.566307,-5.206045 -1.77795,4.274367 -5.627357,0 z"/><path id="path6536" fill="none" stroke="url(#linearGradient8948)" stroke-linecap="butt" stroke-linejoin="miter" stroke-opacity="1" stroke-width="1" d="M 13.802115,26.874992 C 10.842355,26.923857 4.1397832,25.606207 4.0557904,24.083113 3.808445,22.210713 19.787295,4.8631724 20.830761,4.3861615 c 1.463595,-1.245993 4.534923,-1.125413 5.596585,0 0.878249,0.4879505 17.080058,19.4446625 16.998245,21.5054345 l -13.099319,5.117446 3.673713,3.484064 -7.894095,4.411921 1.714399,2.613048 -5.384277,1.628346 -0.857199,-3.484062 -3.551622,-0.462375 3.201428,-2.851162 c 0.105441,-0.70873 -11.498558,-4.259558 -11.7910112,-5.02513 -0.364106,-0.573429 4.2170362,-1.2037 4.3645072,-4.4487 z" opacity=".4"/><path id="path6973" fill="url(#radialGradient6981)" fill-opacity="1" fill-rule="nonzero" stroke="none" stroke-width="1" d="m 41.188971,42.343147 a 14.407301,4.0658641 0 1 1 -28.814602,0 14.407301,4.0658641 0 1 1 28.814602,0 z" color="#000" display="inline" opacity=".3" overflow="visible" transform="matrix(1.33837,0,0,1,-6.951893,-3.169211)" visibility="visible" style="marker:none"/><g id="g8923" transform="translate(-3.585497e-8,0.101015)"><path id="path6937" fill="url(#linearGradient8932)" fill-opacity="1" fill-rule="nonzero" stroke="#673907" stroke-dasharray="none" stroke-dashoffset="0" stroke-linecap="round" stroke-linejoin="miter" stroke-miterlimit="4" stroke-opacity="1" stroke-width="1" d="m 32.815491,26.053448 3.098333,2.590809 C 40.677173,22.070645 47.362292,7.1165887 47.362292,7.1165887 47.605366,6.0743564 46.483038,5.6310026 45.984075,6.3896101 c 0,0 -9.039365,13.0428949 -13.168584,19.6638379 z" color="#000" display="inline" overflow="visible" visibility="visible" style="marker:none"/><path id="path6935" fill="url(#linearGradient8934)" fill-opacity="1" fill-rule="nonzero" stroke="#888a85" stroke-dasharray="none" stroke-dashoffset="0" stroke-linecap="round" stroke-linejoin="miter" stroke-miterlimit="4" stroke-opacity="1" stroke-width="1" d="m 27.920688,35.2377 1.703179,1.29703 5.679038,-6.975843 0.159732,-0.604072 0.780067,-0.145018 c -0.393138,-1.212368 -2.32616,-3.196629 -3.664197,-2.972874 l 0.114989,0.872442 -0.458436,0.387521 -4.314372,8.140814 z" color="#000" display="inline" overflow="visible" visibility="visible" style="marker:none"/><path d="m 20.985414,42.86777 c 4.713683,-0.788252 8.331712,-0.74985 8.760057,-4.752472 0.345188,-3.225562 -3.551035,-4.091914 -5.255072,-0.978912 -1.641523,2.998804 -3.504985,5.731384 -3.504985,5.731384 z" style="marker:none" id="path6933" fill="url(#radialGradient8936)" fill-opacity="1" fill-rule="nonzero" stroke="none" stroke-width=".2" color="#000" display="inline" overflow="visible" visibility="visible"/><path id="path6971" fill="#fff" fill-opacity="1" fill-rule="nonzero" stroke="none" stroke-width="1" d="m 8.8749989,37.75 a 1.2499999,1.2499999 0 1 1 -2.4999997,0 1.2499999,1.2499999 0 1 1 2.4999997,0 z" color="#000" display="inline" opacity=".528" overflow="visible" transform="matrix(0.608217,-0.10171,0.04414374,0.689789,20.41956,11.75746)" visibility="visible" style="marker:none"/><path d="m 8.8749989,37.75 a 1.2499999,1.2499999 0 1 1 -2.4999997,0 1.2499999,1.2499999 0 1 1 2.4999997,0 z" style="marker:none" id="path6983" fill="#fff" fill-opacity="1" fill-rule="nonzero" stroke="none" stroke-width="1" color="#000" display="inline" overflow="visible" transform="matrix(0.562239,-0.09402052,0.04080659,0.637644,27.55723,4.593379)" visibility="visible"/><path id="path6985" fill="none" stroke="#fff" stroke-dasharray="none" stroke-dashoffset="0" stroke-linecap="round" stroke-linejoin="round" stroke-miterlimit="4" stroke-opacity="1" stroke-width="1" d="m 32.506055,29.222896 -3.466373,5.604573" color="#000" display="inline" overflow="visible" visibility="visible" style="marker:none"/><path d="m 21.888602,42.180999 c 0,0 2.299247,-1.727487 3.188602,-3.876203 0.314651,-0.760209 1.166888,-0.298884 0.710034,0.482077 -0.986792,1.686854 -3.898636,3.394126 -3.898636,3.394126 z" style="marker:none" id="path1571" fill="url(#linearGradient8938)" fill-opacity="1" fill-rule="nonzero" stroke="none" stroke-width="1" color="#000" display="inline" opacity=".428" overflow="visible" visibility="visible"/></g><path id="path8968" fill="#dde0da" fill-opacity="1" fill-rule="evenodd" stroke="none" d="m 23.231434,29.243058 -6.7008,-1.14953 0.03445,1.141491 6.918992,1.350495 -0.252643,-1.342456 z"/></g></svg>