<svg xmlns="http://www.w3.org/2000/svg" xmlns:svg="http://www.w3.org/2000/svg" xmlns:xlink="http://www.w3.org/1999/xlink" id="svg3390" width="48" height="48" version="1.0"><defs id="defs3392"><linearGradient id="linearGradient8838"><stop id="stop8840" offset="0" stop-color="#000" stop-opacity="1"/><stop id="stop8842" offset="1" stop-color="#000" stop-opacity="0"/></linearGradient><radialGradient id="radialGradient2913" cx="62.625" cy="4.625" r="10.625" fx="62.625" fy="4.625" gradientTransform="matrix(2.1647059,0,0,0.7529402,-111.56471,36.517647)" gradientUnits="userSpaceOnUse" xlink:href="#linearGradient8838"/><linearGradient id="linearGradient3271"><stop id="stop3273" offset="0" stop-color="#b3b3b3" stop-opacity="1"/><stop id="stop3275" offset="1" stop-color="gray" stop-opacity="1"/></linearGradient><linearGradient id="linearGradient2910" x1="7.554" x2="7.554" y1="3" y2="45.184" gradientUnits="userSpaceOnUse" xlink:href="#linearGradient3271"/><linearGradient id="linearGradient3334"><stop id="stop3336" offset="0" stop-color="#fff" stop-opacity="1"/><stop id="stop3338" offset=".873" stop-color="#dcdcdc" stop-opacity="1"/><stop id="stop3340" offset="1" stop-color="#a6a7aa" stop-opacity="1"/></linearGradient><radialGradient id="radialGradient2908" cx="24.012" cy="24.003" r="21" fx="24.012" fy="24.003" gradientTransform="matrix(0.9532054,0,0,0.9532054,1.1236313,1.1232247)" gradientUnits="userSpaceOnUse" xlink:href="#linearGradient3334"/><linearGradient id="linearGradient2480"><stop id="stop2482" offset="0" stop-color="#636467" stop-opacity="1"/><stop id="stop2484" offset="1" stop-color="#fcfcfc" stop-opacity="1"/></linearGradient><linearGradient id="linearGradient2905" x1="29.05" x2="29.05" y1="7.028" y2="40.32" gradientTransform="matrix(1.0606061,0,0,1.060606,-1.4545467,-1.4545435)" gradientUnits="userSpaceOnUse" xlink:href="#linearGradient2480"/><linearGradient id="linearGradient3268"><stop id="stop3270" offset="0" stop-color="#66e87a" stop-opacity="1"/><stop id="stop3272" offset="1" stop-color="#12604d" stop-opacity="1"/></linearGradient><radialGradient id="radialGradient2903" cx="27.412" cy="12.08" r="18" fx="27.412" fy="12.08" gradientTransform="matrix(1.7637903e-8,1.7731075,-2.6591116,2.6451386e-8,59.480381,-17.99927)" gradientUnits="userSpaceOnUse" xlink:href="#linearGradient3268"/><linearGradient id="linearGradient3996"><stop id="stop3998" offset="0" stop-color="#fff" stop-opacity="1"/><stop id="stop4000" offset="1" stop-color="#fff" stop-opacity="0"/></linearGradient><linearGradient id="linearGradient2900" x1="24.398" x2="24.398" y1="3.602" y2="26.091" gradientTransform="translate(-0.3976755,0.3981273)" gradientUnits="userSpaceOnUse" xlink:href="#linearGradient3996"/><filter id="filter3759"><feGaussianBlur id="feGaussianBlur3761" stdDeviation=".564"/></filter><linearGradient id="linearGradient3708"><stop id="stop3710" offset="0" stop-color="#000" stop-opacity="1"/><stop id="stop3712" offset="1" stop-color="#000" stop-opacity="1"/></linearGradient><linearGradient id="linearGradient2889" x1="29.05" x2="29.05" y1="7.028" y2="26.494" gradientTransform="matrix(1,0,0,-1,1e-6,47.999998)" gradientUnits="userSpaceOnUse" xlink:href="#linearGradient3708"/><linearGradient id="linearGradient3301"><stop id="stop3303" offset="0" stop-color="#fff" stop-opacity="0"/><stop id="stop3309" offset=".7" stop-color="#fff" stop-opacity="0"/><stop id="stop3305" offset="1" stop-color="#000" stop-opacity="1"/></linearGradient><radialGradient id="radialGradient2887" cx="24" cy="24" r="17" fx="24" fy="24" gradientUnits="userSpaceOnUse" xlink:href="#linearGradient3301"/><linearGradient id="linearGradient3326"><stop id="stop3328" offset="0" stop-color="#797979" stop-opacity="1"/><stop id="stop3330" offset="1" stop-color="#fdf5f5" stop-opacity="1"/></linearGradient><linearGradient id="linearGradient3332" x1="25.463" x2="25.463" y1="27.096" y2="21.226" gradientTransform="matrix(0.7916668,0,0,0.7916668,4.9999983,4.9999983)" gradientUnits="userSpaceOnUse" xlink:href="#linearGradient3326"/><linearGradient id="linearGradient3260"><stop id="stop3262" offset="0" stop-color="#fdf5f5" stop-opacity="1"/><stop id="stop3286" offset=".5" stop-color="#ebe9e9" stop-opacity="1"/><stop id="stop3264" offset="1" stop-color="#959595" stop-opacity="1"/></linearGradient><radialGradient id="radialGradient3266" cx="23.677" cy="21" r="3" fx="23.677" fy="21" gradientTransform="matrix(0,1.5833333,-1.8938912,0,63.771715,-15.863131)" gradientUnits="userSpaceOnUse" xlink:href="#linearGradient3260"/></defs><g id="layer1"><path id="path8836" fill="url(#radialGradient2913)" fill-opacity="1" fill-rule="evenodd" stroke="none" stroke-width="1" d="M 46.999997,40 C 46.999997,44.418278 36.702545,48 23.999997,48 C 11.297449,48 0.9999968,44.418278 0.9999968,40 C 0.9999968,35.581722 11.297449,32 23.999997,32 C 36.702545,32 46.999997,35.581722 46.999997,40 L 46.999997,40 z" display="inline" opacity=".3" overflow="visible" visibility="visible" style="marker:none"/><path id="path6495" fill="url(#radialGradient2908)" fill-opacity="1" fill-rule="nonzero" stroke="url(#linearGradient2910)" stroke-dasharray="none" stroke-miterlimit="4" stroke-opacity="1" stroke-width="1" d="M 44.5,23.999273 C 44.5,35.321475 35.32116,44.5 24.000257,44.5 C 12.678317,44.5 3.5,35.321371 3.5,23.999273 C 3.5,12.67759 12.678317,3.499998 24.000257,3.499998 C 35.32116,3.499998 44.5,12.67759 44.5,23.999273 L 44.5,23.999273 z"/><path id="path3215" fill="url(#radialGradient2903)" fill-opacity="1" fill-rule="nonzero" stroke="url(#linearGradient2905)" stroke-dasharray="none" stroke-miterlimit="4" stroke-width="1" d="M 41.500001,23.999379 C 41.500001,33.664672 33.664405,41.499998 24.000221,41.499998 C 14.335149,41.499998 6.4999987,33.664583 6.4999987,23.999379 C 6.4999987,14.334528 14.335149,6.4999998 24.000221,6.4999998 C 33.664405,6.4999998 41.500001,14.334528 41.500001,23.999379 L 41.500001,23.999379 L 41.500001,23.999379 L 41.500001,23.999379 z"/><path id="path3222" fill="none" stroke="url(#linearGradient2900)" stroke-dasharray="none" stroke-miterlimit="4" stroke-opacity="1" stroke-width="1" d="M 43.5,23.999308 C 43.5,34.769206 34.768909,43.499998 24.000245,43.499998 C 13.230594,43.499998 4.4999995,34.769107 4.4999995,23.999308 C 4.4999995,13.229904 13.230594,4.4999996 24.000245,4.4999996 C 34.768909,4.4999996 43.5,13.229904 43.5,23.999308 L 43.5,23.999308 z" opacity=".8"/><path id="path2335-5" fill="#000" fill-opacity="1" fill-rule="evenodd" stroke="#000" stroke-dasharray="none" stroke-linecap="butt" stroke-linejoin="miter" stroke-miterlimit="4" stroke-opacity="1" stroke-width="1" d="M 13.03125,13.46875 L 21.5625,25.4375 L 23.28125,23.71875 L 25.03125,22 L 13.03125,13.46875 z M 26.9375,23.90625 L 25.1875,25.625 L 23.46875,27.34375 L 35.59375,36 L 26.9375,23.90625 z" filter="url(#filter3759)" opacity=".2"/><path id="path3215-4" fill="url(#radialGradient2887)" fill-opacity="1" stroke="url(#linearGradient2889)" stroke-dasharray="none" stroke-miterlimit="4" stroke-width="1" d="M 40.5,24.000585 C 40.5,14.887594 33.112152,7.4999999 24.000208,7.4999999 C 14.887427,7.4999999 7.5,14.887677 7.5,24.000585 C 7.5,33.113159 14.887427,40.5 24.000208,40.5 C 33.112152,40.5 40.5,33.113159 40.5,24.000585 L 40.5,24.000585 z" opacity=".2"/><path id="path3388" fill="#fff" fill-opacity="1" fill-rule="evenodd" stroke="none" d="M 24.032483,11 L 22.37587,18.96748 C 21.766446,19.131754 21.207375,19.385955 20.686775,19.715447 L 17.081206,18.089431 L 18.705337,21.699187 C 18.388264,22.208307 18.151428,22.764671 17.99072,23.357724 L 10,24 L 10,24.983739 L 17.99072,26.642276 C 18.151428,27.235329 18.388264,27.791693 18.705338,28.300813 L 17.081206,31.910569 L 20.686776,30.284553 C 21.198636,30.608514 21.745414,30.868029 22.343388,31.03252 L 23.967517,39 L 25.62413,31.03252 C 26.233554,30.868246 26.792626,30.614045 27.313225,30.284553 L 30.918794,31.910569 L 29.294663,28.300812 C 29.611736,27.791693 29.848572,27.235329 30.00928,26.642276 L 38,25.048781 L 38,24 L 30.00928,23.390244 C 29.848781,22.786256 29.616958,22.216693 29.294663,21.699187 L 30.918794,18.089431 L 27.313225,19.715447 C 26.801364,19.391486 26.254586,19.131971 25.656613,18.96748 L 24.032483,11 L 24.032483,11 L 24.032483,11 z M 23.480279,19.813008 C 23.654923,19.795234 23.820697,19.813008 24,19.813008 C 26.868863,19.813008 29.197216,22.144066 29.197216,25.016262 C 29.197216,27.888455 26.868864,30.186992 24,30.186991 C 21.131137,30.186991 18.802784,27.855934 18.802784,24.983738 C 18.802784,22.291056 20.860609,20.079624 23.480279,19.813008 L 23.480279,19.813008 z" opacity=".3"/><path id="path1118-6" fill="#328650" fill-opacity="1" fill-rule="evenodd" stroke="none" d="M 24.032483,10 L 22.37587,17.96748 C 21.766446,18.131754 21.207375,18.385955 20.686775,18.715447 L 17.081206,17.089431 L 18.705337,20.699187 C 18.388264,21.208307 18.151428,21.764671 17.99072,22.357724 L 10,23.983739 L 17.99072,25.642276 C 18.151428,26.235329 18.388264,26.791693 18.705338,27.300813 L 17.081206,30.910569 L 20.686776,29.284553 C 21.198636,29.608514 21.745414,29.868029 22.343388,30.03252 L 23.967517,38 L 25.62413,30.03252 C 26.233554,29.868246 26.792626,29.614045 27.313225,29.284553 L 30.918794,30.910569 L 29.294663,27.300812 C 29.611736,26.791693 29.848572,26.235329 30.00928,25.642276 L 38,24.048781 L 30.00928,22.390244 C 29.848781,21.786256 29.616958,21.216693 29.294663,20.699187 L 30.918794,17.089431 L 27.313225,18.715447 C 26.801364,18.391486 26.254586,18.131971 25.656613,17.96748 L 24.032483,10 L 24.032483,10 L 24.032483,10 z M 23.480279,18.813008 C 23.654923,18.795234 23.820697,18.813008 24,18.813008 C 26.868863,18.813008 29.197216,21.144066 29.197216,24.016262 C 29.197216,26.888455 26.868864,29.186992 24,29.186991 C 21.131137,29.186991 18.802784,26.855934 18.802784,23.983738 C 18.802784,21.291056 20.860609,19.079624 23.480279,18.813008 L 23.480279,18.813008 z" opacity="1"/><g id="g3365"><g id="g3357"><g id="g3353"><path id="path2341" fill="#d2d2d2" fill-opacity="1" fill-rule="evenodd" stroke="#000" stroke-linecap="butt" stroke-linejoin="miter" stroke-miterlimit="4" stroke-opacity=".455" stroke-width=".034" d="M 26.490493,23.042827 L 24.74323,24.758456 L 23.027381,26.474305 L 35.277033,35.261063 L 26.490493,23.042827 z"/><path id="path2342" fill="#fff" fill-opacity="1" fill-rule="evenodd" stroke="#000" stroke-linecap="butt" stroke-linejoin="miter" stroke-miterlimit="4" stroke-opacity=".455" stroke-width=".014" d="M 35.272928,35.260264 L 24.755,24.765615 L 26.484899,23.054733 L 35.272928,35.260264" opacity=".6"/></g><g id="g3306" transform="matrix(1.0114576,1.3145946e-2,1.3145918e-2,1.0114576,-0.6260218,-0.3924146)"><path id="path2335" fill="#ed000d" fill-opacity="1" fill-rule="evenodd" stroke="#000" stroke-linecap="butt" stroke-linejoin="miter" stroke-miterlimit="4" stroke-opacity=".457" stroke-width=".034" d="M 13.03125,12.8125 L 21.5625,24.78125 L 23.28125,23.0625 L 25.03125,21.34375 L 13.03125,12.8125 z"/><path id="path2336" fill="#fff" fill-opacity="1" fill-rule="evenodd" stroke="none" stroke-linecap="butt" stroke-linejoin="miter" stroke-miterlimit="4" stroke-opacity=".457" stroke-width=".034" d="M 13.020425,12.820343 L 23.293376,23.069974 L 25.025963,21.35596 L 13.020425,12.820343" opacity=".6"/></g></g><path id="path3321" fill="url(#radialGradient3266)" fill-opacity="1" fill-rule="nonzero" stroke="url(#linearGradient3332)" stroke-dasharray="none" stroke-dashoffset="0" stroke-linecap="butt" stroke-linejoin="round" stroke-miterlimit="4" stroke-opacity="1" stroke-width=".75" d="M 26.375,24.000001 C 26.375,25.311678 25.311677,26.375 24,26.375 C 22.688324,26.375 21.625,25.311678 21.625,24.000001 C 21.625,22.688324 22.688324,21.625 24,21.625 C 25.311677,21.625 26.375,22.688324 26.375,24.000001 L 26.375,24.000001 z" display="inline" enable-background="accumulate" overflow="visible" visibility="visible" style="marker:none"/></g></g></svg>