<svg xmlns="http://www.w3.org/2000/svg" xmlns:svg="http://www.w3.org/2000/svg" xmlns:xlink="http://www.w3.org/1999/xlink" id="svg3033" width="48" height="48" version="1.1"><defs id="defs3035"><linearGradient id="linearGradient2967" x1="22.885" x2="22.885" y1="17.629" y2="30.89" gradientTransform="matrix(1.0395395,0,0,0.9504295,-44.269588,47.458983)" gradientUnits="userSpaceOnUse" xlink:href="#linearGradient3202"/><linearGradient id="linearGradient3202"><stop id="stop3204" offset="0" stop-color="#fff" stop-opacity="1"/><stop id="stop3206" offset="1" stop-color="#d3eefc" stop-opacity="1"/></linearGradient><linearGradient id="linearGradient2922" x1="25.579" x2="25.579" y1="-25.736" y2="41.953" gradientTransform="matrix(0.96423685,0,0,0.97292031,-0.65526887,1.99877)" gradientUnits="userSpaceOnUse" xlink:href="#linearGradient3211"/><linearGradient id="linearGradient3211"><stop id="stop3213" offset="0" stop-color="#fff" stop-opacity="1"/><stop id="stop3215" offset="1" stop-color="#fff" stop-opacity="0"/></linearGradient><radialGradient id="radialGradient2926" cx="39.651" cy="18.619" r="20.714" fx="39.651" fy="18.619" gradientTransform="matrix(0.04588502,2.9168208,-4.3002473,3.3179656e-7,75.324517,-119.13082)" gradientUnits="userSpaceOnUse" xlink:href="#linearGradient3242-2"/><linearGradient id="linearGradient3242-2"><stop id="stop3244" offset="0" stop-color="#f8b17e" stop-opacity="1"/><stop id="stop3246-9" offset=".312" stop-color="#e35d4f" stop-opacity="1"/><stop id="stop3248-3" offset=".571" stop-color="#c6262e" stop-opacity="1"/><stop id="stop3250-9" offset="1" stop-color="#690b54" stop-opacity="1"/></linearGradient><linearGradient id="linearGradient2928" x1="24.009" x2="24.009" y1="38.246" y2="1" gradientUnits="userSpaceOnUse" xlink:href="#linearGradient2490"/><linearGradient id="linearGradient2490"><stop id="stop2492" offset="0" stop-color="#791235" stop-opacity="1"/><stop id="stop2494" offset="1" stop-color="#dd3b27" stop-opacity="1"/></linearGradient><linearGradient id="linearGradient2932" x1="21.136" x2="21.136" y1="40.885" y2="35.298" gradientTransform="matrix(0.89432531,0,0,0.71689518,3.0387027,11.694937)" gradientUnits="userSpaceOnUse" xlink:href="#linearGradient2346"/><linearGradient id="linearGradient2346"><stop id="stop2348" offset="0" stop-color="#eee" stop-opacity="1"/><stop id="stop2350" offset="1" stop-color="#d9d9da" stop-opacity="1"/></linearGradient><linearGradient id="linearGradient3012" x1="302.857" x2="302.857" y1="366.648" y2="609.505" gradientTransform="matrix(2.774389,0,0,1.969706,-1892.179,-872.8854)" gradientUnits="userSpaceOnUse" xlink:href="#linearGradient5048"/><linearGradient id="linearGradient5048"><stop id="stop5050" offset="0" stop-color="#000" stop-opacity="0"/><stop id="stop5056" offset=".5" stop-color="#000" stop-opacity="1"/><stop id="stop5052" offset="1" stop-color="#000" stop-opacity="0"/></linearGradient><radialGradient id="radialGradient3014" cx="605.714" cy="486.648" r="117.143" fx="605.714" fy="486.648" gradientTransform="matrix(2.774389,0,0,1.969706,-1891.633,-872.8854)" gradientUnits="userSpaceOnUse" xlink:href="#linearGradient5060"/><linearGradient id="linearGradient5060"><stop id="stop5062" offset="0" stop-color="#000" stop-opacity="1"/><stop id="stop5064" offset="1" stop-color="#000" stop-opacity="0"/></linearGradient><radialGradient id="radialGradient3031" cx="605.714" cy="486.648" r="117.143" fx="605.714" fy="486.648" gradientTransform="matrix(-2.774389,0,0,1.969706,112.7623,-872.8854)" gradientUnits="userSpaceOnUse" xlink:href="#linearGradient5060"/></defs><g id="layer1"><g id="g8875" transform="matrix(0.02146165,0,0,0.01463898,43.088761,43.203389)"><rect id="rect8877" width="1339.633" height="478.357" x="-1559.252" y="-150.697" fill="url(#linearGradient3012)" fill-opacity="1" fill-rule="nonzero" stroke="none" stroke-width="1" display="inline" opacity=".402" overflow="visible" visibility="visible" style="marker:none"/><path id="path8879" fill="url(#radialGradient3014)" fill-opacity="1" fill-rule="nonzero" stroke="none" stroke-width="1" d="m -219.61876,-150.68038 c 0,0 0,478.33079 0,478.33079 142.874166,0.90045 345.40022,-107.16966 345.40014,-239.196175 0,-132.026537 -159.436816,-239.134595 -345.40014,-239.134615 z" display="inline" opacity=".402" overflow="visible" visibility="visible" style="marker:none"/><path id="path8881" fill="url(#radialGradient3031)" fill-opacity="1" fill-rule="nonzero" stroke="none" stroke-width="1" d="m -1559.2523,-150.68038 c 0,0 0,478.33079 0,478.33079 -142.8742,0.90045 -345.4002,-107.16966 -345.4002,-239.196175 0,-132.026537 159.4368,-239.134595 345.4002,-239.134615 z" display="inline" opacity=".402" overflow="visible" visibility="visible" style="marker:none"/></g><path id="rect8840" fill="url(#linearGradient2932)" fill-opacity="1" fill-rule="nonzero" stroke="#7a1235" stroke-dasharray="none" stroke-dashoffset=".06" stroke-linecap="round" stroke-linejoin="round" stroke-miterlimit="4" stroke-opacity="1" stroke-width="1" d="m 43.271179,44.500125 -37.4219627,0 c -0.347147,0 -0.6266189,-0.317795 -0.6266189,-0.712548 L 4.4998733,38.285815 c 0,-0.394753 0.2794721,-0.712547 0.6266191,-0.712547 l 38.1037726,0" display="inline" enable-background="accumulate" overflow="visible" visibility="visible" style="marker:none"/><path id="path9017" fill="none" stroke="#666" stroke-dasharray="none" stroke-linecap="round" stroke-linejoin="miter" stroke-miterlimit="4" stroke-opacity="1" stroke-width="1" d="m 42.811302,43.623944 c -0.444161,-0.581595 -0.26312,-3.849289 0.601434,-5.306799"/><path id="rect8064" fill="url(#radialGradient2926)" fill-opacity="1" fill-rule="nonzero" stroke="url(#linearGradient2928)" stroke-dasharray="none" stroke-dashoffset=".06" stroke-linecap="round" stroke-linejoin="round" stroke-miterlimit="4" stroke-opacity="1" stroke-width="1" d="m 7.0900094,1.4998728 c -0.3552903,0 -0.6318528,0.4060416 -0.6318524,0.9204463 L 4.5175814,36.825966 c 0,0.514406 0.3040344,0.920448 0.6593242,0.920447 l 37.6638974,0 c 0.355288,1e-6 0.659324,-0.406041 0.659324,-0.920447 l -2.1702,-34.4056469 c 1e-6,-0.5144047 -0.276562,-0.9204463 -0.631853,-0.9204463 l -33.6080646,0 z" display="inline" enable-background="accumulate" overflow="visible" visibility="visible" style="marker:none"/><path id="path3267" fill="none" stroke="#000" stroke-linecap="square" stroke-linejoin="miter" stroke-opacity="1" stroke-width="1" d="M 6.2186139,43.454184 5.5983146,38.823012" opacity=".2"/><path id="path2868" fill="none" stroke="url(#linearGradient2922)" stroke-dasharray="none" stroke-dashoffset=".06" stroke-linecap="round" stroke-linejoin="round" stroke-miterlimit="4" stroke-opacity="1" stroke-width="1" d="m 8.0546969,2.4733527 c -0.3552905,0 -0.6318528,0.4060416 -0.6318524,0.9204463 L 5.4822687,35.85311 c 0,0.514405 0.3040346,0.920448 0.6593244,0.920447 l 35.7349339,0 c 0.355288,1e-6 0.659323,-0.406042 0.659323,-0.920447 L 40.36565,3.393799 c 10e-7,-0.5144047 -0.276561,-0.9204463 -0.631852,-0.9204463 l -31.6791011,0 z" display="inline" enable-background="accumulate" opacity=".4" overflow="visible" visibility="visible" style="marker:none"/><g id="g2963" transform="translate(43.198023,-50.872728)"><path font-stretch="normal" style="text-align:start;line-height:125%;-inkscape-font-specification:URW Gothic L Book" id="path2438" fill="#a1ceef" fill-opacity="1" stroke="none" d="m -30.690913,76.872727 c 1.225378,0 3.774622,0 5,0 0.02003,-2.69044 -0.08349,-5.382579 0,-8.07176 0,-1.434446 0.209448,-2.71704 1.896799,-2.71704 1.935845,0 2.089684,0.969817 2.089684,2.817071 0,1.688236 0,6.283493 0,7.971729 1.225377,0 3.78814,10e-7 5.013517,10e-7 0.01437,-2.645706 -0.05881,-5.292395 0,-7.937385 0.0089,-1.27218 -0.113326,-2.851416 1.992422,-2.851416 1.894438,0 2.006642,1.246514 2.006642,2.872766 0,1.66967 -1e-6,6.246363 0,7.916035 1.225376,0 3.775558,0 5.000936,0 -0.01422,-2.951874 0.02968,-5.904782 -0.02429,-8.855952 -0.07686,-1.784335 -0.762887,-3.755827 -2.587981,-4.659627 -1.044123,-0.342811 -1.342666,-0.472622 -2.644984,-0.472622 -2.682008,0 -13.090101,-0.0118 -17.742745,-0.0118 0,4.666666 0,9.333334 0,13.999999 z" font-family="URW Gothic L" font-size="26.706" font-style="normal" font-variant="normal" font-weight="bold" text-anchor="start" writing-mode="lr-tb"/><path font-stretch="normal" style="text-align:start;line-height:125%;-inkscape-font-specification:URW Gothic L Book" id="text3190" fill="url(#linearGradient2967)" fill-opacity="1" stroke="none" d="m -30.690913,77.872727 c 1.225378,0 3.774622,0 5,0 0.02003,-2.69044 -0.08349,-5.382579 0,-8.07176 0,-1.434446 0.209448,-2.71704 1.896799,-2.71704 1.935845,0 2.089684,0.969817 2.089684,2.817071 0,1.688236 0,6.283493 0,7.971729 1.225377,0 3.78814,10e-7 5.013517,10e-7 0.01437,-2.645706 -0.05881,-5.292395 0,-7.937385 0.0089,-1.27218 -0.113326,-2.851416 1.992422,-2.851416 1.894438,0 2.006642,1.246514 2.006642,2.872766 0,1.66967 -1e-6,6.246363 0,7.916035 1.225376,0 3.775558,0 5.000936,0 -0.01422,-2.951874 0.02968,-5.904782 -0.02429,-8.855952 -0.07686,-1.784335 -0.762887,-3.755827 -2.587981,-4.659627 -1.044123,-0.342811 -1.342666,-0.472622 -2.644984,-0.472622 -2.682008,0 -13.090101,-0.0118 -17.742745,-0.0118 0,4.666666 0,9.333334 0,13.999999 z" font-family="URW Gothic L" font-size="26.706" font-style="normal" font-variant="normal" font-weight="bold" text-anchor="start" writing-mode="lr-tb"/></g></g></svg>