<svg xmlns="http://www.w3.org/2000/svg" xmlns:svg="http://www.w3.org/2000/svg" xmlns:xlink="http://www.w3.org/1999/xlink" id="svg3266" width="48" height="48" version="1.0"><metadata id="metadata33"/><defs id="defs3268"><linearGradient id="linearGradient8838"><stop id="stop8840" offset="0" stop-color="#000" stop-opacity="1"/><stop id="stop8842" offset="1" stop-color="#000" stop-opacity="0"/></linearGradient><linearGradient id="linearGradient2490"><stop id="stop2492" offset="0" stop-color="#791235" stop-opacity="1"/><stop id="stop2494" offset="1" stop-color="#dd3b27" stop-opacity="1"/></linearGradient><linearGradient id="linearGradient3242"><stop id="stop3244" offset="0" stop-color="#f8b17e" stop-opacity="1"/><stop id="stop3246" offset=".262" stop-color="#e35d4f" stop-opacity="1"/><stop id="stop3248" offset=".661" stop-color="#c6262e" stop-opacity="1"/><stop id="stop3250" offset="1" stop-color="#690b54" stop-opacity="1"/></linearGradient><linearGradient id="linearGradient3202"><stop id="stop3204" offset="0" stop-color="#fff" stop-opacity="1"/><stop id="stop3206" offset="1" stop-color="#d3eefc" stop-opacity="1"/></linearGradient><linearGradient id="linearGradient3230"><stop id="stop3232" offset="0" stop-color="#fff" stop-opacity="1"/><stop id="stop3234" offset="1" stop-color="#fff" stop-opacity="0"/></linearGradient><linearGradient id="linearGradient2408" x1="26.154" x2="26.154" y1="5" y2="44.233" gradientTransform="translate(0,0.9999998)" gradientUnits="userSpaceOnUse" xlink:href="#linearGradient3230"/><linearGradient id="linearGradient2411" x1="22.885" x2="22.885" y1="17.629" y2="30.89" gradientTransform="matrix(1.0395395,0,0,0.9504295,2.4213254,1.5862551)" gradientUnits="userSpaceOnUse" xlink:href="#linearGradient3202"/><radialGradient id="radialGradient2415" cx="32.807" cy="3.533" r="23" fx="32.807" fy="3.533" gradientTransform="matrix(0,1.6958206,-1.7757718,0,30.273358,-47.575099)" gradientUnits="userSpaceOnUse" xlink:href="#linearGradient3242"/><linearGradient id="linearGradient2417" x1="-23.916" x2="-23.916" y1="43.708" y2="4.65" gradientTransform="translate(51.417219,1.3502817)" gradientUnits="userSpaceOnUse" xlink:href="#linearGradient2490"/><radialGradient id="radialGradient2420" cx="62.625" cy="4.625" r="10.625" fx="62.625" fy="4.625" gradientTransform="matrix(2.1647059,0,0,0.8470576,-111.5647,35.082353)" gradientUnits="userSpaceOnUse" xlink:href="#linearGradient8838"/></defs><path id="path8836" fill="url(#radialGradient2420)" fill-opacity="1" fill-rule="evenodd" stroke="none" stroke-dasharray="none" stroke-dashoffset="0" stroke-linecap="butt" stroke-linejoin="round" stroke-miterlimit="4" stroke-opacity="1" stroke-width="1" marker-end="none" marker-mid="none" marker-start="none" d="M 47.000007,39 C 47.000007,43.970562 36.702555,47.999999 24.000007,47.999999 C 11.297459,47.999999 1.0000068,43.970562 1.0000068,39 C 1.0000068,34.029437 11.297459,30 24.000007,30 C 36.702555,30 47.000007,34.029437 47.000007,39 L 47.000007,39 z" display="inline" opacity=".3" overflow="visible" visibility="visible" style="marker:none"/><path id="path2421" fill="url(#radialGradient2415)" fill-opacity="1" fill-rule="evenodd" stroke="url(#linearGradient2417)" stroke-linecap="butt" stroke-linejoin="miter" stroke-opacity="1" stroke-width="1" d="M 1.5000006,31.761226 C 1.5000006,31.761226 10.115608,15.647729 22.458894,9.2294409 C 29.653279,5.4884898 41.244893,4.5285552 46.43013,13.320438 C 46.43013,13.320438 48.176874,36.419951 34.202924,42.922755 C 34.202924,42.922755 19.743769,50.687298 1.5000006,31.761226 z"/><path id="path2438" fill="#a1ceef" fill-opacity="1" stroke="none" stroke-linecap="butt" stroke-linejoin="miter" stroke-opacity="1" stroke-width="1" d="M 16,30.999999 C 17.225378,30.999999 19.774622,30.999999 21,30.999999 C 21.020028,28.309559 20.916511,25.61742 21,22.928239 C 21,21.493793 21.209448,20.211199 22.896799,20.211199 C 24.832644,20.211199 24.986483,21.181016 24.986483,23.02827 C 24.986483,24.716506 24.986483,29.311763 24.986483,30.999999 C 26.21186,30.999999 28.774623,31 30,31 C 30.014374,28.354294 29.941186,25.707605 30,23.062615 C 30.008937,21.790435 29.886674,20.211199 31.992422,20.211199 C 33.88686,20.211199 33.999064,21.457713 33.999064,23.083965 C 33.999064,24.753635 33.999063,29.330328 33.999064,31 C 35.22444,31 37.774622,31 39,31 C 38.985776,28.048126 39.029681,25.095218 38.975706,22.144048 C 38.898843,20.359713 38.212819,18.388221 36.387725,17.484421 C 35.343606,17.14161 35.045063,17.011799 33.742745,17.011799 C 31.060737,17.011799 20.652644,17 16,17 C 16,21.666666 16,26.333334 16,30.999999 z" font-family="URW Gothic L" font-size="26.706" font-stretch="normal" font-style="normal" font-variant="normal" font-weight="bold" text-anchor="start" writing-mode="lr-tb" style="text-align:start;line-height:125%;-inkscape-font-specification:URW Gothic L Book"/><path id="text3190" fill="url(#linearGradient2411)" fill-opacity="1" stroke="none" stroke-linecap="butt" stroke-linejoin="miter" stroke-opacity="1" stroke-width="1" d="M 16,31.999999 C 17.225378,31.999999 19.774622,31.999999 21,31.999999 C 21.020028,29.309559 20.916511,26.61742 21,23.928239 C 21,22.493793 21.209448,21.211199 22.896799,21.211199 C 24.832644,21.211199 24.986483,22.181016 24.986483,24.02827 C 24.986483,25.716506 24.986483,30.311763 24.986483,31.999999 C 26.21186,31.999999 28.774623,32 30,32 C 30.014374,29.354294 29.941186,26.707605 30,24.062615 C 30.008937,22.790435 29.886674,21.211199 31.992422,21.211199 C 33.88686,21.211199 33.999064,22.457713 33.999064,24.083965 C 33.999064,25.753635 33.999063,30.330328 33.999064,32 C 35.22444,32 37.774622,32 39,32 C 38.985776,29.048126 39.029681,26.095218 38.975706,23.144048 C 38.898843,21.359713 38.212819,19.388221 36.387725,18.484421 C 35.343606,18.14161 35.045063,18.011799 33.742745,18.011799 C 31.060737,18.011799 20.652644,18 16,18 C 16,22.666666 16,27.333334 16,31.999999 z" font-family="URW Gothic L" font-size="26.706" font-stretch="normal" font-style="normal" font-variant="normal" font-weight="bold" text-anchor="start" writing-mode="lr-tb" style="text-align:start;line-height:125%;-inkscape-font-specification:URW Gothic L Book"/><path id="path3238" fill="none" fill-opacity="1" fill-rule="evenodd" stroke="url(#linearGradient2408)" stroke-linecap="butt" stroke-linejoin="miter" stroke-opacity="1" stroke-width="1" d="M 31.90625,7.4999998 C 28.681328,7.7425666 25.48596,8.7210967 22.90625,10.0625 C 11.707044,15.885887 3.6907335,29.825628 2.71875,31.5625 C 11.484066,40.437302 19.207332,43.094404 24.75,43.5 C 30.407274,43.913983 33.75,42.09375 33.75,42.09375 C 33.760173,42.083092 33.770592,42.072673 33.78125,42.0625 C 40.364812,38.998827 43.337844,31.95008 44.625,25.5 C 45.868154,19.27042 45.525212,13.993747 45.5,13.625 C 42.448467,8.6273583 37.213852,7.1007814 31.90625,7.4999998 z" opacity=".4"/></svg>