<svg xmlns="http://www.w3.org/2000/svg" xmlns:svg="http://www.w3.org/2000/svg" xmlns:xlink="http://www.w3.org/1999/xlink" id="svg2601" width="48" height="48" version="1.0"><metadata id="metadata37"/><defs id="defs2603"><linearGradient id="linearGradient4544"><stop id="stop4546" offset="0" stop-color="#fff" stop-opacity="1"/><stop id="stop4548" offset="1" stop-color="#fff" stop-opacity="0"/></linearGradient><linearGradient id="linearGradient2671" x1="21" x2="21" y1="-1.216" y2="43.254" gradientUnits="userSpaceOnUse" xlink:href="#linearGradient4544"/><linearGradient id="linearGradient3763"><stop id="stop3765" offset="0" stop-color="#1f4b6a" stop-opacity="1"/><stop id="stop3767" offset="1" stop-color="#4083c2" stop-opacity="1"/></linearGradient><linearGradient id="linearGradient3769" x1="10.148" x2="10.55" y1="43.124" y2="-1.086" gradientUnits="userSpaceOnUse" xlink:href="#linearGradient3763"/><linearGradient id="linearGradient3720"><stop id="stop3722" offset="0" stop-color="#8badea" stop-opacity="1"/><stop id="stop3728" offset=".5" stop-color="#6396cd" stop-opacity="1"/><stop id="stop3730" offset=".841" stop-color="#3b7caf" stop-opacity="1"/><stop id="stop3724" offset="1" stop-color="#194c70" stop-opacity="1"/></linearGradient><radialGradient id="radialGradient3740" cx="16.961" cy="5.883" r="22.105" fx="16.961" fy="5.883" gradientTransform="matrix(0,2,-1.3459458,0,28.918769,-35.007719)" gradientUnits="userSpaceOnUse" xlink:href="#linearGradient3720"/><linearGradient id="linearGradient2509"><stop id="stop2511" offset="0" stop-color="#b3b3b3" stop-opacity="1"/><stop id="stop2513" offset="1" stop-color="#dadada" stop-opacity="1"/></linearGradient><linearGradient id="linearGradient2590" x1="109.956" x2="109.956" y1="-24.911" y2="-2.376" gradientTransform="matrix(0.7369845,0,0,0.7314898,-52.605621,21.888493)" gradientUnits="userSpaceOnUse" xlink:href="#linearGradient2509"/><linearGradient id="linearGradient3844"><stop id="stop3846" offset="0" stop-color="#a5a6a8" stop-opacity="1"/><stop id="stop3848" offset="1" stop-color="#e8e8e8" stop-opacity="1"/></linearGradient><linearGradient id="linearGradient2588" x1="102.308" x2="102.308" y1="-2.393" y2="-24.582" gradientTransform="matrix(0.7369845,0,0,0.7314898,-52.605621,21.888493)" gradientUnits="userSpaceOnUse" spreadMethod="reflect" xlink:href="#linearGradient3844"/><linearGradient id="linearGradient2595" x1="89.018" x2="89.018" y1="22.537" y2="27.546" gradientTransform="matrix(1.6086956,0,0,1.6666668,-127.4707,-18.576854)" gradientUnits="userSpaceOnUse" xlink:href="#linearGradient3858"/><linearGradient id="linearGradient2593" x1="103.95" x2="89.424" y1="-7.666" y2="-7.666" gradientTransform="matrix(0.7365163,0,0,0.7204767,-52.560989,28.852531)" gradientUnits="userSpaceOnUse" spreadMethod="reflect" xlink:href="#linearGradient2793"/><linearGradient id="linearGradient2599" x1="89.018" x2="89.018" y1="22.537" y2="27.546" gradientTransform="matrix(1.6086956,0,0,1.6666668,-127.4707,-9.5768539)" gradientUnits="userSpaceOnUse" xlink:href="#linearGradient3858"/><linearGradient id="linearGradient2597" x1="103.95" x2="89.424" y1="-7.666" y2="-7.666" gradientTransform="matrix(0.7365163,0,0,0.7204767,-52.560989,37.852531)" gradientUnits="userSpaceOnUse" spreadMethod="reflect" xlink:href="#linearGradient2793"/><linearGradient id="linearGradient3858"><stop id="stop3860" offset="0" stop-color="#a0a0a0" stop-opacity="1"/><stop id="stop3862" offset="1" stop-color="#4a4a4a" stop-opacity="1"/></linearGradient><linearGradient id="linearGradient2577" x1="89.018" x2="89.018" y1="22.537" y2="27.546" gradientTransform="matrix(1.6086956,0,0,1.6666668,-127.4707,-0.576854)" gradientUnits="userSpaceOnUse" xlink:href="#linearGradient3858"/><linearGradient id="linearGradient2793"><stop id="stop2795" offset="0" stop-color="#868688" stop-opacity="1"/><stop id="stop2797" offset="1" stop-color="#d9d9da" stop-opacity="1"/></linearGradient><linearGradient id="linearGradient2575" x1="103.95" x2="89.424" y1="-7.666" y2="-7.666" gradientTransform="matrix(0.7365163,0,0,0.7204767,-52.560989,46.852531)" gradientUnits="userSpaceOnUse" spreadMethod="reflect" xlink:href="#linearGradient2793"/><linearGradient id="linearGradient23419"><stop id="stop23421" offset="0" stop-color="#000" stop-opacity="1"/><stop id="stop23423" offset="1" stop-color="#000" stop-opacity="0"/></linearGradient><radialGradient id="radialGradient2528" cx="23.335" cy="41.636" r="22.627" fx="23.335" fy="41.636" gradientTransform="matrix(0.9516533,0,0,0.3655503,1.7936239,24.507202)" gradientUnits="userSpaceOnUse" xlink:href="#linearGradient23419"/></defs><g id="layer1"><path id="path23417" fill="url(#radialGradient2528)" fill-opacity="1" fill-rule="evenodd" stroke="none" stroke-width="2" d="M 45.533456,39.727265 C 45.535278,44.295964 35.893898,48 24,48 C 12.106102,48 2.464708,44.295964 2.466544,39.727265 C 2.464722,35.158566 12.106102,31.45453 24,31.45453 C 35.893898,31.45453 45.535294,35.158566 45.533456,39.727265 z" display="inline" opacity=".3" overflow="visible" visibility="visible" style="marker:none"/><path id="path2561" fill="url(#linearGradient2575)" fill-opacity="1" stroke="url(#linearGradient2577)" stroke-dasharray="none" stroke-miterlimit="4" stroke-opacity="1" stroke-width="1" d="M 42.484183,37.112916 C 42.484183,41.190585 34.201444,44.5 23.995948,44.5 C 13.790435,44.5 5.5077005,41.190585 5.5077005,37.112916 C 5.5077005,25.296701 3.2479323,29.879615 23.995948,29.725833 C 45.219125,29.567166 42.484183,24.279818 42.484183,37.112916 z"/><path id="path2563" fill="#868688" fill-opacity="1" stroke="#d8d8d8" stroke-dasharray="none" stroke-miterlimit="4" stroke-opacity="1" stroke-width="1" d="M 42.499999,30.000001 C 42.499999,34.142138 34.217267,37.5 24.000001,37.5 C 13.782732,37.5 5.500001,34.142138 5.500001,30.000001 C 5.500001,25.857865 13.782732,22.5 24.000001,22.5 C 34.217267,22.5 42.499999,25.857865 42.499999,30.000001 L 42.499999,30.000001 z"/><path id="path2536" fill="url(#linearGradient2597)" fill-opacity="1" stroke="url(#linearGradient2599)" stroke-dasharray="none" stroke-miterlimit="4" stroke-opacity="1" stroke-width="1" d="M 42.484183,28.112916 C 42.484183,32.190585 34.201444,35.5 23.995948,35.5 C 13.790435,35.5 5.5077005,32.190585 5.5077005,28.112916 C 5.5077005,15.042395 3.2479323,20.879615 23.995948,20.725833 C 45.219125,20.567166 42.484183,15.035125 42.484183,28.112916 z"/><path id="path2538" fill="#868688" fill-opacity="1" stroke="#d8d8d8" stroke-dasharray="none" stroke-miterlimit="4" stroke-opacity="1" stroke-width="1" d="M 42.499999,21.000001 C 42.499999,25.142138 34.217267,28.5 24.000001,28.5 C 13.782732,28.5 5.500001,25.142138 5.500001,21.000001 C 5.500001,16.857865 13.782732,13.5 24.000001,13.5 C 34.217267,13.5 42.499999,16.857865 42.499999,21.000001 L 42.499999,21.000001 z"/><path id="path3878" fill="url(#linearGradient2593)" fill-opacity="1" stroke="url(#linearGradient2595)" stroke-dasharray="none" stroke-miterlimit="4" stroke-opacity="1" stroke-width="1" d="M 42.484183,19.112916 C 42.484183,23.190585 34.201444,26.5 23.995948,26.5 C 13.790435,26.5 5.5077005,23.190585 5.5077005,19.112916 C 5.5077005,5.1620269 3.2479323,11.879615 23.995948,11.725833 C 45.219125,11.567166 42.484183,6.1848303 42.484183,19.112916 z"/><path id="path3880" fill="url(#linearGradient2588)" fill-opacity="1" stroke="url(#linearGradient2590)" stroke-dasharray="none" stroke-miterlimit="4" stroke-opacity="1" stroke-width="1" d="M 42.499999,12.000001 C 42.499999,16.142138 34.217267,19.5 24.000001,19.5 C 13.782732,19.5 5.500001,16.142138 5.500001,12.000001 C 5.500001,7.8578656 13.782732,4.5000004 24.000001,4.5000004 C 34.217267,4.5000004 42.499999,7.8578656 42.499999,12.000001 L 42.499999,12.000001 z"/></g></svg>