<svg xmlns="http://www.w3.org/2000/svg" xmlns:svg="http://www.w3.org/2000/svg" xmlns:xlink="http://www.w3.org/1999/xlink" id="svg11300" width="48" height="48" version="1.0"><defs id="defs3"><linearGradient id="linearGradient6393"><stop id="stop6395" offset="0" stop-color="#f7fc66" stop-opacity="1"/><stop id="stop6397" offset="1" stop-color="#6efb27" stop-opacity="1"/></linearGradient><linearGradient id="linearGradient6866"><stop id="stop6868" offset="0" stop-color="#828282" stop-opacity="1"/><stop id="stop6870" offset="1" stop-color="#aaa" stop-opacity="1"/></linearGradient><linearGradient id="linearGradient6842"><stop id="stop6844" offset="0" stop-color="#fff" stop-opacity="1"/><stop id="stop6846" offset="1" stop-color="#fff" stop-opacity="0"/></linearGradient><linearGradient id="linearGradient6828"><stop id="stop6830" offset="0" stop-color="#6e6e6e" stop-opacity="1"/><stop id="stop6832" offset="1" stop-color="#1e1e1e" stop-opacity="1"/></linearGradient><linearGradient id="linearGradient2463"><stop id="stop2465" offset="0" stop-color="#fff" stop-opacity="1"/><stop id="stop2467" offset="1" stop-color="#fff" stop-opacity="0"/></linearGradient><linearGradient id="linearGradient2366"><stop id="stop2368" offset="0" stop-color="#2e3436" stop-opacity="1"/><stop id="stop2370" offset="1" stop-color="#555753" stop-opacity="1"/></linearGradient><linearGradient id="linearGradient7612"><stop id="stop7614" offset="0" stop-color="#000" stop-opacity="1"/><stop id="stop7616" offset="1" stop-color="#000" stop-opacity="0"/></linearGradient><linearGradient id="linearGradient8589"><stop id="stop8591" offset="0" stop-color="#fefefe" stop-opacity="1"/><stop id="stop8593" offset="1" stop-color="#bebebe" stop-opacity="1"/></linearGradient><linearGradient id="linearGradient3600"><stop id="stop3602" offset="0" stop-color="#f4f4f4" stop-opacity="1"/><stop id="stop3604" offset="1" stop-color="#dbdbdb" stop-opacity="1"/></linearGradient><linearGradient id="linearGradient3104"><stop id="stop3106" offset="0" stop-color="#969696" stop-opacity="1"/><stop id="stop3108" offset="1" stop-color="#bebebe" stop-opacity="1"/></linearGradient><linearGradient id="linearGradient5538" x1="24.875" x2="24.875" y1="41" y2="38" gradientTransform="translate(2,4)" gradientUnits="userSpaceOnUse" xlink:href="#linearGradient6828"/><linearGradient id="linearGradient5541" x1="21.063" x2="21.063" y1="38" y2="43.38" gradientTransform="translate(2,4)" gradientUnits="userSpaceOnUse" xlink:href="#linearGradient8589"/><radialGradient id="radialGradient5544" cx="40.092" cy="31.497" r=".389" fx="40.092" fy="31.497" gradientTransform="matrix(0.9585208,-0.09966997,0.1135695,1.0921915,1.1185799,5.7206174)" gradientUnits="userSpaceOnUse" xlink:href="#linearGradient6393"/><linearGradient id="linearGradient5547" x1="39.948" x2="39.931" y1="28.417" y2="31.987" gradientTransform="matrix(0.5626184,0,0,0.6430234,20.432822,16.72726)" gradientUnits="userSpaceOnUse" xlink:href="#linearGradient3104"/><radialGradient id="radialGradient5550" cx="11.537" cy="15.28" r="13" fx="11.537" fy="15.28" gradientTransform="matrix(1,0,0,0.3846154,2,20.615373)" gradientUnits="userSpaceOnUse" xlink:href="#linearGradient2463"/><linearGradient id="linearGradient5553" x1="7.517" x2="7.455" y1="31.156" y2="40.875" gradientTransform="matrix(0.9705882,0,0,0.8,2.7058824,12.1)" gradientUnits="userSpaceOnUse" xlink:href="#linearGradient6828"/><linearGradient id="linearGradient5555" x1="9.563" x2="9.5" y1="41.375" y2="33.5" gradientTransform="translate(2.5,3.5)" gradientUnits="userSpaceOnUse" xlink:href="#linearGradient2366"/><linearGradient id="linearGradient5558" x1="21.919" x2="22.008" y1="21" y2="33" gradientTransform="translate(1.9999997,3.999981)" gradientUnits="userSpaceOnUse" xlink:href="#linearGradient6828"/><linearGradient id="linearGradient5560" x1="15.601" x2="15.335" y1="33" y2="21" gradientTransform="translate(1.9999997,3.999981)" gradientUnits="userSpaceOnUse" xlink:href="#linearGradient2366"/><linearGradient id="linearGradient5563" x1="32.892" x2="36.358" y1="8.059" y2="5.457" gradientTransform="matrix(0.7828347,0,0,0.8639232,6.8577161,2.6627691)" gradientUnits="userSpaceOnUse" xlink:href="#linearGradient8589"/><linearGradient id="linearGradient5567" x1="25.132" x2="25.132" y1="6.729" y2="47.013" gradientTransform="matrix(0.7142849,0,0,0.6998651,8.857167,3.4502166)" gradientUnits="userSpaceOnUse" xlink:href="#linearGradient3600"/><linearGradient id="linearGradient5569" x1="-51.786" x2="-51.786" y1="50.786" y2="2.906" gradientTransform="matrix(0.5767828,0,0,0.6549695,51.293,2.6702317)" gradientUnits="userSpaceOnUse" xlink:href="#linearGradient3104"/><radialGradient id="radialGradient5572" cx="3.759" cy="11.918" r="21" fx="3.759" fy="11.918" gradientTransform="matrix(0.9998239,0.01876396,-0.01262691,0.6728156,2.1511534,18.48859)" gradientUnits="userSpaceOnUse" xlink:href="#linearGradient6842"/><linearGradient id="linearGradient5575" x1="11.519" x2="11.506" y1="20" y2="37" gradientTransform="translate(1.9999997,3.999981)" gradientUnits="userSpaceOnUse" xlink:href="#linearGradient8589"/><linearGradient id="linearGradient5577" x1="20.562" x2="20.279" y1="37" y2="20" gradientTransform="translate(2,4)" gradientUnits="userSpaceOnUse" xlink:href="#linearGradient6866"/><linearGradient id="linearGradient5580" x1="21.586" x2="21.687" y1="9.552" y2="18.92" gradientTransform="matrix(0.8789125,0,0,1.1284132,4.9061009,2.9064125)" gradientUnits="userSpaceOnUse" xlink:href="#linearGradient6828"/><linearGradient id="linearGradient5582" x1="7.438" x2="7.438" y1="14.105" y2="8.937" gradientTransform="matrix(0.8789125,0,0,1.1284132,4.9061009,2.9064125)" gradientUnits="userSpaceOnUse" xlink:href="#linearGradient2366"/><radialGradient id="radialGradient5585" cx="24" cy="41.875" r="19.125" fx="24" fy="41.875" gradientTransform="matrix(1.254902,0,0,0.339869,-4.1176472,29.267974)" gradientUnits="userSpaceOnUse" xlink:href="#linearGradient7612"/><radialGradient id="radialGradient3740" cx="16.961" cy="5.883" r="22.105" fx="16.961" fy="5.883" gradientTransform="matrix(0,2,-1.3459458,0,28.918769,-35.007719)" gradientUnits="userSpaceOnUse" xlink:href="#linearGradient3720"/><linearGradient id="linearGradient3720"><stop id="stop3722" offset="0" stop-color="#8badea" stop-opacity="1"/><stop id="stop3728" offset=".5" stop-color="#6396cd" stop-opacity="1"/><stop id="stop3730" offset=".841" stop-color="#3b7caf" stop-opacity="1"/><stop id="stop3724" offset="1" stop-color="#194c70" stop-opacity="1"/></linearGradient><linearGradient id="linearGradient3769" x1="10.148" x2="10.55" y1="43.124" y2="-1.086" gradientUnits="userSpaceOnUse" xlink:href="#linearGradient3763"/><linearGradient id="linearGradient3763"><stop id="stop3765" offset="0" stop-color="#1f4b6a" stop-opacity="1"/><stop id="stop3767" offset="1" stop-color="#4083c2" stop-opacity="1"/></linearGradient><linearGradient id="linearGradient4544"><stop id="stop4546" offset="0" stop-color="#fff" stop-opacity="1"/><stop id="stop4548" offset="1" stop-color="#fff" stop-opacity="0"/></linearGradient><linearGradient id="linearGradient2945" x1="21" x2="21" y1="-1.216" y2="43.254" gradientUnits="userSpaceOnUse" xlink:href="#linearGradient4544"/></defs><g id="g6448"><path id="path3087" fill="url(#radialGradient5585)" fill-opacity="1" fill-rule="nonzero" stroke="none" stroke-width="4" d="M 50.000002,43.499999 C 50.000002,47.08985 39.254835,50 26.000001,50 12.745166,50 2,47.08985 2,43.499999 c 0,-3.589851 10.745166,-6.500001 24.000001,-6.500001 13.254834,0 24.000001,2.91015 24.000001,6.500001 l 0,0 z" display="inline" opacity=".5" overflow="visible" visibility="visible" style="marker:none"/><rect id="rect2315" width="29.004" height="22.004" x="11.498" y="12.498" fill="url(#linearGradient5580)" fill-opacity="1" stroke="url(#linearGradient5582)" stroke-dasharray="none" stroke-linecap="round" stroke-linejoin="round" stroke-miterlimit="4" stroke-opacity="1" stroke-width=".996" display="inline" rx=".564" ry=".724"/><path id="rect2313" fill="url(#linearGradient5575)" fill-opacity="1" stroke="url(#linearGradient5577)" stroke-linecap="round" stroke-linejoin="round" stroke-miterlimit="4" stroke-opacity="1" stroke-width="1" d="m 6.5789659,24.499981 4.9210341,0 1,1 27,0 1,-1 4.921034,0 c 1.151747,0 2.078966,0.927219 2.078966,2.078966 l 0,13.921034 -43.0000003,0 0,-13.921034 c 0,-1.151747 0.9272188,-2.078966 2.0789661,-2.078966 z"/><path id="rect2374" fill="none" stroke="url(#radialGradient5572)" stroke-linecap="round" stroke-linejoin="miter" stroke-miterlimit="4" stroke-opacity="1" stroke-width="1" d="m 6.4999997,25.499981 39.0000003,0 c 0.518817,0 1,0.481183 1,1 l 0,13 -41.0000003,0 0,-13 c 0,-0.518817 0.4811833,-1 0.9999999,-1 z" display="inline" opacity=".9"/><path id="rect2594" fill="url(#linearGradient5567)" fill-opacity="1" stroke="url(#linearGradient5569)" stroke-dasharray="none" stroke-dashoffset="0" stroke-linecap="butt" stroke-linejoin="round" stroke-miterlimit="4" stroke-opacity="1" stroke-width="1" d="m 13.499989,4.4999892 c 5.728776,0 11.457549,0 17.186322,0 1.00495,0.3397 6.403888,4.2097834 7.8137,6.8894398 0,8.201516 0,6.909055 0,15.110571 -8.333341,0 -16.66668,0 -25.000022,0 0,-10.497995 0,-11.502016 0,-22.0000108 z" display="inline"/><path id="path8596" fill="#000" fill-opacity=".327" fill-rule="evenodd" stroke="#000" stroke-dasharray="none" stroke-linecap="butt" stroke-linejoin="round" stroke-miterlimit="4" stroke-opacity=".166" stroke-width="1.008" d="m 30.172621,4.503731 c 0.461632,3.1311527 0.441325,6.85767 0.441325,6.85767 0,0 3.526294,-0.08464 7.882281,0.450826 C 34.950272,8.1780173 32.465386,6.662651 30.172621,4.503731 z" display="inline"/><path id="path12038" fill="url(#linearGradient5563)" fill-opacity="1" fill-rule="evenodd" stroke="none" d="m 30,3.9999575 c 1.10808,3.3466499 1.01618,6.7060525 1.01618,6.7060525 0,0 6.146086,0.444304 7.98382,1.293948 0,-1.389106 -7.295193,-7.976287 -9,-8.0000005 z" display="inline"/><rect id="rect2319" width="27" height="11" x="12.5" y="25.5" fill="url(#linearGradient5558)" fill-opacity="1" stroke="url(#linearGradient5560)" stroke-dasharray="none" stroke-linecap="round" stroke-linejoin="miter" stroke-miterlimit="4" stroke-opacity="1" stroke-width="1"/><path id="rect6333" fill="url(#linearGradient5553)" fill-opacity="1" stroke="url(#linearGradient5555)" stroke-dasharray="none" stroke-linecap="square" stroke-linejoin="miter" stroke-miterlimit="4" stroke-opacity="1" stroke-width="1" d="M 5.5,40.5 C 5.580089,41.536507 5.2926218,42.651877 5.7536296,43.61219 6.6184456,44.831026 8.2237036,44.430252 9.5,44.5 c 0.023032,0.719497 -0.2134627,1.830225 0.772743,1.983266 10.418077,0.03903 20.839242,0.0056 31.258507,0.01673 1.075221,0.03177 1.003507,-1.16201 0.96875,-1.919563 0.351156,-0.186608 1.047908,-0.02762 1.532856,-0.08044 1.19992,0.163086 2.667095,-0.659828 2.467144,-2.028135 0,-0.657288 0,-1.314577 0,-1.971865 -13.666667,0 -27.333333,0 -41,0 z"/><rect id="rect2459" width="25" height="9" x="13.5" y="26.5" fill="none" stroke="url(#radialGradient5550)" stroke-dasharray="none" stroke-linecap="round" stroke-linejoin="miter" stroke-miterlimit="4" stroke-opacity="1" stroke-width="1" display="inline" opacity=".3"/><path id="path2726" fill="none" stroke="url(#linearGradient5547)" stroke-dasharray="none" stroke-linecap="round" stroke-linejoin="round" stroke-miterlimit="4" stroke-opacity="1" stroke-width=".75" d="m 44.625413,36.50023 c 0,0.62148 -0.503786,1.125291 -1.125237,1.125291 -0.62145,0 -1.125236,-0.503811 -1.125236,-1.125291 0,-0.621481 0.503786,-1.125291 1.125236,-1.125291 0.621451,0 1.125237,0.50381 1.125237,1.125291 z"/><path id="path2764" fill="url(#radialGradient5544)" fill-opacity="1" stroke="none" d="m 44.299999,36.500001 c 3.88e-4,0.442102 -0.357898,0.800702 -0.8,0.800702 -0.442102,0 -0.800388,-0.3586 -0.8,-0.800702 -3.88e-4,-0.442102 0.357898,-0.800702 0.8,-0.800702 0.442102,0 0.800388,0.3586 0.8,0.800702 l 0,0 z"/><path id="rect6331" fill="url(#linearGradient5541)" fill-opacity="1" stroke="none" d="m 42,42 0,3.5 c 0,0.277 -0.223,0.5 -0.5,0.5 l -31,0 C 10.223,46 10,45.777 10,45.5 l 0,-3.5 32,0 z"/><rect id="rect6329" width="28" height="2" x="12" y="42" fill="url(#linearGradient5538)" fill-opacity="1" stroke="none"/><g id="g2663" transform="translate(76.808251,-2.8915678)"><circle id="circle51" cx="21" cy="21.019" r="21" fill="url(#radialGradient3740)" fill-opacity="1" stroke="url(#linearGradient3769)" stroke-dasharray="none" stroke-miterlimit="4" stroke-opacity="1" stroke-width="2.211" transform="matrix(0.452381,0,0,0.452381,-76.308251,3.3829709)"/><path id="path4552" fill="#173561" fill-opacity="1" d="m -75.803479,14.833209 c -0.08842,0.01047 6.61631,-1.072907 9.087814,6.058357 1.541627,-6.617505 8.965754,-6.678857 8.903761,-6.675865 0.176846,0 -6.114127,-1.674452 -8.946531,2.588245 -2.874691,-3.763405 -9.2488,-1.970737 -9.045044,-1.970737 z"/><path id="path53" fill="#fff" d="m -75.895351,13.833209 c -0.08842,0.01047 6.61631,-1.072907 9.087815,6.058357 1.541627,-6.617505 8.965754,-6.678857 8.903761,-6.675865 0.176846,0 -6.114127,-1.674452 -8.946531,2.588245 -2.874692,-3.763405 -9.248801,-1.970737 -9.045045,-1.970737 z"/><path id="path4554" fill="#173561" fill-opacity="1" d="m -70.808251,9.4139472 c 0,0 3.991302,-0.863334 5.556369,3.4776188 0.980536,-4.0480948 5.443631,-3.7033338 5.443631,-3.7033338 0,0 -3.63035,-1.4157139 -5.470157,1.2461908 -1.881018,-2.3685713 -5.531264,-1.0204758 -5.529843,-1.0204758 z"/><path id="path55" fill="#fff" d="m -70.808251,8.4139472 c 0,0 3.991302,-0.8633336 5.556369,3.4776188 0.980536,-4.0480953 5.443631,-3.7033334 5.443631,-3.7033334 0,0 -3.63035,-1.4157143 -5.470157,1.2461906 -1.881018,-2.3685715 -5.531264,-1.020476 -5.529843,-1.020476 z"/><circle id="circle4534" cx="21" cy="21.019" r="21" fill="none" stroke="url(#linearGradient2945)" stroke-dasharray="none" stroke-miterlimit="4" stroke-opacity="1" stroke-width="2.471" opacity=".3" transform="matrix(0.4047619,0,0,0.4047619,-75.308251,4.3838757)"/></g></g></svg>