<svg xmlns="http://www.w3.org/2000/svg" xmlns:svg="http://www.w3.org/2000/svg" xmlns:xlink="http://www.w3.org/1999/xlink" id="svg3767" width="48" height="48" version="1.1"><defs id="defs3769"><radialGradient id="radialGradient2917" cx="90.747" cy="32.164" r="23" fx="90.747" fy="32.164" gradientTransform="matrix(0.32729625,-0.22730582,0.12062179,0.17368257,-25.12377,54.473017)" gradientUnits="userSpaceOnUse" xlink:href="#linearGradient3718"/><linearGradient id="linearGradient3718"><stop id="stop3720" offset="0" stop-color="#f49ff4" stop-opacity="1"/><stop id="stop3722" offset="1" stop-color="#9c4694" stop-opacity="0"/></linearGradient><radialGradient id="radialGradient2936" cx="24.016" cy="2.246" r="21.996" fx="24.016" fy="2.246" gradientTransform="matrix(-1.4868718e-8,1.4132436,-1.2268499,-1.2907672e-8,26.77217,-29.044021)" gradientUnits="userSpaceOnUse" xlink:href="#linearGradient4593"/><linearGradient id="linearGradient4593"><stop id="stop12409" offset="0" stop-color="#fff" stop-opacity=".702"/><stop id="stop12411" offset="1" stop-color="#fff" stop-opacity="0"/></linearGradient><radialGradient id="radialGradient2939" cx="20.249" cy="4.912" r="23" fx="20.249" fy="4.912" gradientTransform="matrix(0,1.7703635,-1.4881952,0,30.166509,-32.859046)" gradientUnits="userSpaceOnUse" xlink:href="#linearGradient3671"/><linearGradient id="linearGradient3671"><stop id="stop3673" offset="0" stop-color="#e384c6" stop-opacity="1"/><stop id="stop3675" offset=".262" stop-color="#c467be" stop-opacity="1"/><stop id="stop3677" offset=".705" stop-color="#93399a" stop-opacity="1"/><stop id="stop3679" offset="1" stop-color="#48274f" stop-opacity="1"/></linearGradient><linearGradient id="linearGradient2941" x1="18.139" x2="18.139" y1="45.218" y2="3" gradientUnits="userSpaceOnUse" xlink:href="#linearGradient3707"/><linearGradient id="linearGradient3707"><stop id="stop3709" offset="0" stop-color="#4c2a4e" stop-opacity="1"/><stop id="stop3711" offset="1" stop-color="#a85394" stop-opacity="1"/></linearGradient><linearGradient id="linearGradient8838"><stop id="stop8840" offset="0" stop-color="#000" stop-opacity="1"/><stop id="stop8842" offset="1" stop-color="#000" stop-opacity="0"/></linearGradient><radialGradient id="radialGradient3765" cx="62.625" cy="4.625" r="10.625" fx="62.625" fy="4.625" gradientTransform="matrix(2.1647059,0,0,0.7529402,-111.56471,36.517647)" gradientUnits="userSpaceOnUse" xlink:href="#linearGradient8838"/></defs><g id="layer1"><path id="path8836" fill="url(#radialGradient3765)" fill-opacity="1" fill-rule="evenodd" stroke="none" stroke-width="1" d="m 46.999997,40 c 0,4.418278 -10.297452,8 -23,8 -12.702548,0 -23.0000002,-3.581722 -23.0000002,-8 0,-4.418278 10.2974522,-8 23.0000002,-8 12.702548,0 23,3.581722 23,8 l 0,0 z" display="inline" opacity=".3" overflow="visible" visibility="visible" style="marker:none"/><path id="path6145" fill="url(#radialGradient2939)" fill-opacity="1" fill-rule="evenodd" stroke="url(#linearGradient2941)" stroke-dasharray="none" stroke-dashoffset="0" stroke-linecap="butt" stroke-linejoin="round" stroke-miterlimit="4" stroke-opacity="1" stroke-width=".995" d="M 20.81268,3.7833432 C 9.2946995,5.4814553 0.77209309,13.417302 1.546465,22.009721 2.047904,27.573663 6.3183954,32.153264 12.425366,34.569524 l -2.5491339,9.93285 11.2771819,-8.155916 0.07796,-0.0071 c 1.391686,0.06652 2.789829,0.08857 4.240703,-0.0438 C 37.852856,35.166003 47.265956,26.927679 46.453494,17.912686 45.641037,8.8976905 34.908657,2.4973151 22.527879,3.6268593 21.947531,3.6798066 21.37914,3.6998293 20.81268,3.7833432 z" display="inline" overflow="visible" visibility="visible" style="marker:none"/><path id="path6179" fill="none" stroke="url(#radialGradient2936)" stroke-dasharray="none" stroke-dashoffset="0" stroke-linecap="butt" stroke-linejoin="miter" stroke-miterlimit="4" stroke-opacity="1" stroke-width=".995" d="M 21.094648,4.7623218 C 10.865769,6.2520739 1.8465467,12.882583 2.5579487,21.860582 3.035775,27.890821 7.7403327,31.982834 13.574223,33.88514 l -1.960294,8.057691 9.157595,-6.58386 c 1.235244,0.05367 3.135772,0.14938 4.424056,0.03185 C 34.936452,34.502119 46.288627,27.267434 45.472921,18.272449 44.603792,8.7463941 33.258184,3.6525973 22.617637,4.6233737 c -0.51531,0.047014 -1.01993,0.065683 -1.522989,0.1389481 z" display="inline" opacity=".4" overflow="visible" visibility="visible" style="marker:none"/><path font-stretch="normal" style="text-align:start;line-height:125%" id="path3393-4" fill="#333" fill-opacity="1" stroke="none" d="m 23.15625,6.9303279 c -1.080196,-0.1547498 -2.188854,0.6631442 -2.21875,1.5312498 3.77e-4,0.01041 3.77e-4,0.02084 0,0.03125 -0.0057,0.07077 0.01443,0.167938 0.03125,0.3125 0.0017,0.01433 -0.0017,0.01593 0,0.03125 0.975774,4.6055603 1.308276,9.2275193 2.28125,13.7500013 0.589907,-0.06306 1.506475,-0.183989 2.125,-0.25 -0.134035,-4.462899 -0.540078,-8.896519 -0.59375,-13.4062513 -3.77e-4,-0.01041 -3.77e-4,-0.02084 0,-0.03125 0.08822,-0.87813 -0.502805,-1.8698023 -1.59375,-1.9687498 -0.01041,3.773e-4 -0.02084,3.773e-4 -0.03125,0 l 0,0 z M 25.1875,25.899079 c -0.615904,-0.06343 -1.224953,0.100268 -1.625,0.5625 3.77e-4,0.01041 3.77e-4,0.02084 0,0.03125 -0.429279,0.446165 -0.675933,1.087768 -0.59375,1.6875 3.77e-4,0.01041 3.77e-4,0.02084 0,0.03125 0.09952,1.303162 1.692621,2.164395 2.84375,1.625 0.01041,-3.77e-4 0.02084,-3.77e-4 0.03125,0 1.12122,-0.423893 1.592908,-2.036611 0.875,-3.03125 -0.01094,-0.0099 -0.02137,-0.02031 -0.03125,-0.03125 -0.329188,-0.517953 -0.889274,-0.8121 -1.5,-0.875 z" font-family="Georgia" font-size="62.458" font-style="normal" font-variant="normal" font-weight="normal" opacity=".3" text-anchor="start" writing-mode="lr-tb"/><path font-stretch="normal" style="text-align:start;line-height:125%" id="path3393" fill="#fff" fill-opacity="1" stroke="none" d="m 23.15625,7.9303287 c -1.080196,-0.1547498 -2.188854,0.6631442 -2.21875,1.5312494 3.77e-4,0.01041 3.77e-4,0.02084 0,0.03125 -0.0057,0.07077 0.01443,0.167938 0.03125,0.3125 0.0017,0.01433 -0.0017,0.01593 0,0.03125 0.975774,4.6055599 1.308276,9.2275189 2.28125,13.7500009 0.589907,-0.06306 1.506475,-0.183989 2.125,-0.25 -0.134035,-4.462899 -0.540078,-8.896519 -0.59375,-13.4062509 -3.77e-4,-0.01041 -3.77e-4,-0.02084 0,-0.03125 0.08822,-0.87813 -0.502805,-1.8698019 -1.59375,-1.9687494 -0.01041,3.773e-4 -0.02084,3.773e-4 -0.03125,0 l 0,0 z M 25.1875,26.899079 c -0.615904,-0.06343 -1.224953,0.100268 -1.625,0.5625 3.77e-4,0.01041 3.77e-4,0.02084 0,0.03125 -0.429279,0.446165 -0.675933,1.087768 -0.59375,1.6875 3.77e-4,0.01041 3.77e-4,0.02084 0,0.03125 0.09952,1.303162 1.692621,2.164395 2.84375,1.625 0.01041,-3.77e-4 0.02084,-3.77e-4 0.03125,0 1.12122,-0.423893 1.592908,-2.036611 0.875,-3.03125 -0.01094,-0.0099 -0.02137,-0.02031 -0.03125,-0.03125 -0.329188,-0.517953 -0.889274,-0.8121 -1.5,-0.875 z" font-family="Georgia" font-size="62.458" font-style="normal" font-variant="normal" font-weight="normal" text-anchor="start" writing-mode="lr-tb"/><path id="path3705" fill="#78337f" fill-opacity="1" stroke-width="1" d="m 10.734546,43.374545 2.148178,-9.062717 8.029091,1.570909 -10.177269,7.491808 z"/><path id="path3845" fill="url(#radialGradient2917)" fill-opacity="1" fill-rule="evenodd" stroke="none" stroke-width=".995" d="m 27.031137,4.3031339 c -1.455129,-0.083101 -2.940319,-0.045694 -4.46875,0.09375 -0.596884,0.054456 -1.15413,0.077615 -1.6875,0.15625 -5.674895,0.8366579 -10.599601,3.2102162 -14.0000001,6.4062501 -3.400399,3.196033 -5.279056,7.207098 -4.90625,11.343749 0.48279,5.357016 4.631842,9.816271 10.6250001,12.1875 a 0.45001441,0.45001441 0 0 1 0.28125,0.53125 l -2.25,8.71875 10.28125,-7.4375 a 0.45001441,0.45001441 0 0 1 0.25,-0.0625 l 0.0625,0 a 0.45001441,0.45001441 0 0 1 0.03125,0 c 1.377954,0.06586 2.763531,0.06741 4.1875,-0.0625 6.102208,-0.556732 11.465224,-2.870732 15.1875,-6.125 3.722276,-3.254268 5.79741,-7.440976 5.40625,-11.78125 -0.342237,-3.79745 -2.520149,-7.119633 -5.90625,-9.5937491 -3.386101,-2.474116 -7.992077,-4.0836503 -13.09375,-4.375 z" display="inline" overflow="visible" visibility="visible" style="marker:none"/></g></svg>