<svg xmlns="http://www.w3.org/2000/svg" xmlns:svg="http://www.w3.org/2000/svg" xmlns:xlink="http://www.w3.org/1999/xlink" id="svg4117" width="48" height="48" version="1.1"><defs id="defs4119"><linearGradient id="linearGradient3114" x1="24" x2="24" y1="5" y2="43" gradientTransform="translate(2.4e-6,0.9674489)" gradientUnits="userSpaceOnUse" xlink:href="#linearGradient3924"/><linearGradient id="linearGradient3924"><stop id="stop3926" offset="0" stop-color="#fff" stop-opacity="1"/><stop id="stop3928" offset=".063" stop-color="#fff" stop-opacity=".235"/><stop id="stop3930" offset=".951" stop-color="#fff" stop-opacity=".157"/><stop id="stop3932" offset="1" stop-color="#fff" stop-opacity=".392"/></linearGradient><linearGradient id="linearGradient4054" x1="23.97" x2="23.97" y1="3.981" y2="44.024" gradientTransform="translate(0,0.9385535)" gradientUnits="userSpaceOnUse" xlink:href="#linearGradient4246-9"/><linearGradient id="linearGradient4246-9"><stop id="stop4248-6" offset="0" stop-color="#fff" stop-opacity="1"/><stop id="stop4250-1" offset="1" stop-color="#dcdcdc" stop-opacity="1"/></linearGradient><radialGradient id="radialGradient3117" cx="7.496" cy="8.45" r="20" fx="7.496" fy="8.45" gradientTransform="matrix(1.9428467e-8,2.33699,-2.4722567,-4.3056275e-8,44.890102,-11.46736)" gradientUnits="userSpaceOnUse" xlink:href="#linearGradient3242"/><linearGradient id="linearGradient3242"><stop id="stop3244" offset="0" stop-color="#f89b7e" stop-opacity="1"/><stop id="stop3246" offset=".262" stop-color="#e35d4f" stop-opacity="1"/><stop id="stop3248" offset=".661" stop-color="#c6262e" stop-opacity="1"/><stop id="stop3250" offset="1" stop-color="#690b2c" stop-opacity="1"/></linearGradient><linearGradient id="linearGradient3119" x1="24" x2="24" y1="44" y2="3.899" gradientTransform="translate(-6e-7,0.9674389)" gradientUnits="userSpaceOnUse" xlink:href="#linearGradient2490"/><linearGradient id="linearGradient2490"><stop id="stop2492" offset="0" stop-color="#791235" stop-opacity="1"/><stop id="stop2494" offset="1" stop-color="#dd3b27" stop-opacity="1"/></linearGradient><radialGradient id="radialGradient2873-966-168" cx="4.993" cy="43.5" r="2.5" fx="4.993" fy="43.5" gradientTransform="matrix(2.003784,0,0,1.4,27.98813,-17.4)" gradientUnits="userSpaceOnUse" xlink:href="#linearGradient3688-166-749"/><linearGradient id="linearGradient3688-166-749"><stop id="stop2883" offset="0" stop-color="#181818" stop-opacity="1"/><stop id="stop2885" offset="1" stop-color="#181818" stop-opacity="0"/></linearGradient><radialGradient id="radialGradient2875-742-326" cx="4.993" cy="43.5" r="2.5" fx="4.993" fy="43.5" gradientTransform="matrix(2.003784,0,0,1.4,-20.01187,-104.4)" gradientUnits="userSpaceOnUse" xlink:href="#linearGradient3688-464-309"/><linearGradient id="linearGradient3688-464-309"><stop id="stop2889" offset="0" stop-color="#181818" stop-opacity="1"/><stop id="stop2891" offset="1" stop-color="#181818" stop-opacity="0"/></linearGradient><linearGradient id="linearGradient2877-634-617" x1="25.058" x2="25.058" y1="47.028" y2="39.999" gradientUnits="userSpaceOnUse" xlink:href="#linearGradient3702-501-757"/><linearGradient id="linearGradient3702-501-757"><stop id="stop2895" offset="0" stop-color="#181818" stop-opacity="0"/><stop id="stop2897" offset=".5" stop-color="#181818" stop-opacity="1"/><stop id="stop2899" offset="1" stop-color="#181818" stop-opacity="0"/></linearGradient></defs><metadata id="metadata4122"/><g id="layer1"><g id="g2036" display="inline" transform="matrix(1.1,0,0,0.4444449,-2.4000022,25.11107)"><g id="g3712" opacity=".4" transform="matrix(1.052632,0,0,1.285713,-1.263158,-13.42854)"><rect id="rect2801" width="5" height="7" x="38" y="40" fill="url(#radialGradient2873-966-168)" fill-opacity="1" stroke="none"/><rect id="rect3696" width="5" height="7" x="-10" y="-47" fill="url(#radialGradient2875-742-326)" fill-opacity="1" stroke="none" transform="scale(-1,-1)"/><rect id="rect3700" width="28" height="7" x="10" y="40" fill="url(#linearGradient2877-634-617)" fill-opacity="1" stroke="none"/></g></g><rect stroke-linejoin="round" style="marker:none" id="rect5505-21" width="39" height="39" x="4.5" y="5.467" fill="url(#radialGradient3117)" fill-opacity="1" fill-rule="nonzero" stroke="url(#linearGradient3119)" stroke-dasharray="none" stroke-dashoffset="0" stroke-linecap="round" stroke-miterlimit="4" stroke-opacity="1" stroke-width="1" color="#000" display="inline" enable-background="accumulate" overflow="visible" rx="2" ry="2" visibility="visible"/><path id="path6711-0-7-1-0" fill="#000" fill-opacity="1" fill-rule="evenodd" stroke="none" d="M 27.8125,8.9963238 C 14.860264,20.126944 7.461119,21.698078 5,21.871324 l 0,4 c 1.857652,-0.259772 6.527078,-1.161793 11.5,-4.28125 6.376652,-4 14,-11.593751 14,-11.593751 -1.975672,3.881289 -2.618825,16.792519 -2.71875,34.000001 l 13.21875,0 c 0.505286,0 0.961168,-0.193098 1.3125,-0.5 -2.080549,-4.989636 -3.530618,-11.550928 -4.625,-17.5 C 36.649995,18.111284 38.182001,11.21746 38.75,8.9963238 l -10.9375,0 z M 5,28.402574 l 0,4.40625 c 4.660015,0 11.501913,4.8721 15.84375,11.1875 l 3.75,0 C 20.305246,37.107232 8.557506,28.402574 5,28.402574 z" opacity=".05"/><path id="path6711-0-7-4" fill="#000" fill-opacity="1" fill-rule="evenodd" stroke="none" d="M 27.8125,7.9963238 C 14.860264,19.126944 7.461119,20.698078 5,20.871324 l 0,4 c 1.857652,-0.259772 6.527078,-1.161793 11.5,-4.28125 6.376652,-4 14,-11.5937502 14,-11.5937502 C 28.485969,12.95297 27.861541,26.284455 27.78125,43.996324 l 13.21875,0 c 0.660024,0 1.229911,-0.322346 1.59375,-0.8125 C 40.351123,38.12286 38.832906,31.222764 37.6875,24.996324 36.649995,17.111284 38.182001,10.21746 38.75,7.9963238 l -10.9375,0 z M 5,27.402574 l 0,4.40625 c 4.905187,0 12.2189,5.387795 16.5,12.1875 l 3.65625,0 C 21.475141,36.98316 8.73417,27.402574 5,27.402574 z" opacity=".1"/><path id="path6711-0-2" fill="#000" fill-opacity="1" fill-rule="evenodd" stroke="none" d="M 27.8125,6.9963238 C 14.860264,18.126944 7.461119,19.698078 5,19.871324 l 0,4 c 1.857652,-0.259772 6.527078,-1.161793 11.5,-4.28125 6.376652,-4 14,-11.5937502 14,-11.5937502 C 28.447598,12.02835 27.810433,25.777065 27.75,43.996324 l 13.25,0 c 0.831,0 1.540937,-0.500438 1.84375,-1.21875 C 40.454566,37.674959 38.877165,30.463359 37.6875,23.996324 36.649995,16.111284 38.182001,9.2174598 38.75,6.9963238 l -10.9375,0 z M 5,26.402574 l 0,4.40625 c 5.143654,0 12.926766,5.922035 17.09375,13.1875 l 3.5625,0 C 22.757735,36.936852 8.913414,26.402574 5,26.402574 z" opacity=".25"/><path id="path6711-2" fill="url(#linearGradient4054)" fill-opacity="1" fill-rule="evenodd" stroke="none" d="M 27.8125,5.938554 C 14.860264,17.069174 7.461119,18.640308 5,18.813554 l 0,4 c 1.857652,-0.259772 6.527078,-1.161793 11.5,-4.28125 6.376652,-4 14,-11.593751 14,-11.593751 -2.090761,4.107385 -2.699604,18.270841 -2.74,37.000001 l 13.365,0 c 1.046411,0 1.875,-0.828589 1.875,-1.875 -2.4777,-5.117916 -4.096898,-12.516972 -5.3125,-19.125 -1.037505,-7.88504 0.494501,-14.778864 1.0625,-17 l -10.9375,0 z M 5,25.33219 5,29.762418 c 5.377172,0 13.643728,6.462294 17.642728,14.176136 l 3.358977,0 C 24.122675,36.925918 9.102349,25.33219 5,25.33219 z"/><path id="path6713-2" fill="#000" fill-opacity="1" fill-rule="evenodd" stroke="none" d="M 39.34375,5.9963238 C 34.252842,9.1024925 17.584499,18.569848 5,17.371324 l 0,8.5625 c 0,0 27.983052,4.183698 38,-4.09375 L 43,7.9963238 c 0,-1.108 -0.892,-2 -2,-2 l -1.65625,0 z" opacity=".1"/><path id="path6715-0" fill="#000" fill-opacity="1" fill-rule="evenodd" stroke="none" d="m 43,25.433824 c -5.036041,5.02345 -10.211886,11.690934 -13.65625,18.5625 l 4.03125,0 C 36.163056,39.27918 39.797797,34.098071 43,30.902574 l 0,-5.46875 z" opacity=".1"/><rect id="rect6741-2" width="37" height="37" x="5.5" y="6.467" fill="none" stroke="url(#linearGradient3114)" stroke-dasharray="none" stroke-dashoffset="0" stroke-linecap="round" stroke-linejoin="round" stroke-miterlimit="4" stroke-opacity="1" stroke-width="1" opacity=".5" rx="1" ry="1"/></g></svg>