<svg xmlns="http://www.w3.org/2000/svg" xmlns:svg="http://www.w3.org/2000/svg" xmlns:xlink="http://www.w3.org/1999/xlink" id="svg3386" width="48" height="48" version="1.0"><defs id="defs3388"><linearGradient id="linearGradient10691-1"><stop id="stop10693-3" offset="0" stop-color="#000" stop-opacity="1"/><stop id="stop10695-1" offset="1" stop-color="#000" stop-opacity="0"/></linearGradient><radialGradient id="radialGradient2452" cx="6.703" cy="73.616" r="7.228" fx="6.703" fy="73.616" gradientTransform="matrix(1.9368007,0,0,0.4150287,11.018182,13.447365)" gradientUnits="userSpaceOnUse" xlink:href="#linearGradient10691-1"/><linearGradient id="linearGradient4518"><stop id="stop4520" offset="0" stop-color="#7e7e7e" stop-opacity=".949"/><stop id="stop4522" offset="1" stop-color="#969696" stop-opacity="1"/></linearGradient><linearGradient id="linearGradient2449" x1="24.687" x2="24.739" y1="40.813" y2="34" gradientTransform="matrix(1.116455,0,0,1,-2.7949567,2.000003)" gradientUnits="userSpaceOnUse" xlink:href="#linearGradient4518"/><linearGradient id="linearGradient4510"><stop id="stop4512" offset="0" stop-color="#a5a6aa" stop-opacity="1"/><stop id="stop4514" offset=".221" stop-color="#e2e2e4" stop-opacity="1"/><stop id="stop4516" offset="1" stop-color="#595959" stop-opacity="1"/></linearGradient><linearGradient id="linearGradient2447" x1="318.421" x2="318.421" y1="93.292" y2="78.342" gradientTransform="matrix(1.4628351,0,0,0.7083672,-444.01094,-22.190508)" gradientUnits="userSpaceOnUse" xlink:href="#linearGradient4510"/><linearGradient id="linearGradient3342"><stop id="stop3344" offset="0" stop-color="#fff" stop-opacity="0"/><stop id="stop3346" offset="1" stop-color="#fff" stop-opacity="1"/></linearGradient><linearGradient id="linearGradient2444" x1="15.574" x2="23.594" y1="46.971" y2="46.971" gradientTransform="matrix(1.1176471,0,0,1,-2.3519696,-3.4710029)" gradientUnits="userSpaceOnUse" spreadMethod="reflect" xlink:href="#linearGradient3342"/><linearGradient id="linearGradient9936"><stop id="stop9938" offset="0" stop-color="#575757" stop-opacity="1"/><stop id="stop9940" offset="1" stop-color="#333" stop-opacity="1"/></linearGradient><radialGradient id="radialGradient2440" cx="12.244" cy="4.863" r="21" fx="12.244" fy="4.863" gradientTransform="matrix(1.4167634,1.999111e-2,-1.319114e-2,1.1175011,-5.3255699,6.599117)" gradientUnits="userSpaceOnUse" xlink:href="#linearGradient9936"/><linearGradient id="linearGradient2867-449-88-871-390-598-476-591-434-148"><stop id="stop4627" offset="0" stop-color="#51cfee" stop-opacity="1"/><stop id="stop4629" offset=".262" stop-color="#49a3d2" stop-opacity="1"/><stop id="stop4631" offset=".705" stop-color="#3470b4" stop-opacity="1"/><stop id="stop4633" offset="1" stop-color="#1b5699" stop-opacity="1"/></linearGradient><radialGradient id="radialGradient3382" cx="2.608" cy="-16.639" r="23" fx="2.608" fy="-16.639" gradientTransform="matrix(9.2228424e-8,1.4278012,-2.2908757,6.4501052e-8,-14.116869,4.9248736)" gradientUnits="userSpaceOnUse" xlink:href="#linearGradient2867-449-88-871-390-598-476-591-434-148"/><linearGradient id="linearGradient6592-2-7-4-6"><stop id="stop6594-0-2-6-7" offset="0" stop-color="#fff" stop-opacity=".275"/><stop id="stop6596-2-5-9-6" offset="1" stop-color="#fff" stop-opacity="0"/></linearGradient><linearGradient id="linearGradient2432" x1="12.938" x2="15.25" y1="8.438" y2="19.813" gradientTransform="matrix(1.0952382,0,0,1.3333324,-2.2857144,2.4e-6)" gradientUnits="userSpaceOnUse" xlink:href="#linearGradient6592-2-7-4-6"/><filter id="filter3198" width="1.173" height="1.215" x="-.087" y="-.108"><feGaussianBlur id="feGaussianBlur3200" stdDeviation=".717"/></filter><linearGradient id="linearGradient8589-4-3"><stop id="stop8591-7-2" offset="0" stop-color="#fefefe" stop-opacity="1"/><stop id="stop8593-2-4" offset="1" stop-color="#cbcbcb" stop-opacity="1"/></linearGradient><linearGradient id="linearGradient3225" x1="32.892" x2="36.358" y1="8.059" y2="5.457" gradientTransform="matrix(1.4357745,0,0,1.5351225,-14.50942,3.632103)" gradientUnits="userSpaceOnUse" xlink:href="#linearGradient8589-4-3"/></defs><g id="layer1"><path id="path2589" fill="url(#radialGradient2452)" fill-opacity="1" fill-rule="nonzero" stroke="none" stroke-width=".8" d="M 38,44 C 38,45.656855 31.731986,47 23.999999,47 C 16.268013,47 10,45.656855 10,44 C 10,42.343146 16.268013,41 23.999999,41 C 31.731986,41 38,42.343146 38,44 L 38,44 z" display="inline" opacity=".3" overflow="visible" visibility="visible" style="marker:none"/><path id="rect1789" fill="url(#linearGradient2447)" fill-opacity="1" stroke="url(#linearGradient2449)" stroke-dasharray="none" stroke-dashoffset=".5" stroke-linecap="round" stroke-linejoin="round" stroke-miterlimit="4" stroke-opacity="1" stroke-width="1" d="M 17.859462,36.249806 C 17.859462,36.249806 18.001234,40.507576 17.294118,41.5 C 16.587002,42.492424 15.17997,42.504 15.17997,42.504 C 14.277082,42.608262 14.269613,44.5 15.17997,44.5 L 32.81996,44.5 C 33.730317,44.5 33.723037,42.606932 32.81996,42.504 C 32.81996,42.504 31.412989,42.49242 30.705883,41.5 C 29.998777,40.507578 30.140468,36.249806 30.140468,36.249806 L 17.859462,36.249806 L 17.859462,36.249806 z" display="inline" enable-background="new"/><path id="path3340" fill="none" stroke="url(#linearGradient2444)" stroke-linecap="square" stroke-linejoin="miter" stroke-opacity="1" stroke-width="1" d="M 15.612977,43.5 L 32.387023,43.5"/><rect id="rect2722" width="47" height="33" x=".5" y="3.5" fill="#1a1a1a" fill-opacity="1" stroke="#000" stroke-dasharray="none" stroke-dashoffset=".5" stroke-linecap="round" stroke-linejoin="round" stroke-miterlimit="4" stroke-opacity="1" stroke-width="1" rx="1.044" ry="1"/><rect id="rect2716" width="42" height="28" x="3" y="6" fill="url(#radialGradient2440)" fill-opacity="1" fill-rule="evenodd" stroke="none" display="inline" enable-background="new"/><path id="path4322" fill="url(#radialGradient3382)" fill-opacity="1" fill-rule="evenodd" stroke="none" stroke-dasharray="none" stroke-dashoffset="0" stroke-linecap="round" stroke-linejoin="round" stroke-miterlimit="4" stroke-opacity="1" stroke-width="1.002" marker-end="none" marker-mid="none" marker-start="none" d="M 3,6 C 11.215899,6 19.578149,6.090505 27.794048,6.090505 C 29.235303,6.5435246 42.978122,16.438352 45,20.01191 C 45,30.949358 45,23.062552 45,34 C 33.048765,34 14.951232,34 3,34 C 3,19.999994 3,20.000005 3,6 L 3,6 z" display="inline" enable-background="accumulate" opacity="1" overflow="visible" visibility="visible" style="marker:none"/><path id="rect6588" fill="url(#linearGradient2432)" fill-opacity="1" stroke="none" d="M 1,4 L 47,4 L 47,14.666672 L 1,24 L 1,4 z"/><path id="path4891" fill="#000" fill-opacity="1" fill-rule="evenodd" stroke="none" stroke-dasharray="none" stroke-linecap="butt" stroke-linejoin="round" stroke-miterlimit="4" stroke-opacity=".444" stroke-width="1.5" d="M 25.684596,5.7861626 C 29.323179,5.435962 28.527828,19.806198 28.527828,19.806198 C 28.527828,19.806198 44.621047,18.957737 45.052635,21.760536 C 48.903382,18.491632 28.399128,4.9994627 25.684596,5.7861626 z" display="inline" filter="url(#filter3198)" opacity=".3"/><path id="path4893" fill="url(#linearGradient3225)" fill-opacity="1" fill-rule="evenodd" stroke="none" d="M 26.797285,6.0081794 C 30.365739,6.6637354 29.990672,18.170836 29.990672,18.170836 C 29.990672,18.170836 44.661946,17.411536 45.017089,20.798798 C 45.939505,18.805716 34.358556,8.7307876 28.662519,6.4622745 C 27.930604,6.1707807 27.295855,6.0081794 26.797285,6.0081794 z" display="inline"/></g></svg>