<svg xmlns="http://www.w3.org/2000/svg" xmlns:svg="http://www.w3.org/2000/svg" xmlns:xlink="http://www.w3.org/1999/xlink" id="svg4461" width="48" height="48" version="1.1"><metadata id="metadata44"/><defs id="defs4463"><radialGradient id="radialGradient2970-0-0-5" cx="13.893" cy="24.271" r="4.5" fx="13.893" fy="24.271" gradientTransform="matrix(5.4892299,0,0,2.8374165,-59.228546,-51.59895)" gradientUnits="userSpaceOnUse" xlink:href="#linearGradient4529-4-3-6"/><linearGradient id="linearGradient4529-4-3-6"><stop id="stop4531-8-6-6" offset="0" stop-color="#fff" stop-opacity="1"/><stop id="stop4533-5-7-7" offset="1" stop-color="#fff" stop-opacity="0"/></linearGradient><linearGradient id="linearGradient2972-1-3-3" x1="37.521" x2="37.521" y1="11.524" y2="4.1" gradientTransform="matrix(2.4999942,0,0,1.999993,-86.249757,-7.499925)" gradientUnits="userSpaceOnUse" xlink:href="#linearGradient2821-2-2-4"/><linearGradient id="linearGradient2821-2-2-4"><stop id="stop2823-9-2-0" offset="0" stop-color="#fff" stop-opacity="1"/><stop id="stop2825-7-1-8" offset="1" stop-color="#fff" stop-opacity="0"/></linearGradient><linearGradient id="linearGradient2975-3-5-0" x1="38.245" x2="40.933" y1="7.233" y2="11.5" gradientTransform="matrix(2.2499624,0,0,1.8749628,-76.623475,-6.562074)" gradientUnits="userSpaceOnUse" xlink:href="#linearGradient2813-8-3-8"/><linearGradient id="linearGradient2813-8-3-8"><stop id="stop2815-0-3-1" offset="0" stop-color="#fff" stop-opacity="1"/><stop id="stop2817-9-8-5" offset="1" stop-color="#fff" stop-opacity="0"/></linearGradient><radialGradient id="radialGradient2980-2-2-3" cx="15.08" cy="24.271" r="4.5" fx="15.08" fy="24.271" gradientTransform="matrix(10.163239,0,0,2.3851683,-134.75753,-21.436484)" gradientUnits="userSpaceOnUse" xlink:href="#linearGradient4529-4-3-6"/><linearGradient id="linearGradient2982-3-8-5" x1="37.521" x2="37.521" y1="11.524" y2="4.1" gradientTransform="matrix(1.7142801,0,0,1.8333206,-56.785464,13.750134)" gradientUnits="userSpaceOnUse" xlink:href="#linearGradient2821-2-2-4"/><linearGradient id="linearGradient2985-1-5-1" x1="5.942" x2="10.656" y1="7.921" y2="14.624" gradientTransform="matrix(1.6874939,0,0,1.749988,-2.0936761,14.375129)" gradientUnits="userSpaceOnUse" xlink:href="#linearGradient2867-8-8-1"/><linearGradient id="linearGradient2867-8-8-1"><stop id="stop2869-7-0-4" offset="0" stop-color="#fff" stop-opacity="1"/><stop id="stop2871-4-8-0" offset="1" stop-color="#fff" stop-opacity="0"/></linearGradient><radialGradient id="radialGradient2988-1-6-1" cx="13.893" cy="24.271" r="4.5" fx="13.893" fy="24.271" gradientTransform="matrix(4.3912411,0,0,2.837326,-21.880907,-51.596876)" gradientUnits="userSpaceOnUse" xlink:href="#linearGradient4529-4-3-6"/><linearGradient id="linearGradient2990-6-9-1" x1="37.521" x2="37.521" y1="11.524" y2="4.1" gradientTransform="matrix(1.9999304,0,0,1.9999294,-43.497173,-7.499255)" gradientUnits="userSpaceOnUse" xlink:href="#linearGradient2821-2-2-4"/><linearGradient id="linearGradient2993-3-3-8" x1="38.245" x2="40.933" y1="7.233" y2="11.5" gradientTransform="matrix(1.874971,0,0,1.8749711,-38.93632,-6.562169)" gradientUnits="userSpaceOnUse" xlink:href="#linearGradient2813-8-3-8"/><radialGradient id="radialGradient3625" cx="13.893" cy="24.271" r="4.5" fx="13.893" fy="24.271" gradientTransform="matrix(5.4892299,0,0,2.8374165,-59.228546,-51.59895)" gradientUnits="userSpaceOnUse" xlink:href="#linearGradient4529-4-3-6"/><linearGradient id="linearGradient3627" x1="37.521" x2="37.521" y1="11.524" y2="4.1" gradientTransform="matrix(2.4999942,0,0,1.999993,-86.249757,-7.499925)" gradientUnits="userSpaceOnUse" xlink:href="#linearGradient2821-2-2-4"/><linearGradient id="linearGradient3630" x1="38.245" x2="40.933" y1="7.233" y2="11.5" gradientTransform="matrix(2.2499624,0,0,1.8749628,-76.623475,-6.562074)" gradientUnits="userSpaceOnUse" xlink:href="#linearGradient2813-8-3-8"/><radialGradient id="radialGradient3635" cx="15.08" cy="24.271" r="4.5" fx="15.08" fy="24.271" gradientTransform="matrix(10.163239,0,0,2.3851683,-134.75753,-21.436484)" gradientUnits="userSpaceOnUse" xlink:href="#linearGradient4529-4-3-6"/><linearGradient id="linearGradient3637" x1="37.521" x2="37.521" y1="11.524" y2="4.1" gradientTransform="matrix(1.7142801,0,0,1.8333206,-56.785464,13.750134)" gradientUnits="userSpaceOnUse" xlink:href="#linearGradient2821-2-2-4"/><linearGradient id="linearGradient3640" x1="5.942" x2="10.656" y1="7.921" y2="14.624" gradientTransform="matrix(1.6874939,0,0,1.749988,-2.0936761,14.375129)" gradientUnits="userSpaceOnUse" xlink:href="#linearGradient2867-8-8-1"/><radialGradient id="radialGradient3643" cx="13.893" cy="24.271" r="4.5" fx="13.893" fy="24.271" gradientTransform="matrix(4.3912411,0,0,2.837326,-21.880907,-51.596876)" gradientUnits="userSpaceOnUse" xlink:href="#linearGradient4529-4-3-6"/><linearGradient id="linearGradient3645" x1="37.521" x2="37.521" y1="11.524" y2="4.1" gradientTransform="matrix(1.9999304,0,0,1.9999294,-43.497173,-7.499255)" gradientUnits="userSpaceOnUse" xlink:href="#linearGradient2821-2-2-4"/><linearGradient id="linearGradient3648" x1="38.245" x2="40.933" y1="7.233" y2="11.5" gradientTransform="matrix(1.874971,0,0,1.8749711,-38.93632,-6.562169)" gradientUnits="userSpaceOnUse" xlink:href="#linearGradient2813-8-3-8"/></defs><path id="path6595" fill="none" stroke="#70caf8" stroke-dasharray="none" stroke-linecap="butt" stroke-linejoin="miter" stroke-miterlimit="4" stroke-opacity="1" stroke-width="3" d="m 34,34.5 6,0 c 0.707107,0 1.5,-0.792893 1.5,-1.5 l 0,-9" opacity=".6"/><path id="rect6302" fill="#70caf8" fill-opacity="1" stroke="none" d="m 29,4 c -1.662,0 -3,1.338 -3,3 l 0,16 c 0,0.356638 0.0743,0.683219 0.1875,1 L 5,24 c -1.662,0 -3,1.338 -3,3 l 0,15 c 0,1.662 1.338,3 3,3 l 28,0 c 1.662,0 3,-1.338 3,-3 l 0,-15 c 0,-0.356638 -0.0743,-0.683219 -0.1875,-1 L 45,26 c 1.662,0 3,-1.338 3,-3 L 48,7 C 48,5.338 46.662,4 45,4 L 29,4 z" opacity=".6"/><path id="rect6286" fill="#3996de" fill-opacity="1" fill-rule="nonzero" stroke="none" stroke-width="1.627" d="m 30,4.9999981 14,0 c 1.662,0 3,1.338 3,3 l 0,13.9999999 c 0,1.662 -1.338,3 -3,3 l -14,0 c -1.662,0 -3,-1.338 -3,-3 L 27,7.9999981 c 0,-1.662 1.338,-3 3,-3 z M 6,25 32,25 c 1.662,0 3,1.338 3,3 l 0,13 c 0,1.662 -1.338,3 -3,3 L 6,44 C 4.338,44 3,42.662 3,41 L 3,28 c 0,-1.662 1.338,-3 3,-3 z" display="inline" overflow="visible" visibility="visible" style="marker:none"/><rect id="rect2969" width="30" height="15" x="4" y="29" fill="#000" fill-opacity="1" fill-rule="nonzero" stroke="none" stroke-width="1" display="inline" opacity=".1" overflow="visible" rx="3" ry="3" visibility="visible" style="marker:none"/><path id="path6593" fill="none" stroke="#3996de" stroke-linecap="butt" stroke-linejoin="miter" stroke-opacity="1" stroke-width="1" d="m 34,34.5 6,0 c 0.707107,0 1.5,-0.792893 1.5,-1.5 l 0,-9"/><rect id="rect2985" width="18" height="16" x="28" y="9" fill="#000" fill-opacity="1" fill-rule="nonzero" stroke="none" stroke-width="1.627" display="inline" opacity=".1" overflow="visible" rx="3" ry="3" visibility="visible" style="marker:none"/><rect id="rect4555" width="29" height="16" x="4.5" y="26.5" fill="#3c3c3c" fill-opacity="1" fill-rule="nonzero" stroke="#323232" stroke-dasharray="none" stroke-dashoffset="1.2" stroke-linecap="square" stroke-linejoin="round" stroke-miterlimit="4" stroke-opacity="1" stroke-width="1" display="inline" overflow="visible" rx="2" ry="2" visibility="visible" style="marker:none"/><rect id="rect5557" width="17" height="17" x="28.5" y="6.5" fill="#3c3c3c" fill-opacity="1" fill-rule="nonzero" stroke="#323232" stroke-dasharray="none" stroke-dashoffset="1.2" stroke-linecap="square" stroke-linejoin="round" stroke-miterlimit="4" stroke-opacity="1" stroke-width="1" display="inline" overflow="visible" rx="2" ry="2" visibility="visible" style="marker:none"/><rect id="rect5559" width="15" height="15" x="29.5" y="7.5" fill="none" stroke="url(#linearGradient3648)" stroke-dasharray="none" stroke-dashoffset="1.2" stroke-linecap="square" stroke-linejoin="round" stroke-miterlimit="4" stroke-opacity="1" stroke-width="1" display="inline" opacity=".2" overflow="visible" rx="1" ry="1" visibility="visible" style="marker:none"/><rect id="rect5561" width="12" height="12" x="31.5" y="7.5" fill="url(#radialGradient3643)" fill-opacity="1" fill-rule="nonzero" stroke="url(#linearGradient3645)" stroke-dasharray="none" stroke-dashoffset="1.2" stroke-linecap="square" stroke-linejoin="round" stroke-miterlimit="4" stroke-opacity="1" stroke-width="1" display="inline" opacity=".3" overflow="visible" rx="1.072" ry=".919" visibility="visible" style="marker:none"/><rect id="rect2926" width="27" height="14" x="5.5" y="27.5" fill="none" stroke="url(#linearGradient3640)" stroke-dasharray="none" stroke-dashoffset="1.2" stroke-linecap="square" stroke-linejoin="round" stroke-miterlimit="4" stroke-opacity="1" stroke-width="1" display="inline" opacity=".2" overflow="visible" rx="1" ry="1" visibility="visible" style="marker:none"/><rect id="rect2930" width="24" height="11" x="7.5" y="27.5" fill="url(#radialGradient3635)" fill-opacity="1" fill-rule="nonzero" stroke="url(#linearGradient3637)" stroke-dasharray="none" stroke-dashoffset="1.2" stroke-linecap="square" stroke-linejoin="round" stroke-miterlimit="4" stroke-opacity="1" stroke-width="1" display="inline" opacity=".3" overflow="visible" rx="1.043" ry="1" visibility="visible" style="marker:none"/><rect id="rect6288" width="21" height="16" x="4" y="9" fill="#000" fill-opacity="1" fill-rule="nonzero" stroke="none" stroke-width="1.627" display="inline" opacity=".1" overflow="visible" rx="3" ry="3" visibility="visible" style="marker:none"/><rect id="rect6290" width="20" height="17" x="4.5" y="6.5" fill="#3c3c3c" fill-opacity="1" fill-rule="nonzero" stroke="#323232" stroke-dasharray="none" stroke-dashoffset="1.2" stroke-linecap="square" stroke-linejoin="round" stroke-miterlimit="4" stroke-opacity="1" stroke-width="1" display="inline" overflow="visible" rx="2" ry="2" visibility="visible" style="marker:none"/><rect id="rect6292" width="18" height="15" x="5.5" y="7.5" fill="none" stroke="url(#linearGradient3630)" stroke-dasharray="none" stroke-dashoffset="1.2" stroke-linecap="square" stroke-linejoin="round" stroke-miterlimit="4" stroke-opacity="1" stroke-width="1" display="inline" opacity=".2" overflow="visible" rx="1.2" ry="1" visibility="visible" style="marker:none"/><rect id="rect6294" width="15" height="12" x="7.5" y="7.5" fill="url(#radialGradient3625)" fill-opacity="1" fill-rule="nonzero" stroke="url(#linearGradient3627)" stroke-dasharray="none" stroke-dashoffset="1.2" stroke-linecap="square" stroke-linejoin="round" stroke-miterlimit="4" stroke-opacity="1" stroke-width="1" display="inline" opacity=".3" overflow="visible" rx="1.34" ry=".919" visibility="visible" style="marker:none"/></svg>