<svg xmlns="http://www.w3.org/2000/svg" xmlns:svg="http://www.w3.org/2000/svg" xmlns:xlink="http://www.w3.org/1999/xlink" id="svg4908" width="48" height="48" version="1.0"><defs id="defs4910"><linearGradient id="linearGradient5554"><stop id="stop5556" offset="0" stop-color="#7d7f79" stop-opacity="1"/><stop id="stop5558" offset="1" stop-color="#a5a7a2" stop-opacity="1"/></linearGradient><linearGradient id="linearGradient5954"><stop id="stop5956" offset="0" stop-color="#fff" stop-opacity="1"/><stop id="stop5958" offset="1" stop-color="#fff" stop-opacity="0"/></linearGradient><linearGradient id="linearGradient5946"><stop id="stop5948" offset="0" stop-color="#fff" stop-opacity="1"/><stop id="stop5950" offset="1" stop-color="#fff" stop-opacity="0"/></linearGradient><linearGradient id="linearGradient5566"><stop id="stop5568" offset="0" stop-color="#eeeeec" stop-opacity="1"/><stop id="stop5570" offset="1" stop-color="#eeeeec" stop-opacity="0"/></linearGradient><linearGradient id="linearGradient5684"><stop id="stop5686" offset="0" stop-color="#fff" stop-opacity="1"/><stop id="stop5688" offset="1" stop-color="#fbfbfa" stop-opacity="0"/></linearGradient><linearGradient id="linearGradient5582"><stop id="stop5584" offset="0" stop-color="#f1f1ef" stop-opacity="1"/><stop id="stop5586" offset="1" stop-color="#dcdfd8" stop-opacity="1"/></linearGradient><radialGradient id="radialGradient5588" cx="4.08" cy="5.079" r="9.991" fx="4.08" fy="5.079" gradientTransform="matrix(1.7890418,0,-2.6448943e-6,2.1631137,5.2958735,0.1971189)" gradientUnits="userSpaceOnUse" xlink:href="#linearGradient5582"/><filter id="filter5672" width="1.178" height="1.962" x="-.089" y="-.481"><feGaussianBlur id="feGaussianBlur5674" stdDeviation=".814"/></filter><linearGradient id="linearGradient5690" x1="11.054" x2="11.054" y1="7.069" y2="2.669" gradientTransform="matrix(2.2442119,0,0,2.2364439,-0.8337236,-1.531208)" gradientUnits="userSpaceOnUse" xlink:href="#linearGradient5684"/><linearGradient id="linearGradient5572" x1="8.071" x2="8.133" y1="9.509" y2="5.696" gradientTransform="matrix(2.2280313,0,0,2.2364439,-0.5504298,-1.531208)" gradientUnits="userSpaceOnUse" xlink:href="#linearGradient5566"/><linearGradient id="linearGradient5952" x1="39.767" x2="40.912" y1="38.498" y2="40.531" gradientUnits="userSpaceOnUse" xlink:href="#linearGradient5946"/><linearGradient id="linearGradient5960" x1="9.19" x2="6.795" y1="38.017" y2="40.668" gradientUnits="userSpaceOnUse" xlink:href="#linearGradient5954"/><linearGradient id="linearGradient5560" x1="16.066" x2="16.363" y1="26.937" y2="2.988" gradientUnits="userSpaceOnUse" xlink:href="#linearGradient5554"/></defs><metadata id="metadata4913"/><g id="layer1"><rect id="rect5606" width="22" height="4.063" x="0" y="17.938" fill="#2e3436" fill-opacity="1" stroke="none" stroke-dasharray="none" stroke-dashoffset="0" stroke-linecap="round" stroke-linejoin="miter" stroke-miterlimit="4" stroke-opacity="1" stroke-width="1" filter="url(#filter5672)" opacity=".219" rx=".739" ry=".98" transform="matrix(1.992057,0,0,1.5036837,2.0671198,12.893613)"/><path id="path5548" fill="#d3d7cf" fill-opacity="1" fill-rule="evenodd" stroke="none" stroke-linecap="butt" stroke-linejoin="miter" stroke-opacity="1" stroke-width="1" d="M 42.792685,4.6549461 L 38.383592,8.8035877 L 38.383592,38.749424 L 42.689529,42.712147 L 42.792685,4.6549461 z"/><rect id="rect4965" width="41.016" height="41.065" x="3.573" y="3.488" fill="url(#radialGradient5588)" fill-opacity="1" stroke="url(#linearGradient5560)" stroke-dasharray="none" stroke-dashoffset="0" stroke-linecap="round" stroke-linejoin="miter" stroke-miterlimit="4" stroke-opacity="1" stroke-width="1" opacity="1" rx="2.5" ry="2.5"/><rect id="rect5570" width="28.971" height="29.07" x="9.488" y="8.554" fill="url(#linearGradient5572)" fill-opacity="1" stroke="url(#linearGradient5690)" stroke-dasharray="none" stroke-dashoffset="0" stroke-linecap="round" stroke-linejoin="miter" stroke-miterlimit="4" stroke-opacity="1" stroke-width="1" opacity="1" rx="1.473" ry="1.473"/><rect id="rect5580" width="39.069" height="38.891" x="4.573" y="4.5" fill="none" fill-opacity="1" stroke="#fff" stroke-dasharray="none" stroke-dashoffset="0" stroke-linecap="round" stroke-linejoin="miter" stroke-miterlimit="4" stroke-opacity="1" stroke-width="1" opacity=".427" rx="1.339" ry="1.339"/><path id="path5574" fill="#eff0ed" fill-opacity="1" fill-rule="evenodd" stroke="#eff0ed" stroke-linecap="butt" stroke-linejoin="miter" stroke-opacity="1" stroke-width="1" d="M 41.821189,5.661065 L 38.067278,9.3248459"/><path id="path5576" fill="none" fill-rule="evenodd" stroke="url(#linearGradient5952)" stroke-linecap="butt" stroke-linejoin="miter" stroke-opacity="1" stroke-width="1" d="M 37.796393,36.820435 L 41.737999,41.235759"/><path id="path5578" fill="none" fill-rule="evenodd" stroke="url(#linearGradient5960)" stroke-linecap="butt" stroke-linejoin="miter" stroke-opacity="1" stroke-width="1" d="M 10.096013,36.958057 L 6.1544068,41.373382"/><path id="text2424" fill="#000" fill-opacity="1" stroke="none" stroke-linecap="butt" stroke-linejoin="miter" stroke-opacity="1" stroke-width="1" d="M 25.845051,32.582496 C 27.921827,32.223075 30.132017,31.067228 30.816341,28.938309 C 31.357898,27.225862 30.801689,25.099667 29.171519,24.18339 C 28.136284,23.191948 28.157206,24.986042 27.686471,25.623686 C 26.258797,28.724739 23.87118,31.565971 20.625098,32.825726 C 18.87499,33.456944 16.573743,33.517949 15.243027,32.008945 C 14.005933,30.460347 14.111201,28.216614 14.846039,26.469752 C 15.798181,24.317273 17.870999,22.869912 20.048781,22.137733 C 20.048781,21.066475 20.048781,19.995217 20.048781,18.923959 C 18.432329,18.923959 16.815878,18.923959 15.199426,18.923959 C 15.199426,18.350071 15.199426,17.776183 15.199426,17.202295 C 16.815878,17.202295 18.432329,17.202295 20.048781,17.202295 C 20.048781,16.264945 20.048781,15.327594 20.048781,14.390244 C 20.699187,14.390244 21.349594,14.390244 22,14.390244 C 22,15.327594 22,16.264945 22,17.202295 C 25.376375,17.202295 28.75275,17.202295 32.129124,17.202295 C 32.129124,17.776183 32.129124,18.350071 32.129124,18.923959 C 28.75275,18.923959 25.376375,18.923959 22,18.923959 C 22,19.823051 22,20.722143 22,21.621235 C 24.773302,21.230632 27.833884,21.185836 30.308817,22.687862 C 31.97216,23.670358 33.038644,25.531967 33.016548,27.467131 C 33.147256,29.761638 31.812952,31.956128 29.860516,33.105637 C 28.796062,33.765336 27.587939,34.163359 26.36155,34.390244 C 26.189384,33.787661 26.017217,33.185079 25.845051,32.582496 z M 26.591105,23.314203 C 25.067957,23.111073 23.503855,23.169654 22,23.48637 C 22,25.65758 22,27.82879 22,30 C 24.201377,28.334363 25.675333,25.883661 26.591105,23.314204 L 26.591105,23.314203 z M 20.048781,31.119081 C 20.048781,28.78527 20.048781,26.451458 20.048781,24.117647 C 18.125598,24.933231 16.289723,26.65123 16.318508,28.880918 C 16.264608,29.919574 16.736741,31.168175 17.883357,31.370271 C 18.608914,31.531417 19.363356,31.369707 20.048781,31.119082 L 20.048781,31.119081 z" font-family="Bitstream Vera Sans" font-size="28.694" font-style="normal" font-weight="normal" style="-inkscape-font-specification:Bitstream Vera Sans"/></g></svg>