<svg xmlns="http://www.w3.org/2000/svg" xmlns:svg="http://www.w3.org/2000/svg" xmlns:xlink="http://www.w3.org/1999/xlink" id="svg3910" width="48" height="48" version="1.1"><defs id="defs3912"><linearGradient id="linearGradient3102" x1="32.817" x2="32.817" y1="19.819" y2="30.185" gradientUnits="userSpaceOnUse" xlink:href="#linearGradient2238"/><linearGradient id="linearGradient2238"><stop id="stop2240" offset="0" stop-color="#fff" stop-opacity="1"/><stop id="stop2242" offset="1" stop-color="#fff" stop-opacity="0"/></linearGradient><linearGradient id="linearGradient3037" x1="16.626" x2="20.055" y1="15.298" y2="24.628" gradientTransform="matrix(0.9578231,0,0,1.0182827,4.012245,-0.0778746)" gradientUnits="userSpaceOnUse" xlink:href="#linearGradient8265-821-176-38-919-66-249"/><linearGradient id="linearGradient8265-821-176-38-919-66-249"><stop id="stop2687" offset="0" stop-color="#fff" stop-opacity="1"/><stop id="stop2689" offset="1" stop-color="#fff" stop-opacity="0"/></linearGradient><linearGradient id="linearGradient4301" x1="23" x2="23" y1="20" y2="41" gradientUnits="userSpaceOnUse" xlink:href="#linearGradient2867-449-88-871-390-598-476-591-434-148"/><linearGradient id="linearGradient2867-449-88-871-390-598-476-591-434-148"><stop id="stop4627" offset="0" stop-color="#51cfee" stop-opacity="1"/><stop id="stop4629" offset=".262" stop-color="#49a3d2" stop-opacity="1"/><stop id="stop4631" offset=".705" stop-color="#3470b4" stop-opacity="1"/><stop id="stop4633" offset="1" stop-color="#1b5699" stop-opacity="1"/></linearGradient><linearGradient id="linearGradient4309" x1="35" x2="35" y1="32.036" y2="18" gradientUnits="userSpaceOnUse" xlink:href="#linearGradient3332-412-419-652-471-761-410-156-661-505"/><linearGradient id="linearGradient3332-412-419-652-471-761-410-156-661-505"><stop id="stop8032" offset="0" stop-color="#205286" stop-opacity="1"/><stop id="stop8034" offset="1" stop-color="#5492be" stop-opacity="1"/></linearGradient><linearGradient id="linearGradient4157" x1="34.542" x2="34.542" y1="41" y2="6.845" gradientTransform="matrix(1.0606061,0,0,1.0606061,-1.4545466,-0.4871032)" gradientUnits="userSpaceOnUse" xlink:href="#linearGradient3996-4"/><linearGradient id="linearGradient3996-4"><stop id="stop3998-0" offset="0" stop-color="#fff" stop-opacity="1"/><stop id="stop4000-8" offset="1" stop-color="#fff" stop-opacity="0"/></linearGradient><radialGradient id="radialGradient4111" cx="24" cy="24" r="17" fx="24" fy="24" gradientTransform="matrix(0.93939398,0,0,0.93939398,1.454545,2.4219831)" gradientUnits="userSpaceOnUse" xlink:href="#linearGradient3301"/><linearGradient id="linearGradient3301"><stop id="stop3303" offset="0" stop-color="#fff" stop-opacity="0"/><stop id="stop3309" offset=".7" stop-color="#fff" stop-opacity="0"/><stop id="stop3305" offset="1" stop-color="#000" stop-opacity="1"/></linearGradient><linearGradient id="linearGradient4113" x1="29.05" x2="29.05" y1="7.028" y2="26.494" gradientTransform="matrix(0.93939398,0,0,-0.93939398,1.4545459,47.512893)" gradientUnits="userSpaceOnUse" xlink:href="#linearGradient3708"/><linearGradient id="linearGradient3708"><stop id="stop3710" offset="0" stop-color="#000" stop-opacity="1"/><stop id="stop3712" offset="1" stop-color="#000" stop-opacity="1"/></linearGradient><radialGradient id="radialGradient4098" cx="27.412" cy="12.08" r="18" fx="27.412" fy="12.08" gradientTransform="matrix(1.6630022e-8,1.671787,-2.5071622,2.4939877e-8,57.452928,-14.631868)" gradientUnits="userSpaceOnUse" xlink:href="#linearGradient3268-1"/><linearGradient id="linearGradient3268-1"><stop id="stop3270-7" offset="0" stop-color="#fff" stop-opacity="1"/><stop id="stop3272-0" offset="1" stop-color="#d8d8d8" stop-opacity="1"/></linearGradient><linearGradient id="linearGradient4100" x1="29.05" x2="29.05" y1="5.108" y2="43.199" gradientTransform="translate(-9.9999999e-8,0.9674429)" gradientUnits="userSpaceOnUse" xlink:href="#linearGradient3332-412-419-652-471-761-410-156-661-505"/><linearGradient id="linearGradient3134" x1="24" x2="24" y1="5" y2="43" gradientTransform="translate(0,0.9999987)" gradientUnits="userSpaceOnUse" xlink:href="#linearGradient3308-4-6-931-761"/><linearGradient id="linearGradient3308-4-6-931-761"><stop id="stop2919" offset="0" stop-color="#fff" stop-opacity="1"/><stop id="stop2921" offset="1" stop-color="#fff" stop-opacity="0"/></linearGradient><radialGradient id="radialGradient3137" cx="7.496" cy="8.45" r="20" fx="7.496" fy="8.45" gradientTransform="matrix(0,2.2997661,-3.0782051,-9.7040999e-8,50.010227,-11.188343)" gradientUnits="userSpaceOnUse" xlink:href="#linearGradient2867-449-88-871-390-598-476-591-434-148"/><linearGradient id="linearGradient3139" x1="24" x2="24" y1="44" y2="3.899" gradientTransform="translate(0,0.9674382)" gradientUnits="userSpaceOnUse" xlink:href="#linearGradient3332-412-419-652-471-761-410-156-661-505"/><radialGradient id="radialGradient2873-966-168" cx="4.993" cy="43.5" r="2.5" fx="4.993" fy="43.5" gradientTransform="matrix(2.003784,0,0,1.4,27.98813,-17.4)" gradientUnits="userSpaceOnUse" xlink:href="#linearGradient3688-166-749"/><linearGradient id="linearGradient3688-166-749"><stop id="stop2883" offset="0" stop-color="#181818" stop-opacity="1"/><stop id="stop2885" offset="1" stop-color="#181818" stop-opacity="0"/></linearGradient><radialGradient id="radialGradient2875-742-326" cx="4.993" cy="43.5" r="2.5" fx="4.993" fy="43.5" gradientTransform="matrix(2.003784,0,0,1.4,-20.01187,-104.4)" gradientUnits="userSpaceOnUse" xlink:href="#linearGradient3688-464-309"/><linearGradient id="linearGradient3688-464-309"><stop id="stop2889" offset="0" stop-color="#181818" stop-opacity="1"/><stop id="stop2891" offset="1" stop-color="#181818" stop-opacity="0"/></linearGradient><linearGradient id="linearGradient2877-634-617" x1="25.058" x2="25.058" y1="47.028" y2="39.999" gradientUnits="userSpaceOnUse" xlink:href="#linearGradient3702-501-757"/><linearGradient id="linearGradient3702-501-757"><stop id="stop2895" offset="0" stop-color="#181818" stop-opacity="0"/><stop id="stop2897" offset=".5" stop-color="#181818" stop-opacity="1"/><stop id="stop2899" offset="1" stop-color="#181818" stop-opacity="0"/></linearGradient></defs><metadata id="metadata3915"/><g id="layer1"><g id="g2036" display="inline" transform="matrix(1.1,0,0,0.4444449,-2.4000022,25.11107)"><g id="g3712" opacity=".4" transform="matrix(1.052632,0,0,1.285713,-1.263158,-13.42854)"><rect id="rect2801" width="5" height="7" x="38" y="40" fill="url(#radialGradient2873-966-168)" fill-opacity="1" stroke="none"/><rect id="rect3696" width="5" height="7" x="-10" y="-47" fill="url(#radialGradient2875-742-326)" fill-opacity="1" stroke="none" transform="scale(-1,-1)"/><rect id="rect3700" width="28" height="7" x="10" y="40" fill="url(#linearGradient2877-634-617)" fill-opacity="1" stroke="none"/></g></g><rect id="rect5505" width="39" height="39" x="4.5" y="5.467" fill="url(#radialGradient3137)" fill-opacity="1" stroke="url(#linearGradient3139)" stroke-dasharray="none" stroke-dashoffset="0" stroke-linecap="round" stroke-linejoin="round" stroke-miterlimit="4" stroke-opacity="1" stroke-width="1" rx="2.232" ry="2.232"/><rect id="rect6741" width="37" height="37" x="5.5" y="6.5" fill="none" stroke="url(#linearGradient3134)" stroke-dasharray="none" stroke-dashoffset="0" stroke-linecap="round" stroke-linejoin="round" stroke-miterlimit="4" stroke-opacity="1" stroke-width="1" opacity=".4" rx="1.365" ry="1.365"/><path id="path3215-6" fill="url(#radialGradient4098)" fill-opacity="1" fill-rule="nonzero" stroke="url(#linearGradient4100)" stroke-dasharray="none" stroke-miterlimit="4" stroke-width="1" d="m 40.5,24.966855 c 0,9.11299 -7.387851,16.500583 -16.499792,16.500583 -9.112782,0 -16.5002082,-7.387677 -16.5002082,-16.500583 0,-9.112573 7.3874262,-16.4994148 16.5002082,-16.4994148 9.111941,0 16.499792,7.3868418 16.499792,16.4994148 l 0,0 0,0 0,0 z"/><path id="path3215-4" fill="url(#radialGradient4111)" fill-opacity="1" stroke="url(#linearGradient4113)" stroke-dasharray="none" stroke-miterlimit="4" stroke-width="1" d="m 39.5,24.967988 c 0,-8.560689 -6.940101,-15.5005499 -15.499806,-15.5005499 -8.56049,0 -15.5001942,6.9399389 -15.5001942,15.5005499 0,8.560297 6.9397042,15.499452 15.5001942,15.499452 C 32.559899,40.46744 39.5,33.528285 39.5,24.967988 l 0,0 z" opacity=".2"/><path id="path4293-7-7" fill="#000" fill-opacity="1" stroke="none" d="m 20,24.5 8,0 0,-5 10.5,7.467442 L 28,34.5 l 0,-5 -8,0 0,5 L 9.5,26.967442 20,19.5 l 0,5 z" opacity=".05"/><path id="path3215-6-0" fill="none" stroke="url(#linearGradient4157)" stroke-dasharray="none" stroke-miterlimit="4" stroke-width="1" d="m 41.500001,24.966819 c 0,9.665293 -7.8356,17.500619 -17.49978,17.500619 -9.665073,0 -17.500222,-7.835415 -17.500222,-17.500619 0,-9.664851 7.835149,-17.4993793 17.500222,-17.4993793 9.66418,0 17.49978,7.8345283 17.49978,17.4993793 l 0,0 0,0 0,0 z" opacity=".4"/><path id="path4293-7" fill="#000" fill-opacity="1" stroke="none" d="m 20,23.5 8,0 0,-5 10.5,7.467442 L 28,33.5 l 0,-5 -8,0 0,5 L 9.5,25.967442 20,18.5 l 0,5 z" opacity=".15"/><path id="path4293" fill="url(#linearGradient4301)" fill-opacity="1" stroke="url(#linearGradient4309)" stroke-linecap="butt" stroke-linejoin="miter" stroke-opacity="1" stroke-width="1" d="m 19.5,22.5 9,0 0,-4.032558 9,6.5 -9,6.5 0,-3.967442 -9,0 0,3.967442 -9,-6.5 9,-6.5 0,4.032558 z"/><path id="path3333" fill="url(#linearGradient3037)" fill-opacity="1" fill-rule="evenodd" stroke="none" d="M 7.095238,6.0000002 C 5.937922,6.0000002 5,6.9971262 5,8.2274935 L 5,24.520017 c 0.0027,0.137064 0.05919,0.26668 0.155885,0.357384 0.09669,0.0907 0.224705,0.134203 0.352958,0.119936 l 37.016474,-7.255264 c 0.221716,-0.03717 0.386016,-0.238719 0.389116,-0.47732 l 0,-9.0372595 c 0,-1.2303673 -0.937923,-2.2274933 -2.095238,-2.2274933 l -33.723957,0 z" opacity=".2"/><path id="path4293-3" fill="none" stroke="url(#linearGradient3102)" stroke-linecap="butt" stroke-linejoin="miter" stroke-opacity="1" stroke-width="1" d="m 18.5,23.5 11,0 0,-3.18043 6.5,4.647872 -6.5,4.647872 0,-3.115314 -11,0 0,3.181461 -6.5,-4.714019 6.5,-4.647872 0,3.18043 z" opacity=".4"/></g></svg>