<svg xmlns="http://www.w3.org/2000/svg" xmlns:svg="http://www.w3.org/2000/svg" xmlns:xlink="http://www.w3.org/1999/xlink" id="svg5518" width="48" height="48"><defs id="defs5520"><radialGradient id="radialGradient2750" cx="605.714" cy="486.648" r="117.143" fx="605.714" fy="486.648" gradientTransform="matrix(-2.774389,0,0,1.969706,112.7623,-872.8854)" gradientUnits="userSpaceOnUse" xlink:href="#linearGradient5060"/><linearGradient id="linearGradient5060"><stop id="stop5062" offset="0" stop-color="#000" stop-opacity="1"/><stop id="stop5064" offset="1" stop-color="#000" stop-opacity="0"/></linearGradient><radialGradient id="radialGradient2748" cx="605.714" cy="486.648" r="117.143" fx="605.714" fy="486.648" gradientTransform="matrix(2.774389,0,0,1.969706,-1891.633,-872.8854)" gradientUnits="userSpaceOnUse" xlink:href="#linearGradient5060"/><linearGradient id="linearGradient5048"><stop id="stop5050" offset="0" stop-color="#000" stop-opacity="0"/><stop id="stop5056" offset=".5" stop-color="#000" stop-opacity="1"/><stop id="stop5052" offset="1" stop-color="#000" stop-opacity="0"/></linearGradient><linearGradient id="linearGradient2746" x1="302.857" x2="302.857" y1="366.648" y2="609.505" gradientTransform="matrix(2.774389,0,0,1.969706,-1892.179,-872.8854)" gradientUnits="userSpaceOnUse" xlink:href="#linearGradient5048"/><linearGradient id="linearGradient3507" x1="6.668" x2="6.668" y1="7.286" y2="4.821" gradientTransform="translate(0.9147553,-2.738724)" gradientUnits="userSpaceOnUse" spreadMethod="reflect" xlink:href="#linearGradient3467"/><linearGradient id="linearGradient3509"><stop id="stop3511" offset="0" stop-color="#505050" stop-opacity="1"/><stop id="stop3513" offset="1" stop-color="#505050" stop-opacity="1"/></linearGradient><linearGradient id="linearGradient2672" x1="18.432" x2="18.432" y1="46.076" y2="42.812" gradientTransform="matrix(1.113986,0,0,0.8747404,-2.7356693,5.6951535)" gradientUnits="userSpaceOnUse" xlink:href="#linearGradient3509"/><linearGradient id="linearGradient2676"><stop id="stop2678" offset="0" stop-color="#686868" stop-opacity="1"/><stop id="stop2680" offset=".848" stop-color="#848484" stop-opacity="1"/><stop id="stop2682" offset="1" stop-color="#a7a7a7" stop-opacity="1"/></linearGradient><linearGradient id="linearGradient2667" x1="19.519" x2="19.519" y1="12.884" y2="45.248" gradientTransform="matrix(1.114038,0,0,0.8123211,-2.7369171,6.5365531)" gradientUnits="userSpaceOnUse" xlink:href="#linearGradient2676"/><linearGradient id="linearGradient3535"><stop id="stop3537" offset="0" stop-color="#c7c7c7" stop-opacity="1"/><stop id="stop3539" offset="1" stop-color="#686868" stop-opacity="1"/></linearGradient><linearGradient id="linearGradient2665" x1="29.027" x2="28.942" y1="13.574" y2="44.196" gradientTransform="matrix(1.1123814,0,0,0.8125249,-2.6971454,6.5307279)" gradientUnits="userSpaceOnUse" xlink:href="#linearGradient3535"/><linearGradient id="linearGradient3615"><stop id="stop3617" offset="0" stop-color="#585858" stop-opacity="1"/><stop id="stop3619" offset=".848" stop-color="#848484" stop-opacity="1"/><stop id="stop3621" offset="1" stop-color="#adadad" stop-opacity="1"/></linearGradient><linearGradient id="linearGradient2662" x1="16.726" x2="16.726" y1="40.385" y2="14.728" gradientTransform="matrix(1.0619043,0,0,0.7620558,-1.7046596,7.7814333)" gradientUnits="userSpaceOnUse" xlink:href="#linearGradient3615"/><linearGradient id="linearGradient3162"><stop id="stop3164" offset="0" stop-color="#f9f9f9" stop-opacity="1"/><stop id="stop3166" offset="1" stop-color="#d4d4d4" stop-opacity="1"/></linearGradient><linearGradient id="linearGradient2660" x1="25" x2="25" y1="45.064" y2="23.928" gradientTransform="matrix(0.7924456,0,0,0.5862365,4.8066387,12.827556)" gradientUnits="userSpaceOnUse" xlink:href="#linearGradient3162"/><linearGradient id="linearGradient3467"><stop id="stop3469" offset="0" stop-color="#e6e6e6" stop-opacity="1"/><stop id="stop3471" offset="1" stop-color="#a4a4a4" stop-opacity="1"/></linearGradient><linearGradient id="linearGradient3473" x1="29.272" x2="29.272" y1="40" y2="21.828" gradientTransform="translate(0,-1.9999733)" gradientUnits="userSpaceOnUse" xlink:href="#linearGradient3467"/><linearGradient id="linearGradient3300"><stop id="stop3302" offset="0" stop-color="#afafaf" stop-opacity="1"/><stop id="stop3304" offset="1" stop-color="#060606" stop-opacity="1"/></linearGradient><linearGradient id="linearGradient2657" x1="23.377" x2="23.377" y1="30.155" y2="39.17" gradientTransform="matrix(1.351586,0,0,0.9967505,-8.9351646,-2.193599)" gradientUnits="userSpaceOnUse" xlink:href="#linearGradient3300"/><linearGradient id="linearGradient3411-944-866-858-636-691-643-51"><stop id="stop5215" offset="0" stop-color="#480303" stop-opacity="1"/><stop id="stop5217" offset="1" stop-color="#963535" stop-opacity="1"/></linearGradient><linearGradient id="linearGradient3518-222-305-618-137-130-314-726" x1="11.115" x2="11.115" y1="10.61" y2=".593" gradientTransform="matrix(1.0021844,0,0,0.9181117,4.2801714e-2,-0.6523393)" gradientUnits="userSpaceOnUse" xlink:href="#linearGradient3411-944-866-858-636-691-643-51"/><linearGradient id="linearGradient27561-350-153-995-570-857-252-867"><stop id="stop5209" offset="0" stop-color="#c82929" stop-opacity="1"/><stop id="stop5211" offset="1" stop-color="#5c0606" stop-opacity="1"/></linearGradient><linearGradient id="linearGradient3516-544-39-463-721-64-556-954" x1="18.053" x2="18.053" y1="7.101" y2="10.61" gradientTransform="matrix(1.3942537,0,0,1.463241,-9.7603209,-6.8943194)" gradientUnits="userSpaceOnUse" xlink:href="#linearGradient27561-350-153-995-570-857-252-867"/><linearGradient id="linearGradient3589"><stop id="stop3591" offset="0" stop-color="#6a6a6a" stop-opacity="1"/><stop id="stop3593" offset=".293" stop-color="#ebebeb" stop-opacity="1"/><stop id="stop3595" offset=".299" stop-color="#9a9a9a" stop-opacity="1"/><stop id="stop3597" offset=".528" stop-color="#424242" stop-opacity="1"/><stop id="stop3599" offset=".797" stop-color="#afafaf" stop-opacity="1"/><stop id="stop3601" offset="1" stop-color="#656565" stop-opacity="1"/></linearGradient><linearGradient id="linearGradient3585" x1="26.376" x2="26.376" y1="2.243" y2="29.748" gradientTransform="matrix(1.139334,0,0,1.036521,-3.3440159,-2.5797645)" gradientUnits="userSpaceOnUse" xlink:href="#linearGradient3589"/><linearGradient id="linearGradient3605"><stop id="stop3607" offset="0" stop-color="#fff" stop-opacity="1"/><stop id="stop3613" offset=".856" stop-color="#464646" stop-opacity="1"/><stop id="stop3609" offset="1" stop-color="#464646" stop-opacity="1"/></linearGradient><linearGradient id="linearGradient3611" x1="24" x2="24" y1="0" y2="28" gradientTransform="matrix(0.9666667,0,0,0.990909,0.8000005,0.1272733)" gradientUnits="userSpaceOnUse" xlink:href="#linearGradient3605"/></defs><metadata id="metadata5523"/><g id="layer1"><g id="g2738" transform="matrix(2.3621214e-2,0,0,2.0082207e-2,45.009548,41.419858)"><rect id="rect2740" width="1339.633" height="478.357" x="-1559.252" y="-150.697" fill="url(#linearGradient2746)" fill-opacity="1" fill-rule="nonzero" stroke="none" stroke-dasharray="none" stroke-dashoffset="0" stroke-linecap="round" stroke-linejoin="miter" stroke-miterlimit="4" stroke-opacity="1" stroke-width="1" marker-end="none" marker-mid="none" marker-start="none" display="inline" opacity=".402" overflow="visible" visibility="visible" style="marker:none"/><path id="path2742" fill="url(#radialGradient2748)" fill-opacity="1" fill-rule="nonzero" stroke="none" stroke-dasharray="none" stroke-dashoffset="0" stroke-linecap="round" stroke-linejoin="miter" stroke-miterlimit="4" stroke-opacity="1" stroke-width="1" marker-end="none" marker-mid="none" marker-start="none" d="M -219.61876,-150.68038 C -219.61876,-150.68038 -219.61876,327.65041 -219.61876,327.65041 C -76.744594,328.55086 125.78146,220.48075 125.78138,88.454235 C 125.78138,-43.572302 -33.655436,-150.68036 -219.61876,-150.68038 z" display="inline" opacity=".402" overflow="visible" visibility="visible" style="marker:none"/><path id="path2744" fill="url(#radialGradient2750)" fill-opacity="1" fill-rule="nonzero" stroke="none" stroke-dasharray="none" stroke-dashoffset="0" stroke-linecap="round" stroke-linejoin="miter" stroke-miterlimit="4" stroke-opacity="1" stroke-width="1" marker-end="none" marker-mid="none" marker-start="none" d="M -1559.2523,-150.68038 C -1559.2523,-150.68038 -1559.2523,327.65041 -1559.2523,327.65041 C -1702.1265,328.55086 -1904.6525,220.48075 -1904.6525,88.454235 C -1904.6525,-43.572302 -1745.2157,-150.68036 -1559.2523,-150.68038 z" display="inline" opacity=".402" overflow="visible" visibility="visible" style="marker:none"/></g><rect id="rect3499" width="2.918" height="3.918" x="7.5" y="2.582" fill="url(#linearGradient3507)" fill-opacity="1" stroke="#9b9b9b" stroke-dasharray="none" stroke-dashoffset="0" stroke-linecap="butt" stroke-miterlimit="4" stroke-opacity="1" stroke-width="1" opacity="1" rx=".605" ry=".875"/><path id="path3499" fill="gray" fill-opacity="1" stroke="url(#linearGradient2672)" stroke-dasharray="none" stroke-dashoffset="0" stroke-linecap="butt" stroke-linejoin="round" stroke-miterlimit="4" stroke-opacity="1" stroke-width="1" d="M 11.729616,17.500839 C 9.2406074,17.46215 6.9989817,19.049993 6.7936587,21.00068 C 6.7425236,21.108142 2.6193031,40.901288 2.5342478,41.070066 C 2.2092974,43.177742 4.2455585,45.315976 6.9835643,45.472204 C 9.3126554,45.483534 13.64164,45.467788 15.970373,45.472204 L 15.970373,45.499545 C 18.647631,45.500231 21.323545,45.499561 23.999999,45.499545 C 26.676453,45.499561 29.352366,45.500231 32.029624,45.499545 L 32.029624,45.472204 C 34.358359,45.467788 38.687341,45.483534 41.016435,45.472204 C 43.754441,45.315976 45.790702,43.177742 45.46575,41.070066 C 45.380694,40.901288 41.257474,21.108142 41.206343,21.00068 C 41.001014,19.049993 38.759394,17.46215 36.27038,17.500839 C 31.453017,17.507358 27.848973,17.523508 23.999999,17.528182 C 20.151025,17.523508 16.546979,17.507358 11.729616,17.500839 z"/><path id="rect2462" fill="url(#linearGradient2665)" fill-opacity="1" stroke="url(#linearGradient2667)" stroke-dasharray="none" stroke-dashoffset="0" stroke-linecap="butt" stroke-linejoin="round" stroke-miterlimit="4" stroke-opacity="1" stroke-width=".998" d="M 11.729045,17.499814 C 9.2399186,17.463885 6.9981882,18.938424 6.7928558,20.749915 C 6.7417185,20.849708 2.6183053,39.230461 2.5332462,39.387198 C 2.2082805,41.344474 4.2446368,43.330127 6.9827703,43.475209 C 9.31197,43.485729 13.641157,43.471108 15.969999,43.475209 L 15.969999,43.500599 C 18.647382,43.501234 21.323422,43.500613 24,43.500599 C 26.676578,43.500613 29.352617,43.501234 32.029999,43.500599 L 32.029999,43.475209 C 34.358843,43.471108 38.688029,43.485729 41.017228,43.475209 C 43.755364,43.330127 45.79172,41.344474 45.466754,39.387198 C 45.381695,39.230461 41.25828,20.849708 41.207147,20.749915 C 41.00181,18.938424 38.760082,17.463885 36.270953,17.499814 C 31.453366,17.505868 27.849154,17.520865 24,17.525205 C 20.150846,17.520865 16.546632,17.505868 11.729045,17.499814 z"/><path id="path3254" fill="url(#linearGradient2660)" fill-opacity="1" stroke="url(#linearGradient2662)" stroke-dasharray="none" stroke-dashoffset="0" stroke-linecap="butt" stroke-linejoin="round" stroke-miterlimit="4" stroke-opacity="1" stroke-width=".997" d="M 14.375084,19.498968 C 12.601862,19.473042 11.004885,20.536923 10.858609,21.843912 C 10.822179,21.915918 8.5833671,36.420434 8.5227724,36.533517 C 8.2912705,37.945696 9.7419438,39.378344 11.692552,39.483016 C 13.351839,39.490611 16.445821,39.480061 18.104856,39.483016 L 18.104856,39.501339 C 20.012193,39.501801 21.918563,39.501349 23.82532,39.501339 C 25.732079,39.501349 27.638449,39.501801 29.545785,39.501339 L 29.545785,39.483016 C 31.204818,39.480061 34.648156,39.490611 36.307448,39.483016 C 38.258057,39.378344 39.708724,37.945696 39.477228,36.533517 C 39.416635,36.420434 36.828462,21.915918 36.792032,21.843912 C 36.645755,20.536923 35.048777,19.473042 33.275556,19.498968 C 29.843573,19.503337 26.567407,19.514155 23.82532,19.517289 C 21.083236,19.514155 17.807066,19.503337 14.375084,19.498968 z"/><path id="path3280" fill="url(#linearGradient2657)" fill-opacity="1" fill-rule="evenodd" stroke="url(#linearGradient3473)" stroke-dasharray="none" stroke-linecap="butt" stroke-linejoin="round" stroke-miterlimit="4" stroke-opacity="1" stroke-width="0" d="M 20,20.329782 L 20,31 L 16,31 L 24,37.500027 L 32,31 L 28,31 L 28,20.329782 L 20,20.329782 z"/><path id="rect3339" fill="url(#linearGradient3516-544-39-463-721-64-556-954)" fill-opacity="1" stroke="url(#linearGradient3518-222-305-618-137-130-314-726)" stroke-dasharray="none" stroke-dashoffset="0" stroke-linecap="butt" stroke-linejoin="round" stroke-miterlimit="4" stroke-opacity="1" stroke-width=".75" d="M 19.064064,0.37699157 C 15.570516,0.37699157 9.3750004,0.90745059 9.3750004,2.9123606 C 9.3750006,4.8646502 9.3750004,2.8199211 9.3750004,4.9663305 C 9.3750006,7.0599663 11.878614,8.6249643 19.216406,8.6249643 C 21.223572,8.6240484 22.10602,8.6246811 23.238282,8.6249643 C 23.864459,8.6251204 24.881849,8.6247007 25.462501,8.6249643 C 26.124466,8.6248951 26.56356,8.6249643 27.656252,8.6249643 C 36.004929,8.6249643 38.625002,7.0599663 38.625002,4.9663305 C 38.625002,2.8199211 38.625002,4.8646502 38.625002,2.9123606 C 38.625002,0.90745059 32.044334,0.37699157 27.808595,0.37699157 C 26.615268,0.37511613 26.123247,0.376337 25.462501,0.37699157 C 25.044543,0.37696821 24.252348,0.37741097 23.817189,0.37699157 C 22.560064,0.3757798 21.481712,0.37319199 19.064064,0.37699157 z"/><path id="path3583" fill="url(#linearGradient3585)" fill-opacity="1" stroke="none" stroke-dasharray="none" stroke-dashoffset="0" stroke-linecap="butt" stroke-linejoin="round" stroke-miterlimit="4" stroke-opacity="1" stroke-width=".5" d="M 20.513242,0.00017304592 C 22.837747,0.00017304592 25.162253,0.00017304592 27.486758,0.00017304592 C 28.22843,0.089004973 27.92852,0.87782284 27.9903,1.3472173 C 27.9903,10.081312 27.9903,18.815406 27.9903,27.549501 C 27.867838,28.207463 27.008383,27.932612 26.491422,27.991028 C 24.498694,27.991028 22.505969,27.991029 20.513242,27.991029 C 19.77157,27.902194 20.071481,27.113378 20.0097,26.643983 C 20.0097,17.909888 20.0097,9.1757938 20.0097,0.44169879 C 20.003397,0.19825377 20.250684,-0.0068135245 20.513242,0.00017304592 z"/><path id="path3603" fill="none" fill-opacity="1" stroke="url(#linearGradient3611)" stroke-dasharray="none" stroke-dashoffset="0" stroke-linecap="butt" stroke-linejoin="round" stroke-miterlimit="4" stroke-opacity="1" stroke-width=".75" d="M 20.840126,0.3751691 C 22.946708,0.3751691 25.053293,0.3751691 27.159875,0.3751691 C 27.832016,0.4616216 27.560222,1.2293104 27.61621,1.6861318 C 27.61621,10.186277 27.61621,18.686421 27.61621,27.186568 C 27.505229,27.826906 26.726347,27.559417 26.257852,27.616267 C 24.451942,27.616267 22.646034,27.616268 20.840126,27.616268 C 20.167985,27.529814 20.43978,26.762127 20.383791,26.305305 C 20.383791,17.805159 20.383791,9.3050139 20.383791,0.80486825 C 20.378079,0.56794408 20.602183,0.36836967 20.840126,0.3751691 z" opacity=".2"/></g></svg>