<svg xmlns="http://www.w3.org/2000/svg" xmlns:svg="http://www.w3.org/2000/svg" xmlns:xlink="http://www.w3.org/1999/xlink" id="svg11300" width="48" height="48" version="1.0"><defs id="defs3"><linearGradient id="linearGradient3785"><stop id="stop3787" offset="0" stop-color="#bdbdbd" stop-opacity="1"/><stop id="stop3789" offset="1" stop-color="#8c8c8c" stop-opacity="1"/></linearGradient><linearGradient id="linearGradient6954"><stop id="stop6960" offset="0" stop-color="#f5f5f5" stop-opacity="1"/><stop id="stop6962" offset="1" stop-color="#d2d2d2" stop-opacity="1"/></linearGradient><linearGradient id="linearGradient3341"><stop id="stop3343" offset="0" stop-color="#fff" stop-opacity="1"/><stop id="stop3345" offset="1" stop-color="#fff" stop-opacity="0"/></linearGradient><linearGradient id="linearGradient5060"><stop id="stop5062" offset="0" stop-color="#000" stop-opacity="1"/><stop id="stop5064" offset="1" stop-color="#000" stop-opacity="0"/></linearGradient><radialGradient id="radialGradient2880" cx="32" cy="41.5" r="21" fx="32" fy="41.5" gradientTransform="matrix(1,0,0,0.35714286,0,26.678571)" gradientUnits="userSpaceOnUse" xlink:href="#linearGradient5060"/><radialGradient id="radialGradient2882" cx="25" cy="28.66" r="16" fx="25" fy="28.66" gradientTransform="matrix(1.3125,0,0,0.37326701,-7.812498,20.302168)" gradientUnits="userSpaceOnUse" xlink:href="#linearGradient6954"/><linearGradient id="linearGradient2884" x1="30" x2="30" y1="25.085" y2="45" gradientUnits="userSpaceOnUse" xlink:href="#linearGradient3785"/><linearGradient id="linearGradient2886" x1="24.787" x2="24.875" y1="53.869" y2="83.5" gradientUnits="userSpaceOnUse" xlink:href="#linearGradient3341"/><radialGradient id="radialGradient2888" cx="26.376" cy="12.313" r="8" fx="26.376" fy="12.313" gradientTransform="matrix(1.640165,-0.1325824,0.12811381,1.5848844,-18.396351,-5.2274259)" gradientUnits="userSpaceOnUse" xlink:href="#linearGradient6954"/><linearGradient id="linearGradient2890" x1="30" x2="30" y1="5" y2="44.679" gradientUnits="userSpaceOnUse" xlink:href="#linearGradient3785"/><linearGradient id="linearGradient2892" x1="22" x2="17" y1="39" y2="37.438" gradientUnits="userSpaceOnUse" xlink:href="#linearGradient5060"/><linearGradient id="linearGradient2894" x1="38" x2="43" y1="39" y2="38.6" gradientUnits="userSpaceOnUse" xlink:href="#linearGradient5060"/><radialGradient id="radialGradient2896" cx="30" cy="33.188" r="4.688" fx="30" fy="33.188" gradientTransform="matrix(1.5279732,-7.0647448e-7,2.1308638e-7,0.46086628,-15.839202,14.705021)" gradientUnits="userSpaceOnUse" xlink:href="#linearGradient5060"/><linearGradient id="linearGradient2898" x1="30" x2="30" y1="3.041" y2="27.957" gradientUnits="userSpaceOnUse" xlink:href="#linearGradient3341"/><radialGradient id="radialGradient2456" cx="23.896" cy="3.99" r="20.397" fx="23.896" fy="3.99" gradientTransform="matrix(0,1.2316137,-1.6257082,0,18.486581,-28.720783)" gradientUnits="userSpaceOnUse" xlink:href="#linearGradient3242-187-536"/><linearGradient id="linearGradient3242-187-536"><stop id="stop2778" offset="0" stop-color="#8badea" stop-opacity="1"/><stop id="stop2780" offset=".262" stop-color="#6396cd" stop-opacity="1"/><stop id="stop2782" offset=".661" stop-color="#3b7caf" stop-opacity="1"/><stop id="stop2784" offset="1" stop-color="#194c70" stop-opacity="1"/></linearGradient><linearGradient id="linearGradient2458" x1="18.379" x2="18.379" y1="44.98" y2="3.082" gradientTransform="matrix(0.5160413,0,0,0.5160413,-0.384991,-0.3849911)" gradientUnits="userSpaceOnUse" xlink:href="#linearGradient2490-182-124"/><linearGradient id="linearGradient2490-182-124"><stop id="stop2788" offset="0" stop-color="#1f4b6a" stop-opacity="1"/><stop id="stop2790" offset="1" stop-color="#4083c2" stop-opacity="1"/></linearGradient><linearGradient id="linearGradient3843" x1="63.397" x2="63.397" y1="-12.489" y2="5.468" gradientTransform="matrix(1.0862728,0,0,1.0862481,-55.56661,15.813638)" gradientUnits="userSpaceOnUse" xlink:href="#linearGradient3341"/></defs><g id="g3055"><g id="g3912" transform="translate(-8,0)"><path id="path3823" fill="url(#radialGradient2880)" fill-opacity="1" stroke="none" d="m 53,41.5 a 21,7.5 0 1 1 -42,0 21,7.5 0 1 1 42,0 z" opacity=".7" transform="matrix(0.85714286,0,0,0.8,2.5714285,7.8)"/><path id="path3766" fill="url(#radialGradient2882)" fill-opacity="1" stroke="url(#linearGradient2884)" stroke-dasharray="none" stroke-miterlimit="4" stroke-opacity="1" stroke-width="1" d="m 25.5,20.5 c 0.460215,2.17673 0.717092,3.82327 0.34375,6 C 22.933057,28.914876 15.488842,30 15.5,32.5 l -1,7.5 c 0,2.485281 6.939586,4.5 15.5,4.5 8.560414,0 15.5,-2.014719 15.5,-4.5 l -1,-7.5 C 44.48813,30.360337 37,29 34.125,26.5 33.879426,24.479663 34.07491,22.520337 34.5,20.5 l -9,0 z"/><path id="path3894" fill="none" stroke="url(#linearGradient2886)" stroke-dasharray="none" stroke-miterlimit="4" stroke-opacity="1" stroke-width="1" d="m 22.53125,61 c 0.30464,1.690349 0.51076,3.271519 0.1875,5.15625 a 1.0027361,1.0027361 0 0 1 -0.375,0.625 c -1.721814,1.428515 -4.345384,2.254348 -6.53125,3.125 -1.092933,0.435326 -2.065851,0.86976 -2.6875,1.28125 -0.621649,0.41149 -0.750567,0.685398 -0.75,0.8125 a 1.0027361,1.0027361 0 0 1 0,0.125 l -1,7.375 c 0,0.003 -1.1e-4,0.02807 0,0.03125 0.0055,0.158344 0.150083,0.473017 0.78125,0.90625 0.643832,0.441926 1.694345,0.893116 3.03125,1.28125 C 17.861311,82.495018 21.673451,83 25.875,83 c 4.201549,0 8.013689,-0.504982 10.6875,-1.28125 1.336905,-0.388134 2.387418,-0.839324 3.03125,-1.28125 0.631167,-0.433233 0.77575,-0.747906 0.78125,-0.90625 l 0,-0.03125 -1,-7.375 a 1.0027361,1.0027361 0 0 1 0,-0.125 c 1.37e-4,0.02464 0.01573,0.0028 -0.09375,-0.125 -0.109475,-0.12777 -0.334408,-0.299018 -0.65625,-0.5 -0.643684,-0.401965 -1.645672,-0.857472 -2.75,-1.3125 C 33.666343,69.152443 31.038552,68.22374 29.34375,66.75 A 1.0027361,1.0027361 0 0 1 29,66.125 C 28.788112,64.3818 28.942542,62.684293 29.21875,61 l -6.6875,0 z" transform="translate(4.1250489,-39.5)"/><path id="path3764" fill="url(#radialGradient2888)" fill-opacity="1" stroke="url(#linearGradient2890)" stroke-dasharray="none" stroke-miterlimit="4" stroke-opacity="1" stroke-width="1" d="m 30,5.5 c -4.142136,0 -7.5,3.134007 -7.5,7 0.03246,1.430727 0.154571,3.130379 1,7 0.5,1.5 4.95976,5.5 5,6 0.96967,0.5 2.5,0.5 3.5,0 0,-0.5 4,-4.5 4.5,-6 0.951375,-4.021691 0.948972,-5.5 1,-7 0,-3.865993 -3.357864,-7 -7.5,-7 z"/><path id="path3848" fill="url(#linearGradient2892)" fill-opacity="1" stroke="none" d="m 21,43.2 c -2.362349,-1.982195 -1.235869,-6.38286 -1,-9.2 -1,2 -1,8 -3,8 1.36261,0.458554 2.749561,0.965789 4,1.2 z" opacity=".3"/><path id="path3850" fill="url(#linearGradient2894)" fill-opacity="1" stroke="none" d="m 39,43.2 c 2.350047,-1.743746 1.156723,-6.485917 1,-9.2 1,2 1,8 3,8 -1.36261,0.458554 -2.749561,0.965789 -4,1.2 z" opacity=".3"/><path id="path3833" fill="url(#radialGradient2896)" fill-opacity="1" stroke="none" d="m 25.3125,27 c 0.686303,1.744757 2.518909,3 4.6875,3 2.168591,0 4.001197,-1.255243 4.6875,-3 l -9.375,0 z" opacity=".2"/><path id="path3906" fill="none" stroke="url(#linearGradient2898)" stroke-dasharray="none" stroke-miterlimit="4" stroke-opacity="1" stroke-width="1" d="m 30,6.53125 c -3.613647,0 -6.450433,2.6790117 -6.46875,5.9375 1.42e-4,0.0063 -1.45e-4,0.02499 0,0.03125 0.03183,1.373874 0.156427,2.981433 0.96875,6.71875 0.04059,0.09664 0.334757,0.582911 0.78125,1.125 0.460685,0.55932 1.039787,1.193866 1.625,1.8125 0.585213,0.618634 1.177291,1.232474 1.625,1.71875 0.223855,0.243138 0.405333,0.457698 0.5625,0.65625 0.01424,0.01799 0.01751,0.04473 0.03125,0.0625 0.579909,0.227936 1.589912,0.230436 2.21875,0 0.140288,-0.203603 0.300098,-0.442723 0.5,-0.6875 0.399803,-0.489555 0.910744,-1.067787 1.4375,-1.6875 0.526756,-0.619713 1.078845,-1.28221 1.5,-1.84375 0.400306,-0.533741 0.657608,-0.976665 0.71875,-1.125 0.0033,-0.01388 -0.0033,-0.01744 0,-0.03125 0.922531,-3.909312 0.918236,-5.212314 0.96875,-6.71875 0,-0.01056 5.9e-5,-0.0207 0,-0.03125 C 36.450433,9.2102617 33.613647,6.53125 30,6.53125 z" opacity=".7" transform="matrix(1.0045203,0,0,1.0033814,-0.1356006,-0.05135866)"/></g><g id="layer1" transform="translate(23.000042,24.999958)"><path id="path2555" fill="url(#radialGradient2456)" fill-opacity="1" stroke="url(#linearGradient2458)" stroke-dasharray="none" stroke-dashoffset="0" stroke-linecap="round" stroke-linejoin="round" stroke-miterlimit="4" stroke-opacity="1" stroke-width="1.004" d="m 12.000002,1.501785 c -5.792553,0 -10.498217,4.7056616 -10.498217,10.498214 0,5.792554 4.705664,10.498219 10.498217,10.498216 5.79255,0 10.498219,-4.705662 10.498213,-10.498216 0,-5.7925524 -4.705663,-10.498214 -10.498213,-10.498214 z"/><path id="path2463" fill="none" stroke="url(#linearGradient3843)" stroke-dasharray="none" stroke-miterlimit="4" stroke-opacity="1" stroke-width="1" d="m 21.499999,11.999663 c 0,5.246874 -4.253609,9.500336 -9.499879,9.500336 -5.2467526,0 -9.5001201,-4.253509 -9.5001201,-9.500336 0,-5.2466312 4.2533675,-9.4996623 9.5001201,-9.4996623 5.24627,0 9.499879,4.2530311 9.499879,9.4996623 l 0,0 z" opacity=".4"/><path font-stretch="normal" style="text-align:start;line-height:100%;-inkscape-font-specification:URW Palladio L Bold" id="text3482" fill="#000" fill-opacity="1" stroke="none" d="m 9,10.851312 c 0.133856,0.363882 0.284521,0.658836 0.605452,0.255527 0.397883,-0.236731 1.731043,-1.2743934 1.597644,-0.257979 -0.426877,1.880812 -0.946481,3.741845 -1.3437773,5.628452 -0.4154287,1.033002 0.5279303,1.967395 1.5128653,1.295629 1.046924,-0.431584 1.947798,-1.134561 2.868143,-1.779436 -0.125575,-0.307965 -0.209273,-0.750354 -0.556249,-0.347606 -0.455597,0.20679 -1.450673,1.181728 -1.635539,0.377622 0.382698,-2.03658 1.09175,-3.99777 1.544989,-6.018111 C 14.010625,9.0764616 13.329423,7.9027016 12.309742,8.6711396 11.088138,9.2031876 10.066557,10.07231 9,10.851312 z M 13.533765,4.001596 C 12.287368,3.935451 11.635709,5.9446775 12.820152,6.4944925 13.781082,6.8885796 14.827362,5.9030226 14.592611,4.9182248 14.519759,4.4054322 14.059369,3.9843465 13.533766,4.001596 l -10e-7,0 z" font-family="URW Palladio L" font-size="40" font-style="normal" font-variant="normal" font-weight="bold" opacity=".2" text-anchor="start" writing-mode="lr-tb"/><path font-stretch="normal" style="text-align:start;line-height:100%;-inkscape-font-specification:URW Palladio L Bold" id="path3536" fill="#fff" fill-opacity="1" stroke="none" d="m 9,11.851312 c 0.133856,0.363882 0.284521,0.658836 0.605452,0.255527 0.397883,-0.236731 1.731043,-1.274393 1.597644,-0.257979 -0.426877,1.880812 -0.946481,3.741845 -1.3437773,5.628452 -0.4154287,1.033002 0.5279303,1.967395 1.5128653,1.295629 1.046924,-0.431584 1.947798,-1.134561 2.868143,-1.779436 -0.125575,-0.307965 -0.209273,-0.750354 -0.556249,-0.347606 -0.455597,0.20679 -1.450673,1.181728 -1.635539,0.377622 0.382698,-2.03658 1.09175,-3.99777 1.544989,-6.018111 C 14.010625,10.076462 13.329423,8.9027016 12.309742,9.6711396 11.088138,10.203188 10.066557,11.07231 9,11.851312 z m 4.533765,-6.849716 c -1.246397,-0.066145 -1.898056,1.9430816 -0.713613,2.4928966 0.96093,0.394086 2.00721,-0.59147 1.772459,-1.5762678 C 14.519759,5.4054321 14.059369,4.9843465 13.533766,5.001596 l -10e-7,0 z" font-family="URW Palladio L" font-size="40" font-style="normal" font-variant="normal" font-weight="bold" text-anchor="start" writing-mode="lr-tb"/></g></g></svg>