<svg xmlns="http://www.w3.org/2000/svg" xmlns:svg="http://www.w3.org/2000/svg" xmlns:xlink="http://www.w3.org/1999/xlink" id="svg3168" width="48" height="48" version="1.1"><defs id="defs3170"><linearGradient id="linearGradient3052" x1="6.541" x2="32.085" y1="2.197" y2="2.197" gradientUnits="userSpaceOnUse" xlink:href="#linearGradient2898"/><linearGradient id="linearGradient2898"><stop id="stop2900" offset="0" stop-color="#f5f5f4" stop-opacity="1"/><stop id="stop2902" offset="1" stop-color="#f5f5f4" stop-opacity="0"/></linearGradient><linearGradient id="linearGradient2914" x1="11.358" x2="9.369" y1="23.826" y2="17.771" gradientUnits="userSpaceOnUse" xlink:href="#linearGradient2908"/><linearGradient id="linearGradient2908"><stop id="stop2910" offset="0" stop-color="#252829" stop-opacity="1"/><stop id="stop2912" offset="1" stop-color="#252829" stop-opacity="0"/></linearGradient><linearGradient id="linearGradient2904" x1="4.773" x2="7.867" y1="17.55" y2="8.093" gradientUnits="userSpaceOnUse" xlink:href="#linearGradient2898"/><linearGradient id="linearGradient2986" x1="2.672" x2="21.538" y1="59.168" y2="59.168" gradientTransform="scale(1.8283828,0.54693143)" gradientUnits="userSpaceOnUse"><stop id="stop2988" offset="0" stop-color="#f5f5f4" stop-opacity="1"/><stop id="stop2990" offset="1" stop-color="#f5f5f4" stop-opacity="0"/></linearGradient><linearGradient id="linearGradient2884" x1="18.827" x2="23.335" y1="31.339" y2="31.25" gradientUnits="userSpaceOnUse" xlink:href="#linearGradient2950"/><linearGradient id="linearGradient2950"><stop id="stop2952" offset="0" stop-color="#fcaf3e" stop-opacity="1"/><stop id="stop2954" offset="1" stop-color="#f57900" stop-opacity="0"/></linearGradient><linearGradient id="linearGradient2948" x1="19.625" x2="28.5" y1="27.072" y2="27.072" gradientUnits="userSpaceOnUse" xlink:href="#linearGradient2950"/><linearGradient id="linearGradient2812" x1="23.277" x2="29.111" y1="32.055" y2="31.967" gradientUnits="userSpaceOnUse" xlink:href="#linearGradient2806"/><linearGradient id="linearGradient2806"><stop id="stop2808" offset="0" stop-color="#ef2929" stop-opacity="1"/><stop id="stop2810" offset="1" stop-color="#c00" stop-opacity="1"/></linearGradient><linearGradient id="linearGradient2934" x1="18.681" x2="29.907" y1="29.934" y2="29.934" gradientUnits="userSpaceOnUse" xlink:href="#linearGradient2928"/><linearGradient id="linearGradient2928"><stop id="stop2930" offset="0" stop-color="#a40000" stop-opacity="1"/><stop id="stop2932" offset="1" stop-color="#300000" stop-opacity="1"/></linearGradient><linearGradient id="linearGradient2820" x1="22.668" x2="27.389" y1="32.237" y2="31.441" gradientUnits="userSpaceOnUse" xlink:href="#linearGradient2806"/><linearGradient id="linearGradient2848" x1="17.806" x2="25.709" y1="34.004" y2="34.579" gradientUnits="userSpaceOnUse" xlink:href="#linearGradient2928"/><linearGradient id="linearGradient2894" x1="19.445" x2="29.433" y1="42.078" y2="34.035" gradientUnits="userSpaceOnUse" xlink:href="#linearGradient2888"/><linearGradient id="linearGradient2888"><stop id="stop2890" offset="0" stop-color="#ffd79a" stop-opacity="1"/><stop id="stop2892" offset="1" stop-color="#eeb660" stop-opacity="0"/></linearGradient><linearGradient id="linearGradient3042" x1="9.375" x2="13.313" y1="39.688" y2="35" gradientTransform="matrix(0.987553,-0.157288,0.157288,0.987553,-8.477984,4.3375854)" gradientUnits="userSpaceOnUse" xlink:href="#linearGradient2950"/><linearGradient id="linearGradient2532" x1="12.9" x2="18.573" y1="12.908" y2="9.713" gradientTransform="matrix(0.995183,-0.01247998,0.05847668,0.871673,-0.863009,0.2166025)" gradientUnits="userSpaceOnUse" xlink:href="#linearGradient2415"/><linearGradient id="linearGradient2415"><stop id="stop2417" offset="0" stop-color="#eeeeec" stop-opacity="1"/><stop id="stop2419" offset="1" stop-color="#eeeeec" stop-opacity="0"/></linearGradient><linearGradient id="linearGradient2492" x1="12.255" x2="20.264" y1="14.821" y2="8.149" gradientTransform="matrix(-0.995183,-0.01247998,-0.05847668,0.871673,48.68624,0.1802565)" gradientUnits="userSpaceOnUse" xlink:href="#linearGradient2415"/><linearGradient id="linearGradient2562" x1="23.906" x2="24.746" y1="6.047" y2="21.636" gradientTransform="matrix(0.99855,-0.0507831,-0.0538331,-0.941975,0.31867003,18.18444)" gradientUnits="userSpaceOnUse" xlink:href="#linearGradient2415"/><linearGradient id="linearGradient2501" x1="36.82" x2="36.82" y1="18" y2="11.375" gradientTransform="translate(-1,4.9768371e-7)" gradientUnits="userSpaceOnUse" xlink:href="#linearGradient2432"/><linearGradient id="linearGradient2432"><stop id="stop2434" offset="0" stop-color="#eeeeec" stop-opacity="1"/><stop id="stop2436" offset="1" stop-color="#eeeeec" stop-opacity="0"/></linearGradient><linearGradient id="linearGradient2522" x1="32.4" x2="32.4" y1="17.6" y2="42.369" gradientTransform="matrix(0.901767,0,0,1,1.455816,0)" gradientUnits="userSpaceOnUse" xlink:href="#linearGradient2521"/><linearGradient id="linearGradient2521"><stop id="stop2523" offset="0" stop-color="#7f4e01" stop-opacity="1"/><stop id="stop2525" offset="1" stop-color="#402700" stop-opacity="1"/></linearGradient><linearGradient id="linearGradient2524" x1="17.6" x2="32.4" y1="48.4" y2="48.4" gradientTransform="matrix(0.901767,0,0,1,1.455816,0)" gradientUnits="userSpaceOnUse" xlink:href="#linearGradient2505"/><linearGradient id="linearGradient2505"><stop id="stop2507" offset="0" stop-color="#e9b96e" stop-opacity="1"/><stop id="stop2509" offset="1" stop-color="#774a01" stop-opacity="1"/></linearGradient><linearGradient id="linearGradient2526" x1="24" x2="24.923" y1="40" y2="48.45" gradientUnits="userSpaceOnUse" xlink:href="#linearGradient2551"/><linearGradient id="linearGradient2551"><stop id="stop2553" offset="0" stop-color="#5f3a00" stop-opacity="1"/><stop id="stop2555" offset="1" stop-color="#5f3a00" stop-opacity="0"/></linearGradient><linearGradient id="linearGradient2528" x1="19.348" x2="29.712" y1="31.764" y2="33" gradientUnits="userSpaceOnUse" xlink:href="#linearGradient2531"/><linearGradient id="linearGradient2531"><stop id="stop2533" offset="0" stop-color="#f1d09e" stop-opacity="1"/><stop id="stop2535" offset="1" stop-color="#8f5902" stop-opacity="1"/></linearGradient><linearGradient id="linearGradient3032" x1="32.878" x2="39.863" y1="31.905" y2="36.03" gradientTransform="matrix(0.987553,-0.157288,0.157288,0.987553,-8.477984,4.3375854)" gradientUnits="userSpaceOnUse" xlink:href="#linearGradient2970"/><linearGradient id="linearGradient2970"><stop id="stop2972" offset="0" stop-color="#fcaf3e" stop-opacity="1"/><stop id="stop2974" offset="1" stop-color="#fcaf3e" stop-opacity="0"/></linearGradient><linearGradient id="linearGradient3004" x1="36.125" x2="35.656" y1="37.699" y2="41.324" gradientTransform="matrix(0.987553,-0.157288,0.157288,0.987553,-8.477984,4.3375854)" gradientUnits="userSpaceOnUse" xlink:href="#linearGradient2998"/><linearGradient id="linearGradient2998"><stop id="stop3000" offset="0" stop-color="#310000" stop-opacity="1"/><stop id="stop3002" offset="1" stop-color="#310000" stop-opacity="0"/></linearGradient><linearGradient id="linearGradient2504" x1="18.996" x2="20.007" y1="7.247" y2="23.842" gradientTransform="translate(-1,4.9768371e-7)" gradientUnits="userSpaceOnUse" xlink:href="#linearGradient2404"/><linearGradient id="linearGradient2404"><stop id="stop2406" offset="0" stop-color="#d3d7cf" stop-opacity="1"/><stop id="stop2408" offset="1" stop-color="#555856" stop-opacity="1"/></linearGradient><radialGradient id="radialGradient2507" cx="25" cy="-14.446" r="20" fx="25" fy="-14.446" gradientTransform="matrix(-2.237544,0,0,-1.010096,79.9386,-1.4416576)" gradientUnits="userSpaceOnUse" xlink:href="#linearGradient2416"/><linearGradient id="linearGradient2416"><stop id="stop2418" offset="0" stop-color="#30312f" stop-opacity="1"/><stop id="stop2420" offset="1" stop-color="#555753" stop-opacity="0"/></linearGradient><linearGradient id="linearGradient2510" x1="31.117" x2="26.548" y1="23.842" y2="-1.775" gradientTransform="translate(-1,4.9768371e-7)" gradientUnits="userSpaceOnUse" xlink:href="#linearGradient2396"/><linearGradient id="linearGradient2396"><stop id="stop2398" offset="0" stop-color="#e1e2df" stop-opacity="1"/><stop id="stop2400" offset="1" stop-color="#888a85" stop-opacity="1"/></linearGradient><linearGradient id="linearGradient2513" x1="22.675" x2="27.513" y1="-1.304" y2="23.544" gradientTransform="translate(-1,4.9768371e-7)" gradientUnits="userSpaceOnUse" xlink:href="#linearGradient2440"/><linearGradient id="linearGradient2440"><stop id="stop2442" offset="0" stop-color="#60625e" stop-opacity="1"/><stop id="stop2444" offset="1" stop-color="#1d2122" stop-opacity="1"/></linearGradient><linearGradient id="linearGradient2978" x1="25.413" x2="41.9" y1="35.894" y2="35.894" gradientTransform="matrix(0.987553,-0.157288,0.157288,0.987553,-8.477984,4.3375854)" gradientUnits="userSpaceOnUse" xlink:href="#linearGradient2806"/><linearGradient id="linearGradient2964" x1="30.038" x2="41.213" y1="32.262" y2="39.525" gradientTransform="matrix(0.987553,-0.157288,0.157288,0.987553,-8.477984,4.3375854)" gradientUnits="userSpaceOnUse" xlink:href="#linearGradient2928"/><linearGradient id="linearGradient3014" x1="20.375" x2="11.563" y1="38.406" y2="37.719" gradientTransform="matrix(0.987553,-0.157288,0.157288,0.987553,-5.649557,3.8956434)" gradientUnits="userSpaceOnUse" xlink:href="#linearGradient2998"/><linearGradient id="linearGradient2976" x1="7.225" x2="42.109" y1="37.761" y2="37.761" gradientTransform="matrix(0.987553,-0.157288,0.157288,0.987553,-8.477984,4.3375854)" gradientUnits="userSpaceOnUse" xlink:href="#linearGradient2806"/><linearGradient id="linearGradient4114"><stop id="stop4116" offset="0" stop-color="#000" stop-opacity="1"/><stop id="stop4118" offset="1" stop-color="#000" stop-opacity="0"/></linearGradient><radialGradient id="radialGradient3166" cx="15.116" cy="63.965" r="12.289" fx="15.116" fy="63.965" gradientTransform="scale(1.64399,0.608276)" gradientUnits="userSpaceOnUse" xlink:href="#linearGradient4114"/></defs><g id="layer1"><path id="path4112" fill="url(#radialGradient3166)" fill-opacity="1" stroke="none" d="m 45.052803,38.908627 a 20.203051,7.4751287 0 1 1 -40.4061012,0 20.203051,7.4751287 0 1 1 40.4061012,0 z" transform="matrix(1.14,0,0,1.47973,-4.328718,-36.03076)"/><path id="path2968" fill="url(#linearGradient2976)" fill-opacity="1" fill-rule="evenodd" stroke="url(#linearGradient2986)" stroke-dasharray="none" stroke-dashoffset="0" stroke-linecap="butt" stroke-linejoin="miter" stroke-miterlimit="10" stroke-opacity="1" stroke-width=".8" d="m 8.695305,36.663813 c 0,0 5.466146,0.861753 9.584602,-0.300497 4.118456,-1.162251 17.703641,-3.602699 17.703641,-3.602699 l 2.747363,3.739419 c 0.843322,1.321302 -0.45558,1.907905 -3.931677,2.334969 -3.476096,0.427064 -4.475495,-1.134685 -10.265349,0.966107 -7.619675,2.764726 -19.2492404,2.46894 -19.2492404,2.46894 L 8.695305,36.663813 z"/><path id="path3006" fill="url(#linearGradient3014)" fill-opacity="1" fill-rule="evenodd" stroke="none" d="m 14.938268,37.269184 -1.235252,3.099016 4.035804,-0.344467 0.264592,-3.251694 -3.065144,0.497145 z"/><path id="path2956" fill="url(#linearGradient2978)" fill-opacity="1" fill-rule="evenodd" stroke="url(#linearGradient2964)" stroke-dasharray="none" stroke-dashoffset="0" stroke-linecap="butt" stroke-linejoin="miter" stroke-miterlimit="4" stroke-opacity="1" stroke-width=".8" d="m 23.936302,33.413631 c 3.432422,-1.496 10.027978,-4.191959 12.242243,-0.620784 0,0 1.24383,1.352445 2.480814,3.655297 C 33.28514,32.209433 28.090703,37.24539 23.15729,38.853878 l 0.779012,-5.440247 z"/><path id="path2190" fill="none" stroke="url(#linearGradient2513)" stroke-dasharray="none" stroke-dashoffset="0" stroke-linecap="butt" stroke-linejoin="miter" stroke-miterlimit="100" stroke-opacity="1" stroke-width="2.4" d="m 7,2.0000004 c 0,0 8,-0.3535534 16,-0.3535534 2.323966,0 4.816708,0.029836 7.184054,0.072173 C 35.966038,1.822023 41,2.0000004 41,2.0000004 c 0,0 2,6 3,13.9999996 0,0 -1,3 -3,7 0,0 -10,0.441942 -18,0.441942 C 15,23.441942 7,23 7,23 5,19 4,16 4,16 5,8.0000004 7,2.0000004 7,2.0000004 z"/><path id="path1315" fill="url(#linearGradient2510)" fill-opacity="1" fill-rule="evenodd" stroke="none" d="m 7,2.0000004 c 0,0 8,-0.3535534 16,-0.3535534 8,0 18,0.3535534 18,0.3535534 0,0 2,6 3,13.9999996 0,0 -1,3 -3,7 0,0 -10,0.441942 -18,0.441942 C 15,23.441942 7,23 7,23 5,19 4,16 4,16 5,8.0000004 7,2.0000004 7,2.0000004 z"/><path id="path2414" fill="url(#radialGradient2507)" fill-opacity="1" fill-rule="evenodd" stroke="none" d="M 18.53125,15.6875 C 9.354233,15.75999 4,16 4,16 l 3,7 c 0,0 16.852661,0.618718 34,0 l 3,-7 c 0,0 -1.949967,-0.123231 -7.21875,-0.21875 L 33,19.46875 35.15257,14.189958 c -2,1.0625 -2.6829,1.560042 -2.6829,1.560042 C 29.666523,15.70818 27.794643,15.6875 24,15.6875 c -1.953125,0 -3.769302,-0.01342 -5.46875,0 z"/><path id="path2412" fill="none" stroke="url(#linearGradient2504)" stroke-dasharray="none" stroke-dashoffset="0" stroke-linecap="butt" stroke-linejoin="miter" stroke-miterlimit="100" stroke-opacity="1" stroke-width=".8" d="m 7,2.0000004 c 0,0 8,-0.3535534 16,-0.3535534 8,0 18,0.3535534 18,0.3535534 0,0 2,6 3,13.9999996 0,0 -1,3 -3,7 0,0 -10,0.441942 -18,0.441942 C 15,23.441942 7,23 7,23 5,19 4,16 4,16 5,8.0000004 7,2.0000004 7,2.0000004 z"/><path id="path2988" fill="url(#linearGradient3004)" fill-opacity="1" fill-rule="evenodd" stroke="none" d="m 27.307964,37.496629 c 0,0 3.477053,-0.27866 6.225709,0.147609 1.96294,0.304418 4.885873,-0.714886 4.885873,-0.714886 0,0 -0.972493,-1.831963 -4.343431,-1.839731 -2.959304,-0.0068 -6.696599,2.4589 -6.768151,2.407008 z"/><path id="path3016" fill="url(#linearGradient3032)" fill-opacity="1" fill-rule="evenodd" stroke="none" d="m 27.626606,34.54614 0.694721,1.347605 c 0,0 5.227287,-2.723291 8.407467,-1.160055 -2.510422,-3.258576 -9.102188,-0.18755 -9.102188,-0.18755 z"/><g id="g2515"><path id="path2529" fill="none" stroke="url(#linearGradient2522)" stroke-dasharray="none" stroke-dashoffset="0" stroke-linecap="butt" stroke-linejoin="miter" stroke-miterlimit="100" stroke-opacity="1" stroke-width="2.4" d="m 20.392931,21 c 0,0 1.127208,-2 3.607069,-2 2.479861,0 3.60707,2 3.60707,2 0.789047,14.125 1.705302,20 1.705302,21 0,1 0.09823,5 -5.312372,5 -5.410605,0 -5.312372,-4 -5.312372,-5 0,-1 0.916256,-7.25 1.705303,-21 z"/><path id="path2495" fill="url(#linearGradient2524)" fill-opacity="1" fill-rule="evenodd" stroke="none" d="m 20.392931,21 c 0,0 1.127208,-2 3.607069,-2 2.479861,0 3.60707,2 3.60707,2 0.789047,14.125 1.705302,20 1.705302,21 0,1 0.09823,5 -5.312372,5 -5.410605,0 -5.312372,-4 -5.312372,-5 0,-1 0.916256,-7.25 1.705303,-21 z"/><path id="path2541" fill="url(#linearGradient2526)" fill-opacity="1" fill-rule="evenodd" stroke="none" d="m 19,43 c 0,0 0.75,-2 5,-2 4.25,0 5,2 5,2 0,0 2,4 -5,4 -7,0 -5,-4 -5,-4 z"/><path id="path2539" fill="none" stroke="url(#linearGradient2528)" stroke-dasharray="none" stroke-dashoffset="0" stroke-linecap="butt" stroke-linejoin="miter" stroke-miterlimit="100" stroke-opacity="1" stroke-width=".8" d="m 20.392931,21 c 0,0 1.127208,-2 3.607069,-2 2.479861,0 3.60707,2 3.60707,2 0.789047,14.125 1.705302,20 1.705302,21 0,1 0.09823,5 -5.312372,5 -5.410605,0 -5.312372,-4 -5.312372,-5 0,-1 0.916256,-7.25 1.705303,-21 z"/></g><path id="path2430" fill="url(#linearGradient2501)" fill-opacity="1" fill-rule="evenodd" stroke="none" d="m 33.0625,19.375 c 0,0 0.9375,-2.8125 2.1875,-5.125 0,0 1.625,0.5 1.4375,1.5625 l -3.625,3.5625 z"/><path id="path1540" fill="url(#linearGradient2562)" fill-opacity="1" fill-rule="evenodd" stroke="none" d="M 24.312253,14.927167 23.786062,14.481571 C 23.321883,14.088489 22.192548,13.402225 21.437629,12.268744 20.961701,11.554158 20.802987,10.579553 20.872151,9.4928854 19.594718,9.1316438 18.558371,8.5950093 17.8987,7.8432465 16.79386,6.5841665 16.298664,5.1097125 15.497357,4.1569955 l -0.671197,-0.792489 1.066006,0.034354 c 1.814061,0.059459 3.773635,0.00893 5.596491,0.453437 0.473394,0.115436 0.908534,0.301077 1.344243,0.522082 -0.518486,0.332222 -0.841267,0.671211 -1.041696,0.938645 -0.0041,0.00546 -0.557591,-0.265014 -0.864396,-0.339829 -1.335723,-0.325716 -1.973146,-0.018901 -3.477178,-0.05934 0.607896,0.961196 0.506657,1.506298 1.228429,2.328832 0.547993,0.624495 1.868798,1.0118596 3.053606,1.4093841 1.184808,0.3975244 2.946384,0.1831494 3.168496,0.1340831 l -0.0381,0.9761731 c -0.293612,0.066466 -0.625501,0.1203779 -0.993503,0.1390932 -1.104006,0.056146 -1.724792,-0.20135 -1.797172,-0.2333466 -0.04223,0.8411656 0.153852,1.5657806 0.528468,2.1282506 0.468109,0.702847 1.564788,1.185285 1.698346,1.24213 0.527216,-0.787566 1.010813,-0.982396 1.367366,-1.811355 0.216159,-0.502556 0.617985,-1.2567342 0.04516,-3.0430914 -0.35678,-1.1126171 -0.815971,-1.3826591 -1.285033,-1.6764621 l 0.869608,-0.664194 c 0.280412,0.188083 0.600095,0.454406 0.858426,0.782967 0.648419,0.824697 0.603232,1.5643759 0.595165,1.6525026 0,0 1.222221,-0.9314136 1.724075,-1.5933176 0.650844,-0.858407 0.889038,-1.417543 1.493108,-2.349151 -1.340461,0.082078 -2.213277,-0.225486 -3.649266,0.215113 -0.388325,0.119148 -1.197567,0.608295 -2.159338,1.439548 -0.96177,0.831254 -1.438186,1.343498 -1.687744,1.885464 l -1.23717,-0.291348 c 0.01438,-0.034622 1.444173,-2.529361 2.878108,-3.180874 1.433937,-0.651511 6.077372,-1.112471 7.575197,-1.188646 l 1.216983,-0.061892 -0.797105,0.837641 c -0.833381,0.87576 -1.473238,1.998473 -2.470711,3.314059 -0.594784,0.7844702 -1.574471,1.4009587 -2.802781,1.8843554 0,0 0.129341,1.3881491 -0.297236,2.4654661 -0.457195,1.15464 -1.565316,1.844162 -1.944356,2.667323 l -0.278401,0.604604 z"/><path id="path2461" fill="url(#linearGradient2492)" fill-opacity="1" fill-rule="evenodd" stroke="none" d="m 26.618719,3.8838839 c 1.275618,1.633732 4.455174,3.3616122 6.031738,3.8106283 0.0273,0.00778 0.06698,-0.00584 0.0933,0.00117 0.0067,-3.273e-4 0.02436,7.754e-4 0.0311,3.899e-4 0.397744,-0.02274 0.810195,-0.1608272 1.306143,-0.4470866 1.452722,-0.8385069 0.862321,-0.6152424 2.447618,-1.2233909 0.01654,-0.00634 0.04685,-0.020686 0.06403,-0.02646 0.995204,-0.3126596 2.986651,0.2887461 3.334984,0.3962361 -0.337482,0.041861 -1.761676,0.2724612 -2.75313,1.1377715 -0.0063,0.0055 -0.02647,0.021428 -0.03293,0.02685 -0.0066,0.00535 -0.02617,0.021581 -0.03293,0.02685 -0.29007,0.2180788 -0.735289,0.376386 -1.245772,0.4751067 0.768913,0.05648 1.570564,0.1413021 2.409311,0.2755772 1.565724,0.2506568 2.534411,0.7947753 2.980167,1.5095569 0.445756,0.714782 0.298817,1.589985 -0.301689,2.177232 -1.742714,1.704238 -6.403657,0.82998 -6.384592,-0.870682 9.98e-4,-0.02894 0.0036,-0.07955 0.0073,-0.108959 0.0055,-0.03691 0.03025,-0.09821 0.04024,-0.135808 0.0109,-0.03774 0.02472,-0.09742 0.04024,-0.135809 0.0066,-0.01541 0.02741,-0.03858 0.03475,-0.05409 0.925065,-1.954027 3.166469,-0.776127 3.914876,0.103618 -0.804473,-0.471603 -1.925181,-0.562244 -2.31784,-0.247167 -0.0074,0.0063 -0.02607,0.02019 -0.03293,0.02685 -0.0099,0.01022 -0.02623,0.04315 -0.03475,0.05409 -0.0025,0.0038 -0.03055,0.02296 -0.03293,0.02685 -0.0022,0.004 2.38e-4,0.02319 -0.0018,0.02724 -0.0019,0.0041 -8.7e-5,0.02303 -0.0018,0.02724 -0.0047,0.01286 -0.03155,0.0405 -0.03475,0.05409 -8.98e-4,0.0046 -0.0011,0.02255 -0.0018,0.02724 -5.44e-4,0.0048 -0.0015,0.02239 -0.0018,0.02724 -1.86e-4,0.0049 -0.0018,0.02222 -0.0018,0.02724 -0.0013,1.404911 3.743379,1.422994 4.064892,0.187288 0.07811,-0.30022 0.07259,-0.558178 0.02007,-0.763104 -0.0061,-0.02164 -0.01822,-0.06142 -0.02562,-0.08211 -0.0078,-0.02039 -0.01651,-0.06263 -0.02562,-0.08211 -0.0064,-0.01279 -0.02054,-0.04247 -0.02745,-0.05487 C 39.831724,9.5411981 38.983136,9.359909 38.027109,9.2068592 36.068438,8.893295 33.975207,9.1995939 32.251747,8.9981221 29.644355,8.6933181 28.491603,8.3334506 27.065279,6.5067031 l -0.44656,-2.6228192 z"/><path id="path2530" fill="url(#linearGradient2532)" fill-opacity="1" fill-rule="evenodd" stroke="none" d="m 21.204504,3.9202287 c -1.275618,1.633732 -4.455174,3.3616122 -6.031738,3.8106283 -0.0273,0.00778 -0.06698,-0.00584 -0.0933,0.00117 -0.0067,-3.273e-4 -0.02436,7.754e-4 -0.0311,3.899e-4 -0.397742,-0.02274 -0.810193,-0.1608272 -1.306141,-0.4470866 -1.452722,-0.8385069 -0.862321,-0.6152424 -2.447618,-1.2233909 -0.01654,-0.00634 -0.04685,-0.020686 -0.06403,-0.02646 -0.995203,-0.3126596 -2.9866501,0.2887461 -3.3349831,0.3962361 0.337482,0.041861 1.761676,0.2724612 2.7531291,1.1377715 0.0063,0.0055 0.02647,0.021428 0.03293,0.02685 0.0066,0.00535 0.02617,0.021582 0.03293,0.02685 0.29007,0.2180788 0.735289,0.376386 1.245772,0.4751067 -0.768913,0.05648 -1.570564,0.1413021 -2.4093101,0.2755772 -1.565724,0.2506568 -2.534411,0.7947753 -2.980167,1.5095574 -0.445756,0.7147817 -0.298817,1.5899857 0.301689,2.1772327 1.742714,1.704238 6.4036561,0.82998 6.3845911,-0.870682 -9.98e-4,-0.02894 -0.0036,-0.07955 -0.0073,-0.108959 -0.0055,-0.03691 -0.03025,-0.09821 -0.04024,-0.135808 -0.0109,-0.03774 -0.02472,-0.09742 -0.04024,-0.135809 -0.0066,-0.01541 -0.02741,-0.03858 -0.03475,-0.05409 -0.925065,-1.9540282 -3.1664681,-0.7761287 -3.9148751,0.103618 0.8044731,-0.471603 1.9251801,-0.562244 2.3178391,-0.247168 0.0074,0.0063 0.02607,0.0202 0.03293,0.02685 0.0099,0.01022 0.02623,0.04315 0.03475,0.05409 0.0025,0.0038 0.03055,0.02296 0.03293,0.02685 0.0022,0.004 -2.38e-4,0.02319 0.0018,0.02724 0.0019,0.0041 8.7e-5,0.02303 0.0018,0.02724 0.0047,0.01286 0.03155,0.0405 0.03475,0.05409 8.98e-4,0.0046 0.0011,0.02255 0.0018,0.02724 5.44e-4,0.0048 0.0015,0.02239 0.0018,0.02724 1.86e-4,0.0049 0.0018,0.02222 0.0018,0.02724 0.0013,1.404911 -3.7433781,1.422994 -4.0648911,0.187288 -0.078112,-0.30022 -0.072588,-0.558179 -0.020067,-0.763105 0.00608,-0.02164 0.018221,-0.06141 0.025618,-0.08211 0.00783,-0.02039 0.016508,-0.06263 0.025617,-0.08211 0.00635,-0.01279 0.020542,-0.04247 0.027445,-0.05487 0.315697,-0.5373928 1.164285,-0.7186819 2.120312,-0.8717317 1.9586701,-0.3135642 4.0519011,-0.00727 5.7753611,-0.2087371 2.607392,-0.304804 3.760144,-0.6646715 5.186468,-2.491419 l 0.44656,-2.6228192 z"/><path id="path3034" fill="url(#linearGradient3042)" fill-opacity="1" fill-rule="evenodd" stroke="none" d="M 5.9761474,41.84347 8.939445,37.004649 c 0,0 -0.730347,2.964272 -0.188544,4.776612 l -2.7747536,0.06221 z"/><path id="path2886" fill="url(#linearGradient2894)" fill-opacity="1" fill-rule="evenodd" stroke="none" d="m 18.826719,42.696699 c 3.436097,-2.574311 8.838834,-1.237437 8.838834,-1.237437 C 23.196961,39.11567 23.776465,34.65336 23.776465,34.65336 l -2.274048,4.285533 -0.46599,-18.250892 c 0,0 -1.933494,17.511941 -2.209708,22.008698 z"/><path id="path2804" fill="url(#linearGradient2820)" fill-opacity="1" fill-rule="evenodd" stroke="url(#linearGradient2848)" stroke-dasharray="none" stroke-dashoffset="0" stroke-linecap="butt" stroke-linejoin="miter" stroke-miterlimit="10" stroke-opacity="1" stroke-width=".8" d="m 28.189601,29.435083 0.566942,3.667578 c -6.629126,-2.298097 -10.550383,6.08363 -10.550383,6.08363 l 0.519607,-6.185344 c 3.270369,-6.363961 9.463834,-3.565864 9.463834,-3.565864 z"/><path id="path2584" fill="url(#linearGradient2812)" fill-opacity="1" fill-rule="evenodd" stroke="url(#linearGradient2934)" stroke-dasharray="none" stroke-dashoffset="0" stroke-linecap="butt" stroke-linejoin="miter" stroke-miterlimit="10" stroke-opacity="1" stroke-width=".8" d="m 19.335602,25.185083 -0.254442,3.855078 c 6.629126,-2.298097 10.425383,6.14613 10.425383,6.14613 l -0.582107,-6.185344 c -3.270369,-6.363961 -9.588834,-3.815864 -9.588834,-3.815864 z"/><path id="path2850" fill="url(#linearGradient2948)" fill-opacity="1" fill-rule="evenodd" stroke="none" d="M 19.775888,25.4375 19.625,27.25 c 6.52665,-2.047335 8.875,1.8125 8.875,1.8125 -2.75,-5.661612 -8.724112,-3.625 -8.724112,-3.625 z"/><path id="path2876" fill="url(#linearGradient2884)" fill-opacity="1" fill-rule="evenodd" stroke="none" d="m 19.091883,33.150758 -0.265165,2.740038 c 0,0 1.502602,-4.331029 6.187184,-5.656854 l -1.59099,-0.972272 c -2.916815,1.149049 -4.331029,3.889088 -4.331029,3.889088 z"/><path id="path2896" fill="url(#linearGradient2904)" fill-opacity="1" fill-rule="evenodd" stroke="none" d="m 3.7123106,16.003418 c 0,0 0.022097,-1.635185 0.6187184,-3.800699 0.9501748,2.607456 8.606816,1.602039 24.306796,3.447146 -11.788796,0.254117 -24.9255144,0.353553 -24.9255144,0.353553 z"/><path id="path2906" fill="url(#linearGradient2914)" fill-opacity="1" fill-rule="evenodd" stroke="none" d="m 10.871767,24.135146 c -1.3258252,-2.916815 -1.06066,-6.010407 -1.06066,-6.010407 0,0 3.032932,4.206029 4.623922,6.062184 l -3.563262,-0.05178 z"/><path id="path3044" fill="url(#linearGradient3052)" fill-opacity="1" fill-rule="evenodd" stroke="none" d="M 6.8059027,1.5077295 6.0104076,3.9826033 C 11.490485,2.4800014 41.277358,1.6845061 41.277358,1.6845061 c 0,0 -22.539028,-0.79549493 -34.4714553,-0.1767766 z"/></g></svg>