<svg xmlns="http://www.w3.org/2000/svg" xmlns:svg="http://www.w3.org/2000/svg" xmlns:xlink="http://www.w3.org/1999/xlink" id="svg2981" width="48" height="48" version="1.1"><defs id="defs2983"><linearGradient id="linearGradient2900" x1="12.938" x2="15.25" y1="8.438" y2="19.813" gradientTransform="matrix(1.0952382,0,0,1.3333324,-2.2857144,2.4e-6)" gradientUnits="userSpaceOnUse" xlink:href="#linearGradient6592-2-7-4-6-2-3"/><linearGradient id="linearGradient6592-2-7-4-6-2-3"><stop id="stop6594-0-2-6-7-7-8" offset="0" stop-color="#fff" stop-opacity=".275"/><stop id="stop6596-2-5-9-6-0-5" offset="1" stop-color="#fff" stop-opacity="0"/></linearGradient><linearGradient id="linearGradient2869" x1="31.847" x2="31.847" y1="32" y2=".999" gradientTransform="matrix(1,0,0,0.90000142,-2.9999991,5.1499931)" gradientUnits="userSpaceOnUse" xlink:href="#linearGradient3298-628-126"/><linearGradient id="linearGradient3298-628-126"><stop id="stop2579" offset="0" stop-color="#2f537b" stop-opacity="1"/><stop id="stop2581" offset="1" stop-color="#76a7dd" stop-opacity="1"/></linearGradient><linearGradient id="linearGradient2871" x1="-52.543" x2="-52.543" y1="35.654" y2="2.192" gradientTransform="matrix(0.8074968,0,0,0.84226732,56.410234,4.1469595)" gradientUnits="userSpaceOnUse" xlink:href="#linearGradient3921"/><linearGradient id="linearGradient3921"><stop id="stop3923" offset="0" stop-color="#1d528f" stop-opacity="1"/><stop id="stop3925" offset="1" stop-color="#54a6ff" stop-opacity="1"/></linearGradient><radialGradient id="radialGradient2874" cx="12.244" cy="4.863" r="21" fx="12.244" fy="4.863" gradientTransform="matrix(1.4167634,0.01999111,-0.01319114,1.1175011,-5.3255699,6.599117)" gradientUnits="userSpaceOnUse" xlink:href="#linearGradient9936"/><linearGradient id="linearGradient9936"><stop id="stop9938" offset="0" stop-color="#575757" stop-opacity="1"/><stop id="stop9940" offset="1" stop-color="#333" stop-opacity="1"/></linearGradient><linearGradient id="linearGradient2878" x1="15.574" x2="23.594" y1="46.971" y2="46.971" gradientTransform="matrix(1.1176471,0,0,1,-2.3519696,-3.4710029)" gradientUnits="userSpaceOnUse" spreadMethod="reflect" xlink:href="#linearGradient3342"/><linearGradient id="linearGradient3342"><stop id="stop3344" offset="0" stop-color="#fff" stop-opacity="0"/><stop id="stop3346" offset="1" stop-color="#fff" stop-opacity="1"/></linearGradient><linearGradient id="linearGradient2881" x1="318.421" x2="318.421" y1="93.292" y2="78.342" gradientTransform="matrix(1.4628351,0,0,0.7083672,-444.01094,-22.190508)" gradientUnits="userSpaceOnUse" xlink:href="#linearGradient4510"/><linearGradient id="linearGradient4510"><stop id="stop4512" offset="0" stop-color="#a5a6aa" stop-opacity="1"/><stop id="stop4514" offset=".221" stop-color="#e2e2e4" stop-opacity="1"/><stop id="stop4516" offset="1" stop-color="#595959" stop-opacity="1"/></linearGradient><linearGradient id="linearGradient2883" x1="24.687" x2="24.739" y1="40.813" y2="34" gradientTransform="matrix(1.116455,0,0,1,-2.7949567,2.000003)" gradientUnits="userSpaceOnUse" xlink:href="#linearGradient4518"/><linearGradient id="linearGradient4518"><stop id="stop4520" offset="0" stop-color="#7e7e7e" stop-opacity=".949"/><stop id="stop4522" offset="1" stop-color="#969696" stop-opacity="1"/></linearGradient><linearGradient id="linearGradient10691-1"><stop id="stop10693-3" offset="0" stop-color="#000" stop-opacity="1"/><stop id="stop10695-1" offset="1" stop-color="#000" stop-opacity="0"/></linearGradient><radialGradient id="radialGradient2979" cx="6.703" cy="73.616" r="7.228" fx="6.703" fy="73.616" gradientTransform="matrix(1.9368007,0,0,0.4150287,11.018182,13.447365)" gradientUnits="userSpaceOnUse" xlink:href="#linearGradient10691-1"/></defs><g id="layer1"><path id="path2589" fill="url(#radialGradient2979)" fill-opacity="1" fill-rule="nonzero" stroke="none" stroke-width=".8" d="m 38,44 c 0,1.656855 -6.268014,3 -14.000001,3 C 16.268013,47 10,45.656855 10,44 10,42.343146 16.268013,41 23.999999,41 31.731986,41 38,42.343146 38,44 l 0,0 z" display="inline" opacity=".4" overflow="visible" visibility="visible" style="marker:none"/><path id="rect1789" fill="url(#linearGradient2881)" fill-opacity="1" stroke="url(#linearGradient2883)" stroke-dasharray="none" stroke-dashoffset=".5" stroke-linecap="round" stroke-linejoin="round" stroke-miterlimit="4" stroke-opacity="1" stroke-width="1" d="m 17.859462,36.249806 c 0,0 0.141772,4.25777 -0.565344,5.250194 -0.707116,0.992424 -2.114148,1.004 -2.114148,1.004 -0.902888,0.104262 -0.910357,1.996 0,1.996 l 17.63999,0 c 0.910357,0 0.903077,-1.893068 0,-1.996 0,0 -1.406971,-0.01158 -2.114077,-1.004 -0.707106,-0.992422 -0.565415,-5.250194 -0.565415,-5.250194 l -12.281006,0 z" display="inline" enable-background="new"/><path id="path3340" fill="none" stroke="url(#linearGradient2878)" stroke-linecap="square" stroke-linejoin="miter" stroke-opacity="1" stroke-width="1" d="m 15.612977,43.5 16.774046,0"/><rect id="rect2722" width="47" height="33" x=".5" y="3.5" fill="#1a1a1a" fill-opacity="1" stroke="#000" stroke-dasharray="none" stroke-dashoffset=".5" stroke-linecap="round" stroke-linejoin="round" stroke-miterlimit="4" stroke-opacity="1" stroke-width="1" rx="1.044" ry="1"/><rect id="rect2716" width="42" height="28" x="3" y="6" fill="url(#radialGradient2874)" fill-opacity="1" fill-rule="evenodd" stroke="none" display="inline" enable-background="new"/><path id="path4322" fill="url(#linearGradient2869)" fill-opacity="1" stroke="url(#linearGradient2871)" stroke-dasharray="none" stroke-dashoffset="0" stroke-linecap="butt" stroke-linejoin="round" stroke-miterlimit="4" stroke-opacity="1" stroke-width="1" d="M 3.4999609,6.499961 C 11.520251,6.499961 36.47971,6.5 44.5,6.5 c 0,9.676426 0,17.888337 0,27.000039 -11.666693,0 -29.333349,0 -41.0000391,0 0,-13.500045 0,-13.500034 0,-27.000078 z" display="inline"/><g id="g2856" transform="matrix(1.0131433,0,0,1,-0.60492782,0.2276791)"><path id="path3336" fill="none" stroke="#000" stroke-dasharray="none" stroke-linecap="round" stroke-linejoin="miter" stroke-miterlimit="4" stroke-opacity="1" stroke-width=".993" d="m 4.0581427,19.285714 40.4551423,0" opacity=".2"/><path id="path3338" fill="#fff" fill-opacity="1" fill-rule="evenodd" stroke="#eeeeec" stroke-dasharray="none" stroke-linecap="round" stroke-linejoin="miter" stroke-miterlimit="4" stroke-opacity="1" stroke-width=".993" d="m 4.0581427,20.272321 40.4551423,0" opacity=".2"/></g><g id="g2860" transform="matrix(1,0,0,0.91449038,-0.27981355,2.3634001)"><path id="path3334" fill="none" stroke="#000" stroke-dasharray="none" stroke-linecap="round" stroke-linejoin="miter" stroke-miterlimit="4" stroke-opacity="1" stroke-width="1.046" d="m 23.786439,4.486611 0,29.598206" opacity=".2"/><path id="path3340-7" fill="#fff" fill-opacity="1" fill-rule="evenodd" stroke="#eeeeec" stroke-dasharray="none" stroke-linecap="round" stroke-linejoin="miter" stroke-miterlimit="4" stroke-opacity="1" stroke-width="1.046" d="m 24.773149,4.486611 0,29.598206" opacity=".2"/></g><path id="rect6588" fill="url(#linearGradient2900)" fill-opacity="1" stroke="none" d="M 1,4 47,4 47,14.666672 1,24 1,4 z"/></g></svg>