<svg xmlns="http://www.w3.org/2000/svg" xmlns:svg="http://www.w3.org/2000/svg" xmlns:xlink="http://www.w3.org/1999/xlink" id="svg3388" width="112" height="112" version="1.0"><defs id="defs3390"><linearGradient id="linearGradient3702-501-757"><stop id="stop2895" offset="0" stop-color="#181818" stop-opacity="0"/><stop id="stop2897" offset=".5" stop-color="#181818" stop-opacity="1"/><stop id="stop2899" offset="1" stop-color="#181818" stop-opacity="0"/></linearGradient><linearGradient id="linearGradient2493" x1="25.058" x2="25.058" y1="47.028" y2="39.999" gradientUnits="userSpaceOnUse" xlink:href="#linearGradient3702-501-757"/><linearGradient id="linearGradient3688-464-309"><stop id="stop2889" offset="0" stop-color="#181818" stop-opacity="1"/><stop id="stop2891" offset="1" stop-color="#181818" stop-opacity="0"/></linearGradient><radialGradient id="radialGradient2491" cx="4.993" cy="43.5" r="2.5" fx="4.993" fy="43.5" gradientTransform="matrix(2.003784,0,0,1.4,-20.01187,-104.4)" gradientUnits="userSpaceOnUse" xlink:href="#linearGradient3688-464-309"/><linearGradient id="linearGradient3688-166-749"><stop id="stop2883" offset="0" stop-color="#181818" stop-opacity="1"/><stop id="stop2885" offset="1" stop-color="#181818" stop-opacity="0"/></linearGradient><radialGradient id="radialGradient2489" cx="4.993" cy="43.5" r="2.5" fx="4.993" fy="43.5" gradientTransform="matrix(2.003784,0,0,1.4,27.98813,-17.4)" gradientUnits="userSpaceOnUse" xlink:href="#linearGradient3688-166-749"/><linearGradient id="linearGradient2490-654-721"><stop id="stop2913" offset="0" stop-color="#545454" stop-opacity="1"/><stop id="stop2915" offset="1" stop-color="#a4a4a4" stop-opacity="1"/></linearGradient><linearGradient id="linearGradient2501" x1="24" x2="24" y1="44" y2="3.899" gradientTransform="matrix(2.5384615,0,0,2.5384615,-4.9230769,-4.9230782)" gradientUnits="userSpaceOnUse" xlink:href="#linearGradient2490-654-721"/><linearGradient id="linearGradient3242-52-665"><stop id="stop2903" offset="0" stop-color="#d3d3d3" stop-opacity="1"/><stop id="stop2905" offset=".262" stop-color="#b1b1b1" stop-opacity="1"/><stop id="stop2907" offset=".661" stop-color="#8e8e8e" stop-opacity="1"/><stop id="stop2909" offset="1" stop-color="#525252" stop-opacity="1"/></linearGradient><radialGradient id="radialGradient2499" cx="7.496" cy="8.45" r="20" fx="7.496" fy="8.45" gradientTransform="matrix(0,5.8378677,-7.8139051,-2.4633484e-7,122.02596,-35.780062)" gradientUnits="userSpaceOnUse" xlink:href="#linearGradient3242-52-665"/><linearGradient id="linearGradient3308-4-6-931-761"><stop id="stop2919" offset="0" stop-color="#fff" stop-opacity="1"/><stop id="stop2921" offset="1" stop-color="#fff" stop-opacity="0"/></linearGradient><linearGradient id="linearGradient2533" x1="24" x2="24" y1="5" y2="43" gradientTransform="matrix(2.6216228,0,0,2.6216228,-6.918921,-6.9189694)" gradientUnits="userSpaceOnUse" xlink:href="#linearGradient3308-4-6-931-761"/><linearGradient id="linearGradient3373"><stop id="stop3375" offset="0" stop-color="#696969" stop-opacity="1"/><stop id="stop3377" offset="1" stop-color="#737373" stop-opacity="1"/></linearGradient><linearGradient id="linearGradient3367" x1="32" x2="32" y1="15" y2="49" gradientTransform="matrix(1.8,0,0,1.8,-1.599999,-1.1999983)" gradientUnits="userSpaceOnUse" xlink:href="#linearGradient3373"/></defs><g id="layer1"><g id="g2036" display="inline" transform="matrix(2.7499989,0,0,1.1111118,-10.000001,56.777777)"><g id="g3712" opacity=".4" transform="matrix(1.052632,0,0,1.285713,-1.263158,-13.42854)"><rect id="rect2801" width="5" height="7" x="38" y="40" fill="url(#radialGradient2489)" fill-opacity="1" stroke="none"/><rect id="rect3696" width="5" height="7" x="-10" y="-47" fill="url(#radialGradient2491)" fill-opacity="1" stroke="none" transform="scale(-1,-1)"/><rect id="rect3700" width="28" height="7" x="10" y="40" fill="url(#linearGradient2493)" fill-opacity="1" stroke="none"/></g></g><rect id="rect2530" width="99" height="99" x="6.5" y="6.5" fill="url(#radialGradient2499)" fill-opacity="1" stroke="url(#linearGradient2501)" stroke-dasharray="none" stroke-dashoffset="0" stroke-linecap="round" stroke-linejoin="round" stroke-miterlimit="4" stroke-opacity="1" stroke-width="1" rx="4" ry="4"/><rect id="rect6741" width="97" height="97" x="7.5" y="7.5" fill="none" stroke="url(#linearGradient2533)" stroke-dasharray="none" stroke-dashoffset="0" stroke-linecap="round" stroke-linejoin="round" stroke-miterlimit="4" stroke-opacity="1" stroke-width="1" opacity=".4" rx="3" ry="3"/><path id="path3372" fill="#fff" fill-opacity="1" fill-rule="nonzero" stroke="none" stroke-dasharray="none" stroke-dashoffset="0" stroke-linecap="butt" stroke-linejoin="miter" stroke-miterlimit="4" stroke-opacity="1" stroke-width="1.7" marker-end="none" marker-mid="none" marker-start="none" d="M 52,26 C 51.446,26 51,26.468168 51,27.03125 L 51,34.5625 C 48.366285,35.148141 45.896307,36.1898 43.6875,37.59375 L 38.34375,32.25 C 37.945591,31.851841 37.297987,31.858263 36.90625,32.25 L 31.25,37.90625 C 30.858263,38.297987 30.851842,38.945592 31.25,39.34375 L 36.59375,44.6875 C 35.1898,46.896307 34.148141,49.366285 33.5625,52 L 26.03125,52 C 25.468168,52 25,52.446 25,53 L 25,61 C 25,61.554 25.468168,62 26.03125,62 L 33.5625,62 C 34.148141,64.633715 35.1898,67.103693 36.59375,69.3125 L 31.25,74.65625 C 30.851841,75.054409 30.858263,75.702011 31.25,76.09375 L 36.90625,81.75 C 37.297987,82.141737 37.945592,82.148156 38.34375,81.75 L 43.6875,76.40625 C 45.896307,77.8102 48.366285,78.851859 51,79.4375 L 51,86.96875 C 51,87.531832 51.446,88 52,88 L 60,88 C 60.554,88 61,87.531834 61,86.96875 L 61,79.4375 C 63.633715,78.851859 66.103693,77.8102 68.3125,76.40625 L 73.65625,81.75 C 74.054409,82.148159 74.702011,82.141737 75.09375,81.75 L 80.75,76.09375 C 81.141737,75.702013 81.148156,75.054405 80.75,74.65625 L 75.40625,69.3125 C 76.8102,67.103693 77.851859,64.633715 78.4375,62 L 85.96875,62 C 86.531832,62 87,61.554 87,61 L 87,53 C 87,52.446 86.531834,52 85.96875,52 L 78.4375,52 C 77.851859,49.366285 76.8102,46.896307 75.40625,44.6875 L 80.75,39.34375 C 81.148159,38.945591 81.141737,38.297987 80.75,37.90625 L 75.09375,32.25 C 74.702013,31.858263 74.054405,31.851842 73.65625,32.25 L 68.3125,37.59375 C 66.103693,36.1898 63.633715,35.148141 61,34.5625 L 61,27.03125 C 61,26.468168 60.554,26 60,26 L 52,26 z M 56,46 C 62.072,46.000001 67,50.928 67,57 C 67,63.072 62.072,68 56,68 C 49.928001,68 45,63.072 45,57 C 45.000001,50.928001 49.928,46 56,46 z" display="inline" enable-background="accumulate" opacity=".4" overflow="visible" visibility="visible" style="marker:none"/><path id="path3378" fill="#000" fill-opacity="1" fill-rule="nonzero" stroke="none" stroke-dasharray="none" stroke-dashoffset="0" stroke-linecap="butt" stroke-linejoin="miter" stroke-miterlimit="4" stroke-opacity="1" stroke-width="1.7" marker-end="none" marker-mid="none" marker-start="none" d="M 52,24 C 51.446,24 51,24.468168 51,25.03125 L 51,32.5625 C 48.366285,33.148141 45.896307,34.1898 43.6875,35.59375 L 38.34375,30.25 C 37.945591,29.851841 37.297987,29.858263 36.90625,30.25 L 31.25,35.90625 C 30.858263,36.297987 30.851842,36.945592 31.25,37.34375 L 36.59375,42.6875 C 35.1898,44.896307 34.148141,47.366285 33.5625,50 L 26.03125,50 C 25.468168,50 25,50.446 25,51 L 25,59 C 25,59.554 25.468168,60 26.03125,60 L 33.5625,60 C 34.148141,62.633715 35.1898,65.103693 36.59375,67.3125 L 31.25,72.65625 C 30.851841,73.054409 30.858263,73.702011 31.25,74.09375 L 36.90625,79.75 C 37.297987,80.141737 37.945592,80.148156 38.34375,79.75 L 43.6875,74.40625 C 45.896307,75.8102 48.366285,76.851859 51,77.4375 L 51,84.96875 C 51,85.531832 51.446,86 52,86 L 60,86 C 60.554,86 61,85.531834 61,84.96875 L 61,77.4375 C 63.633715,76.851859 66.103693,75.8102 68.3125,74.40625 L 73.65625,79.75 C 74.054409,80.148159 74.702011,80.141737 75.09375,79.75 L 80.75,74.09375 C 81.141737,73.702013 81.148156,73.054405 80.75,72.65625 L 75.40625,67.3125 C 76.8102,65.103693 77.851859,62.633715 78.4375,60 L 85.96875,60 C 86.531832,60 87,59.554 87,59 L 87,51 C 87,50.446 86.531834,50 85.96875,50 L 78.4375,50 C 77.851859,47.366285 76.8102,44.896307 75.40625,42.6875 L 80.75,37.34375 C 81.148159,36.945591 81.141737,36.297987 80.75,35.90625 L 75.09375,30.25 C 74.702013,29.858263 74.054405,29.851842 73.65625,30.25 L 68.3125,35.59375 C 66.103693,34.1898 63.633715,33.148141 61,32.5625 L 61,25.03125 C 61,24.468168 60.554,24 60,24 L 52,24 z M 56,44 C 62.072,44.000001 67,48.928 67,55 C 67,61.072 62.072,66 56,66 C 49.928001,66 45,61.072 45,55 C 45.000001,48.928001 49.928,44 56,44 z" display="inline" enable-background="accumulate" opacity=".5" overflow="visible" visibility="visible" style="marker:none"/><path id="rect2568" fill="url(#linearGradient3367)" fill-opacity="1" fill-rule="nonzero" stroke="none" stroke-dasharray="none" stroke-dashoffset="0" stroke-linecap="butt" stroke-linejoin="miter" stroke-miterlimit="4" stroke-opacity="1" stroke-width="1.7" marker-end="none" marker-mid="none" marker-start="none" d="M 52,25 C 51.446,25 51,25.468168 51,26.03125 L 51,33.5625 C 48.366285,34.148141 45.896307,35.1898 43.6875,36.59375 L 38.34375,31.25 C 37.945591,30.851841 37.297987,30.858263 36.90625,31.25 L 31.25,36.90625 C 30.858263,37.297987 30.851842,37.945592 31.25,38.34375 L 36.59375,43.6875 C 35.1898,45.896307 34.148141,48.366285 33.5625,51 L 26.03125,51 C 25.468168,51 25,51.446 25,52 L 25,60 C 25,60.554 25.468168,61 26.03125,61 L 33.5625,61 C 34.148141,63.633715 35.1898,66.103693 36.59375,68.3125 L 31.25,73.65625 C 30.851841,74.054409 30.858263,74.702011 31.25,75.09375 L 36.90625,80.75 C 37.297987,81.141737 37.945592,81.148156 38.34375,80.75 L 43.6875,75.40625 C 45.896307,76.8102 48.366285,77.851859 51,78.4375 L 51,85.96875 C 51,86.531832 51.446,87 52,87 L 60,87 C 60.554,87 61,86.531834 61,85.96875 L 61,78.4375 C 63.633715,77.851859 66.103693,76.8102 68.3125,75.40625 L 73.65625,80.75 C 74.054409,81.148159 74.702011,81.141737 75.09375,80.75 L 80.75,75.09375 C 81.141737,74.702013 81.148156,74.054405 80.75,73.65625 L 75.40625,68.3125 C 76.8102,66.103693 77.851859,63.633715 78.4375,61 L 85.96875,61 C 86.531832,61 87,60.554 87,60 L 87,52 C 87,51.446 86.531834,51 85.96875,51 L 78.4375,51 C 77.851859,48.366285 76.8102,45.896307 75.40625,43.6875 L 80.75,38.34375 C 81.148159,37.945591 81.141737,37.297987 80.75,36.90625 L 75.09375,31.25 C 74.702013,30.858263 74.054405,30.851842 73.65625,31.25 L 68.3125,36.59375 C 66.103693,35.1898 63.633715,34.148141 61,33.5625 L 61,26.03125 C 61,25.468168 60.554,25 60,25 L 52,25 z M 56,45 C 62.072,45.000001 67,49.928 67,56 C 67,62.072 62.072,67 56,67 C 49.928001,67 45,62.072 45,56 C 45.000001,49.928001 49.928,45 56,45 z" display="inline" enable-background="accumulate" opacity="1" overflow="visible" visibility="visible" style="marker:none"/></g></svg>