<svg xmlns="http://www.w3.org/2000/svg" xmlns:svg="http://www.w3.org/2000/svg" xmlns:xlink="http://www.w3.org/1999/xlink" id="svg3169" width="112" height="112" version="1.1"><metadata id="metadata90"/><defs id="defs3171"><linearGradient id="linearGradient8265-821-176-38-919-66-249"><stop id="stop2687" offset="0" stop-color="#fff" stop-opacity="1"/><stop id="stop2689" offset="1" stop-color="#fff" stop-opacity="0"/></linearGradient><linearGradient id="linearGradient3202"><stop id="stop3204" offset="0" stop-color="#fff" stop-opacity="1"/><stop id="stop3206" offset="1" stop-color="#ced3d6" stop-opacity="1"/></linearGradient><linearGradient id="linearGradient2238"><stop id="stop2240" offset="0" stop-color="#fff" stop-opacity="1"/><stop id="stop2242" offset="1" stop-color="#fff" stop-opacity="0"/></linearGradient><linearGradient id="linearGradient3242-593-605-251-305"><stop id="stop2749" offset="0" stop-color="#d78ec1" stop-opacity="1"/><stop id="stop2751" offset=".262" stop-color="#c564be" stop-opacity="1"/><stop id="stop2753" offset=".661" stop-color="#9d3ea4" stop-opacity="1"/><stop id="stop2755" offset="1" stop-color="#5e2c73" stop-opacity="1"/></linearGradient><linearGradient id="linearGradient3332-412-419-652-471"><stop id="stop2759" offset="0" stop-color="#650d5c" stop-opacity="1"/><stop id="stop2761" offset="1" stop-color="#ad53a5" stop-opacity="1"/></linearGradient><linearGradient id="linearGradient5048"><stop id="stop5050" offset="0" stop-color="#000" stop-opacity="0"/><stop id="stop5056" offset=".5" stop-color="#000" stop-opacity="1"/><stop id="stop5052" offset="1" stop-color="#000" stop-opacity="0"/></linearGradient><linearGradient id="linearGradient5060"><stop id="stop5062" offset="0" stop-color="#000" stop-opacity="1"/><stop id="stop5064" offset="1" stop-color="#000" stop-opacity="0"/></linearGradient><linearGradient id="linearGradient3382" x1="16.626" x2="20.055" y1="15.298" y2="24.628" gradientTransform="matrix(2.0897959,0,0,2.1973468,2.8448983,-38.115414)" gradientUnits="userSpaceOnUse" xlink:href="#linearGradient8265-821-176-38-919-66-249"/><linearGradient id="linearGradient3385" x1="24.289" x2="24.289" y1="13.998" y2="40.002" gradientTransform="matrix(2.2307691,0,0,2.2307695,-1.5384612,-46.230774)" gradientUnits="userSpaceOnUse" xlink:href="#linearGradient3202"/><linearGradient id="linearGradient3389" x1="12.579" x2="12.579" y1="-7.807" y2="41.827" gradientTransform="matrix(2.1070804,0,0,1.969682,2.4271839,-31.290906)" gradientUnits="userSpaceOnUse" xlink:href="#linearGradient2238"/><radialGradient id="radialGradient3418" cx="1.081" cy="10.166" r="23" fx="1.081" fy="10.166" gradientTransform="matrix(1.9407519e-7,2.9397704,-4.8206631,1.328044e-7,102.00616,-18.007619)" gradientUnits="userSpaceOnUse" xlink:href="#linearGradient3242-593-605-251-305"/><linearGradient id="linearGradient3420" x1="10.014" x2="10.014" y1="44.96" y2="2.876" gradientTransform="matrix(2.0638928,0,0,1.9290911,3.4666167,-32.321837)" gradientUnits="userSpaceOnUse" xlink:href="#linearGradient3332-412-419-652-471"/><linearGradient id="linearGradient3426" x1="302.857" x2="302.857" y1="366.648" y2="609.505" gradientTransform="matrix(2.774389,0,0,1.969706,-1892.179,-872.8854)" gradientUnits="userSpaceOnUse" xlink:href="#linearGradient5048"/><radialGradient id="radialGradient3428" cx="605.714" cy="486.648" r="117.143" fx="605.714" fy="486.648" gradientTransform="matrix(2.774389,0,0,1.969706,-1891.633,-872.8854)" gradientUnits="userSpaceOnUse" xlink:href="#linearGradient5060"/><radialGradient id="radialGradient3430" cx="605.714" cy="486.648" r="117.143" fx="605.714" fy="486.648" gradientTransform="matrix(-2.774389,0,0,1.969706,112.7623,-872.8854)" gradientUnits="userSpaceOnUse" xlink:href="#linearGradient5060"/><linearGradient id="linearGradient2899" x1="16.626" x2="20.055" y1="15.298" y2="24.628" gradientTransform="matrix(2.2639457,0,0,2.3581283,2.6653062,2.9249212)" gradientUnits="userSpaceOnUse" xlink:href="#linearGradient8265-821-176-38-919-66-249"/><linearGradient id="linearGradient2902" x1="24.289" x2="24.289" y1="13.998" y2="40.002" gradientTransform="matrix(2.4147542,0,0,2.4001997,-2.0365775,-5.8053839)" gradientUnits="userSpaceOnUse" xlink:href="#linearGradient3202"/><linearGradient id="linearGradient2906" x1="12.579" x2="12.579" y1="-7.807" y2="41.827" gradientTransform="matrix(2.286814,0,0,2.1261803,2.1136871,10.110529)" gradientUnits="userSpaceOnUse" xlink:href="#linearGradient2238"/><radialGradient id="radialGradient2935" cx="1.081" cy="10.166" r="23" fx="1.081" fy="10.166" gradientTransform="matrix(2.1008175e-7,3.1630503,-5.2182522,1.4289109e-7,110.048,24.561361)" gradientUnits="userSpaceOnUse" xlink:href="#linearGradient3242-593-605-251-305"/><linearGradient id="linearGradient2937" x1="10.014" x2="10.014" y1="44.96" y2="2.876" gradientTransform="matrix(2.2341145,0,0,2.0756084,3.3812995,9.1599573)" gradientUnits="userSpaceOnUse" xlink:href="#linearGradient3332-412-419-652-471"/><linearGradient id="linearGradient2943" x1="302.857" x2="302.857" y1="366.648" y2="609.505" gradientTransform="matrix(2.774389,0,0,1.969706,-1892.179,-872.8854)" gradientUnits="userSpaceOnUse" xlink:href="#linearGradient5048"/><radialGradient id="radialGradient2945" cx="605.714" cy="486.648" r="117.143" fx="605.714" fy="486.648" gradientTransform="matrix(2.774389,0,0,1.969706,-1891.633,-872.8854)" gradientUnits="userSpaceOnUse" xlink:href="#linearGradient5060"/><radialGradient id="radialGradient2947" cx="605.714" cy="486.648" r="117.143" fx="605.714" fy="486.648" gradientTransform="matrix(-2.774389,0,0,1.969706,112.7623,-872.8854)" gradientUnits="userSpaceOnUse" xlink:href="#linearGradient5060"/></defs><g id="g2546" transform="matrix(0.05516063,0,0,0.02926683,105.06182,96.410423)"><rect id="rect2512" width="1339.633" height="478.357" x="-1559.252" y="-150.697" fill="url(#linearGradient2943)" fill-opacity="1" fill-rule="nonzero" stroke="none" stroke-width="1" display="inline" opacity=".402" overflow="visible" visibility="visible" style="marker:none"/><path id="path2514" fill="url(#radialGradient2945)" fill-opacity="1" fill-rule="nonzero" stroke="none" stroke-width="1" d="m -219.61876,-150.68038 c 0,0 0,478.33079 0,478.33079 142.874166,0.90045 345.40022,-107.16966 345.40014,-239.196175 0,-132.026537 -159.436816,-239.134595 -345.40014,-239.134615 z" display="inline" opacity=".402" overflow="visible" visibility="visible" style="marker:none"/><path id="path2516" fill="url(#radialGradient2947)" fill-opacity="1" fill-rule="nonzero" stroke="none" stroke-width="1" d="m -1559.2523,-150.68038 c 0,0 0,478.33079 0,478.33079 -142.8742,0.90045 -345.4002,-107.16966 -345.4002,-239.196175 0,-132.026537 159.4368,-239.134595 345.4002,-239.134615 z" display="inline" opacity=".402" overflow="visible" visibility="visible" style="marker:none"/></g><rect id="rect2551" width="104.998" height="84.998" x="4.501" y="16.501" fill="url(#radialGradient2935)" fill-opacity="1" fill-rule="evenodd" stroke="url(#linearGradient2937)" stroke-dasharray="none" stroke-dashoffset="0" stroke-linecap="round" stroke-linejoin="round" stroke-miterlimit="4" stroke-opacity="1" stroke-width="1.002" rx="5.601" ry="5.567"/><g id="g3503" transform="matrix(2.3617497,0,0,2.3312255,0.31765105,0.71941507)"><path id="path13905" fill="#eeeeec" fill-rule="evenodd" stroke="none" d="M 5.71875,7 23.59375,24.96875 10.5625,7 5.71875,7 z" display="inline" opacity=".071"/><path id="path13907" fill="#eeeeec" fill-rule="evenodd" stroke="none" d="M 45.15625,7.46875 25.0625,24.8125 46,11.78125 46,9.15625 C 46,8.4558663 45.668987,7.8640444 45.15625,7.46875 z" display="inline" opacity=".071"/><path id="path13909" fill="#eeeeec" fill-rule="evenodd" stroke="none" d="M 24.90625,25.375 46,35.6875 46,26.96875 24.90625,25.375 z" display="inline" opacity=".071"/><path id="path13911" fill="#eeeeec" fill-rule="evenodd" stroke="none" d="M 24.5625,25.6875 30.03125,43 l 9.75,0 L 24.5625,25.6875 z" display="inline" opacity=".071"/><path id="path13913" fill="#eeeeec" fill-rule="evenodd" stroke="none" d="M 23.875,25.8125 C 23.463627,25.665381 9.9514594,37.061203 3.21875,42.78125 3.5037244,42.918789 3.8174992,43 4.15625,43 L 10.0625,43 23.875,25.8125 z" display="inline" opacity=".071"/><path id="path13915" fill="#000" fill-opacity="1" fill-rule="evenodd" stroke="none" stroke-width="1" d="M 2,22.65625 2,31.625 23,25.71875 2,22.65625 z" display="inline" enable-background="accumulate" opacity=".021" overflow="visible" visibility="visible" style="marker:none"/><path id="path13917" fill="#eeeeec" fill-rule="evenodd" stroke="none" d="M 2.03125,8.78125 C 2.009942,8.9036079 2,9.0276113 2,9.15625 l 0,7.90625 22.03125,8.15625 -22,-16.4375 z" display="inline" opacity=".071"/><path id="path13919" fill="#eeeeec" fill-rule="evenodd" stroke="none" d="M 21.9375,7 24.65625,24.5625 35.8125,7 21.9375,7 z" display="inline" opacity=".071"/><path id="path13921" fill="#eeeeec" fill-rule="evenodd" stroke="none" d="M 24.28125,25.90625 20.78125,43 26.6875,43 24.28125,25.90625 z" display="inline" opacity=".071"/><path id="path13923" fill="#000" fill-opacity="1" fill-rule="evenodd" stroke="none" d="M 10.65625,7 23.96875,24.78125 18.625,7 10.65625,7 z" display="inline" opacity=".021"/><path id="path13925" fill="#fff" fill-opacity="1" fill-rule="evenodd" stroke="none" d="m 41.1875,7 -11,12.75 L 44.34375,7.0625 C 44.181596,7.0239823 44.018018,7 43.84375,7 L 41.1875,7 z" display="inline" opacity=".021"/><path id="path13927" fill="#000" fill-opacity="1" fill-rule="evenodd" stroke="none" stroke-width="1" d="M 46,15.71875 24.96875,25.1875 46,22.6875 46,15.71875 z" display="inline" enable-background="accumulate" opacity=".021" overflow="visible" visibility="visible" style="marker:none"/><path id="path13929" fill="#fff" fill-opacity="1" fill-rule="evenodd" stroke="none" d="M 24.96875,25.8125 46,40.90625 c 6.06e-4,-0.02116 0,-0.04119 0,-0.0625 l 0,-3.25 L 24.96875,25.8125 z" display="inline" opacity=".021"/><path id="path13931" fill="#000" fill-opacity="1" fill-rule="evenodd" stroke="none" stroke-width="1" d="M 24.0625,25.90625 C 23.927882,25.761819 16.769429,37.21187 13.53125,43 l 6.53125,0 4,-17.09375 z" display="inline" enable-background="accumulate" opacity=".021" overflow="visible" visibility="visible" style="marker:none"/><path id="path13933" fill="#fff" fill-opacity="1" fill-rule="evenodd" stroke="none" d="M 23.25,25.875 2,33.0625 2,40.65625 23.25,25.875 z" display="inline" opacity=".021"/><path id="path13935" fill="#fff" fill-opacity="1" fill-rule="evenodd" stroke="none" d="m 2,17.53125 0,3.1875 21.65625,4.8125 -21.65625,-8 z" display="inline" opacity=".021"/><path id="path13937" fill="#fff" fill-opacity="1" fill-rule="evenodd" stroke="none" d="m 15.34375,7 8.375,17.40625 L 16.78125,7 15.34375,7 z" display="inline" opacity=".071"/><path id="path13939" fill="#fff" fill-opacity="1" fill-rule="evenodd" stroke="none" d="M 46,18.1875 25.59375,25.15625 46,20.21875 46,18.1875 z" display="inline" opacity=".111"/><path id="path13941" fill="#fff" fill-opacity="1" fill-rule="evenodd" stroke="none" d="M 23.71875,25.46875 2,27 2,29.6875 23.71875,25.46875 z" display="inline" opacity=".128"/><path id="path13943" fill="#fff" fill-opacity="1" fill-rule="evenodd" stroke="none" d="M 19.21875,30.5625 5.625,43 l 2.46875,0 11.125,-12.4375 z" display="inline" opacity=".07"/><path id="path13945" fill="#fff" fill-opacity="1" fill-rule="evenodd" stroke="none" d="M 29.84375,29.8125 44,43 c 1.125099,-0.0806 2,-1.009919 2,-2.15625 l 0,-0.125 L 29.84375,29.8125 z" display="inline" opacity=".093"/><path id="path13947" fill="#fff" fill-opacity="1" fill-rule="evenodd" stroke="none" d="M 27.21875,26.4375 46,35 46,31.53125 27.21875,26.4375 z" display="inline" opacity=".071"/><path id="path13949" fill="#fff" fill-opacity="1" fill-rule="evenodd" stroke="none" d="M 2.03125,8.71875 C 2.0024997,8.859964 2,9.0062984 2,9.15625 l 0,1.625 L 18.6875,21.6875 2.03125,8.71875 z" display="inline" opacity=".067"/><path id="path13951" fill="#fff" fill-opacity="1" fill-rule="evenodd" stroke="none" d="M 33.4375,7 25.15625,23.625 35.90625,7 33.4375,7 z" display="inline" opacity=".073"/><path id="path9905" fill="#eeeeec" fill-rule="evenodd" stroke="none" d="M 24.28125,25.90625 25,43 26.6875,43 24.28125,25.90625 z" display="inline" opacity=".101"/></g><rect id="rect2556" width="102.996" height="82.996" x="5.502" y="17.502" fill="none" stroke="url(#linearGradient2906)" stroke-dasharray="none" stroke-dashoffset="0" stroke-linecap="round" stroke-linejoin="round" stroke-miterlimit="4" stroke-opacity="1" stroke-width="1.004" opacity=".4" rx="4.419" ry="4.394"/><path id="rect3594" fill="#004c8f" fill-opacity="1" fill-rule="nonzero" stroke="none" stroke-width=".5" d="m 52.144472,25.64551 c -0.603044,0 -1.056455,0.99874 -1.056455,2.252996 l 0,7.960605 c -2.427807,0.550197 -4.672242,1.493879 -6.716035,2.778696 l -5.659582,-5.6325 c -0.891168,-0.886923 -1.912878,-1.250464 -2.339295,-0.826096 l -5.282273,5.256999 c -0.426417,0.42437 -0.06109,1.441183 0.830073,2.328105 l 5.659579,5.632499 c -1.291002,2.034006 -2.239227,4.267694 -2.79206,6.68388 l -7.998873,0 c -1.260305,0 -2.263832,0.451246 -2.263832,1.0514 l 0,7.510011 c 0,0.600137 1.00353,1.051384 2.263832,1.051384 l 7.998873,0 c 0.552833,2.416185 1.501058,4.649892 2.79206,6.683916 l -5.659579,5.632483 c -0.89117,0.886901 -1.256492,1.903715 -0.830073,2.328101 l 5.282273,5.256999 c 8.526244,-8.312988 29.736623,-10.066071 39.088839,0 l 5.282276,-5.256999 c 0.426416,-0.424369 0.0611,-1.4412 -0.830073,-2.328101 l -5.65958,-5.632483 c 1.291001,-2.034024 2.239229,-4.267731 2.792059,-6.683916 l 7.998873,0 c 1.260305,0 2.263833,-0.451247 2.263833,-1.051384 l 0,-7.510011 c 0,-0.600154 -1.003528,-1.0514 -2.263833,-1.0514 l -7.998873,0 c -0.55283,-2.416186 -1.501058,-4.649874 -2.792059,-6.68388 l 5.65958,-5.632499 c 0.89117,-0.886922 1.256489,-1.903735 0.830073,-2.328105 l -5.282277,-5.256999 c -0.426416,-0.424368 -1.448122,-0.06099 -2.339292,0.826096 l -5.659582,5.6325 C 65.419275,37.35299 63.174843,36.409308 60.747032,35.859111 l 0,-7.960605 c 0,-1.254256 -0.453409,-2.252996 -1.056456,-2.252996 l -7.546104,0 z m 3.773053,21.628816 c 5.331777,0 9.659017,4.30651 9.659017,9.612774 0,5.306263 -4.32724,9.612811 -9.659017,9.612811 -5.331776,0 -9.659015,-4.306548 -9.659015,-9.612811 0,-5.306264 4.327239,-9.612774 9.659015,-9.612774 z" display="inline" enable-background="accumulate" opacity=".3" overflow="visible" visibility="visible" style="marker:none"/><path id="path3625" fill="url(#linearGradient2902)" fill-opacity="1" fill-rule="nonzero" stroke="none" stroke-width=".5" d="m 52.144472,27.797414 c -0.603044,0 -1.056455,0.997474 -1.056455,2.250184 l 0,7.950671 c -2.427807,0.549493 -4.672242,1.49198 -6.716035,2.775228 L 38.7124,35.148026 c -0.891168,-0.885814 -1.912878,-1.248923 -2.339295,-0.825101 l -5.282273,5.250457 c -0.426417,0.423841 -0.06109,1.439403 0.830073,2.325199 l 5.659579,5.625452 c -1.291002,2.031486 -2.239227,4.262387 -2.79206,6.675577 l -7.998873,0 c -1.260305,0 -2.263832,0.450681 -2.263832,1.05007 l 0,7.500639 c 0,0.599403 1.00353,1.050085 2.263832,1.050085 l 7.998873,0 c 0.552833,2.413171 1.501058,4.644072 2.79206,6.675543 l -5.659579,5.62547 c -0.89117,0.885815 -1.256492,1.901356 -0.830073,2.325197 l 5.282273,5.250438 c 0.426417,0.423841 1.448127,0.0609 2.339295,-0.825063 l 5.659582,-5.625473 c 2.043793,1.283214 4.288228,2.22572 6.716035,2.77523 l 0,7.95067 c 0,1.252693 0.453411,2.250183 1.056455,2.250183 l 7.546104,0 c 0.603047,0 1.056458,-0.997491 1.056458,-2.250183 l 0,-7.950671 c 2.427809,-0.549509 4.672241,-1.492015 6.716035,-2.775229 l 5.659582,5.625472 c 0.89117,0.885778 1.912876,1.248904 2.339293,0.825063 l 5.282276,-5.250437 c 0.426416,-0.423841 0.0611,-1.439383 -0.830073,-2.325198 l -5.65958,-5.625469 c 1.291001,-2.031471 2.239229,-4.262372 2.792059,-6.675542 l 7.998873,0 c 1.260305,0 2.263833,-0.450682 2.263833,-1.050085 l 0,-7.50064 c 0,-0.599389 -1.003528,-1.05007 -2.263833,-1.05007 l -7.998873,0 c -0.55283,-2.41319 -1.501058,-4.644091 -2.792059,-6.675577 l 5.65958,-5.625452 c 0.89117,-0.885796 1.256489,-1.901358 0.830073,-2.325199 l -5.282277,-5.250457 c -0.426416,-0.42384 -1.448122,-0.06089 -2.339292,0.825101 l -5.659582,5.625471 c -2.043794,-1.283248 -4.288226,-2.225735 -6.716037,-2.775228 l 0,-7.950671 c 0,-1.25271 -0.453409,-2.250184 -1.056456,-2.250184 l -7.546104,0 z m 3.773053,21.601771 c 5.331777,0 9.659017,4.301171 9.659017,9.600813 0,5.299643 -4.32724,9.600777 -9.659017,9.600777 -5.331776,0 -9.659015,-4.301134 -9.659015,-9.600777 0,-5.299642 4.327239,-9.600813 9.659015,-9.600813 z" display="inline" enable-background="accumulate" overflow="visible" visibility="visible" style="marker:none"/><path id="path3333" fill="url(#linearGradient2899)" fill-opacity="1" fill-rule="evenodd" stroke="none" d="M 9.9523827,17 C 7.2169076,17 5,19.309123 5,22.158415 l 0,37.730023 c 0.00621,0.317431 0.1399195,0.617582 0.3684567,0.827647 0.2285515,0.210046 0.5311204,0.310782 0.8342653,0.277751 L 108.08027,44.19215 c 0.52408,-0.08621 0.91241,-0.552812 0.91973,-1.105362 l 0,-20.928373 C 109,19.309124 106.7831,17 104.04763,17 L 9.9523827,17 z" opacity=".2"/></svg>