<svg xmlns="http://www.w3.org/2000/svg" xmlns:svg="http://www.w3.org/2000/svg" xmlns:xlink="http://www.w3.org/1999/xlink" id="svg3675" width="128" height="128" version="1.0"><defs id="defs3677"><linearGradient id="linearGradient8838"><stop id="stop8840" offset="0" stop-color="#000" stop-opacity="1"/><stop id="stop8842" offset="1" stop-color="#000" stop-opacity="0"/></linearGradient><linearGradient id="linearGradient2490-182-124"><stop id="stop2788" offset="0" stop-color="#1f4b6a" stop-opacity="1"/><stop id="stop2790" offset="1" stop-color="#4083c2" stop-opacity="1"/></linearGradient><linearGradient id="linearGradient3242-187-536"><stop id="stop2778" offset="0" stop-color="#8badea" stop-opacity="1"/><stop id="stop2780" offset=".262" stop-color="#6396cd" stop-opacity="1"/><stop id="stop2782" offset=".661" stop-color="#3b7caf" stop-opacity="1"/><stop id="stop2784" offset="1" stop-color="#194c70" stop-opacity="1"/></linearGradient><linearGradient id="linearGradient4873"><stop id="stop4875" offset="0" stop-color="#fff" stop-opacity="1"/><stop id="stop4877" offset="1" stop-color="#fff" stop-opacity="0"/></linearGradient><linearGradient id="linearGradient2407" x1="63.397" x2="63.397" y1="-12.489" y2="5.468" gradientTransform="matrix(5.64345,0,0,5.6429422,-286.50588,83.30933)" gradientUnits="userSpaceOnUse" xlink:href="#linearGradient4873"/><radialGradient id="radialGradient2410" cx="23.896" cy="3.99" r="20.397" fx="23.896" fy="3.99" gradientTransform="matrix(0,6.102135,-8.0552513,0,96.659483,-138.25671)" gradientUnits="userSpaceOnUse" xlink:href="#linearGradient3242-187-536"/><linearGradient id="linearGradient2412" x1="18.379" x2="18.379" y1="44.98" y2="3.082" gradientTransform="matrix(2.5569423,0,0,2.5567709,3.1523875,2.1353877)" gradientUnits="userSpaceOnUse" xlink:href="#linearGradient2490-182-124"/><radialGradient id="radialGradient2415" cx="62.625" cy="4.625" r="10.625" fx="62.625" fy="4.625" gradientTransform="matrix(5.7750605,0,0,2.0085789,-297.14415,94.222906)" gradientUnits="userSpaceOnUse" xlink:href="#linearGradient8838"/></defs><path id="path8836" fill="url(#radialGradient2415)" fill-opacity="1" fill-rule="evenodd" stroke="none" stroke-width="1" d="m 125.87901,103.5126 c 0,11.7864 -27.471807,21.34118 -61.36001,21.34118 -33.888198,0 -61.3600168,-9.55478 -61.3600168,-21.34118 0,-11.786422 27.4718188,-21.341187 61.3600168,-21.341187 33.888203,0 61.36001,9.554765 61.36001,21.341187 l 0,0 z" display="inline" opacity=".5" overflow="visible" visibility="visible" style="marker:none"/><path id="path2555" fill="url(#radialGradient2410)" fill-opacity="1" stroke="url(#linearGradient2412)" stroke-dasharray="none" stroke-dashoffset="0" stroke-linecap="round" stroke-linejoin="round" stroke-miterlimit="4" stroke-opacity="1" stroke-width=".999" d="m 64.519014,11.483576 c -28.701626,0 -52.017803,23.314603 -52.017803,52.014306 0,28.699691 23.316177,52.014288 52.017803,52.014288 28.701614,0 52.017826,-23.314597 52.017796,-52.014288 0,-28.699703 -23.316182,-52.014306 -52.017796,-52.014306 z"/><path id="path8655" fill="none" stroke="url(#linearGradient2407)" stroke-dasharray="none" stroke-miterlimit="4" stroke-opacity="1" stroke-width=".999" d="M 115.5,63.496 C 115.5,90.752953 93.199766,114.73741 64.519635,114.5 35.007083,114.25468 13.845569,90.750522 13.5,63.496 13.143881,35.409382 36.786661,12.381294 64.519635,12.5 91.775038,12.616662 115.5,34.45973 115.5,63.496 l 0,0 z" opacity=".4"/><g id="g3243" transform="matrix(2.67,0,0,2.67,136.44375,-2.3532299)"><path font-stretch="normal" style="text-align:start;line-height:125%" id="path3295" fill="#000" fill-opacity="1" stroke="none" d="m -29.450843,13.153717 c 0.562985,5.499325 1.207856,10.960802 1.687101,16.481667 0.482028,0 1.047391,0 1.529419,0 0.39752,-5.301782 1.038697,-10.571527 1.501221,-15.866736 0.235772,-1.253831 -0.407984,-2.74252 -1.731999,-3.047145 -1.308328,-0.382514 -2.770054,0.564714 -2.944023,1.917755 -0.02885,0.169852 -0.04172,0.342238 -0.04172,0.514459 l -1e-6,0 z m -0.166856,22.358706 c -0.05953,1.636939 1.741632,2.920137 3.279478,2.401164 1.489513,-0.380147 2.274063,-2.252289 1.510684,-3.583058 -0.683355,-1.375642 -2.687256,-1.828891 -3.840007,-0.776055 -0.582694,0.478722 -0.968913,1.193389 -0.950154,1.95795 l -1e-6,-1e-6 z" font-family="Georgia" font-size="62.458" font-style="normal" font-variant="normal" font-weight="normal" opacity=".2" text-anchor="start" writing-mode="lr-tb"/><path font-stretch="normal" style="text-align:start;line-height:125%" id="text2315" fill="#fff" fill-opacity="1" stroke="none" d="m -29.450843,13.554676 c 0.562985,5.499325 1.207856,10.960802 1.687101,16.481667 0.482028,0 1.047391,0 1.529419,0 0.39752,-5.301782 1.038697,-10.571527 1.501221,-15.866736 0.235772,-1.253831 -0.407984,-2.74252 -1.731999,-3.047145 -1.308328,-0.382515 -2.770054,0.564714 -2.944023,1.917755 -0.02885,0.169852 -0.04172,0.342238 -0.04172,0.514459 l -1e-6,0 z m -0.166856,22.358706 c -0.05953,1.636939 1.741632,2.920137 3.279478,2.401164 1.489513,-0.380147 2.274063,-2.252289 1.510684,-3.583058 -0.683355,-1.375642 -2.687256,-1.828891 -3.840007,-0.776055 -0.582694,0.478722 -0.968913,1.193389 -0.950154,1.95795 l -1e-6,-1e-6 z" font-family="Georgia" font-size="62.458" font-style="normal" font-variant="normal" font-weight="normal" text-anchor="start" writing-mode="lr-tb"/></g></svg>