<svg xmlns="http://www.w3.org/2000/svg" xmlns:svg="http://www.w3.org/2000/svg" xmlns:xlink="http://www.w3.org/1999/xlink" id="svg4887" width="128" height="128" version="1.1"><defs id="defs4889"><linearGradient id="linearGradient2407" x1="63.397" x2="63.397" y1="-12.489" y2="5.468" gradientTransform="matrix(5.64345,0,0,5.6429422,-286.50588,19.30933)" gradientUnits="userSpaceOnUse" xlink:href="#linearGradient4873"/><linearGradient id="linearGradient4873"><stop id="stop4875" offset="0" stop-color="#fff" stop-opacity="1"/><stop id="stop4877" offset="1" stop-color="#fff" stop-opacity="0"/></linearGradient><radialGradient id="radialGradient2410" cx="23.896" cy="3.99" r="20.397" fx="23.896" fy="3.99" gradientTransform="matrix(0,6.102135,-8.0552513,0,96.659483,-202.25671)" gradientUnits="userSpaceOnUse" xlink:href="#linearGradient3242"/><linearGradient id="linearGradient3242"><stop id="stop3244" offset="0" stop-color="#f8b17e" stop-opacity="1"/><stop id="stop3246" offset=".262" stop-color="#e35d4f" stop-opacity="1"/><stop id="stop3248" offset=".661" stop-color="#c6262e" stop-opacity="1"/><stop id="stop3250" offset="1" stop-color="#690b54" stop-opacity="1"/></linearGradient><linearGradient id="linearGradient2412" x1="18.379" x2="18.379" y1="44.98" y2="3.082" gradientTransform="matrix(2.5569423,0,0,2.5567709,3.1523875,-61.864612)" gradientUnits="userSpaceOnUse" xlink:href="#linearGradient2490"/><linearGradient id="linearGradient2490"><stop id="stop2492" offset="0" stop-color="#791235" stop-opacity="1"/><stop id="stop2494" offset="1" stop-color="#dd3b27" stop-opacity="1"/></linearGradient><linearGradient id="linearGradient8838"><stop id="stop8840" offset="0" stop-color="#000" stop-opacity="1"/><stop id="stop8842" offset="1" stop-color="#000" stop-opacity="0"/></linearGradient><radialGradient id="radialGradient4885" cx="62.625" cy="4.625" r="10.625" fx="62.625" fy="4.625" gradientTransform="matrix(5.7750605,0,0,2.0085789,-297.14415,30.222906)" gradientUnits="userSpaceOnUse" xlink:href="#linearGradient8838"/></defs><metadata id="metadata4892"/><g id="layer1" transform="translate(0,64)"><path id="path8836" fill="url(#radialGradient4885)" fill-opacity="1" fill-rule="evenodd" stroke="none" stroke-width="1" d="m 125.87901,39.5126 c 0,11.7864 -27.471807,21.34118 -61.36001,21.34118 -33.888198,0 -61.3600168,-9.55478 -61.3600168,-21.34118 0,-11.786422 27.4718188,-21.341187 61.3600168,-21.341187 33.888203,0 61.36001,9.554765 61.36001,21.341187 l 0,0 z" display="inline" opacity=".5" overflow="visible" visibility="visible" style="marker:none"/><path id="path2555" fill="url(#radialGradient2410)" fill-opacity="1" stroke="url(#linearGradient2412)" stroke-dasharray="none" stroke-dashoffset="0" stroke-linecap="round" stroke-linejoin="round" stroke-miterlimit="4" stroke-opacity="1" stroke-width=".999" d="m 64.519014,-52.516424 c -28.701626,0 -52.017803,23.314603 -52.017803,52.014306 0,28.699691 23.316177,52.014288 52.017803,52.014288 28.701614,0 52.017826,-23.314597 52.017796,-52.014288 0,-28.699703 -23.316182,-52.014306 -52.017796,-52.014306 z"/><path id="path8655" fill="none" stroke="url(#linearGradient2407)" stroke-dasharray="none" stroke-miterlimit="4" stroke-opacity="1" stroke-width=".999" d="M 115.5,-0.504 C 115.5,26.752953 93.199766,50.73741 64.519635,50.5 35.007083,50.25468 13.845569,26.750522 13.5,-0.504 13.143881,-28.590618 36.786661,-51.618706 64.519635,-51.5 91.775038,-51.383338 115.5,-29.54027 115.5,-0.504 l 0,0 z" opacity=".4"/></g></svg>