<svg xmlns="http://www.w3.org/2000/svg" xmlns:svg="http://www.w3.org/2000/svg" xmlns:xlink="http://www.w3.org/1999/xlink" id="svg5439" width="128" height="128" version="1.1"><defs id="defs5441"><linearGradient id="linearGradient2862" x1="22.369" x2="22.369" y1="8.569" y2="37.738" gradientTransform="matrix(1.6555484,0,0,1.6455615,60.9673,-2.1000589)" gradientUnits="userSpaceOnUse" xlink:href="#linearGradient3943"/><linearGradient id="linearGradient3943"><stop id="stop3945" offset="0" stop-color="#fff" stop-opacity="1"/><stop id="stop3947" offset="1" stop-color="#fff" stop-opacity="0"/></linearGradient><radialGradient id="radialGradient5307" cx="69.448" cy="48.588" r="31" fx="69.448" fy="48.588" gradientTransform="matrix(0,1.7490455,-1.9047536,0,190.54801,-104.28675)" gradientUnits="userSpaceOnUse" xlink:href="#linearGradient3242-7"/><linearGradient id="linearGradient3242-7"><stop id="stop3244-5" offset="0" stop-color="#eef87e" stop-opacity="1"/><stop id="stop3246-9" offset=".262" stop-color="#cde34f" stop-opacity="1"/><stop id="stop3248-7" offset=".661" stop-color="#93b723" stop-opacity="1"/><stop id="stop3250-8" offset="1" stop-color="#5a7e0d" stop-opacity="1"/></linearGradient><linearGradient id="linearGradient5309" x1="72.422" x2="72.422" y1="122.132" y2="53.868" gradientTransform="matrix(0.72729259,0,0,0.73246814,33.998246,-28.457218)" gradientUnits="userSpaceOnUse" xlink:href="#linearGradient2490-3"/><linearGradient id="linearGradient2490-3"><stop id="stop2492-3" offset="0" stop-color="#365f0e" stop-opacity="1"/><stop id="stop2494-8" offset="1" stop-color="#84a718" stop-opacity="1"/></linearGradient><linearGradient id="linearGradient4948" x1="6.931" x2="11.17" y1="7.844" y2="12.083" gradientTransform="matrix(0.35355297,0.35355297,-0.35355297,0.35355297,31.277678,-50.217502)" gradientUnits="userSpaceOnUse" xlink:href="#linearGradient3587-6-5-9-9-2"/><linearGradient id="linearGradient3587-6-5-9-9-2"><stop id="stop3589-9-2-6-2-6" offset="0" stop-color="#000" stop-opacity="1"/><stop id="stop3591-7-4-6-3-4" offset="1" stop-color="#646464" stop-opacity="1"/></linearGradient><linearGradient id="linearGradient4952" x1="6.931" x2="11.17" y1="7.844" y2="12.083" gradientTransform="matrix(0.35355339,0.35355338,-0.35355339,0.35355338,20.777647,-50.217512)" gradientUnits="userSpaceOnUse" xlink:href="#linearGradient3587-6-5-9-2"/><linearGradient id="linearGradient3587-6-5-9-2"><stop id="stop3589-9-2-6-0" offset="0" stop-color="#000" stop-opacity="1"/><stop id="stop3591-7-4-6-2" offset="1" stop-color="#646464" stop-opacity="1"/></linearGradient><linearGradient id="linearGradient4956" x1="6.931" x2="11.17" y1="7.844" y2="12.083" gradientTransform="matrix(0.35355297,0.35355348,-0.35355297,0.35355348,23.060658,-50.217515)" gradientUnits="userSpaceOnUse" xlink:href="#linearGradient3587-6-5-0"/><linearGradient id="linearGradient3587-6-5-0"><stop id="stop3589-9-2-9" offset="0" stop-color="#000" stop-opacity="1"/><stop id="stop3591-7-4-9" offset="1" stop-color="#646464" stop-opacity="1"/></linearGradient><linearGradient id="linearGradient4858-6" x1="-9.189" x2="-8.744" y1="235.507" y2="250.046" gradientTransform="matrix(0.42685698,0,0,0.42685698,111.55614,-149.52779)" gradientUnits="userSpaceOnUse" xlink:href="#linearGradient3667-8-5"/><linearGradient id="linearGradient3667-8-5"><stop id="stop3669-8-4" offset="0" stop-color="#fff" stop-opacity="1"/><stop id="stop3671-6-2" offset="1" stop-color="#fff" stop-opacity="0"/></linearGradient><linearGradient id="linearGradient2877" x1="25" x2="25" y1="17.829" y2="8.197" gradientTransform="matrix(2.9999962,0,0,3.2459041,-10.999963,-78.713141)" gradientUnits="userSpaceOnUse" xlink:href="#linearGradient2781"/><linearGradient id="linearGradient2781"><stop id="stop2783" offset="0" stop-color="#cdcdcd" stop-opacity="1"/><stop id="stop2785" offset="1" stop-color="#fff" stop-opacity="1"/></linearGradient><linearGradient id="linearGradient3663" x1="302.857" x2="302.857" y1="366.648" y2="609.505" gradientTransform="matrix(0.03104752,0,0,0.01366805,0.7785389,15.669255)" gradientUnits="userSpaceOnUse" xlink:href="#linearGradient5048"/><linearGradient id="linearGradient5048"><stop id="stop5050" offset="0" stop-color="#000" stop-opacity="0"/><stop id="stop5056" offset=".5" stop-color="#000" stop-opacity="1"/><stop id="stop5052" offset="1" stop-color="#000" stop-opacity="0"/></linearGradient><radialGradient id="radialGradient3665" cx="605.714" cy="486.648" r="117.143" fx="605.714" fy="486.648" gradientTransform="matrix(0.03104752,0,0,0.01366805,0.7846491,15.669255)" gradientUnits="userSpaceOnUse" xlink:href="#linearGradient5060"/><linearGradient id="linearGradient5060"><stop id="stop5062" offset="0" stop-color="#000" stop-opacity="1"/><stop id="stop5064" offset="1" stop-color="#000" stop-opacity="0"/></linearGradient><radialGradient id="radialGradient5437" cx="605.714" cy="486.648" r="117.143" fx="605.714" fy="486.648" gradientTransform="matrix(-0.03104752,0,0,0.01366805,23.215356,15.669255)" gradientUnits="userSpaceOnUse" xlink:href="#linearGradient5060"/></defs><metadata id="metadata5444"/><g id="layer1" transform="translate(0,64)"><g id="g3217" transform="matrix(5.2812047,0,0,4.2176523,0.62557078,-45.223662)"><rect id="rect4173" width="14.992" height="3.319" x="4.504" y="20.681" fill="url(#linearGradient3663)" fill-opacity="1" fill-rule="nonzero" stroke="none" stroke-width="1" display="inline" opacity=".236" overflow="visible" visibility="visible" style="marker:none"/><path id="path5058" fill="url(#radialGradient3665)" fill-opacity="1" fill-rule="nonzero" stroke="none" stroke-width="1" d="m 19.495759,20.680731 c 0,0 0,3.3192 0,3.3192 1.598871,0.0062 3.865291,-0.743664 3.86529,-1.659813 0,-0.91615 -1.784219,-1.659387 -3.86529,-1.659387 z" display="inline" opacity=".236" overflow="visible" visibility="visible" style="marker:none"/><path id="path5018" fill="url(#radialGradient5437)" fill-opacity="1" fill-rule="nonzero" stroke="none" stroke-width="1" d="m 4.5042417,20.680731 c 0,0 0,3.3192 0,3.3192 -1.5988709,0.0062 -3.8652907,-0.743664 -3.8652907,-1.659813 0,-0.91615 1.784219,-1.659387 3.8652907,-1.659387 z" display="inline" opacity=".236" overflow="visible" visibility="visible" style="marker:none"/></g><path id="rect1887" fill="url(#linearGradient2877)" fill-opacity="1" stroke="#8c8c8c" stroke-dasharray="none" stroke-miterlimit="4" stroke-opacity="1" stroke-width="1" d="m 19.643637,-49.49999 c -3.357919,0 -5.143636,2.642075 -5.143636,5.999992 l 0,93 98.999989,0 0,-93 c 0,-3.357917 -2.0556,-5.999992 -5.41352,-5.999992 l -88.442833,0 z"/><path id="rect2779" fill="none" stroke="url(#linearGradient4858-6)" stroke-dasharray="none" stroke-dashoffset="0" stroke-linecap="butt" stroke-linejoin="miter" stroke-miterlimit="4" stroke-opacity="1" stroke-width="1" d="m 15.500001,-24.499997 96.999989,0 0,-18.45054 c 0,-4.431998 -1.87691,-5.549459 -5.03799,-5.549459 l -86.884733,0 c -3.161057,0 -5.077266,1.117461 -5.077266,5.549459 l 0,18.45054 z" color="#000" display="inline" enable-background="accumulate" overflow="visible" visibility="visible" style="marker:none"/><rect id="rect4122" width="98" height="72" x="15" y="-23" fill="#fff" fill-opacity="1" fill-rule="nonzero" stroke="none" stroke-width="1" color="#000" display="inline" enable-background="accumulate" overflow="visible" visibility="visible" style="marker:none"/><rect id="rect4122-3" width="30" height="72" x="15" y="-23" fill="#eee" fill-opacity="1" fill-rule="nonzero" stroke="none" stroke-width="1" color="#000" display="inline" enable-background="accumulate" overflow="visible" visibility="visible" style="marker:none"/><path id="path4146" fill="none" stroke="#a0a0a0" stroke-linecap="square" stroke-linejoin="miter" stroke-opacity="1" stroke-width="1" d="m 15.5,-23.499998 96.99999,0"/><path id="path4146-4" fill="gray" stroke="#b3b3b3" stroke-linecap="square" stroke-linejoin="miter" stroke-opacity="1" stroke-width="1" d="m 44.5,-22.499391 0,70.999393"/><path id="path4146-4-9" fill="gray" stroke="#fff" stroke-dasharray="none" stroke-linecap="square" stroke-linejoin="miter" stroke-miterlimit="4" stroke-opacity="1" stroke-width="1" d="m 43.5,-22.499998 0,71" opacity=".4"/><path id="path4146-0" fill="none" stroke="#000" stroke-dasharray="none" stroke-linecap="square" stroke-linejoin="miter" stroke-miterlimit="4" stroke-opacity="1" stroke-width="1" d="m 15.5,-22.499998 96.9999,0" opacity=".1"/><path id="path2398-7" fill="#fff" fill-opacity="1" fill-rule="evenodd" stroke="none" stroke-width="1" d="m 21.985089,-43.222013 1.264907,-1.277985 0.750004,0.75 -1.299286,1.24361 1.299286,1.25639 -0.750004,0.75 -1.256392,-1.299284 -1.2436,1.299284 L 20,-41.249998 21.29289,-42.499997 20,-43.749998 l 0.750004,-0.75 1.235085,1.277985 z" display="inline" enable-background="accumulate" opacity=".8" overflow="visible" visibility="visible" style="marker:none"/><path id="path2386-4" fill="url(#linearGradient4956)" fill-opacity="1" fill-rule="evenodd" stroke="none" d="m 21.985089,-44.222013 1.264907,-1.277985 0.750004,0.75 -1.299286,1.24361 1.299286,1.25639 -0.750004,0.75 -1.256392,-1.299284 -1.2436,1.299284 L 20,-42.249998 21.29289,-43.499997 20,-44.749998 l 0.750004,-0.75 1.235085,1.277985 z" opacity=".4"/><rect id="rect3892-1-1" width="4" height="1" x="29" y="-43" fill="#fff" fill-opacity="1" fill-rule="evenodd" stroke="none" stroke-width="1" color="#000" display="inline" enable-background="accumulate" opacity=".8" overflow="visible" visibility="visible" style="marker:none"/><rect stroke="none" style="marker:none" id="rect3892-9" width="4" height="1" x="29" y="-44" fill="url(#linearGradient4952)" fill-opacity="1" fill-rule="evenodd" color="#000" display="inline" enable-background="accumulate" opacity=".4" overflow="visible" visibility="visible"/><path id="rect3892-1-3-0" fill="#fff" fill-opacity="1" fill-rule="evenodd" stroke="none" stroke-width="1" d="m 40.999997,-44.499992 0,1.499998 -1.499997,0 0,0.999998 1.499997,0 0,1.499998 1.000006,0 0,-1.499998 1.499997,0 0,-0.999998 -1.499997,0 0,-1.499998 -1.000006,0 z" color="#000" display="inline" enable-background="accumulate" opacity=".8" overflow="visible" visibility="visible" style="marker:none"/><path id="rect3892-4-9" fill="url(#linearGradient4948)" fill-opacity="1" fill-rule="evenodd" stroke="none" d="m 40.999997,-45.499992 0,1.499998 -1.499997,0 0,0.999999 1.499997,0 0,1.499997 1.000006,0 0,-1.499997 1.499997,0 0,-0.999999 -1.499997,0 0,-1.499998 -1.000006,0 z" color="#000" display="inline" enable-background="accumulate" opacity=".4" overflow="visible" visibility="visible" style="marker:none"/><path id="path4146-46" fill="none" stroke="#fff" stroke-linecap="square" stroke-linejoin="miter" stroke-opacity="1" stroke-width="1" d="m 15.5,-24.499998 96.99999,0" opacity=".2"/><path id="path2262" fill="url(#radialGradient5307)" fill-opacity="1" fill-rule="nonzero" stroke="url(#linearGradient5309)" stroke-dasharray="none" stroke-dashoffset="0" stroke-linecap="round" stroke-linejoin="round" stroke-miterlimit="4" stroke-opacity="1" stroke-width=".985" d="m 89.5,27.499994 0,-16.007287 16.99999,0 0,16.007287 16.00729,0 0,17.000008 -16.00729,0 0,16.007288 -16.99999,0 0,-16.007288 -16.007286,0 0,-17.000008 16.007286,0 z" color="#000" display="inline" enable-background="accumulate" overflow="visible" visibility="visible" style="marker:none"/><path id="path2272" fill="none" stroke="url(#linearGradient2862)" stroke-dasharray="none" stroke-linecap="butt" stroke-linejoin="miter" stroke-miterlimit="4" stroke-opacity="1" stroke-width="1" d="m 90.5,28.499994 0,-16.000002 14.99999,0 0,16.000002 16,0 0,15.000008 -16,0 0,15.999998 -14.99999,0 0,-15.999998 -16.000002,0 0,-15.000008 16.000002,0 z" display="inline" opacity=".4"/></g></svg>