<svg xmlns="http://www.w3.org/2000/svg" xmlns:svg="http://www.w3.org/2000/svg" xmlns:xlink="http://www.w3.org/1999/xlink" id="svg3376" width="64" height="64" version="1.0"><defs id="defs3378"><linearGradient id="linearGradient10691-1"><stop id="stop10693-3" offset="0" stop-color="#000" stop-opacity="1"/><stop id="stop10695-1" offset="1" stop-color="#000" stop-opacity="0"/></linearGradient><radialGradient id="radialGradient2456" cx="6.703" cy="73.616" r="7.228" fx="6.703" fy="73.616" gradientTransform="matrix(2.5824009,0,0,0.5533716,14.690909,17.92982)" gradientUnits="userSpaceOnUse" xlink:href="#linearGradient10691-1"/><linearGradient id="linearGradient3924"><stop id="stop3926" offset="0" stop-color="#464646" stop-opacity="1"/><stop id="stop3928" offset=".35" stop-color="#8c8c8c" stop-opacity="1"/><stop id="stop3930" offset=".51" stop-color="#969696" stop-opacity="1"/><stop id="stop3932" offset=".62" stop-color="#aaa" stop-opacity="1"/><stop id="stop3934" offset="1" stop-color="#646464" stop-opacity="1"/></linearGradient><linearGradient id="linearGradient2453" x1="61.969" x2="61.969" y1="35.944" y2="43.378" gradientTransform="matrix(1.3158802,0,0,1.333511,-49.584575,1.4931321)" gradientUnits="userSpaceOnUse" xlink:href="#linearGradient3924"/><linearGradient id="linearGradient3912"><stop id="stop3914" offset="0" stop-color="#787878" stop-opacity="1"/><stop id="stop3916" offset=".35" stop-color="#bebebe" stop-opacity="1"/><stop id="stop3918" offset=".494" stop-color="#c8c8c8" stop-opacity="1"/><stop id="stop3920" offset=".589" stop-color="#e6e6e6" stop-opacity="1"/><stop id="stop3922" offset="1" stop-color="#8c8c8c" stop-opacity="1"/></linearGradient><linearGradient id="linearGradient2451" x1="361.106" x2="361.106" y1="87.05" y2="94.396" gradientTransform="matrix(1.3111548,0,0,1.3337028,-437.61398,-66.532889)" gradientUnits="userSpaceOnUse" xlink:href="#linearGradient3912"/><linearGradient id="linearGradient3342"><stop id="stop3344" offset="0" stop-color="#fff" stop-opacity="0"/><stop id="stop3346" offset="1" stop-color="#fff" stop-opacity="1"/></linearGradient><linearGradient id="linearGradient2448" x1="15.574" x2="23.578" y1="46.971" y2="46.971" gradientTransform="matrix(1.53067,0,0,1.3333333,-4.0902539,-4.1280028)" gradientUnits="userSpaceOnUse" spreadMethod="reflect" xlink:href="#linearGradient3342"/><linearGradient id="linearGradient3654"><stop id="stop3656" offset="0" stop-color="#76de98" stop-opacity="1"/><stop id="stop3658" offset=".5" stop-color="#37b862" stop-opacity="1"/><stop id="stop3660" offset="1" stop-color="#2f7b48" stop-opacity="1"/></linearGradient><radialGradient id="radialGradient2444" cx="12.244" cy="4.863" r="21" fx="12.244" fy="4.863" gradientTransform="matrix(2.4363487,0,3.9491736e-3,1.9045065,-13.907208,7.0346843)" gradientUnits="userSpaceOnUse" xlink:href="#linearGradient3654"/><linearGradient id="linearGradient6592-2-7"><stop id="stop6594-0-2" offset="0" stop-color="#fff" stop-opacity=".275"/><stop id="stop6596-2-5" offset="1" stop-color="#fff" stop-opacity="0"/></linearGradient><linearGradient id="linearGradient2441" x1="12.938" x2="15.25" y1="8.438" y2="19.813" gradientTransform="matrix(1.4761906,0,0,1.7999988,-3.4285715,-0.3999978)" gradientUnits="userSpaceOnUse" xlink:href="#linearGradient6592-2-7"/><linearGradient id="linearGradient3202"><stop id="stop3204" offset="0" stop-color="#fff" stop-opacity="1"/><stop id="stop3206" offset="1" stop-color="#d3fce1" stop-opacity="1"/></linearGradient><linearGradient id="linearGradient3366" x1="-83.757" x2="-92.223" y1="-7.838" y2="27.521" gradientTransform="matrix(0.8422526,-0.1960614,0.2016496,0.8189116,104.12502,0.3857707)" gradientUnits="userSpaceOnUse" xlink:href="#linearGradient3202"/></defs><g id="layer1"><path id="path2589" fill="url(#radialGradient2456)" fill-opacity="1" fill-rule="nonzero" stroke="none" stroke-width=".8" d="M 50.666665,58.666665 C 50.666665,60.875805 42.309314,62.666665 31.999998,62.666665 C 21.690683,62.666665 13.333333,60.875805 13.333333,58.666665 C 13.333333,56.457527 21.690683,54.666665 31.999998,54.666665 C 42.309314,54.666665 50.666665,56.457527 50.666665,58.666665 L 50.666665,58.666665 z" display="inline" opacity=".3" overflow="visible" visibility="visible" style="marker:none"/><path id="rect1789" fill="url(#linearGradient2451)" fill-opacity="1" fill-rule="nonzero" stroke="url(#linearGradient2453)" stroke-dasharray="none" stroke-dashoffset=".5" stroke-linecap="round" stroke-linejoin="round" stroke-miterlimit="4" stroke-opacity="1" stroke-width=".998" d="M 23.919786,48.499137 C 23.919786,48.499137 24.106341,54.176921 23.175861,55.500329 C 22.245381,56.823738 20.393895,56.839175 20.393895,56.839175 C 19.205803,56.978209 19.195975,59.500862 20.393895,59.500862 L 43.60601,59.500862 C 44.803931,59.500862 44.794351,56.976435 43.60601,56.839175 C 43.60601,56.839175 41.754604,56.823733 40.824137,55.500329 C 39.893671,54.176924 40.08012,48.499137 40.08012,48.499137 L 23.919786,48.499137 L 23.919786,48.499137 z" display="inline" enable-background="new" overflow="visible" visibility="visible" style="marker:none"/><path id="path3340" fill="none" stroke="url(#linearGradient2448)" stroke-linecap="square" stroke-linejoin="miter" stroke-opacity="1" stroke-width="1" d="M 20.51358,58.5 L 43.486421,58.5"/><rect id="rect2722" width="63" height="44" x=".5" y="4.5" fill="#1a1a1a" fill-opacity="1" stroke="#000" stroke-dasharray="none" stroke-dashoffset=".5" stroke-linecap="round" stroke-linejoin="round" stroke-miterlimit="4" stroke-opacity="1" stroke-width="1" rx="1.4" ry="1.333"/><rect id="rect2716" width="56" height="37" x="4" y="8" fill="url(#radialGradient2444)" fill-opacity="1" fill-rule="evenodd" stroke="none" display="inline" enable-background="new"/><path id="rect6588" fill="url(#linearGradient2441)" fill-opacity="1" stroke="none" d="M 1,4.999999 L 63,4.999999 L 63,19.400006 L 1,31.999999 L 1,4.999999 z"/><path id="path3372" fill="#1f6235" fill-opacity="1" fill-rule="nonzero" stroke="none" stroke-width="1.003" d="M 40.525003,11.00593 C 40.061581,10.960192 39.600851,11.180886 39.362747,11.604549 L 29.217869,29.651969 L 22.695366,24.609488 C 22.114371,24.30081 21.389486,24.499389 21.072011,25.064283 L 18.147047,28.715488 C 17.829577,29.280373 18.043146,29.984967 18.624141,30.293635 C 18.624141,30.293635 30.533413,39.857079 30.548107,39.864157 C 30.684276,39.936504 30.826675,39.972906 30.971425,39.990698 C 31.444273,40.048784 31.928176,39.832782 32.171238,39.400293 L 45.852953,15.061091 C 46.170423,14.496198 45.956851,13.791613 45.37586,13.482935 L 40.98588,11.140685 C 40.840628,11.063505 40.679477,11.021173 40.525003,11.00593 z" display="inline" overflow="visible" visibility="visible" style="marker:none"/><path id="path4368" fill="url(#linearGradient3366)" fill-opacity="1" fill-rule="nonzero" stroke="none" stroke-width="1.003" d="M 40.525003,12.00593 C 40.061581,11.960192 39.600851,12.180886 39.362747,12.604549 L 29.217869,30.651969 L 22.695366,25.609488 C 22.114371,25.30081 21.389486,25.499389 21.072011,26.064283 L 18.147047,29.715488 C 17.829577,30.280373 18.043146,30.984967 18.624141,31.293635 C 18.624141,31.293635 30.533413,40.857079 30.548107,40.864157 C 30.684276,40.936504 30.826675,40.972906 30.971425,40.990698 C 31.444273,41.048784 31.928176,40.832782 32.171238,40.400293 L 45.852953,16.061091 C 46.170423,15.496198 45.956851,14.791613 45.37586,14.482935 L 40.98588,12.140685 C 40.840628,12.063505 40.679477,12.021173 40.525003,12.00593 z" display="inline" overflow="visible" visibility="visible" style="marker:none"/></g></svg>