<svg xmlns="http://www.w3.org/2000/svg" xmlns:svg="http://www.w3.org/2000/svg" xmlns:xlink="http://www.w3.org/1999/xlink" id="svg3724" width="64" height="64" version="1.1"><defs id="defs3726"><linearGradient id="linearGradient2865" x1="17.592" x2="17.592" y1="7" y2="-.025" gradientTransform="matrix(2.6666668,0,0,2.6666668,-2.6666666,2.6652046)" gradientUnits="userSpaceOnUse" xlink:href="#linearGradient3251"/><linearGradient id="linearGradient3251"><stop id="stop3253" offset="0" stop-color="#917f6e" stop-opacity="1"/><stop id="stop3255" offset="1" stop-color="#cbbaa9" stop-opacity="1"/></linearGradient><linearGradient id="linearGradient2868" x1="40.007" x2="40.007" y1="12.911" y2="7.092" gradientTransform="matrix(2.0749165,0,0,2.0749072,-42.510696,0.7485812)" gradientUnits="userSpaceOnUse" xlink:href="#linearGradient4222"/><linearGradient id="linearGradient4222"><stop id="stop4224" offset="0" stop-color="#fff" stop-opacity="1"/><stop id="stop4226" offset="1" stop-color="#fff" stop-opacity="0"/></linearGradient><linearGradient id="linearGradient2871" x1="38.382" x2="38.382" y1="5.906" y2="22.698" gradientTransform="matrix(2.8458499,0,0,2.8458581,-72.561267,-7.642477)" gradientUnits="userSpaceOnUse" xlink:href="#linearGradient4222"/><linearGradient id="linearGradient2874" x1="39.906" x2="39.906" y1="6.123" y2="24.034" gradientTransform="matrix(2.6666668,0,0,2.6666668,-66.16667,-5.1666698)" gradientUnits="userSpaceOnUse" xlink:href="#linearGradient3243"/><linearGradient id="linearGradient3243"><stop id="stop3245" offset="0" stop-color="#fff4e9" stop-opacity="1"/><stop id="stop3247" offset="1" stop-color="#e7d6c5" stop-opacity="1"/></linearGradient><linearGradient id="linearGradient2876" x1="32.016" x2="32.016" y1="24.011" y2="5" gradientTransform="matrix(2.6666668,0,0,2.6666668,-66.16667,-5.1666698)" gradientUnits="userSpaceOnUse" xlink:href="#linearGradient3251"/><linearGradient id="linearGradient3283"><stop id="stop3285" offset="0" stop-color="#000" stop-opacity="1"/><stop id="stop3287" offset="1" stop-color="#000" stop-opacity="0"/></linearGradient><radialGradient id="radialGradient3722" cx="10.471" cy="20.147" r="9.215" fx="10.471" fy="20.147" gradientTransform="matrix(2.6045455,0,0,0.86818186,-3.2727258,33.174177)" gradientUnits="userSpaceOnUse" xlink:href="#linearGradient3283"/></defs><metadata id="metadata3729"/><g id="layer1"><path id="path3281" fill="url(#radialGradient3722)" fill-opacity="1" fill-rule="evenodd" stroke="none" stroke-width="1" d="M 48,50.66509 A 24,8.0000007 0 1 1 3.5000002e-7,50.66509 24,8.0000007 0 1 1 48,50.66509 z" display="inline" enable-background="accumulate" opacity=".3" overflow="visible" visibility="visible" style="marker:none"/><path id="path2463" fill="url(#linearGradient2874)" fill-opacity="1" fill-rule="evenodd" stroke="url(#linearGradient2876)" stroke-linecap="butt" stroke-linejoin="miter" stroke-opacity="1" stroke-width="1" d="M 29.833335,9.4999974 4.4999999,35.749999 26.500001,57.5 52.500002,32.166666 l 0,-22.6666686 -22.666668,0 z m 10.666667,8.0000006 c 2.208,0 4,1.792 4,4 0,2.208001 -1.792,4.000001 -4,4.000001 -2.208,0 -4,-1.792 -4,-4.000001 0,-2.208 1.792,-4 4,-4 z"/><path id="path3265" fill="none" stroke="url(#linearGradient2871)" stroke-linecap="butt" stroke-linejoin="miter" stroke-opacity="1" stroke-width="1" d="m 30.189532,10.499999 c 0,0 -24.3031237,25.12793 -24.3031237,25.12793 0,0 20.5990057,20.408962 20.5990057,20.408962 0,0 25.014586,-24.226496 25.014586,-24.226496 0,0 0,-21.310396 0,-21.310396 0,0 -21.310468,0 -21.310468,0 z" opacity=".6"/><path id="path3294" fill="none" stroke="url(#linearGradient2868)" stroke-linecap="butt" stroke-linejoin="miter" stroke-opacity="1" stroke-width="1" d="m 40.485965,16.504908 c 3.139946,-0.1107 5.728981,3.223976 4.835278,6.238873 -0.663638,2.95844 -4.30652,4.66339 -6.997711,3.253442 -2.77001,-1.223549 -3.735572,-5.118977 -1.837006,-7.484701 0.922287,-1.248032 2.445594,-2.019634 3.999439,-2.007614 z" opacity=".6"/><path id="path3298" fill="none" stroke="url(#linearGradient2865)" stroke-linecap="butt" stroke-linejoin="miter" stroke-opacity="1" stroke-width="1" d="m 41.333335,19.998539 c 2.957382,-1.565917 6.810731,-2.045651 10.47166,-2.127304 1.645725,-0.03669 3.309184,0.2984 4.92408,-0.08571 2.055312,-0.48888 3.455955,-1.994701 3.251064,-3.371331 C 59.705096,12.566292 57.22276,11.202132 54.894643,10.225932 52.829555,9.3600234 51.240125,7.816994 50.400147,6.1869592 49.975757,5.3634045 50.716909,4.4986634 51.905728,4.2331991 52.985717,3.9920364 54.11688,3.8967116 55.215848,4.1415831 56.888494,4.514281 58.863,4.9689706 59.641102,6.1540099"/></g></svg>