<svg xmlns="http://www.w3.org/2000/svg" xmlns:svg="http://www.w3.org/2000/svg" xmlns:xlink="http://www.w3.org/1999/xlink" id="svg2" width="64" height="64" version="1.0"><defs id="defs4"><linearGradient id="linearGradient4529"><stop id="stop4531" offset="0" stop-color="#7a7a7a" stop-opacity="1"/><stop id="stop4533" offset=".254" stop-color="#ebebeb" stop-opacity="1"/><stop id="stop4535" offset=".675" stop-color="#b9b9b9" stop-opacity="1"/><stop id="stop4537" offset="1" stop-color="#878787" stop-opacity="1"/></linearGradient><linearGradient id="linearGradient4521"><stop id="stop4523" offset="0" stop-color="#fff" stop-opacity="1"/><stop id="stop4525" offset="1" stop-color="#fff" stop-opacity="0"/></linearGradient><linearGradient id="linearGradient10997"><stop id="stop10999" offset="0" stop-color="#000" stop-opacity="1"/><stop id="stop11001" offset="1" stop-color="#000" stop-opacity="0"/></linearGradient><linearGradient id="linearGradient7361" x1="19.49" x2="19.387" y1="6.144" y2="8.1" gradientUnits="userSpaceOnUse" xlink:href="#linearGradient10997"/><linearGradient id="linearGradient272-6"><stop id="stop273-1" offset="0" stop-color="#474747" stop-opacity="0"/><stop id="stop275-8" offset=".1" stop-color="#474747" stop-opacity="1"/><stop id="stop276-3" offset=".9" stop-color="#474747" stop-opacity="1"/><stop id="stop274-5" offset="1" stop-color="#474747" stop-opacity="0"/></linearGradient><linearGradient id="linearGradient178-9"><stop id="stop179-9" offset="0" stop-color="#fff" stop-opacity="0"/><stop id="stop180-2" offset=".108" stop-color="#d9d9d9" stop-opacity="1"/><stop id="stop181-7" offset=".921" stop-color="#d9d9d9" stop-opacity="1"/><stop id="stop182-0" offset="1" stop-color="#fff" stop-opacity="0"/></linearGradient><linearGradient id="linearGradient3832" x1=".612" x2="5.086" y1="372.578" y2="372.578" gradientTransform="matrix(9.3885424,0,0,0.2235366,29.130395,-51.784906)" gradientUnits="userSpaceOnUse" xlink:href="#linearGradient272-6"/><linearGradient id="linearGradient3834" x1=".612" x2="5.086" y1="372.578" y2="372.578" gradientTransform="matrix(9.3885418,0,0,0.2235361,29.130383,-45.865211)" gradientUnits="userSpaceOnUse" xlink:href="#linearGradient272-6"/><linearGradient id="linearGradient3836" x1="1.642" x2="15.343" y1="117.827" y2="117.827" gradientTransform="matrix(3.1119049,0,0,0.09123576,28.948795,19.750004)" gradientUnits="userSpaceOnUse" xlink:href="#linearGradient178-9"/><linearGradient id="linearGradient3679" x1="24.994" x2="25.011" y1="34.449" y2="39.183" gradientTransform="matrix(1.7350875,0,0,1.2191236,-12.597077,5.2688446)" gradientUnits="userSpaceOnUse" xlink:href="#linearGradient4529"/><radialGradient id="radialGradient3709" cx="6.5" cy="16.5" r="2" fx="6.5" fy="16.5" gradientTransform="translate(13.5,2.499999)" gradientUnits="userSpaceOnUse" xlink:href="#linearGradient6443"/><linearGradient id="linearGradient3715" x1="11.5" x2="11.5" y1="-8.5" y2="11.5" gradientTransform="translate(19.5,12.5)" gradientUnits="userSpaceOnUse" xlink:href="#linearGradient6270"/><linearGradient id="linearGradient6443"><stop id="stop6445" offset="0" stop-color="#f7ff00" stop-opacity="1"/><stop id="stop6447" offset="1" stop-color="#0f0" stop-opacity="1"/></linearGradient><linearGradient id="linearGradient6270"><stop id="stop6272" offset="0" stop-color="#f5f5f5" stop-opacity="1"/><stop id="stop6274" offset="1" stop-color="#c8c8c8" stop-opacity="1"/></linearGradient><linearGradient id="linearGradient5441"><stop id="stop5443" offset="0" stop-color="#555" stop-opacity="1"/><stop id="stop5445" offset="1" stop-color="#878787" stop-opacity="0"/></linearGradient><linearGradient id="linearGradient6393"><stop id="stop6395" offset="0" stop-color="#f5f5f5" stop-opacity="1"/><stop id="stop6397" offset="1" stop-color="#f5f5f5" stop-opacity="0"/></linearGradient><linearGradient id="linearGradient7361-2" x1="19.49" x2="19.387" y1="6.144" y2="8.1" gradientUnits="userSpaceOnUse" xlink:href="#linearGradient10997-4"/><linearGradient id="linearGradient10997-4"><stop id="stop10999-0" offset="0" stop-color="#000" stop-opacity="1"/><stop id="stop11001-3" offset="1" stop-color="#000" stop-opacity="0"/></linearGradient><linearGradient id="linearGradient4133" x1="24.408" x2="16.729" y1="35.759" y2="48.084" gradientTransform="translate(6.5492597,12.915548)" gradientUnits="userSpaceOnUse" xlink:href="#linearGradient6393"/><linearGradient id="linearGradient4136" x1="25.703" x2="32.308" y1="38.042" y2="48.084" gradientTransform="translate(6.5492597,12.915548)" gradientUnits="userSpaceOnUse" xlink:href="#linearGradient6393"/><linearGradient id="linearGradient4139" x1="24.408" x2="6.736" y1="35.759" y2="46.911" gradientTransform="translate(6.5492597,12.915548)" gradientUnits="userSpaceOnUse" xlink:href="#linearGradient6393"/><linearGradient id="linearGradient4142" x1="27.061" x2="43.96" y1="36.951" y2="47.034" gradientTransform="translate(6.5492597,12.915548)" gradientUnits="userSpaceOnUse" xlink:href="#linearGradient6393"/><linearGradient id="linearGradient4145" x1="24.399" x2="6.147" y1="35.276" y2="46.669" gradientTransform="translate(6.5492597,12.915548)" gradientUnits="userSpaceOnUse" xlink:href="#linearGradient5441"/><linearGradient id="linearGradient4148" x1="24.399" x2="17.21" y1="35.276" y2="47.549" gradientTransform="translate(6.5492597,12.915548)" gradientUnits="userSpaceOnUse" xlink:href="#linearGradient5441"/><linearGradient id="linearGradient4151" x1="24.399" x2="44.068" y1="35.276" y2="47.804" gradientTransform="translate(6.5492597,12.915548)" gradientUnits="userSpaceOnUse" xlink:href="#linearGradient5441"/><linearGradient id="linearGradient4154" x1="24.399" x2="31.843" y1="35.276" y2="47.757" gradientTransform="translate(6.5492597,12.915548)" gradientUnits="userSpaceOnUse" xlink:href="#linearGradient5441"/><linearGradient id="linearGradient7361-3" x1="19.49" x2="19.387" y1="6.144" y2="8.1" gradientUnits="userSpaceOnUse" xlink:href="#linearGradient10997-7"/><linearGradient id="linearGradient10997-7"><stop id="stop10999-6" offset="0" stop-color="#000" stop-opacity="1"/><stop id="stop11001-6" offset="1" stop-color="#000" stop-opacity="0"/></linearGradient><linearGradient id="linearGradient4511" x1="30" x2="30" y1="14" y2="44" gradientUnits="userSpaceOnUse" xlink:href="#linearGradient6270"/><linearGradient id="linearGradient4527" x1="31" x2="31" y1="5" y2="42" gradientUnits="userSpaceOnUse" xlink:href="#linearGradient4521"/></defs><path id="path5486" fill="none" stroke="url(#linearGradient4154)" stroke-dasharray="none" stroke-dashoffset="0" stroke-linecap="round" stroke-linejoin="miter" stroke-miterlimit="4" stroke-opacity="1" stroke-width="3" d="m 31.08548,37.41555 0,11 L 38.35697,60.5" color="#000" display="inline" enable-background="accumulate" overflow="visible" visibility="visible" style="marker:none"/><path id="path5488" fill="none" stroke="url(#linearGradient4151)" stroke-dasharray="none" stroke-dashoffset="0" stroke-linecap="round" stroke-linejoin="miter" stroke-miterlimit="4" stroke-opacity="1" stroke-width="3" d="m 31.08548,37.41555 0,11 18.94926,11.88573" color="#000" display="inline" enable-background="accumulate" overflow="visible" visibility="visible" style="marker:none"/><path id="path5492" fill="none" stroke="url(#linearGradient4148)" stroke-dasharray="none" stroke-dashoffset="0" stroke-linecap="round" stroke-linejoin="miter" stroke-miterlimit="4" stroke-opacity="1" stroke-width="3" d="m 31.04926,37.41555 0,11 L 23.77777,60.5" color="#000" display="inline" enable-background="accumulate" overflow="visible" visibility="visible" style="marker:none"/><path id="path5494" fill="none" stroke="url(#linearGradient4145)" stroke-dasharray="none" stroke-dashoffset="0" stroke-linecap="round" stroke-linejoin="miter" stroke-miterlimit="4" stroke-opacity="1" stroke-width="3" d="m 31.04926,37.41555 0,11 L 12.1,60.30128" color="#000" display="inline" enable-background="accumulate" overflow="visible" visibility="visible" style="marker:none"/><path id="path5508" fill="none" stroke="url(#linearGradient4142)" stroke-dasharray="none" stroke-dashoffset="0" stroke-linecap="round" stroke-linejoin="miter" stroke-miterlimit="4" stroke-opacity="1" stroke-width="1" d="m 31.08548,41.41555 0,7 18.92363,12.01821" color="#000" display="inline" enable-background="accumulate" overflow="visible" visibility="visible" style="marker:none"/><path id="path5512" fill="none" stroke="url(#linearGradient4139)" stroke-dasharray="none" stroke-dashoffset="0" stroke-linecap="round" stroke-linejoin="miter" stroke-miterlimit="4" stroke-opacity="1" stroke-width="1" d="m 31.04926,41.41555 0,7 -18.92363,12.01821" color="#000" display="inline" enable-background="accumulate" overflow="visible" visibility="visible" style="marker:none"/><path id="path5514" fill="none" stroke="url(#linearGradient4136)" stroke-dasharray="none" stroke-dashoffset="0" stroke-linecap="round" stroke-linejoin="miter" stroke-miterlimit="4" stroke-opacity="1" stroke-width="1" d="m 31.08548,41.41555 0,7 L 38.35697,60.5" color="#000" display="inline" enable-background="accumulate" overflow="visible" visibility="visible" style="marker:none"/><path id="path5516" fill="none" stroke="url(#linearGradient4133)" stroke-dasharray="none" stroke-dashoffset="0" stroke-linecap="round" stroke-linejoin="miter" stroke-miterlimit="4" stroke-opacity="1" stroke-width="1" d="m 31.04926,41.41555 c 0,2.75 0,7 0,7 L 23.77777,60.5" color="#000" display="inline" enable-background="accumulate" overflow="visible" visibility="visible" style="marker:none"/><g id="g3822" display="inline" transform="matrix(0.3174382,0,0,1,37.008035,-9)"><rect id="rect3824" width="42" height="1" x="34.877" y="31" fill="url(#linearGradient3832)" fill-opacity="1" fill-rule="nonzero" stroke="none" stroke-width="1" display="block" opacity=".65" overflow="visible" visibility="visible" style="marker:none"/><rect id="rect3826" width="42" height="1" x="34.877" y="29" fill="url(#linearGradient3834)" fill-opacity="1" fill-rule="nonzero" stroke="none" stroke-width="1" display="block" opacity=".65" overflow="visible" visibility="visible" style="marker:none"/><rect id="rect3828" width="41.5" height="1" x="34.627" y="30" fill="url(#linearGradient3836)" fill-opacity="1" fill-rule="nonzero" stroke="none" stroke-width="1" display="block" overflow="visible" visibility="visible" style="marker:none"/></g><rect id="rect3838" width="2.877" height="4.126" x="46.6" y="19.5" fill="#646464" fill-opacity="1" stroke="#3c3c3c" stroke-dasharray="none" stroke-miterlimit="4" stroke-opacity="1" stroke-width="1" ry="1.121"/><path id="path2887" fill="url(#linearGradient3715)" fill-opacity="1" stroke="#969696" stroke-linecap="butt" stroke-linejoin="round" stroke-opacity="1" stroke-width="1" d="m 15.5,13.5 0,27 c 0,0.942809 1.057191,2 2,2 l 28,0 c 0.942809,0 2,-1.057191 2,-2 l 0,-27 -5,-9 -22,0 -5,9 z"/><rect id="rect4503" width="31" height="28" x="16" y="14" fill="url(#linearGradient4511)" fill-opacity="1" stroke="none" rx="1.6" ry="1.6"/><path id="path3701" fill="none" stroke="url(#linearGradient4527)" stroke-linecap="butt" stroke-linejoin="round" stroke-opacity="1" stroke-width="1" d="m 16.5,13.5 0,27 c 0,0.471405 0.528595,1 1,1 l 28,0 c 0.471405,0 1,-0.528595 1,-1 l 0,-27 -4.5,-8 -21,0 -4.5,8 z" opacity=".4"/><rect id="rect2906" width="4.852" height="4.01" x="28.6" y="36.5" fill="#818181" fill-opacity="1" stroke="#515151" stroke-dasharray="none" stroke-miterlimit="4" stroke-opacity="1" stroke-width="1" rx="2" ry="2"/><rect id="rect8955" width="3" height="11" x="29.5" y="37.5" fill="#d9d9d9" fill-opacity="1" stroke="#828282" stroke-dasharray="none" stroke-miterlimit="4" stroke-opacity="1" stroke-width="1" rx="1.121" ry="1.121"/><path id="path6441" fill="url(#radialGradient3709)" fill-opacity="1" stroke="#828282" stroke-dasharray="none" stroke-linecap="square" stroke-linejoin="round" stroke-miterlimit="4" stroke-opacity="1" stroke-width="1" d="m 21.5,18.999999 a 1.5,1.5 0 0 1 -3,0 1.5,1.5 0 1 1 3,0 z"/><path id="path6477" fill="#fafafa" fill-opacity="1" stroke="none" d="m 25,18.7 a 1,1 0 0 1 -2,0 1,1 0 1 1 2,0 z"/><path id="path6471" fill="#646464" fill-opacity="1" stroke="none" d="m 25,19 a 1,1 0 0 1 -2,0 1,1 0 1 1 2,0 z"/><path id="path6534" fill="#fafafa" fill-opacity="1" stroke="none" d="m 38.5,16.7 c -0.276,0 -0.5,0.224 -0.5,0.5 0,0.276 0.224,0.5 0.5,0.5 0.276,0 0.5,-0.224 0.5,-0.5 0,-0.276 -0.224,-0.5 -0.5,-0.5 z m 2,0 c -0.276,0 -0.5,0.224 -0.5,0.5 0,0.276 0.224,0.5 0.5,0.5 0.276,0 0.5,-0.224 0.5,-0.5 0,-0.276 -0.224,-0.5 -0.5,-0.5 z m 2,0 c -0.276,0 -0.5,0.224 -0.5,0.5 0,0.276 0.224,0.5 0.5,0.5 0.276,0 0.5,-0.224 0.5,-0.5 0,-0.276 -0.224,-0.5 -0.5,-0.5 z m 2,0 c -0.276,0 -0.5,0.224 -0.5,0.5 0,0.276 0.224,0.5 0.5,0.5 0.276,0 0.5,-0.224 0.5,-0.5 0,-0.276 -0.224,-0.5 -0.5,-0.5 z m -6,2 c -0.276,0 -0.5,0.224 -0.5,0.5 0,0.276 0.224,0.5 0.5,0.5 0.276,0 0.5,-0.224 0.5,-0.5 0,-0.276 -0.224,-0.5 -0.5,-0.5 z m 2,0 c -0.276,0 -0.5,0.224 -0.5,0.5 0,0.276 0.224,0.5 0.5,0.5 0.276,0 0.5,-0.224 0.5,-0.5 0,-0.276 -0.224,-0.5 -0.5,-0.5 z m 2,0 c -0.276,0 -0.5,0.224 -0.5,0.5 0,0.276 0.224,0.5 0.5,0.5 0.276,0 0.5,-0.224 0.5,-0.5 0,-0.276 -0.224,-0.5 -0.5,-0.5 z m 2,0 c -0.276,0 -0.5,0.224 -0.5,0.5 0,0.276 0.224,0.5 0.5,0.5 0.276,0 0.5,-0.224 0.5,-0.5 0,-0.276 -0.224,-0.5 -0.5,-0.5 z m -6,2 c -0.276,0 -0.5,0.224 -0.5,0.5 0,0.276 0.224,0.5 0.5,0.5 0.276,0 0.5,-0.224 0.5,-0.5 0,-0.276 -0.224,-0.5 -0.5,-0.5 z m 2,0 c -0.276,0 -0.5,0.224 -0.5,0.5 0,0.276 0.224,0.5 0.5,0.5 0.276,0 0.5,-0.224 0.5,-0.5 0,-0.276 -0.224,-0.5 -0.5,-0.5 z m 2,0 c -0.276,0 -0.5,0.224 -0.5,0.5 0,0.276 0.224,0.5 0.5,0.5 0.276,0 0.5,-0.224 0.5,-0.5 0,-0.276 -0.224,-0.5 -0.5,-0.5 z m 2,0 c -0.276,0 -0.5,0.224 -0.5,0.5 0,0.276 0.224,0.5 0.5,0.5 0.276,0 0.5,-0.224 0.5,-0.5 0,-0.276 -0.224,-0.5 -0.5,-0.5 z"/><path id="path6509" fill="#666" fill-opacity="1" stroke="none" d="M 38.5,17 C 38.224,17 38,17.224 38,17.5 38,17.776 38.224,18 38.5,18 38.776,18 39,17.776 39,17.5 39,17.224 38.776,17 38.5,17 z m 2,0 C 40.224,17 40,17.224 40,17.5 40,17.776 40.224,18 40.5,18 40.776,18 41,17.776 41,17.5 41,17.224 40.776,17 40.5,17 z m 2,0 C 42.224,17 42,17.224 42,17.5 42,17.776 42.224,18 42.5,18 42.776,18 43,17.776 43,17.5 43,17.224 42.776,17 42.5,17 z m 2,0 C 44.224,17 44,17.224 44,17.5 44,17.776 44.224,18 44.5,18 44.776,18 45,17.776 45,17.5 45,17.224 44.776,17 44.5,17 z m -6,2 C 38.224,19 38,19.224 38,19.5 38,19.776 38.224,20 38.5,20 38.776,20 39,19.776 39,19.5 39,19.224 38.776,19 38.5,19 z m 2,0 C 40.224,19 40,19.224 40,19.5 40,19.776 40.224,20 40.5,20 40.776,20 41,19.776 41,19.5 41,19.224 40.776,19 40.5,19 z m 2,0 C 42.224,19 42,19.224 42,19.5 42,19.776 42.224,20 42.5,20 42.776,20 43,19.776 43,19.5 43,19.224 42.776,19 42.5,19 z m 2,0 C 44.224,19 44,19.224 44,19.5 44,19.776 44.224,20 44.5,20 44.776,20 45,19.776 45,19.5 45,19.224 44.776,19 44.5,19 z m -6,2 C 38.224,21 38,21.224 38,21.5 38,21.776 38.224,22 38.5,22 38.776,22 39,21.776 39,21.5 39,21.224 38.776,21 38.5,21 z m 2,0 C 40.224,21 40,21.224 40,21.5 40,21.776 40.224,22 40.5,22 40.776,22 41,21.776 41,21.5 41,21.224 40.776,21 40.5,21 z m 2,0 C 42.224,21 42,21.224 42,21.5 42,21.776 42.224,22 42.5,22 42.776,22 43,21.776 43,21.5 43,21.224 42.776,21 42.5,21 z m 2,0 C 44.224,21 44,21.224 44,21.5 44,21.776 44.224,22 44.5,22 44.776,22 45,21.776 45,21.5 45,21.224 44.776,21 44.5,21 z"/><path id="path6542" fill="#fafafa" fill-opacity="1" stroke="none" d="m 38.5,25.7 c -0.276,0 -0.5,0.224 -0.5,0.5 0,0.276 0.224,0.5 0.5,0.5 0.276,0 0.5,-0.224 0.5,-0.5 0,-0.276 -0.224,-0.5 -0.5,-0.5 z m 2,0 c -0.276,0 -0.5,0.224 -0.5,0.5 0,0.276 0.224,0.5 0.5,0.5 0.276,0 0.5,-0.224 0.5,-0.5 0,-0.276 -0.224,-0.5 -0.5,-0.5 z m 2,0 c -0.276,0 -0.5,0.224 -0.5,0.5 0,0.276 0.224,0.5 0.5,0.5 0.276,0 0.5,-0.224 0.5,-0.5 0,-0.276 -0.224,-0.5 -0.5,-0.5 z m 2,0 c -0.276,0 -0.5,0.224 -0.5,0.5 0,0.276 0.224,0.5 0.5,0.5 0.276,0 0.5,-0.224 0.5,-0.5 0,-0.276 -0.224,-0.5 -0.5,-0.5 z m -6,2 c -0.276,0 -0.5,0.224 -0.5,0.5 0,0.276 0.224,0.5 0.5,0.5 0.276,0 0.5,-0.224 0.5,-0.5 0,-0.276 -0.224,-0.5 -0.5,-0.5 z m 2,0 c -0.276,0 -0.5,0.224 -0.5,0.5 0,0.276 0.224,0.5 0.5,0.5 0.276,0 0.5,-0.224 0.5,-0.5 0,-0.276 -0.224,-0.5 -0.5,-0.5 z m 2,0 c -0.276,0 -0.5,0.224 -0.5,0.5 0,0.276 0.224,0.5 0.5,0.5 0.276,0 0.5,-0.224 0.5,-0.5 0,-0.276 -0.224,-0.5 -0.5,-0.5 z m 2,0 c -0.276,0 -0.5,0.224 -0.5,0.5 0,0.276 0.224,0.5 0.5,0.5 0.276,0 0.5,-0.224 0.5,-0.5 0,-0.276 -0.224,-0.5 -0.5,-0.5 z m -6,2 c -0.276,0 -0.5,0.224 -0.5,0.5 0,0.276 0.224,0.5 0.5,0.5 0.276,0 0.5,-0.224 0.5,-0.5 0,-0.276 -0.224,-0.5 -0.5,-0.5 z m 2,0 c -0.276,0 -0.5,0.224 -0.5,0.5 0,0.276 0.224,0.5 0.5,0.5 0.276,0 0.5,-0.224 0.5,-0.5 0,-0.276 -0.224,-0.5 -0.5,-0.5 z m 2,0 c -0.276,0 -0.5,0.224 -0.5,0.5 0,0.276 0.224,0.5 0.5,0.5 0.276,0 0.5,-0.224 0.5,-0.5 0,-0.276 -0.224,-0.5 -0.5,-0.5 z m 2,0 c -0.276,0 -0.5,0.224 -0.5,0.5 0,0.276 0.224,0.5 0.5,0.5 0.276,0 0.5,-0.224 0.5,-0.5 0,-0.276 -0.224,-0.5 -0.5,-0.5 z"/><path id="path6544" fill="#666" fill-opacity="1" stroke="none" d="M 38.5,26 C 38.224,26 38,26.224 38,26.5 38,26.776 38.224,27 38.5,27 38.776,27 39,26.776 39,26.5 39,26.224 38.776,26 38.5,26 z m 2,0 C 40.224,26 40,26.224 40,26.5 40,26.776 40.224,27 40.5,27 40.776,27 41,26.776 41,26.5 41,26.224 40.776,26 40.5,26 z m 2,0 C 42.224,26 42,26.224 42,26.5 42,26.776 42.224,27 42.5,27 42.776,27 43,26.776 43,26.5 43,26.224 42.776,26 42.5,26 z m 2,0 C 44.224,26 44,26.224 44,26.5 44,26.776 44.224,27 44.5,27 44.776,27 45,26.776 45,26.5 45,26.224 44.776,26 44.5,26 z m -6,2 C 38.224,28 38,28.224 38,28.5 38,28.776 38.224,29 38.5,29 38.776,29 39,28.776 39,28.5 39,28.224 38.776,28 38.5,28 z m 2,0 C 40.224,28 40,28.224 40,28.5 40,28.776 40.224,29 40.5,29 40.776,29 41,28.776 41,28.5 41,28.224 40.776,28 40.5,28 z m 2,0 C 42.224,28 42,28.224 42,28.5 42,28.776 42.224,29 42.5,29 42.776,29 43,28.776 43,28.5 43,28.224 42.776,28 42.5,28 z m 2,0 C 44.224,28 44,28.224 44,28.5 44,28.776 44.224,29 44.5,29 44.776,29 45,28.776 45,28.5 45,28.224 44.776,28 44.5,28 z m -6,2 C 38.224,30 38,30.224 38,30.5 38,30.776 38.224,31 38.5,31 38.776,31 39,30.776 39,30.5 39,30.224 38.776,30 38.5,30 z m 2,0 C 40.224,30 40,30.224 40,30.5 40,30.776 40.224,31 40.5,31 40.776,31 41,30.776 41,30.5 41,30.224 40.776,30 40.5,30 z m 2,0 C 42.224,30 42,30.224 42,30.5 42,30.776 42.224,31 42.5,31 42.776,31 43,30.776 43,30.5 43,30.224 42.776,30 42.5,30 z m 2,0 C 44.224,30 44,30.224 44,30.5 44,30.776 44.224,31 44.5,31 44.776,31 45,30.776 45,30.5 45,30.224 44.776,30 44.5,30 z"/><path id="path5522" fill="none" stroke="gray" stroke-dasharray="none" stroke-linecap="square" stroke-linejoin="miter" stroke-miterlimit="4" stroke-opacity="1" stroke-width="1" d="m 19.5,26.5 9,0" opacity=".6"/><path id="path5524" fill="none" stroke="gray" stroke-dasharray="none" stroke-linecap="square" stroke-linejoin="miter" stroke-miterlimit="4" stroke-opacity="1" stroke-width="1" d="m 19.5,28.5 9,0" opacity=".6"/><path id="path5526" fill="none" stroke="gray" stroke-dasharray="none" stroke-linecap="square" stroke-linejoin="miter" stroke-miterlimit="4" stroke-opacity="1" stroke-width="1" d="m 19.5,30.5 9,0" opacity=".6"/><path id="path5530" fill="none" stroke="#fff" stroke-dasharray="none" stroke-linecap="square" stroke-linejoin="miter" stroke-miterlimit="4" stroke-opacity="1" stroke-width="1" d="m 19.5,27.5 9,0" opacity=".6"/><path id="path5532" fill="none" stroke="#fff" stroke-dasharray="none" stroke-linecap="square" stroke-linejoin="miter" stroke-miterlimit="4" stroke-opacity="1" stroke-width="1" d="m 19.5,29.5 9,0" opacity=".6"/><path id="path5534" fill="none" stroke="#fff" stroke-dasharray="none" stroke-linecap="square" stroke-linejoin="miter" stroke-miterlimit="4" stroke-opacity="1" stroke-width="1" d="m 19.5,31.5 9,0" opacity=".6"/><rect id="rect3872" width="8.861" height="4.861" x="26.57" y="47.569" fill="url(#linearGradient3679)" fill-opacity="1" stroke="#5a5c58" stroke-dasharray="none" stroke-linecap="round" stroke-linejoin="round" stroke-miterlimit="4" stroke-opacity="1" stroke-width="1.139" rx="1.744" ry="1.744"/><path id="path8617" fill="#fff" fill-opacity=".72" fill-rule="nonzero" stroke="none" stroke-width="1.14" d="m 30.393311,49.207564 a 1.3013156,0.91434276 0 0 1 -2.602631,0 1.3013156,0.91434276 0 1 1 2.602631,0 z" display="block" enable-background="new" overflow="visible" visibility="visible" style="marker:none"/><path id="path2902" fill="#fafafa" fill-opacity="1" stroke="none" d="m 38.5,34.7 c -0.276,0 -0.5,0.224 -0.5,0.5 0,0.276 0.224,0.5 0.5,0.5 0.276,0 0.5,-0.224 0.5,-0.5 0,-0.276 -0.224,-0.5 -0.5,-0.5 z m 2,0 c -0.276,0 -0.5,0.224 -0.5,0.5 0,0.276 0.224,0.5 0.5,0.5 0.276,0 0.5,-0.224 0.5,-0.5 0,-0.276 -0.224,-0.5 -0.5,-0.5 z m 2,0 c -0.276,0 -0.5,0.224 -0.5,0.5 0,0.276 0.224,0.5 0.5,0.5 0.276,0 0.5,-0.224 0.5,-0.5 0,-0.276 -0.224,-0.5 -0.5,-0.5 z m 2,0 c -0.276,0 -0.5,0.224 -0.5,0.5 0,0.276 0.224,0.5 0.5,0.5 0.276,0 0.5,-0.224 0.5,-0.5 0,-0.276 -0.224,-0.5 -0.5,-0.5 z m -6,2 c -0.276,0 -0.5,0.224 -0.5,0.5 0,0.276 0.224,0.5 0.5,0.5 0.276,0 0.5,-0.224 0.5,-0.5 0,-0.276 -0.224,-0.5 -0.5,-0.5 z m 2,0 c -0.276,0 -0.5,0.224 -0.5,0.5 0,0.276 0.224,0.5 0.5,0.5 0.276,0 0.5,-0.224 0.5,-0.5 0,-0.276 -0.224,-0.5 -0.5,-0.5 z m 2,0 c -0.276,0 -0.5,0.224 -0.5,0.5 0,0.276 0.224,0.5 0.5,0.5 0.276,0 0.5,-0.224 0.5,-0.5 0,-0.276 -0.224,-0.5 -0.5,-0.5 z m 2,0 c -0.276,0 -0.5,0.224 -0.5,0.5 0,0.276 0.224,0.5 0.5,0.5 0.276,0 0.5,-0.224 0.5,-0.5 0,-0.276 -0.224,-0.5 -0.5,-0.5 z m -6,2 c -0.276,0 -0.5,0.224 -0.5,0.5 0,0.276 0.224,0.5 0.5,0.5 0.276,0 0.5,-0.224 0.5,-0.5 0,-0.276 -0.224,-0.5 -0.5,-0.5 z m 2,0 c -0.276,0 -0.5,0.224 -0.5,0.5 0,0.276 0.224,0.5 0.5,0.5 0.276,0 0.5,-0.224 0.5,-0.5 0,-0.276 -0.224,-0.5 -0.5,-0.5 z m 2,0 c -0.276,0 -0.5,0.224 -0.5,0.5 0,0.276 0.224,0.5 0.5,0.5 0.276,0 0.5,-0.224 0.5,-0.5 0,-0.276 -0.224,-0.5 -0.5,-0.5 z m 2,0 c -0.276,0 -0.5,0.224 -0.5,0.5 0,0.276 0.224,0.5 0.5,0.5 0.276,0 0.5,-0.224 0.5,-0.5 0,-0.276 -0.224,-0.5 -0.5,-0.5 z"/><path id="path2904" fill="#666" fill-opacity="1" stroke="none" d="M 38.5,35 C 38.224,35 38,35.224 38,35.5 38,35.776 38.224,36 38.5,36 38.776,36 39,35.776 39,35.5 39,35.224 38.776,35 38.5,35 z m 2,0 C 40.224,35 40,35.224 40,35.5 40,35.776 40.224,36 40.5,36 40.776,36 41,35.776 41,35.5 41,35.224 40.776,35 40.5,35 z m 2,0 C 42.224,35 42,35.224 42,35.5 42,35.776 42.224,36 42.5,36 42.776,36 43,35.776 43,35.5 43,35.224 42.776,35 42.5,35 z m 2,0 C 44.224,35 44,35.224 44,35.5 44,35.776 44.224,36 44.5,36 44.776,36 45,35.776 45,35.5 45,35.224 44.776,35 44.5,35 z m -6,2 C 38.224,37 38,37.224 38,37.5 38,37.776 38.224,38 38.5,38 38.776,38 39,37.776 39,37.5 39,37.224 38.776,37 38.5,37 z m 2,0 C 40.224,37 40,37.224 40,37.5 40,37.776 40.224,38 40.5,38 40.776,38 41,37.776 41,37.5 41,37.224 40.776,37 40.5,37 z m 2,0 C 42.224,37 42,37.224 42,37.5 42,37.776 42.224,38 42.5,38 42.776,38 43,37.776 43,37.5 43,37.224 42.776,37 42.5,37 z m 2,0 C 44.224,37 44,37.224 44,37.5 44,37.776 44.224,38 44.5,38 44.776,38 45,37.776 45,37.5 45,37.224 44.776,37 44.5,37 z m -6,2 C 38.224,39 38,39.224 38,39.5 38,39.776 38.224,40 38.5,40 38.776,40 39,39.776 39,39.5 39,39.224 38.776,39 38.5,39 z m 2,0 C 40.224,39 40,39.224 40,39.5 40,39.776 40.224,40 40.5,40 40.776,40 41,39.776 41,39.5 41,39.224 40.776,39 40.5,39 z m 2,0 C 42.224,39 42,39.224 42,39.5 42,39.776 42.224,40 42.5,40 42.776,40 43,39.776 43,39.5 43,39.224 42.776,39 42.5,39 z m 2,0 C 44.224,39 44,39.224 44,39.5 44,39.776 44.224,40 44.5,40 44.776,40 45,39.776 45,39.5 45,39.224 44.776,39 44.5,39 z"/></svg>