<svg xmlns="http://www.w3.org/2000/svg" xmlns:svg="http://www.w3.org/2000/svg" xmlns:xlink="http://www.w3.org/1999/xlink" id="svg3637" width="64" height="64" version="1.0"><defs id="defs3639"><linearGradient id="linearGradient2490-113-765"><stop id="stop3686" offset="0" stop-color="#861318" stop-opacity="1"/><stop id="stop3688" offset="1" stop-color="#f67e2a" stop-opacity="1"/></linearGradient><linearGradient id="linearGradient3839"><stop id="stop3841" offset="0" stop-color="#ffed8c" stop-opacity="1"/><stop id="stop3843" offset=".262" stop-color="#fb9858" stop-opacity="1"/><stop id="stop3845" offset=".661" stop-color="#dc572a" stop-opacity="1"/><stop id="stop3847" offset="1" stop-color="#9f3110" stop-opacity="1"/></linearGradient><linearGradient id="linearGradient8265-821-176-38-919-66-249-7-7"><stop id="stop2687-1-9" offset="0" stop-color="#fff" stop-opacity="1"/><stop id="stop2689-5-4" offset="1" stop-color="#fff" stop-opacity="0"/></linearGradient><linearGradient id="linearGradient3688"><stop id="stop3690" offset="0" stop-color="#000" stop-opacity="1"/><stop id="stop3692" offset="1" stop-color="#000" stop-opacity="0"/></linearGradient><radialGradient id="radialGradient2464" cx="4.993" cy="43.5" r="2.5" fx="4.993" fy="43.5" gradientTransform="matrix(2.4045408,0,0,0.8,-52.014245,-79.800002)" gradientUnits="userSpaceOnUse" xlink:href="#linearGradient3688"/><radialGradient id="radialGradient2466" cx="4.993" cy="43.5" r="2.5" fx="4.993" fy="43.5" gradientTransform="matrix(2.4045408,0,0,0.8,27.985756,10.199998)" gradientUnits="userSpaceOnUse" xlink:href="#linearGradient3688"/><radialGradient id="radialGradient2468" cx="4.993" cy="43.5" r="2.5" fx="4.993" fy="43.5" gradientTransform="matrix(2.4045408,0,0,0.8,-52.014245,-79.800002)" gradientUnits="userSpaceOnUse" xlink:href="#linearGradient3688"/><radialGradient id="radialGradient2470" cx="4.993" cy="43.5" r="2.5" fx="4.993" fy="43.5" gradientTransform="matrix(2.4045408,0,0,0.8,27.985756,10.199998)" gradientUnits="userSpaceOnUse" xlink:href="#linearGradient3688"/><radialGradient id="radialGradient2505" cx="-8.312" cy="44.75" r="2.5" fx="-8.312" fy="44.75" gradientTransform="matrix(2.4045407,0,0,1,30.985756,14.749996)" gradientUnits="userSpaceOnUse" xlink:href="#linearGradient3688"/><radialGradient id="radialGradient2545" cx="12.011" cy="10.291" r="20" fx="12.011" fy="10.291" gradientTransform="matrix(7.9627606e-8,2.7221385,-3.9267063,0,66.600149,-13.809376)" gradientUnits="userSpaceOnUse" xlink:href="#linearGradient3839"/><linearGradient id="linearGradient2547" x1="24" x2="24" y1="44" y2="3.899" gradientTransform="matrix(1.3212833,0,0,1.3212833,0.3756922,1.3327032)" gradientUnits="userSpaceOnUse" xlink:href="#linearGradient2490-113-765"/><linearGradient id="linearGradient3343" x1="29.072" x2="29.072" y1="3.663" y2="44.461" gradientTransform="matrix(1.3212833,0,0,1.3212833,0.3756922,1.3327032)" gradientUnits="userSpaceOnUse" xlink:href="#linearGradient8265-821-176-38-919-66-249-7-7"/><linearGradient id="linearGradient3351" x1="10.39" x2="10.39" y1="36.082" y2="43.643" gradientTransform="matrix(1.3212833,0,0,1.3212833,0.3756922,1.3327032)" gradientUnits="userSpaceOnUse" xlink:href="#linearGradient8265-821-176-38-919-66-249-7-7"/><linearGradient id="linearGradient3353" x1="15.858" x2="15.858" y1="20.712" y2="43.808" gradientTransform="matrix(1.3212833,0,0,1.3212833,0.3756922,1.3327032)" gradientUnits="userSpaceOnUse" xlink:href="#linearGradient8265-821-176-38-919-66-249-7-7"/><linearGradient id="linearGradient3357" x1="16.626" x2="20.055" y1="15.298" y2="24.628" gradientTransform="matrix(1.2971946,0,0,1.379076,5.543755,6.921225)" gradientUnits="userSpaceOnUse" xlink:href="#linearGradient8265-821-176-38-919-66-249-7-7"/><radialGradient id="radialGradient3365" cx="19.043" cy="10.291" r="20" fx="19.043" fy="10.291" gradientTransform="matrix(0,1.7626771,-2.5426757,-7.4377988e-8,52.357625,2.8689464)" gradientUnits="userSpaceOnUse" xlink:href="#linearGradient3839"/><linearGradient id="linearGradient3367" x1="24" x2="24" y1="44" y2="26.613" gradientTransform="matrix(1.3212833,0,0,1.3212833,0.3756922,1.3327032)" gradientUnits="userSpaceOnUse" xlink:href="#linearGradient2490-113-765"/></defs><g id="g3619" transform="matrix(1.3333333,0,0,1.3333333,-20.333332,-0.6666651)"><rect id="rect3621" width="6" height="4" x="-40" y="-47" fill="url(#radialGradient2464)" fill-opacity="1" stroke="none" opacity=".3" transform="scale(-1,-1)"/><rect id="rect3623" width="6" height="4" x="40" y="43" fill="url(#radialGradient2466)" fill-opacity="1" stroke="none" opacity=".3"/></g><g id="g3615" transform="matrix(1.3333333,0,0,1.3333333,0.6666678,-0.6666651)"><rect id="rect3611" width="6" height="4" x="-40" y="-47" fill="url(#radialGradient2468)" fill-opacity="1" stroke="none" opacity=".3" transform="scale(-1,-1)"/><rect id="rect2801" width="6" height="4" x="40" y="43" fill="url(#radialGradient2470)" fill-opacity="1" stroke="none" opacity=".3"/></g><path id="path3629" fill="url(#radialGradient2505)" fill-opacity="1" fill-rule="nonzero" stroke="none" stroke-dasharray="none" stroke-dashoffset="0" stroke-linecap="butt" stroke-linejoin="miter" stroke-miterlimit="4" stroke-opacity="1" stroke-width="1" marker-end="none" marker-mid="none" marker-start="none" d="M 17,59.5 C 17,60.880711 14.313708,62 11,62 C 7.6862913,62 4.9999999,60.880711 4.9999999,59.5 C 4.9999999,58.119289 7.6862913,57 11,57 C 14.313708,57 17,58.119289 17,59.5 z" display="inline" enable-background="accumulate" opacity=".3" overflow="visible" visibility="visible" style="marker:none"/><path marker-start="none" style="text-align:start;line-height:125%;marker:none" id="path3363" fill="url(#radialGradient2545)" fill-opacity="1" fill-rule="nonzero" stroke="url(#linearGradient2547)" stroke-dasharray="none" stroke-dashoffset="0" stroke-linecap="round" stroke-linejoin="round" stroke-miterlimit="4" stroke-opacity="1" stroke-width=".976" marker-end="none" marker-mid="none" d="M 5.6608256,6.6608591 L 5.6608256,15.955214 C 29.482166,16.399105 48.724955,35.667903 49.162807,59.512191 L 58.512159,59.512191 C 58.070152,30.508228 34.637584,7.1023423 5.6608256,6.6608591 z" display="inline" enable-background="accumulate" font-family="Bitstream Vera Serif" font-size="13.59" font-stretch="normal" font-style="normal" font-variant="normal" font-weight="bold" overflow="visible" text-anchor="start" visibility="visible" writing-mode="lr-tb"/><path marker-start="none" style="text-align:start;line-height:125%;marker:none" id="path3361" fill="url(#radialGradient2545)" fill-opacity="1" fill-rule="nonzero" stroke="url(#linearGradient2547)" stroke-dasharray="none" stroke-dashoffset="0" stroke-linecap="round" stroke-linejoin="round" stroke-miterlimit="4" stroke-opacity="1" stroke-width=".976" marker-end="none" marker-mid="none" d="M 5.6608256,28.054374 L 5.6608256,36.413794 C 18.234342,36.8513 28.321224,46.927811 28.759222,59.512191 L 37.118643,59.512191 C 36.677113,42.28768 22.869445,28.49538 5.6608256,28.054374 z" display="inline" enable-background="accumulate" font-family="Bitstream Vera Serif" font-size="13.59" font-stretch="normal" font-style="normal" font-variant="normal" font-weight="bold" overflow="visible" text-anchor="start" visibility="visible" writing-mode="lr-tb"/><path marker-start="none" style="text-align:start;line-height:125%;marker:none" id="path2557" fill="url(#radialGradient3365)" fill-opacity="1" fill-rule="nonzero" stroke="url(#linearGradient3367)" stroke-dasharray="none" stroke-dashoffset="0" stroke-linecap="round" stroke-linejoin="round" stroke-miterlimit="4" stroke-opacity="1" stroke-width=".976" marker-end="none" marker-mid="none" d="M 11.059271,48.487808 C 9.4701812,48.487855 8.2479998,49.048792 7.1473901,50.156364 C 6.0452935,51.245733 5.4878055,52.430648 5.4878048,54.029798 C 5.4878048,55.603961 6.0491743,56.817787 7.1473901,57.903234 C 8.2423127,58.985486 9.4580033,59.512237 11.059271,59.512198 C 12.610879,59.512236 13.774381,58.988368 14.852612,57.903234 C 15.956709,56.792135 16.512178,55.57881 16.512195,54.029798 C 16.512178,52.430637 15.954706,51.245729 14.852612,50.156364 C 13.768711,49.045775 12.598393,48.487853 11.059271,48.487808 z" display="inline" enable-background="accumulate" font-family="Bitstream Vera Serif" font-size="13.59" font-stretch="normal" font-style="normal" font-variant="normal" font-weight="bold" overflow="visible" text-anchor="start" visibility="visible" writing-mode="lr-tb"/><path id="path3355" fill="url(#linearGradient3357)" fill-opacity="1" fill-rule="evenodd" stroke="none" stroke-dasharray="none" stroke-dashoffset="0" stroke-linecap="butt" stroke-linejoin="miter" stroke-miterlimit="4" stroke-opacity="1" stroke-width="1" marker-end="none" marker-mid="none" marker-start="none" d="M 5.625,6.1875 C 5.3688252,6.1986723 5.1819903,6.424023 5.1875,6.6875 L 5.1875,15.9375 C 5.1848012,16.071341 5.2293897,16.22939 5.3125,16.3125 C 5.3956109,16.395611 5.5536552,16.440199 5.6875,16.4375 C 20.087284,16.705827 32.723548,23.917427 40.53125,34.875 C 40.639922,35.022169 40.846851,35.103196 41.03125,35.0625 L 51.09375,33.375 C 51.226663,33.343261 51.347341,33.22924 51.40625,33.09375 C 51.468758,32.949986 51.484368,32.825163 51.40625,32.6875 C 42.092239,17.039032 25.134184,6.4837851 5.6875,6.1875 C 5.6831579,6.1873615 5.62935,6.1873613 5.625,6.1875 z M 5.625,27.5625 C 5.368825,27.573673 5.1819903,27.799024 5.1875,28.0625 L 5.1875,36.4375 C 5.1819855,36.701207 5.3579329,36.894603 5.625,36.90625 C 9.0856087,37.026666 12.359858,37.919584 15.28125,39.375 C 15.363549,39.41232 15.485821,39.399861 15.59375,39.375 L 27.1875,37.375 C 27.362435,37.335324 27.483666,37.217147 27.53125,37.0625 C 27.579908,36.904361 27.553587,36.718169 27.4375,36.59375 C 21.753591,31.189188 14.121095,27.77863 5.6875,27.5625 C 5.683165,27.562362 5.6293744,27.562361 5.625,27.5625 z" display="inline" enable-background="accumulate" opacity=".2" overflow="visible" visibility="visible" style="marker:none"/><path d="M 6.65625,7.71875 C 6.65625,10.177083 6.65625,12.635417 6.65625,15.09375 C 21.916283,15.561534 36.528907,24.443737 44.041638,37.721834 C 47.685665,44.025716 49.751453,51.22546 50.03125,58.5 C 52.5,58.5 54.96875,58.5 57.4375,58.5 C 57.016431,42.763117 48.999633,27.490425 36.343304,18.14387 C 27.818333,11.737932 17.314075,8.0533418 6.65625,7.71875 z" style="text-align:start;line-height:125%;marker:none" id="path3349" fill="none" fill-opacity="1" fill-rule="nonzero" stroke="url(#linearGradient3343)" stroke-dasharray="none" stroke-dashoffset="0" stroke-linecap="round" stroke-linejoin="miter" stroke-miterlimit="4" stroke-opacity="1" stroke-width=".976" marker-end="none" marker-mid="none" marker-start="none" display="inline" enable-background="accumulate" font-family="Bitstream Vera Serif" font-size="13.59" font-stretch="normal" font-style="normal" font-variant="normal" font-weight="bold" opacity=".4" overflow="visible" text-anchor="start" visibility="visible" writing-mode="lr-tb"/><path d="M 6.65625,29.1875 C 6.65625,31.302083 6.65625,33.416667 6.65625,35.53125 C 17.204529,36.140931 26.727447,44.246725 29.016563,54.560712 C 29.652765,56.246283 28.785255,59.245065 31.384353,58.5 C 32.922902,58.5 34.461451,58.5 36,58.5 C 35.468842,47.04766 28.008398,36.298558 17.471383,31.786038 C 14.060335,30.281341 10.377466,29.403057 6.65625,29.1875 z" style="text-align:start;line-height:125%;marker:none" id="path3347" fill="none" fill-opacity="1" fill-rule="nonzero" stroke="url(#linearGradient3353)" stroke-dasharray="none" stroke-dashoffset="0" stroke-linecap="round" stroke-linejoin="miter" stroke-miterlimit="4" stroke-opacity="1" stroke-width=".976" marker-end="none" marker-mid="none" marker-start="none" display="inline" enable-background="accumulate" font-family="Bitstream Vera Serif" font-size="13.59" font-stretch="normal" font-style="normal" font-variant="normal" font-weight="bold" opacity=".4" overflow="visible" text-anchor="start" visibility="visible" writing-mode="lr-tb"/><path d="M 11.0625,49.5 C 7.6734592,49.3375 5.1184541,53.715068 7.2585937,56.485258 C 8.8819855,59.146629 13.153874,59.186779 14.746261,56.469436 C 16.83677,53.70339 14.414593,49.44834 11.0625,49.5 z" style="text-align:start;line-height:125%;marker:none" id="path3338" fill="none" fill-opacity="1" fill-rule="nonzero" stroke="url(#linearGradient3351)" stroke-dasharray="none" stroke-dashoffset="0" stroke-linecap="round" stroke-linejoin="miter" stroke-miterlimit="4" stroke-opacity="1" stroke-width=".976" marker-end="none" marker-mid="none" marker-start="none" display="inline" enable-background="accumulate" font-family="Bitstream Vera Serif" font-size="13.59" font-stretch="normal" font-style="normal" font-variant="normal" font-weight="bold" opacity=".4" overflow="visible" text-anchor="start" visibility="visible" writing-mode="lr-tb"/></svg>