<svg xmlns="http://www.w3.org/2000/svg" xmlns:svg="http://www.w3.org/2000/svg" xmlns:xlink="http://www.w3.org/1999/xlink" id="svg3266" width="64" height="64" version="1.0"><defs id="defs3268"><linearGradient id="linearGradient8838"><stop id="stop8840" offset="0" stop-color="#000" stop-opacity="1"/><stop id="stop8842" offset="1" stop-color="#000" stop-opacity="0"/></linearGradient><linearGradient id="linearGradient2490"><stop id="stop2492" offset="0" stop-color="#791235" stop-opacity="1"/><stop id="stop2494" offset="1" stop-color="#dd3b27" stop-opacity="1"/></linearGradient><linearGradient id="linearGradient3242"><stop id="stop3244" offset="0" stop-color="#f8b17e" stop-opacity="1"/><stop id="stop3246" offset=".262" stop-color="#e35d4f" stop-opacity="1"/><stop id="stop3248" offset=".661" stop-color="#c6262e" stop-opacity="1"/><stop id="stop3250" offset="1" stop-color="#690b54" stop-opacity="1"/></linearGradient><linearGradient id="linearGradient3202"><stop id="stop3204" offset="0" stop-color="#fff" stop-opacity="1"/><stop id="stop3206" offset="1" stop-color="#d3eefc" stop-opacity="1"/></linearGradient><linearGradient id="linearGradient3230"><stop id="stop3232" offset="0" stop-color="#fff" stop-opacity="1"/><stop id="stop3234" offset="1" stop-color="#fff" stop-opacity="0"/></linearGradient><linearGradient id="linearGradient2428" x1="26.154" x2="26.154" y1="5" y2="44.233" gradientTransform="matrix(1.33043,0,0,1.3288413,-0.1171065,1.9428555)" gradientUnits="userSpaceOnUse" xlink:href="#linearGradient3230"/><linearGradient id="linearGradient2431" x1="22.885" x2="22.885" y1="17.629" y2="30.89" gradientTransform="matrix(1.4009061,0,0,1.2898686,2.7010818,1.7242047)" gradientUnits="userSpaceOnUse" xlink:href="#linearGradient3202"/><radialGradient id="radialGradient2435" cx="32.807" cy="3.533" r="23" fx="32.807" fy="3.533" gradientTransform="matrix(0,2.2313428,-2.3282343,0,40.22507,-61.651443)" gradientUnits="userSpaceOnUse" xlink:href="#linearGradient3242"/><linearGradient id="linearGradient2437" x1="-23.916" x2="-23.916" y1="43.708" y2="4.65" gradientTransform="matrix(1.3111112,0,0,1.3157894,67.947022,2.724056)" gradientUnits="userSpaceOnUse" xlink:href="#linearGradient2490"/><radialGradient id="radialGradient2440" cx="62.625" cy="4.625" r="10.625" fx="62.625" fy="4.625" gradientTransform="matrix(2.9176471,0,0,1.1294101,-150.71765,46.776469)" gradientUnits="userSpaceOnUse" xlink:href="#linearGradient8838"/></defs><path id="path8836" fill="url(#radialGradient2440)" fill-opacity="1" fill-rule="evenodd" stroke="none" stroke-dasharray="none" stroke-dashoffset="0" stroke-linecap="butt" stroke-linejoin="round" stroke-miterlimit="4" stroke-opacity="1" stroke-width="1" marker-end="none" marker-mid="none" marker-start="none" d="M 63,51.999999 C 63,58.627415 49.120826,63.999997 32.000001,63.999997 C 14.879175,63.999997 1,58.627415 1,51.999999 C 1,45.372582 14.879175,39.999999 32.000001,39.999999 C 49.120826,39.999999 63,45.372582 63,51.999999 L 63,51.999999 z" display="inline" opacity=".3" overflow="visible" visibility="visible" style="marker:none"/><path id="path2421" fill="url(#radialGradient2435)" fill-opacity="1" fill-rule="evenodd" stroke="url(#linearGradient2437)" stroke-linecap="butt" stroke-linejoin="miter" stroke-opacity="1" stroke-width="1" d="M 2.4999999,42.738455 C 2.4999999,42.738455 13.796019,21.536486 29.979439,13.091371 C 39.412077,8.1690665 54.609972,6.9059946 61.408394,18.474262 C 61.408394,18.474262 63.698569,48.868356 45.377168,57.424678 C 45.377168,57.424678 26.419609,67.641181 2.4999999,42.738455 z"/><path font-family="URW Gothic L" style="text-align:start;line-height:125%;-inkscape-font-specification:URW Gothic L Book" id="path2438" fill="#a1ceef" fill-opacity="1" stroke="none" stroke-linecap="butt" stroke-linejoin="miter" stroke-opacity="1" stroke-width="1" d="M 21,41.999999 C 22.651346,41.999999 26.086763,41.999999 27.738109,41.999999 C 27.765099,38.348688 27.625598,34.69507 27.738109,31.045467 C 27.738109,29.098719 28.020365,27.358057 30.294277,27.358057 C 32.903063,27.358057 33.11038,28.674236 33.11038,31.181224 C 33.11038,33.472402 33.11038,39.708822 33.11038,41.999999 C 34.761725,41.999999 38.21536,42 39.866705,42 C 39.886075,38.409399 39.787446,34.817465 39.866705,31.227836 C 39.878749,29.501305 39.713985,27.358057 42.551737,27.358057 C 45.104723,27.358057 45.255931,29.049753 45.255931,31.256809 C 45.255931,33.522791 45.25593,39.734017 45.255931,42 C 46.907275,42 50.343955,42 51.995302,42 C 51.976132,37.993886 52.0353,33.986368 51.962563,29.981209 C 51.85898,27.55961 50.934479,24.884014 48.474942,23.657429 C 47.067865,23.192184 46.665542,23.016013 44.91051,23.016013 C 41.296177,23.016013 27.270004,23 21,23 C 21,29.333332 21,35.666668 21,41.999999 z" font-size="26.706" font-stretch="normal" font-style="normal" font-variant="normal" font-weight="bold" text-anchor="start" writing-mode="lr-tb"/><path font-family="URW Gothic L" style="text-align:start;line-height:125%;-inkscape-font-specification:URW Gothic L Book" id="text3190" fill="url(#linearGradient2431)" fill-opacity="1" stroke="none" stroke-linecap="butt" stroke-linejoin="miter" stroke-opacity="1" stroke-width="1" d="M 21,42.999998 C 22.651346,42.999998 26.348654,43 28,43 C 28.02699,39.348689 27.887489,35.695071 28,32.045469 C 28,30.098721 29,29 30.5,29 C 32,29 33,30 33,32.181226 C 33,34.472403 33,40.708823 33,43 C 34.651345,43 38.348655,43 40,43 C 40.01937,39.409399 39.920741,35.817464 40,32.227835 C 40,30 41.051737,29 42.5,29 C 43.948263,29 45,30 45,32.25681 C 45,34.52279 44.999999,40.734016 45,43 C 46.651344,43 50.343955,43 51.995302,43 C 51.976132,38.993885 52.0353,34.986367 51.962563,30.981208 C 51.85898,28.559611 50.934479,25.884015 48.474942,24.657429 C 47.067865,24.192186 46.665542,24.016013 44.91051,24.016013 C 41.296177,24.016013 27.270004,24 21,24 C 21,30.333333 21,36.666667 21,42.999998 z" font-size="26.706" font-stretch="normal" font-style="normal" font-variant="normal" font-weight="bold" text-anchor="start" writing-mode="lr-tb"/><path id="path3238" fill="none" fill-opacity="1" fill-rule="evenodd" stroke="url(#linearGradient2428)" stroke-linecap="butt" stroke-linejoin="miter" stroke-opacity="1" stroke-width="1" d="M 42.331925,10.580324 C 38.041392,10.902656 33.790178,12.202968 30.358055,13.985479 C 15.458296,21.723837 4.7931559,40.24754 3.4999999,42.555567 C 15.161639,54.348771 25.436903,57.879638 32.811035,58.418611 C 40.337642,58.968728 44.784905,56.549928 44.784905,56.549928 C 44.798439,56.535765 44.812301,56.521919 44.826481,56.508401 C 53.585449,52.437266 57.54086,43.0706 59.253331,34.499467 C 60.90726,26.221344 60.451,19.209483 60.417457,18.719476 C 56.357606,12.078404 49.393317,10.049827 42.331925,10.580324 z" opacity=".4"/></svg>