<svg xmlns="http://www.w3.org/2000/svg" xmlns:svg="http://www.w3.org/2000/svg" xmlns:xlink="http://www.w3.org/1999/xlink" id="svg4105" width="64" height="64" version="1.1"><defs id="defs4107"><linearGradient id="linearGradient3005" x1="32.817" x2="32.817" y1="19.819" y2="30.185" gradientTransform="matrix(1.4102565,0,0,1.4102565,-1.8461542,-3.2104959)" gradientUnits="userSpaceOnUse" xlink:href="#linearGradient2238"/><linearGradient id="linearGradient2238"><stop id="stop2240" offset="0" stop-color="#fff" stop-opacity="1"/><stop id="stop2242" offset="1" stop-color="#fff" stop-opacity="0"/></linearGradient><linearGradient id="linearGradient3008" x1="16.626" x2="20.055" y1="15.298" y2="24.628" gradientTransform="matrix(1.3641888,0,0,1.4470334,3.5931803,-3.6369811)" gradientUnits="userSpaceOnUse" xlink:href="#linearGradient8265-821-176-38-919-66-249"/><linearGradient id="linearGradient8265-821-176-38-919-66-249"><stop id="stop2687" offset="0" stop-color="#fff" stop-opacity="1"/><stop id="stop2689" offset="1" stop-color="#fff" stop-opacity="0"/></linearGradient><linearGradient id="linearGradient3011" x1="23" x2="23" y1="20" y2="41" gradientTransform="matrix(1.4102565,0,0,1.4102565,-1.8461542,-3.2104959)" gradientUnits="userSpaceOnUse" xlink:href="#linearGradient2867-449-88-871-390-598-476-591-434-148"/><linearGradient id="linearGradient2867-449-88-871-390-598-476-591-434-148"><stop id="stop4627" offset="0" stop-color="#51cfee" stop-opacity="1"/><stop id="stop4629" offset=".262" stop-color="#49a3d2" stop-opacity="1"/><stop id="stop4631" offset=".705" stop-color="#3470b4" stop-opacity="1"/><stop id="stop4633" offset="1" stop-color="#1b5699" stop-opacity="1"/></linearGradient><linearGradient id="linearGradient3013" x1="35" x2="35" y1="32.036" y2="18" gradientTransform="matrix(1.4102565,0,0,1.4102565,-1.8461542,-3.2104959)" gradientUnits="userSpaceOnUse" xlink:href="#linearGradient3332-412-419-652-471-761-410-156-661-505"/><linearGradient id="linearGradient3332-412-419-652-471-761-410-156-661-505"><stop id="stop8032" offset="0" stop-color="#205286" stop-opacity="1"/><stop id="stop8034" offset="1" stop-color="#5492be" stop-opacity="1"/></linearGradient><linearGradient id="linearGradient3017" x1="34.542" x2="34.542" y1="41" y2="6.845" gradientTransform="matrix(1.4848485,0,0,1.4848485,-3.6363633,-3.6363534)" gradientUnits="userSpaceOnUse" xlink:href="#linearGradient3996-4"/><linearGradient id="linearGradient3996-4"><stop id="stop3998-0" offset="0" stop-color="#fff" stop-opacity="1"/><stop id="stop4000-8" offset="1" stop-color="#fff" stop-opacity="0"/></linearGradient><radialGradient id="radialGradient3021" cx="24" cy="24" r="17" fx="24" fy="24" gradientTransform="matrix(1.3636364,0,0,1.3636364,-0.7272726,-0.7272744)" gradientUnits="userSpaceOnUse" xlink:href="#linearGradient3301"/><linearGradient id="linearGradient3301"><stop id="stop3303" offset="0" stop-color="#fff" stop-opacity="0"/><stop id="stop3309" offset=".7" stop-color="#fff" stop-opacity="0"/><stop id="stop3305" offset="1" stop-color="#000" stop-opacity="1"/></linearGradient><linearGradient id="linearGradient3023" x1="29.05" x2="29.05" y1="7.028" y2="26.494" gradientTransform="matrix(1.3636364,0,0,-1.3636364,-0.7272713,64.727273)" gradientUnits="userSpaceOnUse" xlink:href="#linearGradient3708"/><linearGradient id="linearGradient3708"><stop id="stop3710" offset="0" stop-color="#000" stop-opacity="1"/><stop id="stop3712" offset="1" stop-color="#000" stop-opacity="1"/></linearGradient><radialGradient id="radialGradient3026" cx="27.412" cy="12.08" r="18" fx="27.412" fy="12.08" gradientTransform="matrix(2.3685182e-8,2.38103,-3.5708067,3.552043e-8,79.645077,-24.39901)" gradientUnits="userSpaceOnUse" xlink:href="#linearGradient3268-1"/><linearGradient id="linearGradient3268-1"><stop id="stop3270-7" offset="0" stop-color="#fff" stop-opacity="1"/><stop id="stop3272-0" offset="1" stop-color="#d8d8d8" stop-opacity="1"/></linearGradient><linearGradient id="linearGradient3028" x1="29.05" x2="29.05" y1="5.108" y2="43.199" gradientTransform="matrix(1.4242424,0,0,1.4242424,-2.1818178,-2.1818097)" gradientUnits="userSpaceOnUse" xlink:href="#linearGradient3332-412-419-652-471-761-410-156-661-505"/><linearGradient id="linearGradient3103" x1="32" x2="32" y1="15" y2="49" gradientUnits="userSpaceOnUse" xlink:href="#linearGradient3373"/><linearGradient id="linearGradient3373"><stop id="stop3375" offset="0" stop-color="#696969" stop-opacity="1"/><stop id="stop3377" offset="1" stop-color="#737373" stop-opacity="1"/></linearGradient><linearGradient id="linearGradient3107" x1="24" x2="24" y1="5" y2="43" gradientTransform="matrix(1.4324331,0,0,1.432432,-2.3783784,-2.3783623)" gradientUnits="userSpaceOnUse" xlink:href="#linearGradient3308-4-6-931-761"/><linearGradient id="linearGradient3308-4-6-931-761"><stop id="stop2919" offset="0" stop-color="#fff" stop-opacity="1"/><stop id="stop2921" offset="1" stop-color="#fff" stop-opacity="0"/></linearGradient><radialGradient id="radialGradient3034-3" cx="7.496" cy="8.45" r="20" fx="7.496" fy="8.45" gradientTransform="matrix(0,3.24326,-4.3410587,-1.3685269e-7,68.681092,-18.988928)" gradientUnits="userSpaceOnUse" xlink:href="#linearGradient2867-449-88-871-390-598-476-591-434-148-9"/><linearGradient id="linearGradient2867-449-88-871-390-598-476-591-434-148-9"><stop id="stop4627-2" offset="0" stop-color="#51cfee" stop-opacity="1"/><stop id="stop4629-8" offset=".262" stop-color="#49a3d2" stop-opacity="1"/><stop id="stop4631-3" offset=".705" stop-color="#3470b4" stop-opacity="1"/><stop id="stop4633-0" offset="1" stop-color="#1b5699" stop-opacity="1"/></linearGradient><linearGradient id="linearGradient3036-1" x1="24" x2="24" y1="44" y2="3.899" gradientTransform="matrix(1.4102565,0,0,1.4102565,-1.8461542,-1.8461602)" gradientUnits="userSpaceOnUse" xlink:href="#linearGradient3332-412-419-652-471-761-410-156-661-505-7"/><linearGradient id="linearGradient3332-412-419-652-471-761-410-156-661-505-7"><stop id="stop8032-8" offset="0" stop-color="#205286" stop-opacity="1"/><stop id="stop8034-9" offset="1" stop-color="#5492be" stop-opacity="1"/></linearGradient><radialGradient id="radialGradient2873-966-168" cx="4.993" cy="43.5" r="2.5" fx="4.993" fy="43.5" gradientTransform="matrix(2.003784,0,0,1.4,27.98813,-17.4)" gradientUnits="userSpaceOnUse" xlink:href="#linearGradient3688-166-749"/><linearGradient id="linearGradient3688-166-749"><stop id="stop2883" offset="0" stop-color="#181818" stop-opacity="1"/><stop id="stop2885" offset="1" stop-color="#181818" stop-opacity="0"/></linearGradient><radialGradient id="radialGradient2875-742-326" cx="4.993" cy="43.5" r="2.5" fx="4.993" fy="43.5" gradientTransform="matrix(2.003784,0,0,1.4,-20.01187,-104.4)" gradientUnits="userSpaceOnUse" xlink:href="#linearGradient3688-464-309"/><linearGradient id="linearGradient3688-464-309"><stop id="stop2889" offset="0" stop-color="#181818" stop-opacity="1"/><stop id="stop2891" offset="1" stop-color="#181818" stop-opacity="0"/></linearGradient><linearGradient id="linearGradient2877-634-617" x1="25.058" x2="25.058" y1="47.028" y2="39.999" gradientUnits="userSpaceOnUse" xlink:href="#linearGradient3702-501-757"/><linearGradient id="linearGradient3702-501-757"><stop id="stop2895" offset="0" stop-color="#181818" stop-opacity="0"/><stop id="stop2897" offset=".5" stop-color="#181818" stop-opacity="1"/><stop id="stop2899" offset="1" stop-color="#181818" stop-opacity="0"/></linearGradient></defs><metadata id="metadata4110"/><g id="layer1"><g id="g2036" display="inline" transform="matrix(1.5000021,0,0,0.5555561,-4.0000114,35.888881)"><g id="g3712" opacity=".4" transform="matrix(1.052632,0,0,1.285713,-1.263158,-13.42854)"><rect id="rect2801" width="5" height="7" x="38" y="40" fill="url(#radialGradient2873-966-168)" fill-opacity="1" stroke="none"/><rect id="rect3696" width="5" height="7" x="-10" y="-47" fill="url(#radialGradient2875-742-326)" fill-opacity="1" stroke="none" transform="scale(-1,-1)"/><rect id="rect3700" width="28" height="7" x="10" y="40" fill="url(#linearGradient2877-634-617)" fill-opacity="1" stroke="none"/></g></g><rect stroke-linejoin="round" style="marker:none" id="rect5505" width="55" height="55" x="4.5" y="4.5" fill="url(#radialGradient3034-3)" fill-opacity="1" fill-rule="nonzero" stroke="url(#linearGradient3036-1)" stroke-dasharray="none" stroke-dashoffset="0" stroke-linecap="round" stroke-miterlimit="4" stroke-opacity="1" stroke-width="1" color="#000" display="inline" enable-background="accumulate" overflow="visible" rx="3" ry="3" visibility="visible"/><rect id="rect6741" width="53" height="53" x="5.5" y="5.5" fill="none" stroke="url(#linearGradient3107)" stroke-dasharray="none" stroke-dashoffset="0" stroke-linecap="round" stroke-linejoin="round" stroke-miterlimit="4" stroke-opacity="1" stroke-width="1" opacity=".4" rx="2" ry="2"/><path id="path3381" fill="#fff" fill-opacity="1" fill-rule="nonzero" stroke="none" stroke-width="1.7" d="m 30,16 c -0.554,0 -1,0.446 -1,1 l 0,3.34375 c -1.369766,0.323396 -2.647969,0.874891 -3.8125,1.59375 l -2.375,-2.375 c -0.391737,-0.391737 -1.014513,-0.391738 -1.40625,0 l -2.84375,2.84375 c -0.391737,0.391737 -0.391738,1.014513 0,1.40625 l 2.375,2.375 C 20.218641,27.352031 19.667146,28.630234 19.34375,30 L 16,30 c -0.554,0 -1,0.446 -1,1 l 0,4 c 0,0.554 0.446,1 1,1 l 3.34375,0 c 0.323071,1.368391 0.876137,2.64906 1.59375,3.8125 l -2.375,2.375 c -0.391737,0.391737 -0.391738,1.014513 0,1.40625 l 2.84375,2.84375 c 0.391737,0.391737 1.014513,0.391739 1.40625,0 l 2.375,-2.375 c 1.16344,0.717613 2.444109,1.270679 3.8125,1.59375 L 29,49 c 0,0.554 0.446,1 1,1 l 4,0 c 0.554,0 1,-0.446 1,-1 l 0,-3.34375 c 1.369766,-0.323396 2.647969,-0.874891 3.8125,-1.59375 l 2.375,2.375 c 0.391737,0.391737 1.014513,0.391739 1.40625,0 l 2.84375,-2.84375 c 0.391737,-0.391737 0.391739,-1.014515 0,-1.40625 l -2.375,-2.375 C 43.781359,38.647969 44.332854,37.369766 44.65625,36 L 48,36 c 0.554,0 1,-0.446 1,-1 l 0,-4 c 0,-0.554 -0.446,-1 -1,-1 l -3.34375,0 C 44.333179,28.631609 43.780113,27.35094 43.0625,26.1875 l 2.375,-2.375 c 0.391737,-0.391737 0.391739,-1.014513 0,-1.40625 L 42.59375,19.5625 c -0.391737,-0.391737 -1.014515,-0.391738 -1.40625,0 l -2.375,2.375 C 37.64906,21.219887 36.368391,20.666821 35,20.34375 L 35,17 c 0,-0.554 -0.446,-1 -1,-1 l -4,0 z m 2,11 c 3.312001,0 6,2.688 6,6 10e-7,3.312001 -2.688,6 -6,6 -3.311999,10e-7 -6,-2.688 -6,-6 0,-3.311999 2.688,-6 6,-6 z" display="inline" enable-background="accumulate" opacity=".4" overflow="visible" visibility="visible" style="marker:none"/><path id="rect2588" fill="url(#linearGradient3103)" fill-opacity="1" fill-rule="nonzero" stroke="none" stroke-width="1.7" d="m 30,15 c -0.554,0 -1,0.446 -1,1 l 0,3.34375 c -1.369766,0.323396 -2.647969,0.874891 -3.8125,1.59375 l -2.375,-2.375 c -0.391737,-0.391737 -1.014513,-0.391738 -1.40625,0 l -2.84375,2.84375 c -0.391737,0.391737 -0.391738,1.014513 0,1.40625 l 2.375,2.375 C 20.218641,26.352031 19.667146,27.630234 19.34375,29 L 16,29 c -0.554,0 -1,0.446 -1,1 l 0,4 c 0,0.554 0.446,1 1,1 l 3.34375,0 c 0.323071,1.368391 0.876137,2.64906 1.59375,3.8125 l -2.375,2.375 c -0.391737,0.391737 -0.391738,1.014513 0,1.40625 l 2.84375,2.84375 c 0.391737,0.391737 1.014513,0.391739 1.40625,0 l 2.375,-2.375 c 1.16344,0.717613 2.444109,1.270679 3.8125,1.59375 L 29,48 c 0,0.554 0.446,1 1,1 l 4,0 c 0.554,0 1,-0.446 1,-1 l 0,-3.34375 c 1.369766,-0.323396 2.647969,-0.874891 3.8125,-1.59375 l 2.375,2.375 c 0.391737,0.391737 1.014513,0.391739 1.40625,0 l 2.84375,-2.84375 c 0.391737,-0.391737 0.391739,-1.014515 0,-1.40625 l -2.375,-2.375 C 43.781359,37.647969 44.332854,36.369766 44.65625,35 L 48,35 c 0.554,0 1,-0.446 1,-1 l 0,-4 c 0,-0.554 -0.446,-1 -1,-1 l -3.34375,0 C 44.333179,27.631609 43.780113,26.35094 43.0625,25.1875 l 2.375,-2.375 c 0.391737,-0.391737 0.391739,-1.014513 0,-1.40625 L 42.59375,18.5625 c -0.391737,-0.391737 -1.014515,-0.391738 -1.40625,0 l -2.375,2.375 C 37.64906,20.219887 36.368391,19.666821 35,19.34375 L 35,16 c 0,-0.554 -0.446,-1 -1,-1 l -4,0 z m 2,11 c 3.312001,0 6,2.688 6,6 10e-7,3.312001 -2.688,6 -6,6 -3.311999,10e-7 -6,-2.688 -6,-6 0,-3.311999 2.688,-6 6,-6 z" display="inline" enable-background="accumulate" overflow="visible" visibility="visible" style="marker:none"/><path id="path3215-6" fill="url(#radialGradient3026)" fill-opacity="1" fill-rule="nonzero" stroke="url(#linearGradient3028)" stroke-dasharray="none" stroke-miterlimit="4" stroke-width="1" d="M 55.499999,31.99917 C 55.499999,44.978275 44.977909,55.5 32.000296,55.5 19.021486,55.5 8.5,44.978157 8.5,31.99917 8.5,19.020657 19.021486,8.5000039 32.000296,8.5000039 c 12.977613,0 23.499703,10.5206531 23.499703,23.4991661 l 0,0 0,0 0,0 z"/><path id="path3215-4" fill="url(#radialGradient3021)" fill-opacity="1" stroke="url(#linearGradient3023)" stroke-dasharray="none" stroke-miterlimit="4" stroke-width="1" d="m 54.500002,32.000797 c 0,-12.426806 -10.07434,-22.5007971 -22.499718,-22.5007971 -12.426518,0 -22.5002837,10.0741031 -22.5002837,22.5007971 0,12.426238 10.0737657,22.499205 22.5002837,22.499205 12.425378,0 22.499718,-10.072967 22.499718,-22.499205 l 0,0 z" opacity=".2"/><path id="path4293-7-7-6" fill="#000" fill-opacity="1" stroke="none" d="m 26.358976,30.897435 11.282051,0 0,-7.051283 L 52.448721,34.377161 37.641027,45 l 0,-7.051283 -11.282051,0 0,7.051283 -14.807693,-10.622839 14.807693,-10.531009 0,7.051283 z" opacity=".05"/><path id="path3215-6-0" fill="none" stroke="url(#linearGradient3017)" stroke-dasharray="none" stroke-miterlimit="4" stroke-width="1" d="M 56.500001,31.999135 C 56.500001,45.530544 45.530162,56.5 32.00031,56.5 18.469209,56.5 7.5,45.530419 7.5,31.999135 7.5,18.468345 18.469209,7.5000048 32.00031,7.5000048 c 13.529852,0 24.499691,10.9683402 24.499691,24.4991302 l 0,0 0,0 0,0 z" opacity=".4"/><path id="path4293-7" fill="#000" fill-opacity="1" stroke="none" d="m 26.358976,29.897436 11.282051,0 0,-7.051283 L 52.448721,33.377162 37.641027,44 l 0,-7.051282 -11.282051,0 0,7.051282 -14.807693,-10.622838 14.807693,-10.531009 0,7.051283 z" opacity=".1"/><path id="path4293-7-70" fill="#000" fill-opacity="1" stroke="none" d="m 26.358976,28.897436 11.282051,0 0,-7.051283 L 52.448721,32.377162 37.641027,43 l 0,-7.051282 -11.282051,0 0,7.051282 -14.807693,-10.622838 14.807693,-10.531009 0,7.051283 z" opacity=".1"/><path id="path4293" fill="url(#linearGradient3011)" fill-opacity="1" stroke="url(#linearGradient3013)" stroke-linecap="butt" stroke-linejoin="miter" stroke-opacity="1" stroke-width="1" d="m 25.5,28.5 13,0 0,-5.666668 L 51,32 38.5,41.166666 38.5,35.5 l -13,0 0,5.666666 L 13,32 25.5,22.833332 25.5,28.5 z"/><path id="path3333" fill="url(#linearGradient3008)" fill-opacity="1" fill-rule="evenodd" stroke="none" d="M 7.9841631,4.9999997 C 6.3358444,4.9999997 5,6.4169682 5,8.1653845 L 5,31.317919 c 0.00385,0.194776 0.084302,0.378966 0.2220207,0.507861 0.1377117,0.12889 0.3200383,0.19071 0.5027038,0.170436 L 58.445798,21.686104 C 58.761579,21.633283 58.995585,21.346872 59,21.007807 L 59,8.1653845 C 59,6.4169682 57.664154,4.9999997 56.015837,4.9999997 l -48.0316739,0 z" opacity=".2"/><path id="path4293-3" fill="none" stroke="url(#linearGradient3005)" stroke-linecap="butt" stroke-linejoin="miter" stroke-opacity="1" stroke-width="1" d="m 24.5,29.5 15,0 0,-4.5 9.739582,7 -9.739582,7 0,-4.5 -15,0 0,4.5 -9.762622,-7 9.762622,-7 0,4.5 z" opacity=".4"/></g></svg>