<svg xmlns="http://www.w3.org/2000/svg" xmlns:svg="http://www.w3.org/2000/svg" xmlns:xlink="http://www.w3.org/1999/xlink" id="svg11300" width="64" height="64" version="1.0"><defs id="defs3"><linearGradient id="linearGradient3785"><stop id="stop3787" offset="0" stop-color="#bdbdbd" stop-opacity="1"/><stop id="stop3789" offset="1" stop-color="#8c8c8c" stop-opacity="1"/></linearGradient><linearGradient id="linearGradient6954"><stop id="stop6960" offset="0" stop-color="#f5f5f5" stop-opacity="1"/><stop id="stop6962" offset="1" stop-color="#d2d2d2" stop-opacity="1"/></linearGradient><linearGradient id="linearGradient3341"><stop id="stop3343" offset="0" stop-color="#fff" stop-opacity="1"/><stop id="stop3345" offset="1" stop-color="#fff" stop-opacity="0"/></linearGradient><linearGradient id="linearGradient5060"><stop id="stop5062" offset="0" stop-color="#000" stop-opacity="1"/><stop id="stop5064" offset="1" stop-color="#000" stop-opacity="0"/></linearGradient><radialGradient id="radialGradient2880" cx="32" cy="41.5" r="21" fx="32" fy="41.5" gradientTransform="matrix(1,0,0,0.35714286,0,26.678571)" gradientUnits="userSpaceOnUse" xlink:href="#linearGradient5060"/><radialGradient id="radialGradient2882" cx="25" cy="28.66" r="16" fx="25" fy="28.66" gradientTransform="matrix(1.3125,0,0,0.37326701,-7.812498,20.302168)" gradientUnits="userSpaceOnUse" xlink:href="#linearGradient6954"/><linearGradient id="linearGradient2884" x1="30" x2="30" y1="25.085" y2="45" gradientUnits="userSpaceOnUse" xlink:href="#linearGradient3785"/><linearGradient id="linearGradient2886" x1="24.787" x2="24.875" y1="53.869" y2="83.5" gradientTransform="matrix(1.0245588,0,0,0.99958997,3.5797434,-39.470478)" gradientUnits="userSpaceOnUse" xlink:href="#linearGradient3341"/><radialGradient id="radialGradient2888" cx="26.376" cy="12.313" r="8" fx="26.376" fy="12.313" gradientTransform="matrix(1.640165,-0.1325824,0.12811381,1.5848844,-18.396351,-5.2274259)" gradientUnits="userSpaceOnUse" xlink:href="#linearGradient6954"/><linearGradient id="linearGradient2890" x1="30" x2="30" y1="5" y2="44.679" gradientUnits="userSpaceOnUse" xlink:href="#linearGradient3785"/><linearGradient id="linearGradient2892" x1="22" x2="17" y1="39" y2="37.438" gradientUnits="userSpaceOnUse" xlink:href="#linearGradient5060"/><linearGradient id="linearGradient2894" x1="38" x2="43" y1="39" y2="38.6" gradientUnits="userSpaceOnUse" xlink:href="#linearGradient5060"/><radialGradient id="radialGradient2896" cx="30" cy="33.188" r="4.688" fx="30" fy="33.188" gradientTransform="matrix(1.5279732,-7.0647448e-7,2.1308638e-7,0.46086628,-15.839202,14.705021)" gradientUnits="userSpaceOnUse" xlink:href="#linearGradient5060"/><linearGradient id="linearGradient2898" x1="30" x2="30" y1="3.041" y2="27.957" gradientTransform="matrix(1.0442343,0,0,1.0365032,-1.3270215,-0.61474049)" gradientUnits="userSpaceOnUse" xlink:href="#linearGradient3341"/><radialGradient id="radialGradient2456" cx="23.896" cy="3.99" r="20.397" fx="23.896" fy="3.99" gradientTransform="matrix(0,1.2316137,-1.6257082,0,18.486581,-28.720783)" gradientUnits="userSpaceOnUse" xlink:href="#linearGradient3242-187-536"/><linearGradient id="linearGradient3242-187-536"><stop id="stop2778" offset="0" stop-color="#8badea" stop-opacity="1"/><stop id="stop2780" offset=".262" stop-color="#6396cd" stop-opacity="1"/><stop id="stop2782" offset=".661" stop-color="#3b7caf" stop-opacity="1"/><stop id="stop2784" offset="1" stop-color="#194c70" stop-opacity="1"/></linearGradient><linearGradient id="linearGradient2458" x1="18.379" x2="18.379" y1="44.98" y2="3.082" gradientTransform="matrix(0.5160413,0,0,0.5160413,-0.384991,-0.3849911)" gradientUnits="userSpaceOnUse" xlink:href="#linearGradient2490-182-124"/><linearGradient id="linearGradient2490-182-124"><stop id="stop2788" offset="0" stop-color="#1f4b6a" stop-opacity="1"/><stop id="stop2790" offset="1" stop-color="#4083c2" stop-opacity="1"/></linearGradient><linearGradient id="linearGradient3843" x1="63.397" x2="63.397" y1="-12.489" y2="5.468" gradientTransform="matrix(1.1027312,0,0,1.1070046,-56.590519,15.849032)" gradientUnits="userSpaceOnUse" xlink:href="#linearGradient3341"/></defs><g id="g3055" transform="matrix(1.33,0,0,1.33,-1.1998082,-3.1000959)"><g id="g3912" transform="translate(-8,1.1274659)"><path id="path3823" fill="url(#radialGradient2880)" fill-opacity="1" stroke="none" d="m 53,41.5 a 21,7.5 0 1 1 -42,0 21,7.5 0 1 1 42,0 z" opacity=".7" transform="matrix(0.85714286,0,0,0.8,2.5714285,7.8)"/><path id="path3766" fill="url(#radialGradient2882)" fill-opacity="1" stroke="url(#linearGradient2884)" stroke-dasharray="none" stroke-miterlimit="4" stroke-opacity="1" stroke-width=".752" d="m 25.5,20.5 c 0.460215,2.17673 0.717092,3.82327 0.34375,6 C 22.933057,28.914876 15.488842,30 15.5,32.5 l -1,7.5 c 0,2.485281 6.939586,4.5 15.5,4.5 8.560414,0 15.5,-2.014719 15.5,-4.5 l -1,-7.5 C 44.48813,30.360337 37,29 34.125,26.5 33.879426,24.479663 34.07491,22.520337 34.5,20.5 l -9,0 z"/><path id="path3894" fill="none" stroke="url(#linearGradient2886)" stroke-dasharray="none" stroke-miterlimit="4" stroke-opacity="1" stroke-width=".761" d="m 26.393877,21.414357 c 0.312122,1.689656 0.523301,3.270178 0.192102,5.154136 -0.04271,0.24503 -0.182707,0.472665 -0.38421,0.624744 -1.764099,1.427929 -4.181641,2.343577 -6.42119,3.213871 -1.119774,0.435148 -2.116585,0.869404 -2.753501,1.280725 -0.636916,0.411322 -0.769,0.685117 -0.768419,0.812167 0.0027,0.0416 0.0027,0.08335 0,0.124949 L 15.2341,39.996924 c 0,0.003 -1.13e-4,0.02806 0,0.03124 0.0057,0.158279 0.153769,0.472823 0.800437,0.905879 0.659644,0.441744 1.735956,0.892749 3.105694,1.280724 2.739476,0.77595 6.645237,1.280725 10.949972,1.280725 4.304734,0 8.210496,-0.504775 10.949972,-1.280725 1.369738,-0.387975 2.44605,-0.83898 3.105694,-1.280724 0.646668,-0.433056 0.794801,-0.7476 0.800437,-0.905879 l 0,-0.03124 -1.024559,-7.371975 c -0.0027,-0.0416 -0.0027,-0.08335 0,-0.124949 1.4e-4,0.02463 0.01612,0.0028 -0.09605,-0.124949 -0.112164,-0.127717 -0.342621,-0.298896 -0.672367,-0.499795 -0.659492,-0.401799 -1.686088,-0.85712 -2.817537,-1.311962 -2.262899,-0.909683 -4.955225,-1.838006 -6.69165,-3.311142 -0.189794,-0.157338 -0.317632,-0.384107 -0.352191,-0.624743 -0.217092,-1.742485 -0.05887,-3.439296 0.224123,-5.122899 l -7.122198,-0.09015 z"/><path id="path3764" fill="url(#radialGradient2888)" fill-opacity="1" stroke="url(#linearGradient2890)" stroke-dasharray="none" stroke-miterlimit="4" stroke-opacity="1" stroke-width=".752" d="m 30,5.5 c -4.142136,0 -7.5,3.134007 -7.5,7 0.03246,1.430727 0.154571,3.130379 1,7 0.5,1.5 4.95976,5.5 5,6 0.96967,0.5 2.5,0.5 3.5,0 0,-0.5 4,-4.5 4.5,-6 0.951375,-4.021691 0.948972,-5.5 1,-7 0,-3.865993 -3.357864,-7 -7.5,-7 z"/><path id="path3848" fill="url(#linearGradient2892)" fill-opacity="1" stroke="none" d="m 21,43.2 c -2.362349,-1.982195 -1.235869,-6.38286 -1,-9.2 -1,2 -1,8 -3,8 1.36261,0.458554 2.749561,0.965789 4,1.2 z" opacity=".3"/><path id="path3850" fill="url(#linearGradient2894)" fill-opacity="1" stroke="none" d="m 39,43.2 c 2.350047,-1.743746 1.156723,-6.485917 1,-9.2 1,2 1,8 3,8 -1.36261,0.458554 -2.749561,0.965789 -4,1.2 z" opacity=".3"/><path id="path3833" fill="url(#radialGradient2896)" fill-opacity="1" stroke="none" d="m 25.3125,27 c 0.686303,1.744757 2.518909,3 4.6875,3 2.168591,0 4.001197,-1.255243 4.6875,-3 l -9.375,0 z" opacity=".2"/><path id="path3906" fill="none" stroke="url(#linearGradient2898)" stroke-dasharray="none" stroke-miterlimit="4" stroke-opacity="1" stroke-width=".757" d="m 30.000008,6.1549213 c -3.773493,0 -6.735763,2.7768043 -6.754891,6.1542377 1.49e-4,0.0065 -1.51e-4,0.0259 0,0.0324 0.03325,1.424025 0.163348,3.090266 1.011602,6.964006 0.04238,0.100166 0.349566,0.604189 0.815809,1.166066 0.481063,0.579737 1.085781,1.237446 1.696881,1.878662 0.611099,0.641216 1.229367,1.277463 1.696881,1.781491 0.233756,0.252013 0.423262,0.474405 0.587381,0.680204 0.01487,0.01864 0.01829,0.04636 0.03263,0.06478 0.605561,0.236256 1.66024,0.238847 2.316894,0 0.146495,-0.211036 0.313373,-0.458884 0.522117,-0.712596 0.417489,-0.507426 0.951031,-1.106765 1.501087,-1.749099 0.550057,-0.642335 1.126568,-1.329015 1.566352,-1.911053 0.418013,-0.553224 0.686697,-1.012317 0.750544,-1.166067 0.0035,-0.01438 -0.0035,-0.01807 0,-0.03239 0.963339,-4.052015 0.958853,-5.402581 1.011601,-6.964006 0,-0.01094 6.3e-5,-0.02145 0,-0.0324 C 36.735776,8.9317235 33.7735,6.1549192 30.000005,6.1549192 z" opacity=".7"/></g><g id="layer1" transform="translate(23.000042,26.127421)"><path id="path2555" fill="url(#radialGradient2456)" fill-opacity="1" stroke="url(#linearGradient2458)" stroke-dasharray="none" stroke-dashoffset="0" stroke-linecap="round" stroke-linejoin="round" stroke-miterlimit="4" stroke-opacity="1" stroke-width=".752" d="m 12.000002,1.501785 c -5.792553,0 -10.498217,4.7056616 -10.498217,10.498214 0,5.792554 4.705664,10.498219 10.498217,10.498216 5.79255,0 10.498219,-4.705662 10.498213,-10.498216 0,-5.7925524 -4.705663,-10.498214 -10.498213,-10.498214 z"/><path id="path2463" fill="none" stroke="url(#linearGradient3843)" stroke-dasharray="none" stroke-miterlimit="4" stroke-opacity="1" stroke-width=".752" d="m 21.643751,11.962178 c 0,5.347134 -4.318058,9.681873 -9.643814,9.681873 -5.3262484,0 -9.6440603,-4.334788 -9.6440603,-9.681873 0,-5.3468877 4.3178119,-9.6811885 9.6440603,-9.6811885 5.325756,0 9.643814,4.3343008 9.643814,9.6811885 l 0,0 z" opacity=".4"/><path font-stretch="normal" style="text-align:start;line-height:100%;-inkscape-font-specification:URW Palladio L Bold" id="text3482" fill="#000" fill-opacity="1" stroke="none" d="m 9,10.851312 c 0.133856,0.363882 0.284521,0.658836 0.605452,0.255527 0.397883,-0.236731 1.731043,-1.2743934 1.597644,-0.257979 -0.426877,1.880812 -0.946481,3.741845 -1.3437773,5.628452 -0.4154287,1.033002 0.5279303,1.967395 1.5128653,1.295629 1.046924,-0.431584 1.947798,-1.134561 2.868143,-1.779436 -0.125575,-0.307965 -0.209273,-0.750354 -0.556249,-0.347606 -0.455597,0.20679 -1.450673,1.181728 -1.635539,0.377622 0.382698,-2.03658 1.09175,-3.99777 1.544989,-6.018111 C 14.010625,9.0764616 13.329423,7.9027016 12.309742,8.6711396 11.088138,9.2031876 10.066557,10.07231 9,10.851312 z M 13.533765,4.001596 C 12.287368,3.935451 11.635709,5.9446775 12.820152,6.4944925 13.781082,6.8885796 14.827362,5.9030226 14.592611,4.9182248 14.519759,4.4054322 14.059369,3.9843465 13.533766,4.001596 l -10e-7,0 z" font-family="URW Palladio L" font-size="40" font-style="normal" font-variant="normal" font-weight="bold" opacity=".2" text-anchor="start" writing-mode="lr-tb"/><path font-stretch="normal" style="text-align:start;line-height:100%;-inkscape-font-specification:URW Palladio L Bold" id="path3536" fill="#fff" fill-opacity="1" stroke="none" d="m 9,11.851312 c 0.133856,0.363882 0.284521,0.658836 0.605452,0.255527 0.397883,-0.236731 1.731043,-1.274393 1.597644,-0.257979 -0.426877,1.880812 -0.946481,3.741845 -1.3437773,5.628452 -0.4154287,1.033002 0.5279303,1.967395 1.5128653,1.295629 1.046924,-0.431584 1.947798,-1.134561 2.868143,-1.779436 -0.125575,-0.307965 -0.209273,-0.750354 -0.556249,-0.347606 -0.455597,0.20679 -1.450673,1.181728 -1.635539,0.377622 0.382698,-2.03658 1.09175,-3.99777 1.544989,-6.018111 C 14.010625,10.076462 13.329423,8.9027016 12.309742,9.6711396 11.088138,10.203188 10.066557,11.07231 9,11.851312 z m 4.533765,-6.849716 c -1.246397,-0.066145 -1.898056,1.9430816 -0.713613,2.4928966 0.96093,0.394086 2.00721,-0.59147 1.772459,-1.5762678 C 14.519759,5.4054321 14.059369,4.9843465 13.533766,5.001596 l -10e-7,0 z" font-family="URW Palladio L" font-size="40" font-style="normal" font-variant="normal" font-weight="bold" text-anchor="start" writing-mode="lr-tb"/></g></g></svg>