<svg xmlns="http://www.w3.org/2000/svg" xmlns:svg="http://www.w3.org/2000/svg" xmlns:xlink="http://www.w3.org/1999/xlink" id="svg2" width="16" height="16" version="1.0"><defs id="defs4"><linearGradient id="linearGradient3587-6-5"><stop id="stop3589-9-2" offset="0" stop-color="#000" stop-opacity="1"/><stop id="stop3591-7-4" offset="1" stop-color="#363636" stop-opacity="1"/></linearGradient><linearGradient id="linearGradient3170" x1="15.669" x2="15.669" y1="-2.622" y2="11.969" gradientTransform="matrix(0.9302326,0,0,1.2359551,-14.575969,2.1536003)" gradientUnits="userSpaceOnUse" xlink:href="#linearGradient3587-6-5"/><linearGradient id="linearGradient3173" x1="35.008" x2="35.008" y1="23.179" y2="4.995" gradientTransform="translate(-28.785715,-6.035714)" gradientUnits="userSpaceOnUse" xlink:href="#linearGradient3587-6-5"/></defs><path id="path3229" fill="#fff" fill-opacity="1" fill-rule="evenodd" stroke="none" stroke-dasharray="none" stroke-dashoffset="0" stroke-linecap="butt" stroke-linejoin="miter" stroke-miterlimit="4" stroke-opacity="1" stroke-width="1" marker-end="none" marker-mid="none" marker-start="none" d="M 8,1 C 3.5840001,1 -1.9999999e-07,4.5840001 8.5487173e-15,9 C 8.5487173e-15,13.416 3.5840002,17 8,17 C 12.416,17 16,13.416 16,9 C 16,4.5840001 12.416,1.0000002 8,1 z M 8,6 C 9.656,6 11,7.344 11,9 C 11,10.656 9.656,12 8,12 C 6.344,12 5,10.656 5,9 C 5.0000001,7.344 6.344,6 8,6 z" display="inline" enable-background="accumulate" opacity=".6" overflow="visible" visibility="visible" style="marker:none"/><path id="path3170" fill="url(#linearGradient3173)" fill-opacity="1" fill-rule="evenodd" stroke="none" stroke-dasharray="none" stroke-dashoffset="0" stroke-linecap="butt" stroke-linejoin="miter" stroke-miterlimit="4" stroke-opacity="1" stroke-width="1" marker-end="none" marker-mid="none" marker-start="none" d="M 8,0 C 3.5840001,0 -1.9999999e-07,3.5840001 8.5487173e-15,8 C 8.5487173e-15,12.416 3.5840002,16 8,16 C 8.897,16 9.75722,15.835186 10.5625,15.5625 L 9.03125,10.8125 C 8.707095,10.932473 8.3657,11 8,11 C 6.344,11 5,9.656 5,8 C 5.0000001,6.344 6.344,5 8,5 L 8,0 z M 16,8 C 16,8.329718 15.976324,8.649418 15.9375,8.96875 C 15.976251,8.649709 16,8.329445 16,8 z M 13.375,13.90625 C 13.197141,14.067747 13.004386,14.229864 12.8125,14.375 C 13.008162,14.22697 13.193944,14.071259 13.375,13.90625 z M 11.6875,15.09375 C 11.413435,15.23883 11.128174,15.359345 10.84375,15.46875 C 11.134419,15.358176 11.414161,15.23611 11.6875,15.09375 z" display="inline" enable-background="accumulate" opacity=".42" overflow="visible" visibility="visible" style="marker:none"/><path id="path3288" fill="url(#linearGradient3170)" fill-opacity="1" fill-rule="nonzero" stroke="none" stroke-dasharray="none" stroke-dashoffset="0" stroke-linecap="butt" stroke-linejoin="miter" stroke-miterlimit="4" stroke-opacity="1" stroke-width="1" marker-end="none" marker-mid="none" marker-start="none" d="M 8,0 L 8,5 C 9.656,5.0000001 11,6.344 11,8 C 11,8.987512 10.518268,9.859473 9.78125,10.40625 C 9.543332,10.581954 9.29569,10.717085 9.03125,10.8125 L 10.5625,15.59375 C 11.328917,15.33481 12.064773,14.943544 12.75,14.4375 C 14.720951,12.979935 16,10.637745 16,8 C 16,3.5840001 12.416,2e-07 8,0 z" display="inline" enable-background="accumulate" opacity=".7" overflow="visible" visibility="visible" style="marker:none"/></svg>