<svg xmlns="http://www.w3.org/2000/svg" xmlns:svg="http://www.w3.org/2000/svg" xmlns:xlink="http://www.w3.org/1999/xlink" id="svg2465" width="16" height="16" version="1.0"><defs id="defs2467"><linearGradient id="linearGradient3587-6-5"><stop id="stop3589-9-2" offset="0" stop-color="#000" stop-opacity="1"/><stop id="stop3591-7-4" offset="1" stop-color="#363636" stop-opacity="1"/></linearGradient><linearGradient id="linearGradient2390" x1="15.669" x2="15.669" y1="-2.622" y2="11.969" gradientTransform="matrix(0.9302326,0,0,1.2359551,-14.575969,2.1536003)" gradientUnits="userSpaceOnUse" xlink:href="#linearGradient3587-6-5"/><linearGradient id="linearGradient2393" x1="35.008" x2="35.008" y1="23.179" y2="4.995" gradientTransform="translate(-28.785715,-6.035714)" gradientUnits="userSpaceOnUse" xlink:href="#linearGradient3587-6-5"/></defs><path id="path3229" fill="#fff" fill-opacity="1" fill-rule="evenodd" stroke="none" stroke-dasharray="none" stroke-dashoffset="0" stroke-linecap="butt" stroke-linejoin="miter" stroke-miterlimit="4" stroke-opacity="1" stroke-width="1" marker-end="none" marker-mid="none" marker-start="none" d="M 8,1 C 3.5840001,1 -1.9999999e-07,4.5840001 8.5487173e-15,9 C 8.5487173e-15,13.416 3.5840002,17 8,17 C 12.416,17 16,13.416 16,9 C 16,4.5840001 12.416,1.0000002 8,1 z M 8,6 C 9.656,6 11,7.344 11,9 C 11,10.656 9.656,12 8,12 C 6.344,12 5,10.656 5,9 C 5.0000001,7.344 6.344,6 8,6 z" display="inline" enable-background="accumulate" opacity=".6" overflow="visible" visibility="visible" style="marker:none"/><path id="path3170" fill="url(#linearGradient2393)" fill-opacity="1" fill-rule="evenodd" stroke="none" stroke-dasharray="none" stroke-dashoffset="0" stroke-linecap="butt" stroke-linejoin="miter" stroke-miterlimit="4" stroke-opacity="1" stroke-width="1" marker-end="none" marker-mid="none" marker-start="none" d="M 8,0 C 3.5840001,0 -1.9999999e-07,3.5840001 8.5487173e-15,8 C 8.5487173e-15,12.416 3.5840002,16 8,16 C 12.416,16 16,12.416 16,8 C 16,6.221745 15.420128,4.5787313 14.4375,3.25 C 14.420304,3.2267472 14.392441,3.2105592 14.375,3.1875 C 14.229864,2.9956143 14.067747,2.8028593 13.90625,2.625 C 13.549751,2.2323824 13.144553,1.8780279 12.71875,1.5625 L 9.78125,5.59375 C 10.019294,5.7711496 10.229248,5.980164 10.40625,6.21875 C 10.776386,6.717669 11,7.331512 11,8 C 11,9.656 9.656,11 8,11 C 6.344,11 5,9.656 5,8 C 5.0000001,6.344 6.344,5 8,5 L 8,0 z M 8,5 C 8.246878,5 8.489591,5.0370717 8.71875,5.09375 C 8.490779,5.0373157 8.245243,5 8,5 z M 8.71875,5.09375 C 8.947909,5.1504283 9.170112,5.2374699 9.375,5.34375 C 9.163509,5.2319227 8.956381,5.1525755 8.71875,5.09375 z M 8.65625,0.03125 C 8.818682,0.0443016 8.965374,0.0711967 9.125,0.09375 C 8.970103,0.0719023 8.813991,0.0440449 8.65625,0.03125 z" display="inline" enable-background="accumulate" opacity=".42" overflow="visible" visibility="visible" style="marker:none"/><path id="path3288" fill="url(#linearGradient2390)" fill-opacity="1" fill-rule="nonzero" stroke="none" stroke-dasharray="none" stroke-dashoffset="0" stroke-linecap="butt" stroke-linejoin="miter" stroke-miterlimit="4" stroke-opacity="1" stroke-width="1" marker-end="none" marker-mid="none" marker-start="none" d="M 8,0 L 8,5 C 8.667837,5.0000001 9.28395,5.223143 9.78125,5.59375 L 12.71875,1.53125 C 11.396315,0.5653329 9.76146,1e-07 8,0 z" display="inline" enable-background="accumulate" opacity=".7" overflow="visible" visibility="visible" style="marker:none"/></svg>