<svg xmlns="http://www.w3.org/2000/svg" xmlns:svg="http://www.w3.org/2000/svg" xmlns:xlink="http://www.w3.org/1999/xlink" id="svg2494" width="16" height="16" version="1.0"><defs id="defs2496"><linearGradient id="linearGradient3587-6-5"><stop id="stop3589-9-2" offset="0" stop-color="#000" stop-opacity="1"/><stop id="stop3591-7-4" offset="1" stop-color="#363636" stop-opacity="1"/></linearGradient><linearGradient id="linearGradient2390" x1="15.669" x2="15.669" y1="-2.622" y2="11.969" gradientTransform="matrix(0.9302326,0,0,1.2359551,-14.575969,2.1536003)" gradientUnits="userSpaceOnUse" xlink:href="#linearGradient3587-6-5"/><linearGradient id="linearGradient2393" x1="35.008" x2="35.008" y1="23.179" y2="4.995" gradientTransform="translate(-28.785715,-6.035714)" gradientUnits="userSpaceOnUse" xlink:href="#linearGradient3587-6-5"/></defs><path id="path3229" fill="#fff" fill-opacity="1" fill-rule="evenodd" stroke="none" stroke-dasharray="none" stroke-dashoffset="0" stroke-linecap="butt" stroke-linejoin="miter" stroke-miterlimit="4" stroke-opacity="1" stroke-width="1" marker-end="none" marker-mid="none" marker-start="none" d="M 8,1 C 3.5840001,1 -1.9999999e-07,4.5840001 8.5487173e-15,9 C 8.5487173e-15,13.416 3.5840002,17 8,17 C 12.416,17 16,13.416 16,9 C 16,4.5840001 12.416,1.0000002 8,1 z M 8,6 C 9.656,6 11,7.344 11,9 C 11,10.656 9.656,12 8,12 C 6.344,12 5,10.656 5,9 C 5.0000001,7.344 6.344,6 8,6 z" display="inline" enable-background="accumulate" opacity=".6" overflow="visible" visibility="visible" style="marker:none"/><path id="path3170" fill="url(#linearGradient2393)" fill-opacity="1" fill-rule="evenodd" stroke="none" stroke-dasharray="none" stroke-dashoffset="0" stroke-linecap="butt" stroke-linejoin="miter" stroke-miterlimit="4" stroke-opacity="1" stroke-width="1" marker-end="none" marker-mid="none" marker-start="none" d="M 8,0 C 3.5840001,0 -1.9999999e-07,3.5840001 8.5487173e-15,8 C 8.5487173e-15,12.416 3.5840002,16 8,16 C 11.56385,16 14.560166,13.659511 15.59375,10.4375 L 10.875,8.84375 C 10.506879,10.084088 9.3593,11 8,11 C 6.344,11 5,9.656 5,8 C 5.0000001,6.344 6.344,5 8,5 L 8,0 z M 16,8 C 16,8.404739 15.963077,8.800153 15.90625,9.1875 C 15.964032,8.799873 16,8.40363 16,8 z M 15.90625,9.3125 C 15.862832,9.579521 15.788565,9.835906 15.71875,10.09375 C 15.788073,9.837344 15.86249,9.578402 15.90625,9.3125 z" display="inline" enable-background="accumulate" opacity=".42" overflow="visible" visibility="visible" style="marker:none"/><path id="path3288" fill="url(#linearGradient2390)" fill-opacity="1" fill-rule="nonzero" stroke="none" stroke-dasharray="none" stroke-dashoffset="0" stroke-linecap="butt" stroke-linejoin="miter" stroke-miterlimit="4" stroke-opacity="1" stroke-width="1" marker-end="none" marker-mid="none" marker-start="none" d="M 8,0 L 8,5 C 9.656,5.0000001 11,6.344 11,8 C 11,8.295765 10.96319,8.574348 10.882848,8.84375 L 15.625,10.4375 C 15.872009,9.667155 16,8.851831 16,8 C 16,3.5840001 12.416,2e-07 8,0 z" display="inline" enable-background="accumulate" opacity=".7" overflow="visible" visibility="visible" style="marker:none"/></svg>