<svg xmlns="http://www.w3.org/2000/svg" xmlns:svg="http://www.w3.org/2000/svg" xmlns:xlink="http://www.w3.org/1999/xlink" id="svg3348" width="48" height="48"><defs id="defs3350"><linearGradient id="linearGradient3505-120-895-718-997-474-210"><stop id="stop8334" offset="0" stop-color="#fff" stop-opacity="1"/><stop id="stop8336" offset="1" stop-color="#c6c6c6" stop-opacity="1"/></linearGradient><linearGradient id="linearGradient3346" x1="24.094" x2="25.011" y1="5.786" y2="8.834" gradientTransform="matrix(1.0315098,0,0,0.9763566,-0.7766819,11.755022)" gradientUnits="userSpaceOnUse" xlink:href="#linearGradient3505-120-895-718-997-474-210"/><linearGradient id="linearGradient3505-120-372-678-994-840-277"><stop id="stop8328" offset="0" stop-color="#fff" stop-opacity="1"/><stop id="stop8330" offset="1" stop-color="#c6c6c6" stop-opacity="1"/></linearGradient><linearGradient id="linearGradient3344" x1="24.094" x2="25.011" y1="5.786" y2="8.834" gradientTransform="matrix(1.0315098,0,0,0.9763566,-0.7766819,7.5202616)" gradientUnits="userSpaceOnUse" xlink:href="#linearGradient3505-120-372-678-994-840-277"/><linearGradient id="linearGradient3505-120-322-103-636-587-89"><stop id="stop8286" offset="0" stop-color="#fff" stop-opacity="1"/><stop id="stop8288" offset="1" stop-color="#c6c6c6" stop-opacity="1"/></linearGradient><linearGradient id="linearGradient3342" x1="24.094" x2="25.011" y1="5.786" y2="8.834" gradientTransform="matrix(1.0315098,0,0,0.9763566,-0.7766819,3.3999545)" gradientUnits="userSpaceOnUse" xlink:href="#linearGradient3505-120-322-103-636-587-89"/><linearGradient id="linearGradient3505-120-211-574-390-147-628"><stop id="stop8316" offset="0" stop-color="#fff" stop-opacity="1"/><stop id="stop8318" offset="1" stop-color="#c6c6c6" stop-opacity="1"/></linearGradient><linearGradient id="linearGradient3340" x1="20.133" x2="20.953" y1="2.075" y2="5.475" gradientTransform="matrix(1.0315098,0,0,0.9763566,-0.7766819,3.3999545)" gradientUnits="userSpaceOnUse" xlink:href="#linearGradient3505-120-211-574-390-147-628"/><linearGradient id="linearGradient3505-120-441-561-710-527-726"><stop id="stop8310" offset="0" stop-color="#fff" stop-opacity="1"/><stop id="stop8312" offset="1" stop-color="#c6c6c6" stop-opacity="1"/></linearGradient><linearGradient id="linearGradient3338" x1="17.351" x2="21.793" y1="20.451" y2="23.265" gradientTransform="matrix(1.0315098,0,0,0.9763566,-0.7766819,3.3999545)" gradientUnits="userSpaceOnUse" xlink:href="#linearGradient3505-120-441-561-710-527-726"/><linearGradient id="linearGradient3623-669-154-112-665-867-156"><stop id="stop8292" offset="0" stop-color="#fbfbfb" stop-opacity="1"/><stop id="stop8294" offset="1" stop-color="#e3e3e3" stop-opacity="1"/></linearGradient><linearGradient id="linearGradient3336" x1="31.426" x2="29.164" y1="18.584" y2="15.415" gradientTransform="matrix(1.0315098,0,0,0.9763566,-0.7766819,3.3999545)" gradientUnits="userSpaceOnUse" xlink:href="#linearGradient3623-669-154-112-665-867-156"/><linearGradient id="linearGradient3593-882-125-499-740-495-538"><stop id="stop8304" offset="0" stop-color="#c4c4c4" stop-opacity="1"/><stop id="stop8306" offset="1" stop-color="#fdfdfd" stop-opacity="1"/></linearGradient><linearGradient id="linearGradient3334" x1="27.194" x2="28.024" y1="5.036" y2="2.106" gradientTransform="matrix(1.0315098,0,0,0.9763566,-0.7766819,3.3999545)" gradientUnits="userSpaceOnUse" xlink:href="#linearGradient3593-882-125-499-740-495-538"/><linearGradient id="linearGradient3561-467-493-627-630-944-397"><stop id="stop8298" offset="0" stop-color="#969696" stop-opacity="1"/><stop id="stop8300" offset="1" stop-color="#e5e5e5" stop-opacity="1"/></linearGradient><linearGradient id="linearGradient3332" x1="24.766" x2="25.534" y1="9.485" y2="5.5" gradientTransform="matrix(1.0315098,0,0,0.9763566,-0.7766819,3.3999545)" gradientUnits="userSpaceOnUse" xlink:href="#linearGradient3561-467-493-627-630-944-397"/><linearGradient id="linearGradient3561-622-687-759-998-959-612"><stop id="stop8280" offset="0" stop-color="#969696" stop-opacity="1"/><stop id="stop8282" offset="1" stop-color="#e5e5e5" stop-opacity="1"/></linearGradient><linearGradient id="linearGradient3330" x1="24.095" x2="25.065" y1="12.98" y2="9.932" gradientTransform="matrix(1.0315098,0,0,0.9763566,-0.7766819,3.3999545)" gradientUnits="userSpaceOnUse" xlink:href="#linearGradient3561-622-687-759-998-959-612"/><linearGradient id="linearGradient3505-120-123-120-941-424-947"><stop id="stop8322" offset="0" stop-color="#fff" stop-opacity="1"/><stop id="stop8324" offset="1" stop-color="#c6c6c6" stop-opacity="1"/></linearGradient><linearGradient id="linearGradient3328" x1="32.042" x2="25.89" y1="20.406" y2="24.276" gradientTransform="matrix(1.0315098,0,0,0.9763566,-0.7766819,3.3999545)" gradientUnits="userSpaceOnUse" xlink:href="#linearGradient3505-120-123-120-941-424-947"/><linearGradient id="linearGradient3930-88-658-113-271-972-661"><stop id="stop9336" offset="0" stop-color="#aaa" stop-opacity="1"/><stop id="stop9338" offset="1" stop-color="#e3e3e3" stop-opacity="1"/></linearGradient><radialGradient id="radialGradient3326" cx="24.002" cy="30.273" r="8.823" fx="24.002" fy="30.273" gradientTransform="matrix(-1.3035745,9.2909262e-7,-1.4086036e-7,-0.1976358,55.289294,34.966819)" gradientUnits="userSpaceOnUse" xlink:href="#linearGradient3930-88-658-113-271-972-661"/><linearGradient id="linearGradient3386-363-795-580-350-907-957"><stop id="stop10346" offset="0" stop-color="#fff" stop-opacity="1"/><stop id="stop10348" offset="1" stop-color="#e7e7e7" stop-opacity="1"/></linearGradient><linearGradient id="linearGradient3324" x1="17.512" x2="34.361" y1="26.085" y2="26.085" gradientTransform="matrix(1.0171575,0,0,0.9115199,-1.9504682,5.0509796)" gradientUnits="userSpaceOnUse" spreadMethod="pad" xlink:href="#linearGradient3386-363-795-580-350-907-957"/><linearGradient id="linearGradient3578-995-735-4-566-885-385-488-812-692-614-726-664-85-518-525"><stop id="stop11370" offset="0" stop-color="#0a0a0a" stop-opacity="1"/><stop id="stop11372" offset="1" stop-color="#fff" stop-opacity="1"/></linearGradient><linearGradient id="linearGradient3322" x1="19.275" x2="23.635" y1="38.173" y2="38.173" gradientTransform="translate(-1.5839151,3)" gradientUnits="userSpaceOnUse" spreadMethod="reflect" xlink:href="#linearGradient3578-995-735-4-566-885-385-488-812-692-614-726-664-85-518-525"/><linearGradient id="linearGradient3346-698-999-935-946-915-997"><stop id="stop11364" offset="0" stop-color="#d3d3d3" stop-opacity="1"/><stop id="stop11366" offset="1" stop-color="#fff" stop-opacity="1"/></linearGradient><linearGradient id="linearGradient3320" x1="-8.879" x2="-10.896" y1="29.86" y2="24.024" gradientUnits="userSpaceOnUse" spreadMethod="reflect" xlink:href="#linearGradient3346-698-999-935-946-915-997"/><linearGradient id="linearGradient3346-442-243-927-308-836-560"><stop id="stop11382" offset="0" stop-color="#d3d3d3" stop-opacity="1"/><stop id="stop11384" offset="1" stop-color="#fff" stop-opacity="1"/></linearGradient><linearGradient id="linearGradient3318" x1="-8.184" x2="-10.433" y1="30.237" y2="24.102" gradientUnits="userSpaceOnUse" spreadMethod="reflect" xlink:href="#linearGradient3346-442-243-927-308-836-560"/><linearGradient id="linearGradient3346-694-937-715-271-692-411"><stop id="stop11376" offset="0" stop-color="#d3d3d3" stop-opacity="1"/><stop id="stop11378" offset="1" stop-color="#fff" stop-opacity="1"/></linearGradient><linearGradient id="linearGradient3316" x1="-11.703" x2="-12.062" y1="31.305" y2="25.343" gradientUnits="userSpaceOnUse" xlink:href="#linearGradient3346-694-937-715-271-692-411"/><linearGradient id="linearGradient3338-803-680-477-389-726"><stop id="stop7262" offset="0" stop-color="#fff" stop-opacity="1"/><stop id="stop7264" offset="1" stop-color="#a3a3a3" stop-opacity="1"/></linearGradient><linearGradient id="linearGradient3314" x1="24.485" x2="24.573" y1="31.518" y2="33.699" gradientTransform="translate(-1.499999,3)" gradientUnits="userSpaceOnUse" spreadMethod="reflect" xlink:href="#linearGradient3338-803-680-477-389-726"/><linearGradient id="linearGradient3280"><stop id="stop3282" offset="0" stop-color="#fff" stop-opacity="1"/><stop id="stop3284" offset=".549" stop-color="#fff" stop-opacity="1"/><stop id="stop3286" offset="1" stop-color="#fff" stop-opacity="0"/></linearGradient><radialGradient id="radialGradient3278" cx="24.302" cy="15.052" r="14.02" fx="24.302" fy="15.052" gradientUnits="userSpaceOnUse" xlink:href="#linearGradient3280"/></defs><metadata id="metadata3353"/><g id="layer1"><g id="g3288" transform="translate(0,1)"><path id="path19509" fill="#606060" fill-rule="nonzero" stroke="#383838" stroke-miterlimit="4" stroke-opacity="1" stroke-width="1" d="M 20.5,42.5 L 20.5,43.884615 C 20.5,45.26923 22.147059,46.5 24.000001,46.5 C 25.852942,46.5 27.5,45.26923 27.5,43.884615 L 27.5,42.5 L 20.5,42.5 z"/><path id="path3209" fill="url(#linearGradient3314)" fill-opacity="1" fill-rule="nonzero" stroke="#989898" stroke-dashoffset="0" stroke-linecap="round" stroke-linejoin="round" stroke-miterlimit="4" stroke-opacity="1" stroke-width="2" marker-end="none" marker-mid="none" marker-start="none" d="M 23.871236,31.623519 C 20.604446,31.6156 16.899805,32.580499 18.907265,34.404546 C 18.409541,34.606241 17.698082,35.056698 17.781951,36.11077 C 17.828256,36.661264 18.409099,36.99918 19.20344,37.247287 C 18.302936,37.881784 17.72994,38.55227 17.781951,39.170624 C 17.827716,39.714699 18.396331,40.087289 19.17443,40.336283 C 18.296617,40.963478 17.730652,41.649745 17.781951,42.259619 C 17.860354,43.191711 19.861552,44.235779 24.194864,44.115531 C 27.314797,44.030099 30.067965,43.468343 30.28525,42.259619 C 30.370571,41.784995 29.983888,41.34215 29.385941,40.948254 C 29.833567,40.495031 30.147157,40.035337 30.11119,39.607746 C 30.06521,39.061107 29.503283,38.690738 28.718712,38.442088 C 29.596525,37.814893 30.162489,37.128626 30.11119,36.518751 C 30.06521,35.972112 29.503283,35.630886 28.718712,35.382234 C 29.606992,34.751651 30.16282,34.072695 30.11119,33.458897 C 30.053801,32.776619 26.941581,31.630962 23.871236,31.623519 z" display="inline" overflow="visible" visibility="visible" style="marker:none"/><path id="path3183" fill="#f6f6f6" fill-opacity="1" fill-rule="nonzero" stroke="none" stroke-dashoffset="0" stroke-linecap="round" stroke-linejoin="round" stroke-miterlimit="4" stroke-opacity="1" stroke-width=".088" marker-end="none" marker-mid="none" marker-start="none" d="M 30.209694,42.21572 C 29.992408,43.424444 26.917282,44.10655 21.995367,43.858968 C 18.87818,43.702168 18.699807,42.82605 18.917091,41.617325 C 19.134377,40.4086 21.840267,39.561647 24.957025,39.726804 C 28.073783,39.89196 30.426978,41.006996 30.209694,42.21572 z" display="inline" overflow="visible" visibility="visible" style="marker:none"/><path id="path1603" fill="url(#linearGradient3316)" fill-opacity="1" fill-rule="nonzero" stroke="none" stroke-dashoffset="0" stroke-linecap="round" stroke-linejoin="round" stroke-miterlimit="4" stroke-opacity="1" stroke-width=".13" marker-end="none" marker-mid="none" marker-start="none" d="M -3.5355339,27.228739 A 10.341436,3.2703688 0 1 1 -24.218407,27.228739 A 10.341436,3.2703688 0 1 1 -3.5355339,27.228739 z" display="inline" overflow="visible" transform="matrix(0.596154,-0.127796,6.358129e-2,0.755885,30.407511,18.530977)" visibility="visible" style="marker:none"/><path id="path2364" fill="url(#linearGradient3318)" fill-opacity="1" fill-rule="nonzero" stroke="none" stroke-dashoffset="0" stroke-linecap="round" stroke-linejoin="round" stroke-miterlimit="4" stroke-opacity="1" stroke-width=".13" marker-end="none" marker-mid="none" marker-start="none" d="M -3.5355339,27.228739 A 10.341436,3.2703688 0 1 1 -24.218407,27.228739 A 10.341436,3.2703688 0 1 1 -3.5355339,27.228739 z" display="inline" overflow="visible" transform="matrix(0.596154,-0.127796,6.358129e-2,0.755885,30.407511,15.455425)" visibility="visible" style="marker:none"/><path id="path20372" fill="#fff" fill-opacity="1" fill-rule="nonzero" stroke="none" stroke-dashoffset="0" stroke-linecap="butt" stroke-linejoin="round" stroke-miterlimit="4" stroke-opacity="1" stroke-width="2" marker-end="none" marker-mid="none" marker-start="none" d="M 31,22.375 A 3.25,3.25 0 1 1 24.5,22.375 A 3.25,3.25 0 1 1 31,22.375 z" display="inline" overflow="visible" transform="matrix(0.331798,0,0,0.333302,11.245771,31.18361)" visibility="visible" style="marker:none"/><path id="path2435" fill="#fff" fill-opacity="1" fill-rule="nonzero" stroke="none" stroke-dashoffset="0" stroke-linecap="butt" stroke-linejoin="round" stroke-miterlimit="4" stroke-opacity="1" stroke-width="2" marker-end="none" marker-mid="none" marker-start="none" d="M 31,22.375 A 3.25,3.25 0 1 1 24.5,22.375 A 3.25,3.25 0 1 1 31,22.375 z" display="inline" overflow="visible" transform="matrix(0.331798,0,0,0.333302,11.245771,34.17188)" visibility="visible" style="marker:none"/><path id="path3362" fill="url(#linearGradient3320)" fill-opacity="1" fill-rule="nonzero" stroke="none" stroke-dashoffset="0" stroke-linecap="round" stroke-linejoin="round" stroke-miterlimit="4" stroke-opacity="1" stroke-width=".13" marker-end="none" marker-mid="none" marker-start="none" d="M -3.5355339,27.228739 A 10.341436,3.2703688 0 1 1 -24.218407,27.228739 A 10.341436,3.2703688 0 1 1 -3.5355339,27.228739 z" display="inline" overflow="visible" transform="matrix(0.596154,-0.127796,6.358129e-2,0.755885,30.407511,12.434446)" visibility="visible" style="marker:none"/><path id="path4710" fill="#f6f6f6" fill-opacity="1" fill-rule="nonzero" stroke="none" stroke-dashoffset="0" stroke-linecap="round" stroke-linejoin="round" stroke-miterlimit="4" stroke-opacity="1" stroke-width=".13" marker-end="none" marker-mid="none" marker-start="none" d="M -3.5355339,27.228739 A 10.341436,3.2703688 0 1 1 -24.218407,27.228739 A 10.341436,3.2703688 0 1 1 -3.5355339,27.228739 z" display="inline" overflow="visible" transform="matrix(0.609516,1.48834e-2,-0.114607,0.749847,35.764261,13.33197)" visibility="visible" style="marker:none"/><path id="path3364" fill="#fff" fill-opacity="1" fill-rule="nonzero" stroke="none" stroke-dashoffset="0" stroke-linecap="butt" stroke-linejoin="round" stroke-miterlimit="4" stroke-opacity="1" stroke-width="2" marker-end="none" marker-mid="none" marker-start="none" d="M 31,22.375 A 3.25,3.25 0 1 1 24.5,22.375 A 3.25,3.25 0 1 1 31,22.375 z" display="inline" overflow="visible" transform="matrix(0.331798,0,0,0.333302,11.245771,28.162631)" visibility="visible" style="marker:none"/><path stroke-width="2" style="marker:none" id="path3373" fill="url(#linearGradient3322)" fill-opacity="1" fill-rule="nonzero" stroke="none" stroke-dashoffset="0" stroke-linecap="round" stroke-linejoin="round" stroke-miterlimit="4" stroke-opacity="1" marker-end="none" marker-mid="none" marker-start="none" d="M 23.78732,31.623519 C 20.52053,31.6156 16.815889,32.580499 18.823349,34.404546 C 18.325625,34.606241 17.614166,35.056698 17.698035,36.11077 C 17.74434,36.661264 18.325183,36.99918 19.119524,37.247287 C 18.21902,37.881784 17.646024,38.55227 17.698035,39.170624 C 17.7438,39.714699 18.312415,40.087289 19.090514,40.336283 C 18.212701,40.963478 17.646736,41.649745 17.698035,42.259619 C 17.776438,43.191711 19.777636,44.235779 24.110948,44.115531 C 27.230881,44.030099 29.984049,43.468343 30.201334,42.259619 C 30.286655,41.784995 29.899972,41.34215 29.302025,40.948254 C 29.749651,40.495031 30.063241,40.035337 30.027274,39.607746 C 29.981294,39.061107 29.419367,38.690738 28.634796,38.442088 C 29.512609,37.814893 30.078573,37.128626 30.027274,36.518751 C 29.981294,35.972112 29.419367,35.630886 28.634796,35.382234 C 29.523076,34.751651 30.078904,34.072695 30.027274,33.458897 C 29.969885,32.776619 26.857665,31.630962 23.78732,31.623519 z" display="inline" opacity=".3" overflow="visible" visibility="visible"/><path id="rect3384" fill="url(#linearGradient3324)" fill-opacity="1" fill-rule="evenodd" stroke="#aaa" stroke-dasharray="none" stroke-dashoffset="0" stroke-linecap="round" stroke-linejoin="miter" stroke-miterlimit="4" stroke-opacity="1" stroke-width="1" marker-end="none" marker-mid="none" marker-start="none" d="M 22.248188,26.610824 C 18.049179,26.728416 15.587636,27.526574 15.5,28.252978 C 15.604574,29.084711 15.949667,34.210525 16,34.915487 C 16.100154,35.745664 18.957481,37.817605 23.717954,37.72601 C 28.478428,37.634414 31.718141,35.992049 31.995704,34.915487 C 32.040056,34.207114 32.553457,28.984286 32.495436,28.252978 C 32.217872,27.176417 28.170643,26.686915 24.185168,26.610824 C 23.493234,26.597437 22.848047,26.594026 22.248188,26.610824 z" display="inline" enable-background="accumulate" overflow="visible" visibility="visible" style="marker:none"/><path id="path3415" fill="none" fill-opacity="1" fill-rule="evenodd" stroke="url(#radialGradient3326)" stroke-dasharray="none" stroke-dashoffset="0" stroke-linecap="round" stroke-linejoin="miter" stroke-miterlimit="4" stroke-opacity="1" stroke-width="1" marker-end="none" marker-mid="none" marker-start="none" d="M 32.324873,28.820052 C 32.235782,29.272746 31.407963,29.472057 30.788322,29.635316 C 28.52673,30.131428 26.077047,30.226795 23.683835,30.227688 C 21.447711,30.198423 19.159486,30.090695 17.062285,29.599714 C 16.502874,29.445159 15.80263,29.254975 15.678169,28.857738" display="inline" enable-background="accumulate" overflow="visible" visibility="visible" style="marker:none"/><path id="path3461" fill="none" fill-rule="evenodd" stroke="#c7c7c7" stroke-dasharray="none" stroke-linecap="round" stroke-linejoin="round" stroke-miterlimit="4" stroke-opacity="1" stroke-width="5.5" d="M 28.480372,26.271529 C 28.480372,26.271529 28.401529,21.961505 31.286155,20.68522 C 34.893591,19.089131 19.595392,18.769914 15.987957,16.216171 M 31.820589,17.173823 C 34.292351,15.524532 19.662195,14.77969 16.054761,12.225949 M 31.820589,12.960364 C 34.292351,11.311073 19.662195,10.566232 16.054761,8.0124892 M 31.566994,8.4909427 C 34.038757,6.8416524 27.945545,7.4588815 24.121347,5.8546071 M 31.286155,20.68522 C 34.893591,19.089131 19.595392,18.769914 15.987957,16.216171 M 19.739163,26.271529 C 19.739163,26.271529 19.818005,21.961505 16.93338,20.68522 C 13.325944,19.089131 28.624143,19.355146 32.231578,16.801404 M 16.265336,8.0593663 C 13.793574,6.410076 20.428697,7.3725663 24.252895,5.7682918 M 16.265336,12.375131 C 13.793574,10.72584 28.55734,10.566232 32.164774,8.0124892 M 16.265336,16.495438 C 13.793574,14.846148 28.55734,15.14435 32.164774,12.590608 M 16.265336,20.730199 C 13.793574,19.080908 28.55734,19.379111 32.164774,16.825367"/><path id="path3640" fill="none" fill-rule="evenodd" stroke="url(#linearGradient3328)" stroke-dasharray="none" stroke-linecap="round" stroke-linejoin="round" stroke-miterlimit="4" stroke-opacity="1" stroke-width="3.5" d="M 28.480372,26.271529 C 28.480372,26.271529 28.401529,21.961505 31.286155,20.68522 C 34.893591,19.089131 19.595392,18.769914 15.987957,16.216171"/><path id="path3463" fill="none" fill-rule="evenodd" stroke="url(#linearGradient3330)" stroke-dasharray="none" stroke-linecap="round" stroke-linejoin="round" stroke-miterlimit="4" stroke-opacity="1" stroke-width="3.5" d="M 31.820589,17.173823 C 34.292351,15.524532 19.662195,14.77969 16.054761,12.225949"/><path id="path3469" fill="none" fill-rule="evenodd" stroke="url(#linearGradient3332)" stroke-dasharray="none" stroke-linecap="round" stroke-linejoin="round" stroke-miterlimit="4" stroke-opacity="1" stroke-width="3.5" d="M 31.820589,12.960364 C 34.292351,11.311073 19.662195,10.566232 16.054761,8.0124892"/><path id="path3474" fill="none" fill-rule="evenodd" stroke="url(#linearGradient3334)" stroke-dasharray="none" stroke-linecap="round" stroke-linejoin="round" stroke-miterlimit="4" stroke-opacity="1" stroke-width="3.5" d="M 31.566994,8.4909427 C 34.038757,6.8416524 27.945545,7.4588815 24.121347,5.8546071"/><path id="path3605" fill="#d5d5d5" fill-opacity="1" fill-rule="evenodd" stroke="url(#linearGradient3336)" stroke-dasharray="none" stroke-linecap="round" stroke-linejoin="round" stroke-miterlimit="4" stroke-opacity="1" stroke-width="3.5" d="M 31.286155,20.68522 C 34.893591,19.089131 19.595392,18.769914 15.987957,16.216171"/><path id="path3465" fill="none" fill-rule="evenodd" stroke="url(#linearGradient3338)" stroke-dasharray="none" stroke-linecap="round" stroke-linejoin="round" stroke-miterlimit="4" stroke-opacity="1" stroke-width="3.5" d="M 19.739163,26.271529 C 19.739163,26.271529 19.818005,21.961505 16.93338,20.68522 C 13.325944,19.089131 28.624143,19.355146 32.231578,16.801404"/><path id="path3476" fill="none" fill-rule="evenodd" stroke="url(#linearGradient3340)" stroke-dasharray="none" stroke-linecap="round" stroke-linejoin="round" stroke-miterlimit="4" stroke-opacity="1" stroke-width="3.5" d="M 16.265336,8.0593663 C 13.793574,6.410076 20.428697,7.3725663 24.252895,5.7682918"/><path id="path3471" fill="none" fill-rule="evenodd" stroke="url(#linearGradient3342)" stroke-dasharray="none" stroke-linecap="round" stroke-linejoin="round" stroke-miterlimit="4" stroke-opacity="1" stroke-width="3.5" d="M 16.265336,12.375131 C 13.793574,10.72584 28.55734,10.566232 32.164774,8.0124892"/><path id="path3537" fill="none" fill-rule="evenodd" stroke="url(#linearGradient3344)" stroke-dasharray="none" stroke-linecap="round" stroke-linejoin="round" stroke-miterlimit="4" stroke-opacity="1" stroke-width="3.5" d="M 16.265336,16.495438 C 13.793574,14.846148 28.55734,15.14435 32.164774,12.590608"/><path id="path3541" fill="none" fill-rule="evenodd" stroke="url(#linearGradient3346)" stroke-dasharray="none" stroke-linecap="round" stroke-linejoin="round" stroke-miterlimit="4" stroke-opacity="1" stroke-width="3.5" d="M 16.265336,20.730199 C 13.793574,19.080908 28.55734,19.379111 32.164774,16.825367"/></g><path stroke-width="1" style="marker:none" id="path3275" fill="url(#radialGradient3278)" fill-opacity="1" fill-rule="nonzero" stroke="none" stroke-dasharray="none" stroke-dashoffset="0" stroke-linecap="round" stroke-linejoin="miter" stroke-miterlimit="4" stroke-opacity="1" marker-end="none" marker-mid="none" marker-start="none" d="M 38.322511,15.051989 A 14.020431,14.020431 0 1 1 10.28165,15.051989 A 14.020431,14.020431 0 1 1 38.322511,15.051989 z" display="inline" enable-background="accumulate" opacity="1" overflow="visible" transform="matrix(1.0424838,0,0,1.1879911,-1.4089736,-1.2714763)" visibility="visible"/></g></svg>