<svg xmlns="http://www.w3.org/2000/svg" xmlns:svg="http://www.w3.org/2000/svg" xmlns:xlink="http://www.w3.org/1999/xlink" id="svg3293" width="48" height="48"><defs id="defs3295"><linearGradient id="linearGradient3338-803-680-477-389-726"><stop id="stop7262" offset="0" stop-color="#fff" stop-opacity="1"/><stop id="stop7264" offset="1" stop-color="#a3a3a3" stop-opacity="1"/></linearGradient><linearGradient id="linearGradient3687-488-20-837-274-759" x1="24.485" x2="24.573" y1="31.518" y2="33.699" gradientTransform="translate(-1.499999,4)" gradientUnits="userSpaceOnUse" spreadMethod="reflect" xlink:href="#linearGradient3338-803-680-477-389-726"/><linearGradient id="linearGradient3346-694-937-715-271-692-411"><stop id="stop11376" offset="0" stop-color="#d3d3d3" stop-opacity="1"/><stop id="stop11378" offset="1" stop-color="#fff" stop-opacity="1"/></linearGradient><linearGradient id="linearGradient3439-638-883-942-467-373-953" x1="-11.703" x2="-12.062" y1="31.305" y2="25.343" gradientUnits="userSpaceOnUse" xlink:href="#linearGradient3346-694-937-715-271-692-411"/><linearGradient id="linearGradient3346-442-243-927-308-836-560"><stop id="stop11382" offset="0" stop-color="#d3d3d3" stop-opacity="1"/><stop id="stop11384" offset="1" stop-color="#fff" stop-opacity="1"/></linearGradient><linearGradient id="linearGradient3441-159-95-712-894-315-465" x1="-8.184" x2="-10.433" y1="30.237" y2="24.102" gradientUnits="userSpaceOnUse" spreadMethod="reflect" xlink:href="#linearGradient3346-442-243-927-308-836-560"/><linearGradient id="linearGradient3346-698-999-935-946-915-997"><stop id="stop11364" offset="0" stop-color="#d3d3d3" stop-opacity="1"/><stop id="stop11366" offset="1" stop-color="#fff" stop-opacity="1"/></linearGradient><linearGradient id="linearGradient3443-452-698-27-834-720-59" x1="-8.879" x2="-10.896" y1="29.86" y2="24.024" gradientUnits="userSpaceOnUse" spreadMethod="reflect" xlink:href="#linearGradient3346-698-999-935-946-915-997"/><linearGradient id="linearGradient3578-995-735-4-566-885-385-488-812-692-614-726-664-85-518-525"><stop id="stop11370" offset="0" stop-color="#0a0a0a" stop-opacity="1"/><stop id="stop11372" offset="1" stop-color="#fff" stop-opacity="1"/></linearGradient><linearGradient id="linearGradient3639-434-722-776-73-831" x1="19.275" x2="23.635" y1="38.173" y2="38.173" gradientTransform="translate(-1.5839151,4)" gradientUnits="userSpaceOnUse" spreadMethod="reflect" xlink:href="#linearGradient3578-995-735-4-566-885-385-488-812-692-614-726-664-85-518-525"/><linearGradient id="linearGradient3386-363-795-580-350-907-957"><stop id="stop10346" offset="0" stop-color="#fff" stop-opacity="1"/><stop id="stop10348" offset="1" stop-color="#e7e7e7" stop-opacity="1"/></linearGradient><linearGradient id="linearGradient3673-628-544-862-392-812-516" x1="17.512" x2="34.361" y1="26.085" y2="26.085" gradientTransform="matrix(1.0171575,0,0,0.9115199,-1.9504682,6.0509796)" gradientUnits="userSpaceOnUse" spreadMethod="pad" xlink:href="#linearGradient3386-363-795-580-350-907-957"/><linearGradient id="linearGradient3930-88-658-113-271-972-661"><stop id="stop9336" offset="0" stop-color="#aaa" stop-opacity="1"/><stop id="stop9338" offset="1" stop-color="#e3e3e3" stop-opacity="1"/></linearGradient><radialGradient id="radialGradient3938-378-683-28-715-230-991" cx="24.002" cy="30.273" r="8.823" fx="24.002" fy="30.273" gradientTransform="matrix(-1.3035745,9.2909262e-7,-1.4086036e-7,-0.1976358,55.289294,35.966819)" gradientUnits="userSpaceOnUse" xlink:href="#linearGradient3930-88-658-113-271-972-661"/><linearGradient id="linearGradient3505-120-123-120-941-424-947"><stop id="stop8322" offset="0" stop-color="#fff" stop-opacity="1"/><stop id="stop8324" offset="1" stop-color="#c6c6c6" stop-opacity="1"/></linearGradient><linearGradient id="linearGradient3759-218-201-974-50-175-489" x1="32.042" x2="25.89" y1="20.406" y2="24.276" gradientTransform="matrix(1.0315098,0,0,0.9763566,-0.7766819,4.3999545)" gradientUnits="userSpaceOnUse" xlink:href="#linearGradient3505-120-123-120-941-424-947"/><linearGradient id="linearGradient3561-622-687-759-998-959-612"><stop id="stop8280" offset="0" stop-color="#969696" stop-opacity="1"/><stop id="stop8282" offset="1" stop-color="#e5e5e5" stop-opacity="1"/></linearGradient><linearGradient id="linearGradient3757-897-359-5-987-494-460" x1="24.095" x2="25.065" y1="12.98" y2="9.932" gradientTransform="matrix(1.0315098,0,0,0.9763566,-0.7766819,4.3999545)" gradientUnits="userSpaceOnUse" xlink:href="#linearGradient3561-622-687-759-998-959-612"/><linearGradient id="linearGradient3561-467-493-627-630-944-397"><stop id="stop8298" offset="0" stop-color="#969696" stop-opacity="1"/><stop id="stop8300" offset="1" stop-color="#e5e5e5" stop-opacity="1"/></linearGradient><linearGradient id="linearGradient3755-283-310-72-414-558-895" x1="24.766" x2="25.534" y1="9.485" y2="5.5" gradientTransform="matrix(1.0315098,0,0,0.9763566,-0.7766819,4.3999545)" gradientUnits="userSpaceOnUse" xlink:href="#linearGradient3561-467-493-627-630-944-397"/><linearGradient id="linearGradient3593-882-125-499-740-495-538"><stop id="stop8304" offset="0" stop-color="#c4c4c4" stop-opacity="1"/><stop id="stop8306" offset="1" stop-color="#fdfdfd" stop-opacity="1"/></linearGradient><linearGradient id="linearGradient3753-128-310-251-701-992-245" x1="27.194" x2="28.024" y1="5.036" y2="2.106" gradientTransform="matrix(1.0315098,0,0,0.9763566,-0.7766819,4.3999545)" gradientUnits="userSpaceOnUse" xlink:href="#linearGradient3593-882-125-499-740-495-538"/><linearGradient id="linearGradient3623-669-154-112-665-867-156"><stop id="stop8292" offset="0" stop-color="#fbfbfb" stop-opacity="1"/><stop id="stop8294" offset="1" stop-color="#e3e3e3" stop-opacity="1"/></linearGradient><linearGradient id="linearGradient3751-904-761-759-541-829-615" x1="31.426" x2="29.164" y1="18.584" y2="15.415" gradientTransform="matrix(1.0315098,0,0,0.9763566,-0.7766819,4.3999545)" gradientUnits="userSpaceOnUse" xlink:href="#linearGradient3623-669-154-112-665-867-156"/><linearGradient id="linearGradient3505-120-441-561-710-527-726"><stop id="stop8310" offset="0" stop-color="#fff" stop-opacity="1"/><stop id="stop8312" offset="1" stop-color="#c6c6c6" stop-opacity="1"/></linearGradient><linearGradient id="linearGradient3749-323-765-259-174-802-194" x1="17.351" x2="21.793" y1="20.451" y2="23.265" gradientTransform="matrix(1.0315098,0,0,0.9763566,-0.7766819,4.3999545)" gradientUnits="userSpaceOnUse" xlink:href="#linearGradient3505-120-441-561-710-527-726"/><linearGradient id="linearGradient3505-120-211-574-390-147-628"><stop id="stop8316" offset="0" stop-color="#fff" stop-opacity="1"/><stop id="stop8318" offset="1" stop-color="#c6c6c6" stop-opacity="1"/></linearGradient><linearGradient id="linearGradient3747-379-791-693-71-236-441" x1="20.133" x2="20.953" y1="2.075" y2="5.475" gradientTransform="matrix(1.0315098,0,0,0.9763566,-0.7766819,4.3999545)" gradientUnits="userSpaceOnUse" xlink:href="#linearGradient3505-120-211-574-390-147-628"/><linearGradient id="linearGradient3505-120-322-103-636-587-89"><stop id="stop8286" offset="0" stop-color="#fff" stop-opacity="1"/><stop id="stop8288" offset="1" stop-color="#c6c6c6" stop-opacity="1"/></linearGradient><linearGradient id="linearGradient3745-630-814-877-497-340-354" x1="24.094" x2="25.011" y1="5.786" y2="8.834" gradientTransform="matrix(1.0315098,0,0,0.9763566,-0.7766819,4.3999545)" gradientUnits="userSpaceOnUse" xlink:href="#linearGradient3505-120-322-103-636-587-89"/><linearGradient id="linearGradient3505-120-372-678-994-840-277"><stop id="stop8328" offset="0" stop-color="#fff" stop-opacity="1"/><stop id="stop8330" offset="1" stop-color="#c6c6c6" stop-opacity="1"/></linearGradient><linearGradient id="linearGradient3743-971-513-648-459-16-155" x1="24.094" x2="25.011" y1="5.786" y2="8.834" gradientTransform="matrix(1.0315098,0,0,0.9763566,-0.7766819,8.5202616)" gradientUnits="userSpaceOnUse" xlink:href="#linearGradient3505-120-372-678-994-840-277"/><linearGradient id="linearGradient3505-120-895-718-997-474-210"><stop id="stop8334" offset="0" stop-color="#fff" stop-opacity="1"/><stop id="stop8336" offset="1" stop-color="#c6c6c6" stop-opacity="1"/></linearGradient><linearGradient id="linearGradient3741-906-80-599-986-128-904" x1="24.094" x2="25.011" y1="5.786" y2="8.834" gradientTransform="matrix(1.0315098,0,0,0.9763566,-0.7766819,12.755022)" gradientUnits="userSpaceOnUse" xlink:href="#linearGradient3505-120-895-718-997-474-210"/></defs><metadata id="metadata3298"/><g id="layer1"><path id="path19509" fill="#606060" fill-rule="nonzero" stroke="#383838" stroke-miterlimit="4" stroke-opacity="1" stroke-width="1" d="M 20.5,43.5 L 20.5,44.884615 C 20.5,46.26923 22.147059,47.5 24.000001,47.5 C 25.852942,47.5 27.5,46.26923 27.5,44.884615 L 27.5,43.5 L 20.5,43.5 z"/><path id="path3209" fill="url(#linearGradient3687-488-20-837-274-759)" fill-opacity="1" fill-rule="nonzero" stroke="#989898" stroke-dashoffset="0" stroke-linecap="round" stroke-linejoin="round" stroke-miterlimit="4" stroke-opacity="1" stroke-width="2" marker-end="none" marker-mid="none" marker-start="none" d="M 23.871236,32.623519 C 20.604446,32.6156 16.899805,33.580499 18.907265,35.404546 C 18.409541,35.606241 17.698082,36.056698 17.781951,37.11077 C 17.828256,37.661264 18.409099,37.99918 19.20344,38.247287 C 18.302936,38.881784 17.72994,39.55227 17.781951,40.170624 C 17.827716,40.714699 18.396331,41.087289 19.17443,41.336283 C 18.296617,41.963478 17.730652,42.649745 17.781951,43.259619 C 17.860354,44.191711 19.861552,45.235779 24.194864,45.115531 C 27.314797,45.030099 30.067965,44.468343 30.28525,43.259619 C 30.370571,42.784995 29.983888,42.34215 29.385941,41.948254 C 29.833567,41.495031 30.147157,41.035337 30.11119,40.607746 C 30.06521,40.061107 29.503283,39.690738 28.718712,39.442088 C 29.596525,38.814893 30.162489,38.128626 30.11119,37.518751 C 30.06521,36.972112 29.503283,36.630886 28.718712,36.382234 C 29.606992,35.751651 30.16282,35.072695 30.11119,34.458897 C 30.053801,33.776619 26.941581,32.630962 23.871236,32.623519 z" display="inline" overflow="visible" visibility="visible" style="marker:none"/><path id="path3183" fill="#f6f6f6" fill-opacity="1" fill-rule="nonzero" stroke="none" stroke-dashoffset="0" stroke-linecap="round" stroke-linejoin="round" stroke-miterlimit="4" stroke-opacity="1" stroke-width=".088" marker-end="none" marker-mid="none" marker-start="none" d="M 30.209694,43.21572 C 29.992408,44.424444 26.917282,45.10655 21.995367,44.858968 C 18.87818,44.702168 18.699807,43.82605 18.917091,42.617325 C 19.134377,41.4086 21.840267,40.561647 24.957025,40.726804 C 28.073783,40.89196 30.426978,42.006996 30.209694,43.21572 z" display="inline" overflow="visible" visibility="visible" style="marker:none"/><path id="path1603" fill="url(#linearGradient3439-638-883-942-467-373-953)" fill-opacity="1" fill-rule="nonzero" stroke="none" stroke-dashoffset="0" stroke-linecap="round" stroke-linejoin="round" stroke-miterlimit="4" stroke-opacity="1" stroke-width=".13" marker-end="none" marker-mid="none" marker-start="none" d="M -3.5355339,27.228739 A 10.341436,3.2703688 0 1 1 -24.218407,27.228739 A 10.341436,3.2703688 0 1 1 -3.5355339,27.228739 z" display="inline" overflow="visible" transform="matrix(0.596154,-0.127796,6.358129e-2,0.755885,30.407511,19.530977)" visibility="visible" style="marker:none"/><path id="path2364" fill="url(#linearGradient3441-159-95-712-894-315-465)" fill-opacity="1" fill-rule="nonzero" stroke="none" stroke-dashoffset="0" stroke-linecap="round" stroke-linejoin="round" stroke-miterlimit="4" stroke-opacity="1" stroke-width=".13" marker-end="none" marker-mid="none" marker-start="none" d="M -3.5355339,27.228739 A 10.341436,3.2703688 0 1 1 -24.218407,27.228739 A 10.341436,3.2703688 0 1 1 -3.5355339,27.228739 z" display="inline" overflow="visible" transform="matrix(0.596154,-0.127796,6.358129e-2,0.755885,30.407511,16.455425)" visibility="visible" style="marker:none"/><path id="path20372" fill="#fff" fill-opacity="1" fill-rule="nonzero" stroke="none" stroke-dashoffset="0" stroke-linecap="butt" stroke-linejoin="round" stroke-miterlimit="4" stroke-opacity="1" stroke-width="2" marker-end="none" marker-mid="none" marker-start="none" d="M 31,22.375 A 3.25,3.25 0 1 1 24.5,22.375 A 3.25,3.25 0 1 1 31,22.375 z" display="inline" overflow="visible" transform="matrix(0.331798,0,0,0.333302,11.245771,32.18361)" visibility="visible" style="marker:none"/><path id="path2435" fill="#fff" fill-opacity="1" fill-rule="nonzero" stroke="none" stroke-dashoffset="0" stroke-linecap="butt" stroke-linejoin="round" stroke-miterlimit="4" stroke-opacity="1" stroke-width="2" marker-end="none" marker-mid="none" marker-start="none" d="M 31,22.375 A 3.25,3.25 0 1 1 24.5,22.375 A 3.25,3.25 0 1 1 31,22.375 z" display="inline" overflow="visible" transform="matrix(0.331798,0,0,0.333302,11.245771,35.17188)" visibility="visible" style="marker:none"/><path id="path3362" fill="url(#linearGradient3443-452-698-27-834-720-59)" fill-opacity="1" fill-rule="nonzero" stroke="none" stroke-dashoffset="0" stroke-linecap="round" stroke-linejoin="round" stroke-miterlimit="4" stroke-opacity="1" stroke-width=".13" marker-end="none" marker-mid="none" marker-start="none" d="M -3.5355339,27.228739 A 10.341436,3.2703688 0 1 1 -24.218407,27.228739 A 10.341436,3.2703688 0 1 1 -3.5355339,27.228739 z" display="inline" overflow="visible" transform="matrix(0.596154,-0.127796,6.358129e-2,0.755885,30.407511,13.434446)" visibility="visible" style="marker:none"/><path id="path4710" fill="#f6f6f6" fill-opacity="1" fill-rule="nonzero" stroke="none" stroke-dashoffset="0" stroke-linecap="round" stroke-linejoin="round" stroke-miterlimit="4" stroke-opacity="1" stroke-width=".13" marker-end="none" marker-mid="none" marker-start="none" d="M -3.5355339,27.228739 A 10.341436,3.2703688 0 1 1 -24.218407,27.228739 A 10.341436,3.2703688 0 1 1 -3.5355339,27.228739 z" display="inline" overflow="visible" transform="matrix(0.609516,1.48834e-2,-0.114607,0.749847,35.764261,14.33197)" visibility="visible" style="marker:none"/><path id="path3364" fill="#fff" fill-opacity="1" fill-rule="nonzero" stroke="none" stroke-dashoffset="0" stroke-linecap="butt" stroke-linejoin="round" stroke-miterlimit="4" stroke-opacity="1" stroke-width="2" marker-end="none" marker-mid="none" marker-start="none" d="M 31,22.375 A 3.25,3.25 0 1 1 24.5,22.375 A 3.25,3.25 0 1 1 31,22.375 z" display="inline" overflow="visible" transform="matrix(0.331798,0,0,0.333302,11.245771,29.162631)" visibility="visible" style="marker:none"/><path id="path3373" fill="url(#linearGradient3639-434-722-776-73-831)" fill-opacity="1" fill-rule="nonzero" stroke="none" stroke-dashoffset="0" stroke-linecap="round" stroke-linejoin="round" stroke-miterlimit="4" stroke-opacity="1" stroke-width="2" marker-end="none" marker-mid="none" marker-start="none" d="M 23.78732,32.623519 C 20.52053,32.6156 16.815889,33.580499 18.823349,35.404546 C 18.325625,35.606241 17.614166,36.056698 17.698035,37.11077 C 17.74434,37.661264 18.325183,37.99918 19.119524,38.247287 C 18.21902,38.881784 17.646024,39.55227 17.698035,40.170624 C 17.7438,40.714699 18.312415,41.087289 19.090514,41.336283 C 18.212701,41.963478 17.646736,42.649745 17.698035,43.259619 C 17.776438,44.191711 19.777636,45.235779 24.110948,45.115531 C 27.230881,45.030099 29.984049,44.468343 30.201334,43.259619 C 30.286655,42.784995 29.899972,42.34215 29.302025,41.948254 C 29.749651,41.495031 30.063241,41.035337 30.027274,40.607746 C 29.981294,40.061107 29.419367,39.690738 28.634796,39.442088 C 29.512609,38.814893 30.078573,38.128626 30.027274,37.518751 C 29.981294,36.972112 29.419367,36.630886 28.634796,36.382234 C 29.523076,35.751651 30.078904,35.072695 30.027274,34.458897 C 29.969885,33.776619 26.857665,32.630962 23.78732,32.623519 z" display="inline" opacity=".3" overflow="visible" visibility="visible" style="marker:none"/><path id="rect3384" fill="url(#linearGradient3673-628-544-862-392-812-516)" fill-opacity="1" fill-rule="evenodd" stroke="#aaa" stroke-dasharray="none" stroke-dashoffset="0" stroke-linecap="round" stroke-linejoin="miter" stroke-miterlimit="4" stroke-opacity="1" stroke-width="1" marker-end="none" marker-mid="none" marker-start="none" d="M 22.248188,27.610824 C 18.049179,27.728416 15.587636,28.526574 15.5,29.252978 C 15.604574,30.084711 15.949667,35.210525 16,35.915487 C 16.100154,36.745664 18.957481,38.817605 23.717954,38.72601 C 28.478428,38.634414 31.718141,36.992049 31.995704,35.915487 C 32.040056,35.207114 32.553457,29.984286 32.495436,29.252978 C 32.217872,28.176417 28.170643,27.686915 24.185168,27.610824 C 23.493234,27.597437 22.848047,27.594026 22.248188,27.610824 z" display="inline" enable-background="accumulate" overflow="visible" visibility="visible" style="marker:none"/><path id="path3415" fill="none" fill-opacity="1" fill-rule="evenodd" stroke="url(#radialGradient3938-378-683-28-715-230-991)" stroke-dasharray="none" stroke-dashoffset="0" stroke-linecap="round" stroke-linejoin="miter" stroke-miterlimit="4" stroke-opacity="1" stroke-width="1" marker-end="none" marker-mid="none" marker-start="none" d="M 32.324873,29.820052 C 32.235782,30.272746 31.407963,30.472057 30.788322,30.635316 C 28.52673,31.131428 26.077047,31.226795 23.683835,31.227688 C 21.447711,31.198423 19.159486,31.090695 17.062285,30.599714 C 16.502874,30.445159 15.80263,30.254975 15.678169,29.857738" display="inline" enable-background="accumulate" overflow="visible" visibility="visible" style="marker:none"/><path id="path3461" fill="none" fill-rule="evenodd" stroke="#c7c7c7" stroke-dasharray="none" stroke-linecap="round" stroke-linejoin="round" stroke-miterlimit="4" stroke-opacity="1" stroke-width="5.5" d="M 28.480372,27.271529 C 28.480372,27.271529 28.401529,22.961505 31.286155,21.68522 C 34.893591,20.089131 19.595392,19.769914 15.987957,17.216171 M 31.820589,18.173823 C 34.292351,16.524532 19.662195,15.77969 16.054761,13.225949 M 31.820589,13.960364 C 34.292351,12.311073 19.662195,11.566232 16.054761,9.0124892 M 31.566994,9.4909427 C 34.038757,7.8416524 27.945545,8.4588815 24.121347,6.8546071 M 31.286155,21.68522 C 34.893591,20.089131 19.595392,19.769914 15.987957,17.216171 M 19.739163,27.271529 C 19.739163,27.271529 19.818005,22.961505 16.93338,21.68522 C 13.325944,20.089131 28.624143,20.355146 32.231578,17.801404 M 16.265336,9.0593663 C 13.793574,7.410076 20.428697,8.3725663 24.252895,6.7682918 M 16.265336,13.375131 C 13.793574,11.72584 28.55734,11.566232 32.164774,9.0124892 M 16.265336,17.495438 C 13.793574,15.846148 28.55734,16.14435 32.164774,13.590608 M 16.265336,21.730199 C 13.793574,20.080908 28.55734,20.379111 32.164774,17.825367"/><path id="path3640" fill="none" fill-rule="evenodd" stroke="url(#linearGradient3759-218-201-974-50-175-489)" stroke-dasharray="none" stroke-linecap="round" stroke-linejoin="round" stroke-miterlimit="4" stroke-opacity="1" stroke-width="3.5" d="M 28.480372,27.271529 C 28.480372,27.271529 28.401529,22.961505 31.286155,21.68522 C 34.893591,20.089131 19.595392,19.769914 15.987957,17.216171"/><path id="path3463" fill="none" fill-rule="evenodd" stroke="url(#linearGradient3757-897-359-5-987-494-460)" stroke-dasharray="none" stroke-linecap="round" stroke-linejoin="round" stroke-miterlimit="4" stroke-opacity="1" stroke-width="3.5" d="M 31.820589,18.173823 C 34.292351,16.524532 19.662195,15.77969 16.054761,13.225949"/><path id="path3469" fill="none" fill-rule="evenodd" stroke="url(#linearGradient3755-283-310-72-414-558-895)" stroke-dasharray="none" stroke-linecap="round" stroke-linejoin="round" stroke-miterlimit="4" stroke-opacity="1" stroke-width="3.5" d="M 31.820589,13.960364 C 34.292351,12.311073 19.662195,11.566232 16.054761,9.0124892"/><path id="path3474" fill="none" fill-rule="evenodd" stroke="url(#linearGradient3753-128-310-251-701-992-245)" stroke-dasharray="none" stroke-linecap="round" stroke-linejoin="round" stroke-miterlimit="4" stroke-opacity="1" stroke-width="3.5" d="M 31.566994,9.4909427 C 34.038757,7.8416524 27.945545,8.4588815 24.121347,6.8546071"/><path id="path3605" fill="#d5d5d5" fill-opacity="1" fill-rule="evenodd" stroke="url(#linearGradient3751-904-761-759-541-829-615)" stroke-dasharray="none" stroke-linecap="round" stroke-linejoin="round" stroke-miterlimit="4" stroke-opacity="1" stroke-width="3.5" d="M 31.286155,21.68522 C 34.893591,20.089131 19.595392,19.769914 15.987957,17.216171"/><path id="path3465" fill="none" fill-rule="evenodd" stroke="url(#linearGradient3749-323-765-259-174-802-194)" stroke-dasharray="none" stroke-linecap="round" stroke-linejoin="round" stroke-miterlimit="4" stroke-opacity="1" stroke-width="3.5" d="M 19.739163,27.271529 C 19.739163,27.271529 19.818005,22.961505 16.93338,21.68522 C 13.325944,20.089131 28.624143,20.355146 32.231578,17.801404"/><path id="path3476" fill="none" fill-rule="evenodd" stroke="url(#linearGradient3747-379-791-693-71-236-441)" stroke-dasharray="none" stroke-linecap="round" stroke-linejoin="round" stroke-miterlimit="4" stroke-opacity="1" stroke-width="3.5" d="M 16.265336,9.0593663 C 13.793574,7.410076 20.428697,8.3725663 24.252895,6.7682918"/><path id="path3471" fill="none" fill-rule="evenodd" stroke="url(#linearGradient3745-630-814-877-497-340-354)" stroke-dasharray="none" stroke-linecap="round" stroke-linejoin="round" stroke-miterlimit="4" stroke-opacity="1" stroke-width="3.5" d="M 16.265336,13.375131 C 13.793574,11.72584 28.55734,11.566232 32.164774,9.0124892"/><path id="path3537" fill="none" fill-rule="evenodd" stroke="url(#linearGradient3743-971-513-648-459-16-155)" stroke-dasharray="none" stroke-linecap="round" stroke-linejoin="round" stroke-miterlimit="4" stroke-opacity="1" stroke-width="3.5" d="M 16.265336,17.495438 C 13.793574,15.846148 28.55734,16.14435 32.164774,13.590608"/><path id="path3541" fill="none" fill-rule="evenodd" stroke="url(#linearGradient3741-906-80-599-986-128-904)" stroke-dasharray="none" stroke-linecap="round" stroke-linejoin="round" stroke-miterlimit="4" stroke-opacity="1" stroke-width="3.5" d="M 16.265336,21.730199 C 13.793574,20.080908 28.55734,20.379111 32.164774,17.825367"/></g></svg>