<svg xmlns="http://www.w3.org/2000/svg" xmlns:svg="http://www.w3.org/2000/svg" xmlns:xlink="http://www.w3.org/1999/xlink" id="svg2" width="22" height="22" version="1.0"><defs id="defs4"><linearGradient id="linearGradient3587-6-5"><stop id="stop3589-9-2" offset="0" stop-color="#000" stop-opacity="1"/><stop id="stop3591-7-4" offset="1" stop-color="#363636" stop-opacity="1"/></linearGradient><linearGradient id="linearGradient2452" x1="15.669" x2="15.669" y1="-2.622" y2="11.969" gradientTransform="matrix(0.9302326,0,0,1.2359551,-11.575969,5.1536003)" gradientUnits="userSpaceOnUse" xlink:href="#linearGradient3587-6-5"/><linearGradient id="linearGradient2455" x1="35.008" x2="35.008" y1="23.179" y2="4.995" gradientTransform="translate(-25.785715,-3.035714)" gradientUnits="userSpaceOnUse" xlink:href="#linearGradient3587-6-5"/></defs><path id="path3229" fill="#fff" fill-opacity="1" fill-rule="evenodd" stroke="none" stroke-dasharray="none" stroke-dashoffset="0" stroke-linecap="butt" stroke-linejoin="miter" stroke-miterlimit="4" stroke-opacity="1" stroke-width="1" marker-end="none" marker-mid="none" marker-start="none" d="M 11,4 C 6.5840001,4 2.9999998,7.5840001 3,12 C 3,16.416 6.5840002,20 11,20 C 15.416,20 19,16.416 19,12 C 19,7.5840001 15.416,4.0000002 11,4 z M 11,9 C 12.656,9 14,10.344 14,12 C 14,13.656 12.656,15 11,15 C 9.344,15 8,13.656 8,12 C 8.0000001,10.344 9.344,9 11,9 z" display="inline" enable-background="accumulate" opacity=".6" overflow="visible" visibility="visible" style="marker:none"/><path id="path3170" fill="url(#linearGradient2455)" fill-opacity="1" fill-rule="evenodd" stroke="none" stroke-dasharray="none" stroke-dashoffset="0" stroke-linecap="butt" stroke-linejoin="miter" stroke-miterlimit="4" stroke-opacity="1" stroke-width="1" marker-end="none" marker-mid="none" marker-start="none" d="M 11,3 C 6.5840001,3 2.9999998,6.5840001 3,11 C 3,12.778255 3.579872,14.421269 4.5625,15.75 L 8.59375,12.78125 C 8.2236138,12.282331 8,11.668488 8,11 C 8.0000001,9.344 9.344,8 11,8 L 11,3 z M 4.625,15.8125 C 4.7730296,16.008162 4.9287413,16.193944 5.09375,16.375 C 4.9322527,16.197141 4.7701364,16.004386 4.625,15.8125 z M 10.03125,18.9375 C 10.350291,18.976251 10.670555,19 11,19 C 10.670282,19 10.350582,18.976324 10.03125,18.9375 z" display="inline" enable-background="accumulate" opacity=".42" overflow="visible" visibility="visible" style="marker:none"/><path id="path3288" fill="url(#linearGradient2452)" fill-opacity="1" fill-rule="nonzero" stroke="none" stroke-dasharray="none" stroke-dashoffset="0" stroke-linecap="butt" stroke-linejoin="miter" stroke-miterlimit="4" stroke-opacity="1" stroke-width="1" marker-end="none" marker-mid="none" marker-start="none" d="M 11,3 L 11,8 C 12.656,8.0000001 14,9.344 14,11 C 14,12.656 12.656,14 11,14 C 10.012488,13.999999 9.140527,13.518268 8.59375,12.78125 L 4.5625,15.75 C 6.020065,17.720951 8.362255,18.999999 11,19 C 15.416,19 19,15.416 19,11 C 19,6.5840001 15.416,3.0000002 11,3 z" display="inline" enable-background="accumulate" opacity=".7" overflow="visible" visibility="visible" style="marker:none"/></svg>