<svg xmlns="http://www.w3.org/2000/svg" xmlns:svg="http://www.w3.org/2000/svg" xmlns:xlink="http://www.w3.org/1999/xlink" id="svg3335" width="22" height="22" version="1.0"><defs id="defs3337"><linearGradient id="linearGradient3924"><stop id="stop3926" offset="0" stop-color="#464646" stop-opacity="1"/><stop id="stop3928" offset=".35" stop-color="#8c8c8c" stop-opacity="1"/><stop id="stop3930" offset=".51" stop-color="#969696" stop-opacity="1"/><stop id="stop3932" offset=".62" stop-color="#aaa" stop-opacity="1"/><stop id="stop3934" offset="1" stop-color="#646464" stop-opacity="1"/></linearGradient><linearGradient id="linearGradient2430" x1="61.969" x2="61.969" y1="35.944" y2="43.378" gradientTransform="matrix(0.5790465,0,0,0.6062555,-24.900803,-4.8712516)" gradientUnits="userSpaceOnUse" xlink:href="#linearGradient3924"/><linearGradient id="linearGradient3912"><stop id="stop3914" offset="0" stop-color="#787878" stop-opacity="1"/><stop id="stop3916" offset=".35" stop-color="#bebebe" stop-opacity="1"/><stop id="stop3918" offset=".494" stop-color="#c8c8c8" stop-opacity="1"/><stop id="stop3920" offset=".589" stop-color="#e6e6e6" stop-opacity="1"/><stop id="stop3922" offset="1" stop-color="#8c8c8c" stop-opacity="1"/></linearGradient><linearGradient id="linearGradient2428" x1="361.106" x2="361.106" y1="87.05" y2="94.396" gradientTransform="matrix(0.5769671,0,0,0.6063427,-195.65117,-35.797993)" gradientUnits="userSpaceOnUse" xlink:href="#linearGradient3912"/><linearGradient id="linearGradient3342"><stop id="stop3344" offset="0" stop-color="#fff" stop-opacity="0"/><stop id="stop3346" offset="1" stop-color="#fff" stop-opacity="1"/></linearGradient><linearGradient id="linearGradient2425" x1="15.574" x2="23.578" y1="46.971" y2="46.971" gradientTransform="matrix(0.6041001,0,0,0.4850453,-3.2434402,-2.283064)" gradientUnits="userSpaceOnUse" spreadMethod="reflect" xlink:href="#linearGradient3342"/><linearGradient id="linearGradient3654"><stop id="stop3656" offset="0" stop-color="#76de98" stop-opacity="1"/><stop id="stop3658" offset=".5" stop-color="#37b862" stop-opacity="1"/><stop id="stop3660" offset="1" stop-color="#2f7b48" stop-opacity="1"/></linearGradient><radialGradient id="radialGradient2421" cx="12.244" cy="4.863" r="21" fx="12.244" fy="4.863" gradientTransform="matrix(0.7383688,0,1.3429179e-3,0.5823844,-3.2083919,2.8585583)" gradientUnits="userSpaceOnUse" xlink:href="#linearGradient3654"/><linearGradient id="linearGradient6592-2-7"><stop id="stop6594-0-2" offset="0" stop-color="#fff" stop-opacity=".275"/><stop id="stop6596-2-5" offset="1" stop-color="#fff" stop-opacity="0"/></linearGradient><linearGradient id="linearGradient2418" x1="12.938" x2="15.25" y1="8.438" y2="19.813" gradientTransform="matrix(0.4761905,0,0,0.5999994,-0.4285714,0.2000014)" gradientUnits="userSpaceOnUse" xlink:href="#linearGradient6592-2-7"/><linearGradient id="linearGradient3202"><stop id="stop3204" offset="0" stop-color="#fff" stop-opacity="1"/><stop id="stop3206" offset="1" stop-color="#d3fce1" stop-opacity="1"/></linearGradient><linearGradient id="linearGradient2544" x1="-83.757" x2="-92.223" y1="-7.838" y2="27.521" gradientTransform="matrix(0.3008045,-6.7607336e-2,7.2017786e-2,0.2823833,36.758938,-4.9057011e-3)" gradientUnits="userSpaceOnUse" xlink:href="#linearGradient3202"/></defs><g id="layer1"><path id="rect1789" fill="url(#linearGradient2428)" fill-opacity="1" fill-rule="nonzero" stroke="url(#linearGradient2430)" stroke-dasharray="none" stroke-dashoffset=".5" stroke-linecap="round" stroke-linejoin="round" stroke-miterlimit="4" stroke-opacity="1" stroke-width=".998" d="M 7.5000794,16.499138 C 7.5000794,16.499138 7.7273521,18.645183 7.5000794,19.000004 C 7.1075432,19.612837 5.8928715,19.500004 5.8928715,19.500004 C 5.3700574,19.563214 5.3657325,21.500863 5.8928715,21.500863 L 16.107245,21.500863 C 16.634384,21.500863 16.630168,19.562407 16.107245,19.500004 C 16.107245,19.500004 14.935737,19.582984 14.500079,19.000004 C 14.254268,18.671068 14.500079,16.499138 14.500079,16.499138 L 7.5000794,16.499138 L 7.5000794,16.499138 z" display="inline" enable-background="new" overflow="visible" visibility="visible" style="marker:none"/><path id="path3340" fill="none" stroke="url(#linearGradient2425)" stroke-linecap="square" stroke-linejoin="miter" stroke-opacity="1" stroke-width="1" d="M 6.4668041,20.500004 L 15.533354,20.500004"/><rect id="rect2722" width="21" height="15" x=".5" y="1.5" fill="#1a1a1a" fill-opacity="1" stroke="#000" stroke-dasharray="none" stroke-dashoffset=".5" stroke-linecap="round" stroke-linejoin="round" stroke-miterlimit="4" stroke-opacity="1" stroke-width="1" rx=".467" ry=".455"/><rect id="rect2716" width="18" height="12" x="2" y="3" fill="url(#radialGradient2421)" fill-opacity="1" fill-rule="evenodd" stroke="none" display="inline" enable-background="new"/><path id="rect6588" fill="url(#linearGradient2418)" fill-opacity="1" stroke="none" d="M 1,2 L 21,2 L 21,6.8000021 L 1,11 L 1,2 z"/><path id="path3342" fill="#1f6235" fill-opacity="1" fill-rule="nonzero" stroke="none" stroke-width="1.003" d="M 14.044645,3.0020464 C 13.879137,2.9862747 13.71459,3.062376 13.629554,3.2084667 L 10.006383,9.4317143 L 7.6769172,7.692929 C 7.4694182,7.5864876 7.2105312,7.6549636 7.0971482,7.8497543 L 6.0525162,9.1087903 C 5.9391352,9.3035783 6.0154092,9.5465413 6.2229082,9.6529793 C 6.2229082,9.6529793 10.47622,12.950718 10.481469,12.953158 C 10.5301,12.978105 10.580955,12.990658 10.632653,12.996792 C 10.801528,13.016822 10.974349,12.942338 11.061158,12.793205 L 15.947485,4.4003778 C 16.060867,4.2055873 15.98459,3.9626264 15.777095,3.856186 L 14.209244,3.0485136 C 14.157368,3.0218998 14.099815,3.0073025 14.044645,3.0020464 z" display="inline" overflow="visible" visibility="visible" style="marker:none"/><path id="path4368" fill="url(#linearGradient2544)" fill-opacity="1" fill-rule="nonzero" stroke="none" stroke-width="1.003" d="M 14.044645,4.0020461 C 13.879137,3.9862744 13.71459,4.0623757 13.629554,4.2084664 L 10.006383,10.431713 L 7.6769172,8.6929287 C 7.4694182,8.5864873 7.2105312,8.6549633 7.0971482,8.849754 L 6.0525162,10.108789 C 5.9391352,10.303577 6.0154092,10.54654 6.2229082,10.652978 C 6.2229082,10.652978 10.47622,13.950718 10.481469,13.953158 C 10.5301,13.978105 10.580955,13.990658 10.632653,13.996792 C 10.801528,14.016822 10.974349,13.942338 11.061158,13.793205 L 15.947485,5.4003775 C 16.060867,5.205587 15.98459,4.9626261 15.777095,4.8561857 L 14.209244,4.0485133 C 14.157368,4.0218995 14.099815,4.0073022 14.044645,4.0020461 z" display="inline" overflow="visible" visibility="visible" style="marker:none"/></g></svg>