<svg xmlns="http://www.w3.org/2000/svg" xmlns:svg="http://www.w3.org/2000/svg" xmlns:xlink="http://www.w3.org/1999/xlink" id="svg2" width="22" height="22" version="1.0"><defs id="defs4"><linearGradient id="linearGradient4231"><stop id="stop4233" offset="0" stop-color="#828282" stop-opacity="1"/><stop id="stop4235" offset="1" stop-color="#828282" stop-opacity="0"/></linearGradient><linearGradient id="linearGradient4185"><stop id="stop4187" offset="0" stop-color="#fff" stop-opacity="1"/><stop id="stop4189" offset="1" stop-color="#fff" stop-opacity="0"/></linearGradient><linearGradient id="linearGradient10997"><stop id="stop10999" offset="0" stop-color="#000" stop-opacity="1"/><stop id="stop11001" offset="1" stop-color="#000" stop-opacity="0"/></linearGradient><linearGradient id="linearGradient7361" x1="19.49" x2="19.387" y1="6.144" y2="8.1" gradientUnits="userSpaceOnUse" xlink:href="#linearGradient10997"/><linearGradient id="linearGradient272-6"><stop id="stop273-1" offset="0" stop-color="#474747" stop-opacity="0"/><stop id="stop275-8" offset=".1" stop-color="#474747" stop-opacity="1"/><stop id="stop276-3" offset=".9" stop-color="#474747" stop-opacity="1"/><stop id="stop274-5" offset="1" stop-color="#474747" stop-opacity="0"/></linearGradient><linearGradient id="linearGradient178-9"><stop id="stop179-9" offset="0" stop-color="#fff" stop-opacity="0"/><stop id="stop180-2" offset=".108" stop-color="#e6e6e6" stop-opacity="1"/><stop id="stop181-7" offset="1" stop-color="#e6e6e6" stop-opacity="1"/></linearGradient><linearGradient id="linearGradient6443"><stop id="stop6445" offset="0" stop-color="#f7ff00" stop-opacity="1"/><stop id="stop6447" offset="1" stop-color="#0f0" stop-opacity="1"/></linearGradient><linearGradient id="linearGradient6270"><stop id="stop6272" offset="0" stop-color="#f5f5f5" stop-opacity="1"/><stop id="stop6274" offset="1" stop-color="#c8c8c8" stop-opacity="1"/></linearGradient><radialGradient id="radialGradient3400" cx="6.5" cy="16.5" r="2" fx="6.5" fy="16.5" gradientTransform="matrix(0.83333334,0,0,0.83333334,1.0833333,-7.2500972)" gradientUnits="userSpaceOnUse" xlink:href="#linearGradient6443"/><linearGradient id="linearGradient3405" x1="10.5" x2="10.5" y1="2.5" y2="9.5" gradientTransform="translate(0.5,-2.5002431)" gradientUnits="userSpaceOnUse" xlink:href="#linearGradient6270"/><linearGradient id="linearGradient4191" x1="11" x2="11" y1="2" y2="18" gradientTransform="translate(-1,-1.0000971)" gradientUnits="userSpaceOnUse" xlink:href="#linearGradient4185"/><linearGradient id="linearGradient4226" x1="1.121" x2=".77" y1="339.148" y2="339.148" gradientTransform="matrix(4.0332364,0,0,0.2235361,-28.561989,-81.468583)" gradientUnits="userSpaceOnUse" xlink:href="#linearGradient4231"/><linearGradient id="linearGradient4229" x1="1.121" x2=".77" y1="378.282" y2="378.282" gradientTransform="matrix(4.0332366,0,0,0.2235366,-28.561984,-87.388278)" gradientUnits="userSpaceOnUse" xlink:href="#linearGradient4231"/><linearGradient id="linearGradient4240" x1="1.642" x2="15.343" y1="117.827" y2="117.827" gradientTransform="matrix(1.3368474,0,0,0.09123576,-28.639998,-15.853368)" gradientUnits="userSpaceOnUse" xlink:href="#linearGradient178-9"/><linearGradient id="linearGradient4248" x1="1.278" x2=".927" y1="336.309" y2="336.309" gradientTransform="matrix(4.0332364,0,0,0.2235361,-14.347204,-95.683365)" gradientUnits="userSpaceOnUse" xlink:href="#linearGradient4231"/><linearGradient id="linearGradient4250" x1="1.278" x2=".927" y1="375.443" y2="375.443" gradientTransform="matrix(4.0332366,0,0,0.2235366,-14.347199,-101.60303)" gradientUnits="userSpaceOnUse" xlink:href="#linearGradient4231"/><linearGradient id="linearGradient4252" x1="1.642" x2="15.343" y1="117.827" y2="117.827" gradientTransform="matrix(1.3368474,0,0,0.09123576,-14.425213,-30.068153)" gradientUnits="userSpaceOnUse" xlink:href="#linearGradient178-9"/><linearGradient id="linearGradient4262" x1="11" x2="11" y1="4" y2="18" gradientTransform="translate(-1,-1.0000971)" gradientUnits="userSpaceOnUse" xlink:href="#linearGradient6270"/><linearGradient id="linearGradient6368"><stop id="stop6370" offset="0" stop-color="#afafaf" stop-opacity="1"/><stop id="stop6372" offset="1" stop-color="#828282" stop-opacity="1"/></linearGradient><linearGradient id="linearGradient4020" x1="9.814" x2="10.034" y1="1" y2="19" gradientTransform="translate(-1,-1.0000971)" gradientUnits="userSpaceOnUse" xlink:href="#linearGradient6368"/><linearGradient id="linearGradient2901" x1="1.642" x2="13.863" y1="117.827" y2="117.827" gradientTransform="matrix(0.50787278,0,0,0.09123576,14.073282,-2.250239)" gradientUnits="userSpaceOnUse" xlink:href="#linearGradient178-9"/><linearGradient id="linearGradient2904" x1=".612" x2="4.595" y1="372.578" y2="372.578" gradientTransform="matrix(1.7623042,0,0,0.2235361,13.968221,-67.865454)" gradientUnits="userSpaceOnUse" xlink:href="#linearGradient272-6"/><linearGradient id="linearGradient2907" x1=".612" x2="4.537" y1="372.578" y2="372.578" gradientTransform="matrix(1.7623043,0,0,0.2235366,13.968224,-73.785149)" gradientUnits="userSpaceOnUse" xlink:href="#linearGradient272-6"/></defs><rect id="rect2902" width="6.267" height="1" x="-26.093" y="-6.603" fill="url(#linearGradient4226)" fill-opacity="1" fill-rule="nonzero" stroke="none" stroke-width="1" display="block" overflow="visible" transform="matrix(-0.70710678,-0.70710678,0.70710678,-0.70710678,0,0)" visibility="visible" style="marker:none"/><rect id="rect3824" width="7.884" height="1" x="15.047" y="9" fill="url(#linearGradient2907)" fill-opacity="1" fill-rule="nonzero" stroke="none" stroke-width="1" display="block" opacity=".65" overflow="visible" visibility="visible" style="marker:none"/><rect id="rect3826" width="7.884" height="1" x="15.047" y="7" fill="url(#linearGradient2904)" fill-opacity="1" fill-rule="nonzero" stroke="none" stroke-width="1" display="block" opacity=".65" overflow="visible" visibility="visible" style="marker:none"/><rect id="rect3828" width="6.773" height="1" x="15" y="8" fill="url(#linearGradient2901)" fill-opacity="1" fill-rule="nonzero" stroke="none" stroke-width="1" display="block" overflow="visible" visibility="visible" style="marker:none"/><rect id="rect3838" width="2.877" height="4.126" x="16.6" y="6.5" fill="none" stroke="#0e0e0e" stroke-dasharray="none" stroke-miterlimit="4" stroke-opacity="1" stroke-width="1" rx="1.121" ry="1.121"/><path id="path2887" fill="url(#linearGradient3405)" fill-opacity="1" stroke="url(#linearGradient4020)" stroke-linecap="butt" stroke-linejoin="round" stroke-opacity="1" stroke-width="1" d="m 2.5,2.4997569 0,14.0001461 c 0,0.47137 0.5286299,0.999854 1,0.999854 l 14,0 c 0.47137,0 1,-0.528484 1,-0.999854 l 0,-14.0001461 -3,-1.99999997 -10,0 -3,1.99999997 z"/><rect id="rect4254" width="15" height="14" x="3" y="3" fill="url(#linearGradient4262)" fill-opacity="1" stroke="none" rx=".5" ry=".5"/><rect id="rect2900" width="6.267" height="1" x="-26.093" y="-4.603" fill="url(#linearGradient4229)" fill-opacity="1" fill-rule="nonzero" stroke="none" stroke-width="1" display="block" overflow="visible" transform="matrix(-0.70710678,-0.70710678,0.70710678,-0.70710678,0,0)" visibility="visible" style="marker:none"/><path id="path3701" fill="none" stroke="url(#linearGradient4191)" stroke-linecap="butt" stroke-linejoin="round" stroke-opacity="1" stroke-width="1" d="M 3.661765,2.9615219 3.5,16.499757 l 14,0 L 17.338235,3.1424039 15,1.4997569 l -9,0 -2.338235,1.461765 z" opacity=".4"/><rect id="rect4244" width="6.267" height="1" x="-11.878" y="-18.818" fill="url(#linearGradient4250)" fill-opacity="1" fill-rule="nonzero" stroke="none" stroke-width="1" display="block" overflow="visible" transform="matrix(0.70710678,-0.70710678,-0.70710678,-0.70710678,0,0)" visibility="visible" style="marker:none"/><rect id="rect8955" width="3" height="4.2" x="8.5" y="14.5" fill="#e6e6e6" fill-opacity="1" stroke="#828282" stroke-dasharray="none" stroke-miterlimit="4" stroke-opacity="1" stroke-width="1" rx="1.121" ry="1.121"/><path id="path6441" fill="url(#radialGradient3400)" fill-opacity="1" stroke="#828282" stroke-dasharray="none" stroke-linecap="square" stroke-linejoin="round" stroke-miterlimit="4" stroke-opacity="1" stroke-width=".5" d="m 7.75,6.4999029 a 1.25,1.25 0 0 1 -2.5,0 1.25,1.25 0 1 1 2.5,0 z"/><path id="path2948" fill="#fafafa" fill-opacity="1" stroke="none" d="m 13.5,4.6997569 c -0.276,0 -0.5,0.224 -0.5,0.5 0,0.276 0.224,0.5 0.5,0.5 0.276,0 0.5,-0.224 0.5,-0.5 0,-0.276 -0.224,-0.5 -0.5,-0.5 z"/><path id="path2946" fill="#fafafa" fill-opacity="1" stroke="none" d="m 15.5,4.6997569 c -0.276,0 -0.5,0.224 -0.5,0.5 0,0.276 0.224,0.5 0.5,0.5 0.276,0 0.5,-0.224 0.5,-0.5 0,-0.276 -0.224,-0.5 -0.5,-0.5 z"/><path id="path2940" fill="#fafafa" fill-opacity="1" stroke="none" d="m 13.5,6.6997569 c -0.276,0 -0.5,0.224 -0.5,0.5 0,0.276 0.224,0.5 0.5,0.5 0.276,0 0.5,-0.224 0.5,-0.5 0,-0.276 -0.224,-0.5 -0.5,-0.5 z"/><path id="path2938" fill="#fafafa" fill-opacity="1" stroke="none" d="m 15.5,6.6997569 c -0.276,0 -0.5,0.224 -0.5,0.5 0,0.276 0.224,0.5 0.5,0.5 0.276,0 0.5,-0.224 0.5,-0.5 0,-0.276 -0.224,-0.5 -0.5,-0.5 z"/><path id="path2936" fill="#fafafa" fill-opacity="1" stroke="none" d="m 13.5,11.699757 c -0.276,0 -0.5,0.224 -0.5,0.5 0,0.276 0.224,0.5 0.5,0.5 0.276,0 0.5,-0.224 0.5,-0.5 0,-0.276 -0.224,-0.5 -0.5,-0.5 z"/><path id="path2934" fill="#fafafa" fill-opacity="1" stroke="none" d="m 15.5,11.699757 c -0.276,0 -0.5,0.224 -0.5,0.5 0,0.276 0.224,0.5 0.5,0.5 0.276,0 0.5,-0.224 0.5,-0.5 0,-0.276 -0.224,-0.5 -0.5,-0.5 z"/><path id="path2928" fill="#fafafa" fill-opacity="1" stroke="none" d="m 13.5,13.699757 c -0.276,0 -0.5,0.224 -0.5,0.5 0,0.276 0.224,0.5 0.5,0.5 0.276,0 0.5,-0.224 0.5,-0.5 0,-0.276 -0.224,-0.5 -0.5,-0.5 z"/><path id="path6534" fill="#fafafa" fill-opacity="1" stroke="none" d="m 15.5,13.699757 c -0.276,0 -0.5,0.224 -0.5,0.5 0,0.276 0.224,0.5 0.5,0.5 0.276,0 0.5,-0.224 0.5,-0.5 0,-0.276 -0.224,-0.5 -0.5,-0.5 z"/><path id="path2924" fill="#666" fill-opacity="1" stroke="none" d="m 13.5,4.9997569 c -0.276,0 -0.5,0.224 -0.5,0.5 0,0.276 0.224,0.5 0.5,0.5 0.276,0 0.5,-0.224 0.5,-0.5 0,-0.276 -0.224,-0.5 -0.5,-0.5 z"/><path id="path2922" fill="#666" fill-opacity="1" stroke="none" d="m 15.5,4.9997569 c -0.276,0 -0.5,0.224 -0.5,0.5 0,0.276 0.224,0.5 0.5,0.5 0.276,0 0.5,-0.224 0.5,-0.5 0,-0.276 -0.224,-0.5 -0.5,-0.5 z"/><path id="path2916" fill="#666" fill-opacity="1" stroke="none" d="m 13.5,6.9997569 c -0.276,0 -0.5,0.224 -0.5,0.5 0,0.276 0.224,0.5 0.5,0.5 0.276,0 0.5,-0.224 0.5,-0.5 0,-0.276 -0.224,-0.5 -0.5,-0.5 z"/><path id="path2914" fill="#666" fill-opacity="1" stroke="none" d="m 15.5,6.9997569 c -0.276,0 -0.5,0.224 -0.5,0.5 0,0.276 0.224,0.5 0.5,0.5 0.276,0 0.5,-0.224 0.5,-0.5 0,-0.276 -0.224,-0.5 -0.5,-0.5 z"/><path id="path2912" fill="#666" fill-opacity="1" stroke="none" d="m 13.5,11.999757 c -0.276,0 -0.5,0.224 -0.5,0.5 0,0.276 0.224,0.5 0.5,0.5 0.276,0 0.5,-0.224 0.5,-0.5 0,-0.276 -0.224,-0.5 -0.5,-0.5 z"/><path id="path2910" fill="#666" fill-opacity="1" stroke="none" d="m 15.5,11.999757 c -0.276,0 -0.5,0.224 -0.5,0.5 0,0.276 0.224,0.5 0.5,0.5 0.276,0 0.5,-0.224 0.5,-0.5 0,-0.276 -0.224,-0.5 -0.5,-0.5 z"/><path id="path2904" fill="#666" fill-opacity="1" stroke="none" d="m 13.5,13.999757 c -0.276,0 -0.5,0.224 -0.5,0.5 0,0.276 0.224,0.5 0.5,0.5 0.276,0 0.5,-0.224 0.5,-0.5 0,-0.276 -0.224,-0.5 -0.5,-0.5 z"/><path id="path6509" fill="#666" fill-opacity="1" stroke="none" d="m 15.5,13.999757 c -0.276,0 -0.5,0.224 -0.5,0.5 0,0.276 0.224,0.5 0.5,0.5 0.276,0 0.5,-0.224 0.5,-0.5 0,-0.276 -0.224,-0.5 -0.5,-0.5 z"/><path id="path5522" fill="none" stroke="gray" stroke-dasharray="none" stroke-linecap="square" stroke-linejoin="miter" stroke-miterlimit="4" stroke-opacity="1" stroke-width=".815" d="m 4.482656,11.482413 5.911836,0" opacity=".6"/><path id="path5530" fill="none" stroke="#fff" stroke-dasharray="none" stroke-linecap="square" stroke-linejoin="miter" stroke-miterlimit="4" stroke-opacity="1" stroke-width=".815" d="m 4.482656,12.493976 5.911836,0" opacity=".6"/><rect id="rect2904" width="6.374" height="1" x="-26.201" y="-5.603" fill="url(#linearGradient4240)" fill-opacity="1" fill-rule="nonzero" stroke="none" stroke-width="1" display="block" overflow="visible" transform="matrix(-0.70710678,-0.70710678,0.70710678,-0.70710678,0,0)" visibility="visible" style="marker:none"/><rect id="rect4242" width="6.267" height="1" x="-11.878" y="-20.818" fill="url(#linearGradient4248)" fill-opacity="1" fill-rule="nonzero" stroke="none" stroke-width="1" display="block" overflow="visible" transform="matrix(0.70710678,-0.70710678,-0.70710678,-0.70710678,0,0)" visibility="visible" style="marker:none"/><rect id="rect4246" width="6.374" height="1" x="-11.986" y="-19.818" fill="url(#linearGradient4252)" fill-opacity="1" fill-rule="nonzero" stroke="none" stroke-width="1" display="block" overflow="visible" transform="matrix(0.70710678,-0.70710678,-0.70710678,-0.70710678,0,0)" visibility="visible" style="marker:none"/></svg>