<svg xmlns="http://www.w3.org/2000/svg" xmlns:svg="http://www.w3.org/2000/svg" xmlns:xlink="http://www.w3.org/1999/xlink" id="svg11300" width="22" height="22" version="1.0"><defs id="defs3"><linearGradient id="linearGradient14993"><stop id="stop14995" offset="0" stop-color="#000" stop-opacity="1"/><stop id="stop14997" offset="1" stop-color="#000" stop-opacity="0"/></linearGradient><linearGradient id="linearGradient14981-4"><stop id="stop14983-1" offset="0" stop-color="#6d9335" stop-opacity="1"/><stop id="stop14985-7" offset="1" stop-color="#364d17" stop-opacity="1"/></linearGradient><linearGradient id="linearGradient14780-7"><stop id="stop14782-0" offset="0" stop-color="#d3ba00" stop-opacity="1"/><stop id="stop14784-4" offset="1" stop-color="#d3ba00" stop-opacity="0"/></linearGradient><linearGradient id="linearGradient14861-7"><stop id="stop14863-5" offset="0" stop-color="#fff" stop-opacity="1"/><stop id="stop14865-8" offset="1" stop-color="#fff" stop-opacity="0"/></linearGradient><linearGradient id="linearGradient7622"><stop id="stop7624" offset="0" stop-color="#fff" stop-opacity="1"/><stop id="stop7626" offset="1" stop-color="#fff" stop-opacity="0"/></linearGradient><linearGradient id="linearGradient3721" x1="16.965" x2="18.968" y1="20.166" y2="31.347" gradientTransform="matrix(0.39731096,0,0,0.39082257,3.1430281,-0.1067287)" gradientUnits="userSpaceOnUse" xlink:href="#linearGradient14861-7"/><radialGradient id="radialGradient3975" cx="21.5" cy="44.75" r="17" fx="21.5" fy="44.75" gradientTransform="matrix(0.70588238,0,0,0.0882352,-3.176471,16.551472)" gradientUnits="userSpaceOnUse" xlink:href="#linearGradient14993"/><linearGradient id="linearGradient4758" x1="6.221" x2="6.238" y1="42.891" y2="39.267" gradientTransform="matrix(1.0000009,0,0,0.56326439,8.9999977,-4.3017486)" gradientUnits="userSpaceOnUse" xlink:href="#linearGradient14780-7"/><linearGradient id="linearGradient4761" x1="6.221" x2="6.238" y1="42.891" y2="39.267" gradientTransform="matrix(0.9999997,0,0,0.56326439,7.0000009,-4.3017486)" gradientUnits="userSpaceOnUse" xlink:href="#linearGradient14780-7"/><linearGradient id="linearGradient4764" x1="6.221" x2="6.238" y1="42.891" y2="39.267" gradientTransform="matrix(0.9999997,0,0,0.56326439,5.0000015,-4.3017486)" gradientUnits="userSpaceOnUse" xlink:href="#linearGradient14780-7"/><linearGradient id="linearGradient4767" x1="6.221" x2="6.238" y1="42.891" y2="39.267" gradientTransform="matrix(0.99999854,0,0,0.56326439,3.0000096,-4.3017486)" gradientUnits="userSpaceOnUse" xlink:href="#linearGradient14780-7"/><linearGradient id="linearGradient4770" x1="6.221" x2="6.238" y1="42.891" y2="39.267" gradientTransform="matrix(1.0000004,0,0,0.56326439,0.9999977,-4.3017493)" gradientUnits="userSpaceOnUse" xlink:href="#linearGradient14780-7"/><linearGradient id="linearGradient4773" x1="6.221" x2="6.238" y1="42.891" y2="39.267" gradientTransform="matrix(1,0,0,0.56326439,-1.0000003,-4.3017493)" gradientUnits="userSpaceOnUse" xlink:href="#linearGradient14780-7"/><radialGradient id="radialGradient4795" cx="10" cy="16.655" r="16" fx="10" fy="16.655" gradientTransform="matrix(1.4043815,0.04555468,-0.03427223,1.0005357,-10.151028,-10.219333)" gradientUnits="userSpaceOnUse" xlink:href="#linearGradient7622"/><radialGradient id="radialGradient4797" cx="15" cy="19.77" r="17.001" fx="15" fy="19.77" gradientTransform="matrix(2.2011105,0,0,0.9928155,-27.19895,-11.347918)" gradientUnits="userSpaceOnUse" xlink:href="#linearGradient14981-4"/></defs><path id="rect14772" fill="url(#radialGradient4797)" fill-opacity="1" fill-rule="nonzero" stroke="#2d410f" stroke-dasharray="none" stroke-dashoffset="0" stroke-linecap="butt" stroke-linejoin="round" stroke-miterlimit="4" stroke-opacity="1" stroke-width="1" d="M 1.5026692,18.5 3.5,18.5 l 0,3 15,0 0,-3 1.999951,0 0,-15.0000563 L 1.5,3.499942 1.50273,18.5 l -6.08e-5,0 z" color="#000" display="block" overflow="visible" visibility="visible" style="marker:none"/><path id="path14957" fill="none" stroke="#305526" stroke-dasharray="none" stroke-dashoffset="0" stroke-linecap="butt" stroke-linejoin="miter" stroke-miterlimit="4" stroke-opacity="1" stroke-width=".5" d="m 13.874,13.275 -7.632,0 0,2.020419" color="#000" display="block" overflow="visible" visibility="visible" style="marker:none"/><path id="path14826" fill="none" stroke="#305526" stroke-dasharray="none" stroke-dashoffset="0" stroke-linecap="butt" stroke-linejoin="miter" stroke-miterlimit="4" stroke-opacity="1" stroke-width=".5" d="m 5.25,19.95 0.03097,-3.24193 1.0733801,-1.49541 11.9356499,0 0,-4.81266 -2.623305,-1.641 2.038425,0 0,-1.9664324 -4.10512,0" color="#000" display="block" overflow="visible" visibility="visible" style="marker:none"/><path id="path14830" fill="none" stroke="#305526" stroke-dasharray="none" stroke-dashoffset="0" stroke-linecap="butt" stroke-linejoin="miter" stroke-miterlimit="4" stroke-opacity="1" stroke-width=".5" d="m 9.25,20.078451 0.03097,-3.24193 1.073379,-1.49541" color="#000" display="block" overflow="visible" visibility="visible" style="marker:none"/><path id="path14838" fill="none" stroke="#305526" stroke-dasharray="none" stroke-dashoffset="0" stroke-linecap="butt" stroke-linejoin="miter" stroke-miterlimit="4" stroke-opacity="1" stroke-width=".5" d="m 7.25,20.078451 0.03097,-3.24193 1.0733796,-1.49541" color="#000" display="block" overflow="visible" visibility="visible" style="marker:none"/><path id="path14840" fill="none" stroke="#305526" stroke-dasharray="none" stroke-dashoffset="0" stroke-linecap="butt" stroke-linejoin="miter" stroke-miterlimit="4" stroke-opacity="1" stroke-width=".5" d="m 11.25,20.078451 0.03096,-3.24193 1.073379,-1.49541" color="#000" display="block" overflow="visible" visibility="visible" style="marker:none"/><path id="path14842" fill="none" stroke="#305526" stroke-dasharray="none" stroke-dashoffset="0" stroke-linecap="butt" stroke-linejoin="miter" stroke-miterlimit="4" stroke-opacity="1" stroke-width=".5" d="m 13.25,20.078451 0.03096,-3.24193 1.073379,-1.49541" color="#000" display="block" overflow="visible" visibility="visible" style="marker:none"/><path id="path14844" fill="none" stroke="#305526" stroke-dasharray="none" stroke-dashoffset="0" stroke-linecap="butt" stroke-linejoin="miter" stroke-miterlimit="4" stroke-opacity="1" stroke-width=".5" d="m 15.25,20.078451 0.03096,-3.24193 1.073379,-1.49541" color="#000" display="block" overflow="visible" visibility="visible" style="marker:none"/><path d="M 5.4999999,18 C 5.9029842,18 6,18.354433 6,18.510457 L 6,21 c 0,0 -1,0 -1,0 L 5,18.510457 C 5,18.354433 5.1048905,18 5.4999999,18 z" style="marker:none" id="path14788" fill="url(#linearGradient4773)" fill-opacity="1" fill-rule="nonzero" stroke="none" stroke-width="1" color="#000" display="block" overflow="visible" visibility="visible"/><path d="M 7.4999993,18 C 7.9029839,18 8,18.354433 8,18.510457 L 8,21 c 0,0 -1,0 -1,0 L 7,18.510457 C 7,18.354433 7.1048894,18 7.4999993,18 z" style="marker:none" id="path14792" fill="url(#linearGradient4770)" fill-opacity="1" fill-rule="nonzero" stroke="none" stroke-width="1" color="#000" display="block" overflow="visible" visibility="visible"/><path d="M 9.499999,18 C 9.902984,18 10,18.354434 10,18.510459 L 10,21 c 0,0 -1,0 -1,0 L 9,18.510459 C 9,18.354434 9.104893,18 9.499999,18 z" style="marker:none" id="path14796" fill="url(#linearGradient4767)" fill-opacity="1" fill-rule="nonzero" stroke="none" stroke-width="1" color="#000" display="block" overflow="visible" visibility="visible"/><path d="M 11.499999,18 C 11.902984,18 12,18.354434 12,18.510459 L 12,21 c 0,0 -1,0 -1,0 l 0,-2.489541 C 11,18.354434 11.104893,18 11.499999,18 z" style="marker:none" id="path14800" fill="url(#linearGradient4764)" fill-opacity="1" fill-rule="nonzero" stroke="none" stroke-width="1" color="#000" display="block" overflow="visible" visibility="visible"/><path d="M 13.499997,18 C 13.902982,18 14,18.354434 14,18.510459 L 14,21 c 0,0 -1,0 -1,0 l 0,-2.489541 C 13,18.354434 13.104893,18 13.499997,18 z" style="marker:none" id="path14804" fill="url(#linearGradient4761)" fill-opacity="1" fill-rule="nonzero" stroke="none" stroke-width="1" color="#000" display="block" overflow="visible" visibility="visible"/><path d="M 15.500001,18 C 15.902984,18 16,18.354434 16,18.510459 L 16,21 c 0,0 -1,0 -1,0 l 0,-2.489541 C 15,18.354434 15.104893,18 15.500001,18 z" style="marker:none" id="path14808" fill="url(#linearGradient4758)" fill-opacity="1" fill-rule="nonzero" stroke="none" stroke-width="1" color="#000" display="block" overflow="visible" visibility="visible"/><path id="path15029" fill="none" stroke="#305526" stroke-dasharray="none" stroke-dashoffset="0" stroke-linecap="butt" stroke-linejoin="miter" stroke-miterlimit="4" stroke-opacity="1" stroke-width=".5" d="M 5.3827766,7.0925382 3.8,7.6884103 3.8,14.201 l 2.5,0" color="#000" display="block" overflow="visible" visibility="visible" style="marker:none"/><path id="path14959" fill="none" stroke="#305526" stroke-dasharray="none" stroke-dashoffset="0" stroke-linecap="butt" stroke-linejoin="miter" stroke-miterlimit="4" stroke-opacity="1" stroke-width=".5" d="m 5.9930703,10.73511 0.5989041,2.35444 1.0979899,0 -0.5989033,-2.35444" color="#000" display="block" overflow="visible" visibility="visible" style="marker:none"/><path id="path14961" fill="none" stroke="#305526" stroke-dasharray="none" stroke-dashoffset="0" stroke-linecap="butt" stroke-linejoin="miter" stroke-miterlimit="4" stroke-opacity="1" stroke-width=".5" d="m 8.2516782,10.791681 0.5989028,2.297869 1.097991,0 -0.598904,-2.297869" color="#000" display="block" overflow="visible" visibility="visible" style="marker:none"/><path id="path14963" fill="none" stroke="#305526" stroke-dasharray="none" stroke-dashoffset="0" stroke-linecap="butt" stroke-linejoin="miter" stroke-miterlimit="4" stroke-opacity="1" stroke-width=".5" d="m 10.510285,10.705967 0.598903,2.383583 1.097992,0 -0.598905,-2.383583" color="#000" display="block" overflow="visible" visibility="visible" style="marker:none"/><path id="path14965" fill="none" stroke="#305526" stroke-dasharray="none" stroke-dashoffset="0" stroke-linecap="butt" stroke-linejoin="miter" stroke-miterlimit="4" stroke-opacity="1" stroke-width=".5" d="m 12.768891,10.681966 0.598904,2.407584" color="#000" display="block" overflow="visible" visibility="visible" style="marker:none"/><path id="path14989" fill="none" stroke="url(#radialGradient4795)" stroke-dasharray="none" stroke-dashoffset="0" stroke-linecap="butt" stroke-linejoin="miter" stroke-miterlimit="4" stroke-opacity="1" stroke-width="1" d="M 2.5000887,17.5 4.5,17.5 l 0,3 13,-0.0013 0,-2.9987 1.997903,0 c 0.0022,-2.19e-4 0.0021,-12.9988683 0.0021,-12.9988683 L 2.5019195,4.5000006 C 2.5041095,8.9497658 2.4999995,17.5 2.4999995,17.5 l 8.92e-5,0 z" color="#000" display="block" opacity=".239" overflow="visible" visibility="visible" style="marker:none"/><rect id="rect14857-2" width="8" height="4" x="5.5" y="6.5" fill="#646662" fill-opacity="1" fill-rule="nonzero" stroke="#2e3436" stroke-dasharray="none" stroke-dashoffset="0" stroke-linecap="butt" stroke-linejoin="miter" stroke-miterlimit="4" stroke-opacity="1" stroke-width="1" color="#000" display="block" overflow="visible" rx=".5" ry=".5" visibility="visible" style="marker:none"/><rect id="rect14859-2" width="6" height="2" x="6.5" y="7.5" fill="none" stroke="url(#linearGradient3721)" stroke-dasharray="none" stroke-dashoffset="0" stroke-linecap="butt" stroke-linejoin="miter" stroke-miterlimit="4" stroke-opacity="1" stroke-width="1" color="#000" display="block" opacity=".25" overflow="visible" rx="0" ry="0" visibility="visible" style="marker:none"/><path id="path13687" fill="#7da5ca" fill-opacity="1" stroke="#356ca0" stroke-dasharray="none" stroke-linecap="butt" stroke-linejoin="miter" stroke-miterlimit="4" stroke-opacity="1" stroke-width="1" d="m 21.499726,2.5203312 -3.368576,3.027844 3.368576,0 0,1.963855 -5.999454,0 0,-2.187131 3.11703,-2.767163 -3.11703,0 0,-2.04516 5.999454,0 0,2.007755 z" font-family="Segoe" font-size="10" font-stretch="normal" font-style="normal" font-variant="normal" font-weight="normal" text-anchor="start" writing-mode="lr-tb" style="line-height:100%"/><path id="path13696" fill="#7da5ca" fill-opacity="1" stroke="#356ca0" stroke-dasharray="none" stroke-linecap="butt" stroke-linejoin="miter" stroke-miterlimit="4" stroke-opacity="1" stroke-width="1" d="m 18.499999,11.683559 -2.326359,1.856163 2.326359,0 0,1.960278 -4.999999,0 0,-2.130028 2.194321,-1.873657 -2.194321,0 0,-1.984012 4.999999,0 0,2.171256 z" font-family="Segoe" font-size="10" font-stretch="normal" font-style="normal" font-variant="normal" font-weight="normal" text-anchor="start" writing-mode="lr-tb" style="line-height:100%"/></svg>