<svg xmlns="http://www.w3.org/2000/svg" xmlns:svg="http://www.w3.org/2000/svg" xmlns:xlink="http://www.w3.org/1999/xlink" id="svg2" width="22" height="22" version="1.0"><defs id="defs3"><linearGradient id="linearGradient6304"><stop id="stop6306" offset="0" stop-color="#eeeeec" stop-opacity="1"/><stop id="stop6308" offset="1" stop-color="#80827d" stop-opacity="1"/></linearGradient><linearGradient id="linearGradient6296"><stop id="stop6298" offset="0" stop-color="#fff" stop-opacity="1"/><stop id="stop6300" offset="1" stop-color="#fff" stop-opacity="0"/></linearGradient><linearGradient id="linearGradient6117"><stop id="stop6119" offset="0" stop-color="#000" stop-opacity="1"/><stop id="stop6121" offset="1" stop-color="#000" stop-opacity="0"/></linearGradient><linearGradient id="linearGradient6105"><stop id="stop6107" offset="0" stop-color="#fff" stop-opacity="0"/><stop id="stop6113" offset=".452" stop-color="#fff" stop-opacity="1"/><stop id="stop6109" offset="1" stop-color="#fff" stop-opacity="0"/></linearGradient><linearGradient id="linearGradient6091"><stop id="stop6093" offset="0" stop-color="#888a85" stop-opacity="1"/><stop id="stop6095" offset="1" stop-color="#81837e" stop-opacity=".986"/></linearGradient><linearGradient id="linearGradient6041"><stop id="stop6043" offset="0" stop-color="#888a85" stop-opacity="1"/><stop id="stop6045" offset="1" stop-color="#2e3436" stop-opacity="1"/></linearGradient><linearGradient id="linearGradient7067"><stop id="stop7069" offset="0" stop-color="#dae8f4" stop-opacity="1"/><stop id="stop7071" offset="1" stop-color="#6a9ab8" stop-opacity="1"/></linearGradient><linearGradient id="linearGradient3524"><stop id="stop5270" offset="0" stop-color="#729fcf" stop-opacity="0"/><stop id="stop5272" offset=".85" stop-color="#729fcf" stop-opacity="0"/><stop id="stop3528" offset="1" stop-color="#729fcf" stop-opacity="1"/></linearGradient><linearGradient id="linearGradient4457"><stop id="stop4459" offset="0" stop-color="#c00" stop-opacity="1"/><stop id="stop4461" offset="1" stop-color="#ef2929" stop-opacity="1"/></linearGradient><radialGradient id="radialGradient3085" cx="9.375" cy="9.375" r="9.375" fx="9.375" fy="9.375" gradientUnits="userSpaceOnUse" xlink:href="#linearGradient3524"/><radialGradient id="radialGradient3087" cx="9.375" cy="9.375" r="9.375" fx="9.375" fy="9.375" gradientUnits="userSpaceOnUse" xlink:href="#linearGradient3524"/><radialGradient id="radialGradient3089" cx="9.375" cy="9.375" r="9.375" fx="9.375" fy="9.375" gradientUnits="userSpaceOnUse" xlink:href="#linearGradient3524"/><linearGradient id="linearGradient3091" x1="28.976" x2="29" y1="31.07" y2="40.005" gradientTransform="translate(-1,-1)" gradientUnits="userSpaceOnUse" xlink:href="#linearGradient4457"/><linearGradient id="linearGradient3095" x1="28.976" x2="29" y1="31.07" y2="40.005" gradientTransform="matrix(0.750053,0,0,0.750052,49.87293,11.12351)" gradientUnits="userSpaceOnUse" xlink:href="#linearGradient4457"/><linearGradient id="linearGradient3198" x1="28.976" x2="29" y1="31.07" y2="40.005" gradientTransform="translate(-274.95354,-296.46725)" gradientUnits="userSpaceOnUse" xlink:href="#linearGradient4457"/><radialGradient id="radialGradient2606" cx="26.927" cy="25.766" r="19.162" fx="26.927" fy="25.766" gradientUnits="userSpaceOnUse" xlink:href="#linearGradient6117"/><linearGradient id="linearGradient2646" x1="34.826" x2="28.763" y1="42.346" y2="32.737" gradientTransform="matrix(0.4871795,0,0,0.4857143,-0.7313659,-0.4882462)" gradientUnits="userSpaceOnUse" xlink:href="#linearGradient6296"/><linearGradient id="linearGradient2654" x1="15.552" x2="23.734" y1="41" y2="41" gradientTransform="matrix(0.4871795,0,0,0.5,-0.4936473,0.05133968)" gradientUnits="userSpaceOnUse" xlink:href="#linearGradient6105"/><radialGradient id="radialGradient2749" cx="17.832" cy="18.915" r="19.736" fx="17.832" fy="18.915" gradientTransform="matrix(0.4228001,0,0,0.3113668,9.6432324,19.361684)" gradientUnits="userSpaceOnUse" xlink:href="#linearGradient6304"/><radialGradient id="radialGradient2751" cx="29.923" cy="32.705" r="19.736" fx="29.923" fy="32.705" gradientTransform="matrix(1.0244195,0,0,1.014266,-0.5092741,0.685707)" gradientUnits="userSpaceOnUse" xlink:href="#linearGradient6041"/><linearGradient id="linearGradient2753" x1="10.602" x2="47.002" y1="35.895" y2="35.69" gradientUnits="userSpaceOnUse" xlink:href="#linearGradient6091"/><radialGradient id="radialGradient2983" cx="17.059" cy="41.059" r="5.738" fx="15.544" fy="39.027" gradientTransform="matrix(0.37667571,-0.06311262,0,0.36451394,-2.446246,-0.69065449)" gradientUnits="userSpaceOnUse" xlink:href="#linearGradient7067"/><radialGradient id="radialGradient2980" cx="17.059" cy="41.059" r="5.738" fx="15.97" fy="39.106" gradientTransform="matrix(0.3698584,-0.06212313,0,0.35879901,4.6705097,-1.5148309)" gradientUnits="userSpaceOnUse" xlink:href="#linearGradient7067"/><linearGradient id="linearGradient2977" x1="28.739" x2="25.4" y1="144.117" y2="119.865" gradientTransform="matrix(0.12649532,0,0,0.12875595,2.1139996,-14.056928)" gradientUnits="userSpaceOnUse" xlink:href="#linearGradient2372-2"/><linearGradient id="linearGradient2372-2"><stop id="stop2374-9" offset="0" stop-color="#fff" stop-opacity="1"/><stop id="stop2376-0" offset="1" stop-color="#fff" stop-opacity=".379"/></linearGradient><linearGradient id="linearGradient2974" x1="28.739" x2="26.257" y1="144.117" y2="125.391" gradientTransform="matrix(0.2545239,0,0,0.12875595,6.0849926,-15.173532)" gradientUnits="userSpaceOnUse" xlink:href="#linearGradient2372-2"/></defs><g id="layer1" display="inline" transform="translate(-0.99954045,-1.0000007)"><rect id="rect3370" width="16" height="16" x="-255.954" y="-272.467" fill="#d3d7cf" fill-opacity="1" fill-rule="evenodd" stroke="none" stroke-width="1" display="none" overflow="visible" visibility="visible" style="marker:none"/><rect id="rect3372" width="22" height="22" x="-255.954" y="-246.467" fill="#d3d7cf" fill-opacity="1" fill-rule="evenodd" stroke="none" stroke-width="1" display="none" overflow="visible" visibility="visible" style="marker:none"/><path id="path3374" fill="url(#radialGradient3085)" fill-opacity="1" fill-rule="evenodd" stroke="none" stroke-width=".609" d="m 18.75,9.375 a 9.375,9.375 0 1 1 -18.75,0 9.375,9.375 0 1 1 18.75,0 z" display="none" overflow="visible" transform="matrix(1.706666,0,0,1.706666,-203.95354,-217.46725)" visibility="visible" style="marker:none"/><path id="path3376" fill="url(#radialGradient3087)" fill-opacity="1" fill-rule="evenodd" stroke="none" stroke-width=".481" d="m 18.75,9.375 a 9.375,9.375 0 1 1 -18.75,0 9.375,9.375 0 1 1 18.75,0 z" display="none" overflow="visible" transform="matrix(2.133334,0,0,2.133334,-207.95354,-221.46726)" visibility="visible" style="marker:none"/><path id="path3378" fill="url(#radialGradient3089)" fill-opacity="1" fill-rule="evenodd" stroke="none" stroke-width=".4" d="m 18.75,9.375 a 9.375,9.375 0 1 1 -18.75,0 9.375,9.375 0 1 1 18.75,0 z" display="none" overflow="visible" transform="matrix(2.559999,0,0,2.559999,-211.95354,-225.46725)" visibility="visible" style="marker:none"/><g id="g3380" display="none" transform="translate(-391.95359,-237.96725)"><path id="path3382" fill="#000" fill-opacity="1" fill-rule="evenodd" stroke="none" stroke-width="1" d="m 57,28.5 a 1.75,1 0 1 1 -3.5,0 1.75,1 0 1 1 3.5,0 z" display="inline" overflow="visible" transform="matrix(1.142857,0,0,1.5,-11.14285,-8.25)" visibility="visible" style="marker:none"/><rect id="rect3384" width="1" height="8.5" x="53" y="26" fill="#000" fill-opacity="1" fill-rule="evenodd" stroke="none" stroke-width="1" display="inline" overflow="visible" visibility="visible" style="marker:none"/><path id="path3386" fill="#000" fill-opacity="1" fill-rule="evenodd" stroke="none" d="m 54,26 c 2,0 1.5,3 2.5,2.999999 C 54.5,29 56,27.5 54,27.5 L 54,26 z"/></g><g id="g3388" display="none" transform="translate(-391.95359,-237.96725)"><path id="path3390" fill="#000" fill-opacity="1" fill-rule="evenodd" stroke="none" stroke-width="1" d="m 57,28.5 a 1.75,1 0 1 1 -3.5,0 1.75,1 0 1 1 3.5,0 z" display="inline" overflow="visible" transform="matrix(1.142857,0,0,1.5,-2.642849,-8.25)" visibility="visible" style="marker:none"/><rect id="rect3392" width="1" height="8.5" x="61.5" y="26" fill="#000" fill-opacity="1" fill-rule="evenodd" stroke="none" stroke-width="1" display="inline" overflow="visible" visibility="visible" style="marker:none"/><path id="path3394" fill="#000" fill-opacity="1" fill-rule="evenodd" stroke="none" d="M 62.500001,26 C 64.5,26 64,28.500001 65,28.5 c -1.500001,1e-6 -0.499999,-1 -2.499999,-1 l 0,-1.5 z"/><path id="path3396" fill="#000" fill-opacity="1" fill-rule="evenodd" stroke="none" d="M 62.500001,28 C 64.5,28 64,30.500001 65,30.5 c -1.500001,1e-6 -0.499999,-1 -2.499999,-1 l 0,-1.5 z" display="inline"/></g><g id="g3399" display="none" transform="translate(-313.95354,-272.46725)"><path id="path3401" fill="#000" fill-opacity="1" fill-rule="evenodd" stroke="none" stroke-width="1" d="m 57,28.5 a 1.75,1 0 1 1 -3.5,0 1.75,1 0 1 1 3.5,0 z" display="inline" overflow="visible" transform="matrix(-1.142857,0,0,-1.5,56.14275,104.75)" visibility="visible" style="marker:none"/><rect id="rect3403" width="1" height="8.5" x="8" y="-70.5" fill="#000" fill-opacity="1" fill-rule="evenodd" stroke="none" stroke-width="1" display="inline" overflow="visible" transform="scale(-1,-1)" visibility="visible" style="marker:none"/><path id="path3405" fill="#000" fill-opacity="1" fill-rule="evenodd" stroke="none" d="m -8.00005,70.499999 c 2,0 1.5,-3 2.5,-2.999999 -2,-10e-7 -0.5,1.499999 -2.5,1.499999 l 0,1.5 z" display="inline"/></g><g id="g3407" display="none" transform="translate(-392.45354,-237.96725)"><path id="path3409" fill="#000" fill-opacity="1" fill-rule="evenodd" stroke="none" stroke-width="1" d="m 57,28.5 a 1.75,1 0 1 1 -3.5,0 1.75,1 0 1 1 3.5,0 z" display="inline" overflow="visible" transform="matrix(-1.142857,0,0,-1.5,142.6428,70.25)" visibility="visible" style="marker:none"/><rect id="rect3411" width="1" height="8.5" x="-78.5" y="-36" fill="#000" fill-opacity="1" fill-rule="evenodd" stroke="none" stroke-width="1" display="inline" overflow="visible" transform="scale(-1,-1)" visibility="visible" style="marker:none"/><path id="path3413" fill="#000" fill-opacity="1" fill-rule="evenodd" stroke="none" d="M 78.500001,36 C 80.5,36 80,33.499999 81,33.5 c -1.500001,-10e-7 -0.499999,1 -2.499999,1 l 0,1.5 z"/><path id="path3415" fill="#000" fill-opacity="1" fill-rule="evenodd" stroke="none" d="M 78.500001,34 C 80.5,34 80,31.499999 81,31.5 c -1.500001,-1e-6 -0.499999,1 -2.499999,1 l 0,1.5 z" display="inline"/></g><g id="g3417" display="none" transform="translate(-312.95354,-273.46725)"><path id="path3419" fill="#000" fill-opacity="1" fill-rule="evenodd" stroke="none" stroke-width="1" d="m 57,28.5 a 1.75,1 0 1 1 -3.5,0 1.75,1 0 1 1 3.5,0 z" display="inline" overflow="visible" transform="matrix(1.142857,0,0,1.5,-89.14285,39.75)" visibility="visible" style="marker:none"/><path id="path3421" fill="#000" fill-opacity="1" fill-rule="evenodd" stroke="none" stroke-width="1" d="m -25,74 6,1.5 0,8.5 -1,0 0,-7 -4,-1 0,6.5 -1,0 0,-8.5 z" display="inline" overflow="visible" visibility="visible" style="marker:none"/><path id="path3423" fill="#000" fill-opacity="1" fill-rule="evenodd" stroke="none" stroke-width="1" d="m 57,28.5 a 1.75,1 0 1 1 -3.5,0 1.75,1 0 1 1 3.5,0 z" display="inline" overflow="visible" transform="matrix(1.142857,0,0,1.5,-84.14285,41.25)" visibility="visible" style="marker:none"/></g><g id="g3425" display="none" transform="translate(-314.45354,-274.46725)"><path id="path3427" fill="#000" fill-opacity="1" fill-rule="evenodd" stroke="none" stroke-width="1" d="m 57,28.5 a 1.75,1 0 1 1 -3.5,0 1.75,1 0 1 1 3.5,0 z" display="inline" overflow="visible" transform="matrix(1.142857,0,0,-1.5,-74.64285,120.75)" visibility="visible" style="marker:none"/><path id="path3429" fill="#000" fill-opacity="1" fill-rule="evenodd" stroke="none" stroke-width="1" d="m -13.5,86.5 6,-1.5 0,-8.5 -1,0 0,7 -4,1 0,-6.5 -1,0 0,8.5 z" display="inline" overflow="visible" visibility="visible" style="marker:none"/><path id="path3431" fill="#000" fill-opacity="1" fill-rule="evenodd" stroke="none" stroke-width="1" d="m 57,28.5 a 1.75,1 0 1 1 -3.5,0 1.75,1 0 1 1 3.5,0 z" display="inline" overflow="visible" transform="matrix(1.142857,0,0,-1.5,-69.64285,119.25)" visibility="visible" style="marker:none"/></g><path id="path3433" fill="#5c3566" fill-opacity="1" fill-rule="evenodd" stroke="none" stroke-width="1" d="m 80,37 a 16,16 0 1 1 -32,0 16,16 0 1 1 32,0 z" display="none" overflow="visible" transform="translate(-250.44874,-193.46245)" visibility="visible" style="marker:none"/><path id="path3435" fill="#75507b" fill-opacity="1" fill-rule="evenodd" stroke="none" stroke-width="1" d="m 80,37 a 16,16 0 1 1 -32,0 16,16 0 1 1 32,0 z" display="none" overflow="visible" transform="matrix(0.7503,0,0,0.7503,-234.46794,-184.22355)" visibility="visible" style="marker:none"/><path id="path3437" fill="#ad7fa8" fill-opacity="1" fill-rule="evenodd" stroke="none" stroke-width="1" d="m 80,37 a 16,16 0 1 1 -32,0 16,16 0 1 1 32,0 z" display="none" overflow="visible" transform="matrix(0.499916,0,0,0.499916,-218.44338,-174.95935)" visibility="visible" style="marker:none"/><g id="g3439" display="none" transform="translate(-313.95354,-273.46725)"><rect id="rect3441" width="12" height="12" x="26.5" y="27.5" fill="url(#linearGradient3091)" fill-opacity="1" fill-rule="evenodd" stroke="#a40000" stroke-dasharray="none" stroke-dashoffset="0" stroke-linecap="round" stroke-linejoin="miter" stroke-miterlimit="4" stroke-opacity="1" stroke-width="1" display="inline" overflow="visible" ry="1.085" visibility="visible" style="marker:none"/><g id="g3443" transform="translate(-2.000047,-2.00005)"><rect id="rect3445" width="9" height="2" x="44.998" y="-.293" fill="#fff" fill-opacity="1" fill-rule="evenodd" stroke="none" stroke-width="1" display="inline" overflow="visible" ry="0" transform="matrix(0.707107,0.707107,-0.707107,0.707107,0,0)" visibility="visible" style="marker:none"/><rect id="rect3447" width="9" height="2" x="-3.793" y="48.498" fill="#fff" fill-opacity="1" fill-rule="evenodd" stroke="none" stroke-width="1" display="inline" overflow="visible" ry="0" transform="matrix(-0.707107,0.707107,0.707107,0.707107,0,0)" visibility="visible" style="marker:none"/></g><rect id="rect3449" width="10" height="10" x="27.5" y="28.5" fill="none" stroke="#ef2929" stroke-dasharray="none" stroke-dashoffset="0" stroke-linecap="round" stroke-linejoin="round" stroke-miterlimit="4" stroke-opacity="1" stroke-width="1" display="inline" overflow="visible" ry="0" visibility="visible" style="marker:none"/></g><rect id="rect3451" width="7" height="7" x="-247.454" y="-267.967" fill="url(#linearGradient3198)" fill-opacity="1" fill-rule="evenodd" stroke="#a40000" stroke-dasharray="none" stroke-dashoffset="0" stroke-linecap="round" stroke-linejoin="miter" stroke-miterlimit="4" stroke-opacity="1" stroke-width="1" display="none" overflow="visible" ry="1.085" visibility="visible" style="marker:none"/><path id="path3453" fill="#fff" fill-opacity="1" fill-rule="evenodd" stroke="none" d="m -246.45354,-265.96726 1,-1 4,4 -1,1 -4,-4 z" display="none"/><path id="path3455" fill="#fff" fill-opacity="1" fill-rule="evenodd" stroke="none" d="m -245.45354,-261.96726 -1,-1 4,-4 1,1 -4,4 z" display="none"/><g id="g3457" display="none" transform="translate(-313.95354,-272.46725)"><rect id="rect3459" width="9.001" height="9.001" x="70.499" y="32.5" fill="url(#linearGradient3095)" fill-opacity="1" fill-rule="evenodd" stroke="#a40000" stroke-dasharray="none" stroke-dashoffset="0" stroke-linecap="round" stroke-linejoin="miter" stroke-miterlimit="4" stroke-opacity="1" stroke-width="1" display="inline" overflow="visible" ry=".993" visibility="visible" style="marker:none"/><rect id="rect3461" width="7" height="7" x="71.5" y="33.5" fill="none" stroke="#ef2929" stroke-dasharray="none" stroke-dashoffset="0" stroke-linecap="round" stroke-linejoin="round" stroke-miterlimit="4" stroke-opacity="1" stroke-width="1" display="inline" overflow="visible" ry="0" visibility="visible" style="marker:none"/><g id="g3463"><path id="path3465" fill="#fff" fill-opacity="1" fill-rule="evenodd" stroke="none" d="m 72.5,35.5 1,-1 4,4 -1,1 -4,-4 z" display="inline"/><path id="path3467" fill="#fff" fill-opacity="1" fill-rule="evenodd" stroke="none" d="m 73.5,39.5 -1,-1 4,-4 1,1 -4,4 z" display="inline"/></g></g><path id="path6115" fill="url(#radialGradient2606)" fill-opacity="1" fill-rule="evenodd" stroke="none" stroke-width="1.062" d="m 46.089207,25.766438 a 19.161766,19.161766 0 1 1 -38.3235324,0 19.161766,19.161766 0 1 1 38.3235324,0 z" display="inline" enable-background="accumulate" opacity=".782" overflow="visible" transform="matrix(0.5384813,0,0,0.3975693,-3.9071301,6.137926)" visibility="visible" style="marker:none"/><path id="path6051" fill="url(#linearGradient2753)" fill-opacity="1" fill-rule="evenodd" stroke="#2e3436" stroke-dasharray="none" stroke-dashoffset="0" stroke-linecap="round" stroke-linejoin="miter" stroke-miterlimit="4" stroke-opacity="1" stroke-width="4.7" d="m 46.089207,25.766438 a 19.161766,19.161766 0 1 1 -38.3235324,0 19.161766,19.161766 0 1 1 38.3235324,0 z" display="inline" enable-background="accumulate" overflow="visible" transform="matrix(0.2669579,0,0,0.1696086,3.8115078,14.879791)" visibility="visible" style="marker:none"/><path id="path6099" fill="none" stroke="#fff" stroke-dasharray="none" stroke-dashoffset="0" stroke-linecap="round" stroke-linejoin="miter" stroke-miterlimit="4" stroke-opacity=".356" stroke-width="6.456" d="m 46.089207,25.766438 a 19.161766,19.161766 0 1 1 -38.3235324,0 19.161766,19.161766 0 1 1 38.3235324,0 z" display="inline" enable-background="accumulate" overflow="visible" transform="matrix(0.2022717,0,0,0.1186329,5.5533422,16.193253)" visibility="visible" style="marker:none"/><path id="path6103" fill="url(#linearGradient2654)" fill-opacity="1" fill-rule="evenodd" stroke="none" d="m 6.6036879,20.05134 c 0,0 1.1847163,2 4.5949731,2 l 0,-3 -4.5838753,0 -0.011098,1 z" opacity=".568"/><path id="path6216" fill="#555753" fill-opacity="1" fill-rule="evenodd" stroke="#2e3436" stroke-dasharray="none" stroke-dashoffset="0" stroke-linecap="round" stroke-linejoin="miter" stroke-miterlimit="4" stroke-opacity="1" stroke-width="2.164" d="m 46.089207,25.766438 a 19.161766,19.161766 0 1 1 -38.3235324,0 19.161766,19.161766 0 1 1 38.3235324,0 z" display="inline" enable-background="accumulate" overflow="visible" transform="matrix(0.4957789,0,0,0.4309176,-2.3500579,1.1396448)" visibility="visible" style="marker:none"/><path id="path6011" fill="#555753" fill-opacity="1" fill-rule="evenodd" stroke="#2e3436" stroke-dasharray="none" stroke-dashoffset="0" stroke-linecap="round" stroke-linejoin="miter" stroke-miterlimit="4" stroke-opacity="1" stroke-width="2.164" d="m 46.089207,25.766438 a 19.161766,19.161766 0 1 1 -38.3235324,0 19.161766,19.161766 0 1 1 38.3235324,0 z" display="inline" enable-background="accumulate" overflow="visible" transform="matrix(0.4957789,0,0,0.4309176,-2.3500579,0.6539307)" visibility="visible" style="marker:none"/><path id="path6013" fill="url(#radialGradient2751)" fill-opacity="1" fill-rule="evenodd" stroke="#2e3436" stroke-dasharray="none" stroke-dashoffset="0" stroke-linecap="round" stroke-linejoin="miter" stroke-miterlimit="4" stroke-opacity="1" stroke-width="2.379" d="m 46.089207,25.766438 a 19.161766,19.161766 0 1 1 -38.3235324,0 19.161766,19.161766 0 1 1 38.3235324,0 z" display="inline" enable-background="accumulate" overflow="visible" transform="matrix(0.4496969,0,0,0.3928955,-1.0178409,1.8764834)" visibility="visible" style="marker:none"/><path id="path6089" fill="#fff" fill-opacity=".374" fill-rule="evenodd" stroke="none" stroke-width=".573" d="m 19.828288,17.854717 a 0.449912,0.72862085 0 1 1 -0.899824,0 0.449912,0.72862085 0 1 1 0.899824,0 z" display="inline" enable-background="accumulate" overflow="visible" transform="matrix(1.0828338,0,0,0.666622,-9.7429666,5.4405096)" visibility="visible" style="marker:none"/><path id="path6015" fill="none" stroke="#fff" stroke-dasharray="none" stroke-dashoffset="0" stroke-linecap="round" stroke-linejoin="miter" stroke-miterlimit="4" stroke-opacity=".275" stroke-width="2.485" d="m 46.089207,25.766438 a 19.161766,19.161766 0 1 1 -38.3235324,0 19.161766,19.161766 0 1 1 38.3235324,0 z" display="inline" enable-background="accumulate" overflow="visible" transform="matrix(0.442155,0,0,0.3663755,-0.9263978,2.0189599)" visibility="visible" style="marker:none"/><path id="path6039" fill="url(#linearGradient2646)" fill-opacity="1" fill-rule="evenodd" stroke="none" d="m 7.567333,18.454215 c 2.1291177,1.095352 10.250199,0.962559 12.162841,-5.342463 0,0 -2.745913,6.898807 -12.162841,5.342463 z"/><path id="path6055" fill="none" stroke="#fff" stroke-dasharray="none" stroke-dashoffset="0" stroke-linecap="round" stroke-linejoin="miter" stroke-miterlimit="4" stroke-opacity=".266" stroke-width="1" d="m 14.685968,14.259719 c 0,1.206514 -1.605198,2.354564 -3.353199,2.354564 -1.7480005,0 -2.8455892,-0.979199 -2.8455892,-2.185713 0,-1.206515 1.4186674,-2.671429 3.1666672,-2.671429 1.748,0 3.032121,1.296064 3.032121,2.502578 z" display="inline" enable-background="accumulate" overflow="visible" visibility="visible" style="marker:none"/><path id="path6087" fill="#fff" fill-opacity=".374" fill-rule="evenodd" stroke="none" stroke-width=".573" d="m 19.828288,17.854717 a 0.449912,0.72862085 0 1 1 -0.899824,0 0.449912,0.72862085 0 1 1 0.899824,0 z" display="inline" enable-background="accumulate" overflow="visible" transform="matrix(1.0828338,0,0,0.666622,-11.204504,5.4405096)" visibility="visible" style="marker:none"/><path id="path6083" fill="#2e3436" fill-opacity="1" fill-rule="evenodd" stroke="none" stroke-width=".81" d="m 19.828288,17.854717 a 0.449912,0.72862085 0 1 1 -0.899824,0 0.449912,0.72862085 0 1 1 0.899824,0 z" display="inline" enable-background="accumulate" overflow="visible" transform="matrix(0.5414169,0,0,0.666622,-0.4691351,5.9262237)" visibility="visible" style="marker:none"/><path id="path6085" fill="#2e3436" fill-opacity="1" fill-rule="evenodd" stroke="none" stroke-width=".81" d="m 19.828288,17.854717 a 0.449912,0.72862085 0 1 1 -0.899824,0 0.449912,0.72862085 0 1 1 0.899824,0 z" display="inline" enable-background="accumulate" overflow="visible" transform="matrix(0.5414169,0,0,0.666622,0.9924034,5.9262237)" visibility="visible" style="marker:none"/><g id="g2589" transform="matrix(0.4871795,0,0,0.4857143,0.8162997,0.4320501)"><path id="path6047" fill="url(#radialGradient2749)" fill-opacity="1" fill-rule="evenodd" stroke="#2e3436" stroke-dasharray="none" stroke-dashoffset="0" stroke-linecap="round" stroke-linejoin="miter" stroke-miterlimit="4" stroke-opacity="1" stroke-width="2.056" d="m 27.745492,27.816367 c 0,2.484 -2.912,4.500001 -6.500001,4.500001 -3.588,0 -6.500001,-2.016001 -6.500001,-4.500001 0,-2.484001 2.912001,-5.500001 6.500001,-5.500001 3.588001,0 6.500001,3.016 6.500001,5.500001 z" display="inline" enable-background="accumulate" overflow="visible" visibility="visible" style="marker:none"/><path id="path6208" fill="#eee" fill-opacity="1" fill-rule="evenodd" stroke="none" stroke-width="11.063" d="m 46.089207,25.766438 a 19.161766,19.161766 0 1 1 -38.3235324,0 19.161766,19.161766 0 1 1 38.3235324,0 z" display="inline" enable-background="accumulate" overflow="visible" transform="matrix(0.1043744,0,0,0.07828089,16.434954,25.299346)" visibility="visible" style="marker:none"/></g></g><g id="layer2" display="inline" transform="translate(-0.99954045,-1.0000007)"><g id="layer1-2" transform="translate(9,1.0000003)"><path id="path2931" fill="none" stroke="none" d="M 12.887143,11.242639 12.520463,8.2875931"/><path id="path4031" fill="#6a9ab8" fill-opacity="1" stroke="#2f5371" stroke-dasharray="none" stroke-linecap="round" stroke-linejoin="round" stroke-miterlimit="4" stroke-opacity="1" stroke-width="1" d="M 12.862181,0.50107998 C 10.505078,0.88091513 7.3505507,1.2719259 5,1.6729744 4.3775618,1.9766657 4.5174948,2.758676 4.4899572,3.3260967 c 0,2.5319424 0,5.0638848 0,7.5958273 -1.3117262,-0.246608 -2.9113558,0.837273 -2.9807337,2.553424 -0.1132522,1.068438 0.8342068,1.998453 1.8644819,2.023461 1.844664,0.04478 3.1062853,-1.179076 3.1262946,-2.726857 -0.020145,-2.599408 0.00566,-5.1998384 0,-7.7996448 0.2855763,-0.02115 4.61103,-0.8465037 5,-0.901457 0,1.9471472 0,3.8942945 0,5.8414417 -1.146387,-0.2746364 -2.6118971,0.4787211 -2.9752697,2.0172541 -0.15337,0.862385 0.1364969,1.944831 1.0115464,2.309984 1.7082373,0.784936 4.0532683,-0.805037 3.9579313,-2.671065 -0.02646,-3.4661732 0.02169,-6.933764 0,-10.4003066 -0.04486,-0.32575865 -0.265607,-0.69059252 -0.632027,-0.66707842 z"/><path id="path2937" fill="url(#radialGradient2983)" fill-opacity="1" stroke="none" d="m 5.9735639,12.865117 a 1.7166647,2.0994822 57.095252 0 1 -3.9883314,0.66825 1.7166647,2.0994822 57.095252 0 1 3.9883314,-0.66825 z"/><path id="path2941" fill="url(#radialGradient2980)" fill-opacity="1" stroke="none" d="M 12.937933,11.82841 A 1.6885125,2.0629959 56.769744 0 1 9.0217849,12.486184 1.6885125,2.0629959 56.769744 1 1 12.937933,11.82841 z"/><path id="path2945" fill="url(#linearGradient2977)" fill-opacity="1" fill-rule="evenodd" stroke="none" d="M 5.0536869,11.476373 5,2.7939369 c 0,0 0.05877,-0.6637646 0.4947159,-0.6657879 0.1546126,-0.027048 6.9317151,-1.15654738 6.9317151,-1.15654738 0,0 0.132983,0.70947368 -6.0694897,1.62965478 -0.516931,0.077068 -0.76544,0.068481 -0.7627163,0.5583664 0.00735,1.3216244 -0.030358,3.795953 -0.030358,8.6082552 0,0.03443 -0.3254384,-0.243938 -0.5101806,-0.291505 z" opacity=".6"/><path id="path2947" fill="url(#linearGradient2974)" fill-opacity="1" fill-rule="evenodd" stroke="none" d="m 12,10.271349 0.03393,-6.5590211 c 0.357493,-0.0323 0.05489,-0.00519 0.53695,-0.053577 0.0066,1.2251582 2.74e-4,2.2420961 2.74e-4,6.8691941 0,0.03443 -0.199425,-0.209029 -0.571151,-0.256596 z" opacity=".6"/></g></g></svg>