<svg xmlns="http://www.w3.org/2000/svg" xmlns:svg="http://www.w3.org/2000/svg" xmlns:xlink="http://www.w3.org/1999/xlink" id="svg3067" width="22" height="22" version="1.1"><defs id="defs3069"><linearGradient id="linearGradient2930" x1="22.885" x2="22.885" y1="17.629" y2="30.89" gradientTransform="matrix(0.4970956,0,0,0.4073268,-28.391469,1.8045218)" gradientUnits="userSpaceOnUse" xlink:href="#linearGradient3202"/><linearGradient id="linearGradient3202"><stop id="stop3204" offset="0" stop-color="#fff" stop-opacity="1"/><stop id="stop3206" offset="1" stop-color="#d3eefc" stop-opacity="1"/></linearGradient><linearGradient id="linearGradient2980" x1="4.583" x2="22.947" y1="-.046" y2="16.877" gradientTransform="matrix(0.9161265,0,0,0.88440172,-1.0216096,11.057498)" gradientUnits="userSpaceOnUse" xlink:href="#linearGradient8997"/><linearGradient id="linearGradient8997"><stop id="stop8999" offset="0" stop-color="#cdcdcd" stop-opacity="1"/><stop id="stop9001" offset="1" stop-color="#cdcdcd" stop-opacity="0"/></linearGradient><radialGradient id="radialGradient2942-2" cx="39.651" cy="18.619" r="20.714" fx="39.651" fy="18.619" gradientTransform="matrix(0.03492848,1.5714813,-2.0961319,0.0020734,35.687941,-54.333341)" gradientUnits="userSpaceOnUse" xlink:href="#linearGradient3242-2-7-9"/><linearGradient id="linearGradient3242-2-7-9"><stop id="stop3244-0-6" offset="0" stop-color="#f8b17e" stop-opacity="1"/><stop id="stop3246-9-4-1" offset=".312" stop-color="#e35d4f" stop-opacity="1"/><stop id="stop3248-3-8-0" offset=".571" stop-color="#c6262e" stop-opacity="1"/><stop id="stop3250-9-0-4" offset="1" stop-color="#690b54" stop-opacity="1"/></linearGradient><linearGradient id="linearGradient2944-2" x1="24.009" x2="24.009" y1="38.246" y2="1" gradientTransform="matrix(0.48741,0,0,0.44143469,-0.53057824,9.550607)" gradientUnits="userSpaceOnUse" xlink:href="#linearGradient2490-2-2"/><linearGradient id="linearGradient2490-2-2"><stop id="stop2492-9-2" offset="0" stop-color="#791235" stop-opacity="1"/><stop id="stop2494-6-0" offset="1" stop-color="#dd3b27" stop-opacity="1"/></linearGradient><linearGradient id="linearGradient2996" x1="23.638" x2="23.638" y1="38.423" y2="36.402" gradientTransform="matrix(0.41830254,0,0,0.32361333,1.3409184,15.691445)" gradientUnits="userSpaceOnUse" xlink:href="#linearGradient6468"/><linearGradient id="linearGradient6468"><stop id="stop6470" offset="0" stop-color="#eee" stop-opacity="1"/><stop id="stop6472" offset="1" stop-color="#d9d9da" stop-opacity="1"/></linearGradient><linearGradient id="linearGradient2998" x1="12.277" x2="12.026" y1="19.963" y2="-.195" gradientTransform="matrix(0.91378695,0,0,0.89809436,0.01044605,10.196662)" gradientUnits="userSpaceOnUse" xlink:href="#linearGradient3628"/><linearGradient id="linearGradient3628"><stop id="stop3630" offset="0" stop-color="#791235" stop-opacity="1"/><stop id="stop3632" offset="1" stop-color="#dd3b27" stop-opacity="1"/></linearGradient><linearGradient id="linearGradient3840" x1="302.857" x2="302.857" y1="366.648" y2="609.505" gradientTransform="matrix(2.774389,0,0,1.969706,-1892.179,-872.8854)" gradientUnits="userSpaceOnUse" xlink:href="#linearGradient5048"/><linearGradient id="linearGradient5048"><stop id="stop5050" offset="0" stop-color="#000" stop-opacity="0"/><stop id="stop5056" offset=".5" stop-color="#000" stop-opacity="1"/><stop id="stop5052" offset="1" stop-color="#000" stop-opacity="0"/></linearGradient><radialGradient id="radialGradient3842" cx="605.714" cy="486.648" r="117.143" fx="605.714" fy="486.648" gradientTransform="matrix(2.774389,0,0,1.969706,-1891.633,-872.8854)" gradientUnits="userSpaceOnUse" xlink:href="#linearGradient5060"/><linearGradient id="linearGradient5060"><stop id="stop5062" offset="0" stop-color="#000" stop-opacity="1"/><stop id="stop5064" offset="1" stop-color="#000" stop-opacity="0"/></linearGradient><radialGradient id="radialGradient3844" cx="605.714" cy="486.648" r="117.143" fx="605.714" fy="486.648" gradientTransform="matrix(-2.774389,0,0,1.969706,112.7623,-872.8854)" gradientUnits="userSpaceOnUse" xlink:href="#linearGradient5060"/><linearGradient id="linearGradient3047"><stop id="stop3049" offset="0" stop-color="#000" stop-opacity="1"/><stop id="stop3051" offset="1" stop-color="#000" stop-opacity="0"/></linearGradient><radialGradient id="radialGradient3065" cx="605.714" cy="486.648" r="117.143" fx="605.714" fy="486.648" gradientTransform="matrix(-2.774389,0,0,1.969706,112.7623,-872.8854)" gradientUnits="userSpaceOnUse" xlink:href="#linearGradient5060"/></defs><g id="layer1" transform="translate(0,-10)"><g id="g8875" transform="matrix(0.00982389,0,0,0.00670087,19.713576,29.804391)"><rect id="rect8877" width="1339.633" height="478.357" x="-1559.252" y="-150.697" fill="url(#linearGradient3840)" fill-opacity="1" fill-rule="nonzero" stroke="none" stroke-width="1" display="inline" opacity=".402" overflow="visible" visibility="visible" style="marker:none"/><path id="path8879" fill="url(#radialGradient3842)" fill-opacity="1" fill-rule="nonzero" stroke="none" stroke-width="1" d="m -219.61876,-150.68038 c 0,0 0,478.33079 0,478.33079 142.874166,0.90045 345.40022,-107.16966 345.40014,-239.196175 0,-132.026537 -159.436816,-239.134595 -345.40014,-239.134615 z" display="inline" opacity=".402" overflow="visible" visibility="visible" style="marker:none"/><path id="path8881" fill="url(#radialGradient3065)" fill-opacity="1" fill-rule="nonzero" stroke="none" stroke-width="1" d="m -1559.2523,-150.68038 c 0,0 0,478.33079 0,478.33079 -142.8742,0.90045 -345.4002,-107.16966 -345.4002,-239.196175 0,-132.026537 159.4368,-239.134595 345.4002,-239.134615 z" display="inline" opacity=".402" overflow="visible" visibility="visible" style="marker:none"/></g><path id="rect8840" fill="url(#linearGradient2996)" fill-opacity="1" fill-rule="nonzero" stroke="url(#linearGradient2998)" stroke-dasharray="none" stroke-dashoffset=".06" stroke-linecap="round" stroke-linejoin="round" stroke-miterlimit="4" stroke-opacity="1" stroke-width="1" d="m 1.793067,26.499978 18.706954,0.161782 c -0.195361,1.258623 -0.419502,2.78705 -0.590907,3.838261 -6.045381,0 -17.7780057,0 -17.7780057,0 -0.1623709,0 -0.2930884,-0.143457 -0.2930884,-0.321652 L 1.4999785,26.82163 c 0,-0.178194 0.1307174,-0.321652 0.2930885,-0.321652 z" display="inline" enable-background="accumulate" overflow="visible" visibility="visible" style="marker:none"/><path id="path9017" fill="none" stroke="#666" stroke-dasharray="none" stroke-linecap="round" stroke-linejoin="miter" stroke-miterlimit="4" stroke-opacity="1" stroke-width="1" d="m 20.056,30.131 c 0.07887,-0.830579 0.390936,-2.636869 0.430322,-3.382619"/><path id="rect8064" fill="url(#radialGradient2942-2)" fill-opacity="1" fill-rule="nonzero" stroke="url(#linearGradient2944-2)" stroke-dasharray="none" stroke-dashoffset=".06" stroke-linecap="round" stroke-linejoin="round" stroke-miterlimit="4" stroke-opacity="1" stroke-width="1" d="m 2.7223045,10.499978 c -0.1688213,0 -0.300234,0.185391 -0.3002338,0.420259 L 1.4999786,26.079762 c 0,0.234867 0.1444663,0.42026 0.3132873,0.420259 l 18.3734701,0 c 0.16882,1e-6 0.313286,-0.185392 0.313286,-0.420259 l -1.0312,-15.159525 c 0,-0.234868 -0.131414,-0.420259 -0.300236,-0.420259 l -16.4462815,0 z" color="#000" display="inline" enable-background="accumulate" overflow="visible" visibility="visible" style="marker:none"/><path id="path3267" fill="none" stroke="#000" stroke-dasharray="none" stroke-linecap="square" stroke-linejoin="miter" stroke-miterlimit="4" stroke-opacity="1" stroke-width="1" d="M 2.65926,29.826801 2.4818084,27.873159" opacity=".2"/><path id="path2858" fill="none" stroke="url(#linearGradient2980)" stroke-dasharray="none" stroke-dashoffset=".06" stroke-linecap="round" stroke-linejoin="round" stroke-miterlimit="4" stroke-opacity="1" stroke-width="1" d="m 3.7224758,11.499978 c -0.168845,0 -0.3002761,0.184619 -0.3002759,0.418508 L 2.4999785,25.081512 c 0,0.23389 0.1444865,0.418509 0.3133312,0.418509 l 16.3733803,0 c 0.168844,0 0.313331,-0.184619 0.313331,-0.418509 L 18.468675,11.918486 c 0,-0.233889 -0.131431,-0.418508 -0.300277,-0.418508 l -14.4459222,0 z" display="inline" enable-background="accumulate" opacity=".3" overflow="visible" visibility="visible" style="marker:none"/><g id="g2926" transform="translate(27.398306,7.1610168)"><path font-stretch="normal" style="text-align:start;line-height:125%;-inkscape-font-specification:URW Gothic L Book" id="path2438" fill="#a1ceef" fill-opacity="1" stroke="none" d="m -21.898305,9.8290853 c 9.487896,0 9.078701,-0.1096312 10.998332,2.0098977 -0.0068,-1.305701 0.01419,-0.419246 -0.01162,-1.724636 -0.03675,-0.7892641 -0.364802,-1.6613128 -1.237538,-2.0610903 -0.499287,-0.1516355 -0.642047,-0.2090546 -1.264801,-0.2090546 -1.282505,0 -6.259533,-0.00522 -8.484373,-0.00522 0,2.0642048 0,-0.074102 0,1.9901023 z" font-family="URW Gothic L" font-size="26.706" font-style="normal" font-variant="normal" font-weight="bold" text-anchor="start" writing-mode="lr-tb"/><path font-stretch="normal" style="text-align:start;line-height:125%;-inkscape-font-specification:URW Gothic L Book" id="text3190" fill="url(#linearGradient2930)" fill-opacity="1" stroke="none" d="m -21.898305,14.838983 c 0.585962,0 1.80498,0 2.390942,0 0.0096,-1.153046 -0.03992,-2.306821 0,-3.459326 0,-0.614762 0.100156,-1.164445 0.907026,-1.164445 0.9257,0 0.999262,0.415636 0.999262,1.207315 0,0.72353 0,2.692925 0,3.416456 0.585962,0 1.811447,0 2.397407,0 0.0069,-1.133875 -0.02812,-2.26817 0,-3.401737 0.0043,-0.545219 -0.05419,-1.222034 0.952753,-1.222034 0.905899,0 0.959552,0.534221 0.959552,1.231184 0,0.715573 0,2.677013 0,3.392587 0.585962,0 1.805429,0 2.39139,0 -0.0068,-1.265089 0.01419,-2.530621 -0.01162,-3.795408 -0.03675,-0.764714 -0.364802,-1.6096399 -1.237538,-1.9969826 -0.499287,-0.1469194 -0.642047,-0.2025526 -1.264801,-0.2025526 -1.282505,0 -6.259533,-0.00506 -8.484373,-0.00506 0,2.0000002 0,4.0000002 0,6.0000002 z" font-family="URW Gothic L" font-size="26.706" font-style="normal" font-variant="normal" font-weight="bold" text-anchor="start" writing-mode="lr-tb"/></g></g></svg>