<svg xmlns="http://www.w3.org/2000/svg" xmlns:svg="http://www.w3.org/2000/svg" xmlns:xlink="http://www.w3.org/1999/xlink" id="svg2463" width="22" height="22" version="1.0"><defs id="defs2465"><radialGradient id="radialGradient3740" cx="16.961" cy="5.883" r="22.105" fx="16.961" fy="5.883" gradientTransform="matrix(0,2,-1.3459458,0,28.918769,-35.007719)" gradientUnits="userSpaceOnUse" xlink:href="#linearGradient3720"/><linearGradient id="linearGradient3720"><stop id="stop3722" offset="0" stop-color="#8badea" stop-opacity="1"/><stop id="stop3728" offset=".5" stop-color="#6396cd" stop-opacity="1"/><stop id="stop3730" offset=".841" stop-color="#3b7caf" stop-opacity="1"/><stop id="stop3724" offset="1" stop-color="#194c70" stop-opacity="1"/></linearGradient><linearGradient id="linearGradient3769" x1="10.148" x2="10.55" y1="43.124" y2="-1.086" gradientUnits="userSpaceOnUse" xlink:href="#linearGradient3763"/><linearGradient id="linearGradient3763"><stop id="stop3765" offset="0" stop-color="#1f4b6a" stop-opacity="1"/><stop id="stop3767" offset="1" stop-color="#4083c2" stop-opacity="1"/></linearGradient><linearGradient id="linearGradient4544-7"><stop id="stop4546-4" offset="0" stop-color="#fff" stop-opacity="1"/><stop id="stop4548-1" offset="1" stop-color="#fff" stop-opacity="0"/></linearGradient><linearGradient id="linearGradient2940" x1="21" x2="21" y1="-1.216" y2="43.254" gradientUnits="userSpaceOnUse" xlink:href="#linearGradient4544-7"/><linearGradient id="linearGradient3437"><stop id="stop3439" offset="0" stop-color="#000" stop-opacity="1"/><stop id="stop3441" offset="1" stop-color="#000" stop-opacity="0"/></linearGradient><radialGradient id="radialGradient2974" cx="24.454" cy="46.87" r="19.614" fx="24.454" fy="46.87" gradientTransform="matrix(0.5098238,0,0,0.1027415,-1.467517,15.169295)" gradientUnits="userSpaceOnUse" xlink:href="#linearGradient3437"/></defs><path id="path3435" fill="url(#radialGradient2974)" fill-opacity="1" stroke="none" d="M 20.99983,19.984782 C 20.99983,21.097757 16.522714,22 10.999915,22 5.477114,22 1,21.097757 1,19.984782 c 0,-1.112974 4.477114,-2.015217 9.999915,-2.015217 5.522799,0 9.999915,0.902243 9.999915,2.015217 z" opacity=".4"/><g id="g2663" transform="translate(77.808251,-2.8915677)"><circle id="circle51" cx="21" cy="21.019" r="21" fill="url(#radialGradient3740)" fill-opacity="1" stroke="url(#linearGradient3769)" stroke-dasharray="none" stroke-miterlimit="4" stroke-opacity="1" stroke-width="2.211" transform="matrix(0.452381,0,0,0.452381,-76.308251,3.3829709)"/><path id="path4552" fill="#173561" fill-opacity="1" d="m -75.803479,14.833209 c -0.08842,0.01047 6.61631,-1.072907 9.087814,6.058357 1.541627,-6.617505 8.965754,-6.678857 8.903761,-6.675865 0.176846,0 -6.114127,-1.674452 -8.946531,2.588245 -2.874691,-3.763405 -9.2488,-1.970737 -9.045044,-1.970737 z"/><path id="path53" fill="#fff" d="m -75.895351,13.833209 c -0.08842,0.01047 6.61631,-1.072907 9.087815,6.058357 1.541627,-6.617505 8.965754,-6.678857 8.903761,-6.675865 0.176846,0 -6.114127,-1.674452 -8.946531,2.588245 -2.874692,-3.763405 -9.248801,-1.970737 -9.045045,-1.970737 z"/><path id="path4554" fill="#173561" fill-opacity="1" d="m -70.808251,9.4139472 c 0,0 3.991302,-0.863334 5.556369,3.4776188 0.980536,-4.0480948 5.443631,-3.7033338 5.443631,-3.7033338 0,0 -3.63035,-1.4157139 -5.470157,1.2461908 -1.881018,-2.3685713 -5.531264,-1.0204758 -5.529843,-1.0204758 z"/><path id="path55" fill="#fff" d="m -70.808251,8.4139472 c 0,0 3.991302,-0.8633336 5.556369,3.4776188 0.980536,-4.0480953 5.443631,-3.7033334 5.443631,-3.7033334 0,0 -3.63035,-1.4157143 -5.470157,1.2461906 -1.881018,-2.3685715 -5.531264,-1.020476 -5.529843,-1.020476 z"/><circle id="circle4534" cx="21" cy="21.019" r="21" fill="none" stroke="url(#linearGradient2940)" stroke-dasharray="none" stroke-miterlimit="4" stroke-opacity="1" stroke-width="2.471" opacity=".3" transform="matrix(0.4047619,0,0,0.4047619,-75.308251,4.3838757)"/></g></svg>