<svg xmlns="http://www.w3.org/2000/svg" xmlns:svg="http://www.w3.org/2000/svg" xmlns:xlink="http://www.w3.org/1999/xlink" id="svg2" width="22" height="22" version="1.0"><defs id="defs4"><linearGradient id="linearGradient5128"><stop id="stop5130" offset="0" stop-color="#eee" stop-opacity="1"/><stop id="stop5132" offset="1" stop-color="#a2a2a2" stop-opacity="1"/></linearGradient><linearGradient id="linearGradient2423" x1="86.133" x2="84.639" y1="105.105" y2="20.895" gradientTransform="matrix(0.1562313,0,0,0.1562313,2.0012016,2.1574324)" gradientUnits="userSpaceOnUse" xlink:href="#linearGradient5128"/><linearGradient id="linearGradient3397"><stop id="stop3399" offset="0" stop-color="#aaa" stop-opacity="1"/><stop id="stop3401" offset="1" stop-color="#8c8c8c" stop-opacity="1"/></linearGradient><linearGradient id="linearGradient2421" x1="40" x2="40" y1="1" y2="23" gradientTransform="translate(-24.5,0)" gradientUnits="userSpaceOnUse" xlink:href="#linearGradient3397"/><linearGradient id="linearGradient3309" x1="63.999" x2="63.999" y1="3.1" y2="122.899" gradientUnits="userSpaceOnUse"><stop id="stop3311" offset="0" stop-color="#f6f6f6" stop-opacity="1"/><stop id="stop3313" offset="1" stop-color="#d2d2d2" stop-opacity="1"/></linearGradient><linearGradient id="linearGradient2419" x1="34" x2="34" y1="1" y2="23.007" gradientTransform="translate(-24.5,0)" gradientUnits="userSpaceOnUse" xlink:href="#linearGradient3309"/><linearGradient id="linearGradient4222"><stop id="stop4224" offset="0" stop-color="#fff" stop-opacity="1"/><stop id="stop4226" offset="1" stop-color="#fff" stop-opacity="0"/></linearGradient><linearGradient id="linearGradient2507" x1="30.925" x2="3.876" y1="28.263" y2="28.263" gradientTransform="matrix(0,-0.3704967,-0.3617496,0,-11.632037,27.595814)" gradientUnits="userSpaceOnUse" xlink:href="#linearGradient4222"/><linearGradient id="linearGradient5432"><stop id="stop5434" offset="0" stop-color="#ce5c00" stop-opacity="1"/><stop id="stop5436" offset="1" stop-color="#ce5c00" stop-opacity="0"/></linearGradient><linearGradient id="linearGradient2505" x1="15.53" x2="15.53" y1="16.501" y2="24.048" gradientTransform="translate(-37.140352,2.2637597)" gradientUnits="userSpaceOnUse" xlink:href="#linearGradient5432"/><linearGradient id="linearGradient2442"><stop id="stop2444" offset="0" stop-color="#fcaf3e" stop-opacity="1"/><stop id="stop2446" offset="1" stop-color="#f57900" stop-opacity="0"/></linearGradient><linearGradient id="linearGradient2503" x1="22.173" x2="46.896" y1="20.49" y2="20.49" gradientTransform="matrix(0,0.319447,-0.313352,0,-13.654071,11.17789)" gradientUnits="userSpaceOnUse" xlink:href="#linearGradient2442"/></defs><g id="layer1"><g id="g2539"><g id="g2414" transform="translate(-1,-1)"><path id="rect2426" fill="url(#linearGradient2419)" fill-opacity="1" fill-rule="nonzero" stroke="url(#linearGradient2421)" stroke-dasharray="none" stroke-dashoffset="0" stroke-linecap="butt" stroke-linejoin="round" stroke-miterlimit="4" stroke-opacity="1" stroke-width="1" marker-end="none" marker-mid="none" marker-start="none" d="M 10.1875,1.5 C 9.799134,1.5 9.5,1.7991339 9.5,2.1875 L 9.5,3.875 C 8.988333,4.0322247 8.496816,4.2537684 8.03125,4.5 L 6.84375,3.3125 C 6.569134,3.0378838 6.118366,3.0378838 5.84375,3.3125 L 3.3125,5.84375 C 3.037884,6.1183662 3.037884,6.5691336 3.3125,6.84375 L 4.5,8.03125 C 4.253769,8.4968155 4.032225,8.9883329 3.875,9.5 L 2.1875,9.5 C 1.799134,9.5 1.5,9.7991344 1.5,10.1875 L 1.5,13.8125 C 1.5,14.200866 1.799134,14.5 2.1875,14.5 L 3.875,14.5 C 4.032225,15.011667 4.253769,15.503185 4.5,15.96875 L 3.3125,17.15625 C 3.037884,17.430866 3.037884,17.881634 3.3125,18.15625 L 5.84375,20.6875 C 6.118366,20.962116 6.569134,20.962116 6.84375,20.6875 L 8.03125,19.5 C 8.496816,19.746232 8.988333,19.967775 9.5,20.125 L 9.5,21.8125 C 9.5,22.200866 9.799135,22.5 10.1875,22.5 L 13.8125,22.5 C 14.200866,22.5 14.5,22.200866 14.5,21.8125 L 14.5,20.125 C 15.011667,19.967775 15.503185,19.746232 15.96875,19.5 L 17.15625,20.6875 C 17.430866,20.962116 17.881634,20.962116 18.15625,20.6875 L 20.6875,18.15625 C 20.962116,17.881634 20.962116,17.430866 20.6875,17.15625 L 19.5,15.96875 C 19.746232,15.503185 19.967775,15.011667 20.125,14.5 L 21.8125,14.5 C 22.200866,14.5 22.5,14.200866 22.5,13.8125 L 22.5,10.1875 C 22.5,9.7991341 22.200866,9.5 21.8125,9.5 L 20.125,9.5 C 19.967775,8.9883329 19.746232,8.4968155 19.5,8.03125 L 20.6875,6.84375 C 20.962116,6.5691338 20.962116,6.1183663 20.6875,5.84375 L 18.15625,3.3125 C 17.881634,3.0378838 17.430866,3.0378838 17.15625,3.3125 L 15.96875,4.5 C 15.503185,4.2537684 15.011667,4.0322247 14.5,3.875 L 14.5,2.1875 C 14.5,1.7991341 14.200866,1.5 13.8125,1.5 L 10.1875,1.5 z M 12,9 C 13.656,9 15,10.344 15,12 C 15,13.656 13.656,15 12,15 C 10.344,15 9,13.656 9,12 C 9,10.344 10.344,9 12,9 z" display="block" enable-background="accumulate" overflow="visible" visibility="visible" style="marker:none"/><path id="path3315" fill="#000" fill-opacity="1" stroke="none" stroke-dasharray="none" stroke-miterlimit="4" stroke-width="1" d="M 12,6 C 8.6915443,5.9999998 6.0000001,8.6915446 6.0000001,12 C 6.0000001,15.308455 8.6915443,18 12,18 C 15.308455,17.999999 18,15.308455 18,12 C 18,8.6915446 15.308455,6 12,6 z M 12,8.7692308 C 13.783385,8.7692308 15.230769,10.216615 15.230769,12 C 15.230769,13.783385 13.783385,15.230769 12,15.230769 C 10.216615,15.230769 8.7692308,13.783385 8.7692308,12 C 8.7692308,10.216615 10.216615,8.7692308 12,8.7692308 z" opacity=".05"/><path id="path28" fill="none" stroke="url(#linearGradient2423)" stroke-dasharray="none" stroke-miterlimit="4" stroke-width="1" d="M 11.999999,5.4999995 C 8.4158993,5.4999995 5.4999996,8.4158992 5.4999996,11.999999 C 5.4999996,15.5841 8.4158993,18.5 11.999999,18.5 C 15.584101,18.5 18.5,15.5841 18.5,11.999999 C 18.5,8.4158992 15.584101,5.4999995 11.999999,5.4999995 z"/></g></g><g id="g3323" transform="translate(36.465159,-4.4273822)"><path id="path2851" fill="url(#linearGradient2503)" fill-opacity="1" fill-rule="nonzero" stroke="url(#linearGradient2505)" stroke-dasharray="none" stroke-dashoffset="0" stroke-linecap="round" stroke-linejoin="round" stroke-miterlimit="4" stroke-opacity="1" stroke-width=".998" marker-end="none" marker-mid="none" marker-start="none" d="M -14.964306,18.76376 L -21.155867,11.762907 L -27.316398,18.76376 L -24.640352,18.76376 L -24.640352,26.897194 L -17.640352,26.897194 L -17.640352,18.76376 L -14.964306,18.76376 z" display="inline" overflow="visible" visibility="visible" style="marker:none"/><path id="path2853" fill="none" fill-opacity="1" fill-rule="nonzero" stroke="url(#linearGradient2507)" stroke-dasharray="none" stroke-dashoffset="0" stroke-linecap="butt" stroke-linejoin="miter" stroke-miterlimit="4" stroke-opacity="1" stroke-width=".998" marker-end="none" marker-mid="none" marker-start="none" d="M -17.213949,17.76376 L -21.140352,13.218645 L -25.17729,17.76376 L -23.640352,17.76376 L -23.640352,26.928235 L -18.640352,26.928235 L -18.640352,17.76376 L -17.213949,17.76376 z" display="inline" opacity=".354" overflow="visible" visibility="visible" style="marker:none"/></g></g></svg>