<svg xmlns="http://www.w3.org/2000/svg" xmlns:svg="http://www.w3.org/2000/svg" xmlns:xlink="http://www.w3.org/1999/xlink" id="svg4178" width="22" height="22" version="1.1"><defs id="defs4180"><linearGradient id="linearGradient4080" x1="26.967" x2="26.967" y1="17.905" y2="33.829" gradientTransform="matrix(0.48718105,0,0,0.48718105,-0.6923144,8.8363061)" gradientUnits="userSpaceOnUse" xlink:href="#linearGradient3308-4-6-931-761-7"/><linearGradient id="linearGradient3308-4-6-931-761-7"><stop id="stop2919-3" offset="0" stop-color="#fff" stop-opacity="1"/><stop id="stop2921-6" offset="1" stop-color="#fff" stop-opacity="0"/></linearGradient><linearGradient id="linearGradient3156" x1="16.626" x2="20.055" y1="15.298" y2="24.628" gradientTransform="matrix(0.45472963,0,0,0.48234449,1.53106,9.1210064)" gradientUnits="userSpaceOnUse" xlink:href="#linearGradient8265-821-176-38-919-66-249"/><linearGradient id="linearGradient8265-821-176-38-919-66-249"><stop id="stop2687" offset="0" stop-color="#fff" stop-opacity="1"/><stop id="stop2689" offset="1" stop-color="#fff" stop-opacity="0"/></linearGradient><linearGradient id="linearGradient3159" x1="23" x2="23" y1="20" y2="41" gradientTransform="matrix(0.48718105,0,0,0.48718105,-0.6923144,8.8363061)" gradientUnits="userSpaceOnUse" xlink:href="#linearGradient2867-449-88-871-390-598-476-591-434-148"/><linearGradient id="linearGradient2867-449-88-871-390-598-476-591-434-148"><stop id="stop4627" offset="0" stop-color="#51cfee" stop-opacity="1"/><stop id="stop4629" offset=".262" stop-color="#49a3d2" stop-opacity="1"/><stop id="stop4631" offset=".705" stop-color="#3470b4" stop-opacity="1"/><stop id="stop4633" offset="1" stop-color="#1b5699" stop-opacity="1"/></linearGradient><linearGradient id="linearGradient3161" x1="35" x2="35" y1="32.036" y2="18" gradientTransform="matrix(0.48718105,0,0,0.48718105,-0.6923144,8.8363061)" gradientUnits="userSpaceOnUse" xlink:href="#linearGradient3332-412-419-652-471-761-410-156-661-505"/><linearGradient id="linearGradient3332-412-419-652-471-761-410-156-661-505"><stop id="stop8032" offset="0" stop-color="#205286" stop-opacity="1"/><stop id="stop8034" offset="1" stop-color="#5492be" stop-opacity="1"/></linearGradient><linearGradient id="linearGradient3240" x1="34.542" x2="34.542" y1="41" y2="6.845" gradientTransform="matrix(0.51515148,0,0,0.51215655,-1.3636363,8.7576625)" gradientUnits="userSpaceOnUse" xlink:href="#linearGradient3996-4"/><linearGradient id="linearGradient3996-4"><stop id="stop3998-0" offset="0" stop-color="#fff" stop-opacity="1"/><stop id="stop4000-8" offset="1" stop-color="#fff" stop-opacity="0"/></linearGradient><radialGradient id="radialGradient3167" cx="24" cy="24" r="17" fx="24" fy="24" gradientTransform="matrix(0.39393943,0,0,0.39393943,1.5454542,11.545453)" gradientUnits="userSpaceOnUse" xlink:href="#linearGradient3301"/><linearGradient id="linearGradient3301"><stop id="stop3303" offset="0" stop-color="#fff" stop-opacity="0"/><stop id="stop3309" offset=".7" stop-color="#fff" stop-opacity="0"/><stop id="stop3305" offset="1" stop-color="#000" stop-opacity="1"/></linearGradient><linearGradient id="linearGradient3169" x1="29.05" x2="29.05" y1="7.028" y2="26.494" gradientTransform="matrix(0.39393943,0,0,-0.39393943,1.5454545,30.454545)" gradientUnits="userSpaceOnUse" xlink:href="#linearGradient3708"/><linearGradient id="linearGradient3708"><stop id="stop3710" offset="0" stop-color="#000" stop-opacity="1"/><stop id="stop3712" offset="1" stop-color="#000" stop-opacity="1"/></linearGradient><radialGradient id="radialGradient3172" cx="27.412" cy="12.08" r="18" fx="27.412" fy="12.08" gradientTransform="matrix(0,0.75990322,-1.1396192,1.1336308e-8,26.205876,3.0003145)" gradientUnits="userSpaceOnUse" xlink:href="#linearGradient3268-1"/><linearGradient id="linearGradient3268-1"><stop id="stop3270-7" offset="0" stop-color="#fff" stop-opacity="1"/><stop id="stop3272-0" offset="1" stop-color="#d8d8d8" stop-opacity="1"/></linearGradient><linearGradient id="linearGradient3174" x1="29.05" x2="29.05" y1="5.108" y2="43.199" gradientTransform="matrix(0.45454547,0,0,0.45454547,0.0909089,10.090911)" gradientUnits="userSpaceOnUse" xlink:href="#linearGradient3332-412-419-652-471-761-410-156-661-505"/><linearGradient id="linearGradient3052" x1="24" x2="24" y1="5" y2="43" gradientTransform="matrix(0.4594596,0,0,0.4594596,-0.0270273,9.9729658)" gradientUnits="userSpaceOnUse" xlink:href="#linearGradient3308-4-6-931-761"/><linearGradient id="linearGradient3308-4-6-931-761"><stop id="stop2919" offset="0" stop-color="#fff" stop-opacity="1"/><stop id="stop2921" offset="1" stop-color="#fff" stop-opacity="0"/></linearGradient><radialGradient id="radialGradient3177-0" cx="7.496" cy="8.45" r="20" fx="7.496" fy="8.45" gradientTransform="matrix(0,1.1204025,-1.4996432,-4.7276536e-8,23.671721,3.3855574)" gradientUnits="userSpaceOnUse" xlink:href="#linearGradient2867-449-88-871-390-598-476-591-434-148-9"/><linearGradient id="linearGradient2867-449-88-871-390-598-476-591-434-148-9"><stop id="stop4627-7" offset="0" stop-color="#51cfee" stop-opacity="1"/><stop id="stop4629-5" offset=".262" stop-color="#49a3d2" stop-opacity="1"/><stop id="stop4631-9" offset=".705" stop-color="#3470b4" stop-opacity="1"/><stop id="stop4633-7" offset="1" stop-color="#1b5699" stop-opacity="1"/></linearGradient><linearGradient id="linearGradient3179-8" x1="24" x2="24" y1="44" y2="3.899" gradientTransform="matrix(0.48718105,0,0,0.48718105,-0.6923144,9.3076236)" gradientUnits="userSpaceOnUse" xlink:href="#linearGradient3332-412-419-652-471-761-410-156-661-505-5"/><linearGradient id="linearGradient3332-412-419-652-471-761-410-156-661-505-5"><stop id="stop8032-3" offset="0" stop-color="#205286" stop-opacity="1"/><stop id="stop8034-3" offset="1" stop-color="#5492be" stop-opacity="1"/></linearGradient></defs><metadata id="metadata4183"/><g id="layer1" transform="translate(0,-10)"><rect stroke-linejoin="round" style="marker:none" id="rect5505" width="19" height="19" x="1.5" y="11.5" fill="url(#radialGradient3177-0)" fill-opacity="1" fill-rule="nonzero" stroke="url(#linearGradient3179-8)" stroke-dasharray="none" stroke-dashoffset="0" stroke-linecap="round" stroke-miterlimit="4" stroke-opacity="1" stroke-width="1" color="#000" display="inline" enable-background="accumulate" overflow="visible" rx="1.087" ry="1.087" visibility="visible"/><rect id="rect6741" width="17" height="17" x="2.5" y="12.5" fill="none" stroke="url(#linearGradient3052)" stroke-dasharray="none" stroke-dashoffset="0" stroke-linecap="round" stroke-linejoin="round" stroke-miterlimit="4" stroke-opacity="1" stroke-width="1" opacity=".4" rx=".082" ry=".082"/><path id="path3576" fill="#fff" fill-opacity="1" fill-rule="nonzero" stroke="none" stroke-width="1.7" d="m 10.5,16.000001 c -0.277,0 -0.5,0.223 -0.5,0.5 l 0,1.125 C 9.497297,17.73947 9.032564,17.93581 8.6093746,18.203126 L 7.8124997,17.406251 c -0.1958686,-0.195868 -0.507256,-0.195868 -0.703125,0 l -0.7031249,0.703125 c -0.1958686,0.195868 -0.1958686,0.507255 0,0.703125 l 0.7968749,0.796874 C 6.9358092,20.032564 6.7394693,20.497297 6.6249998,21 l -1.125,0 c -0.277,0 -0.4999999,0.223 -0.4999999,0.500001 l 0,1 C 4.9999999,22.777 5.2229998,23 5.4999998,23 l 1.125,0 c 0.1144695,0.502703 0.3108094,0.967436 0.5781249,1.390625 L 6.4062498,25.1875 c -0.1958686,0.195869 -0.1958686,0.507256 0,0.703125 l 0.7031249,0.703125 c 0.1958685,0.195868 0.507256,0.19587 0.703125,0 L 8.6093746,25.796875 C 9.032564,26.064191 9.497297,26.26053 10,26.375 l 0,1.125 c 0,0.277 0.223,0.5 0.5,0.5 l 0.999999,0 C 11.777,28 12,27.777 12,27.5 l 0,-1.125 c 0.502703,-0.11447 0.967436,-0.310809 1.390625,-0.578125 l 0.796874,0.796875 c 0.195869,0.195868 0.507257,0.195868 0.703125,0 l 0.703126,-0.703125 c 0.195867,-0.195868 0.195869,-0.507257 0,-0.703125 L 14.796874,24.390625 C 15.064191,23.967436 15.26053,23.502703 15.375,23 l 1.124999,0 C 16.777,23 17,22.777 17,22.500001 l 0,-1 C 17,21.223 16.777,21 16.499999,21 L 15.375,21 c -0.11447,-0.502703 -0.310809,-0.967436 -0.578126,-1.390625 l 0.796876,-0.796874 c 0.195867,-0.195869 0.195867,-0.507256 0,-0.703125 l -0.703126,-0.703125 c -0.195868,-0.195868 -0.507256,-0.195868 -0.703125,0 l -0.796874,0.796875 C 12.967436,17.93581 12.502703,17.73947 12,17.625001 l 0,-1.125 c 0,-0.277 -0.223,-0.5 -0.500001,-0.5 l -0.999999,0 z M 11,20 c 1.103999,-1e-6 2,0.896001 2,2 0,1.104 -0.896001,2 -2,2 -1.104,1e-6 -2.0000005,-0.896 -2.0000005,-2 C 9.000001,20.896001 9.896,20 11,20 z" display="inline" enable-background="accumulate" opacity=".4" overflow="visible" visibility="visible" style="marker:none"/><path id="rect3557" fill="#6e6e6e" fill-opacity="1" fill-rule="nonzero" stroke="none" stroke-width="1.7" d="m 10.5,15.000001 c -0.277,0 -0.5,0.223 -0.5,0.5 l 0,1.125 c -0.502703,0.11447 -0.967436,0.31081 -1.3906254,0.578125 L 7.8124997,16.406251 c -0.1958686,-0.195868 -0.507256,-0.195868 -0.703125,0 l -0.7031249,0.703125 c -0.1958686,0.195869 -0.1958686,0.507256 0,0.703125 l 0.7968749,0.796875 c -0.2673155,0.423189 -0.4636554,0.887921 -0.5781249,1.390625 l -1.125,0 c -0.277,0 -0.4999999,0.223 -0.4999999,0.5 l 0,1 c 0,0.276999 0.2229999,0.5 0.4999999,0.5 l 1.125,0 c 0.1144695,0.502703 0.3108094,0.967435 0.5781249,1.390624 l -0.7968749,0.796876 c -0.1958686,0.195868 -0.1958686,0.507255 0,0.703125 l 0.7031249,0.703124 c 0.1958685,0.195869 0.507256,0.195871 0.703125,0 L 8.6093746,24.796876 C 9.032564,25.064192 9.497297,25.26053 10,25.375 l 0,1.125001 C 10,26.777 10.223,27 10.5,27 l 0.999999,0 C 11.777,27 12,26.777 12,26.500001 L 12,25.375 c 0.502703,-0.11447 0.967436,-0.310808 1.390625,-0.578124 l 0.796874,0.796874 c 0.195869,0.195869 0.507257,0.195869 0.703125,0 l 0.703126,-0.703124 c 0.195867,-0.195869 0.195869,-0.507257 0,-0.703125 L 14.796874,23.390625 C 15.064191,22.967436 15.26053,22.502704 15.375,22.000001 l 1.124999,0 C 16.777,22.000001 17,21.777 17,21.500001 l 0,-1 c 0,-0.277 -0.223,-0.5 -0.500001,-0.5 l -1.124999,0 c -0.11447,-0.502704 -0.310809,-0.967436 -0.578126,-1.390625 l 0.796876,-0.796875 c 0.195867,-0.195868 0.195867,-0.507256 0,-0.703125 l -0.703126,-0.703125 c -0.195868,-0.195868 -0.507256,-0.195868 -0.703125,0 l -0.796874,0.796875 C 12.967436,16.935811 12.502703,16.739471 12,16.625001 l 0,-1.125 c 0,-0.277 -0.223,-0.5 -0.500001,-0.5 l -0.999999,0 z m 0.5,4 c 1.103999,-1e-6 2,0.896 2,2 0,1.104 -0.896001,2 -2,2 -1.104,0 -2.0000005,-0.896 -2.0000005,-2 1.5e-6,-1.104 0.8960005,-2 2.0000005,-2 z" display="inline" enable-background="accumulate" overflow="visible" visibility="visible" style="marker:none"/><path id="path3215-6" fill="url(#radialGradient3172)" fill-opacity="1" fill-rule="nonzero" stroke="url(#linearGradient3174)" stroke-dasharray="none" stroke-miterlimit="4" stroke-width="1" d="M 18.5,20.999735 C 18.5,25.142003 15.141886,28.5 11.000094,28.5 6.857921,28.5 3.5,25.141965 3.5,20.999735 3.5,16.857656 6.857921,13.5 11.000094,13.5 15.141886,13.5 18.5,16.857656 18.5,20.999735 l 0,0 0,0 0,0 z"/><path id="path3215-4" fill="url(#radialGradient3167)" fill-opacity="1" stroke="url(#linearGradient3169)" stroke-dasharray="none" stroke-miterlimit="4" stroke-width="1" d="m 17.5,21.00023 c 0,-3.589967 -2.910365,-6.500231 -6.499919,-6.500231 -3.5898825,0 -6.5000811,2.910297 -6.5000811,6.500231 0,3.589802 2.9101986,6.49977 6.5000811,6.49977 C 14.589635,27.5 17.5,24.590032 17.5,21.00023 l 0,0 z" opacity=".2"/><path id="path3215-6-0" fill="none" stroke="url(#linearGradient3240)" stroke-dasharray="none" stroke-miterlimit="4" stroke-width="1" d="M 19.5,21.049118 C 19.5,25.716396 15.694137,29.5 11.000106,29.5 c -4.6944626,0 -8.5001061,-3.783647 -8.5001061,-8.450882 0,-4.667064 3.8056435,-8.450283 8.5001061,-8.450283 4.694031,0 8.499894,3.783219 8.499894,8.450283 l 0,0 0,0 0,0 z" opacity=".4"/><path id="path4293" fill="url(#linearGradient3159)" fill-opacity="1" stroke="url(#linearGradient3161)" stroke-linecap="butt" stroke-linejoin="miter" stroke-opacity="1" stroke-width="1" d="m 9.5,19.5 3,0 0,-2 4,3.499971 -4,3.500029 0,-2 -3,0 0,2 -4,-3.500029 4,-3.499971 0,2 z"/><path id="path3333" fill="url(#linearGradient3156)" fill-opacity="1" fill-rule="evenodd" stroke="none" d="M 2.994721,12 C 2.4452815,12 2,12.472323 2,13.055129 l 0,7.717512 c 0.00129,0.06493 0.0281,0.126322 0.074007,0.169287 0.045904,0.04296 0.1066794,0.06357 0.1675679,0.05681 L 19.815266,17.562035 C 19.920526,17.544428 19.998529,17.448958 20,17.335936 l 0,-4.280807 C 20,12.472323 19.554718,12 19.005279,12 L 2.994721,12 z" opacity=".2"/><path id="path4293-3" fill="none" stroke="url(#linearGradient4080)" stroke-linecap="butt" stroke-linejoin="miter" stroke-opacity="1" stroke-width="1" d="m 8.5,20.5 5,0 0,-1.078074 1.672124,1.578045 L 13.5,22.578074 13.5,21.5 l -5,0 0,0.798521 L 6.8977647,20.999971 8.5,19.456871 8.5,20.5 z" opacity=".4"/></g></svg>