<svg xmlns="http://www.w3.org/2000/svg" xmlns:svg="http://www.w3.org/2000/svg" xmlns:xlink="http://www.w3.org/1999/xlink" id="svg2" width="22" height="22" version="1.0"><defs id="defs4"><linearGradient id="linearGradient5060"><stop id="stop5062" offset="0" stop-color="#000" stop-opacity="1"/><stop id="stop5064" offset="1" stop-color="#000" stop-opacity="0"/></linearGradient><linearGradient id="linearGradient5048"><stop id="stop5050" offset="0" stop-color="#000" stop-opacity="0"/><stop id="stop5056" offset=".5" stop-color="#000" stop-opacity="1"/><stop id="stop5052" offset="1" stop-color="#000" stop-opacity="0"/></linearGradient><linearGradient id="linearGradient5157"><stop id="stop5159" offset="0" stop-color="#c1c1c1" stop-opacity="1"/><stop id="stop5161" offset="1" stop-color="#909090" stop-opacity="1"/></linearGradient><linearGradient id="linearGradient11111"><stop id="stop11113" offset="0" stop-color="#fff" stop-opacity="1"/><stop id="stop11115" offset=".91" stop-color="#cdcdcd" stop-opacity="1"/><stop id="stop11117" offset="1" stop-color="#a1a1a1" stop-opacity="1"/></linearGradient><linearGradient id="linearGradient3390"><stop id="stop3392" offset="0" stop-color="#425e7b" stop-opacity="1"/><stop id="stop3394" offset="1" stop-color="#7a91a7" stop-opacity="1"/></linearGradient><linearGradient id="linearGradient7012-661-145-733-759-865-745"><stop id="stop2699" offset="0" stop-color="#9cbbd9" stop-opacity="1"/><stop id="stop2701" offset="1" stop-color="#5c82ab" stop-opacity="1"/></linearGradient><linearGradient id="linearGradient3752"><stop id="stop3754" offset="0" stop-color="#fff" stop-opacity="1"/><stop id="stop3760" offset=".848" stop-color="#fff" stop-opacity="1"/><stop id="stop3756" offset="1" stop-color="#fff" stop-opacity="0"/></linearGradient><linearGradient id="linearGradient8265-821-176-38-919-66-249"><stop id="stop2687" offset="0" stop-color="#fff" stop-opacity="1"/><stop id="stop2689" offset="1" stop-color="#fff" stop-opacity="0"/></linearGradient><linearGradient id="linearGradient3510" x1="302.857" x2="302.857" y1="366.648" y2="609.505" gradientTransform="matrix(2.774389,0,0,1.969706,-1892.179,-872.8854)" gradientUnits="userSpaceOnUse" xlink:href="#linearGradient5048"/><radialGradient id="radialGradient3512" cx="605.714" cy="486.648" r="117.143" fx="605.714" fy="486.648" gradientTransform="matrix(2.774389,0,0,1.969706,-1891.633,-872.8854)" gradientUnits="userSpaceOnUse" xlink:href="#linearGradient5060"/><radialGradient id="radialGradient3514" cx="605.714" cy="486.648" r="117.143" fx="605.714" fy="486.648" gradientTransform="matrix(-2.774389,0,0,1.969706,112.7623,-872.8854)" gradientUnits="userSpaceOnUse" xlink:href="#linearGradient5060"/><linearGradient id="linearGradient3516" x1="-28.531" x2="-28.531" y1="17.956" y2="37.503" gradientTransform="matrix(0.9101563,0,0,0.8985549,11.885849,-34.99423)" gradientUnits="userSpaceOnUse" xlink:href="#linearGradient11111"/><linearGradient id="linearGradient3518" x1="9.876" x2="9.876" y1="2.601" y2="23.062" gradientTransform="matrix(0.9101563,0,0,0.8985549,-19.403508,-21.963997)" gradientUnits="userSpaceOnUse" xlink:href="#linearGradient5157"/><radialGradient id="radialGradient3520" cx="8.233" cy="8.478" r="9.999" fx="8.233" fy="8.478" gradientTransform="matrix(1.2637216,1.6454755e-8,-1.1140231e-8,0.8555673,-21.653225,-19.713096)" gradientUnits="userSpaceOnUse" xlink:href="#linearGradient7012-661-145-733-759-865-745"/><linearGradient id="linearGradient3522" x1="15.669" x2="3.077" y1="16.979" y2="4.252" gradientTransform="matrix(0.9052018,0,0,0.8680849,-19.712254,-19.883974)" gradientUnits="userSpaceOnUse" xlink:href="#linearGradient3390"/><radialGradient id="radialGradient3524" cx="4.02" cy="5.593" r="10.273" fx="4.02" fy="5.593" gradientTransform="matrix(-0.01529236,1.2169565,-1.6351743,-0.01889719,-6.5229407,-19.500936)" gradientUnits="userSpaceOnUse" xlink:href="#linearGradient3752"/><linearGradient id="linearGradient3526" x1="18.031" x2="20.055" y1="16.408" y2="24.628" gradientUnits="userSpaceOnUse" xlink:href="#linearGradient8265-821-176-38-919-66-249"/><linearGradient id="linearGradient5128"><stop id="stop5130" offset="0" stop-color="#e5e5e5" stop-opacity="1"/><stop id="stop5132" offset="1" stop-color="#ababab" stop-opacity="1"/></linearGradient><linearGradient id="linearGradient3397"><stop id="stop3399" offset="0" stop-color="#aaa" stop-opacity="1"/><stop id="stop3401" offset="1" stop-color="#8c8c8c" stop-opacity="1"/></linearGradient><linearGradient id="linearGradient3309" x1="63.999" x2="63.999" y1="3.1" y2="122.899" gradientUnits="userSpaceOnUse"><stop id="stop3311" offset="0" stop-color="#f6f6f6" stop-opacity="1"/><stop id="stop3313" offset="1" stop-color="#ccc" stop-opacity="1"/></linearGradient><linearGradient id="linearGradient3542" x1="25" x2="25" y1="0" y2="16" gradientTransform="matrix(0.99809609,0,0,0.99791944,-16.995144,0.03331124)" gradientUnits="userSpaceOnUse" xlink:href="#linearGradient3309"/><linearGradient id="linearGradient3544" x1="21" x2="21" y1="0" y2="16.005" gradientTransform="matrix(0.99809609,0,0,0.99791944,-16.995144,0.03331124)" gradientUnits="userSpaceOnUse" xlink:href="#linearGradient3397"/><linearGradient id="linearGradient3546" x1="86.133" x2="84.639" y1="105.105" y2="20.895" gradientTransform="matrix(0.09614231,0,0,0.09614231,1.8468935,1.9430362)" gradientUnits="userSpaceOnUse" xlink:href="#linearGradient5128"/></defs><g id="layer1"><g id="g3499" transform="translate(19.481928,22.192735)"><g id="g3430" stroke-dasharray="none" stroke-miterlimit="4" stroke-width="1.883" transform="matrix(0.4968783,0,0,0.4693778,-20.315517,-22.51333)"><g id="g3432" stroke-dasharray="none" stroke-miterlimit="4" stroke-width="104.962" display="inline" transform="matrix(0.02165152,0,0,0.01485743,43.0076,42.68539)"><rect id="rect3434" width="1339.633" height="478.357" x="-1559.252" y="-150.697" fill="url(#linearGradient3510)" fill-opacity="1" fill-rule="nonzero" stroke="none" stroke-width="104.962" display="inline" opacity=".402" overflow="visible" visibility="visible" style="marker:none"/><path id="path3436" fill="url(#radialGradient3512)" fill-opacity="1" fill-rule="nonzero" stroke="none" stroke-width="104.962" d="m -219.61876,-150.68038 c 0,0 0,478.33079 0,478.33079 142.874166,0.90045 345.40022,-107.16966 345.40014,-239.196175 0,-132.026537 -159.436816,-239.134595 -345.40014,-239.134615 z" display="inline" opacity=".402" overflow="visible" visibility="visible" style="marker:none"/><path id="path3438" fill="url(#radialGradient3514)" fill-opacity="1" fill-rule="nonzero" stroke="none" stroke-width="104.962" d="m -1559.2523,-150.68038 c 0,0 0,478.33079 0,478.33079 -142.8742,0.90045 -345.4002,-107.16966 -345.4002,-239.196175 0,-132.026537 159.4368,-239.134595 345.4002,-239.134615 z" display="inline" opacity=".402" overflow="visible" visibility="visible" style="marker:none"/></g></g><path id="path3440" fill="url(#linearGradient3516)" fill-opacity="1" stroke="url(#linearGradient3518)" stroke-dasharray="none" stroke-linecap="round" stroke-linejoin="round" stroke-miterlimit="4" stroke-opacity="1" stroke-width="1.011" d="m -16.839971,-19.687235 c -0.07785,0 -0.144596,0.08334 -0.144596,0.169416 l 0,1.8465 -1.7894,0 c -0.09715,0 -0.173514,0.08524 -0.173514,0.169416 0.0063,4.797385 -0.02399,9.5946956 -0.02892,14.3920686 0.02647,0.804239 0.488973,1.352453 0.809734,1.355328 0.921748,0.00826 0.490822,-0.00362 0.954331,0 5.889014,-0.014465 12.3589369,-0.070242 18.2479498,-0.084707 0.049343,0.00622 -1.3440419,-0.096797 -1.3302789,-1.298857 10e-7,-4.1989 -0.456941,-9.8260986 -0.456941,-14.0250006 0,-0.167921 -0.014053,-0.261378 -0.02892,-0.338832 -0.01148,-0.05981 -0.026117,-0.08884 -0.057837,-0.112944 -0.025359,-0.02197 -0.049648,-0.05126 -0.086757,-0.05647 l -8.9515436,0 0,-1.8465 c 0,-0.08608 -0.066742,-0.169416 -0.1445953,-0.169416 l -6.818713,0 z" display="inline"/><path id="path3442" fill="url(#radialGradient3520)" fill-opacity="1" stroke="url(#linearGradient3522)" stroke-dasharray="none" stroke-linecap="round" stroke-linejoin="round" stroke-miterlimit="4" stroke-opacity="1" stroke-width="1" d="m -15.954876,-15.668819 c 9.6200823,0 11.5958189,4.02e-4 17.9331738,-0.02404 0,1.370714 0.234958,14.0002686 -0.440609,14.0002686 -0.649883,0 -12.1807578,-0.082351 -18.5181108,-0.057913 1.339437,0 1.025546,-0.543547 1.025546,-13.9183196 z" display="inline"/><path id="path3444" fill="none" stroke="url(#radialGradient3524)" stroke-dasharray="none" stroke-linecap="butt" stroke-linejoin="miter" stroke-miterlimit="4" stroke-opacity="1" stroke-width=".981" d="m 1.4740268,-14.742132 c 0,0 -15.0179128,0.23239 -16.4422758,0.07006 -0.07549,12.0706046 -0.116891,12.3013116 -0.116891,12.3013116" display="inline" opacity=".4"/><path id="path3446" fill="url(#linearGradient3526)" fill-opacity="1" fill-rule="evenodd" stroke="none" d="m 3.21875,5.34375 c -1.5389481,0 -2.8125,1.273552 -2.8125,2.8125 l 0,16 c 0.005894,0.286233 0.14841957,0.612577 0.375,0.8125 0.2265775,0.199921 0.5161946,0.284272 0.84375,0.25 a 0.61209076,0.61209076 0 0 0 0.03125,0 l 45,-7.125 c 0.521773,-0.08229 0.930206,-0.53433 0.9375,-1.0625 l 0,-8.875 c 0,-1.538948 -1.273552,-2.8125 -2.8125,-2.8125 l -41.5625,0 z" opacity=".2" transform="matrix(0.402649,0,0,0.3520695,-16.645459,-18.074107)"/></g><g id="g2467" transform="matrix(0.94219927,0,0,0.93749999,6.8716147,7)"><g id="g2479"><path id="path2426" fill="url(#linearGradient3542)" fill-opacity="1" fill-rule="nonzero" stroke="url(#linearGradient3544)" stroke-dasharray="none" stroke-dashoffset="0" stroke-linecap="butt" stroke-linejoin="round" stroke-miterlimit="4" stroke-opacity="1" stroke-width="1.062" d="m 6.9548594,0.53227096 c -0.2479439,0 -0.436667,0.18868878 -0.436667,0.43658975 l 0,1.24739929 C 5.9653441,2.3581647 5.4690297,2.5873646 4.9898578,2.8711446 L 4.0853332,1.9667801 c -0.1753225,-0.1752924 -0.4484865,-0.1752924 -0.6238101,0 L 1.964379,3.4636593 c -0.1753226,0.1752924 -0.1753226,0.4484072 0,0.6236997 L 2.8689036,4.9917234 C 2.5850739,5.4708102 2.3558333,5.9670368 2.213903,6.5197876 l -1.2476201,0 c -0.24794403,0 -0.43666704,0.1886887 -0.43666704,0.4365897 l 0,2.1205788 c 10e-9,0.247901 0.188723,0.4365898 0.43666704,0.4365898 l 1.2476201,0 C 2.3558332,10.066296 2.585074,10.562523 2.8689036,11.04161 L 1.964379,11.945975 c -0.1753226,0.175292 -0.1753226,0.448407 0,0.623699 l 1.4971441,1.496879 c 0.1753235,0.175293 0.4484865,0.175293 0.6238101,0 l 0.9045246,-0.904364 c 0.479172,0.28378 0.9754862,0.51298 1.5283346,0.654884 l 0,1.2474 c 10e-8,0.247901 0.188723,0.43659 0.436667,0.43659 l 2.1209542,0 c 0.2479447,0 0.4366671,-0.188689 0.4366671,-0.43659 l 0,-1.2474 c 0.5528483,-0.141904 1.0491623,-0.371104 1.5283343,-0.654884 l 0.904525,0.904364 c 0.175323,0.175293 0.448486,0.175293 0.62381,0 l 1.497144,-1.496879 c 0.175324,-0.175292 0.175324,-0.448407 0,-0.623699 L 13.16177,11.04161 c 0.28383,-0.479087 0.513071,-0.975314 0.655,-1.5280641 l 1.24762,0 c 0.247945,0 0.436667,-0.1886892 0.436667,-0.4365898 l 0,-2.1205788 c 0,-0.2479009 -0.188723,-0.4365897 -0.436667,-0.4365897 l -1.24762,0 C 13.674841,5.9670368 13.4456,5.4708102 13.16177,4.9917234 L 14.066294,4.087359 c 0.175324,-0.1752925 0.175324,-0.4484072 0,-0.6236997 L 12.56915,1.9667801 c -0.175324,-0.1752924 -0.448487,-0.1752924 -0.62381,0 L 11.040815,2.8711446 C 10.561643,2.5873646 10.065329,2.3581647 9.5124807,2.21626 l 0,-1.24739929 c -4e-7,-0.24790097 -0.188722,-0.43658975 -0.4366671,-0.43658975 l -2.1209542,0 z M 8.0153365,6.0208279 c 1.1018981,0 1.9961925,0.8941358 1.9961925,1.9958388 0,1.1017031 -0.8942944,1.9958393 -1.9961925,1.9958393 -1.101898,0 -1.9961921,-0.8941362 -1.9961921,-1.9958393 0,-1.101703 0.8942941,-1.9958388 1.9961921,-1.9958388 z" display="block" enable-background="accumulate" overflow="visible" visibility="visible" style="marker:none"/><path id="path3315" fill="#000" fill-opacity="1" stroke="none" d="M 8,3.465116 C 5.4994229,3.465116 3.4651163,5.499423 3.4651163,8 3.4651163,10.500577 5.4994229,12.534884 8,12.534884 10.500576,12.534883 12.534884,10.500577 12.534884,8 12.534884,5.499423 10.500576,3.465116 8,3.465116 z M 8,5.55814 c 1.347907,0 2.44186,1.093953 2.44186,2.44186 0,1.347907 -1.093953,2.44186 -2.44186,2.44186 C 6.652093,10.44186 5.5581395,9.347907 5.5581395,8 5.5581395,6.652093 6.652093,5.55814 8,5.55814 z" opacity=".05"/><path id="path28" fill="none" stroke="url(#linearGradient3546)" stroke-dasharray="none" stroke-miterlimit="4" stroke-width="1" d="M 8.0000001,4 C 5.7943997,4 3.9999999,5.7944001 3.9999999,8.0000008 3.9999999,10.2056 5.7943997,12 8.0000001,12 10.2056,12 12,10.2056 12,8.0000008 12,5.7944001 10.2056,4 8.0000001,4 z"/></g></g></g></svg>