<svg xmlns="http://www.w3.org/2000/svg" xmlns:svg="http://www.w3.org/2000/svg" xmlns:xlink="http://www.w3.org/1999/xlink" id="svg2" width="22" height="22" version="1.0"><defs id="defs4"><linearGradient id="linearGradient5060"><stop id="stop5062" offset="0" stop-color="#000" stop-opacity="1"/><stop id="stop5064" offset="1" stop-color="#000" stop-opacity="0"/></linearGradient><linearGradient id="linearGradient5048"><stop id="stop5050" offset="0" stop-color="#000" stop-opacity="0"/><stop id="stop5056" offset=".5" stop-color="#000" stop-opacity="1"/><stop id="stop5052" offset="1" stop-color="#000" stop-opacity="0"/></linearGradient><linearGradient id="linearGradient5157"><stop id="stop5159" offset="0" stop-color="#c1c1c1" stop-opacity="1"/><stop id="stop5161" offset="1" stop-color="#909090" stop-opacity="1"/></linearGradient><linearGradient id="linearGradient11111"><stop id="stop11113" offset="0" stop-color="#fff" stop-opacity="1"/><stop id="stop11115" offset=".91" stop-color="#cdcdcd" stop-opacity="1"/><stop id="stop11117" offset="1" stop-color="#a1a1a1" stop-opacity="1"/></linearGradient><linearGradient id="linearGradient3390"><stop id="stop3392" offset="0" stop-color="#425e7b" stop-opacity="1"/><stop id="stop3394" offset="1" stop-color="#7a91a7" stop-opacity="1"/></linearGradient><linearGradient id="linearGradient7012-661-145-733-759-865-745"><stop id="stop2699" offset="0" stop-color="#9cbbd9" stop-opacity="1"/><stop id="stop2701" offset="1" stop-color="#5c82ab" stop-opacity="1"/></linearGradient><linearGradient id="linearGradient3752"><stop id="stop3754" offset="0" stop-color="#fff" stop-opacity="1"/><stop id="stop3760" offset=".848" stop-color="#fff" stop-opacity="1"/><stop id="stop3756" offset="1" stop-color="#fff" stop-opacity="0"/></linearGradient><linearGradient id="linearGradient8265-821-176-38-919-66-249"><stop id="stop2687" offset="0" stop-color="#fff" stop-opacity="1"/><stop id="stop2689" offset="1" stop-color="#fff" stop-opacity="0"/></linearGradient><linearGradient id="linearGradient3510" x1="302.857" x2="302.857" y1="366.648" y2="609.505" gradientTransform="matrix(2.774389,0,0,1.969706,-1892.179,-872.8854)" gradientUnits="userSpaceOnUse" xlink:href="#linearGradient5048"/><radialGradient id="radialGradient3512" cx="605.714" cy="486.648" r="117.143" fx="605.714" fy="486.648" gradientTransform="matrix(2.774389,0,0,1.969706,-1891.633,-872.8854)" gradientUnits="userSpaceOnUse" xlink:href="#linearGradient5060"/><radialGradient id="radialGradient3514" cx="605.714" cy="486.648" r="117.143" fx="605.714" fy="486.648" gradientTransform="matrix(-2.774389,0,0,1.969706,112.7623,-872.8854)" gradientUnits="userSpaceOnUse" xlink:href="#linearGradient5060"/><linearGradient id="linearGradient3516" x1="-28.531" x2="-28.531" y1="17.956" y2="37.503" gradientTransform="matrix(0.9101563,0,0,0.8985549,11.885849,-34.99423)" gradientUnits="userSpaceOnUse" xlink:href="#linearGradient11111"/><linearGradient id="linearGradient3518" x1="9.876" x2="9.876" y1="2.601" y2="23.062" gradientTransform="matrix(0.9101563,0,0,0.8985549,-19.403508,-21.963997)" gradientUnits="userSpaceOnUse" xlink:href="#linearGradient5157"/><radialGradient id="radialGradient3520" cx="8.233" cy="8.478" r="9.999" fx="8.233" fy="8.478" gradientTransform="matrix(1.2637216,1.6454755e-8,-1.1140231e-8,0.8555673,-21.653225,-19.713096)" gradientUnits="userSpaceOnUse" xlink:href="#linearGradient7012-661-145-733-759-865-745"/><linearGradient id="linearGradient3522" x1="15.669" x2="3.077" y1="16.979" y2="4.252" gradientTransform="matrix(0.9052018,0,0,0.8680849,-19.712254,-19.883974)" gradientUnits="userSpaceOnUse" xlink:href="#linearGradient3390"/><radialGradient id="radialGradient3524" cx="4.02" cy="5.593" r="10.273" fx="4.02" fy="5.593" gradientTransform="matrix(-0.01529236,1.2169565,-1.6351743,-0.01889719,-6.5229407,-19.500936)" gradientUnits="userSpaceOnUse" xlink:href="#linearGradient3752"/><linearGradient id="linearGradient3526" x1="18.031" x2="20.055" y1="16.408" y2="24.628" gradientUnits="userSpaceOnUse" xlink:href="#linearGradient8265-821-176-38-919-66-249"/><linearGradient id="linearGradient3104"><stop id="stop3106" offset="0" stop-color="#9a9a9a" stop-opacity="1"/><stop id="stop3108" offset="1" stop-color="#afafaf" stop-opacity="1"/></linearGradient><linearGradient id="linearGradient3600"><stop id="stop3602" offset="0" stop-color="#f4f4f4" stop-opacity="1"/><stop id="stop3604" offset="1" stop-color="#dbdbdb" stop-opacity="1"/></linearGradient><linearGradient id="linearGradient3412"><stop id="stop3414" offset="0" stop-color="#fcfcfc" stop-opacity="1"/><stop id="stop3416" offset="1" stop-color="#cbcdd9" stop-opacity="1"/></linearGradient><linearGradient id="linearGradient3428-8"><stop id="stop3430" offset="0" stop-color="#fff" stop-opacity="1"/><stop id="stop3432" offset="1" stop-color="#fff" stop-opacity="0"/></linearGradient><linearGradient id="linearGradient3551" x1="25.132" x2="25.132" y1="6.729" y2="47.013" gradientTransform="matrix(0.3285713,0,0,0.30000085,33.3643,7.54995)" gradientUnits="userSpaceOnUse" xlink:href="#linearGradient3600"/><linearGradient id="linearGradient3553" x1="-51.786" x2="-51.786" y1="50.786" y2="2.906" gradientTransform="matrix(0.2653203,0,0,0.28075615,52.884798,7.215604)" gradientUnits="userSpaceOnUse" xlink:href="#linearGradient3104"/><linearGradient id="linearGradient3555" x1="33.877" x2="44.119" y1="19.948" y2="30.191" gradientUnits="userSpaceOnUse" xlink:href="#linearGradient3412"/><linearGradient id="linearGradient3557" x1="45.094" x2="45.094" y1="18.404" y2="31.781" gradientTransform="matrix(0.5,0,0,0.5,25.854975,-1.840889)" gradientUnits="userSpaceOnUse" xlink:href="#linearGradient3428-8"/></defs><g id="layer1"><g id="g3499" transform="translate(19.481928,22.192735)"><g id="g3430" stroke-dasharray="none" stroke-miterlimit="4" stroke-width="1.883" transform="matrix(0.4968783,0,0,0.4693778,-20.315517,-22.51333)"><g id="g3432" stroke-dasharray="none" stroke-miterlimit="4" stroke-width="104.962" display="inline" transform="matrix(0.02165152,0,0,0.01485743,43.0076,42.68539)"><rect id="rect3434" width="1339.633" height="478.357" x="-1559.252" y="-150.697" fill="url(#linearGradient3510)" fill-opacity="1" fill-rule="nonzero" stroke="none" stroke-width="104.962" display="inline" opacity=".402" overflow="visible" visibility="visible" style="marker:none"/><path id="path3436" fill="url(#radialGradient3512)" fill-opacity="1" fill-rule="nonzero" stroke="none" stroke-width="104.962" d="m -219.61876,-150.68038 c 0,0 0,478.33079 0,478.33079 142.874166,0.90045 345.40022,-107.16966 345.40014,-239.196175 0,-132.026537 -159.436816,-239.134595 -345.40014,-239.134615 z" display="inline" opacity=".402" overflow="visible" visibility="visible" style="marker:none"/><path id="path3438" fill="url(#radialGradient3514)" fill-opacity="1" fill-rule="nonzero" stroke="none" stroke-width="104.962" d="m -1559.2523,-150.68038 c 0,0 0,478.33079 0,478.33079 -142.8742,0.90045 -345.4002,-107.16966 -345.4002,-239.196175 0,-132.026537 159.4368,-239.134595 345.4002,-239.134615 z" display="inline" opacity=".402" overflow="visible" visibility="visible" style="marker:none"/></g></g><path id="path3440" fill="url(#linearGradient3516)" fill-opacity="1" stroke="url(#linearGradient3518)" stroke-dasharray="none" stroke-linecap="round" stroke-linejoin="round" stroke-miterlimit="4" stroke-opacity="1" stroke-width="1.011" d="m -16.839971,-19.687235 c -0.07785,0 -0.144596,0.08334 -0.144596,0.169416 l 0,1.8465 -1.7894,0 c -0.09715,0 -0.173514,0.08524 -0.173514,0.169416 0.0063,4.797385 -0.02399,9.5946956 -0.02892,14.3920686 0.02647,0.804239 0.488973,1.352453 0.809734,1.355328 0.921748,0.00826 0.490822,-0.00362 0.954331,0 5.889014,-0.014465 12.3589369,-0.070242 18.2479498,-0.084707 0.049343,0.00622 -1.3440419,-0.096797 -1.3302789,-1.298857 10e-7,-4.1989 -0.456941,-9.8260986 -0.456941,-14.0250006 0,-0.167921 -0.014053,-0.261378 -0.02892,-0.338832 -0.01148,-0.05981 -0.026117,-0.08884 -0.057837,-0.112944 -0.025359,-0.02197 -0.049648,-0.05126 -0.086757,-0.05647 l -8.9515436,0 0,-1.8465 c 0,-0.08608 -0.066742,-0.169416 -0.1445953,-0.169416 l -6.818713,0 z" display="inline"/><path id="path3442" fill="url(#radialGradient3520)" fill-opacity="1" stroke="url(#linearGradient3522)" stroke-dasharray="none" stroke-linecap="round" stroke-linejoin="round" stroke-miterlimit="4" stroke-opacity="1" stroke-width="1" d="m -15.954876,-15.668819 c 9.6200823,0 11.5958189,4.02e-4 17.9331738,-0.02404 0,1.370714 0.234958,14.0002686 -0.440609,14.0002686 -0.649883,0 -12.1807578,-0.082351 -18.5181108,-0.057913 1.339437,0 1.025546,-0.543547 1.025546,-13.9183196 z" display="inline"/><path id="path3444" fill="none" stroke="url(#radialGradient3524)" stroke-dasharray="none" stroke-linecap="butt" stroke-linejoin="miter" stroke-miterlimit="4" stroke-opacity="1" stroke-width=".981" d="m 1.4740268,-14.742132 c 0,0 -15.0179128,0.23239 -16.4422758,0.07006 -0.07549,12.0706046 -0.116891,12.3013116 -0.116891,12.3013116" display="inline" opacity=".4"/><path id="path3446" fill="url(#linearGradient3526)" fill-opacity="1" fill-rule="evenodd" stroke="none" d="m 3.21875,5.34375 c -1.5389481,0 -2.8125,1.273552 -2.8125,2.8125 l 0,16 c 0.005894,0.286233 0.14841957,0.612577 0.375,0.8125 0.2265775,0.199921 0.5161946,0.284272 0.84375,0.25 a 0.61209076,0.61209076 0 0 0 0.03125,0 l 45,-7.125 c 0.521773,-0.08229 0.930206,-0.53433 0.9375,-1.0625 l 0,-8.875 c 0,-1.538948 -1.273552,-2.8125 -2.8125,-2.8125 l -41.5625,0 z" opacity=".2" transform="matrix(0.402649,0,0,0.3520695,-16.645459,-18.074107)"/></g><g id="g3539" transform="translate(-28.044043,0)"><path id="rect2594" fill="url(#linearGradient3551)" fill-opacity="1" stroke="url(#linearGradient3553)" stroke-dasharray="none" stroke-dashoffset="0" stroke-linecap="butt" stroke-linejoin="round" stroke-miterlimit="4" stroke-opacity="1" stroke-width="1" d="m 35.5,8.5 7.905717,0 c 0.462278,0.145614 3.445767,1.304485 4.094282,2.453133 l 0,10.546867 -11.999999,0 0,-13 z" display="inline"/><path id="path3449" fill="none" stroke="#9a9eac" stroke-dasharray="none" stroke-linecap="butt" stroke-linejoin="miter" stroke-miterlimit="4" stroke-opacity="1" stroke-width="1" d="m 44.5,9.523139 0,10.476842" opacity=".8"/><path id="path3453" fill="none" stroke="#9a9eac" stroke-dasharray="none" stroke-linecap="butt" stroke-linejoin="miter" stroke-miterlimit="4" stroke-opacity="1" stroke-width="1" d="M 46.044043,11.5 37,11.5" opacity=".8"/><g id="g3553" stroke-dasharray="none" stroke-miterlimit="4" stroke-width="2" transform="matrix(0.5,0,0,0.5,25.75,-1.75)"><path id="path3410" fill="url(#linearGradient3555)" fill-opacity="1" fill-rule="evenodd" stroke="#83899a" stroke-dasharray="none" stroke-linecap="butt" stroke-linejoin="round" stroke-miterlimit="4" stroke-opacity="1" stroke-width="2" d="m 30.5,18.5 15,15 0,-15 -15,0 z m 9,4 2,0 0,2 -2,-2 z" opacity=".8"/></g><path id="path3447" fill="none" stroke="#9a9eac" stroke-dasharray="none" stroke-linecap="butt" stroke-linejoin="miter" stroke-miterlimit="4" stroke-opacity="1" stroke-width="1" d="m 38.5,10 0,10" opacity=".8"/><path id="path3451" fill="none" stroke="#9a9eac" stroke-dasharray="none" stroke-linecap="butt" stroke-linejoin="miter" stroke-miterlimit="4" stroke-opacity="1" stroke-width="1" d="M 46.022267,18.5 37,18.5" opacity=".8"/><text id="text3455" x="38.071" y="17.599" fill="#9a9eac" fill-opacity="1" stroke="none" font-family="Bitstream Vera Sans" font-size="6.242" font-style="normal" font-weight="normal" opacity=".8" transform="scale(1.0404097,0.96115982)" xml:space="preserve"><tspan id="tspan3457" x="38.071" y="17.599" font-size="6.242">a</tspan></text><path id="path3424" fill="none" stroke="url(#linearGradient3557)" stroke-dasharray="none" stroke-linecap="butt" stroke-linejoin="miter" stroke-miterlimit="4" stroke-opacity="1" stroke-width="1" d="m 42.214347,7.862236 5.9375,5.9375 0,-5.9375 -5.9375,0 z" opacity=".4"/></g></g></svg>