<svg xmlns="http://www.w3.org/2000/svg" xmlns:svg="http://www.w3.org/2000/svg" xmlns:xlink="http://www.w3.org/1999/xlink" id="svg2" width="22" height="22" version="1.0"><defs id="defs4"><linearGradient id="linearGradient5060"><stop id="stop5062" offset="0" stop-color="#000" stop-opacity="1"/><stop id="stop5064" offset="1" stop-color="#000" stop-opacity="0"/></linearGradient><linearGradient id="linearGradient5048"><stop id="stop5050" offset="0" stop-color="#000" stop-opacity="0"/><stop id="stop5056" offset=".5" stop-color="#000" stop-opacity="1"/><stop id="stop5052" offset="1" stop-color="#000" stop-opacity="0"/></linearGradient><linearGradient id="linearGradient5157"><stop id="stop5159" offset="0" stop-color="#c1c1c1" stop-opacity="1"/><stop id="stop5161" offset="1" stop-color="#909090" stop-opacity="1"/></linearGradient><linearGradient id="linearGradient11111"><stop id="stop11113" offset="0" stop-color="#fff" stop-opacity="1"/><stop id="stop11115" offset=".91" stop-color="#cdcdcd" stop-opacity="1"/><stop id="stop11117" offset="1" stop-color="#a1a1a1" stop-opacity="1"/></linearGradient><linearGradient id="linearGradient3390"><stop id="stop3392" offset="0" stop-color="#425e7b" stop-opacity="1"/><stop id="stop3394" offset="1" stop-color="#7a91a7" stop-opacity="1"/></linearGradient><linearGradient id="linearGradient7012-661-145-733-759-865-745"><stop id="stop2699" offset="0" stop-color="#9cbbd9" stop-opacity="1"/><stop id="stop2701" offset="1" stop-color="#5c82ab" stop-opacity="1"/></linearGradient><linearGradient id="linearGradient3752"><stop id="stop3754" offset="0" stop-color="#fff" stop-opacity="1"/><stop id="stop3760" offset=".848" stop-color="#fff" stop-opacity="1"/><stop id="stop3756" offset="1" stop-color="#fff" stop-opacity="0"/></linearGradient><linearGradient id="linearGradient8265-821-176-38-919-66-249"><stop id="stop2687" offset="0" stop-color="#fff" stop-opacity="1"/><stop id="stop2689" offset="1" stop-color="#fff" stop-opacity="0"/></linearGradient><linearGradient id="linearGradient3510" x1="302.857" x2="302.857" y1="366.648" y2="609.505" gradientTransform="matrix(2.774389,0,0,1.969706,-1892.179,-872.8854)" gradientUnits="userSpaceOnUse" xlink:href="#linearGradient5048"/><radialGradient id="radialGradient3512" cx="605.714" cy="486.648" r="117.143" fx="605.714" fy="486.648" gradientTransform="matrix(2.774389,0,0,1.969706,-1891.633,-872.8854)" gradientUnits="userSpaceOnUse" xlink:href="#linearGradient5060"/><radialGradient id="radialGradient3514" cx="605.714" cy="486.648" r="117.143" fx="605.714" fy="486.648" gradientTransform="matrix(-2.774389,0,0,1.969706,112.7623,-872.8854)" gradientUnits="userSpaceOnUse" xlink:href="#linearGradient5060"/><linearGradient id="linearGradient3516" x1="-28.531" x2="-28.531" y1="17.956" y2="37.503" gradientTransform="matrix(0.9101563,0,0,0.8985549,11.885849,-34.99423)" gradientUnits="userSpaceOnUse" xlink:href="#linearGradient11111"/><linearGradient id="linearGradient3518" x1="9.876" x2="9.876" y1="2.601" y2="23.062" gradientTransform="matrix(0.9101563,0,0,0.8985549,-19.403508,-21.963997)" gradientUnits="userSpaceOnUse" xlink:href="#linearGradient5157"/><radialGradient id="radialGradient3520" cx="8.233" cy="8.478" r="9.999" fx="8.233" fy="8.478" gradientTransform="matrix(1.2637216,1.6454755e-8,-1.1140231e-8,0.8555673,-21.653225,-19.713096)" gradientUnits="userSpaceOnUse" xlink:href="#linearGradient7012-661-145-733-759-865-745"/><linearGradient id="linearGradient3522" x1="15.669" x2="3.077" y1="16.979" y2="4.252" gradientTransform="matrix(0.9052018,0,0,0.8680849,-19.712254,-19.883974)" gradientUnits="userSpaceOnUse" xlink:href="#linearGradient3390"/><radialGradient id="radialGradient3524" cx="4.02" cy="5.593" r="10.273" fx="4.02" fy="5.593" gradientTransform="matrix(-0.01529236,1.2169565,-1.6351743,-0.01889719,-6.5229407,-19.500936)" gradientUnits="userSpaceOnUse" xlink:href="#linearGradient3752"/><linearGradient id="linearGradient3526" x1="18.031" x2="20.055" y1="16.408" y2="24.628" gradientUnits="userSpaceOnUse" xlink:href="#linearGradient8265-821-176-38-919-66-249"/><linearGradient id="linearGradient2372-5"><stop id="stop2374-7" offset="0" stop-color="#fff" stop-opacity="1"/><stop id="stop2376-4" offset="1" stop-color="#fff" stop-opacity=".379"/></linearGradient><linearGradient id="linearGradient7067-814-120-245"><stop id="stop3877" offset="0" stop-color="#aaa" stop-opacity="1"/><stop id="stop3879" offset="1" stop-color="#4d4d4d" stop-opacity="1"/></linearGradient><radialGradient id="radialGradient3602" cx="17.059" cy="41.059" r="5.738" fx="15.544" fy="39.027" gradientTransform="matrix(0.37667571,-0.06311262,0,0.36451394,-2.446246,-0.69065449)" gradientUnits="userSpaceOnUse" xlink:href="#linearGradient7067-814-120-245"/><radialGradient id="radialGradient3604" cx="17.059" cy="41.059" r="5.738" fx="15.97" fy="39.106" gradientTransform="matrix(0.3698584,-0.06212313,0,0.35879901,4.6705097,-1.5148309)" gradientUnits="userSpaceOnUse" xlink:href="#linearGradient7067-814-120-245"/><linearGradient id="linearGradient3606" x1="28.739" x2="25.4" y1="144.117" y2="119.865" gradientTransform="matrix(0.12649532,0,0,0.12875595,2.1139996,-14.056928)" gradientUnits="userSpaceOnUse" xlink:href="#linearGradient2372-5"/><linearGradient id="linearGradient3608" x1="28.739" x2="26.257" y1="144.117" y2="125.391" gradientTransform="matrix(0.2545239,0,0,0.12875595,6.0849926,-15.173532)" gradientUnits="userSpaceOnUse" xlink:href="#linearGradient2372-5"/></defs><g id="layer1"><g id="g3499" transform="translate(19.481928,22.192735)"><g id="g3430" stroke-dasharray="none" stroke-miterlimit="4" stroke-width="1.883" transform="matrix(0.4968783,0,0,0.4693778,-20.315517,-22.51333)"><g id="g3432" stroke-dasharray="none" stroke-miterlimit="4" stroke-width="104.962" display="inline" transform="matrix(0.02165152,0,0,0.01485743,43.0076,42.68539)"><rect id="rect3434" width="1339.633" height="478.357" x="-1559.252" y="-150.697" fill="url(#linearGradient3510)" fill-opacity="1" fill-rule="nonzero" stroke="none" stroke-width="104.962" display="inline" opacity=".402" overflow="visible" visibility="visible" style="marker:none"/><path id="path3436" fill="url(#radialGradient3512)" fill-opacity="1" fill-rule="nonzero" stroke="none" stroke-width="104.962" d="m -219.61876,-150.68038 c 0,0 0,478.33079 0,478.33079 142.874166,0.90045 345.40022,-107.16966 345.40014,-239.196175 0,-132.026537 -159.436816,-239.134595 -345.40014,-239.134615 z" display="inline" opacity=".402" overflow="visible" visibility="visible" style="marker:none"/><path id="path3438" fill="url(#radialGradient3514)" fill-opacity="1" fill-rule="nonzero" stroke="none" stroke-width="104.962" d="m -1559.2523,-150.68038 c 0,0 0,478.33079 0,478.33079 -142.8742,0.90045 -345.4002,-107.16966 -345.4002,-239.196175 0,-132.026537 159.4368,-239.134595 345.4002,-239.134615 z" display="inline" opacity=".402" overflow="visible" visibility="visible" style="marker:none"/></g></g><path id="path3440" fill="url(#linearGradient3516)" fill-opacity="1" stroke="url(#linearGradient3518)" stroke-dasharray="none" stroke-linecap="round" stroke-linejoin="round" stroke-miterlimit="4" stroke-opacity="1" stroke-width="1.011" d="m -16.839971,-19.687235 c -0.07785,0 -0.144596,0.08334 -0.144596,0.169416 l 0,1.8465 -1.7894,0 c -0.09715,0 -0.173514,0.08524 -0.173514,0.169416 0.0063,4.797385 -0.02399,9.5946956 -0.02892,14.3920686 0.02647,0.804239 0.488973,1.352453 0.809734,1.355328 0.921748,0.00826 0.490822,-0.00362 0.954331,0 5.889014,-0.014465 12.3589369,-0.070242 18.2479498,-0.084707 0.049343,0.00622 -1.3440419,-0.096797 -1.3302789,-1.298857 10e-7,-4.1989 -0.456941,-9.8260986 -0.456941,-14.0250006 0,-0.167921 -0.014053,-0.261378 -0.02892,-0.338832 -0.01148,-0.05981 -0.026117,-0.08884 -0.057837,-0.112944 -0.025359,-0.02197 -0.049648,-0.05126 -0.086757,-0.05647 l -8.9515436,0 0,-1.8465 c 0,-0.08608 -0.066742,-0.169416 -0.1445953,-0.169416 l -6.818713,0 z" display="inline"/><path id="path3442" fill="url(#radialGradient3520)" fill-opacity="1" stroke="url(#linearGradient3522)" stroke-dasharray="none" stroke-linecap="round" stroke-linejoin="round" stroke-miterlimit="4" stroke-opacity="1" stroke-width="1" d="m -15.954876,-15.668819 c 9.6200823,0 11.5958189,4.02e-4 17.9331738,-0.02404 0,1.370714 0.234958,14.0002686 -0.440609,14.0002686 -0.649883,0 -12.1807578,-0.082351 -18.5181108,-0.057913 1.339437,0 1.025546,-0.543547 1.025546,-13.9183196 z" display="inline"/><path id="path3444" fill="none" stroke="url(#radialGradient3524)" stroke-dasharray="none" stroke-linecap="butt" stroke-linejoin="miter" stroke-miterlimit="4" stroke-opacity="1" stroke-width=".981" d="m 1.4740268,-14.742132 c 0,0 -15.0179128,0.23239 -16.4422758,0.07006 -0.07549,12.0706046 -0.116891,12.3013116 -0.116891,12.3013116" display="inline" opacity=".4"/><path id="path3446" fill="url(#linearGradient3526)" fill-opacity="1" fill-rule="evenodd" stroke="none" d="m 3.21875,5.34375 c -1.5389481,0 -2.8125,1.273552 -2.8125,2.8125 l 0,16 c 0.005894,0.286233 0.14841957,0.612577 0.375,0.8125 0.2265775,0.199921 0.5161946,0.284272 0.84375,0.25 a 0.61209076,0.61209076 0 0 0 0.03125,0 l 45,-7.125 c 0.521773,-0.08229 0.930206,-0.53433 0.9375,-1.0625 l 0,-8.875 c 0,-1.538948 -1.273552,-2.8125 -2.8125,-2.8125 l -41.5625,0 z" opacity=".2" transform="matrix(0.402649,0,0,0.3520695,-16.645459,-18.074107)"/></g><g id="layer1-1" transform="translate(8.0145758,6.0274728)"><path id="path2931" fill="none" stroke="none" d="M 12.887143,11.242639 12.520463,8.2875931"/><path id="path4031" fill="#4d4d4d" fill-opacity="1" stroke="#333" stroke-dasharray="none" stroke-linecap="round" stroke-linejoin="round" stroke-miterlimit="4" stroke-opacity="1" stroke-width="1" d="M 12.862181,1.5009997 C 10.505078,1.8808348 7.3505507,2.2719512 5,2.6729997 4.3775618,2.976691 4.5174948,3.758579 4.4899572,4.3259997 c 0,2.5319424 0,4.0639818 0,6.5959243 -1.3117262,-0.246608 -2.9113558,0.837273 -2.9807337,2.553424 -0.1132522,1.068438 0.8342068,1.998453 1.8644819,2.023461 1.844664,0.04478 3.1062853,-1.179076 3.1262946,-2.726857 -0.020145,-2.599408 0.00566,-4.2001459 0,-6.7999523 0.2855763,-0.02115 4.61103,-0.8460467 5,-0.901 0,1.9471472 0,2.894145 0,4.8412922 -1.146387,-0.2746364 -2.6118971,0.4787211 -2.9752697,2.0172541 -0.15337,0.862385 0.1364969,1.944831 1.0115464,2.309984 1.7082373,0.784936 4.0532683,-0.805037 3.9579313,-2.671065 -0.02646,-3.4661732 0.02169,-5.9339227 0,-9.4004653 -0.04486,-0.3257586 -0.265607,-0.6905141 -0.632027,-0.667 z"/><path id="path2937" fill="url(#radialGradient3602)" fill-opacity="1" stroke="none" d="m 5.9735639,12.865117 a 1.7166647,2.0994822 57.095252 0 1 -3.9883314,0.66825 1.7166647,2.0994822 57.095252 0 1 3.9883314,-0.66825 z"/><path id="path2941" fill="url(#radialGradient3604)" fill-opacity="1" stroke="none" d="M 12.937933,11.82841 A 1.6885125,2.0629959 56.769744 0 1 9.0217849,12.486184 1.6885125,2.0629959 56.769744 1 1 12.937933,11.82841 z"/><path id="path2945" fill="url(#linearGradient3606)" fill-opacity="1" fill-rule="evenodd" stroke="none" d="M 5.0536864,11.476373 5,3.7939997 c 0,0 0.05877,-0.6639767 0.4947159,-0.666 0.1546126,-0.027048 6.9317151,-1.156 6.9317151,-1.156 0,0 0.132983,0.7088189 -6.0694897,1.629 -0.516931,0.077068 -0.76544,0.069115 -0.7627163,0.559 0.00735,1.3216244 -0.030358,2.7955761 -0.030358,7.6078783 0,0.03443 -0.3254384,-0.243938 -0.5101806,-0.291505 z" opacity=".4"/><path id="path2947" fill="url(#linearGradient3608)" fill-opacity="1" fill-rule="evenodd" stroke="none" d="m 12.000006,10.271349 0.03393,-5.5593493 c 0.357493,-0.0323 0.05489,-0.00461 0.53695,-0.053 0.0066,1.2251582 2.74e-4,1.2418473 2.74e-4,5.8689453 0,0.03443 -0.199425,-0.209029 -0.571151,-0.256596 z" opacity=".4"/></g></g></svg>