<svg xmlns="http://www.w3.org/2000/svg" xmlns:svg="http://www.w3.org/2000/svg" xmlns:xlink="http://www.w3.org/1999/xlink" id="svg3154" width="22" height="22" version="1.0"><metadata id="metadata15"/><defs id="defs3156"><linearGradient id="linearGradient3587"><stop id="stop3589" offset="0" stop-color="#000" stop-opacity="1"/><stop id="stop3591" offset="1" stop-color="#363636" stop-opacity="1"/></linearGradient><linearGradient id="linearGradient3593" x1="12" x2="12" y1="3" y2="21" gradientUnits="userSpaceOnUse" xlink:href="#linearGradient3587"/><linearGradient id="linearGradient3599" x1="12" x2="12" y1="3" y2="21" gradientUnits="userSpaceOnUse" xlink:href="#linearGradient3587"/><linearGradient id="linearGradient2826" x1="12" x2="12" y1="3" y2="21" gradientUnits="userSpaceOnUse" xlink:href="#linearGradient3587"/><linearGradient id="linearGradient2829" x1="12" x2="12" y1="3" y2="21" gradientTransform="matrix(0.87500002,0,0,0.87500002,0.49999988,0.49999964)" gradientUnits="userSpaceOnUse" xlink:href="#linearGradient3587"/></defs><path id="path3205" fill="none" stroke="#fff" stroke-dasharray="none" stroke-dashoffset="0" stroke-linecap="butt" stroke-linejoin="miter" stroke-miterlimit="4" stroke-opacity="1" stroke-width="2" d="m 18,14.391858 c -0.962144,2.682385 -3.755336,4.599029 -6.681112,4.606067 C 8.4224082,19.069757 5.5973315,17.269737 4.5393505,14.647792 3.3869849,12.030541 4.1300678,8.7816315 6.3020042,6.8726649 8.3485829,4.9816566 11.571336,4.4600022 14.141294,5.59611 15.15455,6.0124522 16.04685,6.6774732 16.746769,7.4989332 L 5.7630941,16.437128" display="inline" enable-background="accumulate" opacity=".6" overflow="visible" visibility="visible" style="marker:none"/><path id="path2386" fill="none" stroke="url(#linearGradient2829)" stroke-dasharray="none" stroke-dashoffset="0" stroke-linecap="butt" stroke-linejoin="miter" stroke-miterlimit="4" stroke-opacity="1" stroke-width="2" d="m 18,13.391858 c -0.962144,2.682385 -3.755335,4.599029 -6.681112,4.606067 C 8.4224082,18.069757 5.5973314,16.269737 4.5393504,13.647792 3.3869848,11.030541 4.1300677,7.7816314 6.3020042,5.8726647 8.3485829,3.9816564 11.571337,3.4600019 14.141294,4.5961098 15.15455,5.012452 16.046851,5.677473 16.746769,6.4989331 L 5.763094,15.437128" display="inline" enable-background="accumulate" opacity=".7" overflow="visible" visibility="visible" style="marker:none"/></svg>