<svg xmlns="http://www.w3.org/2000/svg" xmlns:svg="http://www.w3.org/2000/svg" xmlns:xlink="http://www.w3.org/1999/xlink" id="svg3303" width="22" height="22" version="1.1"><defs id="defs3305"><linearGradient id="linearGradient6028"><stop id="stop6030" offset="0" stop-color="#fff" stop-opacity="1"/><stop id="stop6032" offset="1" stop-color="#fff" stop-opacity="0"/></linearGradient><linearGradient id="linearGradient6036"><stop id="stop6038" offset="0" stop-color="#fff" stop-opacity="1"/><stop id="stop6040" offset="1" stop-color="#fff" stop-opacity="0"/></linearGradient><linearGradient id="aigrd2" x1="12.274" x2="35.391" y1="32.416" y2="14.203" gradientUnits="userSpaceOnUse"><stop id="stop3043" offset="0" stop-color="#fbfbfb" stop-opacity="1"/><stop id="stop3045" offset=".5" stop-color="#b6b6b6" stop-opacity="1"/><stop id="stop3047" offset="1" stop-color="#e4e4e4" stop-opacity="1"/></linearGradient><linearGradient id="aigrd1" x1="14.997" x2="32.511" y1="11.188" y2="34.307" gradientUnits="userSpaceOnUse"><stop id="stop3034" offset="0" stop-color="#ebebeb" stop-opacity="1"/><stop id="stop3036" offset=".5" stop-color="#fff" stop-opacity="1"/><stop id="stop3038" offset="1" stop-color="#ebebeb" stop-opacity="1"/></linearGradient><linearGradient id="linearGradient3487"><stop id="stop3489" offset="0" stop-color="#e6cde2" stop-opacity="1"/><stop id="stop3491" offset="1" stop-color="#e6cde2" stop-opacity="0"/></linearGradient><linearGradient id="linearGradient3495"><stop id="stop3497" offset="0" stop-color="#c1cbe4" stop-opacity="1"/><stop id="stop3499" offset="1" stop-color="#c1cbe4" stop-opacity="0"/></linearGradient><linearGradient id="linearGradient3503"><stop id="stop3505" offset="0" stop-color="#c4ebdd" stop-opacity="1"/><stop id="stop3507" offset="1" stop-color="#c4ebdd" stop-opacity="0"/></linearGradient><linearGradient id="linearGradient3511"><stop id="stop3513" offset="0" stop-color="#ebeec7" stop-opacity="1"/><stop id="stop3515" offset="1" stop-color="#ebeec7" stop-opacity="0"/></linearGradient><linearGradient id="linearGradient3519"><stop id="stop3521" offset="0" stop-color="#fcd9cd" stop-opacity="1"/><stop id="stop3523" offset="1" stop-color="#fcd9cd" stop-opacity="0"/></linearGradient><linearGradient id="linearGradient3896" x1="20.58" x2="24.274" y1="10.775" y2="9.862" gradientUnits="userSpaceOnUse" spreadMethod="reflect" xlink:href="#linearGradient3487"/><linearGradient id="linearGradient3898" x1="17.495" x2="21.047" y1="11.2" y2="9.796" gradientUnits="userSpaceOnUse" spreadMethod="reflect" xlink:href="#linearGradient3495"/><linearGradient id="linearGradient3900" x1="14.085" x2="16.994" y1="13.046" y2="10.732" gradientUnits="userSpaceOnUse" spreadMethod="reflect" xlink:href="#linearGradient3503"/><linearGradient id="linearGradient3902" x1="12.372" x2="14.609" y1="16.188" y2="13.462" gradientUnits="userSpaceOnUse" spreadMethod="reflect" xlink:href="#linearGradient3511"/><linearGradient id="linearGradient3904" x1="10.609" x2="9.73" y1="17.886" y2="20.613" gradientUnits="userSpaceOnUse" spreadMethod="reflect" xlink:href="#linearGradient3519"/><linearGradient id="linearGradient3906" x1="20.58" x2="24.274" y1="10.775" y2="9.862" gradientUnits="userSpaceOnUse" spreadMethod="reflect" xlink:href="#linearGradient3487"/><linearGradient id="linearGradient3908" x1="17.495" x2="21.047" y1="11.2" y2="9.796" gradientUnits="userSpaceOnUse" spreadMethod="reflect" xlink:href="#linearGradient3495"/><linearGradient id="linearGradient3910" x1="14.085" x2="16.994" y1="13.046" y2="10.732" gradientUnits="userSpaceOnUse" spreadMethod="reflect" xlink:href="#linearGradient3503"/><linearGradient id="linearGradient3912" x1="12.372" x2="14.609" y1="16.188" y2="13.462" gradientUnits="userSpaceOnUse" spreadMethod="reflect" xlink:href="#linearGradient3511"/><linearGradient id="linearGradient3914" x1="10.609" x2="9.73" y1="17.886" y2="20.613" gradientUnits="userSpaceOnUse" spreadMethod="reflect" xlink:href="#linearGradient3519"/><linearGradient id="linearGradient3918" x1="14.997" x2="32.511" y1="11.188" y2="34.307" gradientTransform="matrix(0.3999892,0,0,0.3999891,2.397699,3.7628089)" gradientUnits="userSpaceOnUse" xlink:href="#aigrd1"/><linearGradient id="linearGradient3920" x1="12.274" x2="35.391" y1="32.416" y2="14.203" gradientTransform="matrix(0.4285714,0,0,0.4285712,1.7147125,3.0995762)" gradientUnits="userSpaceOnUse" xlink:href="#aigrd2"/><linearGradient id="linearGradient3922" x1="10.502" x2="48.799" y1="3.61" y2="54.698" gradientTransform="matrix(0.328322,0,0,0.3283219,4.0067991,4.7914954)" gradientUnits="userSpaceOnUse" xlink:href="#linearGradient6036"/><linearGradient id="linearGradient3924" x1="28.703" x2="17.743" y1="31.495" y2="18.367" gradientUnits="userSpaceOnUse" xlink:href="#linearGradient6028"/><linearGradient id="linearGradient2916" x1="14.997" x2="32.511" y1="11.188" y2="34.307" gradientTransform="matrix(0.3999892,0,0,0.3999891,2.397699,3.7628089)" gradientUnits="userSpaceOnUse" xlink:href="#aigrd1"/><linearGradient id="linearGradient2918" x1="12.274" x2="35.391" y1="32.416" y2="14.203" gradientTransform="matrix(0.4285714,0,0,0.4285712,1.7147125,3.0995762)" gradientUnits="userSpaceOnUse" xlink:href="#aigrd2"/><linearGradient id="linearGradient2920" x1="10.502" x2="48.799" y1="3.61" y2="54.698" gradientTransform="matrix(0.328322,0,0,0.3283219,4.0067991,4.7914954)" gradientUnits="userSpaceOnUse" xlink:href="#linearGradient6036"/><linearGradient id="linearGradient2922" x1="28.703" x2="17.743" y1="31.495" y2="18.367" gradientUnits="userSpaceOnUse" xlink:href="#linearGradient6028"/><linearGradient id="linearGradient2924" x1="20.58" x2="24.274" y1="10.775" y2="9.862" gradientUnits="userSpaceOnUse" spreadMethod="reflect" xlink:href="#linearGradient3487"/><linearGradient id="linearGradient2926" x1="17.495" x2="21.047" y1="11.2" y2="9.796" gradientUnits="userSpaceOnUse" spreadMethod="reflect" xlink:href="#linearGradient3495"/><linearGradient id="linearGradient2928" x1="14.085" x2="16.994" y1="13.046" y2="10.732" gradientUnits="userSpaceOnUse" spreadMethod="reflect" xlink:href="#linearGradient3503"/><linearGradient id="linearGradient2930" x1="12.372" x2="14.609" y1="16.188" y2="13.462" gradientUnits="userSpaceOnUse" spreadMethod="reflect" xlink:href="#linearGradient3511"/><linearGradient id="linearGradient2932" x1="10.609" x2="9.73" y1="17.886" y2="20.613" gradientUnits="userSpaceOnUse" spreadMethod="reflect" xlink:href="#linearGradient3519"/><linearGradient id="linearGradient2934" x1="20.58" x2="24.274" y1="10.775" y2="9.862" gradientUnits="userSpaceOnUse" spreadMethod="reflect" xlink:href="#linearGradient3487"/><linearGradient id="linearGradient2936" x1="17.495" x2="21.047" y1="11.2" y2="9.796" gradientUnits="userSpaceOnUse" spreadMethod="reflect" xlink:href="#linearGradient3495"/><linearGradient id="linearGradient2938" x1="14.085" x2="16.994" y1="13.046" y2="10.732" gradientUnits="userSpaceOnUse" spreadMethod="reflect" xlink:href="#linearGradient3503"/><linearGradient id="linearGradient2940" x1="12.372" x2="14.609" y1="16.188" y2="13.462" gradientUnits="userSpaceOnUse" spreadMethod="reflect" xlink:href="#linearGradient3511"/><linearGradient id="linearGradient2942" x1="10.609" x2="9.73" y1="17.886" y2="20.613" gradientUnits="userSpaceOnUse" spreadMethod="reflect" xlink:href="#linearGradient3519"/><linearGradient id="linearGradient2982" x1="14.997" x2="32.511" y1="11.188" y2="34.307" gradientTransform="matrix(0.3999892,0,0,0.3999891,2.397699,3.7628089)" gradientUnits="userSpaceOnUse" xlink:href="#aigrd1"/><linearGradient id="linearGradient2984" x1="12.274" x2="35.391" y1="32.416" y2="14.203" gradientTransform="matrix(0.4285714,0,0,0.4285712,1.7147125,3.0995762)" gradientUnits="userSpaceOnUse" xlink:href="#aigrd2"/><linearGradient id="linearGradient2986" x1="10.502" x2="48.799" y1="3.61" y2="54.698" gradientTransform="matrix(0.328322,0,0,0.3283219,4.0067991,4.7914954)" gradientUnits="userSpaceOnUse" xlink:href="#linearGradient6036"/><linearGradient id="linearGradient2988" x1="28.703" x2="17.743" y1="31.495" y2="18.367" gradientUnits="userSpaceOnUse" xlink:href="#linearGradient6028"/><linearGradient id="linearGradient2990" x1="20.58" x2="24.274" y1="10.775" y2="9.862" gradientUnits="userSpaceOnUse" spreadMethod="reflect" xlink:href="#linearGradient3487"/><linearGradient id="linearGradient2992" x1="17.495" x2="21.047" y1="11.2" y2="9.796" gradientUnits="userSpaceOnUse" spreadMethod="reflect" xlink:href="#linearGradient3495"/><linearGradient id="linearGradient2994" x1="14.085" x2="16.994" y1="13.046" y2="10.732" gradientUnits="userSpaceOnUse" spreadMethod="reflect" xlink:href="#linearGradient3503"/><linearGradient id="linearGradient2996" x1="12.372" x2="14.609" y1="16.188" y2="13.462" gradientUnits="userSpaceOnUse" spreadMethod="reflect" xlink:href="#linearGradient3511"/><linearGradient id="linearGradient2998" x1="10.609" x2="9.73" y1="17.886" y2="20.613" gradientUnits="userSpaceOnUse" spreadMethod="reflect" xlink:href="#linearGradient3519"/><linearGradient id="linearGradient3000" x1="20.58" x2="24.274" y1="10.775" y2="9.862" gradientUnits="userSpaceOnUse" spreadMethod="reflect" xlink:href="#linearGradient3487"/><linearGradient id="linearGradient3002" x1="17.495" x2="21.047" y1="11.2" y2="9.796" gradientUnits="userSpaceOnUse" spreadMethod="reflect" xlink:href="#linearGradient3495"/><linearGradient id="linearGradient3004" x1="14.085" x2="16.994" y1="13.046" y2="10.732" gradientUnits="userSpaceOnUse" spreadMethod="reflect" xlink:href="#linearGradient3503"/><linearGradient id="linearGradient3006" x1="12.372" x2="14.609" y1="16.188" y2="13.462" gradientUnits="userSpaceOnUse" spreadMethod="reflect" xlink:href="#linearGradient3511"/><linearGradient id="linearGradient3008" x1="10.609" x2="9.73" y1="17.886" y2="20.613" gradientUnits="userSpaceOnUse" spreadMethod="reflect" xlink:href="#linearGradient3519"/></defs><g id="g2944" transform="translate(5.9999992,1.3807907e-6)"><g id="g2946" display="inline" transform="translate(-4.0004258,-4.9995745)"><path id="path2948" fill="url(#linearGradient2982)" fill-rule="nonzero" stroke="none" d="m 11.997441,6.0027482 c -3.8798961,0 -6.9998116,3.1199161 -6.9998116,6.9998118 0,3.879895 3.1199155,6.99981 6.9998116,6.99981 3.879895,0 6.999809,-3.119915 6.999809,-6.99981 0,-3.8798957 -3.119914,-6.9998118 -6.999809,-6.9998118 l 0,0 z m 0,8.6797658 c -0.919976,0 -1.679956,-0.759979 -1.679956,-1.679954 0,-0.919976 0.75998,-1.679956 1.679956,-1.679956 0.919976,0 1.679955,0.75998 1.679955,1.679956 0,0.919975 -0.759979,1.679954 -1.679955,1.679954 z"/><path id="path2950" fill="url(#linearGradient2984)" fill-rule="nonzero" stroke="gray" stroke-miterlimit="4" stroke-opacity="1" stroke-width="1" d="m 12.000426,5.4995761 c -4.1571429,0 -7.4999993,3.342857 -7.4999993,7.4999989 0,4.157142 3.3428564,7.499998 7.4999993,7.499998 4.157142,0 7.499999,-3.342856 7.499999,-7.499998 0,-4.1571419 -3.342857,-7.4999989 -7.499999,-7.4999989 l 0,0 z m 0,9.2999999 c -0.985715,0 -1.8,-0.814286 -1.8,-1.800001 0,-0.985714 0.814285,-1.8 1.8,-1.8 0.985714,0 1.799998,0.814286 1.799998,1.8 0,0.985715 -0.814284,1.800001 -1.799998,1.800001 z"/><path id="path2952" fill="#eeeeec" fill-rule="nonzero" stroke="none" d="m 12.00064,9.084399 c -2.1862784,0 -3.9149638,1.779529 -3.9149638,3.914962 0,2.186278 1.7795295,3.914964 3.9149638,3.914964 2.186274,0 3.914962,-1.779529 3.914962,-3.914964 0,-2.186277 -1.779531,-3.914962 -3.914962,-3.914962 l 0,0 z m 0,6.050397 c -1.169405,0 -2.1354343,-0.966031 -2.1354343,-2.135435 0,-1.169403 0.9660293,-2.135433 2.1354343,-2.135433 1.169401,0 2.135431,0.96603 2.135431,2.135433 0,1.169404 -0.96603,2.135435 -2.135431,2.135435 z" opacity=".511"/><path id="path2954" fill="none" stroke="url(#linearGradient2986)" stroke-miterlimit="4" stroke-opacity="1" stroke-width="1" d="m 12.000453,6.4995459 c -3.6028529,0 -6.4999954,2.8971428 -6.4999954,6.5000001 0,3.602856 2.8971425,6.499997 6.4999954,6.499997 3.602859,0 6.500002,-2.897141 6.500002,-6.499997 0,-3.6028573 -2.897143,-6.5000001 -6.500002,-6.5000001 l 0,0 z" opacity=".546"/><path id="path2956" fill="none" stroke="url(#linearGradient2988)" stroke-dashoffset="0" stroke-linecap="butt" stroke-linejoin="miter" stroke-miterlimit="4" stroke-opacity="1" stroke-width="2.292" d="m 30.405591,24.930641 a 6.098796,6.098796 0 1 1 -12.197592,0 6.098796,6.098796 0 1 1 12.197592,0 z" display="inline" opacity=".672" overflow="visible" transform="matrix(0.4060353,0,0,0.4060353,2.1478352,2.8832018)" visibility="visible" style="marker:none"/></g></g><g id="g2958" transform="matrix(0.34867079,0,0,0.34867079,5.8130326,-0.48725432)"><path id="path2960" fill="url(#linearGradient2990)" fill-opacity="1" fill-rule="nonzero" stroke="none" d="M 15.856928,5.7307748 20.625,16.34375 C 21.660403,15.885186 22.795334,15.625 24,15.625 c 0.03206,0 0.06178,-3.6e-4 0.09375,0 L 24.10801,4.0047512 c -2.94215,-0.070687 -5.543041,0.6572865 -8.251083,1.7260236 l 10e-7,0 z" transform="matrix(0.9996011,0.02824295,-0.02824295,0.9996011,0.6924114,-0.6708346)"/><path id="path2962" fill="url(#linearGradient2992)" fill-opacity="1" fill-rule="nonzero" stroke="none" d="m 12.121471,7.9060109 6.931026,9.3601041 c 0.913109,-0.669755 1.965938,-1.167064 3.142629,-1.425169 0.03132,-0.0069 0.06026,-0.01359 0.09157,-0.02009 L 19.857174,4.426276 c -2.888973,0.5613244 -5.31953,1.8556038 -7.735703,3.4797349 l 0,0 z"/><path id="path2964" fill="url(#linearGradient2994)" fill-opacity="1" fill-rule="nonzero" stroke="none" d="m 8.2523933,11.646535 9.2137237,7.155818 c 0.70865,-0.883264 1.596891,-1.636119 2.666685,-2.18998 0.02847,-0.01474 0.05469,-0.02872 0.08325,-0.0431 L 14.86585,6.2506132 C 12.220599,7.5405321 10.165881,9.452393 8.2523933,11.646535 z"/><path id="path2966" fill="url(#linearGradient2996)" fill-opacity="1" fill-rule="nonzero" stroke="none" d="m 5.6328855,16.073974 c 7.1748065,2.242248 7.8502625,7.031463 12.7767855,1.754127 L 10.499985,9.1321388 C 8.2787249,11.062747 6.9132871,13.459349 5.6328855,16.073974 z"/><path id="path2968" fill="url(#linearGradient2998)" fill-opacity="1" fill-rule="nonzero" stroke="none" d="M 7.155289,13.193173 C 5.9722117,14.945185 5.2475768,16.829547 4.6301929,18.837116 L 15.96875,21.8125 C 16.184264,21.049497 16.486796,20.297733 16.9375,19.59375 16.95479,19.56675 16.98246,19.52673 17,19.5 L 7.155289,13.193173 z"/></g><g id="g2970" transform="matrix(-0.34867079,0,0,-0.34867079,22.54923,16.245747)"><path id="path2972" fill="url(#linearGradient3000)" fill-opacity="1" fill-rule="nonzero" stroke="none" d="M 15.856928,5.7307748 20.625,16.34375 C 21.660403,15.885186 22.795334,15.625 24,15.625 c 0.03206,0 0.06178,-3.6e-4 0.09375,0 L 24.10801,4.0047512 c -2.94215,-0.070687 -5.543041,0.6572865 -8.251083,1.7260236 l 10e-7,0 z" transform="matrix(0.9996011,0.02824295,-0.02824295,0.9996011,0.6924114,-0.6708346)"/><path id="path2974" fill="url(#linearGradient3002)" fill-opacity="1" fill-rule="nonzero" stroke="none" d="m 12.121471,7.9060109 6.931026,9.3601041 c 0.913109,-0.669755 1.965938,-1.167064 3.142629,-1.425169 0.03132,-0.0069 0.06026,-0.01359 0.09157,-0.02009 L 19.857174,4.426276 c -2.888973,0.5613244 -5.31953,1.8556038 -7.735703,3.4797349 l 0,0 z"/><path id="path2976" fill="url(#linearGradient3004)" fill-opacity="1" fill-rule="nonzero" stroke="none" d="m 8.2523933,11.646535 9.2137237,7.155818 c 0.70865,-0.883264 1.596891,-1.636119 2.666685,-2.18998 0.02847,-0.01474 0.05469,-0.02872 0.08325,-0.0431 L 14.86585,6.2506132 C 12.220599,7.5405321 10.165881,9.452393 8.2523933,11.646535 z"/><path id="path2978" fill="url(#linearGradient3006)" fill-opacity="1" fill-rule="nonzero" stroke="none" d="m 5.6328855,16.073974 c 7.1748065,2.242248 7.8502625,7.031463 12.7767855,1.754127 L 10.499985,9.1321388 C 8.2787249,11.062747 6.9132871,13.459349 5.6328855,16.073974 z"/><path id="path2980" fill="url(#linearGradient3008)" fill-opacity="1" fill-rule="nonzero" stroke="none" d="M 7.155289,13.193173 C 5.9722117,14.945185 5.2475768,16.829547 4.6301929,18.837116 L 15.96875,21.8125 C 16.184264,21.049497 16.486796,20.297733 16.9375,19.59375 16.95479,19.56675 16.98246,19.52673 17,19.5 L 7.155289,13.193173 z"/></g><g id="g2878" transform="translate(2.9999992,3.0000014)"><g id="g2880" display="inline" transform="translate(-4.0004258,-4.9995745)"><path id="path2882" fill="url(#linearGradient2916)" fill-rule="nonzero" stroke="none" d="m 11.997441,6.0027482 c -3.8798961,0 -6.9998116,3.1199161 -6.9998116,6.9998118 0,3.879895 3.1199155,6.99981 6.9998116,6.99981 3.879895,0 6.999809,-3.119915 6.999809,-6.99981 0,-3.8798957 -3.119914,-6.9998118 -6.999809,-6.9998118 l 0,0 z m 0,8.6797658 c -0.919976,0 -1.679956,-0.759979 -1.679956,-1.679954 0,-0.919976 0.75998,-1.679956 1.679956,-1.679956 0.919976,0 1.679955,0.75998 1.679955,1.679956 0,0.919975 -0.759979,1.679954 -1.679955,1.679954 z"/><path id="path2884" fill="url(#linearGradient2918)" fill-rule="nonzero" stroke="gray" stroke-miterlimit="4" stroke-opacity="1" stroke-width="1" d="m 12.000426,5.4995761 c -4.1571429,0 -7.4999993,3.342857 -7.4999993,7.4999989 0,4.157142 3.3428564,7.499998 7.4999993,7.499998 4.157142,0 7.499999,-3.342856 7.499999,-7.499998 0,-4.1571419 -3.342857,-7.4999989 -7.499999,-7.4999989 l 0,0 z m 0,9.2999999 c -0.985715,0 -1.8,-0.814286 -1.8,-1.800001 0,-0.985714 0.814285,-1.8 1.8,-1.8 0.985714,0 1.799998,0.814286 1.799998,1.8 0,0.985715 -0.814284,1.800001 -1.799998,1.800001 z"/><path id="path2886" fill="#eeeeec" fill-rule="nonzero" stroke="none" d="m 12.00064,9.084399 c -2.1862784,0 -3.9149638,1.779529 -3.9149638,3.914962 0,2.186278 1.7795295,3.914964 3.9149638,3.914964 2.186274,0 3.914962,-1.779529 3.914962,-3.914964 0,-2.186277 -1.779531,-3.914962 -3.914962,-3.914962 l 0,0 z m 0,6.050397 c -1.169405,0 -2.1354343,-0.966031 -2.1354343,-2.135435 0,-1.169403 0.9660293,-2.135433 2.1354343,-2.135433 1.169401,0 2.135431,0.96603 2.135431,2.135433 0,1.169404 -0.96603,2.135435 -2.135431,2.135435 z" opacity=".511"/><path id="path2888" fill="none" stroke="url(#linearGradient2920)" stroke-miterlimit="4" stroke-opacity="1" stroke-width="1" d="m 12.000453,6.4995459 c -3.6028529,0 -6.4999954,2.8971428 -6.4999954,6.5000001 0,3.602856 2.8971425,6.499997 6.4999954,6.499997 3.602859,0 6.500002,-2.897141 6.500002,-6.499997 0,-3.6028573 -2.897143,-6.5000001 -6.500002,-6.5000001 l 0,0 z" opacity=".546"/><path id="path2890" fill="none" stroke="url(#linearGradient2922)" stroke-dashoffset="0" stroke-linecap="butt" stroke-linejoin="miter" stroke-miterlimit="4" stroke-opacity="1" stroke-width="2.292" d="m 30.405591,24.930641 a 6.098796,6.098796 0 1 1 -12.197592,0 6.098796,6.098796 0 1 1 12.197592,0 z" display="inline" opacity=".672" overflow="visible" transform="matrix(0.4060353,0,0,0.4060353,2.1478352,2.8832018)" visibility="visible" style="marker:none"/></g></g><g id="g2892" transform="matrix(0.34867079,0,0,0.34867079,2.8130326,2.5127457)"><path id="path2894" fill="url(#linearGradient2924)" fill-opacity="1" fill-rule="nonzero" stroke="none" d="M 15.856928,5.7307748 20.625,16.34375 C 21.660403,15.885186 22.795334,15.625 24,15.625 c 0.03206,0 0.06178,-3.6e-4 0.09375,0 L 24.10801,4.0047512 c -2.94215,-0.070687 -5.543041,0.6572865 -8.251083,1.7260236 l 10e-7,0 z" transform="matrix(0.9996011,0.02824295,-0.02824295,0.9996011,0.6924114,-0.6708346)"/><path id="path2896" fill="url(#linearGradient2926)" fill-opacity="1" fill-rule="nonzero" stroke="none" d="m 12.121471,7.9060109 6.931026,9.3601041 c 0.913109,-0.669755 1.965938,-1.167064 3.142629,-1.425169 0.03132,-0.0069 0.06026,-0.01359 0.09157,-0.02009 L 19.857174,4.426276 c -2.888973,0.5613244 -5.31953,1.8556038 -7.735703,3.4797349 l 0,0 z"/><path id="path2898" fill="url(#linearGradient2928)" fill-opacity="1" fill-rule="nonzero" stroke="none" d="m 8.2523933,11.646535 9.2137237,7.155818 c 0.70865,-0.883264 1.596891,-1.636119 2.666685,-2.18998 0.02847,-0.01474 0.05469,-0.02872 0.08325,-0.0431 L 14.86585,6.2506132 C 12.220599,7.5405321 10.165881,9.452393 8.2523933,11.646535 z"/><path id="path2900" fill="url(#linearGradient2930)" fill-opacity="1" fill-rule="nonzero" stroke="none" d="m 5.6328855,16.073974 c 7.1748065,2.242248 7.8502625,7.031463 12.7767855,1.754127 L 10.499985,9.1321388 C 8.2787249,11.062747 6.9132871,13.459349 5.6328855,16.073974 z"/><path id="path2902" fill="url(#linearGradient2932)" fill-opacity="1" fill-rule="nonzero" stroke="none" d="M 7.155289,13.193173 C 5.9722117,14.945185 5.2475768,16.829547 4.6301929,18.837116 L 15.96875,21.8125 C 16.184264,21.049497 16.486796,20.297733 16.9375,19.59375 16.95479,19.56675 16.98246,19.52673 17,19.5 L 7.155289,13.193173 z"/></g><g id="g2904" transform="matrix(-0.34867079,0,0,-0.34867079,19.54923,19.245747)"><path id="path2906" fill="url(#linearGradient2934)" fill-opacity="1" fill-rule="nonzero" stroke="none" d="M 15.856928,5.7307748 20.625,16.34375 C 21.660403,15.885186 22.795334,15.625 24,15.625 c 0.03206,0 0.06178,-3.6e-4 0.09375,0 L 24.10801,4.0047512 c -2.94215,-0.070687 -5.543041,0.6572865 -8.251083,1.7260236 l 10e-7,0 z" transform="matrix(0.9996011,0.02824295,-0.02824295,0.9996011,0.6924114,-0.6708346)"/><path id="path2908" fill="url(#linearGradient2936)" fill-opacity="1" fill-rule="nonzero" stroke="none" d="m 12.121471,7.9060109 6.931026,9.3601041 c 0.913109,-0.669755 1.965938,-1.167064 3.142629,-1.425169 0.03132,-0.0069 0.06026,-0.01359 0.09157,-0.02009 L 19.857174,4.426276 c -2.888973,0.5613244 -5.31953,1.8556038 -7.735703,3.4797349 l 0,0 z"/><path id="path2910" fill="url(#linearGradient2938)" fill-opacity="1" fill-rule="nonzero" stroke="none" d="m 8.2523933,11.646535 9.2137237,7.155818 c 0.70865,-0.883264 1.596891,-1.636119 2.666685,-2.18998 0.02847,-0.01474 0.05469,-0.02872 0.08325,-0.0431 L 14.86585,6.2506132 C 12.220599,7.5405321 10.165881,9.452393 8.2523933,11.646535 z"/><path id="path2912" fill="url(#linearGradient2940)" fill-opacity="1" fill-rule="nonzero" stroke="none" d="m 5.6328855,16.073974 c 7.1748065,2.242248 7.8502625,7.031463 12.7767855,1.754127 L 10.499985,9.1321388 C 8.2787249,11.062747 6.9132871,13.459349 5.6328855,16.073974 z"/><path id="path2914" fill="url(#linearGradient2942)" fill-opacity="1" fill-rule="nonzero" stroke="none" d="M 7.155289,13.193173 C 5.9722117,14.945185 5.2475768,16.829547 4.6301929,18.837116 L 15.96875,21.8125 C 16.184264,21.049497 16.486796,20.297733 16.9375,19.59375 16.95479,19.56675 16.98246,19.52673 17,19.5 L 7.155289,13.193173 z"/></g><g id="layer1" transform="translate(0,6)"><g id="g3325" display="inline" transform="translate(-4.0004258,-4.9995745)"><path id="path3040" fill="url(#linearGradient3918)" fill-rule="nonzero" stroke="none" d="m 11.997441,6.0027482 c -3.8798961,0 -6.9998116,3.1199161 -6.9998116,6.9998118 0,3.879895 3.1199155,6.99981 6.9998116,6.99981 3.879895,0 6.999809,-3.119915 6.999809,-6.99981 0,-3.8798957 -3.119914,-6.9998118 -6.999809,-6.9998118 l 0,0 z m 0,8.6797658 c -0.919976,0 -1.679956,-0.759979 -1.679956,-1.679954 0,-0.919976 0.75998,-1.679956 1.679956,-1.679956 0.919976,0 1.679955,0.75998 1.679955,1.679956 0,0.919975 -0.759979,1.679954 -1.679955,1.679954 z"/><path id="path3049" fill="url(#linearGradient3920)" fill-rule="nonzero" stroke="gray" stroke-miterlimit="4" stroke-opacity="1" stroke-width="1" d="m 12.000426,5.4995761 c -4.1571429,0 -7.4999993,3.342857 -7.4999993,7.4999989 0,4.157142 3.3428564,7.499998 7.4999993,7.499998 4.157142,0 7.499999,-3.342856 7.499999,-7.499998 0,-4.1571419 -3.342857,-7.4999989 -7.499999,-7.4999989 l 0,0 z m 0,9.2999999 c -0.985715,0 -1.8,-0.814286 -1.8,-1.800001 0,-0.985714 0.814285,-1.8 1.8,-1.8 0.985714,0 1.799998,0.814286 1.799998,1.8 0,0.985715 -0.814284,1.800001 -1.799998,1.800001 z"/><path id="path3051" fill="#eeeeec" fill-rule="nonzero" stroke="none" d="m 12.00064,9.084399 c -2.1862784,0 -3.9149638,1.779529 -3.9149638,3.914962 0,2.186278 1.7795295,3.914964 3.9149638,3.914964 2.186274,0 3.914962,-1.779529 3.914962,-3.914964 0,-2.186277 -1.779531,-3.914962 -3.914962,-3.914962 l 0,0 z m 0,6.050397 c -1.169405,0 -2.1354343,-0.966031 -2.1354343,-2.135435 0,-1.169403 0.9660293,-2.135433 2.1354343,-2.135433 1.169401,0 2.135431,0.96603 2.135431,2.135433 0,1.169404 -0.96603,2.135435 -2.135431,2.135435 z" opacity=".511"/><path id="path5264" fill="none" stroke="url(#linearGradient3922)" stroke-miterlimit="4" stroke-opacity="1" stroke-width="1" d="m 12.000453,6.4995459 c -3.6028529,0 -6.4999954,2.8971428 -6.4999954,6.5000001 0,3.602856 2.8971425,6.499997 6.4999954,6.499997 3.602859,0 6.500002,-2.897141 6.500002,-6.499997 0,-3.6028573 -2.897143,-6.5000001 -6.500002,-6.5000001 l 0,0 z" opacity=".546"/><path id="path6026" fill="none" stroke="url(#linearGradient3924)" stroke-dashoffset="0" stroke-linecap="butt" stroke-linejoin="miter" stroke-miterlimit="4" stroke-opacity="1" stroke-width="2.292" d="m 30.405591,24.930641 a 6.098796,6.098796 0 1 1 -12.197592,0 6.098796,6.098796 0 1 1 12.197592,0 z" display="inline" opacity=".672" overflow="visible" transform="matrix(0.4060353,0,0,0.4060353,2.1478352,2.8832018)" visibility="visible" style="marker:none"/></g></g><g id="g2458" transform="matrix(0.34867079,0,0,0.34867079,-0.18696658,5.5127443)"><path id="path2460" fill="url(#linearGradient3896)" fill-opacity="1" fill-rule="nonzero" stroke="none" d="M 15.856928,5.7307748 20.625,16.34375 C 21.660403,15.885186 22.795334,15.625 24,15.625 c 0.03206,0 0.06178,-3.6e-4 0.09375,0 L 24.10801,4.0047512 c -2.94215,-0.070687 -5.543041,0.6572865 -8.251083,1.7260236 l 10e-7,0 z" transform="matrix(0.9996011,0.02824295,-0.02824295,0.9996011,0.6924114,-0.6708346)"/><path id="path2462" fill="url(#linearGradient3898)" fill-opacity="1" fill-rule="nonzero" stroke="none" d="m 12.121471,7.9060109 6.931026,9.3601041 c 0.913109,-0.669755 1.965938,-1.167064 3.142629,-1.425169 0.03132,-0.0069 0.06026,-0.01359 0.09157,-0.02009 L 19.857174,4.426276 c -2.888973,0.5613244 -5.31953,1.8556038 -7.735703,3.4797349 l 0,0 z"/><path id="path2464" fill="url(#linearGradient3900)" fill-opacity="1" fill-rule="nonzero" stroke="none" d="m 8.2523933,11.646535 9.2137237,7.155818 c 0.70865,-0.883264 1.596891,-1.636119 2.666685,-2.18998 0.02847,-0.01474 0.05469,-0.02872 0.08325,-0.0431 L 14.86585,6.2506132 C 12.220599,7.5405321 10.165881,9.452393 8.2523933,11.646535 z"/><path id="path2466" fill="url(#linearGradient3902)" fill-opacity="1" fill-rule="nonzero" stroke="none" d="m 5.6328855,16.073974 c 7.1748065,2.242248 7.8502625,7.031463 12.7767855,1.754127 L 10.499985,9.1321388 C 8.2787249,11.062747 6.9132871,13.459349 5.6328855,16.073974 z"/><path id="path2468" fill="url(#linearGradient3904)" fill-opacity="1" fill-rule="nonzero" stroke="none" d="M 7.155289,13.193173 C 5.9722117,14.945185 5.2475768,16.829547 4.6301929,18.837116 L 15.96875,21.8125 C 16.184264,21.049497 16.486796,20.297733 16.9375,19.59375 16.95479,19.56675 16.98246,19.52673 17,19.5 L 7.155289,13.193173 z"/></g><g id="g2472" transform="matrix(-0.34867079,0,0,-0.34867079,16.549231,22.245746)"><path id="path2475" fill="url(#linearGradient3906)" fill-opacity="1" fill-rule="nonzero" stroke="none" d="M 15.856928,5.7307748 20.625,16.34375 C 21.660403,15.885186 22.795334,15.625 24,15.625 c 0.03206,0 0.06178,-3.6e-4 0.09375,0 L 24.10801,4.0047512 c -2.94215,-0.070687 -5.543041,0.6572865 -8.251083,1.7260236 l 10e-7,0 z" transform="matrix(0.9996011,0.02824295,-0.02824295,0.9996011,0.6924114,-0.6708346)"/><path id="path2477" fill="url(#linearGradient3908)" fill-opacity="1" fill-rule="nonzero" stroke="none" d="m 12.121471,7.9060109 6.931026,9.3601041 c 0.913109,-0.669755 1.965938,-1.167064 3.142629,-1.425169 0.03132,-0.0069 0.06026,-0.01359 0.09157,-0.02009 L 19.857174,4.426276 c -2.888973,0.5613244 -5.31953,1.8556038 -7.735703,3.4797349 l 0,0 z"/><path id="path2479" fill="url(#linearGradient3910)" fill-opacity="1" fill-rule="nonzero" stroke="none" d="m 8.2523933,11.646535 9.2137237,7.155818 c 0.70865,-0.883264 1.596891,-1.636119 2.666685,-2.18998 0.02847,-0.01474 0.05469,-0.02872 0.08325,-0.0431 L 14.86585,6.2506132 C 12.220599,7.5405321 10.165881,9.452393 8.2523933,11.646535 z"/><path id="path2481" fill="url(#linearGradient3912)" fill-opacity="1" fill-rule="nonzero" stroke="none" d="m 5.6328855,16.073974 c 7.1748065,2.242248 7.8502625,7.031463 12.7767855,1.754127 L 10.499985,9.1321388 C 8.2787249,11.062747 6.9132871,13.459349 5.6328855,16.073974 z"/><path id="path2483" fill="url(#linearGradient3914)" fill-opacity="1" fill-rule="nonzero" stroke="none" d="M 7.155289,13.193173 C 5.9722117,14.945185 5.2475768,16.829547 4.6301929,18.837116 L 15.96875,21.8125 C 16.184264,21.049497 16.486796,20.297733 16.9375,19.59375 16.95479,19.56675 16.98246,19.52673 17,19.5 L 7.155289,13.193173 z"/></g></svg>