<svg xmlns="http://www.w3.org/2000/svg" xmlns:svg="http://www.w3.org/2000/svg" xmlns:xlink="http://www.w3.org/1999/xlink" id="svg2" width="22" height="22" version="1.0"><defs id="defs4"><linearGradient id="linearGradient8265-821-176-38-919-66-249"><stop id="stop2687" offset="0" stop-color="#fff" stop-opacity="1"/><stop id="stop2689" offset="1" stop-color="#fff" stop-opacity="0"/></linearGradient><linearGradient id="linearGradient3526" x1="18.031" x2="20.055" y1="16.408" y2="24.628" gradientUnits="userSpaceOnUse" xlink:href="#linearGradient8265-821-176-38-919-66-249"/><linearGradient id="linearGradient3752"><stop id="stop3754" offset="0" stop-color="#fff" stop-opacity="1"/><stop id="stop3760" offset=".848" stop-color="#fff" stop-opacity="1"/><stop id="stop3756" offset="1" stop-color="#fff" stop-opacity="0"/></linearGradient><radialGradient id="radialGradient3524" cx="4.02" cy="5.593" r="10.273" fx="4.02" fy="5.593" gradientTransform="matrix(-1.5292361e-2,1.2169565,-1.6351743,-1.8897185e-2,-6.5229407,-19.500936)" gradientUnits="userSpaceOnUse" xlink:href="#linearGradient3752"/><linearGradient id="linearGradient3390"><stop id="stop3392" offset="0" stop-color="#425e7b" stop-opacity="1"/><stop id="stop3394" offset="1" stop-color="#7a91a7" stop-opacity="1"/></linearGradient><linearGradient id="linearGradient3522" x1="15.669" x2="3.077" y1="16.979" y2="4.252" gradientTransform="matrix(0.9052018,0,0,0.8680849,-19.712254,-19.883974)" gradientUnits="userSpaceOnUse" xlink:href="#linearGradient3390"/><linearGradient id="linearGradient7012-661-145-733-759-865-745"><stop id="stop2699" offset="0" stop-color="#9cbbd9" stop-opacity="1"/><stop id="stop2701" offset="1" stop-color="#5c82ab" stop-opacity="1"/></linearGradient><radialGradient id="radialGradient3520" cx="8.233" cy="8.478" r="9.999" fx="8.233" fy="8.478" gradientTransform="matrix(1.2637216,1.6454755e-8,-1.1140231e-8,0.8555673,-21.653225,-19.713096)" gradientUnits="userSpaceOnUse" xlink:href="#linearGradient7012-661-145-733-759-865-745"/><linearGradient id="linearGradient5157"><stop id="stop5159" offset="0" stop-color="#c1c1c1" stop-opacity="1"/><stop id="stop5161" offset="1" stop-color="#909090" stop-opacity="1"/></linearGradient><linearGradient id="linearGradient3518" x1="9.876" x2="9.876" y1="2.601" y2="23.062" gradientTransform="matrix(0.9101563,0,0,0.8985549,-19.403508,-21.963997)" gradientUnits="userSpaceOnUse" xlink:href="#linearGradient5157"/><linearGradient id="linearGradient11111"><stop id="stop11113" offset="0" stop-color="#fff" stop-opacity="1"/><stop id="stop11115" offset=".91" stop-color="#cdcdcd" stop-opacity="1"/><stop id="stop11117" offset="1" stop-color="#a1a1a1" stop-opacity="1"/></linearGradient><linearGradient id="linearGradient3516" x1="-28.531" x2="-28.531" y1="17.956" y2="37.503" gradientTransform="matrix(0.9101563,0,0,0.8985549,11.885849,-34.99423)" gradientUnits="userSpaceOnUse" xlink:href="#linearGradient11111"/><radialGradient id="radialGradient3514" cx="605.714" cy="486.648" r="117.143" fx="605.714" fy="486.648" gradientTransform="matrix(-2.774389,0,0,1.969706,112.7623,-872.8854)" gradientUnits="userSpaceOnUse" xlink:href="#linearGradient5060"/><linearGradient id="linearGradient5060"><stop id="stop5062" offset="0" stop-color="#000" stop-opacity="1"/><stop id="stop5064" offset="1" stop-color="#000" stop-opacity="0"/></linearGradient><radialGradient id="radialGradient3512" cx="605.714" cy="486.648" r="117.143" fx="605.714" fy="486.648" gradientTransform="matrix(2.774389,0,0,1.969706,-1891.633,-872.8854)" gradientUnits="userSpaceOnUse" xlink:href="#linearGradient5060"/><linearGradient id="linearGradient5048"><stop id="stop5050" offset="0" stop-color="#000" stop-opacity="0"/><stop id="stop5056" offset=".5" stop-color="#000" stop-opacity="1"/><stop id="stop5052" offset="1" stop-color="#000" stop-opacity="0"/></linearGradient><linearGradient id="linearGradient3510" x1="302.857" x2="302.857" y1="366.648" y2="609.505" gradientTransform="matrix(2.774389,0,0,1.969706,-1892.179,-872.8854)" gradientUnits="userSpaceOnUse" xlink:href="#linearGradient5048"/></defs><metadata id="metadata7"/><g id="layer1"><g id="g3499" transform="translate(19.481928,22.192735)"><g id="g3430" stroke-dasharray="none" stroke-miterlimit="4" stroke-width="1.883" transform="matrix(0.4968783,0,0,0.4693778,-20.315517,-22.51333)"><g id="g3432" stroke-dasharray="none" stroke-miterlimit="4" stroke-width="104.962" display="inline" transform="matrix(2.165152e-2,0,0,1.485743e-2,43.0076,42.68539)"><rect id="rect3434" width="1339.633" height="478.357" x="-1559.252" y="-150.697" fill="url(#linearGradient3510)" fill-opacity="1" fill-rule="nonzero" stroke="none" stroke-dasharray="none" stroke-dashoffset="0" stroke-linecap="round" stroke-linejoin="miter" stroke-miterlimit="4" stroke-opacity="1" stroke-width="104.962" marker-end="none" marker-mid="none" marker-start="none" display="inline" opacity=".402" overflow="visible" visibility="visible" style="marker:none"/><path id="path3436" fill="url(#radialGradient3512)" fill-opacity="1" fill-rule="nonzero" stroke="none" stroke-dasharray="none" stroke-dashoffset="0" stroke-linecap="round" stroke-linejoin="miter" stroke-miterlimit="4" stroke-opacity="1" stroke-width="104.962" marker-end="none" marker-mid="none" marker-start="none" d="M -219.61876,-150.68038 C -219.61876,-150.68038 -219.61876,327.65041 -219.61876,327.65041 C -76.744594,328.55086 125.78146,220.48075 125.78138,88.454235 C 125.78138,-43.572302 -33.655436,-150.68036 -219.61876,-150.68038 z" display="inline" opacity=".402" overflow="visible" visibility="visible" style="marker:none"/><path id="path3438" fill="url(#radialGradient3514)" fill-opacity="1" fill-rule="nonzero" stroke="none" stroke-dasharray="none" stroke-dashoffset="0" stroke-linecap="round" stroke-linejoin="miter" stroke-miterlimit="4" stroke-opacity="1" stroke-width="104.962" marker-end="none" marker-mid="none" marker-start="none" d="M -1559.2523,-150.68038 C -1559.2523,-150.68038 -1559.2523,327.65041 -1559.2523,327.65041 C -1702.1265,328.55086 -1904.6525,220.48075 -1904.6525,88.454235 C -1904.6525,-43.572302 -1745.2157,-150.68036 -1559.2523,-150.68038 z" display="inline" opacity=".402" overflow="visible" visibility="visible" style="marker:none"/></g></g><path id="path3440" fill="url(#linearGradient3516)" fill-opacity="1" stroke="url(#linearGradient3518)" stroke-dasharray="none" stroke-linecap="round" stroke-linejoin="round" stroke-miterlimit="4" stroke-opacity="1" stroke-width="1.011" d="M -16.839971,-19.687235 C -16.917825,-19.687235 -16.984567,-19.603897 -16.984567,-19.517819 L -16.984567,-17.671319 L -18.773967,-17.671319 C -18.871121,-17.671319 -18.947481,-17.586081 -18.947481,-17.501903 C -18.941226,-12.704518 -18.97147,-7.9072074 -18.9764,-3.1098344 C -18.949929,-2.3055954 -18.487427,-1.7573814 -18.166666,-1.7545064 C -17.244918,-1.7462434 -17.675844,-1.7581264 -17.212335,-1.7545064 C -11.323321,-1.7689714 -4.8533981,-1.8247484 1.0356148,-1.8392134 C 1.0849578,-1.8329974 -0.3084271,-1.9360104 -0.2946641,-3.1380704 C -0.2946631,-7.3369704 -0.7516051,-12.964169 -0.7516051,-17.163071 C -0.7516051,-17.330992 -0.7656581,-17.424449 -0.7805251,-17.501903 C -0.7920051,-17.561714 -0.8066421,-17.590743 -0.8383621,-17.614847 C -0.8637211,-17.636817 -0.8880101,-17.666103 -0.9251191,-17.671319 L -9.8766627,-17.671319 L -9.8766627,-19.517819 C -9.8766627,-19.603897 -9.9434047,-19.687235 -10.021258,-19.687235 L -16.839971,-19.687235 z" display="inline"/><path id="path3442" fill="url(#radialGradient3520)" fill-opacity="1" stroke="url(#linearGradient3522)" stroke-dasharray="none" stroke-linecap="round" stroke-linejoin="round" stroke-miterlimit="4" stroke-opacity="1" stroke-width="1" d="M -15.954876,-15.668819 C -6.3347937,-15.668819 -4.3590571,-15.668417 1.9782978,-15.692855 C 1.9782978,-14.322141 2.2132558,-1.6925864 1.5376888,-1.6925864 C 0.8878058,-1.6925864 -10.643069,-1.7749374 -16.980422,-1.7504994 C -15.640985,-1.7504994 -15.954876,-2.2940464 -15.954876,-15.668819 z" display="inline"/><path id="path3444" fill="none" fill-rule="evenodd" stroke="url(#radialGradient3524)" stroke-dasharray="none" stroke-linecap="butt" stroke-linejoin="miter" stroke-miterlimit="4" stroke-opacity="1" stroke-width=".981" d="M 1.4740268,-14.742132 C 1.4740268,-14.742132 -13.543886,-14.509742 -14.968249,-14.672069 C -15.043735,-2.6014644 -15.08514,-2.3707574 -15.08514,-2.3707574" display="inline" opacity=".4"/><path id="path3446" fill="url(#linearGradient3526)" fill-opacity="1" fill-rule="evenodd" stroke="none" stroke-dasharray="none" stroke-dashoffset="0" stroke-linecap="round" stroke-linejoin="round" stroke-miterlimit="4" stroke-opacity="1" stroke-width="1.002" d="M 3.21875,5.34375 C 1.6798019,5.34375 0.40625,6.617302 0.40625,8.15625 L 0.40625,24.15625 C 0.41214423,24.442483 0.55466957,24.768827 0.78125,24.96875 C 1.0078275,25.168671 1.2974446,25.253022 1.625,25.21875 C 1.635415,25.219016 1.645835,25.219016 1.65625,25.21875 L 46.65625,18.09375 C 47.178023,18.01146 47.586456,17.55942 47.59375,17.03125 L 47.59375,8.15625 C 47.59375,6.617302 46.320198,5.34375 44.78125,5.34375 L 3.21875,5.34375 z" opacity=".2" transform="matrix(0.402649,0,0,0.3520695,-16.645459,-18.074107)"/></g><path id="path892" fill="#fff" fill-opacity="1" fill-rule="evenodd" stroke="none" stroke-dasharray="none" stroke-miterlimit="4" stroke-opacity="1" stroke-width=".497" d="M 8,14.042707 L 8,18.983025 L 12,18.984405 L 12,15.691784 L 15,15.666727 L 15,19 L 18,18.98786 L 18,14.038809 L 20,14.03963 L 12.987176,9 L 6,14.049584 L 8,14.042707 z" display="inline" opacity=".4"/><path id="path3201" fill="#425e7b" fill-opacity="1" fill-rule="evenodd" stroke="none" stroke-dasharray="none" stroke-miterlimit="4" stroke-opacity="1" stroke-width=".497" d="M 8,13.042707 L 8,17.983025 L 12,17.984405 L 12,14.691784 L 15,14.666727 L 15,18 L 18,17.98786 L 18,13.038809 L 20,13.03963 L 12.987176,8 L 6,13.049584 L 8,13.042707 z" display="inline" opacity="1"/></g></svg>