<svg xmlns="http://www.w3.org/2000/svg" xmlns:svg="http://www.w3.org/2000/svg" xmlns:xlink="http://www.w3.org/1999/xlink" id="svg2" width="24" height="24" version="1.0"><metadata id="metadata53"/><defs id="defs4"><linearGradient id="linearGradient2886" x1="44.995" x2="3.005" y1="17.5" y2="17.5" gradientTransform="matrix(0.51232292,0,0,0.49974342,-0.29580687,-0.2455087)" gradientUnits="userSpaceOnUse" spreadMethod="reflect" xlink:href="#linearGradient3275"/><linearGradient id="linearGradient3275"><stop id="stop3277" offset="0" stop-color="#fff" stop-opacity="0"/><stop id="stop3283" offset=".245" stop-color="#fff" stop-opacity="1"/><stop id="stop3285" offset=".774" stop-color="#fff" stop-opacity="1"/><stop id="stop3279" offset="1" stop-color="#fff" stop-opacity="0"/></linearGradient><linearGradient id="linearGradient2889" x1="26" x2="26" y1="22" y2="8" gradientTransform="matrix(0.49999997,0,0,0.57142853,1.0587409e-6,-1.5714267)" gradientUnits="userSpaceOnUse" xlink:href="#linearGradient2929"/><linearGradient id="linearGradient2929"><stop id="stop2931" offset="0" stop-color="#fff" stop-opacity="1"/><stop id="stop2933" offset=".271" stop-color="#fff" stop-opacity="1"/><stop id="stop2935" offset=".39" stop-color="#fff" stop-opacity=".69"/><stop id="stop2937" offset="1" stop-color="#fff" stop-opacity="0"/></linearGradient><linearGradient id="linearGradient2892" x1="23.452" x2="43.007" y1="30.555" y2="45.934" gradientTransform="matrix(0.65683735,0,0,0.5870422,-3.4028653,-3.3874657)" gradientUnits="userSpaceOnUse" xlink:href="#linearGradient4559"/><linearGradient id="linearGradient4559"><stop id="stop4561" offset="0" stop-color="#fff" stop-opacity="0"/><stop id="stop4563" offset="1" stop-color="#fff" stop-opacity="0"/></linearGradient><linearGradient id="linearGradient2895" x1="24.823" x2="24.997" y1="15.378" y2="37.277" gradientTransform="matrix(0.65683735,0,0,0.77823139,-3.4038718,-8.378696)" gradientUnits="userSpaceOnUse" xlink:href="#linearGradient2919"/><linearGradient id="linearGradient2919"><stop id="stop2921" offset="0" stop-color="#dac197" stop-opacity="1"/><stop id="stop2923" offset=".261" stop-color="#c1a581" stop-opacity="1"/><stop id="stop2925" offset=".316" stop-color="#dbc298" stop-opacity="1"/><stop id="stop2927" offset="1" stop-color="#a68b60" stop-opacity="1"/></linearGradient><linearGradient id="linearGradient2897" x1="15.464" x2="15.464" y1="7.976" y2="45.042" gradientTransform="matrix(0.5122637,0,0,0.49974342,-0.29433284,-0.7372407)" gradientUnits="userSpaceOnUse" xlink:href="#linearGradient2909"/><linearGradient id="linearGradient2909"><stop id="stop2911" offset="0" stop-color="#c9af8b" stop-opacity="1"/><stop id="stop2913" offset=".249" stop-color="#ad8757" stop-opacity="1"/><stop id="stop2915" offset=".312" stop-color="#c2a57f" stop-opacity="1"/><stop id="stop2917" offset="1" stop-color="#9d7d53" stop-opacity="1"/></linearGradient><radialGradient id="radialGradient2903" cx="5" cy="41.5" r="5" fx="5" fy="41.5" gradientTransform="matrix(0.5938225,0,0,1.5366531,-6.6594735,-103.93618)" gradientUnits="userSpaceOnUse" xlink:href="#linearGradient3681"/><linearGradient id="linearGradient3681"><stop id="stop3683" offset="0" stop-color="#000" stop-opacity="1"/><stop id="stop3685" offset="1" stop-color="#000" stop-opacity="0"/></linearGradient><linearGradient id="linearGradient2905" x1="17.554" x2="17.554" y1="46" y2="35" gradientTransform="matrix(1.7570316,0,0,1.3969574,-17.394014,-16.411698)" gradientUnits="userSpaceOnUse" xlink:href="#linearGradient3703"/><linearGradient id="linearGradient3703"><stop id="stop3705" offset="0" stop-color="#000" stop-opacity="0"/><stop id="stop3711" offset=".5" stop-color="#000" stop-opacity="1"/><stop id="stop3707" offset="1" stop-color="#000" stop-opacity="0"/></linearGradient><radialGradient id="radialGradient3003" cx="5" cy="41.5" r="5" fx="5" fy="41.5" gradientTransform="matrix(0.5938225,0,0,1.5366531,41.140892,-103.93618)" gradientUnits="userSpaceOnUse" xlink:href="#linearGradient3681"/><linearGradient id="linearGradient5530" x1="24.139" x2="24.139" y1="7.048" y2="39.268" gradientTransform="matrix(0.2817955,0,0,0.2800956,12.186027,12.02218)" gradientUnits="userSpaceOnUse" xlink:href="#linearGradient3943"/><linearGradient id="linearGradient3943"><stop id="stop3945" offset="0" stop-color="#fff" stop-opacity="1"/><stop id="stop3947" offset="1" stop-color="#fff" stop-opacity="0"/></linearGradient><linearGradient id="linearGradient3242-7"><stop id="stop3244-5" offset="0" stop-color="#eef87e" stop-opacity="1"/><stop id="stop3246-9" offset=".262" stop-color="#cde34f" stop-opacity="1"/><stop id="stop3248-7" offset=".661" stop-color="#93b723" stop-opacity="1"/><stop id="stop3250-8" offset="1" stop-color="#5a7e0d" stop-opacity="1"/></linearGradient><linearGradient id="linearGradient2490-3"><stop id="stop2492-3" offset="0" stop-color="#365f0e" stop-opacity="1"/><stop id="stop2494-8" offset="1" stop-color="#84a718" stop-opacity="1"/></linearGradient><radialGradient id="radialGradient3138" cx="69.448" cy="51.695" r="31" fx="69.448" fy="51.695" gradientTransform="matrix(0,0.35684158,-0.38820022,0,37.356571,-10.114114)" gradientUnits="userSpaceOnUse" xlink:href="#linearGradient3242-7"/><linearGradient id="linearGradient3140" x1="72.422" x2="72.422" y1="124.756" y2="51.244" gradientTransform="matrix(0.1482266,0,0,0.1494387,5.4507901,5.356682)" gradientUnits="userSpaceOnUse" xlink:href="#linearGradient2490-3"/></defs><g id="layer1"><g id="g3305" display="inline" opacity=".4" transform="matrix(0.51791078,0,0,0.45553546,-0.37816169,2.2033833)"><rect id="rect2484" width="2.96" height="15.367" x="-3.69" y="-47.848" fill="url(#radialGradient2903)" fill-opacity="1" stroke="none" transform="scale(-1,-1)"/><rect id="rect2486" width="40.412" height="15.367" x="3.69" y="32.482" fill="url(#linearGradient2905)" fill-opacity="1" stroke="none"/><rect id="rect3444" width="2.96" height="15.367" x="44.11" y="-47.848" fill="url(#radialGradient3003)" fill-opacity="1" stroke="none" display="inline" transform="scale(1,-1)"/></g><path id="path2488" fill="url(#linearGradient2895)" fill-opacity="1" fill-rule="nonzero" stroke="url(#linearGradient2897)" stroke-dasharray="none" stroke-dashoffset="0" stroke-linecap="round" stroke-linejoin="miter" stroke-miterlimit="4" stroke-opacity="1" stroke-width=".994" d="m 4.3215344,3.5105773 15.1106106,0 c 0.882111,0 1.279083,-0.1432 1.532464,0.499744 l 1.53768,4.489679 0,12.3386357 c 0,0.776254 0.05273,0.657651 -0.829386,0.657651 l -19.3458141,0 c -0.8821142,0 -0.8293873,0.118603 -0.8293873,-0.657651 l 0,-12.3386357 1.5376796,-4.489679 c 0.2463125,-0.629958 0.404039,-0.499744 1.2861532,-0.499744 z" display="block" overflow="visible" visibility="visible" style="marker:none"/><path id="path2490" fill="none" stroke="url(#linearGradient2892)" stroke-dasharray="none" stroke-dashoffset="0" stroke-linecap="butt" stroke-linejoin="miter" stroke-miterlimit="4" stroke-opacity="1" stroke-width=".742" d="m 4.8027725,4.0167913 14.1655605,0 c 0.826944,0 1.338741,0.278124 1.685102,1.04248 l 1.193033,3.208212 0,11.5663397 c 0,0.729962 -0.419421,1.097478 -1.246366,1.097478 l -17.2802952,0 c -0.826944,0 -1.1642608,-0.404205 -1.1642608,-1.13417 l 0,-11.5296477 1.1545456,-3.276997 c 0.2309091,-0.592393 0.6657347,-0.973695 1.4926809,-0.973695 z" display="block" opacity=".505" overflow="visible" visibility="visible" style="marker:none"/><path id="rect3326" fill="url(#linearGradient2889)" fill-opacity="1" fill-rule="nonzero" stroke="none" stroke-width="1" d="m 11,3.0000003 c 0.666667,0 1.333333,0 2,0 0,2.666665 0,5.333334 0,7.9999997 -0.196865,0 -0.39373,0 -0.590593,0 -0.201563,0 -0.403126,0 -0.604688,0 -0.162265,0 -0.32453,0 -0.486792,0 C 11.21195,11 11.105975,11 11,11 11,8.3333343 11,5.6666653 11,3.0000003 z" display="inline" enable-background="accumulate" opacity=".4" overflow="visible" visibility="visible" style="marker:none"/><path id="path3273" fill="none" stroke="url(#linearGradient2886)" stroke-linecap="square" stroke-linejoin="miter" stroke-opacity="1" stroke-width="1" d="m 1.5,8.5000003 20.999885,0" display="inline" opacity=".4"/></g><path id="path2262" fill="url(#radialGradient3138)" fill-opacity="1" fill-rule="nonzero" stroke="url(#linearGradient3140)" stroke-dasharray="none" stroke-dashoffset="0" stroke-linecap="round" stroke-linejoin="round" stroke-miterlimit="4" stroke-opacity="1" stroke-width=".985" d="m 16.489465,16.507295 0,-3 4,0 0,3 3,0 0,4 -3,0 0,2.999991 -4,0 0,-2.999991 -2.989465,0 0,-4 2.989465,0 z" color="#000" display="inline" enable-background="accumulate" overflow="visible" visibility="visible" style="marker:none"/><path id="path2272" fill="none" stroke="url(#linearGradient5530)" stroke-dasharray="none" stroke-linecap="butt" stroke-linejoin="miter" stroke-miterlimit="4" stroke-opacity="1" stroke-width="1" d="m 17.489465,17.507295 0,-3 2,0 0,3 3,0 0,2 -3,0 0,3 -2,0 0,-3 -3,0 0,-2 3,0 z" display="inline" opacity=".4"/></svg>