<svg xmlns="http://www.w3.org/2000/svg" xmlns:svg="http://www.w3.org/2000/svg" xmlns:xlink="http://www.w3.org/1999/xlink" id="svg2" width="24" height="24" version="1.0"><defs id="defs4"><linearGradient id="linearGradient3578-995-735-4-566-885-385-488-812-692"><stop id="stop7577" offset="0" stop-color="#025e98" stop-opacity="1"/><stop id="stop7579" offset="1" stop-color="#3ba2e3" stop-opacity="1"/></linearGradient><linearGradient id="linearGradient3227" x1="4" x2="10.143" y1="13.5" y2="13.5" gradientTransform="matrix(0.8666667,0,0,1,1.5999997,-1.0000155)" gradientUnits="userSpaceOnUse" spreadMethod="reflect" xlink:href="#linearGradient3578-995-735-4-566-885-385-488-812-692"/><linearGradient id="linearGradient3598-871-484-814-161-889-287-317-39-832"><stop id="stop7589" offset="0" stop-color="#58b8f4" stop-opacity="1"/><stop id="stop7591" offset="1" stop-color="#136ea8" stop-opacity="1"/></linearGradient><linearGradient id="linearGradient3247" x1="24" x2="24" y1="16.525" y2="13.285" gradientUnits="userSpaceOnUse" xlink:href="#linearGradient3598-871-484-814-161-889-287-317-39-832"/><linearGradient id="linearGradient3592-990-183-196-279-371-272-744-724-968"><stop id="stop7583" offset="0" stop-color="#6aadd8" stop-opacity="1"/><stop id="stop7585" offset="1" stop-color="#0b85d3" stop-opacity="1"/></linearGradient><linearGradient id="linearGradient3245" x1="15.036" x2="19.777" y1="11.206" y2="18.185" gradientUnits="userSpaceOnUse" xlink:href="#linearGradient3592-990-183-196-279-371-272-744-724-968"/><linearGradient id="linearGradient4173-908-339"><stop id="stop4476" offset="0" stop-color="#b2b2b2" stop-opacity="1"/><stop id="stop4478" offset="1" stop-color="#e6e6e6" stop-opacity="1"/></linearGradient><linearGradient id="linearGradient3255" x1="21.714" x2="27.038" y1="10.286" y2="10.286" gradientTransform="matrix(0.5513378,0,0,0.6057331,-1.1102658,-3.9460965)" gradientUnits="userSpaceOnUse" xlink:href="#linearGradient4173-908-339"/><linearGradient id="linearGradient3564-531"><stop id="stop4452" offset="0" stop-color="#fff" stop-opacity=".373"/><stop id="stop4454" offset="1" stop-color="#a9a9a9" stop-opacity="0"/></linearGradient><linearGradient id="linearGradient3259" x1="24" x2="24" y1="16.525" y2="13.285" gradientUnits="userSpaceOnUse" xlink:href="#linearGradient3564-531"/><linearGradient id="linearGradient10033-588-987"><stop id="stop4446" offset="0" stop-color="#e5e5e5" stop-opacity="1"/><stop id="stop4448" offset="1" stop-color="#b2b2b2" stop-opacity="1"/></linearGradient><linearGradient id="linearGradient3257" x1="15.036" x2="19.777" y1="11.206" y2="18.185" gradientUnits="userSpaceOnUse" xlink:href="#linearGradient10033-588-987"/></defs><g id="layer1"><path id="rect2432" fill="url(#linearGradient3227)" fill-opacity="1" fill-rule="nonzero" stroke="#176597" stroke-dasharray="none" stroke-dashoffset="0" stroke-linecap="round" stroke-linejoin="round" stroke-miterlimit="10" stroke-opacity="1" stroke-width="1" marker-end="none" marker-mid="none" marker-start="none" d="M 5.5,3.5 C 5.5,10.166667 5.5,14.645832 5.5,21.3125 C 5.5014479,21.321187 5.5275514,21.333988 5.53125,21.34375 C 5.5196405,21.392793 5.5,21.450047 5.5,21.5 C 5.5,22.610072 8.4059279,23.5 12,23.5 C 15.594072,23.5 18.5,22.610071 18.5,21.5 C 18.5,21.480574 18.501775,21.456794 18.5,21.4375 C 18.5,14.770833 18.5,10.166667 18.5,3.5 C 14.166667,3.5 9.8333333,3.5 5.5,3.5 z" display="inline" enable-background="accumulate" overflow="visible" visibility="visible" style="marker:none"/><path id="path3243" fill="url(#linearGradient3245)" fill-opacity="1" fill-rule="nonzero" stroke="url(#linearGradient3247)" stroke-dasharray="none" stroke-dashoffset="0" stroke-linecap="butt" stroke-linejoin="round" stroke-miterlimit="10" stroke-opacity="1" stroke-width="2.273" marker-end="none" marker-mid="none" marker-start="none" d="M 36.857142,14.071428 A 12.857142,5.5 0 1 1 11.142858,14.071428 A 12.857142,5.5 0 1 1 36.857142,14.071428 z" display="block" overflow="visible" transform="matrix(0.5064111,0,0,0.3656364,-0.1538667,-1.6450266)" visibility="visible" style="marker:none"/><path id="path3251" fill="url(#linearGradient3255)" fill-opacity="1" fill-rule="nonzero" stroke="#919191" stroke-dasharray="none" stroke-dashoffset="0" stroke-linecap="butt" stroke-linejoin="round" stroke-miterlimit="10" stroke-opacity="1" stroke-width="1.015" marker-end="none" marker-mid="none" marker-start="none" d="M 12.060888,0.6710315 C 10.760788,0.652757 9.5074846,0.9317718 9.5074846,1.3167886 C 9.5074846,1.354974 9.5074846,2.6095208 9.5074846,2.6492893 C 9.5074846,3.1814357 10.956671,3.4925155 12.060888,3.4925155 C 13.165103,3.4925155 14.492515,3.1814357 14.492515,2.6492893 C 14.492515,2.6177912 14.492515,1.598611 14.492515,1.3167886 C 14.492515,1.034966 13.373225,0.6894779 12.060888,0.6710315 z" display="block" opacity=".3" overflow="visible" visibility="visible" style="marker:none"/><path id="path3253" fill="url(#linearGradient3257)" fill-opacity="1" fill-rule="nonzero" stroke="url(#linearGradient3259)" stroke-dasharray="none" stroke-dashoffset="0" stroke-linecap="butt" stroke-linejoin="round" stroke-miterlimit="10" stroke-opacity="1" stroke-width="6.809" marker-end="none" marker-mid="none" marker-start="none" d="M 36.857142,14.071428 A 12.857142,5.5 0 1 1 11.142858,14.071428 A 12.857142,5.5 0 1 1 36.857142,14.071428 z" display="block" opacity=".4" overflow="visible" transform="matrix(0.1938623,0,0,0.11461,7.3473048,-0.4748872)" visibility="visible" style="marker:none"/></g></svg>