<svg xmlns="http://www.w3.org/2000/svg" xmlns:svg="http://www.w3.org/2000/svg" xmlns:xlink="http://www.w3.org/1999/xlink" id="svg2" width="24" height="24" version="1.0"><defs id="defs4"><linearGradient id="linearGradient4151-767-958"><stop id="stop4470" offset="0" stop-color="#979797" stop-opacity="1"/><stop id="stop4472" offset="1" stop-color="#d5d5d5" stop-opacity="1"/></linearGradient><linearGradient id="linearGradient3316" x1="4" x2="10.143" y1="13.5" y2="13.5" gradientTransform="matrix(0.8666667,0,0,1,1.5999997,-1.0000155)" gradientUnits="userSpaceOnUse" spreadMethod="reflect" xlink:href="#linearGradient4151-767-958"/><linearGradient id="linearGradient3308" x1="24" x2="24" y1="16.525" y2="13.285" gradientTransform="matrix(0.5064111,0,0,0.3656364,-0.1538667,-1.6450266)" gradientUnits="userSpaceOnUse" xlink:href="#linearGradient3539-33"/><linearGradient id="linearGradient3306" x1="15.036" x2="19.777" y1="11.206" y2="18.185" gradientTransform="matrix(0.5064111,0,0,0.3656364,-0.1538667,-1.6450266)" gradientUnits="userSpaceOnUse" xlink:href="#linearGradient10033-588-987"/><linearGradient id="linearGradient4173-908-339"><stop id="stop4476" offset="0" stop-color="#b2b2b2" stop-opacity="1"/><stop id="stop4478" offset="1" stop-color="#e6e6e6" stop-opacity="1"/></linearGradient><linearGradient id="linearGradient3303" x1="21.714" x2="27.038" y1="10.286" y2="10.286" gradientTransform="matrix(0.5513378,0,0,0.6057331,-1.1102658,-3.9460965)" gradientUnits="userSpaceOnUse" xlink:href="#linearGradient4173-908-339"/><linearGradient id="linearGradient3564-531"><stop id="stop4452" offset="0" stop-color="#fff" stop-opacity=".373"/><stop id="stop4454" offset="1" stop-color="#a9a9a9" stop-opacity="0"/></linearGradient><linearGradient id="linearGradient3300" x1="24" x2="24" y1="16.525" y2="13.285" gradientTransform="matrix(0.1938623,0,0,0.11461,7.3473048,-0.4748872)" gradientUnits="userSpaceOnUse" xlink:href="#linearGradient3564-531"/><linearGradient id="linearGradient3298" x1="15.036" x2="19.777" y1="11.206" y2="18.185" gradientTransform="matrix(0.1938623,0,0,0.11461,7.3473048,-0.4748872)" gradientUnits="userSpaceOnUse" xlink:href="#linearGradient10033-588-987"/><linearGradient id="linearGradient3539-33"><stop id="stop4440" offset="0" stop-color="#fff" stop-opacity="1"/><stop id="stop4442" offset="1" stop-color="#fff" stop-opacity="0"/></linearGradient><linearGradient id="linearGradient3322" x1="24" x2="24" y1="16.525" y2="13.285" gradientTransform="matrix(0.4286333,0,0,0.2747273,1.7127993,17.134195)" gradientUnits="userSpaceOnUse" xlink:href="#linearGradient3539-33"/><linearGradient id="linearGradient10033-588-987"><stop id="stop4446" offset="0" stop-color="#e5e5e5" stop-opacity="1"/><stop id="stop4448" offset="1" stop-color="#b2b2b2" stop-opacity="1"/></linearGradient><linearGradient id="linearGradient3320" x1="15.036" x2="19.777" y1="11.206" y2="18.185" gradientTransform="matrix(0.4286333,0,0,0.2747273,1.7127993,17.134195)" gradientUnits="userSpaceOnUse" xlink:href="#linearGradient10033-588-987"/></defs><g id="layer1"><path id="rect2432" fill="url(#linearGradient3316)" fill-opacity="1" fill-rule="nonzero" stroke="#575757" stroke-dasharray="none" stroke-dashoffset="0" stroke-linecap="round" stroke-linejoin="round" stroke-miterlimit="10" stroke-opacity="1" stroke-width="1" marker-end="none" marker-mid="none" marker-start="none" d="M 12,1.5 C 8.4040737,1.5 5.5,2.3893552 5.5,3.5 C 5.5,10.166667 5.5,14.645832 5.5,21.3125 C 5.5014479,21.321187 5.5275514,21.333988 5.53125,21.34375 C 5.5196405,21.392793 5.5,21.450047 5.5,21.5 C 5.5,22.610072 8.4059279,23.5 12,23.5 C 15.594072,23.5 18.5,22.610071 18.5,21.5 C 18.5,21.480574 18.501775,21.456794 18.5,21.4375 C 18.5,14.770833 18.5,10.166667 18.5,3.5 C 18.5,2.3893553 15.595926,1.5 12,1.5 z" display="inline" enable-background="accumulate" opacity=".4" overflow="visible" visibility="visible" style="marker:none"/><path id="path3243" fill="url(#linearGradient3306)" fill-opacity="1" fill-rule="nonzero" stroke="url(#linearGradient3308)" stroke-dasharray="none" stroke-dashoffset="0" stroke-linecap="butt" stroke-linejoin="round" stroke-miterlimit="10" stroke-opacity="1" stroke-width=".978" marker-end="none" marker-mid="none" marker-start="none" d="M 18.510999,3.4999997 C 18.510999,4.6106444 15.595926,5.5109999 12,5.5109999 C 8.4040737,5.5109999 5.4890003,4.6106444 5.4890003,3.4999997 C 5.4890003,2.389355 8.4040737,1.4889994 12,1.4889994 C 15.595926,1.4889994 18.510999,2.389355 18.510999,3.4999997 L 18.510999,3.4999997 z" display="block" opacity=".4" overflow="visible" visibility="visible" style="marker:none"/><path id="path3251" fill="url(#linearGradient3303)" fill-opacity="1" fill-rule="nonzero" stroke="#919191" stroke-dasharray="none" stroke-dashoffset="0" stroke-linecap="butt" stroke-linejoin="round" stroke-miterlimit="10" stroke-opacity="1" stroke-width="1.015" marker-end="none" marker-mid="none" marker-start="none" d="M 12.060888,0.6710315 C 10.760788,0.652757 9.5074846,0.9317718 9.5074846,1.3167886 C 9.5074846,1.354974 9.5074846,2.6095208 9.5074846,2.6492893 C 9.5074846,3.1814357 10.956671,3.4925155 12.060888,3.4925155 C 13.165103,3.4925155 14.492515,3.1814357 14.492515,2.6492893 C 14.492515,2.6177912 14.492515,1.598611 14.492515,1.3167886 C 14.492515,1.034966 13.373225,0.6894779 12.060888,0.6710315 z" display="block" opacity=".3" overflow="visible" visibility="visible" style="marker:none"/><path id="path3253" fill="url(#linearGradient3298)" fill-opacity="1" fill-rule="nonzero" stroke="url(#linearGradient3300)" stroke-dasharray="none" stroke-dashoffset="0" stroke-linecap="butt" stroke-linejoin="round" stroke-miterlimit="10" stroke-opacity="1" stroke-width="1.015" marker-end="none" marker-mid="none" marker-start="none" d="M 14.492515,1.1378392 C 14.492515,1.4859746 13.376578,1.7681942 12,1.7681942 C 10.623422,1.7681942 9.5074849,1.4859746 9.5074849,1.1378392 C 9.5074849,0.78970372 10.623422,0.50748415 12,0.50748415 C 13.376578,0.50748415 14.492515,0.78970372 14.492515,1.1378392 L 14.492515,1.1378392 z" display="block" opacity=".4" overflow="visible" visibility="visible" style="marker:none"/><path id="path3318" fill="url(#linearGradient3320)" fill-opacity="1" fill-rule="nonzero" stroke="url(#linearGradient3322)" stroke-dasharray="none" stroke-dashoffset="0" stroke-linecap="butt" stroke-linejoin="round" stroke-miterlimit="10" stroke-opacity="1" stroke-width=".978" marker-end="none" marker-mid="none" marker-start="none" d="M 17.511,21 C 17.511,21.834503 15.043641,22.511 12,22.511 C 8.9563582,22.511 6.4889998,21.834503 6.4889998,21 C 6.4889998,20.165498 8.9563582,19.489 12,19.489 C 15.043641,19.489 17.511,20.165498 17.511,21 L 17.511,21 z" display="block" opacity=".4" overflow="visible" visibility="visible" style="marker:none"/></g></svg>