<svg xmlns="http://www.w3.org/2000/svg" xmlns:svg="http://www.w3.org/2000/svg" xmlns:xlink="http://www.w3.org/1999/xlink" id="svg2404" width="24" height="24" version="1.0"><defs id="defs2406"><linearGradient id="linearGradient2190"><stop id="stop2192" offset="0" stop-color="#dadada" stop-opacity="1"/><stop id="stop2196" offset="1" stop-color="#707070" stop-opacity="1"/></linearGradient><linearGradient id="linearGradient2327"><stop id="stop2329" offset="0" stop-color="#131313" stop-opacity="1"/><stop id="stop2331" offset="1" stop-color="#585858" stop-opacity="1"/></linearGradient><linearGradient id="linearGradient6240"><stop id="stop6242" offset="0" stop-color="#fff" stop-opacity="1"/><stop id="stop6244" offset="1" stop-color="#fff" stop-opacity="0"/></linearGradient><linearGradient id="linearGradient2438" x1="72.679" x2="72.679" y1="204.053" y2="180.043" gradientTransform="matrix(6.3417923e-2,0,0,5.9379774e-2,-4.1145668,-5.6681545)" gradientUnits="userSpaceOnUse" xlink:href="#linearGradient2190"/><linearGradient id="linearGradient2440" x1="32.734" x2="32.734" y1="3.147" y2="33.843" gradientTransform="matrix(0.3271157,0,0,0.3455909,-7.3878823,-8.0109117)" gradientUnits="userSpaceOnUse" xlink:href="#linearGradient2327"/><linearGradient id="linearGradient2442" x1="20.157" x2="20.157" y1="5.1" y2="26.039" gradientTransform="matrix(0.3850134,0,0,0.4119218,-8.747797,-10.282233)" gradientUnits="userSpaceOnUse" xlink:href="#linearGradient6240"/><linearGradient id="linearGradient2414" x1="72.679" x2="72.679" y1="204.053" y2="180.043" gradientTransform="matrix(6.3417923e-2,0,0,5.9379774e-2,-4.1145668,-5.6681545)" gradientUnits="userSpaceOnUse" xlink:href="#linearGradient2190"/><linearGradient id="linearGradient2416" x1="32.734" x2="32.734" y1="3.147" y2="33.843" gradientTransform="matrix(0.3271157,0,0,0.3455909,-7.3878823,-8.0109117)" gradientUnits="userSpaceOnUse" xlink:href="#linearGradient2327"/><linearGradient id="linearGradient2418" x1="20.157" x2="20.157" y1="5.1" y2="26.039" gradientTransform="matrix(0.3850134,0,0,0.4119218,-8.747797,-10.282233)" gradientUnits="userSpaceOnUse" xlink:href="#linearGradient6240"/></defs><g id="layer1" transform="translate(7.9999997,0)"><g id="g2431" transform="translate(7.5044555,8.0826734)"><path id="path2170" fill="#b3b3b3" fill-opacity="1" fill-rule="evenodd" stroke="#4d4d4d" stroke-dasharray="none" stroke-linecap="round" stroke-linejoin="round" stroke-miterlimit="4" stroke-opacity="1" stroke-width=".52" d="M -2.7632694,4.932397 C -2.7632694,4.932397 -3.2340154,6.745662 -3.2340154,6.866788 C -3.2340154,6.981203 -3.3399397,7.657461 -2.9088432,7.657461 C -2.4852907,7.657461 3.651999,7.657461 3.980945,7.657461 C 4.31051,7.657461 4.205104,6.847661 4.23366,6.783817 C 4.261282,6.722069 3.752434,4.930331 3.752434,4.930331 L -2.7632694,4.932397 z"/><path id="path2186" fill="url(#linearGradient2438)" fill-opacity="1" fill-rule="evenodd" stroke="#b3b3b3" stroke-dasharray="none" stroke-linecap="round" stroke-linejoin="round" stroke-miterlimit="4" stroke-opacity="1" stroke-width=".519" d="M -2.7632694,4.179012 C -2.7632694,4.179012 -3.1233533,6.032156 -3.2058648,6.320485 C -3.2878148,6.606852 -3.269621,6.657653 -2.8941285,6.657653 C -2.5262168,6.657653 3.630691,6.657653 3.928196,6.657653 C 4.233184,6.657653 4.266474,6.556209 4.214954,6.317244 C 4.164574,6.083577 3.752434,4.176998 3.752434,4.176998 L -2.7632694,4.179012 z" opacity=".6"/><path id="rect3170" fill="#333" fill-opacity="1" fill-rule="evenodd" stroke="#1a1a1a" stroke-dasharray="none" stroke-dashoffset="0" stroke-linecap="round" stroke-linejoin="round" stroke-miterlimit="4" stroke-opacity="1" stroke-width=".509" marker-end="none" marker-mid="none" marker-start="none" d="M -6.696408,-7.8281608 C -1.9017732,-7.8281608 2.892862,-7.8281608 7.687496,-7.8281608 C 8.222019,-7.8327352 8.267691,-7.2224276 8.231929,-6.8013354 C 8.231929,-3.173735 8.231927,0.45386499 8.231927,4.081465 C 8.236284,4.642838 7.655166,4.690803 7.254214,4.653245 C 2.604007,4.653245 -2.0462008,4.653245 -6.696408,4.653245 C -7.2309303,4.657821 -7.2766026,4.047513 -7.2408395,3.626419 C -7.2408395,-0.0011810146 -7.2408395,-3.628781 -7.2408395,-7.2563818 C -7.2479064,-7.5637278 -6.9891532,-7.8355573 -6.696408,-7.8281608 z" display="inline" enable-background="accumulate" overflow="visible" visibility="visible" style="marker:none"/><path id="rect4151" fill="url(#linearGradient2440)" fill-opacity="1" fill-rule="evenodd" stroke="#000" stroke-dasharray="none" stroke-dashoffset="0" stroke-linecap="round" stroke-linejoin="round" stroke-miterlimit="4" stroke-opacity="1" stroke-width=".509" marker-end="none" marker-mid="none" marker-start="none" d="M -6.590561,-7.152707 C -1.8664904,-7.152707 2.85758,-7.152707 7.58165,-7.152707 C 7.58165,-3.439354 7.58165,0.27399999 7.58165,3.987354 C 2.85758,3.987354 -1.8664904,3.987354 -6.590561,3.987354 C -6.590561,0.27399999 -6.590561,-3.439354 -6.590561,-7.152707 z" display="inline" enable-background="accumulate" overflow="visible" visibility="visible" style="marker:none"/><path id="path4073" fill="url(#linearGradient2442)" fill-opacity="1" fill-rule="evenodd" stroke="none" stroke-linecap="butt" stroke-linejoin="miter" stroke-opacity="1" stroke-width="1" d="M -6.4286575,-6.9739349 L -6.4286575,0.44388999 C -0.097325264,-0.11395601 2.2721399,-3.721637 7.419744,-4.098559 L 7.419747,-6.9868576 L -6.4286575,-6.9739349 z" opacity=".4"/></g></g><g id="g2400" transform="translate(0,7.9999949)"><g id="g2402" transform="translate(7.5044555,8.0826734)"><path id="path2404" fill="#b3b3b3" fill-opacity="1" fill-rule="evenodd" stroke="#4d4d4d" stroke-dasharray="none" stroke-linecap="round" stroke-linejoin="round" stroke-miterlimit="4" stroke-opacity="1" stroke-width=".52" d="M -2.7632694,4.932397 C -2.7632694,4.932397 -3.2340154,6.745662 -3.2340154,6.866788 C -3.2340154,6.981203 -3.3399397,7.657461 -2.9088432,7.657461 C -2.4852907,7.657461 3.651999,7.657461 3.980945,7.657461 C 4.31051,7.657461 4.205104,6.847661 4.23366,6.783817 C 4.261282,6.722069 3.752434,4.930331 3.752434,4.930331 L -2.7632694,4.932397 z"/><path id="path2406" fill="url(#linearGradient2414)" fill-opacity="1" fill-rule="evenodd" stroke="#b3b3b3" stroke-dasharray="none" stroke-linecap="round" stroke-linejoin="round" stroke-miterlimit="4" stroke-opacity="1" stroke-width=".519" d="M -2.7632694,4.179012 C -2.7632694,4.179012 -3.1233533,6.032156 -3.2058648,6.320485 C -3.2878148,6.606852 -3.269621,6.657653 -2.8941285,6.657653 C -2.5262168,6.657653 3.630691,6.657653 3.928196,6.657653 C 4.233184,6.657653 4.266474,6.556209 4.214954,6.317244 C 4.164574,6.083577 3.752434,4.176998 3.752434,4.176998 L -2.7632694,4.179012 z" opacity=".6"/><path id="path2408" fill="#333" fill-opacity="1" fill-rule="evenodd" stroke="#1a1a1a" stroke-dasharray="none" stroke-dashoffset="0" stroke-linecap="round" stroke-linejoin="round" stroke-miterlimit="4" stroke-opacity="1" stroke-width=".509" marker-end="none" marker-mid="none" marker-start="none" d="M -6.696408,-7.8281608 C -1.9017732,-7.8281608 2.892862,-7.8281608 7.687496,-7.8281608 C 8.222019,-7.8327352 8.267691,-7.2224276 8.231929,-6.8013354 C 8.231929,-3.173735 8.231927,0.45386499 8.231927,4.081465 C 8.236284,4.642838 7.655166,4.690803 7.254214,4.653245 C 2.604007,4.653245 -2.0462008,4.653245 -6.696408,4.653245 C -7.2309303,4.657821 -7.2766026,4.047513 -7.2408395,3.626419 C -7.2408395,-0.0011810146 -7.2408395,-3.628781 -7.2408395,-7.2563818 C -7.2479064,-7.5637278 -6.9891532,-7.8355573 -6.696408,-7.8281608 z" display="inline" enable-background="accumulate" overflow="visible" visibility="visible" style="marker:none"/><path id="path2410" fill="url(#linearGradient2416)" fill-opacity="1" fill-rule="evenodd" stroke="#000" stroke-dasharray="none" stroke-dashoffset="0" stroke-linecap="round" stroke-linejoin="round" stroke-miterlimit="4" stroke-opacity="1" stroke-width=".509" marker-end="none" marker-mid="none" marker-start="none" d="M -6.590561,-7.152707 C -1.8664904,-7.152707 2.85758,-7.152707 7.58165,-7.152707 C 7.58165,-3.439354 7.58165,0.27399999 7.58165,3.987354 C 2.85758,3.987354 -1.8664904,3.987354 -6.590561,3.987354 C -6.590561,0.27399999 -6.590561,-3.439354 -6.590561,-7.152707 z" display="inline" enable-background="accumulate" overflow="visible" visibility="visible" style="marker:none"/><path id="path2412" fill="url(#linearGradient2418)" fill-opacity="1" fill-rule="evenodd" stroke="none" stroke-linecap="butt" stroke-linejoin="miter" stroke-opacity="1" stroke-width="1" d="M -6.4286575,-6.9739349 L -6.4286575,0.44388999 C -0.097325264,-0.11395601 2.2721399,-3.721637 7.419744,-4.098559 L 7.419747,-6.9868576 L -6.4286575,-6.9739349 z" opacity=".4"/></g></g></svg>