<svg xmlns="http://www.w3.org/2000/svg" xmlns:svg="http://www.w3.org/2000/svg" xmlns:xlink="http://www.w3.org/1999/xlink" id="svg3005" width="48" height="48" version="1.1"><defs id="defs3007"><linearGradient id="linearGradient3619-875" x1="11.566" x2="15.215" y1="22.292" y2="33.955" gradientTransform="translate(2.9799125,-3.1216548)" gradientUnits="userSpaceOnUse" xlink:href="#linearGradient8265-821-176-38-919-66-249-517"/><linearGradient id="linearGradient8265-821-176-38-919-66-249-517"><stop id="stop2896" offset="0" stop-color="#fff" stop-opacity=".275"/><stop id="stop2898" offset="1" stop-color="#fff" stop-opacity="0"/></linearGradient><linearGradient id="linearGradient3648-139" x1="29.647" x2="29.647" y1="2" y2="43.444" gradientUnits="userSpaceOnUse" xlink:href="#linearGradient3642-252"/><linearGradient id="linearGradient3642-252"><stop id="stop2890" offset="0" stop-color="#fff" stop-opacity="1"/><stop id="stop2892" offset="1" stop-color="#fff" stop-opacity="0"/></linearGradient><radialGradient id="radialGradient3627-206" cx="13.139" cy="25.625" r="13.931" fx="13.139" fy="25.625" gradientTransform="matrix(0,2.6540647,-3.1628087,0,97.182609,-26.675837)" gradientUnits="userSpaceOnUse" xlink:href="#linearGradient3690-708"/><linearGradient id="linearGradient3690-708"><stop id="stop2874" offset="0" stop-color="#e8e8e8" stop-opacity="1"/><stop id="stop2876" offset=".262" stop-color="#d8d8d8" stop-opacity="1"/><stop id="stop2878" offset=".661" stop-color="#c2c2c2" stop-opacity="1"/><stop id="stop2880" offset="1" stop-color="#a5a5a5" stop-opacity="1"/></linearGradient><linearGradient id="linearGradient3629-730" x1="21.483" x2="21.483" y1="36.255" y2="9.58" gradientTransform="matrix(1.6508808,0,0,1.6568311,-11.466494,-15.045759)" gradientUnits="userSpaceOnUse" xlink:href="#linearGradient3603-635"/><linearGradient id="linearGradient3603-635"><stop id="stop2884" offset="0" stop-color="#707070" stop-opacity="1"/><stop id="stop2886" offset="1" stop-color="#9e9e9e" stop-opacity="1"/></linearGradient><linearGradient id="linearGradient8838-894"><stop id="stop2868" offset="0" stop-color="#000" stop-opacity="1"/><stop id="stop2870" offset="1" stop-color="#000" stop-opacity="0"/></linearGradient><radialGradient id="radialGradient3003" cx="62.625" cy="4.625" r="10.625" fx="62.625" fy="4.625" gradientTransform="matrix(2.1647059,0,0,0.84705771,-111.56471,35.082353)" gradientUnits="userSpaceOnUse" xlink:href="#linearGradient8838-894"/></defs><metadata id="metadata3010"/><g id="layer1"><path id="path8836" fill="url(#radialGradient3003)" fill-opacity="1" fill-rule="evenodd" stroke="none" stroke-width="1" d="m 47,39 c 0,4.970563 -10.297453,9 -23,9 -12.702548,0 -23,-4.029437 -23,-9 0,-4.970563 10.297452,-9 23,-9 12.702547,0 23,4.029437 23,9 l 0,0 z" display="inline" opacity=".3" overflow="visible" visibility="visible" style="marker:none"/><path id="path1307" fill="url(#radialGradient3627-206)" fill-opacity="1" fill-rule="nonzero" stroke="url(#linearGradient3629-730)" stroke-dasharray="none" stroke-dashoffset="0" stroke-linecap="butt" stroke-linejoin="round" stroke-miterlimit="4" stroke-opacity="1" stroke-width=".992" d="m 23.999999,1.4961347 c 1.518797,0 6.415369,12.2754723 7.644103,13.1714173 1.228732,0.895944 14.374596,1.776317 14.843931,3.225986 0.469334,1.449669 -9.650283,9.916699 -10.119617,11.366368 -0.469334,1.449669 2.758685,14.269241 1.529951,15.165186 -1.228733,0.895944 -12.379571,-6.146615 -13.89837,-6.146615 -1.518797,0 -12.669635,7.042559 -13.898369,6.146615 C 8.8728956,43.529147 12.100914,30.709574 11.63158,29.259906 11.162246,27.810237 1.0426298,19.343205 1.5119642,17.893536 1.9812985,16.443869 15.127162,15.563496 16.355896,14.667552 17.584628,13.771607 22.481202,1.4961347 23.999999,1.4961347 z" display="inline" overflow="visible" visibility="visible" style="marker:none"/><path id="path11014" fill="none" stroke="#fff" stroke-dasharray="none" stroke-linecap="butt" stroke-linejoin="miter" stroke-miterlimit="4" stroke-opacity="1" stroke-width="1" d="m 36.457966,42.854576 c 0,0 -4.318414,-3.742625 -10.076299,-4.894202" display="inline" opacity=".3"/><path id="path11985" fill="none" stroke="#fff" stroke-dasharray="none" stroke-linecap="butt" stroke-linejoin="miter" stroke-miterlimit="4" stroke-opacity="1" stroke-width="1" d="m 11.175618,42.854576 c 0,0 4.318413,-3.742625 10.076298,-4.894202" display="inline" opacity=".3"/><path id="path1309" fill="none" stroke="url(#linearGradient3648-139)" stroke-dasharray="none" stroke-dashoffset="0" stroke-linecap="butt" stroke-linejoin="round" stroke-miterlimit="4" stroke-opacity="1" stroke-width="1" d="m 24,2.5 c 2.255601,4.3171106 4.478429,8.952433 6.73403,13.269542 4.843973,0.789864 10.26201,1.380836 14.771263,2.50542 -3.449934,3.457984 -6.875961,7.131147 -10.325895,10.589132 0.738138,4.805274 1.213021,9.259541 1.95116,14.064815 C 32.742781,40.748952 28.355003,38.568994 23.967226,36.389035 19.579447,38.568994 15.19167,40.748952 10.803892,42.928909 11.542029,38.123635 11.929163,33.581617 12.6673,28.776343 9.2173666,25.318358 5.9355586,21.692246 2.4856257,18.234262 7.329597,17.444398 12.356449,16.559406 17.20042,15.769542 19.456021,11.452433 21.744398,6.8171106 24,2.5 z" display="inline" opacity=".4" overflow="visible" visibility="visible" style="marker:none"/><path id="path3382" fill="url(#linearGradient3619-875)" fill-opacity="1" fill-rule="nonzero" stroke="none" stroke-width="1" d="m 24.023909,2.0218291 c 0,0 4.502337,7.4701031 7.020932,13.3173589 4.843973,0.789864 10.309827,1.404745 14.914715,2.720597 0,0 -2.463879,2.468624 -3.480641,3.487759 0,0 -31.782299,5.712288 -31.782299,5.712288 C 7.7999341,24.283482 4.5120994,21.39468 1.9615429,18.048297 5.5144527,16.97153 12.093455,16.105144 16.937426,15.31528 20.29282,7.4118887 24.023909,2.0218291 24.023909,2.0218291 z" display="inline" enable-background="accumulate" opacity=".8" overflow="visible" visibility="visible" style="marker:none"/></g></svg>