<svg xmlns="http://www.w3.org/2000/svg" xmlns:svg="http://www.w3.org/2000/svg" xmlns:xlink="http://www.w3.org/1999/xlink" id="svg2688" width="48" height="48"><defs id="defs2690"><linearGradient id="linearGradient3484"><stop id="stop3486" offset="0" stop-color="#bdbdbd" stop-opacity="1"/><stop id="stop3488" offset="1" stop-color="#d0d0d0" stop-opacity="1"/></linearGradient><radialGradient id="radialGradient3470" cx="3" cy="5.017" r="21" fx="3" fy="5.017" gradientTransform="matrix(-1.274898e-8,1.7142916,-2.159331,-1.4599595e-8,12.809361,2.8570011)" gradientUnits="userSpaceOnUse" xlink:href="#linearGradient3484"/><linearGradient id="linearGradient6404"><stop id="stop6406" offset="0" stop-color="#f9f9f9" stop-opacity="1"/><stop id="stop6408" offset="1" stop-color="#c9c9c9" stop-opacity="1"/></linearGradient><linearGradient id="linearGradient3482" x1="62.989" x2="62.989" y1="13.183" y2="16.19" gradientTransform="translate(-50.940898,0)" gradientUnits="userSpaceOnUse" xlink:href="#linearGradient6404"/><linearGradient id="linearGradient5060-820"><stop id="stop2681" offset="0" stop-color="#000" stop-opacity="1"/><stop id="stop2683" offset="1" stop-color="#000" stop-opacity="0"/></linearGradient><radialGradient id="radialGradient7600-312" cx="605.714" cy="486.648" r="117.143" fx="605.714" fy="486.648" gradientTransform="matrix(-3.2129558e-2,0,0,3.7058823e-2,23.363215,25.412461)" gradientUnits="userSpaceOnUse" xlink:href="#linearGradient5060-820"/><linearGradient id="linearGradient5060-179"><stop id="stop2675" offset="0" stop-color="#000" stop-opacity="1"/><stop id="stop2677" offset="1" stop-color="#000" stop-opacity="0"/></linearGradient><radialGradient id="radialGradient7598-526" cx="605.714" cy="486.648" r="117.143" fx="605.714" fy="486.648" gradientTransform="matrix(3.2129565e-2,0,0,3.7058823e-2,24.636785,25.412461)" gradientUnits="userSpaceOnUse" xlink:href="#linearGradient5060-179"/><linearGradient id="linearGradient5048-585"><stop id="stop2667" offset="0" stop-color="#000" stop-opacity="0"/><stop id="stop2669" offset=".5" stop-color="#000" stop-opacity="1"/><stop id="stop2671" offset="1" stop-color="#000" stop-opacity="0"/></linearGradient><linearGradient id="linearGradient7596-975" x1="302.857" x2="302.857" y1="366.648" y2="609.505" gradientTransform="matrix(8.2840237e-2,0,0,3.7058823e-2,-5.9408285,25.412461)" gradientUnits="userSpaceOnUse" xlink:href="#linearGradient5048-585"/><linearGradient id="linearGradient3390"><stop id="stop3392" offset="0" stop-color="#425e7b" stop-opacity="1"/><stop id="stop3394" offset="1" stop-color="#7a91a7" stop-opacity="1"/></linearGradient><linearGradient id="linearGradient3412" x1="82.453" x2="65.34" y1="45.114" y2="15.944" gradientTransform="translate(-53.765393,-0.1141929)" gradientUnits="userSpaceOnUse" xlink:href="#linearGradient3390"/><linearGradient id="linearGradient7012-661-145-733-759-865-745"><stop id="stop2699" offset="0" stop-color="#9cbbd9" stop-opacity="1"/><stop id="stop2701" offset="1" stop-color="#5c82ab" stop-opacity="1"/></linearGradient><radialGradient id="radialGradient3404" cx="63.969" cy="14.113" r="23.097" fx="63.969" fy="14.113" gradientTransform="matrix(1.5646925,-9.5143002e-8,6.1772287e-8,1.015888,-86.212573,8.1461173)" gradientUnits="userSpaceOnUse" xlink:href="#linearGradient7012-661-145-733-759-865-745"/><linearGradient id="linearGradient6129-963-697-142-998-580-273"><stop id="stop2661" offset="0" stop-color="#0a0a0a" stop-opacity=".498"/><stop id="stop2663" offset="1" stop-color="#0a0a0a" stop-opacity="0"/></linearGradient><linearGradient id="linearGradient6462-657-405" x1="22.935" x2="22.809" y1="49.629" y2="36.658" gradientTransform="matrix(1.1446925,0,0,0.9977536,-3.4661413,1.0988425)" gradientUnits="userSpaceOnUse" xlink:href="#linearGradient6129-963-697-142-998-580-273"/><linearGradient id="linearGradient6087-437-184-795-110-662-495"><stop id="stop2693" offset="0" stop-color="#fff" stop-opacity="1"/><stop id="stop2695" offset="1" stop-color="#fff" stop-opacity="0"/></linearGradient><radialGradient id="radialGradient2442-940-759" cx="7.265" cy="8.302" r="20.98" fx="7.265" fy="8.302" gradientTransform="matrix(0,1.2079744,-1.6271642,0,26.371748,8.2664685)" gradientUnits="userSpaceOnUse" xlink:href="#linearGradient6087-437-184-795-110-662-495"/><linearGradient id="linearGradient8265-821-176-38-919-66-249"><stop id="stop2687" offset="0" stop-color="#fff" stop-opacity="1"/><stop id="stop2689" offset="1" stop-color="#fff" stop-opacity="0"/></linearGradient><linearGradient id="linearGradient3466" x1="11.566" x2="15.215" y1="22.292" y2="33.955" gradientUnits="userSpaceOnUse" xlink:href="#linearGradient8265-821-176-38-919-66-249"/><filter id="filter10131"><feGaussianBlur id="feGaussianBlur10133" stdDeviation=".312"/></filter><linearGradient id="linearGradient6209"><stop id="stop6211" offset="0" stop-color="#96979b" stop-opacity="1"/><stop id="stop6213" offset="1" stop-color="#000" stop-opacity=".341"/></linearGradient><linearGradient id="linearGradient2686" x1="173.096" x2="173.096" y1="75.319" y2="11.949" gradientTransform="matrix(0.9523505,0,0,0.9523505,-117.1021,-1.9494324)" gradientUnits="userSpaceOnUse" xlink:href="#linearGradient6209"/><linearGradient id="linearGradient11104"><stop id="stop11106" offset="0" stop-color="#333" stop-opacity="1"/><stop id="stop11108" offset="1" stop-color="#333" stop-opacity=".612"/></linearGradient><linearGradient id="linearGradient2684" x1="41.542" x2="41.485" y1="68.292" y2="4.536" gradientTransform="matrix(0.272289,0,0,0.272289,-53.175758,9.5832993)" gradientUnits="userSpaceOnUse" xlink:href="#linearGradient11104"/><linearGradient id="linearGradient2300"><stop id="stop2302" offset="0" stop-color="#343435" stop-opacity=".976"/><stop id="stop2304" offset="1" stop-color="#919295" stop-opacity="1"/></linearGradient><linearGradient id="linearGradient2682" x1="173.096" x2="173.096" y1="75.319" y2="11.949" gradientTransform="matrix(0.272289,0,0,0.272289,-88.49468,7.5340783)" gradientUnits="userSpaceOnUse" xlink:href="#linearGradient2300"/><linearGradient id="linearGradient4467"><stop id="stop4469" offset="0" stop-color="#fff" stop-opacity="1"/><stop id="stop4471" offset="1" stop-color="#fff" stop-opacity=".248"/></linearGradient><radialGradient id="radialGradient2680" cx="15.414" cy="13.078" r="6.656" fx="15.414" fy="13.078" gradientTransform="matrix(2.0709796,0,0,1.6093623,-75.801052,-6.777836)" gradientUnits="userSpaceOnUse" xlink:href="#linearGradient4467"/><linearGradient id="linearGradient4454"><stop id="stop4456" offset="0" stop-color="#a1a1a1" stop-opacity=".208"/><stop id="stop4458" offset="1" stop-color="#a1a1a1" stop-opacity=".678"/></linearGradient><radialGradient id="radialGradient2678" cx="18.241" cy="21.818" r="8.309" fx="18.241" fy="21.818" gradientUnits="userSpaceOnUse" xlink:href="#linearGradient4454"/><filter id="filter13078"><feGaussianBlur id="feGaussianBlur13080" stdDeviation=".661"/></filter><linearGradient id="linearGradient12093"><stop id="stop12095" offset="0" stop-color="#fff" stop-opacity="1"/><stop id="stop12097" offset="1" stop-color="#fff" stop-opacity="0"/></linearGradient><linearGradient id="linearGradient2676" x1="277.573" x2="201.871" y1="146.151" y2="67.35" gradientTransform="translate(-127.09317,-2.645081)" gradientUnits="userSpaceOnUse" xlink:href="#linearGradient12093"/><linearGradient id="linearGradient11114"><stop id="stop11116" offset="0" stop-color="#242424" stop-opacity=".992"/><stop id="stop11118" offset="1" stop-color="#656565" stop-opacity="1"/></linearGradient><linearGradient id="linearGradient2674" x1="-172.653" x2="-166.64" y1="99.667" y2="93.654" gradientTransform="translate(258.94136,-13.269885)" gradientUnits="userSpaceOnUse" xlink:href="#linearGradient11114"/></defs><metadata id="metadata2693"/><g id="layer1"><path id="path3468" fill="url(#linearGradient3482)" fill-opacity="1" stroke="url(#radialGradient3470)" stroke-dasharray="none" stroke-linecap="round" stroke-linejoin="round" stroke-miterlimit="4" stroke-opacity="1" stroke-width="1" d="M 5.4999991,8.4999995 C 4.8097281,8.5076711 4.4999991,8.8421456 4.4999991,9.4999995 L 4.4999991,11.506647 L 3.4999991,11.506647 C 2.8097271,11.514319 2.5000001,11.848794 2.5000001,12.506647 C 2.5344111,22.796692 2.5128551,33.22103 2.5000001,43.5 C 41.409595,43.5 45.499998,38.717662 45.499998,18.958166 L 45.499998,12.506647 C 45.499998,11.848794 44.945794,11.498976 44.255519,11.506647 L 21.499999,11.506647 L 21.499999,9.4999995 C 21.499999,8.8421456 21.19027,8.492328 20.499999,8.4999995 L 5.4999991,8.4999995 z" display="inline" opacity="1"/><g id="g7591" opacity=".4" transform="matrix(0.9583333,0,0,0.6666667,1.0000008,15)"><rect id="rect4173" width="40" height="9" x="4" y="39" fill="url(#linearGradient7596-975)" fill-opacity="1" fill-rule="nonzero" stroke="none" stroke-dasharray="none" stroke-dashoffset="0" stroke-linecap="round" stroke-linejoin="miter" stroke-miterlimit="4" stroke-opacity="1" stroke-width="1" marker-end="none" marker-mid="none" marker-start="none" display="inline" opacity="1" overflow="visible" visibility="visible" style="marker:none"/><path id="path5058" fill="url(#radialGradient7598-526)" fill-opacity="1" fill-rule="nonzero" stroke="none" stroke-dasharray="none" stroke-dashoffset="0" stroke-linecap="round" stroke-linejoin="miter" stroke-miterlimit="4" stroke-opacity="1" stroke-width="1" marker-end="none" marker-mid="none" marker-start="none" d="M 44,39.00031 C 44,39.00031 44,47.999814 44,47.999814 C 45.654593,48.016755 48.000001,45.983481 48,43.499483 C 48,41.015484 46.153598,39.00031 44,39.00031 z" display="inline" opacity="1" overflow="visible" visibility="visible" style="marker:none"/><path id="path5018" fill="url(#radialGradient7600-312)" fill-opacity="1" fill-rule="nonzero" stroke="none" stroke-dasharray="none" stroke-dashoffset="0" stroke-linecap="round" stroke-linejoin="miter" stroke-miterlimit="4" stroke-opacity="1" stroke-width="1" marker-end="none" marker-mid="none" marker-start="none" d="M 4,39.00031 C 4,39.00031 4,47.999814 4,47.999814 C 2.3454068,48.016755 0,45.983481 0,43.499483 C 0,41.015484 1.8464008,39.00031 4,39.00031 z" display="inline" opacity="1" overflow="visible" visibility="visible" style="marker:none"/></g><path id="path3388" fill="url(#radialGradient3404)" fill-opacity="1" stroke="url(#linearGradient3412)" stroke-dashoffset="0" stroke-linecap="round" stroke-linejoin="round" stroke-miterlimit="4" stroke-opacity="1" stroke-width="1" d="M 2.1628556,16.525193 C 1.0901486,16.648887 1.6630856,17.927311 1.5775586,18.646205 C 1.9700906,27.116295 2.3664906,35.41566 2.7566056,43.885807 C 3.0984416,44.8515 4.3510406,44.356967 5.1447226,44.479557 C 18.338267,44.479557 31.531812,44.479557 44.725358,44.479557 C 45.814738,44.372906 45.361818,43.071876 45.515058,42.327295 C 45.907598,33.857205 46.303998,25.55784 46.694108,17.087693 C 46.442938,16.133404 45.174598,16.663679 44.430985,16.525193 C 30.341611,16.525193 16.252234,16.525193 2.1628556,16.525193 z" opacity="1"/><path id="path6127" fill="url(#linearGradient6462-657-405)" fill-opacity="1" stroke="none" stroke-dashoffset="0" stroke-linecap="round" stroke-linejoin="round" stroke-miterlimit="4" stroke-opacity="1" stroke-width="1" d="M 2.0582428,16.065146 L 45.954718,16.065549 C 46.588878,16.065549 46.999873,16.51016 46.999873,17.062916 L 45.755637,44.002247 C 45.755637,44.555002 45.245105,45 44.610947,45 L 3.4020122,45 C 2.7678523,45 2.2573195,44.555002 2.2573195,44.002247 L 1.0130886,17.0629 C 1.0130886,16.510143 1.4240829,16.065146 2.0582428,16.065146 z" opacity=".4"/><path id="path2435" fill="none" fill-rule="evenodd" stroke="url(#radialGradient2442-940-759)" stroke-dasharray="none" stroke-linecap="round" stroke-linejoin="round" stroke-miterlimit="4" stroke-opacity="1" stroke-width="1" d="M 46.5,17.5 C 32.96875,17.5 16.03125,17.5 2.5,17.5 C 2.8854167,25.677083 3.2708333,33.854167 3.65625,42.03125" opacity=".4"/><path id="path3455" fill="url(#linearGradient3466)" fill-opacity="1" stroke="none" stroke-dashoffset="0" stroke-linecap="round" stroke-linejoin="round" stroke-miterlimit="4" stroke-opacity="1" stroke-width="1" d="M 45.75,16 C 31.20041,16.073348 16.645416,15.978851 2.09375,16 C 0.28698984,16.411117 1.2593433,18.46661 1.1213236,19.771525 C 1.3433531,23.934872 1.4443903,28.116464 1.7417851,32.268407 C 2.2875034,32.818798 3.1445791,32.275781 3.8320543,32.274247 C 18.023453,29.922415 32.214851,27.570582 46.40625,25.21875 C 47.325421,24.239146 46.684707,22.397997 46.988341,21.089185 C 46.970917,19.577063 47.32392,18.269569 47.063607,16.789526 C 46.834471,16.284964 46.276599,15.988682 45.75,16 z" opacity=".2"/><g id="g2664" transform="translate(69.543475,8.4999)"><g id="g20913" transform="matrix(0.272289,0,0,0.272289,-54.190059,8.0618533)"><path id="path11112" fill="url(#linearGradient2674)" fill-opacity="1" fill-rule="evenodd" stroke="#333" stroke-linecap="round" stroke-linejoin="round" stroke-opacity="1" stroke-width="1" d="M 73.007297,61.163396 L 117.72002,102.77721 L 111.52221,111.1885 L 66.971427,66.173483 L 73.007297,61.163396 z"/><path id="path11122" fill="url(#linearGradient2676)" fill-opacity="1" fill-rule="evenodd" stroke="none" stroke-linecap="butt" stroke-linejoin="miter" stroke-opacity="1" stroke-width="1" d="M 110.63681,109.41771 L 74.7781,64.704998 L 118.16272,102.77721 L 110.63681,109.41771 z" filter="url(#filter13078)"/><path id="path13082" fill="#3e3e3e" fill-opacity="1" stroke="none" stroke-dasharray="none" stroke-linecap="round" stroke-linejoin="round" stroke-miterlimit="4" stroke-opacity="1" stroke-width="1" d="M 248.35479,110.29199 A 5.3124018,2.6562009 0 1 1 237.72999,110.29199 A 5.3124018,2.6562009 0 1 1 248.35479,110.29199 z" transform="matrix(0.7127002,-0.7965472,0.7965472,0.7127002,-146.21519,222.13969)"/></g><path id="path4452" fill="url(#radialGradient2678)" fill-opacity="1" fill-rule="evenodd" stroke="none" stroke-dashoffset="0" stroke-linecap="round" stroke-linejoin="miter" stroke-miterlimit="10" stroke-opacity="1" stroke-width="1.075" marker-end="none" marker-mid="none" marker-start="none" d="M 25.897786,18.478292 A 8.3085051,8.3085051 0 1 1 9.280776,18.478292 A 8.3085051,8.3085051 0 1 1 25.897786,18.478292 z" transform="matrix(1.0040995,0,0,0.9796836,-58.601963,0.9474585)" visibility="visible" style="marker:none"/><path id="path4462" fill="url(#radialGradient2680)" fill-opacity="1" fill-rule="evenodd" stroke="none" stroke-dasharray="none" stroke-dashoffset="0" stroke-linecap="round" stroke-linejoin="miter" stroke-miterlimit="10" stroke-opacity="1" stroke-width="1" marker-end="none" marker-mid="none" marker-start="none" d="M -41.284234,12.043182 C -45.443495,12.043182 -48.811548,15.056636 -48.811548,18.778 C -48.811548,19.852746 -48.475849,20.841614 -47.97518,21.743537 C -46.974914,22.073407 -45.91235,22.297843 -44.78459,22.297843 C -39.855895,22.297843 -35.919678,18.823698 -35.615517,14.482128 C -36.998024,13.020383 -38.978042,12.043182 -41.284234,12.043182 z" display="inline" opacity=".6" overflow="visible" visibility="visible" style="marker:none"/><path id="path2298" fill="url(#linearGradient2682)" fill-opacity="1" stroke="url(#linearGradient2684)" stroke-dasharray="none" stroke-linecap="round" stroke-linejoin="round" stroke-miterlimit="4" stroke-opacity="1" stroke-width=".272" d="M -41.123977,10.922062 C -46.247511,10.922062 -50.407333,14.75785 -50.40733,19.482148 C -50.40733,24.206444 -46.247511,28.042232 -41.123977,28.042233 C -36.000446,28.042233 -31.840624,24.206444 -31.840624,19.482148 C -31.840624,14.75785 -36.000443,10.922062 -41.123977,10.922062 z M -41.01336,11.483658 C -36.427765,11.483658 -32.700036,14.91351 -32.700036,19.141786 C -32.700036,23.370062 -36.427765,26.799914 -41.01336,26.799914 C -45.598957,26.799915 -49.318174,23.370063 -49.318174,19.141786 C -49.318174,14.91351 -45.598957,11.483658 -41.01336,11.483658 z"/><path id="path4267" fill="url(#linearGradient2686)" fill-opacity="1" stroke="none" stroke-dasharray="none" stroke-linecap="round" stroke-linejoin="round" stroke-miterlimit="4" stroke-opacity="1" stroke-width="1" d="M 48.577332,9.920532 C 30.657402,9.920532 16.139832,23.33446 16.139832,39.858033 C 16.139832,56.381604 30.657392,69.795535 48.577332,69.795533 C 66.497262,69.795533 81.046082,56.381602 81.046082,39.858033 C 81.046082,23.334461 66.497252,9.920532 48.577332,9.920532 z M 48.764832,11.076782 C 65.605742,11.076782 79.296082,23.673148 79.296082,39.201783 C 79.296082,54.730415 65.605742,67.326783 48.764832,67.326783 C 31.923912,67.326785 18.264832,54.730417 18.264832,39.201783 C 18.264832,23.673148 31.923912,11.076782 48.764832,11.076782 z" display="inline" filter="url(#filter10131)" transform="matrix(0.272289,0,0,0.272289,-54.291487,8.4675723)"/></g></g></svg>