<svg xmlns="http://www.w3.org/2000/svg" xmlns:svg="http://www.w3.org/2000/svg" xmlns:xlink="http://www.w3.org/1999/xlink" id="svg3439" width="48" height="48"><defs id="defs3441"><linearGradient id="linearGradient3484"><stop id="stop3486" offset="0" stop-color="#bdbdbd" stop-opacity="1"/><stop id="stop3488" offset="1" stop-color="#d0d0d0" stop-opacity="1"/></linearGradient><radialGradient id="radialGradient2594" cx="3" cy="5.017" r="21" fx="3" fy="5.017" gradientTransform="matrix(-1.274898e-8,1.7142916,-2.159331,-1.4599595e-8,12.812715,2.8570011)" gradientUnits="userSpaceOnUse" xlink:href="#linearGradient3484"/><linearGradient id="linearGradient6404"><stop id="stop6406" offset="0" stop-color="#f9f9f9" stop-opacity="1"/><stop id="stop6408" offset="1" stop-color="#c9c9c9" stop-opacity="1"/></linearGradient><linearGradient id="linearGradient3437" x1="12.003" x2="12.003" y1="18" y2="21.003" gradientUnits="userSpaceOnUse" xlink:href="#linearGradient6404"/><radialGradient id="radialGradient7600" cx="605.714" cy="486.648" r="117.143" fx="605.714" fy="486.648" gradientTransform="matrix(-3.2129558e-2,0,0,3.7058823e-2,23.363215,25.412461)" gradientUnits="userSpaceOnUse" xlink:href="#linearGradient5060"/><linearGradient id="linearGradient5060"><stop id="stop5062" offset="0" stop-color="#000" stop-opacity="1"/><stop id="stop5064" offset="1" stop-color="#000" stop-opacity="0"/></linearGradient><radialGradient id="radialGradient7598" cx="605.714" cy="486.648" r="117.143" fx="605.714" fy="486.648" gradientTransform="matrix(3.2129565e-2,0,0,3.7058823e-2,24.636785,25.412461)" gradientUnits="userSpaceOnUse" xlink:href="#linearGradient5060"/><linearGradient id="linearGradient5048"><stop id="stop5050" offset="0" stop-color="#000" stop-opacity="0"/><stop id="stop5056" offset=".5" stop-color="#000" stop-opacity="1"/><stop id="stop5052" offset="1" stop-color="#000" stop-opacity="0"/></linearGradient><linearGradient id="linearGradient7596" x1="302.857" x2="302.857" y1="366.648" y2="609.505" gradientTransform="matrix(8.2840237e-2,0,0,3.7058823e-2,-5.9408285,25.412461)" gradientUnits="userSpaceOnUse" xlink:href="#linearGradient5048"/><linearGradient id="linearGradient3390"><stop id="stop3392" offset="0" stop-color="#425e7b" stop-opacity="1"/><stop id="stop3394" offset="1" stop-color="#7a91a7" stop-opacity="1"/></linearGradient><linearGradient id="linearGradient3413" x1="34.954" x2="25.474" y1="45.114" y2="20.981" gradientUnits="userSpaceOnUse" xlink:href="#linearGradient3390"/><linearGradient id="linearGradient7012-661-145-733-759-865-745"><stop id="stop2699" offset="0" stop-color="#9cbbd9" stop-opacity="1"/><stop id="stop2701" offset="1" stop-color="#5c82ab" stop-opacity="1"/></linearGradient><radialGradient id="radialGradient3429" cx="13.857" cy="19.544" r="24.097" fx="13.857" fy="19.544" gradientTransform="matrix(1.4880117,0,0,0.7912602,-6.7624485,10.821151)" gradientUnits="userSpaceOnUse" xlink:href="#linearGradient7012-661-145-733-759-865-745"/><linearGradient id="linearGradient6129-963-697-142-998"><stop id="stop4661" offset="0" stop-color="#000" stop-opacity=".498"/><stop id="stop4663" offset="1" stop-color="#000" stop-opacity="0"/></linearGradient><linearGradient id="linearGradient2588" x1="22.935" x2="22.809" y1="49.629" y2="36.658" gradientTransform="matrix(1.1446925,0,0,0.8146303,-3.4627884,9.0854578)" gradientUnits="userSpaceOnUse" xlink:href="#linearGradient6129-963-697-142-998"/><linearGradient id="linearGradient8265-821-176-38-919"><stop id="stop4667" offset="0" stop-color="#fff" stop-opacity="1"/><stop id="stop4669" offset="1" stop-color="#fff" stop-opacity="0"/></linearGradient><linearGradient id="linearGradient2585" x1="13.08" x2="16.362" y1="20.73" y2="32.979" gradientTransform="matrix(1.1446925,0,0,0.8040948,-3.4627884,9.2434909)" gradientUnits="userSpaceOnUse" xlink:href="#linearGradient8265-821-176-38-919"/><linearGradient id="linearGradient6087-437-184-795-110"><stop id="stop4655" offset="0" stop-color="#fff" stop-opacity="1"/><stop id="stop4657" offset="1" stop-color="#fff" stop-opacity="0"/></linearGradient><radialGradient id="radialGradient2582" cx="7.265" cy="8.302" r="20.98" fx="7.265" fy="8.302" gradientTransform="matrix(0,0.9862682,-1.6271642,0,26.375101,14.93757)" gradientUnits="userSpaceOnUse" xlink:href="#linearGradient6087-437-184-795-110"/></defs><metadata id="metadata3444"/><g id="layer1"><path id="path6387" fill="url(#linearGradient3437)" fill-opacity="1" stroke="url(#radialGradient2594)" stroke-dasharray="none" stroke-linecap="round" stroke-linejoin="round" stroke-miterlimit="4" stroke-opacity="1" stroke-width="1" d="M 5.5033529,8.4999995 C 4.8130812,8.5076711 4.5033529,8.8421456 4.5033529,9.4999995 L 4.5033529,11.506647 L 3.5033529,11.506647 C 2.8130801,11.514319 2.503353,11.848794 2.503353,12.506647 C 2.5377645,22.796692 2.5162089,33.22103 2.503353,43.5 C 41.412949,43.5 45.503352,38.717662 45.503352,18.958166 L 45.503352,12.506647 C 45.503352,11.848794 44.949148,11.498976 44.258873,11.506647 L 21.503353,11.506647 L 21.503353,9.4999995 C 21.503353,8.8421456 21.193624,8.492328 20.503353,8.4999995 L 5.5033529,8.4999995 z" display="inline" opacity="1"/><g id="g2530" opacity=".4" transform="matrix(0.9583333,0,0,0.6666667,1.0033537,15)"><rect id="rect2532" width="40" height="9" x="4" y="39" fill="url(#linearGradient7596)" fill-opacity="1" fill-rule="nonzero" stroke="none" stroke-dasharray="none" stroke-dashoffset="0" stroke-linecap="round" stroke-linejoin="miter" stroke-miterlimit="4" stroke-opacity="1" stroke-width="1" marker-end="none" marker-mid="none" marker-start="none" display="inline" opacity="1" overflow="visible" visibility="visible" style="marker:none"/><path id="path2534" fill="url(#radialGradient7598)" fill-opacity="1" fill-rule="nonzero" stroke="none" stroke-dasharray="none" stroke-dashoffset="0" stroke-linecap="round" stroke-linejoin="miter" stroke-miterlimit="4" stroke-opacity="1" stroke-width="1" marker-end="none" marker-mid="none" marker-start="none" d="M 44,39.00031 C 44,39.00031 44,47.999814 44,47.999814 C 45.654593,48.016755 48.000001,45.983481 48,43.499483 C 48,41.015484 46.153598,39.00031 44,39.00031 z" display="inline" opacity="1" overflow="visible" visibility="visible" style="marker:none"/><path id="path2536" fill="url(#radialGradient7600)" fill-opacity="1" fill-rule="nonzero" stroke="none" stroke-dasharray="none" stroke-dashoffset="0" stroke-linecap="round" stroke-linejoin="miter" stroke-miterlimit="4" stroke-opacity="1" stroke-width="1" marker-end="none" marker-mid="none" marker-start="none" d="M 4,39.00031 C 4,39.00031 4,47.999814 4,47.999814 C 2.3454068,48.016755 0,45.983481 0,43.499483 C 0,41.015484 1.8464008,39.00031 4,39.00031 z" display="inline" opacity="1" overflow="visible" visibility="visible" style="marker:none"/></g><path id="path7314" fill="url(#radialGradient3429)" fill-opacity="1" stroke="url(#linearGradient3413)" stroke-dashoffset="0" stroke-linecap="round" stroke-linejoin="round" stroke-miterlimit="4" stroke-opacity="1" stroke-width="1" d="M 1.0653529,21.5 C -0.0073542458,21.600992 0.56587995,22.779221 0.48035285,23.366173 C 0.78081396,24.583142 2.4567753,42.800041 2.6596029,44.11273 C 3.0014388,44.901183 4.2540374,44.497415 5.0477197,44.597505 C 18.241264,44.597505 31.434809,44.597505 44.628353,44.597505 C 45.717732,44.510429 45.26481,43.448184 45.418056,42.84026 C 45.480123,41.955713 47.124622,28.100499 47.597353,22.093703 C 47.346181,21.31456 46.109606,21.5 45.334353,21.5 C 31.244975,21.5 15.154731,21.5 1.0653529,21.5 z" opacity="1"/><path id="path2541" fill="url(#linearGradient2588)" fill-opacity="1" stroke="none" stroke-dashoffset="0" stroke-linecap="round" stroke-linejoin="round" stroke-miterlimit="4" stroke-opacity="1" stroke-width="1" d="M 1.0613529,21.304912 L 46.958353,21.305242 C 47.592513,21.305242 48.003353,21.668251 48.003353,22.119556 L 45.75899,44.114561 C 45.75899,44.565866 45.248458,44.929191 44.6143,44.929191 L 3.4053651,44.929191 C 2.7712052,44.929191 2.2606724,44.565866 2.2606724,44.114561 L 0.016352854,22.119543 C 0.016352854,21.668237 0.42719295,21.304912 1.0613529,21.304912 z" opacity=".4"/><path id="path8263" fill="url(#linearGradient2585)" fill-opacity="1" stroke="none" stroke-dashoffset="0" stroke-linecap="round" stroke-linejoin="round" stroke-miterlimit="4" stroke-opacity="1" stroke-width="1" d="M 1.0613529,21 L 46.958353,21 C 47.592513,21 48.003353,21.663907 48.003353,22.109377 L 47.543353,28.112292 L 0.70035285,33.94083 L 0.016352854,22.109006 C 0.016352854,21.663538 0.42719295,21 1.0613529,21 z" opacity=".2"/><path id="path2544" fill="none" fill-rule="evenodd" stroke="url(#radialGradient2582)" stroke-dasharray="none" stroke-linecap="round" stroke-linejoin="round" stroke-miterlimit="4" stroke-opacity="1" stroke-width="1" d="M 46.503353,22.5 C 32.972103,22.5 15.034603,22.5 1.5033529,22.5 C 1.7235372,23.393165 3.4305627,42.190463 3.7333632,43.661942" opacity=".4"/></g></svg>