<svg xmlns="http://www.w3.org/2000/svg" xmlns:svg="http://www.w3.org/2000/svg" xmlns:xlink="http://www.w3.org/1999/xlink" id="svg44406" width="48" height="48" version="1.0"><defs id="defs44408"><radialGradient id="radialGradient2647" cx="34.828" cy="65.617" r="42.271" fx="34.828" fy="65.617" gradientTransform="matrix(0.1481826,1.0256881e-2,-8.9467794e-3,0.1326541,2.7080247,-1.8757458)" gradientUnits="userSpaceOnUse" xlink:href="#linearGradient4342"/><linearGradient id="linearGradient2645" x1="20.253" x2="5.525" y1="40.523" y2="11.735" gradientTransform="matrix(0.3333929,0,0,0.3359124,2.9801845,-1.4923359)" gradientUnits="userSpaceOnUse" xlink:href="#linearGradient4157-401"/><linearGradient id="linearGradient3997"><stop id="stop3999" offset="0" stop-color="#f3f7fa" stop-opacity="1"/><stop id="stop4001" offset="1" stop-color="#fdfeff" stop-opacity="1"/></linearGradient><linearGradient id="linearGradient2623" x1=".633" x2="79.104" y1="3.09" y2="170.289" gradientTransform="matrix(0.235535,0,5.2452621e-8,0.2044822,25.094409,19.932949)" gradientUnits="userSpaceOnUse" xlink:href="#linearGradient3997"/><linearGradient id="linearGradient4342"><stop id="stop4344" offset="0" stop-color="#6e8d5d" stop-opacity="1"/><stop id="stop4350" offset=".5" stop-color="#a2ac34" stop-opacity=".498"/><stop id="stop4352" offset=".75" stop-color="#cbbd40" stop-opacity=".247"/><stop id="stop4354" offset=".875" stop-color="#dbc146" stop-opacity=".122"/><stop id="stop4346" offset="1" stop-color="#ff480f" stop-opacity=".133"/></linearGradient><linearGradient id="linearGradient4157-401"><stop id="stop3688" offset="0" stop-color="#262626" stop-opacity="1"/><stop id="stop3690" offset="1" stop-color="#828282" stop-opacity="1"/></linearGradient><linearGradient id="linearGradient3484"><stop id="stop3486" offset="0" stop-color="#bdbdbd" stop-opacity="1"/><stop id="stop3488" offset="1" stop-color="#d0d0d0" stop-opacity="1"/></linearGradient><radialGradient id="radialGradient2452" cx="3" cy="5.017" r="21" fx="3" fy="5.017" gradientTransform="matrix(-1.274898e-8,1.7142916,-2.159331,-1.4599595e-8,12.809361,2.8570011)" gradientUnits="userSpaceOnUse" xlink:href="#linearGradient3484"/><linearGradient id="linearGradient6404"><stop id="stop6406" offset="0" stop-color="#f9f9f9" stop-opacity="1"/><stop id="stop6408" offset="1" stop-color="#c9c9c9" stop-opacity="1"/></linearGradient><linearGradient id="linearGradient2450" x1="62.989" x2="62.989" y1="13.183" y2="16.19" gradientTransform="translate(-50.940898,0)" gradientUnits="userSpaceOnUse" xlink:href="#linearGradient6404"/><linearGradient id="linearGradient5048-585"><stop id="stop2667" offset="0" stop-color="#000" stop-opacity="0"/><stop id="stop2669" offset=".5" stop-color="#000" stop-opacity="1"/><stop id="stop2671" offset="1" stop-color="#000" stop-opacity="0"/></linearGradient><linearGradient id="linearGradient2467" x1="302.857" x2="302.857" y1="366.648" y2="609.505" gradientTransform="matrix(7.9388558e-2,0,0,2.4705883e-2,-4.693293,31.941642)" gradientUnits="userSpaceOnUse" xlink:href="#linearGradient5048-585"/><linearGradient id="linearGradient5060-179"><stop id="stop2675" offset="0" stop-color="#000" stop-opacity="1"/><stop id="stop2677" offset="1" stop-color="#000" stop-opacity="0"/></linearGradient><radialGradient id="radialGradient2464" cx="605.714" cy="486.648" r="117.143" fx="605.714" fy="486.648" gradientTransform="matrix(3.0790832e-2,0,0,2.4705883e-2,24.610252,31.941642)" gradientUnits="userSpaceOnUse" xlink:href="#linearGradient5060-179"/><linearGradient id="linearGradient5060-820"><stop id="stop2681" offset="0" stop-color="#000" stop-opacity="1"/><stop id="stop2683" offset="1" stop-color="#000" stop-opacity="0"/></linearGradient><radialGradient id="radialGradient2461" cx="605.714" cy="486.648" r="117.143" fx="605.714" fy="486.648" gradientTransform="matrix(-3.0790825e-2,0,0,2.4705883e-2,23.389748,31.941642)" gradientUnits="userSpaceOnUse" xlink:href="#linearGradient5060-820"/><linearGradient id="linearGradient3390"><stop id="stop3392" offset="0" stop-color="#425e7b" stop-opacity="1"/><stop id="stop3394" offset="1" stop-color="#7a91a7" stop-opacity="1"/></linearGradient><linearGradient id="linearGradient2443" x1="82.453" x2="82.453" y1="45.114" y2="16.047" gradientTransform="translate(-53.765393,-0.1141929)" gradientUnits="userSpaceOnUse" xlink:href="#linearGradient3390"/><linearGradient id="linearGradient7012-661-145-733-759-865-745"><stop id="stop2699" offset="0" stop-color="#9cbbd9" stop-opacity="1"/><stop id="stop2701" offset="1" stop-color="#5c82ab" stop-opacity="1"/></linearGradient><radialGradient id="radialGradient2441" cx="63.969" cy="14.113" r="23.097" fx="63.969" fy="14.113" gradientTransform="matrix(1.5646925,-9.5143002e-8,6.1772287e-8,1.015888,-86.212573,8.1461173)" gradientUnits="userSpaceOnUse" xlink:href="#linearGradient7012-661-145-733-759-865-745"/><linearGradient id="linearGradient6129-963-697-142-998-580-273"><stop id="stop2661" offset="0" stop-color="#0a0a0a" stop-opacity=".498"/><stop id="stop2663" offset="1" stop-color="#0a0a0a" stop-opacity="0"/></linearGradient><linearGradient id="linearGradient2438" x1="22.935" x2="22.809" y1="49.629" y2="36.658" gradientTransform="matrix(1.1446925,0,0,0.9977536,-3.4661413,1.0988425)" gradientUnits="userSpaceOnUse" xlink:href="#linearGradient6129-963-697-142-998-580-273"/><linearGradient id="linearGradient6087-437-184-795-110-662-495"><stop id="stop2693" offset="0" stop-color="#fff" stop-opacity=".4"/><stop id="stop2695" offset="1" stop-color="#fff" stop-opacity="0"/></linearGradient><radialGradient id="radialGradient2435" cx="7.265" cy="8.302" r="20.98" fx="7.265" fy="8.302" gradientTransform="matrix(0,1.2079744,-1.6271642,0,26.371748,8.2664685)" gradientUnits="userSpaceOnUse" xlink:href="#linearGradient6087-437-184-795-110-662-495"/><linearGradient id="linearGradient8265-821-176-38-919-66-249"><stop id="stop2687" offset="0" stop-color="#fff" stop-opacity=".2"/><stop id="stop2689" offset="1" stop-color="#fff" stop-opacity="0"/></linearGradient><linearGradient id="linearGradient2432" x1="11.566" x2="15.215" y1="22.292" y2="33.955" gradientUnits="userSpaceOnUse" xlink:href="#linearGradient8265-821-176-38-919-66-249"/><linearGradient id="linearGradient2726" x1=".633" x2="79.104" y1="3.09" y2="170.289" gradientTransform="matrix(0.235535,0,5.2452622e-8,0.2044822,0.7671839,26.622143)" gradientUnits="userSpaceOnUse" xlink:href="#linearGradient3997"/><radialGradient id="radialGradient2729" cx="34.828" cy="65.617" r="42.271" fx="34.828" fy="65.617" gradientTransform="matrix(0.2311079,1.5934467e-2,-1.3953537e-2,0.2060833,25.801404,20.684807)" gradientUnits="userSpaceOnUse" xlink:href="#linearGradient4342"/><linearGradient id="linearGradient2732" x1="20.253" x2="5.525" y1="40.523" y2="11.735" gradientTransform="matrix(0.5199648,0,0,0.5218531,26.225869,21.280449)" gradientUnits="userSpaceOnUse" xlink:href="#linearGradient4157-401"/></defs><g id="layer1"><path id="path3468" fill="url(#linearGradient2450)" fill-opacity="1" stroke="url(#radialGradient2452)" stroke-dasharray="none" stroke-linecap="round" stroke-linejoin="round" stroke-miterlimit="4" stroke-opacity="1" stroke-width="1" d="M 5.4999991,8.4999995 C 4.8097281,8.5076711 4.4999991,8.8421456 4.4999991,9.4999995 L 4.4999991,11.506647 C 2.5161375,11.506647 2.5000001,11.647147 2.5000001,12.506647 C 2.5344111,22.796692 2.5000001,23.376785 2.5000001,24.25043 C 3.9354707,24.25043 45.499998,20.550698 45.499998,18.958166 L 45.499998,12.506647 C 45.499998,11.848794 44.945794,11.498976 44.255519,11.506647 L 21.499999,11.506647 L 21.499999,9.4999995 C 21.499999,8.8421456 21.19027,8.492328 20.499999,8.4999995 L 5.4999991,8.4999995 z" display="inline"/><rect id="rect4173" width="38.333" height="6" x="4.833" y="41" fill="url(#linearGradient2467)" fill-opacity="1" fill-rule="nonzero" stroke="none" stroke-dasharray="none" stroke-dashoffset="0" stroke-linecap="round" stroke-linejoin="miter" stroke-miterlimit="4" stroke-opacity="1" stroke-width="1" marker-end="none" marker-mid="none" marker-start="none" display="inline" opacity=".3" overflow="visible" visibility="visible" style="marker:none"/><path id="path5058" fill="url(#radialGradient2464)" fill-opacity="1" fill-rule="nonzero" stroke="none" stroke-dasharray="none" stroke-dashoffset="0" stroke-linecap="round" stroke-linejoin="miter" stroke-miterlimit="4" stroke-opacity="1" stroke-width="1" marker-end="none" marker-mid="none" marker-start="none" d="M 43.166666,41.000208 C 43.166666,41.000208 43.166666,46.999878 43.166666,46.999878 C 44.752318,47.011172 47,45.655656 46.999999,43.999657 C 46.999999,42.343657 45.230531,41.000208 43.166666,41.000208 z" display="inline" opacity=".3" overflow="visible" visibility="visible" style="marker:none"/><path id="path5018" fill="url(#radialGradient2461)" fill-opacity="1" fill-rule="nonzero" stroke="none" stroke-dasharray="none" stroke-dashoffset="0" stroke-linecap="round" stroke-linejoin="miter" stroke-miterlimit="4" stroke-opacity="1" stroke-width="1" marker-end="none" marker-mid="none" marker-start="none" d="M 4.833334,41.000208 C 4.833334,41.000208 4.833334,46.999878 4.833334,46.999878 C 3.2476822,47.011172 1.0000008,45.655656 1.0000008,43.999657 C 1.0000008,42.343657 2.7694682,41.000208 4.833334,41.000208 z" display="inline" opacity=".3" overflow="visible" visibility="visible" style="marker:none"/><path id="path3388" fill="url(#radialGradient2441)" fill-opacity="1" stroke="url(#linearGradient2443)" stroke-dashoffset="0" stroke-linecap="round" stroke-linejoin="round" stroke-miterlimit="4" stroke-opacity="1" stroke-width="1" d="M 2.1628556,16.525193 C 1.0901486,16.648887 1.6630856,17.927311 1.5775586,18.646205 C 1.7020414,19.110781 2.5053859,43.063325 2.5053859,43.885807 C 2.5053859,44.600671 2.8572396,44.479557 3.7487803,44.479557 C 16.942325,44.479557 31.531812,44.479557 44.725358,44.479557 C 45.685801,44.501843 45.482824,44.491174 45.482824,43.874533 C 45.553023,43.559678 46.476175,17.499307 46.51171,17.087693 C 46.51171,16.654289 46.601896,16.525193 46.038369,16.525193 C 31.948995,16.525193 16.252234,16.525193 2.1628556,16.525193 z"/><path id="path6127" fill="url(#linearGradient2438)" fill-opacity="1" stroke="none" stroke-dashoffset="0" stroke-linecap="round" stroke-linejoin="round" stroke-miterlimit="4" stroke-opacity="1" stroke-width="1" d="M 2.0582428,16.065146 L 45.954718,16.065549 C 46.588878,16.065549 46.999873,16.51016 46.999873,17.062916 L 45.96746,44.023288 C 45.982125,44.72269 45.758371,45 45.02156,44.985335 L 3.2408415,44.967766 C 2.6066816,44.967766 1.9672123,44.555002 1.9672123,44.002247 L 1.0130886,17.0629 C 1.0130886,16.510143 1.4240829,16.065146 2.0582428,16.065146 z" opacity=".4"/><path id="path2435" fill="none" fill-rule="evenodd" stroke="url(#radialGradient2435)" stroke-dasharray="none" stroke-linecap="round" stroke-linejoin="round" stroke-miterlimit="4" stroke-opacity="1" stroke-width="1" d="M 46.5,17.5 C 32.96875,17.5 16.03125,17.5 2.5,17.5 C 2.8854167,25.677083 3.2708333,33.854167 3.65625,42.03125"/><path id="path3455" fill="url(#linearGradient2432)" fill-opacity="1" stroke="none" stroke-dashoffset="0" stroke-linecap="round" stroke-linejoin="round" stroke-miterlimit="4" stroke-opacity="1" stroke-width="1" d="M 46.114796,16.0228 C 31.565206,16.096148 16.645416,15.978851 2.09375,16 C 0.28698984,16.411117 1.2593433,18.46661 1.1213236,19.771525 C 1.3433531,23.934872 1.4443903,28.116464 1.7417851,32.268407 C 16.742298,29.905609 31.66833,27.661153 46.40625,25.21875 C 47.187241,22.632172 46.97703,17.963572 47.018007,17.017524 C 47.096668,16.341963 46.641395,16.011482 46.114796,16.0228 z"/></g><rect id="rect2629" width="20.904" height="20.912" x="-.687" y="32.314" fill="url(#linearGradient2726)" fill-opacity="1" stroke="#909090" stroke-dasharray="none" stroke-linecap="round" stroke-linejoin="round" stroke-miterlimit="4" stroke-opacity=".969" stroke-width="1.007" transform="matrix(0.8651564,-0.5015022,0.4981719,0.8670783,0,0)"/><g id="g2631" transform="matrix(1.3506668,-0.7798078,0.7767696,1.3454044,12.710697,27.639385)"><rect id="rect2633" width="10.867" height="9.622" x="2.578" y="2.567" fill="url(#linearGradient2645)" fill-opacity="1" stroke="#333" stroke-dasharray="none" stroke-linecap="round" stroke-linejoin="round" stroke-miterlimit="4" stroke-opacity=".969" stroke-width=".656" rx="0" ry="0" transform="matrix(0.9999984,-1.7885069e-3,-2.0470491e-3,0.9999979,0,0)"/><rect id="rect2635" width="10.867" height="9.622" x="2.578" y="2.567" fill="url(#radialGradient2647)" fill-opacity="1" stroke="none" stroke-dasharray="none" stroke-linecap="round" stroke-linejoin="round" stroke-miterlimit="4" stroke-opacity="1" stroke-width="1" opacity=".35" rx="0" ry="0" transform="matrix(0.9999984,-1.7885069e-3,-2.0470491e-3,0.9999979,0,0)"/></g><rect id="rect2722" width="20.904" height="20.912" x="23.64" y="25.625" fill="url(#linearGradient2623)" fill-opacity="1" stroke="#909090" stroke-dasharray="none" stroke-linecap="round" stroke-linejoin="round" stroke-miterlimit="4" stroke-opacity=".969" stroke-width="1.007" transform="matrix(0.9999985,-1.7354741e-3,-2.1096025e-3,0.9999978,0,0)"/><rect id="rect2726" width="16.948" height="14.949" x="25.598" y="27.586" fill="url(#linearGradient2732)" fill-opacity="1" stroke="#333" stroke-dasharray="none" stroke-linecap="round" stroke-linejoin="round" stroke-miterlimit="4" stroke-opacity=".969" stroke-width="1.021" rx="0" ry="0" transform="matrix(0.9999984,-1.7815386e-3,-2.0550559e-3,0.9999979,0,0)"/><rect id="rect2728" width="16.948" height="14.949" x="25.598" y="27.586" fill="url(#radialGradient2729)" fill-opacity="1" stroke="none" stroke-dasharray="none" stroke-linecap="round" stroke-linejoin="round" stroke-miterlimit="4" stroke-opacity="1" stroke-width="1" opacity=".35" rx="0" ry="0" transform="matrix(0.9999984,-1.7815386e-3,-2.0550559e-3,0.9999979,0,0)"/></svg>