<svg xmlns="http://www.w3.org/2000/svg" xmlns:svg="http://www.w3.org/2000/svg" xmlns:xlink="http://www.w3.org/1999/xlink" id="svg3316" width="48" height="48" version="1.0"><defs id="defs3318"><linearGradient id="linearGradient8265-821-176-38-919-66-249"><stop id="stop2687" offset="0" stop-color="#fff" stop-opacity=".2"/><stop id="stop2689" offset="1" stop-color="#fff" stop-opacity="0"/></linearGradient><linearGradient id="linearGradient2432" x1="11.566" x2="15.215" y1="22.292" y2="33.955" gradientUnits="userSpaceOnUse" xlink:href="#linearGradient8265-821-176-38-919-66-249"/><linearGradient id="linearGradient6087-437-184-795-110-662-495"><stop id="stop2693" offset="0" stop-color="#fff" stop-opacity=".4"/><stop id="stop2695" offset="1" stop-color="#fff" stop-opacity="0"/></linearGradient><radialGradient id="radialGradient2435" cx="7.265" cy="8.302" r="20.98" fx="7.265" fy="8.302" gradientTransform="matrix(0,1.2079744,-1.6271642,0,26.371748,8.2664685)" gradientUnits="userSpaceOnUse" xlink:href="#linearGradient6087-437-184-795-110-662-495"/><linearGradient id="linearGradient6129-963-697-142-998-580-273"><stop id="stop2661" offset="0" stop-color="#0a0a0a" stop-opacity=".498"/><stop id="stop2663" offset="1" stop-color="#0a0a0a" stop-opacity="0"/></linearGradient><linearGradient id="linearGradient2438" x1="22.935" x2="22.809" y1="49.629" y2="36.658" gradientTransform="matrix(1.1446925,0,0,0.9977536,-3.4661413,1.0988425)" gradientUnits="userSpaceOnUse" xlink:href="#linearGradient6129-963-697-142-998-580-273"/><linearGradient id="linearGradient3390"><stop id="stop3392" offset="0" stop-color="#425e7b" stop-opacity="1"/><stop id="stop3394" offset="1" stop-color="#7a91a7" stop-opacity="1"/></linearGradient><linearGradient id="linearGradient2443" x1="82.453" x2="82.453" y1="45.114" y2="16.047" gradientTransform="translate(-53.765393,-0.1141929)" gradientUnits="userSpaceOnUse" xlink:href="#linearGradient3390"/><linearGradient id="linearGradient7012-661-145-733-759-865-745"><stop id="stop2699" offset="0" stop-color="#9cbbd9" stop-opacity="1"/><stop id="stop2701" offset="1" stop-color="#5c82ab" stop-opacity="1"/></linearGradient><radialGradient id="radialGradient2441" cx="63.969" cy="14.113" r="23.097" fx="63.969" fy="14.113" gradientTransform="matrix(1.5646925,-9.5143002e-8,6.1772287e-8,1.015888,-86.212573,8.1461173)" gradientUnits="userSpaceOnUse" xlink:href="#linearGradient7012-661-145-733-759-865-745"/><linearGradient id="linearGradient5060-820"><stop id="stop2681" offset="0" stop-color="#000" stop-opacity="1"/><stop id="stop2683" offset="1" stop-color="#000" stop-opacity="0"/></linearGradient><radialGradient id="radialGradient2461" cx="605.714" cy="486.648" r="117.143" fx="605.714" fy="486.648" gradientTransform="matrix(-3.0790825e-2,0,0,2.4705883e-2,23.389748,31.941642)" gradientUnits="userSpaceOnUse" xlink:href="#linearGradient5060-820"/><linearGradient id="linearGradient5060-179"><stop id="stop2675" offset="0" stop-color="#000" stop-opacity="1"/><stop id="stop2677" offset="1" stop-color="#000" stop-opacity="0"/></linearGradient><radialGradient id="radialGradient2464" cx="605.714" cy="486.648" r="117.143" fx="605.714" fy="486.648" gradientTransform="matrix(3.0790832e-2,0,0,2.4705883e-2,24.610252,31.941642)" gradientUnits="userSpaceOnUse" xlink:href="#linearGradient5060-179"/><linearGradient id="linearGradient5048-585"><stop id="stop2667" offset="0" stop-color="#000" stop-opacity="0"/><stop id="stop2669" offset=".5" stop-color="#000" stop-opacity="1"/><stop id="stop2671" offset="1" stop-color="#000" stop-opacity="0"/></linearGradient><linearGradient id="linearGradient2467" x1="302.857" x2="302.857" y1="366.648" y2="609.505" gradientTransform="matrix(7.9388558e-2,0,0,2.4705883e-2,-4.693293,31.941642)" gradientUnits="userSpaceOnUse" xlink:href="#linearGradient5048-585"/><linearGradient id="linearGradient3484"><stop id="stop3486" offset="0" stop-color="#bdbdbd" stop-opacity="1"/><stop id="stop3488" offset="1" stop-color="#d0d0d0" stop-opacity="1"/></linearGradient><radialGradient id="radialGradient2452" cx="3" cy="5.017" r="21" fx="3" fy="5.017" gradientTransform="matrix(-1.274898e-8,1.7142916,-2.159331,-1.4599595e-8,12.809361,2.8570011)" gradientUnits="userSpaceOnUse" xlink:href="#linearGradient3484"/><linearGradient id="linearGradient6404"><stop id="stop6406" offset="0" stop-color="#f9f9f9" stop-opacity="1"/><stop id="stop6408" offset="1" stop-color="#c9c9c9" stop-opacity="1"/></linearGradient><linearGradient id="linearGradient2450" x1="62.989" x2="62.989" y1="13.183" y2="16.19" gradientTransform="translate(-50.940898,0)" gradientUnits="userSpaceOnUse" xlink:href="#linearGradient6404"/><radialGradient id="radialGradient2542" cx="32" cy="41.5" r="21" fx="32" fy="41.5" gradientTransform="matrix(0.5714286,0,0,0.1666667,14.714283,37.583334)" gradientUnits="userSpaceOnUse" xlink:href="#linearGradient5060"/><radialGradient id="radialGradient2537" cx="25" cy="28.66" r="16" fx="25" fy="28.66" gradientTransform="matrix(0.8891139,0,0,0.2643979,7.3850515,29.359857)" gradientUnits="userSpaceOnUse" xlink:href="#linearGradient6954"/><linearGradient id="linearGradient2534" x1="24.349" x2="24.349" y1="57.333" y2="83.733" gradientTransform="matrix(0.6551745,0,0,0.6818225,16.047376,-11.09122)" gradientUnits="userSpaceOnUse" xlink:href="#linearGradient3341"/><linearGradient id="linearGradient6954"><stop id="stop6960" offset="0" stop-color="#f5f5f5" stop-opacity="1"/><stop id="stop6962" offset="1" stop-color="#d2d2d2" stop-opacity="1"/></linearGradient><radialGradient id="radialGradient2529" cx="26.376" cy="12.313" r="8" fx="26.376" fy="12.313" gradientTransform="matrix(0.9841231,-8.459387e-2,7.687018e-2,1.0112316,3.9614759,12.655281)" gradientUnits="userSpaceOnUse" xlink:href="#linearGradient6954"/><linearGradient id="linearGradient2526" x1="22" x2="17" y1="39" y2="37.438" gradientTransform="matrix(0.75,0,0,0.6521739,11.250004,17.226089)" gradientUnits="userSpaceOnUse" xlink:href="#linearGradient5060"/><linearGradient id="linearGradient2523" x1="38" x2="43" y1="39" y2="38.6" gradientTransform="matrix(0.75,0,0,0.6521739,9.7500044,17.226089)" gradientUnits="userSpaceOnUse" xlink:href="#linearGradient5060"/><linearGradient id="linearGradient5060"><stop id="stop5062" offset="0" stop-color="#000" stop-opacity="1"/><stop id="stop5064" offset="1" stop-color="#000" stop-opacity="0"/></linearGradient><radialGradient id="radialGradient2520" cx="30" cy="33.188" r="4.688" fx="30" fy="33.188" gradientTransform="matrix(1.3038704,-4.7098302e-7,1.8183369e-7,0.3072442,-6.11612,26.803347)" gradientUnits="userSpaceOnUse" xlink:href="#linearGradient5060"/><linearGradient id="linearGradient3341"><stop id="stop3343" offset="0" stop-color="#fff" stop-opacity="1"/><stop id="stop3345" offset="1" stop-color="#fff" stop-opacity="0"/></linearGradient><linearGradient id="linearGradient2517" x1="30" x2="30" y1="5.703" y2="27.957" gradientTransform="matrix(0.5410937,0,0,0.603279,16.767194,16.55961)" gradientUnits="userSpaceOnUse" xlink:href="#linearGradient3341"/></defs><g id="layer1"><g id="g3384"><path id="path3468" fill="url(#linearGradient2450)" fill-opacity="1" stroke="url(#radialGradient2452)" stroke-dasharray="none" stroke-linecap="round" stroke-linejoin="round" stroke-miterlimit="4" stroke-opacity="1" stroke-width="1" d="M 5.4999991,8.4999995 C 4.8097281,8.5076711 4.4999991,8.8421456 4.4999991,9.4999995 L 4.4999991,11.506647 C 2.5161375,11.506647 2.5000001,11.647147 2.5000001,12.506647 C 2.5344111,22.796692 2.5000001,23.376785 2.5000001,24.25043 C 3.9354707,24.25043 45.499998,20.550698 45.499998,18.958166 L 45.499998,12.506647 C 45.499998,11.848794 44.945794,11.498976 44.255519,11.506647 L 21.499999,11.506647 L 21.499999,9.4999995 C 21.499999,8.8421456 21.19027,8.492328 20.499999,8.4999995 L 5.4999991,8.4999995 z" display="inline"/><rect id="rect4173" width="38.333" height="6" x="4.833" y="41" fill="url(#linearGradient2467)" fill-opacity="1" fill-rule="nonzero" stroke="none" stroke-dasharray="none" stroke-dashoffset="0" stroke-linecap="round" stroke-linejoin="miter" stroke-miterlimit="4" stroke-opacity="1" stroke-width="1" marker-end="none" marker-mid="none" marker-start="none" display="inline" opacity=".3" overflow="visible" visibility="visible" style="marker:none"/><path id="path5058" fill="url(#radialGradient2464)" fill-opacity="1" fill-rule="nonzero" stroke="none" stroke-dasharray="none" stroke-dashoffset="0" stroke-linecap="round" stroke-linejoin="miter" stroke-miterlimit="4" stroke-opacity="1" stroke-width="1" marker-end="none" marker-mid="none" marker-start="none" d="M 43.166666,41.000208 C 43.166666,41.000208 43.166666,46.999878 43.166666,46.999878 C 44.752318,47.011172 47,45.655656 46.999999,43.999657 C 46.999999,42.343657 45.230531,41.000208 43.166666,41.000208 z" display="inline" opacity=".3" overflow="visible" visibility="visible" style="marker:none"/><path id="path5018" fill="url(#radialGradient2461)" fill-opacity="1" fill-rule="nonzero" stroke="none" stroke-dasharray="none" stroke-dashoffset="0" stroke-linecap="round" stroke-linejoin="miter" stroke-miterlimit="4" stroke-opacity="1" stroke-width="1" marker-end="none" marker-mid="none" marker-start="none" d="M 4.833334,41.000208 C 4.833334,41.000208 4.833334,46.999878 4.833334,46.999878 C 3.2476822,47.011172 1.0000008,45.655656 1.0000008,43.999657 C 1.0000008,42.343657 2.7694682,41.000208 4.833334,41.000208 z" display="inline" opacity=".3" overflow="visible" visibility="visible" style="marker:none"/><path id="path3388" fill="url(#radialGradient2441)" fill-opacity="1" stroke="url(#linearGradient2443)" stroke-dashoffset="0" stroke-linecap="round" stroke-linejoin="round" stroke-miterlimit="4" stroke-opacity="1" stroke-width="1" d="M 2.1628556,16.525193 C 1.0901486,16.648887 1.6630856,17.927311 1.5775586,18.646205 C 1.7020414,19.110781 2.5053859,43.063325 2.5053859,43.885807 C 2.5053859,44.600671 2.8572396,44.479557 3.7487803,44.479557 C 16.942325,44.479557 31.531812,44.479557 44.725358,44.479557 C 45.685801,44.501843 45.482824,44.491174 45.482824,43.874533 C 45.553023,43.559678 46.476175,17.499307 46.51171,17.087693 C 46.51171,16.654289 46.601896,16.525193 46.038369,16.525193 C 31.948995,16.525193 16.252234,16.525193 2.1628556,16.525193 z"/><path id="path6127" fill="url(#linearGradient2438)" fill-opacity="1" stroke="none" stroke-dashoffset="0" stroke-linecap="round" stroke-linejoin="round" stroke-miterlimit="4" stroke-opacity="1" stroke-width="1" d="M 2.0582428,16.065146 L 45.954718,16.065549 C 46.588878,16.065549 46.999873,16.51016 46.999873,17.062916 L 45.96746,44.023288 C 45.982125,44.72269 45.758371,45 45.02156,44.985335 L 3.2408415,44.967766 C 2.6066816,44.967766 1.9672123,44.555002 1.9672123,44.002247 L 1.0130886,17.0629 C 1.0130886,16.510143 1.4240829,16.065146 2.0582428,16.065146 z" opacity=".4"/><path id="path2435" fill="none" fill-rule="evenodd" stroke="url(#radialGradient2435)" stroke-dasharray="none" stroke-linecap="round" stroke-linejoin="round" stroke-miterlimit="4" stroke-opacity="1" stroke-width="1" d="M 46.5,17.5 C 32.96875,17.5 16.03125,17.5 2.5,17.5 C 2.8854167,25.677083 3.2708333,33.854167 3.65625,42.03125"/><path id="path3455" fill="url(#linearGradient2432)" fill-opacity="1" stroke="none" stroke-dashoffset="0" stroke-linecap="round" stroke-linejoin="round" stroke-miterlimit="4" stroke-opacity="1" stroke-width="1" d="M 46.114796,16.0228 C 31.565206,16.096148 16.645416,15.978851 2.09375,16 C 0.28698984,16.411117 1.2593433,18.46661 1.1213236,19.771525 C 1.3433531,23.934872 1.4443903,28.116464 1.7417851,32.268407 C 16.742298,29.905609 31.66833,27.661153 46.40625,25.21875 C 47.187241,22.632172 46.97703,17.963572 47.018007,17.017524 C 47.096668,16.341963 46.641395,16.011482 46.114796,16.0228 z"/></g><path id="path3823" fill="url(#radialGradient2542)" fill-opacity="1" stroke="none" d="M 45,44.5 C 45,46.432997 39.627417,48 33,48 C 26.372583,48 21,46.432997 21,44.5 C 21,42.567003 26.372583,41 33,41 C 39.627417,41 45,42.567003 45,44.5 L 45,44.5 z" opacity=".8"/><path id="path3766" fill="url(#radialGradient2537)" fill-opacity="1" stroke="gray" stroke-dasharray="none" stroke-miterlimit="4" stroke-opacity="1" stroke-width="1" d="M 30.052,29.499986 C 30.363757,31.041838 30.636909,32.208141 30.384,33.749992 C 28.412236,35.460534 23.169847,36.229163 23.177409,37.999999 L 22.499986,43.312508 C 22.499986,45.072917 27.201004,46.500014 32.999999,46.500014 C 38.798998,46.500014 43.500014,45.072917 43.500014,43.312508 L 42.822592,37.999999 C 42.814492,36.484403 37.541581,35.520829 35.594,33.749992 C 35.427642,32.318918 35.66003,30.931061 35.948,29.499986 L 30.052,29.499986 L 30.052,29.499986 z"/><path id="path3894" fill="none" stroke="url(#linearGradient2534)" stroke-dasharray="none" stroke-miterlimit="4" stroke-opacity="1" stroke-width="1" d="M 31.109,30.499954 C 31.316393,31.7181 31.679657,32.997417 31.371,34.209665 C 30.785231,34.944637 29.345881,35.309092 28.519896,35.712316 C 27.117633,36.371594 25.527644,36.723495 24.311987,37.721748 C 24.045174,38.094667 24.133435,38.610415 24.029415,39.050348 C 23.853857,40.41195 23.670957,41.773075 23.499987,43.134974 C 23.872233,43.963325 24.900201,44.210189 25.678327,44.525303 C 28.996041,45.535273 32.52723,45.647949 35.963354,45.363195 C 37.964579,45.143307 40.033641,44.855711 41.817676,43.866069 C 42.366337,43.635582 42.619072,43.101725 42.427249,42.554922 C 42.236756,41.036388 42.017026,39.519685 41.844877,38.000002 C 41.080932,37.215326 39.97009,36.900468 38.99798,36.444985 C 37.654078,35.852653 35.586454,35.340828 34.544,34.266336 C 34.3419,33.059216 34.797539,31.517191 34.735,30.499951 C 33.359882,30.499953 32.484116,30.499947 31.109,30.499954 L 31.109,30.499954 z"/><path id="path3764" fill="url(#radialGradient2529)" fill-opacity="1" stroke="#999" stroke-dasharray="none" stroke-miterlimit="4" stroke-opacity="1" stroke-width="1" d="M 32.999999,19.499889 C 30.514656,19.499889 28.499889,21.499536 28.499889,23.966223 C 28.519369,24.879095 28.592639,25.963554 29.099904,28.432558 C 29.399911,29.389628 32.075833,32.141976 32.099977,32.461 C 32.681793,32.780023 33.600014,32.780023 34.200028,32.461 C 34.200028,32.141976 36.600087,29.389628 36.900094,28.432558 C 37.470934,25.866527 37.469492,24.923295 37.500109,23.966223 C 37.500109,21.499536 35.485342,19.499889 32.999999,19.499889 L 32.999999,19.499889 z"/><path id="path3848" fill="url(#linearGradient2526)" fill-opacity="1" stroke="none" d="M 27,45.4 C 25.228238,44.107264 26.073098,41.237265 26.25,39.4 C 25.500001,40.704348 25.500001,44.617391 24,44.617391 C 25.021958,44.916448 26.06217,45.247254 27,45.4 z" opacity=".3"/><path id="path3850" fill="url(#linearGradient2523)" fill-opacity="1" stroke="none" d="M 39,45.4 C 40.762535,44.262774 39.867541,41.170054 39.749999,39.4 C 40.499999,40.704347 40.499999,44.617391 42,44.617391 C 40.978042,44.916448 39.937828,45.247253 39,45.4 z" opacity=".3"/><path id="path3833" fill="url(#radialGradient2520)" fill-opacity="1" stroke="none" d="M 29,35 C 29.585645,36.163172 31.149469,37 33,37 C 34.850531,37 36.414353,36.163172 37,35 L 29,35 z" opacity=".2"/><path id="path3906" fill="none" stroke="url(#linearGradient2517)" stroke-dasharray="none" stroke-miterlimit="4" stroke-opacity="1" stroke-width="1" d="M 33.000002,20.499776 C 31.421557,20.468313 29.96536,21.66624 29.611933,23.190723 C 29.378759,24.194134 29.567243,25.231381 29.689543,26.237781 C 29.802771,26.90568 29.882067,27.589079 30.065327,28.238532 C 30.734037,29.40204 31.756628,30.308446 32.526544,31.396521 C 32.939447,31.519378 33.606376,31.63792 33.850275,31.198459 C 34.541419,30.179103 35.421492,29.28076 35.976017,28.172749 C 36.274472,26.68041 36.5787,25.157632 36.470502,23.628049 C 36.29848,22.013711 34.908939,20.607181 33.272085,20.510328 C 33.181575,20.503278 33.090747,20.499826 32.999999,20.499777 L 33.000002,20.499776 z" opacity=".7"/></g></svg>