<svg xmlns="http://www.w3.org/2000/svg" xmlns:svg="http://www.w3.org/2000/svg" xmlns:xlink="http://www.w3.org/1999/xlink" id="svg3795" width="48" height="48" version="1.0"><defs id="defs3797"><linearGradient id="linearGradient23419"><stop id="stop23421" offset="0" stop-color="#000" stop-opacity="1"/><stop id="stop23423" offset="1" stop-color="#000" stop-opacity="0"/></linearGradient><linearGradient id="linearGradient3263" x1="12.274" x2="35.391" y1="32.416" y2="14.203" gradientUnits="userSpaceOnUse"><stop id="stop3265" offset="0" stop-color="#dedbde" stop-opacity="1"/><stop id="stop3267" offset=".5" stop-color="#e6e6e6" stop-opacity="1"/><stop id="stop3269" offset="1" stop-color="#d2d2d2" stop-opacity="1"/></linearGradient><linearGradient id="linearGradient3428"><stop id="stop3430" offset="0" stop-color="#aaa" stop-opacity="1"/><stop id="stop3432" offset="1" stop-color="#d4d4d4" stop-opacity="1"/></linearGradient><linearGradient id="linearGradient3519"><stop id="stop3521" offset="0" stop-color="#fcd9cd" stop-opacity="1"/><stop id="stop3523" offset="1" stop-color="#fcd9cd" stop-opacity="0"/></linearGradient><linearGradient id="linearGradient3511"><stop id="stop3513" offset="0" stop-color="#ebeec7" stop-opacity="1"/><stop id="stop3515" offset="1" stop-color="#ebeec7" stop-opacity="0"/></linearGradient><linearGradient id="linearGradient3503"><stop id="stop3505" offset="0" stop-color="#c4ebdd" stop-opacity="1"/><stop id="stop3507" offset="1" stop-color="#c4ebdd" stop-opacity="0"/></linearGradient><linearGradient id="linearGradient3495"><stop id="stop3497" offset="0" stop-color="#c1cbe4" stop-opacity="1"/><stop id="stop3499" offset="1" stop-color="#c1cbe4" stop-opacity="0"/></linearGradient><linearGradient id="linearGradient3487"><stop id="stop3489" offset="0" stop-color="#e6cde2" stop-opacity="1"/><stop id="stop3491" offset="1" stop-color="#e6cde2" stop-opacity="0"/></linearGradient><linearGradient id="linearGradient3772"><stop id="stop3774" offset="0" stop-color="#b4b4b4" stop-opacity="1"/><stop id="stop3776" offset="1" stop-color="#969696" stop-opacity="1"/></linearGradient><linearGradient id="linearGradient6036"><stop id="stop6038" offset="0" stop-color="#fff" stop-opacity="1"/><stop id="stop6040" offset="1" stop-color="#fff" stop-opacity="0"/></linearGradient><linearGradient id="linearGradient3406" x1="18.776" x2="18.203" y1="4.038" y2="45.962" gradientTransform="matrix(0.3283222,0,0,0.3283221,8.0063392,23.791948)" gradientUnits="userSpaceOnUse" xlink:href="#linearGradient6036"/><linearGradient id="linearGradient3409" x1="20.019" x2="20.019" y1="3" y2="45.176" gradientTransform="matrix(0.6585366,0,0,0.6585366,0.195122,16.195122)" gradientUnits="userSpaceOnUse" xlink:href="#linearGradient3772"/><linearGradient id="linearGradient3412" x1="10.502" x2="48.799" y1="3.61" y2="54.698" gradientTransform="matrix(0.6313887,0,0,0.6313887,0.6275783,16.215285)" gradientUnits="userSpaceOnUse" xlink:href="#linearGradient6036"/><linearGradient id="linearGradient3427" x1="21.448" x2="21.448" y1="15.5" y2="32.509" gradientTransform="matrix(0.6875,0,0,0.6875,-0.5000014,15.5)" gradientUnits="userSpaceOnUse" xlink:href="#linearGradient3428"/><linearGradient id="linearGradient3431" x1="12.274" x2="35.391" y1="32.416" y2="14.203" gradientTransform="matrix(0,0.7714354,-0.7714354,0,33.82016,13.485547)" gradientUnits="userSpaceOnUse" xlink:href="#linearGradient3263"/><radialGradient id="radialGradient3434" cx="23.335" cy="41.636" r="22.627" fx="23.335" fy="41.636" gradientTransform="matrix(0.6629126,0,0,0.1988553,0.5312494,34.220454)" gradientUnits="userSpaceOnUse" xlink:href="#linearGradient23419"/><linearGradient id="linearGradient3436" x1="20.58" x2="24.274" y1="10.775" y2="9.862" gradientUnits="userSpaceOnUse" spreadMethod="reflect" xlink:href="#linearGradient3487"/><linearGradient id="linearGradient3438" x1="17.495" x2="21.047" y1="11.2" y2="9.796" gradientUnits="userSpaceOnUse" spreadMethod="reflect" xlink:href="#linearGradient3495"/><linearGradient id="linearGradient3440" x1="14.085" x2="16.994" y1="13.046" y2="10.732" gradientUnits="userSpaceOnUse" spreadMethod="reflect" xlink:href="#linearGradient3503"/><linearGradient id="linearGradient3442" x1="12.372" x2="14.609" y1="16.188" y2="13.462" gradientUnits="userSpaceOnUse" spreadMethod="reflect" xlink:href="#linearGradient3511"/><linearGradient id="linearGradient3444" x1="10.609" x2="9.73" y1="17.886" y2="20.613" gradientUnits="userSpaceOnUse" spreadMethod="reflect" xlink:href="#linearGradient3519"/><linearGradient id="linearGradient3446" x1="20.58" x2="24.274" y1="10.775" y2="9.862" gradientUnits="userSpaceOnUse" spreadMethod="reflect" xlink:href="#linearGradient3487"/><linearGradient id="linearGradient3448" x1="17.495" x2="21.047" y1="11.2" y2="9.796" gradientUnits="userSpaceOnUse" spreadMethod="reflect" xlink:href="#linearGradient3495"/><linearGradient id="linearGradient3450" x1="14.085" x2="16.994" y1="13.046" y2="10.732" gradientUnits="userSpaceOnUse" spreadMethod="reflect" xlink:href="#linearGradient3503"/><linearGradient id="linearGradient3452" x1="12.372" x2="14.609" y1="16.188" y2="13.462" gradientUnits="userSpaceOnUse" spreadMethod="reflect" xlink:href="#linearGradient3511"/><linearGradient id="linearGradient3454" x1="10.609" x2="9.73" y1="17.886" y2="20.613" gradientUnits="userSpaceOnUse" spreadMethod="reflect" xlink:href="#linearGradient3519"/><radialGradient id="radialGradient3137" cx="23.335" cy="41.636" r="22.627" fx="23.335" fy="41.636" gradientTransform="matrix(0.6629126,0,0,0.1988553,8.5312494,26.220454)" gradientUnits="userSpaceOnUse" xlink:href="#linearGradient23419"/><linearGradient id="linearGradient3139" x1="12.274" x2="35.391" y1="32.416" y2="14.203" gradientTransform="matrix(0,0.7714354,-0.7714354,0,33.82016,13.485547)" gradientUnits="userSpaceOnUse" xlink:href="#linearGradient3263"/><linearGradient id="linearGradient3141" x1="20.58" x2="24.274" y1="10.775" y2="9.862" gradientUnits="userSpaceOnUse" spreadMethod="reflect" xlink:href="#linearGradient3487"/><linearGradient id="linearGradient3143" x1="17.495" x2="21.047" y1="11.2" y2="9.796" gradientUnits="userSpaceOnUse" spreadMethod="reflect" xlink:href="#linearGradient3495"/><linearGradient id="linearGradient3145" x1="14.085" x2="16.994" y1="13.046" y2="10.732" gradientUnits="userSpaceOnUse" spreadMethod="reflect" xlink:href="#linearGradient3503"/><linearGradient id="linearGradient3147" x1="12.372" x2="14.609" y1="16.188" y2="13.462" gradientUnits="userSpaceOnUse" spreadMethod="reflect" xlink:href="#linearGradient3511"/><linearGradient id="linearGradient3149" x1="10.609" x2="9.73" y1="17.886" y2="20.613" gradientUnits="userSpaceOnUse" spreadMethod="reflect" xlink:href="#linearGradient3519"/><linearGradient id="linearGradient3151" x1="20.58" x2="24.274" y1="10.775" y2="9.862" gradientUnits="userSpaceOnUse" spreadMethod="reflect" xlink:href="#linearGradient3487"/><linearGradient id="linearGradient3153" x1="17.495" x2="21.047" y1="11.2" y2="9.796" gradientUnits="userSpaceOnUse" spreadMethod="reflect" xlink:href="#linearGradient3495"/><linearGradient id="linearGradient3155" x1="14.085" x2="16.994" y1="13.046" y2="10.732" gradientUnits="userSpaceOnUse" spreadMethod="reflect" xlink:href="#linearGradient3503"/><linearGradient id="linearGradient3157" x1="12.372" x2="14.609" y1="16.188" y2="13.462" gradientUnits="userSpaceOnUse" spreadMethod="reflect" xlink:href="#linearGradient3511"/><linearGradient id="linearGradient3159" x1="10.609" x2="9.73" y1="17.886" y2="20.613" gradientUnits="userSpaceOnUse" spreadMethod="reflect" xlink:href="#linearGradient3519"/><linearGradient id="linearGradient3161" x1="10.502" x2="48.799" y1="3.61" y2="54.698" gradientTransform="matrix(0.6313887,0,0,0.6313887,0.6275783,16.215285)" gradientUnits="userSpaceOnUse" xlink:href="#linearGradient6036"/><linearGradient id="linearGradient3163" x1="20.019" x2="20.019" y1="3" y2="45.176" gradientTransform="matrix(0.6585366,0,0,0.6585366,0.195122,16.195122)" gradientUnits="userSpaceOnUse" xlink:href="#linearGradient3772"/><linearGradient id="linearGradient3165" x1="18.776" x2="18.203" y1="4.038" y2="45.962" gradientTransform="matrix(0.3283222,0,0,0.3283221,8.0063392,23.791948)" gradientUnits="userSpaceOnUse" xlink:href="#linearGradient6036"/><linearGradient id="linearGradient3167" x1="21.448" x2="21.448" y1="15.5" y2="32.509" gradientTransform="matrix(0.6875,0,0,0.6875,-0.5000014,15.5)" gradientUnits="userSpaceOnUse" xlink:href="#linearGradient3428"/><radialGradient id="radialGradient3209" cx="23.335" cy="41.636" r="22.627" fx="23.335" fy="41.636" gradientTransform="matrix(0.6629126,0,0,0.1988553,16.531249,18.220454)" gradientUnits="userSpaceOnUse" xlink:href="#linearGradient23419"/><linearGradient id="linearGradient3211" x1="12.274" x2="35.391" y1="32.416" y2="14.203" gradientTransform="matrix(0,0.7714354,-0.7714354,0,33.82016,13.485547)" gradientUnits="userSpaceOnUse" xlink:href="#linearGradient3263"/><linearGradient id="linearGradient3213" x1="20.58" x2="24.274" y1="10.775" y2="9.862" gradientUnits="userSpaceOnUse" spreadMethod="reflect" xlink:href="#linearGradient3487"/><linearGradient id="linearGradient3215" x1="17.495" x2="21.047" y1="11.2" y2="9.796" gradientUnits="userSpaceOnUse" spreadMethod="reflect" xlink:href="#linearGradient3495"/><linearGradient id="linearGradient3217" x1="14.085" x2="16.994" y1="13.046" y2="10.732" gradientUnits="userSpaceOnUse" spreadMethod="reflect" xlink:href="#linearGradient3503"/><linearGradient id="linearGradient3219" x1="12.372" x2="14.609" y1="16.188" y2="13.462" gradientUnits="userSpaceOnUse" spreadMethod="reflect" xlink:href="#linearGradient3511"/><linearGradient id="linearGradient3221" x1="10.609" x2="9.73" y1="17.886" y2="20.613" gradientUnits="userSpaceOnUse" spreadMethod="reflect" xlink:href="#linearGradient3519"/><linearGradient id="linearGradient3223" x1="20.58" x2="24.274" y1="10.775" y2="9.862" gradientUnits="userSpaceOnUse" spreadMethod="reflect" xlink:href="#linearGradient3487"/><linearGradient id="linearGradient3225" x1="17.495" x2="21.047" y1="11.2" y2="9.796" gradientUnits="userSpaceOnUse" spreadMethod="reflect" xlink:href="#linearGradient3495"/><linearGradient id="linearGradient3227" x1="14.085" x2="16.994" y1="13.046" y2="10.732" gradientUnits="userSpaceOnUse" spreadMethod="reflect" xlink:href="#linearGradient3503"/><linearGradient id="linearGradient3229" x1="12.372" x2="14.609" y1="16.188" y2="13.462" gradientUnits="userSpaceOnUse" spreadMethod="reflect" xlink:href="#linearGradient3511"/><linearGradient id="linearGradient3231" x1="10.609" x2="9.73" y1="17.886" y2="20.613" gradientUnits="userSpaceOnUse" spreadMethod="reflect" xlink:href="#linearGradient3519"/><linearGradient id="linearGradient3233" x1="10.502" x2="48.799" y1="3.61" y2="54.698" gradientTransform="matrix(0.6313887,0,0,0.6313887,0.6275783,16.215285)" gradientUnits="userSpaceOnUse" xlink:href="#linearGradient6036"/><linearGradient id="linearGradient3235" x1="20.019" x2="20.019" y1="3" y2="45.176" gradientTransform="matrix(0.6585366,0,0,0.6585366,0.195122,16.195122)" gradientUnits="userSpaceOnUse" xlink:href="#linearGradient3772"/><linearGradient id="linearGradient3237" x1="18.776" x2="18.203" y1="4.038" y2="45.962" gradientTransform="matrix(0.3283222,0,0,0.3283221,8.0063392,23.791948)" gradientUnits="userSpaceOnUse" xlink:href="#linearGradient6036"/><linearGradient id="linearGradient3239" x1="21.448" x2="21.448" y1="15.5" y2="32.509" gradientTransform="matrix(0.6875,0,0,0.6875,-0.5000014,15.5)" gradientUnits="userSpaceOnUse" xlink:href="#linearGradient3428"/></defs><path id="path3169" fill="url(#radialGradient3209)" fill-opacity="1" fill-rule="evenodd" stroke="none" stroke-width="2" d="M 47,26.499999 C 47.000773,28.985213 40.284818,31 32,31 23.715182,31 16.999228,28.985213 17,26.499999 16.999228,24.014787 23.715182,22 32,22 c 8.284818,0 15.000773,2.014787 15,4.499999 z" display="inline" opacity=".3" overflow="visible" visibility="visible" style="marker:none"/><g id="g3171" transform="translate(16,-16)"><path id="path3173" fill="url(#linearGradient3211)" fill-rule="nonzero" stroke="none" d="M 29.5,32 C 29.5,24.517075 23.482924,18.5 16,18.5 8.5170738,18.5 2.5,24.517075 2.5,32 c -1.3e-6,7.482925 6.0170745,13.5 13.5,13.5 7.482924,-10e-7 13.5,-6.017074 13.5,-13.5 z m -8.231707,0 c 0,3.044415 -2.223878,5.268293 -5.268293,5.268293 -3.044414,0 -5.268293,-2.223878 -5.268293,-5.268293 0,-3.044414 2.223879,-5.268293 5.268293,-5.268293 3.044415,0 5.268293,2.223879 5.268293,5.268293 z"/><path id="path3175" fill="#fff" fill-opacity="1" fill-rule="nonzero" stroke="none" stroke-width="1" d="m 16,26.731707 c -2.908097,0 -5.268293,2.360196 -5.268293,5.268293 0,2.908098 2.360196,5.268293 5.268293,5.268293 2.908098,0 5.268293,-2.360195 5.268293,-5.268293 0,-2.908097 -2.360195,-5.268293 -5.268293,-5.268293 z m 0,2.634147 c 1.454049,0 2.634147,1.180098 2.634147,2.634146 0,1.454049 -1.180098,2.634147 -2.634147,2.634147 -1.454048,0 -2.634146,-1.180098 -2.634146,-2.634147 0,-1.454048 1.180098,-2.634146 2.634146,-2.634146 z" display="inline" enable-background="accumulate" opacity=".5" overflow="visible" visibility="visible" style="marker:none"/><g id="g3177" transform="matrix(0.6585366,0,0,0.6585366,0.195122,16.195122)"><path id="path3179" fill="url(#linearGradient3213)" fill-opacity="1" fill-rule="nonzero" stroke="none" d="m 24,3.5 c -2.975804,0 -5.797406,0.6208152 -8.34375,1.75 L 20.625,16.34375 C 21.660403,15.885186 22.795334,15.625 24,15.625 c 0.03206,0 0.06178,-3.6e-4 0.09375,0 l 0,-12.125 C 24.06248,3.4998614 24.0313,3.5 24,3.5 z" opacity=".8" transform="matrix(0.9996011,0.02824295,-0.02824295,0.9996011,0.6924114,-0.6708346)"/><path id="path3181" fill="url(#linearGradient3215)" fill-opacity="1" fill-rule="nonzero" stroke="none" d="m 19.597283,3.9975155 c -2.9067,0.6375811 -5.529765,1.8485223 -7.775043,3.4970525 l 7.230257,9.771547 c 0.913109,-0.669755 1.965938,-1.167064 3.142629,-1.425169 0.03132,-0.0069 0.06026,-0.01359 0.09157,-0.02009 L 19.688856,3.9774292 c -0.03058,0.00656 -0.061,0.013379 -0.09157,0.020086 z" opacity=".8"/><path id="path3183" fill="url(#linearGradient3217)" fill-opacity="1" fill-rule="nonzero" stroke="none" d="M 14.558173,5.8448691 C 11.915535,7.2130345 9.6952631,9.061613 7.9531621,11.235092 l 9.5129549,7.567261 c 0.70865,-0.883264 1.596891,-1.636119 2.666685,-2.18998 0.02847,-0.01474 0.05469,-0.02872 0.08325,-0.0431 L 14.641427,5.8017664 c -0.02783,0.014254 -0.05545,0.02871 -0.08325,0.043103 z" opacity=".8"/><path id="path3185" fill="url(#linearGradient3219)" fill-opacity="1" fill-rule="nonzero" stroke="none" d="M 10.168897,8.9334932 C 7.970412,10.939005 6.3042413,13.299243 5.1840387,15.849551 L 16.331399,20.69683 c 0.455898,-1.036579 1.119019,-1.993675 2.009011,-2.805547 0.02369,-0.02161 0.0454,-0.0419 0.06926,-0.06318 L 10.238158,8.8703115 c -0.0232,0.020972 -0.04613,0.042084 -0.06926,0.063182 z" opacity=".8"/><path id="path3187" fill="url(#linearGradient3221)" fill-opacity="1" fill-rule="nonzero" stroke="none" d="m 6.78125,12.96875 c -0.016978,0.02626 -0.045621,0.06739 -0.0625,0.09375 -1.1482224,1.793482 -1.9616625,3.681269 -2.5,5.625 l 11.75,3.125 C 16.184264,21.049497 16.486796,20.297733 16.9375,19.59375 16.95479,19.56675 16.98246,19.52673 17,19.5 L 6.78125,12.96875 z" opacity=".8"/></g><g id="g3189" opacity=".8" transform="matrix(-0.6585366,0,0,-0.6585366,31.804879,47.804879)"><path id="path3191" fill="url(#linearGradient3223)" fill-opacity="1" fill-rule="nonzero" stroke="none" d="m 24,3.5 c -2.975804,0 -5.797406,0.6208152 -8.34375,1.75 L 20.625,16.34375 C 21.660403,15.885186 22.795334,15.625 24,15.625 c 0.03206,0 0.06178,-3.6e-4 0.09375,0 l 0,-12.125 C 24.06248,3.4998614 24.0313,3.5 24,3.5 z" opacity=".8" transform="matrix(0.9996011,0.02824295,-0.02824295,0.9996011,0.6924114,-0.6708346)"/><path id="path3193" fill="url(#linearGradient3225)" fill-opacity="1" fill-rule="nonzero" stroke="none" d="m 19.597283,3.9975155 c -2.9067,0.6375811 -5.529765,1.8485223 -7.775043,3.4970525 l 7.230257,9.771547 c 0.913109,-0.669755 1.965938,-1.167064 3.142629,-1.425169 0.03132,-0.0069 0.06026,-0.01359 0.09157,-0.02009 L 19.688856,3.9774292 c -0.03058,0.00656 -0.061,0.013379 -0.09157,0.020086 z" opacity=".8"/><path id="path3195" fill="url(#linearGradient3227)" fill-opacity="1" fill-rule="nonzero" stroke="none" d="M 14.558173,5.8448691 C 11.915535,7.2130345 9.6952631,9.061613 7.9531621,11.235092 l 9.5129549,7.567261 c 0.70865,-0.883264 1.596891,-1.636119 2.666685,-2.18998 0.02847,-0.01474 0.05469,-0.02872 0.08325,-0.0431 L 14.641427,5.8017664 c -0.02783,0.014254 -0.05545,0.02871 -0.08325,0.043103 z" opacity=".8"/><path id="path3197" fill="url(#linearGradient3229)" fill-opacity="1" fill-rule="nonzero" stroke="none" d="M 10.168897,8.9334932 C 7.970412,10.939005 6.3042413,13.299243 5.1840387,15.849551 L 16.331399,20.69683 c 0.455898,-1.036579 1.119019,-1.993675 2.009011,-2.805547 0.02369,-0.02161 0.0454,-0.0419 0.06926,-0.06318 L 10.238158,8.8703115 c -0.0232,0.020972 -0.04613,0.042084 -0.06926,0.063182 z" opacity=".8"/><path id="path3199" fill="url(#linearGradient3231)" fill-opacity="1" fill-rule="nonzero" stroke="none" d="m 6.78125,12.96875 c -0.016978,0.02626 -0.045621,0.06739 -0.0625,0.09375 -1.1482224,1.793482 -1.9616625,3.681269 -2.5,5.625 l 11.75,3.125 C 16.184264,21.049497 16.486796,20.297733 16.9375,19.59375 16.95479,19.56675 16.98246,19.52673 17,19.5 L 6.78125,12.96875 z" opacity=".8"/></g><path id="path3201" fill="none" stroke="url(#linearGradient3233)" stroke-miterlimit="4" stroke-opacity="1" stroke-width="1" d="M 15.999999,19.5 C 9.0714285,19.5 3.4999996,25.07143 3.4999996,32 c 0,6.928573 5.5714289,12.500001 12.4999994,12.500001 6.928572,0 12.5,-5.571428 12.5,-12.500001 0,-6.92857 -5.571428,-12.5 -12.5,-12.5 l 0,0 0,0 z" opacity=".5"/><path id="path3203" fill="none" stroke="url(#linearGradient3235)" stroke-miterlimit="4" stroke-opacity="1" stroke-width="1" d="M 16,18.5 C 8.5170743,18.5 2.5,24.517076 2.5,32 2.5,39.482926 8.517075,45.5 16,45.5 23.482925,45.5 29.499999,39.482926 29.499999,32 29.499998,24.517077 23.482926,18.5 16,18.5 z"/><path id="path3205" fill="none" stroke="url(#linearGradient3237)" stroke-miterlimit="4" stroke-opacity="1" stroke-width="1" d="M 15.999999,25.5 C 12.397142,25.5 9.5,28.397142 9.5,31.999999 9.5,35.602857 12.397142,38.5 15.999999,38.5 c 3.60286,0 6.5,-2.897143 6.5,-6.500001 0,-3.602857 -2.89714,-6.499999 -6.5,-6.499999 l 0,0 0,0 z" opacity=".8"/><path id="path3207" fill="none" stroke="url(#linearGradient3239)" stroke-dasharray="none" stroke-dashoffset="0" stroke-linecap="butt" stroke-linejoin="round" stroke-miterlimit="4" stroke-opacity="1" stroke-width="1" d="M 15.999999,26.5 C 12.964,26.5 10.5,28.964001 10.5,32 c 0,3.036 2.464,5.5 5.499999,5.5 3.036,0 5.5,-2.464 5.5,-5.5 0,-3.035999 -2.464,-5.5 -5.5,-5.5 z m 0,2.75 c 1.518001,0 2.75,1.232001 2.75,2.75 0,1.518001 -1.231999,2.75 -2.75,2.75 -1.517999,0 -2.75,-1.231999 -2.75,-2.75 0,-1.517999 1.232001,-2.75 2.75,-2.75 z" display="inline" enable-background="accumulate" overflow="visible" visibility="visible" style="marker:none"/></g><path id="path3097" fill="url(#radialGradient3137)" fill-opacity="1" fill-rule="evenodd" stroke="none" stroke-width="2" d="M 39,34.499999 C 39.000773,36.985213 32.284818,39 24,39 15.715182,39 8.9992275,36.985213 9.0000001,34.499999 8.9992275,32.014787 15.715182,30 24,30 c 8.284818,0 15.000773,2.014787 15,4.499999 z" display="inline" opacity=".3" overflow="visible" visibility="visible" style="marker:none"/><g id="g3099" transform="translate(8,-8)"><path id="path3101" fill="url(#linearGradient3139)" fill-rule="nonzero" stroke="none" d="M 29.5,32 C 29.5,24.517075 23.482924,18.5 16,18.5 8.5170738,18.5 2.5,24.517075 2.5,32 c -1.3e-6,7.482925 6.0170745,13.5 13.5,13.5 7.482924,-10e-7 13.5,-6.017074 13.5,-13.5 z m -8.231707,0 c 0,3.044415 -2.223878,5.268293 -5.268293,5.268293 -3.044414,0 -5.268293,-2.223878 -5.268293,-5.268293 0,-3.044414 2.223879,-5.268293 5.268293,-5.268293 3.044415,0 5.268293,2.223879 5.268293,5.268293 z"/><path id="path3103" fill="#fff" fill-opacity="1" fill-rule="nonzero" stroke="none" stroke-width="1" d="m 16,26.731707 c -2.908097,0 -5.268293,2.360196 -5.268293,5.268293 0,2.908098 2.360196,5.268293 5.268293,5.268293 2.908098,0 5.268293,-2.360195 5.268293,-5.268293 0,-2.908097 -2.360195,-5.268293 -5.268293,-5.268293 z m 0,2.634147 c 1.454049,0 2.634147,1.180098 2.634147,2.634146 0,1.454049 -1.180098,2.634147 -2.634147,2.634147 -1.454048,0 -2.634146,-1.180098 -2.634146,-2.634147 0,-1.454048 1.180098,-2.634146 2.634146,-2.634146 z" display="inline" enable-background="accumulate" opacity=".5" overflow="visible" visibility="visible" style="marker:none"/><g id="g3105" transform="matrix(0.6585366,0,0,0.6585366,0.195122,16.195122)"><path id="path3107" fill="url(#linearGradient3141)" fill-opacity="1" fill-rule="nonzero" stroke="none" d="m 24,3.5 c -2.975804,0 -5.797406,0.6208152 -8.34375,1.75 L 20.625,16.34375 C 21.660403,15.885186 22.795334,15.625 24,15.625 c 0.03206,0 0.06178,-3.6e-4 0.09375,0 l 0,-12.125 C 24.06248,3.4998614 24.0313,3.5 24,3.5 z" opacity=".8" transform="matrix(0.9996011,0.02824295,-0.02824295,0.9996011,0.6924114,-0.6708346)"/><path id="path3109" fill="url(#linearGradient3143)" fill-opacity="1" fill-rule="nonzero" stroke="none" d="m 19.597283,3.9975155 c -2.9067,0.6375811 -5.529765,1.8485223 -7.775043,3.4970525 l 7.230257,9.771547 c 0.913109,-0.669755 1.965938,-1.167064 3.142629,-1.425169 0.03132,-0.0069 0.06026,-0.01359 0.09157,-0.02009 L 19.688856,3.9774292 c -0.03058,0.00656 -0.061,0.013379 -0.09157,0.020086 z" opacity=".8"/><path id="path3111" fill="url(#linearGradient3145)" fill-opacity="1" fill-rule="nonzero" stroke="none" d="M 14.558173,5.8448691 C 11.915535,7.2130345 9.6952631,9.061613 7.9531621,11.235092 l 9.5129549,7.567261 c 0.70865,-0.883264 1.596891,-1.636119 2.666685,-2.18998 0.02847,-0.01474 0.05469,-0.02872 0.08325,-0.0431 L 14.641427,5.8017664 c -0.02783,0.014254 -0.05545,0.02871 -0.08325,0.043103 z" opacity=".8"/><path id="path3113" fill="url(#linearGradient3147)" fill-opacity="1" fill-rule="nonzero" stroke="none" d="M 10.168897,8.9334932 C 7.970412,10.939005 6.3042413,13.299243 5.1840387,15.849551 L 16.331399,20.69683 c 0.455898,-1.036579 1.119019,-1.993675 2.009011,-2.805547 0.02369,-0.02161 0.0454,-0.0419 0.06926,-0.06318 L 10.238158,8.8703115 c -0.0232,0.020972 -0.04613,0.042084 -0.06926,0.063182 z" opacity=".8"/><path id="path3115" fill="url(#linearGradient3149)" fill-opacity="1" fill-rule="nonzero" stroke="none" d="m 6.78125,12.96875 c -0.016978,0.02626 -0.045621,0.06739 -0.0625,0.09375 -1.1482224,1.793482 -1.9616625,3.681269 -2.5,5.625 l 11.75,3.125 C 16.184264,21.049497 16.486796,20.297733 16.9375,19.59375 16.95479,19.56675 16.98246,19.52673 17,19.5 L 6.78125,12.96875 z" opacity=".8"/></g><g id="g3117" opacity=".8" transform="matrix(-0.6585366,0,0,-0.6585366,31.804879,47.804879)"><path id="path3119" fill="url(#linearGradient3151)" fill-opacity="1" fill-rule="nonzero" stroke="none" d="m 24,3.5 c -2.975804,0 -5.797406,0.6208152 -8.34375,1.75 L 20.625,16.34375 C 21.660403,15.885186 22.795334,15.625 24,15.625 c 0.03206,0 0.06178,-3.6e-4 0.09375,0 l 0,-12.125 C 24.06248,3.4998614 24.0313,3.5 24,3.5 z" opacity=".8" transform="matrix(0.9996011,0.02824295,-0.02824295,0.9996011,0.6924114,-0.6708346)"/><path id="path3121" fill="url(#linearGradient3153)" fill-opacity="1" fill-rule="nonzero" stroke="none" d="m 19.597283,3.9975155 c -2.9067,0.6375811 -5.529765,1.8485223 -7.775043,3.4970525 l 7.230257,9.771547 c 0.913109,-0.669755 1.965938,-1.167064 3.142629,-1.425169 0.03132,-0.0069 0.06026,-0.01359 0.09157,-0.02009 L 19.688856,3.9774292 c -0.03058,0.00656 -0.061,0.013379 -0.09157,0.020086 z" opacity=".8"/><path id="path3123" fill="url(#linearGradient3155)" fill-opacity="1" fill-rule="nonzero" stroke="none" d="M 14.558173,5.8448691 C 11.915535,7.2130345 9.6952631,9.061613 7.9531621,11.235092 l 9.5129549,7.567261 c 0.70865,-0.883264 1.596891,-1.636119 2.666685,-2.18998 0.02847,-0.01474 0.05469,-0.02872 0.08325,-0.0431 L 14.641427,5.8017664 c -0.02783,0.014254 -0.05545,0.02871 -0.08325,0.043103 z" opacity=".8"/><path id="path3125" fill="url(#linearGradient3157)" fill-opacity="1" fill-rule="nonzero" stroke="none" d="M 10.168897,8.9334932 C 7.970412,10.939005 6.3042413,13.299243 5.1840387,15.849551 L 16.331399,20.69683 c 0.455898,-1.036579 1.119019,-1.993675 2.009011,-2.805547 0.02369,-0.02161 0.0454,-0.0419 0.06926,-0.06318 L 10.238158,8.8703115 c -0.0232,0.020972 -0.04613,0.042084 -0.06926,0.063182 z" opacity=".8"/><path id="path3127" fill="url(#linearGradient3159)" fill-opacity="1" fill-rule="nonzero" stroke="none" d="m 6.78125,12.96875 c -0.016978,0.02626 -0.045621,0.06739 -0.0625,0.09375 -1.1482224,1.793482 -1.9616625,3.681269 -2.5,5.625 l 11.75,3.125 C 16.184264,21.049497 16.486796,20.297733 16.9375,19.59375 16.95479,19.56675 16.98246,19.52673 17,19.5 L 6.78125,12.96875 z" opacity=".8"/></g><path id="path3129" fill="none" stroke="url(#linearGradient3161)" stroke-miterlimit="4" stroke-opacity="1" stroke-width="1" d="M 15.999999,19.5 C 9.0714285,19.5 3.4999996,25.07143 3.4999996,32 c 0,6.928573 5.5714289,12.500001 12.4999994,12.500001 6.928572,0 12.5,-5.571428 12.5,-12.500001 0,-6.92857 -5.571428,-12.5 -12.5,-12.5 l 0,0 0,0 z" opacity=".5"/><path id="path3131" fill="none" stroke="url(#linearGradient3163)" stroke-miterlimit="4" stroke-opacity="1" stroke-width="1" d="M 16,18.5 C 8.5170743,18.5 2.5,24.517076 2.5,32 2.5,39.482926 8.517075,45.5 16,45.5 23.482925,45.5 29.499999,39.482926 29.499999,32 29.499998,24.517077 23.482926,18.5 16,18.5 z"/><path id="path3133" fill="none" stroke="url(#linearGradient3165)" stroke-miterlimit="4" stroke-opacity="1" stroke-width="1" d="M 15.999999,25.5 C 12.397142,25.5 9.5,28.397142 9.5,31.999999 9.5,35.602857 12.397142,38.5 15.999999,38.5 c 3.60286,0 6.5,-2.897143 6.5,-6.500001 0,-3.602857 -2.89714,-6.499999 -6.5,-6.499999 l 0,0 0,0 z" opacity=".8"/><path id="path3135" fill="none" stroke="url(#linearGradient3167)" stroke-dasharray="none" stroke-dashoffset="0" stroke-linecap="butt" stroke-linejoin="round" stroke-miterlimit="4" stroke-opacity="1" stroke-width="1" d="M 15.999999,26.5 C 12.964,26.5 10.5,28.964001 10.5,32 c 0,3.036 2.464,5.5 5.499999,5.5 3.036,0 5.5,-2.464 5.5,-5.5 0,-3.035999 -2.464,-5.5 -5.5,-5.5 z m 0,2.75 c 1.518001,0 2.75,1.232001 2.75,2.75 0,1.518001 -1.231999,2.75 -2.75,2.75 -1.517999,0 -2.75,-1.231999 -2.75,-2.75 0,-1.517999 1.232001,-2.75 2.75,-2.75 z" display="inline" enable-background="accumulate" overflow="visible" visibility="visible" style="marker:none"/></g><path id="path23417" fill="url(#radialGradient3434)" fill-opacity="1" fill-rule="evenodd" stroke="none" stroke-width="2" d="M 31,42.499999 C 31.000773,44.985213 24.284818,47 16,47 7.7151822,47 0.9992275,44.985213 1.0000001,42.499999 0.9992275,40.014787 7.7151822,38 16,38 c 8.284818,0 15.000773,2.014787 15,4.499999 z" display="inline" opacity=".3" overflow="visible" visibility="visible" style="marker:none"/><g id="g2882"><path id="path2781" fill="url(#linearGradient3431)" fill-rule="nonzero" stroke="none" d="M 29.5,32 C 29.5,24.517075 23.482924,18.5 16,18.5 8.5170738,18.5 2.5,24.517075 2.5,32 c -1.3e-6,7.482925 6.0170745,13.5 13.5,13.5 7.482924,-10e-7 13.5,-6.017074 13.5,-13.5 z m -8.231707,0 c 0,3.044415 -2.223878,5.268293 -5.268293,5.268293 -3.044414,0 -5.268293,-2.223878 -5.268293,-5.268293 0,-3.044414 2.223879,-5.268293 5.268293,-5.268293 3.044415,0 5.268293,2.223879 5.268293,5.268293 z"/><path id="path2474" fill="#fff" fill-opacity="1" fill-rule="nonzero" stroke="none" stroke-width="1" d="m 16,26.731707 c -2.908097,0 -5.268293,2.360196 -5.268293,5.268293 0,2.908098 2.360196,5.268293 5.268293,5.268293 2.908098,0 5.268293,-2.360195 5.268293,-5.268293 0,-2.908097 -2.360195,-5.268293 -5.268293,-5.268293 z m 0,2.634147 c 1.454049,0 2.634147,1.180098 2.634147,2.634146 0,1.454049 -1.180098,2.634147 -2.634147,2.634147 -1.454048,0 -2.634146,-1.180098 -2.634146,-2.634147 0,-1.454048 1.180098,-2.634146 2.634146,-2.634146 z" display="inline" enable-background="accumulate" opacity=".5" overflow="visible" visibility="visible" style="marker:none"/><g id="g3527" transform="matrix(0.6585366,0,0,0.6585366,0.195122,16.195122)"><path id="path3296" fill="url(#linearGradient3446)" fill-opacity="1" fill-rule="nonzero" stroke="none" d="m 24,3.5 c -2.975804,0 -5.797406,0.6208152 -8.34375,1.75 L 20.625,16.34375 C 21.660403,15.885186 22.795334,15.625 24,15.625 c 0.03206,0 0.06178,-3.6e-4 0.09375,0 l 0,-12.125 C 24.06248,3.4998614 24.0313,3.5 24,3.5 z" opacity=".8" transform="matrix(0.9996011,0.02824295,-0.02824295,0.9996011,0.6924114,-0.6708346)"/><path id="path3308" fill="url(#linearGradient3448)" fill-opacity="1" fill-rule="nonzero" stroke="none" d="m 19.597283,3.9975155 c -2.9067,0.6375811 -5.529765,1.8485223 -7.775043,3.4970525 l 7.230257,9.771547 c 0.913109,-0.669755 1.965938,-1.167064 3.142629,-1.425169 0.03132,-0.0069 0.06026,-0.01359 0.09157,-0.02009 L 19.688856,3.9774292 c -0.03058,0.00656 -0.061,0.013379 -0.09157,0.020086 z" opacity=".8"/><path id="path3310" fill="url(#linearGradient3450)" fill-opacity="1" fill-rule="nonzero" stroke="none" d="M 14.558173,5.8448691 C 11.915535,7.2130345 9.6952631,9.061613 7.9531621,11.235092 l 9.5129549,7.567261 c 0.70865,-0.883264 1.596891,-1.636119 2.666685,-2.18998 0.02847,-0.01474 0.05469,-0.02872 0.08325,-0.0431 L 14.641427,5.8017664 c -0.02783,0.014254 -0.05545,0.02871 -0.08325,0.043103 z" opacity=".8"/><path id="path3312" fill="url(#linearGradient3452)" fill-opacity="1" fill-rule="nonzero" stroke="none" d="M 10.168897,8.9334932 C 7.970412,10.939005 6.3042413,13.299243 5.1840387,15.849551 L 16.331399,20.69683 c 0.455898,-1.036579 1.119019,-1.993675 2.009011,-2.805547 0.02369,-0.02161 0.0454,-0.0419 0.06926,-0.06318 L 10.238158,8.8703115 c -0.0232,0.020972 -0.04613,0.042084 -0.06926,0.063182 z" opacity=".8"/><path id="path3314" fill="url(#linearGradient3454)" fill-opacity="1" fill-rule="nonzero" stroke="none" d="m 6.78125,12.96875 c -0.016978,0.02626 -0.045621,0.06739 -0.0625,0.09375 -1.1482224,1.793482 -1.9616625,3.681269 -2.5,5.625 l 11.75,3.125 C 16.184264,21.049497 16.486796,20.297733 16.9375,19.59375 16.95479,19.56675 16.98246,19.52673 17,19.5 L 6.78125,12.96875 z" opacity=".8"/></g><g id="g3642" opacity=".8" transform="matrix(-0.6585366,0,0,-0.6585366,31.804879,47.804879)"><path id="path3644" fill="url(#linearGradient3436)" fill-opacity="1" fill-rule="nonzero" stroke="none" d="m 24,3.5 c -2.975804,0 -5.797406,0.6208152 -8.34375,1.75 L 20.625,16.34375 C 21.660403,15.885186 22.795334,15.625 24,15.625 c 0.03206,0 0.06178,-3.6e-4 0.09375,0 l 0,-12.125 C 24.06248,3.4998614 24.0313,3.5 24,3.5 z" opacity=".8" transform="matrix(0.9996011,0.02824295,-0.02824295,0.9996011,0.6924114,-0.6708346)"/><path id="path3646" fill="url(#linearGradient3438)" fill-opacity="1" fill-rule="nonzero" stroke="none" d="m 19.597283,3.9975155 c -2.9067,0.6375811 -5.529765,1.8485223 -7.775043,3.4970525 l 7.230257,9.771547 c 0.913109,-0.669755 1.965938,-1.167064 3.142629,-1.425169 0.03132,-0.0069 0.06026,-0.01359 0.09157,-0.02009 L 19.688856,3.9774292 c -0.03058,0.00656 -0.061,0.013379 -0.09157,0.020086 z" opacity=".8"/><path id="path3648" fill="url(#linearGradient3440)" fill-opacity="1" fill-rule="nonzero" stroke="none" d="M 14.558173,5.8448691 C 11.915535,7.2130345 9.6952631,9.061613 7.9531621,11.235092 l 9.5129549,7.567261 c 0.70865,-0.883264 1.596891,-1.636119 2.666685,-2.18998 0.02847,-0.01474 0.05469,-0.02872 0.08325,-0.0431 L 14.641427,5.8017664 c -0.02783,0.014254 -0.05545,0.02871 -0.08325,0.043103 z" opacity=".8"/><path id="path3650" fill="url(#linearGradient3442)" fill-opacity="1" fill-rule="nonzero" stroke="none" d="M 10.168897,8.9334932 C 7.970412,10.939005 6.3042413,13.299243 5.1840387,15.849551 L 16.331399,20.69683 c 0.455898,-1.036579 1.119019,-1.993675 2.009011,-2.805547 0.02369,-0.02161 0.0454,-0.0419 0.06926,-0.06318 L 10.238158,8.8703115 c -0.0232,0.020972 -0.04613,0.042084 -0.06926,0.063182 z" opacity=".8"/><path id="path3652" fill="url(#linearGradient3444)" fill-opacity="1" fill-rule="nonzero" stroke="none" d="m 6.78125,12.96875 c -0.016978,0.02626 -0.045621,0.06739 -0.0625,0.09375 -1.1482224,1.793482 -1.9616625,3.681269 -2.5,5.625 l 11.75,3.125 C 16.184264,21.049497 16.486796,20.297733 16.9375,19.59375 16.95479,19.56675 16.98246,19.52673 17,19.5 L 6.78125,12.96875 z" opacity=".8"/></g><path id="path2787" fill="none" stroke="url(#linearGradient3412)" stroke-miterlimit="4" stroke-opacity="1" stroke-width="1" d="M 15.999999,19.5 C 9.0714285,19.5 3.4999996,25.07143 3.4999996,32 c 0,6.928573 5.5714289,12.500001 12.4999994,12.500001 6.928572,0 12.5,-5.571428 12.5,-12.500001 0,-6.92857 -5.571428,-12.5 -12.5,-12.5 l 0,0 0,0 z" opacity=".5"/><path id="path3287" fill="none" stroke="url(#linearGradient3409)" stroke-miterlimit="4" stroke-opacity="1" stroke-width="1" d="M 16,18.5 C 8.5170743,18.5 2.5,24.517076 2.5,32 2.5,39.482926 8.517075,45.5 16,45.5 23.482925,45.5 29.499999,39.482926 29.499999,32 29.499998,24.517077 23.482926,18.5 16,18.5 z"/><path id="path3281" fill="none" stroke="url(#linearGradient3406)" stroke-miterlimit="4" stroke-opacity="1" stroke-width="1" d="M 15.999999,25.5 C 12.397142,25.5 9.5,28.397142 9.5,31.999999 9.5,35.602857 12.397142,38.5 15.999999,38.5 c 3.60286,0 6.5,-2.897143 6.5,-6.500001 0,-3.602857 -2.89714,-6.499999 -6.5,-6.499999 l 0,0 0,0 z" opacity=".8"/><path id="path3418" fill="none" stroke="url(#linearGradient3427)" stroke-dasharray="none" stroke-dashoffset="0" stroke-linecap="butt" stroke-linejoin="round" stroke-miterlimit="4" stroke-opacity="1" stroke-width="1" d="M 15.999999,26.5 C 12.964,26.5 10.5,28.964001 10.5,32 c 0,3.036 2.464,5.5 5.499999,5.5 3.036,0 5.5,-2.464 5.5,-5.5 0,-3.035999 -2.464,-5.5 -5.5,-5.5 z m 0,2.75 c 1.518001,0 2.75,1.232001 2.75,2.75 0,1.518001 -1.231999,2.75 -2.75,2.75 -1.517999,0 -2.75,-1.231999 -2.75,-2.75 0,-1.517999 1.232001,-2.75 2.75,-2.75 z" display="inline" enable-background="accumulate" overflow="visible" visibility="visible" style="marker:none"/></g></svg>