<svg xmlns="http://www.w3.org/2000/svg" xmlns:svg="http://www.w3.org/2000/svg" xmlns:xlink="http://www.w3.org/1999/xlink" id="svg3578" width="64" height="64" version="1.0"><defs id="defs3580"><linearGradient id="linearGradient8265-821-176-38-919-66-249"><stop id="stop2687" offset="0" stop-color="#fff" stop-opacity=".275"/><stop id="stop2689" offset="1" stop-color="#fff" stop-opacity=".078"/></linearGradient><linearGradient id="linearGradient6087-437-184-795-110-662-495"><stop id="stop2693" offset="0" stop-color="#fff" stop-opacity=".4"/><stop id="stop2695" offset="1" stop-color="#fff" stop-opacity="0"/></linearGradient><linearGradient id="linearGradient6129-963-697-142-998-580-273"><stop id="stop2661" offset="0" stop-color="#0a0a0a" stop-opacity=".498"/><stop id="stop2663" offset="1" stop-color="#0a0a0a" stop-opacity="0"/></linearGradient><linearGradient id="linearGradient3390"><stop id="stop3392" offset="0" stop-color="#425e7b" stop-opacity="1"/><stop id="stop3394" offset="1" stop-color="#7a91a7" stop-opacity="1"/></linearGradient><linearGradient id="linearGradient7012-661-145-733-759-865-745"><stop id="stop2699" offset="0" stop-color="#9cbbd9" stop-opacity="1"/><stop id="stop2701" offset="1" stop-color="#5c82ab" stop-opacity="1"/></linearGradient><linearGradient id="linearGradient5048-585"><stop id="stop2667" offset="0" stop-color="#000" stop-opacity="0"/><stop id="stop2669" offset=".5" stop-color="#000" stop-opacity="1"/><stop id="stop2671" offset="1" stop-color="#000" stop-opacity="0"/></linearGradient><linearGradient id="linearGradient3484"><stop id="stop3486" offset="0" stop-color="#bdbdbd" stop-opacity="1"/><stop id="stop3488" offset="1" stop-color="#d0d0d0" stop-opacity="1"/></linearGradient><linearGradient id="linearGradient6404"><stop id="stop6406" offset="0" stop-color="#f9f9f9" stop-opacity="1"/><stop id="stop6408" offset="1" stop-color="#c9c9c9" stop-opacity="1"/></linearGradient><linearGradient id="linearGradient5060-820"><stop id="stop2681" offset="0" stop-color="#000" stop-opacity="1"/><stop id="stop2683" offset="1" stop-color="#000" stop-opacity="0"/></linearGradient><radialGradient id="radialGradient2542" cx="605.714" cy="486.648" r="117.143" fx="605.714" fy="486.648" gradientTransform="matrix(3.212956e-2,0,0,2.325004e-2,36.636789,47.480988)" gradientUnits="userSpaceOnUse" xlink:href="#linearGradient5060"/><linearGradient id="linearGradient5048"><stop id="stop5050" offset="0" stop-color="#000" stop-opacity="0"/><stop id="stop5056" offset=".5" stop-color="#000" stop-opacity="1"/><stop id="stop5052" offset="1" stop-color="#000" stop-opacity="0"/></linearGradient><linearGradient id="linearGradient2539" x1="302.857" x2="302.857" y1="366.648" y2="609.505" gradientTransform="matrix(4.772373e-2,0,0,2.325004e-2,27.214563,47.480988)" gradientUnits="userSpaceOnUse" xlink:href="#linearGradient5048"/><linearGradient id="linearGradient5060"><stop id="stop5062" offset="0" stop-color="#000" stop-opacity="1"/><stop id="stop5064" offset="1" stop-color="#000" stop-opacity="0"/></linearGradient><radialGradient id="radialGradient2536" cx="605.714" cy="486.648" r="117.143" fx="605.714" fy="486.648" gradientTransform="matrix(-3.212956e-2,0,0,2.325004e-2,52.363211,47.480988)" gradientUnits="userSpaceOnUse" xlink:href="#linearGradient5060"/><linearGradient id="linearGradient3522"><stop id="stop3524" offset="0" stop-color="#81aac3" stop-opacity="1"/><stop id="stop3526" offset="1" stop-color="#4e82a3" stop-opacity="1"/></linearGradient><linearGradient id="linearGradient2531" x1="142.415" x2="142.415" y1="-2.471" y2="17.147" gradientTransform="matrix(1.2117666,0,0,1.1795605,-128.57369,36.489797)" gradientUnits="userSpaceOnUse" xlink:href="#linearGradient3522"/><linearGradient id="linearGradient3666"><stop id="stop3668" offset="0" stop-color="#a5bed8" stop-opacity="1"/><stop id="stop3670" offset="1" stop-color="#597ba0" stop-opacity="1"/></linearGradient><linearGradient id="linearGradient2525" x1="3.053" x2="3.053" y1="2.19" y2="9.875" gradientTransform="matrix(3.8171582,0,0,3.778398,22.347968,20.058397)" gradientUnits="userSpaceOnUse" xlink:href="#linearGradient3666"/><linearGradient id="linearGradient3576"><stop id="stop3578" offset="0" stop-color="#7798bb" stop-opacity="1"/><stop id="stop3580" offset="1" stop-color="#54779c" stop-opacity="1"/></linearGradient><linearGradient id="linearGradient2522" x1="3.053" x2="3.053" y1="2.19" y2="9.875" gradientTransform="matrix(3.8171596,0,0,3.778398,40.536447,20.058397)" gradientUnits="userSpaceOnUse" xlink:href="#linearGradient3576"/><linearGradient id="linearGradient3670" x1="11.566" x2="15.215" y1="22.292" y2="33.955" gradientTransform="matrix(1.3407707,0,0,1.33,-0.3733138,-1.3099814)" gradientUnits="userSpaceOnUse" xlink:href="#linearGradient8265-821-176-38-919-66-249"/><radialGradient id="radialGradient3673" cx="7.265" cy="8.302" r="20.98" fx="7.265" fy="8.302" gradientTransform="matrix(0,1.606606,-2.1816541,0,34.685541,9.28484)" gradientUnits="userSpaceOnUse" xlink:href="#linearGradient6087-437-184-795-110-662-495"/><linearGradient id="linearGradient3676" x1="22.935" x2="22.809" y1="49.629" y2="36.658" gradientTransform="matrix(1.5347702,0,0,1.3270123,-5.0206145,-4.8541574e-2)" gradientUnits="userSpaceOnUse" xlink:href="#linearGradient6129-963-697-142-998-580-273"/><radialGradient id="radialGradient3679" cx="63.969" cy="14.113" r="23.097" fx="63.969" fy="14.113" gradientTransform="matrix(2.0979394,-1.2620327e-7,8.2824269e-8,1.3475335,-115.96782,9.3537334)" gradientUnits="userSpaceOnUse" xlink:href="#linearGradient7012-661-145-733-759-865-745"/><linearGradient id="linearGradient3681" x1="82.453" x2="65.34" y1="45.114" y2="15.944" gradientTransform="matrix(1.3407998,0,0,1.3264587,-72.462643,-1.6032277)" gradientUnits="userSpaceOnUse" xlink:href="#linearGradient3390"/><radialGradient id="radialGradient3684" cx="605.714" cy="486.648" r="117.143" fx="605.714" fy="486.648" gradientTransform="matrix(-4.016195e-2,0,0,3.2942602e-2,30.204018,40.921317)" gradientUnits="userSpaceOnUse" xlink:href="#linearGradient5060-820"/><linearGradient id="linearGradient3687" x1="302.857" x2="302.857" y1="366.648" y2="609.505" gradientTransform="matrix(0.1076923,0,0,3.2941173e-2,-6.9230773,40.922188)" gradientUnits="userSpaceOnUse" xlink:href="#linearGradient5048-585"/><linearGradient id="linearGradient3690" x1="62.989" x2="62.989" y1="13.183" y2="16.19" gradientTransform="matrix(1.3407707,0,0,1.3249351,-134.0678,-1.3881028)" gradientUnits="userSpaceOnUse" xlink:href="#linearGradient6404"/><radialGradient id="radialGradient3692" cx="3" cy="-17.821" r="21" fx="3" fy="-17.821" gradientTransform="matrix(-1.7093459e-8,2.2713251,-2.8951677,-1.9343515e-8,-48.593318,2.3972382)" gradientUnits="userSpaceOnUse" xlink:href="#linearGradient3484"/><radialGradient id="radialGradient3695" cx="605.714" cy="486.648" r="117.143" fx="605.714" fy="486.648" gradientTransform="matrix(4.016195e-2,0,0,3.2942602e-2,33.795982,40.921317)" gradientUnits="userSpaceOnUse" xlink:href="#linearGradient5060-820"/></defs><g id="layer1"><path id="path3411" fill="url(#radialGradient3695)" fill-opacity="1" fill-rule="nonzero" stroke="none" stroke-width="1" d="M 58,52.999928 C 58,52.999928 58,60.999835 58,60.999835 C 60.068242,61.014894 63,59.20746 63,56.999367 C 63,54.791272 60.691999,52.999928 58,52.999928 z" display="inline" opacity=".3" overflow="visible" visibility="visible" style="marker:none"/><path id="path2558" fill="url(#linearGradient3690)" fill-opacity="1" fill-rule="nonzero" stroke="url(#radialGradient3692)" stroke-dasharray="none" stroke-dashoffset="0" stroke-linecap="round" stroke-linejoin="round" stroke-miterlimit="4" stroke-opacity="1" stroke-width="1" marker-end="none" marker-mid="none" marker-start="none" d="M 8,9.5001644 C 7.0849896,9.5103921 6.5,9.9563421 6.5,10.83345 L 6.5,13.5 C 6.5,13.5 4.994002,13.5 4.994002,13.5 C 3.999085,13.5 3.5,13.973582 3.5,14.842172 C 3.5456145,28.561749 3.5,29.335179 3.5,30.499999 C 5.4028336,30.499999 60.499998,25.567196 60.499998,23.443895 L 60.499998,15 C 60.499998,13.999931 60.000052,13.5 59,13.5 L 28.64966,13.5 L 28.5,10.83345 C 28.5,9.9563421 28.275474,9.4899354 27.360464,9.5001644 L 8,9.5001644 z" display="inline" enable-background="accumulate" overflow="visible" visibility="visible" style="marker:none"/><rect id="rect4173" width="52" height="8" x="6" y="53" fill="url(#linearGradient3687)" fill-opacity="1" fill-rule="nonzero" stroke="none" stroke-width="1" display="inline" opacity=".3" overflow="visible" visibility="visible" style="marker:none"/><path id="path5018" fill="url(#radialGradient3684)" fill-opacity="1" fill-rule="nonzero" stroke="none" stroke-width="1" d="M 6,52.999928 C 6,52.999928 6,60.999835 6,60.999835 C 3.9317585,61.014894 1,59.20746 1,56.999367 C 1,54.791272 3.308001,52.999928 6,52.999928 z" display="inline" opacity=".3" overflow="visible" visibility="visible" style="marker:none"/><path id="path3388" fill="url(#radialGradient3679)" fill-opacity="1" stroke="url(#linearGradient3681)" stroke-dasharray="none" stroke-dashoffset="0" stroke-linecap="round" stroke-linejoin="round" stroke-miterlimit="4" stroke-opacity="1" stroke-width=".999" d="M 2.5259407,20.468232 C 1.0876554,20.632306 1.6560144,22.328083 1.5413397,23.281666 C 2.0676467,34.516892 2.7989745,45.525657 3.3220406,56.760958 C 3.7803743,58.041911 5.4598586,57.385933 6.5240274,57.548543 C 24.213928,57.548543 41.903832,57.548543 59.593735,57.548543 C 61.054375,57.407075 60.447101,55.681312 60.652564,54.693657 C 61.178881,43.458431 61.9106,32.449666 62.43366,21.214365 C 62.096891,19.94854 60.196076,20.651928 59.199039,20.468232 C 40.30801,20.468232 21.416976,20.468232 2.5259407,20.468232 L 2.5259407,20.468232 z"/><path id="path6127" fill="url(#linearGradient3676)" fill-opacity="1" stroke="none" d="M 2.3863178,19.856642 L 61.241426,19.857178 C 62.091689,19.857178 62.642739,20.448511 62.642739,21.183677 L 60.974504,57.012987 C 60.974504,57.748151 60.289997,58.339998 59.439737,58.339998 L 4.1880045,58.339998 C 3.3377415,58.339998 2.653234,57.748151 2.653234,57.012987 L 0.98500571,21.183655 C 0.98500571,20.448488 1.5360548,19.856642 2.3863178,19.856642 z" opacity=".4"/><path id="path2435" fill="none" stroke="url(#radialGradient3673)" stroke-dasharray="none" stroke-linecap="round" stroke-linejoin="round" stroke-miterlimit="4" stroke-opacity="1" stroke-width="1" d="M 61.672911,21.565438 C 43.530608,21.565438 20.821304,21.565438 2.679,21.565438 C 3,32 3.7125107,43.316481 4.2292662,54.192001"/><path id="path3455" fill="url(#linearGradient3670)" fill-opacity="1" stroke="none" d="M 60.966946,19.970018 C 41.459282,20.067574 21.944372,19.941889 2.4339249,19.970018 C 0.011473769,20.516804 1.3151768,23.25061 1.130124,24.986147 C 1.4278147,30.523398 1.5632824,36.084915 1.9620206,41.607 C 22.074269,38.464478 42.086655,35.479352 61.846826,32.230956 C 62.893956,28.790807 62.90252,24.689066 62.728192,21.020088 C 62.420973,20.34902 61.672994,19.954965 60.966946,19.970018 z"/><path id="path5058-9" fill="url(#radialGradient2542)" fill-opacity="1" fill-rule="nonzero" stroke="none" stroke-width="1" d="M 56,56.005762 C 56,56.005762 56,61.651888 56,61.651888 C 57.654593,61.662518 60.000001,60.386878 60,58.828462 C 60,57.270047 58.153599,56.005762 56,56.005762 L 56,56.005762 L 56,56.005762 L 56,56.005762 z" display="inline" opacity=".402" overflow="visible" visibility="visible" style="marker:none"/><rect id="rect2846" width="23.044" height="5.646" x="32.941" y="56.006" fill="url(#linearGradient2539)" fill-opacity="1" fill-rule="nonzero" stroke="none" stroke-width="1" display="inline" opacity=".402" overflow="visible" visibility="visible" style="marker:none"/><path id="path2848" fill="url(#radialGradient2536)" fill-opacity="1" fill-rule="nonzero" stroke="none" stroke-width="1" d="M 33,56.005762 C 33,56.005762 33,61.651888 33,61.651888 C 31.345407,61.662518 29,60.386878 29,58.828462 C 29,57.270047 30.846401,56.005762 33,56.005762 L 33,56.005762 L 33,56.005762 L 33,56.005762 z" display="inline" opacity=".402" overflow="visible" visibility="visible" style="marker:none"/><path id="path2850" fill="#4d4d4d" fill-opacity="1" fill-rule="nonzero" stroke="#333" stroke-dasharray="none" stroke-dashoffset="0" stroke-linecap="butt" stroke-linejoin="round" stroke-miterlimit="4" stroke-opacity="1" stroke-width="1" marker-end="none" marker-mid="none" marker-start="none" d="M 35.5,59.499151 C 33.902307,59.499151 32.304614,59.499151 30.70692,59.499151 C 30.318584,59.108508 30.613875,58.332921 30.521611,57.779891 C 30.521611,47.418802 30.521611,37.057715 30.521611,26.696628 L 30.57577,26.562457 L 30.706924,26.507057 L 30.706924,26.507057 C 32.369796,26.507057 33.771949,26.507057 35.434823,26.507057" display="block" enable-background="accumulate" overflow="visible" visibility="visible" style="marker:none"/><path id="path2852" fill="#4d4d4d" fill-opacity="1" fill-rule="nonzero" stroke="#333" stroke-dasharray="none" stroke-dashoffset="0" stroke-linecap="butt" stroke-linejoin="round" stroke-miterlimit="4" stroke-opacity="1" stroke-width="1" marker-end="none" marker-mid="none" marker-start="none" d="M 52.5,26.506602 C 54.112046,26.506602 55.717197,26.506602 57.310302,26.506602 C 57.536454,26.506602 57.497432,27.542318 57.497432,28.224758 C 57.497432,38.579193 57.497434,48.933626 57.497434,59.288059 C 57,59.508296 55.800313,59.477512 55.800313,59.477512 C 55.800313,59.477512 52.540491,59.477512 52.540491,59.477512" display="block" enable-background="accumulate" overflow="visible" visibility="visible" style="marker:none"/><rect id="rect2854" width="19" height="33" x="34.5" y="26.5" fill="url(#linearGradient2531)" fill-opacity="1" fill-rule="nonzero" stroke="#333" stroke-dasharray="none" stroke-dashoffset="0" stroke-linecap="butt" stroke-linejoin="miter" stroke-miterlimit="4" stroke-opacity="1" stroke-width="1" marker-end="none" marker-mid="none" marker-start="none" display="inline" enable-background="accumulate" overflow="visible" rx="0" ry="0" visibility="visible" style="marker:none"/><path id="path2856" fill="none" stroke="#333" stroke-dasharray="none" stroke-linecap="square" stroke-linejoin="round" stroke-miterlimit="4" stroke-opacity="1" stroke-width="1" d="M 35.5,43.499603 L 52.502976,43.499603"/><path id="path2858" fill="none" stroke="#fff" stroke-dasharray="none" stroke-dashoffset="0" stroke-linecap="square" stroke-linejoin="round" stroke-miterlimit="4" stroke-opacity="1" stroke-width="1" d="M 35.504159,27.499603 C 41.169045,27.499603 46.833931,27.499603 52.498817,27.499603" display="block" opacity=".366" overflow="visible" visibility="visible" style="marker:none"/><path id="path2860" fill="none" stroke="#fff" stroke-dasharray="none" stroke-dashoffset="0" stroke-linecap="square" stroke-linejoin="round" stroke-miterlimit="4" stroke-opacity="1" stroke-width="1" d="M 35.504159,44.499603 C 41.169045,44.499603 46.833931,44.499603 52.498817,44.499603" display="block" opacity=".366" overflow="visible" visibility="visible" style="marker:none"/><path id="path2862" fill="url(#linearGradient2525)" fill-opacity="1" stroke="none" stroke-miterlimit="4" stroke-width=".587" d="M 31,29 L 34,29 L 34,32 L 31,32 L 31,29 z M 31,34 L 34,34 L 34,37 L 31,37 L 31,34 z M 31,39 L 34,39 L 34,42 L 31,42 L 31,39 z M 31,44 L 34,44 L 34,47 L 31,47 L 31,44 z M 31,49 L 34,49 L 34,52 C 34,52 31,52 31,52 L 31,49 z M 31,54 L 34,54 L 34,57 L 31,57 L 31,54 z"/><path id="path2943" fill="url(#linearGradient2522)" fill-opacity="1" fill-rule="nonzero" stroke="none" stroke-dasharray="none" stroke-dashoffset="0" stroke-linecap="butt" stroke-linejoin="miter" stroke-miterlimit="4" stroke-opacity="1" stroke-width=".587" marker-end="none" marker-mid="none" marker-start="none" d="M 54,29 L 57,29 L 57,32 L 54,32 L 54,29 z M 54,34 L 57,34 L 57,37 L 54,37 L 54,34 z M 54,39 L 57,39 L 57,42 L 54,42 L 54,39 z M 54,44 L 57,44 L 57,47 L 54,47 L 54,44 z M 54,49 L 57,49 L 57,52 C 57,52 54,52 54,52 L 54,49 z M 54,54 L 57,54 L 57,57 L 54,57 L 54,54 z" display="inline" enable-background="accumulate" overflow="visible" visibility="visible" style="marker:none"/></g></svg>