<svg xmlns="http://www.w3.org/2000/svg" xmlns:svg="http://www.w3.org/2000/svg" xmlns:xlink="http://www.w3.org/1999/xlink" id="svg3415" width="64" height="64" version="1.0"><defs id="defs3417"><radialGradient id="radialGradient3850" cx="34.828" cy="65.617" r="42.271" fx="34.828" fy="65.617" gradientTransform="matrix(0.1481826,1.025688e-2,-8.94678e-3,0.1326541,2.7080247,-1.8757458)" gradientUnits="userSpaceOnUse" xlink:href="#linearGradient4342"/><linearGradient id="linearGradient3848" x1="20.253" x2="5.525" y1="40.523" y2="11.735" gradientTransform="matrix(0.3333929,0,0,0.3359124,2.9801845,-1.4923359)" gradientUnits="userSpaceOnUse" xlink:href="#linearGradient4157-401"/><linearGradient id="linearGradient3846" x1=".633" x2="79.104" y1="3.09" y2="170.289" gradientTransform="matrix(0.2363543,0,5.228618e-8,0.2051935,-28.514171,13.948929)" gradientUnits="userSpaceOnUse" xlink:href="#linearGradient3997"/><linearGradient id="linearGradient4342"><stop id="stop4344" offset="0" stop-color="#6e8d5d" stop-opacity="1"/><stop id="stop4350" offset=".5" stop-color="#a2ac34" stop-opacity=".498"/><stop id="stop4352" offset=".75" stop-color="#cbbd40" stop-opacity=".247"/><stop id="stop4354" offset=".875" stop-color="#dbc146" stop-opacity=".122"/><stop id="stop4346" offset="1" stop-color="#ff480f" stop-opacity=".133"/></linearGradient><radialGradient id="radialGradient2759" cx="34.828" cy="65.617" r="42.271" fx="34.828" fy="65.617" gradientTransform="matrix(0.1481826,1.025688e-2,-8.94678e-3,0.1326541,2.7080247,-1.8757458)" gradientUnits="userSpaceOnUse" xlink:href="#linearGradient4342"/><linearGradient id="linearGradient4157-401"><stop id="stop3688" offset="0" stop-color="#262626" stop-opacity="1"/><stop id="stop3690" offset="1" stop-color="#828282" stop-opacity="1"/></linearGradient><linearGradient id="linearGradient2757" x1="20.253" x2="5.525" y1="40.523" y2="11.735" gradientTransform="matrix(0.3333929,0,0,0.3359124,2.9801845,-1.4923359)" gradientUnits="userSpaceOnUse" xlink:href="#linearGradient4157-401"/><linearGradient id="linearGradient3997"><stop id="stop3999" offset="0" stop-color="#f3f7fa" stop-opacity="1"/><stop id="stop4001" offset="1" stop-color="#fdfeff" stop-opacity="1"/></linearGradient><linearGradient id="linearGradient2755" x1=".633" x2="79.104" y1="3.09" y2="170.289" gradientTransform="matrix(0.236369,0,5.2969895e-8,0.2044695,-45.646526,-6.8895218)" gradientUnits="userSpaceOnUse" xlink:href="#linearGradient3997"/><radialGradient id="radialGradient3413" cx="605.714" cy="486.648" r="117.143" fx="605.714" fy="486.648" gradientTransform="matrix(4.016195e-2,0,0,3.2942602e-2,33.795982,40.921317)" gradientUnits="userSpaceOnUse" xlink:href="#linearGradient5060-820"/><linearGradient id="linearGradient3484"><stop id="stop3486" offset="0" stop-color="#bdbdbd" stop-opacity="1"/><stop id="stop3488" offset="1" stop-color="#d0d0d0" stop-opacity="1"/></linearGradient><radialGradient id="radialGradient3396" cx="3" cy="-17.821" r="21" fx="3" fy="-17.821" gradientTransform="matrix(-1.7093459e-8,2.2713251,-2.8951677,-1.9343515e-8,-48.593318,2.3972382)" gradientUnits="userSpaceOnUse" xlink:href="#linearGradient3484"/><linearGradient id="linearGradient6404"><stop id="stop6406" offset="0" stop-color="#f9f9f9" stop-opacity="1"/><stop id="stop6408" offset="1" stop-color="#c9c9c9" stop-opacity="1"/></linearGradient><linearGradient id="linearGradient3398" x1="62.989" x2="62.989" y1="13.183" y2="16.19" gradientTransform="matrix(1.3407707,0,0,1.3249351,-134.0678,-1.3881028)" gradientUnits="userSpaceOnUse" xlink:href="#linearGradient6404"/><linearGradient id="linearGradient5048-585"><stop id="stop2667" offset="0" stop-color="#000" stop-opacity="0"/><stop id="stop2669" offset=".5" stop-color="#000" stop-opacity="1"/><stop id="stop2671" offset="1" stop-color="#000" stop-opacity="0"/></linearGradient><linearGradient id="linearGradient3409" x1="302.857" x2="302.857" y1="366.648" y2="609.505" gradientTransform="matrix(0.1076923,0,0,3.2941173e-2,-6.9230773,40.922188)" gradientUnits="userSpaceOnUse" xlink:href="#linearGradient5048-585"/><linearGradient id="linearGradient5060-820"><stop id="stop2681" offset="0" stop-color="#000" stop-opacity="1"/><stop id="stop2683" offset="1" stop-color="#000" stop-opacity="0"/></linearGradient><radialGradient id="radialGradient3403" cx="605.714" cy="486.648" r="117.143" fx="605.714" fy="486.648" gradientTransform="matrix(-4.016195e-2,0,0,3.2942602e-2,30.204018,40.921317)" gradientUnits="userSpaceOnUse" xlink:href="#linearGradient5060-820"/><linearGradient id="linearGradient3390"><stop id="stop3392" offset="0" stop-color="#425e7b" stop-opacity="1"/><stop id="stop3394" offset="1" stop-color="#7a91a7" stop-opacity="1"/></linearGradient><linearGradient id="linearGradient2587" x1="82.453" x2="65.34" y1="45.114" y2="15.944" gradientTransform="matrix(1.3407998,0,0,1.3264587,-72.462643,-1.6032277)" gradientUnits="userSpaceOnUse" xlink:href="#linearGradient3390"/><linearGradient id="linearGradient7012-661-145-733-759-865-745"><stop id="stop2699" offset="0" stop-color="#9cbbd9" stop-opacity="1"/><stop id="stop2701" offset="1" stop-color="#5c82ab" stop-opacity="1"/></linearGradient><radialGradient id="radialGradient2585" cx="63.969" cy="14.113" r="23.097" fx="63.969" fy="14.113" gradientTransform="matrix(2.0979394,-1.2620327e-7,8.2824269e-8,1.3475335,-115.96782,9.3537334)" gradientUnits="userSpaceOnUse" xlink:href="#linearGradient7012-661-145-733-759-865-745"/><linearGradient id="linearGradient6129-963-697-142-998-580-273"><stop id="stop2661" offset="0" stop-color="#0a0a0a" stop-opacity=".498"/><stop id="stop2663" offset="1" stop-color="#0a0a0a" stop-opacity="0"/></linearGradient><linearGradient id="linearGradient2582" x1="22.935" x2="22.809" y1="49.629" y2="36.658" gradientTransform="matrix(1.5347702,0,0,1.3270123,-5.0206145,-4.8541574e-2)" gradientUnits="userSpaceOnUse" xlink:href="#linearGradient6129-963-697-142-998-580-273"/><linearGradient id="linearGradient6087-437-184-795-110-662-495"><stop id="stop2693" offset="0" stop-color="#fff" stop-opacity=".4"/><stop id="stop2695" offset="1" stop-color="#fff" stop-opacity="0"/></linearGradient><radialGradient id="radialGradient2579" cx="7.265" cy="8.302" r="20.98" fx="7.265" fy="8.302" gradientTransform="matrix(0,1.606606,-2.1816541,0,34.685541,9.28484)" gradientUnits="userSpaceOnUse" xlink:href="#linearGradient6087-437-184-795-110-662-495"/><linearGradient id="linearGradient8265-821-176-38-919-66-249"><stop id="stop2687" offset="0" stop-color="#fff" stop-opacity=".275"/><stop id="stop2689" offset="1" stop-color="#fff" stop-opacity=".078"/></linearGradient><linearGradient id="linearGradient2576" x1="11.566" x2="15.215" y1="22.292" y2="33.955" gradientTransform="matrix(1.3407707,0,0,1.33,-0.3733138,-1.3099814)" gradientUnits="userSpaceOnUse" xlink:href="#linearGradient8265-821-176-38-919-66-249"/></defs><g id="layer1"><path id="path3411" fill="url(#radialGradient3413)" fill-opacity="1" fill-rule="nonzero" stroke="none" stroke-width="1" d="M 58,52.999928 C 58,52.999928 58,60.999835 58,60.999835 C 60.068242,61.014894 63,59.20746 63,56.999367 C 63,54.791272 60.691999,52.999928 58,52.999928 z" display="inline" opacity=".3" overflow="visible" visibility="visible" style="marker:none"/><path id="path2558" fill="url(#linearGradient3398)" fill-opacity="1" fill-rule="nonzero" stroke="url(#radialGradient3396)" stroke-dasharray="none" stroke-dashoffset="0" stroke-linecap="round" stroke-linejoin="round" stroke-miterlimit="4" stroke-opacity="1" stroke-width="1" marker-end="none" marker-mid="none" marker-start="none" d="M 8,9.5001644 C 7.0849896,9.5103921 6.5,9.9563421 6.5,10.83345 L 6.5,13.5 C 6.5,13.5 4.994002,13.5 4.994002,13.5 C 3.999085,13.5 3.5,13.973582 3.5,14.842172 C 3.5456145,28.561749 3.5,29.335179 3.5,30.499999 C 5.4028336,30.499999 60.499998,25.567196 60.499998,23.443895 L 60.499998,15 C 60.499998,13.999931 60.000052,13.5 59,13.5 L 28.64966,13.5 L 28.5,10.83345 C 28.5,9.9563421 28.275474,9.4899354 27.360464,9.5001644 L 8,9.5001644 z" display="inline" enable-background="accumulate" opacity="1" overflow="visible" visibility="visible" style="marker:none"/><rect id="rect4173" width="52" height="8" x="6" y="53" fill="url(#linearGradient3409)" fill-opacity="1" fill-rule="nonzero" stroke="none" stroke-width="1" display="inline" opacity=".3" overflow="visible" visibility="visible" style="marker:none"/><path id="path5018" fill="url(#radialGradient3403)" fill-opacity="1" fill-rule="nonzero" stroke="none" stroke-width="1" d="M 6,52.999928 C 6,52.999928 6,60.999835 6,60.999835 C 3.9317585,61.014894 1,59.20746 1,56.999367 C 1,54.791272 3.308001,52.999928 6,52.999928 z" display="inline" opacity=".3" overflow="visible" visibility="visible" style="marker:none"/><path id="path3388" fill="url(#radialGradient2585)" fill-opacity="1" stroke="url(#linearGradient2587)" stroke-dasharray="none" stroke-dashoffset="0" stroke-linecap="round" stroke-linejoin="round" stroke-miterlimit="4" stroke-opacity="1" stroke-width=".999" d="M 2.5259407,20.468232 C 1.0876554,20.632306 1.6560144,22.328083 1.5413397,23.281666 C 2.0676467,34.516892 2.7989745,45.525657 3.3220406,56.760958 C 3.7803743,58.041911 5.4598586,57.385933 6.5240274,57.548543 C 24.213928,57.548543 41.903832,57.548543 59.593735,57.548543 C 61.054375,57.407075 60.447101,55.681312 60.652564,54.693657 C 61.178881,43.458431 61.9106,32.449666 62.43366,21.214365 C 62.096891,19.94854 60.196076,20.651928 59.199039,20.468232 C 40.30801,20.468232 21.416976,20.468232 2.5259407,20.468232 L 2.5259407,20.468232 z"/><path id="path6127" fill="url(#linearGradient2582)" fill-opacity="1" stroke="none" d="M 2.3863178,19.856642 L 61.241426,19.857178 C 62.091689,19.857178 62.642739,20.448511 62.642739,21.183677 L 60.974504,57.012987 C 60.974504,57.748151 60.289997,58.339998 59.439737,58.339998 L 4.1880045,58.339998 C 3.3377415,58.339998 2.653234,57.748151 2.653234,57.012987 L 0.98500571,21.183655 C 0.98500571,20.448488 1.5360548,19.856642 2.3863178,19.856642 z" opacity=".4"/><path id="path2435" fill="none" stroke="url(#radialGradient2579)" stroke-dasharray="none" stroke-linecap="round" stroke-linejoin="round" stroke-miterlimit="4" stroke-opacity="1" stroke-width="1" d="M 61.672911,21.565438 C 43.530608,21.565438 20.821304,21.565438 2.679,21.565438 C 3,32 3.7125107,43.316481 4.2292662,54.192001"/><path id="path3455" fill="url(#linearGradient2576)" fill-opacity="1" stroke="none" d="M 60.966946,19.970018 C 41.459282,20.067574 21.944372,19.941889 2.4339249,19.970018 C 0.011473769,20.516804 1.3151768,23.25061 1.130124,24.986147 C 1.4278147,30.523398 1.5632824,36.084915 1.9620206,41.607 C 22.074269,38.464478 42.086655,35.479352 61.846826,32.230956 C 62.893956,28.790807 62.90252,24.689066 62.728192,21.020088 C 62.420973,20.34902 61.672994,19.954965 60.966946,19.970018 z"/></g><g id="g2738" transform="matrix(1.33,0,0,1.33,69.59273,5.4878541)"><rect id="rect2722" width="20.979" height="20.911" x="-47.106" y="-1.198" fill="url(#linearGradient2755)" fill-opacity="1" stroke="#909090" stroke-dasharray="none" stroke-linecap="round" stroke-linejoin="round" stroke-miterlimit="4" stroke-opacity=".969" stroke-width=".753" transform="matrix(0.8651595,-0.5014968,0.4981653,0.8670821,0,0)"/><g id="g2724" transform="matrix(1.4415541,-0.8322816,0.8176258,1.4161694,-45.200897,21.557116)"><rect id="rect2726" width="10.867" height="9.622" x="2.578" y="2.567" fill="url(#linearGradient2757)" fill-opacity="1" stroke="#333" stroke-dasharray="none" stroke-linecap="round" stroke-linejoin="round" stroke-miterlimit="4" stroke-opacity=".969" stroke-width=".483" rx="0" ry="0" transform="matrix(0.9999984,-1.78851e-3,-2.04705e-3,0.9999979,0,0)"/><rect id="rect2728" width="10.867" height="9.622" x="2.578" y="2.567" fill="url(#radialGradient2759)" fill-opacity="1" stroke="none" opacity=".35" rx="0" ry="0" transform="matrix(0.9999984,-1.78851e-3,-2.04705e-3,0.9999979,0,0)"/></g><rect id="rect3838" width="20.977" height="20.985" x="-29.974" y="19.661" fill="url(#linearGradient3846)" fill-opacity="1" stroke="#909090" stroke-dasharray="none" stroke-linecap="round" stroke-linejoin="round" stroke-miterlimit="4" stroke-opacity=".969" stroke-width=".754" transform="matrix(0.9999985,-1.73547e-3,-2.1096e-3,0.9999978,0,0)"/><g id="g3840" transform="matrix(1.6645632,0,0,1.6352516,-32.835919,16.972381)"><rect id="rect3842" width="10.867" height="9.622" x="2.578" y="2.567" fill="url(#linearGradient3848)" fill-opacity="1" stroke="#333" stroke-dasharray="none" stroke-linecap="round" stroke-linejoin="round" stroke-miterlimit="4" stroke-opacity=".969" stroke-width=".483" rx="0" ry="0" transform="matrix(0.9999984,-1.78851e-3,-2.04705e-3,0.9999979,0,0)"/><rect id="rect3844" width="10.867" height="9.622" x="2.578" y="2.567" fill="url(#radialGradient3850)" fill-opacity="1" stroke="none" opacity=".35" rx="0" ry="0" transform="matrix(0.9999984,-1.78851e-3,-2.04705e-3,0.9999979,0,0)"/></g></g></svg>