<svg xmlns="http://www.w3.org/2000/svg" xmlns:svg="http://www.w3.org/2000/svg" xmlns:xlink="http://www.w3.org/1999/xlink" id="svg3415" width="64" height="64" version="1.0"><defs id="defs3417"><linearGradient id="linearGradient6404-1"><stop id="stop6406-5" offset="0" stop-color="#f9f9f9" stop-opacity="1"/><stop id="stop6408-9" offset="1" stop-color="#c9c9c9" stop-opacity="1"/></linearGradient><linearGradient id="linearGradient2939" x1="62.989" x2="62.989" y1="13.183" y2="16.19" gradientTransform="translate(-112.21338,-10.504231)" gradientUnits="userSpaceOnUse" xlink:href="#linearGradient6404-1"/><linearGradient id="linearGradient3397"><stop id="stop3399" offset="0" stop-color="#a0a0a0" stop-opacity="1"/><stop id="stop3401" offset="1" stop-color="#787878" stop-opacity="1"/></linearGradient><linearGradient id="linearGradient2646" x1="25.923" x2="25.923" y1="19" y2="47.045" gradientTransform="translate(-61.272483,-10.504231)" gradientUnits="userSpaceOnUse" xlink:href="#linearGradient3397"/><linearGradient id="linearGradient3309" x1="63.999" x2="63.999" y1="3.1" y2="122.899" gradientUnits="userSpaceOnUse"><stop id="stop3311" offset="0" stop-color="#f6f6f6" stop-opacity="1"/><stop id="stop3313" offset="1" stop-color="#d2d2d2" stop-opacity="1"/></linearGradient><linearGradient id="linearGradient2644" x1="32.036" x2="32.036" y1="19" y2="47.012" gradientTransform="translate(-61.272483,-10.504231)" gradientUnits="userSpaceOnUse" xlink:href="#linearGradient3309"/><radialGradient id="radialGradient3413" cx="605.714" cy="486.648" r="117.143" fx="605.714" fy="486.648" gradientTransform="matrix(4.016195e-2,0,0,3.2942602e-2,33.795982,40.921317)" gradientUnits="userSpaceOnUse" xlink:href="#linearGradient5060-820"/><linearGradient id="linearGradient3484"><stop id="stop3486" offset="0" stop-color="#bdbdbd" stop-opacity="1"/><stop id="stop3488" offset="1" stop-color="#d0d0d0" stop-opacity="1"/></linearGradient><radialGradient id="radialGradient3396" cx="3" cy="-17.821" r="21" fx="3" fy="-17.821" gradientTransform="matrix(-1.7093459e-8,2.2713251,-2.8951677,-1.9343515e-8,-48.593318,2.3972382)" gradientUnits="userSpaceOnUse" xlink:href="#linearGradient3484"/><linearGradient id="linearGradient6404"><stop id="stop6406" offset="0" stop-color="#f9f9f9" stop-opacity="1"/><stop id="stop6408" offset="1" stop-color="#c9c9c9" stop-opacity="1"/></linearGradient><linearGradient id="linearGradient3398" x1="62.989" x2="62.989" y1="13.183" y2="16.19" gradientTransform="matrix(1.3407707,0,0,1.3249351,-134.0678,-1.3881028)" gradientUnits="userSpaceOnUse" xlink:href="#linearGradient6404"/><linearGradient id="linearGradient5048-585"><stop id="stop2667" offset="0" stop-color="#000" stop-opacity="0"/><stop id="stop2669" offset=".5" stop-color="#000" stop-opacity="1"/><stop id="stop2671" offset="1" stop-color="#000" stop-opacity="0"/></linearGradient><linearGradient id="linearGradient3409" x1="302.857" x2="302.857" y1="366.648" y2="609.505" gradientTransform="matrix(0.1076923,0,0,3.2941173e-2,-6.9230773,40.922188)" gradientUnits="userSpaceOnUse" xlink:href="#linearGradient5048-585"/><linearGradient id="linearGradient5060-820"><stop id="stop2681" offset="0" stop-color="#000" stop-opacity="1"/><stop id="stop2683" offset="1" stop-color="#000" stop-opacity="0"/></linearGradient><radialGradient id="radialGradient3403" cx="605.714" cy="486.648" r="117.143" fx="605.714" fy="486.648" gradientTransform="matrix(-4.016195e-2,0,0,3.2942602e-2,30.204018,40.921317)" gradientUnits="userSpaceOnUse" xlink:href="#linearGradient5060-820"/><linearGradient id="linearGradient3390"><stop id="stop3392" offset="0" stop-color="#425e7b" stop-opacity="1"/><stop id="stop3394" offset="1" stop-color="#7a91a7" stop-opacity="1"/></linearGradient><linearGradient id="linearGradient2587" x1="82.453" x2="65.34" y1="45.114" y2="15.944" gradientTransform="matrix(1.3407998,0,0,1.3264587,-72.462643,-1.6032277)" gradientUnits="userSpaceOnUse" xlink:href="#linearGradient3390"/><linearGradient id="linearGradient7012-661-145-733-759-865-745"><stop id="stop2699" offset="0" stop-color="#9cbbd9" stop-opacity="1"/><stop id="stop2701" offset="1" stop-color="#5c82ab" stop-opacity="1"/></linearGradient><radialGradient id="radialGradient2585" cx="63.969" cy="14.113" r="23.097" fx="63.969" fy="14.113" gradientTransform="matrix(2.0979394,-1.2620327e-7,8.2824269e-8,1.3475335,-115.96782,9.3537334)" gradientUnits="userSpaceOnUse" xlink:href="#linearGradient7012-661-145-733-759-865-745"/><linearGradient id="linearGradient6129-963-697-142-998-580-273"><stop id="stop2661" offset="0" stop-color="#0a0a0a" stop-opacity=".498"/><stop id="stop2663" offset="1" stop-color="#0a0a0a" stop-opacity="0"/></linearGradient><linearGradient id="linearGradient2582" x1="22.935" x2="22.809" y1="49.629" y2="36.658" gradientTransform="matrix(1.5347702,0,0,1.3270123,-5.0206145,-4.8541574e-2)" gradientUnits="userSpaceOnUse" xlink:href="#linearGradient6129-963-697-142-998-580-273"/><linearGradient id="linearGradient6087-437-184-795-110-662-495"><stop id="stop2693" offset="0" stop-color="#fff" stop-opacity=".4"/><stop id="stop2695" offset="1" stop-color="#fff" stop-opacity="0"/></linearGradient><radialGradient id="radialGradient2579" cx="7.265" cy="8.302" r="20.98" fx="7.265" fy="8.302" gradientTransform="matrix(0,1.606606,-2.1816541,0,34.685541,9.28484)" gradientUnits="userSpaceOnUse" xlink:href="#linearGradient6087-437-184-795-110-662-495"/><linearGradient id="linearGradient8265-821-176-38-919-66-249"><stop id="stop2687" offset="0" stop-color="#fff" stop-opacity=".275"/><stop id="stop2689" offset="1" stop-color="#fff" stop-opacity=".078"/></linearGradient><linearGradient id="linearGradient2576" x1="11.566" x2="15.215" y1="22.292" y2="33.955" gradientTransform="matrix(1.3407707,0,0,1.33,-0.3733138,-1.3099814)" gradientUnits="userSpaceOnUse" xlink:href="#linearGradient8265-821-176-38-919-66-249"/></defs><g id="layer1"><path id="path3411" fill="url(#radialGradient3413)" fill-opacity="1" fill-rule="nonzero" stroke="none" stroke-width="1" d="M 58,52.999928 C 58,52.999928 58,60.999835 58,60.999835 C 60.068242,61.014894 63,59.20746 63,56.999367 C 63,54.791272 60.691999,52.999928 58,52.999928 z" display="inline" opacity=".3" overflow="visible" visibility="visible" style="marker:none"/><path id="path2558" fill="url(#linearGradient3398)" fill-opacity="1" fill-rule="nonzero" stroke="url(#radialGradient3396)" stroke-dasharray="none" stroke-dashoffset="0" stroke-linecap="round" stroke-linejoin="round" stroke-miterlimit="4" stroke-opacity="1" stroke-width="1" marker-end="none" marker-mid="none" marker-start="none" d="M 8,9.5001644 C 7.0849896,9.5103921 6.5,9.9563421 6.5,10.83345 L 6.5,13.5 C 6.5,13.5 4.994002,13.5 4.994002,13.5 C 3.999085,13.5 3.5,13.973582 3.5,14.842172 C 3.5456145,28.561749 3.5,29.335179 3.5,30.499999 C 5.4028336,30.499999 60.499998,25.567196 60.499998,23.443895 L 60.499998,15 C 60.499998,13.999931 60.000052,13.5 59,13.5 L 28.64966,13.5 L 28.5,10.83345 C 28.5,9.9563421 28.275474,9.4899354 27.360464,9.5001644 L 8,9.5001644 z" display="inline" enable-background="accumulate" opacity="1" overflow="visible" visibility="visible" style="marker:none"/><rect id="rect4173" width="52" height="8" x="6" y="53" fill="url(#linearGradient3409)" fill-opacity="1" fill-rule="nonzero" stroke="none" stroke-width="1" display="inline" opacity=".3" overflow="visible" visibility="visible" style="marker:none"/><path id="path5018" fill="url(#radialGradient3403)" fill-opacity="1" fill-rule="nonzero" stroke="none" stroke-width="1" d="M 6,52.999928 C 6,52.999928 6,60.999835 6,60.999835 C 3.9317585,61.014894 1,59.20746 1,56.999367 C 1,54.791272 3.308001,52.999928 6,52.999928 z" display="inline" opacity=".3" overflow="visible" visibility="visible" style="marker:none"/><path id="path3388" fill="url(#radialGradient2585)" fill-opacity="1" stroke="url(#linearGradient2587)" stroke-dasharray="none" stroke-dashoffset="0" stroke-linecap="round" stroke-linejoin="round" stroke-miterlimit="4" stroke-opacity="1" stroke-width=".999" d="M 2.5259407,20.468232 C 1.0876554,20.632306 1.6560144,22.328083 1.5413397,23.281666 C 2.0676467,34.516892 2.7989745,45.525657 3.3220406,56.760958 C 3.7803743,58.041911 5.4598586,57.385933 6.5240274,57.548543 C 24.213928,57.548543 41.903832,57.548543 59.593735,57.548543 C 61.054375,57.407075 60.447101,55.681312 60.652564,54.693657 C 61.178881,43.458431 61.9106,32.449666 62.43366,21.214365 C 62.096891,19.94854 60.196076,20.651928 59.199039,20.468232 C 40.30801,20.468232 21.416976,20.468232 2.5259407,20.468232 L 2.5259407,20.468232 z"/><path id="path6127" fill="url(#linearGradient2582)" fill-opacity="1" stroke="none" d="M 2.3863178,19.856642 L 61.241426,19.857178 C 62.091689,19.857178 62.642739,20.448511 62.642739,21.183677 L 60.974504,57.012987 C 60.974504,57.748151 60.289997,58.339998 59.439737,58.339998 L 4.1880045,58.339998 C 3.3377415,58.339998 2.653234,57.748151 2.653234,57.012987 L 0.98500571,21.183655 C 0.98500571,20.448488 1.5360548,19.856642 2.3863178,19.856642 z" opacity=".4"/><path id="path2435" fill="none" stroke="url(#radialGradient2579)" stroke-dasharray="none" stroke-linecap="round" stroke-linejoin="round" stroke-miterlimit="4" stroke-opacity="1" stroke-width="1" d="M 61.672911,21.565438 C 43.530608,21.565438 20.821304,21.565438 2.679,21.565438 C 3,32 3.7125107,43.316481 4.2292662,54.192001"/><path id="path3455" fill="url(#linearGradient2576)" fill-opacity="1" stroke="none" d="M 60.966946,19.970018 C 41.459282,20.067574 21.944372,19.941889 2.4339249,19.970018 C 0.011473769,20.516804 1.3151768,23.25061 1.130124,24.986147 C 1.4278147,30.523398 1.5632824,36.084915 1.9620206,41.607 C 22.074269,38.464478 42.086655,35.479352 61.846826,32.230956 C 62.893956,28.790807 62.90252,24.689066 62.728192,21.020088 C 62.420973,20.34902 61.672994,19.954965 60.966946,19.970018 z"/></g><g id="g2639" transform="matrix(1.33,0,0,1.33,79.901402,11.715627)"><path id="rect2576" fill="url(#linearGradient2644)" fill-opacity="1" fill-rule="nonzero" stroke="url(#linearGradient2646)" stroke-dasharray="none" stroke-dashoffset="0" stroke-linecap="butt" stroke-linejoin="round" stroke-miterlimit="4" stroke-opacity="1" stroke-width=".752" d="M -32.397483,8.995769 C -33.146222,8.995769 -33.772483,9.590781 -33.772483,10.339519 L -33.772483,12.089519 C -34.245885,12.248395 -34.705234,12.432925 -35.147483,12.652019 L -36.366233,11.433269 C -36.895672,10.903831 -37.743045,10.903831 -38.272483,11.433269 L -41.334983,14.464519 C -41.864422,14.993957 -41.864419,15.841332 -41.334983,16.370769 L -40.116233,17.589519 C -40.34056,18.039451 -40.516865,18.513451 -40.678733,18.995769 L -42.397483,18.995769 C -43.146222,18.995769 -43.772485,19.590781 -43.772483,20.339519 L -43.772483,24.652019 C -43.772484,25.400757 -43.146219,25.995771 -42.397483,25.995769 L -40.678733,25.995769 C -40.516865,26.478087 -40.34056,26.952087 -40.116233,27.402019 L -41.334983,28.620769 C -41.864422,29.150207 -41.864423,29.997581 -41.334983,30.527019 L -38.272483,33.558269 C -37.743046,34.087707 -36.89567,34.087705 -36.366233,33.558269 L -35.147483,32.339519 C -34.705234,32.558613 -34.245885,32.743143 -33.772483,32.902019 L -33.772483,34.652019 C -33.772484,35.400757 -33.146217,35.995771 -32.397483,35.995769 L -28.116233,35.995769 C -27.367494,35.995769 -26.772483,35.400755 -26.772483,34.652019 L -26.772483,32.902019 C -26.290165,32.740151 -25.816165,32.563846 -25.366233,32.339519 L -24.147483,33.558269 C -23.618044,34.087707 -22.770672,34.087707 -22.241233,33.558269 L -19.178733,30.527019 C -18.649294,29.997581 -18.649299,29.150205 -19.178733,28.620769 L -20.428733,27.370769 C -20.209639,26.92852 -20.025109,26.469171 -19.866233,25.995769 L -18.116233,25.995769 C -17.367494,25.995769 -16.772483,25.400755 -16.772483,24.652019 L -16.772483,20.339519 C -16.772482,19.590781 -17.367499,18.995769 -18.116233,18.995769 L -19.866233,18.995769 C -20.025109,18.522367 -20.209639,18.063018 -20.428733,17.620769 L -19.178733,16.370769 C -18.649294,15.841331 -18.649295,14.993957 -19.178733,14.464519 L -22.241233,11.433269 C -22.77067,10.903831 -23.618047,10.903831 -24.147483,11.433269 L -25.366233,12.652019 C -25.816165,12.427692 -26.290165,12.251387 -26.772483,12.089519 L -26.772483,10.339519 C -26.772482,9.590781 -27.367499,8.995769 -28.116233,8.995769 L -32.397483,8.995769 L -32.397483,8.995769 z M -30.272483,18.995769 C -28.340483,18.995769 -26.772483,20.563769 -26.772483,22.495769 C -26.772483,24.427769 -28.340483,25.995769 -30.272483,25.995769 C -32.204484,25.995769 -33.772483,24.427769 -33.772483,22.495769 C -33.772484,20.563769 -32.204483,18.995769 -30.272483,18.995769 z" display="block" enable-background="accumulate" overflow="visible" visibility="visible" style="marker:none"/><path id="path3315" fill="#000" fill-opacity="1" stroke="none" d="M -30.272483,14.495769 C -34.683756,14.495769 -38.272481,18.084496 -38.272481,22.495769 C -38.272481,26.907043 -34.683756,30.495769 -30.272483,30.495769 C -25.86121,30.495769 -22.272483,26.907043 -22.272483,22.495769 C -22.272483,18.084496 -25.86121,14.495769 -30.272483,14.495769 L -30.272483,14.495769 z M -30.272483,18.188078 C -27.894639,18.188078 -25.96479,20.117924 -25.96479,22.495769 C -25.96479,24.873616 -27.894639,26.803462 -30.272483,26.803462 C -32.650329,26.803462 -34.580174,24.873616 -34.580174,22.495769 C -34.580174,20.117924 -32.650329,18.188078 -30.272483,18.188078 L -30.272483,18.188078 z" opacity=".05"/><path id="path28" fill="none" stroke="url(#linearGradient2939)" stroke-dasharray="none" stroke-miterlimit="4" stroke-width=".752" d="M -30.272483,14.11646 C -34.892836,14.11646 -38.651791,17.875417 -38.651791,22.495768 C -38.651791,27.11612 -34.892836,30.875078 -30.272483,30.875078 C -25.65213,30.875078 -21.893173,27.11612 -21.893173,22.495768 C -21.893173,17.875417 -25.65213,14.11646 -30.272483,14.11646 L -30.272483,14.11646 z"/></g></svg>