<svg xmlns="http://www.w3.org/2000/svg" xmlns:svg="http://www.w3.org/2000/svg" xmlns:xlink="http://www.w3.org/1999/xlink" id="svg3415" width="64" height="64" version="1.0"><defs id="defs3417"><linearGradient id="linearGradient5670-612-8"><stop id="stop3203-1" offset="0" stop-color="#000" stop-opacity="1"/><stop id="stop3205-0" offset="1" stop-color="#000" stop-opacity="0"/></linearGradient><radialGradient id="radialGradient3075" cx="22.902" cy="45.867" r="7.906" fx="22.902" fy="45.867" gradientTransform="matrix(1.0091312,0,0,0.4333737,9.3721941,39.147916)" gradientUnits="userSpaceOnUse" xlink:href="#linearGradient5670-612-8"/><linearGradient id="linearGradient2454" x1="28.739" x2="26.257" y1="144.117" y2="125.391" gradientTransform="matrix(0.4456368,0,0,0.3243297,44.6525,-18.437266)" gradientUnits="userSpaceOnUse" xlink:href="#linearGradient2372"/><linearGradient id="linearGradient3668"><stop id="stop3670" offset="0" stop-color="#fff" stop-opacity="1"/><stop id="stop3672" offset="1" stop-color="#fff" stop-opacity="0"/></linearGradient><radialGradient id="radialGradient2954" cx="17.059" cy="41.059" r="5.738" fx="14.758" fy="37.841" gradientTransform="matrix(1.0091641,-0.1636283,2.202691e-2,0.9432895,33.038227,14.99091)" gradientUnits="userSpaceOnUse" xlink:href="#linearGradient3668"/><linearGradient id="linearGradient2372"><stop id="stop2374" offset="0" stop-color="#fff" stop-opacity="1"/><stop id="stop2376" offset="1" stop-color="#fff" stop-opacity=".345"/></linearGradient><linearGradient id="linearGradient2952" x1="28.503" x2="26.257" y1="137.539" y2="125.391" gradientTransform="matrix(0.3228678,0,0,0.3243297,29.718801,-13.757826)" gradientUnits="userSpaceOnUse" xlink:href="#linearGradient2372"/><linearGradient id="linearGradient7067"><stop id="stop7069" offset="0" stop-color="#fff" stop-opacity="1"/><stop id="stop7071" offset="1" stop-color="#fff" stop-opacity="0"/></linearGradient><radialGradient id="radialGradient2950" cx="17.059" cy="41.059" r="5.738" fx="14.688" fy="37.456" gradientTransform="matrix(0.9584434,-0.1715415,3.3651e-2,0.9119853,15.85347,19.166362)" gradientUnits="userSpaceOnUse" xlink:href="#linearGradient7067"/><radialGradient id="radialGradient3413" cx="605.714" cy="486.648" r="117.143" fx="605.714" fy="486.648" gradientTransform="matrix(4.016195e-2,0,0,3.2942602e-2,33.795982,40.921317)" gradientUnits="userSpaceOnUse" xlink:href="#linearGradient5060-820"/><linearGradient id="linearGradient3484"><stop id="stop3486" offset="0" stop-color="#bdbdbd" stop-opacity="1"/><stop id="stop3488" offset="1" stop-color="#d0d0d0" stop-opacity="1"/></linearGradient><radialGradient id="radialGradient3396" cx="3" cy="-17.821" r="21" fx="3" fy="-17.821" gradientTransform="matrix(-1.7093459e-8,2.2713251,-2.8951677,-1.9343515e-8,-48.593318,2.3972382)" gradientUnits="userSpaceOnUse" xlink:href="#linearGradient3484"/><linearGradient id="linearGradient6404"><stop id="stop6406" offset="0" stop-color="#f9f9f9" stop-opacity="1"/><stop id="stop6408" offset="1" stop-color="#c9c9c9" stop-opacity="1"/></linearGradient><linearGradient id="linearGradient3398" x1="62.989" x2="62.989" y1="13.183" y2="16.19" gradientTransform="matrix(1.3407707,0,0,1.3249351,-134.0678,-1.3881028)" gradientUnits="userSpaceOnUse" xlink:href="#linearGradient6404"/><linearGradient id="linearGradient5048-585"><stop id="stop2667" offset="0" stop-color="#000" stop-opacity="0"/><stop id="stop2669" offset=".5" stop-color="#000" stop-opacity="1"/><stop id="stop2671" offset="1" stop-color="#000" stop-opacity="0"/></linearGradient><linearGradient id="linearGradient3409" x1="302.857" x2="302.857" y1="366.648" y2="609.505" gradientTransform="matrix(0.1076923,0,0,3.2941173e-2,-6.9230773,40.922188)" gradientUnits="userSpaceOnUse" xlink:href="#linearGradient5048-585"/><linearGradient id="linearGradient5060-820"><stop id="stop2681" offset="0" stop-color="#000" stop-opacity="1"/><stop id="stop2683" offset="1" stop-color="#000" stop-opacity="0"/></linearGradient><radialGradient id="radialGradient3403" cx="605.714" cy="486.648" r="117.143" fx="605.714" fy="486.648" gradientTransform="matrix(-4.016195e-2,0,0,3.2942602e-2,30.204018,40.921317)" gradientUnits="userSpaceOnUse" xlink:href="#linearGradient5060-820"/><linearGradient id="linearGradient3390"><stop id="stop3392" offset="0" stop-color="#425e7b" stop-opacity="1"/><stop id="stop3394" offset="1" stop-color="#7a91a7" stop-opacity="1"/></linearGradient><linearGradient id="linearGradient2587" x1="82.453" x2="65.34" y1="45.114" y2="15.944" gradientTransform="matrix(1.3407998,0,0,1.3264587,-72.462643,-1.6032277)" gradientUnits="userSpaceOnUse" xlink:href="#linearGradient3390"/><linearGradient id="linearGradient7012-661-145-733-759-865-745"><stop id="stop2699" offset="0" stop-color="#9cbbd9" stop-opacity="1"/><stop id="stop2701" offset="1" stop-color="#5c82ab" stop-opacity="1"/></linearGradient><radialGradient id="radialGradient2585" cx="63.969" cy="14.113" r="23.097" fx="63.969" fy="14.113" gradientTransform="matrix(2.0979394,-1.2620327e-7,8.2824269e-8,1.3475335,-115.96782,9.3537334)" gradientUnits="userSpaceOnUse" xlink:href="#linearGradient7012-661-145-733-759-865-745"/><linearGradient id="linearGradient6129-963-697-142-998-580-273"><stop id="stop2661" offset="0" stop-color="#0a0a0a" stop-opacity=".498"/><stop id="stop2663" offset="1" stop-color="#0a0a0a" stop-opacity="0"/></linearGradient><linearGradient id="linearGradient2582" x1="22.935" x2="22.809" y1="49.629" y2="36.658" gradientTransform="matrix(1.5347702,0,0,1.3270123,-5.0206145,-4.8541574e-2)" gradientUnits="userSpaceOnUse" xlink:href="#linearGradient6129-963-697-142-998-580-273"/><linearGradient id="linearGradient6087-437-184-795-110-662-495"><stop id="stop2693" offset="0" stop-color="#fff" stop-opacity=".4"/><stop id="stop2695" offset="1" stop-color="#fff" stop-opacity="0"/></linearGradient><radialGradient id="radialGradient2579" cx="7.265" cy="8.302" r="20.98" fx="7.265" fy="8.302" gradientTransform="matrix(0,1.606606,-2.1816541,0,34.685541,9.28484)" gradientUnits="userSpaceOnUse" xlink:href="#linearGradient6087-437-184-795-110-662-495"/><linearGradient id="linearGradient8265-821-176-38-919-66-249"><stop id="stop2687" offset="0" stop-color="#fff" stop-opacity=".275"/><stop id="stop2689" offset="1" stop-color="#fff" stop-opacity=".078"/></linearGradient><linearGradient id="linearGradient2576" x1="11.566" x2="15.215" y1="22.292" y2="33.955" gradientTransform="matrix(1.3407707,0,0,1.33,-0.3733138,-1.3099814)" gradientUnits="userSpaceOnUse" xlink:href="#linearGradient8265-821-176-38-919-66-249"/></defs><g id="layer1"><path id="path3411" fill="url(#radialGradient3413)" fill-opacity="1" fill-rule="nonzero" stroke="none" stroke-width="1" d="M 58,52.999928 C 58,52.999928 58,60.999835 58,60.999835 C 60.068242,61.014894 63,59.20746 63,56.999367 C 63,54.791272 60.691999,52.999928 58,52.999928 z" display="inline" opacity=".3" overflow="visible" visibility="visible" style="marker:none"/><path id="path2558" fill="url(#linearGradient3398)" fill-opacity="1" fill-rule="nonzero" stroke="url(#radialGradient3396)" stroke-dasharray="none" stroke-dashoffset="0" stroke-linecap="round" stroke-linejoin="round" stroke-miterlimit="4" stroke-opacity="1" stroke-width="1" marker-end="none" marker-mid="none" marker-start="none" d="M 8,9.5001644 C 7.0849896,9.5103921 6.5,9.9563421 6.5,10.83345 L 6.5,13.5 C 6.5,13.5 4.994002,13.5 4.994002,13.5 C 3.999085,13.5 3.5,13.973582 3.5,14.842172 C 3.5456145,28.561749 3.5,29.335179 3.5,30.499999 C 5.4028336,30.499999 60.499998,25.567196 60.499998,23.443895 L 60.499998,15 C 60.499998,13.999931 60.000052,13.5 59,13.5 L 28.64966,13.5 L 28.5,10.83345 C 28.5,9.9563421 28.275474,9.4899354 27.360464,9.5001644 L 8,9.5001644 z" display="inline" enable-background="accumulate" opacity="1" overflow="visible" visibility="visible" style="marker:none"/><rect id="rect4173" width="52" height="8" x="6" y="53" fill="url(#linearGradient3409)" fill-opacity="1" fill-rule="nonzero" stroke="none" stroke-width="1" display="inline" opacity=".3" overflow="visible" visibility="visible" style="marker:none"/><path id="path5018" fill="url(#radialGradient3403)" fill-opacity="1" fill-rule="nonzero" stroke="none" stroke-width="1" d="M 6,52.999928 C 6,52.999928 6,60.999835 6,60.999835 C 3.9317585,61.014894 1,59.20746 1,56.999367 C 1,54.791272 3.308001,52.999928 6,52.999928 z" display="inline" opacity=".3" overflow="visible" visibility="visible" style="marker:none"/><path id="path3388" fill="url(#radialGradient2585)" fill-opacity="1" stroke="url(#linearGradient2587)" stroke-dasharray="none" stroke-dashoffset="0" stroke-linecap="round" stroke-linejoin="round" stroke-miterlimit="4" stroke-opacity="1" stroke-width=".999" d="M 2.5259407,20.468232 C 1.0876554,20.632306 1.6560144,22.328083 1.5413397,23.281666 C 2.0676467,34.516892 2.7989745,45.525657 3.3220406,56.760958 C 3.7803743,58.041911 5.4598586,57.385933 6.5240274,57.548543 C 24.213928,57.548543 41.903832,57.548543 59.593735,57.548543 C 61.054375,57.407075 60.447101,55.681312 60.652564,54.693657 C 61.178881,43.458431 61.9106,32.449666 62.43366,21.214365 C 62.096891,19.94854 60.196076,20.651928 59.199039,20.468232 C 40.30801,20.468232 21.416976,20.468232 2.5259407,20.468232 L 2.5259407,20.468232 z"/><path id="path6127" fill="url(#linearGradient2582)" fill-opacity="1" stroke="none" d="M 2.3863178,19.856642 L 61.241426,19.857178 C 62.091689,19.857178 62.642739,20.448511 62.642739,21.183677 L 60.974504,57.012987 C 60.974504,57.748151 60.289997,58.339998 59.439737,58.339998 L 4.1880045,58.339998 C 3.3377415,58.339998 2.653234,57.748151 2.653234,57.012987 L 0.98500571,21.183655 C 0.98500571,20.448488 1.5360548,19.856642 2.3863178,19.856642 z" opacity=".4"/><path id="path2435" fill="none" stroke="url(#radialGradient2579)" stroke-dasharray="none" stroke-linecap="round" stroke-linejoin="round" stroke-miterlimit="4" stroke-opacity="1" stroke-width="1" d="M 61.672911,21.565438 C 43.530608,21.565438 20.821304,21.565438 2.679,21.565438 C 3,32 3.7125107,43.316481 4.2292662,54.192001"/><path id="path3455" fill="url(#linearGradient2576)" fill-opacity="1" stroke="none" d="M 60.966946,19.970018 C 41.459282,20.067574 21.944372,19.941889 2.4339249,19.970018 C 0.011473769,20.516804 1.3151768,23.25061 1.130124,24.986147 C 1.4278147,30.523398 1.5632824,36.084915 1.9620206,41.607 C 22.074269,38.464478 42.086655,35.479352 61.846826,32.230956 C 62.893956,28.790807 62.90252,24.689066 62.728192,21.020088 C 62.420973,20.34902 61.672994,19.954965 60.966946,19.970018 z"/></g><path id="path4121" fill="url(#radialGradient3075)" fill-opacity="1" stroke="none" d="M 40.461351,59.025337 C 40.460653,60.917366 36.888953,62.451 32.483278,62.451 C 28.077603,62.451 24.505903,60.917366 24.505205,59.025337 C 24.504507,57.132884 28.076617,55.598589 32.483278,55.598589 C 36.889939,55.598589 40.462049,57.132884 40.461351,59.025337 L 40.461351,59.025337 z" opacity=".3"/><path id="path3406" fill="#4d4d4d" fill-opacity="1" stroke="#333" stroke-dasharray="none" stroke-linecap="round" stroke-linejoin="round" stroke-miterlimit="4" stroke-opacity="1" stroke-width="1" d="M 55.769114,22.519 C 49.761824,23.479668 43.737896,25.342358 37.735315,26.327565 C 36.101535,27.147441 36.686168,29.229727 36.580902,30.69858 C 36.580901,37.053659 36.580902,41.408739 36.580902,47.763818 C 32.386166,46.828923 27.545054,50.101598 27.509188,54.547214 C 27.320326,57.402107 30.074853,59.767668 32.845931,59.506212 C 36.602227,59.313572 40.040736,55.674859 39.638536,51.789486 C 39.638535,45.433716 39.638536,40.087469 39.638536,33.731699 C 44.592588,33.017364 49.536047,31.231685 54.4899,30.516 C 54.489898,35.415456 54.4899,40.30541 54.4899,45.204866 C 50.470339,44.046869 45.634194,46.701439 44.968128,50.945071 C 44.411194,53.445898 46.158751,55.959466 48.5458,56.674189 C 53.014095,58.138885 58.012125,53.818942 57.485133,49.199327 C 57.472663,40.534259 57.522763,32.969042 57.485133,24.304 C 57.380128,23.442707 56.707233,22.47545 55.769114,22.519 L 55.769114,22.519 z"/><path id="path3996" fill="url(#linearGradient2454)" fill-opacity="1" fill-rule="evenodd" stroke="none" d="M 55.008865,45.657101 L 55.068255,30.135 C 55.694174,30.05364 55.164355,30.12184 56.008383,30 C 56.019953,33.086113 56.024243,34.165018 56.024243,45.820442 C 56.024243,45.907172 55.659703,45.776912 55.008862,45.657101 L 55.008865,45.657101 L 55.008865,45.657101 z" opacity=".4"/><path id="path2716" fill="url(#radialGradient2954)" fill-opacity="1" stroke="none" d="M 56.948836,49.944255 C 56.948836,52.889042 54.356091,55.717596 51.157777,56.262007 C 47.959463,56.806418 45.366717,54.860529 45.366717,51.915742 C 45.366717,48.970954 47.959463,46.142398 51.157777,45.597987 C 54.356091,45.053576 56.948836,46.999467 56.948836,49.944255 z" opacity=".6"/><path id="path2720" fill="url(#linearGradient2952)" fill-opacity="1" fill-rule="evenodd" stroke="none" d="M 37.085055,48.486235 L 37.085055,28.015291 C 37.085055,28.015291 37.202034,26.768467 38.260416,26.76417 C 38.352366,26.923434 56.116522,22.882 56.116522,22.882 C 56.116522,22.882 57,24 49.114151,25.689 C 38.312456,28.002519 38.085055,27.721966 38.085055,28.850623 C 38.085055,32.179779 38.085055,36.893344 38.085055,49.015291 C 37.849953,48.81467 37.556589,48.606048 37.085055,48.486235 L 37.085055,48.486235 L 37.085055,48.486235 z" opacity=".4"/><path id="path2712" fill="url(#radialGradient2950)" fill-opacity="1" stroke="none" d="M 39.085056,52.731709 C 39.085056,55.579963 36.622623,58.315794 33.585057,58.842359 C 30.54749,59.368924 28.085056,57.486823 28.085056,54.638568 C 28.085056,51.790314 30.54749,49.054481 33.585057,48.527916 C 36.622623,48.001351 39.085056,49.883454 39.085056,52.731709 L 39.085056,52.731709 z" opacity=".6"/></svg>