<svg xmlns="http://www.w3.org/2000/svg" xmlns:svg="http://www.w3.org/2000/svg" xmlns:xlink="http://www.w3.org/1999/xlink" id="svg3439" width="64" height="64" version="1.0"><defs id="defs3441"><radialGradient id="radialGradient2653" cx="605.714" cy="486.648" r="117.143" fx="605.714" fy="486.648" gradientTransform="matrix(4.016195e-2,0,0,3.2942602e-2,33.795982,40.921317)" gradientUnits="userSpaceOnUse" xlink:href="#linearGradient5060-820"/><linearGradient id="linearGradient3484"><stop id="stop3486" offset="0" stop-color="#bdbdbd" stop-opacity="1"/><stop id="stop3488" offset="1" stop-color="#d0d0d0" stop-opacity="1"/></linearGradient><radialGradient id="radialGradient2650" cx="3" cy="-17.821" r="21" fx="3" fy="-17.821" gradientTransform="matrix(-1.7093459e-8,2.2713251,-2.8951677,-1.9343515e-8,-48.593318,2.3972382)" gradientUnits="userSpaceOnUse" xlink:href="#linearGradient3484"/><linearGradient id="linearGradient6404"><stop id="stop6406" offset="0" stop-color="#f9f9f9" stop-opacity="1"/><stop id="stop6408" offset="1" stop-color="#c9c9c9" stop-opacity="1"/></linearGradient><linearGradient id="linearGradient2648" x1="124.173" x2="124.173" y1="18.793" y2="21.801" gradientTransform="matrix(1.3407707,0,0,1.3249351,-134.0678,-1.3881028)" gradientUnits="userSpaceOnUse" xlink:href="#linearGradient6404"/><linearGradient id="linearGradient5048-585"><stop id="stop2667" offset="0" stop-color="#000" stop-opacity="0"/><stop id="stop2669" offset=".5" stop-color="#000" stop-opacity="1"/><stop id="stop2671" offset="1" stop-color="#000" stop-opacity="0"/></linearGradient><linearGradient id="linearGradient2645" x1="302.857" x2="302.857" y1="366.648" y2="609.505" gradientTransform="matrix(0.1076923,0,0,3.2941173e-2,-6.9230773,40.922188)" gradientUnits="userSpaceOnUse" xlink:href="#linearGradient5048-585"/><linearGradient id="linearGradient5060-820"><stop id="stop2681" offset="0" stop-color="#000" stop-opacity="1"/><stop id="stop2683" offset="1" stop-color="#000" stop-opacity="0"/></linearGradient><radialGradient id="radialGradient2642" cx="605.714" cy="486.648" r="117.143" fx="605.714" fy="486.648" gradientTransform="matrix(-4.016195e-2,0,0,3.2942602e-2,30.204018,40.921317)" gradientUnits="userSpaceOnUse" xlink:href="#linearGradient5060-820"/><linearGradient id="linearGradient3390"><stop id="stop3392" offset="0" stop-color="#425e7b" stop-opacity="1"/><stop id="stop3394" offset="1" stop-color="#7a91a7" stop-opacity="1"/></linearGradient><linearGradient id="linearGradient2667" x1="34.954" x2="25.474" y1="45.114" y2="20.981" gradientTransform="matrix(1.3300009,0,0,1.33,6.6873798e-2,-1.6618835)" gradientUnits="userSpaceOnUse" xlink:href="#linearGradient3390"/><linearGradient id="linearGradient7012-661-145-733-759-865-745"><stop id="stop2699" offset="0" stop-color="#9cbbd9" stop-opacity="1"/><stop id="stop2701" offset="1" stop-color="#5c82ab" stop-opacity="1"/></linearGradient><radialGradient id="radialGradient2665" cx="13.857" cy="19.544" r="24.097" fx="13.857" fy="19.544" gradientTransform="matrix(1.9790569,0,0,1.0523761,-8.9271881,12.730247)" gradientUnits="userSpaceOnUse" xlink:href="#linearGradient7012-661-145-733-759-865-745"/><linearGradient id="linearGradient6129-963-697-142-998"><stop id="stop4661" offset="0" stop-color="#000" stop-opacity=".498"/><stop id="stop4663" offset="1" stop-color="#000" stop-opacity="0"/></linearGradient><linearGradient id="linearGradient2662" x1="22.935" x2="22.809" y1="49.629" y2="36.658" gradientTransform="matrix(1.5224421,0,0,1.0834583,-4.5386374,10.421775)" gradientUnits="userSpaceOnUse" xlink:href="#linearGradient6129-963-697-142-998"/><linearGradient id="linearGradient8265-821-176-38-919"><stop id="stop4667" offset="0" stop-color="#fff" stop-opacity="1"/><stop id="stop4669" offset="1" stop-color="#fff" stop-opacity="0"/></linearGradient><linearGradient id="linearGradient2659" x1="13.08" x2="16.362" y1="20.73" y2="32.979" gradientTransform="matrix(1.5224421,0,0,1.0694461,-4.5386374,11.431539)" gradientUnits="userSpaceOnUse" xlink:href="#linearGradient8265-821-176-38-919"/><linearGradient id="linearGradient6087-437-184-795-110"><stop id="stop4655" offset="0" stop-color="#fff" stop-opacity="1"/><stop id="stop4657" offset="1" stop-color="#fff" stop-opacity="0"/></linearGradient><radialGradient id="radialGradient2656" cx="7.265" cy="8.302" r="20.98" fx="7.265" fy="8.302" gradientTransform="matrix(0,1.3117367,-2.1641299,0,35.145782,18.304585)" gradientUnits="userSpaceOnUse" xlink:href="#linearGradient6087-437-184-795-110"/></defs><g id="layer1"><path id="path3411" fill="url(#radialGradient2653)" fill-opacity="1" fill-rule="nonzero" stroke="none" stroke-width="1" d="M 58,52.999928 C 58,52.999928 58,60.999835 58,60.999835 C 60.068242,61.014894 63,59.20746 63,56.999367 C 63,54.791272 60.691999,52.999928 58,52.999928 z" display="inline" opacity=".3" overflow="visible" visibility="visible" style="marker:none"/><path id="path2558" fill="url(#linearGradient2648)" fill-opacity="1" fill-rule="nonzero" stroke="url(#radialGradient2650)" stroke-dasharray="none" stroke-dashoffset="0" stroke-linecap="round" stroke-linejoin="round" stroke-miterlimit="4" stroke-opacity="1" stroke-width="1" marker-end="none" marker-mid="none" marker-start="none" d="M 8,9.5001644 C 7.0849896,9.5103921 6.5,9.9563421 6.5,10.83345 L 6.5,13.5 C 6.5,13.5 4.994002,13.5 4.994002,13.5 C 3.999085,13.5 3.5,13.973582 3.5,14.842172 C 3.5456145,28.561749 3.5,30.499999 3.5,30.499999 C 3.5,30.499999 60.499998,29.5 60.499998,29.5 L 60.499998,15 C 60.499998,13.999931 60.000052,13.5 59,13.5 L 28.64966,13.5 L 28.5,10.83345 C 28.5,9.9563421 28.275474,9.4899354 27.360464,9.5001644 L 8,9.5001644 z" display="inline" enable-background="accumulate" overflow="visible" visibility="visible" style="marker:none"/><rect id="rect4173" width="52" height="8" x="6" y="53" fill="url(#linearGradient2645)" fill-opacity="1" fill-rule="nonzero" stroke="none" stroke-width="1" display="inline" opacity=".3" overflow="visible" visibility="visible" style="marker:none"/><path id="path5018" fill="url(#radialGradient2642)" fill-opacity="1" fill-rule="nonzero" stroke="none" stroke-width="1" d="M 6,52.999928 C 6,52.999928 6,60.999835 6,60.999835 C 3.9317585,61.014894 1,59.20746 1,56.999367 C 1,54.791272 3.308001,52.999928 6,52.999928 z" display="inline" opacity=".3" overflow="visible" visibility="visible" style="marker:none"/><path id="path7314" fill="url(#radialGradient2665)" fill-opacity="1" stroke="url(#linearGradient2667)" stroke-dasharray="none" stroke-dashoffset="0" stroke-linecap="round" stroke-linejoin="round" stroke-miterlimit="4" stroke-opacity="1" stroke-width="1" d="M 1.4837942,27.633 C 0.057092971,27.76732 0.81949471,28.634481 0.70574372,29.415127 C 1.1053571,31.033696 3.3343868,55.262171 3.6041482,57.008048 C 4.0587904,58.05669 5.7247468,57.519679 6.7803459,57.652799 C 24.327771,57.652799 41.875198,57.652799 59.422623,57.652799 C 60.871499,57.536982 60.269112,56.124202 60.472929,55.315663 C 60.555478,54.139215 62.742663,36.412039 63.371396,28.423 C 63.037337,27.38674 61.392691,27.633 60.361604,27.633 C 41.622719,27.633 20.22268,27.633 1.4837942,27.633 L 1.4837942,27.633 z"/><path id="path2541" fill="url(#linearGradient2662)" fill-opacity="1" stroke="none" d="M 1.4784742,26.67365 L 62.521526,26.674089 C 63.364959,26.674089 63.911376,27.156891 63.911376,27.757126 L 60.926372,57.010483 C 60.926372,57.610719 60.247364,58.093941 59.403933,58.093941 L 4.5960123,58.093941 C 3.7525789,58.093941 3.0735696,57.610719 3.0735696,57.010483 L 0.088623303,27.757109 C 0.088623303,27.156872 0.63504087,26.67365 1.4784742,26.67365 L 1.4784742,26.67365 z" opacity=".4"/><path id="path8263" fill="url(#linearGradient2659)" fill-opacity="1" stroke="none" d="M 1.4784742,27.067696 L 62.521526,27.067696 C 63.364959,27.067696 63.911376,27.950692 63.911376,28.543167 L 63.299576,36.527044 L 0.99834392,44.279 L 0.088623303,28.542674 C 0.088623303,27.950201 0.63504087,27.067696 1.4784742,27.067696 L 1.4784742,27.067696 z" opacity=".3"/><path id="path2544" fill="none" stroke="url(#radialGradient2656)" stroke-dasharray="none" stroke-linecap="round" stroke-linejoin="round" stroke-miterlimit="4" stroke-opacity="1" stroke-width="1" d="M 62.316394,28.463 C 44.31982,28.463 19.562969,28.463 1.566394,28.463 C 1.8592389,29.650909 4.6295257,54.550933 5.0322499,56.508" opacity=".4"/></g></svg>