<svg xmlns="http://www.w3.org/2000/svg" xmlns:svg="http://www.w3.org/2000/svg" xmlns:xlink="http://www.w3.org/1999/xlink" id="svg2" width="48" height="48" version="1.0"><defs id="defs4"><linearGradient id="linearGradient3761"><stop id="stop3763" offset="0" stop-color="#000" stop-opacity=".392"/><stop id="stop3765" offset=".675" stop-color="#000" stop-opacity=".314"/><stop id="stop3767" offset="1" stop-color="#000" stop-opacity="0"/></linearGradient><linearGradient id="linearGradient3735"><stop id="stop3737" offset="0" stop-color="#51c7b2" stop-opacity="1"/><stop id="stop3739" offset="1" stop-color="#2d8776" stop-opacity="1"/></linearGradient><linearGradient id="linearGradient3727"><stop id="stop3729" offset="0" stop-color="#63cdba" stop-opacity="1"/><stop id="stop3731" offset="1" stop-color="#3baf9a" stop-opacity="1"/></linearGradient><linearGradient id="linearGradient4222-4"><stop id="stop4224-0" offset="0" stop-color="#fff" stop-opacity="1"/><stop id="stop4226-5" offset="1" stop-color="#fff" stop-opacity="0"/></linearGradient><radialGradient id="radialGradient2939" cx="23.071" cy="35.127" r="10.319" fx="23.071" fy="35.127" gradientTransform="matrix(2.0832807,0.01226756,-0.01870788,0.20710173,2.3490649,12.232751)" gradientUnits="userSpaceOnUse" xlink:href="#linearGradient3761"/><linearGradient id="linearGradient3242-187-536"><stop id="stop2780" offset="0" stop-color="#6396cd" stop-opacity="1"/><stop id="stop2782" offset=".661" stop-color="#3b7caf" stop-opacity="1"/><stop id="stop2784" offset="1" stop-color="#194c70" stop-opacity="1"/></linearGradient><linearGradient id="linearGradient2490-182-124"><stop id="stop2788" offset="0" stop-color="#1f4b6a" stop-opacity="1"/><stop id="stop2790" offset="1" stop-color="#4083c2" stop-opacity="1"/></linearGradient><linearGradient id="linearGradient3691" x1="55" x2="59" y1="4.5" y2="43.5" gradientTransform="translate(-0.5,0.5)" gradientUnits="userSpaceOnUse" xlink:href="#linearGradient4222-4"/><linearGradient id="linearGradient3699" x1="63" x2="75" y1="5" y2="43" gradientTransform="translate(0,0.5)" gradientUnits="userSpaceOnUse" xlink:href="#linearGradient4222-4"/><linearGradient id="linearGradient3759" x1="88" x2="89" y1="16" y2="23" gradientUnits="userSpaceOnUse" xlink:href="#linearGradient4222-4"/><linearGradient id="linearGradient3792" x1="58" x2="68" y1="4" y2="43" gradientTransform="translate(-0.5,0.5)" gradientUnits="userSpaceOnUse" xlink:href="#linearGradient3242-187-536"/><linearGradient id="linearGradient3794" x1="59" x2="53" y1="43" y2="4" gradientTransform="translate(-0.5,0.5)" gradientUnits="userSpaceOnUse" xlink:href="#linearGradient2490-182-124"/><linearGradient id="linearGradient3798" x1="22.765" x2="23.878" y1="18.541" y2="28.614" gradientTransform="matrix(0.8988874,0,0,0.8934652,64.536746,-1.565972)" gradientUnits="userSpaceOnUse" xlink:href="#linearGradient3242-187-536"/><linearGradient id="linearGradient3800" x1="92" x2="91" y1="23" y2="15" gradientUnits="userSpaceOnUse" xlink:href="#linearGradient2490-182-124"/><linearGradient id="linearGradient3810" x1="88" x2="90" y1="23" y2="31" gradientTransform="translate(-1.00045,0)" gradientUnits="userSpaceOnUse" xlink:href="#linearGradient4222-4"/><linearGradient id="linearGradient3814" x1="22.765" x2="23.878" y1="18.541" y2="27.495" gradientTransform="matrix(0.8988874,0,0,0.8934652,69.536296,6.434028)" gradientUnits="userSpaceOnUse" xlink:href="#linearGradient3242-187-536"/><linearGradient id="linearGradient3816" x1="87" x2="86" y1="31" y2="23" gradientTransform="translate(-1.00045,0)" gradientUnits="userSpaceOnUse" xlink:href="#linearGradient2490-182-124"/><linearGradient id="linearGradient3820" x1="69" x2="85" y1="5" y2="44" gradientUnits="userSpaceOnUse" xlink:href="#linearGradient3727"/><linearGradient id="linearGradient3822" x1="63" x2="75" y1="5" y2="43" gradientTransform="translate(0,0.5)" gradientUnits="userSpaceOnUse" xlink:href="#linearGradient3735"/></defs><g id="g3939" transform="translate(-48.999998,0)"><g id="g3906"><g id="g2929" transform="translate(24,24)"><path id="path2931" fill="url(#radialGradient2939)" fill-opacity="1" stroke="none" d="m 73,19.749991 a 23.500001,2.250008 0 0 1 -47.000001,0 23.500001,2.250008 0 1 1 47.000001,0 z" opacity=".3"/></g></g><g id="g3930" transform="translate(0.99955,0)"><path id="path2262-4" fill="url(#linearGradient3798)" fill-opacity="1" fill-rule="evenodd" stroke="url(#linearGradient3800)" stroke-dasharray="none" stroke-linecap="butt" stroke-linejoin="round" stroke-miterlimit="4" stroke-opacity="1" stroke-width="1" d="m 95.50045,16.495 0,5.005 -16.00045,0 -2.99955,-5.005 19,0 z" display="inline"/><path id="path3741" fill="url(#linearGradient3814)" fill-opacity="1" fill-rule="evenodd" stroke="url(#linearGradient3816)" stroke-dasharray="none" stroke-linecap="butt" stroke-linejoin="round" stroke-miterlimit="4" stroke-opacity="1" stroke-width="1" d="m 95.5,24.495 0,5.005 -11.00045,0 -2.99955,-5.005 14,0 z" display="inline"/><path id="path3796" fill="none" stroke="url(#linearGradient3759)" stroke-dasharray="none" stroke-linecap="butt" stroke-linejoin="round" stroke-miterlimit="4" stroke-opacity="1" stroke-width="1" d="m 78.375,17.5625 1.71875,2.875 14.34375,0 0,-2.875 -16.0625,0 z" display="inline" opacity=".24"/><path id="path3812" fill="none" stroke="url(#linearGradient3810)" stroke-dasharray="none" stroke-linecap="butt" stroke-linejoin="round" stroke-miterlimit="4" stroke-opacity="1" stroke-width="1" d="m 83.31205,25.53125 1.75,2.9375 9.43795,0 0,-2.9375 -11.18795,0 z" display="inline" opacity=".24"/></g><path id="path2905" fill="url(#linearGradient3820)" fill-opacity="1" stroke="url(#linearGradient3822)" stroke-linecap="butt" stroke-linejoin="round" stroke-opacity="1" stroke-width="1" d="m 90,43.5 -6,0 -9,-14 -8,14 -6,0 11.5,-19 -11.5,-19 6,0 23,38 z"/><path id="path2909" fill="url(#linearGradient3792)" fill-opacity="1" stroke="url(#linearGradient3794)" stroke-linecap="butt" stroke-linejoin="round" stroke-opacity="1" stroke-width="1" d="m 56.5,43.5 -6,0 11.5,-19 -11.5,-19 6,0 11.5,19 -11.5,19 z"/><path id="path3790" fill="none" stroke="url(#linearGradient3691)" stroke-linecap="butt" stroke-linejoin="round" stroke-opacity="1" stroke-width="1" d="M 52.21875,6.46875 62.84375,24 a 0.97257582,0.97257582 0 0 1 0,1 l -10.625,17.53125 3.71875,0 L 66.84375,24.5 55.9375,6.46875 l -3.71875,0 z" opacity=".24"/><path id="path3818" fill="none" stroke="url(#linearGradient3699)" stroke-linecap="butt" stroke-linejoin="round" stroke-opacity="1" stroke-width="1" d="m 62.8125,6.53125 10.5625,17.4375 a 1.0372268,1.0372268 0 0 1 0,1.0625 l -10.5625,17.4375 3.59375,0 L 74.09375,29 A 1.0372268,1.0372268 0 0 1 75.875,28.9375 l 8.6875,13.53125 3.625,0 -21.75,-35.9375 -3.625,0 z" opacity=".24"/></g></svg>