<svg xmlns="http://www.w3.org/2000/svg" xmlns:svg="http://www.w3.org/2000/svg" xmlns:xlink="http://www.w3.org/1999/xlink" id="svg1" width="48" height="48" version="1.2"><metadata id="metadata32"/><defs id="defs3"><linearGradient id="linearGradient5245"><stop id="stop5247" offset="0" stop-color="#babdb6" stop-opacity="1"/><stop id="stop5249" offset="1" stop-color="#f5f6f4" stop-opacity="1"/></linearGradient><linearGradient id="linearGradient5233"><stop id="stop5235" offset="0" stop-color="#484848" stop-opacity="1"/><stop id="stop5237" offset=".07" stop-color="#878787" stop-opacity="1"/><stop id="stop5239" offset=".195" stop-color="#969696" stop-opacity="1"/><stop id="stop5241" offset=".816" stop-color="#4d4d4d" stop-opacity="1"/><stop id="stop5243" offset="1" stop-color="#4e4e4e" stop-opacity="1"/></linearGradient><linearGradient id="linearGradient5139"><stop id="stop5141" offset="0" stop-color="#2d2d2d" stop-opacity="1"/><stop id="stop5143" offset="1" stop-color="#5a5a5a" stop-opacity="1"/></linearGradient><linearGradient id="linearGradient5121"><stop id="stop5123" offset="0" stop-color="#363636" stop-opacity="1"/><stop id="stop5125" offset=".5" stop-color="#787878" stop-opacity="1"/><stop id="stop5127" offset="1" stop-color="#363636" stop-opacity="1"/></linearGradient><linearGradient id="linearGradient5101"><stop id="stop5103" offset="0" stop-color="#0f0f0f" stop-opacity="1"/><stop id="stop5105" offset="1" stop-color="#3c3c3c" stop-opacity="1"/></linearGradient><linearGradient id="linearGradient5093"><stop id="stop5099" offset="0" stop-color="#fff" stop-opacity=".498"/><stop id="stop5097" offset="1" stop-color="#fff" stop-opacity="0"/></linearGradient><linearGradient id="linearGradient4488"><stop id="stop4490" offset="0" stop-color="#6f9b95" stop-opacity="1"/><stop id="stop4492" offset="1" stop-color="#3b5451" stop-opacity="1"/></linearGradient><linearGradient id="linearGradient5808"><stop id="stop5810" offset="0" stop-color="#000" stop-opacity="1"/><stop id="stop5812" offset="1" stop-color="#000" stop-opacity="0"/></linearGradient><linearGradient id="linearGradient4771"><stop id="stop4773" offset="0" stop-color="#e7e7e7" stop-opacity="0"/><stop id="stop4779" offset=".5" stop-color="#e7e7e7" stop-opacity=".317"/><stop id="stop4775" offset="1" stop-color="#e7e7e7" stop-opacity="0"/></linearGradient><linearGradient id="linearGradient4731"><stop id="stop4733" offset="0" stop-color="#c0d3d1" stop-opacity="1"/><stop id="stop4735" offset="1" stop-color="#c0d3d1" stop-opacity="0"/></linearGradient><linearGradient id="linearGradient4628"><stop id="stop4630" offset="0" stop-color="#363636" stop-opacity="1"/><stop id="stop4636" offset=".5" stop-color="#6f6f6f" stop-opacity="1"/><stop id="stop4632" offset="1" stop-color="#363636" stop-opacity="1"/></linearGradient><linearGradient id="linearGradient4419"><stop id="stop4421" offset="0" stop-color="#484848" stop-opacity="1"/><stop id="stop4423" offset=".07" stop-color="#878787" stop-opacity="1"/><stop id="stop4425" offset=".195" stop-color="#969696" stop-opacity="1"/><stop id="stop4427" offset=".75" stop-color="#4d4d4d" stop-opacity="1"/><stop id="stop4429" offset="1" stop-color="#4e4e4e" stop-opacity="1"/></linearGradient><linearGradient id="linearGradient2790"><stop id="stop2792" offset="0" stop-color="#000" stop-opacity="1"/><stop id="stop2794" offset="1" stop-color="#000" stop-opacity="0"/></linearGradient><linearGradient id="linearGradient4771-8"><stop id="stop4773-0" offset="0" stop-color="#e7e7e7" stop-opacity="0"/><stop id="stop4779-7" offset=".5" stop-color="#e7e7e7" stop-opacity=".317"/><stop id="stop4775-7" offset="1" stop-color="#e7e7e7" stop-opacity="0"/></linearGradient><linearGradient id="linearGradient4103-7"><stop id="stop4105-8" offset="0" stop-color="#70adfb" stop-opacity="1"/><stop id="stop4107-6" offset="1" stop-color="#3465a4" stop-opacity="1"/></linearGradient><linearGradient id="linearGradient2264"><stop id="stop2266" offset="0" stop-color="#d7e866" stop-opacity="1"/><stop id="stop2268" offset="1" stop-color="#8cab2a" stop-opacity="1"/></linearGradient><linearGradient id="linearGradient3627" x1="26.189" x2="26.189" y1="8.354" y2="19.308" gradientTransform="matrix(1.472469,0,0,1.4606731,-12.563225,1.7974535)" gradientUnits="userSpaceOnUse" xlink:href="#linearGradient3390-178-986-453"/><linearGradient id="linearGradient3656" x1="12.992" x2="35.976" y1="22.5" y2="22.5" gradientTransform="matrix(1.3655179,0,0,1.0174953,-10.321595,-12.400919)" gradientUnits="userSpaceOnUse" xlink:href="#linearGradient4771-8"/><linearGradient id="linearGradient3659" x1="12.992" x2="35.976" y1="22.5" y2="22.5" gradientTransform="matrix(1.484162,0,0,0.69848754,-12.649601,19.892407)" gradientUnits="userSpaceOnUse" xlink:href="#linearGradient4771"/><radialGradient id="radialGradient3662" cx="22.571" cy="16.583" r="2.539" fx="22.571" fy="16.583" gradientTransform="matrix(2.1744699,0,0,0.42478017,-21.768381,9.4347052)" gradientUnits="userSpaceOnUse" xlink:href="#linearGradient4731"/><linearGradient id="linearGradient3670" x1="14.079" x2="40.724" y1="5.339" y2="5.339" gradientTransform="matrix(1.470734,0,0,1.6395865,-12.538272,-1.0215314)" gradientUnits="userSpaceOnUse" xlink:href="#linearGradient4628"/><linearGradient id="linearGradient3679" x1="24.988" x2="24.988" y1="3.919" y2="14.741" gradientTransform="matrix(1.5208753,0,0,1.478464,-14.00327,0.20538323)" gradientUnits="userSpaceOnUse" xlink:href="#linearGradient5808"/><linearGradient id="linearGradient3682" x1="23.414" x2="23.414" y1=".249" y2="27.874" gradientTransform="matrix(1.484162,0,0,1.484162,-12.749821,1.6301121)" gradientUnits="userSpaceOnUse" xlink:href="#linearGradient4419"/><radialGradient id="radialGradient3685" cx="24.375" cy="37.75" r="17.375" fx="24.375" fy="37.75" gradientTransform="matrix(1.2425204,-0.00477376,0.00109958,0.28619882,-6.8279415,32.706144)" gradientUnits="userSpaceOnUse" xlink:href="#linearGradient2790"/><radialGradient id="radialGradient4494" cx="23.321" cy="19.848" r="11.464" fx="23.321" fy="19.848" gradientTransform="matrix(1,0,0,0.73214321,0,5.7957173)" gradientUnits="userSpaceOnUse" xlink:href="#linearGradient4488"/><linearGradient id="linearGradient4956-6-6-9-5"><stop id="stop4958-9-4-4-1" offset="0" stop-color="#f8b17e" stop-opacity="1"/><stop id="stop4960-0-7-9-9" offset=".262" stop-color="#e35d4f" stop-opacity="1"/><stop id="stop4962-4-4-8-7" offset=".663" stop-color="#c6262e" stop-opacity="1"/><stop id="stop4964-8-6-1-1" offset="1" stop-color="#690b54" stop-opacity="1"/></linearGradient><linearGradient id="linearGradient2490-6-8-4-1"><stop id="stop2492-4-4-9-2" offset="0" stop-color="#791235" stop-opacity="1"/><stop id="stop2494-6-8-3-0" offset="1" stop-color="#dd3b27" stop-opacity="1"/></linearGradient><linearGradient id="linearGradient4517" x1="-4.965" x2="-9.12" y1="40.489" y2="40.489" gradientTransform="matrix(0.24070641,-8.7552624e-7,-1.0859088e-6,0.19407227,31.19566,28.142658)" gradientUnits="userSpaceOnUse" xlink:href="#linearGradient5245"/><linearGradient id="linearGradient7012-661-145-733-759-865-745-661-970-94"><stop id="stop3618" offset="0" stop-color="#edd563" stop-opacity="1"/><stop id="stop3620" offset="1" stop-color="#e08223" stop-opacity="1"/></linearGradient><linearGradient id="linearGradient3390-178-986-453"><stop id="stop3624" offset="0" stop-color="#bb5e12" stop-opacity="1"/><stop id="stop3626" offset="1" stop-color="#cd8033" stop-opacity="1"/></linearGradient><linearGradient id="linearGradient4547" x1="14" x2="14" y1="5" y2="6" gradientUnits="userSpaceOnUse" xlink:href="#linearGradient7012-661-145-733-759-865-745-661-970-94"/><linearGradient id="linearGradient4551" x1="14" x2="14" y1="5" y2="6" gradientTransform="translate(2,0)" gradientUnits="userSpaceOnUse" xlink:href="#linearGradient7012-661-145-733-759-865-745-661-970-94"/><linearGradient id="linearGradient4555" x1="14" x2="14" y1="5" y2="6" gradientTransform="translate(4,0)" gradientUnits="userSpaceOnUse" xlink:href="#linearGradient7012-661-145-733-759-865-745-661-970-94"/><linearGradient id="linearGradient4559" x1="14" x2="14" y1="5" y2="6" gradientTransform="translate(6,0)" gradientUnits="userSpaceOnUse" xlink:href="#linearGradient7012-661-145-733-759-865-745-661-970-94"/><linearGradient id="linearGradient4563" x1="14" x2="14" y1="5" y2="6" gradientTransform="translate(8,0)" gradientUnits="userSpaceOnUse" xlink:href="#linearGradient7012-661-145-733-759-865-745-661-970-94"/><linearGradient id="linearGradient4567" x1="14" x2="14" y1="5" y2="6" gradientTransform="translate(10,0)" gradientUnits="userSpaceOnUse" xlink:href="#linearGradient7012-661-145-733-759-865-745-661-970-94"/><linearGradient id="linearGradient4571" x1="14" x2="14" y1="5" y2="6" gradientTransform="translate(12,0)" gradientUnits="userSpaceOnUse" xlink:href="#linearGradient7012-661-145-733-759-865-745-661-970-94"/><linearGradient id="linearGradient4575" x1="14" x2="14" y1="5" y2="6" gradientTransform="translate(14,0)" gradientUnits="userSpaceOnUse" xlink:href="#linearGradient7012-661-145-733-759-865-745-661-970-94"/><linearGradient id="linearGradient4579" x1="14" x2="14" y1="5" y2="6" gradientTransform="translate(16,0)" gradientUnits="userSpaceOnUse" xlink:href="#linearGradient7012-661-145-733-759-865-745-661-970-94"/><linearGradient id="linearGradient4599" x1="14" x2="14" y1="5" y2="6" gradientTransform="translate(0,2)" gradientUnits="userSpaceOnUse" xlink:href="#linearGradient7012-661-145-733-759-865-745-661-970-94"/><linearGradient id="linearGradient4601" x1="14" x2="14" y1="5" y2="6" gradientTransform="translate(2,2)" gradientUnits="userSpaceOnUse" xlink:href="#linearGradient7012-661-145-733-759-865-745-661-970-94"/><linearGradient id="linearGradient4603" x1="14" x2="14" y1="5" y2="6" gradientTransform="translate(4,2)" gradientUnits="userSpaceOnUse" xlink:href="#linearGradient7012-661-145-733-759-865-745-661-970-94"/><linearGradient id="linearGradient4605" x1="14" x2="14" y1="5" y2="6" gradientTransform="translate(6,2)" gradientUnits="userSpaceOnUse" xlink:href="#linearGradient7012-661-145-733-759-865-745-661-970-94"/><linearGradient id="linearGradient4607" x1="14" x2="14" y1="5" y2="6" gradientTransform="translate(8,2)" gradientUnits="userSpaceOnUse" xlink:href="#linearGradient7012-661-145-733-759-865-745-661-970-94"/><linearGradient id="linearGradient4609" x1="14" x2="14" y1="5" y2="6" gradientTransform="translate(10,2)" gradientUnits="userSpaceOnUse" xlink:href="#linearGradient7012-661-145-733-759-865-745-661-970-94"/><linearGradient id="linearGradient4611" x1="14" x2="14" y1="5" y2="6" gradientTransform="translate(12,2)" gradientUnits="userSpaceOnUse" xlink:href="#linearGradient7012-661-145-733-759-865-745-661-970-94"/><linearGradient id="linearGradient4613" x1="14" x2="14" y1="5" y2="6" gradientTransform="translate(14,2)" gradientUnits="userSpaceOnUse" xlink:href="#linearGradient7012-661-145-733-759-865-745-661-970-94"/><linearGradient id="linearGradient4615" x1="14" x2="14" y1="5" y2="6" gradientTransform="translate(16,2)" gradientUnits="userSpaceOnUse" xlink:href="#linearGradient7012-661-145-733-759-865-745-661-970-94"/><linearGradient id="linearGradient4635" x1="14" x2="14" y1="5" y2="6" gradientTransform="translate(0,4)" gradientUnits="userSpaceOnUse" xlink:href="#linearGradient7012-661-145-733-759-865-745-661-970-94"/><linearGradient id="linearGradient4637" x1="14" x2="14" y1="5" y2="6" gradientTransform="translate(2,4)" gradientUnits="userSpaceOnUse" xlink:href="#linearGradient7012-661-145-733-759-865-745-661-970-94"/><linearGradient id="linearGradient4639" x1="14" x2="14" y1="5" y2="6" gradientTransform="translate(4,4)" gradientUnits="userSpaceOnUse" xlink:href="#linearGradient7012-661-145-733-759-865-745-661-970-94"/><linearGradient id="linearGradient4641" x1="14" x2="14" y1="5" y2="6" gradientTransform="translate(6,4)" gradientUnits="userSpaceOnUse" xlink:href="#linearGradient7012-661-145-733-759-865-745-661-970-94"/><linearGradient id="linearGradient4643" x1="14" x2="14" y1="5" y2="6" gradientTransform="translate(8,4)" gradientUnits="userSpaceOnUse" xlink:href="#linearGradient7012-661-145-733-759-865-745-661-970-94"/><linearGradient id="linearGradient4645" x1="14" x2="14" y1="5" y2="6" gradientTransform="translate(10,4)" gradientUnits="userSpaceOnUse" xlink:href="#linearGradient7012-661-145-733-759-865-745-661-970-94"/><linearGradient id="linearGradient4647" x1="14" x2="14" y1="5" y2="6" gradientTransform="translate(12,4)" gradientUnits="userSpaceOnUse" xlink:href="#linearGradient7012-661-145-733-759-865-745-661-970-94"/><linearGradient id="linearGradient4649" x1="14" x2="14" y1="5" y2="6" gradientTransform="translate(14,4)" gradientUnits="userSpaceOnUse" xlink:href="#linearGradient7012-661-145-733-759-865-745-661-970-94"/><linearGradient id="linearGradient4651" x1="14" x2="14" y1="5" y2="6" gradientTransform="translate(16,4)" gradientUnits="userSpaceOnUse" xlink:href="#linearGradient7012-661-145-733-759-865-745-661-970-94"/><linearGradient id="linearGradient4671" x1="14" x2="14" y1="5" y2="6" gradientTransform="translate(1,1)" gradientUnits="userSpaceOnUse" xlink:href="#linearGradient7012-661-145-733-759-865-745-661-970-94"/><linearGradient id="linearGradient4673" x1="14" x2="14" y1="5" y2="6" gradientTransform="translate(3,1)" gradientUnits="userSpaceOnUse" xlink:href="#linearGradient7012-661-145-733-759-865-745-661-970-94"/><linearGradient id="linearGradient4675" x1="14" x2="14" y1="5" y2="6" gradientTransform="translate(5,1)" gradientUnits="userSpaceOnUse" xlink:href="#linearGradient7012-661-145-733-759-865-745-661-970-94"/><linearGradient id="linearGradient4677" x1="14" x2="14" y1="5" y2="6" gradientTransform="translate(7,1)" gradientUnits="userSpaceOnUse" xlink:href="#linearGradient7012-661-145-733-759-865-745-661-970-94"/><linearGradient id="linearGradient4679" x1="14" x2="14" y1="5" y2="6" gradientTransform="translate(9,1)" gradientUnits="userSpaceOnUse" xlink:href="#linearGradient7012-661-145-733-759-865-745-661-970-94"/><linearGradient id="linearGradient4681" x1="14" x2="14" y1="5" y2="6" gradientTransform="translate(11,1)" gradientUnits="userSpaceOnUse" xlink:href="#linearGradient7012-661-145-733-759-865-745-661-970-94"/><linearGradient id="linearGradient4683" x1="14" x2="14" y1="5" y2="6" gradientTransform="translate(13,1)" gradientUnits="userSpaceOnUse" xlink:href="#linearGradient7012-661-145-733-759-865-745-661-970-94"/><linearGradient id="linearGradient4685" x1="14" x2="14" y1="5" y2="6" gradientTransform="translate(15,1)" gradientUnits="userSpaceOnUse" xlink:href="#linearGradient7012-661-145-733-759-865-745-661-970-94"/><linearGradient id="linearGradient4705" x1="14" x2="14" y1="5" y2="6" gradientTransform="translate(1,3)" gradientUnits="userSpaceOnUse" xlink:href="#linearGradient7012-661-145-733-759-865-745-661-970-94"/><linearGradient id="linearGradient4707" x1="14" x2="14" y1="5" y2="6" gradientTransform="translate(3,3)" gradientUnits="userSpaceOnUse" xlink:href="#linearGradient7012-661-145-733-759-865-745-661-970-94"/><linearGradient id="linearGradient4709" x1="14" x2="14" y1="5" y2="6" gradientTransform="translate(5,3)" gradientUnits="userSpaceOnUse" xlink:href="#linearGradient7012-661-145-733-759-865-745-661-970-94"/><linearGradient id="linearGradient4711" x1="14" x2="14" y1="5" y2="6" gradientTransform="translate(7,3)" gradientUnits="userSpaceOnUse" xlink:href="#linearGradient7012-661-145-733-759-865-745-661-970-94"/><linearGradient id="linearGradient4713" x1="14" x2="14" y1="5" y2="6" gradientTransform="translate(9,3)" gradientUnits="userSpaceOnUse" xlink:href="#linearGradient7012-661-145-733-759-865-745-661-970-94"/><linearGradient id="linearGradient4715" x1="14" x2="14" y1="5" y2="6" gradientTransform="translate(11,3)" gradientUnits="userSpaceOnUse" xlink:href="#linearGradient7012-661-145-733-759-865-745-661-970-94"/><linearGradient id="linearGradient4717" x1="14" x2="14" y1="5" y2="6" gradientTransform="translate(13,3)" gradientUnits="userSpaceOnUse" xlink:href="#linearGradient7012-661-145-733-759-865-745-661-970-94"/><linearGradient id="linearGradient4719" x1="14" x2="14" y1="5" y2="6" gradientTransform="translate(15,3)" gradientUnits="userSpaceOnUse" xlink:href="#linearGradient7012-661-145-733-759-865-745-661-970-94"/><linearGradient id="linearGradient4913" x1="14" x2="14" y1="5" y2="6" gradientTransform="matrix(6,0,0,1,-59,0)" gradientUnits="userSpaceOnUse" xlink:href="#linearGradient7012-661-145-733-759-865-745-661-970-94"/><linearGradient id="linearGradient4915" x1="14" x2="14" y1="5" y2="6" gradientTransform="matrix(6,0,0,1,-59,2)" gradientUnits="userSpaceOnUse" xlink:href="#linearGradient7012-661-145-733-759-865-745-661-970-94"/><linearGradient id="linearGradient4921" x1="14" x2="14" y1="5" y2="6" gradientTransform="matrix(6,0,0,1,-80,0)" gradientUnits="userSpaceOnUse" xlink:href="#linearGradient7012-661-145-733-759-865-745-661-970-94"/><linearGradient id="linearGradient4923" x1="14" x2="14" y1="5" y2="6" gradientTransform="matrix(6,0,0,1,-80,2)" gradientUnits="userSpaceOnUse" xlink:href="#linearGradient7012-661-145-733-759-865-745-661-970-94"/><linearGradient id="linearGradient4929" x1="14" x2="14" y1="5" y2="6" gradientTransform="matrix(6,0,0,1,-59,4)" gradientUnits="userSpaceOnUse" xlink:href="#linearGradient7012-661-145-733-759-865-745-661-970-94"/><linearGradient id="linearGradient4931" x1="14" x2="14" y1="5" y2="6" gradientTransform="matrix(6,0,0,1,-80,4)" gradientUnits="userSpaceOnUse" xlink:href="#linearGradient7012-661-145-733-759-865-745-661-970-94"/><linearGradient id="linearGradient5091" x1="18" x2="24" y1="2" y2="49" gradientUnits="userSpaceOnUse" xlink:href="#linearGradient5093"/><linearGradient id="linearGradient5107" x1="21" x2="21" y1="14" y2="11" gradientUnits="userSpaceOnUse" xlink:href="#linearGradient5101"/><linearGradient id="linearGradient5111" x1="12.992" x2="35.976" y1="22.5" y2="22.5" gradientTransform="matrix(1.3655179,0,0,1.0174953,-10.321595,-19.400919)" gradientUnits="userSpaceOnUse" xlink:href="#linearGradient4771-8"/><linearGradient id="linearGradient5119" x1="10.369" x2="39.354" y1="5.505" y2="5.505" gradientTransform="matrix(1.6560674,0,0,1.5220591,-17.172205,30.62058)" gradientUnits="userSpaceOnUse" xlink:href="#linearGradient5121"/><linearGradient id="linearGradient5131" x1="21" x2="21" y1="14" y2="11" gradientTransform="matrix(1,0,0,-1,0,44.999958)" gradientUnits="userSpaceOnUse" xlink:href="#linearGradient5139"/><linearGradient id="linearGradient5231" x1="28.127" x2="35" y1="30.038" y2="30" gradientTransform="translate(-1.0000003,0)" gradientUnits="userSpaceOnUse" xlink:href="#linearGradient5233"/><linearGradient id="linearGradient5274" x1="14.667" x2="14.667" y1="7" y2="5" gradientTransform="matrix(3,0,0,1,-26,28)" gradientUnits="userSpaceOnUse" xlink:href="#linearGradient2490-6-8-4-1"/><linearGradient id="linearGradient5278" x1="14" x2="14" y1="5" y2="6" gradientTransform="matrix(3,0,0,1,-34,28)" gradientUnits="userSpaceOnUse" xlink:href="#linearGradient4103-7"/><linearGradient id="linearGradient5282" x1="14" x2="14" y1="5" y2="6" gradientTransform="matrix(3,0,0,1,-30,27)" gradientUnits="userSpaceOnUse" xlink:href="#linearGradient7012-661-145-733-759-865-745-661-970-94"/><linearGradient id="linearGradient5286" x1="14" x2="14" y1="5" y2="6" gradientTransform="matrix(3,0,0,1,-22,27)" gradientUnits="userSpaceOnUse" xlink:href="#linearGradient2264"/><linearGradient id="linearGradient5290" x1="14" x2="14" y1="5" y2="7" gradientTransform="matrix(2,0,0,1,5,28)" gradientUnits="userSpaceOnUse" xlink:href="#linearGradient4956-6-6-9-5"/></defs><path d="m 45,43.393785 c 0,1.178098 -2.019917,3.254594 -6,4.087634 -3.980083,0.83304 -9.871313,0.412366 -15.5,0.412366 -5.628687,0 -11.519917,0.420674 -15.5,-0.412366 C 4.0199173,46.648379 2,44.571883 2,43.393785 2,42.215687 4.3171216,41.044844 8.2972043,40.211803 12.277287,39.378763 17.871313,38.893785 23.5,38.893785 c 5.628687,0 11.222713,0.484978 15.202796,1.318018 C 42.682878,41.044844 45,42.215687 45,43.393785 z" style="marker:none" id="path2788" fill="url(#radialGradient3685)" fill-opacity="1" fill-rule="nonzero" stroke="none" stroke-width="1" color="#000" display="inline" opacity=".4" overflow="visible" visibility="visible"/><path id="rect3501" fill="url(#linearGradient3682)" fill-opacity="1" stroke="#373737" stroke-dasharray="none" stroke-miterlimit="4" stroke-opacity="1" stroke-width="1" d="M 7.4757386,2.5016425 39.5,2.510082 l 0,8.429698 -1.00405,3.137185 0.0081,16.624612 2.898271,4.537734 0.06681,8.232697 L 5.467418,43.527992 5.532582,35.279156 8.5,31.001506 8.5,13.923035 7.5242614,11.06022 z"/><path id="path5129" fill="url(#linearGradient5131)" fill-opacity="1" stroke="none" d="M 7.2638792,35.270174 10,31 l 27,0 3,4 -32.7361208,0.270132 z"/><rect id="rect5806" width="27.955" height="17.023" x="9.045" y="13.977" fill="url(#linearGradient3679)" fill-opacity="1" stroke="none"/><path id="rect4431" fill="url(#radialGradient4494)" fill-opacity="1" stroke="#333" stroke-dasharray="none" stroke-miterlimit="4" stroke-opacity="1" stroke-width="1" d="m 13.01216,15.288 c 0.868897,-0.848001 19.652144,-0.592015 20.925682,0 0.781211,0.363149 0.639375,14.242653 0,14.242653 l -20.925682,0 c -0.57009,-0.812925 -0.676319,-13.582597 0,-14.242653 z"/><path id="path1307" fill="#ffd164" fill-opacity="1" stroke="none" d="m 18,17 c -1.793994,0 -3.247021,1.46734 -3.247021,3.275494 0,1.808155 1.453027,3.275495 3.247021,3.275495 0.937326,0 1.903597,-0.399451 2.53813,-1.198352 L 18,20.275494 20.75625,18.542878 C 20.181816,17.616995 19.162568,17 18,17 z"/><path id="path2929" fill="#ffd164" fill-opacity="1" stroke="none" d="m 45,25.5 a 2.5,2.5 0 1 1 -5,0 2.5,2.5 0 1 1 5,0 z" transform="matrix(0.29942399,0,0,0.29608098,10.079445,13.202124)"/><rect id="rect4626" width="30.955" height="6.991" x="8.045" y="4.009" fill="url(#linearGradient3670)" fill-opacity="1" stroke="none"/><path id="path4682" fill="url(#linearGradient5107)" fill-opacity="1" stroke="none" d="M 8,10.999958 9.0447044,13.9771 38,14 39,11 8,11 z"/><rect id="rect4626-0" width="34.995" height="7.71" x="6.005" y="35.29" fill="url(#linearGradient5119)" fill-opacity="1" stroke="none"/><rect id="rect4727" width="11.044" height="2.157" x="21.79" y="15.4" fill="url(#radialGradient3662)" fill-opacity="1" stroke="none" ry=".925"/><path id="path4769" fill="url(#linearGradient3659)" fill-opacity="1" stroke="none" d="M 6.632818,35.979619 7,35 l 33,0 0.74517,0.682624 0,0.296995 -34.112352,0 z"/><path id="path4769-8" fill="url(#linearGradient3656)" fill-opacity="1" stroke="none" d="M 7.4516422,10.552812 8,10 38.191922,9.95193 l 0.61287,0.648953 0,0.432636 -31.3854066,0 0.032251,-0.480706 z"/><rect id="rect5860" width="24.152" height="16.03" x="11.433" y="14.433" fill="none" stroke="url(#linearGradient3627)" stroke-dasharray="none" stroke-miterlimit="4" stroke-opacity="1" stroke-width="1" opacity=".6" ry="1.917"/><path id="path5223" fill="#000" fill-opacity="1" stroke="#000" stroke-dasharray="none" stroke-dashoffset=".7" stroke-linecap="round" stroke-linejoin="miter" stroke-miterlimit="4" stroke-opacity="1" stroke-width="1" d="m 28.460042,25.50089 c -3.459214,4.3e-5 -0.959214,2.684106 -0.959214,3.117996 l 0,3.472007 c 0.171161,0.220236 0.536656,0.484552 0.989804,0.484552 0.470808,0 0.849757,-0.281354 1.010196,-0.515961 l 0,-3.441188 c 0,-0.505523 2.5,-3.117449 -0.959215,-3.117406 z" opacity=".5"/><path id="rect5329-0-4-9" fill="url(#linearGradient4517)" fill-opacity="1" stroke="url(#linearGradient5231)" stroke-dasharray="none" stroke-dashoffset=".7" stroke-linecap="round" stroke-linejoin="miter" stroke-miterlimit="4" stroke-opacity="1" stroke-width="1" d="m 29.459628,26.500445 c -3.459214,4.3e-5 -0.959214,2.684106 -0.959214,3.117996 l 0,3.472007 C 28.671575,33.310684 29.03707,33.5 29.490218,33.5 c 0.470808,0 0.849757,-0.206354 1.010196,-0.440961 l 0,-3.441188 c 0,-0.505523 2.5,-3.117449 -0.959215,-3.117406 z"/><rect id="rect4969" width="29" height="6" x="9" y="4" fill="#000" fill-opacity="1" stroke="none" opacity=".4" ry="0"/><g id="g5145" opacity=".9"><rect id="rect5860-8" width="1" height="1" x="15" y="5" fill="url(#linearGradient4547)" fill-opacity="1" stroke="none" ry="0"/><rect id="rect4549" width="1" height="1" x="17" y="5" fill="url(#linearGradient4551)" fill-opacity="1" stroke="none" ry="0"/><rect id="rect4553" width="1" height="1" x="19" y="5" fill="url(#linearGradient4555)" fill-opacity="1" stroke="none" ry="0"/><rect id="rect4557" width="1" height="1" x="21" y="5" fill="url(#linearGradient4559)" fill-opacity="1" stroke="none" ry="0"/><rect id="rect4561" width="1" height="1" x="23" y="5" fill="url(#linearGradient4563)" fill-opacity="1" stroke="none" ry="0"/><rect id="rect4565" width="1" height="1" x="25" y="5" fill="url(#linearGradient4567)" fill-opacity="1" stroke="none" ry="0"/><rect id="rect4569" width="1" height="1" x="27" y="5" fill="url(#linearGradient4571)" fill-opacity="1" stroke="none" ry="0"/><rect id="rect4573" width="1" height="1" x="29" y="5" fill="url(#linearGradient4575)" fill-opacity="1" stroke="none" ry="0"/><rect id="rect4577" width="1" height="1" x="31" y="5" fill="url(#linearGradient4579)" fill-opacity="1" stroke="none" ry="0"/><rect id="rect4581" width="1" height="1" x="15" y="7" fill="url(#linearGradient4599)" fill-opacity="1" stroke="none" ry="0"/><rect id="rect4583" width="1" height="1" x="17" y="7" fill="url(#linearGradient4601)" fill-opacity="1" stroke="none" ry="0"/><rect id="rect4585" width="1" height="1" x="19" y="7" fill="url(#linearGradient4603)" fill-opacity="1" stroke="none" ry="0"/><rect id="rect4587" width="1" height="1" x="21" y="7" fill="url(#linearGradient4605)" fill-opacity="1" stroke="none" ry="0"/><rect id="rect4589" width="1" height="1" x="23" y="7" fill="url(#linearGradient4607)" fill-opacity="1" stroke="none" ry="0"/><rect id="rect4591" width="1" height="1" x="25" y="7" fill="url(#linearGradient4609)" fill-opacity="1" stroke="none" ry="0"/><rect id="rect4593" width="1" height="1" x="27" y="7" fill="url(#linearGradient4611)" fill-opacity="1" stroke="none" ry="0"/><rect id="rect4595" width="1" height="1" x="29" y="7" fill="url(#linearGradient4613)" fill-opacity="1" stroke="none" ry="0"/><rect id="rect4597" width="1" height="1" x="31" y="7" fill="url(#linearGradient4615)" fill-opacity="1" stroke="none" ry="0"/><rect id="rect4617" width="1" height="1" x="15" y="9" fill="url(#linearGradient4635)" fill-opacity="1" stroke="none" ry="0"/><rect id="rect4619" width="1" height="1" x="17" y="9" fill="url(#linearGradient4637)" fill-opacity="1" stroke="none" ry="0"/><rect id="rect4621" width="1" height="1" x="19" y="9" fill="url(#linearGradient4639)" fill-opacity="1" stroke="none" ry="0"/><rect id="rect4623" width="1" height="1" x="21" y="9" fill="url(#linearGradient4641)" fill-opacity="1" stroke="none" ry="0"/><rect id="rect4625" width="1" height="1" x="23" y="9" fill="url(#linearGradient4643)" fill-opacity="1" stroke="none" ry="0"/><rect id="rect4627" width="1" height="1" x="25" y="9" fill="url(#linearGradient4645)" fill-opacity="1" stroke="none" ry="0"/><rect id="rect4629" width="1" height="1" x="27" y="9" fill="url(#linearGradient4647)" fill-opacity="1" stroke="none" ry="0"/><rect id="rect4631" width="1" height="1" x="29" y="9" fill="url(#linearGradient4649)" fill-opacity="1" stroke="none" ry="0"/><rect id="rect4633" width="1" height="1" x="31" y="9" fill="url(#linearGradient4651)" fill-opacity="1" stroke="none" ry="0"/><rect id="rect4653" width="1" height="1" x="16" y="6" fill="url(#linearGradient4671)" fill-opacity="1" stroke="none" ry="0"/><rect id="rect4655" width="1" height="1" x="18" y="6" fill="url(#linearGradient4673)" fill-opacity="1" stroke="none" ry="0"/><rect id="rect4657" width="1" height="1" x="20" y="6" fill="url(#linearGradient4675)" fill-opacity="1" stroke="none" ry="0"/><rect id="rect4659" width="1" height="1" x="22" y="6" fill="url(#linearGradient4677)" fill-opacity="1" stroke="none" ry="0"/><rect id="rect4661" width="1" height="1" x="24" y="6" fill="url(#linearGradient4679)" fill-opacity="1" stroke="none" ry="0"/><rect id="rect4663" width="1" height="1" x="26" y="6" fill="url(#linearGradient4681)" fill-opacity="1" stroke="none" ry="0"/><rect id="rect4665" width="1" height="1" x="28" y="6" fill="url(#linearGradient4683)" fill-opacity="1" stroke="none" ry="0"/><rect id="rect4667" width="1" height="1" x="30" y="6" fill="url(#linearGradient4685)" fill-opacity="1" stroke="none" ry="0"/><rect id="rect4689" width="1" height="1" x="16" y="8" fill="url(#linearGradient4705)" fill-opacity="1" stroke="none" ry="0"/><rect id="rect4691" width="1" height="1" x="18" y="8" fill="url(#linearGradient4707)" fill-opacity="1" stroke="none" ry="0"/><rect id="rect4693" width="1" height="1" x="20" y="8" fill="url(#linearGradient4709)" fill-opacity="1" stroke="none" ry="0"/><rect id="rect4695" width="1" height="1" x="22" y="8" fill="url(#linearGradient4711)" fill-opacity="1" stroke="none" ry="0"/><rect id="rect4697" width="1" height="1" x="24" y="8" fill="url(#linearGradient4713)" fill-opacity="1" stroke="none" ry="0"/><rect id="rect4699" width="1" height="1" x="26" y="8" fill="url(#linearGradient4715)" fill-opacity="1" stroke="none" ry="0"/><rect id="rect4701" width="1" height="1" x="28" y="8" fill="url(#linearGradient4717)" fill-opacity="1" stroke="none" ry="0"/><rect id="rect4703" width="1" height="1" x="30" y="8" fill="url(#linearGradient4719)" fill-opacity="1" stroke="none" ry="0"/></g><g id="g5195" opacity=".9"><rect id="rect4909" width="6" height="1" x="31" y="5" fill="url(#linearGradient4913)" fill-opacity="1" stroke="none" rx="1" ry=".5"/><rect id="rect4911" width="6" height="1" x="31" y="7" fill="url(#linearGradient4915)" fill-opacity="1" stroke="none" rx="1" ry=".5"/><rect id="rect4925" width="6" height="1" x="31" y="9" fill="url(#linearGradient4929)" fill-opacity="1" stroke="none" rx="1" ry=".5"/></g><g id="g5190" opacity=".9"><rect id="rect4917" width="6" height="1" x="10" y="5" fill="url(#linearGradient4921)" fill-opacity="1" stroke="none" rx="1" ry=".5"/><rect id="rect4919" width="6" height="1" x="10" y="7" fill="url(#linearGradient4923)" fill-opacity="1" stroke="none" rx="1" ry=".5"/><rect id="rect4927" width="6" height="1" x="10" y="9" fill="url(#linearGradient4931)" fill-opacity="1" stroke="none" rx="1" ry=".5"/></g><path id="path5081" fill="none" stroke="url(#linearGradient5091)" stroke-dasharray="none" stroke-miterlimit="4" stroke-opacity="1" stroke-width="1" d="M 8.4757386,3.4957801 38.5,3.5042199 l 0,7.4356291 -1.00405,3.137116 0.0081,16.624341 2.962545,4.53792 0.06681,7.232739 L 6.467418,42.528035 6.532582,35.279156 9.5,31.001235 l 0,-17.0782 -0.9757386,-2.862746 z" opacity=".5"/><path id="path5109" fill="url(#linearGradient5111)" fill-opacity="1" stroke="none" d="M 7.4516422,3.552812 8,3 38.191922,2.95193 l 0.61287,0.648953 0,0.432636 -31.3854066,0 0.032251,-0.480706 z"/><rect id="rect5255" width="3" height="1" x="19" y="33" fill="url(#linearGradient5274)" fill-opacity="1" stroke="none" rx="1.073" ry=".5"/><rect id="rect5276" width="3" height="1" x="11" y="33" fill="url(#linearGradient5278)" fill-opacity="1" stroke="none" rx="1.073" ry=".5"/><rect id="rect5280" width="3" height="1" x="15" y="32" fill="url(#linearGradient5282)" fill-opacity="1" stroke="none" rx="1.073" ry=".5"/><rect id="rect5284" width="3" height="1" x="23" y="32" fill="url(#linearGradient5286)" fill-opacity="1" stroke="none" rx="1.073" ry=".5"/><rect id="rect5288" width="2" height="1" x="35" y="33" fill="url(#linearGradient5290)" fill-opacity="1" stroke="none" rx=".715" ry=".5"/></svg>