<svg xmlns="http://www.w3.org/2000/svg" xmlns:svg="http://www.w3.org/2000/svg" xmlns:xlink="http://www.w3.org/1999/xlink" id="svg2" width="48" height="48" version="1.0"><metadata id="metadata7"/><defs id="defs5"><linearGradient id="linearGradient4704"><stop id="stop4706" offset="0" stop-color="#8badea" stop-opacity="1"/><stop id="stop4708" offset=".2" stop-color="#6396cd" stop-opacity="1"/><stop id="stop4710" offset=".6" stop-color="#3b7caf" stop-opacity="1"/><stop id="stop4712" offset="1" stop-color="#194c70" stop-opacity="1"/></linearGradient><linearGradient id="linearGradient4553"><stop id="stop4555" offset="0" stop-color="#fff" stop-opacity="1"/><stop id="stop4557" offset="1" stop-color="#fff" stop-opacity="0"/></linearGradient><linearGradient id="linearGradient4461"><stop id="stop4463" offset="0" stop-color="#dac197" stop-opacity="1"/><stop id="stop4465" offset="0" stop-color="#c1a581" stop-opacity="1"/><stop id="stop4467" offset=".833" stop-color="#dbc298" stop-opacity="1"/><stop id="stop4469" offset="1" stop-color="#a68b60" stop-opacity="1"/></linearGradient><linearGradient id="linearGradient4389"><stop id="stop4391" offset="0" stop-color="#c9af8b" stop-opacity="1"/><stop id="stop4393" offset=".088" stop-color="#ad8757" stop-opacity="1"/><stop id="stop4395" offset=".118" stop-color="#c2a57f" stop-opacity="1"/><stop id="stop4397" offset="1" stop-color="#9d7d53" stop-opacity="1"/></linearGradient><linearGradient id="linearGradient4379"><stop id="stop4381" offset="0" stop-color="#dac197" stop-opacity="1"/><stop id="stop4383" offset=".094" stop-color="#c1a581" stop-opacity="1"/><stop id="stop4385" offset=".157" stop-color="#dbc298" stop-opacity="1"/><stop id="stop4387" offset="1" stop-color="#a68b60" stop-opacity="1"/></linearGradient><linearGradient id="linearGradient3304"><stop id="stop3306" offset="0" stop-color="#000" stop-opacity="0"/><stop id="stop3312" offset=".5" stop-color="#000" stop-opacity="1"/><stop id="stop3308" offset="1" stop-color="#000" stop-opacity="0"/></linearGradient><linearGradient id="linearGradient3290"><stop id="stop3292" offset="0" stop-color="#000" stop-opacity="1"/><stop id="stop3294" offset="1" stop-color="#000" stop-opacity="0"/></linearGradient><linearGradient id="linearGradient3146"><stop id="stop3148" offset="0" stop-color="#fff" stop-opacity="1"/><stop id="stop3150" offset="1" stop-color="#fff" stop-opacity="0"/></linearGradient><radialGradient id="radialGradient3296" cx="2" cy="39.016" r="1.5" fx="2" fy="39.016" gradientTransform="matrix(2,0,0,2,-9,-116.5313)" gradientUnits="userSpaceOnUse" xlink:href="#linearGradient3290"/><radialGradient id="radialGradient3300" cx="2" cy="39.016" r="1.5" fx="2" fy="39.016" gradientTransform="matrix(2,0,0,2,38,-39.5313)" gradientUnits="userSpaceOnUse" xlink:href="#linearGradient3290"/><linearGradient id="linearGradient3310" x1="10.916" x2="10.916" y1="35.499" y2="41.5" gradientUnits="userSpaceOnUse" xlink:href="#linearGradient3304"/><linearGradient id="linearGradient3275-9"><stop id="stop3277-7" offset="0" stop-color="#fff" stop-opacity="0"/><stop id="stop3283" offset=".245" stop-color="#fff" stop-opacity="1"/><stop id="stop3285" offset=".774" stop-color="#fff" stop-opacity="1"/><stop id="stop3279-1" offset="1" stop-color="#fff" stop-opacity="0"/></linearGradient><linearGradient id="linearGradient4152" x1="57.013" x2="57.013" y1="26" y2="44" gradientTransform="matrix(-1,0,0,1,67,-12.999993)" gradientUnits="userSpaceOnUse" xlink:href="#linearGradient4704"/><linearGradient id="linearGradient4154" x1="5.392" x2="5.392" y1="-38.886" y2="8.934" gradientTransform="translate(0,37.000007)" gradientUnits="userSpaceOnUse" xlink:href="#linearGradient3146"/><linearGradient id="linearGradient4168" x1="57" x2="57" y1="26" y2="44" gradientTransform="matrix(-1,0,0,1,67,-12.999993)" gradientUnits="userSpaceOnUse" xlink:href="#linearGradient7012-661-145-733-759-865-745-661-970-94"/><linearGradient id="linearGradient4170" x1="5.392" x2="5.392" y1="-38.886" y2="8.934" gradientTransform="translate(0,37.000007)" gradientUnits="userSpaceOnUse" xlink:href="#linearGradient3146"/><linearGradient id="linearGradient4236" x1="57" x2="57" y1="26" y2="44" gradientTransform="matrix(-1,0,0,1,67,-12.999993)" gradientUnits="userSpaceOnUse" xlink:href="#linearGradient7012-661-145-733-759-865-745-661-970-94"/><linearGradient id="linearGradient4238" x1="5.392" x2="5.392" y1="-38.886" y2="8.934" gradientTransform="translate(0,37.000007)" gradientUnits="userSpaceOnUse" xlink:href="#linearGradient3146"/><linearGradient id="linearGradient4293" x1="44.995" x2="3.005" y1="17.5" y2="17.5" gradientTransform="matrix(1.0287083,0,0,1,-1.28629,-9.999999)" gradientUnits="userSpaceOnUse" spreadMethod="reflect" xlink:href="#linearGradient3275-9"/><linearGradient id="linearGradient4296" x1="25.011" x2="25.011" y1="16.883" y2="20.736" gradientTransform="matrix(1.2822251,0,0,1.5572619,-9.0701863,-23.290755)" gradientUnits="userSpaceOnUse" xlink:href="#linearGradient4461"/><linearGradient id="linearGradient4298" x1="15" x2="15.464" y1="9" y2="45.042" gradientTransform="translate(-2.9999863,-7.999999)" gradientUnits="userSpaceOnUse" xlink:href="#linearGradient4389"/><radialGradient id="radialGradient4345" cx="2" cy="39.016" r="1.5" fx="2" fy="39.016" gradientTransform="matrix(2,0,0,2,-9,-116.5313)" gradientUnits="userSpaceOnUse" xlink:href="#linearGradient3290"/><radialGradient id="radialGradient4347" cx="2" cy="39.016" r="1.5" fx="2" fy="39.016" gradientTransform="matrix(2,0,0,2,38,-39.5313)" gradientUnits="userSpaceOnUse" xlink:href="#linearGradient3290"/><linearGradient id="linearGradient4349" x1="10.916" x2="10.916" y1="35.499" y2="41.5" gradientUnits="userSpaceOnUse" xlink:href="#linearGradient3304"/><radialGradient id="radialGradient4359" cx="2" cy="39.016" r="1.5" fx="2" fy="39.016" gradientTransform="matrix(2,0,0,2,-9,-116.5313)" gradientUnits="userSpaceOnUse" xlink:href="#linearGradient3290"/><radialGradient id="radialGradient4361" cx="2" cy="39.016" r="1.5" fx="2" fy="39.016" gradientTransform="matrix(2,0,0,2,38,-39.5313)" gradientUnits="userSpaceOnUse" xlink:href="#linearGradient3290"/><linearGradient id="linearGradient4363" x1="10.916" x2="10.916" y1="35.499" y2="41.5" gradientUnits="userSpaceOnUse" xlink:href="#linearGradient3304"/><radialGradient id="radialGradient4373" cx="2" cy="39.016" r="1.5" fx="2" fy="39.016" gradientTransform="matrix(2,0,0,2,-9,-116.5313)" gradientUnits="userSpaceOnUse" xlink:href="#linearGradient3290"/><radialGradient id="radialGradient4375" cx="2" cy="39.016" r="1.5" fx="2" fy="39.016" gradientTransform="matrix(2,0,0,2,38,-39.5313)" gradientUnits="userSpaceOnUse" xlink:href="#linearGradient3290"/><linearGradient id="linearGradient4377" x1="10.916" x2="10.916" y1="35.499" y2="41.5" gradientUnits="userSpaceOnUse" xlink:href="#linearGradient3304"/><linearGradient id="linearGradient4401" x1="44.995" x2="3.005" y1="17.5" y2="17.5" gradientTransform="matrix(1.0287083,0,0,1,-1.28629,8.000001)" gradientUnits="userSpaceOnUse" spreadMethod="reflect" xlink:href="#linearGradient3275-9"/><linearGradient id="linearGradient4405" x1="25.011" x2="24.997" y1="16.883" y2="37.277" gradientTransform="matrix(1.2822251,0,0,1.5572619,-10.070186,-5.290755)" gradientUnits="userSpaceOnUse" xlink:href="#linearGradient4379"/><radialGradient id="radialGradient4433" cx="2" cy="39.016" r="1.5" fx="2" fy="39.016" gradientTransform="matrix(2,0,0,2,-9,-116.5313)" gradientUnits="userSpaceOnUse" xlink:href="#linearGradient3290"/><radialGradient id="radialGradient4435" cx="2" cy="39.016" r="1.5" fx="2" fy="39.016" gradientTransform="matrix(2,0,0,2,38,-39.5313)" gradientUnits="userSpaceOnUse" xlink:href="#linearGradient3290"/><linearGradient id="linearGradient4437" x1="10.916" x2="10.916" y1="35.499" y2="41.5" gradientUnits="userSpaceOnUse" xlink:href="#linearGradient3304"/><radialGradient id="radialGradient4439" cx="2" cy="39.016" r="1.5" fx="2" fy="39.016" gradientTransform="matrix(2,0,0,2,-9,-116.5313)" gradientUnits="userSpaceOnUse" xlink:href="#linearGradient3290"/><radialGradient id="radialGradient4441" cx="2" cy="39.016" r="1.5" fx="2" fy="39.016" gradientTransform="matrix(2,0,0,2,38,-39.5313)" gradientUnits="userSpaceOnUse" xlink:href="#linearGradient3290"/><linearGradient id="linearGradient4443" x1="10.916" x2="10.916" y1="35.499" y2="41.5" gradientUnits="userSpaceOnUse" xlink:href="#linearGradient3304"/><radialGradient id="radialGradient4445" cx="2" cy="39.016" r="1.5" fx="2" fy="39.016" gradientTransform="matrix(2,0,0,2,-9,-116.5313)" gradientUnits="userSpaceOnUse" xlink:href="#linearGradient3290"/><radialGradient id="radialGradient4447" cx="2" cy="39.016" r="1.5" fx="2" fy="39.016" gradientTransform="matrix(2,0,0,2,38,-39.5313)" gradientUnits="userSpaceOnUse" xlink:href="#linearGradient3290"/><linearGradient id="linearGradient4449" x1="10.916" x2="10.916" y1="35.499" y2="41.5" gradientUnits="userSpaceOnUse" xlink:href="#linearGradient3304"/><linearGradient id="linearGradient4455" x1="25.011" x2="24.997" y1="16.883" y2="37.277" gradientTransform="matrix(1.2822251,0,0,1.5572619,-10.070186,12.709245)" gradientUnits="userSpaceOnUse" xlink:href="#linearGradient4379"/><linearGradient id="linearGradient4459" x1="44.995" x2="3.005" y1="17.5" y2="17.5" gradientTransform="matrix(1.0287083,0,0,1,-1.28629,26.000001)" gradientUnits="userSpaceOnUse" spreadMethod="reflect" xlink:href="#linearGradient3275-9"/><linearGradient id="linearGradient4513" x1="56.086" x2="63.349" y1="25.787" y2="43.685" gradientTransform="matrix(-1,0,0,1,67,-12.999993)" gradientUnits="userSpaceOnUse" xlink:href="#linearGradient4704"/><linearGradient id="linearGradient4515" x1="5.392" x2="5.392" y1="-38.886" y2="8.934" gradientTransform="translate(0,37.000007)" gradientUnits="userSpaceOnUse" xlink:href="#linearGradient3146"/><linearGradient id="linearGradient4529" x1="56.983" x2="56.983" y1="27" y2="44" gradientTransform="matrix(-1,0,0,1,67,-12.999993)" gradientUnits="userSpaceOnUse" xlink:href="#linearGradient2264"/><linearGradient id="linearGradient4531" x1="5.392" x2="5.392" y1="-38.886" y2="8.934" gradientTransform="translate(0,37.000007)" gradientUnits="userSpaceOnUse" xlink:href="#linearGradient3146"/><linearGradient id="linearGradient4545" x1="56.983" x2="56.983" y1="26" y2="44" gradientTransform="matrix(-1,0,0,1,67,-12.999993)" gradientUnits="userSpaceOnUse" xlink:href="#linearGradient4704"/><linearGradient id="linearGradient4547" x1="5.392" x2="5.392" y1="-38.886" y2="8.934" gradientTransform="translate(0,37.000007)" gradientUnits="userSpaceOnUse" xlink:href="#linearGradient3146"/><linearGradient id="linearGradient4559" x1="23" x2="23" y1="6" y2="1" gradientUnits="userSpaceOnUse" xlink:href="#linearGradient4553"/><radialGradient id="radialGradient4573" cx="2" cy="39.016" r="1.5" fx="2" fy="39.016" gradientTransform="matrix(2,0,0,2,-9,-116.5313)" gradientUnits="userSpaceOnUse" xlink:href="#linearGradient3290"/><radialGradient id="radialGradient4575" cx="2" cy="39.016" r="1.5" fx="2" fy="39.016" gradientTransform="matrix(2,0,0,2,38,-39.5313)" gradientUnits="userSpaceOnUse" xlink:href="#linearGradient3290"/><linearGradient id="linearGradient4577" x1="10.916" x2="10.916" y1="35.499" y2="41.5" gradientUnits="userSpaceOnUse" xlink:href="#linearGradient3304"/><linearGradient id="linearGradient3234-7"><stop id="stop3236-3" offset="0" stop-color="#fff" stop-opacity="1"/><stop id="stop3238-2" offset="1" stop-color="#fff" stop-opacity="0"/></linearGradient><linearGradient id="linearGradient4634" x1="36.563" x2="36.563" y1="-17" y2="-20.594" gradientTransform="matrix(0.61935484,0,0,0.49999997,-12.116135,40.500005)" gradientUnits="userSpaceOnUse" xlink:href="#linearGradient3234-7"/><linearGradient id="linearGradient2490-182-124"><stop id="stop2788" offset="0" stop-color="#1f4b6a" stop-opacity="1"/><stop id="stop2790" offset="1" stop-color="#4083c2" stop-opacity="1"/></linearGradient><linearGradient id="linearGradient4702" x1="4.987" x2="4.987" y1="28" y2="13" gradientUnits="userSpaceOnUse" xlink:href="#linearGradient2490-182-124"/><linearGradient id="linearGradient4720" x1="14.731" x2="16.345" y1="18.968" y2="14.991" gradientUnits="userSpaceOnUse" xlink:href="#linearGradient2490-182-124"/><linearGradient id="linearGradient4738" x1="13.017" x2="14.017" y1="28" y2="13" gradientUnits="userSpaceOnUse" xlink:href="#linearGradient2490-182-124"/><linearGradient id="linearGradient4746" x1="14.064" x2="13.033" y1="43.171" y2="27.924" gradientUnits="userSpaceOnUse" xlink:href="#linearGradient2490-182-124"/><linearGradient id="linearGradient2264"><stop id="stop2266" offset="0" stop-color="#d7e866" stop-opacity="1"/><stop id="stop2268" offset="1" stop-color="#8cab2a" stop-opacity="1"/></linearGradient><linearGradient id="linearGradient7012-661-145-733-759-865-745-661-970-94"><stop id="stop3618" offset="0" stop-color="#edd563" stop-opacity="1"/><stop id="stop3620" offset="1" stop-color="#e08223" stop-opacity="1"/></linearGradient><linearGradient id="linearGradient3390-178-986-453"><stop id="stop3624" offset="0" stop-color="#bb5e12" stop-opacity="1"/><stop id="stop3626" offset="1" stop-color="#cd8033" stop-opacity="1"/></linearGradient><linearGradient id="linearGradient4798" x1="7" x2="7" y1="27" y2="13" gradientUnits="userSpaceOnUse" xlink:href="#linearGradient3390-178-986-453"/><linearGradient id="linearGradient4822" x1="57" x2="57" y1="27" y2="44" gradientTransform="matrix(-1,0,0,1,67,-12.999993)" gradientUnits="userSpaceOnUse" xlink:href="#linearGradient2264"/><linearGradient id="linearGradient4824" x1="5.392" x2="5.392" y1="-38.886" y2="8.934" gradientTransform="translate(0,37.000007)" gradientUnits="userSpaceOnUse" xlink:href="#linearGradient3146"/><linearGradient id="linearGradient3234-7-7-7"><stop id="stop3236-3-7-2" offset="0" stop-color="#fff" stop-opacity="1"/><stop id="stop3238-2-0-8" offset="1" stop-color="#fff" stop-opacity="0"/></linearGradient><linearGradient id="linearGradient4971" x1="36.563" x2="36.563" y1="-17" y2="-20.594" gradientTransform="matrix(0.61935484,0,0,0.49999997,-12.116135,40.500005)" gradientUnits="userSpaceOnUse" xlink:href="#linearGradient3234-7-7-7"/><linearGradient id="linearGradient5000" x1="5" x2="5" y1="28" y2="13" gradientUnits="userSpaceOnUse" xlink:href="#linearGradient3390-178-986-453"/><linearGradient id="linearGradient4240-6" x1="56.983" x2="56.983" y1="40" y2="28" gradientTransform="matrix(-1,0,0,1,67,-12.999993)" gradientUnits="userSpaceOnUse" xlink:href="#linearGradient3412-0"/><linearGradient id="linearGradient3412-0"><stop id="stop3414-2" offset="0" stop-color="#babdb6" stop-opacity="1"/><stop id="stop3416-3" offset="1" stop-color="#d3d7cf" stop-opacity="1"/></linearGradient><linearGradient id="linearGradient4242-5" x1="5.392" x2="5.392" y1="-38.886" y2="8.934" gradientTransform="translate(0,37.000007)" gradientUnits="userSpaceOnUse" xlink:href="#linearGradient3146-3"/><linearGradient id="linearGradient3146-3"><stop id="stop3148-6" offset="0" stop-color="#fff" stop-opacity="1"/><stop id="stop3150-2" offset="1" stop-color="#fff" stop-opacity="0"/></linearGradient><linearGradient id="linearGradient4806-7" x1="14.064" x2="13.033" y1="43.171" y2="27.924" gradientUnits="userSpaceOnUse" xlink:href="#linearGradient3390-178-986-453-67"/><linearGradient id="linearGradient3390-178-986-453-67"><stop id="stop3624-5" offset="0" stop-color="#bb5e12" stop-opacity="1"/><stop id="stop3626-4" offset="1" stop-color="#cd8033" stop-opacity="1"/></linearGradient><linearGradient id="linearGradient3234-7-9"><stop id="stop3236-3-1" offset="0" stop-color="#fff" stop-opacity="1"/><stop id="stop3238-2-6" offset="1" stop-color="#fff" stop-opacity="0"/></linearGradient><linearGradient id="linearGradient5080" x1="36.563" x2="36.563" y1="-17" y2="-20.594" gradientTransform="matrix(0.61935484,0,0,0.49999997,-12.116135,40.500005)" gradientUnits="userSpaceOnUse" xlink:href="#linearGradient3234-7-9"/></defs><g id="g5200"><g id="g3314" opacity=".3" transform="matrix(1.116279,0,0,1.567924,-2.2325581,-16.96863)"><rect id="rect3288" width="3" height="6" x="-5" y="-41.5" fill="url(#radialGradient3296)" fill-opacity="1" stroke="none" transform="scale(-1,-1)"/><rect id="rect3298" width="3" height="6" x="42" y="35.5" fill="url(#radialGradient3300)" fill-opacity="1" stroke="none"/><rect id="rect3302" width="37" height="6" x="5" y="35.5" fill="url(#linearGradient3310)" fill-opacity="1" stroke="none"/></g><path id="path2488" fill="url(#linearGradient4296)" fill-opacity="1" fill-rule="nonzero" stroke="url(#linearGradient4298)" stroke-dasharray="none" stroke-dashoffset="0" stroke-linecap="round" stroke-linejoin="miter" stroke-miterlimit="4" stroke-opacity="1" stroke-width=".994" d="m 6.0107337,2.500001 35.4977203,0 c 1.72198,0 2.49692,-0.286551 2.99156,1 l 3.00173,4 0,35.673912 c 0,1.553304 0.10293,1.315976 -1.61906,1.315976 l -43.7653403,0 c -1.72198998,0 -1.61906998,0.237328 -1.61906998,-1.315976 l 0,-35.673912 3.00173998,-4 c 0.48083,-1.260562 0.78873,-1 2.51072,-1 z" display="block" overflow="visible" visibility="visible" style="marker:none"/><path id="path4451" fill="url(#linearGradient4455)" fill-opacity="1" fill-rule="nonzero" stroke="#9d7d53" stroke-dasharray="none" stroke-dashoffset="0" stroke-linecap="round" stroke-linejoin="miter" stroke-miterlimit="4" stroke-opacity="1" stroke-width=".994" d="m 7.0107337,38.500001 33.4977203,0 c 1.72198,0 2.49692,-0.286551 2.99156,1 l 3.00173,3.060304 c 0,-0.939696 0.10293,0.929695 -1.61906,0.929695 l -41.7653403,0 c -1.72199,0 -1.61907,-1.869391 -1.61907,-0.929695 l 3.00174,-3.060304 c 0.48083,-1.260562 0.78873,-1 2.51072,-1 z" display="block" overflow="visible" visibility="visible" style="marker:none"/><g id="g4409" opacity=".3" transform="matrix(0,-0.34883721,0.66666653,0,-12.666662,42.697674)"><rect id="rect4411" width="3" height="6" x="-5" y="-41.5" fill="url(#radialGradient4433)" fill-opacity="1" stroke="none" transform="scale(-1,-1)"/><rect id="rect4413" width="3" height="6" x="42" y="35.5" fill="url(#radialGradient4435)" fill-opacity="1" stroke="none"/><rect id="rect4415" width="37" height="6" x="5" y="35.5" fill="url(#linearGradient4437)" fill-opacity="1" stroke="none"/></g><path id="path3273" fill="none" stroke="url(#linearGradient4293)" stroke-linecap="square" stroke-linejoin="miter" stroke-opacity="1" stroke-width="1.014" d="m 2.31957,7.500001 42.1663,0" display="inline" opacity=".4"/><path id="path4453" fill="none" stroke="url(#linearGradient4459)" stroke-linecap="square" stroke-linejoin="miter" stroke-opacity="1" stroke-width="1.014" d="m 2.31957,43.500001 42.1663,0" display="inline" opacity=".4"/><g id="g4417" opacity=".3" transform="matrix(0,-0.34883721,0.66666653,0,-1.6666618,42.697674)"><rect id="rect4419" width="3" height="6" x="-5" y="-41.5" fill="url(#radialGradient4439)" fill-opacity="1" stroke="none" transform="scale(-1,-1)"/><rect id="rect4421" width="3" height="6" x="42" y="35.5" fill="url(#radialGradient4441)" fill-opacity="1" stroke="none"/><rect id="rect4423" width="37" height="6" x="5" y="35.5" fill="url(#linearGradient4443)" fill-opacity="1" stroke="none"/></g><path id="path4403" fill="url(#linearGradient4405)" fill-opacity="1" fill-rule="nonzero" stroke="#9d7d53" stroke-dasharray="none" stroke-dashoffset="0" stroke-linecap="round" stroke-linejoin="miter" stroke-miterlimit="4" stroke-opacity="1" stroke-width=".994" d="m 7.0107337,20.500001 33.4977203,0 c 1.72198,0 2.49692,-0.286551 2.99156,1 l 3.00173,3.060304 c 0,-0.939696 0.10293,1.929584 -1.61906,1.929584 l -41.7653403,0 c -1.72199,0 -1.61907,-2.86928 -1.61907,-1.929584 l 3.00174,-3.060304 c 0.48083,-1.260562 0.78873,-1 2.51072,-1 z" display="block" overflow="visible" visibility="visible" style="marker:none"/><g id="g4565" opacity=".3" transform="matrix(0,-0.34883721,0.66666653,0,17.333338,24.697674)"><rect id="rect4567" width="3" height="6" x="-5" y="-41.5" fill="url(#radialGradient4573)" fill-opacity="1" stroke="none" transform="scale(-1,-1)"/><rect id="rect4569" width="3" height="6" x="42" y="35.5" fill="url(#radialGradient4575)" fill-opacity="1" stroke="none"/><rect id="rect4571" width="37" height="6" x="5" y="35.5" fill="url(#linearGradient4577)" fill-opacity="1" stroke="none"/></g><g id="g4351" opacity=".3" transform="matrix(0,-0.34883721,0.66666653,0,-12.666662,24.697674)"><rect id="rect4353" width="3" height="6" x="-5" y="-41.5" fill="url(#radialGradient4359)" fill-opacity="1" stroke="none" transform="scale(-1,-1)"/><rect id="rect4355" width="3" height="6" x="42" y="35.5" fill="url(#radialGradient4361)" fill-opacity="1" stroke="none"/><rect id="rect4357" width="37" height="6" x="5" y="35.5" fill="url(#linearGradient4363)" fill-opacity="1" stroke="none"/></g><g id="g4337" opacity=".3" transform="matrix(0,-0.34883721,0.66666653,0,-1.6666618,24.697674)"><rect id="rect4339" width="3" height="6" x="-5" y="-41.5" fill="url(#radialGradient4345)" fill-opacity="1" stroke="none" transform="scale(-1,-1)"/><rect id="rect4341" width="3" height="6" x="42" y="35.5" fill="url(#radialGradient4347)" fill-opacity="1" stroke="none"/><rect id="rect4343" width="37" height="6" x="5" y="35.5" fill="url(#linearGradient4349)" fill-opacity="1" stroke="none"/></g><path id="path4399" fill="none" stroke="url(#linearGradient4401)" stroke-linecap="square" stroke-linejoin="miter" stroke-opacity="1" stroke-width="1.014" d="m 2.31957,25.500001 42.1663,0" display="inline" opacity=".4"/><g id="g4365" opacity=".3" transform="matrix(0,-0.34883721,0.66666653,0,9.333338,24.697674)"><rect id="rect4367" width="3" height="6" x="-5" y="-41.5" fill="url(#radialGradient4373)" fill-opacity="1" stroke="none" transform="scale(-1,-1)"/><rect id="rect4369" width="3" height="6" x="42" y="35.5" fill="url(#radialGradient4375)" fill-opacity="1" stroke="none"/><rect id="rect4371" width="37" height="6" x="5" y="35.5" fill="url(#linearGradient4377)" fill-opacity="1" stroke="none"/></g><g id="g4425" opacity=".3" transform="matrix(0,-0.34883721,0.66666653,0,9.333338,42.697674)"><rect id="rect4427" width="3" height="6" x="-5" y="-41.5" fill="url(#radialGradient4445)" fill-opacity="1" stroke="none" transform="scale(-1,-1)"/><rect id="rect4429" width="3" height="6" x="42" y="35.5" fill="url(#radialGradient4447)" fill-opacity="1" stroke="none"/><rect id="rect4431" width="37" height="6" x="5" y="35.5" fill="url(#linearGradient4449)" fill-opacity="1" stroke="none"/></g><path id="path3802" fill="none" stroke="url(#linearGradient4559)" stroke-dashoffset="0" stroke-linecap="butt" stroke-linejoin="miter" stroke-miterlimit="4" stroke-opacity="1" stroke-width=".974" d="m 4.6280037,3.558023 -3.14092,4.050977 0,35.974861 45.0259203,-4.3e-4 0,-35.974862 -3.241,-4.050546 z" color="#000" display="inline" enable-background="accumulate" opacity=".3" overflow="visible" visibility="visible" style="marker:none"/></g><g id="g5305"><g id="g4140" transform="translate(10.013311,-4)"><path id="path4142" fill="url(#linearGradient4152)" fill-opacity="1" stroke="url(#linearGradient4702)" stroke-dashoffset="1.4" stroke-linecap="square" stroke-linejoin="round" stroke-miterlimit="7.1" stroke-opacity="1" stroke-width="1" d="m 4.499996,15 0,11 c 0,0.829985 0.66065,1.5 1.481279,1.5 l 5.037445,0 C 11.839349,27.5 12.5,26.829985 12.5,26 l 0,-11 C 12.627635,14.059472 12.022587,13.612406 11,13.5 l -5,0 C 5.18463,13.53914 4.373554,13.943293 4.499996,15 z"/><path id="path4144" fill="none" stroke="url(#linearGradient4154)" stroke-dashoffset="1.4" stroke-linecap="round" stroke-linejoin="miter" stroke-miterlimit="7.1" stroke-opacity="1" stroke-width="1" d="m 11.500007,14.50627 0,11.368735 c 0,0.34625 -0.27875,0.625 -0.625,0.625 l -4.750006,0 c -0.34625,0 -0.625,-0.27875 -0.625,-0.625 l 0,-11.368735 z" opacity=".5"/><rect id="rect4146" width="2.04" height="3.906" x="7.5" y="16.5" fill="#eeeeec" fill-opacity="1" stroke="#fff" stroke-dasharray="none" stroke-dashoffset="1.4" stroke-linecap="round" stroke-linejoin="round" stroke-miterlimit="4" stroke-opacity="1" stroke-width="1" rx="0" ry="0"/><g id="g4148" opacity=".1" transform="matrix(0.952384,0,0,1,-61.84133,-5)"><path id="path4150" fill="none" stroke="#000" stroke-linecap="square" stroke-linejoin="miter" stroke-opacity="1" stroke-width="1.025" d="m 73.333158,23.5 1.049996,0"/><path id="path5130" fill="none" stroke="#000" stroke-linecap="square" stroke-linejoin="miter" stroke-opacity="1" stroke-width="1.025" d="m 73.333158,29.5 1.049996,0"/></g></g><g id="g4156" transform="translate(21.000215,-4)"><path id="path4158" fill="url(#linearGradient4168)" fill-opacity="1" stroke="url(#linearGradient4798)" stroke-dashoffset="1.4" stroke-linecap="square" stroke-linejoin="round" stroke-miterlimit="7.1" stroke-opacity="1" stroke-width="1" d="m 4.499996,15 0,11 c 0,0.829985 0.66065,1.5 1.481279,1.5 l 5.037445,0 C 11.839349,27.5 12.5,26.829985 12.5,26 l 0,-11 C 12.627635,14.059472 12.022587,13.612406 11,13.5 l -5,0 C 5.18463,13.53914 4.373554,13.943293 4.499996,15 z"/><path id="path4160" fill="none" stroke="url(#linearGradient4170)" stroke-dashoffset="1.4" stroke-linecap="round" stroke-linejoin="miter" stroke-miterlimit="7.1" stroke-opacity="1" stroke-width="1" d="m 11.500007,14.50627 0,11.368735 c 0,0.34625 -0.27875,0.625 -0.625,0.625 l -4.750006,0 c -0.34625,0 -0.625,-0.27875 -0.625,-0.625 l 0,-11.368735 z" opacity=".7"/><g id="g4800" transform="translate(-2.0190246,-13.009906)"><path id="path4802" fill="#babdb6" fill-opacity="1" stroke="url(#linearGradient4806-7)" stroke-dasharray="none" stroke-dashoffset="1.4" stroke-linecap="round" stroke-linejoin="round" stroke-miterlimit="4" stroke-opacity="1" stroke-width="1.024" d="m 12.517013,32.487846 a 2.0429943,2.0429943 0 1 1 -4.0859882,0 2.0429943,2.0429943 0 1 1 4.0859882,0 z" transform="matrix(0.969746,0,0,0.983799,0.342857,-0.4615)"/><path id="path4804" fill="url(#linearGradient5080)" fill-opacity="1" stroke="none" d="m 10.490316,31.000005 c -0.743197,0 -1.3467657,0.430567 -1.4903223,1.000001 0.1435566,0.569433 0.7664798,0.999999 1.5096773,0.999999 0.743198,0 1.346766,-0.430566 1.490323,-0.999999 -0.143557,-0.569434 -0.766481,-1.000001 -1.509678,-1.000001 z"/></g></g><g id="g4188" transform="translate(-0.999785,14)"><path id="path4190" fill="url(#linearGradient4236)" fill-opacity="1" stroke="url(#linearGradient5000)" stroke-dashoffset="1.4" stroke-linecap="square" stroke-linejoin="round" stroke-miterlimit="7.1" stroke-opacity="1" stroke-width="1" d="m 4.499996,15 0,11 c 0,0.829985 0.66065,1.5 1.481279,1.5 l 5.037445,0 C 11.839349,27.5 12.5,26.829985 12.5,26 l 0,-11 C 12.627635,14.059472 12.022587,13.612406 11,13.5 l -5,0 C 5.18463,13.53914 4.373554,13.943293 4.499996,15 z"/><path id="path4192" fill="none" stroke="url(#linearGradient4238)" stroke-dashoffset="1.4" stroke-linecap="round" stroke-linejoin="miter" stroke-miterlimit="7.1" stroke-opacity="1" stroke-width="1" d="m 11.500007,14.50627 0,11.368735 c 0,0.34625 -0.27875,0.625 -0.625,0.625 l -4.750006,0 c -0.34625,0 -0.625,-0.27875 -0.625,-0.625 l 0,-11.368735 z" opacity=".7"/><rect id="rect4194" width="2.04" height="3.906" x="7.5" y="16.5" fill="#eeeeec" fill-opacity="1" stroke="#fff" stroke-dasharray="none" stroke-dashoffset="1.4" stroke-linecap="round" stroke-linejoin="round" stroke-miterlimit="4" stroke-opacity="1" stroke-width="1" rx="0" ry="0"/><g id="g4196" opacity=".1" transform="matrix(0.952384,0,0,1,-61.84133,-5)"><path id="path4198" fill="none" stroke="#000" stroke-linecap="square" stroke-linejoin="miter" stroke-opacity="1" stroke-width="1.025" d="m 73.333158,23.5 1.049996,0"/><path id="path5132" fill="none" stroke="#000" stroke-linecap="square" stroke-linejoin="miter" stroke-opacity="1" stroke-width="1.025" d="m 73.333158,29.5 1.049996,0"/></g></g><g id="g4501" transform="matrix(0.79048435,-0.35043999,0.32081171,0.86348881,26.270232,1.7834233)"><path id="path4503" fill="url(#linearGradient4513)" fill-opacity="1" stroke="url(#linearGradient4720)" stroke-dashoffset="1.4" stroke-linecap="square" stroke-linejoin="round" stroke-miterlimit="7.1" stroke-opacity="1" stroke-width="1" d="m 4.499996,15 0,11 c 0,0.829985 0.66065,1.5 1.481279,1.5 l 5.037445,0 C 11.839349,27.5 12.5,26.829985 12.5,26 l 0,-11 C 12.627635,14.059472 12.022587,13.612406 11,13.5 l -5,0 C 5.18463,13.53914 4.373554,13.943293 4.499996,15 z"/><g id="g3362" transform="matrix(1.0861499,0.44080522,-0.40353692,0.99432038,9.8865678,-18.910125)"><path id="path3364" fill="#babdb6" fill-opacity="1" stroke="url(#linearGradient4746)" stroke-dasharray="none" stroke-dashoffset="1.4" stroke-linecap="round" stroke-linejoin="round" stroke-miterlimit="4" stroke-opacity="1" stroke-width="1.024" d="m 12.517013,32.487846 a 2.0429943,2.0429943 0 1 1 -4.0859882,0 2.0429943,2.0429943 0 1 1 4.0859882,0 z" transform="matrix(0.969746,0,0,0.983799,0.342857,-0.4615)"/><path id="path3366" fill="url(#linearGradient4634)" fill-opacity="1" stroke="none" d="m 10.490316,31.000005 c -0.743197,0 -1.3467657,0.430567 -1.4903223,1.000001 0.1435566,0.569433 0.7664798,0.999999 1.5096773,0.999999 0.743198,0 1.346766,-0.430566 1.490323,-0.999999 -0.143557,-0.569434 -0.766481,-1.000001 -1.509678,-1.000001 z"/></g><path id="path4505" fill="none" stroke="url(#linearGradient4515)" stroke-dashoffset="1.4" stroke-linecap="round" stroke-linejoin="miter" stroke-miterlimit="7.1" stroke-opacity="1" stroke-width="1" d="m 11.500007,14.50627 0,11.368735 c 0,0.34625 -0.27875,0.625 -0.625,0.625 l -4.750006,0 c -0.34625,0 -0.625,-0.27875 -0.625,-0.625 l 0,-11.368735 z" opacity=".5"/></g><g id="g4517" transform="translate(-1.0168901,-4.0000001)"><path id="path4519" fill="url(#linearGradient4529)" fill-opacity="1" stroke="#699536" stroke-dashoffset="1.4" stroke-linecap="square" stroke-linejoin="round" stroke-miterlimit="7.1" stroke-opacity="1" stroke-width="1" d="m 4.499996,15 0,11 c 0,0.829985 0.66065,1.5 1.481279,1.5 l 5.037445,0 C 11.839349,27.5 12.5,26.829985 12.5,26 l 0,-11 C 12.627635,14.059472 12.022587,13.612406 11,13.5 l -5,0 C 5.18463,13.53914 4.373554,13.943293 4.499996,15 z"/><path id="path4521" fill="none" stroke="url(#linearGradient4531)" stroke-dashoffset="1.4" stroke-linecap="round" stroke-linejoin="miter" stroke-miterlimit="7.1" stroke-opacity="1" stroke-width="1" d="m 11.500007,14.50627 0,11.368735 c 0,0.34625 -0.27875,0.625 -0.625,0.625 l -4.750006,0 c -0.34625,0 -0.625,-0.27875 -0.625,-0.625 l 0,-11.368735 z" opacity=".7"/><rect id="rect4523" width="2.04" height="3.906" x="7.5" y="16.5" fill="#eeeeec" fill-opacity="1" stroke="#fff" stroke-dasharray="none" stroke-dashoffset="1.4" stroke-linecap="round" stroke-linejoin="round" stroke-miterlimit="4" stroke-opacity="1" stroke-width="1" rx="0" ry="0"/><g id="g4525" opacity=".1" transform="matrix(0.952384,0,0,1,-61.84133,-5)"><path id="path4527" fill="none" stroke="#000" stroke-dasharray="none" stroke-linecap="square" stroke-linejoin="miter" stroke-miterlimit="4" stroke-opacity="1" stroke-width="1.025" d="m 73.333158,23.5 1.049996,0"/><path id="path5134" fill="none" stroke="#000" stroke-dasharray="none" stroke-linecap="square" stroke-linejoin="miter" stroke-miterlimit="4" stroke-opacity="1" stroke-width="1.025" d="m 73.333158,29.5 1.049996,0"/></g></g><g id="g4533" transform="translate(31.98311,14)"><path id="path4535" fill="url(#linearGradient4545)" fill-opacity="1" stroke="url(#linearGradient4738)" stroke-dashoffset="1.4" stroke-linecap="square" stroke-linejoin="round" stroke-miterlimit="7.1" stroke-opacity="1" stroke-width="1" d="m 4.499996,15 0,11 c 0,0.829985 0.66065,1.5 1.481279,1.5 l 5.037445,0 C 11.839349,27.5 12.5,26.829985 12.5,26 l 0,-11 C 12.627635,14.059472 12.022587,13.612406 11,13.5 l -5,0 C 5.18463,13.53914 4.373554,13.943293 4.499996,15 z"/><path id="path4537" fill="none" stroke="url(#linearGradient4547)" stroke-dashoffset="1.4" stroke-linecap="round" stroke-linejoin="miter" stroke-miterlimit="7.1" stroke-opacity="1" stroke-width="1" d="m 11.500007,14.50627 0,11.368735 c 0,0.34625 -0.27875,0.625 -0.625,0.625 l -4.750006,0 c -0.34625,0 -0.625,-0.27875 -0.625,-0.625 l 0,-11.368735 z" opacity=".5"/><rect id="rect4539" width="2.04" height="3.906" x="7.5" y="16.5" fill="#eeeeec" fill-opacity="1" stroke="#fff" stroke-dasharray="none" stroke-dashoffset="1.4" stroke-linecap="round" stroke-linejoin="round" stroke-miterlimit="4" stroke-opacity="1" stroke-width="1" rx="0" ry="0"/><g id="g4541" opacity=".1" transform="matrix(0.952384,0,0,1,-61.84133,-5)"><path id="path4543" fill="none" stroke="#000" stroke-linecap="square" stroke-linejoin="miter" stroke-opacity="1" stroke-width="1.025" d="m 73.333158,23.5 1.049996,0"/><path id="path5136" fill="none" stroke="#000" stroke-linecap="square" stroke-linejoin="miter" stroke-opacity="1" stroke-width="1.025" d="m 73.333158,29.5 1.049996,0"/></g></g><g id="g4810" transform="translate(9.9831099,14)"><path id="path4812" fill="url(#linearGradient4822)" fill-opacity="1" stroke="#699536" stroke-dashoffset="1.4" stroke-linecap="square" stroke-linejoin="round" stroke-miterlimit="7.1" stroke-opacity="1" stroke-width="1" d="m 4.499996,15 0,11 c 0,0.829985 0.66065,1.5 1.481279,1.5 l 5.037445,0 C 11.839349,27.5 12.5,26.829985 12.5,26 l 0,-11 C 12.627635,14.059472 12.022587,13.612406 11,13.5 l -5,0 C 5.18463,13.53914 4.373554,13.943293 4.499996,15 z"/><path id="path4814" fill="none" stroke="url(#linearGradient4824)" stroke-dashoffset="1.4" stroke-linecap="round" stroke-linejoin="miter" stroke-miterlimit="7.1" stroke-opacity="1" stroke-width="1" d="m 11.500007,14.50627 0,11.368735 c 0,0.34625 -0.27875,0.625 -0.625,0.625 l -4.750006,0 c -0.34625,0 -0.625,-0.27875 -0.625,-0.625 l 0,-11.368735 z" opacity=".7"/><g id="g4826" transform="translate(-2.0019195,-13.009906)"><path id="path4828" fill="#babdb6" fill-opacity="1" stroke="#699536" stroke-dasharray="none" stroke-dashoffset="1.4" stroke-linecap="round" stroke-linejoin="round" stroke-miterlimit="4" stroke-opacity="1" stroke-width="1.024" d="m 12.517013,32.487846 a 2.0429943,2.0429943 0 1 1 -4.0859882,0 2.0429943,2.0429943 0 1 1 4.0859882,0 z" transform="matrix(0.969746,0,0,0.983799,0.342857,-0.4615)"/><path id="path4830" fill="url(#linearGradient4971)" fill-opacity="1" stroke="none" d="m 10.490316,31.000005 c -0.743197,0 -1.3467657,0.430567 -1.4903223,1.000001 0.1435566,0.569433 0.7664798,0.999999 1.5096773,0.999999 0.743198,0 1.346766,-0.430566 1.490323,-0.999999 -0.143557,-0.569434 -0.766481,-1.000001 -1.509678,-1.000001 z"/></g><path id="path5140" fill="none" stroke="#000" stroke-linecap="square" stroke-linejoin="miter" stroke-opacity="1" stroke-width="1" d="m 8.1168901,24.5 0.9999994,0" opacity=".1"/></g><g id="g4200" transform="translate(20.98311,14)"><path id="path4202" fill="url(#linearGradient4240-6)" fill-opacity="1" stroke="#888a85" stroke-dashoffset="1.4" stroke-linecap="square" stroke-linejoin="round" stroke-miterlimit="7.1" stroke-opacity="1" stroke-width="1" d="m 4.499996,15 0,11 c 0,0.829985 0.66065,1.5 1.481279,1.5 l 5.037445,0 C 11.839349,27.5 12.5,26.829985 12.5,26 l 0,-11 C 12.627635,14.059472 12.022587,13.612406 11,13.5 l -5,0 C 5.18463,13.53914 4.373554,13.943293 4.499996,15 z"/><path id="path4204" fill="none" stroke="url(#linearGradient4242-5)" stroke-dashoffset="1.4" stroke-linecap="round" stroke-linejoin="miter" stroke-miterlimit="7.1" stroke-opacity="1" stroke-width="1" d="m 11.500007,14.50627 0,11.368735 c 0,0.34625 -0.27875,0.625 -0.625,0.625 l -4.750006,0 c -0.34625,0 -0.625,-0.27875 -0.625,-0.625 l 0,-11.368735 z" opacity=".7"/><rect id="rect4206" width="2.04" height="3.906" x="7.5" y="16.5" fill="#eeeeec" fill-opacity="1" stroke="#fff" stroke-dasharray="none" stroke-dashoffset="1.4" stroke-linecap="round" stroke-linejoin="round" stroke-miterlimit="4" stroke-opacity="1" stroke-width="1" rx="0" ry="0"/><g id="g4208" opacity=".1" transform="matrix(0.952384,0,0,1,-61.84133,-5)"><path id="path4210" fill="none" stroke="#000" stroke-linecap="square" stroke-linejoin="miter" stroke-opacity="1" stroke-width="1.025" d="m 73.333158,23.5 1.049996,0"/><path id="path5138" fill="none" stroke="#000" stroke-linecap="square" stroke-linejoin="miter" stroke-opacity="1" stroke-width="1.025" d="m 73.333158,29.5 1.049996,0"/></g></g><path id="path5140-5" fill="none" stroke="#000" stroke-linecap="square" stroke-linejoin="miter" stroke-opacity="1" stroke-width="1" d="m 29.013307,20.5 0.999999,0" opacity=".1"/></g></svg>