<svg xmlns="http://www.w3.org/2000/svg" xmlns:svg="http://www.w3.org/2000/svg" xmlns:xlink="http://www.w3.org/1999/xlink" id="svg3193" width="48" height="48" version="1.1"><defs id="defs3195"><linearGradient id="linearGradient2974" x1="19.03" x2="19.03" y1="45" y2="38" gradientTransform="matrix(0,-1,-1,0,53.999999,45.999996)" gradientUnits="userSpaceOnUse" spreadMethod="pad" xlink:href="#linearGradient3204-2"/><linearGradient id="linearGradient3204-2"><stop id="stop3206-9" offset="0" stop-color="#fff" stop-opacity="1"/><stop id="stop3208-3" offset="1" stop-color="#fff" stop-opacity="0"/></linearGradient><linearGradient id="linearGradient2977" x1="18" x2="18.03" y1="26" y2="19" gradientTransform="matrix(0,-1,-1,0,35,43.999996)" gradientUnits="userSpaceOnUse" spreadMethod="pad" xlink:href="#linearGradient3194-0"/><linearGradient id="linearGradient3194-0"><stop id="stop3196-8" offset="0" stop-color="gray" stop-opacity="1"/><stop id="stop3198-8" offset="1" stop-color="#000" stop-opacity="0"/></linearGradient><linearGradient id="linearGradient2980" x1="19.03" x2="19.03" y1="45" y2="38" gradientTransform="matrix(0,-1,-1,0,53.999999,40.030315)" gradientUnits="userSpaceOnUse" spreadMethod="pad" xlink:href="#linearGradient3204"/><linearGradient id="linearGradient3204"><stop id="stop3206" offset="0" stop-color="#fff" stop-opacity="1"/><stop id="stop3208" offset="1" stop-color="#fff" stop-opacity="0"/></linearGradient><linearGradient id="linearGradient2983" x1="19.03" x2="19.03" y1="45" y2="40" gradientTransform="matrix(0,-1,-1,0,53.999999,58.030315)" gradientUnits="userSpaceOnUse" spreadMethod="pad" xlink:href="#linearGradient3204"/><linearGradient id="linearGradient2992" x1="18" x2="18.03" y1="26" y2="21" gradientTransform="matrix(0,-1,-1,0,35,56.030315)" gradientUnits="userSpaceOnUse" spreadMethod="pad" xlink:href="#linearGradient3188"/><linearGradient id="linearGradient3188"><stop id="stop3190" offset="0" stop-color="#8a8a8a" stop-opacity="1"/><stop id="stop3192" offset="1" stop-color="#000" stop-opacity="0"/></linearGradient><linearGradient id="linearGradient2996" x1="-22.607" x2="-22.57" y1="14.214" y2="18.246" gradientTransform="matrix(1.0224066,0,0,0.99211017,48.494526,21.89821)" gradientUnits="userSpaceOnUse" xlink:href="#linearGradient3993-315-9"/><linearGradient id="linearGradient3993-315-9"><stop id="stop5200-1" offset="0" stop-color="#b5d5e7" stop-opacity="1"/><stop id="stop5202-9" offset="1" stop-color="#498bb3" stop-opacity="1"/></linearGradient><linearGradient id="linearGradient2998" x1="-14.177" x2="-14.177" y1="18.246" y2="14.214" gradientTransform="matrix(1.0224066,0,0,0.99211017,48.494526,21.89821)" gradientUnits="userSpaceOnUse" xlink:href="#linearGradient2490-640-9"/><linearGradient id="linearGradient2490-640-9"><stop id="stop5206-3" offset="0" stop-color="#335264" stop-opacity="1"/><stop id="stop5208-3" offset="1" stop-color="#7a96a7" stop-opacity="1"/></linearGradient><linearGradient id="linearGradient3004" x1="-22.607" x2="-22.57" y1="14.214" y2="18.246" gradientTransform="matrix(1.0224066,0,0,0.99211017,48.494526,21.898209)" gradientUnits="userSpaceOnUse" xlink:href="#linearGradient2264-2-33"/><linearGradient id="linearGradient2264-2-33"><stop id="stop2266-4-4" offset="0" stop-color="#d7e866" stop-opacity="1"/><stop id="stop2268-7-6" offset="1" stop-color="#8cab2a" stop-opacity="1"/></linearGradient><linearGradient id="linearGradient3006" x1="8.718" x2="17.436" y1="78.46" y2="78.46" gradientTransform="scale(2.17945,0.45883136)" gradientUnits="userSpaceOnUse" xlink:href="#linearGradient3003"/><linearGradient id="linearGradient3003" x1="8.718" x2="17.436" y1="78.46" y2="78.46" gradientTransform="scale(2.17945,0.45883136)" gradientUnits="userSpaceOnUse"><stop id="stop3005" offset="0" stop-color="#fff" stop-opacity="1"/><stop id="stop3007" offset="1" stop-color="#fff" stop-opacity="0"/></linearGradient><linearGradient id="linearGradient3010" x1="-22.607" x2="-22.57" y1="14.214" y2="18.246" gradientTransform="matrix(1.0224066,0,0,0.99211017,48.494526,15.89821)" gradientUnits="userSpaceOnUse" xlink:href="#linearGradient3993-315"/><linearGradient id="linearGradient3993-315"><stop id="stop5200" offset="0" stop-color="#b5d5e7" stop-opacity="1"/><stop id="stop5202" offset="1" stop-color="#498bb3" stop-opacity="1"/></linearGradient><linearGradient id="linearGradient3012" x1="-14.177" x2="-14.177" y1="18.246" y2="14.214" gradientTransform="matrix(1.0224066,0,0,0.99211017,48.494526,15.89821)" gradientUnits="userSpaceOnUse" xlink:href="#linearGradient2490-640"/><linearGradient id="linearGradient2490-640"><stop id="stop5206" offset="0" stop-color="#335264" stop-opacity="1"/><stop id="stop5208" offset="1" stop-color="#7a96a7" stop-opacity="1"/></linearGradient><linearGradient id="linearGradient3017" x1="-22.607" x2="-22.57" y1="14.214" y2="18.246" gradientTransform="matrix(1.0224066,0,0,0.99211017,48.494526,15.89821)" gradientUnits="userSpaceOnUse" xlink:href="#linearGradient2264-2-33"/><linearGradient id="linearGradient3056" x1="8.718" x2="17.436" y1="26.153" y2="26.153" gradientTransform="scale(2.17945,0.45883136)" gradientUnits="userSpaceOnUse"><stop id="stop3058" offset="0" stop-color="#d7e866" stop-opacity="1"/><stop id="stop3060" offset="1" stop-color="#8cab2a" stop-opacity="1"/></linearGradient><linearGradient id="linearGradient3019" x1="-14.177" x2="-14.177" y1="18.246" y2="14.214" gradientTransform="matrix(1.0224066,0,0,0.99211017,48.494526,15.89821)" gradientUnits="userSpaceOnUse" xlink:href="#linearGradient3926-5-5"/><linearGradient id="linearGradient3926-5-5"><stop id="stop3928-4-6" offset="0" stop-color="#5d8430" stop-opacity="1"/><stop id="stop3930-8-1" offset="1" stop-color="#6d9a38" stop-opacity="1"/></linearGradient><linearGradient id="linearGradient3023" x1="-22.607" x2="-22.57" y1="14.214" y2="18.246" gradientTransform="matrix(1.0224066,0,0,0.99211017,50.494526,9.898211)" gradientUnits="userSpaceOnUse" xlink:href="#linearGradient4168"/><linearGradient id="linearGradient4168"><stop id="stop4170" offset="0" stop-color="#f8cd70" stop-opacity="1"/><stop id="stop4172" offset="1" stop-color="#d99a11" stop-opacity="1"/></linearGradient><linearGradient id="linearGradient3025" x1="-14.177" x2="-14.177" y1="18.246" y2="14.214" gradientTransform="matrix(1.0224066,0,0,0.99211017,50.494526,9.898211)" gradientUnits="userSpaceOnUse" xlink:href="#linearGradient4093"/><linearGradient id="linearGradient4093"><stop id="stop4095-1" offset="0" stop-color="#bb5e12" stop-opacity="1"/><stop id="stop4097" offset="1" stop-color="#cd8033" stop-opacity="1"/></linearGradient><linearGradient id="linearGradient3030" x1="-22.607" x2="-22.57" y1="14.214" y2="18.246" gradientTransform="matrix(1.0224066,0,0,0.99211017,50.494526,9.898211)" gradientUnits="userSpaceOnUse" xlink:href="#linearGradient2264-2-6"/><linearGradient id="linearGradient2264-2-6"><stop id="stop2266-4-0" offset="0" stop-color="#d7e866" stop-opacity="1"/><stop id="stop2268-7-33" offset="1" stop-color="#8cab2a" stop-opacity="1"/></linearGradient><linearGradient id="linearGradient3032" x1="-14.177" x2="-14.177" y1="18.246" y2="14.214" gradientTransform="matrix(1.0224066,0,0,0.99211017,50.494526,9.898211)" gradientUnits="userSpaceOnUse" xlink:href="#linearGradient3926-5-18"/><linearGradient id="linearGradient3926-5-18"><stop id="stop3928-4-7" offset="0" stop-color="#5d8430" stop-opacity="1"/><stop id="stop3930-8-0" offset="1" stop-color="#6d9a38" stop-opacity="1"/></linearGradient><linearGradient id="linearGradient3036" x1="-22.607" x2="-22.57" y1="14.214" y2="18.246" gradientTransform="matrix(1.0224066,0,0,0.99211017,50.494526,3.8982107)" gradientUnits="userSpaceOnUse" xlink:href="#linearGradient2264-2-3-9-6"/><linearGradient id="linearGradient2264-2-3-9-6"><stop id="stop2266-4-8-7-4" offset="0" stop-color="#d7e866" stop-opacity="1"/><stop id="stop2268-7-3-4-0" offset="1" stop-color="#8cab2a" stop-opacity="1"/></linearGradient><linearGradient id="linearGradient3038" x1="-14.177" x2="-14.177" y1="18.246" y2="14.214" gradientTransform="matrix(1.0224066,0,0,0.99211017,50.494526,3.8982107)" gradientUnits="userSpaceOnUse" xlink:href="#linearGradient3926-5-9-1-5"/><linearGradient id="linearGradient3926-5-9-1-5"><stop id="stop3928-4-3-7-4" offset="0" stop-color="#5d8430" stop-opacity="1"/><stop id="stop3930-8-7-0-6" offset="1" stop-color="#6d9a38" stop-opacity="1"/></linearGradient><linearGradient id="linearGradient3043" x1="-22.607" x2="-22.57" y1="14.214" y2="18.246" gradientTransform="matrix(1.0224066,0,0,0.99211017,50.494526,3.8982107)" gradientUnits="userSpaceOnUse" xlink:href="#linearGradient2264-2-39"/><linearGradient id="linearGradient2264-2-39"><stop id="stop2266-4-9" offset="0" stop-color="#d7e866" stop-opacity="1"/><stop id="stop2268-7-5" offset="1" stop-color="#8cab2a" stop-opacity="1"/></linearGradient><linearGradient id="linearGradient3045" x1="-14.177" x2="-14.177" y1="18.246" y2="14.214" gradientTransform="matrix(1.0224066,0,0,0.99211017,50.494526,3.8982107)" gradientUnits="userSpaceOnUse" xlink:href="#linearGradient3926-5-1"/><linearGradient id="linearGradient3926-5-1"><stop id="stop3928-4-30" offset="0" stop-color="#5d8430" stop-opacity="1"/><stop id="stop3930-8-9" offset="1" stop-color="#6d9a38" stop-opacity="1"/></linearGradient><linearGradient id="linearGradient3049" x1="-22.607" x2="-22.57" y1="14.214" y2="18.246" gradientTransform="matrix(1.0224066,0,0,0.99211017,48.494526,-2.10179)" gradientUnits="userSpaceOnUse" xlink:href="#linearGradient3993-315-5"/><linearGradient id="linearGradient3993-315-5"><stop id="stop5200-0" offset="0" stop-color="#b5d5e7" stop-opacity="1"/><stop id="stop5202-6" offset="1" stop-color="#498bb3" stop-opacity="1"/></linearGradient><linearGradient id="linearGradient3051" x1="-14.177" x2="-14.177" y1="18.246" y2="14.214" gradientTransform="matrix(1.0224066,0,0,0.99211017,48.494526,-2.10179)" gradientUnits="userSpaceOnUse" xlink:href="#linearGradient2490-640-6"/><linearGradient id="linearGradient2490-640-6"><stop id="stop5206-2" offset="0" stop-color="#335264" stop-opacity="1"/><stop id="stop5208-5" offset="1" stop-color="#7a96a7" stop-opacity="1"/></linearGradient><linearGradient id="linearGradient3059" x1="-14.177" x2="-14.177" y1="18.246" y2="14.214" gradientTransform="matrix(1.0224066,0,0,0.99211017,48.494526,-2.10179)" gradientUnits="userSpaceOnUse" xlink:href="#linearGradient3926-5"/><linearGradient id="linearGradient3926-5"><stop id="stop3928-4" offset="0" stop-color="#5d8430" stop-opacity="1"/><stop id="stop3930-8" offset="1" stop-color="#6d9a38" stop-opacity="1"/></linearGradient><linearGradient id="linearGradient3062" x1="18" x2="18" y1="26" y2="7" gradientTransform="translate(-10.000001,5.0344879e-7)" gradientUnits="userSpaceOnUse" spreadMethod="reflect" xlink:href="#linearGradient3204"/><linearGradient id="linearGradient3065" x1="15.897" x2="15.897" y1="7" y2="45.035" gradientUnits="userSpaceOnUse" xlink:href="#linearGradient3220-8"/><linearGradient id="linearGradient3220-8"><stop id="stop3222-8" offset="0" stop-color="#999" stop-opacity="1"/><stop id="stop3224-9" offset="1" stop-color="gray" stop-opacity="1"/></linearGradient><linearGradient id="linearGradient3068" x1="21.366" x2="21.366" y1="8" y2="44.263" gradientUnits="userSpaceOnUse" xlink:href="#linearGradient3204"/><linearGradient id="linearGradient3071" x1="41.451" x2="41.451" y1="41.638" y2="6.55" gradientTransform="matrix(1.0065024,0,0,1.0158295,-0.15606249,1.6200967)" gradientUnits="userSpaceOnUse" xlink:href="#linearGradient3299"/><linearGradient id="linearGradient3299"><stop id="stop3301" offset="0" stop-color="#d2d2d2" stop-opacity="1"/><stop id="stop3303" offset="1" stop-color="#f4f4f4" stop-opacity="1"/></linearGradient><linearGradient id="linearGradient3073" x1="15.897" x2="15.897" y1="7" y2="45.035" gradientUnits="userSpaceOnUse" xlink:href="#linearGradient3220"/><linearGradient id="linearGradient3220"><stop id="stop3222" offset="0" stop-color="#999" stop-opacity="1"/><stop id="stop3224" offset="1" stop-color="gray" stop-opacity="1"/></linearGradient><linearGradient id="linearGradient17418" x1="302.857" x2="302.857" y1="366.648" y2="609.505" gradientTransform="matrix(2.774389,0,0,1.969706,-1892.179,-872.8854)" gradientUnits="userSpaceOnUse" xlink:href="#linearGradient5048"/><linearGradient id="linearGradient5048"><stop id="stop5050" offset="0" stop-color="#000" stop-opacity="0"/><stop id="stop5056" offset=".5" stop-color="#000" stop-opacity="1"/><stop id="stop5052" offset="1" stop-color="#000" stop-opacity="0"/></linearGradient><radialGradient id="radialGradient17420" cx="605.714" cy="486.648" r="117.143" fx="605.714" fy="486.648" gradientTransform="matrix(2.774389,0,0,1.969706,-1891.633,-872.8854)" gradientUnits="userSpaceOnUse" xlink:href="#linearGradient5060"/><linearGradient id="linearGradient5060"><stop id="stop5062" offset="0" stop-color="#000" stop-opacity="1"/><stop id="stop5064" offset="1" stop-color="#000" stop-opacity="0"/></linearGradient><radialGradient id="radialGradient3191" cx="605.714" cy="486.648" r="117.143" fx="605.714" fy="486.648" gradientTransform="matrix(-2.774389,0,0,1.969706,112.7623,-872.8854)" gradientUnits="userSpaceOnUse" xlink:href="#linearGradient5060"/></defs><g id="layer1"><g id="g5022" stroke-dasharray="none" stroke-miterlimit="6.4" stroke-width="44.186" transform="matrix(0.02454499,0,0,0.02086758,45.831187,40.162522)"><rect id="rect4173" width="1339.633" height="478.357" x="-1559.252" y="-150.697" fill="url(#linearGradient17418)" fill-opacity="1" fill-rule="nonzero" stroke="none" stroke-width="44.186" display="inline" opacity=".402" overflow="visible" visibility="visible" style="marker:none"/><path id="path5058" fill="url(#radialGradient17420)" fill-opacity="1" fill-rule="nonzero" stroke="none" stroke-width="44.186" d="m -219.61876,-150.68038 c 0,0 0,478.33079 0,478.33079 142.874166,0.90045 345.40022,-107.16966 345.40014,-239.196175 0,-132.026537 -159.436816,-239.134595 -345.40014,-239.134615 z" display="inline" opacity=".402" overflow="visible" visibility="visible" style="marker:none"/><path id="path5018" fill="url(#radialGradient3191)" fill-opacity="1" fill-rule="nonzero" stroke="none" stroke-width="44.186" d="m -1559.2523,-150.68038 c 0,0 0,478.33079 0,478.33079 -142.8742,0.90045 -345.4002,-107.16966 -345.4002,-239.196175 0,-132.026537 159.4368,-239.134595 345.4002,-239.134615 z" display="inline" opacity=".402" overflow="visible" visibility="visible" style="marker:none"/></g><rect id="rect11518" width="44.989" height="36.989" x="1.506" y="7.506" fill="url(#linearGradient3071)" fill-opacity="1" fill-rule="evenodd" stroke="url(#linearGradient3073)" stroke-dasharray="none" stroke-dashoffset="0" stroke-linecap="butt" stroke-linejoin="bevel" stroke-miterlimit="6.4" stroke-opacity="1" stroke-width="1.011" display="inline" overflow="visible" rx=".864" ry=".872" visibility="visible" style="marker:none"/><path id="path3259" fill="#000" fill-opacity="1" stroke="none" d="m 19.444654,37.000533 c -0.241673,0.02075 -0.447826,0.257949 -0.444616,0.511557 l 0,2.976331 c -0.0026,0.26857 0.232309,0.514225 0.489078,0.511557 l 18.021785,0 c 0.256768,0.0026 0.491628,-0.242988 0.489078,-0.511557 l 0,-2.976331 c 0.0026,-0.268569 -0.23231,-0.514224 -0.489078,-0.511557 l -18.021785,0 c -0.01481,-7.12e-4 -0.02965,-7.12e-4 -0.04446,0 z m -4.979507,0 c -0.252811,0.02075 -0.468465,0.257949 -0.465108,0.511557 l 0,2.976331 c -0.0027,0.268569 0.243016,0.514224 0.511619,0.511557 l 2.9767,0 c 0.268604,0.0026 0.514288,-0.242987 0.511621,-0.511557 l 0,-2.976331 c 0.0027,-0.268571 -0.243017,-0.514225 -0.511621,-0.511557 l -2.9767,0 c -0.01549,-7.12e-4 -0.03101,-7.12e-4 -0.04651,0 z m 4.979507,-6 c -0.241673,0.02075 -0.447826,0.257949 -0.444616,0.511557 l 0,2.976331 c -0.0026,0.26857 0.232309,0.514225 0.489078,0.511557 l 18.021785,0 c 0.256768,0.0026 0.491628,-0.242988 0.489078,-0.511557 l 0,-2.976331 c 0.0026,-0.268569 -0.23231,-0.514224 -0.489078,-0.511557 l -18.021785,0 c -0.01481,-7.12e-4 -0.02965,-7.12e-4 -0.04446,0 z m -4.979507,0 c -0.252811,0.02075 -0.468465,0.257949 -0.465108,0.511557 l 0,2.976331 c -0.0027,0.268569 0.243016,0.514224 0.511619,0.511557 l 2.9767,0 c 0.268604,0.0026 0.514288,-0.242987 0.511621,-0.511557 l 0,-2.976331 c 0.0027,-0.268571 -0.243017,-0.514225 -0.511621,-0.511557 l -2.9767,0 c -0.01549,-7.12e-4 -0.03101,-7.12e-4 -0.04651,0 z m 6.979507,-6 c -0.241673,0.02075 -0.447826,0.257949 -0.444616,0.511557 l 0,2.976331 c -0.0026,0.26857 0.232309,0.514225 0.489078,0.511557 l 18.021785,0 c 0.256768,0.0026 0.491628,-0.242988 0.489078,-0.511557 l 0,-2.976331 c 0.0026,-0.268569 -0.23231,-0.514224 -0.489078,-0.511557 l -18.021785,0 c -0.01481,-7.12e-4 -0.02965,-7.12e-4 -0.04446,0 z m -4.979507,0 c -0.252811,0.02075 -0.468465,0.257949 -0.465108,0.511557 l 0,2.976331 c -0.0027,0.268569 0.243016,0.514224 0.511619,0.511557 l 2.9767,0 c 0.268604,0.0026 0.514288,-0.242987 0.511621,-0.511557 l 0,-2.976331 c 0.0027,-0.268571 -0.243017,-0.514225 -0.511621,-0.511557 l -2.9767,0 c -0.01549,-7.12e-4 -0.03101,-7.12e-4 -0.04651,0 z m 4.979507,-6 c -0.241673,0.02075 -0.447826,0.257949 -0.444616,0.511557 l 0,2.976331 c -0.0026,0.26857 0.232309,0.514225 0.489078,0.511557 l 18.021785,0 c 0.256768,0.0026 0.491628,-0.242988 0.489078,-0.511557 l 0,-2.976331 c 0.0026,-0.268569 -0.23231,-0.514224 -0.489078,-0.511557 l -18.021785,0 c -0.01481,-7.12e-4 -0.02965,-7.12e-4 -0.04446,0 z m -4.979507,0 c -0.252811,0.02075 -0.468465,0.257949 -0.465108,0.511557 l 0,2.976331 c -0.0027,0.268569 0.243016,0.514224 0.511619,0.511557 l 2.9767,0 c 0.268604,0.0026 0.514288,-0.242987 0.511621,-0.511557 l 0,-2.976331 c 0.0027,-0.268571 -0.243017,-0.514225 -0.511621,-0.511557 l -2.9767,0 c -0.01549,-7.12e-4 -0.03101,-7.12e-4 -0.04651,0 z m 2.979507,-5.999999 c -0.241673,0.02075 -0.447826,0.257949 -0.444616,0.511557 l 0,2.976331 c -0.0026,0.26857 0.232309,0.514224 0.489078,0.511556 l 18.021785,0 c 0.256768,0.0026 0.491628,-0.242987 0.489078,-0.511556 l 0,-2.976331 c 0.0026,-0.268569 -0.23231,-0.514224 -0.489078,-0.511557 l -18.021785,0 c -0.01481,-7.12e-4 -0.02965,-7.12e-4 -0.04446,0 z m -4.979507,0 c -0.252811,0.02075 -0.468465,0.257949 -0.465108,0.511557 l 0,2.976331 c -0.0027,0.268569 0.243016,0.514223 0.511619,0.511556 l 2.9767,0 c 0.268604,0.0026 0.514288,-0.242986 0.511621,-0.511556 l 0,-2.976331 c 0.0027,-0.268571 -0.243017,-0.514225 -0.511621,-0.511557 l -2.9767,0 c -0.01549,-7.12e-4 -0.03101,-7.12e-4 -0.04651,0 z" display="inline" opacity=".15"/><rect id="rect11528" width="42.963" height="34.963" x="2.518" y="8.518" fill="none" stroke="url(#linearGradient3068)" stroke-dasharray="none" stroke-dashoffset="0" stroke-linecap="butt" stroke-linejoin="miter" stroke-miterlimit="6.4" stroke-opacity="1" stroke-width="1.037" display="inline" opacity=".6" overflow="visible" rx="0" ry="0" visibility="visible" style="marker:none"/><path id="path3398" fill="none" stroke="url(#linearGradient3065)" stroke-dasharray="none" stroke-dashoffset="0" stroke-linecap="butt" stroke-linejoin="bevel" stroke-miterlimit="6.4" stroke-opacity="1" stroke-width="1.011" d="M 8.5299364,7.5003767 8.5003754,44.499623" color="#000" display="inline" enable-background="accumulate" opacity=".6" overflow="visible" visibility="visible" style="marker:none"/><path id="path3202" fill="none" stroke="url(#linearGradient3062)" stroke-dasharray="none" stroke-linecap="butt" stroke-linejoin="round" stroke-miterlimit="6.4" stroke-opacity="1" stroke-width="1.001" d="M 9.529937,7.5003767 9.500376,44.499623" opacity=".8"/><path id="path4098" fill="url(#linearGradient3056)" fill-opacity="1" fill-rule="nonzero" stroke="url(#linearGradient3059)" stroke-dasharray="none" stroke-dashoffset="0" stroke-linecap="square" stroke-linejoin="miter" stroke-miterlimit="4" stroke-opacity="1" stroke-width="1" d="m 19.921252,12.500402 c -0.228953,0.01557 -0.424256,0.193461 -0.421216,0.383667 l 0,2.232247 c -0.0025,0.201428 0.220083,0.385669 0.463338,0.383668 l 17.073272,0 c 0.243254,0.002 0.465752,-0.182241 0.463336,-0.383668 l 0,-2.232247 c 0.0025,-0.201427 -0.220082,-0.385668 -0.463336,-0.383667 l -17.073272,0 c -0.01403,-5.34e-4 -0.02809,-5.34e-4 -0.04212,0 z" color="#000" display="inline" enable-background="accumulate" overflow="visible" visibility="visible" style="marker:none"/><path id="path4373" fill="none" stroke="#fff" stroke-linecap="butt" stroke-linejoin="miter" stroke-opacity="1" stroke-width="1" d="m 20.000001,13.500001 17,0" opacity=".4"/><path id="rect4432-8-8" fill="url(#linearGradient3049)" fill-opacity="1" fill-rule="nonzero" stroke="url(#linearGradient3051)" stroke-dashoffset="0" stroke-linecap="square" stroke-linejoin="miter" stroke-miterlimit="4" stroke-opacity="1" stroke-width="1" d="m 15.000001,12.5 2,0 c 0.277,0 0.5,0.222999 0.5,0.5 l 0,2 c 0,0.277 -0.223,0.5 -0.5,0.5 l -2,0 c -0.277,0 -0.5,-0.223 -0.5,-0.5 l 0,-2 c 0,-0.277001 0.223,-0.5 0.5,-0.5 z m 4.921251,4e-4 c -0.228953,0.01557 -0.424256,0.193461 -0.421216,0.383667 l 0,2.232249 c -0.0025,0.201428 0.220083,0.385669 0.463338,0.383668 l 17.073272,0 c 0.243254,0.002 0.465752,-0.182241 0.463336,-0.383668 l 0,-2.232249 C 37.502482,12.68264 37.2799,12.498399 37.036646,12.5004 l -17.073272,0 c -0.01403,-5.33e-4 -0.02809,-5.33e-4 -0.04212,0 z" color="#000" display="inline" enable-background="accumulate" overflow="visible" visibility="visible" style="marker:none"/><path id="path4373-7-4" fill="none" stroke="#fff" stroke-linecap="butt" stroke-linejoin="miter" stroke-opacity="1" stroke-width="1" d="m 15.000001,13.500002 1.999516,0 m 3.000484,0 17,0" opacity=".4"/><path id="path4098-9" fill="url(#linearGradient3043)" fill-opacity="1" fill-rule="nonzero" stroke="url(#linearGradient3045)" stroke-dasharray="none" stroke-dashoffset="0" stroke-linecap="square" stroke-linejoin="miter" stroke-miterlimit="4" stroke-opacity="1" stroke-width="1" d="m 21.921252,18.5004 c -0.228953,0.01557 -0.424256,0.193461 -0.421216,0.383667 l 0,2.232248 c -0.0025,0.201428 0.220083,0.385669 0.463338,0.383668 l 17.073272,0 c 0.243254,0.002 0.465752,-0.182241 0.463336,-0.383668 l 0,-2.232248 C 39.502482,18.68264 39.2799,18.498399 39.036646,18.5004 l -17.073272,0 c -0.01403,-5.34e-4 -0.02809,-5.34e-4 -0.04212,0 z" color="#000" display="inline" enable-background="accumulate" overflow="visible" visibility="visible" style="marker:none"/><path id="path4373-3" fill="none" stroke="#fff" stroke-linecap="butt" stroke-linejoin="miter" stroke-opacity="1" stroke-width="1" d="m 22.000001,19.499999 17,0" opacity=".4"/><path id="rect4432-4" fill="url(#linearGradient3036)" fill-opacity="1" fill-rule="nonzero" stroke="url(#linearGradient3038)" stroke-dashoffset="0" stroke-linecap="square" stroke-linejoin="miter" stroke-miterlimit="4" stroke-opacity="1" stroke-width="1" d="m 17.000001,18.499999 2,0 c 0.277,0 0.5,0.223 0.5,0.5 l 0,2 c 0,0.277 -0.223,0.5 -0.5,0.5 l -2,0 c -0.277,0 -0.5,-0.223 -0.5,-0.5 l 0,-2 c 0,-0.277 0.223,-0.5 0.5,-0.5 z m 4.921251,4.01e-4 c -0.228953,0.01557 -0.424256,0.193461 -0.421216,0.383667 l 0,2.232249 c -0.0025,0.201428 0.220083,0.385669 0.463338,0.383668 l 17.073272,0 c 0.243254,0.002 0.465752,-0.182241 0.463336,-0.383668 l 0,-2.232249 C 39.502482,18.68264 39.2799,18.498399 39.036646,18.5004 l -17.073272,0 c -0.01403,-5.34e-4 -0.02809,-5.34e-4 -0.04212,0 z" color="#000" display="inline" enable-background="accumulate" overflow="visible" visibility="visible" style="marker:none"/><path id="path4373-7-4-5" fill="none" stroke="#fff" stroke-linecap="butt" stroke-linejoin="miter" stroke-opacity="1" stroke-width="1" d="m 17.000001,19.5 1.999516,0 m 3.000484,0 17,0" opacity=".4"/><path id="path4098-1" fill="url(#linearGradient3030)" fill-opacity="1" fill-rule="nonzero" stroke="url(#linearGradient3032)" stroke-dasharray="none" stroke-dashoffset="0" stroke-linecap="square" stroke-linejoin="miter" stroke-miterlimit="4" stroke-opacity="1" stroke-width="1" d="m 21.921252,24.5004 c -0.228953,0.01557 -0.424256,0.193461 -0.421216,0.383667 l 0,2.232248 c -0.0025,0.201428 0.220083,0.385669 0.463338,0.383668 l 17.073272,0 c 0.243254,0.002 0.465752,-0.182241 0.463336,-0.383668 l 0,-2.232248 C 39.502482,24.68264 39.2799,24.498399 39.036646,24.5004 l -17.073272,0 c -0.01403,-5.34e-4 -0.02809,-5.34e-4 -0.04212,0 z" color="#000" display="inline" enable-background="accumulate" overflow="visible" visibility="visible" style="marker:none"/><path id="path4373-30" fill="none" stroke="#fff" stroke-linecap="butt" stroke-linejoin="miter" stroke-opacity="1" stroke-width="1" d="m 22.000001,25.499999 17,0" opacity=".4"/><path id="rect4432-0" fill="url(#linearGradient3023)" fill-opacity="1" fill-rule="nonzero" stroke="url(#linearGradient3025)" stroke-dashoffset="0" stroke-linecap="square" stroke-linejoin="miter" stroke-miterlimit="4" stroke-opacity="1" stroke-width="1" d="m 17.000001,24.499999 2,0 c 0.277,0 0.5,0.223 0.5,0.5 l 0,2 c 0,0.277 -0.223,0.5 -0.5,0.5 l -2,0 c -0.277,0 -0.5,-0.223 -0.5,-0.5 l 0,-2 c 0,-0.277 0.223,-0.5 0.5,-0.5 z m 4.921251,4.01e-4 c -0.228953,0.01557 -0.424256,0.193461 -0.421216,0.383667 l 0,2.232249 c -0.0025,0.201428 0.220083,0.385669 0.463338,0.383668 l 17.073272,0 c 0.243254,0.002 0.465752,-0.182241 0.463336,-0.383668 l 0,-2.232249 C 39.502482,24.68264 39.2799,24.498399 39.036646,24.5004 l -17.073272,0 c -0.01403,-5.34e-4 -0.02809,-5.34e-4 -0.04212,0 z" color="#000" display="inline" enable-background="accumulate" overflow="visible" visibility="visible" style="marker:none"/><path id="path4373-7-4-4" fill="none" stroke="#fff" stroke-linecap="butt" stroke-linejoin="miter" stroke-opacity="1" stroke-width="1" d="m 17.000001,25.5 1.999516,0 m 3.000484,0 17,0" opacity=".4"/><path id="path4098-2" fill="url(#linearGradient3017)" fill-opacity="1" fill-rule="nonzero" stroke="url(#linearGradient3019)" stroke-dasharray="none" stroke-dashoffset="0" stroke-linecap="square" stroke-linejoin="miter" stroke-miterlimit="4" stroke-opacity="1" stroke-width="1" d="m 19.921252,30.5004 c -0.228953,0.01557 -0.424256,0.193461 -0.421216,0.383667 l 0,2.232248 c -0.0025,0.201428 0.220083,0.385669 0.463338,0.383668 l 17.073272,0 c 0.243254,0.002 0.465752,-0.18224 0.463336,-0.383668 l 0,-2.232248 C 37.502482,30.682641 37.2799,30.4984 37.036646,30.500401 l -17.073272,0 c -0.01403,-5.34e-4 -0.02809,-5.34e-4 -0.04212,0 z" color="#000" display="inline" enable-background="accumulate" overflow="visible" visibility="visible" style="marker:none"/><path id="path4373-2" fill="none" stroke="#fff" stroke-linecap="butt" stroke-linejoin="miter" stroke-opacity="1" stroke-width="1" d="m 20.000001,31.5 17,0" opacity=".4"/><path id="rect4432-8" fill="url(#linearGradient3010)" fill-opacity="1" fill-rule="nonzero" stroke="url(#linearGradient3012)" stroke-dashoffset="0" stroke-linecap="square" stroke-linejoin="miter" stroke-miterlimit="4" stroke-opacity="1" stroke-width="1" d="m 15.000001,30.5 2,0 c 0.277,0 0.5,0.222999 0.5,0.5 l 0,2 c 0,0.277 -0.223,0.5 -0.5,0.5 l -2,0 c -0.277,0 -0.5,-0.223 -0.5,-0.5 l 0,-2 c 0,-0.277001 0.223,-0.5 0.5,-0.5 z m 4.921251,4e-4 c -0.228953,0.01557 -0.424256,0.193461 -0.421216,0.383667 l 0,2.232249 c -0.0025,0.201428 0.220083,0.385669 0.463338,0.383668 l 17.073272,0 c 0.243254,0.002 0.465752,-0.182241 0.463336,-0.383668 l 0,-2.232249 C 37.502482,30.68264 37.2799,30.498399 37.036646,30.5004 l -17.073272,0 c -0.01403,-5.33e-4 -0.02809,-5.33e-4 -0.04212,0 z" color="#000" display="inline" enable-background="accumulate" overflow="visible" visibility="visible" style="marker:none"/><path id="path4373-7-4-1" fill="none" stroke="#fff" stroke-linecap="butt" stroke-linejoin="miter" stroke-opacity="1" stroke-width="1" d="m 15.000001,31.5 1.999516,0 m 3.000484,0 17,0" opacity=".4"/><path id="path3257" fill="url(#linearGradient3004)" fill-opacity="1" fill-rule="nonzero" stroke="url(#linearGradient3006)" stroke-dasharray="none" stroke-dashoffset="0" stroke-linecap="square" stroke-linejoin="miter" stroke-miterlimit="4" stroke-opacity="1" stroke-width="1" d="m 19.921252,36.5004 c -0.228953,0.01557 -0.424256,0.193461 -0.421216,0.383667 l 0,2.232248 c -0.0025,0.201428 0.220083,0.385669 0.463338,0.383668 l 17.073272,0 c 0.243254,0.002 0.465752,-0.18224 0.463336,-0.383668 l 0,-2.232248 C 37.502482,36.682641 37.2799,36.4984 37.036646,36.500401 l -17.073272,0 c -0.01403,-5.34e-4 -0.02809,-5.34e-4 -0.04212,0 z" color="#000" display="inline" enable-background="accumulate" overflow="visible" visibility="visible" style="marker:none"/><path id="path3261" fill="none" stroke="#fff" stroke-linecap="butt" stroke-linejoin="miter" stroke-opacity="1" stroke-width="1" d="m 20.000001,37.5 17,0" opacity=".4"/><path id="rect4432-8-5" fill="url(#linearGradient2996)" fill-opacity="1" fill-rule="nonzero" stroke="url(#linearGradient2998)" stroke-dashoffset="0" stroke-linecap="square" stroke-linejoin="miter" stroke-miterlimit="4" stroke-opacity="1" stroke-width="1" d="m 15.000001,36.5 2,0 c 0.277,0 0.5,0.222999 0.5,0.5 l 0,2 c 0,0.277 -0.223,0.5 -0.5,0.5 l -2,0 c -0.277,0 -0.5,-0.223 -0.5,-0.5 l 0,-2 c 0,-0.277001 0.223,-0.5 0.5,-0.5 z m 4.921251,4e-4 c -0.228953,0.01557 -0.424256,0.193461 -0.421216,0.383667 l 0,2.232249 c -0.0025,0.201428 0.220083,0.385669 0.463338,0.383668 l 17.073272,0 c 0.243254,0.002 0.465752,-0.182241 0.463336,-0.383668 l 0,-2.232249 C 37.502482,36.68264 37.2799,36.498399 37.036646,36.5004 l -17.073272,0 c -0.01403,-5.33e-4 -0.02809,-5.33e-4 -0.04212,0 z" color="#000" display="inline" enable-background="accumulate" overflow="visible" visibility="visible" style="marker:none"/><path id="path3265" fill="none" stroke="#fff" stroke-linecap="butt" stroke-linejoin="miter" stroke-opacity="1" stroke-width="1" d="m 15.000001,37.5 1.999516,0 m 3.000484,0 17,0" opacity=".4"/><path id="path4055" fill="none" stroke="url(#linearGradient2992)" stroke-dasharray="none" stroke-linecap="butt" stroke-linejoin="round" stroke-miterlimit="6.4" stroke-opacity="1" stroke-width="1.001" d="m 13.624906,37.511462 -4.6249076,0.0037 m 4.6249076,-6.0037 -4.6249076,0.0037 m 4.6249076,-18.003699 -4.6249076,0.0037" opacity=".6"/><path id="path4075" fill="none" stroke="url(#linearGradient2983)" stroke-dasharray="none" stroke-linecap="butt" stroke-linejoin="round" stroke-miterlimit="6.4" stroke-opacity="1" stroke-width="1.001" d="m 14.125283,38.526242 -4.624907,0.0037 m 4.624907,-6.0037 -4.624907,0.0037 m 4.624907,-18.003699 -4.624907,0.0037" opacity=".8"/><path id="path4079" fill="none" stroke="url(#linearGradient2980)" stroke-dasharray="none" stroke-linecap="butt" stroke-linejoin="round" stroke-miterlimit="6.4" stroke-opacity="1" stroke-width="1.001" d="m 16.125283,20.526242 -6.624907,0.0037" opacity=".8"/><path id="path4059-5" fill="none" stroke="url(#linearGradient2977)" stroke-dasharray="none" stroke-linecap="butt" stroke-linejoin="round" stroke-miterlimit="6.4" stroke-opacity="1" stroke-width="1.001" d="m 15.624906,25.481143 -6.6249076,0.0037 m 6.6249076,-5.973381 -6.6249076,0.0037" opacity=".6"/><path id="path4079-0" fill="none" stroke="url(#linearGradient2974)" stroke-dasharray="none" stroke-linecap="butt" stroke-linejoin="round" stroke-miterlimit="6.4" stroke-opacity="1" stroke-width="1.001" d="m 16.125283,26.495923 -6.624907,0.0037" opacity=".8"/></g></svg>