<svg xmlns="http://www.w3.org/2000/svg" xmlns:svg="http://www.w3.org/2000/svg" xmlns:xlink="http://www.w3.org/1999/xlink" id="svg2945" width="48" height="48" version="1.1"><defs id="defs2947"><linearGradient id="linearGradient4384"><stop id="stop4386" offset="0" stop-color="#8badea" stop-opacity="1"/><stop id="stop4388" offset="1" stop-color="#fbfbfb" stop-opacity="0"/></linearGradient><linearGradient id="linearGradient4376"><stop id="stop4378" offset="0" stop-color="#2a648f" stop-opacity="1"/><stop id="stop4380" offset=".379" stop-color="#8badea" stop-opacity="1"/><stop id="stop4382" offset="1" stop-color="#2a648f" stop-opacity="1"/></linearGradient><linearGradient id="linearGradient4364"><stop id="stop4366" offset="0" stop-color="#4083c2" stop-opacity="1"/><stop id="stop4368" offset="1" stop-color="#1f4b6a" stop-opacity="1"/></linearGradient><linearGradient id="linearGradient3956"><stop id="stop3958" offset="0" stop-color="#e08223" stop-opacity="1"/><stop id="stop3960" offset=".379" stop-color="#edd563" stop-opacity="1"/><stop id="stop3962" offset="1" stop-color="#e08223" stop-opacity="1"/></linearGradient><linearGradient id="linearGradient3936"><stop id="stop3938" offset="0" stop-color="#cd8033" stop-opacity="1"/><stop id="stop3940" offset="1" stop-color="#fbfbfb" stop-opacity="0"/></linearGradient><linearGradient id="linearGradient3926"><stop id="stop3928" offset="0" stop-color="#cd8033" stop-opacity="1"/><stop id="stop3930" offset="1" stop-color="#bb5e12" stop-opacity="1"/></linearGradient><linearGradient id="linearGradient4299"><stop id="stop4301" offset="0" stop-color="#d7e866" stop-opacity="1"/><stop id="stop4303" offset="1" stop-color="#fbfbfb" stop-opacity="0"/></linearGradient><linearGradient id="linearGradient4291"><stop id="stop4293" offset="0" stop-color="#8cab2a" stop-opacity="1"/><stop id="stop4295" offset=".379" stop-color="#d7e866" stop-opacity="1"/><stop id="stop4297" offset="1" stop-color="#8cab2a" stop-opacity="1"/></linearGradient><linearGradient id="linearGradient4281"><stop id="stop4283" offset="0" stop-color="#69aa28" stop-opacity="1"/><stop id="stop4285" offset="1" stop-color="#548820" stop-opacity="1"/></linearGradient><linearGradient id="linearGradient4253"><stop id="stop4255" offset="0" stop-color="#000" stop-opacity=".351"/><stop id="stop4257" offset=".5" stop-color="#000" stop-opacity="0"/><stop id="stop4259" offset="1" stop-color="#000" stop-opacity=".106"/></linearGradient><linearGradient id="linearGradient4241"><stop id="stop4243" offset="0" stop-color="#000" stop-opacity=".271"/><stop id="stop4249" offset=".5" stop-color="#000" stop-opacity="0"/><stop id="stop4245" offset="1" stop-color="#000" stop-opacity=".271"/></linearGradient><linearGradient id="linearGradient3280"><stop id="stop3282" offset="0" stop-color="#000" stop-opacity="1"/><stop id="stop3284" offset="1" stop-color="#000" stop-opacity="0"/></linearGradient><linearGradient id="linearGradient9421"><stop id="stop9423" offset="0" stop-color="#fff" stop-opacity="1"/><stop id="stop9425" offset="1" stop-color="#fff" stop-opacity="0"/></linearGradient><filter id="filter9752" width="2.659" height="1.129" x="-.83" y="-.065" color-interpolation-filters="sRGB"><feGaussianBlur id="feGaussianBlur9754" stdDeviation="1.037"/></filter><linearGradient id="linearGradient3280-7"><stop id="stop3282-6" offset="0" stop-color="#000" stop-opacity="1"/><stop id="stop3284-8" offset="1" stop-color="#000" stop-opacity="0"/></linearGradient><linearGradient id="linearGradient4241-2"><stop id="stop4243-0" offset="0" stop-color="#000" stop-opacity=".271"/><stop id="stop4249-3" offset=".5" stop-color="#000" stop-opacity="0"/><stop id="stop4245-2" offset="1" stop-color="#000" stop-opacity=".271"/></linearGradient><linearGradient id="linearGradient4253-9"><stop id="stop4255-7" offset="0" stop-color="#000" stop-opacity=".106"/><stop id="stop4257-5" offset=".5" stop-color="#000" stop-opacity="0"/><stop id="stop4259-1" offset="1" stop-color="#000" stop-opacity=".106"/></linearGradient><linearGradient id="linearGradient9421-2"><stop id="stop9423-1" offset="0" stop-color="#fff" stop-opacity="1"/><stop id="stop9425-3" offset="1" stop-color="#fff" stop-opacity="0"/></linearGradient><filter id="filter9752-2" width="2.659" height="1.129" x="-.83" y="-.065" color-interpolation-filters="sRGB"><feGaussianBlur id="feGaussianBlur9754-7" stdDeviation="1.037"/></filter><radialGradient id="radialGradient3918" cx="21.344" cy="14.125" r="11.969" fx="21.344" fy="14.125" gradientTransform="matrix(1.1075525,0,0,0.43050677,-6.5809,17.243981)" gradientUnits="userSpaceOnUse" xlink:href="#linearGradient3280-7"/><linearGradient id="linearGradient3920" x1="718.5" x2="718.5" y1="56.875" y2="110.925" gradientTransform="translate(-696.9706,-70.49978)" gradientUnits="userSpaceOnUse" xlink:href="#linearGradient9421-2"/><linearGradient id="linearGradient3932" x1="18.805" x2="26.856" y1="5.8" y2="43.218" gradientTransform="matrix(1,0,0,0.92965233,-5.071312,-16.322126)" gradientUnits="userSpaceOnUse" xlink:href="#linearGradient3926"/><linearGradient id="linearGradient3934" x1="22" x2="29.624" y1="27.732" y2="61.085" gradientTransform="matrix(1,0,0,0.92965233,-5.071312,-36.322126)" gradientUnits="userSpaceOnUse" xlink:href="#linearGradient3926"/><linearGradient id="linearGradient3942" x1="13.776" x2="32.697" y1="44.446" y2="43.446" gradientTransform="matrix(0.80700778,0,0,0.93743291,-1.9907998,-38.426227)" gradientUnits="userSpaceOnUse" xlink:href="#linearGradient3936"/><linearGradient id="linearGradient3954" x1="15" x2="32" y1="23" y2="23" gradientTransform="matrix(1,0,0,0.92965233,-5.071312,-16.322126)" gradientUnits="userSpaceOnUse" xlink:href="#linearGradient3956"/><linearGradient id="linearGradient3970" x1="718.251" x2="718.5" y1="65.346" y2="110.925" gradientTransform="translate(-679.65702,-79.585216)" gradientUnits="userSpaceOnUse" xlink:href="#linearGradient9421"/><linearGradient id="linearGradient3972" x1="22" x2="29.624" y1="27.732" y2="61.085" gradientTransform="matrix(1,0,0,0.92965233,10,-39.781273)" gradientUnits="userSpaceOnUse" xlink:href="#linearGradient4281"/><linearGradient id="linearGradient3974" x1="13.776" x2="32.697" y1="44.446" y2="43.446" gradientTransform="matrix(1.0060525,0,0,0.93743291,10.140626,-41.885374)" gradientUnits="userSpaceOnUse" xlink:href="#linearGradient4299"/><linearGradient id="linearGradient3976" x1="15" x2="32" y1="23" y2="23" gradientTransform="matrix(1,0,0,0.92965233,10,-25.781273)" gradientUnits="userSpaceOnUse" xlink:href="#linearGradient4253"/><linearGradient id="linearGradient3978" x1="15" x2="32" y1="23" y2="23" gradientTransform="matrix(1,0,0,0.92965233,10,-25.781273)" gradientUnits="userSpaceOnUse" xlink:href="#linearGradient4291"/><linearGradient id="linearGradient3980" x1="18.805" x2="26.856" y1="5.8" y2="43.218" gradientTransform="matrix(1,0,0,0.92965233,10,-25.781273)" gradientUnits="userSpaceOnUse" xlink:href="#linearGradient4281"/><linearGradient id="linearGradient3982" x1="15" x2="32" y1="23" y2="23" gradientTransform="matrix(1,0,0,0.92965233,10,-26.781365)" gradientUnits="userSpaceOnUse" xlink:href="#linearGradient4241"/><radialGradient id="radialGradient3984" cx="21.344" cy="14.125" r="11.969" fx="21.344" fy="14.125" gradientTransform="matrix(1.2532643,0,0,0.43050677,6.7506536,7.784834)" gradientUnits="userSpaceOnUse" xlink:href="#linearGradient3280"/><linearGradient id="linearGradient3986" x1="15" x2="32" y1="23" y2="23" gradientTransform="matrix(1,0,0,0.92965233,-5.071312,-16.322126)" gradientUnits="userSpaceOnUse" xlink:href="#linearGradient4253-9"/><linearGradient id="linearGradient3988" x1="15" x2="32" y1="23" y2="23" gradientTransform="matrix(1,0,0,0.92965233,-5.071312,-16.322126)" gradientUnits="userSpaceOnUse" xlink:href="#linearGradient4241-2"/><linearGradient id="linearGradient10367"><stop id="stop10369" offset="0" stop-color="#fff" stop-opacity="1"/><stop id="stop10371" offset="1" stop-color="#204a87" stop-opacity="1"/></linearGradient><radialGradient id="radialGradient5084" cx="550.625" cy="221.125" r="2.75" fx="550.625" fy="221.125" gradientTransform="matrix(0.57024786,0,0,0.57024786,-296.99465,-118.03761)" gradientUnits="userSpaceOnUse" xlink:href="#linearGradient10367"/><radialGradient id="radialGradient4224" cx="550.625" cy="221.125" r="2.75" fx="550.625" fy="221.125" gradientTransform="matrix(1.0454545,0,0,1.0454545,-25.028413,-10.051136)" gradientUnits="userSpaceOnUse" xlink:href="#linearGradient10367"/><radialGradient id="radialGradient4226" cx="550.625" cy="221.125" r="2.75" fx="550.625" fy="221.125" gradientTransform="matrix(1.0454545,0,0,1.0454545,-25.028413,-10.051136)" gradientUnits="userSpaceOnUse" xlink:href="#linearGradient10367"/><radialGradient id="radialGradient4330" cx="21.344" cy="14.125" r="11.969" fx="21.344" fy="14.125" gradientTransform="matrix(1.2532643,0,0,0.43050677,6.750654,19.784834)" gradientUnits="userSpaceOnUse" xlink:href="#linearGradient3280"/><linearGradient id="linearGradient4332" x1="15" x2="32" y1="23" y2="23" gradientTransform="matrix(1,0,0,0.92965233,10,-14.781365)" gradientUnits="userSpaceOnUse" xlink:href="#linearGradient4241"/><linearGradient id="linearGradient4334" x1="15" x2="32" y1="23" y2="23" gradientTransform="matrix(1,0,0,0.92965233,10,-13.781273)" gradientUnits="userSpaceOnUse" xlink:href="#linearGradient4376"/><linearGradient id="linearGradient4336" x1="18.805" x2="26.856" y1="5.8" y2="43.218" gradientTransform="matrix(1,0,0,0.92965233,10,-13.781273)" gradientUnits="userSpaceOnUse" xlink:href="#linearGradient4364"/><linearGradient id="linearGradient4338" x1="15" x2="32" y1="23" y2="23" gradientTransform="matrix(1,0,0,0.92965233,10,-13.781273)" gradientUnits="userSpaceOnUse" xlink:href="#linearGradient4253"/><linearGradient id="linearGradient4340" x1="13.776" x2="32.697" y1="44.446" y2="43.446" gradientTransform="matrix(0.7848917,0,0,0.93743291,14.902012,-21.885374)" gradientUnits="userSpaceOnUse" xlink:href="#linearGradient4384"/><linearGradient id="linearGradient4342" x1="20.007" x2="23.5" y1="20.094" y2="47.798" gradientTransform="matrix(1,0,0,0.92965233,10,-19.781273)" gradientUnits="userSpaceOnUse" xlink:href="#linearGradient4364"/><linearGradient id="linearGradient4344" x1="718.251" x2="718.5" y1="65.346" y2="110.925" gradientTransform="translate(-629.65702,-79.585216)" gradientUnits="userSpaceOnUse" xlink:href="#linearGradient9421"/><radialGradient id="radialGradient4348" cx="550.625" cy="221.125" r="2.75" fx="550.625" fy="221.125" gradientTransform="matrix(1.0454545,0,0,1.0454545,-25.028413,-10.051136)" gradientUnits="userSpaceOnUse" xlink:href="#linearGradient10367"/><radialGradient id="radialGradient4350" cx="550.625" cy="221.125" r="2.75" fx="550.625" fy="221.125" gradientTransform="matrix(1.0454545,0,0,1.0454545,-25.028413,-10.051136)" gradientUnits="userSpaceOnUse" xlink:href="#linearGradient10367"/><radialGradient id="radialGradient4362" cx="550.625" cy="221.125" r="2.75" fx="550.625" fy="221.125" gradientTransform="matrix(0.28512398,0,0,0.28512398,-144.22823,-51.212602)" gradientUnits="userSpaceOnUse" xlink:href="#linearGradient10367"/><radialGradient id="radialGradient4392" cx="550.625" cy="221.125" r="2.75" fx="550.625" fy="221.125" gradientTransform="matrix(1.0454545,0,0,1.0454545,-25.028413,-10.051136)" gradientUnits="userSpaceOnUse" xlink:href="#linearGradient10367"/><radialGradient id="radialGradient4398" cx="550.625" cy="221.125" r="2.75" fx="550.625" fy="221.125" gradientTransform="matrix(1.0454545,0,0,1.0454545,-25.028413,-10.051136)" gradientUnits="userSpaceOnUse" xlink:href="#linearGradient10367"/><radialGradient id="radialGradient4400" cx="550.625" cy="221.125" r="2.75" fx="550.625" fy="221.125" gradientTransform="matrix(1.0454545,0,0,1.0454545,-25.028413,-10.051136)" gradientUnits="userSpaceOnUse" xlink:href="#linearGradient10367"/><radialGradient id="radialGradient2965" cx="550.625" cy="221.125" r="2.75" fx="550.625" fy="221.125" gradientTransform="matrix(0.28512398,0,0,0.28512398,-139.17785,-50.337602)" gradientUnits="userSpaceOnUse" xlink:href="#linearGradient10367"/><radialGradient id="radialGradient2967" cx="550.625" cy="221.125" r="2.75" fx="550.625" fy="221.125" gradientTransform="matrix(0.28512398,0,0,0.28512398,-139.42785,-47.212602)" gradientUnits="userSpaceOnUse" xlink:href="#linearGradient10367"/></defs><g id="layer1" transform="translate(0,16)"><path d="m 48.5,13.865743 c -2.077393,5.618486 -9.810954,5.962169 -15,6.134462 -5.30626,-0.234133 -12.778417,-0.503172 -15,-6.134462 2.075821,-5.619538 9.811068,-5.963155 15,-6.135464 5.306109,0.234218 12.780036,0.503043 15,6.135464 z" style="marker:none" id="path3278" fill="url(#radialGradient3984)" fill-opacity="1" fill-rule="nonzero" stroke="none" stroke-width="1" color="#000" display="inline" overflow="visible" visibility="visible"/><path id="path2957" fill="url(#linearGradient3982)" fill-opacity="1" stroke="#454545" stroke-linecap="butt" stroke-linejoin="round" stroke-opacity="1" stroke-width=".964" d="m 22.5,-10.000092 0,22.728952 c -0.01865,2.257987 6.196271,3.771048 11,3.771048 4.893032,0 11.018646,-1.596082 11,-3.771048 l 0,-22.728952 c -0.07066,-1.759862 -7.000796,-3.420192 -11,-3.5 -6.242269,-0.124571 -18.991157,3.151963 -11,3.5 z" opacity=".6"/><path id="path4263" fill="#fbfbfb" fill-opacity=".494" stroke="none" d="M 43.999999,12.193394 C 42.198633,15.540296 36.825114,15.94845 33.45,16.03528 30.108035,15.783945 24.65878,15.656684 22.900001,12.193394 24.70137,8.846492 30.074884,8.936621 33.45,8.84979 c 3.341965,0.251335 8.79122,-0.119686 10.549999,3.343604 z"/><path id="path4265" fill="url(#linearGradient3978)" fill-opacity="1" stroke="url(#linearGradient3980)" stroke-linecap="butt" stroke-linejoin="miter" stroke-opacity="1" stroke-width=".964" d="m 24.5,-1.274 0,13.143647 c -0.01865,2.257988 5,2.788956 9,2.788956 4,0 9.018646,-0.613989 9,-2.788956 L 42.5,-1.274 c -0.07066,-1.7598615 -5,-2.226 -9,-2.226 -4,0 -9.018646,0.3831165 -9,2.226 z"/><path id="path4251" fill="url(#linearGradient3976)" fill-opacity="1" stroke="none" d="m 22,-11.133011 0,22.397137 C 21.98135,14.020238 29.5,15 33.5,15 c 4,0 11.518646,-0.813716 11.5,-3.735874 l 0,-22.397137 c 0.01864,1.8100389 -8.035819,2.9394891 -12.035819,2.9394891 -4,0 -10.982827,-1.0464292 -10.964181,-2.9394891 z"/><path id="path4271" fill="url(#linearGradient3974)" fill-opacity="1" stroke="none" d="m 42,-1.1581011 a 8.5,2.009179 0 0 1 -17,0 8.5,2.009179 0 1 1 17,0 z"/><path id="path2883" fill="none" stroke="#fefefe" stroke-linecap="butt" stroke-linejoin="miter" stroke-opacity="1" stroke-width=".964" d="m 25.5,-0.774 0,11.874 c -0.01865,2.257988 4,2.559 8,2.559 4,0 8.018646,-0.384033 8,-2.559 l 0,-11.874 c -0.07066,-1.7598615 -4,-1.726 -8,-1.726 -4,0 -8.018646,-0.1168835 -8,1.726 z" opacity=".2"/><path id="path4417" fill="none" stroke="url(#linearGradient3972)" stroke-dasharray="none" stroke-linecap="butt" stroke-linejoin="miter" stroke-miterlimit="4" stroke-opacity="1" stroke-width=".964" d="m 24.5,-2.130353 c -0.01865,2.257988 5,2.788956 9,2.788956 4,0 9.018646,-0.613989 9,-2.788956"/><path id="path4440" fill="none" stroke="#585858" stroke-linecap="butt" stroke-linejoin="round" stroke-opacity="1" stroke-width=".964" d="m 44.5,-10.500092 c -0.07066,1.7598616 -7,3.4999996 -11,3.4999996 -4,0 -11.018646,-1.657117 -11,-3.4999996" opacity=".6"/><rect id="rect9419" width="3.247" height="19.72" x="37.096" y="-5.305" fill="url(#linearGradient3970)" fill-opacity="1" stroke="none" display="inline" enable-background="new" filter="url(#filter9752)" rx=".565" ry=".928"/><path id="path2884" fill="none" stroke="#fefefe" stroke-dasharray="none" stroke-linecap="round" stroke-linejoin="round" stroke-miterlimit="4" stroke-opacity="1" stroke-width=".964" d="M 42.877148,-10.275718 C 42.432776,-11.163587 37.5,-12.5 33.5,-12.5 c -4,0 -7.527236,0.755109 -11.121134,1.726 M 23.5,-8.401718 c 1.600766,1.6351355 6,2.060718 10,2.060718 4,0 10.143216,-0.882315 10.498282,-2.559" opacity=".6"/><path d="M 30.314426,23.32489 C 28.478563,28.943376 21.644151,29.287059 17.058413,29.459352 12.369089,29.225219 5.765688,28.95618 3.802399,23.32489 c 1.834475,-5.619538 8.670377,-5.963155 13.256014,-6.135464 4.689189,0.234218 11.294155,0.503043 13.256013,6.135464 z" style="marker:none" id="path3278-3" fill="url(#radialGradient3918)" fill-opacity="1" fill-rule="nonzero" stroke="none" stroke-width="1" color="#000" display="inline" overflow="visible" visibility="visible"/><path id="path2957-3" fill="url(#linearGradient3988)" fill-opacity="1" stroke="#454545" stroke-linecap="butt" stroke-linejoin="round" stroke-opacity="1" stroke-width=".964" d="m 7.429,-11.540853 0,34.728952 c -0.01865,2.257987 4.195959,3.771048 8.999688,3.771048 4.893032,0 10.018646,-1.596082 10,-3.771048 l 0,-34.728952 c -0.07066,-1.759862 -6,-3.5 -10,-3.5 -4,0 -15.994282,3.027392 -8.999688,3.5 z" opacity=".6"/><path id="path4263-2" fill="#fbfbfb" fill-opacity=".494" stroke="none" d="m 25.942432,23.052887 a 9.0708755,3.3421507 0 0 1 -18.141751,0 9.0708755,3.3421507 0 1 1 18.141751,0 z"/><path id="path4265-3" fill="url(#linearGradient3954)" fill-opacity="1" stroke="url(#linearGradient3932)" stroke-linecap="butt" stroke-linejoin="miter" stroke-opacity="1" stroke-width=".964" d="m 9.428688,2.1851468 0,19.1436472 c -0.01865,2.257988 3,2.788956 7,2.788956 4,0 8.018958,-0.613989 8.000312,-2.788956 l 0,-19.1436472 c -0.07066,-1.759861 -4.000312,-2.226 -8.000312,-2.226 -4,0 -7.018646,0.383117 -7,2.226 z"/><path id="path10450" fill="url(#radialGradient5084)" fill-opacity="1" stroke="none" d="m 18.089,7.513 a 1.5,1.5 0 0 1 -3,0 1.5,1.5 0 1 1 3,0 z" display="inline" enable-background="new" opacity=".6"/><path id="path4251-8" fill="url(#linearGradient3986)" fill-opacity="1" stroke="none" d="m 6.928688,-11.673864 0,34.397137 c -0.01865,2.756112 7.5,3.735874 11.5,3.735874 4,0 7.518646,-0.813716 7.5,-3.735874 l 0,-34.397137 c 0.01864,1.810039 -4.035819,2.939489 -8.035819,2.939489 -4,0 -10.982827,-1.046429 -10.964181,-2.939489 z"/><path id="path4271-6" fill="url(#linearGradient3942)" fill-opacity="1" stroke="none" d="m 23.565285,2.3010458 a 6.8182985,2.009179 0 0 1 -13.636597,0 6.8182985,2.009179 0 1 1 13.636597,0 z"/><path id="path2883-1" fill="none" stroke="#fefefe" stroke-linecap="butt" stroke-linejoin="miter" stroke-opacity="1" stroke-width=".964" d="m 10.428688,2.6851468 0,17.8740002 c -0.01865,2.257988 2,2.559 6,2.559 4,0 7.018958,-0.384033 7.000312,-2.559 l 0,-17.8740002 c -0.07066,-1.759861 -3.000312,-1.726 -7.000312,-1.726 -4,0 -6.018646,-0.116883 -6,1.726 z" opacity=".2"/><path id="path4417-6" fill="none" stroke="url(#linearGradient3934)" stroke-dasharray="none" stroke-linecap="butt" stroke-linejoin="miter" stroke-miterlimit="4" stroke-opacity="1" stroke-width=".964" d="M 9.428688,1.3287937 C 9.410038,3.5867818 12.929,4.118 16.929,4.118 c 4,0 7.518646,-0.614033 7.5,-2.789"/><path id="path4440-0" fill="none" stroke="#686868" stroke-linecap="butt" stroke-linejoin="round" stroke-opacity="1" stroke-width=".964" d="m 26.428688,-11.540853 c -0.07066,1.759862 -6,3.5 -10,3.5 -4,0 -9.018334,-1.657264 -8.999688,-3.500147" opacity=".6"/><rect id="rect9419-9" width="3.87" height="30.557" x="19.16" y="-7.057" fill="url(#linearGradient3920)" fill-opacity="1" stroke="none" display="inline" enable-background="new" filter="url(#filter9752-2)" rx="1.187" ry=".928"/><path id="path10456" fill="url(#radialGradient4224)" fill-opacity="1" stroke="none" d="m 552.625,220.125 a 2.75,2.75 0 1 1 -5.5,0 2.75,2.75 0 1 1 5.5,0 z" display="inline" enable-background="new" opacity=".7" transform="matrix(0.2727273,0,0,0.2727273,-136.35192,-43.596383)"/><path id="path3922" fill="none" stroke="#fefefe" stroke-dasharray="none" stroke-linecap="round" stroke-linejoin="round" stroke-miterlimit="4" stroke-opacity="1" stroke-width=".964" d="M 25.257732,-11.651148 C 24.81336,-12.539017 21.5,-14 17.5,-14 c -4,0 -6.655243,0.505968 -10.249141,1.476859 m 0.996564,3.244275 c 1.600766,1.6351355 4.505154,2.3098595 8.505154,2.3098595 4,0 8.64837,-1.0068855 9.003436,-2.6835705" opacity=".6"/><path id="path10458" fill="url(#radialGradient4226)" fill-opacity="1" stroke="none" d="m 552.625,220.125 a 2.75,2.75 0 1 1 -5.5,0 2.75,2.75 0 1 1 5.5,0 z" display="inline" enable-background="new" opacity=".7" transform="matrix(0.2727273,0,0,0.2727273,-136.60192,-40.471383)"/><path d="m 48.5,25.865743 c -2.077393,5.618486 -9.810954,5.962169 -15,6.134462 -5.30626,-0.234133 -12.778417,-0.503172 -15,-6.134462 2.075821,-5.619538 9.811068,-5.963155 15,-6.135464 5.306109,0.234218 12.780036,0.503043 15,6.135464 z" style="marker:none" id="path4302" fill="url(#radialGradient4330)" fill-opacity="1" fill-rule="nonzero" stroke="none" stroke-width="1" color="#000" display="inline" overflow="visible" visibility="visible"/><path id="path4304" fill="url(#linearGradient4332)" fill-opacity="1" stroke="#454545" stroke-linecap="butt" stroke-linejoin="round" stroke-opacity="1" stroke-width=".964" d="M 30.5,-2.000092 30.496564,2.5987581 22.5,24.72886 c -0.01865,2.257987 6.196271,3.771048 11,3.771048 4.893032,0 11.018646,-1.596082 11,-3.771048 L 36.503436,2.5987581 36.5,-2.000092 C 36.967546,-3.1371015 36.291413,-4.44276 33.5,-4.5 c -2.628416,-0.0539 -5.883767,1.7781595 -3,2.499908 z" opacity=".6"/><path id="path4306" fill="#fbfbfb" fill-opacity=".494" stroke="none" d="M 44.124569,24.691676 C 41.949492,27.291155 36.825114,27.94845 33.45,28.03528 30.108035,27.783945 25.655344,27.905825 23.273712,24.567105 25.075081,21.220203 30.074884,20.936621 33.45,20.84979 c 3.341965,0.251335 8.91579,0.378596 10.674569,3.841886 z"/><path id="path4308" fill="url(#linearGradient4334)" fill-opacity="1" stroke="url(#linearGradient4336)" stroke-linecap="butt" stroke-linejoin="miter" stroke-opacity="1" stroke-width=".964" d="m 26.5,18.726 -2,5.143647 c -0.01865,2.257988 5,2.788956 9,2.788956 4,0 9.018646,-0.613989 9,-2.788956 L 40.5,18.726 c -0.07066,-1.759861 -3,-2.226 -7,-2.226 -4,0 -7.018646,0.383117 -7,2.226 z"/><path id="path4310" fill="url(#linearGradient4338)" fill-opacity="1" stroke="none" d="M 31.128007,2.3618349 22.996564,24.634401 C 22.977914,27.390513 29.5,27 33.5,27 c 4,0 10.771223,0.431989 10.752577,-2.490169 L 36.377148,2.4864054 C 36.520358,0.43475902 35.817419,-0.0626775 33.213322,-0.42891866 32.327584,-0.55348915 30.86022,0.26863903 31.128007,2.3618349 z"/><path id="path4312" fill="url(#linearGradient4340)" fill-opacity="1" stroke="none" d="m 39.757731,18.841899 c -1.551214,2.107107 -4.452635,1.955584 -6.631442,2.009178 -2.26486,-0.105948 -4.974913,0.06392 -6.631443,-2.009178 1.551214,-2.107107 4.452635,-1.955585 6.631443,-2.009178 2.264859,0.105948 4.974912,-0.06392 6.631442,2.009178 z"/><path id="path4314" fill="none" stroke="#fefefe" stroke-linecap="butt" stroke-linejoin="miter" stroke-opacity="1" stroke-width=".964" d="m 27.5,19.226 -2,3.874 c -0.01865,2.257988 4,2.559 8,2.559 4,0 8.018646,-0.384033 8,-2.559 l -2,-3.874 c -0.07066,-1.759861 -2,-1.726 -6,-1.726 -4,0 -6.018646,-0.116883 -6,1.726 z" opacity=".2"/><path id="path4316" fill="none" stroke="url(#linearGradient4342)" stroke-dasharray="none" stroke-linecap="butt" stroke-linejoin="miter" stroke-miterlimit="4" stroke-opacity="1" stroke-width=".964" d="m 26.5,17.869647 c -0.01865,2.257988 3,2.788956 7,2.788956 4,0 7.018646,-0.613989 7,-2.788956"/><path id="path4318" fill="none" stroke="#585858" stroke-linecap="butt" stroke-linejoin="round" stroke-opacity="1" stroke-width=".964" d="m 36.5,-2.500092 c -0.07066,1.7598616 -1.866461,1.9658969 -3,2.000092 -1.382542,0.041707 -3.018646,-0.1572094 -3,-2.000092" opacity=".6"/><rect id="rect4320" width="5.34" height="19.334" x="85.003" y="-4.919" fill="url(#linearGradient4344)" fill-opacity="1" stroke="none" display="inline" enable-background="new" filter="url(#filter9752)" rx=".565" ry=".928" transform="matrix(0.96840132,-0.24939705,0.24939705,0.96840132,-49.36048,34.13394)"/><path id="path4322" fill="none" stroke="#fefefe" stroke-dasharray="none" stroke-linecap="round" stroke-linejoin="round" stroke-miterlimit="4" stroke-opacity="1" stroke-width=".964" d="M 36.025771,-2.524859 C 35.581399,-3.412728 34.385738,-3.503436 33.5,-3.503436 c -0.761167,0 -2.046134,0.256827 -2.899481,0.729436 m 0.373711,2.621423 c 0.479632,0.3894306 1.266321,0.6904426 2.401199,0.6904426 1.25945,0 2.668986,-0.3840335 2.899482,-0.9395836" opacity=".5"/><path id="path4326" fill="url(#radialGradient4348)" fill-opacity="1" stroke="none" d="m 552.625,220.125 a 2.75,2.75 0 1 1 -5.5,0 2.75,2.75 0 1 1 5.5,0 z" display="inline" enable-background="new" opacity=".7" transform="matrix(0.2727273,0,0,0.2727273,-121.1523,-37.596383)"/><path id="path4328" fill="url(#radialGradient4350)" fill-opacity="1" stroke="none" d="m 552.625,220.125 a 2.75,2.75 0 1 1 -5.5,0 2.75,2.75 0 1 1 5.5,0 z" display="inline" enable-background="new" opacity=".7" transform="matrix(0.2727273,0,0,0.2727273,-115.4023,-36.471383)"/><path id="path4360" fill="url(#radialGradient4362)" fill-opacity="1" stroke="none" d="m 13.313624,11.562714 a 0.75000007,0.75000007 0 0 1 -1.5,0 0.75000007,0.75000007 0 1 1 1.5,0 z" display="inline" enable-background="new" opacity=".7"/><path id="path4390" fill="url(#radialGradient4392)" fill-opacity="1" stroke="none" d="m 552.625,220.125 a 2.75,2.75 0 1 1 -5.5,0 2.75,2.75 0 1 1 5.5,0 z" display="inline" enable-background="new" opacity=".7" transform="matrix(0.2727273,0,0,0.2727273,-120.60192,-36.471383)"/><path id="path4394" fill="url(#radialGradient4398)" fill-opacity="1" stroke="none" d="m 552.625,220.125 a 2.75,2.75 0 1 1 -5.5,0 2.75,2.75 0 1 1 5.5,0 z" display="inline" enable-background="new" opacity=".7" transform="matrix(0.2727273,0,0,0.2727273,-111.1523,-37.596383)"/><path id="path4396" fill="url(#radialGradient4400)" fill-opacity="1" stroke="none" d="m 552.625,220.125 a 2.75,2.75 0 1 1 -5.5,0 2.75,2.75 0 1 1 5.5,0 z" display="inline" enable-background="new" opacity=".7" transform="matrix(0.2727273,0,0,0.2727273,-112.60192,-36.471383)"/><path id="path2961" fill="url(#radialGradient2965)" fill-opacity="1" stroke="none" d="m 18.364004,12.437714 a 0.75000007,0.75000007 0 0 1 -1.5,0 0.75000007,0.75000007 0 1 1 1.5,0 z" display="inline" enable-background="new" opacity=".7"/><path id="path2963" fill="url(#radialGradient2967)" fill-opacity="1" stroke="none" d="m 18.114004,15.562714 a 0.75000007,0.75000007 0 0 1 -1.5,0 0.75000007,0.75000007 0 1 1 1.5,0 z" display="inline" enable-background="new" opacity=".7"/></g></svg>