<svg xmlns="http://www.w3.org/2000/svg" xmlns:svg="http://www.w3.org/2000/svg" xmlns:xlink="http://www.w3.org/1999/xlink" id="svg2527" width="48" height="48" version="1.0"><defs id="defs2529"><linearGradient id="linearGradient4044"><stop id="stop4046" offset="0" stop-color="#fff" stop-opacity="1"/><stop id="stop4048" offset="1" stop-color="#fff" stop-opacity="0"/></linearGradient><linearGradient id="linearGradient6939"><stop id="stop6941" offset="0" stop-color="#babdb6" stop-opacity="1"/><stop id="stop7051" offset=".247" stop-color="#ededed" stop-opacity="1"/><stop id="stop7053" offset=".534" stop-color="#b6b9b1" stop-opacity="1"/><stop id="stop7049" offset=".832" stop-color="#e9eae8" stop-opacity="1"/><stop id="stop6943" offset="1" stop-color="#b5b9b2" stop-opacity="1"/></linearGradient><linearGradient id="linearGradient6970"><stop id="stop6972" offset="0" stop-color="#fff" stop-opacity="1"/><stop id="stop6974" offset="1" stop-color="#eeeeec" stop-opacity="0"/></linearGradient><linearGradient id="linearGradient7033"><stop id="stop7035" offset="0" stop-color="#000" stop-opacity="1"/><stop id="stop7037" offset="1" stop-color="#000" stop-opacity="0"/></linearGradient><linearGradient id="linearGradient7065"><stop id="stop7067" offset="0" stop-color="#888a85" stop-opacity="1"/><stop id="stop7073" offset=".704" stop-color="#cfd0ce" stop-opacity="1"/><stop id="stop7069" offset="1" stop-color="#888a85" stop-opacity="1"/></linearGradient><linearGradient id="linearGradient6967"><stop id="stop6969" offset="0" stop-color="#fff" stop-opacity="1"/><stop id="stop6971" offset="1" stop-color="#fff" stop-opacity="0"/></linearGradient><linearGradient id="linearGradient6969"><stop id="stop6973" offset="0" stop-color="#000" stop-opacity="1"/><stop id="stop6975" offset="1" stop-color="#000" stop-opacity="0"/></linearGradient><linearGradient id="linearGradient6979"><stop id="stop6981" offset="0" stop-color="#fff" stop-opacity="1"/><stop id="stop6983" offset="1" stop-color="#fff" stop-opacity="0"/></linearGradient><linearGradient id="linearGradient7010"><stop id="stop7012" offset="0" stop-color="#848782" stop-opacity="1"/><stop id="stop7014" offset="1" stop-color="#babdb6" stop-opacity="1"/></linearGradient><linearGradient id="linearGradient7207"><stop id="stop7209" offset="0" stop-color="#fff" stop-opacity="1"/><stop id="stop7211" offset="1" stop-color="#fff" stop-opacity="0"/></linearGradient><linearGradient id="linearGradient7215"><stop id="stop7217" offset="0" stop-color="#fff" stop-opacity="1"/><stop id="stop7219" offset="1" stop-color="#fff" stop-opacity="0"/></linearGradient><linearGradient id="linearGradient7002"><stop id="stop7004" offset="0" stop-color="#eeeeec" stop-opacity="1"/><stop id="stop7006" offset="1" stop-color="#babdb6" stop-opacity="1"/></linearGradient><linearGradient id="linearGradient5128-0"><stop id="stop5130-2" offset="0" stop-color="#eee" stop-opacity="1"/><stop id="stop5132-1" offset="1" stop-color="#a2a2a2" stop-opacity="1"/></linearGradient><linearGradient id="linearGradient3390-178-986-453"><stop id="stop3624" offset="0" stop-color="#bb5e12" stop-opacity="1"/><stop id="stop3626" offset="1" stop-color="#cd8033" stop-opacity="1"/></linearGradient><linearGradient id="linearGradient7012-661-145-733-759-865-745-661-970-94"><stop id="stop3618" offset="0" stop-color="#edd563" stop-opacity="1"/><stop id="stop3620" offset="1" stop-color="#e08223" stop-opacity="1"/></linearGradient><radialGradient id="radialGradient4159" cx="28.638" cy="43.934" r="10.076" fx="28.638" fy="43.934" gradientTransform="matrix(1,0,0,0.2982456,0,30.830973)" gradientUnits="userSpaceOnUse" xlink:href="#linearGradient6969"/><linearGradient id="linearGradient4161" x1="25.208" x2="1.679" y1="24.898" y2="32.407" gradientTransform="matrix(0,-1,1,0,-22.968749,49.03125)" gradientUnits="userSpaceOnUse" xlink:href="#linearGradient7012-661-145-733-759-865-745-661-970-94"/><linearGradient id="linearGradient4163" x1="-4.326" x2="-5.288" y1="49.696" y2="15.468" gradientUnits="userSpaceOnUse" xlink:href="#linearGradient3390-178-986-453"/><linearGradient id="linearGradient4165" x1="37.087" x2="11.406" y1="23.661" y2="27.017" gradientTransform="matrix(0,-1,1,0,-22.968749,49.03125)" gradientUnits="userSpaceOnUse" xlink:href="#linearGradient7207"/><radialGradient id="radialGradient4167" cx="2.611" cy="42.639" r="13" fx="2.611" fy="42.639" gradientTransform="matrix(1.450655,0,0,1.2623489,-1.3660485,-18.001669)" gradientUnits="userSpaceOnUse" xlink:href="#linearGradient3390-178-986-453"/><linearGradient id="linearGradient4169" x1="33.727" x2="12" y1="17.536" y2="20.282" gradientTransform="matrix(0,-1,1,0,-22.968749,49.03125)" gradientUnits="userSpaceOnUse" xlink:href="#linearGradient7215"/><linearGradient id="linearGradient4171" x1="11.225" x2="9" y1="26.522" y2="26.522" gradientTransform="matrix(0,-1,1,0,-22.968749,49.03125)" gradientUnits="userSpaceOnUse" xlink:href="#linearGradient3390-178-986-453"/><radialGradient id="radialGradient4173" cx="28.638" cy="43.934" r="10.076" fx="28.638" fy="43.934" gradientTransform="matrix(1,0,0,0.2982456,0,30.830973)" gradientUnits="userSpaceOnUse" xlink:href="#linearGradient6969"/><radialGradient id="radialGradient4175" cx="28.638" cy="43.934" r="10.076" fx="28.638" fy="43.934" gradientTransform="matrix(1,0,0,0.2982456,0,30.830973)" gradientUnits="userSpaceOnUse" xlink:href="#linearGradient6969"/><linearGradient id="linearGradient4177" x1="-5.837" x2="22" y1="8.048" y2="33.137" gradientTransform="translate(23.006098,0.01797557)" gradientUnits="userSpaceOnUse" xlink:href="#linearGradient6939"/><linearGradient id="linearGradient4179" x1="37" x2="24" y1="42" y2="-14.305" gradientTransform="translate(9.006098,0.01797557)" gradientUnits="userSpaceOnUse" xlink:href="#linearGradient7010"/><linearGradient id="linearGradient4181" x1="35.376" x2="46.881" y1="7.899" y2="41.049" gradientUnits="userSpaceOnUse" xlink:href="#linearGradient5128-0"/><linearGradient id="linearGradient4183" x1="23.125" x2="29.625" y1="1.5" y2="78.125" gradientTransform="translate(9.006098,0.01797557)" gradientUnits="userSpaceOnUse" xlink:href="#linearGradient6979"/><linearGradient id="linearGradient4185" x1="3.801" x2="3.801" y1="9.581" y2="7.998" gradientTransform="translate(19.006098,0.01797557)" gradientUnits="userSpaceOnUse" xlink:href="#linearGradient6970"/><linearGradient id="linearGradient4187" x1="20.462" x2="20.462" y1="15.327" y2="11.747" gradientTransform="translate(24.006098,0.01797557)" gradientUnits="userSpaceOnUse" xlink:href="#linearGradient7065"/><linearGradient id="linearGradient4189" x1="12.688" x2="12.688" y1="17.55" y2="21.501" gradientTransform="matrix(0.5,0,0,1,27.506098,1.0179756)" gradientUnits="userSpaceOnUse" xlink:href="#linearGradient7033"/><linearGradient id="linearGradient4191" x1="12.688" x2="12.688" y1="17.55" y2="21.501" gradientTransform="matrix(0.5,0,0,1,33.506098,1.0179756)" gradientUnits="userSpaceOnUse" xlink:href="#linearGradient7033"/><linearGradient id="linearGradient4193" x1="9.531" x2="11.468" y1="17.563" y2="17.563" gradientTransform="translate(22.006098,2.0179756)" gradientUnits="userSpaceOnUse" xlink:href="#linearGradient6967"/><linearGradient id="linearGradient4195" x1="23.125" x2="29.625" y1="1.5" y2="78.125" gradientTransform="translate(9.006098,0.01797557)" gradientUnits="userSpaceOnUse" xlink:href="#linearGradient6979"/><radialGradient id="radialGradient4197" cx="24.5" cy="14" r="10.5" fx="24.5" fy="14" gradientTransform="matrix(1,0,0,0.6666667,5.9167408,4.7466938)" gradientUnits="userSpaceOnUse" xlink:href="#linearGradient7002"/><linearGradient id="linearGradient4199" x1="-1.984" x2="11" y1="8" y2="11" gradientUnits="userSpaceOnUse" xlink:href="#linearGradient4044"/></defs><g id="g4114" transform="translate(-5.0561395,-0.03595458)"><path id="path5940" fill="#babdb6" fill-rule="evenodd" stroke="#888a85" stroke-linecap="butt" stroke-linejoin="miter" stroke-opacity="1" stroke-width="1" d="m 40.506098,6.5179756 5,0 c 0,-1.309637 -3.222373,-2.6533694 -5,-3 l 0,3 z"/><rect id="rect6988" width="4" height="2" x="39.506" y="12.518" fill="#eeeeec" fill-opacity="1" fill-rule="evenodd" stroke="#babdb6" stroke-dasharray="none" stroke-linecap="round" stroke-linejoin="miter" stroke-miterlimit="10" stroke-opacity="1" stroke-width="1" rx="0" ry="0"/><path id="path7455" fill="url(#radialGradient4159)" fill-opacity="1" fill-rule="evenodd" stroke="none" d="m 38.714097,43.934135 a 10.076272,3.0052037 0 1 1 -20.152544,0 10.076272,3.0052037 0 1 1 20.152544,0 z" opacity=".1" transform="matrix(2.2997063,0,0,0.8336219,-37.159207,7.3883131)"/><g id="g7015" transform="translate(26.006098,3.0179756)"><path id="rect7157" fill="url(#linearGradient4161)" fill-opacity="1" fill-rule="evenodd" stroke="url(#linearGradient4163)" stroke-dasharray="none" stroke-linecap="round" stroke-linejoin="round" stroke-miterlimit="4" stroke-opacity="1" stroke-width="1" d="m -14.46875,40.53125 35.000001,0 0,-5 -4,0 c 0.0062,-0.166339 0,-0.394238 0,-0.5625 0,-7.452 -6.048001,-13.500001 -13.500001,-13.500001 -7.452,0 -13.5,6.048001 -13.500001,13.500001 10e-7,0.168262 0.02504,0.396161 0.03125,0.5625 l -4.03125,0 -1e-6,5 z m 9,-5.5625 c 0,-4.692 3.808,-8.500001 8.5,-8.500001 4.692001,1e-6 8.500001,3.808001 8.500001,8.500001 0,0.167099 0.0096,0.397687 0,0.5625 l -17,0 c -0.00963,-0.164813 -1e-6,-0.395401 -1e-6,-0.5625 z"/><path id="path7176" fill="none" stroke="url(#linearGradient4165)" stroke-linecap="round" stroke-linejoin="miter" stroke-miterlimit="4" stroke-opacity="1" stroke-width="1" d="m -13.468749,39.53125 33,0 0,-3 -3,0 C 16.260539,36.531354 16.001349,36.42171 15.812894,36.227366 15.624439,36.033021 15.522819,35.770581 15.531251,35.5 c 0.004,-0.107473 0,-0.338384 0,-0.53125 0,-6.910937 -5.589063,-12.5 -12.5,-12.5 -6.910936,1e-6 -12.499999,5.589063 -12.5,12.5 0,0.06907 0.022571,0.298806 0.03125,0.53125 0.00843,0.270581 -0.093188,0.533021 -0.281643,0.727366 -0.188455,0.194344 -0.447645,0.303988 -0.718357,0.303884 l -3.03125,0 0,3 z"/><path id="path7243" fill="url(#radialGradient4167)" fill-opacity="1" fill-rule="evenodd" stroke="none" d="m -9.968749,32.875 1.40625,0.40625 c 0.076241,-0.328066 0.178664,-0.651544 0.28125,-0.96875 l -1.4375,-0.40625 -0.25,0.96875 z m 1.21875,-3.4375 1.34375,0.8125 c 0.156459,-0.285004 0.321705,-0.573425 0.5,-0.84375 l -1.375,-0.84375 -0.46875,0.875 z m 2,-3 1.21875,1.28125 c 0.231076,-0.241677 0.468432,-0.46588 0.71875,-0.6875 l -1.25,-1.3125 -0.6875,0.71875 z m 2.71875,-2.34375 0.90625,1.6875 c 0.271456,-0.166107 0.558722,-0.324429 0.84375,-0.46875 l -0.9375,-1.71875 -0.8125,0.5 z m 3.15625,-1.53125 0.5,1.96875 c 0.300767,-0.09073 0.596123,-0.151902 0.90625,-0.21875 l -0.5,-2 -0.90625,0.25 z m 3.4375,1.5 c 0.156311,-0.0062 0.31098,-0.03125 0.46875,-0.03125 0.15777,0 0.312439,0.02509 0.46875,0.03125 l 0,-2.09375 -0.9375,0 0,2.09375 z m 2.96875,0.25 c 0.310127,0.06685 0.605483,0.128022 0.90625,0.21875 l 0.5,-1.96875 -0.90625,-0.25 -0.5,2 z m 2.8125,1 c 0.285028,0.144321 0.572294,0.302643 0.84375,0.46875 l 0.90625,-1.6875 -0.8125,-0.5 -0.9375,1.71875 z m 2.53125,1.71875 c 0.250318,0.22162 0.487674,0.445823 0.71875,0.6875 l 1.21875,-1.28125 -0.6875,-0.71875 -1.25,1.3125 z m 2.09375,2.375 c 0.178295,0.270325 0.343541,0.558746 0.5,0.84375 l 1.34375,-0.8125 -0.46875,-0.875 -1.375,0.84375 z m 1.375,2.90625 c 0.102586,0.317206 0.205009,0.640684 0.28125,0.96875 l 1.40625,-0.40625 -0.25,-0.96875 -1.4375,0.40625 z"/><path id="path7194" fill="none" stroke="url(#linearGradient4169)" stroke-linecap="round" stroke-linejoin="miter" stroke-miterlimit="4" stroke-opacity="1" stroke-width="1" d="m -6.468749,35.6875 c -0.00147,-0.03123 -0.00147,-0.06252 0,-0.09375 -0.01506,-0.257779 0,-0.496317 0,-0.625 1e-6,-5.233063 4.266937,-9.5 9.5,-9.5 5.233064,2e-6 9.5,4.266937 9.5,9.5 0,0.128679 0.01506,0.367211 0,0.625 -0.0331,0.527714 -0.47125,0.938484 -1,0.9375 l -17,0 c -0.496592,0.0061 -0.922397,-0.353222 -1,-0.84375 l 0,0 z"/><path id="path7231" fill="url(#linearGradient4171)" fill-opacity="1" fill-rule="evenodd" stroke="none" d="m -10.968749,40.03125 1,0 0,-2 -1,0 0,2 z m 2,0 1,0 0,-3 -1,0 0,3 z m 2,0 1,0 0,-2 -1,0 0,2 z m 2,0 1,0 0,-3 -1,0 0,3 z m 2,0 1,0 0,-2 -1,0 0,2 z m 2,0 1,0 0,-3 -1,0 0,3 z m 2,0 1,0 0,-2 -1,0 0,2 z m 2,0 1,0 0,-3 -1,0 0,3 z m 2,0 1,0 0,-2 -1,0 0,2 z m 2,0 1,0 0,-3 -1,0 0,3 z m 2,0 1,0 0,-2 -1,0 0,2 z m 2,0 1,0 0,-3 -1,0 0,3 z m 2,0 1,0 0,-2 -1,0 0,2 z m 2,0 1,0 0,-3 -1,0 0,3 z m 2,0 1,0 0,-2 -1,0 0,2 z"/></g><path id="rect7003" fill="#000" fill-opacity="1" fill-rule="evenodd" stroke="#000" stroke-dasharray="none" stroke-linecap="round" stroke-linejoin="miter" stroke-miterlimit="4" stroke-opacity="1" stroke-width="1" d="m 34.506098,25.642976 0,5.84375 c 1.850354,1.55962 3.03125,3.89243 3.03125,6.5 -1e-6,0.167099 0.0096,0.397687 0,0.5625 l -3.03125,0 0,3.96875 2,0 0,1.03125 2.0625,0 0,-1.03125 1.9375,0 0,-11.625 c -1.424464,-2.294707 -3.510931,-4.144223 -6,-5.25 z" opacity=".1"/><path id="path6959" fill="url(#radialGradient4173)" fill-opacity="1" fill-rule="evenodd" stroke="none" d="m 38.714097,43.934135 a 10.076272,3.0052037 0 1 1 -20.152544,0 10.076272,3.0052037 0 1 1 20.152544,0 z" opacity=".07" transform="matrix(1.4561403,0,0,0.6672439,-6.001313,16.69799)"/><path id="path6999" fill="url(#radialGradient4175)" fill-opacity="1" fill-rule="evenodd" stroke="none" d="m 38.714097,43.934135 a 10.076272,3.0052037 0 1 1 -20.152544,0 10.076272,3.0052037 0 1 1 20.152544,0 z" opacity=".206" transform="matrix(0.4298246,0,0,0.4907733,24.097244,24.981403)"/><rect id="rect5983" width="2.058" height="6" x="35.506" y="40.518" fill="#d3d7cf" fill-opacity="1" fill-rule="evenodd" stroke="#888a85" stroke-dasharray="none" stroke-linecap="round" stroke-linejoin="round" stroke-miterlimit="4" stroke-opacity="1" stroke-width="1"/><path id="path5931" fill="url(#linearGradient4177)" fill-opacity="1" fill-rule="evenodd" stroke="url(#linearGradient4179)" stroke-linecap="butt" stroke-linejoin="miter" stroke-opacity="1" stroke-width="1" d="m 39.506098,0.51797557 -7,0 c -2.034853,0 -11.027728,2.02772823 -11.027728,2.02772823 -0.868802,0.501603 -0.972272,1.4130689 -0.972272,2.9722718 l 11,0 c 0,-1.2057618 0.771356,-1 2,-1 l 0,37.0000004 6,0 0,-35.9687504 c 2.257372,0 6,-1.4980165 6,-3.03125 l -6,0 0,-2.00000003 z"/><path id="path5947" fill="url(#linearGradient4181)" fill-opacity="1" stroke="url(#linearGradient4183)" stroke-linecap="butt" stroke-linejoin="miter" stroke-opacity="1" stroke-width="1" d="m 32.506098,1.4867256 c -1.965757,0.2058833 -8.765548,1.073224 -10.53125,1.90625 -0.478786,0.2498717 -0.403901,0.6087677 -0.4375,1.15625 l 9.194432,-0.044194 c 0.287372,-0.8822551 1.014066,-1.0220971 2.310279,-1.0220971 1.321033,0 1.432789,0.4124481 1.432789,1.0350413 l 0,36.0312502 4.0625,0 0,-35.0000002 c 0.002,-0.5342019 0.434548,-0.9667656 0.96875,-0.9687502 1.262466,0.056725 3.632816,-0.8181105 3.926126,-1.09375 l -3.926126,0 c -0.534202,-0.00198 -0.966765,-0.4345483 -0.96875,-0.96875 l 0,-1.03125 -6.03125,0 z" opacity=".78"/><path id="rect6965" fill="url(#linearGradient4185)" fill-opacity="1" fill-rule="evenodd" stroke="none" d="m 25.006098,8.0179756 0,1.03125 c 0,0.5366875 -0.432063,0.9687504 -0.96875,0.9687504 l -2.389515,0 c 0,0 -0.641735,-0.4600373 -0.641735,-0.9687504 l 0,-1.03125 4,0 z"/><rect id="rect6986" width="2" height="4" x="42.506" y="11.518" fill="#eeeeec" fill-opacity="1" fill-rule="evenodd" stroke="url(#linearGradient4187)" stroke-dasharray="none" stroke-linecap="round" stroke-linejoin="miter" stroke-miterlimit="10" stroke-opacity="1" stroke-width="1" rx=".483" ry=".483"/><path id="path7041" fill="url(#linearGradient4189)" fill-opacity="1" fill-rule="evenodd" stroke="none" d="m 33.006098,12.017976 0,1 1,0 0,-1 -1,0 z m 0,2 0,1 1,0 0,-1 -1,0 z m 0,2 0,1 1,0 0,-1 -1,0 z m 0,2 0,1 1,0 0,-1 -1,0 z" opacity=".157"/><path id="path7045" fill="url(#linearGradient4191)" fill-opacity="1" fill-rule="evenodd" stroke="none" d="m 39.006098,12.017976 0,1 1,0 0,-1 -1,0 z m 0,2 0,1 1,0 0,-1 -1,0 z m 0,2 0,1 1,0 0,-1 -1,0 z m 0,2 0,1 1,0 0,-1 -1,0 z" opacity=".1"/><path id="path6965" fill="none" stroke="url(#linearGradient4193)" stroke-linecap="round" stroke-linejoin="miter" stroke-opacity="1" stroke-width="1" d="m 31.506098,19.517976 2,0" opacity=".537"/><path id="path7135" fill="none" stroke="url(#linearGradient4195)" stroke-linecap="round" stroke-linejoin="miter" stroke-opacity="1" stroke-width="1" d="m 43.432224,3.4867256 -3.926126,0 c -0.534202,-0.00198 -0.966765,-0.4345483 -0.96875,-0.96875 l 0,-1.03125 -6.03125,0 c -1.965757,0.2058833 -8.765548,1.073224 -10.53125,1.90625"/><rect id="rect7011" width="1" height="1" x="39.006" y="9.018" fill="#fff" fill-opacity="1" fill-rule="evenodd" stroke="none" opacity=".534"/><path id="rect6994" fill="#727272" fill-opacity="1" fill-rule="evenodd" stroke="none" d="m 34.006098,8.0179756 0,1 3,0 0,-1 -3,0 z m 0,2.0000004 0,1 2,0 0,-1 -2,0 z m 0,2 0,1 3,0 0,-1 -3,0 z m 0,2 0,1 2,0 0,-1 -2,0 z m 0,2 0,1 3,0 0,-1 -3,0 z m 0,2 0,1 2,0 0,-1 -2,0 z m 0,2 0,1 3,0 0,-1 -3,0 z m 0,2 0,1 2,0 0,-1 -2,0 z m 0,2 0,1 3,0 0,-1 -3,0 z m 0,2 0,1 2,0 0,-1 -2,0 z m 0,2 0,1 3,0 0,-1 -3,0 z m 0,2 0,1 2,0 0,-1 -2,0 z m 0,2 0,1 3,0 0,-1 -3,0 z m 0,2 0,1 2,0 0,-1 -2,0 z m 0,2 0,1 3,0 0,-1 -3,0 z m 0,2 0,1 2,0 0,-1 -2,0 z"/><path id="rect6990" fill="url(#radialGradient4197)" fill-opacity="1" fill-rule="evenodd" stroke="#a0a19e" stroke-dasharray="none" stroke-linecap="round" stroke-linejoin="miter" stroke-miterlimit="10" stroke-opacity="1" stroke-width="1" d="m 20.41674,7.5800278 c 0,1.559203 0.09995,2.4671472 0.96875,2.9687502 l 10.53125,2.03125 c 0.373164,0.185835 0.5,0.5 0.5,1 l 0,5 -1,0 c -0.554,0 -1,0.446 -1,1 0,0.554 0.446,1 1,1 l 1,0 2,0 0,-12.0000002 -2,0 c -1.016528,0.0013 -1,-0.09568 -1,-1 l -11,0 z m 18,1 0,12.0000002 2,0 0,-12.0000002 -2,0 z"/><path id="path6989" fill="none" stroke="#fff" stroke-linecap="round" stroke-linejoin="miter" stroke-opacity="1" stroke-width="1" d="m 33.506098,9.5179756 -1.5,0 c -0.5,0 -1.312175,-0.5110485 -1.389515,-1 l -9.166769,-0.071909" opacity=".534"/><g id="g6926" opacity=".362" transform="translate(23.006098,0.01797557)"><path id="path6922" fill="none" stroke="#fff" stroke-linecap="butt" stroke-linejoin="miter" stroke-opacity="1" stroke-width="1" d="m 10.5,20 0,-7.5"/><path id="path6924" fill="none" stroke="#fff" stroke-linecap="butt" stroke-linejoin="miter" stroke-opacity="1" stroke-width="1" d="m 16.5,20 0,-11"/><path id="path6920" fill="none" stroke="url(#linearGradient4199)" stroke-linecap="butt" stroke-linejoin="miter" stroke-opacity="1" stroke-width="1" d="m -1.484375,8.5 c 0,0.5073099 0.071245,0.89605 0.453125,1.09375 l 10.375,1.96875 c 0.031746,0.0089 0.063034,0.01929 0.09375,0.03125 0.3473985,0.173004 0.672341,0.48439 0.84375,0.84375 C 10.452659,12.79686 10.5,13.165442 10.5,13.5 l 0,-4 -1,0 c -1,0 -1.6574952,-0.2320194 -1.9005631,-1 l -9.0838119,0 z"/></g></g></svg>