<svg xmlns="http://www.w3.org/2000/svg" xmlns:svg="http://www.w3.org/2000/svg" xmlns:xlink="http://www.w3.org/1999/xlink" id="svg5954" width="48" height="48" version="1.0"><defs id="defs5956"><radialGradient id="radialGradient5928" cx="605.714" cy="486.648" r="117.143" fx="605.714" fy="486.648" gradientTransform="matrix(0.0628545,0,0,0.02058823,1.294955,34.451367)" gradientUnits="userSpaceOnUse" xlink:href="#linearGradient5060"/><linearGradient id="linearGradient5048"><stop id="stop5050" offset="0" stop-color="#000" stop-opacity="0"/><stop id="stop5056" offset=".5" stop-color="#000" stop-opacity="1"/><stop id="stop5052" offset="1" stop-color="#000" stop-opacity="0"/></linearGradient><linearGradient id="linearGradient5931" x1="302.857" x2="302.857" y1="366.648" y2="609.505" gradientTransform="matrix(0.0628545,0,0,0.02058823,1.2825853,34.451367)" gradientUnits="userSpaceOnUse" xlink:href="#linearGradient5048"/><linearGradient id="linearGradient5060"><stop id="stop5062" offset="0" stop-color="#000" stop-opacity="1"/><stop id="stop5064" offset="1" stop-color="#000" stop-opacity="0"/></linearGradient><radialGradient id="radialGradient5934" cx="605.714" cy="486.648" r="117.143" fx="605.714" fy="486.648" gradientTransform="matrix(-0.0628545,0,0,0.02058823,46.705044,34.451367)" gradientUnits="userSpaceOnUse" xlink:href="#linearGradient5060"/><linearGradient id="linearGradient18344"><stop id="stop18346" offset="0" stop-color="#2f3537" stop-opacity="1"/><stop id="stop18354" offset=".3" stop-color="#8a8e8e" stop-opacity="1"/><stop id="stop18348" offset="1" stop-color="#2f3537" stop-opacity="1"/></linearGradient><linearGradient id="linearGradient5809" x1="8.563" x2="8.563" y1="4.647" y2="45.818" gradientTransform="translate(-52.000001,7.0000005)" gradientUnits="userSpaceOnUse" xlink:href="#linearGradient18344"/><linearGradient id="linearGradient5428"><stop id="stop5430" offset="0" stop-color="#7a7c7c" stop-opacity="1"/><stop id="stop5432" offset="1" stop-color="#33393a" stop-opacity="1"/></linearGradient><radialGradient id="radialGradient5807" cx="76.166" cy="14.782" r="21" fx="76.166" fy="14.782" gradientTransform="matrix(4.2066413,1.9378961e-8,0,0.140195,-296.2355,17.11562)" gradientUnits="userSpaceOnUse" xlink:href="#linearGradient5428"/><linearGradient id="linearGradient25793"><stop id="stop25795" offset="0" stop-color="#f0f0f4" stop-opacity="1"/><stop id="stop25819" offset=".037" stop-color="#eeeeec" stop-opacity="1"/><stop id="stop25817" offset=".393" stop-color="#eeeeec" stop-opacity=".696"/><stop id="stop25803" offset=".908" stop-color="#a1a29f" stop-opacity="1"/><stop id="stop25799" offset="1" stop-color="#555753" stop-opacity="1"/></linearGradient><linearGradient id="linearGradient5925" x1="697.914" x2="700.414" y1="327.784" y2="496.338" gradientTransform="matrix(0.153917,0,0,0.1533016,-86.753591,-31.249728)" gradientUnits="userSpaceOnUse" xlink:href="#linearGradient25793"/><linearGradient id="linearGradient26816"><stop id="stop26818" offset="0" stop-color="#fff" stop-opacity="1"/><stop id="stop26820" offset="1" stop-color="#eeeeec" stop-opacity="0"/></linearGradient><radialGradient id="radialGradient5813" cx="400.296" cy="127.655" r="2.022" fx="400.296" fy="127.655" gradientTransform="matrix(1.0866792,3.1905354e-5,-1.447372e-5,0.51096512,-405.46832,-42.408687)" gradientUnits="userSpaceOnUse" xlink:href="#linearGradient26816"/><linearGradient id="linearGradient26830"><stop id="stop26832" offset="0" stop-color="#fff" stop-opacity="1"/><stop id="stop26834" offset="1" stop-color="#fff" stop-opacity="0"/></linearGradient><radialGradient id="radialGradient5815" cx="399.878" cy="127.247" r="2.022" fx="399.878" fy="127.247" gradientTransform="matrix(0.94200013,-0.09311826,0.12194193,0.43760956,-362.48757,4.8425169)" gradientUnits="userSpaceOnUse" xlink:href="#linearGradient26830"/><linearGradient id="linearGradient18403"><stop id="stop18405" offset="0" stop-color="#eeeeec" stop-opacity="1"/><stop id="stop18407" offset="1" stop-color="#eeeeec" stop-opacity="0"/></linearGradient><radialGradient id="radialGradient5821" cx="427.797" cy="33.605" r="74.908" fx="427.797" fy="33.605" gradientTransform="matrix(-0.44826684,0.10225395,-0.0817078,-0.35819255,231.53676,-7.9557424)" gradientUnits="userSpaceOnUse" xlink:href="#linearGradient18403"/><linearGradient id="linearGradient26168"><stop id="stop26170" offset="0" stop-color="#eeeeec" stop-opacity="1"/><stop id="stop26172" offset="1" stop-color="#eeeeec" stop-opacity="0"/></linearGradient><radialGradient id="radialGradient5823" cx="502.531" cy="217.461" r="74.908" fx="502.531" fy="217.461" gradientTransform="matrix(0.10491544,-0.07283053,0.0358709,0.05700892,-24.172091,61.54156)" gradientUnits="userSpaceOnUse" xlink:href="#linearGradient26168"/><linearGradient id="linearGradient26128"><stop id="stop26130" offset="0" stop-color="#eeeeec" stop-opacity=".953"/><stop id="stop26146" offset=".48" stop-color="#eeeeec" stop-opacity="0"/><stop id="stop26148" offset=".523" stop-color="#eeeeec" stop-opacity=".993"/><stop id="stop26132" offset=".632" stop-color="#eeeeec" stop-opacity="0"/><stop id="stop26134" offset=".738" stop-color="#eeeeec" stop-opacity=".235"/><stop id="stop26136" offset=".834" stop-color="#fff" stop-opacity=".716"/><stop id="stop26142" offset=".905" stop-color="#f6f6f5" stop-opacity=".27"/><stop id="stop26144" offset=".905" stop-color="#f2f2f0" stop-opacity=".277"/><stop id="stop26138" offset="1" stop-color="#eeeeec" stop-opacity="0"/></linearGradient><radialGradient id="radialGradient5825" cx="459.453" cy="170.414" r="74.908" fx="459.453" fy="170.414" gradientTransform="matrix(0.15094015,-2.3254373e-8,1.3012887e-8,0.1246858,-39.412358,10.189308)" gradientUnits="userSpaceOnUse" xlink:href="#linearGradient26128"/><linearGradient id="linearGradient26021"><stop id="stop26023" offset="0" stop-color="#eeeeec" stop-opacity="0"/><stop id="stop26029" offset=".867" stop-color="#eeeeec" stop-opacity=".498"/><stop id="stop26025" offset="1" stop-color="#eeeeec" stop-opacity="0"/></linearGradient><radialGradient id="radialGradient5827" cx="449.882" cy="165.516" r="74.908" fx="449.882" fy="165.516" gradientTransform="matrix(0,-0.09650319,0.10560543,0,12.520644,73.487475)" gradientUnits="userSpaceOnUse" xlink:href="#linearGradient26021"/><linearGradient id="linearGradient26120"><stop id="stop26122" offset="0" stop-color="#2e3436" stop-opacity="0"/><stop id="stop26124" offset=".473" stop-color="#2e3436" stop-opacity="0"/><stop id="stop26126" offset="1" stop-color="#0f1112" stop-opacity="1"/></linearGradient><radialGradient id="radialGradient5829" cx="529.399" cy="95.382" r="74.908" fx="529.399" fy="95.382" gradientTransform="matrix(0,0.10037161,-0.10095912,0,39.629636,-21.627207)" gradientUnits="userSpaceOnUse" xlink:href="#linearGradient26120"/><linearGradient id="linearGradient5831" x1="469.359" x2="280.018" y1="126.835" y2="225.83" gradientTransform="matrix(0.09344828,0,0,0.130378,-12.724138,8.5567006)" gradientUnits="userSpaceOnUse" xlink:href="#linearGradient26075"/><linearGradient id="linearGradient26075"><stop id="stop26077" offset="0" stop-color="#555753" stop-opacity="0"/><stop id="stop26079" offset="1" stop-color="#eeeeec" stop-opacity="1"/></linearGradient><radialGradient id="radialGradient5833" cx="344.261" cy="218.661" r="74.908" fx="344.261" fy="218.661" gradientTransform="matrix(-0.01372371,-0.24746993,0.09364198,-0.00554977,14.248685,119.39598)" gradientUnits="userSpaceOnUse" xlink:href="#linearGradient26075"/><radialGradient id="radialGradient5835" cx="469.912" cy="131.835" r="74.908" fx="469.912" fy="131.835" gradientTransform="matrix(-0.14050804,-0.13746232,0.12305994,-0.13042522,83.417301,105.47391)" gradientUnits="userSpaceOnUse" xlink:href="#linearGradient8660"/><linearGradient id="linearGradient8690"><stop id="stop8692" offset="0" stop-color="#3a3a3a" stop-opacity="1"/><stop id="stop8694" offset="1" stop-color="#3a3a3a" stop-opacity="0"/></linearGradient><radialGradient id="radialGradient5839" cx="441.357" cy="130.89" r="75.756" fx="441.357" fy="130.89" gradientTransform="matrix(-0.01286666,-0.08895204,0.29167832,-0.04443724,-2.4991183,72.075071)" gradientUnits="userSpaceOnUse" xlink:href="#linearGradient8690"/><linearGradient id="linearGradient8660"><stop id="stop8662" offset="0" stop-color="#2e3436" stop-opacity="1"/><stop id="stop8664" offset="1" stop-color="#555753" stop-opacity="0"/></linearGradient><radialGradient id="radialGradient5837" cx="434.125" cy="98.975" r="74.908" fx="434.125" fy="98.975" gradientTransform="matrix(-0.15022269,0.1541703,-0.19870422,-0.2039265,114.88214,-19.249106)" gradientUnits="userSpaceOnUse" xlink:href="#linearGradient8660"/><linearGradient id="linearGradient26091"><stop id="stop26093" offset="0" stop-color="#2e3436" stop-opacity="1"/><stop id="stop26095" offset="1" stop-color="#fff" stop-opacity="1"/></linearGradient><linearGradient id="linearGradient5904" x1="457.196" x2="457.196" y1="289.778" y2="114.228" gradientTransform="matrix(0.07245855,0,0,0.1010934,-3.1277259,16.597765)" gradientUnits="userSpaceOnUse" xlink:href="#linearGradient26091"/><linearGradient id="linearGradient26099"><stop id="stop26101" offset="0" stop-color="#eeeeec" stop-opacity="1"/><stop id="stop26103" offset="1" stop-color="#babdb6" stop-opacity="1"/></linearGradient><radialGradient id="radialGradient5902" cx="439.049" cy="111.3" r="75.752" fx="439.049" fy="111.3" gradientTransform="matrix(0.07103447,-0.05670258,0.1154912,0.1536265,-16.569822,39.16591)" gradientUnits="userSpaceOnUse" xlink:href="#linearGradient26099"/><linearGradient id="linearGradient5898" x1="236.75" x2="222.732" y1="171.62" y2="179.039" gradientTransform="matrix(0.1388265,0,0,0.1336725,-3.488592,10.25495)" gradientUnits="userSpaceOnUse" xlink:href="#linearGradient9688"/><linearGradient id="linearGradient9785"><stop id="stop9787" offset="0" stop-color="#eeeeec" stop-opacity="1"/><stop id="stop9789" offset="1" stop-color="#090908" stop-opacity=".966"/></linearGradient><radialGradient id="radialGradient5895" cx="251.69" cy="171.789" r="21.531" fx="251.69" fy="171.789" gradientTransform="matrix(0.04064312,-0.1643825,0.2525347,0.06396113,-20.112272,66.502262)" gradientUnits="userSpaceOnUse" xlink:href="#linearGradient9785"/><linearGradient id="linearGradient9688"><stop id="stop9690" offset="0" stop-color="#eeeeec" stop-opacity="1"/><stop id="stop9692" offset="1" stop-color="#fff" stop-opacity="0"/></linearGradient><radialGradient id="radialGradient5891" cx="258.76" cy="183.644" r="18.578" fx="258.76" fy="183.644" gradientTransform="matrix(0.1736939,-0.00234757,0.0017845,0.1320778,-12.713292,11.071274)" gradientUnits="userSpaceOnUse" xlink:href="#linearGradient9688"/><linearGradient id="linearGradient26371"><stop id="stop26373" offset="0" stop-color="#777" stop-opacity="0"/><stop id="stop26375" offset="1" stop-color="#2b2b2b" stop-opacity="1"/></linearGradient><radialGradient id="radialGradient5851" cx="442.295" cy="62.526" r="77.923" fx="442.295" fy="62.526" gradientTransform="matrix(-1.3016906e-5,-1.389566,0.25862138,0,13.835143,645.59753)" gradientUnits="userSpaceOnUse" xlink:href="#linearGradient26371"/><linearGradient id="linearGradient5853" x1="21.568" x2="24.082" y1="21.016" y2="26.868" gradientTransform="matrix(1.0731708,0,0,1.0757463,4.1530226,-3.3148135)" gradientUnits="userSpaceOnUse" xlink:href="#linearGradient5895"/><filter id="filter9094" width="1.682" height="1.682" x="-.341" y="-.341" color-interpolation-filters="sRGB"><feGaussianBlur id="feGaussianBlur9096" stdDeviation=".286"/></filter><linearGradient id="linearGradient5895"><stop id="stop5897" offset="0" stop-color="#888a85" stop-opacity="1"/><stop id="stop5899" offset="1" stop-color="#fff" stop-opacity="1"/></linearGradient><linearGradient id="linearGradient5855" x1="22.063" x2="24" y1="22.125" y2="24.938" gradientTransform="matrix(0.6736842,0,0,0.6736842,8.1324569,7.0464923)" gradientUnits="userSpaceOnUse" xlink:href="#linearGradient5895"/><linearGradient id="linearGradient2230"><stop id="stop2232" offset="0" stop-color="#eee" stop-opacity="1"/><stop id="stop2234" offset="1" stop-color="#a2a2a2" stop-opacity="1"/></linearGradient><linearGradient id="linearGradient5882" x1="5.335" x2="8.56" y1="29.18" y2="22.713" gradientTransform="matrix(1.1646414,0,0,0.3779147,29.281715,11.163046)" gradientUnits="userSpaceOnUse" xlink:href="#linearGradient2230"/><linearGradient id="linearGradient3301"><stop id="stop3303" offset="0" stop-color="#fff" stop-opacity="1"/><stop id="stop3305" offset="1" stop-color="#d7dbc7" stop-opacity="1"/></linearGradient><linearGradient id="linearGradient5880" x1="6.56" x2="6.56" y1="28.781" y2="30.191" gradientTransform="matrix(1.3054153,0,0,0.9688359,29.158142,-7.1109175)" gradientUnits="userSpaceOnUse" xlink:href="#linearGradient3301"/><radialGradient id="radialGradient5861" cx="9.119" cy="20.823" r="3.177" fx="9.119" fy="20.823" gradientTransform="matrix(0,-0.6051163,2.7541025,0,-42.500543,25.184792)" gradientUnits="userSpaceOnUse" xlink:href="#linearGradient17963"/><linearGradient id="linearGradient17941"><stop id="stop17943" offset="0" stop-color="#e9e9e9" stop-opacity="1"/><stop id="stop17945" offset="0" stop-color="#a7a7a7" stop-opacity="1"/><stop id="stop17947" offset=".529" stop-color="#bebebe" stop-opacity="1"/><stop id="stop17949" offset="1" stop-color="#e7e7e7" stop-opacity="1"/></linearGradient><radialGradient id="radialGradient5863" cx="9.237" cy="17.109" r="2.961" fx="9.237" fy="17.109" gradientTransform="matrix(1.2675248,-4.6716378e-7,1.8899468e-7,0.44533236,3.2923996,9.6308347)" gradientUnits="userSpaceOnUse" xlink:href="#linearGradient17941"/><linearGradient id="linearGradient17963"><stop id="stop17965" offset="0" stop-color="#dee3e0" stop-opacity="1"/><stop id="stop17967" offset="1" stop-color="#dee3e0" stop-opacity="0"/></linearGradient><radialGradient id="radialGradient5874" cx="14.739" cy="12.007" r=".547" fx="14.739" fy="12.007" gradientTransform="matrix(-3.3975546e-6,-2.2551885,3.3831809,-5.4019891e-6,-25.820203,51.246757)" gradientUnits="userSpaceOnUse" xlink:href="#linearGradient17963"/><linearGradient id="linearGradient5404"><stop id="stop5406" offset="0" stop-color="#fff" stop-opacity="1"/><stop id="stop5408" offset="1" stop-color="#fff" stop-opacity="0"/></linearGradient><linearGradient id="linearGradient5870" x1="10.666" x2="11.692" y1="20.521" y2="53.914" gradientTransform="matrix(0.9749792,0,0,0.9582986,0.6004998,0.33444438)" gradientUnits="userSpaceOnUse" xlink:href="#linearGradient5404"/><linearGradient id="linearGradient10695"><stop id="stop10697" offset="0" stop-color="#b100cb" stop-opacity="1"/><stop id="stop10699" offset="1" stop-color="#204a87" stop-opacity="0"/></linearGradient><radialGradient id="radialGradient5947" cx="171.25" cy="188.5" r="19" fx="171.25" fy="188.5" gradientTransform="matrix(0.2327375,0,0,0.2327375,-11.652345,-11.875707)" gradientUnits="userSpaceOnUse" xlink:href="#linearGradient10695"/><linearGradient id="linearGradient2749" x1=".633" x2="79.104" y1="3.09" y2="170.289" gradientTransform="matrix(0.235535,0,5.2452621e-8,0.2044822,25.094409,19.932949)" gradientUnits="userSpaceOnUse" xlink:href="#linearGradient3997"/><linearGradient id="linearGradient3997"><stop id="stop3999" offset="0" stop-color="#f3f7fa" stop-opacity="1"/><stop id="stop4001" offset="1" stop-color="#fdfeff" stop-opacity="1"/></linearGradient><linearGradient id="linearGradient2751" x1="20.253" x2="5.525" y1="40.523" y2="11.735" gradientTransform="matrix(0.3333929,0,0,0.3359124,2.9801845,-1.4923359)" gradientUnits="userSpaceOnUse" xlink:href="#linearGradient4157-401"/><linearGradient id="linearGradient4157-401"><stop id="stop3688" offset="0" stop-color="#262626" stop-opacity="1"/><stop id="stop3690" offset="1" stop-color="#828282" stop-opacity="1"/></linearGradient><radialGradient id="radialGradient2753" cx="34.828" cy="65.617" r="42.271" fx="34.828" fy="65.617" gradientTransform="matrix(0.1481826,0.01025688,-0.00894678,0.1326541,2.7080247,-1.8757458)" gradientUnits="userSpaceOnUse" xlink:href="#linearGradient4342"/><linearGradient id="linearGradient4342"><stop id="stop4344" offset="0" stop-color="#6e8d5d" stop-opacity="1"/><stop id="stop4350" offset=".5" stop-color="#a2ac34" stop-opacity=".498"/><stop id="stop4352" offset=".75" stop-color="#cbbd40" stop-opacity=".247"/><stop id="stop4354" offset=".875" stop-color="#dbc146" stop-opacity=".122"/><stop id="stop4346" offset="1" stop-color="#ff480f" stop-opacity=".133"/></linearGradient><linearGradient id="linearGradient2755" x1=".633" x2="79.104" y1="3.09" y2="170.289" gradientTransform="matrix(0.235535,0,5.2452621e-8,0.2044822,-28.669682,14.794629)" gradientUnits="userSpaceOnUse" xlink:href="#linearGradient3997"/><linearGradient id="linearGradient2757" x1="20.253" x2="5.525" y1="40.523" y2="11.735" gradientTransform="matrix(0.3333929,0,0,0.3359124,2.9801845,-1.4923359)" gradientUnits="userSpaceOnUse" xlink:href="#linearGradient4157-401"/><radialGradient id="radialGradient2759" cx="34.828" cy="65.617" r="42.271" fx="34.828" fy="65.617" gradientTransform="matrix(0.1481826,0.01025688,-0.00894678,0.1326541,2.7080247,-1.8757458)" gradientUnits="userSpaceOnUse" xlink:href="#linearGradient4342"/><radialGradient id="radialGradient3080" cx="605.714" cy="486.648" r="117.143" fx="605.714" fy="486.648" gradientTransform="matrix(-0.0628545,0,0,0.02058823,46.705044,34.451367)" gradientUnits="userSpaceOnUse" xlink:href="#linearGradient5060"/><linearGradient id="linearGradient3082" x1="302.857" x2="302.857" y1="366.648" y2="609.505" gradientTransform="matrix(0.0628545,0,0,0.02058823,1.2825853,34.451367)" gradientUnits="userSpaceOnUse" xlink:href="#linearGradient5048"/><radialGradient id="radialGradient3084" cx="605.714" cy="486.648" r="117.143" fx="605.714" fy="486.648" gradientTransform="matrix(0.0628545,0,0,0.02058823,1.294955,34.451367)" gradientUnits="userSpaceOnUse" xlink:href="#linearGradient5060"/></defs><g id="g2738" transform="matrix(1.0000049,0,0,1,56.753359,-11.954997)"><g id="g2637" transform="matrix(0.8660254,-0.5,0.5,0.8660254,-71.467656,12.955209)"><rect id="rect2629" width="20.904" height="20.912" x="23.64" y="25.625" fill="url(#linearGradient2749)" fill-opacity="1" stroke="#909090" stroke-dasharray="none" stroke-linecap="round" stroke-linejoin="round" stroke-miterlimit="4" stroke-opacity=".969" stroke-width="1.007" transform="matrix(0.9999985,-0.00173547,-0.0021096,0.9999978,0,0)"/><g id="g2631" transform="matrix(1.5596157,0,0,1.5535392,21.529395,23.56036)"><rect id="rect2633" width="10.867" height="9.622" x="2.578" y="2.567" fill="url(#linearGradient2751)" fill-opacity="1" stroke="#333" stroke-dasharray="none" stroke-linecap="round" stroke-linejoin="round" stroke-miterlimit="4" stroke-opacity=".969" stroke-width=".656" rx="0" ry="0" transform="matrix(0.9999984,-0.00178851,-0.00204705,0.9999979,0,0)"/><rect id="rect2635" width="10.867" height="9.622" x="2.578" y="2.567" fill="url(#radialGradient2753)" fill-opacity="1" stroke="none" opacity=".35" rx="0" ry="0" transform="matrix(0.9999984,-0.00178851,-0.00204705,0.9999979,0,0)"/></g></g><rect id="rect2722" width="20.904" height="20.912" x="-30.124" y="20.487" fill="url(#linearGradient2755)" fill-opacity="1" stroke="#909090" stroke-dasharray="none" stroke-linecap="round" stroke-linejoin="round" stroke-miterlimit="4" stroke-opacity=".969" stroke-width="1.007" transform="matrix(0.9999985,-0.00173547,-0.0021096,0.9999978,0,0)"/><g id="g2724" transform="matrix(1.5596157,0,0,1.5535392,-32.223775,18.515357)"><rect id="rect2726" width="10.867" height="9.622" x="2.578" y="2.567" fill="url(#linearGradient2757)" fill-opacity="1" stroke="#333" stroke-dasharray="none" stroke-linecap="round" stroke-linejoin="round" stroke-miterlimit="4" stroke-opacity=".969" stroke-width=".656" rx="0" ry="0" transform="matrix(0.9999984,-0.00178851,-0.00204705,0.9999979,0,0)"/><rect id="rect2728" width="10.867" height="9.622" x="2.578" y="2.567" fill="url(#radialGradient2759)" fill-opacity="1" stroke="none" opacity=".35" rx="0" ry="0" transform="matrix(0.9999984,-0.00178851,-0.00204705,0.9999979,0,0)"/></g></g><g id="layer1" transform="translate(-2,0)"><g id="g3072" opacity=".3" transform="matrix(0.66923707,0,0,1,19.545857,-15)"><path id="path3074" fill="url(#radialGradient3080)" fill-opacity="1" fill-rule="nonzero" stroke="none" stroke-width="1" d="m 8.8251297,42.000171 c 0,0 0,4.999724 0,4.999724 C 5.5882785,47.009307 0.99999808,45.879711 1,44.499712 c 0,-1.38 3.6120828,-2.49954 7.8251297,-2.499541 l 0,0 z" display="inline" overflow="visible" visibility="visible" style="marker:none"/><rect id="rect3076" width="30.35" height="5" x="8.825" y="42" fill="url(#linearGradient3082)" fill-opacity="1" fill-rule="nonzero" stroke="none" stroke-width="1" display="inline" overflow="visible" visibility="visible" style="marker:none"/><path id="path3078" fill="url(#radialGradient3084)" fill-opacity="1" fill-rule="nonzero" stroke="none" stroke-width="1" d="m 39.174869,42.000171 c 0,0 0,4.999724 0,4.999724 3.236851,0.0094 7.825131,-1.120184 7.825129,-2.500183 0,-1.38 -3.612082,-2.49954 -7.825129,-2.499541 l 0,0 z" display="inline" overflow="visible" visibility="visible" style="marker:none"/></g><g id="g5936" opacity=".3" transform="translate(0,-0.99999952)"><path id="path5387" fill="url(#radialGradient5934)" fill-opacity="1" fill-rule="nonzero" stroke="none" stroke-width="1" d="m 8.8251297,42.000171 c 0,0 0,4.999724 0,4.999724 C 5.5882785,47.009307 0.99999808,45.879711 1,44.499712 c 0,-1.38 3.6120828,-2.49954 7.8251297,-2.499541 l 0,0 z" display="inline" overflow="visible" visibility="visible" style="marker:none"/><rect id="rect5373" width="30.35" height="5" x="8.825" y="42" fill="url(#linearGradient5931)" fill-opacity="1" fill-rule="nonzero" stroke="none" stroke-width="1" display="inline" overflow="visible" visibility="visible" style="marker:none"/><path id="path5375" fill="url(#radialGradient5928)" fill-opacity="1" fill-rule="nonzero" stroke="none" stroke-width="1" d="m 39.174869,42.000171 c 0,0 0,4.999724 0,4.999724 3.236851,0.0094 7.825131,-1.120184 7.825129,-2.500183 0,-1.38 -3.612082,-2.49954 -7.825129,-2.499541 l 0,0 z" display="inline" overflow="visible" visibility="visible" style="marker:none"/></g><rect id="rect5438" width="40.99" height="26.99" x="3.505" y="16.505" fill="url(#radialGradient5807)" fill-opacity="1" fill-rule="nonzero" stroke="url(#linearGradient5809)" stroke-dasharray="none" stroke-linecap="round" stroke-linejoin="round" stroke-miterlimit="4" stroke-opacity="1" stroke-width="1.01" rx="2.475" ry="2.1"/><rect id="rect5445" width="40" height="24" x="4" y="19" fill="url(#linearGradient5925)" fill-opacity="1" fill-rule="nonzero" stroke="none" rx="1.657" ry="1.657"/><path id="path5451" fill="url(#radialGradient5813)" fill-opacity="1" fill-rule="nonzero" stroke="none" d="m 32.239786,21.383294 a 2.7165095,2.6372042 0 0 1 -5.433019,0 2.7165095,2.6372042 0 1 1 5.433019,0 z" opacity=".272"/><path id="path5453" fill="url(#radialGradient5815)" fill-opacity="1" fill-rule="nonzero" stroke="none" d="m 32.227403,22.660547 a 2.7041266,1.8093908 0 1 1 -5.408253,0 2.7041266,1.8093908 0 1 1 5.408253,0 z"/><path id="path5463" fill="url(#radialGradient5821)" fill-opacity="1" fill-rule="nonzero" stroke="none" d="m 39.999996,31.000002 a 9.9999967,10 0 0 1 -19.999993,0 9.9999967,10 0 1 1 19.999993,0 z"/><path id="path5465" fill="#888a85" fill-opacity="1" fill-rule="nonzero" stroke="none" d="m 39.000001,31.000002 a 9.000001,9.000002 0 0 1 -18.000002,0 9.000001,9.000002 0 1 1 18.000002,0 z"/><path id="path5467" fill="url(#radialGradient5823)" fill-opacity="1" fill-rule="nonzero" stroke="none" d="m 41,31.000002 a 11,10.999999 0 0 1 -22,0 11,10.999999 0 1 1 22,0 z"/><path id="path5469" fill="url(#radialGradient5825)" fill-opacity="1" fill-rule="nonzero" stroke="none" d="m 39.937496,31.437502 a 9.9999967,10 0 0 1 -19.999993,0 9.9999967,10 0 1 1 19.999993,0 z"/><path id="path5471" fill="url(#radialGradient5827)" fill-opacity="1" fill-rule="nonzero" stroke="none" d="m 38.069137,30.662517 a 8.0691375,7.8188965 0 0 1 -16.138275,0 8.0691375,7.8188965 0 1 1 16.138275,0 z"/><path id="path5473" fill="url(#radialGradient5829)" fill-opacity="1" fill-rule="nonzero" stroke="none" d="m 37,31.000001 a 7,6.9999997 0 0 1 -14,0 7,6.9999997 0 1 1 14,0 z" opacity=".851"/><path id="path5475" fill="url(#linearGradient5831)" fill-opacity="1" fill-rule="nonzero" stroke="none" d="m 37,30.999999 a 7,6.9999997 0 0 1 -14,0 7,6.9999997 0 1 1 14,0 z"/><path id="path5477" fill="url(#radialGradient5833)" fill-opacity="1" fill-rule="nonzero" stroke="none" d="m 37,32.000001 a 7,6.9999997 0 0 1 -14,0 7,6.9999997 0 1 1 14,0 z"/><path id="path5479" fill="url(#radialGradient5835)" fill-opacity="1" fill-rule="nonzero" stroke="none" d="m 35.733809,31.947615 a 5.7662596,6.0000012 0 0 1 -11.532519,0 5.7662596,6.0000012 0 1 1 11.532519,0 z" opacity=".54"/><path id="path5481" fill="url(#radialGradient5837)" fill-opacity="1" fill-rule="nonzero" stroke="url(#radialGradient5839)" stroke-dasharray="none" stroke-linecap="round" stroke-linejoin="round" stroke-miterlimit="4" stroke-opacity="1" stroke-width=".148" d="m 35.675752,32.499998 a 5.6757523,5.4257541 0 0 1 -11.351504,0 5.6757523,5.4257541 0 1 1 11.351504,0 z"/><path id="path5483" fill="url(#radialGradient5902)" fill-opacity="1" fill-rule="nonzero" stroke="url(#linearGradient5904)" stroke-linecap="round" stroke-linejoin="round" stroke-miterlimit="4" stroke-opacity="1" stroke-width=".145" d="m 35.427707,33.999999 c 0,2.996094 -2.431612,5.427707 -5.427706,5.427707 -2.996095,0 -5.427707,-2.431613 -5.427707,-5.427707 0,-2.996094 2.431612,-5.427706 5.427707,-5.427706 2.996094,0 5.427706,2.431612 5.427706,5.427706 z"/><path id="path5485" fill="#2e3436" fill-opacity="1" fill-rule="nonzero" stroke="none" d="m 34.500003,33.999999 a 4.5000005,4.4999999 0 0 1 -9.000001,0 4.5000005,4.4999999 0 1 1 9.000001,0 z"/><path id="path5487" fill="url(#linearGradient5898)" fill-opacity="1" fill-rule="nonzero" stroke="none" d="m 29.224229,31.465769 c -0.08496,0.02653 -0.166394,0.05752 -0.247284,0.0919 0.08079,-0.03461 0.162402,-0.06518 0.247284,-0.0919 z m 1.770037,0.05013 c 0.035,0.01321 0.06988,0.02718 0.104119,0.04177 -0.03437,-0.01461 -0.06898,-0.02856 -0.104119,-0.04177 z m -2.30799,0.187978 c -0.05662,0.03268 -0.111145,0.06787 -0.164856,0.104431 0.05331,-0.03657 0.108691,-0.07167 0.164856,-0.104431 z m -0.164856,0.104431 c -0.06461,0.04398 -0.126483,0.08859 -0.186548,0.137851 0.05929,-0.04879 0.12287,-0.09417 0.186548,-0.137851 z m 3.275435,0.187976 c 0.03712,0.0324 0.07334,0.06589 0.10846,0.100255 -0.03511,-0.03423 -0.07136,-0.06799 -0.10846,-0.100255 z m -3.527058,0.0084 c -0.04762,0.0418 -0.09456,0.08446 -0.138826,0.129494 0.04437,-0.04514 0.09114,-0.08753 0.138826,-0.129494 z m -0.138826,0.129494 c -0.337371,0.343176 -0.576233,0.775145 -0.668103,1.257357 -2.56e-4,0.0014 2.57e-4,0.0028 0,0.0042 l 0,0.889756 c 0.139176,0.737501 0.617471,1.360689 1.275467,1.721032 l 2.598658,0 c 0.630444,-0.345254 1.093455,-0.931772 1.253776,-1.629131 l 0,-0.0084 0,-1.056849 c -0.07134,-0.315241 -0.20296,-0.610163 -0.38611,-0.86887 -0.142471,-0.183507 -0.307297,-0.316538 -0.485892,-0.388484 l -3.488015,0 c -0.03512,0.02614 -0.06746,0.05237 -0.09978,0.07937 z m -0.668103,2.151289 c -0.01352,-0.07159 -0.02313,-0.143223 -0.03037,-0.217217 0.007,0.07375 0.01683,0.145448 0.03037,0.217217 z m 0,-0.889756 c -0.01357,0.07192 -0.0234,0.143307 -0.03037,0.217218 0.0072,-0.07297 0.01685,-0.145668 0.03037,-0.217218 z m 4.559579,-1.182166 c 0.02542,0.02829 0.04966,0.05836 0.07375,0.08772 -0.02444,-0.02974 -0.04796,-0.05908 -0.07375,-0.08772 z M 29.19386,36.20283 c 0.05283,0.01722 0.10623,0.03193 0.160519,0.04595 -0.05432,-0.01407 -0.107653,-0.02866 -0.160519,-0.04595 z m 1.687608,0 c -0.05312,0.01729 -0.105923,0.03188 -0.160518,0.04595 0.05429,-0.01402 0.107687,-0.02874 0.160518,-0.04595 z" opacity=".233"/><path id="path5489" fill="url(#radialGradient5895)" fill-opacity="1" fill-rule="nonzero" stroke="none" d="M 27.734397,31 C 27.199058,31.384728 26.769271,31.903512 26.5,32.501286 l 0,2.946014 c 0.281948,0.626338 0.73926,1.16274 1.310595,1.5527 l 4.429609,0 C 32.779456,36.631463 33.21596,36.132146 33.5,35.550129 l 0,-3.146529 C 33.22859,31.84711 32.818028,31.363348 32.31132,31 l -4.576923,0 z" opacity=".376"/><path id="path5491" fill="#2e3436" fill-opacity="1" fill-rule="nonzero" stroke="none" d="m 29.23377,31.403269 c -0.08393,0.02688 -0.164378,0.05827 -0.244289,0.0931 0.07981,-0.03506 0.160435,-0.06603 0.244289,-0.0931 z m 1.74859,0.05078 c 0.03457,0.01338 0.06903,0.02754 0.102857,0.04232 -0.03396,-0.0148 -0.06815,-0.02893 -0.102857,-0.04232 z m -2.280025,0.190434 c -0.05593,0.03311 -0.109799,0.06876 -0.162859,0.105796 0.05266,-0.03705 0.107374,-0.07261 0.162859,-0.105796 z m -0.162859,0.105796 c -0.06383,0.04455 -0.12495,0.08974 -0.184288,0.139652 0.05858,-0.04943 0.121382,-0.0954 0.184288,-0.139652 z m 3.235748,0.190432 c 0.03667,0.03282 0.07245,0.06675 0.107146,0.101566 -0.03468,-0.03468 -0.07049,-0.06888 -0.107146,-0.101566 z m -3.484322,0.0085 c -0.04705,0.04235 -0.09341,0.08557 -0.137144,0.131186 0.04384,-0.04573 0.09004,-0.08867 0.137144,-0.131186 z m -0.137144,0.131186 c -0.333283,0.34766 -0.569251,0.785275 -0.660008,1.273785 -2.53e-4,0.0014 2.54e-4,0.0029 0,0.0042 l 0,0.901383 c 0.13749,0.747139 0.609989,1.378469 1.260013,1.743522 l 2.567171,0 c 0.622805,-0.349767 1.080207,-0.943949 1.238585,-1.65042 l 0,-0.0085 0,-1.07066 c -0.07047,-0.319362 -0.200501,-0.618136 -0.381432,-0.880224 -0.140744,-0.185905 -0.303573,-0.320674 -0.480005,-0.393561 l -3.445752,0 c -0.03469,0.02648 -0.06665,0.05306 -0.09857,0.0804 z m -0.660008,2.1794 c -0.01335,-0.07252 -0.02285,-0.145094 -0.03,-0.220056 0.0069,0.07472 0.01662,0.14735 0.03,0.220056 z m 0,-0.901383 c -0.01341,0.07286 -0.02312,0.14518 -0.03,0.220057 0.0071,-0.07392 0.01665,-0.147572 0.03,-0.220057 z m 4.504333,-1.197613 c 0.02511,0.02866 0.04905,0.05912 0.07286,0.08887 -0.02414,-0.03013 -0.04738,-0.05985 -0.07286,-0.08887 z m -2.794314,4.041413 c 0.05219,0.01744 0.104943,0.03235 0.158573,0.04655 -0.05367,-0.01425 -0.106348,-0.02904 -0.158573,-0.04655 z m 1.66716,0 c -0.05248,0.01752 -0.10464,0.0323 -0.158574,0.04655 0.05363,-0.0142 0.106383,-0.02911 0.158574,-0.04655 z"/><path id="path5493" fill="url(#radialGradient5891)" fill-opacity="1" fill-rule="nonzero" stroke="none" d="m 29.23377,31.340769 c -0.08393,0.02723 -0.164378,0.05903 -0.244289,0.0943 0.07981,-0.03551 0.160435,-0.06688 0.244289,-0.0943 z m 1.74859,0.05144 c 0.03457,0.01355 0.06903,0.02789 0.102857,0.04286 -0.03396,-0.01499 -0.06815,-0.0293 -0.102857,-0.04286 z M 28.702335,31.5851 c -0.05593,0.03353 -0.109799,0.06965 -0.162859,0.10716 0.05266,-0.03753 0.107374,-0.07354 0.162859,-0.10716 z m -0.162859,0.10716 c -0.06383,0.04513 -0.12495,0.0909 -0.184288,0.141454 0.05858,-0.05006 0.121382,-0.09663 0.184288,-0.141454 z m 3.235748,0.192889 c 0.03667,0.03325 0.07245,0.06761 0.107146,0.102875 -0.03468,-0.03512 -0.07049,-0.06977 -0.107146,-0.102875 z m -3.484322,0.0086 c -0.04705,0.0429 -0.09341,0.08667 -0.137144,0.132879 0.04384,-0.04632 0.09004,-0.08982 0.137144,-0.132879 z m -0.137144,0.132879 c -0.333283,0.352144 -0.569251,0.795402 -0.660008,1.290216 -2.53e-4,0.0014 2.54e-4,0.0029 0,0.0043 l 0,0.91301 c 0.13749,0.756775 0.609989,1.396249 1.260013,1.76601 l 2.567171,0 c 0.622805,-0.354277 1.080207,-0.956123 1.238585,-1.671707 l 0,-0.0086 0,-1.084469 C 32.489049,32.911907 32.359018,32.609278 32.178087,32.34381 32.037343,32.155507 31.874514,32.019 31.698082,31.945173 l -3.445752,0 c -0.03469,0.02682 -0.06665,0.05374 -0.09857,0.08144 z M 27.49375,34.23411 c -0.01335,-0.07346 -0.02285,-0.146966 -0.03,-0.222894 0.0069,0.07568 0.01662,0.149249 0.03,0.222894 z m 0,-0.91301 c -0.01341,0.0738 -0.02312,0.147053 -0.03,0.222896 0.0071,-0.07488 0.01665,-0.149475 0.03,-0.222896 z m 4.504333,-1.21306 c 0.02511,0.02903 0.04905,0.05988 0.07286,0.09002 -0.02414,-0.03052 -0.04738,-0.06063 -0.07286,-0.09002 z m -2.794314,4.093542 c 0.05219,0.01767 0.104943,0.03277 0.158573,0.04715 -0.05367,-0.01444 -0.106348,-0.02941 -0.158573,-0.04715 z m 1.66716,0 c -0.05248,0.01774 -0.10464,0.03271 -0.158574,0.04715 0.05363,-0.01438 0.106383,-0.02949 0.158574,-0.04715 z" opacity=".233"/><path id="path5495" fill="#000" fill-opacity=".505" fill-rule="nonzero" stroke="none" d="m 30.011649,31.993625 c -1.029845,-2e-6 -1.875226,0.772948 -1.985097,1.763224 -0.0046,0.04174 -0.008,0.08347 -0.0099,0.125946 -0.0014,0.0304 -0.005,0.05994 -0.005,0.09068 0,0.0067 -6.7e-5,0.01348 0,0.02015 -6.7e-5,0.0067 0,0.01346 0,0.02015 6.05e-4,0.03001 0.003,0.06102 0.005,0.09068 0.002,0.04247 0.0053,0.08421 0.0099,0.125946 0.109868,0.990277 0.955252,1.763224 1.985097,1.763224 1.029844,0 1.875226,-0.772947 1.985095,-1.763224 0.0046,-0.04174 0.008,-0.08347 0.0099,-0.125946 0.0024,-0.03624 0.0046,-0.07407 0.005,-0.110831 -3.7e-4,-0.03675 -0.0026,-0.0746 -0.005,-0.110829 -0.002,-0.04247 -0.0053,-0.08421 -0.0099,-0.125946 -0.109868,-0.990279 -0.955252,-1.763224 -1.985095,-1.763224 z"/><path id="path5497" fill="none" stroke="url(#radialGradient5851)" stroke-dasharray="none" stroke-linecap="round" stroke-linejoin="round" stroke-miterlimit="4" stroke-opacity="1" stroke-width="1" d="m 40.516276,31.000002 a 10.516276,10.516273 0 0 1 -21.032552,0 10.516276,10.516273 0 1 1 21.032552,0 z"/><path id="path5499" fill="#2e3436" fill-opacity="1" fill-rule="evenodd" stroke="url(#linearGradient5853)" stroke-dasharray="none" stroke-dashoffset="0" stroke-linecap="butt" stroke-linejoin="miter" stroke-miterlimit="10" stroke-opacity="1" stroke-width=".977" d="m 30.51278,21.494585 a 2.0121953,2.0170243 0 0 1 -4.02439,0 2.0121953,2.0170243 0 1 1 4.02439,0 z" display="inline" enable-background="accumulate" overflow="visible" visibility="visible" style="marker:none"/><path id="path5501" fill="#000" fill-opacity="1" fill-rule="evenodd" stroke="none" stroke-width=".1" d="m 29.3341,21.502273 a 0.8192095,0.82117554 0 0 1 -1.638419,0 0.8192095,0.82117554 0 1 1 1.638419,0 z" display="inline" enable-background="accumulate" opacity=".347" overflow="visible" visibility="visible" style="marker:none"/><path id="path5503" fill="#fff" fill-opacity="1" fill-rule="evenodd" stroke="none" stroke-width=".1" d="m 28.416853,16.44536 a 0.8396895,0.8396895 0 1 1 -1.679379,0 0.8396895,0.8396895 0 1 1 1.679379,0 z" display="inline" enable-background="accumulate" filter="url(#filter9094)" opacity=".306" overflow="visible" transform="matrix(0.6931964,0,0,0.69486,9.7649877,10.773344)" visibility="visible" style="marker:none"/><path id="path5505" fill="#2e3436" fill-opacity="1" fill-rule="evenodd" stroke="url(#linearGradient5855)" stroke-dasharray="none" stroke-dashoffset="0" stroke-linecap="butt" stroke-linejoin="miter" stroke-miterlimit="10" stroke-opacity="1" stroke-width=".474" d="m 24.679825,22.583334 a 1.263158,1.263158 0 0 1 -2.526316,0 1.263158,1.263158 0 1 1 2.526316,0 z" display="inline" enable-background="accumulate" overflow="visible" visibility="visible" style="marker:none"/><rect id="rect5507" width="8.24" height="2.24" x="34.38" y="20.38" fill="url(#linearGradient5880)" fill-opacity="1" fill-rule="nonzero" stroke="url(#linearGradient5882)" stroke-dashoffset="0" stroke-linecap="butt" stroke-linejoin="miter" stroke-miterlimit="4" stroke-opacity="1" stroke-width=".76" display="inline" font-family="Bitstream Vera Sans" overflow="visible" rx=".93" ry=".795" visibility="visible" style="marker:none"/><path id="path5511" fill="#2e3436" fill-opacity="1" fill-rule="evenodd" stroke="url(#radialGradient5861)" stroke-dasharray="none" stroke-dashoffset="0" stroke-linecap="butt" stroke-linejoin="miter" stroke-miterlimit="10" stroke-opacity=".996" stroke-width=".496" d="m 18.728132,17.870977 a 3.7306972,1.6167659 0 1 1 -7.461394,0 3.7306972,1.6167659 0 1 1 7.461394,0 z" display="inline" enable-background="accumulate" overflow="visible" visibility="visible" style="marker:none"/><path id="path5513" fill="url(#radialGradient5863)" fill-opacity="1" fill-rule="evenodd" stroke="none" stroke-width=".377" d="m 18,17.25 a 3,1.25 0 0 1 -6,0 3,1.25 0 1 1 6,0 z" display="inline" enable-background="accumulate" overflow="visible" visibility="visible" style="marker:none"/><rect id="rect5515" width="1.443" height="1.461" x="14.162" y="17.96" fill="#2e3436" fill-opacity="1" fill-rule="nonzero" stroke="url(#radialGradient5874)" stroke-dasharray="none" stroke-linecap="butt" stroke-linejoin="round" stroke-miterlimit="0" stroke-opacity="1" stroke-width=".302" rx=".512" ry=".556"/><rect id="rect5519" width="38.999" height="22.999" x="4.5" y="19.5" fill="none" stroke="url(#linearGradient5870)" stroke-dasharray="none" stroke-linecap="round" stroke-linejoin="round" stroke-miterlimit="4" stroke-opacity="1" stroke-width="1.001" opacity=".4" rx="1.316" ry="1.316"/><path id="path10013" fill="url(#radialGradient5947)" fill-opacity="1" fill-rule="evenodd" stroke="none" stroke-width=".945" d="m 33.5,34.297938 c 0,1.932997 -1.567004,3.5 -3.5,3.5 -1.932996,0 -3.5,-1.567003 -3.5,-3.5 0,-1.932997 1.567004,-3.5 3.5,-3.5 1.932996,0 3.5,1.567003 3.5,3.5 z" display="inline" enable-background="accumulate" opacity=".8" overflow="visible" visibility="visible" style="marker:none"/><rect id="rect5950" width="2" height="10" x="11" y="27" fill="#eeeeec" fill-opacity="1" fill-rule="nonzero" stroke="none" stroke-width="1" display="inline" enable-background="accumulate" opacity=".5" overflow="visible" rx="1" ry="1" visibility="visible" style="marker:none"/><rect id="rect5952" width="2" height="8" x="15" y="28" fill="#555753" fill-opacity="1" fill-rule="nonzero" stroke="none" stroke-width="1" display="inline" enable-background="accumulate" opacity=".2" overflow="visible" rx="1" ry="1" visibility="visible" style="marker:none"/></g></svg>