<svg xmlns="http://www.w3.org/2000/svg" xmlns:svg="http://www.w3.org/2000/svg" xmlns:xlink="http://www.w3.org/1999/xlink" id="svg4410" width="48" height="48" version="1.1"><defs id="defs4412"><radialGradient id="radialGradient4175" cx="24" cy="24" r="17" fx="24" fy="24" gradientUnits="userSpaceOnUse" xlink:href="#linearGradient3301-6"/><linearGradient id="linearGradient3301-6"><stop id="stop3303-3" offset="0" stop-color="#fff" stop-opacity="0"/><stop id="stop3309-8" offset=".7" stop-color="#fff" stop-opacity="0"/><stop id="stop3305-5" offset="1" stop-color="#000" stop-opacity="1"/></linearGradient><linearGradient id="linearGradient4177" x1="29.05" x2="29.05" y1="7.028" y2="26.494" gradientTransform="matrix(1,0,0,-1,1e-6,47.999998)" gradientUnits="userSpaceOnUse" xlink:href="#linearGradient3708-5"/><linearGradient id="linearGradient3708-5"><stop id="stop3710-0" offset="0" stop-color="#000" stop-opacity="1"/><stop id="stop3712-9" offset="1" stop-color="#000" stop-opacity="1"/></linearGradient><radialGradient id="radialGradient4186" cx="27.412" cy="12.08" r="18" fx="27.412" fy="12.08" gradientTransform="matrix(1.7637903e-8,1.7731075,-2.6591116,2.6451386e-8,59.480377,-17.99927)" gradientUnits="userSpaceOnUse" xlink:href="#linearGradient3268-9"/><linearGradient id="linearGradient3268-9"><stop id="stop3270-3" offset="0" stop-color="#fff" stop-opacity="1"/><stop id="stop3272-9" offset="1" stop-color="#d8d8d8" stop-opacity="1"/></linearGradient><linearGradient id="linearGradient4188" x1="29.05" x2="29.05" y1="7.028" y2="40.32" gradientTransform="matrix(1.0606061,0,0,1.060606,-1.454547,-1.4545434)" gradientUnits="userSpaceOnUse" xlink:href="#linearGradient4190"/><linearGradient id="linearGradient4190"><stop id="stop4192" offset="0" stop-color="#737373" stop-opacity=".816"/><stop id="stop4194" offset="1" stop-color="gray" stop-opacity="1"/></linearGradient><linearGradient id="linearGradient3212" x1="24.398" x2="24.398" y1="16.602" y2="34.602" gradientTransform="translate(-0.3976755,0.3981273)" gradientUnits="userSpaceOnUse" xlink:href="#linearGradient3996"/><linearGradient id="linearGradient3996"><stop id="stop3998" offset="0" stop-color="#fff" stop-opacity="1"/><stop id="stop4000" offset="1" stop-color="#fff" stop-opacity="0"/></linearGradient><radialGradient id="radialGradient3220" cx="24" cy="31.844" r="21" fx="24" fy="31.844" gradientTransform="matrix(1.3355944,0,0,1.3711485,-8.0540458,-11.86843)" gradientUnits="userSpaceOnUse" xlink:href="#linearGradient4146"/><linearGradient id="linearGradient4146"><stop id="stop4150" offset="0" stop-color="gray" stop-opacity="1"/><stop id="stop4152" offset=".922" stop-color="#d7d7d8" stop-opacity="1"/><stop id="stop4154" offset="1" stop-color="#f0f0f0" stop-opacity="1"/></linearGradient><linearGradient id="linearGradient3222" x1="16" x2="16" y1="45" y2="3" gradientUnits="userSpaceOnUse" xlink:href="#linearGradient4008-764-3-0"/><linearGradient id="linearGradient4008-764-3-0"><stop id="stop4334-7-6" offset="0" stop-color="#595959" stop-opacity="1"/><stop id="stop4336-8-0" offset="1" stop-color="#b3b3b3" stop-opacity="1"/></linearGradient><radialGradient id="radialGradient3225" cx="62.625" cy="4.625" r="10.625" fx="62.625" fy="4.625" gradientTransform="matrix(2.1647059,0,0,0.7529402,-111.56471,36.517647)" gradientUnits="userSpaceOnUse" xlink:href="#linearGradient8838"/><linearGradient id="linearGradient8838"><stop id="stop8840" offset="0" stop-color="#000" stop-opacity="1"/><stop id="stop8842" offset="1" stop-color="#000" stop-opacity="0"/></linearGradient><linearGradient id="linearGradient4322" x1="23.576" x2="23.576" y1="25.357" y2="31.211" gradientTransform="matrix(0.64002614,-0.64293065,0.66265935,0.68318553,-1.6366349,11.550133)" gradientUnits="userSpaceOnUse" spreadMethod="pad" xlink:href="#linearGradient3155-40-6"/><linearGradient id="linearGradient3155-40-6"><stop id="stop2646-8" offset="0" stop-color="#181818" stop-opacity="1"/><stop id="stop2543-8" offset=".135" stop-color="#dbdbdb" stop-opacity="1"/><stop id="stop2545-6" offset=".202" stop-color="#a4a4a4" stop-opacity="1"/><stop id="stop2650-2" offset=".27" stop-color="#fff" stop-opacity="1"/><stop id="stop2652-1" offset=".447" stop-color="#8d8d8d" stop-opacity="1"/><stop id="stop2551-3" offset=".571" stop-color="#959595" stop-opacity="1"/><stop id="stop2553-1" offset=".72" stop-color="#cecece" stop-opacity="1"/><stop id="stop2555-1" offset="1" stop-color="#181818" stop-opacity="1"/></linearGradient><linearGradient id="linearGradient3155-40-5"><stop id="stop2646-2" offset="0" stop-color="#181818" stop-opacity="1"/><stop id="stop2543-3" offset=".135" stop-color="#dbdbdb" stop-opacity="1"/><stop id="stop2545-2" offset=".202" stop-color="#a4a4a4" stop-opacity="1"/><stop id="stop2650-7" offset=".27" stop-color="#fff" stop-opacity="1"/><stop id="stop2652-3" offset=".447" stop-color="#8d8d8d" stop-opacity="1"/><stop id="stop2551-9" offset=".571" stop-color="#959595" stop-opacity="1"/><stop id="stop2553-0" offset=".72" stop-color="#cecece" stop-opacity="1"/><stop id="stop2555-15" offset="1" stop-color="#181818" stop-opacity="1"/></linearGradient><linearGradient id="linearGradient4408" x1="23.576" x2="23.576" y1="25.357" y2="31.211" gradientTransform="matrix(-0.01145524,-0.90584758,1.17447,0.00596827,-8.86603,33.54599)" gradientUnits="userSpaceOnUse" spreadMethod="pad" xlink:href="#linearGradient3155-40-5"/></defs><g id="layer1"><path id="rect2383-0" fill="url(#linearGradient4408)" fill-opacity="1" stroke="#666" stroke-dasharray="none" stroke-dashoffset="0" stroke-linecap="butt" stroke-linejoin="round" stroke-miterlimit="4" stroke-opacity="1" stroke-width="1" d="m 20.627477,8.0852433 c 0.08395,-0.536469 1.585632,-0.954644 3.424083,-0.945302 1.834054,0.0093 3.30146,0.444389 3.405481,0.980008 4.13e-4,0.0021 0.0426,-0.0018 0.04296,2.12e-4 L 27.372576,1.5353881 C 27.361718,0.97457173 25.82026,0.50979033 23.923445,0.50015233 22.026632,0.49051233 20.489204,0.93964593 20.500058,1.500469 z" display="inline"/><path id="rect2383-5" fill="url(#linearGradient4322)" fill-opacity="1" stroke="#0c0c0c" stroke-dasharray="none" stroke-dashoffset="0" stroke-linecap="butt" stroke-linejoin="round" stroke-miterlimit="4" stroke-opacity="1" stroke-width="1" d="m 33.283269,10.716361 c 0.430567,-0.328305 1.581754,0.246112 2.619046,1.315533 1.03481,1.066863 1.557548,2.220822 1.234329,2.657203 -0.0012,0.0017 0.0255,0.02335 0.02424,0.02498 L 41.78828,10.01497 C 42.182373,9.6147374 41.638802,8.3971082 40.56858,7.2937367 39.498361,6.1903657 38.304778,5.6170292 37.910664,6.0172507 z" display="inline"/><path id="path3208-3" fill="#0c0c0c" fill-opacity="1" stroke="none" d="m 33.398731,10.578294 c 0.430566,-0.328304 1.581755,0.246114 2.619044,1.315535 1.034812,1.066862 1.55755,2.220822 1.234331,2.657202 -0.0012,0.0017 0.0255,0.02335 0.02424,0.02498 l 4.473927,-4.523212 0.03887,-0.03904 c 0.0012,-0.0017 -0.02546,-0.023327 -0.02423,-0.024983 C 42.088126,9.5523885 41.565391,8.3984333 40.530581,7.3315702 39.493291,6.262149 38.342098,5.6877279 37.911536,6.0160372 l -0.03887,0.039046 z" display="inline" opacity=".6"/><path id="path8836" fill="url(#radialGradient3225)" fill-opacity="1" fill-rule="evenodd" stroke="none" stroke-width="1" d="m 46.999997,40 c 0,4.418278 -10.297452,8 -23,8 -12.702548,0 -23.0000002,-3.581722 -23.0000002,-8 0,-4.418278 10.2974522,-8 23.0000002,-8 12.702548,0 23,3.581722 23,8 l 0,0 z" display="inline" opacity=".4" overflow="visible" visibility="visible" style="marker:none"/><path id="path6495" fill="url(#radialGradient3220)" fill-opacity="1" fill-rule="nonzero" stroke="url(#linearGradient3222)" stroke-dasharray="none" stroke-miterlimit="4" stroke-opacity="1" stroke-width="1" d="M 44.5,23.999273 C 44.5,35.321475 35.32116,44.5 24.000257,44.5 12.678317,44.5 3.5,35.321371 3.5,23.999273 3.5,12.67759 12.678317,3.499998 24.000257,3.499998 35.32116,3.499998 44.5,12.67759 44.5,23.999273 l 0,0 z"/><path id="path3222" fill="none" stroke="url(#linearGradient3212)" stroke-dasharray="none" stroke-miterlimit="4" stroke-opacity="1" stroke-width="1" d="m 43.5,23.999308 c 0,10.769898 -8.731091,19.50069 -19.499755,19.50069 -10.769651,0 -19.5002455,-8.730891 -19.5002455,-19.50069 0,-10.769404 8.7305945,-19.4993084 19.5002455,-19.4993084 C 34.768909,4.4999996 43.5,13.229904 43.5,23.999308 l 0,0 z" opacity=".6"/><path id="path3215-3" fill="url(#radialGradient4186)" fill-opacity="1" fill-rule="nonzero" stroke="url(#linearGradient4188)" stroke-dasharray="none" stroke-miterlimit="4" stroke-width="1" d="m 41.500001,23.999379 c 0,9.665293 -7.835596,17.500619 -17.49978,17.500619 -9.665072,0 -17.500222,-7.835415 -17.500222,-17.500619 0,-9.664851 7.83515,-17.4993791 17.500222,-17.4993791 9.664184,0 17.49978,7.8345281 17.49978,17.4993791 l 0,0 0,0 0,0 z"/><path id="path2291" fill="none" stroke="#000" stroke-dasharray="none" stroke-linecap="round" stroke-linejoin="miter" stroke-miterlimit="4" stroke-opacity="1" stroke-width="1" d="m 9.861727,24.537057 c 2.766321,0 3.11659,-0.07959 3.11659,-0.07959" opacity=".5"/><path id="path2296" fill="none" stroke="#000" stroke-dasharray="none" stroke-linecap="round" stroke-linejoin="miter" stroke-miterlimit="4" stroke-opacity="1" stroke-width="1" d="m 35.02168,24.537057 c 2.766323,0 3.116593,-0.07959 3.116593,-0.07959" opacity=".5"/><path id="path2306" fill="none" stroke="#000" stroke-dasharray="none" stroke-linecap="round" stroke-linejoin="miter" stroke-miterlimit="4" stroke-opacity="1" stroke-width="1" d="m 23.542531,38.03347 c 0,-2.76632 -0.07959,-3.11659 -0.07959,-3.11659" opacity=".6"/><path id="path2308" fill="none" stroke="#000" stroke-dasharray="none" stroke-linecap="round" stroke-linejoin="miter" stroke-miterlimit="4" stroke-opacity="1" stroke-width="1" d="m 23.542531,13.08316 c 0,-2.766358 -0.07959,-3.1166309 -0.07959,-3.1166309" opacity=".4"/><path id="path2312" fill="none" stroke="red" stroke-dasharray="none" stroke-linecap="round" stroke-linejoin="miter" stroke-miterlimit="4" stroke-opacity="1" stroke-width=".9" d="M 23.102743,25.536933 33.889942,14.545464"/><path id="path2314" fill="none" stroke="#000" stroke-dasharray="none" stroke-linecap="round" stroke-linejoin="miter" stroke-miterlimit="4" stroke-opacity="1" stroke-width=".9" d="M 24.75041,25.537057 17.462943,18.249591"/><path id="path2291-9" fill="none" stroke="#000" stroke-dasharray="none" stroke-linecap="round" stroke-linejoin="miter" stroke-miterlimit="4" stroke-opacity="1" stroke-width="1" d="m 13.622974,14.382488 c 1.956085,1.956084 2.260041,2.147483 2.260041,2.147483" opacity=".5"/><path id="path2296-1" fill="none" stroke="#000" stroke-dasharray="none" stroke-linecap="round" stroke-linejoin="miter" stroke-miterlimit="4" stroke-opacity="1" stroke-width="1" d="m 31.413748,32.173261 c 1.956085,1.956086 2.260042,2.147486 2.260042,2.147486" opacity=".5"/><path id="path2306-9" fill="none" stroke="#000" stroke-dasharray="none" stroke-linecap="round" stroke-linejoin="miter" stroke-miterlimit="4" stroke-opacity="1" stroke-width="1" d="m 13.753358,33.599682 c 1.956084,-1.956083 2.147484,-2.26004 2.147484,-2.26004" opacity=".6"/><path id="path2308-8" fill="none" stroke="#000" stroke-dasharray="none" stroke-linecap="round" stroke-linejoin="miter" stroke-miterlimit="4" stroke-opacity="1" stroke-width="1" d="m 31.395892,15.957149 c 1.95611,-1.956111 2.147512,-2.26007 2.147512,-2.26007" opacity=".4"/><path id="path3215-4-4" fill="url(#radialGradient4175)" fill-opacity="1" stroke="url(#linearGradient4177)" stroke-dasharray="none" stroke-miterlimit="4" stroke-width="1" d="M 40.5,24.000585 C 40.5,14.887594 33.112152,7.5 24.000208,7.5 14.887427,7.5 7.5,14.887677 7.5,24.000585 7.5,33.113159 14.887427,40.5 24.000208,40.5 33.112152,40.5 40.5,33.113159 40.5,24.000585 l 0,0 z" opacity=".2"/></g></svg>