<svg xmlns="http://www.w3.org/2000/svg" xmlns:svg="http://www.w3.org/2000/svg" xmlns:xlink="http://www.w3.org/1999/xlink" id="svg3400" width="48" height="48" version="1.0"><defs id="defs3402"><linearGradient id="linearGradient3692"><stop id="stop3694" offset="0" stop-color="#ecb56c" stop-opacity="1"/><stop id="stop3700" offset=".164" stop-color="#ea8b48" stop-opacity="1"/><stop id="stop3696" offset=".653" stop-color="#e86225" stop-opacity="1"/><stop id="stop3698" offset="1" stop-color="#b07c0b" stop-opacity="0"/></linearGradient><linearGradient id="linearGradient5048"><stop id="stop5050" offset="0" stop-color="#000" stop-opacity="0"/><stop id="stop5056" offset=".5" stop-color="#000" stop-opacity="1"/><stop id="stop5052" offset="1" stop-color="#000" stop-opacity="0"/></linearGradient><linearGradient id="linearGradient5060"><stop id="stop5062" offset="0" stop-color="#000" stop-opacity="1"/><stop id="stop5064" offset="1" stop-color="#000" stop-opacity="0"/></linearGradient><linearGradient id="linearGradient3104"><stop id="stop3106" offset="0" stop-color="#aaa" stop-opacity="1"/><stop id="stop3108" offset="1" stop-color="#c8c8c8" stop-opacity="1"/></linearGradient><linearGradient id="linearGradient3600"><stop id="stop3602" offset="0" stop-color="#f4f4f4" stop-opacity="1"/><stop id="stop3604" offset="1" stop-color="#dbdbdb" stop-opacity="1"/></linearGradient><radialGradient id="XMLID_8_" cx="102" cy="112.305" r="139.559" gradientUnits="userSpaceOnUse"><stop id="stop41" offset="0" stop-color="#b7b8b9" stop-opacity="1"/><stop id="stop47" offset=".189" stop-color="#ececec" stop-opacity="1"/><stop id="stop49" offset=".257" stop-color="#fafafa" stop-opacity="0"/><stop id="stop51" offset=".301" stop-color="#fff" stop-opacity="0"/><stop id="stop53" offset=".531" stop-color="#fafafa" stop-opacity="0"/><stop id="stop55" offset=".845" stop-color="#ebecec" stop-opacity="0"/><stop id="stop57" offset="1" stop-color="#e1e2e3" stop-opacity="0"/></radialGradient><linearGradient id="linearGradient3211"><stop id="stop3213" offset="0" stop-color="#fff" stop-opacity="1"/><stop id="stop3215" offset="1" stop-color="#fff" stop-opacity="0"/></linearGradient><filter id="filter3212" width="1.297" height="1.329" x="-.148" y="-.164" color-interpolation-filters="sRGB"><feGaussianBlur id="feGaussianBlur3214" stdDeviation=".774"/></filter><linearGradient id="linearGradient8589"><stop id="stop8591" offset="0" stop-color="#fefefe" stop-opacity="1"/><stop id="stop8593" offset="1" stop-color="#cbcbcb" stop-opacity="1"/></linearGradient><linearGradient id="linearGradient3011" x1="32.892" x2="36.358" y1="8.059" y2="5.457" gradientTransform="matrix(0.9976985,0,0,1.0406866,0.1638029,-1.1057939)" gradientUnits="userSpaceOnUse" xlink:href="#linearGradient8589"/><linearGradient id="linearGradient3014" x1="24" x2="24" y1="2" y2="46.017" gradientTransform="matrix(1,0,0,0.9777778,0,-0.9666693)" gradientUnits="userSpaceOnUse" xlink:href="#linearGradient3211"/><radialGradient id="radialGradient3017" cx="102" cy="112.305" r="139.559" gradientTransform="matrix(0.3617022,0,0,-0.3907784,0.8510637,47.517004)" gradientUnits="userSpaceOnUse" xlink:href="#XMLID_8_"/><linearGradient id="linearGradient3020" x1="25.132" x2="25.132" y1=".985" y2="47.013" gradientTransform="matrix(1,0,0,0.9561695,-1.0064697e-7,-1.914922)" gradientUnits="userSpaceOnUse" xlink:href="#linearGradient3600"/><linearGradient id="linearGradient3022" x1="-51.786" x2="-51.786" y1="50.786" y2="2.906" gradientTransform="matrix(0.8074968,0,0,0.8948322,59.410232,-2.9805533)" gradientUnits="userSpaceOnUse" xlink:href="#linearGradient3104"/><radialGradient id="radialGradient3025" cx="605.714" cy="486.648" r="117.143" fx="605.714" fy="486.648" gradientTransform="matrix(0.02303995,0,0,0.01470022,26.360882,37.040176)" gradientUnits="userSpaceOnUse" xlink:href="#linearGradient5060"/><radialGradient id="radialGradient3028" cx="605.714" cy="486.648" r="117.143" fx="605.714" fy="486.648" gradientTransform="matrix(-0.02303994,0,0,0.01470022,21.62311,37.040176)" gradientUnits="userSpaceOnUse" xlink:href="#linearGradient5060"/><linearGradient id="linearGradient3031" x1="302.857" x2="302.857" y1="366.648" y2="609.505" gradientTransform="matrix(0.06732488,0,0,0.01470022,-0.3411391,37.040146)" gradientUnits="userSpaceOnUse" xlink:href="#linearGradient5048"/><linearGradient id="linearGradient3831" x1="3.888" x2="-8.798" y1="26.023" y2="26.023" gradientTransform="matrix(-1.6727172,0,0,1.567355,75.245828,47.508321)" gradientUnits="userSpaceOnUse" xlink:href="#linearGradient4222"/><linearGradient id="linearGradient4222"><stop id="stop4224" offset="0" stop-color="#fff" stop-opacity="1"/><stop id="stop4226" offset="1" stop-color="#fff" stop-opacity="0"/></linearGradient><linearGradient id="linearGradient3834" x1="3.874" x2="62.4" y1="28.281" y2="28.281" gradientTransform="matrix(1.4862123,0,0,1.4715013,-0.998984,54.21865)" gradientUnits="userSpaceOnUse" xlink:href="#linearGradient3692"/><linearGradient id="linearGradient3836" x1="41.264" x2="41.817" y1="55.193" y2="26.598" gradientTransform="matrix(0,-2.9226076,-2.9518257,0,169.75111,208.64009)" gradientUnits="userSpaceOnUse" xlink:href="#linearGradient3655"/><linearGradient id="linearGradient2511" x1="3.888" x2="-8.798" y1="26.023" y2="26.023" gradientTransform="matrix(1.6727172,0,0,1.567355,52.821794,-0.5347054)" gradientUnits="userSpaceOnUse" xlink:href="#linearGradient4222"/><linearGradient id="linearGradient2514" x1="62.953" x2="2.497" y1="23.891" y2="23.891" gradientTransform="matrix(-1.4862123,0,0,1.4715013,129.06661,6.1756237)" gradientUnits="userSpaceOnUse" xlink:href="#linearGradient3793"/><linearGradient id="linearGradient3793"><stop id="stop3795" offset="0" stop-color="#8cab2a" stop-opacity="0"/><stop id="stop3797" offset=".613" stop-color="#b1c948" stop-opacity="1"/><stop id="stop3799" offset="1" stop-color="#d7e866" stop-opacity="1"/></linearGradient><linearGradient id="linearGradient2516" x1="40.808" x2="40.808" y1="44.845" y2="26.149" gradientTransform="matrix(0,-2.9226076,2.9518257,0,-41.683484,160.59707)" gradientUnits="userSpaceOnUse" xlink:href="#linearGradient3480"/><linearGradient id="linearGradient3480"><stop id="stop3482" offset="0" stop-color="#548820" stop-opacity="1"/><stop id="stop3484" offset="1" stop-color="#548820" stop-opacity="0"/></linearGradient><linearGradient id="linearGradient3655"><stop id="stop3657" offset="0" stop-color="#cc7032" stop-opacity="1"/><stop id="stop3659" offset=".702" stop-color="#bb2d13" stop-opacity="1"/><stop id="stop3661" offset="1" stop-color="#a87300" stop-opacity="0"/></linearGradient></defs><path id="path12038" fill="#000" fill-opacity="1" fill-rule="evenodd" stroke="none" d="m 28.617256,0.92125832 c 4.282522,0 2.15325,8.48317128 2.15325,8.48317128 0,0 10.357642,-1.8023467 10.357642,2.8187444 0,-2.6097233 -11.302304,-10.7285956 -12.510892,-11.30191568 z" display="inline" filter="url(#filter3212)" opacity=".4"/><rect id="rect2879" width="32.508" height="3.57" x="7.738" y="42.43" fill="url(#linearGradient3031)" fill-opacity="1" fill-rule="nonzero" stroke="none" stroke-width="1" display="inline" opacity=".3" overflow="visible" visibility="visible" style="marker:none"/><path id="path2881" fill="url(#radialGradient3028)" fill-opacity="1" fill-rule="nonzero" stroke="none" stroke-width="1" d="m 7.7378475,42.430102 c 0,0 0,3.569856 0,3.569856 -1.1865002,0.0067 -2.8683795,-0.799823 -2.8683795,-1.785158 0,-0.985333 1.3240446,-1.784697 2.8683795,-1.784698 z" display="inline" opacity=".3" overflow="visible" visibility="visible" style="marker:none"/><path id="path2883" fill="url(#radialGradient3025)" fill-opacity="1" fill-rule="nonzero" stroke="none" stroke-width="1" d="m 40.246148,42.430102 c 0,0 0,3.569856 0,3.569856 1.1865,0.0067 2.86838,-0.799823 2.86838,-1.785158 0,-0.985333 -1.324045,-1.784697 -2.86838,-1.784698 z" display="inline" opacity=".3" overflow="visible" visibility="visible" style="marker:none"/><path id="path4160" fill="url(#linearGradient3020)" fill-opacity="1" stroke="url(#linearGradient3022)" stroke-dasharray="none" stroke-dashoffset="0" stroke-linecap="butt" stroke-linejoin="round" stroke-miterlimit="4" stroke-opacity="1" stroke-width="1" d="m 6.4999609,0.49719878 c 8.0202951,0 16.0405901,0 24.0608861,0 1.406933,0.4746531 8.965454,5.88220462 10.939195,9.62640622 0,11.459733 0,22.919465 0,34.379198 -11.666694,0 -23.333387,0 -35.0000811,0 0,-14.668535 0,-29.33707 0,-44.00560422 z" display="inline"/><path id="path4191" fill="url(#radialGradient3017)" fill-opacity="1" d="m 7.3617017,44 c -0.199297,0 -0.361702,-0.175459 -0.361702,-0.39078 l 0,-42.2040499 c 0,-0.2157088 0.162405,-0.3907775 0.361702,-0.3907775 C 14.844793,1.1224073 23.137385,0.85281757 30.611384,1.0412872 L 40.894021,9.9073127 41,43.60922 C 41,43.824541 40.837957,44 40.638297,44 L 7.3617017,44 z"/><path id="path2435" fill="none" stroke="url(#linearGradient3014)" stroke-dasharray="none" stroke-dashoffset="0" stroke-linecap="butt" stroke-linejoin="round" stroke-miterlimit="4" stroke-opacity="1" stroke-width="1" d="m 40.500039,10.258811 c 0,10.949037 0,22.31441 0,33.263447 -11.000026,0 -22.000052,0 -33.0000781,0 0,-14.014841 0,-28.029681 0,-42.0445213 7.5619931,0 15.3043341,0 22.8663281,0" display="inline" opacity=".6"/><path id="path4474" fill="url(#linearGradient3011)" fill-opacity="1" fill-rule="evenodd" stroke="none" d="m 28.617256,0.92125832 c 3.186493,0 2.33576,7.66187848 2.33576,7.66187848 0,0 10.175132,-0.9810539 10.175132,3.6400372 0,-1.125939 0.08591,-1.932245 -0.133777,-2.2835928 C 39.416058,7.4154025 32.598855,1.7511811 30.137071,1.008793 29.952849,0.95323837 29.544367,0.92125832 28.617256,0.92125832 z" display="inline"/><g id="layer1" transform="matrix(0,-1,1,0,-0.00526525,46.958327)"><path id="path4348" fill="url(#linearGradient2514)" fill-opacity="1" fill-rule="nonzero" stroke="url(#linearGradient2516)" stroke-dasharray="none" stroke-dashoffset="0" stroke-linecap="round" stroke-linejoin="round" stroke-miterlimit="4" stroke-opacity="1" stroke-width="2.667" d="M 92.008625,9.3282083 126.34517,39.99775 92.008625,70.667292 l 0,-16.0015 -55.671887,0 0,-29.336084 55.671887,0 0,-16.0014997 z" display="inline" overflow="visible" transform="matrix(0.3749648,0,0,0.3749648,0,0.00224979)" visibility="visible" style="marker:none"/><path id="path4360" fill="none" stroke="url(#linearGradient2511)" stroke-dasharray="none" stroke-dashoffset="0" stroke-linecap="butt" stroke-linejoin="miter" stroke-miterlimit="4" stroke-opacity="1" stroke-width="2.667" d="m 94.675542,15.641691 27.565128,24.356059 -27.565128,24.648646 0,-12.647521 -55.576261,0 -0.161406,-24.00225 55.737667,0 0,-12.354934 z" display="inline" opacity=".354" overflow="visible" transform="matrix(0.3749648,0,0,0.3749648,0,0.00224979)" visibility="visible" style="marker:none"/><path id="path3801" fill="url(#linearGradient3834)" fill-opacity="1" fill-rule="nonzero" stroke="url(#linearGradient3836)" stroke-dasharray="none" stroke-dashoffset="0" stroke-linecap="round" stroke-linejoin="round" stroke-miterlimit="4" stroke-opacity="1" stroke-width="2.667" d="m 36.059001,57.371236 -34.336545,30.669541 34.336545,30.669543 0,-16.0015 55.671887,0 0,-29.336085 -55.671887,0 0,-16.001499 z" display="inline" overflow="visible" transform="matrix(0.3749648,0,0,0.3749648,0,0.00224979)" visibility="visible" style="marker:none"/><path id="path3803" fill="none" stroke="url(#linearGradient3831)" stroke-dasharray="none" stroke-dashoffset="0" stroke-linecap="butt" stroke-linejoin="miter" stroke-miterlimit="4" stroke-opacity="1" stroke-width="2.667" d="m 33.392084,63.684717 -27.565128,24.35606 27.565128,24.648643 0,-12.64752 55.576264,0 0.1614,-24.002248 -55.737664,0 0,-12.354935 z" display="inline" opacity=".24" overflow="visible" transform="matrix(0.3749648,0,0,0.3749648,0,0.00224979)" visibility="visible" style="marker:none"/></g></svg>