<svg xmlns="http://www.w3.org/2000/svg" xmlns:svg="http://www.w3.org/2000/svg" xmlns:xlink="http://www.w3.org/1999/xlink" id="svg3082" width="48" height="48" version="1.1"><defs id="defs3084"><linearGradient id="linearGradient3315"><stop id="stop3317" offset="0" stop-color="#fff" stop-opacity="1"/><stop id="stop3319" offset="1" stop-color="#fff" stop-opacity="0"/></linearGradient><linearGradient id="linearGradient6457"><stop id="stop6459" offset="0" stop-color="#fff" stop-opacity=".941"/><stop id="stop6461" offset="1" stop-color="#fff" stop-opacity=".706"/></linearGradient><linearGradient id="linearGradient5060"><stop id="stop5062" offset="0" stop-color="#000" stop-opacity="1"/><stop id="stop5064" offset="1" stop-color="#000" stop-opacity="0"/></linearGradient><linearGradient id="linearGradient5048"><stop id="stop5050" offset="0" stop-color="#000" stop-opacity="0"/><stop id="stop5056" offset=".5" stop-color="#000" stop-opacity="1"/><stop id="stop5052" offset="1" stop-color="#000" stop-opacity="0"/></linearGradient><linearGradient id="linearGradient2781"><stop id="stop2783" offset="0" stop-color="#505050" stop-opacity="1"/><stop id="stop6301" offset=".132" stop-color="#6e6e6e" stop-opacity="1"/><stop id="stop2785" offset="1" stop-color="#8c8c8c" stop-opacity="1"/></linearGradient><linearGradient id="linearGradient5557" x1="302.857" x2="302.857" y1="366.648" y2="609.505" gradientTransform="matrix(2.774389,0,0,1.969706,-1892.179,-872.8854)" gradientUnits="userSpaceOnUse" xlink:href="#linearGradient5048"/><radialGradient id="radialGradient5559" cx="605.714" cy="486.648" r="117.143" fx="605.714" fy="486.648" gradientTransform="matrix(2.774389,0,0,1.969706,-1891.633,-872.8854)" gradientUnits="userSpaceOnUse" xlink:href="#linearGradient5060"/><radialGradient id="radialGradient5561" cx="605.714" cy="486.648" r="117.143" fx="605.714" fy="486.648" gradientTransform="matrix(-2.774389,0,0,1.969706,112.7623,-872.8854)" gradientUnits="userSpaceOnUse" xlink:href="#linearGradient5060"/><linearGradient id="linearGradient2884" x1="24" x2="24" y1="13" y2="40" gradientTransform="matrix(1.0526316,0,0,1.0740741,-1.2631579,-0.962963)" gradientUnits="userSpaceOnUse" xlink:href="#linearGradient6457"/><linearGradient id="linearGradient2887" x1="16.034" x2="15.935" y1="9.073" y2="38.927" gradientTransform="matrix(1.3225792,0,0,1.2413775,-9.0644846,-5.2930795)" gradientUnits="userSpaceOnUse" xlink:href="#linearGradient3315"/><linearGradient id="linearGradient2890" x1="21.866" x2="21.78" y1="8.576" y2="39.924" gradientTransform="matrix(1.3030281,0,0,1.2459013,-8.5757242,-5.713095)" gradientUnits="userSpaceOnUse" xlink:href="#linearGradient2781"/><linearGradient id="linearGradient3805" x1="83.24" x2="83.24" y1="42.457" y2="57.61" gradientTransform="matrix(0.403936,0,0,0.4256678,4.549725,-4.7929835)" gradientUnits="userSpaceOnUse" xlink:href="#linearGradient3623-623"/><linearGradient id="linearGradient3623-623"><stop id="stop3127" offset="0" stop-color="#fff" stop-opacity="1"/><stop id="stop3129" offset="1" stop-color="#e1e1e1" stop-opacity="1"/></linearGradient><linearGradient id="linearGradient3843" x1="25.498" x2="25.498" y1="44.638" y2=".276" gradientTransform="translate(5.992961,5e-7)" gradientUnits="userSpaceOnUse" xlink:href="#linearGradient3104"/><linearGradient id="linearGradient3104"><stop id="stop3106" offset="0" stop-color="#aaa" stop-opacity="1"/><stop id="stop3108" offset="1" stop-color="#c8c8c8" stop-opacity="1"/></linearGradient><linearGradient id="linearGradient2923" x1="18.386" x2="18.386" y1="44.961" y2=".259" gradientTransform="translate(-4,-7.9999995)" gradientUnits="userSpaceOnUse" xlink:href="#linearGradient3104"/><linearGradient id="linearGradient2925" x1="18.386" x2="18.386" y1="44.961" y2=".259" gradientTransform="matrix(0.75384621,0,0,0.75384621,4.9999951,1.4923079)" gradientUnits="userSpaceOnUse" xlink:href="#linearGradient3104"/><linearGradient id="linearGradient2927" x1="18.386" x2="18.386" y1="44.961" y2=".259" gradientTransform="translate(5.992961,5e-7)" gradientUnits="userSpaceOnUse" xlink:href="#linearGradient3104"/><linearGradient id="linearGradient2960" x1="18.386" x2="18.386" y1="44.961" y2=".259" gradientTransform="translate(-4,1.0000005)" gradientUnits="userSpaceOnUse" xlink:href="#linearGradient3104"/><linearGradient id="linearGradient3736" x1="18.386" x2="18.386" y1="44.961" y2=".259" gradientTransform="matrix(0.75384621,0,0,0.75384621,4.9999951,10.492308)" gradientUnits="userSpaceOnUse" xlink:href="#linearGradient3104"/></defs><g id="g5022" display="inline" opacity=".587" transform="matrix(0.02265526,0,0,0.01254292,44.15039,42.390183)"><rect id="rect4173" width="1339.633" height="478.357" x="-1559.252" y="-150.697" fill="url(#linearGradient5557)" fill-opacity="1" fill-rule="nonzero" stroke="none" stroke-width="1" display="inline" opacity=".402" overflow="visible" visibility="visible" style="marker:none"/><path id="path5058" fill="url(#radialGradient5559)" fill-opacity="1" fill-rule="nonzero" stroke="none" stroke-width="1" d="m -219.61876,-150.68038 c 0,0 0,478.33079 0,478.33079 142.874166,0.90045 345.40022,-107.16966 345.40014,-239.196175 0,-132.026537 -159.436816,-239.134595 -345.40014,-239.134615 z" display="inline" opacity=".402" overflow="visible" visibility="visible" style="marker:none"/><path id="path5018" fill="url(#radialGradient5561)" fill-opacity="1" fill-rule="nonzero" stroke="none" stroke-width="1" d="m -1559.2523,-150.68038 c 0,0 0,478.33079 0,478.33079 -142.8742,0.90045 -345.4002,-107.16966 -345.4002,-239.196175 0,-132.026537 159.4368,-239.134595 345.4002,-239.134615 z" display="inline" opacity=".402" overflow="visible" visibility="visible" style="marker:none"/></g><rect id="rect1887" width="43" height="38" x="2.5" y="5.5" fill="url(#linearGradient2890)" fill-opacity="1" stroke="#565853" stroke-dasharray="none" stroke-miterlimit="4" stroke-opacity="1" stroke-width="1" rx="2" ry="2"/><rect id="rect2779" width="41" height="36" x="3.5" y="6.5" fill="none" stroke="url(#linearGradient2887)" stroke-dasharray="none" stroke-miterlimit="4" stroke-opacity="1" stroke-width="1" opacity=".2" rx="1" ry="1"/><rect id="rect6287" width="40" height="29" x="4" y="13" fill="url(#linearGradient2884)" fill-opacity="1" stroke="none" rx="1.053" ry="1.074"/><path id="path3835" fill="#fff" fill-opacity="1" fill-rule="evenodd" stroke="url(#linearGradient2923)" stroke-dashoffset="0" stroke-linecap="round" stroke-linejoin="round" stroke-miterlimit="4" stroke-opacity="1" stroke-width="1" d="m 7.5,24.5 6,0 0,6 -6,0 0,-6 z" display="inline" enable-background="accumulate" overflow="visible" visibility="visible" style="marker:none"/><path id="path3833" fill="#fff" fill-opacity="1" fill-rule="evenodd" stroke="url(#linearGradient2925)" stroke-dasharray="none" stroke-dashoffset="0" stroke-linecap="round" stroke-linejoin="round" stroke-miterlimit="4" stroke-opacity="1" stroke-width=".969" d="m 32.515385,27.5 c 0,1.664492 -1.350893,3.015385 -3.015385,3.015385 -1.664493,0 -3.015384,-1.350893 -3.015384,-3.015385 0,-1.664492 1.350891,-3.015384 3.015384,-3.015384 1.664492,0 3.015385,1.350892 3.015385,3.015384 z" display="inline" enable-background="accumulate" overflow="visible" visibility="visible" style="marker:none"/><path id="path3831" fill="#fff" fill-opacity="1" fill-rule="evenodd" stroke="url(#linearGradient2927)" stroke-dashoffset="0" stroke-linecap="round" stroke-linejoin="round" stroke-miterlimit="4" stroke-opacity="1" stroke-width="1" d="m 18.861895,14.50151 22.276189,0 c 0.75449,0 1.361895,0.662838 1.361895,1.486185 l 0,3.02612 c 0,0.823346 -0.607405,1.486185 -1.361895,1.486185 l -22.276189,0 C 18.107405,20.5 17.5,19.837161 17.5,19.013815 l 0,-3.02612 c 0,-0.823347 0.607405,-1.486185 1.361895,-1.486185 z" display="inline" enable-background="accumulate" overflow="visible" visibility="visible" style="marker:none"/><path id="rect2257" fill="#4d4d4d" fill-opacity="1" fill-rule="evenodd" stroke="none" stroke-width="1" d="M 31,27.499999 C 31,28.327999 30.328001,29 29.499999,29 28.671999,29 28,28.327999 28,27.499999 28,26.672 28.671999,26 29.499999,26 30.328001,26 31,26.672 31,27.499999 z" display="inline" enable-background="accumulate" overflow="visible" visibility="visible" style="marker:none"/><path id="rect3618" fill="url(#linearGradient3805)" fill-opacity="1" fill-rule="evenodd" stroke="url(#linearGradient3843)" stroke-dasharray="none" stroke-dashoffset="0" stroke-linecap="round" stroke-linejoin="round" stroke-miterlimit="4" stroke-opacity="1" stroke-width="1" d="m 34.5,14.499772 0,5.994575 6.23987,0 c 0.976146,0 1.754599,-0.820332 1.754598,-1.848996 l 0,-2.283282 c 0,-1.028663 -0.77845,-1.862297 -1.754598,-1.862297 l -6.23987,0 z" display="inline" enable-background="accumulate" overflow="visible" visibility="visible" style="marker:none"/><path id="path2958" fill="#fff" fill-opacity="1" fill-rule="evenodd" stroke="url(#linearGradient2960)" stroke-dashoffset="0" stroke-linecap="round" stroke-linejoin="round" stroke-miterlimit="4" stroke-opacity="1" stroke-width="1" d="m 7.5,33.5 6,0 0,6 -6,0 0,-6 z" display="inline" enable-background="accumulate" overflow="visible" visibility="visible" style="marker:none"/><path id="path3734" fill="#fff" fill-opacity="1" fill-rule="evenodd" stroke="url(#linearGradient3736)" stroke-dasharray="none" stroke-dashoffset="0" stroke-linecap="round" stroke-linejoin="round" stroke-miterlimit="4" stroke-opacity="1" stroke-width=".969" d="m 32.515385,36.5 c 0,1.664492 -1.350893,3.015385 -3.015385,3.015385 -1.664493,0 -3.015384,-1.350893 -3.015384,-3.015385 0,-1.664492 1.350891,-3.015384 3.015384,-3.015384 1.664492,0 3.015385,1.350892 3.015385,3.015384 z" display="inline" enable-background="accumulate" overflow="visible" visibility="visible" style="marker:none"/><rect id="rect3761" width="1" height="1" x="9" y="26" fill="#4d4d4d" fill-opacity="1" stroke="none" rx="0" ry="0"/><rect id="rect3763" width="1" height="1" x="9" y="28" fill="#4d4d4d" fill-opacity="1" stroke="none" rx="0" ry="0"/><rect id="rect3765" width="1" height="1" x="11" y="28" fill="#4d4d4d" fill-opacity="1" stroke="none" rx="0" ry="0"/><rect id="rect3767" width="1" height="1" x="11" y="26" fill="#4d4d4d" fill-opacity="1" stroke="none" rx="0" ry="0"/><rect id="rect3769" width="1" height="1" x="10" y="27" fill="#4d4d4d" fill-opacity="1" stroke="none" rx="0" ry="0"/><rect id="rect3771" width="1" height="1" x="37" y="17" fill="#4d4d4d" fill-opacity="1" stroke="none" rx="0" ry="0"/><rect id="rect3773" width="1" height="1" x="39" y="17" fill="#4d4d4d" fill-opacity="1" stroke="none" rx="0" ry="0"/><rect id="rect3775" width="1" height="1" x="38" y="18" fill="#4d4d4d" fill-opacity="1" stroke="none" rx="0" ry="0"/></svg>