<svg xmlns="http://www.w3.org/2000/svg" xmlns:svg="http://www.w3.org/2000/svg" xmlns:xlink="http://www.w3.org/1999/xlink" id="svg2999" width="48" height="48" version="1.1"><defs id="defs3001"><linearGradient id="linearGradient3711" x1="-1.937" x2="-1.937" y1=".988" y2="31.827" gradientTransform="matrix(0.57165599,0,0,0.41384945,18.435197,9.4856308)" gradientUnits="userSpaceOnUse" xlink:href="#linearGradient3666"/><linearGradient id="linearGradient3666"><stop id="stop3668" offset="0" stop-color="#fff" stop-opacity="1"/><stop id="stop3670" offset="1" stop-color="#fff" stop-opacity="0"/></linearGradient><linearGradient id="linearGradient3714" x1="87.05" x2="87.05" y1="53.75" y2="41.73" gradientTransform="translate(-64.302516,-0.03124965)" gradientUnits="userSpaceOnUse" xlink:href="#linearGradient3595"/><linearGradient id="linearGradient3595"><stop id="stop3597" offset="0" stop-color="#fff" stop-opacity="1"/><stop id="stop3599" offset="1" stop-color="#fff" stop-opacity="0"/></linearGradient><filter id="filter3615" color-interpolation-filters="sRGB"><feGaussianBlur id="feGaussianBlur3617" stdDeviation=".655"/></filter><radialGradient id="radialGradient3717" cx="8.438" cy="32.535" r="26.406" fx="8.438" fy="32.535" gradientTransform="matrix(0.68424572,-1.8108943e-8,0,0.27719729,15.94857,11.767873)" gradientUnits="userSpaceOnUse" xlink:href="#linearGradient3740"/><linearGradient id="linearGradient3740"><stop id="stop3743" offset="0" stop-color="#8b6a35" stop-opacity="1"/><stop id="stop3771" offset=".371" stop-color="#885f22" stop-opacity="1"/><stop id="stop3745" offset=".686" stop-color="#754d0d" stop-opacity="1"/><stop id="stop3747" offset="1" stop-color="#483816" stop-opacity="1"/></linearGradient><linearGradient id="linearGradient3720" x1="5.684" x2="35.033" y1="16.366" y2="16.366" gradientTransform="matrix(0.55458054,0,0,0.40110951,18.533406,9.6941304)" gradientUnits="userSpaceOnUse" spreadMethod="reflect" xlink:href="#linearGradient3526"/><linearGradient id="linearGradient3526"><stop id="stop3528" offset="0" stop-color="#d1d1d1" stop-opacity="1"/><stop id="stop3530" offset="1" stop-color="#959594" stop-opacity="1"/></linearGradient><filter id="filter3550" width="1.113" height="1.225" x="-.056" y="-.113" color-interpolation-filters="sRGB"><feGaussianBlur id="feGaussianBlur3552" stdDeviation="1.374"/></filter><radialGradient id="radialGradient3724" cx="-6.454" cy="29.206" r="32" fx="-6.454" fy="29.206" gradientTransform="matrix(-1.2726562e-8,0.81385643,-0.85577611,0,37.810272,28.708982)" gradientUnits="userSpaceOnUse" xlink:href="#linearGradient3489"/><linearGradient id="linearGradient3489"><stop id="stop3491" offset="0" stop-color="#eeeeec" stop-opacity="1"/><stop id="stop3497" offset=".5" stop-color="#cacac9" stop-opacity="1"/><stop id="stop3493" offset="1" stop-color="#6b6b6b" stop-opacity="1"/></linearGradient><linearGradient id="linearGradient3726" x1="117.303" x2="53.303" y1="55.031" y2="2.36" gradientTransform="matrix(0.57743765,0,0,0.57743765,-27.533945,8.3902039)" gradientUnits="userSpaceOnUse" xlink:href="#linearGradient3584"/><linearGradient id="linearGradient3584"><stop id="stop3586" offset="0" stop-color="#5f5f5f" stop-opacity="1"/><stop id="stop3588" offset="1" stop-color="#c6c6c6" stop-opacity="1"/></linearGradient><radialGradient id="radialGradient3687" cx="106.335" cy="65.468" r="13.983" fx="106.335" fy="65.468" gradientTransform="matrix(-0.32951642,0.02730384,-0.01326268,-0.16006064,75.270382,27.025632)" gradientUnits="userSpaceOnUse" xlink:href="#linearGradient8838"/><linearGradient id="linearGradient8838"><stop id="stop8840" offset="0" stop-color="#000" stop-opacity="1"/><stop id="stop8842" offset="1" stop-color="#000" stop-opacity="0"/></linearGradient><radialGradient id="radialGradient3689" cx="94.239" cy="62.312" r="13.983" fx="94.239" fy="62.312" gradientTransform="matrix(-0.45004295,0.02288934,-0.01994592,-0.39217019,88.661523,39.172781)" gradientUnits="userSpaceOnUse" xlink:href="#linearGradient2811"/><linearGradient id="linearGradient2811"><stop id="stop2813" offset="0" stop-color="#fff" stop-opacity="1"/><stop id="stop2815" offset="1" stop-color="#fff" stop-opacity="0"/></linearGradient><radialGradient id="radialGradient3664" cx="118.48" cy="58.119" r="13.983" fx="118.48" fy="58.119" gradientTransform="matrix(-0.4041678,0.40259682,-0.25544629,-0.25644312,101.46367,-7.953473)" gradientUnits="userSpaceOnUse" xlink:href="#linearGradient3667"/><linearGradient id="linearGradient3667"><stop id="stop3669" offset="0" stop-color="#fefefe" stop-opacity="1"/><stop id="stop3671" offset="1" stop-color="#b4b4b3" stop-opacity="1"/></linearGradient><linearGradient id="linearGradient2863" x1="34.463" x2="40.883" y1="24.868" y2="27.884" gradientTransform="matrix(1.7310048,0,0,1.7321369,-21.483374,-21.130719)" gradientUnits="userSpaceOnUse" xlink:href="#linearGradient3584"/><radialGradient id="radialGradient2997" cx="62.625" cy="4.625" r="10.625" fx="62.625" fy="4.625" gradientTransform="matrix(1.7391064,0,0,0.57064356,-87.519704,34.352182)" gradientUnits="userSpaceOnUse" xlink:href="#linearGradient8838"/></defs><g id="layer1" transform="matrix(1,0,0,1.007761,0,0.26634549)"><path id="path2845" fill="url(#radialGradient2997)" fill-opacity="1" fill-rule="evenodd" stroke="none" stroke-width="1" d="m 39.869827,36.991413 c 0,3.348555 -8.272885,6.063094 -18.478005,6.063094 -10.205119,0 -18.4780047,-2.714539 -18.4780047,-6.063094 0,-3.348555 8.2728857,-6.063098 18.4780047,-6.063098 10.20512,0 18.478005,2.714543 18.478005,6.063098 l 0,0 z" display="inline" opacity=".3" overflow="visible" visibility="visible" style="marker:none"/><path id="path4023" fill="url(#radialGradient3664)" fill-opacity="1" stroke="url(#linearGradient2863)" stroke-dasharray="none" stroke-miterlimit="4" stroke-opacity="1" stroke-width="1" d="M 35.725248,31.65743 C 39.270069,31.343188 47.080564,30.475159 46.520115,21.47968 46.490379,21.002458 46.366268,20.512279 46.152939,20.13262 45.88536,19.680542 45.596231,19.380815 45.198284,19.084912 43.376418,17.77895 40.075067,17.982291 37.707977,17.982291 29.947351,19.601729 28.305061,32.669773 35.725248,31.65743 z m 1.244223,-10.553521 c 0,0 5.187475,0 6.561043,0 0.24255,8.26875 -6.542246,6.520185 -6.542246,6.520185 l -0.01879,-6.097955 10e-7,-0.42223 z"/><path id="path3677" fill="url(#radialGradient3689)" fill-opacity="1" stroke="none" d="m 37.753645,18.272147 c -3.732438,0.778862 -6.006802,4.338952 -6.442041,7.578871 -0.21762,1.61996 0.02712,3.142093 0.739841,4.168377 0.712734,1.026284 1.870957,1.595417 3.645074,1.353372 0.0061,-1.9e-4 0.01204,-1.9e-4 0.01805,0 1.609655,-0.142696 5.829364,-1.01463 8.058496,-3.102608 1.114564,-1.043985 0.606349,-3.025973 1.324867,-4.079273 0.718516,-1.053303 1.136828,-2.030994 1.136828,-2.706741 0,-0.411581 -0.150792,-0.867194 -0.342853,-1.209008 -0.252178,-0.426053 -0.49211,-0.678251 -0.866155,-0.956382 -1.664033,-1.192823 -4.892687,-1.048685 -7.272106,-1.046608 z m -0.830068,2.95937 c 0.01802,-0.0017 0.03612,-0.0017 0.05414,0 0,0 4.112335,-0.1684 5.483379,-0.1684 0.0766,-1.12e-4 -0.05417,-0.05418 0,0 0.05416,0.05417 1e-4,-0.07661 0,0 2e-6,1.610722 0.254355,4.261353 -0.893025,5.002042 -1.147379,0.740689 -2.291705,1.10074 -2.291705,1.10074 -0.08737,0.02895 -0.183328,0.01444 -0.258232,-0.03906 -0.07491,-0.05351 -0.119754,-0.139555 -0.120712,-0.231601 L 36.688988,21.52026 c -0.0027,-0.140564 0.09645,-0.262549 0.234583,-0.288719 l 6e-6,-2.4e-5 z"/><path id="path3685" fill="url(#radialGradient3687)" fill-opacity="1" stroke="none" d="m 37.753645,18.272147 c -3.732438,0.778862 -6.006802,4.338952 -6.442041,7.578871 -0.21762,1.61996 0.02712,3.142093 0.739841,4.168377 0.712734,1.026284 1.870957,1.595417 3.645074,1.353372 0.0061,-1.9e-4 0.01204,-1.9e-4 0.01805,0 1.609655,-0.142696 6.511555,-0.837715 8.740688,-2.925692 1.114565,-1.043986 -0.07584,-3.202889 0.642675,-4.256189 0.718516,-1.053303 1.136828,-2.030994 1.136828,-2.706741 0,-0.411581 -0.150792,-0.867194 -0.342853,-1.209008 -0.252178,-0.426053 -0.49211,-0.678251 -0.866155,-0.956382 -1.664033,-1.192823 -4.892687,-1.048685 -7.272106,-1.046608 z m -0.830068,2.95937 c 0.01802,-0.0017 0.03612,-0.0017 0.05414,0 0,0 5.135593,0.134924 6.506635,0.134924 0.0766,-1.12e-4 0.150111,0.03026 0.204279,0.08444 0.05416,0.05417 0.08454,0.12767 0.08444,0.204277 2e-6,1.610722 -1.05762,3.669311 -2.205,4.41 -1.147379,0.740689 -2.291705,1.10074 -2.291705,1.10074 -0.08737,0.02895 -0.183328,0.01444 -0.258232,-0.03906 -0.07491,-0.05351 -0.119754,-0.139555 -0.120712,-0.231601 L 36.688988,21.52026 c -0.0027,-0.140564 0.09645,-0.262549 0.234583,-0.288719 l 6e-6,-2.4e-5 z" opacity=".3"/><path id="path2706" fill="url(#radialGradient3724)" fill-opacity="1" fill-rule="nonzero" stroke="url(#linearGradient3726)" stroke-dasharray="none" stroke-dashoffset="0" stroke-linecap="square" stroke-linejoin="round" stroke-miterlimit="4" stroke-opacity="1" stroke-width="1" d="m 21.72294,9.1480904 c -9.660141,0 -17.5678484,2.7784366 -18.1531971,6.2796346 l -0.036091,0 0,0.415032 0,3.536806 0,0.270675 c 0.1302006,11.189996 8.2294881,20.228363 18.1892871,20.228363 9.959788,0 18.059079,-9.038367 18.189286,-20.228363 9.44e-4,-0.09114 0,-0.179246 0,-0.270675 l 0,-3.536806 0,-0.415032 -0.0361,0 C 39.290783,11.926527 31.383074,9.1480904 21.722935,9.1480904 z" display="inline" enable-background="accumulate" overflow="visible" visibility="visible" style="marker:none"/><path id="path3534" fill="#fff" fill-opacity="1" fill-rule="nonzero" stroke="none" stroke-width="1.861" d="m 35.032936,16.365782 c 0.003,8.086853 -13.107553,14.643336 -29.2812595,14.643336 -16.1737065,0 -29.2842485,-6.556483 -29.2812595,-14.643336 -0.003,-8.0868532 13.107553,-14.6433356 29.2812595,-14.6433356 16.1737065,0 29.2842485,6.5564824 29.2812595,14.6433356 l 0,0 z" display="inline" enable-background="accumulate" filter="url(#filter3550)" opacity=".6" overflow="visible" transform="matrix(0.59840383,0,0,0.48270721,18.356831,8.4342018)" visibility="visible" style="marker:none"/><path id="path3499" fill="url(#linearGradient3720)" fill-opacity="1" fill-rule="nonzero" stroke="none" stroke-width="1" d="m 37.961991,16.258601 c 0.0017,3.243713 -7.269195,5.873581 -16.238818,5.873581 -8.969622,0 -16.2404731,-2.629868 -16.2388154,-5.873581 -0.00169,-3.243713 7.2691934,-5.873582 16.2388154,-5.873582 8.969623,0 16.240474,2.629869 16.238818,5.873582 l 0,0 z" display="inline" enable-background="accumulate" overflow="visible" visibility="visible" style="marker:none"/><path id="path3736" fill="#36290f" fill-opacity="1" fill-rule="nonzero" stroke="none" stroke-width="1" d="m 21.721894,13.027749 c -7.522239,0 -13.8460813,1.720839 -15.6884895,4.050432 1.8513352,2.325143 8.1756795,4.033695 15.6884895,4.033695 7.511216,0 13.835649,-1.709302 15.688485,-4.033695 -1.843453,-2.329072 -8.167359,-4.050432 -15.688485,-4.050432 z" display="inline" enable-background="accumulate" overflow="visible" visibility="visible" style="marker:none"/><path id="path3501" fill="url(#radialGradient3717)" fill-opacity="1" fill-rule="nonzero" stroke="none" stroke-width="1" d="m 21.721894,13.605186 c -7.522239,0 -13.8460813,1.843755 -15.6884895,4.339751 1.8513352,2.491225 8.1756795,4.321815 15.6884895,4.321815 7.511216,0 13.835649,-1.831396 15.688485,-4.321815 -1.843453,-2.495435 -8.167359,-4.339751 -15.688485,-4.339751 z" display="inline" enable-background="accumulate" overflow="visible" visibility="visible" style="marker:none"/><path id="path3590" fill="url(#linearGradient3714)" fill-opacity="1" fill-rule="nonzero" stroke="none" stroke-width="1.732" d="m 46.072483,37.6875 c -5.21761,7.123568 -14.34843,11.84375 -24.75,11.84375 -10.38105,10e-7 -19.4959799,-4.712434 -24.7187498,-11.8125 4.01830989,9.384132 13.5721898,16 24.7187498,16 11.16122,0 20.74101,-6.627475 24.75,-16.03125 z" display="inline" enable-background="accumulate" filter="url(#filter3615)" opacity=".3" overflow="visible" transform="matrix(0.57743765,0,0,0.57743765,9.5967471,8.4082479)" visibility="visible" style="marker:none"/><path id="path3664" fill="none" stroke="url(#linearGradient3711)" stroke-dasharray="none" stroke-dashoffset="0" stroke-linecap="square" stroke-linejoin="round" stroke-miterlimit="4" stroke-opacity="1" stroke-width="1" d="m 38.461982,16.258601 c 0.0018,3.34674 -7.49301,6.060134 -16.738807,6.060134 -9.245796,0 -16.7405154,-2.713394 -16.7388066,-6.060134 -0.00173,-3.34674 7.4930106,-6.060136 16.7388066,-6.060136 9.245797,0 16.740515,2.713396 16.738807,6.060136 l 0,0 z" display="inline" enable-background="accumulate" opacity=".4" overflow="visible" visibility="visible" style="marker:none"/></g></svg>