<svg xmlns="http://www.w3.org/2000/svg" xmlns:svg="http://www.w3.org/2000/svg" xmlns:xlink="http://www.w3.org/1999/xlink" id="svg3578" width="48" height="48" version="1.0"><metadata id="metadata43"/><defs id="defs3580"><linearGradient id="linearGradient3890"><stop id="stop3892" offset="0" stop-color="#dac197" stop-opacity="1"/><stop id="stop3894" offset=".82" stop-color="#c1a581" stop-opacity="1"/><stop id="stop3898" offset="1" stop-color="#a68b60" stop-opacity="1"/></linearGradient><linearGradient id="linearGradient3880"><stop id="stop3882" offset="0" stop-color="#c3a67d" stop-opacity="1"/><stop id="stop3884" offset=".775" stop-color="#a17d4f" stop-opacity="1"/><stop id="stop3888" offset="1" stop-color="#836845" stop-opacity="1"/></linearGradient><linearGradient id="linearGradient3702-501-757"><stop id="stop2895" offset="0" stop-color="#181818" stop-opacity="0"/><stop id="stop2897" offset=".5" stop-color="#181818" stop-opacity="1"/><stop id="stop2899" offset="1" stop-color="#181818" stop-opacity="0"/></linearGradient><linearGradient id="linearGradient2877-634-617" x1="25.058" x2="25.058" y1="47.028" y2="39.999" gradientUnits="userSpaceOnUse" xlink:href="#linearGradient3702-501-757"/><linearGradient id="linearGradient3688-464-309"><stop id="stop2889" offset="0" stop-color="#181818" stop-opacity="1"/><stop id="stop2891" offset="1" stop-color="#181818" stop-opacity="0"/></linearGradient><radialGradient id="radialGradient2875-742-326" cx="4.993" cy="43.5" r="2.5" fx="4.993" fy="43.5" gradientTransform="matrix(2.003784,0,0,1.4,-20.01187,-104.4)" gradientUnits="userSpaceOnUse" xlink:href="#linearGradient3688-464-309"/><linearGradient id="linearGradient3688-166-749"><stop id="stop2883" offset="0" stop-color="#181818" stop-opacity="1"/><stop id="stop2885" offset="1" stop-color="#181818" stop-opacity="0"/></linearGradient><radialGradient id="radialGradient2873-966-168" cx="4.993" cy="43.5" r="2.5" fx="4.993" fy="43.5" gradientTransform="matrix(2.003784,0,0,1.4,27.98813,-17.4)" gradientUnits="userSpaceOnUse" xlink:href="#linearGradient3688-166-749"/><linearGradient id="linearGradient3008" x1="7" x2="6" y1="4.033" y2="43.033" gradientTransform="translate(0,0.9674386)" gradientUnits="userSpaceOnUse" xlink:href="#linearGradient3880"/><radialGradient id="radialGradient3006" cx="7.496" cy="8.45" r="20" fx="7.496" fy="8.45" gradientTransform="matrix(-5.5540427e-6,1.8475022,-3.0782051,-9.3317937e-6,50.010269,-7.7982378)" gradientUnits="userSpaceOnUse" xlink:href="#linearGradient3890"/><linearGradient id="linearGradient3308-4-6-931-761"><stop id="stop2919" offset="0" stop-color="#fff" stop-opacity="1"/><stop id="stop2921" offset="1" stop-color="#fff" stop-opacity="0"/></linearGradient><linearGradient id="linearGradient3003" x1="24" x2="24" y1="5" y2="43" gradientTransform="translate(0,0.9999991)" gradientUnits="userSpaceOnUse" xlink:href="#linearGradient3308-4-6-931-761"/></defs><g id="layer1"><g id="g2036" display="inline" transform="matrix(1.1,0,0,0.4444449,-2.4000022,25.11107)"><g id="g3712" opacity=".4" transform="matrix(1.052632,0,0,1.285713,-1.263158,-13.42854)"><rect id="rect2801" width="5" height="7" x="38" y="40" fill="url(#radialGradient2873-966-168)" fill-opacity="1" stroke="none"/><rect id="rect3696" width="5" height="7" x="-10" y="-47" fill="url(#radialGradient2875-742-326)" fill-opacity="1" stroke="none" transform="scale(-1,-1)"/><rect id="rect3700" width="28" height="7" x="10" y="40" fill="url(#linearGradient2877-634-617)" fill-opacity="1" stroke="none"/></g></g><rect id="rect5505" width="39" height="39" x="4.5" y="5.467" fill="url(#radialGradient3006)" fill-opacity="1" stroke="url(#linearGradient3008)" stroke-dasharray="none" stroke-dashoffset="0" stroke-linecap="round" stroke-linejoin="round" stroke-miterlimit="4" stroke-opacity="1" stroke-width="1" rx="2.232" ry="2.232"/><rect id="rect6741" width="37" height="37" x="5.5" y="6.5" fill="none" stroke="url(#linearGradient3003)" stroke-dasharray="none" stroke-dashoffset="0" stroke-linecap="round" stroke-linejoin="round" stroke-miterlimit="4" stroke-opacity="1" stroke-width="1" opacity=".4" rx="1.365" ry="1.365"/><path id="rect4691" fill="#1f1911" fill-opacity="1" fill-rule="evenodd" stroke="none" stroke-width="1.215" d="m 20.125721,33.000001 -7.010306,0 6e-6,4.999997 7.010307,0 z m 7.981534,-24.9402314 -8.018632,0 -0.006,5.0000014 8.01863,0 z m 13.953225,-0.1195393 -7,0 -0.006,4.9999987 7,0 z m -7.006021,5.0130747 -6.953232,0 -5.39e-4,5.046696 6.953232,0 z M 12.98725,7.9402303 l -6.98125,0 L 6,12.940229 l 6.98125,0 z m 29.067207,5.0130747 -5.38e-4,5.046696 z M 42.053921,18 l -7.000001,0 0,5 7.000001,0 z m -7.000001,5 -6.953231,0 0,5 6.953231,0 z m -6.953224,-5 -8.018632,0 0,5 8.01863,0 z m -8.0181,-5.046696 -7.010303,0 L 13.071755,18 20.082058,18 z M 13.071761,18 l -6.9812509,0 0,5 6.9812509,0 z m 7.010297,5 -7.010303,0 0,5 7.010303,0 z m -7.010297,5 -6.9812509,0 0,4.999999 6.9812509,0 z m 28.982158,-5 0,5 z m 2e-6,5 -7.000001,0 0,4.999999 7.000001,0 z m -2e-6,5.000001 6e-6,4.999997 z m 8e-6,5.000001 -7,0 L 35.035947,43 l 7.000001,0 z m -7.000007,-5.000001 -6.953232,0 7e-6,4.999997 6.953232,0 z M 28.100695,28 l -8.018632,0 0,4.999999 8.018631,0 z m -0.09354,10.000002 -8.018631,0 L 19.970544,43 l 8.018631,0 z m -14.935395,0 -6.981254,0 L 6.07253,43 l 6.981252,0 z" display="inline" opacity=".09" overflow="visible" visibility="visible" style="marker:none"/><path id="path4060" fill="#000" fill-opacity="1" stroke="none" d="m 35.875,11 c -0.411284,0.03437 -0.823938,0.241436 -1.15625,0.5625 l -7.4375,6.46875 c -0.320883,0.310166 -0.5,0.746325 -0.5,1.1875 0,0.210471 0.04813,0.404047 0.125,0.59375 0.0037,0.0091 -0.0039,0.0222 0,0.03125 -0.274923,0.588636 -0.1875,1.411432 -0.1875,3.1875 0,0.654515 -1.701901,1.34375 -2.125,1.34375 -0.02097,-2.49e-4 -0.04138,0 -0.0625,0 -1.353253,0 -5.740266,0.200641 -7.09375,2.0625 C 16.084011,28.299355 11,36.758538 11,38 c 2.030116,10e-7 16.774788,-7.368815 17.53125,-8.0625 0.915011,-0.839272 0.466331,-2.529096 -0.125,-3.65625 0.004,-0.0052 -0.0025,-0.02498 0,-0.03125 0.01645,-0.04074 0.02128,-0.0994 -0.03125,-0.1875 -0.316932,-0.531622 -0.500001,-1.067684 -0.5,-1.8125 0,-1.655866 0.173812,-2.569647 0.53125,-3.09375 0.798385,0.137832 1.954305,-0.252773 2.46875,-0.75 l 6.53125,-6.21875 c 0.664625,-0.64238 0.821164,-1.60762 0.15625,-2.25 L 37.03125,11.40625 C 36.699081,11.085313 36.286284,10.965632 35.875,11 z" display="inline" enable-background="new" opacity=".5"/><path id="path5577" fill="#fff" fill-opacity="1" stroke="none" d="m 35.875,13 c -0.411284,0.03437 -0.823938,0.241436 -1.15625,0.5625 l -7.4375,6.46875 c -0.320883,0.310166 -0.5,0.746325 -0.5,1.1875 0,0.210471 0.04813,0.404047 0.125,0.59375 0.0037,0.0091 -0.0039,0.0222 0,0.03125 -0.274923,0.588636 -0.1875,1.411432 -0.1875,3.1875 0,0.654515 -1.139401,0.90625 -1.5625,0.90625 -0.02097,-2.49e-4 -0.04138,0 -0.0625,0 -1.353253,0 -5.740266,0.200641 -7.09375,2.0625 -1.353489,1.861855 -7,10.758538 -7,12 2.030116,10e-7 16.774788,-7.368815 17.53125,-8.0625 0.915011,-0.839272 0.466331,-2.529096 -0.125,-3.65625 0.004,-0.0052 -0.0025,-0.02498 0,-0.03125 0.01645,-0.04074 0.02128,-0.0994 -0.03125,-0.1875 -0.316932,-0.531622 -0.500001,-1.067684 -0.5,-1.8125 0,-1.655866 0.173812,-2.569647 0.53125,-3.09375 0.798385,0.137832 1.954305,-0.252773 2.46875,-0.75 l 6.53125,-6.21875 c 0.664625,-0.64238 0.821164,-1.60762 0.15625,-2.25 L 37.03125,13.40625 C 36.699081,13.085313 36.286284,12.965632 35.875,13 z" display="inline" enable-background="new" opacity=".5"/><path id="path4062" fill="#1f1911" fill-opacity="1" stroke="none" d="m 35.875,12 c -0.411284,0.03437 -0.823938,0.241436 -1.15625,0.5625 l -7.4375,6.46875 c -0.320883,0.310166 -0.5,0.746325 -0.5,1.1875 0,0.210471 0.04813,0.404047 0.125,0.59375 0.0037,0.0091 -0.0039,0.0222 0,0.03125 -0.274923,0.588636 -0.1875,1.411432 -0.1875,3.1875 0,0.654515 -1.701901,1.34375 -2.125,1.34375 -0.02097,-2.49e-4 -0.04138,0 -0.0625,0 -1.353253,0 -5.740266,0.200641 -7.09375,2.0625 C 16.084011,29.299355 11,37.758538 11,39 c 2.030116,10e-7 16.774788,-7.368815 17.53125,-8.0625 0.915011,-0.839272 0.466331,-2.529096 -0.125,-3.65625 0.004,-0.0052 -0.0025,-0.02498 0,-0.03125 0.01645,-0.04074 0.02128,-0.0994 -0.03125,-0.1875 -0.316932,-0.531622 -0.500001,-1.067684 -0.5,-1.8125 0,-1.655866 0.173812,-2.569647 0.53125,-3.09375 0.798385,0.137832 1.954305,-0.252773 2.46875,-0.75 l 6.53125,-6.21875 c 0.664625,-0.64238 0.821164,-1.60762 0.15625,-2.25 L 37.03125,12.40625 C 36.699081,12.085313 36.286284,11.965632 35.875,12 z" display="inline" enable-background="new" opacity=".5"/></g></svg>