<svg xmlns="http://www.w3.org/2000/svg" xmlns:svg="http://www.w3.org/2000/svg" xmlns:xlink="http://www.w3.org/1999/xlink" id="svg6056" width="48" height="48" version="1.1"><defs id="defs6058"><radialGradient id="radialGradient6510" cx="605.714" cy="486.648" r="117.143" fx="605.714" fy="486.648" gradientTransform="matrix(0.02409717,0,0,0.01537476,26.477584,38.629039)" gradientUnits="userSpaceOnUse" xlink:href="#linearGradient5060"/><linearGradient id="linearGradient5060"><stop id="stop5062" offset="0" stop-color="#000" stop-opacity="1"/><stop id="stop5064" offset="1" stop-color="#000" stop-opacity="0"/></linearGradient><radialGradient id="radialGradient6508" cx="605.714" cy="486.648" r="117.143" fx="605.714" fy="486.648" gradientTransform="matrix(-0.02409717,0,0,0.01537476,21.522412,38.629039)" gradientUnits="userSpaceOnUse" xlink:href="#linearGradient5060"/><linearGradient id="linearGradient5048"><stop id="stop5050" offset="0" stop-color="#000" stop-opacity="0"/><stop id="stop5056" offset=".5" stop-color="#000" stop-opacity="1"/><stop id="stop5052" offset="1" stop-color="#000" stop-opacity="0"/></linearGradient><linearGradient id="linearGradient6506" x1="302.857" x2="302.857" y1="366.648" y2="609.505" gradientTransform="matrix(0.0704142,0,0,0.01537476,-1.4497047,38.629007)" gradientUnits="userSpaceOnUse" xlink:href="#linearGradient5048"/><linearGradient id="linearGradient3104"><stop id="stop3106" offset="0" stop-color="#aaa" stop-opacity="1"/><stop id="stop3108" offset="1" stop-color="#d2d2d2" stop-opacity="1"/></linearGradient><linearGradient id="linearGradient6546" x1="-51.786" x2="-51.786" y1="50.786" y2="2.906" gradientTransform="matrix(0.8074968,0,0,0.9358511,59.41023,-2.1144791)" gradientUnits="userSpaceOnUse" xlink:href="#linearGradient3104"/><linearGradient id="linearGradient3600"><stop id="stop3602" offset="0" stop-color="#f4f4f4" stop-opacity="1"/><stop id="stop3604" offset="1" stop-color="#dbdbdb" stop-opacity="1"/></linearGradient><linearGradient id="linearGradient6544" x1="25.132" x2="25.132" y1="6.729" y2="47.013" gradientTransform="translate(-1e-5,-0.99999972)" gradientUnits="userSpaceOnUse" xlink:href="#linearGradient3600"/><linearGradient id="linearGradient4042"><stop id="stop4044" offset="0" stop-color="#7a7a7a" stop-opacity="1"/><stop id="stop4046" offset="1" stop-color="#5d5d5d" stop-opacity="1"/></linearGradient><linearGradient id="linearGradient3762" x1="22.954" x2="22.954" y1="7.636" y2="19.321" gradientTransform="matrix(0.9660653,0,0,0.9014227,-2.1500001,3.5833345)" gradientUnits="userSpaceOnUse" xlink:href="#linearGradient4042"/><linearGradient id="linearGradient8668" x1="22.104" x2="22.104" y1="43.199" y2="11.817" gradientTransform="matrix(1.0675585,0,0,1.5499184,1.7897063,4.6799716)" gradientUnits="userSpaceOnUse" xlink:href="#linearGradient4338"/><linearGradient id="linearGradient8666" x1="22.104" x2="22.104" y1="43.199" y2="11.817" gradientTransform="matrix(1.0675585,0,0,1.5499184,1.7897063,4.6799716)" gradientUnits="userSpaceOnUse" xlink:href="#linearGradient4338"/><linearGradient id="linearGradient8664" x1="22.104" x2="22.104" y1="43.199" y2="11.817" gradientTransform="matrix(1.0675585,0,0,1.5499184,1.7897063,4.6799716)" gradientUnits="userSpaceOnUse" xlink:href="#linearGradient4338"/><linearGradient id="linearGradient8662" x1="22.104" x2="22.104" y1="43.199" y2="11.817" gradientTransform="matrix(1.0675585,0,0,1.5499184,1.7897063,4.6799716)" gradientUnits="userSpaceOnUse" xlink:href="#linearGradient4338"/><linearGradient id="linearGradient8660" x1="22.104" x2="22.104" y1="43.199" y2="11.817" gradientTransform="matrix(1.0675585,0,0,1.5499184,1.7897063,4.6799716)" gradientUnits="userSpaceOnUse" xlink:href="#linearGradient4338"/><linearGradient id="linearGradient8658" x1="22.104" x2="22.104" y1="43.199" y2="11.817" gradientTransform="matrix(1.0675585,0,0,1.5499184,1.7897063,4.6799716)" gradientUnits="userSpaceOnUse" xlink:href="#linearGradient4338"/><linearGradient id="linearGradient8656" x1="22.104" x2="22.104" y1="43.199" y2="11.817" gradientTransform="matrix(1.0675585,0,0,1.5499163,1.7897063,5.9078126)" gradientUnits="userSpaceOnUse" xlink:href="#linearGradient4338"/><linearGradient id="linearGradient8654" x1="22.104" x2="22.104" y1="43.199" y2="11.817" gradientTransform="matrix(1.0675585,0,0,1.5499163,1.7897063,5.9078126)" gradientUnits="userSpaceOnUse" xlink:href="#linearGradient4338"/><linearGradient id="linearGradient8652" x1="22.104" x2="22.104" y1="43.199" y2="11.817" gradientTransform="matrix(1.0675585,0,0,1.5499163,1.7897063,5.9078126)" gradientUnits="userSpaceOnUse" xlink:href="#linearGradient4338"/><linearGradient id="linearGradient8650" x1="22.104" x2="22.104" y1="43.199" y2="11.817" gradientTransform="matrix(1.0675585,0,0,1.5499163,1.7897063,5.9078126)" gradientUnits="userSpaceOnUse" xlink:href="#linearGradient4338"/><linearGradient id="linearGradient8648" x1="22.104" x2="22.104" y1="43.199" y2="11.817" gradientTransform="matrix(1.0675585,0,0,1.5499163,1.7897063,5.9078126)" gradientUnits="userSpaceOnUse" xlink:href="#linearGradient4338"/><linearGradient id="linearGradient8646" x1="22.104" x2="22.104" y1="43.199" y2="11.817" gradientTransform="matrix(1.0675585,0,0,1.5499163,1.7897063,5.9078126)" gradientUnits="userSpaceOnUse" xlink:href="#linearGradient4338"/><linearGradient id="linearGradient8644" x1="22.104" x2="22.104" y1="43.199" y2="11.817" gradientTransform="matrix(1.0376241,0,0,1.5499163,2.1320828,5.0892594)" gradientUnits="userSpaceOnUse" xlink:href="#linearGradient4338"/><linearGradient id="linearGradient8642" x1="22.104" x2="22.104" y1="43.199" y2="11.817" gradientTransform="matrix(1.0376241,0,0,1.5499163,2.1320828,5.0892594)" gradientUnits="userSpaceOnUse" xlink:href="#linearGradient4338"/><linearGradient id="linearGradient8640" x1="22.104" x2="22.104" y1="43.199" y2="11.817" gradientTransform="matrix(1.0376241,0,0,1.5499163,2.1320828,5.0892594)" gradientUnits="userSpaceOnUse" xlink:href="#linearGradient4338"/><linearGradient id="linearGradient8638" x1="22.104" x2="22.104" y1="43.199" y2="11.817" gradientTransform="matrix(1.0376241,0,0,1.5499163,2.1320828,5.0892594)" gradientUnits="userSpaceOnUse" xlink:href="#linearGradient4338"/><linearGradient id="linearGradient8636" x1="22.104" x2="22.104" y1="43.199" y2="11.817" gradientTransform="matrix(1.0376241,0,0,1.5499163,2.1320828,5.0892594)" gradientUnits="userSpaceOnUse" xlink:href="#linearGradient4338"/><linearGradient id="linearGradient8634" x1="22.104" x2="22.104" y1="43.199" y2="11.817" gradientTransform="matrix(1.0376241,0,0,1.5499163,2.1320828,5.0892594)" gradientUnits="userSpaceOnUse" xlink:href="#linearGradient4338"/><linearGradient id="linearGradient8632" x1="22.104" x2="22.104" y1="43.199" y2="11.817" gradientTransform="matrix(1.0376241,0,0,1.5499163,2.1320828,5.0892594)" gradientUnits="userSpaceOnUse" xlink:href="#linearGradient4338"/><linearGradient id="linearGradient8630" x1="22.104" x2="22.104" y1="43.199" y2="11.817" gradientTransform="matrix(1.0582642,0,0,1.5499163,1.8960099,5.498536)" gradientUnits="userSpaceOnUse" xlink:href="#linearGradient4338"/><linearGradient id="linearGradient8628" x1="22.104" x2="22.104" y1="43.199" y2="11.817" gradientTransform="matrix(1.0582642,0,0,1.5499163,1.8960099,5.498536)" gradientUnits="userSpaceOnUse" xlink:href="#linearGradient4338"/><linearGradient id="linearGradient8626" x1="22.104" x2="22.104" y1="43.199" y2="11.817" gradientTransform="matrix(1.0582642,0,0,1.5499163,1.8960099,5.498536)" gradientUnits="userSpaceOnUse" xlink:href="#linearGradient4338"/><linearGradient id="linearGradient8624" x1="22.104" x2="22.104" y1="43.199" y2="11.817" gradientTransform="matrix(1.0582642,0,0,1.5499163,1.8960099,5.498536)" gradientUnits="userSpaceOnUse" xlink:href="#linearGradient4338"/><linearGradient id="linearGradient8622" x1="22.104" x2="22.104" y1="43.199" y2="11.817" gradientTransform="matrix(1.0582642,0,0,1.5499163,1.8960099,5.498536)" gradientUnits="userSpaceOnUse" xlink:href="#linearGradient4338"/><linearGradient id="linearGradient8620" x1="22.104" x2="22.104" y1="43.199" y2="11.817" gradientTransform="matrix(1.0582642,0,0,1.5499163,1.8960099,7.1356153)" gradientUnits="userSpaceOnUse" xlink:href="#linearGradient4338"/><linearGradient id="linearGradient8618" x1="22.104" x2="22.104" y1="43.199" y2="11.817" gradientTransform="matrix(1.0582642,0,0,1.5499163,1.8960099,7.1356153)" gradientUnits="userSpaceOnUse" xlink:href="#linearGradient4338"/><linearGradient id="linearGradient8616" x1="22.104" x2="22.104" y1="43.199" y2="11.817" gradientTransform="matrix(1.0582642,0,0,1.5499163,1.8960099,7.1356153)" gradientUnits="userSpaceOnUse" xlink:href="#linearGradient4338"/><linearGradient id="linearGradient8614" x1="22.104" x2="22.104" y1="43.199" y2="11.817" gradientTransform="matrix(1.0582642,0,0,1.5499163,1.8960099,7.1356153)" gradientUnits="userSpaceOnUse" xlink:href="#linearGradient4338"/><linearGradient id="linearGradient8612" x1="22.104" x2="22.104" y1="43.199" y2="11.817" gradientTransform="matrix(1.0582642,0,0,1.5499163,1.8960099,7.1356153)" gradientUnits="userSpaceOnUse" xlink:href="#linearGradient4338"/><linearGradient id="linearGradient8610" x1="22.104" x2="22.104" y1="43.199" y2="11.817" gradientTransform="matrix(1.0334293,0,0,1.5499163,2.1800615,6.3170757)" gradientUnits="userSpaceOnUse" xlink:href="#linearGradient4338"/><linearGradient id="linearGradient8608" x1="22.104" x2="22.104" y1="43.199" y2="11.817" gradientTransform="matrix(1.0334293,0,0,1.5499163,2.1800615,6.3170757)" gradientUnits="userSpaceOnUse" xlink:href="#linearGradient4338"/><linearGradient id="linearGradient8606" x1="22.104" x2="22.104" y1="43.199" y2="11.817" gradientTransform="matrix(1.0334293,0,0,1.5499163,2.1800615,6.3170757)" gradientUnits="userSpaceOnUse" xlink:href="#linearGradient4338"/><linearGradient id="linearGradient8604" x1="22.104" x2="22.104" y1="43.199" y2="11.817" gradientTransform="matrix(1.0334293,0,0,1.5499163,2.1800615,6.3170757)" gradientUnits="userSpaceOnUse" xlink:href="#linearGradient4338"/><linearGradient id="linearGradient8602" x1="22.104" x2="22.104" y1="43.199" y2="11.817" gradientTransform="matrix(1.0334293,0,0,1.5499163,2.1800615,6.3170757)" gradientUnits="userSpaceOnUse" xlink:href="#linearGradient4338"/><linearGradient id="linearGradient8600" x1="22.104" x2="22.104" y1="43.199" y2="11.817" gradientTransform="matrix(1.0334293,0,0,1.5499163,2.1800615,6.3170757)" gradientUnits="userSpaceOnUse" xlink:href="#linearGradient4338"/><linearGradient id="linearGradient8598" x1="22.104" x2="22.104" y1="43.199" y2="11.817" gradientTransform="matrix(1.0871735,0,0,1.5499184,1.565357,6.7263169)" gradientUnits="userSpaceOnUse" xlink:href="#linearGradient4338"/><linearGradient id="linearGradient8596" x1="22.104" x2="22.104" y1="43.199" y2="11.817" gradientTransform="matrix(1.0871735,0,0,1.5499184,1.565357,6.7263169)" gradientUnits="userSpaceOnUse" xlink:href="#linearGradient4338"/><linearGradient id="linearGradient8594" x1="22.104" x2="22.104" y1="43.199" y2="11.817" gradientTransform="matrix(1.0871735,0,0,1.5499184,1.565357,6.7263169)" gradientUnits="userSpaceOnUse" xlink:href="#linearGradient4338"/><linearGradient id="linearGradient8592" x1="22.104" x2="22.104" y1="43.199" y2="11.817" gradientTransform="matrix(1.0871735,0,0,1.5499184,1.565357,6.7263169)" gradientUnits="userSpaceOnUse" xlink:href="#linearGradient4338"/><linearGradient id="linearGradient8590" x1="22.104" x2="22.104" y1="43.199" y2="11.817" gradientTransform="matrix(1.0871735,0,0,1.5499184,1.565357,6.7263169)" gradientUnits="userSpaceOnUse" xlink:href="#linearGradient4338"/><linearGradient id="linearGradient8587" x1="22.104" x2="22.104" y1="43.199" y2="11.817" gradientTransform="matrix(1.0871735,0,0,1.5499184,1.565357,6.7263169)" gradientUnits="userSpaceOnUse" xlink:href="#linearGradient4338"/><linearGradient id="linearGradient8585" x1="22.104" x2="22.104" y1="43.199" y2="11.817" gradientTransform="matrix(1.0871735,0,0,1.5499184,1.565357,6.7263169)" gradientUnits="userSpaceOnUse" xlink:href="#linearGradient4338"/><linearGradient id="linearGradient8583" x1="22.104" x2="22.104" y1="43.199" y2="11.817" gradientTransform="matrix(1.0701359,0,0,1.5499163,1.7602266,7.5448923)" gradientUnits="userSpaceOnUse" xlink:href="#linearGradient4338"/><linearGradient id="linearGradient4338"><stop id="stop4340" offset="0" stop-color="#8e8e8e" stop-opacity="1"/><stop id="stop4342" offset="1" stop-color="#b5b5b5" stop-opacity="1"/></linearGradient><linearGradient id="linearGradient8581" x1="22.104" x2="22.104" y1="43.199" y2="11.817" gradientTransform="matrix(1.0701359,0,0,1.5499163,1.7602266,7.5448923)" gradientUnits="userSpaceOnUse" xlink:href="#linearGradient4338"/><linearGradient id="linearGradient3211"><stop id="stop3213" offset="0" stop-color="#fff" stop-opacity="1"/><stop id="stop3215" offset="1" stop-color="#fff" stop-opacity="0"/></linearGradient><linearGradient id="linearGradient3159" x1="24" x2="24" y1="2" y2="46.017" gradientTransform="matrix(1,0,0,0.9777778,-3e-7,-0.988888)" gradientUnits="userSpaceOnUse" xlink:href="#linearGradient3211"/><linearGradient id="linearGradient4079" x1="10.943" x2="20.196" y1="-14.172" y2="55.1" gradientUnits="userSpaceOnUse" xlink:href="#linearGradient3993"/><linearGradient id="linearGradient3993"><stop id="stop3995" offset="0" stop-color="#a3c0d0" stop-opacity="1"/><stop id="stop4001" offset="1" stop-color="#427da1" stop-opacity="1"/></linearGradient></defs><g id="layer1"><g id="g3800" display="inline" transform="matrix(0.9561265,0,0,0.9561265,1.05296,1.1059287)"><rect id="rect3802" width="34" height="3.734" x="7" y="44.266" fill="url(#linearGradient6506)" fill-opacity="1" fill-rule="nonzero" stroke="none" stroke-width="1" display="inline" opacity=".402" overflow="visible" visibility="visible" style="marker:none"/><path id="path3804" fill="url(#radialGradient6508)" fill-opacity="1" fill-rule="nonzero" stroke="none" stroke-width="1" d="m 7,44.266291 c 0,0 0,3.733665 0,3.733665 -1.2409448,0.007 -3,-0.836525 -3,-1.867073 0,-1.030547 1.3848007,-1.866591 3,-1.866592 z" display="inline" opacity=".402" overflow="visible" visibility="visible" style="marker:none"/><path id="path3806" fill="url(#radialGradient6510)" fill-opacity="1" fill-rule="nonzero" stroke="none" stroke-width="1" d="m 41,44.266291 c 0,0 0,3.733665 0,3.733665 1.240944,0.007 3,-0.836525 3,-1.867073 0,-1.030547 -1.384801,-1.866591 -3,-1.866592 z" display="inline" opacity=".402" overflow="visible" visibility="visible" style="marker:none"/></g><path id="path3808" fill="url(#linearGradient6544)" fill-opacity="1" stroke="url(#linearGradient6546)" stroke-dasharray="none" stroke-dashoffset="0" stroke-linecap="butt" stroke-linejoin="round" stroke-miterlimit="4" stroke-opacity="1" stroke-width="1" d="m 6.49996,0.5 35.00008,0 0,45.000042 -35.00008,0 0,-45.000042 z" display="inline"/><path id="text4036" fill="url(#linearGradient3762)" fill-opacity="1" stroke="none" d="m 19.298,11.438237 c -0.707433,1.789969 -1.414866,3.579938 -2.1223,5.369907 1.417449,0 2.834897,0 4.252345,0 C 20.71803,15.018175 20.008015,13.228206 19.298,11.438237 z M 18.414999,9.9999983 c 0.591249,0 1.182498,0 1.773746,0 1.469086,3.5968017 2.938171,7.1936037 4.407257,10.7904067 -0.542193,0 -1.084386,0 -1.626578,0 -0.351135,-0.92269 -0.70227,-1.845379 -1.053405,-2.768069 -1.7376,0 -3.4752,0 -5.212799,0 -0.351136,0.92269 -0.702271,1.845379 -1.053406,2.768069 -0.549939,0 -1.099878,0 -1.649817,0 1.471668,-3.596803 2.943335,-7.193605 4.415002,-10.7904067 z m 11.742356,6.7214177 c -0.908531,0.03519 -1.969295,-0.02527 -2.684826,0.585417 -0.737127,0.785942 -0.371972,2.285318 0.800158,2.501304 1.14437,0.302445 2.480955,-0.201851 2.961638,-1.244172 0.265046,-0.538479 0.440809,-1.325416 0.29502,-1.842549 -0.457329,0 -0.914659,0 -1.37199,0 z m 2.84264,-0.549276 c 0,1.539421 0,3.078843 0,4.618265 -0.475064,0 -0.950128,0 -1.425194,0 0,-0.409549 0,-0.819098 0,-1.228647 -0.588372,0.990543 -1.816175,1.488111 -2.997552,1.43824 -1.255755,0.06807 -2.592409,-0.671501 -2.828209,-1.879812 -0.299982,-1.16469 0.177545,-2.587003 1.451424,-3.049226 1.381221,-0.559021 2.912301,-0.347614 4.374337,-0.390279 0.0996,-0.863506 -0.509927,-1.722978 -1.425195,-1.926079 -1.288976,-0.299903 -2.684715,-0.04413 -3.841822,0.538432 -1e-6,-0.40955 -1e-6,-0.819098 -1e-6,-1.228648 1.600686,-0.563934 3.495746,-0.872192 5.088777,-0.133305 1.262247,0.612957 1.617925,2.020452 1.603437,3.241059 l -2e-6,0 z" display="inline" font-family="Bitstream Vera Sans" font-size="15.323" font-style="normal" font-weight="normal"/><path id="path8479" fill="url(#linearGradient8668)" fill-opacity="1" stroke="none" d="m 14,23 2.517899,0 0,1 L 14,24 14,23 z" display="inline" opacity=".7"/><path id="path8477" fill="url(#linearGradient8666)" fill-opacity="1" stroke="none" d="m 16.860877,23 2.375751,0 0,1 -2.375751,0 0,-1 z" display="inline" opacity=".7"/><path id="path8475" fill="url(#linearGradient8664)" fill-opacity="1" stroke="none" d="m 19.579606,23 2.091433,0 0,1 -2.091433,0 0,-1 z" display="inline" opacity=".7"/><path id="path8473" fill="url(#linearGradient8662)" fill-opacity="1" stroke="none" d="m 22.014018,23 0.918647,0 0,1 -0.918647,0 0,-1 z" display="inline" opacity=".7"/><path id="path8471" fill="url(#linearGradient8660)" fill-opacity="1" stroke="none" d="m 23.275655,23 2.055887,0 0,1 -2.055887,0 0,-1 z" display="inline" opacity=".7"/><path id="path8469" fill="url(#linearGradient8658)" fill-opacity="1" stroke="none" d="M 25.674531,23 31,23 l 0,1 -5.325469,0 0,-1 z" display="inline" opacity=".7"/><path id="path8461" fill="url(#linearGradient8656)" fill-opacity="1" stroke="none" d="m 14,29 2.517899,0 0,1 L 14,30 14,29 z" display="inline" opacity=".7"/><path id="path8459" fill="url(#linearGradient8654)" fill-opacity="1" stroke="none" d="m 16.860877,29 2.375751,0 0,1 -2.375751,0 0,-1 z" display="inline" opacity=".7"/><path id="path8457" fill="url(#linearGradient8652)" fill-opacity="1" stroke="none" d="m 19.579606,29 2.091433,0 0,1 -2.091433,0 0,-1 z" display="inline" opacity=".7"/><path id="path8455" fill="url(#linearGradient8650)" fill-opacity="1" stroke="none" d="m 22.014018,29 0.918647,0 0,1 -0.918647,0 0,-1 z" display="inline" opacity=".7"/><path id="path8453" fill="url(#linearGradient8648)" fill-opacity="1" stroke="none" d="m 23.275655,29 2.055887,0 0,1 -2.055887,0 0,-1 z" display="inline" opacity=".7"/><path id="path8451" fill="url(#linearGradient8646)" fill-opacity="1" stroke="none" d="M 25.674531,29 31,29 l 0,1 -5.325469,0 0,-1 z" display="inline" opacity=".7"/><path id="path8443" fill="url(#linearGradient8644)" fill-opacity="1" stroke="none" d="m 14,25 3.794446,0 0,1 L 14,26 14,25 z" display="inline" opacity=".7"/><path id="path8441" fill="url(#linearGradient8642)" fill-opacity="1" stroke="none" d="m 18.140771,25 1.825529,0 0,1 -1.825529,0 0,-1 z" display="inline" opacity=".7"/><path id="path8439" fill="url(#linearGradient8640)" fill-opacity="1" stroke="none" d="m 20.312625,25 0.85834,0 0,1 -0.85834,0 0,-1 z" display="inline" opacity=".7"/><path id="path8437" fill="url(#linearGradient8638)" fill-opacity="1" stroke="none" d="m 21.51729,25 1.652819,0 0,1 -1.652819,0 0,-1 z" display="inline" opacity=".7"/><path id="path8435" fill="url(#linearGradient8636)" fill-opacity="1" stroke="none" d="m 23.516423,25 1.652819,0 0,1 -1.652819,0 0,-1 z" display="inline" opacity=".7"/><path id="path8433" fill="url(#linearGradient8634)" fill-opacity="1" stroke="none" d="m 25.515567,25 2.654546,0 0,1 -2.654546,0 0,-1 z" display="inline" opacity=".7"/><path id="path8431" fill="url(#linearGradient8632)" fill-opacity="1" stroke="none" d="M 28.516428,25 32,25 l 0,1 -3.483572,0 0,-1 z" display="inline" opacity=".7"/><path id="path8425" fill="url(#linearGradient8630)" fill-opacity="1" stroke="none" d="m 14,27 4.433598,0 0,1 L 14,28 14,27 z" display="inline" opacity=".7"/><path id="path8423" fill="url(#linearGradient8628)" fill-opacity="1" stroke="none" d="m 18.781149,27 4.750656,0 0,1 -4.750656,0 0,-1 z" display="inline" opacity=".7"/><path id="path8421" fill="url(#linearGradient8626)" fill-opacity="1" stroke="none" d="m 23.879356,27 1.897077,0 0,1 -1.897077,0 0,-1 z" display="inline" opacity=".7"/><path id="path8419" fill="url(#linearGradient8624)" fill-opacity="1" stroke="none" d="m 26.123984,27 4.468823,0 0,1 -4.468823,0 0,-1 z" display="inline" opacity=".7"/><path id="path8415" fill="url(#linearGradient8622)" fill-opacity="1" stroke="none" d="M 30.940358,27 34,27 l 0,1 -3.059642,0 0,-1 z" display="inline" opacity=".7"/><path id="path8409" fill="url(#linearGradient8620)" fill-opacity="1" stroke="none" d="m 14,35 4.433598,0 0,1 L 14,36 14,35 z" display="inline" opacity=".7"/><path id="path8407" fill="url(#linearGradient8618)" fill-opacity="1" stroke="none" d="m 18.781149,35 4.750656,0 0,1 -4.750656,0 0,-1 z" display="inline" opacity=".7"/><path id="path8405" fill="url(#linearGradient8616)" fill-opacity="1" stroke="none" d="m 23.879356,35 1.897077,0 0,1 -1.897077,0 0,-1 z" display="inline" opacity=".7"/><path id="path8403" fill="url(#linearGradient8614)" fill-opacity="1" stroke="none" d="m 26.123984,35 4.468823,0 0,1 -4.468823,0 0,-1 z" display="inline" opacity=".7"/><path id="path8399" fill="url(#linearGradient8612)" fill-opacity="1" stroke="none" d="M 30.940358,35 34,35 l 0,1 -3.059642,0 0,-1 z" display="inline" opacity=".7"/><path id="path8393" fill="url(#linearGradient8610)" fill-opacity="1" stroke="none" d="m 14,31 3.125454,0 0,1 L 14,32 14,31 z" display="inline" opacity=".7"/><path id="path8391" fill="url(#linearGradient8608)" fill-opacity="1" stroke="none" d="m 17.457478,31 5.189615,0 0,1 -5.189615,0 0,-1 z" display="inline" opacity=".7"/><path id="path8389" fill="url(#linearGradient8606)" fill-opacity="1" stroke="none" d="m 22.979118,31 2.5062,0 0,1 -2.5062,0 0,-1 z" display="inline" opacity=".7"/><path id="path8387" fill="url(#linearGradient8604)" fill-opacity="1" stroke="none" d="m 28.483553,31 1.990162,0 0,1 -1.990162,0 0,-1 z" display="inline" opacity=".7"/><path id="path8385" fill="url(#linearGradient8602)" fill-opacity="1" stroke="none" d="M 30.805739,31 34,31 l 0,1 -3.194261,0 0,-1 z" display="inline" opacity=".7"/><path id="path8381" fill="url(#linearGradient8600)" fill-opacity="1" stroke="none" d="m 25.817342,31 2.334197,0 0,1 -2.334197,0 0,-1 z" display="inline" opacity=".7"/><path id="path8379" fill="url(#linearGradient8598)" fill-opacity="1" stroke="none" d="m 14,33 4.120412,0 0,1 L 14,34 14,33 z" display="inline" opacity=".7"/><path id="path8377" fill="url(#linearGradient8596)" fill-opacity="1" stroke="none" d="m 18.460648,33 1.297443,0 0,1 -1.297443,0 0,-1 z" display="inline" opacity=".7"/><path id="path8375" fill="url(#linearGradient8594)" fill-opacity="1" stroke="none" d="m 20.098328,33 2.962276,0 0,1 -2.962276,0 0,-1 z" display="inline" opacity=".7"/><path id="path8373" fill="url(#linearGradient8592)" fill-opacity="1" stroke="none" d="m 23.400841,33 2.021287,0 0,1 -2.021287,0 0,-1 z" display="inline" opacity=".7"/><path id="path8371" fill="url(#linearGradient8590)" fill-opacity="1" stroke="none" d="m 25.762365,33 2.021276,0 0,1 -2.021276,0 0,-1 z" display="inline" opacity=".7"/><path id="path8369" fill="url(#linearGradient8587)" fill-opacity="1" stroke="none" d="m 28.123888,33 2.926078,0 0,1 -2.926078,0 0,-1 z" display="inline" opacity=".7"/><path id="path8367" fill="url(#linearGradient8585)" fill-opacity="1" stroke="none" d="M 31.390192,33 32,33 l 0,1 -0.609808,0 0,-1 z" display="inline" opacity=".7"/><path id="path8361" fill="url(#linearGradient8583)" fill-opacity="1" stroke="none" d="m 14,37 1.633356,0 0,1 L 14,38 14,37 z" display="inline" opacity=".7"/><path id="path8359" fill="url(#linearGradient8581)" fill-opacity="1" stroke="none" d="M 16.056056,37 22,37 l 0,1 -5.943944,0 0,-1 z" display="inline" opacity=".7"/><path id="path3821" fill="none" stroke="url(#linearGradient4079)" stroke-linecap="butt" stroke-linejoin="miter" stroke-opacity="1" stroke-width="1" d="m 7,40.5 34,0 M 12.660905,1.2358095 12.5,45 m 24,-44 0,44 M 7,7.5 l 34,0" opacity=".6"/><path id="path2435" fill="none" stroke="url(#linearGradient3159)" stroke-dasharray="none" stroke-dashoffset="0" stroke-linecap="butt" stroke-linejoin="round" stroke-miterlimit="4" stroke-opacity="1" stroke-width="1" d="m 40.500039,2.236593 c 0,10.949036 0,30.314409 0,41.263446 -11.000026,0 -22.000052,0 -33.0000781,0 0,-14.014841 0,-28.029681 0,-42.044521 7.5619931,0 25.3043341,0 32.8663281,0" display="inline" opacity=".6"/></g></svg>