<svg xmlns="http://www.w3.org/2000/svg" xmlns:svg="http://www.w3.org/2000/svg" xmlns:xlink="http://www.w3.org/1999/xlink" id="svg2469" width="48" height="48" version="1.0"><defs id="defs2471"><linearGradient id="linearGradient3678"><stop id="stop3680" offset="0" stop-color="#f48e72" stop-opacity="1"/><stop id="stop3682" offset="1" stop-color="#debc8c" stop-opacity="0"/></linearGradient><linearGradient id="linearGradient3672"><stop id="stop3674" offset="0" stop-color="#f48e72" stop-opacity="1"/><stop id="stop3676" offset="1" stop-color="#f0403c" stop-opacity="1"/></linearGradient><linearGradient id="linearGradient3789"><stop id="stop3791" offset="0" stop-color="#f4ac72" stop-opacity="1"/><stop id="stop3793" offset="1" stop-color="#debc8c" stop-opacity="0"/></linearGradient><linearGradient id="linearGradient2490-182-124"><stop id="stop2788" offset="0" stop-color="#1f4b6a" stop-opacity="1"/><stop id="stop2790" offset="1" stop-color="#4083c2" stop-opacity="1"/></linearGradient><linearGradient id="linearGradient2411" x1="18.379" x2="18.379" y1="44.98" y2="3.082" gradientTransform="matrix(0.36528276,0,0,0.36528276,-0.76678515,-0.76678532)" gradientUnits="userSpaceOnUse" xlink:href="#linearGradient2490-182-124"/><linearGradient id="linearGradient3242-187-536"><stop id="stop2778" offset="0" stop-color="#8badea" stop-opacity="1"/><stop id="stop2780" offset=".262" stop-color="#6396cd" stop-opacity="1"/><stop id="stop2782" offset=".661" stop-color="#3b7caf" stop-opacity="1"/><stop id="stop2784" offset="1" stop-color="#194c70" stop-opacity="1"/></linearGradient><radialGradient id="radialGradient2409" cx="30.584" cy="4.015" r="20.397" fx="30.584" fy="4.015" gradientTransform="matrix(-1.0628976e-8,0.48587865,-0.38870289,0,9.5607311,-9.8331539)" gradientUnits="userSpaceOnUse" xlink:href="#linearGradient3242-187-536"/><linearGradient id="linearGradient6326"><stop id="stop6328" offset="0" stop-color="#f4ac72" stop-opacity="1"/><stop id="stop6330" offset="1" stop-color="#f08c3c" stop-opacity="1"/></linearGradient><linearGradient id="linearGradient3642" x1="48.127" x2="2.873" y1="25.828" y2="24.414" gradientUnits="userSpaceOnUse" xlink:href="#linearGradient3672"/><linearGradient id="linearGradient4956"><stop id="stop4958" offset="0" stop-color="#f8b17e" stop-opacity="1"/><stop id="stop4960" offset=".262" stop-color="#e35d4f" stop-opacity="1"/><stop id="stop4962" offset=".663" stop-color="#c6262e" stop-opacity="1"/><stop id="stop4964" offset="1" stop-color="#690b54" stop-opacity="1"/></linearGradient><linearGradient id="linearGradient2490"><stop id="stop2492" offset="0" stop-color="#791235" stop-opacity="1"/><stop id="stop2494" offset="1" stop-color="#dd3b27" stop-opacity="1"/></linearGradient><linearGradient id="linearGradient4103"><stop id="stop4105" offset="0" stop-color="#f4e6a4" stop-opacity="1"/><stop id="stop3728" offset=".5" stop-color="#edd563" stop-opacity="1"/><stop id="stop4107" offset="1" stop-color="#d2781e" stop-opacity="1"/></linearGradient><linearGradient id="linearGradient6468"><stop id="stop6470" offset="0" stop-color="#deab79" stop-opacity="1"/><stop id="stop6472" offset="1" stop-color="#cd8033" stop-opacity="1"/></linearGradient><linearGradient id="linearGradient3712" x1="9.875" x2="9.125" y1="43.125" y2="38.625" gradientUnits="userSpaceOnUse" xlink:href="#linearGradient2490"/><radialGradient id="radialGradient3720" cx="9.125" cy="40.125" r="1.875" fx="9.125" fy="40.125" gradientUnits="userSpaceOnUse" xlink:href="#linearGradient4956"/><radialGradient id="radialGradient3724" cx="8.927" cy="39.982" r="1.875" fx="8.927" fy="39.982" gradientTransform="matrix(0.7999999,-1.3545936e-7,1.2254688e-7,0.72374101,1.9832467,11.188491)" gradientUnits="userSpaceOnUse" xlink:href="#linearGradient4103"/><linearGradient id="linearGradient3726" x1="8.375" x2="9.125" y1="38.625" y2="42.375" gradientUnits="userSpaceOnUse" xlink:href="#linearGradient6468"/><linearGradient id="linearGradient3757" x1="4.49" x2="47.5" y1="23" y2="23" gradientUnits="userSpaceOnUse" xlink:href="#linearGradient6326"/><linearGradient id="linearGradient3765" x1="46.006" x2="4.287" y1="23.707" y2="27.243" gradientUnits="userSpaceOnUse" xlink:href="#linearGradient6326"/><linearGradient id="linearGradient3773" x1="3.5" x2="47.5" y1="23" y2="23" gradientUnits="userSpaceOnUse" xlink:href="#linearGradient3672"/><radialGradient id="radialGradient3777" cx="9.125" cy="40.125" r="1.875" fx="9.125" fy="40.125" gradientUnits="userSpaceOnUse" xlink:href="#linearGradient4956"/><linearGradient id="linearGradient3779" x1="9.875" x2="9.125" y1="43.125" y2="38.625" gradientUnits="userSpaceOnUse" xlink:href="#linearGradient2490"/><radialGradient id="radialGradient3783" cx="8.927" cy="39.927" r="1.875" fx="8.927" fy="39.927" gradientTransform="matrix(0.79999997,-1.4446389e-7,1.4446386e-7,0.7999998,1.983245,8.183261)" gradientUnits="userSpaceOnUse" xlink:href="#linearGradient4103"/><linearGradient id="linearGradient3785" x1="8.375" x2="9.125" y1="38.625" y2="42.375" gradientUnits="userSpaceOnUse" xlink:href="#linearGradient6468"/><linearGradient id="linearGradient3795" x1="14.893" x2="2.832" y1="23.707" y2="24.109" gradientUnits="userSpaceOnUse" xlink:href="#linearGradient3678"/><linearGradient id="linearGradient3799" x1="37.5" x2="49.09" y1="23" y2="23.173" gradientUnits="userSpaceOnUse" xlink:href="#linearGradient3789"/><linearGradient id="linearGradient3803" x1="14.893" x2="4.063" y1="22.293" y2="21.83" gradientUnits="userSpaceOnUse" xlink:href="#linearGradient3789"/><linearGradient id="linearGradient3807" x1="35.5" x2="48.263" y1="22" y2="21.914" gradientUnits="userSpaceOnUse" xlink:href="#linearGradient3678"/></defs><g id="layer1" transform="translate(16,17)"><g id="g3809" transform="translate(0,-1.0000005)"><path id="path3805" fill="none" stroke="url(#linearGradient3807)" stroke-dasharray="none" stroke-dashoffset="0" stroke-linecap="round" stroke-linejoin="round" stroke-miterlimit="4" stroke-opacity="1" stroke-width="1" d="M 4.0001339,22.966478 A 21.5,9.5 0 0 1 46.548222,21.062738" transform="matrix(0,1,-1,0,31,-17.5)"/><path id="path3801" fill="none" stroke="url(#linearGradient3803)" stroke-dasharray="none" stroke-dashoffset="0" stroke-linecap="round" stroke-linejoin="round" stroke-miterlimit="4" stroke-opacity="1" stroke-width="1" d="M 4.9665462,20.183602 A 21.5,9.5 0 0 1 46.962815,23.558487" transform="matrix(0.70710678,0.70710678,-0.70710678,0.70710678,6.232233,-26.294679)"/><g id="g2493" transform="matrix(0.87499999,0,0,0.87500009,1.0000001,0.99999985)"><path id="path2555" fill="url(#radialGradient2409)" fill-opacity="1" stroke="url(#linearGradient2411)" stroke-dasharray="none" stroke-dashoffset="0" stroke-linecap="round" stroke-linejoin="round" stroke-miterlimit="4" stroke-opacity="1" stroke-width="1.138" d="m 8.0000009,0.5687798 c -4.1002902,0 -7.43122191,3.330929 -7.43122191,7.4312198 0,4.1002924 3.33093171,7.4312234 7.43122191,7.4312204 4.1002891,0 7.4312241,-3.330928 7.4312201,-7.4312204 0,-4.1002908 -3.330931,-7.4312198 -7.4312201,-7.4312198 z"/></g><path id="path2835" fill="none" stroke="url(#linearGradient3757)" stroke-dasharray="none" stroke-dashoffset="0" stroke-linecap="round" stroke-linejoin="round" stroke-miterlimit="4" stroke-opacity="1" stroke-width="1" d="M 43.812181,27.977829 A 21.5,9.5 0 0 1 4.0235178,22.555779" transform="translate(-17.5,-15)"/><path id="path3609" fill="none" stroke="url(#linearGradient3773)" stroke-dasharray="none" stroke-dashoffset="0" stroke-linecap="round" stroke-linejoin="round" stroke-miterlimit="4" stroke-opacity="1" stroke-width="1" d="M 44.975848,27.024118 A 21.5,9.5 0 0 1 4.000062,22.977187" transform="matrix(0,1,-1,0,31,-17.5)"/><path id="path3611" fill="none" stroke="url(#linearGradient3765)" stroke-dasharray="none" stroke-dashoffset="0" stroke-linecap="round" stroke-linejoin="round" stroke-miterlimit="4" stroke-opacity="1" stroke-width="1" d="M 47,23 A 21.5,9.5 0 0 1 5.4191805,26.394302" transform="matrix(0.70710678,0.70710678,-0.70710678,0.70710678,6.232233,-26.294679)"/><path id="path3613" fill="none" stroke="url(#linearGradient3642)" stroke-dasharray="none" stroke-dashoffset="0" stroke-linecap="round" stroke-linejoin="round" stroke-miterlimit="4" stroke-opacity="1" stroke-width="1" d="M 46.960829,22.426804 A 21.5,9.5 0 0 1 8.2544926,28.67309" transform="matrix(-0.70710678,0.70710678,-0.70710678,-0.70710678,42.294679,6.2322329)"/><path id="path3615" fill="url(#radialGradient3720)" fill-opacity="1" stroke="url(#linearGradient3712)" stroke-dasharray="none" stroke-dashoffset="0" stroke-linecap="round" stroke-linejoin="round" stroke-miterlimit="4" stroke-opacity="1" stroke-width=".75" d="m 11,40.5 a 1.5,1.5 0 1 1 -3,0 1.5,1.5 0 1 1 3,0 z" transform="matrix(1.3331911,0,0,1.3331911,3.834685,-62.494239)"/><path id="path3722" fill="url(#radialGradient3724)" fill-opacity="1" stroke="url(#linearGradient3726)" stroke-dasharray="none" stroke-dashoffset="0" stroke-linecap="round" stroke-linejoin="round" stroke-miterlimit="4" stroke-opacity="1" stroke-width=".75" d="m 11,40.5 a 1.5,1.5 0 1 1 -3,0 1.5,1.5 0 1 1 3,0 z" transform="matrix(1.3331911,0,0,1.3331911,13.834685,-41.49424)"/><path id="path3775" fill="url(#radialGradient3777)" fill-opacity="1" stroke="url(#linearGradient3779)" stroke-dasharray="none" stroke-dashoffset="0" stroke-linecap="round" stroke-linejoin="round" stroke-miterlimit="4" stroke-opacity="1" stroke-width=".75" d="m 11,40.5 a 1.5,1.5 0 1 1 -3,0 1.5,1.5 0 1 1 3,0 z" transform="matrix(1.3331911,0,0,1.3331911,-8.1653155,-26.494239)"/><path id="path3781" fill="url(#radialGradient3783)" fill-opacity="1" stroke="url(#linearGradient3785)" stroke-dasharray="none" stroke-dashoffset="0" stroke-linecap="round" stroke-linejoin="round" stroke-miterlimit="4" stroke-opacity="1" stroke-width=".75" d="m 11,40.5 a 1.5,1.5 0 1 1 -3,0 1.5,1.5 0 1 1 3,0 z" transform="matrix(1.3331911,0,0,1.3331911,-21.165315,-58.49424)"/><path id="path3787" fill="none" stroke="url(#linearGradient3795)" stroke-dasharray="none" stroke-dashoffset="0" stroke-linecap="round" stroke-linejoin="round" stroke-miterlimit="4" stroke-opacity="1" stroke-width="1" d="M 4.0003514,22.945688 A 21.5,9.5 0 0 1 46.864979,21.936991" transform="matrix(-0.70710678,0.70710678,-0.70710678,-0.70710678,42.294679,6.2322329)"/><path id="path3797" fill="none" stroke="url(#linearGradient3799)" stroke-dasharray="none" stroke-dashoffset="0" stroke-linecap="round" stroke-linejoin="round" stroke-miterlimit="4" stroke-opacity="1" stroke-width="1" d="m 4.1293944,21.959307 a 21.5,9.5 0 0 1 42.8347426,0.49221" transform="translate(-17.5,-15)"/></g></g></svg>