<svg xmlns="http://www.w3.org/2000/svg" xmlns:svg="http://www.w3.org/2000/svg" xmlns:xlink="http://www.w3.org/1999/xlink" id="svg2" width="48" height="48" version="1.0"><defs id="defs4"><linearGradient id="linearGradient3676"><stop id="stop3678" offset="0" stop-color="#fff" stop-opacity="1"/><stop id="stop3680" offset="1" stop-color="#fff" stop-opacity="0"/></linearGradient><linearGradient id="linearGradient6886"><stop id="stop6888" offset="0" stop-color="#000" stop-opacity="1"/><stop id="stop6890" offset="1" stop-color="#000" stop-opacity="0"/></linearGradient><linearGradient id="linearGradient6856"><stop id="stop6858" offset="0" stop-color="#000" stop-opacity="1"/><stop id="stop6860" offset="1" stop-color="#000" stop-opacity="0"/></linearGradient><linearGradient id="linearGradient6594"><stop id="stop6596" offset="0" stop-color="#fff" stop-opacity="1"/><stop id="stop6714" offset=".5" stop-color="#b9b9b9" stop-opacity="1"/><stop id="stop6598" offset="1" stop-color="#fff" stop-opacity="1"/></linearGradient><linearGradient id="linearGradient6393"><stop id="stop6395" offset="0" stop-color="#d3d3d3" stop-opacity="1"/><stop id="stop6401" offset=".5" stop-color="#fff" stop-opacity="1"/><stop id="stop6397" offset="1" stop-color="#ededed" stop-opacity="1"/></linearGradient><linearGradient id="linearGradient6377"><stop id="stop6379" offset="0" stop-color="#2e3436" stop-opacity="1"/><stop id="stop6381" offset="1" stop-color="#2e3436" stop-opacity="0"/></linearGradient><linearGradient id="linearGradient3716" x1="13.66" x2="13.688" y1="37" y2="33.563" gradientTransform="translate(0,9)" gradientUnits="userSpaceOnUse" xlink:href="#linearGradient6594"/><linearGradient id="linearGradient3719" x1="13.66" x2="13.688" y1="37" y2="33.563" gradientTransform="translate(0,6)" gradientUnits="userSpaceOnUse" xlink:href="#linearGradient6594"/><linearGradient id="linearGradient3722" x1="13.66" x2="13.688" y1="37" y2="33.563" gradientTransform="translate(0,3)" gradientUnits="userSpaceOnUse" xlink:href="#linearGradient6594"/><linearGradient id="linearGradient3725" x1="17.694" x2="16.579" y1="5.893" y2="4.778" gradientTransform="matrix(-1,0,0,-1,60.72042,36.508763)" gradientUnits="userSpaceOnUse" xlink:href="#linearGradient6377"/><linearGradient id="linearGradient3728" x1="16.595" x2="17.468" y1="6.21" y2="7.22" gradientTransform="matrix(0.7071068,0.7071068,-0.7071068,0.7071068,25.843866,-1.269435)" gradientUnits="userSpaceOnUse" xlink:href="#linearGradient6377"/><linearGradient id="linearGradient3731" x1="16.175" x2="17.103" y1="5.834" y2="6.899" gradientTransform="translate(1,-1)" gradientUnits="userSpaceOnUse" xlink:href="#linearGradient6377"/><linearGradient id="linearGradient3734" x1="1.886" x2="-11.15" y1="34.621" y2="35.054" gradientTransform="matrix(0.74384436,-0.74384439,0.74384436,0.74384439,-0.16538581,-1.9976198)" gradientUnits="userSpaceOnUse" xlink:href="#linearGradient3676"/><linearGradient id="linearGradient3737" x1="-3.479" x2="-11.968" y1="39.66" y2="39.799" gradientTransform="matrix(1.0438745,0,0,1.0438745,1.2264592,-1.2493555)" gradientUnits="userSpaceOnUse" xlink:href="#linearGradient4956"/><linearGradient id="linearGradient3740" x1="13.66" x2="13.688" y1="37" y2="33.563" gradientUnits="userSpaceOnUse" xlink:href="#linearGradient6594"/><linearGradient id="linearGradient3743" x1="14.001" x2="14.001" y1="36.688" y2="34.313" gradientTransform="translate(0,-3)" gradientUnits="userSpaceOnUse" xlink:href="#linearGradient6594"/><linearGradient id="linearGradient3753" x1="8" x2="8" y1="26" y2="40" gradientUnits="userSpaceOnUse" xlink:href="#linearGradient3676"/><linearGradient id="linearGradient3756" x1="15" x2="15" y1="1" y2="20" gradientUnits="userSpaceOnUse" xlink:href="#linearGradient3676"/><linearGradient id="linearGradient3760" x1="40" x2="40" y1="24" y2="42" gradientTransform="translate(0,1.0004419)" gradientUnits="userSpaceOnUse" xlink:href="#linearGradient3676"/><linearGradient id="linearGradient3763" x1="40.57" x2="40.57" y1="37.35" y2="27.537" gradientTransform="translate(0,1.0004419)" gradientUnits="userSpaceOnUse" xlink:href="#linearGradient6393"/><linearGradient id="linearGradient3766" x1="32" x2="32" y1="22.5" y2="42.5" gradientTransform="translate(0,0.50044194)" gradientUnits="userSpaceOnUse" xlink:href="#linearGradient3676"/><linearGradient id="linearGradient3769" x1="31.166" x2="33.807" y1="34.234" y2="24.377" gradientTransform="translate(0,1.0004419)" gradientUnits="userSpaceOnUse" xlink:href="#linearGradient6393"/><radialGradient id="radialGradient3772" cx="23.953" cy="37.924" r="24.307" fx="23.953" fy="37.924" gradientTransform="matrix(0.3043674,0,0,0.12522675,21.889597,37.86075)" gradientUnits="userSpaceOnUse" xlink:href="#linearGradient6856"/><linearGradient id="linearGradient3778" x1="8.569" x2="22.398" y1="11.256" y2="13" gradientUnits="userSpaceOnUse" xlink:href="#linearGradient6393"/><linearGradient id="linearGradient3781" x1="17.75" x2="19.187" y1="14.625" y2="16.062" gradientUnits="userSpaceOnUse" xlink:href="#linearGradient6886"/><linearGradient id="linearGradient3784" x1="28" x2="28" y1="12" y2="19" gradientUnits="userSpaceOnUse" xlink:href="#linearGradient3676"/><linearGradient id="linearGradient3787" x1="14.274" x2="33.601" y1="15.036" y2="20.214" gradientUnits="userSpaceOnUse" xlink:href="#linearGradient6393"/><linearGradient id="linearGradient2490"><stop id="stop2492" offset="0" stop-color="#791235" stop-opacity="1"/><stop id="stop2494" offset="1" stop-color="#dd3b27" stop-opacity="1"/></linearGradient><linearGradient id="linearGradient4956"><stop id="stop4958" offset="0" stop-color="#f8b17e" stop-opacity="1"/><stop id="stop4960" offset=".262" stop-color="#e35d4f" stop-opacity="1"/><stop id="stop4962" offset=".663" stop-color="#c6262e" stop-opacity="1"/><stop id="stop4964" offset="1" stop-color="#690b54" stop-opacity="1"/></linearGradient><linearGradient id="linearGradient4027" x1="-13.29" x2="-1.252" y1="34.164" y2="33.259" gradientTransform="matrix(1.0438745,0,0,1.0438745,1.2264592,-1.2493555)" gradientUnits="userSpaceOnUse" xlink:href="#linearGradient2490"/><radialGradient id="radialGradient2899" cx="23.953" cy="37.924" r="24.307" fx="23.953" fy="37.924" gradientTransform="matrix(0.9273485,0,0,0.22429092,2.4240612,34.041369)" gradientUnits="userSpaceOnUse" xlink:href="#linearGradient6856"/></defs><path id="rect6318" fill="url(#linearGradient3787)" fill-opacity="1" stroke="#878787" stroke-dashoffset=".7" stroke-linecap="round" stroke-linejoin="miter" stroke-miterlimit="4" stroke-opacity="1" stroke-width="1" d="m 7.9461539,13.500001 24.2000001,0 c 8.189793,0 9.353847,2.040178 9.353847,2.040178 0,0 -1.334361,3.959822 -17.23077,3.959822 l -16.3230771,0 c -1.9091692,0 -3.4461539,-1.338 -3.4461539,-3 0,-1.662 1.5369847,-3 3.4461539,-3 z"/><path id="path6365" fill="none" stroke="url(#linearGradient3784)" stroke-dashoffset=".7" stroke-linecap="round" stroke-linejoin="miter" stroke-miterlimit="4" stroke-opacity="1" stroke-width="1" d="m 7.9375,14.1875 c -1.5879564,0 -2.75,1.07197 -2.75,2.3125 0,1.240529 1.1620432,2.312499 2.75,2.3125 l 16.34375,0 c 7.89099,0 12.125561,-1.001264 14.3125,-1.9375 1.09347,-0.468118 1.668489,-0.918715 1.96875,-1.21875 -0.191957,-0.137126 -0.40727,-0.3069 -0.90625,-0.5 -1.199973,-0.464377 -3.461941,-0.96875 -7.5,-0.96875 l -24.21875,0 z"/><path id="path6873" fill="url(#linearGradient3781)" fill-opacity="1" stroke="none" d="M 7.9375,13 C 5.7947215,13 4,14.531475 4,16.5 4,18.468524 5.7947215,19.999999 7.9375,20 l 16.34375,0 0.875,-7 -17.21875,0 z" opacity=".259"/><path id="rect5331" fill="url(#linearGradient3778)" fill-opacity="1" stroke="#878787" stroke-dashoffset=".7" stroke-linecap="round" stroke-linejoin="miter" stroke-miterlimit="4" stroke-opacity="1" stroke-width="1" d="m 7.3106737,12.969322 c -1.6701791,1.670179 -1.6480822,4.362325 0.022097,6.032504 1.6701791,1.670179 4.3402283,1.670179 6.0104073,0 l 4.132156,-4.132155 c 1.96687,-1.96687 3.335822,-3.674181 4.264737,-5.192815 L 20.878285,8.8150692 18.712771,10.980584 c -0.489672,0.489671 -1.278096,0.489671 -1.767767,0 l -0.30936,-0.309359 c -0.489671,-0.489672 -0.489671,-1.278096 0,-1.7677674 l 3.314563,-3.3145631 c 0.416221,-0.4162207 1.086382,-0.4162207 1.502602,0 l 1.524699,1.524699 C 23.776728,4.7626954 23.6852,1.6098946 22.787137,0.7118315 21.867197,-0.2081086 18.10695,2.1730456 16.436771,3.8432247 L 7.3106737,12.969322 z"/><path id="path6854" fill="url(#radialGradient2899)" fill-opacity="1" stroke="none" d="m 47.177933,42.547317 a 22.54087,5.4517936 0 1 1 -45.0817394,0 22.54087,5.4517936 0 1 1 45.0817394,0 z" opacity=".142"/><path id="path6894" fill="url(#radialGradient3772)" fill-opacity="1" stroke="none" d="m 36.578379,42.609815 a 7.398196,3.043861 0 0 1 -14.796392,0 7.398196,3.043861 0 1 1 14.796392,0 z" opacity=".28"/><path id="path6321" fill="url(#linearGradient3769)" fill-opacity="1" stroke="#878787" stroke-dashoffset=".7" stroke-linecap="round" stroke-linejoin="miter" stroke-miterlimit="4" stroke-opacity="1" stroke-width="1" d="m 34.5,40.061075 0,-10.494117 c 0,-6.777546 -2.009507,-7.522323 -2.009507,-7.522323 0,0 -2.990493,2.095152 -2.990493,9.976168 l 0,8.040272 c 0,1.62841 1.115,2.939367 2.5,2.939367 1.385,0 2.5,-1.310957 2.5,-2.939367 z"/><path id="path6373" fill="none" stroke="url(#linearGradient3766)" stroke-dashoffset=".7" stroke-linecap="round" stroke-linejoin="miter" stroke-miterlimit="4" stroke-opacity="1" stroke-width="1" d="m 32.5,23.187942 c -0.226573,0.277478 -0.48264,0.646859 -0.78125,1.25 -0.68849,1.390634 -1.40625,3.755285 -1.40625,7.59375 l 0,8.03125 c 0,1.261308 0.809249,2.125 1.6875,2.125 0.878252,0 1.6875,-0.863689 1.6875,-2.125 l 0,-10.5 c 0,-3.309669 -0.480912,-5.087773 -0.90625,-5.96875 C 32.666925,23.357398 32.592879,23.313639 32.5,23.187942 z"/><path id="rect6323" fill="url(#linearGradient3763)" fill-opacity="1" stroke="#878787" stroke-dashoffset=".7" stroke-linecap="round" stroke-linejoin="miter" stroke-miterlimit="4" stroke-opacity="1" stroke-width="1" d="m 29.495112,38.757801 c -1.443242,1.443243 -1.175213,3.067428 0,4.242641 1.175212,1.175211 3.285532,0.957106 4.728777,-0.486136 L 44.869481,31.868714 c 2.12132,-2.121321 2.828427,-4.949748 2.828427,-4.949748 l -2.12132,-2.12132 c 0,0 -2.133534,0.523753 -4.02167,1.988738 -1.406189,2.036458 -0.410928,4.56518 -2.342291,6.496543 -0.979343,0.979343 -1.556191,-0.02066 -2.535534,-1 -0.122418,-0.122417 -0.217546,-0.258992 -0.30936,-0.397747 l -6.872621,6.872621 z"/><path id="path6369" fill="none" stroke="url(#linearGradient3760)" stroke-dashoffset=".7" stroke-linecap="round" stroke-linejoin="miter" stroke-miterlimit="4" stroke-opacity="1" stroke-width="1" d="m 45.375,25.625442 c -0.43585,0.121984 -1.806382,0.514675 -3.28125,1.625 -0.548266,0.832403 -0.643815,1.808869 -0.8125,2.9375 -0.172736,1.155735 -0.448008,2.479258 -1.5625,3.59375 -0.310279,0.310278 -0.65918,0.537812 -1.0625,0.59375 -0.40332,0.05594 -0.782094,-0.100565 -1.0625,-0.28125 -0.502643,-0.323887 -0.856797,-0.771853 -1.25,-1.1875 L 30,39.250442 c -0.614337,0.614337 -0.805384,1.157904 -0.78125,1.6875 0.02413,0.529596 0.288215,1.069465 0.78125,1.5625 0.851687,0.851685 2.486543,0.732204 3.71875,-0.5 l 10.65625,-10.625 c 1.744007,-1.744007 2.363608,-3.798332 2.5,-4.28125 l -1.5,-1.46875 z"/><path id="path6334" fill="#eeeeec" fill-rule="evenodd" stroke="#878787" stroke-linecap="butt" stroke-linejoin="miter" stroke-opacity="1" stroke-width="1" d="M 14.003495,25.466175 C 3.2364155,36.233255 2.5,36.721255 2.5,40.5 L 16.5,27 14.003495,25.466175 z"/><path id="path6360" fill="none" stroke="url(#linearGradient3756)" stroke-dashoffset=".7" stroke-linecap="round" stroke-linejoin="miter" stroke-miterlimit="4" stroke-opacity="1" stroke-width="1" d="m 22.25,1.28125 c -0.0645,-0.00597 -0.201247,0.014088 -0.40625,0.0625 -1.198289,0.2829811 -3.737644,1.8938936 -4.875,3.03125 l -9.125,9.125 c -1.3777004,1.3777 -1.3531658,3.584334 0.03125,4.96875 1.3844157,1.384416 3.553084,1.384416 4.9375,0 l 4.125,-4.125 c 1.382188,-1.382188 3.265675,-3.523441 4.093481,-4.6468277 L 19.25,11.5 c -0.783549,0.783549 -2.060201,0.783549 -2.84375,0 l -0.3125,-0.3125 c -0.772097,-0.772097 -0.772095,-2.0404042 0,-2.8125 l 3.3125,-3.3125 c 0.704035,-0.7040346 1.858465,-0.7040358 2.5625,0 l 0.46875,0.46875 c 0.130452,-0.7279954 0.332024,-1.4488561 0.3125,-2.125 -0.03142,-1.0880782 -0.354431,-1.964168 -0.5,-2.125 z"/><path id="path6429" fill="none" stroke="url(#linearGradient3753)" stroke-linecap="butt" stroke-linejoin="miter" stroke-opacity="1" stroke-width="1" d="m 14.0625,26.21875 c -5.10788,5.105397 -7.9372342,7.926286 -9.375,9.75 -0.9641769,1.222997 -1.2581734,2.069873 -1.40625,2.96875 l 12.25,-11.84375 -1.46875,-0.875 z"/><path id="path6634" fill="none" stroke="#878787" stroke-dasharray="none" stroke-dashoffset=".7" stroke-linecap="round" stroke-linejoin="round" stroke-miterlimit="4" stroke-opacity="1" stroke-width="3" d="m 13.5,33.5 c 1.104,0 1,-0.5 1,-1.500002 L 14.5,27.5"/><path id="path6557" fill="none" stroke="#878787" stroke-dasharray="none" stroke-dashoffset=".7" stroke-linecap="round" stroke-linejoin="round" stroke-miterlimit="4" stroke-opacity="1" stroke-width="3" d="m 13.5,36.5 c 1.104,0 2,-0.5 2,-1.500002 0,-0.999999 -0.896,-1.499999 -2,-1.499999"/><path id="path6559" fill="none" stroke="#878787" stroke-dasharray="none" stroke-dashoffset=".7" stroke-linecap="round" stroke-linejoin="round" stroke-miterlimit="4" stroke-opacity="1" stroke-width="3" d="m 13.5,39.5 c 1.104,0 2,-0.5 2,-1.500002 0,-0.999999 -0.896,-1.499999 -2,-1.499999"/><path id="path6561" fill="none" stroke="#878787" stroke-dasharray="none" stroke-dashoffset=".7" stroke-linecap="round" stroke-linejoin="round" stroke-miterlimit="4" stroke-opacity="1" stroke-width="3" d="m 13.5,42.5 c 1.104,0 2,-0.5 2,-1.500002 0,-0.999999 -0.896,-1.499999 -2,-1.499999"/><path id="path6563" fill="none" stroke="#878787" stroke-dasharray="none" stroke-dashoffset=".7" stroke-linecap="round" stroke-linejoin="round" stroke-miterlimit="4" stroke-opacity="1" stroke-width="3" d="m 13.5,45.5 c 1.104,0 2,-0.5 2,-1.500002 0,-0.999999 -0.896,-1.499999 -2,-1.499999"/><path id="path6565" fill="none" stroke="#878787" stroke-dasharray="none" stroke-dashoffset=".7" stroke-linecap="round" stroke-linejoin="round" stroke-miterlimit="4" stroke-opacity="1" stroke-width="3" d="m 14.914,45.874999 c -0.362,-0.25 -0.862,-0.375 -1.414,-0.375"/><path id="path6630" fill="none" stroke="url(#linearGradient3743)" stroke-dasharray="none" stroke-dashoffset=".7" stroke-linecap="round" stroke-linejoin="round" stroke-miterlimit="4" stroke-opacity="1" stroke-width="1.3" d="m 13.5,33.5 c 1.104,0 1,-0.5 1,-1.500002 L 14.5,27.5"/><path id="path6452" fill="none" stroke="url(#linearGradient3740)" stroke-dasharray="none" stroke-dashoffset=".7" stroke-linecap="round" stroke-linejoin="round" stroke-miterlimit="4" stroke-opacity="1" stroke-width="1.3" d="m 13.5,36.5 c 1.104,0 2,-0.5 2,-1.500002 0,-0.999999 -0.896,-1.499999 -2,-1.499999"/><rect id="rect5329" width="8.807" height="41.373" x="-10.767" y="13.255" fill="url(#linearGradient3737)" fill-opacity="1" stroke="url(#linearGradient4027)" stroke-dasharray="none" stroke-dashoffset=".7" stroke-linecap="round" stroke-linejoin="miter" stroke-miterlimit="4" stroke-opacity="1" stroke-width="1" rx="4.213" ry="4.213" transform="matrix(0.70710359,-0.70710997,0.70710359,0.70710997,0,0)"/><path id="path6338" fill="none" stroke="url(#linearGradient3734)" stroke-dasharray="none" stroke-dashoffset=".7" stroke-linecap="round" stroke-linejoin="miter" stroke-miterlimit="4" stroke-opacity="1" stroke-width="1" d="m 5.5064275,14.506428 c -1.341903,1.341902 -1.3419035,3.446594 0,4.788497 L 28.705074,42.493572 c 1.341902,1.341904 3.446593,1.341903 4.788498,0 1.341903,-1.341902 1.341903,-3.446594 0,-4.788497 L 10.294926,14.506428 c -1.3419031,-1.341904 -3.4465958,-1.341904 -4.7884985,0 z" opacity=".4"/><path id="path6375" fill="url(#linearGradient3731)" fill-opacity="1" fill-rule="evenodd" stroke="none" d="m 15.451495,6.9158842 4.110058,-4.1984465 c 0.819933,0.9352578 -2.01541,3.9076516 -4.110058,4.1984465 z"/><path id="path6385" fill="url(#linearGradient3728)" fill-opacity="1" fill-rule="evenodd" stroke="none" d="m 31,15 6,0 c -0.08155,1.241107 -4.313237,1.275517 -6,0 z"/><path id="path6389" fill="url(#linearGradient3725)" fill-opacity="1" fill-rule="evenodd" stroke="none" d="m 46.268926,28.59288 -4.110058,4.198447 c -0.819933,-0.935259 2.01541,-3.907652 4.110058,-4.198447 z"/><path id="path6716" fill="none" stroke="url(#linearGradient3722)" stroke-dasharray="none" stroke-dashoffset=".7" stroke-linecap="round" stroke-linejoin="round" stroke-miterlimit="4" stroke-opacity="1" stroke-width="1.3" d="m 13.5,39.5 c 1.104,0 2,-0.5 2,-1.500002 0,-0.999999 -0.896,-1.499999 -2,-1.499999"/><path id="path6720" fill="none" stroke="url(#linearGradient3719)" stroke-dasharray="none" stroke-dashoffset=".7" stroke-linecap="round" stroke-linejoin="round" stroke-miterlimit="4" stroke-opacity="1" stroke-width="1.3" d="m 13.5,42.5 c 1.104,0 2,-0.5 2,-1.500002 0,-0.999999 -0.896,-1.499999 -2,-1.499999"/><path id="path6724" fill="none" stroke="url(#linearGradient3716)" stroke-dasharray="none" stroke-dashoffset=".7" stroke-linecap="round" stroke-linejoin="round" stroke-miterlimit="4" stroke-opacity="1" stroke-width="1.3" d="m 13.5,45.5 c 1.104,0 2,-0.5 2,-1.500002 0,-0.999999 -0.896,-1.499999 -2,-1.499999"/><path id="path6555" fill="#fff" fill-opacity="1" stroke="#fff" stroke-dasharray="none" stroke-dashoffset=".7" stroke-linecap="round" stroke-linejoin="round" stroke-miterlimit="4" stroke-opacity="1" stroke-width="1.3" d="m 14.914,45.874999 c -0.362,-0.25 -0.862,-0.375 -1.414,-0.375"/><path id="rect6749" fill="#fff" fill-opacity="1" stroke="none" d="m 10.5,18.5 -1,1 1,1 -1,1 1,1 1,-1 1,1 1,-1 -1,-1 1,-1 -1,-1 -1,1 -1,-1 z" opacity=".8"/></svg>