<svg xmlns="http://www.w3.org/2000/svg" xmlns:svg="http://www.w3.org/2000/svg" xmlns:xlink="http://www.w3.org/1999/xlink" id="svg3314" width="48" height="48" version="1.0"><defs id="defs3316"><linearGradient id="linearGradient4608"><stop id="stop4610" offset="0" stop-color="#ffed8c" stop-opacity="1"/><stop id="stop4612" offset=".204" stop-color="#fb9858" stop-opacity="1"/><stop id="stop4614" offset="1" stop-color="#dc572a" stop-opacity="1"/></linearGradient><linearGradient id="linearGradient4526"><stop id="stop4528" offset="0" stop-color="#bb5121" stop-opacity="1"/><stop id="stop4530" offset="1" stop-color="#bb5121" stop-opacity="0"/></linearGradient><linearGradient id="linearGradient3856"><stop id="stop3858" offset="0" stop-color="#fff" stop-opacity="1"/><stop id="stop3860" offset="1" stop-color="#fff" stop-opacity="0"/></linearGradient><linearGradient id="linearGradient3174"><stop id="stop3176" offset="0" stop-color="#ffed8c" stop-opacity="1"/><stop id="stop3178" offset=".397" stop-color="#fb9858" stop-opacity="1"/><stop id="stop3180" offset="1" stop-color="#dc572a" stop-opacity="1"/></linearGradient><linearGradient id="linearGradient2490-113"><stop id="stop3468" offset="0" stop-color="#791116" stop-opacity="1"/><stop id="stop3470" offset="1" stop-color="#dd7126" stop-opacity="1"/></linearGradient><linearGradient id="linearGradient4156" x1="25.397" x2="2.1" y1="27.31" y2="-17.847" gradientUnits="userSpaceOnUse" xlink:href="#linearGradient2490-113"/><linearGradient id="linearGradient4164" x1="-13.144" x2="14.228" y1="-30.373" y2="18.949" gradientUnits="userSpaceOnUse" xlink:href="#linearGradient3174"/><linearGradient id="linearGradient3174-2"><stop id="stop3176-6" offset="0" stop-color="#ffed8c" stop-opacity="1"/><stop id="stop3178-1" offset=".397" stop-color="#fb9858" stop-opacity="1"/><stop id="stop3180-0" offset="1" stop-color="#dc572a" stop-opacity="1"/></linearGradient><linearGradient id="linearGradient2490-113-5"><stop id="stop3468-0" offset="0" stop-color="#791116" stop-opacity="1"/><stop id="stop3470-3" offset="1" stop-color="#dd7126" stop-opacity="1"/></linearGradient><linearGradient id="linearGradient4226" x1="-12.066" x2="14.228" y1="-31.199" y2="18.949" gradientUnits="userSpaceOnUse" xlink:href="#linearGradient3174-2"/><linearGradient id="linearGradient4228" x1="15.155" x2="2.1" y1="9.35" y2="-17.847" gradientUnits="userSpaceOnUse" xlink:href="#linearGradient2490-113"/><linearGradient id="linearGradient4230" x1="-7.046" x2="12.608" y1="-24.754" y2="28.468" gradientUnits="userSpaceOnUse" xlink:href="#linearGradient3174-2"/><linearGradient id="linearGradient4232" x1="25.397" x2="2.1" y1="27.31" y2="-17.847" gradientUnits="userSpaceOnUse" xlink:href="#linearGradient2490-113-5"/><linearGradient id="linearGradient4234" x1="-13.144" x2="14.228" y1="-30.373" y2="18.949" gradientUnits="userSpaceOnUse" xlink:href="#linearGradient3174-2"/><linearGradient id="linearGradient4236" x1="25.397" x2="2.1" y1="27.31" y2="-17.847" gradientUnits="userSpaceOnUse" xlink:href="#linearGradient2490-113-5"/><linearGradient id="linearGradient4317" x1="-13.144" x2="14.228" y1="-30.373" y2="18.949" gradientUnits="userSpaceOnUse" xlink:href="#linearGradient3174"/><linearGradient id="linearGradient4319" x1="25.397" x2="2.1" y1="27.31" y2="-17.847" gradientUnits="userSpaceOnUse" xlink:href="#linearGradient2490-113"/><linearGradient id="linearGradient4321" x1="-13.144" x2="14.228" y1="-30.373" y2="18.949" gradientUnits="userSpaceOnUse" xlink:href="#linearGradient3174"/><linearGradient id="linearGradient4323" x1="25.397" x2="2.1" y1="27.31" y2="-17.847" gradientUnits="userSpaceOnUse" xlink:href="#linearGradient2490-113"/><linearGradient id="linearGradient4333" x1="8.047" x2="35.059" y1="2.868" y2="39.732" gradientUnits="userSpaceOnUse" xlink:href="#linearGradient3174-2"/><linearGradient id="linearGradient3174-2-5"><stop id="stop3176-6-2" offset="0" stop-color="#ffed8c" stop-opacity="1"/><stop id="stop3178-1-6" offset=".397" stop-color="#fb9858" stop-opacity="1"/><stop id="stop3180-0-3" offset="1" stop-color="#dc572a" stop-opacity="1"/></linearGradient><linearGradient id="linearGradient4422" x1="11.134" x2="2.678" y1="-62.126" y2="20.141" gradientTransform="matrix(0.89457096,0,0,0.81618259,8.0590641,27.646819)" gradientUnits="userSpaceOnUse" xlink:href="#linearGradient3856"/><linearGradient id="linearGradient4476" x1="8.186" x2="10.449" y1="25.589" y2="32.784" gradientUnits="userSpaceOnUse" xlink:href="#linearGradient3174-2-5"/><linearGradient id="linearGradient4532" x1="4.53" x2="3.38" y1="42.616" y2="41.411" gradientUnits="userSpaceOnUse" xlink:href="#linearGradient4526"/><linearGradient id="linearGradient4544" x1="11.78" x2="13.767" y1="43.491" y2="26.746" gradientUnits="userSpaceOnUse" xlink:href="#linearGradient3174-2-5"/><linearGradient id="linearGradient4606" x1="9.28" x2="17.853" y1="27.002" y2="15.053" gradientUnits="userSpaceOnUse" xlink:href="#linearGradient4608"/><linearGradient id="linearGradient4622" x1="5.906" x2="13.697" y1="34.05" y2="43.876" gradientUnits="userSpaceOnUse" xlink:href="#linearGradient4608"/><linearGradient id="linearGradient2942" x1=".244" x2="15.44" y1="-52.611" y2="6.951" gradientTransform="matrix(1.0672239,-0.38297192,0,1.0672239,31.366963,31.176838)" gradientUnits="userSpaceOnUse" xlink:href="#linearGradient3856"/></defs><g id="g4646"><g id="text4030" fill="url(#linearGradient4164)" fill-opacity="1" stroke="url(#linearGradient4156)" stroke-opacity="1" font-family="Helvetica Neue" font-size="40" font-stretch="normal" font-style="normal" font-variant="normal" font-weight="normal" transform="matrix(1.0672239,-0.38297192,0,1.0672239,27.597335,28.452761)" style="-inkscape-font-specification:Helvetica Neue"><path style="-inkscape-font-specification:Adobe Caslon Bold" id="path4035" fill="url(#linearGradient4317)" fill-opacity="1" stroke="url(#linearGradient4319)" stroke-opacity="1" d="m -24.368207,-1.987315 0,0.12 c 0,5.3999946 2.720005,8.72 8.2,8.72 7.839992,0 9.3999998,-4.8000038 9.3999998,-8.6 0,-3.5599964 -1.4000036,-6.1200005 -5.0399998,-6.68 l 0,-0.08 c 2.6799972,-0.5999994 4.3199998,-2.840003 4.3199998,-6.24 0,-4.999995 -3.0400048,-7.28 -8.1599998,-7.28 -5.359995,0 -8.32,2.800006 -8.32,8.36 l 5.28,0 c 0,-2.679997 0.440002,-4.6 2.92,-4.6 1.879998,0 2.76,1.080003 2.76,3.72 0,2.319998 -0.880003,4.48 -3.28,4.48 l -1.88,0 0,3.76 1.92,0 c 3.159997,0 3.72,2.3200026 3.72,4.84 0,2.4799976 -0.360003,4.56 -3.16,4.56 -2.519998,0 -3.08,-1.8000032 -3.16,-5.08 l -5.52,0" font-weight="bold"/><path style="-inkscape-font-specification:Adobe Caslon Bold" id="path4037" fill="url(#linearGradient4321)" fill-opacity="1" stroke="url(#linearGradient4323)" stroke-opacity="1" d="m -3.6694572,6.292685 9.08,0 c 7.6399922,0 9.8000002,-4.5600101 9.8000002,-14.68 0,-8.399992 -1.440008,-13.88 -9.4400002,-13.88 l -9.44,0 0,28.56 m 5.76,-24.32 2.44,0 c 4.3999956,0 4.92,3.320007 4.92,9.8 0,7.75999227 -0.800004,10.28 -4.8,10.28 l -2.56,0 0,-20.08" font-weight="bold"/></g><g id="text4030-4" fill="url(#linearGradient4234)" fill-opacity="1" stroke="url(#linearGradient4236)" stroke-opacity="1" font-family="Helvetica Neue" font-size="40" font-stretch="normal" font-style="normal" font-variant="normal" font-weight="normal" transform="matrix(1.0672239,-0.38297192,0,1.0672239,30.342483,30.429863)" style="-inkscape-font-specification:Helvetica Neue"><path style="-inkscape-font-specification:Adobe Caslon Bold" id="path4035-7" fill="url(#linearGradient4226)" fill-opacity="1" stroke="url(#linearGradient4228)" stroke-opacity="1" d="m -24.368207,-1.987315 0,0.12 c 0,5.3999946 2.720005,8.72 8.2,8.72 7.839992,0 9.3999998,-4.8000038 9.3999998,-8.6 0,-3.5599964 -1.4000036,-6.1200005 -5.0399998,-6.68 l 0,-0.08 c 2.6799972,-0.5999994 4.3199998,-2.840003 4.3199998,-6.24 0,-4.999995 -3.0400048,-7.28 -8.1599998,-7.28 -5.359995,0 -8.32,2.800006 -8.32,8.36 l 5.28,0 c 0,-2.679997 0.440002,-4.6 2.92,-4.6 1.879998,0 2.76,1.080003 2.76,3.72 0,2.319998 -0.880003,4.48 -3.28,4.48 l -1.88,0 0,3.76 1.92,0 c 3.159997,0 3.72,2.3200026 3.72,4.84 0,2.4799976 -0.360003,4.56 -3.16,4.56 -2.519998,0 -3.08,-1.8000032 -3.16,-5.08 l -5.52,0" font-weight="bold"/><path style="-inkscape-font-specification:Adobe Caslon Bold" id="path4037-0" fill="url(#linearGradient4230)" fill-opacity="1" stroke="url(#linearGradient4232)" stroke-opacity="1" d="m -3.6694572,6.292685 9.08,0 c 7.6399922,0 9.8000002,-4.5600101 9.8000002,-14.68 0,-8.399992 -1.440008,-13.88 -9.4400002,-13.88 l -9.44,0 0,28.56 m 5.76,-24.32 2.44,0 c 4.3999956,0 4.92,3.320007 4.92,9.8 0,7.75999227 -0.800004,10.28 -4.8,10.28 l -2.56,0 0,-20.08" font-weight="bold"/></g><path id="path4325" fill="url(#linearGradient4333)" fill-opacity="1" stroke="none" d="m 4.2680644,24.170398 c 0,0 0.3341221,-5.2217 3.1385795,-8.026158 2.8044571,-2.804457 7.8380991,-4.31455 7.8380991,-4.31455 0,0 1.787242,-0.354698 2.732548,-0.323591 0.417018,0.01372 1.293895,0.163392 1.293895,0.163392 l 1.296611,0.483051 c 0,0 -3.000001,-1.233051 -3.81356,-1.360169 -0.813559,-0.127119 -1.245762,-0.20339 -2.237288,-0.177966 -0.991525,0.02542 -2.580508,0.305085 -5.3389828,1.652543 -3.4022179,1.661913 -4.3220339,3.432202 -4.3220339,3.432202 -0.4351178,0.612342 -0.5432825,0.8245 -0.9279664,1.423725 -0.6101693,1.093225 -1.1019111,2.510529 -1.366338,4.273371 -0.038136,0.254237 -0.1038761,1.441332 -0.1038761,1.441332 l 1.8103126,1.332818 z"/><path id="path4335" fill="#dd7126" fill-opacity="1" stroke="none" d="M 1.5999792,22.238542 1.4921152,23.748634 4.260618,25.744114 4.242641,24.126157 1.5999792,22.238542 z"/><path id="path4335-7" fill="#dd7126" fill-opacity="1" stroke="none" d="m 17.753266,10.145519 -0.17142,0.874499 2.908333,2.237005 0.236257,-0.95694 -2.97317,-2.154564 z"/><path font-family="Helvetica Neue" style="-inkscape-font-specification:Adobe Caslon Bold" id="path4035-7-4" fill="none" stroke="url(#linearGradient4422)" stroke-opacity="1" stroke-width=".912" d="m 5.2765406,38.314984 0,0.104525 c 0,4.703664 2.9910394,6.298856 8.1845334,4.473116 4.07812,-1.433636 8.370124,-6.177494 8.770861,-9.46313 0.762711,-6.253476 -1.870493,-6.95254 -5.345625,-6.302556 l -0.127118,-1.798493 c 2.558613,-1.360329 4.923137,-4.613518 4.8362,-7.573808 -0.152542,-5.194227 -2.902315,-5.391013 -7.790412,-3.790629 -5.1172277,1.675403 -7.9431667,5.03957 -7.9431667,9.8826 l 3.7696683,-1.345313 c 0,-2.334411 0.318378,-5.56809 4.0843564,-6.648361 1.815386,-0.520743 3.957027,0.357691 3.855332,3.953868 -0.05712,2.020026 -1.679128,6.16042 -3.970424,6.910599 l -1.79485,0.587641 0.07627,2.029384 2.443208,-0.778111 c 3.932128,0.334298 3.706899,3.504618 3.60236,5.697169 -0.228028,4.782524 -1.754566,5.856099 -4.415181,6.586843 -2.441127,0.670461 -4.0082959,-1.062789 -4.0846729,-3.894823 l -4.1513405,1.369483" font-size="40" font-stretch="normal" font-style="normal" font-variant="normal" font-weight="bold"/><path id="path4335-2" fill="#dd7126" fill-opacity="1" stroke="none" d="m 8.2066634,24.33196 -0.107864,1.510092 2.7685026,1.99548 -0.01798,-1.617957 -2.6426616,-1.887615 z"/><path id="path4335-2-3" fill="#dd7126" fill-opacity="1" stroke="none" d="m 7.7744601,27.916706 -0.107864,1.510092 2.7685019,1.99548 -0.01798,-1.617957 -2.6426609,-1.887615 z"/><path id="path4468" fill="url(#linearGradient4476)" fill-opacity="1" stroke="none" d="m 8.7457627,26.288136 -0.025424,2.466101 1.7033903,1.118644 0.02542,-2.313559 -1.5762719,-1.245763 -0.1271187,-0.02542 z"/><path id="path4478" fill="#fcaa63" fill-opacity="1" stroke="none" d="m 15.330508,23.059322 c -0.101694,0.05085 -0.559322,0.838983 -0.559322,0.838983 l -0.48305,0.635593 c 0,0 -0.81356,0.02542 -0.737289,-0.101695 0.07627,-0.127118 0.788136,-1.09322 0.788136,-1.09322 l 0.991525,-0.279661 z"/><path id="path4335-2-3-3" fill="#d36724" fill-opacity="1" stroke="none" d="m 1.6727656,35.111621 -0.107864,1.510092 2.7685021,1.99548 -0.01798,-1.617957 -2.6426611,-1.887615 z"/><path id="path4335-2-3-3-5" fill="#d36724" fill-opacity="1" stroke="none" d="m 7.9553901,32.848909 -0.1108275,1.575803 1.4065901,1.075583 1.4916123,-0.663656 -2.7873749,-1.98773 z"/><path id="path4524" fill="url(#linearGradient4532)" fill-opacity="1" stroke="none" d="M 3.0381622,41.833789 6.0403698,44.062973 6.5257567,43.28995 3.6493901,41.168629 3.0381622,41.833789 z"/><path id="path4534" fill="url(#linearGradient4622)" fill-opacity="1" stroke="none" d="m 7.3706893,34.049622 1.851661,1.366274 -4.8808345,1.608968 -1.7527859,-1.231445 4.7819594,-1.743797 z"/><path id="path4536" fill="url(#linearGradient4544)" fill-opacity="1" stroke="none" d="m 14.633515,30.130573 c 0,0 2.20376,-0.700586 1.833684,4.781959 -0.349705,5.180755 -4.601607,4.479708 -4.566232,4.530277 L 11.02497,38.190568 c 0.01077,0.0154 2.294268,-0.404395 3.356863,-3.349945 0.692919,-1.920796 0.287637,-4.602187 0.251682,-4.71005 z"/><path id="path4335-71" fill="#dd7126" fill-opacity="1" stroke="none" d="m 23.740562,6.0268749 -0.107864,1.510092 2.768503,1.99548 -0.01798,-1.617957 -2.642662,-1.887615 z"/><path id="path4335-71-0" fill="#bc5121" fill-opacity="1" stroke="none" d="m 23.38463,35.72179 -0.107864,1.510092 2.768503,1.99548 -0.01798,-1.617957 -2.642662,-1.887615 z"/><path id="path4596" fill="#f18349" fill-opacity="1" stroke="none" d="m 24.228814,34.855932 -0.05085,1.398305 1.728814,1.29661 -0.05085,-3.305084 -1.627118,0.610169 z"/><path id="path4598" fill="url(#linearGradient4606)" fill-opacity="1" stroke="none" d="m 14.211862,17.262712 c 0,0 1.65365,-0.494125 1.741528,1.665254 0.08898,2.186441 0.08285,1.787188 -0.139833,2.631356 -0.295002,1.118299 -0.762712,2.338983 -1.652542,3.050847 -0.889831,0.711865 -2.084746,1.093221 -2.084746,1.093221 l -1.728813,-1.29661 c 0,0 2.262712,-0.61017 3.177966,-3.000001 0.915254,-2.38983 0.68644,-4.118643 0.68644,-4.144067 z"/><path id="path4335-71-2" fill="#dd7126" fill-opacity="1" stroke="none" d="M 40.215197,1.41185 39.909586,2.4006006 42.660112,4.2882168 43.705347,3.7892139 40.215197,1.41185 z"/></g><path font-family="Helvetica Neue" style="-inkscape-font-specification:Adobe Caslon Bold" id="path4037-0-9" fill="none" stroke="url(#linearGradient2942)" stroke-opacity="1" stroke-width="1.067" d="m 27.094899,37.213095 9.74124,-3.629927 C 42.396501,30.96235 46.069511,25.406888 45.56612,16.146247 45.297213,11.199299 46.063207,2.1388988 37.525425,5.2026712 L 27.450831,8.8179262 27.399984,37.31479 m 3.528564,-27.4743631 4.25657,-1.3666545 c 4.69578,-1.685075 6.293115,1.0742233 6.293115,7.9898266 0,8.281649 -0.879208,13.591 -5.148099,15.122886 l -4.969382,1.74312 0,-23.6671443" font-size="40" font-stretch="normal" font-style="normal" font-variant="normal" font-weight="bold"/></svg>