<svg xmlns="http://www.w3.org/2000/svg" xmlns:svg="http://www.w3.org/2000/svg" xmlns:xlink="http://www.w3.org/1999/xlink" id="svg11300" width="48" height="48" version="1.0"><defs id="defs3"><linearGradient id="linearGradient6939"><stop id="stop6941" offset="0" stop-color="#bdbdbd" stop-opacity="1"/><stop id="stop6947" offset=".333" stop-color="#e2e2e2" stop-opacity="1"/><stop id="stop6949" offset=".667" stop-color="#a3a3a3" stop-opacity="1"/><stop id="stop6943" offset="1" stop-color="#ddd" stop-opacity="1"/></linearGradient><linearGradient id="linearGradient6951"><stop id="stop6953" offset="0" stop-color="#6e3d09" stop-opacity="1"/><stop id="stop6959" offset=".242" stop-color="#ea8113" stop-opacity="1"/><stop id="stop6961" offset=".621" stop-color="#5c3307" stop-opacity="1"/><stop id="stop6955" offset="1" stop-color="#e07c12" stop-opacity="1"/></linearGradient><linearGradient id="linearGradient6963"><stop id="stop6965" offset="0" stop-color="#696969" stop-opacity="1"/><stop id="stop6967" offset="1" stop-color="#000" stop-opacity="1"/></linearGradient><linearGradient id="linearGradient6975"><stop id="stop6977" offset="0" stop-color="#000" stop-opacity="1"/><stop id="stop6979" offset="1" stop-color="#000" stop-opacity="0"/></linearGradient><linearGradient id="linearGradient2446"><stop id="stop2448" offset="0" stop-color="#fff" stop-opacity="1"/><stop id="stop2450" offset="1" stop-color="#fff" stop-opacity="0"/></linearGradient><radialGradient id="radialGradient8402" cx="26.782" cy="42.343" r="14.407" fx="26.782" fy="42.343" gradientTransform="matrix(1,0,0,0.282209,0,30.39355)" gradientUnits="userSpaceOnUse" xlink:href="#linearGradient6975"/><linearGradient id="linearGradient5652" x1="13.236" x2="7.752" y1="37.752" y2="42.282" gradientTransform="matrix(0.852298,0,0,0.8527781,-0.432816,5.359336)" gradientUnits="userSpaceOnUse" xlink:href="#linearGradient2446"/><radialGradient id="radialGradient5658" cx="15.415" cy="35.357" r="7.579" fx="15.415" fy="35.357" gradientTransform="matrix(0.994655,0,0,0.969868,-3.340726,1.7692583)" gradientUnits="userSpaceOnUse" xlink:href="#linearGradient6963"/><linearGradient id="linearGradient5662" x1="19.395" x2="23.109" y1="30.001" y2="33.439" gradientTransform="matrix(1,0,0,1.0005633,-2.664659,-0.2006258)" gradientUnits="userSpaceOnUse" xlink:href="#linearGradient6939"/><linearGradient id="linearGradient5665" x1="28.059" x2="33.437" y1="18.868" y2="23.743" gradientTransform="matrix(1,0,0,1.0005633,-2.664659,-0.2006258)" gradientUnits="userSpaceOnUse" xlink:href="#linearGradient6951"/></defs><g id="g4169" transform="translate(0.49957155,-3.0001413)"><g id="g4127" transform="translate(47.785945,-0.09986374)"><path id="path2964" fill="red" fill-opacity=".702" fill-rule="nonzero" stroke="#000" stroke-opacity=".098" stroke-width="1" d="m -2.0000002,34 a 3.7142857,3.7142857 0 1 1 -7.4285713,0 3.7142857,3.7142857 0 1 1 7.4285713,0 z" display="inline" enable-background="accumulate" overflow="visible" transform="matrix(1.0384615,0,0,1.0384615,0.2197802,-1.3076923)" visibility="visible" style="marker:none"/><path id="path4113" fill="#c09" fill-opacity=".702" fill-rule="nonzero" stroke="#000" stroke-opacity=".098" stroke-width="1" d="m -2.0000002,34 a 3.7142857,3.7142857 0 1 1 -7.4285713,0 3.7142857,3.7142857 0 1 1 7.4285713,0 z" display="inline" enable-background="accumulate" overflow="visible" transform="matrix(1.0384615,0,0,1.0384615,0.2197802,-11.307692)" visibility="visible" style="marker:none"/><path id="path4115" fill="#924ab4" fill-opacity="1" fill-rule="nonzero" stroke="#000" stroke-opacity=".098" stroke-width="1" d="m -2.0000002,34 a 3.7142857,3.7142857 0 1 1 -7.4285713,0 3.7142857,3.7142857 0 1 1 7.4285713,0 z" display="inline" enable-background="accumulate" overflow="visible" transform="matrix(1.0384615,0,0,1.0384615,-4.78022,-20.021977)" visibility="visible" style="marker:none"/><path id="path4117" fill="#6c48b3" fill-opacity="1" fill-rule="nonzero" stroke="#000" stroke-opacity=".098" stroke-width="1" d="m -2.0000002,34 a 3.7142857,3.7142857 0 1 1 -7.4285713,0 3.7142857,3.7142857 0 1 1 7.4285713,0 z" display="inline" enable-background="accumulate" overflow="visible" transform="matrix(1.0384615,0,0,1.0384615,-13.208791,-25.021976)" visibility="visible" style="marker:none"/><path id="path4119" fill="#476bd7" fill-opacity="1" fill-rule="nonzero" stroke="#000" stroke-opacity=".098" stroke-width="1" d="m -2.0000002,34 a 3.7142857,3.7142857 0 1 1 -7.4285713,0 3.7142857,3.7142857 0 1 1 7.4285713,0 z" display="inline" enable-background="accumulate" overflow="visible" transform="matrix(1.0384615,0,0,1.0384615,-23.208791,-25.021976)" visibility="visible" style="marker:none"/><path id="path4121" fill="#47b1b1" fill-opacity="1" fill-rule="nonzero" stroke="#000" stroke-opacity=".098" stroke-width="1" d="m -2.0000002,34 a 3.7142857,3.7142857 0 1 1 -7.4285713,0 3.7142857,3.7142857 0 1 1 7.4285713,0 z" display="inline" enable-background="accumulate" overflow="visible" transform="matrix(1.0384615,0,0,1.0384615,-31.637363,-20.164834)" visibility="visible" style="marker:none"/><path id="path4123" fill="#0c0" fill-opacity=".702" fill-rule="nonzero" stroke="#000" stroke-opacity=".098" stroke-width="1" d="m -2.0000002,34 a 3.7142857,3.7142857 0 1 1 -7.4285713,0 3.7142857,3.7142857 0 1 1 7.4285713,0 z" display="inline" enable-background="accumulate" overflow="visible" transform="matrix(1.0384615,0,0,1.0384615,-36.637363,-11.593405)" visibility="visible" style="marker:none"/><path id="path4125" fill="#9f0" fill-opacity=".702" fill-rule="nonzero" stroke="#000" stroke-opacity=".098" stroke-width="1" d="m -2.0000002,34 a 3.7142857,3.7142857 0 1 1 -7.4285713,0 3.7142857,3.7142857 0 1 1 7.4285713,0 z" display="inline" enable-background="accumulate" overflow="visible" transform="matrix(1.0384615,0,0,1.0384615,-36.923077,-1.7362627)" visibility="visible" style="marker:none"/></g></g><path id="path6937" fill="url(#linearGradient5665)" fill-opacity="1" fill-rule="nonzero" stroke="#673907" stroke-dasharray="none" stroke-dashoffset="0" stroke-linecap="round" stroke-linejoin="miter" stroke-miterlimit="4" stroke-opacity="1" stroke-width="1" d="m 20.893973,24.202702 4.065864,3.802839 c 7.187499,-7.066477 17.78306,-23.990792 17.78306,-23.990792 0.42949,-1.225136 -1.087245,-1.9970173 -1.846352,-1.1711544 0,0 -13.690073,14.1050254 -20.002572,21.3591074 z" display="inline" overflow="visible" visibility="visible" style="marker:none"/><path id="path6935" fill="url(#linearGradient5662)" fill-opacity="1" fill-rule="nonzero" stroke="#787a75" stroke-dasharray="none" stroke-dashoffset="0" stroke-linecap="round" stroke-linejoin="miter" stroke-miterlimit="4" stroke-opacity="1" stroke-width="1" d="m 13.292576,34.435622 2.24632,1.93491 8.492766,-7.371181 0.275061,-0.706226 1.094405,-0.01782 c -0.4375,-1.56338 -2.941514,-4.385924 -4.816514,-4.385924 l 0.08202,1.090689 -0.669991,0.380241 -6.704066,9.075316 z" display="inline" overflow="visible" visibility="visible" style="marker:none"/><path id="path6973" fill="url(#radialGradient8402)" fill-opacity="1" fill-rule="nonzero" stroke="none" stroke-width="1" d="m 41.188971,42.343147 c 0,2.245515 -6.450368,4.065864 -14.407301,4.065864 -7.956933,0 -14.407301,-1.820349 -14.407301,-4.065864 0,-2.245515 6.450368,-4.065864 14.407301,-4.065864 7.956933,0 14.407301,1.820349 14.407301,4.065864 z" display="inline" opacity=".2" overflow="visible" transform="matrix(1.2282113,0,0,0.9843552,-15.198339,-0.6835125)" visibility="visible" style="marker:none"/><path id="path6933" fill="url(#radialGradient5658)" fill-opacity="1" fill-rule="nonzero" stroke="none" stroke-width=".2" d="m 3,42.350099 c 6.605313,0 11.618187,0.787044 12.567225,-4.021337 0.764793,-3.87489 -4.560324,-5.731587 -7.199131,-2.27233 C 5.82609,39.388787 3,42.350099 3,42.350099 z" display="inline" overflow="visible" visibility="visible" style="marker:none"/><path id="path6971" fill="#fff" fill-opacity="1" fill-rule="nonzero" stroke="none" stroke-width="1" d="m 8.8749989,37.75 c 1.953e-4,0.690494 -0.5595059,1.250353 -1.2499999,1.250353 -0.6904939,0 -1.2501951,-0.559859 -1.2499998,-1.250353 -1.953e-4,-0.690494 0.5595059,-1.250353 1.2499998,-1.250353 0.690494,0 1.2501952,0.559859 1.2499999,1.250353 z" display="inline" opacity=".528" overflow="visible" transform="matrix(0.852298,0,0,0.8527781,4.975845,4.1803002)" visibility="visible" style="marker:none"/><path id="path6983" fill="#fff" fill-opacity="1" fill-rule="nonzero" stroke="none" stroke-width="1" d="m 8.8749989,37.75 c 1.953e-4,0.690494 -0.5595059,1.250353 -1.2499999,1.250353 -0.6904939,0 -1.2501951,-0.559859 -1.2499998,-1.250353 -1.953e-4,-0.690494 0.5595059,-1.250353 1.2499998,-1.250353 0.690494,0 1.2501952,0.559859 1.2499999,1.250353 z" display="inline" opacity=".6" overflow="visible" transform="matrix(0.787867,0,0,0.7883108,15.507671,-3.1227809)" visibility="visible" style="marker:none"/><path id="path6985" fill="none" stroke="#fff" stroke-dasharray="none" stroke-dashoffset="0" stroke-linecap="round" stroke-linejoin="round" stroke-miterlimit="4" stroke-opacity="1" stroke-width="1" d="m 20.183729,28.016268 -5.303301,6.146451" display="inline" opacity=".6" overflow="visible" visibility="visible" style="marker:none"/><path id="path1571" fill="url(#linearGradient5652)" fill-opacity="1" fill-rule="nonzero" stroke="none" stroke-width="1" d="m 4.3131782,41.694791 c 0,0 3.3411118,-1.642746 4.7648288,-4.089131 0.503707,-0.865524 1.644373,-0.126907 0.941666,0.734913 -1.517828,1.861506 -5.7064948,3.354218 -5.7064948,3.354218 z" display="inline" opacity=".428" overflow="visible" visibility="visible" style="marker:none"/><path id="path2454" fill="#fff" fill-opacity="1" fill-rule="nonzero" stroke="none" stroke-width="1" d="m 8.8749989,37.75 c 1.953e-4,0.690494 -0.5595059,1.250353 -1.2499999,1.250353 -0.6904939,0 -1.2501951,-0.559859 -1.2499998,-1.250353 -1.953e-4,-0.690494 0.5595059,-1.250353 1.2499998,-1.250353 0.690494,0 1.2501952,0.559859 1.2499999,1.250353 z" display="inline" opacity=".533" overflow="visible" transform="matrix(0.237867,0,0,0.238001,39.676181,-5.5017822)" visibility="visible" style="marker:none"/></svg>