<svg xmlns="http://www.w3.org/2000/svg" xmlns:svg="http://www.w3.org/2000/svg" xmlns:xlink="http://www.w3.org/1999/xlink" id="svg2" width="48" height="48" version="1.0"><metadata id="metadata47"/><defs id="defs4"><linearGradient id="linearGradient3156"><stop id="stop3158" offset="0" stop-color="#fff" stop-opacity="1"/><stop id="stop3160" offset="1" stop-color="#fff" stop-opacity="0"/></linearGradient><linearGradient id="linearGradient6493"><stop id="stop6495" offset="0" stop-color="#4580d4" stop-opacity="1"/><stop id="stop6497" offset="1" stop-color="#114796" stop-opacity="1"/></linearGradient><linearGradient id="linearGradient4103"><stop id="stop4105" offset="0" stop-color="#70adfb" stop-opacity="1"/><stop id="stop4107" offset="1" stop-color="#3465a4" stop-opacity="1"/></linearGradient><linearGradient id="linearGradient8838"><stop id="stop8840" offset="0" stop-color="#000" stop-opacity="1"/><stop id="stop8842" offset="1" stop-color="#000" stop-opacity="0"/></linearGradient><radialGradient id="radialGradient5729" cx="62.625" cy="4.625" r="10.625" fx="62.625" fy="4.625" gradientTransform="matrix(1,0,0,0.341176,0,3.047059)" gradientUnits="userSpaceOnUse" xlink:href="#linearGradient8838"/><radialGradient id="radialGradient5540" cx="22.125" cy="10.875" r="20" fx="22.125" fy="10.875" gradientTransform="matrix(1.0099925,-0.1119962,0.05668752,0.5112133,-5.8375646,1.7934718)" gradientUnits="userSpaceOnUse" xlink:href="#linearGradient3156"/><radialGradient id="radialGradient5551" cx="20.039" cy="12.61" r="22.464" fx="20.039" fy="12.61" gradientTransform="matrix(1.9530852,-0.01020764,0.00788488,1.5140441,-20.059757,-7.877158)" gradientUnits="userSpaceOnUse" xlink:href="#linearGradient4103"/><linearGradient id="linearGradient5553" x1="34" x2="34" y1="9" y2="49" gradientTransform="translate(-5.0000016,-6)" gradientUnits="userSpaceOnUse" xlink:href="#linearGradient6493"/></defs><g id="layer1"><g id="g6334"><path id="path8836" fill="url(#radialGradient5729)" fill-opacity="1" fill-rule="evenodd" stroke="none" stroke-width=".496" d="m 73.25,4.625 c 0,2.0020323 -4.756974,3.6250001 -10.625,3.6250001 C 56.756974,8.2500001 52,6.6270323 52,4.625 52,2.6229677 56.756974,0.99999989 62.625,0.99999989 c 5.868026,0 10.625,1.62296781 10.625,3.62500011 l 0,0 z" display="inline" opacity=".4" overflow="visible" transform="matrix(1.9262213,0,0,2.1088276,-97.163508,29.602172)" visibility="visible" style="marker:none"/><path id="path1307" fill="url(#radialGradient5551)" fill-opacity="1" stroke="url(#linearGradient5553)" stroke-dasharray="none" stroke-dashoffset="0" stroke-linecap="round" stroke-linejoin="round" stroke-miterlimit="4" stroke-opacity="1" stroke-width=".998" d="m 44.500921,23 c 0,11.316512 -9.178384,20.500922 -20.487463,20.500922 -11.30908,0 -20.4874629,-9.18441 -20.4874629,-20.500922 0,-11.316509 9.1783829,-20.5009224 20.4874629,-20.5009224 11.309079,0 20.487463,9.1844134 20.487463,20.5009224 z"/><path id="path3164" fill="none" stroke="url(#radialGradient5540)" stroke-dasharray="none" stroke-dashoffset="0" stroke-linecap="round" stroke-linejoin="round" stroke-miterlimit="4" stroke-opacity="1" stroke-width=".996" d="m 43.501763,23 c 0,10.764976 -8.736791,19.501764 -19.501765,19.501764 C 13.235024,42.501764 4.4982338,33.764976 4.4982338,23 c 0,-10.764974 8.7367902,-19.5017646 19.5017642,-19.5017646 10.764974,0 19.501765,8.7367906 19.501765,19.5017646 z" opacity=".4"/><path id="path3037" fill="#000" fill-opacity="1" stroke="none" d="m 10.121951,14.397811 c 0.547014,0.950886 1.723499,1.019646 2.53574,0.874838 -0.89602,3.355997 -0.276133,6.439229 1.373703,8.382541 0.963899,1.257235 1.747487,2.791366 4.165445,2.633863 1.26365,1.346131 0.113551,5.136182 0.100341,7.995349 0.057,1.536304 -0.645911,2.96592 -2.311976,4.502224 L 18.448431,39 c 0.918546,-3.31539 1.989954,-4.149071 2.406097,-10.961267 0.108674,-0.928894 0.299313,-1.806407 1.328236,-1.585532 0.150976,3.095781 -0.684129,4.855647 0.219791,6.316236 l 4.429486,5.249036 0.929111,-0.896176 -3.631487,-4.846581 -0.0095,-1.704046 0.24062,-4.291962 3.019136,-0.365854 c 0.313168,3.022548 -0.375152,4.914692 -0.913727,6.255016 -1.057253,1.930461 -1.96695,2.094397 -3.27955,3.520537 l 1.231615,1.109553 c 1.508137,-1.718432 2.822297,-2.172614 3.819728,-4.395377 0.950626,-1.358673 1.312296,-5.087892 1.719418,-7.520005 l 1.339649,-0.277388 c 0.517525,1.148462 1.014486,3.905463 1.261929,5.238617 0.439305,5.828752 -0.491754,6.68073 -0.757269,8.173666 0.877631,0.697837 1.294955,1.015436 2.11751,0 l 0,-14.872269 c 1.282975,-0.102493 0.987424,1.43563 0.885897,4.374197 1.020769,0.116374 1.358377,-2.341641 1.123577,-5.633113 C 32.82022,18.355402 31.84567,10.850722 28.085268,11.00514 l -0.864288,0 c -1.838095,-0.111642 -2.716289,1.620466 -3.68807,2.742263 -1.325168,0.849394 -2.919843,2.101728 -3.933905,3.716597 -0.460115,1.833133 -2.272568,2.363139 -2.131358,0.469139 0.746044,-1.822912 0.744205,-3.257241 0.397395,-4.410168 -0.572775,-1.602971 -1.267143,-2.2855 -2.20394,-2.517831 -1.009563,0.338982 -1.89298,0.60111 -2.361412,2.008846 l -2.535741,0 z" opacity=".5"/></g></g></svg>