<svg xmlns="http://www.w3.org/2000/svg" xmlns:svg="http://www.w3.org/2000/svg" xmlns:xlink="http://www.w3.org/1999/xlink" id="svg2" width="48" height="48" version="1.0"><defs id="defs4"><linearGradient id="linearGradient2091"><stop id="stop2093" offset="0" stop-color="#000" stop-opacity=".392"/><stop id="stop3169" offset=".5" stop-color="#000" stop-opacity=".314"/><stop id="stop2095" offset="1" stop-color="#000" stop-opacity="0"/></linearGradient><radialGradient id="radialGradient2410" cx="23.071" cy="35.127" r="10.319" fx="23.071" fy="35.127" gradientTransform="matrix(0.914812,0.01265023,-0.00821502,0.213562,2.253914,27.18889)" gradientUnits="userSpaceOnUse" xlink:href="#linearGradient2091"/><linearGradient id="linearGradient3203"><stop id="stop3205" offset="0" stop-color="#777976" stop-opacity="1"/><stop id="stop3207" offset="1" stop-color="#565755" stop-opacity="1"/></linearGradient><linearGradient id="linearGradient3217" x1="11" x2="16" y1="3" y2="22" gradientUnits="userSpaceOnUse" xlink:href="#linearGradient3242-187-536"/><linearGradient id="linearGradient3167" x1="36.011" x2="16.331" y1="13.023" y2="32.702" gradientTransform="matrix(0.5315328,-0.530963,0.5315328,0.530963,-14.042382,11.96512)" gradientUnits="userSpaceOnUse" xlink:href="#linearGradient7916"/><linearGradient id="linearGradient7916"><stop id="stop7918" offset="0" stop-color="#fff" stop-opacity="1"/><stop id="stop7920" offset="1" stop-color="#fff" stop-opacity="0"/></linearGradient><linearGradient id="linearGradient2419" x1="28.449" x2="16.331" y1="20.584" y2="32.702" gradientTransform="matrix(0.5315328,-0.530963,0.5315328,0.530963,-14.578201,12.23303)" gradientUnits="userSpaceOnUse" xlink:href="#linearGradient7916"/><radialGradient id="radialGradient2403" cx="11.25" cy="19.031" r="8.063" fx="11.25" fy="19.031" gradientTransform="matrix(1.4061954,0,0,0.3867044,-3.8196983,13.522738)" gradientUnits="userSpaceOnUse" xlink:href="#linearGradient5105-262-943-861"/><linearGradient id="linearGradient5105-262-943-861"><stop id="stop2487" offset="0" stop-color="#0d0d0d" stop-opacity="1"/><stop id="stop2489" offset="1" stop-color="#0d0d0d" stop-opacity="0"/></linearGradient><linearGradient id="linearGradient2400" x1="24.104" x2="24.104" y1="15.181" y2="34.225" gradientTransform="matrix(0.8988874,0,0,0.8934652,-9.4637044,-8.565972)" gradientUnits="userSpaceOnUse" xlink:href="#linearGradient2264"/><linearGradient id="linearGradient2264"><stop id="stop2266" offset="0" stop-color="#d7e866" stop-opacity="1"/><stop id="stop2268" offset="1" stop-color="#8cab2a" stop-opacity="1"/></linearGradient><linearGradient id="linearGradient4222"><stop id="stop4224" offset="0" stop-color="#fff" stop-opacity="1"/><stop id="stop4226" offset="1" stop-color="#fff" stop-opacity="0"/></linearGradient><linearGradient id="linearGradient2858" x1="24.139" x2="24.139" y1="6.532" y2="45.69" gradientTransform="matrix(0.5399382,0,0,0.5366811,-0.8489227,-0.506198)" gradientUnits="userSpaceOnUse" xlink:href="#linearGradient4222"/><linearGradient id="linearGradient5105-262-943-861-9"><stop id="stop2487-2" offset="0" stop-color="#0d0d0d" stop-opacity="1"/><stop id="stop2489-5" offset="1" stop-color="#0d0d0d" stop-opacity="0"/></linearGradient><linearGradient id="linearGradient2836" x1="23.878" x2="23.878" y1="18.541" y2="27.495" gradientTransform="matrix(0.8988874,0,0,0.8934652,-9.463254,14.434028)" gradientUnits="userSpaceOnUse" xlink:href="#linearGradient4168"/><linearGradient id="linearGradient2833" x1="24.139" x2="23.796" y1="6.532" y2="32.619" gradientTransform="matrix(0.5399382,0,0,0.5366811,-0.848473,22.493802)" gradientUnits="userSpaceOnUse" xlink:href="#linearGradient4222-4"/><linearGradient id="linearGradient4222-4"><stop id="stop4224-0" offset="0" stop-color="#fff" stop-opacity="1"/><stop id="stop4226-5" offset="1" stop-color="#fff" stop-opacity="0"/></linearGradient><radialGradient id="radialGradient2927" cx="11.25" cy="19.031" r="8.063" fx="11.25" fy="19.031" gradientTransform="matrix(1.4061954,0,0,0.37209335,-3.819248,37.918606)" gradientUnits="userSpaceOnUse" xlink:href="#linearGradient5105-262-943-861-9"/><radialGradient id="radialGradient2939" cx="23.071" cy="35.127" r="10.319" fx="23.071" fy="35.127" gradientTransform="matrix(0.914812,0.01265023,-0.00821502,0.213562,2.253914,27.18889)" gradientUnits="userSpaceOnUse" xlink:href="#linearGradient2091"/><linearGradient id="linearGradient2941" x1="11.192" x2="11.192" y1="3" y2="22" gradientUnits="userSpaceOnUse" xlink:href="#linearGradient3203"/><linearGradient id="linearGradient2945" x1="28.449" x2="16.331" y1="20.584" y2="32.702" gradientTransform="matrix(0.5315328,-0.530963,0.5315328,0.530963,-14.578201,12.23303)" gradientUnits="userSpaceOnUse" xlink:href="#linearGradient7916"/><radialGradient id="radialGradient3751" cx="30.083" cy="29.375" r="3.5" fx="30.083" fy="29.375" gradientTransform="matrix(1.7142856,2.2388268e-7,-1.4925514e-7,1.1428571,-21.071422,-4.0714348)" gradientUnits="userSpaceOnUse" xlink:href="#linearGradient3203"/><linearGradient id="linearGradient3771" x1="30.5" x2="32.5" y1="28.5" y2="33.5" gradientUnits="userSpaceOnUse" xlink:href="#linearGradient4222-4"/><radialGradient id="radialGradient3777" cx="30.083" cy="29.375" r="3.5" fx="30.083" fy="29.375" gradientTransform="matrix(1.7142856,2.2388268e-7,-1.4925514e-7,1.1428571,-21.071422,-4.0714348)" gradientUnits="userSpaceOnUse" xlink:href="#linearGradient3203"/><linearGradient id="linearGradient3779" x1="30.5" x2="32.5" y1="28.5" y2="33.5" gradientUnits="userSpaceOnUse" xlink:href="#linearGradient4222-4"/><radialGradient id="radialGradient3785" cx="30.083" cy="29.375" r="3.5" fx="30.083" fy="29.375" gradientTransform="matrix(1.7142856,2.2388268e-7,-1.4925514e-7,1.1428571,-21.071422,-4.0714348)" gradientUnits="userSpaceOnUse" xlink:href="#linearGradient4168"/><linearGradient id="linearGradient3787" x1="30.5" x2="32.5" y1="28.5" y2="33.5" gradientUnits="userSpaceOnUse" xlink:href="#linearGradient4222-4"/><radialGradient id="radialGradient3793" cx="30.083" cy="29.375" r="3.5" fx="30.083" fy="29.375" gradientTransform="matrix(1.7142856,2.2388268e-7,-1.4925514e-7,1.1428571,-21.071422,-4.0714348)" gradientUnits="userSpaceOnUse" xlink:href="#linearGradient4168"/><linearGradient id="linearGradient3795" x1="30.5" x2="32.5" y1="28.5" y2="33.5" gradientUnits="userSpaceOnUse" xlink:href="#linearGradient4222-4"/><linearGradient id="linearGradient3242-187-536"><stop id="stop2778" offset="0" stop-color="#8badea" stop-opacity="1"/><stop id="stop2780" offset=".262" stop-color="#6396cd" stop-opacity="1"/><stop id="stop2782" offset=".661" stop-color="#3b7caf" stop-opacity="1"/><stop id="stop2784" offset="1" stop-color="#194c70" stop-opacity="1"/></linearGradient><linearGradient id="linearGradient2490-182-124"><stop id="stop2788" offset="0" stop-color="#1f4b6a" stop-opacity="1"/><stop id="stop2790" offset="1" stop-color="#4083c2" stop-opacity="1"/></linearGradient><linearGradient id="linearGradient3836" x1="13" x2="8" y1="22" y2="3" gradientUnits="userSpaceOnUse" xlink:href="#linearGradient2490-182-124"/><linearGradient id="linearGradient4168"><stop id="stop4170" offset="0" stop-color="#f8cd70" stop-opacity="1"/><stop id="stop4172" offset="1" stop-color="#cc9110" stop-opacity="1"/></linearGradient></defs><g id="g3939"><g id="layer1" transform="translate(24,-1)"><path id="path1361" fill="url(#radialGradient2410)" fill-opacity="1" stroke="none" d="m 33.278212,34.94062 a 10.31934,2.320194 0 1 1 -20.63868,0 10.31934,2.320194 0 1 1 20.63868,0 z" opacity=".4" transform="matrix(1.1628652,0,0,0.9697499,-14.698073,-12.133672)"/><path id="text1314" fill="url(#linearGradient3217)" fill-opacity="1" stroke="url(#linearGradient3836)" stroke-dasharray="none" stroke-linecap="butt" stroke-linejoin="round" stroke-miterlimit="4" stroke-opacity="1" stroke-width="1" d="M 21.500001,17.799811 15.998653,12.496726 21.292242,6.9411762 17.476297,3.5 12.02846,8.7941174 6.4701917,3.5 2.5000001,7.0677485 8.0582683,12.474098 2.5000001,17.794117 6.4701917,21.5 12.02201,15.941175 17.586729,21.5 21.500001,17.799811 z" font-family="Bitstream Vera Sans" font-size="59.901" font-stretch="normal" font-style="normal" font-variant="normal" font-weight="bold" text-anchor="start" writing-mode="lr-tb" style="text-align:start;line-height:125%"/><path font-family="Bitstream Vera Sans" style="text-align:start;line-height:125%" id="path7076" fill="none" stroke="url(#linearGradient3167)" stroke-dasharray="none" stroke-linecap="square" stroke-linejoin="miter" stroke-miterlimit="4" stroke-opacity="1" stroke-width="1" d="M 19.904347,6.9840513 17.495251,4.8836159 11.999999,10.192556 6.5,4.8139298 4,7.0730768" font-size="59.901" font-stretch="normal" font-style="normal" font-variant="normal" font-weight="bold" opacity=".4" text-anchor="start" writing-mode="lr-tb"/><path font-family="Bitstream Vera Sans" style="text-align:start;line-height:125%" id="path3165" fill="none" stroke="url(#linearGradient2419)" stroke-dasharray="none" stroke-linecap="butt" stroke-linejoin="miter" stroke-miterlimit="4" stroke-opacity="1" stroke-width="1" d="m 20.398394,18.049941 -5.457388,-5.257883 m -5.9157268,0.2152 -5.5610986,5.311226" font-size="59.901" font-stretch="normal" font-style="normal" font-variant="normal" font-weight="bold" opacity=".4" text-anchor="start" writing-mode="lr-tb"/></g><g id="layer1-3" transform="translate(-0.02954954,-1)"><path id="path2621" fill="url(#radialGradient2403)" fill-opacity="1" fill-rule="nonzero" stroke="none" stroke-width="1" d="M 23.33745,20.882198 C 23.33745,22.604113 18.261501,24 12,24 5.7384988,24 0.6625494,22.604113 0.66254954,20.882198 0.6625494,19.160283 5.7384988,17.764397 12,17.764397 c 6.261501,0 11.33745,1.395886 11.33745,3.117801 l 0,0 z" display="inline" opacity=".3" overflow="visible" visibility="visible" style="marker:none"/><path id="path2262" fill="url(#linearGradient2400)" fill-opacity="1" fill-rule="evenodd" stroke="#699536" stroke-dasharray="none" stroke-linecap="butt" stroke-linejoin="round" stroke-miterlimit="4" stroke-opacity="1" stroke-width="1" d="m 8.5663796,8.4948187 0,-5.9948187 6.9336204,0 0,5.9948187 6,0 0,7.0051813 -6,0 0,6 -6.9397278,0 -0.027869,-6 -6.0324033,0 0,-7.0051813 6.0663796,0 z" display="inline"/><path id="path2272" fill="none" stroke="url(#linearGradient2858)" stroke-dasharray="none" stroke-linecap="butt" stroke-linejoin="miter" stroke-miterlimit="4" stroke-opacity="1" stroke-width="1" d="M 9.5,9.4948187 9.5,3.5 l 5,0 0,5.9948187 6,0 0,5.0051813 -6,0 0,6 -5,0 0,-6 -6,0 0,-5.0051813 6,0 z" display="inline" opacity=".4"/></g><g id="g3906"><g id="g2929" transform="translate(24,24)"><path id="path2931" fill="url(#radialGradient2939)" fill-opacity="1" stroke="none" d="m 33.278212,34.94062 a 10.31934,2.320194 0 1 1 -20.63868,0 10.31934,2.320194 0 1 1 20.63868,0 z" opacity=".4" transform="matrix(1.1628652,0,0,0.9697499,-14.698073,-12.133672)"/><path id="path2933" fill="url(#linearGradient2941)" fill-opacity="1" stroke="#4d4d4d" stroke-dasharray="none" stroke-linecap="butt" stroke-linejoin="round" stroke-miterlimit="4" stroke-opacity="1" stroke-width="1" d="M 15.999,12.197 21.292242,6.9411762 17.476297,3.5 12.02846,8.7941174 8.0582683,12.474098 2.5000001,17.794117 6.4701917,21.5 12.02201,15.941175 15.999,12.197 z" font-family="Bitstream Vera Sans" font-size="59.901" font-stretch="normal" font-style="normal" font-variant="normal" font-weight="bold" text-anchor="start" writing-mode="lr-tb" style="text-align:start;line-height:125%"/><path font-family="Bitstream Vera Sans" style="text-align:start;line-height:125%" id="path2937" fill="none" stroke="url(#linearGradient2945)" stroke-dasharray="none" stroke-linecap="butt" stroke-linejoin="miter" stroke-miterlimit="4" stroke-opacity="1" stroke-width="1" d="M 19.904347,6.9840513 17.495251,4.8836159 11.999999,10.192556 9.0252792,13.007258 3.4641806,18.318484" font-size="59.901" font-stretch="normal" font-style="normal" font-variant="normal" font-weight="bold" opacity=".4" text-anchor="start" writing-mode="lr-tb"/></g><path id="path2969" fill="url(#radialGradient3751)" fill-opacity="1" stroke="#606060" stroke-dasharray="none" stroke-dashoffset="0" stroke-linecap="round" stroke-linejoin="round" stroke-miterlimit="10" stroke-opacity="1" stroke-width="1" d="m 34,31 a 3,3 0 1 1 -6,0 3,3 0 1 1 6,0 z" transform="translate(-0.5,-0.5)"/><path id="path3763" fill="none" stroke="url(#linearGradient3771)" stroke-dasharray="none" stroke-dashoffset="0" stroke-linecap="round" stroke-linejoin="round" stroke-miterlimit="10" stroke-opacity="1" stroke-width="1" d="m 32.956604,31 a 1.956604,2.0471701 0 1 1 -3.913208,0 1.956604,2.0471701 0 1 1 3.913208,0 z" opacity=".4" transform="translate(-0.5,-0.5)"/><path id="path3773" fill="url(#radialGradient3777)" fill-opacity="1" stroke="#606060" stroke-dasharray="none" stroke-dashoffset="0" stroke-linecap="round" stroke-linejoin="round" stroke-miterlimit="10" stroke-opacity="1" stroke-width="1" d="m 34,31 a 3,3 0 1 1 -6,0 3,3 0 1 1 6,0 z" transform="translate(9.5,11.5)"/><path id="path3775" fill="none" stroke="url(#linearGradient3779)" stroke-dasharray="none" stroke-dashoffset="0" stroke-linecap="round" stroke-linejoin="round" stroke-miterlimit="10" stroke-opacity="1" stroke-width="1" d="m 32.956604,31 a 1.956604,2.0471701 0 1 1 -3.913208,0 1.956604,2.0471701 0 1 1 3.913208,0 z" opacity=".4" transform="translate(9.5,11.5)"/></g><g id="g3930"><path id="path2621-9" fill="url(#radialGradient2927)" fill-opacity="1" fill-rule="nonzero" stroke="none" stroke-width="1" d="m 23.3379,45 c 0,1.656855 -5.075949,3 -11.33745,3 C 5.738949,48 0.662999,46.656855 0.663,45 c -1e-6,-1.656855 5.075949,-3 11.33745,-3 6.261501,0 11.33745,1.343145 11.33745,3 l 0,0 z" display="inline" opacity=".3" overflow="visible" visibility="visible" style="marker:none"/><path id="path2262-4" fill="url(#linearGradient2836)" fill-opacity="1" fill-rule="evenodd" stroke="#bf8407" stroke-dasharray="none" stroke-linecap="butt" stroke-linejoin="round" stroke-miterlimit="4" stroke-opacity="1" stroke-width="1" d="m 21.50045,32.495 0,5.005 -19,0 0,-5.005 19,0 z" display="inline"/><path id="path2272-6" fill="none" stroke="url(#linearGradient2833)" stroke-dasharray="none" stroke-linecap="butt" stroke-linejoin="miter" stroke-miterlimit="4" stroke-opacity="1" stroke-width="1" d="m 20.50045,33.495 0,3.005 -17,0 0,-3.005 17,0 z" display="inline" opacity=".4"/><path id="path3781" fill="url(#radialGradient3785)" fill-opacity="1" stroke="#bf8407" stroke-dasharray="none" stroke-dashoffset="0" stroke-linecap="round" stroke-linejoin="round" stroke-miterlimit="10" stroke-opacity="1" stroke-width="1" d="m 34,31 a 3,3 0 1 1 -6,0 3,3 0 1 1 6,0 z" transform="translate(-19.5,-3.5)"/><path id="path3783" fill="none" stroke="url(#linearGradient3787)" stroke-dasharray="none" stroke-dashoffset="0" stroke-linecap="round" stroke-linejoin="round" stroke-miterlimit="10" stroke-opacity="1" stroke-width="1" d="m 32.956604,31 a 1.956604,2.0471701 0 1 1 -3.913208,0 1.956604,2.0471701 0 1 1 3.913208,0 z" opacity=".4" transform="translate(-19.5,-3.5)"/><path id="path3789" fill="url(#radialGradient3793)" fill-opacity="1" stroke="#bf8407" stroke-dasharray="none" stroke-dashoffset="0" stroke-linecap="round" stroke-linejoin="round" stroke-miterlimit="10" stroke-opacity="1" stroke-width="1" d="m 34,31 a 3,3 0 1 1 -6,0 3,3 0 1 1 6,0 z" transform="translate(-19.5,11.5)"/><path id="path3791" fill="none" stroke="url(#linearGradient3795)" stroke-dasharray="none" stroke-dashoffset="0" stroke-linecap="round" stroke-linejoin="round" stroke-miterlimit="10" stroke-opacity="1" stroke-width="1" d="m 32.956604,31 a 1.956604,2.0471701 0 1 1 -3.913208,0 1.956604,2.0471701 0 1 1 3.913208,0 z" opacity=".4" transform="translate(-19.5,11.5)"/></g></g></svg>