<svg xmlns="http://www.w3.org/2000/svg" xmlns:svg="http://www.w3.org/2000/svg" xmlns:xlink="http://www.w3.org/1999/xlink" id="svg4147" width="22" height="22" version="1.0"><defs id="defs4149"><linearGradient id="linearGradient8838"><stop id="stop8840" offset="0" stop-color="#000" stop-opacity="1"/><stop id="stop8842" offset="1" stop-color="#000" stop-opacity="0"/></linearGradient><radialGradient id="radialGradient5323" cx="62.625" cy="4.625" r="10.625" fx="62.625" fy="4.625" gradientTransform="matrix(1,0,0,0.341176,0,3.047059)" gradientUnits="userSpaceOnUse" xlink:href="#linearGradient8838"/><linearGradient id="linearGradient5354"><stop id="stop5356" offset="0" stop-color="#3f3f3f" stop-opacity="1"/><stop id="stop5358" offset="1" stop-color="#000" stop-opacity="1"/></linearGradient><linearGradient id="linearGradient5130" x1="19.177" x2="19.177" y1="13.48" y2="45.359" gradientTransform="matrix(0.4916775,0,0,0.4916774,0.6986745,-0.3018277)" gradientUnits="userSpaceOnUse" xlink:href="#linearGradient5354"/><linearGradient id="linearGradient37935"><stop id="stop37937" offset="0" stop-color="#929292" stop-opacity="1"/><stop id="stop37939" offset="1" stop-color="#4a4a4a" stop-opacity="1"/></linearGradient><linearGradient id="linearGradient5128" x1="28.771" x2="28.771" y1="12.918" y2="45.348" gradientTransform="matrix(0.4916775,0,0,0.4916774,0.6986745,-0.3018277)" gradientUnits="userSpaceOnUse" xlink:href="#linearGradient37935"/><linearGradient id="linearGradient2145"><stop id="stop2147" offset="0" stop-color="#fffffd" stop-opacity="1"/><stop id="stop2149" offset="1" stop-color="#cbcbc9" stop-opacity="1"/></linearGradient><radialGradient id="radialGradient5350" cx="11.902" cy="10.045" r="29.293" fx="11.902" fy="10.045" gradientUnits="userSpaceOnUse" xlink:href="#linearGradient2145"/><linearGradient id="linearGradient3943"><stop id="stop3945" offset="0" stop-color="#fff" stop-opacity=".4"/><stop id="stop3947" offset="1" stop-color="#fff" stop-opacity="0"/></linearGradient><linearGradient id="linearGradient9129" x1="24.139" x2="24.139" y1="7.048" y2="47.273" gradientTransform="matrix(0.2817955,0,0,0.2800956,23.345098,41.514885)" gradientUnits="userSpaceOnUse" xlink:href="#linearGradient3943"/><linearGradient id="linearGradient2264"><stop id="stop2266" offset="0" stop-color="#d7e866" stop-opacity="1"/><stop id="stop2268" offset="1" stop-color="#8cab2a" stop-opacity="1"/></linearGradient><linearGradient id="linearGradient9127" x1="24.104" x2="24.104" y1="15.169" y2="32.485" gradientTransform="matrix(0.4691323,0,0,0.4663025,18.849015,37.308462)" gradientUnits="userSpaceOnUse" xlink:href="#linearGradient2264"/></defs><g id="layer1" transform="translate(-2,-1.0000001)"><path id="path2774" fill="url(#radialGradient5323)" fill-opacity="1" fill-rule="evenodd" stroke="none" stroke-width="1" d="m 73.25,4.625 a 10.625,3.625 0 1 1 -21.25,0 10.625,3.625 0 1 1 21.25,0 z" display="inline" opacity=".56" overflow="visible" transform="matrix(1.0823528,0,0,1.2906765,-55.282346,13.351919)" visibility="visible" style="marker:none"/><path id="path2555" fill="url(#linearGradient5128)" fill-opacity="1" stroke="url(#linearGradient5130)" stroke-dasharray="none" stroke-dashoffset="0" stroke-linecap="round" stroke-linejoin="round" stroke-miterlimit="4" stroke-opacity="1" stroke-width="1" d="m 12.492145,1.4999735 c -5.5190685,0 -9.9921705,4.473101 -9.9921705,9.9921715 0,5.519069 4.473102,10.007882 9.9921705,10.007881 5.519068,0 10.007887,-4.488812 10.007882,-10.007881 0,-5.5190705 -4.488814,-9.9921715 -10.007882,-9.9921715 z"/><path id="path35549" fill="url(#radialGradient5350)" fill-opacity="1" fill-rule="evenodd" stroke="none" d="m 31.160714,16.910715 a 14.910714,14.910714 0 1 1 -29.8214281,0 14.910714,14.910714 0 1 1 29.8214281,0 z" transform="matrix(0.5700599,0,0,0.5700599,3.2365269,1.8598792)"/><path id="path2308" fill="#1f1f1f" fill-opacity="1" fill-rule="evenodd" stroke="#727272" stroke-dasharray="none" stroke-linecap="round" stroke-linejoin="miter" stroke-miterlimit="4" stroke-opacity="1" stroke-width="1" d="m 12.5,6.4999999 c 0,-1.3926725 0,-1.5690116 0,-1.5690116"/><path id="path2312" fill="none" stroke="#000" stroke-dasharray="none" stroke-linecap="round" stroke-linejoin="miter" stroke-miterlimit="4" stroke-opacity="1" stroke-width=".5" d="M 12.194529,11.713855 17.596253,6.3122524"/><path id="path2314" fill="none" stroke="#000" stroke-dasharray="none" stroke-linecap="round" stroke-linejoin="miter" stroke-miterlimit="4" stroke-opacity="1" stroke-width=".5" d="M 13.071561,11.753718 9.4637681,8.1460064"/><path id="path2316" fill="red" fill-rule="evenodd" stroke="red" stroke-dasharray="none" stroke-linecap="round" stroke-linejoin="miter" stroke-miterlimit="4" stroke-opacity="1" stroke-width=".5" d="M 12.314125,11.434805 18.465311,9.7866365"/><path id="path5368" fill="#121212" fill-opacity="1" fill-rule="evenodd" stroke="#121212" stroke-dasharray="none" stroke-linecap="round" stroke-linejoin="miter" stroke-miterlimit="4" stroke-opacity="1" stroke-width="1" d="m 12.5,18.284507 c 0,-1.392673 0,-1.569012 0,-1.569012"/><path id="path5370" fill="#1f1f1f" fill-opacity="1" fill-rule="evenodd" stroke="#1f1f1f" stroke-dasharray="none" stroke-linecap="round" stroke-linejoin="miter" stroke-miterlimit="4" stroke-opacity="1" stroke-width="1" d="m 17.5,11.5 c 1.392673,0 1.569013,0 1.569013,0"/><path id="path5372" fill="#1f1f1f" fill-opacity="1" fill-rule="evenodd" stroke="#5f5f5f" stroke-dasharray="none" stroke-linecap="round" stroke-linejoin="miter" stroke-miterlimit="4" stroke-opacity="1" stroke-width="1" d="m 5.7331351,11.5 c 1.3613563,0 1.5337301,0 1.5337301,0"/><g id="g9123" transform="translate(-11.148536,-30.499991)"><path id="path2262" fill="url(#linearGradient9127)" fill-opacity="1" fill-rule="evenodd" stroke="#699536" stroke-dasharray="none" stroke-linecap="butt" stroke-linejoin="round" stroke-miterlimit="4" stroke-opacity="1" stroke-width="1" d="m 27.648536,46 0,-3 4,0 0,3 3,0 0,4 -3,0 0,2.999991 -4,0 0,-2.999991 -2.989465,0 0,-4 2.989465,0 z" display="inline"/><path id="path2272" fill="none" stroke="url(#linearGradient9129)" stroke-dasharray="none" stroke-linecap="butt" stroke-linejoin="miter" stroke-miterlimit="4" stroke-opacity="1" stroke-width="1" d="m 28.648536,47 0,-3 2,0 0,3 3,0 0,2 -3,0 0,3 -2,0 0,-3 -3,0 0,-2 3,0 z" display="inline"/></g></g></svg>