<svg xmlns="http://www.w3.org/2000/svg" xmlns:svg="http://www.w3.org/2000/svg" xmlns:xlink="http://www.w3.org/1999/xlink" id="svg4840" width="22" height="22" version="1.0"><defs id="defs4842"><linearGradient id="linearGradient8838"><stop id="stop8840" offset="0" stop-color="#000" stop-opacity="1"/><stop id="stop8842" offset="1" stop-color="#000" stop-opacity="0"/></linearGradient><radialGradient id="radialGradient5323" cx="62.625" cy="4.625" r="10.625" fx="62.625" fy="4.625" gradientTransform="matrix(1,0,0,0.341176,0,3.047059)" gradientUnits="userSpaceOnUse" xlink:href="#linearGradient8838"/><linearGradient id="linearGradient5354"><stop id="stop5356" offset="0" stop-color="#3f3f3f" stop-opacity="1"/><stop id="stop5358" offset="1" stop-color="#000" stop-opacity="1"/></linearGradient><linearGradient id="linearGradient5130" x1="19.177" x2="19.177" y1="13.48" y2="45.359" gradientTransform="matrix(0.4916775,0,0,0.4916774,0.6986745,-0.3018277)" gradientUnits="userSpaceOnUse" xlink:href="#linearGradient5354"/><linearGradient id="linearGradient37935"><stop id="stop37937" offset="0" stop-color="#929292" stop-opacity="1"/><stop id="stop37939" offset="1" stop-color="#4a4a4a" stop-opacity="1"/></linearGradient><linearGradient id="linearGradient5128" x1="28.771" x2="28.771" y1="12.918" y2="45.348" gradientTransform="matrix(0.4916775,0,0,0.4916774,0.6986745,-0.3018277)" gradientUnits="userSpaceOnUse" xlink:href="#linearGradient37935"/><linearGradient id="linearGradient2145"><stop id="stop2147" offset="0" stop-color="#fffffd" stop-opacity="1"/><stop id="stop2149" offset="1" stop-color="#cbcbc9" stop-opacity="1"/></linearGradient><radialGradient id="radialGradient5350" cx="11.902" cy="10.045" r="29.293" fx="11.902" fy="10.045" gradientUnits="userSpaceOnUse" xlink:href="#linearGradient2145"/><linearGradient id="linearGradient7065"><stop id="stop7067" offset="0" stop-color="#fff" stop-opacity="1"/><stop id="stop7069" offset="1" stop-color="#fff" stop-opacity="0"/></linearGradient><linearGradient id="linearGradient12026" x1="78.5" x2="83.031" y1="16.406" y2="16.438" gradientTransform="matrix(1.6399715,0,0,1.7710483,-116.65334,9.4899309)" gradientUnits="userSpaceOnUse" xlink:href="#linearGradient7065"/><linearGradient id="linearGradient3747"><stop id="stop3749" offset="0" stop-color="#494949" stop-opacity="1"/><stop id="stop3751" offset="1" stop-color="#888a85" stop-opacity="0"/></linearGradient><linearGradient id="linearGradient12024" x1="78.313" x2="83.203" y1="12.313" y2="12.093" gradientTransform="matrix(1.6399715,0,0,1.7710483,-116.65334,9.4899309)" gradientUnits="userSpaceOnUse" xlink:href="#linearGradient3747"/><linearGradient id="linearGradient7089"><stop id="stop7091" offset="0" stop-color="#eeeeec" stop-opacity="1"/><stop id="stop7093" offset="1" stop-color="#eeeeec" stop-opacity="0"/></linearGradient><linearGradient id="linearGradient12022" x1="80.625" x2="83.219" y1="14.063" y2="13.875" gradientTransform="matrix(1.6399715,0,0,1.7710483,-116.65334,9.4899309)" gradientUnits="userSpaceOnUse" xlink:href="#linearGradient7089"/><linearGradient id="linearGradient7101"><stop id="stop7103" offset="0" stop-color="#000" stop-opacity="1"/><stop id="stop7105" offset="1" stop-color="#000" stop-opacity="0"/></linearGradient><linearGradient id="linearGradient12020" x1="79.25" x2="83.625" y1="15.75" y2="14.781" gradientUnits="userSpaceOnUse" xlink:href="#linearGradient7101"/></defs><g id="layer1" transform="translate(-0.99993396,-1.0000001)"><path id="path2774" fill="url(#radialGradient5323)" fill-opacity="1" fill-rule="evenodd" stroke="none" stroke-width="1" d="m 73.25,4.625 a 10.625,3.625 0 1 1 -21.25,0 10.625,3.625 0 1 1 21.25,0 z" display="inline" opacity=".56" overflow="visible" transform="matrix(1.0823528,0,0,1.2906765,-55.282346,13.351919)" visibility="visible" style="marker:none"/><path id="path2555" fill="url(#linearGradient5128)" fill-opacity="1" stroke="url(#linearGradient5130)" stroke-dasharray="none" stroke-dashoffset="0" stroke-linecap="round" stroke-linejoin="round" stroke-miterlimit="4" stroke-opacity="1" stroke-width="1" d="m 12.492145,1.4999735 c -5.5190685,0 -9.9921705,4.473101 -9.9921705,9.9921715 0,5.519069 4.473102,10.007882 9.9921705,10.007881 5.519068,0 10.007887,-4.488812 10.007882,-10.007881 0,-5.5190705 -4.488814,-9.9921715 -10.007882,-9.9921715 z"/><path id="path35549" fill="url(#radialGradient5350)" fill-opacity="1" fill-rule="evenodd" stroke="none" d="m 31.160714,16.910715 a 14.910714,14.910714 0 1 1 -29.8214281,0 14.910714,14.910714 0 1 1 29.8214281,0 z" transform="matrix(0.5700599,0,0,0.5700599,3.2365269,1.8598792)"/><path id="path2308" fill="#1f1f1f" fill-opacity="1" fill-rule="evenodd" stroke="#727272" stroke-dasharray="none" stroke-linecap="round" stroke-linejoin="miter" stroke-miterlimit="4" stroke-opacity="1" stroke-width="1" d="m 12.5,6.4999999 c 0,-1.3926725 0,-1.5690116 0,-1.5690116"/><path id="path2312" fill="none" stroke="#000" stroke-dasharray="none" stroke-linecap="round" stroke-linejoin="miter" stroke-miterlimit="4" stroke-opacity="1" stroke-width=".5" d="M 12.194529,11.713855 17.596253,6.3122524"/><path id="path2314" fill="none" stroke="#000" stroke-dasharray="none" stroke-linecap="round" stroke-linejoin="miter" stroke-miterlimit="4" stroke-opacity="1" stroke-width=".5" d="M 13.071561,11.753718 9.4637681,8.1460064"/><path id="path2316" fill="red" fill-rule="evenodd" stroke="red" stroke-dasharray="none" stroke-linecap="round" stroke-linejoin="miter" stroke-miterlimit="4" stroke-opacity="1" stroke-width=".5" d="M 12.314125,11.434805 18.465311,9.7866365"/><path id="path5368" fill="#121212" fill-opacity="1" fill-rule="evenodd" stroke="#121212" stroke-dasharray="none" stroke-linecap="round" stroke-linejoin="miter" stroke-miterlimit="4" stroke-opacity="1" stroke-width="1" d="m 12.5,18.284507 c 0,-1.392673 0,-1.569012 0,-1.569012"/><path id="path5370" fill="#1f1f1f" fill-opacity="1" fill-rule="evenodd" stroke="#1f1f1f" stroke-dasharray="none" stroke-linecap="round" stroke-linejoin="miter" stroke-miterlimit="4" stroke-opacity="1" stroke-width="1" d="m 17.5,11.5 c 1.392673,0 1.569013,0 1.569013,0"/><path id="path5372" fill="#1f1f1f" fill-opacity="1" fill-rule="evenodd" stroke="#5f5f5f" stroke-dasharray="none" stroke-linecap="round" stroke-linejoin="miter" stroke-miterlimit="4" stroke-opacity="1" stroke-width="1" d="m 5.7331351,11.5 c 1.3613563,0 1.5337301,0 1.5337301,0"/><g id="g12015" transform="matrix(0.5373686,0,0,0.5340745,2.9655643,-11.862146)"><path id="path11284" fill="url(#linearGradient12020)" fill-opacity="1" fill-rule="evenodd" stroke="none" d="m 85,9.96875 c -4.313438,0 -8.144379,1.988611 -10.71875,5.0625 L 71.875,12.625 a 0.53130312,0.53130312 0 0 0 -0.90625,0.28125 l -2,10.5 a 0.53130312,0.53130312 0 0 0 0.625,0.625 l 10.5,-2 A 0.53130312,0.53130312 0 0 0 80.375,21.125 l -2.5,-2.5 c 1.634966,-2.162476 4.203208,-3.59375 7.125,-3.59375 0.06101,0 0.66768,-0.0067 1.25,0 0.58232,0.0067 1.231192,0.0319 1.21875,0.03125 a 0.53130312,0.53130312 0 0 0 0.5625,-0.53125 l 0,-4 A 0.53130312,0.53130312 0 0 0 87.53125,10 C 87.247954,9.9895391 85.221832,9.96875 85,9.96875 z" opacity=".1" transform="matrix(1.6399715,0,0,1.7710483,-116.65334,11.260979)"/><path id="path7007" fill="url(#linearGradient12022)" fill-opacity="1" fill-rule="evenodd" stroke="url(#linearGradient12024)" stroke-dasharray="none" stroke-dashoffset=".7" stroke-linecap="round" stroke-linejoin="round" stroke-miterlimit="10" stroke-opacity="1" stroke-width="1.867" d="m 22.744245,28.085938 c -7.15205,0 -13.5330601,3.656917 -17.5784501,9.353349 L 0.60462492,32.513559 -2.6753151,51.109566 14.544385,47.567469 9.8807149,42.531051 c 2.8004201,-4.436903 7.5167801,-9.131968 12.8635301,-9.131968 0.27738,0 3.8261,0.03986 4.09993,0.05535 l 0,-5.313145 c -0.2755,-0.01099 -3.82196,-0.05535 -4.09993,-0.05535 z"/><path id="path7062" fill="none" stroke="url(#linearGradient12026)" stroke-dasharray="none" stroke-dashoffset=".7" stroke-linecap="round" stroke-linejoin="round" stroke-miterlimit="10" stroke-opacity="1" stroke-width="1.867" d="m 22.744245,29.856986 c -6.6344,0 -12.45264,3.835166 -16.1974905,9.108404 -0.28081,0.410922 -0.7122,0.670949 -1.18347,0.71336 -0.47128,0.04241 -0.93657,-0.136919 -1.27648,-0.491979 L 1.9288036,36.830706 -0.22378477,48.705939 10.765669,46.270747 8.203337,43.898901 c -0.55379,-0.616146 -0.61859,-1.572518 -0.15374,-2.269156 3.09419,-4.902366 8.794238,-10.001711 14.694648,-10.001711 0.21143,0 2.7318,-0.01193 3.68994,0 0.18239,0.0023 0.24493,-0.0016 0.40999,0 l 0,-1.715703 c -1.15282,-0.0159 -4.0292,-0.05534 -4.09993,-0.05534 z"/></g></g></svg>