<svg xmlns="http://www.w3.org/2000/svg" xmlns:svg="http://www.w3.org/2000/svg" xmlns:xlink="http://www.w3.org/1999/xlink" id="svg3803" width="22" height="22" version="1.1"><defs id="defs3805"><linearGradient id="linearGradient3742" x1="24.139" x2="24.139" y1="7.048" y2="39.268" gradientTransform="matrix(0.2817955,0,0,0.2800956,10.178741,4.02218)" gradientUnits="userSpaceOnUse" xlink:href="#linearGradient3943"/><linearGradient id="linearGradient3943"><stop id="stop3945" offset="0" stop-color="#fff" stop-opacity="1"/><stop id="stop3947" offset="1" stop-color="#fff" stop-opacity="0"/></linearGradient><radialGradient id="radialGradient3745" cx="69.448" cy="51.695" r="31" fx="69.448" fy="51.695" gradientTransform="matrix(0,0.35684158,-0.38820022,0,35.349285,-18.114114)" gradientUnits="userSpaceOnUse" xlink:href="#linearGradient3242-7"/><linearGradient id="linearGradient3242-7"><stop id="stop3244-5" offset="0" stop-color="#eef87e" stop-opacity="1"/><stop id="stop3246-9" offset=".262" stop-color="#cde34f" stop-opacity="1"/><stop id="stop3248-7" offset=".661" stop-color="#93b723" stop-opacity="1"/><stop id="stop3250-8" offset="1" stop-color="#5a7e0d" stop-opacity="1"/></linearGradient><linearGradient id="linearGradient3747" x1="72.422" x2="72.422" y1="124.756" y2="51.244" gradientTransform="matrix(0.1482266,0,0,0.1494387,3.4435038,-2.6433177)" gradientUnits="userSpaceOnUse" xlink:href="#linearGradient2490-3"/><linearGradient id="linearGradient2490-3"><stop id="stop2492-3" offset="0" stop-color="#365f0e" stop-opacity="1"/><stop id="stop2494-8" offset="1" stop-color="#84a718" stop-opacity="1"/></linearGradient><linearGradient id="linearGradient3750" x1="144.459" x2="144.459" y1="-2.227" y2="42.42" gradientTransform="matrix(-0.2703533,0,0,0.27035337,53.200342,-0.42915792)" gradientUnits="userSpaceOnUse" xlink:href="#linearGradient4873-275-174-730-0"/><linearGradient id="linearGradient4873-275-174-730-0"><stop id="stop3091-4" offset="0" stop-color="#fff" stop-opacity="1"/><stop id="stop3093-4" offset="1" stop-color="#fff" stop-opacity="0"/></linearGradient><linearGradient id="linearGradient3242-141-111-307-57-927"><stop id="stop3881" offset="0" stop-color="#fff" stop-opacity="1"/><stop id="stop3883" offset="1" stop-color="#b4b4b4" stop-opacity="1"/></linearGradient><linearGradient id="linearGradient2490-322-551-880-5-882"><stop id="stop3887" offset="0" stop-color="#8c8c8c" stop-opacity="1"/><stop id="stop3889" offset="1" stop-color="#b4b4b4" stop-opacity="1"/></linearGradient><radialGradient id="radialGradient3799" cx="20.573" cy="-35.522" r="20.397" fx="20.573" fy="-35.522" gradientTransform="matrix(0,0.64524082,0.85170617,0,43.313554,-15.274242)" gradientUnits="userSpaceOnUse" xlink:href="#linearGradient3242-141-111-307-57-927"/><linearGradient id="linearGradient3801" x1="128.718" x2="128.718" y1="46.304" y2="-5.81" gradientTransform="matrix(-0.2703533,0,0,0.27035337,53.200342,-0.42915792)" gradientUnits="userSpaceOnUse" xlink:href="#linearGradient2490-322-551-880-5-882"/></defs><metadata id="metadata3808"/><g id="layer1" transform="translate(0,6)"><path id="path2396" fill="url(#radialGradient3799)" fill-opacity="1" fill-rule="nonzero" stroke="url(#linearGradient3801)" stroke-dasharray="none" stroke-dashoffset="0" stroke-linecap="round" stroke-linejoin="round" stroke-miterlimit="4" stroke-opacity="1" stroke-width="1" d="M 13,-1.4999997 C 8.308,-1.4999997 4.5,1.4120006 4.5,5 4.5,5.550338 4.612625,6.083288 4.78125,6.59375 L 1.5,9.4062503 6.875,9.5000003 C 8.422138,10.73217 10.591504,11.5 13,11.5 c 4.692,0 8.500001,-2.9119997 8.5,-6.5 0,-3.5879996 -3.808,-6.4999998 -8.5,-6.4999997 z" color="#000" display="inline" enable-background="accumulate" overflow="visible" visibility="visible" style="marker:none"/><path id="path3811" fill="none" stroke="url(#linearGradient3750)" stroke-dasharray="none" stroke-dashoffset="0" stroke-linecap="round" stroke-linejoin="round" stroke-miterlimit="4" stroke-opacity="1" stroke-width="1" d="m 13,-0.53124972 c 2.143173,0 4.058764,0.6883198 5.40625,1.71875002 1.347486,1.03043 2.125,2.3653457 2.125,3.8124997 0,1.447153 -0.777514,2.78207 -2.125,3.8125003 C 17.058764,9.8429303 15.143173,10.53125 13,10.53125 c -2.200123,0 -4.146962,-0.7349147 -5.5,-1.8124997 a 0.98052209,0.98052209 0 0 0 -0.59375,-0.1875 l -2.8125,-0.0625 1.3125,-1.1250003 a 0.98052209,0.98052209 0 0 0 0.3125,-1.0625 C 5.573094,5.840318 5.46875,5.416577 5.46875,5 c 0,-1.447153 0.777514,-2.7820697 2.125,-3.8124997 C 8.941236,0.15707008 10.856827,-0.53124972 13,-0.53124972 z" color="#000" display="inline" enable-background="accumulate" opacity=".4" overflow="visible" visibility="visible" style="marker:none"/><path id="path2262" fill="url(#radialGradient3745)" fill-opacity="1" fill-rule="nonzero" stroke="url(#linearGradient3747)" stroke-dasharray="none" stroke-dashoffset="0" stroke-linecap="round" stroke-linejoin="round" stroke-miterlimit="4" stroke-opacity="1" stroke-width=".985" d="m 14.482179,8.5072953 0,-3.0000003 4,0 0,3.0000003 3,0 0,3.9999997 -3,0 0,2.999991 -4,0 0,-2.999991 -2.989465,0 0,-3.9999997 2.989465,0 z" color="#000" display="inline" enable-background="accumulate" overflow="visible" visibility="visible" style="marker:none"/><path id="path2272" fill="none" stroke="url(#linearGradient3742)" stroke-dasharray="none" stroke-linecap="butt" stroke-linejoin="miter" stroke-miterlimit="4" stroke-opacity="1" stroke-width="1" d="m 15.482179,9.5072953 0,-3.0000003 2,0 0,3.0000003 3,0 0,1.9999997 -3,0 0,3 -2,0 0,-3 -3,0 0,-1.9999997 3,0 z" display="inline" opacity=".4"/></g></svg>