<svg xmlns="http://www.w3.org/2000/svg" xmlns:svg="http://www.w3.org/2000/svg" xmlns:xlink="http://www.w3.org/1999/xlink" id="svg2536" width="22" height="22" version="1.0"><metadata id="metadata56"/><defs id="defs2538"><linearGradient id="linearGradient5060-6-986-342-61"><stop id="stop4080" offset="0" stop-color="#1e1e1e" stop-opacity="1"/><stop id="stop4082" offset="1" stop-color="#1e1e1e" stop-opacity="0"/></linearGradient><radialGradient id="radialGradient2724-226-535-494" cx="605.714" cy="486.648" r="117.143" fx="605.714" fy="486.648" gradientTransform="matrix(-6.553443e-2,0,0,2.470588e-2,-21.829255,10.577352)" gradientUnits="userSpaceOnUse" xlink:href="#linearGradient5060-6-986-342-61"/><linearGradient id="linearGradient5060-6-252-476-367"><stop id="stop4074" offset="0" stop-color="#1e1e1e" stop-opacity="1"/><stop id="stop4076" offset="1" stop-color="#1e1e1e" stop-opacity="0"/></linearGradient><radialGradient id="radialGradient2722-303-187-273" cx="605.714" cy="486.648" r="117.143" fx="605.714" fy="486.648" gradientTransform="matrix(6.553443e-2,0,0,2.470588e-2,-69.175497,10.577352)" gradientUnits="userSpaceOnUse" xlink:href="#linearGradient5060-6-252-476-367"/><linearGradient id="linearGradient5048-7-668-934-892"><stop id="stop4066" offset="0" stop-color="#1e1e1e" stop-opacity="0"/><stop id="stop4068" offset=".5" stop-color="#1e1e1e" stop-opacity="1"/><stop id="stop4070" offset="1" stop-color="#1e1e1e" stop-opacity="0"/></linearGradient><linearGradient id="linearGradient2720-766-26-906" x1="302.857" x2="302.857" y1="366.648" y2="609.505" gradientTransform="matrix(6.553443e-2,0,0,2.470588e-2,-69.188394,10.577352)" gradientUnits="userSpaceOnUse" xlink:href="#linearGradient5048-7-668-934-892"/><linearGradient id="linearGradient2490-495-150-777"><stop id="stop4108" offset="0" stop-color="#787878" stop-opacity="1"/><stop id="stop4110" offset="1" stop-color="#b4b4b4" stop-opacity="1"/></linearGradient><linearGradient id="linearGradient2451" x1="28.103" x2="28.103" y1="45" y2="14.038" gradientTransform="matrix(0.4666666,0,0,0.5006418,0.7999998,-4.7785529)" gradientUnits="userSpaceOnUse" xlink:href="#linearGradient2490-495-150-777"/><linearGradient id="linearGradient3242-967-12-570-862-307"><stop id="stop4498" offset="0" stop-color="#f2f2f2" stop-opacity="1"/><stop id="stop4502" offset=".874" stop-color="#dbdbdb" stop-opacity="1"/><stop id="stop4504" offset="1" stop-color="#999" stop-opacity="1"/></linearGradient><linearGradient id="linearGradient2449" x1="19.875" x2="19.875" y1="10.39" y2="45.6" gradientTransform="matrix(0.4666666,0,0,0.4545454,0.7999999,-2.7272752)" gradientUnits="userSpaceOnUse" xlink:href="#linearGradient3242-967-12-570-862-307"/><linearGradient id="linearGradient3333-314-917-262"><stop id="stop4102" offset="0" stop-color="#fff" stop-opacity="1"/><stop id="stop4104" offset="1" stop-color="#fff" stop-opacity="0"/></linearGradient><linearGradient id="linearGradient2446" x1="25.577" x2="25.577" y1="15" y2="44.001" gradientTransform="matrix(0.4418603,0,0,0.4642857,1.3953491,-3.696433)" gradientUnits="userSpaceOnUse" xlink:href="#linearGradient3333-314-917-262"/><linearGradient id="linearGradient2443" x1="23.929" x2="23.929" y1="30.773" y2="45.531" gradientTransform="matrix(0.4657385,0,0,0.4850945,0.8223378,-4.102232)" gradientUnits="userSpaceOnUse" xlink:href="#linearGradient3495-841-851-719"/><linearGradient id="linearGradient3495-841-851-719"><stop id="stop4120" offset="0" stop-color="#1e1e1e" stop-opacity="1"/><stop id="stop4122" offset="1" stop-color="#1e1e1e" stop-opacity="0"/></linearGradient><linearGradient id="linearGradient2440" x1="23.904" x2="23.904" y1="35.75" y2="16.007" gradientTransform="matrix(0.4657385,0,0,0.4850945,0.8223379,-3.5686279)" gradientUnits="userSpaceOnUse" xlink:href="#linearGradient3495-841-851-719"/><linearGradient id="linearGradient3400"><stop id="stop3402" offset="0" stop-color="#fff" stop-opacity="1"/><stop id="stop3404" offset="1" stop-color="#fff" stop-opacity="0"/></linearGradient><linearGradient id="linearGradient2431" x1="20.494" x2="20.494" y1="18.736" y2="39.78" gradientTransform="matrix(0.4138818,0,0,0.416294,-1.7222411,-1.7775922)" gradientUnits="userSpaceOnUse" xlink:href="#linearGradient3400"/><linearGradient id="linearGradient2264"><stop id="stop2266" offset="0" stop-color="#d7e866" stop-opacity="1"/><stop id="stop2268" offset="1" stop-color="#8cab2a" stop-opacity="1"/></linearGradient><linearGradient id="linearGradient2427" x1="-88.165" x2="-92.267" y1="10.572" y2="27.708" gradientTransform="matrix(0.4210425,-0.1013922,0.1008047,0.4234963,44.055331,-5.0893565)" gradientUnits="userSpaceOnUse" xlink:href="#linearGradient2264"/><linearGradient id="linearGradient2435" x1="23.904" x2="23.904" y1="35.75" y2="16.007" gradientTransform="matrix(0.4657385,0,0,0.4850945,-0.1776621,-4.5686279)" gradientUnits="userSpaceOnUse" xlink:href="#linearGradient3495-841-851-719"/><linearGradient id="linearGradient2438" x1="23.929" x2="23.929" y1="30.773" y2="45.531" gradientTransform="matrix(0.4657385,0,0,0.4850945,-0.1776622,-5.102232)" gradientUnits="userSpaceOnUse" xlink:href="#linearGradient3495-841-851-719"/><linearGradient id="linearGradient2441" x1="25.577" x2="25.577" y1="15" y2="44.001" gradientTransform="matrix(0.4418603,0,0,0.4642857,0.3953491,-4.696433)" gradientUnits="userSpaceOnUse" xlink:href="#linearGradient3333-314-917-262"/><linearGradient id="linearGradient2444" x1="19.875" x2="19.875" y1="10.39" y2="45.6" gradientTransform="matrix(0.4666666,0,0,0.4545454,-0.2000001,-3.7272752)" gradientUnits="userSpaceOnUse" xlink:href="#linearGradient3242-967-12-570-862-307"/><linearGradient id="linearGradient2447" x1="28.103" x2="28.103" y1="45" y2="14.038" gradientTransform="matrix(0.4666666,0,0,0.5006418,-0.2000002,-5.7785529)" gradientUnits="userSpaceOnUse" xlink:href="#linearGradient2490-495-150-777"/><linearGradient id="linearGradient2453" x1="-88.165" x2="-92.267" y1="10.572" y2="27.708" gradientTransform="matrix(0.4210425,-0.1013922,0.1008047,0.4234963,44.055331,-5.0893565)" gradientUnits="userSpaceOnUse" xlink:href="#linearGradient2264"/><linearGradient id="linearGradient2455" x1="20.494" x2="20.494" y1="18.736" y2="39.78" gradientTransform="matrix(0.4138818,0,0,0.416294,-1.7222411,-1.7775922)" gradientUnits="userSpaceOnUse" xlink:href="#linearGradient3400"/></defs><rect stroke-miterlimit="4" style="marker:none" id="rect2396" width="21" height="15" x=".5" y="1.5" fill="url(#linearGradient2444)" fill-opacity="1" fill-rule="evenodd" stroke="url(#linearGradient2447)" stroke-dasharray="none" stroke-dashoffset="0" stroke-linecap="square" stroke-linejoin="round" stroke-opacity="1" stroke-width="1" marker-end="none" marker-mid="none" marker-start="none" display="inline" enable-background="accumulate" overflow="visible" rx=".467" ry=".455" visibility="visible"/><rect stroke-miterlimit="4" style="marker:none" id="rect3331" width="19" height="13" x="1.5" y="2.5" fill="none" fill-opacity="1" fill-rule="evenodd" stroke="url(#linearGradient2441)" stroke-dasharray="none" stroke-dashoffset="0" stroke-linecap="square" stroke-linejoin="miter" stroke-opacity="1" stroke-width="1" marker-end="none" marker-mid="none" marker-start="none" display="inline" enable-background="accumulate" opacity=".4" overflow="visible" rx=".036" ry=".035" visibility="visible"/><path id="path3341" fill="none" fill-opacity="1" fill-rule="evenodd" stroke="url(#linearGradient2438)" stroke-dasharray="none" stroke-dashoffset="0" stroke-linecap="butt" stroke-linejoin="miter" stroke-miterlimit="4" stroke-opacity="1" stroke-width="1" marker-end="none" marker-mid="none" marker-start="none" d="M 8.2139564,10.336975 L 1.1222032,16.468629 M 13.709509,10.325653 L 20.811476,16.468629" display="inline" enable-background="accumulate" opacity=".5" overflow="visible" visibility="visible" style="marker:none"/><path id="path3493" fill="none" fill-rule="evenodd" stroke="url(#linearGradient2435)" stroke-dasharray="none" stroke-linecap="butt" stroke-linejoin="miter" stroke-miterlimit="4" stroke-opacity="1" stroke-width="1" d="M 0.8491563,3.0457658 L 11.000062,12.181817 L 20.937208,3.0457658" opacity=".5"/><g id="g2593" transform="translate(6.5000001,5.9999996)"><path id="path1542" fill="url(#linearGradient2453)" fill-opacity="1" fill-rule="nonzero" stroke="#699536" stroke-dasharray="none" stroke-dashoffset="0" stroke-linecap="round" stroke-linejoin="round" stroke-miterlimit="4" stroke-opacity="1" stroke-width="1.003" marker-end="none" marker-mid="none" marker-start="none" d="M 12.261653,0.5044599 C 12.029988,0.4808121 11.799669,0.5949363 11.68064,0.8140357 L 6.6092099,10.147177 L 3.3486091,7.5394809 C 3.0581688,7.3798499 2.6957992,7.4825419 2.5370939,7.7746759 L 1.0749025,9.6628789 C 0.9162007,9.9550069 1.022965,10.319381 1.3134032,10.47901 C 1.3134032,10.47901 7.2668529,15.4247 7.2741979,15.428358 C 7.3422689,15.465772 7.4134539,15.484598 7.4858139,15.493794 C 7.7221919,15.523836 7.9640949,15.412132 8.0856009,15.18847 L 14.925097,2.6015698 C 15.083799,2.309438 14.977037,1.9450664 14.686597,1.7854378 L 12.492045,0.5741463 C 12.419434,0.5342386 12.338874,0.5123425 12.261653,0.5044599 z" display="inline" overflow="visible" visibility="visible" style="marker:none"/><path id="path2429" fill="none" fill-opacity="1" fill-rule="nonzero" stroke="url(#linearGradient2455)" stroke-dasharray="none" stroke-dashoffset="0" stroke-linecap="round" stroke-linejoin="miter" stroke-miterlimit="4" stroke-opacity="1" stroke-width="1.003" marker-end="none" marker-mid="none" marker-start="none" d="M 12.3125,1.65625 L 7,11.46875 C 7.0010855,11.479138 7.0010855,11.489612 7,11.5 C 6.9911795,11.511899 6.9806491,11.52243 6.96875,11.53125 C 6.9583616,11.532335 6.9478884,11.532335 6.9375,11.53125 C 6.9286795,11.543149 6.9181491,11.55368 6.90625,11.5625 C 6.8958616,11.563585 6.8853884,11.563585 6.875,11.5625 C 6.8646116,11.563585 6.8541384,11.563585 6.84375,11.5625 C 6.8318509,11.55368 6.8213205,11.543149 6.8125,11.53125 C 6.8021116,11.532335 6.7916384,11.532335 6.78125,11.53125 L 3.125,8.625 C 2.8011238,9.027465 2.5240816,9.4029186 2.15625,9.875 C 2.2685497,9.9680767 3.4592283,10.965043 4.78125,12.0625 C 5.472451,12.63629 6.1627907,13.219288 6.6875,13.65625 C 6.9498546,13.874731 7.1868958,14.056078 7.34375,14.1875 C 7.3938919,14.229512 7.4322046,14.250463 7.46875,14.28125 C 7.5213048,14.187704 7.5777637,14.100699 7.71875,13.84375 C 7.9107144,13.493893 8.1584558,13.006768 8.46875,12.4375 C 9.0893384,11.298965 9.9132278,9.8271776 10.71875,8.34375 C 11.524272,6.8603224 12.29994,5.3686542 12.90625,4.25 C 13.209405,3.6906729 13.474932,3.241308 13.65625,2.90625 C 13.798225,2.6438932 13.86697,2.5417601 13.90625,2.46875 C 13.851185,2.4374035 13.806304,2.4072641 13.6875,2.34375 C 13.515614,2.2518572 13.308618,2.1438702 13.09375,2.03125 C 12.878882,1.9186298 12.661819,1.8041019 12.5,1.71875 C 12.43304,1.683432 12.359093,1.6812765 12.3125,1.65625 z" display="inline" opacity=".4" overflow="visible" visibility="visible" style="marker:none"/></g></svg>