<svg xmlns="http://www.w3.org/2000/svg" xmlns:svg="http://www.w3.org/2000/svg" xmlns:xlink="http://www.w3.org/1999/xlink" id="svg2" width="22" height="22" version="1.0"><defs id="defs4"><radialGradient id="radialGradient4536" cx="605.714" cy="486.648" r="117.143" fx="605.714" fy="486.648" gradientTransform="matrix(-2.774389,0,0,1.969706,112.7623,-872.8854)" gradientUnits="userSpaceOnUse" xlink:href="#linearGradient5060"/><linearGradient id="linearGradient5060"><stop id="stop5062" offset="0" stop-color="#000" stop-opacity="1"/><stop id="stop5064" offset="1" stop-color="#000" stop-opacity="0"/></linearGradient><radialGradient id="radialGradient4534" cx="605.714" cy="486.648" r="117.143" fx="605.714" fy="486.648" gradientTransform="matrix(2.774389,0,0,1.969706,-1891.633,-872.8854)" gradientUnits="userSpaceOnUse" xlink:href="#linearGradient5060"/><linearGradient id="linearGradient5048"><stop id="stop5050" offset="0" stop-color="#000" stop-opacity="0"/><stop id="stop5056" offset=".5" stop-color="#000" stop-opacity="1"/><stop id="stop5052" offset="1" stop-color="#000" stop-opacity="0"/></linearGradient><linearGradient id="linearGradient4532" x1="302.857" x2="302.857" y1="366.648" y2="609.505" gradientTransform="matrix(2.774389,0,0,1.969706,-1892.179,-872.8854)" gradientUnits="userSpaceOnUse" xlink:href="#linearGradient5048"/><linearGradient id="linearGradient3931"><stop id="stop3933" offset="0" stop-color="#8d8f8a" stop-opacity="1"/><stop id="stop3935" offset="1" stop-color="#cbcbcb" stop-opacity="1"/></linearGradient><linearGradient id="linearGradient4547" x1="-51.786" x2="-51.786" y1="50.786" y2="2.906" gradientTransform="matrix(0.4383743,0,0,0.4575444,31.223522,-0.7786496)" gradientUnits="userSpaceOnUse" xlink:href="#linearGradient3931"/><linearGradient id="linearGradient3600"><stop id="stop3602" offset="0" stop-color="#f4f4f4" stop-opacity="1"/><stop id="stop3604" offset="1" stop-color="#dbdbdb" stop-opacity="1"/></linearGradient><linearGradient id="linearGradient4545" x1="25.132" x2="25.132" y1="6.729" y2="47.013" gradientTransform="matrix(0.5428805,0,0,0.4889072,-1.0291327,-0.2337718)" gradientUnits="userSpaceOnUse" xlink:href="#linearGradient3600"/><linearGradient id="linearGradient4559"><stop id="stop4561" offset="0" stop-color="#cacaca" stop-opacity="1"/><stop id="stop4563" offset="1" stop-color="#949492" stop-opacity="1"/></linearGradient><linearGradient id="linearGradient4565" x1="17.289" x2="15.18" y1="2.185" y2="5.821" gradientTransform="translate(0,2)" gradientUnits="userSpaceOnUse" xlink:href="#linearGradient4559"/><linearGradient id="linearGradient8589"><stop id="stop8591" offset="0" stop-color="#fefefe" stop-opacity="1"/><stop id="stop8593" offset="1" stop-color="#cbcbcb" stop-opacity="1"/></linearGradient><linearGradient id="linearGradient4543" x1="32.892" x2="36.358" y1="8.059" y2="5.457" gradientTransform="matrix(0.541631,0,0,0.5202974,-0.9402078,1.6981438)" gradientUnits="userSpaceOnUse" xlink:href="#linearGradient8589"/><linearGradient id="linearGradient11114"><stop id="stop11116" offset="0" stop-color="#242424" stop-opacity=".992"/><stop id="stop11118" offset="1" stop-color="#656565" stop-opacity="1"/></linearGradient><linearGradient id="linearGradient2710" x1="-172.653" x2="-166.64" y1="99.667" y2="93.654" gradientTransform="matrix(0.1365758,0,0,0.1412118,42.854804,6.0390025)" gradientUnits="userSpaceOnUse" xlink:href="#linearGradient11114"/><linearGradient id="linearGradient4454"><stop id="stop4456" offset="0" stop-color="#a1a1a1" stop-opacity=".208"/><stop id="stop4458" offset="1" stop-color="#a1a1a1" stop-opacity=".678"/></linearGradient><radialGradient id="radialGradient4193" cx="18.241" cy="21.818" r="8.309" fx="18.241" fy="21.818" gradientUnits="userSpaceOnUse" xlink:href="#linearGradient4454"/><linearGradient id="linearGradient4467"><stop id="stop4469" offset="0" stop-color="#fff" stop-opacity="1"/><stop id="stop4471" offset="1" stop-color="#fff" stop-opacity=".248"/></linearGradient><radialGradient id="radialGradient2705" cx="15.414" cy="13.078" r="6.656" fx="15.414" fy="13.078" gradientTransform="matrix(1.03877,0,0,0.8346314,-3.3500394,0.2168552)" gradientUnits="userSpaceOnUse" xlink:href="#linearGradient4467"/><linearGradient id="linearGradient11104"><stop id="stop11106" offset="0" stop-color="#333" stop-opacity="1"/><stop id="stop11108" offset="1" stop-color="#333" stop-opacity=".612"/></linearGradient><linearGradient id="linearGradient2702" x1="41.542" x2="41.485" y1="68.292" y2="4.536" gradientTransform="matrix(0.1365758,0,0,0.1412118,7.9984436,8.7019038)" gradientUnits="userSpaceOnUse" xlink:href="#linearGradient11104"/><linearGradient id="linearGradient2300"><stop id="stop2302" offset="0" stop-color="#343435" stop-opacity=".976"/><stop id="stop2304" offset="1" stop-color="#919295" stop-opacity="1"/></linearGradient><linearGradient id="linearGradient2700" x1="173.096" x2="173.096" y1="75.319" y2="11.949" gradientTransform="matrix(0.1365758,0,0,0.1412118,-9.716959,7.6391574)" gradientUnits="userSpaceOnUse" xlink:href="#linearGradient2300"/></defs><g id="layer1" transform="translate(-2,-2)"><g id="g3490" stroke-dasharray="none" stroke-miterlimit="4" stroke-width="1.883" display="inline" transform="matrix(0.47982332,0,0,0.5168524,1.5628734,-0.5781821)"><g id="g5022" stroke-dasharray="none" stroke-miterlimit="4" stroke-width="104.962" display="inline" transform="matrix(0.02165152,0,0,0.01485743,43.0076,42.68539)"><rect id="rect4173" width="1339.633" height="478.357" x="-1559.252" y="-150.697" fill="url(#linearGradient4532)" fill-opacity="1" fill-rule="nonzero" stroke="none" stroke-width="104.962" display="inline" opacity=".402" overflow="visible" visibility="visible" style="marker:none"/><path id="path5058" fill="url(#radialGradient4534)" fill-opacity="1" fill-rule="nonzero" stroke="none" stroke-width="104.962" d="m -219.61876,-150.68038 c 0,0 0,478.33079 0,478.33079 142.874166,0.90045 345.40022,-107.16966 345.40014,-239.196175 0,-132.026537 -159.436816,-239.134595 -345.40014,-239.134615 z" display="inline" opacity=".402" overflow="visible" visibility="visible" style="marker:none"/><path id="path5018" fill="url(#radialGradient4536)" fill-opacity="1" fill-rule="nonzero" stroke="none" stroke-width="104.962" d="m -1559.2523,-150.68038 c 0,0 0,478.33079 0,478.33079 -142.8742,0.90045 -345.4002,-107.16966 -345.4002,-239.196175 0,-132.026537 159.4368,-239.134595 345.4002,-239.134615 z" display="inline" opacity=".402" overflow="visible" visibility="visible" style="marker:none"/></g></g><path id="rect2594" fill="url(#linearGradient4545)" fill-opacity="1" stroke="url(#linearGradient4547)" stroke-dasharray="none" stroke-dashoffset="0" stroke-linecap="butt" stroke-linejoin="round" stroke-miterlimit="4" stroke-opacity="1" stroke-width=".999" d="m 4.5,2.5 c 4.3540581,0 6.707692,0 11.061752,0 0.7638,0.2373053 4.867172,2.9404149 5.938678,4.8123518 0,5.7293572 0,9.4587192 0,15.1880792 -6.333619,0 -10.666813,0 -17.00043,0 C 4.5,15.166809 4.5,9.8336218 4.5,2.5 z" display="inline"/><path id="path12038" fill="url(#linearGradient4543)" fill-opacity="1" fill-rule="evenodd" stroke="url(#linearGradient4565)" stroke-dasharray="none" stroke-linecap="butt" stroke-linejoin="round" stroke-miterlimit="4" stroke-opacity="1" stroke-width="1" d="m 15.5,2.5 c 0,2.262965 0,5 0,5 0,0 4.653658,0 6,0 0,-0.836587 -4.820468,-4.9857176 -6,-5 z" display="inline"/><path id="path11112" fill="url(#linearGradient2710)" fill-opacity="1" fill-rule="evenodd" stroke="#333" stroke-dasharray="none" stroke-linecap="round" stroke-linejoin="round" stroke-miterlimit="4" stroke-opacity="1" stroke-width=".772" d="m 17.460715,16.54986 6.106675,5.876362 -0.846471,1.187773 -6.084558,-6.356651 0.824354,-0.707484 z" display="inline"/><path id="path13082" fill="#3e3e3e" fill-opacity="1" stroke="none" d="m 248.35479,110.29199 a 5.3124018,2.6562009 0 1 1 -10.6248,0 5.3124018,2.6562009 0 1 1 10.6248,0 z" display="inline" transform="matrix(0.1354007,-0.1564671,0.1513302,0.1399968,-26.42267,45.63132)"/><path id="path4452" fill="url(#radialGradient4193)" fill-opacity="1" fill-rule="evenodd" stroke="none" stroke-width="1.526" d="m 25.897786,18.478292 a 8.3085051,8.3085051 0 1 1 -16.61701,0 8.3085051,8.3085051 0 1 1 16.61701,0 z" display="inline" transform="matrix(0.5036401,0,0,0.5080737,5.2767465,4.2232703)" visibility="visible" style="marker:none"/><path id="path4462" fill="url(#radialGradient2705)" fill-opacity="1" fill-rule="evenodd" stroke="none" stroke-width=".75" d="m 13.963041,9.9776238 c -2.086219,0 -3.77558,1.5628072 -3.77558,3.4927442 0,0.557374 0.168381,1.070211 0.419508,1.537958 0.501718,0.171073 1.034682,0.287468 1.600349,0.287468 2.472155,0 4.446498,-1.801727 4.59906,-4.053309 C 16.112934,10.48441 15.119789,9.9776238 13.963041,9.9776238 z" display="inline" opacity=".834" overflow="visible" visibility="visible" style="marker:none"/><path id="path2298" fill="url(#linearGradient2700)" fill-opacity="1" stroke="url(#linearGradient2702)" stroke-dasharray="none" stroke-linecap="round" stroke-linejoin="round" stroke-miterlimit="4" stroke-opacity="1" stroke-width=".772" d="m 14.043423,9.3961997 c -2.569882,0 -4.656382,1.9892783 -4.6563807,4.4393463 0,2.450068 2.0864987,4.439346 4.6563807,4.439346 2.56988,0 4.65638,-1.989278 4.65638,-4.439346 0,-2.450067 -2.086498,-4.4393463 -4.65638,-4.4393463 z m 0.05548,0.2912494 c 2.300061,0 4.16983,1.7787559 4.16983,3.9715819 0,2.192827 -1.869769,3.971583 -4.16983,3.971583 -2.300061,0 -4.1655605,-1.778756 -4.1655605,-3.971583 0,-2.192826 1.8654995,-3.9715819 4.1655605,-3.9715819 z" display="inline"/></g></svg>