<svg xmlns="http://www.w3.org/2000/svg" xmlns:svg="http://www.w3.org/2000/svg" xmlns:xlink="http://www.w3.org/1999/xlink" id="svg4138" width="22" height="22" version="1.0"><defs id="defs4140"><linearGradient id="linearGradient5354"><stop id="stop5356" offset="0" stop-color="#3f3f3f" stop-opacity="1"/><stop id="stop5358" offset="1" stop-color="#000" stop-opacity="1"/></linearGradient><linearGradient id="linearGradient5130" x1="19.177" x2="19.177" y1="13.48" y2="45.359" gradientTransform="matrix(0.4916775,0,0,0.4916774,0.6986745,-0.3018277)" gradientUnits="userSpaceOnUse" xlink:href="#linearGradient5354"/><linearGradient id="linearGradient37935"><stop id="stop37937" offset="0" stop-color="#929292" stop-opacity="1"/><stop id="stop37939" offset="1" stop-color="#4a4a4a" stop-opacity="1"/></linearGradient><linearGradient id="linearGradient5128" x1="28.771" x2="28.771" y1="12.918" y2="45.348" gradientTransform="matrix(0.4916775,0,0,0.4916774,0.6986745,-0.3018277)" gradientUnits="userSpaceOnUse" xlink:href="#linearGradient37935"/><linearGradient id="linearGradient2145"><stop id="stop2147" offset="0" stop-color="#fffffd" stop-opacity="1"/><stop id="stop2149" offset="1" stop-color="#cbcbc9" stop-opacity="1"/></linearGradient><radialGradient id="radialGradient5350" cx="11.902" cy="10.045" r="29.293" fx="11.902" fy="10.045" gradientUnits="userSpaceOnUse" xlink:href="#linearGradient2145"/></defs><g id="layer1" transform="translate(-2,0)"><path id="path2555" fill="url(#linearGradient5128)" fill-opacity="1" stroke="url(#linearGradient5130)" stroke-dasharray="none" stroke-dashoffset="0" stroke-linecap="round" stroke-linejoin="round" stroke-miterlimit="4" stroke-opacity="1" stroke-width="1" d="m 12.492145,1.4999735 c -5.5190685,0 -9.9921705,4.473101 -9.9921705,9.9921715 0,5.519069 4.473102,10.007882 9.9921705,10.007881 5.519068,0 10.007887,-4.488812 10.007882,-10.007881 0,-5.5190705 -4.488814,-9.9921715 -10.007882,-9.9921715 z"/><path id="path35549" fill="url(#radialGradient5350)" fill-opacity="1" fill-rule="evenodd" stroke="none" d="m 31.160714,16.910715 a 14.910714,14.910714 0 1 1 -29.8214281,0 14.910714,14.910714 0 1 1 29.8214281,0 z" transform="matrix(0.5700599,0,0,0.5700599,3.2365269,1.8598792)"/><path id="path2308" fill="#1f1f1f" fill-opacity="1" fill-rule="evenodd" stroke="#727272" stroke-dasharray="none" stroke-linecap="round" stroke-linejoin="miter" stroke-miterlimit="4" stroke-opacity="1" stroke-width="1" d="m 12.5,6.4999999 c 0,-1.3926725 0,-1.5690116 0,-1.5690116"/><path id="path2312" fill="none" stroke="#000" stroke-dasharray="none" stroke-linecap="round" stroke-linejoin="miter" stroke-miterlimit="4" stroke-opacity="1" stroke-width=".5" d="M 12.194529,11.713855 17.596253,6.3122524"/><path id="path2314" fill="none" stroke="#000" stroke-dasharray="none" stroke-linecap="round" stroke-linejoin="miter" stroke-miterlimit="4" stroke-opacity="1" stroke-width=".5" d="M 13.071561,11.753718 9.4637681,8.1460064"/><path id="path2316" fill="red" fill-rule="evenodd" stroke="red" stroke-dasharray="none" stroke-linecap="round" stroke-linejoin="miter" stroke-miterlimit="4" stroke-opacity="1" stroke-width=".5" d="M 12.314125,11.434805 18.465311,9.7866365"/><path id="path5368" fill="#121212" fill-opacity="1" fill-rule="evenodd" stroke="#121212" stroke-dasharray="none" stroke-linecap="round" stroke-linejoin="miter" stroke-miterlimit="4" stroke-opacity="1" stroke-width="1" d="m 12.5,18.284507 c 0,-1.392673 0,-1.569012 0,-1.569012"/><path id="path5370" fill="#1f1f1f" fill-opacity="1" fill-rule="evenodd" stroke="#1f1f1f" stroke-dasharray="none" stroke-linecap="round" stroke-linejoin="miter" stroke-miterlimit="4" stroke-opacity="1" stroke-width="1" d="m 17.5,11.5 c 1.392673,0 1.569013,0 1.569013,0"/><path id="path5372" fill="#1f1f1f" fill-opacity="1" fill-rule="evenodd" stroke="#5f5f5f" stroke-dasharray="none" stroke-linecap="round" stroke-linejoin="miter" stroke-miterlimit="4" stroke-opacity="1" stroke-width="1" d="m 5.7331351,11.5 c 1.3613563,0 1.5337301,0 1.5337301,0"/><path id="path13687" fill="#7da5ca" fill-opacity="1" stroke="#356ca0" stroke-dasharray="none" stroke-linecap="butt" stroke-linejoin="miter" stroke-miterlimit="4" stroke-opacity="1" stroke-width="1" d="m 23.499726,2.5080278 -3.368576,3.0278443 3.368576,0 0,1.9638547 -5.999454,0 0,-2.1871311 3.11703,-2.7671632 -3.11703,0 0,-2.04515927 5.999454,0 0,2.00775457 z" font-family="Segoe" font-size="10" font-stretch="normal" font-style="normal" font-variant="normal" font-weight="normal" text-anchor="start" writing-mode="lr-tb" style="line-height:100%"/><path id="path13696" fill="#7da5ca" fill-opacity="1" stroke="#356ca0" stroke-dasharray="none" stroke-linecap="butt" stroke-linejoin="miter" stroke-miterlimit="4" stroke-opacity="1" stroke-width="1" d="m 20.499999,11.671256 -2.326359,1.856163 2.326359,0 0,1.960278 -4.999999,0 0,-2.130028 2.194321,-1.873657 -2.194321,0 0,-1.9840125 4.999999,0 0,2.1712565 z" font-family="Segoe" font-size="10" font-stretch="normal" font-style="normal" font-variant="normal" font-weight="normal" text-anchor="start" writing-mode="lr-tb" style="line-height:100%"/></g></svg>