<svg xmlns="http://www.w3.org/2000/svg" xmlns:svg="http://www.w3.org/2000/svg" xmlns:xlink="http://www.w3.org/1999/xlink" id="svg3277" width="22" height="22" version="1.1"><metadata id="metadata46"/><defs id="defs3279"><linearGradient id="linearGradient3943"><stop id="stop3945" offset="0" stop-color="#fff" stop-opacity="1"/><stop id="stop3947" offset="1" stop-color="#fff" stop-opacity="0"/></linearGradient><linearGradient id="linearGradient3242-7"><stop id="stop3244-5" offset="0" stop-color="#eef87e" stop-opacity="1"/><stop id="stop3246-9" offset=".262" stop-color="#cde34f" stop-opacity="1"/><stop id="stop3248-7" offset=".661" stop-color="#93b723" stop-opacity="1"/><stop id="stop3250-8" offset="1" stop-color="#5a7e0d" stop-opacity="1"/></linearGradient><linearGradient id="linearGradient2490-3"><stop id="stop2492-3" offset="0" stop-color="#365f0e" stop-opacity="1"/><stop id="stop2494-8" offset="1" stop-color="#84a718" stop-opacity="1"/></linearGradient><linearGradient id="linearGradient3251"><stop id="stop3253" offset="0" stop-color="#917f6e" stop-opacity="1"/><stop id="stop3255" offset="1" stop-color="#cbbaa9" stop-opacity="1"/></linearGradient><linearGradient id="linearGradient4222"><stop id="stop4224" offset="0" stop-color="#fff" stop-opacity="1"/><stop id="stop4226" offset="1" stop-color="#fff" stop-opacity="0"/></linearGradient><linearGradient id="linearGradient3243"><stop id="stop3245" offset="0" stop-color="#fff4e9" stop-opacity="1"/><stop id="stop3247" offset="1" stop-color="#e7d6c5" stop-opacity="1"/></linearGradient><linearGradient id="linearGradient2863" x1="17.592" x2="17.592" y1="7" y2="-.025" gradientTransform="translate(-2,0.00673838)" gradientUnits="userSpaceOnUse" xlink:href="#linearGradient3251"/><linearGradient id="linearGradient2866" x1="40.007" x2="40.007" y1="12.911" y2="7.092" gradientTransform="translate(-26,-2.9932616)" gradientUnits="userSpaceOnUse" xlink:href="#linearGradient4222"/><linearGradient id="linearGradient2869" x1="38.382" x2="38.382" y1="5.906" y2="22.698" gradientTransform="translate(-26,-2.9932616)" gradientUnits="userSpaceOnUse" xlink:href="#linearGradient4222"/><linearGradient id="linearGradient2872" x1="39.906" x2="39.906" y1="6.123" y2="24.034" gradientTransform="translate(-26,-2.9932616)" gradientUnits="userSpaceOnUse" xlink:href="#linearGradient3243"/><linearGradient id="linearGradient2874" x1="32.016" x2="32.016" y1="24.011" y2="5" gradientTransform="translate(-26,-2.9932616)" gradientUnits="userSpaceOnUse" xlink:href="#linearGradient3251"/><linearGradient id="linearGradient2879" x1="24.139" x2="24.139" y1="7.048" y2="39.268" gradientTransform="matrix(0.2817955,0,0,0.2800956,10.178741,10.02218)" gradientUnits="userSpaceOnUse" xlink:href="#linearGradient3943"/><radialGradient id="radialGradient2881" cx="69.448" cy="51.695" r="31" fx="69.448" fy="51.695" gradientTransform="matrix(0,0.35684158,-0.38820022,0,35.349285,-12.114114)" gradientUnits="userSpaceOnUse" xlink:href="#linearGradient3242-7"/><linearGradient id="linearGradient2883" x1="72.422" x2="72.422" y1="124.756" y2="51.244" gradientTransform="matrix(0.1482266,0,0,0.1494387,3.4435041,3.3566823)" gradientUnits="userSpaceOnUse" xlink:href="#linearGradient2490-3"/></defs><path id="path2463" fill="url(#linearGradient2872)" fill-opacity="1" fill-rule="evenodd" stroke="url(#linearGradient2874)" stroke-linecap="butt" stroke-linejoin="miter" stroke-opacity="1" stroke-width="1" d="M 9.9999999,2.5067383 0.5,12.350488 l 8.2500001,8.15625 9.7499999,-9.5 0,-8.4999997 -8.5000001,0 z m 4.0000001,3 c 0.828,0 1.5,0.672 1.5,1.5 0,0.828 -0.672,1.5 -1.5,1.5 -0.828,0 -1.5,-0.672 -1.5,-1.5 0,-0.828 0.672,-1.5 1.5,-1.5 z"/><path id="path3265" fill="none" stroke="url(#linearGradient2869)" stroke-linecap="butt" stroke-linejoin="miter" stroke-opacity="1" stroke-width="1" d="m 10.375,3.4129883 c -2.8645829,2.96875 -5.7291669,5.9375 -8.5937499,8.9062497 2.322917,2.291667 4.645833,4.583333 6.96875,6.875 2.9479169,-2.864583 5.8958329,-5.729167 8.8437499,-8.59375 0,-2.3958327 0,-4.7916667 0,-7.1874997 -2.40625,0 -4.8125,0 -7.21875,0 z" opacity=".6"/><path id="path3294" fill="none" stroke="url(#linearGradient2866)" stroke-linecap="butt" stroke-linejoin="miter" stroke-opacity="1" stroke-width="1" d="m 14,4.6004883 c 1.513288,-0.05335 2.761066,1.553793 2.330349,3.00682 -0.319839,1.425818 -2.075515,2.247518 -3.372527,1.567994 -1.334998,-0.589688 -1.800348,-2.467087 -0.88534,-3.607246 C 12.516976,4.9665683 13.251129,4.5946953 14,4.6004883 z" opacity=".6"/><path id="path3298" fill="none" stroke="url(#linearGradient2863)" stroke-linecap="butt" stroke-linejoin="miter" stroke-opacity="1" stroke-width="1" d="m 14.5,6.5067383 c 1.109018,-0.587219 2.554024,-0.767119 3.926872,-0.797739 0.617147,-0.01376 1.240944,0.1119 1.84653,-0.03214 0.770742,-0.18333 1.295983,-0.748013 1.219149,-1.264249 -0.103141,-0.692964 -1.034017,-1.204524 -1.907061,-1.570599 -0.774408,-0.324716 -1.370444,-0.903352 -1.685436,-1.514615 -0.159146,-0.308833 0.118786,-0.63311092 0.564593,-0.73266002 0.404996,-0.090436 0.829182,-0.1261828 1.241295,-0.034356 0.627242,0.1397617 1.367682,0.3102703 1.65947,0.75466002"/><path id="path2262" fill="url(#radialGradient2881)" fill-opacity="1" fill-rule="nonzero" stroke="url(#linearGradient2883)" stroke-dasharray="none" stroke-dashoffset="0" stroke-linecap="round" stroke-linejoin="round" stroke-miterlimit="4" stroke-opacity="1" stroke-width=".985" d="m 14.482179,14.507295 0,-3 4,0 0,3 3,0 0,4 -3,0 0,2.999991 -4,0 0,-2.999991 -2.989465,0 0,-4 2.989465,0 z" color="#000" display="inline" enable-background="accumulate" overflow="visible" visibility="visible" style="marker:none"/><path id="path2272" fill="none" stroke="url(#linearGradient2879)" stroke-dasharray="none" stroke-linecap="butt" stroke-linejoin="miter" stroke-miterlimit="4" stroke-opacity="1" stroke-width="1" d="m 15.482179,15.507295 0,-3 2,0 0,3 3,0 0,2 -3,0 0,3 -2,0 0,-3 -3,0 0,-2 3,0 z" display="inline" opacity=".4"/></svg>