<svg xmlns="http://www.w3.org/2000/svg" xmlns:svg="http://www.w3.org/2000/svg" xmlns:xlink="http://www.w3.org/1999/xlink" id="svg1" width="32" height="32" version="1.0"><defs id="defs3"><linearGradient id="linearGradient2790"><stop id="stop2792" offset="0" stop-color="#000" stop-opacity="1"/><stop id="stop2794" offset="1" stop-color="#000" stop-opacity="0"/></linearGradient><linearGradient id="linearGradient2780"><stop id="stop2782" offset="0" stop-color="#fff" stop-opacity="1"/><stop id="stop2784" offset="1" stop-color="#fff" stop-opacity="0"/></linearGradient><linearGradient id="linearGradient6621"><stop id="stop6622" offset="0" stop-color="#f5a108" stop-opacity="0"/><stop id="stop6623" offset="1" stop-color="#fefdc3" stop-opacity=".743"/></linearGradient><linearGradient id="linearGradient7881" x1="22.82" x2="12.85" y1="28.829" y2="12.239" gradientTransform="matrix(0.70826822,0,0,0.36975442,0.71122923,2.4674742)" gradientUnits="userSpaceOnUse" xlink:href="#linearGradient6621"/><linearGradient id="linearGradient2786" x1="24" x2="24" y1="5.079" y2="41.079" gradientTransform="matrix(0.65651397,0,0,0.6708371,0.16180423,0.91182441)" gradientUnits="userSpaceOnUse" xlink:href="#linearGradient2780"/><radialGradient id="radialGradient2796" cx="24.375" cy="37.75" r="17.375" fx="24.375" fy="37.75" gradientTransform="matrix(0.8057554,0,0,0.2877698,-3.6402877,16.137292)" gradientUnits="userSpaceOnUse" xlink:href="#linearGradient2790"/><linearGradient id="linearGradient3242"><stop id="stop3244" offset="0" stop-color="#f8b17e" stop-opacity="1"/><stop id="stop3246" offset=".312" stop-color="#e35d4f" stop-opacity="1"/><stop id="stop3248" offset=".571" stop-color="#c6262e" stop-opacity="1"/><stop id="stop3250" offset="1" stop-color="#690b54" stop-opacity="1"/></linearGradient><linearGradient id="linearGradient2490"><stop id="stop2492" offset="0" stop-color="#791235" stop-opacity="1"/><stop id="stop2494" offset="1" stop-color="#dd3b27" stop-opacity="1"/></linearGradient><linearGradient id="linearGradient3853" x1="24" x2="24" y1="6" y2="51" gradientTransform="matrix(0.66855915,0,0,0.67851695,-0.1243507,-0.69400426)" gradientUnits="userSpaceOnUse" xlink:href="#linearGradient3242"/><linearGradient id="linearGradient3861" x1="17" x2="17" y1="45" y2="6" gradientTransform="matrix(0.66855915,0,0,0.67851695,-0.1243507,-0.69400426)" gradientUnits="userSpaceOnUse" xlink:href="#linearGradient2490"/></defs><path d="m 30,27.000598 a 14,5 0 0 1 -27.9999999,0 14,5 0 1 1 27.9999999,0 z" style="marker:none" id="path2788" fill="url(#radialGradient2796)" fill-opacity="1" fill-rule="nonzero" stroke="none" stroke-width="1" color="#000" display="inline" opacity=".3" overflow="visible" visibility="visible"/><path id="path7876" fill="url(#linearGradient7881)" fill-opacity="1" fill-rule="evenodd" stroke="none" d="M 9.260509,5.0735316 C 5.6717566,4.8943309 3.9998593,7.2331059 3.0954924,9.4579575 2.1980218,12.387797 3.4666674,17.921574 9.683631,17.500588 c 3.546125,0 4.955583,-3.689224 6.82189,-4.646926 1.696124,-0.650596 1.829616,-0.708824 3.621597,-0.708824 2.490296,0 6.9937,-1.828323 6.993701,-3.6424461 C 26.35536,7.0466684 24.32317,4.4542503 20.588891,4.8960978 18.211871,5.1767545 15.963068,6.9004561 15.375648,7.7581755 13.936668,6.4706109 12.099307,5.0735316 9.260509,5.0735316 z"/><path id="path920" fill="url(#linearGradient3853)" fill-opacity="1" fill-rule="evenodd" stroke="url(#linearGradient3861)" stroke-dasharray="none" stroke-linecap="butt" stroke-linejoin="miter" stroke-miterlimit="4" stroke-opacity="1" stroke-width="1" d="M 15.8118,6.2259268 C 22.021828,-0.07396868 30.55586,5.7326714 30.499725,11.707326 30.448407,17.1692 26.34506,19.78496 16.036344,29.5 5.2462223,20.462233 1.4444755,18.37809 1.5006113,11.897759 1.5567471,5.1896339 8.8625985,0.15515429 15.8118,6.2259268 z"/><path id="path2778" fill="none" stroke="url(#linearGradient2786)" stroke-dasharray="none" stroke-linecap="butt" stroke-linejoin="miter" stroke-miterlimit="4" stroke-opacity="1" stroke-width="1" d="M 10.091578,4.5385376 C 9.5450038,4.4907271 9.0001236,4.5028088 8.4913253,4.5804648 5.096354,5.0986281 2.5322209,8.2643212 2.5006352,12.064492 2.4743652,15.117768 3.25983,16.964523 5.4344321,19.317918 7.530204,21.586 11.024321,24.303175 16.02072,28.5 c 4.781324,-4.517076 8.220883,-7.542042 10.360611,-9.915811 2.220477,-2.463348 3.095016,-4.19809 3.118441,-6.708371 C 29.523922,9.2880683 27.622844,6.5711606 25.006756,5.2932294 22.390666,4.015298 19.178441,4.0803417 16.328461,6.9912857 a 0.73629992,0.75236374 0 0 1 -0.98477,0.041927 C 13.520989,5.4300532 11.731302,4.6819689 10.091578,4.5385376 z" opacity=".4"/></svg>