<svg xmlns="http://www.w3.org/2000/svg" xmlns:svg="http://www.w3.org/2000/svg" xmlns:xlink="http://www.w3.org/1999/xlink" id="svg3486" width="32" height="32" version="1.0"><defs id="defs3488"><linearGradient id="linearGradient9936"><stop id="stop9938" offset="0" stop-color="#575757" stop-opacity="1"/><stop id="stop9940" offset="1" stop-color="#333" stop-opacity="1"/></linearGradient><linearGradient id="linearGradient2490"><stop id="stop2492" offset="0" stop-color="#791235" stop-opacity="1"/><stop id="stop2494" offset="1" stop-color="#dd3b27" stop-opacity="1"/></linearGradient><linearGradient id="linearGradient3242"><stop id="stop3244" offset="0" stop-color="#f8b17e" stop-opacity="1"/><stop id="stop3246" offset=".312" stop-color="#e35d4f" stop-opacity="1"/><stop id="stop3248" offset=".571" stop-color="#c6262e" stop-opacity="1"/><stop id="stop3250" offset="1" stop-color="#690b54" stop-opacity="1"/></linearGradient><linearGradient id="linearGradient3342"><stop id="stop3344" offset="0" stop-color="#fff" stop-opacity="0"/><stop id="stop3346" offset="1" stop-color="#fff" stop-opacity="1"/></linearGradient><linearGradient id="linearGradient3434"><stop id="stop3436" offset="0" stop-color="#fff" stop-opacity="0"/><stop id="stop3438" offset="1" stop-color="#fff" stop-opacity="1"/></linearGradient><linearGradient id="linearGradient3463"><stop id="stop3465" offset="0" stop-color="#000" stop-opacity="1"/><stop id="stop3467" offset="1" stop-color="#000" stop-opacity="0"/></linearGradient><linearGradient id="linearGradient3275" x1="15" x2="15" y1="17" y2="33.434" gradientTransform="matrix(0.875,0,0,0.8620691,0.1875,-8.8620693)" gradientUnits="userSpaceOnUse" xlink:href="#linearGradient3434"/><linearGradient id="linearGradient3278" x1="14.499" x2="14.499" y1="44.179" y2="15.875" gradientTransform="matrix(0.9333335,0,0,0.8667558,-0.55625,-8.8888588)" gradientUnits="userSpaceOnUse" xlink:href="#linearGradient3434"/><linearGradient id="linearGradient3281" x1="22.056" x2="22.056" y1="15.834" y2="45.497" gradientTransform="matrix(0.8636143,0,0,0.8719345,-0.1326391,-9.7370562)" gradientUnits="userSpaceOnUse" xlink:href="#linearGradient9936"/><radialGradient id="radialGradient3287" cx="-6.16" cy="36.686" r="14.098" fx="-6.16" fy="36.686" gradientTransform="matrix(0.2544354,0,0,0.1773003,6.1543661,21.995509)" gradientUnits="userSpaceOnUse" xlink:href="#linearGradient3463"/><radialGradient id="radialGradient3290" cx="-6.16" cy="36.686" r="14.098" fx="-6.16" fy="36.686" gradientTransform="matrix(0.8326977,0,0,0.1751907,17.868834,22.102642)" gradientUnits="userSpaceOnUse" xlink:href="#linearGradient3463"/><radialGradient id="radialGradient3293" cx="-6.16" cy="36.686" r="14.098" fx="-6.16" fy="36.686" gradientTransform="matrix(0.6939147,0,0,0.1773003,25.492145,21.995509)" gradientUnits="userSpaceOnUse" xlink:href="#linearGradient3463"/><linearGradient id="linearGradient3296" x1="143.915" x2="143.915" y1="75.221" y2="103.126" gradientTransform="matrix(1.0006658,0,0,0.9568208,-122.51112,-61.951179)" gradientUnits="userSpaceOnUse" xlink:href="#linearGradient3242"/><linearGradient id="linearGradient3298" x1="153.409" x2="153.409" y1="98.785" y2="75.221" gradientTransform="matrix(1.0006658,0,0,0.9568208,-122.51112,-61.951179)" gradientUnits="userSpaceOnUse" xlink:href="#linearGradient2490"/><radialGradient id="radialGradient3301" cx="-6.16" cy="36.686" r="14.098" fx="-6.16" fy="36.686" gradientTransform="matrix(0.2544354,0,0,0.1773003,22.458715,21.995508)" gradientUnits="userSpaceOnUse" xlink:href="#linearGradient3463"/><linearGradient id="linearGradient3310" x1="153.409" x2="153.409" y1="98.785" y2="75.221" gradientTransform="matrix(1.0006658,0,0,0.9568208,-122.51112,-61.951179)" gradientUnits="userSpaceOnUse" xlink:href="#linearGradient3342"/></defs><path id="path3205" fill="url(#radialGradient3301)" fill-opacity="1" fill-rule="evenodd" stroke="none" stroke-dasharray="none" stroke-dashoffset="0" stroke-linecap="butt" stroke-linejoin="round" stroke-miterlimit="4" stroke-opacity="1" stroke-width="1" marker-end="none" marker-mid="none" marker-start="none" d="M 24.478261,28.5 C 24.478634,29.880635 22.87259,30.999999 20.891305,30.999999 C 18.910021,30.999999 17.303977,29.880635 17.304349,28.5 C 17.303977,27.119364 18.910021,26 20.891305,26 C 22.87259,26 24.478634,27.119364 24.478261,28.5 L 24.478261,28.5 z" display="inline" enable-background="accumulate" opacity=".2" overflow="visible" visibility="visible" style="marker:none"/><path marker-start="none" style="text-align:start;line-height:100%;marker:none;-inkscape-font-specification:Gabrielle" id="path3207" fill="url(#linearGradient3296)" fill-opacity="1" fill-rule="evenodd" stroke="url(#linearGradient3298)" stroke-dasharray="none" stroke-dashoffset="0" stroke-linecap="butt" stroke-linejoin="miter" stroke-miterlimit="4" stroke-opacity="1" stroke-width="1" marker-end="none" marker-mid="none" d="M 29.563443,11.731849 C 29.075585,10.645646 27.885039,10.759421 27.068242,10.586891 C 24.36408,10.281138 21.664552,10.768765 19.39814,12.264835 C 17.210637,13.721244 15.23123,15.691765 13.840793,18.234621 C 12.632223,20.49976 12.089532,23.525849 12.852029,26.408439 C 13.452163,28.348944 15.258782,29.547525 16.78244,29.224327 C 19.114989,28.842032 20.77716,26.714399 22.148343,24.638731 C 22.768402,23.782739 23.149278,22.649087 23.881174,21.9297 C 23.777012,23.774404 23.730368,25.690416 24.156981,27.563662 C 24.399452,28.668192 25.286444,29.538909 26.185376,29.498658 C 27.099928,29.395524 27.796084,28.615437 28.554223,28.106329 C 29.236102,27.512737 30.017183,27.002351 30.500001,26.144141 C 30.416829,24.722522 29.123599,25.615178 28.672194,26.103115 C 28.041157,27.079089 26.737426,26.303584 27.016317,24.97544 C 27.162323,21.94174 27.882114,19.092819 28.490883,16.232651 C 28.833118,14.724815 29.193369,13.22577 29.563445,11.731849 L 29.563443,11.731849 z M 25.78586,13.624862 C 24.627414,17.221001 23.376014,20.881097 21.235042,23.669281 C 20.22493,24.941325 18.743916,26.094795 17.110949,25.482923 C 15.982476,24.991158 15.721029,23.374327 15.696609,22.158042 C 15.550973,18.56642 17.315592,15.591769 19.521669,13.797395 C 21.059427,12.594355 23.047046,12.049837 24.988402,12.637339 C 25.354913,12.77145 25.752471,13.118602 25.78586,13.624864 L 25.78586,13.624862 z" display="inline" enable-background="accumulate" font-family="Gabrielle" font-size="55.902" font-stretch="normal" font-style="normal" font-variant="normal" font-weight="normal" overflow="visible" text-anchor="start" visibility="visible" writing-mode="lr-tb"/><path id="path3209" fill="url(#radialGradient3293)" fill-opacity="1" fill-rule="evenodd" stroke="none" stroke-dasharray="none" stroke-dashoffset="0" stroke-linecap="butt" stroke-linejoin="round" stroke-miterlimit="4" stroke-opacity="1" stroke-width="1" marker-end="none" marker-mid="none" marker-start="none" d="M 31,28.500001 C 31.001017,29.880636 26.620896,31 21.217392,31 C 15.813887,31 11.433765,29.880636 11.434782,28.500001 C 11.433765,27.119365 15.813887,26.000001 21.217392,26.000001 C 26.620896,26.000001 31.001017,27.119365 31,28.500001 L 31,28.500001 z" display="inline" enable-background="accumulate" opacity=".2" overflow="visible" visibility="visible" style="marker:none"/><path id="path3211" fill="url(#radialGradient3290)" fill-opacity="1" fill-rule="evenodd" stroke="none" stroke-dasharray="none" stroke-dashoffset="0" stroke-linecap="butt" stroke-linejoin="round" stroke-miterlimit="4" stroke-opacity="1" stroke-width="1" marker-end="none" marker-mid="none" marker-start="none" d="M 24.47826,28.529739 C 24.479481,29.893948 19.223336,30.999993 12.73913,30.999993 C 6.2549245,30.999993 0.99877948,29.893948 1.0000002,28.529739 C 0.99877948,27.165531 6.2549245,26.059486 12.73913,26.059486 C 19.223336,26.059486 24.479481,27.165531 24.47826,28.529739 L 24.47826,28.529739 z" display="inline" enable-background="accumulate" opacity=".05" overflow="visible" visibility="visible" style="marker:none"/><path id="path3213" fill="url(#radialGradient3287)" fill-opacity="1" fill-rule="evenodd" stroke="none" stroke-dasharray="none" stroke-dashoffset="0" stroke-linecap="butt" stroke-linejoin="round" stroke-miterlimit="4" stroke-opacity="1" stroke-width="1" marker-end="none" marker-mid="none" marker-start="none" d="M 8.1739126,28.500001 C 8.1742857,29.880636 6.5682415,31 4.5869567,31 C 2.6056718,31 0.99962767,29.880636 1.0000007,28.500001 C 0.99962767,27.119365 2.6056718,26.000001 4.5869566,26.000001 C 6.5682415,26.000001 8.1742857,27.119365 8.1739126,28.500001 L 8.1739126,28.500001 z" display="inline" enable-background="accumulate" opacity=".2" overflow="visible" visibility="visible" style="marker:none"/><path d="M 25.53125,11.5625 C 24.459292,11.562635 25.981977,11.761244 26.192519,12.205918 C 26.869214,12.779042 26.994276,13.756251 26.60043,14.523593 C 25.878265,16.711612 25.062076,18.874418 24.03125,20.9375 C 25.295481,21.117024 24.799829,22.64839 24.855117,23.520304 C 24.872963,24.958181 24.904953,26.4459 25.392354,27.811932 C 25.776778,28.85277 26.787153,28.136492 27.355144,27.696313 C 27.913036,27.415118 26.670422,27.396812 26.560837,26.966812 C 25.939533,26.373834 25.819626,25.180679 26.03125,24.625 C 26.249401,21.193487 27.072556,17.839957 27.822751,14.496872 C 28.024634,13.663837 28.23326,12.832457 28.4375,12 C 27.744212,11.474271 26.692548,11.698588 25.854192,11.559791 L 25.691753,11.559202 L 25.53125,11.5625 L 25.53125,11.5625 z M 15.53125,17.5 C 13.693046,19.974098 13.060526,23.324818 13.889909,26.293816 C 14.330679,27.563282 15.803459,28.634567 17.153856,28.089793 C 18.140672,27.741104 18.93354,27.012314 19.625,26.25 C 18.28316,26.914652 16.370503,26.811372 15.499068,25.447198 C 14.545576,23.979553 14.581701,22.123705 14.726093,20.44516 C 14.85069,19.431239 15.129197,18.438417 15.53125,17.5 z" style="text-align:start;line-height:100%;marker:none;-inkscape-font-specification:Gabrielle" id="path3305" fill="none" fill-opacity="1" fill-rule="evenodd" stroke="url(#linearGradient3310)" stroke-dasharray="none" stroke-dashoffset="0" stroke-linecap="butt" stroke-linejoin="miter" stroke-miterlimit="4" stroke-opacity="1" stroke-width="1" marker-end="none" marker-mid="none" marker-start="none" display="inline" enable-background="accumulate" font-family="Gabrielle" font-size="55.902" font-stretch="normal" font-style="normal" font-variant="normal" font-weight="normal" opacity=".4" overflow="visible" text-anchor="start" visibility="visible" writing-mode="lr-tb"/><path id="path3217" fill="url(#linearGradient3281)" fill-opacity="1" stroke="#333" stroke-linecap="butt" stroke-linejoin="miter" stroke-opacity="1" stroke-width="1" d="M 19.295181,29.5 C 18.498759,27.223407 17.702337,24.776591 16.905916,22.5 C 16.905916,22.5 7.1198242,22.5 7.1198242,22.5 C 6.3035773,24.804455 5.4873305,27.195542 4.6710843,29.5 C 3.6140557,29.5 2.5570278,29.5 1.4999999,29.5 C 4.5192773,21.166667 7.5385537,12.833334 10.557832,4.4999998 C 11.513655,4.4999998 12.469478,4.4999998 13.425303,4.4999998 C 16.4502,12.833334 19.475101,21.166667 22.500001,29.5 C 21.431728,29.5 20.363454,29.5 19.295181,29.5 z M 15.937499,19.5 C 15.937499,19.5 11.999999,8.3793093 11.999999,8.3793093 C 11.999999,8.3793093 8.0624998,19.5 8.0624998,19.5 C 8.0624998,19.5 15.937499,19.5 15.937499,19.5 z" font-family="Droid Sans" font-size="40" font-stretch="normal" font-style="normal" font-variant="normal" font-weight="normal" style="-inkscape-font-specification:Sans"/><path id="path3219" fill="none" fill-opacity="1" stroke="url(#linearGradient3278)" stroke-linecap="butt" stroke-linejoin="miter" stroke-opacity="1" stroke-width="1" d="M 21.24609,29 C 21.24609,29 12.733733,5.5 12.733733,5.5 C 12.733733,5.5 11.272282,5.5 11.272282,5.5 C 11.272282,5.5 2.7517959,29 2.7517959,29" font-family="Droid Sans" font-size="40" font-stretch="normal" font-style="normal" font-variant="normal" font-weight="normal" opacity=".3" style="-inkscape-font-specification:Sans"/><path id="path3221" fill="none" fill-rule="evenodd" stroke="url(#linearGradient3275)" stroke-linecap="butt" stroke-linejoin="round" stroke-opacity="1" stroke-width="1" d="M 12,5.5584992 L 17.454448,20.5 L 6.5455496,20.5 L 12,5.5584992 z" opacity=".2"/></svg>