<svg xmlns="http://www.w3.org/2000/svg" xmlns:svg="http://www.w3.org/2000/svg" xmlns:xlink="http://www.w3.org/1999/xlink" id="svg3172" width="18" height="24" version="1.0"><metadata id="metadata10"/><defs id="defs3174"><linearGradient id="linearGradient3587-6-5-3"><stop id="stop3589-9-2-2" offset="0" stop-color="#000" stop-opacity="1"/><stop id="stop3591-7-4-73" offset="1" stop-color="#363636" stop-opacity="1"/></linearGradient><linearGradient id="linearGradient3776" x1="9.443" x2="9.443" y1="3.968" y2="18.105" gradientTransform="translate(-2.0000003,1)" gradientUnits="userSpaceOnUse" xlink:href="#linearGradient3587-6-5-3"/></defs><path id="path2396-7" fill="#fff" fill-opacity="1" fill-rule="nonzero" stroke="none" stroke-width="3" d="M 8.9999997,6 C 5.1360001,6 2,9.1360005 2,13 2,16.864 5.1359999,19.999999 8.9999997,20 12.864,20 16,16.864 16,13 16,9.1360001 12.864,6.0000002 8.9999997,6 z M 12,8 14,10 8.4999997,17.5 4.5,14 6.5,12 8.4999997,14 12,8 z" display="inline" enable-background="accumulate" opacity=".6" overflow="visible" visibility="visible" style="marker:none"/><path id="path2396" fill="url(#linearGradient3776)" fill-opacity="1" fill-rule="nonzero" stroke="none" stroke-width="3" d="M 8.9999997,4.9991931 C 5.1360001,4.9991931 2,8.1351936 2,11.999193 c 0,3.864 3.1359999,6.999999 6.9999997,7 3.8640003,0 7.0000003,-3.136 7.0000003,-7 C 16,8.1351932 12.864,4.9991933 8.9999997,4.9991931 z m 3.0000003,2 2,2 -5.5000003,7.4999999 -3.9999997,-3.5 2,-2 1.9999997,2 L 12,6.9991931 z" display="inline" enable-background="accumulate" opacity=".7" overflow="visible" visibility="visible" style="marker:none"/><path id="path3170" fill="none" stroke="#fff" stroke-dasharray="none" stroke-linecap="butt" stroke-linejoin="miter" stroke-miterlimit="4" stroke-opacity="1" stroke-width=".5" d="M 4.8544493,12.999193 6.5,11.353642 8.5545307,13.408173 12.054531,7.4081731 13.672816,9.0264584 8.4727347,16.144744 4.8544493,12.999193 z" opacity=".3"/></svg>