<svg xmlns="http://www.w3.org/2000/svg" xmlns:svg="http://www.w3.org/2000/svg" xmlns:xlink="http://www.w3.org/1999/xlink" id="svg3167" width="22" height="24" version="1.0"><metadata id="metadata20"/><defs id="defs3169"><linearGradient id="linearGradient3587-6-5-3"><stop id="stop3589-9-2-0" offset="0" stop-color="#000" stop-opacity="1"/><stop id="stop3591-7-4-7" offset="1" stop-color="#363636" stop-opacity="1"/></linearGradient><linearGradient id="linearGradient3587-8-5-3-2"><stop id="stop3589-2-7-0-1" offset="0" stop-color="#000" stop-opacity="1"/><stop id="stop3591-3-5-2-8" offset="1" stop-color="#363636" stop-opacity="1"/></linearGradient><linearGradient id="linearGradient2395" x1="66.097" x2="66.097" y1="9.364" y2="27.364" gradientTransform="translate(-52.096803,-6.363826)" gradientUnits="userSpaceOnUse" xlink:href="#linearGradient3587-8-5-3-2"/><linearGradient id="linearGradient2398" x1="14" x2="14" y1="3" y2="21" gradientTransform="translate(-1.0001235,0)" gradientUnits="userSpaceOnUse" xlink:href="#linearGradient3587-6-5-3"/><linearGradient id="linearGradient2393" x1="66.097" x2="66.097" y1="9.364" y2="27.364" gradientTransform="translate(-51.09668,-6.363826)" gradientUnits="userSpaceOnUse" xlink:href="#linearGradient3587-8-5-3-2"/></defs><path id="path2412" fill="none" stroke="#fff" stroke-dasharray="none" stroke-dashoffset="0" stroke-linecap="butt" stroke-linejoin="miter" stroke-miterlimit="4" stroke-opacity="1" stroke-width="1.624" d="m 8.0435287,16.541611 c 0,0 0.562205,-0.852868 2.8734893,-0.879246 2.365793,-0.027 3.20342,1.042882 3.20342,1.042882" display="inline" enable-background="accumulate" opacity=".6" overflow="visible" visibility="visible" style="marker:none"/><path id="path3375-2" fill="#fff" fill-opacity="1" fill-rule="evenodd" stroke="none" d="M 12.971363,19.223407 C 12.884814,19.304188 10.974534,21.5 10.974534,21.5 c 0,0 -1.8920905,-2.214367 -1.9630805,-2.276593 0.126866,-0.103143 0.644662,-0.508757 1.9672055,-0.502973 1.301354,0.0057 1.893585,0.402995 1.992704,0.502973 l 0,0 z" opacity=".6" overflow="visible"/><path id="path3375" fill="url(#linearGradient2398)" fill-opacity="1" fill-rule="evenodd" stroke="none" d="M 13.146798,17.709046 C 13.052548,17.790336 10.972279,20 10.972279,20 c 0,0 -2.060461,-2.228336 -2.1377682,-2.290954 0.1381547,-0.103794 0.7020277,-0.511967 2.1422602,-0.506146 1.417157,0.0057 2.062088,0.405537 2.170027,0.506146 l 0,0 z" opacity=".7" overflow="visible"/><path id="path2406" fill="none" stroke="url(#linearGradient2395)" stroke-dasharray="none" stroke-dashoffset="0" stroke-linecap="butt" stroke-linejoin="miter" stroke-miterlimit="4" stroke-opacity="1" stroke-width="1.7" d="m 6.7706663,15.449448 c 0,0 1.0185042,-1.291002 4.1389787,-1.323908 3.081571,-0.0325 4.260671,1.323908 4.260671,1.323908" display="inline" enable-background="accumulate" opacity=".7" overflow="visible" visibility="visible" style="marker:none"/><g id="g2416" opacity=".4" transform="translate(-1.0001235,0)"><path id="path2410" fill="none" stroke="#fff" stroke-dasharray="none" stroke-dashoffset="0" stroke-linecap="butt" stroke-linejoin="miter" stroke-miterlimit="4" stroke-opacity="1" stroke-width="1.624" d="m 6.2785352,13.563637 c 0,0 1.9182713,-1.960491 5.7037188,-1.885192 3.785448,0.0753 5.703718,1.978399 5.703718,1.978399 M 3.4363636,10.563637 c 0,0 2.5903476,-2.9927524 8.5458904,-2.9927524 5.955544,0 8.581383,2.9786954 8.581383,2.9786954" display="inline" enable-background="accumulate" opacity=".6" overflow="visible" visibility="visible" style="marker:none"/><path id="path2404" fill="none" stroke="url(#linearGradient2393)" stroke-dasharray="none" stroke-dashoffset="0" stroke-linecap="butt" stroke-linejoin="miter" stroke-miterlimit="4" stroke-opacity="1" stroke-width="1.7" d="m 5.0566111,12.452688 c 0,0 2.2353716,-2.422385 6.9240639,-2.3362 4.727583,0.0869 6.924062,2.375106 6.924062,2.375106 M 2.1991235,9.4137962 c 0,0 3.1038827,-3.4307802 9.7815515,-3.4307802 6.644841,0 9.820203,3.4366024 9.820203,3.4366024" display="inline" enable-background="accumulate" opacity=".8" overflow="visible" visibility="visible" style="marker:none"/></g></svg>