<svg xmlns="http://www.w3.org/2000/svg" xmlns:svg="http://www.w3.org/2000/svg" xmlns:xlink="http://www.w3.org/1999/xlink" id="svg2907" width="16" height="16" version="1.1"><metadata id="metadata39"/><defs id="defs2909"><linearGradient id="linearGradient3054"><stop id="stop3056" offset="0" stop-color="#fff" stop-opacity="1"/><stop id="stop3058" offset=".295" stop-color="#fff" stop-opacity="1"/><stop id="stop3060" offset=".434" stop-color="#fff" stop-opacity=".69"/><stop id="stop3062" offset="1" stop-color="#fff" stop-opacity="0"/></linearGradient><linearGradient id="linearGradient3032"><stop id="stop3034" offset="0" stop-color="#dac197" stop-opacity="1"/><stop id="stop3036" offset=".284" stop-color="#c1a581" stop-opacity="1"/><stop id="stop3038" offset=".36" stop-color="#dbc298" stop-opacity="1"/><stop id="stop3040" offset="1" stop-color="#a68b60" stop-opacity="1"/></linearGradient><linearGradient id="linearGradient3022"><stop id="stop3024" offset="0" stop-color="#c9af8b" stop-opacity="1"/><stop id="stop3026" offset=".28" stop-color="#ad8757" stop-opacity="1"/><stop id="stop3028" offset=".357" stop-color="#c2a57f" stop-opacity="1"/><stop id="stop3030" offset="1" stop-color="#9d7d53" stop-opacity="1"/></linearGradient><linearGradient id="linearGradient3275"><stop id="stop3277" offset="0" stop-color="#fff" stop-opacity="0"/><stop id="stop3283" offset=".245" stop-color="#fff" stop-opacity="1"/><stop id="stop3285" offset=".774" stop-color="#fff" stop-opacity="1"/><stop id="stop3279" offset="1" stop-color="#fff" stop-opacity="0"/></linearGradient><linearGradient id="linearGradient4559"><stop id="stop4561" offset="0" stop-color="#fff" stop-opacity="0"/><stop id="stop4563" offset="1" stop-color="#fff" stop-opacity="0"/></linearGradient><linearGradient id="linearGradient3009" x1="44.995" x2="3.005" y1="17.5" y2="17.5" gradientTransform="matrix(0.36595005,0,0,0.36097048,-0.7828015,-0.81698)" gradientUnits="userSpaceOnUse" spreadMethod="reflect" xlink:href="#linearGradient3275"/><linearGradient id="linearGradient3015" x1="23.452" x2="43.007" y1="30.555" y2="45.934" gradientTransform="matrix(0.46923034,0,0,0.4240274,-3.0041886,-3.4756141)" gradientUnits="userSpaceOnUse" xlink:href="#linearGradient4559"/><linearGradient id="linearGradient3018" x1="24.823" x2="24.997" y1="15.378" y2="37.277" gradientTransform="matrix(0.46923034,0,0,0.56212557,-3.0041886,-7.0808391)" gradientUnits="userSpaceOnUse" xlink:href="#linearGradient3032"/><linearGradient id="linearGradient3020" x1="15.464" x2="15.464" y1="7.976" y2="45.042" gradientTransform="matrix(0.36595005,0,0,0.36097048,-0.7828015,-1.5613271)" gradientUnits="userSpaceOnUse" xlink:href="#linearGradient3022"/><linearGradient id="linearGradient3052" x1="26" x2="26" y1="22" y2="8" gradientTransform="matrix(0.49999973,0,0,0.49999987,-3.999993,-2.9999993)" gradientUnits="userSpaceOnUse" xlink:href="#linearGradient3054"/><linearGradient id="linearGradient3242-7"><stop id="stop3244-5" offset="0" stop-color="#eef87e" stop-opacity="1"/><stop id="stop3246-9" offset=".262" stop-color="#cde34f" stop-opacity="1"/><stop id="stop3248-7" offset=".661" stop-color="#93b723" stop-opacity="1"/><stop id="stop3250-8" offset="1" stop-color="#5a7e0d" stop-opacity="1"/></linearGradient><linearGradient id="linearGradient2490-3"><stop id="stop2492-3" offset="0" stop-color="#365f0e" stop-opacity="1"/><stop id="stop2494-8" offset="1" stop-color="#84a718" stop-opacity="1"/></linearGradient><radialGradient id="radialGradient3088" cx="69.448" cy="51.695" r="31" fx="69.448" fy="51.695" gradientTransform="matrix(0,0.25030935,-0.27259303,0,25.244726,-8.076711)" gradientUnits="userSpaceOnUse" xlink:href="#linearGradient3242-7"/><linearGradient id="linearGradient3090" x1="72.422" x2="72.422" y1="124.756" y2="51.244" gradientTransform="matrix(0.10408428,0,0,0.10482496,2.8405826,2.7754018)" gradientUnits="userSpaceOnUse" xlink:href="#linearGradient2490-3"/></defs><g id="layer1"><path id="path2488" fill="url(#linearGradient3018)" fill-opacity="1" fill-rule="nonzero" stroke="url(#linearGradient3020)" stroke-dasharray="none" stroke-dashoffset="0" stroke-linecap="round" stroke-linejoin="miter" stroke-miterlimit="4" stroke-opacity="1" stroke-width=".994" d="m 2.5146738,1.5069219 10.7946932,0 c 0.63016,0 0.913749,-0.103437 1.094759,0.360971 L 15.502611,5.5 l 0,8.523181 c 0,0.560696 0.03767,0.475028 -0.592497,0.475028 l -13.8202288,0 c -0.6301632,0 -0.5924964,0.08566 -0.5924964,-0.475028 l 0,-8.523181 1.098485,-3.6321071 c 0.1759604,-0.455026 0.2886367,-0.360971 0.9188,-0.360971 z" display="block" overflow="visible" visibility="visible" style="marker:none"/><path id="path2490" fill="none" stroke="url(#linearGradient3015)" stroke-dasharray="none" stroke-dashoffset="0" stroke-linecap="butt" stroke-linejoin="miter" stroke-miterlimit="4" stroke-opacity="1" stroke-width=".742" d="m 2.8577405,1.8725639 10.1195695,0 c 0.590751,0 0.956367,0.200895 1.203801,0.752996 l 0.852275,2.317329 0,8.3545021 c 0,0.527261 -0.299624,0.792722 -0.890376,0.792722 l -12.3446678,0 c -0.5907508,0 -0.8317226,-0.291963 -0.8317226,-0.819224 l 0,-8.3280001 0.8247823,-2.367013 c 0.1649564,-0.427891 0.4755865,-0.703312 1.0663386,-0.703312 z" display="block" opacity=".505" overflow="visible" visibility="visible" style="marker:none"/><path id="rect3326" fill="url(#linearGradient3052)" fill-opacity="1" fill-rule="nonzero" stroke="none" stroke-width="1" d="M 7,1 C 7.666667,1 8.333333,1 9,1 9,3.3333343 9,5.6666671 9,8 8.333333,8 7.666667,8 7,8 7,5.6666671 7,3.3333343 7,1 z" display="inline" enable-background="accumulate" opacity=".4" overflow="visible" visibility="visible" style="marker:none"/><path id="path3273" fill="none" stroke="url(#linearGradient3009)" stroke-linecap="square" stroke-linejoin="miter" stroke-opacity="1" stroke-width="1" d="m 0.4999356,5.5 15.0001274,0" display="inline" opacity=".4"/></g><path id="path2262" fill="url(#radialGradient3088)" fill-opacity="1" fill-rule="nonzero" stroke="url(#linearGradient3090)" stroke-dasharray="none" stroke-dashoffset="0" stroke-linecap="round" stroke-linejoin="round" stroke-miterlimit="4" stroke-opacity="1" stroke-width=".985" d="m 10.5,10.5 0,-2.0072863 3,0 0,2.0072863 2.007286,0 0,3 -2.007286,0 0,2.007286 -3,0 0,-2.007286 -2.0072863,0 0,-3 2.0072863,0 z" color="#000" display="inline" enable-background="accumulate" overflow="visible" visibility="visible" style="marker:none"/></svg>