<svg xmlns="http://www.w3.org/2000/svg" xmlns:svg="http://www.w3.org/2000/svg" xmlns:xlink="http://www.w3.org/1999/xlink" id="svg2486" width="16" height="16" version="1.0"><defs id="defs2488"><linearGradient id="linearGradient2490"><stop id="stop2492" offset="0" stop-color="#791235" stop-opacity="1"/><stop id="stop2494" offset="1" stop-color="#dd3b27" stop-opacity="1"/></linearGradient><linearGradient id="linearGradient2484" x1="18.379" x2="18.379" y1="44.98" y2="3.082" gradientTransform="matrix(0.3685738,0,0,0.3685738,-0.84577,-0.8457701)" gradientUnits="userSpaceOnUse" xlink:href="#linearGradient2490"/><linearGradient id="linearGradient3242"><stop id="stop3244" offset="0" stop-color="#f8b17e" stop-opacity="1"/><stop id="stop3246" offset=".262" stop-color="#e35d4f" stop-opacity="1"/><stop id="stop3248" offset=".661" stop-color="#c6262e" stop-opacity="1"/><stop id="stop3250" offset="1" stop-color="#690b54" stop-opacity="1"/></linearGradient><radialGradient id="radialGradient2482" cx="23.896" cy="3.99" r="20.397" fx="23.896" fy="3.99" gradientTransform="matrix(0,0.8796593,-1.1611346,0,12.632931,-21.08413)" gradientUnits="userSpaceOnUse" xlink:href="#linearGradient3242"/><linearGradient id="linearGradient4873"><stop id="stop4875" offset="0" stop-color="#fff" stop-opacity="1"/><stop id="stop4877" offset="1" stop-color="#fff" stop-opacity="0"/></linearGradient><linearGradient id="linearGradient2479" x1="63.397" x2="63.397" y1="-12.489" y2="5.468" gradientTransform="matrix(0.7432394,0,0,0.7432224,-38.229789,10.609333)" gradientUnits="userSpaceOnUse" xlink:href="#linearGradient4873"/><linearGradient id="linearGradient2432" x1="7.832" x2="18.678" y1="10.936" y2="10.936" gradientTransform="scale(0.9325827,1.0722909)" gradientUnits="userSpaceOnUse"><stop id="stop2434" offset="0" stop-color="#fff" stop-opacity="1"/><stop id="stop2436" offset="1" stop-color="#fff" stop-opacity="0"/></linearGradient><linearGradient id="linearGradient2476" x1="7.832" x2="18.678" y1="10.936" y2="10.936" gradientTransform="matrix(0.6660814,0,0,0.7658657,-0.570797,-0.5707967)" gradientUnits="userSpaceOnUse" xlink:href="#linearGradient2432"/></defs><g id="layer1"><path id="path2555" fill="url(#radialGradient2482)" fill-opacity="1" stroke="url(#linearGradient2484)" stroke-dasharray="none" stroke-dashoffset="0" stroke-linecap="round" stroke-linejoin="round" stroke-miterlimit="4" stroke-opacity="1" stroke-width="1.004" d="m 8.0000011,0.50182787 c -4.1372321,0 -7.4981741,3.36093913 -7.4981741,7.49817173 0,4.1372334 3.360942,7.4981754 7.4981741,7.4981724 4.1372309,0 7.4981759,-3.360939 7.4981719,-7.4981724 0,-4.1372326 -3.360941,-7.49817173 -7.4981719,-7.49817173 z m 0,2.40724743 c 2.8127609,0 5.0909249,2.278165 5.0909249,5.0909243 0,1.180493 -0.409021,2.2580884 -1.082687,3.1213594 L 5.558201,3.5310432 C 6.28288,3.1345282 7.115286,2.9090753 8.0000011,2.9090753 z M 3.922653,4.9592664 10.349659,12.515029 c -0.7029369,0.366219 -1.5018289,0.575897 -2.3496579,0.575897 -2.8127601,0 -5.0909251,-2.278166 -5.0909251,-5.0909264 0,-1.1426829 0.378507,-2.1914086 1.013577,-3.0407332 z"/><path id="path2463" fill="none" stroke="url(#linearGradient2479)" stroke-dasharray="none" stroke-miterlimit="4" stroke-opacity="1" stroke-width="1" d="M 14.500001,7.9997709 C 14.500001,11.589737 11.589636,14.5 8.0000818,14.5 4.4101984,14.5 1.5000001,11.589705 1.5000001,7.9997709 c 0,-3.5898006 2.9101983,-6.4997695 6.5000817,-6.4997695 3.5895542,0 6.4999192,2.9099689 6.4999192,6.4997695 l 0,0 z" opacity=".4"/><path id="path3270" fill="none" stroke="url(#linearGradient2476)" stroke-linecap="round" stroke-linejoin="miter" stroke-opacity="1" stroke-width="1" d="M 4.8517868,4.2102172 11.235855,11.701806" opacity=".4"/></g><path id="path13696" fill="#7da5ca" fill-opacity="1" stroke="#356ca0" stroke-dasharray="none" stroke-linecap="butt" stroke-linejoin="miter" stroke-miterlimit="4" stroke-opacity="1" stroke-width="1" d="m 15.563544,2.2734639 -3.328133,2.2534922 3.295817,-0.023234 0.03232,1.960278 -6.9712321,0 0,-1.733879 3.4073321,-2.2698062 -3.4396481,0 0,-1.98401328 6.9865041,0 0.01704,1.79716228 z" font-family="Segoe" font-size="10" font-stretch="normal" font-style="normal" font-variant="normal" font-weight="normal" text-anchor="start" writing-mode="lr-tb" style="line-height:100%"/></svg>