<svg xmlns="http://www.w3.org/2000/svg" xmlns:svg="http://www.w3.org/2000/svg" xmlns:xlink="http://www.w3.org/1999/xlink" id="svg2403" width="16" height="16" version="1.0"><defs id="defs2405"><linearGradient id="linearGradient259-942"><stop id="stop3802" offset="0" stop-color="#fff" stop-opacity="1"/><stop id="stop3804" offset="1" stop-color="#e0e0e0" stop-opacity="1"/></linearGradient><linearGradient id="linearGradient2401" x1="108.265" x2="25.818" y1="110.281" y2="14.029" gradientTransform="matrix(0.1688795,0,0,0.1268359,-19.447473,-16.155807)" gradientUnits="userSpaceOnUse" xlink:href="#linearGradient259-942"/><linearGradient id="linearGradient3610-302"><stop id="stop3796" offset="0" stop-color="#333" stop-opacity="1"/><stop id="stop3798" offset="1" stop-color="#292929" stop-opacity="1"/></linearGradient><linearGradient id="linearGradient2398" x1="-24.032" x2="-24.098" y1="-13.091" y2="-40.164" gradientTransform="matrix(0.314286,0,0,0.3333332,-0.4548608,0.9981846)" gradientUnits="userSpaceOnUse" xlink:href="#linearGradient3610-302"/><linearGradient id="linearGradient4157-401-351"><stop id="stop3790" offset="0" stop-color="#262626" stop-opacity="1"/><stop id="stop3792" offset="1" stop-color="#828282" stop-opacity="1"/></linearGradient><linearGradient id="linearGradient2396" x1="28.938" x2="105.365" y1="17.333" y2="92.824" gradientTransform="matrix(0.138442,0,0,0.1141004,-17.408582,-14.556432)" gradientUnits="userSpaceOnUse" xlink:href="#linearGradient4157-401-351"/><linearGradient id="linearGradient2476" x1="7.832" x2="18.678" y1="10.936" y2="10.936" gradientTransform="matrix(0.6660814,0,0,0.7658657,-0.570797,-0.5707967)" gradientUnits="userSpaceOnUse" xlink:href="#linearGradient2432"/><linearGradient id="linearGradient2432" x1="7.832" x2="18.678" y1="10.936" y2="10.936" gradientTransform="scale(0.9325827,1.0722909)" gradientUnits="userSpaceOnUse"><stop id="stop2434" offset="0" stop-color="#fff" stop-opacity="1"/><stop id="stop2436" offset="1" stop-color="#fff" stop-opacity="0"/></linearGradient><linearGradient id="linearGradient2479" x1="63.397" x2="63.397" y1="-12.489" y2="5.468" gradientTransform="matrix(0.7432394,0,0,0.7432224,-38.229789,10.609333)" gradientUnits="userSpaceOnUse" xlink:href="#linearGradient4873"/><linearGradient id="linearGradient4873"><stop id="stop4875" offset="0" stop-color="#fff" stop-opacity="1"/><stop id="stop4877" offset="1" stop-color="#fff" stop-opacity="0"/></linearGradient><radialGradient id="radialGradient2482" cx="23.896" cy="3.99" r="20.397" fx="23.896" fy="3.99" gradientTransform="matrix(0,0.8796593,-1.1611346,0,12.632931,-21.08413)" gradientUnits="userSpaceOnUse" xlink:href="#linearGradient3242"/><linearGradient id="linearGradient3242"><stop id="stop3244" offset="0" stop-color="#f8b17e" stop-opacity="1"/><stop id="stop3246" offset=".262" stop-color="#e35d4f" stop-opacity="1"/><stop id="stop3248" offset=".661" stop-color="#c6262e" stop-opacity="1"/><stop id="stop3250" offset="1" stop-color="#690b54" stop-opacity="1"/></linearGradient><linearGradient id="linearGradient2484" x1="18.379" x2="18.379" y1="44.98" y2="3.082" gradientTransform="matrix(0.3685738,0,0,0.3685738,-0.84577,-0.8457701)" gradientUnits="userSpaceOnUse" xlink:href="#linearGradient2490"/><linearGradient id="linearGradient2490"><stop id="stop2492" offset="0" stop-color="#791235" stop-opacity="1"/><stop id="stop2494" offset="1" stop-color="#dd3b27" stop-opacity="1"/></linearGradient></defs><g id="layer1"><rect id="rect3580" width="14.989" height="12.971" x="-15.487" y="-14.501" fill="url(#linearGradient2401)" fill-opacity="1" stroke="#b3b3b3" stroke-dasharray="none" stroke-linecap="round" stroke-linejoin="miter" stroke-miterlimit="4" stroke-opacity=".969" stroke-width="1" transform="matrix(-0.9999982,1.8775364e-3,-8.8666999e-4,-0.9999996,0,0)"/><rect id="rect3582" width="10.98" height="8.956" x="-13.508" y="-12.51" fill="url(#linearGradient2396)" fill-opacity="1" stroke="url(#linearGradient2398)" stroke-dasharray="none" stroke-linecap="round" stroke-linejoin="miter" stroke-miterlimit="4" stroke-opacity="1" stroke-width="1" rx="0" ry="0" transform="matrix(-0.999992,3.9941953e-3,2.2948975e-3,-0.9999974,0,0)"/></g><g id="g2561" transform="matrix(0.5999136,0,0,0.5999136,3.2006912,3.2006912)"><path id="path2555" fill="url(#radialGradient2482)" fill-opacity="1" stroke="url(#linearGradient2484)" stroke-dasharray="none" stroke-dashoffset="0" stroke-linecap="round" stroke-linejoin="round" stroke-miterlimit="4" stroke-opacity="1" stroke-width="1.673" d="M 8.0000011,0.50182787 C 3.862769,0.50182787 0.501827,3.862767 0.501827,7.9999996 C 0.501827,12.137233 3.862769,15.498175 8.0000011,15.498172 C 12.137232,15.498172 15.498177,12.137233 15.498173,7.9999996 C 15.498173,3.862767 12.137232,0.50182787 8.0000011,0.50182787 z M 8.0000011,2.9090753 C 10.812762,2.9090753 13.090926,5.1872403 13.090926,7.9999996 C 13.090926,9.1804926 12.681905,10.258088 12.008239,11.121359 L 5.558201,3.5310432 C 6.28288,3.1345282 7.115286,2.9090753 8.0000011,2.9090753 z M 3.922653,4.9592664 L 10.349659,12.515029 C 9.6467221,12.881248 8.8478301,13.090926 8.0000011,13.090926 C 5.187241,13.090926 2.909076,10.81276 2.909076,7.9999996 C 2.909076,6.8573167 3.287583,5.808591 3.922653,4.9592664 z"/><path id="path2463" fill="none" fill-opacity="1" fill-rule="nonzero" stroke="url(#linearGradient2479)" stroke-dasharray="none" stroke-miterlimit="4" stroke-opacity="1" stroke-width="1.667" d="M 14.500001,7.9997709 C 14.500001,11.589737 11.589636,14.5 8.0000818,14.5 C 4.4101984,14.5 1.5000001,11.589705 1.5000001,7.9997709 C 1.5000001,4.4099703 4.4101984,1.5000014 8.0000818,1.5000014 C 11.589636,1.5000014 14.500001,4.4099703 14.500001,7.9997709 L 14.500001,7.9997709 z" opacity=".4"/><path id="path3270" fill="none" fill-rule="evenodd" stroke="url(#linearGradient2476)" stroke-linecap="round" stroke-linejoin="miter" stroke-opacity="1" stroke-width="1.667" d="M 4.8517868,4.2102172 L 11.235855,11.701806" opacity=".4"/></g></svg>