<svg xmlns="http://www.w3.org/2000/svg" xmlns:svg="http://www.w3.org/2000/svg" xmlns:xlink="http://www.w3.org/1999/xlink" id="svg3802" width="16" height="16" version="1.1"><defs id="defs3804"><linearGradient id="linearGradient3762" x1="41.279" x2="16.42" y1="12.959" y2="12.959" gradientTransform="matrix(0,-0.4201726,-0.45441474,0,17.13175,18.755617)" gradientUnits="userSpaceOnUse" xlink:href="#linearGradient2187"/><linearGradient id="linearGradient2187"><stop id="stop2189" offset="0" stop-color="#fff" stop-opacity="1"/><stop id="stop3190" offset=".883" stop-color="#fff" stop-opacity=".678"/><stop id="stop2191" offset="1" stop-color="#fff" stop-opacity="0"/></linearGradient><linearGradient id="linearGradient3437"><stop id="stop3439" offset="0" stop-color="#be93db" stop-opacity="1"/><stop id="stop3443" offset="1" stop-color="#dcb6f6" stop-opacity="1"/></linearGradient><linearGradient id="linearGradient3429"><stop id="stop3431" offset="0" stop-color="#9853c6" stop-opacity="1"/><stop id="stop3435" offset="1" stop-color="#7d38aa" stop-opacity="1"/></linearGradient><linearGradient id="linearGradient3798" x1="24.255" x2="24.255" y1="24.935" y2="4.21" gradientTransform="matrix(-0.38775029,0,0,0.35853168,17.823031,-0.64134459)" gradientUnits="userSpaceOnUse" xlink:href="#linearGradient3437"/><linearGradient id="linearGradient3800" x1="35.998" x2="35.998" y1="1.777" y2="42.718" gradientTransform="matrix(-0.38775029,0,0,0.35853168,17.823031,-0.64134459)" gradientUnits="userSpaceOnUse" xlink:href="#linearGradient3429"/></defs><g id="layer1"><path id="path3701" fill="url(#linearGradient3798)" fill-opacity="1" fill-rule="nonzero" stroke="url(#linearGradient3800)" stroke-dasharray="none" stroke-dashoffset="0" stroke-linecap="butt" stroke-linejoin="round" stroke-miterlimit="7" stroke-opacity="1" stroke-width=".964" d="m 10.391943,14.371316 c 0.64816,-0.279788 1.213161,-0.60174 1.699694,-0.955533 C 16.830469,9.9698421 14.314099,3.5032991 8.5,3.5560011 L 8.5,0.48196241 1.5,5.5000001 8.5,10.5 c 0,0 0,-2.9999999 0,-2.9999999 3.766359,-0.145108 5.325256,3.8720329 2.077991,6.1796209 -0.280459,0.199301 -0.5981767,0.388532 -0.9550719,0.564375 0,0 -5.8765171,2.568106 0.7690239,0.12732 z" display="block" overflow="visible" visibility="visible" style="marker:none"/><path id="path3703" fill="none" stroke="url(#linearGradient3762)" stroke-dasharray="none" stroke-dashoffset="0" stroke-linecap="butt" stroke-linejoin="miter" stroke-miterlimit="7" stroke-opacity="1" stroke-width=".964" d="M 12.744319,11.83425 C 14.19179,9.6328461 14.156851,3.8002461 7.5,4.5510641 l 0,-2.225226 c 0,0 -4.3198331,3.177236 -4.3198331,3.177236 L 7.5,8.5904941 c 0,0 0,-2.106159 0,-2.106159 5.578654,-0.563623 6.710488,4.6619059 5.244319,5.3499149 z" display="block" opacity=".4" overflow="visible" visibility="visible" style="marker:none"/></g></svg>