<svg xmlns="http://www.w3.org/2000/svg" xmlns:svg="http://www.w3.org/2000/svg" xmlns:xlink="http://www.w3.org/1999/xlink" id="svg2941" width="16" height="16" version="1.1"><defs id="defs2943"><linearGradient id="linearGradient3762" x1="41.279" x2="16.42" y1="12.959" y2="12.959" gradientTransform="matrix(0,-0.4201726,0.45441474,0,-1.0582564,18.755617)" gradientUnits="userSpaceOnUse" xlink:href="#linearGradient2187"/><linearGradient id="linearGradient2187"><stop id="stop2189" offset="0" stop-color="#fff" stop-opacity="1"/><stop id="stop3190" offset=".883" stop-color="#fff" stop-opacity=".678"/><stop id="stop2191" offset="1" stop-color="#fff" stop-opacity="0"/></linearGradient><linearGradient id="linearGradient5198"><stop id="stop5200" offset="0" stop-color="#7ea8ce" stop-opacity="1"/><stop id="stop5202" offset="1" stop-color="#568dc0" stop-opacity="1"/></linearGradient><linearGradient id="linearGradient5189"><stop id="stop5191" offset="0" stop-color="#2c79c0" stop-opacity="1"/><stop id="stop5195" offset="1" stop-color="#236098" stop-opacity="1"/></linearGradient><linearGradient id="linearGradient2937" x1="24.255" x2="24.255" y1="24.935" y2="4.21" gradientTransform="matrix(0.38775029,0,0,0.35853168,-1.7495374,-0.64134459)" gradientUnits="userSpaceOnUse" xlink:href="#linearGradient5198"/><linearGradient id="linearGradient2939" x1="35.998" x2="35.998" y1="1.777" y2="42.718" gradientTransform="matrix(0.38775029,0,0,0.35853168,-1.7495374,-0.64134459)" gradientUnits="userSpaceOnUse" xlink:href="#linearGradient5189"/></defs><metadata id="metadata2946"/><g id="layer1"><path id="path3701" fill="url(#linearGradient2937)" fill-opacity="1" fill-rule="nonzero" stroke="url(#linearGradient2939)" stroke-dasharray="none" stroke-dashoffset="0" stroke-linecap="butt" stroke-linejoin="round" stroke-miterlimit="7" stroke-opacity="1" stroke-width=".964" d="m 5.6815506,14.371316 c -0.64816,-0.279788 -1.213161,-0.60174 -1.699694,-0.955533 -4.73883198,-3.4459409 -2.222462,-9.9124839 3.591637,-9.8597819 l 0,-3.07403869 L 14.573494,5.5000001 7.5734936,10.5 c 0,0 0,-2.9999999 0,-2.9999999 -3.766359,-0.145108 -5.325256,3.8720329 -2.077991,6.1796209 0.280459,0.199301 0.5981767,0.388532 0.9550719,0.564375 0,0 5.8765175,2.568106 -0.7690239,0.12732 z" display="block" overflow="visible" visibility="visible" style="marker:none"/><path stroke-opacity="1" style="marker:none" id="path3703" fill="none" stroke="url(#linearGradient3762)" stroke-dasharray="none" stroke-dashoffset="0" stroke-linecap="butt" stroke-linejoin="miter" stroke-miterlimit="7" stroke-width=".964" d="M 3.3291746,11.83425 C 1.8817036,9.6328461 1.9166426,3.8002461 8.5734936,4.5510641 l 0,-2.225226 c 0,0 4.3198334,3.177236 4.3198334,3.177236 l -4.3198334,3.08742 c 0,0 0,-2.106159 0,-2.106159 -5.578654,-0.563623 -6.710488,4.6619059 -5.244319,5.3499149 z" display="block" opacity=".4" overflow="visible" visibility="visible"/></g></svg>