<svg xmlns="http://www.w3.org/2000/svg" xmlns:svg="http://www.w3.org/2000/svg" xmlns:xlink="http://www.w3.org/1999/xlink" id="svg3979" width="16" height="16" version="1.1"><defs id="defs3981"><linearGradient id="linearGradient3945" x1="210.244" x2="210.244" y1="41.161" y2="28.209" gradientTransform="matrix(-0.4100229,0,0,0.5447147,95.555769,-7.2582748)" gradientUnits="userSpaceOnUse" xlink:href="#linearGradient2867-449-88-871-390-598-476-591-434-148-69"/><linearGradient id="linearGradient3943" x1="219.009" x2="219.119" y1="26.094" y2="16.913" gradientTransform="matrix(-0.4100229,0,0,0.5447147,95.555769,-7.2582748)" gradientUnits="userSpaceOnUse" xlink:href="#linearGradient2867-449-88-871-390-598-476-591-434-148-69"/><linearGradient id="linearGradient3024-5" x1="212.483" x2="212.703" y1="37.143" y2="13.488" gradientTransform="matrix(-0.4100229,0,0,0.5447147,95.555769,-7.2582748)" gradientUnits="userSpaceOnUse" xlink:href="#linearGradient2867-449-88-871-390-598-476-591-434-148-69"/><linearGradient id="linearGradient2867-449-88-871-390-598-476-591-434-148-69"><stop id="stop4629-22" offset="0" stop-color="#49a3d2" stop-opacity="1"/><stop id="stop4631-4" offset=".705" stop-color="#3470b4" stop-opacity="1"/><stop id="stop4633-7" offset="1" stop-color="#1b5699" stop-opacity="1"/></linearGradient></defs><metadata id="metadata3984"/><g id="layer1"><path id="path3826-1" fill="#fff" fill-opacity="1" fill-rule="nonzero" stroke="none" stroke-width="1" d="m 12,1 0,2 -2,0 -6,8 -4,0 0,3 4,0 6,-8 2,0 0,2 L 16,4.5 12,1 z M 0,3 0,6 4,6 5.21875,7.625 6.34375,6.125 4,3 0,3 z M 12,9.03125 12,11 10,11 8.78125,9.375 7.65625,10.875 10,14 l 2,0 0,2 4,-3.5 -3.96875,-3.46875 -0.03125,0 z" color="#000" display="inline" enable-background="accumulate" opacity=".6" overflow="visible" visibility="visible" style="marker:none"/><path id="path3941" fill="url(#linearGradient3024-5)" fill-opacity="1" fill-rule="nonzero" stroke="none" stroke-width="1" d="m 12,0 0,2 -2,0 -6,8 -4,0 0,3 4,0 6,-8 2,0 0,2 L 16,3.5 12,0 z" color="#000" display="inline" enable-background="accumulate" opacity="1" overflow="visible" visibility="visible" style="marker:none"/><path id="path3939" fill="url(#linearGradient3943)" fill-opacity="1" fill-rule="nonzero" stroke="none" stroke-width="1" d="m 0,2 0,3 4,0 1.21875,1.625 1.125,-1.5 L 4,2 0,2 z" color="#000" display="inline" enable-background="accumulate" opacity="1" overflow="visible" visibility="visible" style="marker:none"/><path id="path3826" fill="url(#linearGradient3945)" fill-opacity="1" fill-rule="nonzero" stroke="none" stroke-width="1" d="M 12,8.03125 12,10 10,10 8.78125,8.375 7.65625,9.875 10,13 l 2,0 0,2 4,-3.5 -3.96875,-3.46875 -0.03125,0 z" color="#000" display="inline" enable-background="accumulate" opacity="1" overflow="visible" visibility="visible" style="marker:none"/></g></svg>