<svg xmlns="http://www.w3.org/2000/svg" xmlns:svg="http://www.w3.org/2000/svg" xmlns:xlink="http://www.w3.org/1999/xlink" id="svg4039" width="16" height="16" version="1.1"><defs id="defs4041"><linearGradient id="linearGradient3196" x1="223.294" x2="223.294" y1="26.176" y2="13.325" gradientTransform="matrix(0.4100229,0,0,-0.5447147,-79.555769,22.258275)" gradientUnits="userSpaceOnUse" xlink:href="#linearGradient3587-6-5-3-0-6"/><linearGradient id="linearGradient3587-6-5-3-0-6"><stop id="stop3589-9-2-2-1-2" offset="0" stop-color="#000" stop-opacity="1"/><stop id="stop3591-7-4-73-4-5" offset="1" stop-color="#363636" stop-opacity="1"/></linearGradient><linearGradient id="linearGradient3194" x1="218.417" x2="218.417" y1="13.325" y2="26.176" gradientTransform="matrix(-0.4100229,0,0,0.5447147,95.555769,-7.2582748)" gradientUnits="userSpaceOnUse" xlink:href="#linearGradient3587-6-5-3-0"/><linearGradient id="linearGradient3587-6-5-3-0"><stop id="stop3589-9-2-2-1" offset="0" stop-color="#000" stop-opacity="1"/><stop id="stop3591-7-4-73-4" offset="1" stop-color="#363636" stop-opacity="1"/></linearGradient></defs><metadata id="metadata4044"/><g id="layer1"><g id="g3761" opacity=".5"><path id="path3941-3" fill="#fff" fill-opacity="1" fill-rule="nonzero" stroke="none" stroke-width="1" d="M 12,1 12,3 6,3 C 3.23,3 1,5.007 1,7.5 1,7.6667194 1.0118091,7.8380826 1.03125,8 L 4,8 C 4,6.892 4.892,6 6,6 L 12,6 12,8 16,4.5 12,1 z m -8,8 -4,3.5 4,3.5 0,-2 6,0 c 2.77,0 5,-2.007 5,-4.5 C 15,9.3332806 14.988191,9.1619174 14.96875,9 L 12,9 c 0,1.108 -0.892,2 -2,2 L 4,11 4,9 z" color="#000" display="inline" enable-background="accumulate" opacity=".6" overflow="visible" visibility="visible" style="marker:none"/><path id="path3941" fill="url(#linearGradient3194)" fill-opacity="1" fill-rule="nonzero" stroke="none" stroke-width="1" d="M 12,0 12,2 6,2 C 3.23,2 1,4.007 1,6.5 1,6.6667194 1.0118091,6.8380826 1.03125,7 L 4,7 C 4,5.892 4.892,5 6,5 l 6,0 0,2 4,-3.5 z" color="#000" display="inline" enable-background="accumulate" opacity=".7" overflow="visible" visibility="visible" style="marker:none"/><path id="path3941-8" fill="url(#linearGradient3196)" fill-opacity="1" fill-rule="nonzero" stroke="none" stroke-width="1" d="m 4,8 -4,3.5 4,3.5 0,-2 6,0 c 2.77,0 5,-2.007 5,-4.5 C 15,8.3332806 14.988191,8.1619174 14.96875,8 L 12,8 c 0,1.108 -0.892,2 -2,2 L 4,10 4,8 z" color="#000" display="inline" enable-background="accumulate" opacity=".7" overflow="visible" visibility="visible" style="marker:none"/></g></g></svg>