<svg xmlns="http://www.w3.org/2000/svg" xmlns:svg="http://www.w3.org/2000/svg" xmlns:xlink="http://www.w3.org/1999/xlink" id="svg3979" width="16" height="16" version="1.1"><defs id="defs3981"><linearGradient id="linearGradient3945" x1="201.344" x2="201.344" y1="28.011" y2="40.862" gradientTransform="matrix(-0.4100229,0,0,0.5447147,95.555769,-7.2582748)" gradientUnits="userSpaceOnUse" xlink:href="#linearGradient3587-6-5-3-0"/><linearGradient id="linearGradient3587-6-5-3-0"><stop id="stop3589-9-2-2-1" offset="0" stop-color="#000" stop-opacity="1"/><stop id="stop3591-7-4-73-4" offset="1" stop-color="#363636" stop-opacity="1"/></linearGradient><linearGradient id="linearGradient3943" x1="223.294" x2="223.294" y1="16.997" y2="26.176" gradientTransform="matrix(-0.4100229,0,0,0.5447147,95.555769,-7.2582748)" gradientUnits="userSpaceOnUse" xlink:href="#linearGradient3587-6-5-3-0"/><linearGradient id="linearGradient3024-5" x1="218.417" x2="218.417" y1="13.325" y2="40.862" gradientTransform="matrix(-0.4100229,0,0,0.5447147,95.555769,-7.2582748)" gradientUnits="userSpaceOnUse" xlink:href="#linearGradient3587-6-5-3-0"/></defs><metadata id="metadata3984"/><g id="layer1"><g id="g2992" opacity=".5"><path id="path3826-1" fill="#fff" fill-opacity="1" fill-rule="nonzero" stroke="none" stroke-width="1" d="m 12,1 0,2 -2,0 -6,8 -4,0 0,3 4,0 6,-8 2,0 0,2 L 16,4.5 12,1 z M 0,3 0,6 4,6 5.21875,7.625 6.34375,6.125 4,3 0,3 z M 12,9.03125 12,11 10,11 8.78125,9.375 7.65625,10.875 10,14 l 2,0 0,2 4,-3.5 -3.96875,-3.46875 -0.03125,0 z" color="#000" display="inline" enable-background="accumulate" opacity=".6" overflow="visible" visibility="visible" style="marker:none"/><path id="path3941" fill="url(#linearGradient3024-5)" fill-opacity="1" fill-rule="nonzero" stroke="none" stroke-width="1" d="m 12,0 0,2 -2,0 -6,8 -4,0 0,3 4,0 6,-8 2,0 0,2 L 16,3.5 12,0 z" color="#000" display="inline" enable-background="accumulate" opacity=".7" overflow="visible" visibility="visible" style="marker:none"/><path id="path3939" fill="url(#linearGradient3943)" fill-opacity="1" fill-rule="nonzero" stroke="none" stroke-width="1" d="m 0,2 0,3 4,0 1.21875,1.625 1.125,-1.5 L 4,2 0,2 z" color="#000" display="inline" enable-background="accumulate" opacity=".7" overflow="visible" visibility="visible" style="marker:none"/><path id="path3826" fill="url(#linearGradient3945)" fill-opacity="1" fill-rule="nonzero" stroke="none" stroke-width="1" d="M 12,8.03125 12,10 10,10 8.78125,8.375 7.65625,9.875 10,13 l 2,0 0,2 4,-3.5 -3.96875,-3.46875 -0.03125,0 z" color="#000" display="inline" enable-background="accumulate" opacity=".7" overflow="visible" visibility="visible" style="marker:none"/></g></g></svg>