<svg xmlns="http://www.w3.org/2000/svg" xmlns:svg="http://www.w3.org/2000/svg" xmlns:xlink="http://www.w3.org/1999/xlink" id="svg4027" width="16" height="16" version="1.1"><defs id="defs4029"><linearGradient id="linearGradient2832" x1="63.397" x2="63.397" y1="-12.489" y2="5.468" gradientTransform="matrix(0.51455032,0,0,0.51453856,-24.005236,9.8064595)" gradientUnits="userSpaceOnUse" xlink:href="#linearGradient4873"/><linearGradient id="linearGradient4873"><stop id="stop4875" offset="0" stop-color="#fff" stop-opacity="1"/><stop id="stop4877" offset="1" stop-color="#fff" stop-opacity="0"/></linearGradient><linearGradient id="linearGradient3242-6"><stop id="stop3244-3" offset="0" stop-color="#eef87e" stop-opacity="1"/><stop id="stop3246-9" offset=".262" stop-color="#cde34f" stop-opacity="1"/><stop id="stop3248-3" offset=".661" stop-color="#93b723" stop-opacity="1"/><stop id="stop3250-3" offset="1" stop-color="#5a7e0d" stop-opacity="1"/></linearGradient><linearGradient id="linearGradient2490-9"><stop id="stop2492-8" offset="0" stop-color="#365f0e" stop-opacity="1"/><stop id="stop2494-1" offset="1" stop-color="#84a718" stop-opacity="1"/></linearGradient><radialGradient id="radialGradient4023" cx="23.896" cy="3.99" r="20.397" fx="23.896" fy="3.99" gradientTransform="matrix(0,0.64524082,-0.85170617,0,11.39831,-13.333564)" gradientUnits="userSpaceOnUse" xlink:href="#linearGradient3242-6"/><linearGradient id="linearGradient4025" x1="18.379" x2="18.379" y1="44.98" y2="3.082" gradientTransform="matrix(0.2703533,0,0,0.27035337,1.5115215,1.5115197)" gradientUnits="userSpaceOnUse" xlink:href="#linearGradient2490-9"/></defs><g id="layer1" opacity=".4"><path id="path2555" fill="url(#radialGradient4023)" fill-opacity="1" stroke="url(#linearGradient4025)" stroke-dasharray="none" stroke-dashoffset="0" stroke-linecap="round" stroke-linejoin="round" stroke-miterlimit="4" stroke-opacity="1" stroke-width="1" d="M 8.0000007,2.5 C 4.9652912,2.5 2.5,4.9652892 2.5,8.0000002 2.5,11.034712 4.9652912,13.500003 8.0000007,13.5 11.034709,13.5 13.500003,11.034712 13.5,8.0000002 13.5,4.9652892 11.034709,2.5 8.0000007,2.5 z"/><path id="path2463" fill="none" stroke="url(#linearGradient2832)" stroke-dasharray="none" stroke-miterlimit="4" stroke-opacity="1" stroke-width="1" d="M 12.5,7.9998378 C 12.5,10.485198 10.485132,12.5 8.0000561,12.5 5.5147526,12.5 3.5,10.48518 3.5,7.9998378 3.5,5.5145945 5.5147526,3.5000005 8.0000561,3.5000005 10.485132,3.5000005 12.5,5.5145945 12.5,7.9998378 l 0,0 z" opacity=".4"/></g></svg>