<svg xmlns="http://www.w3.org/2000/svg" xmlns:svg="http://www.w3.org/2000/svg" xmlns:xlink="http://www.w3.org/1999/xlink" id="svg3963" width="16" height="16" version="1.1"><defs id="defs3965"><linearGradient id="linearGradient2832-300-858-303" x1="63.397" x2="63.397" y1="-12.489" y2="5.468" gradientTransform="matrix(0.51455032,0,0,0.51453856,-24.005236,9.8064595)" gradientUnits="userSpaceOnUse" xlink:href="#linearGradient4873-275-174-730"/><linearGradient id="linearGradient4873-275-174-730"><stop id="stop3091" offset="0" stop-color="#fff" stop-opacity="1"/><stop id="stop3093" offset="1" stop-color="#fff" stop-opacity="0"/></linearGradient><linearGradient id="linearGradient3242-141-111-307"><stop id="stop3075" offset="0" stop-color="#fff" stop-opacity="1"/><stop id="stop3079" offset="1" stop-color="#858585" stop-opacity="1"/></linearGradient><linearGradient id="linearGradient2490-322-551-880"><stop id="stop3085" offset="0" stop-color="#646464" stop-opacity="1"/><stop id="stop3087" offset="1" stop-color="#a0a0a0" stop-opacity="1"/></linearGradient><radialGradient id="radialGradient3959" cx="23.896" cy="3.99" r="20.397" fx="23.896" fy="3.99" gradientTransform="matrix(0,0.64524082,-0.85170617,0,11.39831,-13.333564)" gradientUnits="userSpaceOnUse" xlink:href="#linearGradient3242-141-111-307"/><linearGradient id="linearGradient3961" x1="18.379" x2="18.379" y1="44.98" y2="3.082" gradientTransform="matrix(0.2703533,0,0,0.27035337,1.5115215,1.5115197)" gradientUnits="userSpaceOnUse" xlink:href="#linearGradient2490-322-551-880"/></defs><g id="layer1"><path id="path2555" fill="url(#radialGradient3959)" fill-opacity="1" stroke="url(#linearGradient3961)" stroke-dasharray="none" stroke-dashoffset="0" stroke-linecap="round" stroke-linejoin="round" stroke-miterlimit="4" stroke-opacity="1" stroke-width="1" d="M 8.0000007,2.5 C 4.9652912,2.5 2.5,4.9652892 2.5,8.0000002 2.5,11.034712 4.9652912,13.500003 8.0000007,13.5 11.034709,13.5 13.500003,11.034712 13.5,8.0000002 13.5,4.9652892 11.034709,2.5 8.0000007,2.5 z"/><path id="path2463" fill="none" stroke="url(#linearGradient2832-300-858-303)" stroke-dasharray="none" stroke-miterlimit="4" stroke-opacity="1" stroke-width="1" d="M 12.5,7.9998378 C 12.5,10.485198 10.485132,12.5 8.0000561,12.5 5.5147526,12.5 3.5,10.48518 3.5,7.9998378 3.5,5.5145945 5.5147526,3.5000005 8.0000561,3.5000005 10.485132,3.5000005 12.5,5.5145945 12.5,7.9998378 l 0,0 z" opacity=".4"/></g></svg>