<svg xmlns="http://www.w3.org/2000/svg" xmlns:svg="http://www.w3.org/2000/svg" xmlns:xlink="http://www.w3.org/1999/xlink" id="svg3662" width="128" height="128" version="1.0"><defs id="defs3664"><linearGradient id="linearGradient10691-1"><stop id="stop10693-3" offset="0" stop-color="#000" stop-opacity="1"/><stop id="stop10695-1" offset="1" stop-color="#000" stop-opacity="0"/></linearGradient><radialGradient id="radialGradient3226" cx="6.703" cy="73.616" r="7.228" fx="6.703" fy="73.616" gradientTransform="matrix(5.2570306,0,0,1.1067431,28.763637,34.526312)" gradientUnits="userSpaceOnUse" xlink:href="#linearGradient10691-1"/><linearGradient id="linearGradient3924"><stop id="stop3926" offset="0" stop-color="#464646" stop-opacity="1"/><stop id="stop3928" offset=".101" stop-color="#787878" stop-opacity="1"/><stop id="stop3930" offset=".561" stop-color="#828282" stop-opacity="1"/><stop id="stop3932" offset=".645" stop-color="#828282" stop-opacity="1"/><stop id="stop3934" offset="1" stop-color="#646464" stop-opacity="1"/></linearGradient><linearGradient id="linearGradient3223" x1="61.969" x2="61.969" y1="35.054" y2="43.378" gradientTransform="matrix(2.6843014,0,0,2.5456046,-102.42668,7.7670696)" gradientUnits="userSpaceOnUse" xlink:href="#linearGradient3924"/><linearGradient id="linearGradient3912"><stop id="stop3914" offset="0" stop-color="#787878" stop-opacity="1"/><stop id="stop3916" offset=".35" stop-color="#b4b4b4" stop-opacity="1"/><stop id="stop3918" offset=".494" stop-color="#c8c8c8" stop-opacity="1"/><stop id="stop3920" offset=".589" stop-color="#e6e6e6" stop-opacity="1"/><stop id="stop3922" offset="1" stop-color="#8c8c8c" stop-opacity="1"/></linearGradient><linearGradient id="linearGradient3221" x1="361.106" x2="361.106" y1="87.05" y2="94.396" gradientTransform="matrix(2.6746618,0,0,2.5459707,-893.97886,-122.09114)" gradientUnits="userSpaceOnUse" xlink:href="#linearGradient3912"/><linearGradient id="linearGradient3342"><stop id="stop3344" offset="0" stop-color="#fff" stop-opacity="0"/><stop id="stop3346" offset="1" stop-color="#fff" stop-opacity="1"/></linearGradient><linearGradient id="linearGradient3218" x1="15.574" x2="23.578" y1="46.971" y2="46.971" gradientTransform="matrix(3.1282824,0,0,2.6666665,-9.7588846,-7.7560032)" gradientUnits="userSpaceOnUse" spreadMethod="reflect" xlink:href="#linearGradient3342"/><linearGradient id="linearGradient3236"><stop id="stop3240" offset="0" stop-color="#bebebe" stop-opacity="1"/><stop id="stop3244" offset="1" stop-color="#e6e6e6" stop-opacity="1"/></linearGradient><linearGradient id="linearGradient3234" x1="64" x2="64" y1="98.145" y2="9" gradientUnits="userSpaceOnUse" xlink:href="#linearGradient3236"/><linearGradient id="linearGradient3654"><stop id="stop3656" offset="0" stop-color="#76de98" stop-opacity="1"/><stop id="stop3658" offset=".5" stop-color="#37b862" stop-opacity="1"/><stop id="stop3660" offset="1" stop-color="#2f7b48" stop-opacity="1"/></linearGradient><radialGradient id="radialGradient3257" cx="12.244" cy="4.863" r="21" fx="12.244" fy="4.863" gradientTransform="matrix(4.6936706,0,9.0039864e-3,3.7186286,-25.627723,14.733143)" gradientUnits="userSpaceOnUse" xlink:href="#linearGradient3654"/><linearGradient id="linearGradient6592-2-7"><stop id="stop6594-0-2" offset="0" stop-color="#fff" stop-opacity=".275"/><stop id="stop6596-2-5" offset="1" stop-color="#fff" stop-opacity="0"/></linearGradient><linearGradient id="linearGradient3254" x1="12.938" x2="15.25" y1="8.438" y2="19.813" gradientTransform="matrix(2.9523812,0,0,3.5999974,-6.8571431,-0.7999939)" gradientUnits="userSpaceOnUse" xlink:href="#linearGradient6592-2-7"/><linearGradient id="linearGradient3202"><stop id="stop3204" offset="0" stop-color="#fff" stop-opacity="1"/><stop id="stop3206" offset="1" stop-color="#d3fce1" stop-opacity="1"/></linearGradient><linearGradient id="linearGradient2687" x1="-83.757" x2="-92.223" y1="-7.838" y2="27.521" gradientTransform="matrix(1.6845053,-0.3988835,0.4032992,1.6660615,208.25005,0.3710506)" gradientUnits="userSpaceOnUse" xlink:href="#linearGradient3202"/></defs><g id="layer1"><path id="path2589" fill="url(#radialGradient3226)" fill-opacity="1" fill-rule="nonzero" stroke="none" stroke-width=".8" d="M 102,116 C 102,120.41828 84.986821,124 63.999998,124 C 43.013178,124 26,120.41828 26,116 C 26,111.58172 43.013178,108 63.999998,108 C 84.986821,108 102,111.58172 102,116 L 102,116 z" display="inline" opacity=".3" overflow="visible" visibility="visible" style="marker:none"/><path id="rect1789" fill="url(#linearGradient3221)" fill-opacity="1" fill-rule="nonzero" stroke="url(#linearGradient3223)" stroke-dasharray="none" stroke-dashoffset=".5" stroke-linecap="round" stroke-linejoin="round" stroke-miterlimit="4" stroke-opacity="1" stroke-width=".998" d="M 47.5,97.499139 C 47.5,97.499139 47.897503,108.33774 45.99939,110.86405 C 44.101278,113.39038 40.324379,115.00067 40.324379,115.00067 C 37.900756,115.26607 37.880707,118.50087 40.324379,118.50087 L 87.67543,118.50087 C 90.119102,118.50087 90.099561,115.26268 87.67543,115.00067 C 87.67543,115.00067 83.898695,113.39037 82.000611,110.86405 C 80.102525,108.33775 80.5,97.499139 80.5,97.499139 L 47.516944,97.499139 L 47.5,97.499139 z" display="inline" enable-background="new" overflow="visible" visibility="visible" style="marker:none"/><path id="path3340" fill="none" stroke="url(#linearGradient3218)" stroke-linecap="square" stroke-linejoin="miter" stroke-opacity="1" stroke-width="1" d="M 40.524811,117.5 L 87.475189,117.5"/><rect id="rect2722" width="125" height="87.999" x="1.5" y="9.501" fill="#1a1a1a" fill-opacity="1" stroke="url(#linearGradient3234)" stroke-dasharray="none" stroke-dashoffset=".5" stroke-linecap="round" stroke-linejoin="round" stroke-miterlimit="4" stroke-opacity="1" stroke-width="1" rx="2.778" ry="2.667"/><rect id="rect2716" width="112" height="75" x="8" y="16" fill="url(#radialGradient3257)" fill-opacity="1" fill-rule="evenodd" stroke="none" display="inline" enable-background="new"/><path id="rect6588" fill="url(#linearGradient3254)" fill-opacity="1" stroke="none" d="M 2,10 L 126,10 L 126,38.800015 L 2,64 L 2,10 z"/><rect id="rect3248" width="123" height="86" x="2.5" y="10.5" fill="none" fill-opacity="1" stroke="#000" stroke-dasharray="none" stroke-dashoffset=".5" stroke-linecap="round" stroke-linejoin="round" stroke-miterlimit="4" stroke-opacity="1" stroke-width="1" opacity=".3" rx="2.733" ry="2.606"/><path id="path2690" fill="#000" fill-opacity="1" fill-rule="nonzero" stroke="none" stroke-width="1.003" d="M 81.050006,23.012063 C 80.123162,22.919011 79.201701,23.368009 78.725494,24.229944 L 58.435735,60.947108 L 45.39073,50.688268 C 44.228736,50.060269 42.778969,50.464273 42.144022,51.61354 L 36.29409,59.041855 C 35.659155,60.191102 36.086294,61.624588 37.248283,62.252567 C 37.248283,62.252567 61.066826,81.709229 61.096214,81.723628 C 61.368551,81.870817 61.653348,81.944876 61.942847,81.981075 C 62.888546,82.099249 63.856351,81.659797 64.342474,80.779906 L 91.705906,31.262221 C 92.340846,30.112954 91.913703,28.679488 90.75172,28.051489 L 81.971759,23.286222 C 81.681255,23.1292 81.358955,23.043075 81.050006,23.012063 z" display="inline" opacity=".4" overflow="visible" visibility="visible" style="marker:none"/><path id="path4368" fill="url(#linearGradient2687)" fill-opacity="1" fill-rule="nonzero" stroke="none" stroke-width="1.003" d="M 81.050006,24.012063 C 80.123162,23.919011 79.201701,24.368009 78.725494,25.229944 L 58.435735,61.947108 L 45.39073,51.688268 C 44.228736,51.060269 42.778969,51.464273 42.144022,52.61354 L 36.29409,60.041855 C 35.659155,61.191102 36.086294,62.624588 37.248283,63.252567 C 37.248283,63.252567 61.066826,82.709229 61.096214,82.723628 C 61.368551,82.870817 61.653348,82.944876 61.942847,82.981075 C 62.888546,83.099249 63.856351,82.659797 64.342474,81.779906 L 91.705906,32.262221 C 92.340846,31.112954 91.913703,29.679488 90.75172,29.051489 L 81.971759,24.286222 C 81.681255,24.1292 81.358955,24.043075 81.050006,24.012063 z" display="inline" overflow="visible" visibility="visible" style="marker:none"/></g></svg>