<svg xmlns="http://www.w3.org/2000/svg" xmlns:svg="http://www.w3.org/2000/svg" xmlns:xlink="http://www.w3.org/1999/xlink" id="svg4141" width="128" height="128" version="1.1"><defs id="defs4143"><linearGradient id="linearGradient3031" x1="32.817" x2="32.817" y1="19.819" y2="30.185" gradientTransform="matrix(2.6410259,0,0,2.6410259,0.6153832,-62.93965)" gradientUnits="userSpaceOnUse" xlink:href="#linearGradient2238"/><linearGradient id="linearGradient2238"><stop id="stop2240" offset="0" stop-color="#fff" stop-opacity="1"/><stop id="stop2242" offset="1" stop-color="#fff" stop-opacity="0"/></linearGradient><linearGradient id="linearGradient3034" x1="16.626" x2="20.055" y1="15.298" y2="24.628" gradientTransform="matrix(2.5768011,0,0,2.7332853,10.342673,-64.314296)" gradientUnits="userSpaceOnUse" xlink:href="#linearGradient8265-821-176-38-919-66-249"/><linearGradient id="linearGradient8265-821-176-38-919-66-249"><stop id="stop2687" offset="0" stop-color="#fff" stop-opacity="1"/><stop id="stop2689" offset="1" stop-color="#fff" stop-opacity="0"/></linearGradient><linearGradient id="linearGradient3037" x1="23" x2="23" y1="20" y2="41" gradientTransform="matrix(2.6410259,0,0,2.6410259,0.6153832,-62.93965)" gradientUnits="userSpaceOnUse" xlink:href="#linearGradient2867-449-88-871-390-598-476-591-434-148"/><linearGradient id="linearGradient2867-449-88-871-390-598-476-591-434-148"><stop id="stop4627" offset="0" stop-color="#51cfee" stop-opacity="1"/><stop id="stop4629" offset=".262" stop-color="#49a3d2" stop-opacity="1"/><stop id="stop4631" offset=".705" stop-color="#3470b4" stop-opacity="1"/><stop id="stop4633" offset="1" stop-color="#1b5699" stop-opacity="1"/></linearGradient><linearGradient id="linearGradient3039" x1="35" x2="35" y1="32.036" y2="18" gradientTransform="matrix(2.6410259,0,0,2.6410259,0.6153832,-62.93965)" gradientUnits="userSpaceOnUse" xlink:href="#linearGradient3332-412-419-652-471-761-410-156-661-505"/><linearGradient id="linearGradient3332-412-419-652-471-761-410-156-661-505"><stop id="stop8032" offset="0" stop-color="#205286" stop-opacity="1"/><stop id="stop8034" offset="1" stop-color="#5492be" stop-opacity="1"/></linearGradient><linearGradient id="linearGradient3133" x1="34.542" x2="34.542" y1="41" y2="6.845" gradientTransform="matrix(2.7575758,0,0,2.7575758,-2.1818174,-63.181797)" gradientUnits="userSpaceOnUse" xlink:href="#linearGradient3996-4"/><linearGradient id="linearGradient3996-4"><stop id="stop3998-0" offset="0" stop-color="#fff" stop-opacity="1"/><stop id="stop4000-8" offset="1" stop-color="#fff" stop-opacity="0"/></linearGradient><radialGradient id="radialGradient3048" cx="24" cy="24" r="17" fx="24" fy="24" gradientTransform="matrix(2.6363635,0,0,2.6363635,0.7272727,-60.272722)" gradientUnits="userSpaceOnUse" xlink:href="#linearGradient3301"/><linearGradient id="linearGradient3301"><stop id="stop3303" offset="0" stop-color="#fff" stop-opacity="0"/><stop id="stop3309" offset=".7" stop-color="#fff" stop-opacity="0"/><stop id="stop3305" offset="1" stop-color="#000" stop-opacity="1"/></linearGradient><linearGradient id="linearGradient3050" x1="29.05" x2="29.05" y1="7.028" y2="26.494" gradientTransform="matrix(2.6363635,0,0,-2.6363635,0.7272767,66.27272)" gradientUnits="userSpaceOnUse" xlink:href="#linearGradient3708"/><linearGradient id="linearGradient3708"><stop id="stop3710" offset="0" stop-color="#000" stop-opacity="1"/><stop id="stop3712" offset="1" stop-color="#000" stop-opacity="1"/></linearGradient><radialGradient id="radialGradient3053" cx="27.412" cy="12.08" r="18" fx="27.412" fy="12.08" gradientTransform="matrix(4.4850665e-8,4.5087589,-6.7617404,6.7262092e-8,154.22152,-103.79813)" gradientUnits="userSpaceOnUse" xlink:href="#linearGradient3268-1"/><linearGradient id="linearGradient3268-1"><stop id="stop3270-7" offset="0" stop-color="#fff" stop-opacity="1"/><stop id="stop3272-0" offset="1" stop-color="#d8d8d8" stop-opacity="1"/></linearGradient><linearGradient id="linearGradient3055" x1="29.05" x2="29.05" y1="5.108" y2="43.199" gradientTransform="matrix(2.6969696,0,0,2.6969696,-0.7272724,-61.727262)" gradientUnits="userSpaceOnUse" xlink:href="#linearGradient3332-412-419-652-471-761-410-156-661-505"/><linearGradient id="linearGradient3058" x1="32" x2="32" y1="15" y2="49" gradientTransform="matrix(1.8727272,0,0,1.8727272,4.0727255,-56.92727)" gradientUnits="userSpaceOnUse" xlink:href="#linearGradient3373"/><linearGradient id="linearGradient3373"><stop id="stop3375" offset="0" stop-color="#696969" stop-opacity="1"/><stop id="stop3377" offset="1" stop-color="#737373" stop-opacity="1"/></linearGradient><linearGradient id="linearGradient2470" x1="24" x2="24" y1="5" y2="43" gradientTransform="matrix(2.729731,0,0,2.7297289,-1.5135159,-62.513482)" gradientUnits="userSpaceOnUse" xlink:href="#linearGradient3308-4-6-931-761"/><linearGradient id="linearGradient3308-4-6-931-761"><stop id="stop2919" offset="0" stop-color="#fff" stop-opacity="1"/><stop id="stop2921" offset="1" stop-color="#fff" stop-opacity="0"/></linearGradient><radialGradient id="radialGradient3065-9" cx="7.496" cy="8.45" r="20" fx="7.496" fy="8.45" gradientTransform="matrix(0,6.0737416,-8.1296192,-2.5628778e-7,132.69369,-92.488351)" gradientUnits="userSpaceOnUse" xlink:href="#linearGradient2867-449-88-871-390-598-476-591-434-148-9-7"/><linearGradient id="linearGradient2867-449-88-871-390-598-476-591-434-148-9-7"><stop id="stop4627-2-7" offset="0" stop-color="#51cfee" stop-opacity="1"/><stop id="stop4629-8-6" offset=".262" stop-color="#49a3d2" stop-opacity="1"/><stop id="stop4631-3-4" offset=".705" stop-color="#3470b4" stop-opacity="1"/><stop id="stop4633-0-3" offset="1" stop-color="#1b5699" stop-opacity="1"/></linearGradient><linearGradient id="linearGradient3067-0" x1="24" x2="24" y1="44" y2="3.899" gradientTransform="matrix(2.6410259,0,0,2.6410259,0.6153832,-60.384621)" gradientUnits="userSpaceOnUse" xlink:href="#linearGradient3332-412-419-652-471-761-410-156-661-505-7-3"/><linearGradient id="linearGradient3332-412-419-652-471-761-410-156-661-505-7-3"><stop id="stop8032-8-0" offset="0" stop-color="#205286" stop-opacity="1"/><stop id="stop8034-9-9" offset="1" stop-color="#5492be" stop-opacity="1"/></linearGradient><radialGradient id="radialGradient2455" cx="4.993" cy="43.5" r="2.5" fx="4.993" fy="43.5" gradientTransform="matrix(2.003784,0,0,1.4,27.98813,-17.4)" gradientUnits="userSpaceOnUse" xlink:href="#linearGradient3688-166-749"/><linearGradient id="linearGradient3688-166-749"><stop id="stop2883" offset="0" stop-color="#181818" stop-opacity="1"/><stop id="stop2885" offset="1" stop-color="#181818" stop-opacity="0"/></linearGradient><radialGradient id="radialGradient2457" cx="4.993" cy="43.5" r="2.5" fx="4.993" fy="43.5" gradientTransform="matrix(2.003784,0,0,1.4,-20.01187,-104.4)" gradientUnits="userSpaceOnUse" xlink:href="#linearGradient3688-464-309"/><linearGradient id="linearGradient3688-464-309"><stop id="stop2889" offset="0" stop-color="#181818" stop-opacity="1"/><stop id="stop2891" offset="1" stop-color="#181818" stop-opacity="0"/></linearGradient><linearGradient id="linearGradient2459" x1="25.058" x2="25.058" y1="47.028" y2="39.999" gradientUnits="userSpaceOnUse" xlink:href="#linearGradient3702-501-757"/><linearGradient id="linearGradient3702-501-757"><stop id="stop2895" offset="0" stop-color="#181818" stop-opacity="0"/><stop id="stop2897" offset=".5" stop-color="#181818" stop-opacity="1"/><stop id="stop2899" offset="1" stop-color="#181818" stop-opacity="0"/></linearGradient></defs><metadata id="metadata4146"/><g id="layer1" transform="translate(0,64)"><g id="g2036" display="inline" transform="matrix(2.9499988,0,0,1.2222234,-6.8000012,1.555537)"><g id="g3712" opacity=".4" transform="matrix(1.052632,0,0,1.285713,-1.263158,-13.42854)"><rect id="rect2801" width="5" height="7" x="38" y="40" fill="url(#radialGradient2455)" fill-opacity="1" stroke="none"/><rect id="rect3696" width="5" height="7" x="-10" y="-47" fill="url(#radialGradient2457)" fill-opacity="1" stroke="none" transform="scale(-1,-1)"/><rect id="rect3700" width="28" height="7" x="10" y="40" fill="url(#linearGradient2459)" fill-opacity="1" stroke="none"/></g></g><rect id="rect5505" width="103" height="103" x="12.5" y="-48.5" fill="url(#radialGradient3065-9)" fill-opacity="1" fill-rule="nonzero" stroke="url(#linearGradient3067-0)" stroke-dasharray="none" stroke-dashoffset="0" stroke-linecap="round" stroke-linejoin="round" stroke-miterlimit="4" stroke-opacity="1" stroke-width="1" color="#000" display="inline" enable-background="accumulate" overflow="visible" rx="6" ry="6" visibility="visible" style="marker:none"/><rect id="rect6741" width="101" height="101" x="13.5" y="-47.5" fill="none" stroke="url(#linearGradient2470)" stroke-dasharray="none" stroke-dashoffset="0" stroke-linecap="round" stroke-linejoin="round" stroke-miterlimit="4" stroke-opacity="1" stroke-width="1" opacity=".4" rx="5" ry="5"/><path id="path3215-6" fill="url(#radialGradient3053)" fill-opacity="1" fill-rule="nonzero" stroke="url(#linearGradient3055)" stroke-dasharray="none" stroke-miterlimit="4" stroke-width="1" d="M 108.5,2.998424 C 108.5,27.575871 88.57519,47.5 64.000561,47.5 39.423665,47.5 19.5,27.575644 19.5,2.998424 c 0,-24.576333 19.923665,-44.49842 44.500561,-44.49842 24.574629,0 44.499439,19.922087 44.499439,44.49842 l 0,0 0,0 0,0 z"/><path id="path3215-4" fill="url(#radialGradient3048)" fill-opacity="1" stroke="url(#linearGradient3050)" stroke-dasharray="none" stroke-miterlimit="4" stroke-width="1" d="M 107.5,3.001544 C 107.5,-21.023614 88.02294,-40.499993 64.000546,-40.499993 39.975945,-40.499993 20.5,-21.023396 20.5,3.001544 20.5,27.025594 39.975945,46.5 64.000546,46.5 88.02294,46.5 107.5,27.025594 107.5,3.001544 l 0,0 z" opacity=".2"/><path id="path4293-9-8-3-4" fill="#000" fill-opacity="1" stroke="none" d="m 51.5,0.333317 25,0 0,-10.666662 L 99.58182,6.833324 76.5,24 l 0,-10.666683 -25,0 L 51.5,24 28.418181,6.833324 51.5,-10.333345 l 0,10.666662 z" opacity=".05"/><path id="path3215-6-0" fill="none" stroke="url(#linearGradient3133)" stroke-dasharray="none" stroke-miterlimit="4" stroke-width="1" d="M 109.5,2.998395 C 109.5,28.12815 89.127441,48.50001 64.000575,48.50001 38.871386,48.50001 18.5,28.127926 18.5,2.998395 c 0,-25.12861 20.371386,-45.498385 45.500575,-45.498385 25.126866,0 45.499425,20.369775 45.499425,45.498385 l 0,0 0,0 0,0 z" opacity=".4"/><path id="path4293-9-8" fill="#000" fill-opacity="1" stroke="none" d="m 51.5,-0.666683 25,0 0,-10.666662 L 99.58182,5.833324 76.5,23 l 0,-10.666683 -25,0 L 51.5,23 28.418181,5.833324 51.5,-11.333345 l 0,10.666662 z" opacity=".1"/><path id="path4293-9" fill="#000" fill-opacity="1" stroke="none" d="m 51.5,-1.666683 25,0 0,-10.666662 L 99.58182,4.833324 76.5,22 l 0,-10.666683 -25,0 L 51.5,22 28.418181,4.833324 51.5,-12.333345 l 0,10.666662 z" opacity=".15"/><path id="path4293" fill="url(#linearGradient3037)" fill-opacity="1" stroke="url(#linearGradient3039)" stroke-linecap="butt" stroke-linejoin="miter" stroke-opacity="1" stroke-width="1" d="m 51.5,-3.5 25,0 0,-10.666662 L 99.58182,3.000007 76.5,20.166683 76.5,9.5 l -25,0 0,10.666683 L 28.418181,3.000007 51.5,-14.166662 51.5,-3.5 z"/><path id="path3333" fill="url(#linearGradient3034)" fill-opacity="1" fill-rule="evenodd" stroke="none" d="M 18.636753,-48 C 15.523261,-48 13,-45.323504 13,-42.02094 l 0,43.732564 c 0.0073,0.36791 0.159234,0.715825 0.419373,0.959294 0.260121,0.243459 0.604517,0.36023 0.949551,0.321934 l 99.584246,-19.474655 c 0.59649,-0.09977 1.0385,-0.640771 1.04683,-1.281227 l 0,-24.25791 C 115,-45.323504 112.47674,-48 109.36325,-48 l -90.726497,0 z" opacity=".2"/><path id="path4293-3" fill="none" stroke="url(#linearGradient3031)" stroke-linecap="butt" stroke-linejoin="miter" stroke-opacity="1" stroke-width="1" d="m 50.5,-2.5 27,0 0,-9.5 L 98,3.000007 77.5,18 l 0,-9.5 -27,0 0,9.5 L 30,3.000007 50.5,-12 l 0,9.5 z" opacity=".4"/></g></svg>