<svg xmlns="http://www.w3.org/2000/svg" xmlns:svg="http://www.w3.org/2000/svg" xmlns:xlink="http://www.w3.org/1999/xlink" id="svg3461" width="32" height="32" version="1.1"><defs id="defs3463"><linearGradient id="linearGradient3663" x1="102.308" x2="102.308" y1="-2.393" y2="-24.582" gradientTransform="matrix(0.11951098,0,0,0.09753194,3.5774702,2.8184652)" gradientUnits="userSpaceOnUse" spreadMethod="reflect" xlink:href="#linearGradient3844-9-5-84"/><linearGradient id="linearGradient3844-9-5-84"><stop id="stop4693" offset="0" stop-color="#a6a6a6" stop-opacity="1"/><stop id="stop4695" offset="1" stop-color="#e8e8e8" stop-opacity="1"/></linearGradient><linearGradient id="linearGradient3665" x1="109.956" x2="109.956" y1="-24.911" y2="-2.376" gradientTransform="matrix(0.11951098,0,0,0.09753194,3.5774702,2.8184652)" gradientUnits="userSpaceOnUse" xlink:href="#linearGradient2509-6-3-746"/><linearGradient id="linearGradient2509-6-3-746"><stop id="stop4699" offset="0" stop-color="#b3b3b3" stop-opacity="1"/><stop id="stop4701" offset="1" stop-color="#dadada" stop-opacity="1"/></linearGradient><linearGradient id="linearGradient3668" x1="103.95" x2="89.424" y1="-7.666" y2="-7.666" gradientTransform="matrix(0.11511151,0,0,0.08906795,3.9808208,4.7908295)" gradientUnits="userSpaceOnUse" spreadMethod="reflect" xlink:href="#linearGradient2793-2-0-669"/><linearGradient id="linearGradient2793-2-0-669"><stop id="stop4681" offset="0" stop-color="#878787" stop-opacity="1"/><stop id="stop4683" offset="1" stop-color="#d9d9d9" stop-opacity="1"/></linearGradient><linearGradient id="linearGradient3670" x1="89.018" x2="89.018" y1="22.537" y2="27.546" gradientTransform="matrix(0.2514261,0,0,0.20603946,-7.7269604,-1.0725654)" gradientUnits="userSpaceOnUse" xlink:href="#linearGradient3858-1-3-594"/><linearGradient id="linearGradient3858-1-3-594"><stop id="stop4687" offset="0" stop-color="#a0a0a0" stop-opacity="1"/><stop id="stop4689" offset="1" stop-color="#646464" stop-opacity="1"/></linearGradient><radialGradient id="radialGradient3673" cx="23.857" cy="40" r="17.143" fx="23.857" fy="40" gradientTransform="matrix(0.23333334,0,0,0.10586826,10.433334,-1.4436572)" gradientUnits="userSpaceOnUse" xlink:href="#linearGradient4126-65-434-2-3-659"/><linearGradient id="linearGradient4126-65-434-2-3-659"><stop id="stop4675" offset="0" stop-color="#000" stop-opacity="1"/><stop id="stop4677" offset="1" stop-color="#000" stop-opacity="0"/></linearGradient><linearGradient id="linearGradient3329" x1="23.5" x2="23.5" y1="11.149" y2="39.851" gradientTransform="matrix(0.58875407,0,0,0.92856328,2.1644733,-8.1780773)" gradientUnits="userSpaceOnUse" xlink:href="#linearGradient4152"/><linearGradient id="linearGradient4152"><stop id="stop4154" offset="0" stop-color="#fff" stop-opacity="1"/><stop id="stop4156" offset=".16" stop-color="#fff" stop-opacity=".235"/><stop id="stop4158" offset=".897" stop-color="#fff" stop-opacity=".157"/><stop id="stop4160" offset="1" stop-color="#fff" stop-opacity=".392"/></linearGradient><linearGradient id="linearGradient2462" x1="17.243" x2="17.243" y1="11.001" y2="2" gradientTransform="matrix(0.60025583,0,0,0.6257537,1.5938725,-0.06739927)" gradientUnits="userSpaceOnUse" xlink:href="#linearGradient3844-342"/><linearGradient id="linearGradient3844-342"><stop id="stop4651" offset="0" stop-color="#a6a6a6" stop-opacity=".49"/><stop id="stop4653" offset="1" stop-color="#e8e8e8" stop-opacity=".49"/></linearGradient><linearGradient id="linearGradient2464" x1="24" x2="24" y1="9.373" y2="5.603" gradientTransform="matrix(0.60025583,0,0,0.6257537,1.5938725,-0.06739927)" gradientUnits="userSpaceOnUse" xlink:href="#linearGradient3355-273"/><linearGradient id="linearGradient3355-273"><stop id="stop4657" offset="0" stop-color="#e1e1e1" stop-opacity="1"/><stop id="stop4659" offset="1" stop-color="#a6a6a6" stop-opacity="1"/></linearGradient><linearGradient id="linearGradient3373" x1="15.036" x2="19.777" y1="11.206" y2="18.185" gradientTransform="matrix(0.58418894,0,0,0.45654547,1.979465,2.5757529)" gradientUnits="userSpaceOnUse" xlink:href="#linearGradient3592-990-183-196-279-371-272-744-724-968-605-252-895-210"/><linearGradient id="linearGradient3592-990-183-196-279-371-272-744-724-968-605-252-895-210"><stop id="stop3869" offset="0" stop-color="#7aa7c4" stop-opacity="1"/><stop id="stop3871" offset="1" stop-color="#1f7dbb" stop-opacity="1"/></linearGradient><linearGradient id="linearGradient3375" x1="24" x2="24" y1="16.525" y2="13.285" gradientTransform="matrix(0.58418894,0,0,0.45654547,1.979465,2.5757529)" gradientUnits="userSpaceOnUse" xlink:href="#linearGradient3598-871-484-814-161-889-287-317-39-832-801-67-687-466"/><linearGradient id="linearGradient3598-871-484-814-161-889-287-317-39-832-801-67-687-466"><stop id="stop3875" offset="0" stop-color="#68b1e0" stop-opacity="1"/><stop id="stop3877" offset="1" stop-color="#236894" stop-opacity="1"/></linearGradient><linearGradient id="linearGradient3337" x1="13.042" x2="21.512" y1="32.288" y2="32.288" gradientTransform="matrix(0.62500004,0,0,0.778784,2.562498,-2.0407551)" gradientUnits="userSpaceOnUse" spreadMethod="reflect" xlink:href="#linearGradient3578-995-735-4-566-885-385-488-812-692-100-298-982-943"/><linearGradient id="linearGradient3578-995-735-4-566-885-385-488-812-692-100-298-982-943"><stop id="stop4639" offset="0" stop-color="#115984" stop-opacity="1"/><stop id="stop4641" offset="1" stop-color="#57a4ea" stop-opacity="1"/></linearGradient><linearGradient id="linearGradient3339" x1="13.269" x2="13.269" y1="30.301" y2="1.363" gradientTransform="translate(1.09e-4,-0.33399994)" gradientUnits="userSpaceOnUse" xlink:href="#linearGradient3707-319-631-407-324"/><linearGradient id="linearGradient3707-319-631-407-324"><stop id="stop3760" offset="0" stop-color="#185f9a" stop-opacity="1"/><stop id="stop3762" offset="1" stop-color="#599ec9" stop-opacity="1"/></linearGradient><linearGradient id="linearGradient3652" x1="23.5" x2="23.5" y1="11.149" y2="39.851" gradientTransform="matrix(0.6388713,0,0,0.95081097,1.1532901,-8.7401897)" gradientUnits="userSpaceOnUse" xlink:href="#linearGradient3254-8-457"/><linearGradient id="linearGradient3254-8-457"><stop id="stop4669" offset="0" stop-color="#fff" stop-opacity="1"/><stop id="stop4671" offset="1" stop-color="#fff" stop-opacity="0"/></linearGradient><linearGradient id="linearGradient2478" x1="4" x2="10.143" y1="13.5" y2="13.5" gradientTransform="matrix(0.99994202,0,0,1.2727114,4.0004576,-1.6814425)" gradientUnits="userSpaceOnUse" spreadMethod="reflect" xlink:href="#linearGradient4151-767-958"/><linearGradient id="linearGradient4151-767-958"><stop id="stop4470" offset="0" stop-color="#979797" stop-opacity="1"/><stop id="stop4472" offset="1" stop-color="#d5d5d5" stop-opacity="1"/></linearGradient><linearGradient id="linearGradient3280-373"><stop id="stop4633" offset="0" stop-color="#000" stop-opacity="1"/><stop id="stop4635" offset="1" stop-color="#000" stop-opacity="0"/></linearGradient><radialGradient id="radialGradient3459" cx="21.344" cy="14.125" r="11.969" fx="21.344" fy="14.125" gradientTransform="matrix(0.83550161,0,0,0.34171691,-1.8329026,22.416664)" gradientUnits="userSpaceOnUse" xlink:href="#linearGradient3280-373"/></defs><metadata id="metadata3466"/><g id="layer1"><path id="path3278" fill="url(#radialGradient3459)" fill-opacity="1" fill-rule="nonzero" stroke="none" stroke-width="1" d="m 25.999731,27.243416 c 0,2.258804 -4.47711,4.089925 -9.999906,4.089925 -5.522795,0 -9.9999044,-1.831121 -9.9999044,-4.089925 0,-2.258804 4.4771094,-4.089925 9.9999044,-4.089925 5.522796,0 9.999906,1.831121 9.999906,4.089925 z" display="inline" opacity=".7" overflow="visible" visibility="visible" style="marker:none"/><path id="rect2432" fill="url(#linearGradient2478)" fill-opacity="1" fill-rule="nonzero" stroke="#575757" stroke-dasharray="none" stroke-dashoffset="0" stroke-linecap="round" stroke-linejoin="round" stroke-miterlimit="10" stroke-opacity="1" stroke-width="1" d="m 15.999763,1.5003545 c -4.148905,0 -7.4995662,1.131893 -7.4995662,2.545423 0,8.4847425 0,14.1854255 0,22.6701695 0.00169,0.01106 0.031787,0.02735 0.036052,0.03977 -0.013391,0.06242 -0.036052,0.135284 -0.036052,0.198861 0,1.412801 3.3527992,2.545422 7.4995662,2.545422 4.146766,0 7.499564,-1.132622 7.499564,-2.545422 0,-0.02473 0.002,-0.05499 0,-0.07955 0,-8.484743 0,-14.344516 0,-22.8292595 0,-1.413529 -3.35066,-2.545422 -7.499564,-2.545422 z" display="inline" enable-background="accumulate" opacity=".6" overflow="visible" visibility="visible" style="marker:none"/><path id="path2230" fill="url(#linearGradient3337)" fill-opacity="1" fill-rule="nonzero" stroke="url(#linearGradient3339)" stroke-opacity="1" stroke-width="1" d="m 8.5,9.5 0,17.274255 c 0,1.504613 3.359999,2.725746 7.5,2.725745 4.14,0 7.5,-1.221132 7.5,-2.725745 L 23.5,9.5 z" display="inline" overflow="visible" visibility="visible" style="marker:none"/><path id="path2675" fill="url(#linearGradient3373)" fill-opacity="1" fill-rule="nonzero" stroke="url(#linearGradient3375)" stroke-dasharray="none" stroke-dashoffset="0" stroke-linecap="butt" stroke-linejoin="round" stroke-miterlimit="10" stroke-opacity="1" stroke-width=".978" d="m 23.511,8.9999999 a 7.511,2.5110001 0 0 1 -15.022,0 7.511,2.5110001 0 1 1 15.022,0 z" display="block" overflow="visible" visibility="visible" style="marker:none"/><path id="path2570" fill="url(#linearGradient2462)" fill-opacity="1" fill-rule="nonzero" stroke="url(#linearGradient2464)" stroke-dasharray="none" stroke-dashoffset="0" stroke-linecap="round" stroke-linejoin="round" stroke-miterlimit="4" stroke-opacity="1" stroke-width=".984" d="m 23.508055,3.9999999 c 0,1.3851602 -3.36147,2.5080552 -7.508055,2.5080552 -4.146584,0 -7.5080552,-1.122895 -7.5080552,-2.5080552 0,-1.3851611 3.3614712,-2.5080552 7.5080552,-2.5080552 4.146585,0 7.508055,1.1228941 7.508055,2.5080552 l 0,0 z" display="inline" overflow="visible" visibility="visible" style="marker:none"/><path id="path3416-8" fill="none" stroke="url(#linearGradient3329)" stroke-dasharray="none" stroke-dashoffset="0" stroke-linecap="round" stroke-linejoin="round" stroke-miterlimit="4" stroke-opacity="1" stroke-width="1" d="m 9.5002063,4.5571395 c 0,1.061174 0,20.5586245 0,21.6216265 0,1.281418 2.9250697,2.321408 6.4999887,2.321408 3.574918,0 6.500011,-1.03999 6.500011,-2.321408 0,-0.983548 0,-20.6380765 0,-21.6216265 0,-1.070607 -2.927005,-2.074355 -6.500011,-2.056738 -3.573008,0.01762 -6.4999887,0.991052 -6.4999887,2.056738 z" display="inline" opacity=".4" overflow="visible" visibility="visible" style="marker:none"/><path id="path2611" fill="url(#radialGradient3673)" fill-opacity="1" fill-rule="nonzero" stroke="none" stroke-width="2.473" d="m 20,2.7910743 c 0,1.0023332 -1.790861,1.8148849 -4,1.8148849 -2.209139,0 -4,-0.8125517 -4,-1.8148849 0,-1.0023332 1.790861,-1.81488487 4,-1.81488487 2.209139,0 4,0.81255167 4,1.81488487 l 0,0 z" display="block" opacity=".2" overflow="visible" visibility="visible" style="marker:none"/><path id="path2613" fill="url(#linearGradient3668)" fill-opacity="1" stroke="url(#linearGradient3670)" stroke-dasharray="none" stroke-miterlimit="4" stroke-opacity="1" stroke-width="1" d="M 18.835612,3.5867817 C 18.835612,4.0908785 17.541086,4.5 15.94605,4.5 c -1.595038,0 -2.889563,-0.4091215 -2.889563,-0.9132183 0,-2.4570098 -0.353183,-2.96223726 2.889563,-2.98124807 3.317011,-0.0196215 2.889562,0.45007467 2.889562,2.98124807 z"/><path id="path2615" fill="url(#linearGradient3663)" fill-opacity="1" stroke="url(#linearGradient3665)" stroke-dasharray="none" stroke-miterlimit="4" stroke-opacity="1" stroke-width="1" d="M 19,1.4999994 C 19,2.0522843 17.656854,2.5000002 16.000001,2.5000002 14.343146,2.5000002 13,2.0522843 13,1.4999994 13,0.94771582 14.343146,0.49999988 16.000001,0.49999988 17.656854,0.49999988 19,0.94771582 19,1.4999994 l 0,0 z"/><path id="rect3244" fill="url(#linearGradient3652)" fill-opacity="1" fill-rule="nonzero" stroke="none" stroke-width="1" d="m 10.736343,6.6179465 3.194358,0.578965 0,22.1386235 -3.194358,-0.739852 0,-21.9777365 0,0 z" display="inline" opacity=".4" overflow="visible" visibility="visible" style="marker:none"/></g></svg>