<svg xmlns="http://www.w3.org/2000/svg" xmlns:svg="http://www.w3.org/2000/svg" xmlns:xlink="http://www.w3.org/1999/xlink" id="svg2" width="22" height="22" version="1.0"><defs id="defs4"><linearGradient id="linearGradient3275"><stop id="stop3277" offset="0" stop-color="#fff" stop-opacity="0"/><stop id="stop3283" offset=".245" stop-color="#fff" stop-opacity="1"/><stop id="stop3285" offset=".774" stop-color="#fff" stop-opacity="1"/><stop id="stop3279" offset="1" stop-color="#fff" stop-opacity="0"/></linearGradient><linearGradient id="linearGradient2929"><stop id="stop2931" offset="0" stop-color="#fff" stop-opacity="1"/><stop id="stop2933" offset=".271" stop-color="#fff" stop-opacity="1"/><stop id="stop2935" offset=".39" stop-color="#fff" stop-opacity=".69"/><stop id="stop2937" offset="1" stop-color="#fff" stop-opacity="0"/></linearGradient><linearGradient id="linearGradient4559"><stop id="stop4561" offset="0" stop-color="#fff" stop-opacity="0"/><stop id="stop4563" offset="1" stop-color="#fff" stop-opacity="0"/></linearGradient><linearGradient id="linearGradient2919"><stop id="stop2921" offset="0" stop-color="#dac197" stop-opacity="1"/><stop id="stop2923" offset=".261" stop-color="#c1a581" stop-opacity="1"/><stop id="stop2925" offset=".316" stop-color="#dbc298" stop-opacity="1"/><stop id="stop2927" offset="1" stop-color="#a68b60" stop-opacity="1"/></linearGradient><linearGradient id="linearGradient2909"><stop id="stop2911" offset="0" stop-color="#c9af8b" stop-opacity="1"/><stop id="stop2913" offset=".249" stop-color="#ad8757" stop-opacity="1"/><stop id="stop2915" offset=".312" stop-color="#c2a57f" stop-opacity="1"/><stop id="stop2917" offset="1" stop-color="#9d7d53" stop-opacity="1"/></linearGradient><linearGradient id="linearGradient3042" x1="44.995" x2="3.005" y1="17.5" y2="17.5" gradientTransform="matrix(0.51232292,0,0,0.49974342,-1.2958022,0.75460678)" gradientUnits="userSpaceOnUse" spreadMethod="reflect" xlink:href="#linearGradient3275"/><linearGradient id="linearGradient3045" x1="26" x2="26" y1="22" y2="8" gradientTransform="matrix(0.49999997,0,0,0.57142853,-0.99999431,-0.57131117)" gradientUnits="userSpaceOnUse" xlink:href="#linearGradient2929"/><linearGradient id="linearGradient3048" x1="23.452" x2="43.007" y1="30.555" y2="45.934" gradientTransform="matrix(0.65683735,0,0,0.5870422,-4.4028606,-2.3873503)" gradientUnits="userSpaceOnUse" xlink:href="#linearGradient4559"/><linearGradient id="linearGradient3051" x1="24.823" x2="24.997" y1="15.378" y2="37.277" gradientTransform="matrix(0.65683735,0,0,0.77823139,-4.4038671,-7.3785805)" gradientUnits="userSpaceOnUse" xlink:href="#linearGradient2919"/><linearGradient id="linearGradient3053" x1="15.464" x2="15.464" y1="7.976" y2="45.042" gradientTransform="matrix(0.5122637,0,0,0.49974342,-1.2943282,0.26287478)" gradientUnits="userSpaceOnUse" xlink:href="#linearGradient2909"/><linearGradient id="linearGradient5530" x1="24.139" x2="24.139" y1="7.048" y2="39.268" gradientTransform="matrix(0.2817955,0,0,0.2800956,10.178741,10.02218)" gradientUnits="userSpaceOnUse" xlink:href="#linearGradient3943"/><linearGradient id="linearGradient3943"><stop id="stop3945" offset="0" stop-color="#fff" stop-opacity="1"/><stop id="stop3947" offset="1" stop-color="#fff" stop-opacity="0"/></linearGradient><linearGradient id="linearGradient3242-7"><stop id="stop3244-5" offset="0" stop-color="#eef87e" stop-opacity="1"/><stop id="stop3246-9" offset=".262" stop-color="#cde34f" stop-opacity="1"/><stop id="stop3248-7" offset=".661" stop-color="#93b723" stop-opacity="1"/><stop id="stop3250-8" offset="1" stop-color="#5a7e0d" stop-opacity="1"/></linearGradient><linearGradient id="linearGradient2490-3"><stop id="stop2492-3" offset="0" stop-color="#365f0e" stop-opacity="1"/><stop id="stop2494-8" offset="1" stop-color="#84a718" stop-opacity="1"/></linearGradient><radialGradient id="radialGradient3098" cx="69.448" cy="51.695" r="31" fx="69.448" fy="51.695" gradientTransform="matrix(0,0.35684158,-0.38820022,0,35.349285,-12.114114)" gradientUnits="userSpaceOnUse" xlink:href="#linearGradient3242-7"/><linearGradient id="linearGradient3100" x1="72.422" x2="72.422" y1="124.756" y2="51.244" gradientTransform="matrix(0.1482266,0,0,0.1494387,3.4435035,3.3566817)" gradientUnits="userSpaceOnUse" xlink:href="#linearGradient2490-3"/></defs><g id="layer1" transform="translate(0,-2)"><path id="path2488" fill="url(#linearGradient3051)" fill-opacity="1" fill-rule="nonzero" stroke="url(#linearGradient3053)" stroke-dasharray="none" stroke-dashoffset="0" stroke-linecap="round" stroke-linejoin="miter" stroke-miterlimit="4" stroke-opacity="1" stroke-width=".994" d="m 3.3215391,4.5106927 15.1106109,0 c 0.882111,0 1.279083,-0.1431999 1.532464,0.499744 l 1.53768,4.4896791 0,12.3386352 c 0,0.776254 0.05273,0.657651 -0.829386,0.657651 l -19.3458144,0 c -0.88211424,0 -0.82938734,0.118603 -0.82938734,-0.657651 l 0,-12.3386352 1.53767964,-4.489679 c 0.2463125,-0.629958 0.404039,-0.499744 1.2861532,-0.499744 z" display="block" overflow="visible" visibility="visible" style="marker:none"/><path id="path2490" fill="none" stroke="url(#linearGradient3048)" stroke-dasharray="none" stroke-dashoffset="0" stroke-linecap="butt" stroke-linejoin="miter" stroke-miterlimit="4" stroke-opacity="1" stroke-width=".742" d="m 3.8027772,5.0169067 14.1655608,0 c 0.826944,0 1.338741,0.278124 1.685102,1.0424801 l 1.193033,3.208212 0,11.5663392 c 0,0.729962 -0.419421,1.097478 -1.246366,1.097478 l -17.2802955,0 c -0.826944,0 -1.1642608,-0.404205 -1.1642608,-1.13417 l 0,-11.5296472 1.1545456,-3.276997 C 2.5410054,5.3982088 2.975831,5.0169067 3.8027772,5.0169067 z" display="block" opacity=".505" overflow="visible" visibility="visible" style="marker:none"/><path id="rect3326" fill="url(#linearGradient3045)" fill-opacity="1" fill-rule="nonzero" stroke="none" stroke-width="1" d="m 10.000005,4.0001157 c 0.666667,0 1.333333,0 2,0 0,2.666665 0,5.3333341 0,7.9999993 -0.196865,0 -0.39373,0 -0.590593,0 -0.201563,0 -0.403126,0 -0.604688,0 -0.162265,0 -0.32453,0 -0.486792,0 -0.105977,0 -0.211952,0 -0.317927,0 0,-2.6666652 0,-5.3333343 0,-7.9999993 z" display="inline" enable-background="accumulate" opacity=".4" overflow="visible" visibility="visible" style="marker:none"/><path id="path3273" fill="none" stroke="url(#linearGradient3042)" stroke-linecap="square" stroke-linejoin="miter" stroke-opacity="1" stroke-width="1" d="m 0.50000466,9.5001158 20.99988534,0" display="inline" opacity=".4"/></g><path id="path2262" fill="url(#radialGradient3098)" fill-opacity="1" fill-rule="nonzero" stroke="url(#linearGradient3100)" stroke-dasharray="none" stroke-dashoffset="0" stroke-linecap="round" stroke-linejoin="round" stroke-miterlimit="4" stroke-opacity="1" stroke-width=".985" d="m 14.482179,14.507295 0,-3 4,0 0,3 3,0 0,4 -3,0 0,2.999991 -4,0 0,-2.999991 -2.989465,0 0,-4 2.989465,0 z" color="#000" display="inline" enable-background="accumulate" overflow="visible" visibility="visible" style="marker:none"/><path id="path2272" fill="none" stroke="url(#linearGradient5530)" stroke-dasharray="none" stroke-linecap="butt" stroke-linejoin="miter" stroke-miterlimit="4" stroke-opacity="1" stroke-width="1" d="m 15.482179,15.507295 0,-3 2,0 0,3 3,0 0,2 -3,0 0,3 -2,0 0,-3 -3,0 0,-2 3,0 z" display="inline" opacity=".4"/></svg>