<svg xmlns="http://www.w3.org/2000/svg" xmlns:svg="http://www.w3.org/2000/svg" xmlns:xlink="http://www.w3.org/1999/xlink" id="svg2" width="22" height="22" version="1.0"><defs id="defs4"><linearGradient id="linearGradient8838"><stop id="stop8840" offset="0" stop-color="#000" stop-opacity="1"/><stop id="stop8842" offset="1" stop-color="#000" stop-opacity="0"/></linearGradient><radialGradient id="radialGradient2478" cx="62.625" cy="4.625" r="10.625" fx="62.625" fy="4.625" gradientTransform="matrix(1.1294118,0,0,0.2823525,-58.729414,19.694118)" gradientUnits="userSpaceOnUse" xlink:href="#linearGradient8838"/><linearGradient id="linearGradient2490"><stop id="stop2492" offset="0" stop-color="#791235" stop-opacity="1"/><stop id="stop2494" offset="1" stop-color="#dd3b27" stop-opacity="1"/></linearGradient><linearGradient id="linearGradient2502" x1="18.379" x2="18.379" y1="44.98" y2="3.082" gradientTransform="matrix(0.5160413,0,0,0.5160413,-1.3849489,0.61496678)" gradientUnits="userSpaceOnUse" xlink:href="#linearGradient2490"/><linearGradient id="linearGradient3242"><stop id="stop3244" offset="0" stop-color="#f8b17e" stop-opacity="1"/><stop id="stop3246" offset=".262" stop-color="#e35d4f" stop-opacity="1"/><stop id="stop3248" offset=".661" stop-color="#c6262e" stop-opacity="1"/><stop id="stop3250" offset="1" stop-color="#690b54" stop-opacity="1"/></linearGradient><radialGradient id="radialGradient2500" cx="23.896" cy="3.99" r="20.397" fx="23.896" fy="3.99" gradientTransform="matrix(0,1.2316137,-1.6257082,0,17.486623,-27.720825)" gradientUnits="userSpaceOnUse" xlink:href="#linearGradient3242"/><linearGradient id="linearGradient4873"><stop id="stop4875" offset="0" stop-color="#fff" stop-opacity="1"/><stop id="stop4877" offset="1" stop-color="#fff" stop-opacity="0"/></linearGradient><linearGradient id="linearGradient2497" x1="63.397" x2="63.397" y1="-12.489" y2="5.468" gradientTransform="matrix(1.0862728,0,0,1.0862481,-56.566568,16.813596)" gradientUnits="userSpaceOnUse" xlink:href="#linearGradient4873"/><linearGradient id="linearGradient3781"><stop id="stop3783" offset="0" stop-color="#fff" stop-opacity="1"/><stop id="stop3785" offset="1" stop-color="#fff" stop-opacity="0"/></linearGradient><linearGradient id="linearGradient2494" x1="24.481" x2="24.481" y1="5.081" y2="45.074" gradientTransform="matrix(0.5384199,0,0,0.5384199,-1.9220349,-0.46054062)" gradientUnits="userSpaceOnUse" xlink:href="#linearGradient3781"/></defs><g id="layer1" transform="translate(0,-2)"><path id="path2555" fill="url(#radialGradient2500)" fill-opacity="1" stroke="url(#linearGradient2502)" stroke-dasharray="none" stroke-dashoffset="0" stroke-linecap="round" stroke-linejoin="round" stroke-miterlimit="4" stroke-opacity="1" stroke-width="1.004" d="m 11.000044,2.5017429 c -5.7925529,0 -10.49821688,4.7056616 -10.49821688,10.4982141 0,5.792554 4.70566398,10.498219 10.49821688,10.498216 5.79255,0 10.498219,-4.705662 10.498213,-10.498216 0,-5.7925525 -4.705663,-10.4982141 -10.498213,-10.4982141 z m 0,3.3703947 c 3.938154,0 7.127819,3.1896662 7.127819,7.1278194 0,1.652812 -0.572672,3.161557 -1.515873,4.370226 L 7.5812711,6.742957 C 8.5958971,6.187795 9.7613501,5.8721376 11.000044,5.8721376 z M 5.2913361,8.7426168 14.289807,19.321464 c -0.984185,0.512744 -2.102715,0.806315 -3.289763,0.806315 -3.9381539,-1e-6 -7.1278209,-3.189667 -7.1278209,-7.127822 0,-1.599874 0.529949,-3.0681982 1.419113,-4.2573402 z"/><path id="path2463" fill="none" stroke="url(#linearGradient2497)" stroke-dasharray="none" stroke-miterlimit="4" stroke-opacity="1" stroke-width="1" d="m 20.500041,12.999621 c 0,5.246874 -4.253609,9.500336 -9.499879,9.500336 -5.2467525,0 -9.50012,-4.253509 -9.50012,-9.500336 0,-5.2466313 4.2533675,-9.4996624 9.50012,-9.4996624 5.24627,0 9.499879,4.2530311 9.499879,9.4996624 l 0,0 z" opacity=".4"/><path id="path3270" fill="none" stroke="url(#linearGradient2494)" stroke-linecap="round" stroke-linejoin="miter" stroke-opacity="1" stroke-width="1" d="M 6.8042188,7.4112026 15.919241,18.041535" opacity=".4"/><path id="path13687" fill="#7da5ca" fill-opacity="1" stroke="#356ca0" stroke-dasharray="none" stroke-linecap="butt" stroke-linejoin="miter" stroke-miterlimit="4" stroke-opacity="1" stroke-width="1" d="m 21.500034,4.508294 -3.368685,3.0278413 3.368685,0 0,1.9638526 -5.999648,0 0,-2.1871288 3.117131,-2.7671604 -3.117131,0 0,-2.0451571 5.999648,0 0,2.0077524 z" font-family="Segoe" font-size="10" font-stretch="normal" font-style="normal" font-variant="normal" font-weight="normal" text-anchor="start" writing-mode="lr-tb" style="line-height:100%"/><path id="path13696" fill="#7da5ca" fill-opacity="1" stroke="#356ca0" stroke-dasharray="none" stroke-linecap="butt" stroke-linejoin="miter" stroke-miterlimit="4" stroke-opacity="1" stroke-width="1" d="m 18.50021,13.671513 -2.326434,1.856161 2.326434,0 0,1.960276 -5.00016,0 0,-2.130026 2.194392,-1.873655 -2.194392,0 0,-1.984011 5.00016,0 0,2.171255 z" font-family="Segoe" font-size="10" font-stretch="normal" font-style="normal" font-variant="normal" font-weight="normal" text-anchor="start" writing-mode="lr-tb" style="line-height:100%"/></g></svg>