<svg xmlns="http://www.w3.org/2000/svg" xmlns:svg="http://www.w3.org/2000/svg" xmlns:xlink="http://www.w3.org/1999/xlink" id="svg2" width="22" height="22" version="1.0"><defs id="defs4"><linearGradient id="linearGradient3610-302"><stop id="stop3796" offset="0" stop-color="#333" stop-opacity="1"/><stop id="stop3798" offset="1" stop-color="#292929" stop-opacity="1"/></linearGradient><linearGradient id="linearGradient2412" x1="-24.032" x2="-24.098" y1="-13.091" y2="-40.164" gradientTransform="matrix(0.4857142,0,0,0.4814814,0.6620573,2.0024712)" gradientUnits="userSpaceOnUse" xlink:href="#linearGradient3610-302"/><linearGradient id="linearGradient4157-401-351"><stop id="stop3790" offset="0" stop-color="#262626" stop-opacity="1"/><stop id="stop3792" offset="1" stop-color="#828282" stop-opacity="1"/></linearGradient><linearGradient id="linearGradient2410" x1="28.938" x2="105.365" y1="17.333" y2="92.824" gradientTransform="matrix(0.2139556,0,0,0.1648118,-25.539123,-20.465313)" gradientUnits="userSpaceOnUse" xlink:href="#linearGradient4157-401-351"/><linearGradient id="linearGradient259-942"><stop id="stop3802" offset="0" stop-color="#fff" stop-opacity="1"/><stop id="stop3804" offset="1" stop-color="#e0e0e0" stop-opacity="1"/></linearGradient><linearGradient id="linearGradient2415" x1="108.265" x2="25.818" y1="110.281" y2="14.029" gradientTransform="matrix(0.2364302,0,0,0.1658673,-27.025877,-21.665256)" gradientUnits="userSpaceOnUse" xlink:href="#linearGradient259-942"/><linearGradient id="linearGradient2490-794"><stop id="stop2699" offset="0" stop-color="#8f153e" stop-opacity="1"/><stop id="stop2701" offset="1" stop-color="#e04e3d" stop-opacity="1"/></linearGradient><linearGradient id="linearGradient2500" x1="18.379" x2="18.379" y1="44.98" y2="3.082" gradientTransform="matrix(0.270267,0,0,0.270267,4.513592,4.5135922)" gradientUnits="userSpaceOnUse" xlink:href="#linearGradient2490-794"/><linearGradient id="linearGradient3242-485"><stop id="stop2689" offset="0" stop-color="#f9bf96" stop-opacity="1"/><stop id="stop2691" offset=".262" stop-color="#e67164" stop-opacity="1"/><stop id="stop2693" offset=".661" stop-color="#d62e36" stop-opacity="1"/><stop id="stop2695" offset="1" stop-color="#800d66" stop-opacity="1"/></linearGradient><radialGradient id="radialGradient2498" cx="23.896" cy="3.99" r="20.397" fx="23.896" fy="3.99" gradientTransform="matrix(0,0.6450347,-0.8514343,0,14.397226,-10.32675)" gradientUnits="userSpaceOnUse" xlink:href="#linearGradient3242-485"/></defs><g id="layer1"><g id="g2537"><rect id="rect3580" width="20.984" height="16.963" x="-21.482" y="-19.501" fill="url(#linearGradient2415)" fill-opacity="1" stroke="#b3b3b3" stroke-dasharray="none" stroke-linecap="round" stroke-linejoin="miter" stroke-miterlimit="4" stroke-opacity=".969" stroke-width="1" transform="matrix(-0.9999985,1.7538034e-3,-9.492257e-4,-0.9999995,0,0)"/><rect id="rect3582" width="16.968" height="12.937" x="-19.511" y="-17.51" fill="url(#linearGradient2410)" fill-opacity="1" stroke="url(#linearGradient2412)" stroke-dasharray="none" stroke-linecap="round" stroke-linejoin="miter" stroke-miterlimit="4" stroke-opacity="1" stroke-width="1" rx="0" ry="0" transform="matrix(-0.999993,3.73314e-3,2.4553792e-3,-0.999997,0,0)"/></g><path id="path2555" fill="url(#radialGradient2498)" fill-opacity="1" stroke="url(#linearGradient2500)" stroke-dasharray="none" stroke-dashoffset="0" stroke-linecap="round" stroke-linejoin="round" stroke-miterlimit="4" stroke-opacity="1" stroke-width="1.004" d="M 11.000001,5.501756 C 7.96626,5.501756 5.501755,7.9662584 5.501755,11 C 5.501755,14.033742 7.96626,16.498246 11.000001,16.498244 C 14.033741,16.498244 16.498247,14.033742 16.498245,11 C 16.498245,7.9662584 14.033741,5.501756 11.000001,5.501756 z M 11.000001,7.2669373 C 13.062536,7.2669373 14.733064,8.9374654 14.733064,11 C 14.733064,11.865629 14.433137,12.655806 13.939153,13.288824 L 9.209483,7.7230126 C 9.740874,7.432257 10.351259,7.2669373 11.000001,7.2669373 z M 8.010172,8.7702972 L 12.722953,14.310771 C 12.207505,14.579311 11.621695,14.733064 11.000001,14.733064 C 8.937466,14.733064 7.266938,13.062535 7.266938,11 C 7.266938,10.162096 7.544489,9.3930879 8.010172,8.7702972 z"/></g></svg>