<svg xmlns="http://www.w3.org/2000/svg" xmlns:svg="http://www.w3.org/2000/svg" xmlns:xlink="http://www.w3.org/1999/xlink" id="svg3489" width="64" height="64" version="1.0"><defs id="defs3491"><linearGradient id="linearGradient5048"><stop id="stop5050" offset="0" stop-color="#000" stop-opacity="0"/><stop id="stop5056" offset=".5" stop-color="#000" stop-opacity="1"/><stop id="stop5052" offset="1" stop-color="#000" stop-opacity="0"/></linearGradient><linearGradient id="linearGradient2667" x1="302.857" x2="302.857" y1="366.648" y2="609.505" gradientTransform="matrix(9.1538462e-2,0,0,2.0588233e-2,-1.084616,49.45137)" gradientUnits="userSpaceOnUse" xlink:href="#linearGradient5048"/><radialGradient id="radialGradient2664" cx="605.714" cy="486.648" r="117.143" fx="605.714" fy="486.648" gradientTransform="matrix(-3.1326322e-2,0,0,2.0588233e-2,28.779136,49.451413)" gradientUnits="userSpaceOnUse" xlink:href="#linearGradient5060"/><linearGradient id="linearGradient5060"><stop id="stop5062" offset="0" stop-color="#000" stop-opacity="1"/><stop id="stop5064" offset="1" stop-color="#000" stop-opacity="0"/></linearGradient><radialGradient id="radialGradient2661" cx="605.714" cy="486.648" r="117.143" fx="605.714" fy="486.648" gradientTransform="matrix(3.1326329e-2,0,0,2.0588233e-2,35.220859,49.451413)" gradientUnits="userSpaceOnUse" xlink:href="#linearGradient5060"/><linearGradient id="linearGradient4711-257"><stop id="stop4963" offset="0" stop-color="#643340" stop-opacity="1"/><stop id="stop4965" offset="1" stop-color="#a77a86" stop-opacity="1"/></linearGradient><linearGradient id="linearGradient2640" x1="-51.786" x2="-51.786" y1="53.624" y2="2.906" gradientTransform="matrix(1.0843521,0,0,1.1997373,79.550844,-4.1628005)" gradientUnits="userSpaceOnUse" xlink:href="#linearGradient4711-257"/><linearGradient id="linearGradient4145-42"><stop id="stop4953" offset="0" stop-color="#e694bb" stop-opacity="1"/><stop id="stop4955" offset=".262" stop-color="#d3819a" stop-opacity="1"/><stop id="stop4957" offset=".705" stop-color="#b25a64" stop-opacity="1"/><stop id="stop4959" offset="1" stop-color="#98313d" stop-opacity="1"/></linearGradient><radialGradient id="radialGradient2638" cx="14.239" cy="11.49" r="18" fx="14.239" fy="11.49" gradientTransform="matrix(0,4.2616625,-7.1151583,0,99.39928,-53.130482)" gradientUnits="userSpaceOnUse" xlink:href="#linearGradient4145-42"/><linearGradient id="linearGradient8265-821-176-38-919-66-249"><stop id="stop2687" offset="0" stop-color="#fff" stop-opacity="1"/><stop id="stop2689" offset="1" stop-color="#fff" stop-opacity="0"/></linearGradient><linearGradient id="linearGradient3445" x1="16.626" x2="20.055" y1="15.298" y2="24.628" gradientTransform="matrix(1.0013605,0,0,1.8757841,7.967346,-10.196088)" gradientUnits="userSpaceOnUse" xlink:href="#linearGradient8265-821-176-38-919-66-249"/><radialGradient id="radialGradient2534" cx="102" cy="112.305" r="139.559" gradientUnits="userSpaceOnUse"><stop id="stop2536" offset="0" stop-color="#000" stop-opacity="1"/><stop id="stop2538" offset=".189" stop-color="#000" stop-opacity="1"/><stop id="stop2540" offset=".257" stop-color="#000" stop-opacity="0"/><stop id="stop2542" offset="1" stop-color="#000" stop-opacity="0"/></radialGradient><radialGradient id="radialGradient2653" cx="102" cy="112.305" r="139.559" gradientTransform="matrix(0.4857141,0,0,-0.5239323,0.914304,63.5413)" gradientUnits="userSpaceOnUse" xlink:href="#radialGradient2534"/><linearGradient id="linearGradient3211"><stop id="stop3213" offset="0" stop-color="#fff" stop-opacity="1"/><stop id="stop3215" offset="1" stop-color="#fff" stop-opacity="0"/></linearGradient><linearGradient id="linearGradient2650" x1="24" x2="24" y1="2" y2="46.017" gradientTransform="matrix(1.3636354,0,0,1.3255808,-0.7272518,-1.8139391)" gradientUnits="userSpaceOnUse" xlink:href="#linearGradient3211"/><linearGradient id="linearGradient8589"><stop id="stop8591" offset="0" stop-color="#fefefe" stop-opacity="1"/><stop id="stop8593" offset="1" stop-color="#cbcbcb" stop-opacity="1"/></linearGradient><linearGradient id="linearGradient2643" x1="32.892" x2="36.358" y1="8.059" y2="5.457" gradientTransform="matrix(1.3538978,0,0,1.3812083,-0.611935,-1.6903211)" gradientUnits="userSpaceOnUse" xlink:href="#linearGradient8589"/><linearGradient id="linearGradient4267"><stop id="stop4269" offset="0" stop-color="#c4c4c4" stop-opacity="1"/><stop id="stop4271" offset="1" stop-color="#c4c4c4" stop-opacity="0"/></linearGradient><linearGradient id="linearGradient2671" x1="35.517" x2="34.103" y1="4.858" y2="6.544" gradientTransform="matrix(1.3525279,0,0,1.3543253,-0.6299238,-0.1772015)" gradientUnits="userSpaceOnUse" xlink:href="#linearGradient4267"/><linearGradient id="linearGradient4000"><stop id="stop4002" offset="0" stop-color="#000" stop-opacity="1"/><stop id="stop4004" offset="1" stop-color="#000" stop-opacity="0"/></linearGradient><linearGradient id="linearGradient3481" x1="75.854" x2="91" y1="28" y2="12" gradientTransform="matrix(1.6119748,0,0,1.252393,-86.690394,5.979792)" gradientUnits="userSpaceOnUse" spreadMethod="reflect" xlink:href="#linearGradient4000"/><linearGradient id="linearGradient5293"><stop id="stop5295" offset="0" stop-color="#fff" stop-opacity="1"/><stop id="stop5297" offset="1" stop-color="#fff" stop-opacity="0"/></linearGradient><linearGradient id="linearGradient3478" x1="75.854" x2="91" y1="28" y2="12" gradientTransform="matrix(1.6119748,0,0,1.2361035,-86.690394,5.1751555)" gradientUnits="userSpaceOnUse" spreadMethod="reflect" xlink:href="#linearGradient5293"/><linearGradient id="linearGradient4106"><stop id="stop4108" offset="0" stop-color="#51293c" stop-opacity="1"/><stop id="stop4110" offset="1" stop-color="#876374" stop-opacity="1"/></linearGradient><linearGradient id="linearGradient3474" x1="24.239" x2="24.239" y1="44.11" y2=".191" gradientTransform="matrix(1.3614985,0,0,1.3715973,4.7493275,-0.5322012)" gradientUnits="userSpaceOnUse" xlink:href="#linearGradient4106"/></defs><g id="layer1"><rect id="rect2879" width="44.2" height="5" x="9.9" y="57" fill="url(#linearGradient2667)" fill-opacity="1" fill-rule="nonzero" stroke="none" stroke-dasharray="none" stroke-dashoffset="0" stroke-linecap="round" stroke-linejoin="miter" stroke-miterlimit="4" stroke-opacity="1" stroke-width="1" marker-end="none" marker-mid="none" marker-start="none" display="inline" opacity=".3" overflow="visible" visibility="visible" style="marker:none"/><path id="path2881" fill="url(#radialGradient2664)" fill-opacity="1" fill-rule="nonzero" stroke="none" stroke-dasharray="none" stroke-dashoffset="0" stroke-linecap="round" stroke-linejoin="miter" stroke-miterlimit="4" stroke-opacity="1" stroke-width="1" marker-end="none" marker-mid="none" marker-start="none" d="M 9.9,57.000217 C 9.9,57.000217 9.9,61.999941 9.9,61.999941 C 8.2867719,62.009354 6,60.879757 6,59.499757 C 6,58.119759 7.8002408,57.000218 9.9,57.000217 z" display="inline" opacity=".3" overflow="visible" visibility="visible" style="marker:none"/><path id="path2883" fill="url(#radialGradient2661)" fill-opacity="1" fill-rule="nonzero" stroke="none" stroke-dasharray="none" stroke-dashoffset="0" stroke-linecap="round" stroke-linejoin="miter" stroke-miterlimit="4" stroke-opacity="1" stroke-width="1" marker-end="none" marker-mid="none" marker-start="none" d="M 54.099999,57.000217 C 54.099999,57.000217 54.099999,61.999941 54.099999,61.999941 C 55.713227,62.009354 58,60.879757 58,59.499757 C 58,58.119759 56.199759,57.000218 54.099999,57.000217 z" display="inline" opacity=".3" overflow="visible" visibility="visible" style="marker:none"/><path id="path2636" fill="url(#radialGradient2638)" fill-opacity="1" stroke="url(#linearGradient2640)" stroke-dasharray="none" stroke-dashoffset="0" stroke-linecap="butt" stroke-linejoin="round" stroke-miterlimit="4" stroke-opacity="1" stroke-width="1" d="M 8.4999608,0.49996084 C 19.270064,0.49996084 30.040168,0.49996084 40.810273,0.49996084 C 41.515586,3.1280789 49.046136,9.6861787 55.500038,13.406469 C 55.500038,28.770992 55.500038,44.135514 55.500038,59.500037 C 39.833345,59.500037 24.166655,59.500037 8.4999608,59.500037 C 8.4999608,39.833344 8.4999608,20.166652 8.4999608,0.49996084 L 8.4999608,0.49996084 z" display="inline"/><path id="path3443" fill="url(#linearGradient3445)" fill-opacity="1" fill-rule="evenodd" stroke="none" stroke-dasharray="none" stroke-dashoffset="0" stroke-linecap="round" stroke-linejoin="round" stroke-miterlimit="4" stroke-opacity="1" stroke-width="1.002" d="M 11.190477,1.0000001 C 9.9805536,1.0000001 9,2.8368094 9,5.1032748 L 9,35.115822 C 9.0027736,35.368306 9.0618808,35.60707 9.1629698,35.774158 C 9.264059,35.941245 9.3978892,36.021378 9.531971,35.995094 L 54.593198,22.630131 C 54.824992,22.561656 54.99676,22.190386 55,21.750857 L 55,13.673552 C 55,13.673552 40.342631,1.0000001 40.342631,1.0000001 L 11.190477,1.0000001 z" opacity=".2"/><path id="path4191" fill="url(#radialGradient2653)" fill-opacity="1" d="M 9.6571549,58.825911 C 9.3895277,58.825911 9.1714411,58.590666 9.1714411,58.301976 L 9.1714411,1.7173144 C 9.1714411,1.428105 9.3895277,1.1933833 9.6571549,1.1933833 C 19.705871,1.3382029 30.84163,0.97675324 40.878137,1.229442 L 54.68624,13.116478 L 54.828554,58.301976 C 54.828554,58.590666 54.610954,58.825911 54.34284,58.825911 L 9.6571549,58.825911 z" opacity=".05"/><path id="path2435" fill="none" fill-opacity="1" stroke="url(#linearGradient2650)" stroke-dasharray="none" stroke-dashoffset="0" stroke-linecap="butt" stroke-linejoin="round" stroke-miterlimit="4" stroke-opacity="1" stroke-width="1" d="M 54.500038,13.404529 C 54.500038,28.248222 54.500038,43.656344 54.500038,58.500037 C 39.500014,58.500037 24.499988,58.500037 9.4999609,58.500037 C 9.4999609,39.500011 9.4999609,20.499986 9.4999609,1.4999607 C 19.811763,1.4999607 30.369495,1.4999607 40.681297,1.4999607" display="inline" opacity=".4"/><g id="g3423" transform="translate(-31.058336,0)"><path id="path3232" fill="#000" fill-opacity="1" fill-rule="evenodd" stroke="none" d="M 66.793324,0.98784908 C 73.358155,0.98784908 70.094117,13.992005 70.094117,13.992005 C 70.094117,13.992005 85.971718,10.369279 85.971718,16.79485 C 85.971718,16.79485 86.007967,13.742108 86.007967,13.742108 C 82.616299,10.350441 75.428771,3.7146517 70.80341,1.1886238 C 70.80341,1.1886238 66.793324,0.98784908 66.793324,0.98784908 L 66.793324,0.98784908 z" display="inline" opacity=".05"/><path id="path3230" fill="#000" fill-opacity="1" fill-rule="evenodd" stroke="none" d="M 68.039349,0.98784908 C 74.177661,0.98784908 71.125689,13.147122 71.125689,13.147122 C 71.125689,13.147122 85.971718,10.304922 85.971718,16.241275 C 86.757926,11.17637 72.877187,-0.58832169 68.039349,0.98784908 L 68.039349,0.98784908 z" display="inline" opacity=".1"/><path id="path3382" fill="#000" fill-opacity="1" fill-rule="evenodd" stroke="none" d="M 72.054106,12.386727 C 72.054106,12.386727 85.971719,9.9649052 85.971719,16.174288 C 85.971719,12.66759 78.135801,2.858913 69.160773,0.98784908 C 73.523911,2.6579922 72.931084,8.2532913 72.054106,12.386727 z" display="inline" opacity=".15"/></g><path id="path4474" fill="url(#linearGradient2643)" fill-opacity="1" fill-rule="evenodd" stroke="none" stroke-linecap="butt" stroke-linejoin="miter" stroke-opacity="1" stroke-width="1" d="M 38,1 C 42.324139,1 41.169676,11.168911 41.169676,11.168911 C 41.169676,11.168911 54.977544,9.8668482 54.977544,16 C 54.977544,14.505644 55.09413,13.435507 54.796006,12.969196 C 52.654202,9.619084 43.403114,2.1014807 40.062421,1.1161768 C 39.812428,1.0424442 39.258109,1 38,1 z" display="inline"/><path id="path2669" fill="none" stroke="url(#linearGradient2671)" stroke-dasharray="none" stroke-dashoffset="0" stroke-linecap="butt" stroke-linejoin="round" stroke-miterlimit="4" stroke-opacity="1" stroke-width="1" d="M 40.704473,0.49996078 C 42.607389,1.1427955 52.830499,8.4625853 55.50004,13.533453 C 55.50004,29.053659 55.50004,14.6515 55.50004,30.171705 C 0.79593274,51.473793 7.8428477,0.49996078 40.704473,0.49996078 z" display="inline"/><path id="path3447" fill="url(#linearGradient3481)" fill-opacity="1" fill-rule="nonzero" stroke="none" stroke-dasharray="none" stroke-dashoffset="0" stroke-linecap="butt" stroke-linejoin="miter" stroke-miterlimit="4" stroke-opacity="1" stroke-width=".912" marker-end="none" marker-mid="none" marker-start="none" d="M 44.492215,21.008509 C 43.900162,20.985538 43.310217,21.01161 42.733201,21.056678 C 37.655477,21.45329 33.265428,24.443565 31.577355,29.197233 C 30.537186,32.126412 30.745052,35.229223 31.855095,38.108492 L 9.0000008,57.637455 L 9.0000008,59.000005 L 22.520023,59.000005 L 22.226813,55.256645 L 29.679473,56.701715 L 30.558979,50.006226 L 37.548743,51.451296 L 42.131434,47.645946 C 46.811279,49.125867 51.560137,48.369831 55.000002,45.911863 C 55.000002,40.553654 55.000002,35.245363 55.000002,29.871598 C 54.432168,30.010844 53.773237,29.9764 53.14841,29.727093 C 51.623016,29.11845 50.761405,27.491806 51.250528,26.114421 C 51.617366,25.081389 52.670177,24.411776 53.796467,24.428506 C 54.171894,24.434084 54.572362,24.517191 54.953712,24.669352 C 54.974358,24.677589 54.979621,24.70891 55.000002,24.71752 C 55.000002,23.880193 55.000002,23.048717 55.000002,22.212734 C 53.509743,21.821878 52.009453,21.980901 50.83392,22.646253 C 50.514798,22.495191 50.240453,22.297168 49.908122,22.164565 C 48.113411,21.448467 46.268371,21.077423 44.492215,21.008509 z" display="inline" enable-background="accumulate" opacity=".1" overflow="visible" visibility="visible" style="marker:none"/><path id="path3449" fill="url(#linearGradient3478)" fill-opacity="1" fill-rule="nonzero" stroke="none" stroke-dasharray="none" stroke-dashoffset="0" stroke-linecap="butt" stroke-linejoin="miter" stroke-miterlimit="4" stroke-opacity="1" stroke-width=".912" marker-end="none" marker-mid="none" marker-start="none" d="M 44.492215,20.008399 C 43.900162,19.985726 43.310217,20.011459 42.733201,20.055941 C 37.655477,20.447394 33.265428,23.398774 31.577355,28.090614 C 30.537186,30.981694 30.745052,34.044148 31.855095,36.885968 L 9.0000008,56.31035 C 9.0000008,56.31035 9.0625521,59.000005 9.0625521,59.000005 C 13.589512,59.000005 18.116453,59.000005 22.64342,59.000005 L 22.226813,53.811081 L 29.679473,55.237353 L 30.558979,48.628954 L 37.548743,50.055227 L 42.131434,46.299372 C 46.811279,47.760044 51.560137,47.013842 55.000002,44.587847 C 55.000002,39.299327 55.000002,34.060079 55.000002,28.75621 C 54.432168,28.893643 53.773237,28.859648 53.14841,28.613583 C 51.623016,28.012859 50.761405,26.407368 51.250528,25.0479 C 51.617366,24.028304 52.670177,23.367402 53.796467,23.383913 C 54.171894,23.389417 54.572362,23.471445 54.953712,23.621626 C 54.974358,23.629756 54.979621,23.66067 55.000002,23.669167 C 55.000002,22.842732 55.000002,22.02207 55.000002,21.19696 C 53.509743,20.811188 52.009453,20.968144 50.83392,21.624841 C 50.514798,21.475744 50.240453,21.280296 49.908122,21.149417 C 48.113411,20.442634 46.268371,20.076416 44.492215,20.008399 z" display="inline" enable-background="accumulate" opacity=".4" overflow="visible" visibility="visible" style="marker:none"/><path id="path3485" fill="#fff" fill-opacity="1" stroke="none" stroke-linecap="butt" stroke-linejoin="miter" stroke-opacity="1" stroke-width="1" d="M 39.150639,48 C 38.474456,45.629428 37.676184,43.370572 37,41 C 33.592037,41 30.407966,41 27,41 C 26.317056,43.370572 25.532307,45.629428 24.849362,48 C 22.732907,48 20.616454,48 18.5,48 C 21.711871,37.999999 24.923741,27.999999 28.135614,18 C 30.698348,18 33.261083,18 35.823816,18 C 39.049212,27.999999 42.274606,37.999999 45.5,48 C 43.383546,48 41.267093,48 39.150639,48 z M 35.661534,36 C 34.377001,31.480743 33.065483,26.559099 32,22 C 31.009274,26.580635 29.697352,31.483308 28.419609,36 C 30.833583,36 33.247559,36 35.661534,36 z" font-family="Droid Sans" font-size="30.514" font-stretch="normal" font-style="normal" font-variant="normal" font-weight="bold" opacity=".4" style="-inkscape-font-specification:Droid Sans Bold"/><path id="path3453" fill="url(#linearGradient3474)" fill-opacity="1" stroke="none" stroke-linecap="butt" stroke-linejoin="miter" stroke-opacity="1" stroke-width="1" d="M 39.150639,47 C 38.474456,44.629428 37.676184,42.370572 37,40 C 33.592037,40 30.407966,40 27,40 C 26.317056,42.370572 25.532307,44.629428 24.849362,47 C 22.732907,47 20.616454,47 18.5,47 C 21.711871,36.999999 24.923741,26.999999 28.135614,17 C 30.698348,17 33.261083,17 35.823816,17 C 39.049212,26.999999 42.274606,36.999999 45.5,47 C 43.383546,47 41.267093,47 39.150639,47 z M 35.661534,35 C 34.377001,30.480743 33.065483,25.559099 32,21 C 31.009274,25.580635 29.697352,30.483308 28.419609,35 C 30.833583,35 33.247559,35 35.661534,35 z" font-family="Droid Sans" font-size="30.514" font-stretch="normal" font-style="normal" font-variant="normal" font-weight="bold" style="-inkscape-font-specification:Droid Sans Bold"/></g></svg>