<svg xmlns="http://www.w3.org/2000/svg" xmlns:svg="http://www.w3.org/2000/svg" xmlns:xlink="http://www.w3.org/1999/xlink" id="svg3934" width="64" height="64" version="1.1"><defs id="defs3936"><linearGradient id="linearGradient3838" x1="25.076" x2="25.076" y1="45.915" y2="6.443" gradientUnits="userSpaceOnUse" xlink:href="#linearGradient2490-3"/><linearGradient id="linearGradient2490-3"><stop id="stop2492-3" offset="0" stop-color="#365f0e" stop-opacity="1"/><stop id="stop2494-8" offset="1" stop-color="#84a718" stop-opacity="1"/></linearGradient><linearGradient id="linearGradient3840" x1="25.076" x2="25.076" y1="45.915" y2="6.443" gradientUnits="userSpaceOnUse" xlink:href="#linearGradient2490-3-7"/><linearGradient id="linearGradient2490-3-7"><stop id="stop2492-3-7" offset="0" stop-color="#365f0e" stop-opacity="1"/><stop id="stop2494-8-5" offset="1" stop-color="#84a718" stop-opacity="1"/></linearGradient><linearGradient id="linearGradient3842" x1="25.076" x2="25.076" y1="45.915" y2="6.443" gradientUnits="userSpaceOnUse" xlink:href="#linearGradient2490-3-1"/><linearGradient id="linearGradient2490-3-1"><stop id="stop2492-3-3" offset="0" stop-color="#365f0e" stop-opacity="1"/><stop id="stop2494-8-0" offset="1" stop-color="#84a718" stop-opacity="1"/></linearGradient><linearGradient id="linearGradient3008" x1="35.517" x2="34.103" y1="4.858" y2="6.544" gradientTransform="matrix(1.3525279,0,0,1.3543253,-0.6299238,-0.17720138)" gradientUnits="userSpaceOnUse" xlink:href="#linearGradient4267"/><linearGradient id="linearGradient4267"><stop id="stop4269" offset="0" stop-color="#c4c4c4" stop-opacity="1"/><stop id="stop4271" offset="1" stop-color="#c4c4c4" stop-opacity="0"/></linearGradient><linearGradient id="linearGradient3011" x1="32.892" x2="36.358" y1="8.059" y2="5.457" gradientTransform="matrix(1.3538978,0,0,1.3812083,-0.611935,-1.690321)" gradientUnits="userSpaceOnUse" xlink:href="#linearGradient8589"/><linearGradient id="linearGradient8589"><stop id="stop8591" offset="0" stop-color="#fefefe" stop-opacity="1"/><stop id="stop8593" offset="1" stop-color="#cbcbcb" stop-opacity="1"/></linearGradient><linearGradient id="linearGradient3018" x1="24" x2="24" y1="2" y2="46.017" gradientTransform="matrix(1.3636354,0,0,1.3255808,-0.7272518,-1.813939)" gradientUnits="userSpaceOnUse" xlink:href="#linearGradient3211"/><linearGradient id="linearGradient3211"><stop id="stop3213" offset="0" stop-color="#fff" stop-opacity="1"/><stop id="stop3215" offset="1" stop-color="#fff" stop-opacity="0"/></linearGradient><radialGradient id="radialGradient3021" cx="102" cy="112.305" r="139.559" gradientTransform="matrix(0.4857141,0,0,-0.5239323,0.914304,63.5413)" gradientUnits="userSpaceOnUse" xlink:href="#radialGradient2534"/><radialGradient id="radialGradient2534" cx="102" cy="112.305" r="139.559" gradientUnits="userSpaceOnUse"><stop id="stop2536" offset="0" stop-color="#000" stop-opacity="1"/><stop id="stop2538" offset=".189" stop-color="#000" stop-opacity="1"/><stop id="stop2540" offset=".257" stop-color="#000" stop-opacity="0"/><stop id="stop2542" offset="1" stop-color="#000" stop-opacity="0"/></radialGradient><radialGradient id="radialGradient3027" cx="12.467" cy="9.473" r="18" fx="12.467" fy="9.473" gradientTransform="matrix(-2.0120302e-8,4.005542,-4.5583883,-2.2897313e-8,75.179938,-49.937407)" gradientUnits="userSpaceOnUse" xlink:href="#linearGradient3242-7-2"/><linearGradient id="linearGradient3242-7-2"><stop id="stop3244-5-9" offset="0" stop-color="#eef87e" stop-opacity="1"/><stop id="stop3246-9-9" offset=".262" stop-color="#cde34f" stop-opacity="1"/><stop id="stop3248-7-6" offset=".661" stop-color="#93b723" stop-opacity="1"/><stop id="stop3250-8-0" offset="1" stop-color="#5a7e0d" stop-opacity="1"/></linearGradient><linearGradient id="linearGradient3029" x1="-51.786" x2="-51.786" y1="53.624" y2="2.906" gradientTransform="matrix(1.0843521,0,0,1.1997373,79.550844,-4.1628004)" gradientUnits="userSpaceOnUse" xlink:href="#linearGradient2490-3-76"/><linearGradient id="linearGradient2490-3-76"><stop id="stop2492-3-1" offset="0" stop-color="#365f0e" stop-opacity="1"/><stop id="stop2494-8-3" offset="1" stop-color="#84a718" stop-opacity="1"/></linearGradient><radialGradient id="radialGradient3032" cx="605.714" cy="486.648" r="117.143" fx="605.714" fy="486.648" gradientTransform="matrix(0.03132633,0,0,0.02058823,35.220859,49.451413)" gradientUnits="userSpaceOnUse" xlink:href="#linearGradient5060"/><linearGradient id="linearGradient5060"><stop id="stop5062" offset="0" stop-color="#000" stop-opacity="1"/><stop id="stop5064" offset="1" stop-color="#000" stop-opacity="0"/></linearGradient><radialGradient id="radialGradient3035" cx="605.714" cy="486.648" r="117.143" fx="605.714" fy="486.648" gradientTransform="matrix(-0.03132632,0,0,0.02058823,28.779136,49.451413)" gradientUnits="userSpaceOnUse" xlink:href="#linearGradient5060"/><linearGradient id="linearGradient5048"><stop id="stop5050" offset="0" stop-color="#000" stop-opacity="0"/><stop id="stop5056" offset=".5" stop-color="#000" stop-opacity="1"/><stop id="stop5052" offset="1" stop-color="#000" stop-opacity="0"/></linearGradient><linearGradient id="linearGradient3932" x1="302.857" x2="302.857" y1="366.648" y2="609.505" gradientTransform="matrix(0.09153846,0,0,0.02058823,-1.084616,49.45137)" gradientUnits="userSpaceOnUse" xlink:href="#linearGradient5048"/></defs><metadata id="metadata3939"/><g id="layer1"><rect id="rect2879" width="44.2" height="5" x="9.9" y="57" fill="url(#linearGradient3932)" fill-opacity="1" fill-rule="nonzero" stroke="none" stroke-width="1" display="inline" opacity=".3" overflow="visible" visibility="visible" style="marker:none"/><path id="path2881" fill="url(#radialGradient3035)" fill-opacity="1" fill-rule="nonzero" stroke="none" stroke-width="1" d="m 9.9,57.000217 c 0,0 0,4.999724 0,4.999724 C 8.2867719,62.009354 6,60.879757 6,59.499757 6,58.119759 7.8002408,57.000218 9.9,57.000217 z" display="inline" opacity=".3" overflow="visible" visibility="visible" style="marker:none"/><path id="path2883" fill="url(#radialGradient3032)" fill-opacity="1" fill-rule="nonzero" stroke="none" stroke-width="1" d="m 54.099999,57.000217 c 0,0 0,4.999724 0,4.999724 C 55.713227,62.009354 58,60.879757 58,59.499757 c 0,-1.379998 -1.800241,-2.499539 -3.900001,-2.49954 z" display="inline" opacity=".3" overflow="visible" visibility="visible" style="marker:none"/><path id="path2636" fill="url(#radialGradient3027)" fill-opacity="1" stroke="url(#linearGradient3029)" stroke-dasharray="none" stroke-dashoffset="0" stroke-linecap="butt" stroke-linejoin="round" stroke-miterlimit="4" stroke-opacity="1" stroke-width="1" d="m 8.4999608,0.49996096 c 10.7701032,0 21.5402072,0 32.3103122,0 0.705313,2.62811804 8.235863,9.18621784 14.689765,12.90650804 0,15.364523 0,30.729045 0,46.093568 -15.666693,0 -31.333383,0 -47.0000772,0 0,-19.666693 0,-39.333385 0,-59.00007604 l 0,0 z" display="inline"/><path id="path4191" fill="url(#radialGradient3021)" fill-opacity="1" d="m 9.6571549,58.825911 c -0.2676272,0 -0.4857138,-0.235245 -0.4857138,-0.523935 l 0,-56.5846615 c 0,-0.2892094 0.2180866,-0.5239311 0.4857138,-0.5239311 C 19.705871,1.338203 30.84163,0.97675336 40.878137,1.2294421 L 54.68624,13.116478 54.828554,58.301976 c 0,0.28869 -0.2176,0.523935 -0.485714,0.523935 l -44.6856851,0 z" opacity=".05"/><path id="path2435" fill="none" stroke="url(#linearGradient3018)" stroke-dasharray="none" stroke-dashoffset="0" stroke-linecap="butt" stroke-linejoin="round" stroke-miterlimit="4" stroke-opacity="1" stroke-width="1" d="m 54.500038,13.404529 c 0,14.843693 0,30.251815 0,45.095508 -15.000024,0 -30.00005,0 -45.0000771,0 0,-19.000026 0,-38.000051 0,-57.0000762 10.3118021,0 20.8695341,0 31.1813361,0" display="inline" opacity=".4"/><g id="g3423" transform="translate(-31.058336,1.1870602e-7)"><path id="path3232" fill="#000" fill-opacity="1" fill-rule="evenodd" stroke="none" d="m 66.793324,0.98784908 c 6.564831,0 3.300793,13.00415592 3.300793,13.00415592 0,0 15.877601,-3.622726 15.877601,2.802845 0,0 0.03625,-3.052742 0.03625,-3.052742 C 82.616299,10.350441 75.428771,3.7146517 70.80341,1.1886238 c 0,0 -4.010086,-0.20077472 -4.010086,-0.20077472 l 0,0 z" display="inline" opacity=".05"/><path id="path3230" fill="#000" fill-opacity="1" fill-rule="evenodd" stroke="none" d="m 68.039349,0.98784908 c 6.138312,0 3.08634,12.15927292 3.08634,12.15927292 0,0 14.846029,-2.8422 14.846029,3.094153 C 86.757926,11.17637 72.877187,-0.58832169 68.039349,0.98784908 l 0,0 z" display="inline" opacity=".1"/><path id="path3382" fill="#000" fill-opacity="1" fill-rule="evenodd" stroke="none" d="m 72.054106,12.386727 c 0,0 13.917613,-2.4218218 13.917613,3.787561 0,-3.506698 -7.835918,-13.315375 -16.810946,-15.18643892 4.363138,1.67014312 3.770311,7.26544222 2.893333,11.39887792 z" display="inline" opacity=".15"/></g><path id="path4474" fill="url(#linearGradient3011)" fill-opacity="1" fill-rule="evenodd" stroke="none" d="m 38,1.0000001 c 4.324139,0 3.169676,10.1689109 3.169676,10.1689109 0,0 13.807868,-1.3020627 13.807868,4.831089 0,-1.494356 0.116586,-2.564493 -0.181538,-3.030804 C 52.654202,9.6190841 43.403114,2.1014808 40.062421,1.1161769 39.812428,1.0424443 39.258109,1.0000001 38,1.0000001 z" display="inline"/><path id="path2669" fill="none" stroke="url(#linearGradient3008)" stroke-dasharray="none" stroke-dashoffset="0" stroke-linecap="butt" stroke-linejoin="round" stroke-miterlimit="4" stroke-opacity="1" stroke-width="1" d="m 40.704473,0.4999609 c 1.902916,0.6428347 12.126026,7.9626245 14.795567,13.0334921 0,15.520206 0,1.118047 0,16.638252 C 0.7959327,51.473793 7.8428477,0.4999609 40.704473,0.4999609 z" display="inline"/><path id="path3932-8-3" fill="url(#linearGradient3842)" fill-opacity="1" fill-rule="nonzero" stroke="none" stroke-width=".985" d="M 18.71875,14.09375 A 2.9091695,2.9091695 0 0 0 16.09375,17 l 0,6.09375 -1.59375,0 a 2.9091695,2.9091695 0 0 0 -2.1875,4.8125 l 9.5,11 a 2.9091695,2.9091695 0 0 0 4.375,0 l 9.5,-11 A 2.9091695,2.9091695 0 0 0 33.5,23.09375 l -1.59375,0 0,-6.09375 A 2.9091695,2.9091695 0 0 0 29,14.09375 l -10,0 a 2.9091695,2.9091695 0 0 0 -0.28125,0 z" color="#000" display="inline" enable-background="accumulate" opacity=".05" overflow="visible" transform="matrix(1.4102564,0,0,1.4102564,-1.8461541,-5.8088165)" visibility="visible" style="marker:none"/><path id="path3932-8" fill="url(#linearGradient3840)" fill-opacity="1" fill-rule="nonzero" stroke="none" stroke-width=".985" d="M 18.8125,14.96875 A 2.0262062,2.0262062 0 0 0 16.96875,17 l 0,6.96875 -2.46875,0 a 2.0262062,2.0262062 0 0 0 -1.53125,3.34375 l 9.5,11 a 2.0262062,2.0262062 0 0 0 3.0625,0 l 9.5,-11 A 2.0262062,2.0262062 0 0 0 33.5,23.96875 l -2.46875,0 0,-6.96875 A 2.0262062,2.0262062 0 0 0 29,14.96875 l -10,0 a 2.0262062,2.0262062 0 0 0 -0.1875,0 z" color="#000" display="inline" enable-background="accumulate" opacity=".1" overflow="visible" transform="matrix(1.4102564,0,0,1.4102564,-1.8461541,-5.8020556)" visibility="visible" style="marker:none"/><path id="path3932" fill="url(#linearGradient3838)" fill-opacity="1" fill-rule="nonzero" stroke="none" stroke-width=".985" d="M 18.90625,15.9375 A 1.0548436,1.0548436 0 0 0 17.9375,17 l 0,7.9375 -3.4375,0 a 1.0548436,1.0548436 0 0 0 -0.8125,1.75 l 9.5,11 a 1.0548436,1.0548436 0 0 0 1.625,0 l 9.5,-11 A 1.0548436,1.0548436 0 0 0 33.5,24.9375 l -3.4375,0 0,-7.9375 A 1.0548436,1.0548436 0 0 0 29,15.9375 l -10,0 a 1.0548436,1.0548436 0 0 0 -0.09375,0 z" display="inline" opacity=".25" overflow="visible" transform="matrix(1.4102564,0,0,1.4102564,-1.8461541,-5.8216237)" visibility="visible" style="marker:none"/><g id="g3834" transform="translate(85.694969,3.5002139)"><path id="path3288" fill="#f2f2f2" fill-opacity="1" fill-rule="nonzero" stroke="none" stroke-width=".985" d="m -40.287259,27.474576 -13.407711,15.569609 -13.40771,-15.569609 6.407711,0 0,-13 14,0 0,13 6.40771,0 z" display="inline" overflow="visible" visibility="visible" style="marker:none"/><path id="path3288-2" fill="none" stroke="#fff" stroke-opacity="1" stroke-width=".985" d="m -41.707791,27.974576 -11.987179,14 -11.987179,-14 5.48718,0 0,-13 13,0 0,13 5.487178,0 z" display="inline" overflow="visible" visibility="visible" style="marker:none"/></g></g></svg>