<svg xmlns="http://www.w3.org/2000/svg" xmlns:svg="http://www.w3.org/2000/svg" xmlns:xlink="http://www.w3.org/1999/xlink" id="svg2779" width="16" height="16" version="1.0"><defs id="defs2781"><linearGradient id="linearGradient3600-4-0-797-101"><stop id="stop2906" offset="0" stop-color="#f4f4f4" stop-opacity="1"/><stop id="stop2908" offset="1" stop-color="#dbdbdb" stop-opacity="1"/></linearGradient><linearGradient id="linearGradient2776" x1="25.132" x2="25.132" y1="6.729" y2="47.013" gradientTransform="matrix(0.2858492,0,0,0.2889939,1.6396178,1.0641474)" gradientUnits="userSpaceOnUse" xlink:href="#linearGradient3600-4-0-797-101"/><linearGradient id="linearGradient3412"><stop id="stop3414" offset="0" stop-color="#fcfcfc" stop-opacity="1"/><stop id="stop3416" offset="1" stop-color="#cbcdd9" stop-opacity="1"/></linearGradient><linearGradient id="linearGradient2707" x1="33.877" x2="44.119" y1="19.948" y2="30.191" gradientTransform="matrix(0,0.6,0.6,0,-8.6000001,-11.8)" gradientUnits="userSpaceOnUse" xlink:href="#linearGradient3412"/><linearGradient id="linearGradient4559-3-4-562-226"><stop id="stop2918" offset="0" stop-color="#8f8f8f" stop-opacity="1"/><stop id="stop2920" offset="1" stop-color="#afafaf" stop-opacity="1"/></linearGradient><linearGradient id="linearGradient2772" x1="17.289" x2="15.18" y1="2.185" y2="5.821" gradientTransform="matrix(0.547965,0,0,0.6824617,1.7211219,1.156396)" gradientUnits="userSpaceOnUse" xlink:href="#linearGradient4559-3-4-562-226"/><linearGradient id="linearGradient8589-0-2-885-13"><stop id="stop2912" offset="0" stop-color="#fefefe" stop-opacity="1"/><stop id="stop2914" offset="1" stop-color="#cbcbcb" stop-opacity="1"/></linearGradient><linearGradient id="linearGradient2770" x1="32.892" x2="36.358" y1="8.059" y2="5.457" gradientTransform="matrix(0.2967948,0,0,0.355083,1.2059208,0.9503907)" gradientUnits="userSpaceOnUse" xlink:href="#linearGradient8589-0-2-885-13"/></defs><g id="layer1"><path id="rect2594" fill="url(#linearGradient2776)" fill-opacity="1" stroke="#999" stroke-dasharray="none" stroke-dashoffset="0" stroke-linecap="butt" stroke-linejoin="round" stroke-miterlimit="4" stroke-opacity="1" stroke-width=".995" d="M 3.4976267,1.4976269 C 5.7902197,1.4976269 7.4203021,1.4976269 9.7128981,1.4976269 C 10.11507,1.6378986 12.93818,4.5911854 13.502373,5.6976904 C 13.502373,9.0843231 13.502373,11.115738 13.502373,14.502373 C 10.16746,14.502373 6.8325407,14.502373 3.4976267,14.502373 C 3.4976267,10.167456 3.4976267,5.8325435 3.4976267,1.4976269 L 3.4976267,1.4976269 z" display="inline"/><text id="text2767" x="5.677" y="10.89" fill="#9a9eac" fill-opacity="1" stroke="none" font-family="Bitstream Vera Sans" font-size="11.487" font-style="normal" font-weight="normal" opacity=".8" transform="scale(0.9423106,1.0612212)" xml:space="preserve"><tspan id="tspan2769" x="5.677" y="10.89">a</tspan></text><path id="path3410" fill="url(#linearGradient2707)" fill-opacity="1" fill-rule="evenodd" stroke="#83899a" stroke-linecap="butt" stroke-linejoin="miter" stroke-opacity="1" stroke-width="1" d="M 2.5,6.5000001 L 11.5,15.5 L 2.5,15.5 L 2.5,6.5000001 z M 4.5,11.5 L 4.5,13.5 L 6.5,13.5 L 4.5,11.5 z" opacity=".8"/><path id="path12038" fill="url(#linearGradient2770)" fill-opacity="1" fill-rule="evenodd" stroke="url(#linearGradient2772)" stroke-dasharray="none" stroke-linecap="butt" stroke-linejoin="round" stroke-miterlimit="4" stroke-opacity="1" stroke-width=".995" d="M 9.4976258,1.4976269 C 9.4976258,3.0420138 9.4976258,5.5023733 9.4976258,5.5023733 C 9.4976258,5.5023733 12.764621,5.5023733 13.502373,5.5023733 C 13.502373,3.5992904 11.095927,1.4976269 9.4976258,1.4976269 L 9.4976258,1.4976269 z" display="inline"/></g></svg>