<svg xmlns="http://www.w3.org/2000/svg" xmlns:svg="http://www.w3.org/2000/svg" xmlns:xlink="http://www.w3.org/1999/xlink" id="svg3130" width="16" height="16" version="1.1"><defs id="defs3132"><linearGradient id="linearGradient3039" x1="23.904" x2="23.904" y1="35.75" y2="16.007" gradientTransform="matrix(0.20866366,0,0,0.23893531,5.0399575,4.7494986)" gradientUnits="userSpaceOnUse" xlink:href="#linearGradient3495-841-851-719"/><linearGradient id="linearGradient3495-841-851-719"><stop id="stop4120" offset="0" stop-color="#1e1e1e" stop-opacity="1"/><stop id="stop4122" offset="1" stop-color="#1e1e1e" stop-opacity="0"/></linearGradient><linearGradient id="linearGradient3042" x1="23.929" x2="23.929" y1="30.773" y2="45.531" gradientTransform="matrix(0.24396007,0,0,0.25870632,4.1449497,3.9792887)" gradientUnits="userSpaceOnUse" xlink:href="#linearGradient3495-841-851-719"/><linearGradient id="linearGradient3045" x1="25.577" x2="25.577" y1="15" y2="44.001" gradientTransform="matrix(0.20930226,0,0,0.2142857,4.9767439,5.1785691)" gradientUnits="userSpaceOnUse" xlink:href="#linearGradient3333-314-917-262"/><linearGradient id="linearGradient3333-314-917-262"><stop id="stop4102" offset="0" stop-color="#fff" stop-opacity="1"/><stop id="stop4104" offset="1" stop-color="#fff" stop-opacity="0"/></linearGradient><linearGradient id="linearGradient3048" x1="19.875" x2="19.875" y1="10.39" y2="45.6" gradientTransform="matrix(0.24444622,0,0,0.24241415,4.1332488,4.7125683)" gradientUnits="userSpaceOnUse" xlink:href="#linearGradient3242-967-12-570-862-307"/><linearGradient id="linearGradient3242-967-12-570-862-307"><stop id="stop4498" offset="0" stop-color="#f2f2f2" stop-opacity="1"/><stop id="stop4502" offset=".874" stop-color="#dbdbdb" stop-opacity="1"/><stop id="stop4504" offset="1" stop-color="#999" stop-opacity="1"/></linearGradient><linearGradient id="linearGradient3050" x1="28.103" x2="28.103" y1="45" y2="14.038" gradientTransform="matrix(0.24444622,0,0,0.26699787,4.1332488,3.618599)" gradientUnits="userSpaceOnUse" xlink:href="#linearGradient2490-495-150-777"/><linearGradient id="linearGradient2490-495-150-777"><stop id="stop4108" offset="0" stop-color="#787878" stop-opacity="1"/><stop id="stop4110" offset="1" stop-color="#b4b4b4" stop-opacity="1"/></linearGradient><linearGradient id="linearGradient2580" x1="18.031" x2="20.055" y1="16.408" y2="24.628" gradientUnits="userSpaceOnUse" xlink:href="#linearGradient8265-821-176-38-919-66-249"/><linearGradient id="linearGradient8265-821-176-38-919-66-249"><stop id="stop2687" offset="0" stop-color="#fff" stop-opacity="1"/><stop id="stop2689" offset="1" stop-color="#fff" stop-opacity="0"/></linearGradient><linearGradient id="linearGradient2576" x1="126.698" x2="169.23" y1="58.583" y2="238.4" gradientTransform="matrix(0.05489342,0.01385132,0.00257263,0.05248166,-11.212261,-26.738461)" gradientUnits="userSpaceOnUse" xlink:href="#linearGradient7012-661-145-733-759-865-745"/><linearGradient id="linearGradient7012-661-145-733-759-865-745"><stop id="stop2699" offset="0" stop-color="#9cbbd9" stop-opacity="1"/><stop id="stop2701" offset="1" stop-color="#5c82ab" stop-opacity="1"/></linearGradient><linearGradient id="linearGradient2578" x1="10.318" x2="4.176" y1="14.993" y2="4.051" gradientTransform="matrix(1.0083043,0,0,1.0006232,-10.500284,-26.477671)" gradientUnits="userSpaceOnUse" xlink:href="#linearGradient3390"/><linearGradient id="linearGradient3390"><stop id="stop3392" offset="0" stop-color="#425e7b" stop-opacity="1"/><stop id="stop3394" offset="1" stop-color="#7a91a7" stop-opacity="1"/></linearGradient><linearGradient id="linearGradient2570" x1="302.857" x2="302.857" y1="366.648" y2="609.505" gradientTransform="matrix(2.774389,0,0,1.969706,-1892.179,-872.8854)" gradientUnits="userSpaceOnUse" xlink:href="#linearGradient5048"/><linearGradient id="linearGradient5048"><stop id="stop5050" offset="0" stop-color="#000" stop-opacity="0"/><stop id="stop5056" offset=".5" stop-color="#000" stop-opacity="1"/><stop id="stop5052" offset="1" stop-color="#000" stop-opacity="0"/></linearGradient><radialGradient id="radialGradient2572" cx="605.714" cy="486.648" r="117.143" fx="605.714" fy="486.648" gradientTransform="matrix(2.774389,0,0,1.969706,-1891.633,-872.8854)" gradientUnits="userSpaceOnUse" xlink:href="#linearGradient5060"/><linearGradient id="linearGradient5060"><stop id="stop5062" offset="0" stop-color="#000" stop-opacity="1"/><stop id="stop5064" offset="1" stop-color="#000" stop-opacity="0"/></linearGradient><radialGradient id="radialGradient2574" cx="605.714" cy="486.648" r="117.143" fx="605.714" fy="486.648" gradientTransform="matrix(-2.774389,0,0,1.969706,112.7623,-872.8854)" gradientUnits="userSpaceOnUse" xlink:href="#linearGradient5060"/></defs><metadata id="metadata3135"/><g id="layer1"><g id="layer6" transform="matrix(0.3639508,0,0,0.3445682,-0.6458828,-0.38545161)"><g id="g2488" display="inline" transform="matrix(0.02165152,0,0,0.01485743,43.0076,42.68539)"><rect id="rect2490" width="1339.633" height="478.357" x="-1559.252" y="-150.697" fill="url(#linearGradient2570)" fill-opacity="1" fill-rule="nonzero" stroke="none" stroke-width="1" display="inline" opacity=".402" overflow="visible" visibility="visible" style="marker:none"/><path id="path2492" fill="url(#radialGradient2572)" fill-opacity="1" fill-rule="nonzero" stroke="none" stroke-width="1" d="m -219.61876,-150.68038 c 0,0 0,478.33079 0,478.33079 142.874166,0.90045 345.40022,-107.16966 345.40014,-239.196175 0,-132.026537 -159.436816,-239.134595 -345.40014,-239.134615 z" display="inline" opacity=".402" overflow="visible" visibility="visible" style="marker:none"/><path id="path2494" fill="url(#radialGradient2574)" fill-opacity="1" fill-rule="nonzero" stroke="none" stroke-width="1" d="m -1559.2523,-150.68038 c 0,0 0,478.33079 0,478.33079 -142.8742,0.90045 -345.4002,-107.16966 -345.4002,-239.196175 0,-132.026537 159.4368,-239.134595 345.4002,-239.134615 z" display="inline" opacity=".402" overflow="visible" visibility="visible" style="marker:none"/></g></g><g id="g4745" transform="translate(10.498428,26.471051)"><path id="rect2196" fill="#fff" fill-opacity="1" stroke="#a8a8a8" stroke-dasharray="none" stroke-linecap="round" stroke-linejoin="round" stroke-miterlimit="4" stroke-opacity="1" stroke-width=".979" d="m -8.8386583,-24.977136 c -0.056258,0 -0.104488,0.06035 -0.104488,0.122673 l 0,1.063161 -0.516622,0 -0.397055,0 c -0.070206,0 -0.125385,0.06172 -0.125385,0.122673 l 0,0.245345 0,2.841912 c -0.00709,2.57297 -0.020898,6.24225 -0.020898,8.611702 4.7063245,-0.02397 9.41510748,-0.04826 14.1225145,-0.06552 -0.417129,0 -1.112329,-0.07009 -1.102384,-0.940487 0.00354,-3.59703 0.022961,-7.243121 0.010777,-10.815624 l -6.030797,0 0,-1.063161 c 0,-0.06233 -0.048228,-0.122673 -0.104487,-0.122673 l -5.731177,0 z" display="inline"/><path id="rect3086" fill="url(#linearGradient2576)" fill-opacity="1" stroke="url(#linearGradient2578)" stroke-dasharray="none" stroke-linecap="round" stroke-linejoin="round" stroke-miterlimit="4" stroke-opacity="1" stroke-width=".953" d="m -7.9740723,-21.947037 c 0.656364,0 12.480042,0.03139 12.989001,0.03139 0,0.615413 -0.024684,9.958075 -0.054067,9.958075 -4.55884302,0.01775 -11.6594,-0.01389 -12.986814,-0.01389 0,-1.161471 0.05188,-7.585329 0.05188,-9.975573 z" display="inline"/></g><path id="path2608" fill="url(#linearGradient2580)" fill-opacity="1" fill-rule="evenodd" stroke="none" d="m 3.21875,5.34375 c -1.5389481,0 -2.8125,1.273552 -2.8125,2.8125 l 0,16 c 0.005894,0.286233 0.14841957,0.612577 0.375,0.8125 0.2265775,0.199921 0.5161946,0.284272 0.84375,0.25 a 0.61209076,0.61209076 0 0 0 0.03125,0 l 45,-7.125 c 0.521773,-0.08229 0.930206,-0.53433 0.9375,-1.0625 l 0,-8.875 c 0,-1.538948 -1.273552,-2.8125 -2.8125,-2.8125 l -41.5625,0 z" opacity=".2" transform="matrix(0.2966887,0,0,0.3520695,1.8794702,2.1186294)"/><path id="path2406" fill="none" stroke="#fff" stroke-linecap="butt" stroke-linejoin="miter" stroke-opacity="1" stroke-width="1" d="m 3.497937,14 0,-8.5 11.5,0" opacity=".35"/><rect stroke-linecap="square" style="marker:none" id="rect2396" width="11" height="8" x="4.5" y="7.5" fill="url(#linearGradient3048)" fill-opacity="1" fill-rule="evenodd" stroke="url(#linearGradient3050)" stroke-dasharray="none" stroke-dashoffset="0" stroke-linejoin="round" stroke-miterlimit="4" stroke-opacity="1" stroke-width="1" display="inline" enable-background="accumulate" overflow="visible" rx=".467" ry=".455" visibility="visible"/><rect id="rect3331" width="9" height="6" x="5.5" y="8.5" fill="none" stroke="url(#linearGradient3045)" stroke-dasharray="none" stroke-dashoffset="0" stroke-linecap="square" stroke-linejoin="miter" stroke-miterlimit="4" stroke-opacity="1" stroke-width="1" display="inline" enable-background="accumulate" opacity=".4" overflow="visible" rx=".036" ry=".035" visibility="visible" style="marker:none"/><path id="path3341" fill="none" stroke="url(#linearGradient3042)" stroke-dasharray="none" stroke-dashoffset="0" stroke-linecap="butt" stroke-linejoin="miter" stroke-miterlimit="4" stroke-opacity="1" stroke-width="1" d="M 8.5405918,12.213191 4.8258367,15.48327 m 6.5933993,-3.276118 3.720105,3.276118" display="inline" enable-background="accumulate" opacity=".5" overflow="visible" visibility="visible" style="marker:none"/><path id="path3493" fill="none" stroke="url(#linearGradient3039)" stroke-dasharray="none" stroke-linecap="butt" stroke-linejoin="miter" stroke-miterlimit="4" stroke-opacity="1" stroke-width="1" d="M 5.5000001,8.5000001 10.047885,13 14.5,8.5000001" opacity=".5"/></g></svg>