<svg xmlns="http://www.w3.org/2000/svg" xmlns:svg="http://www.w3.org/2000/svg" xmlns:xlink="http://www.w3.org/1999/xlink" id="svg3210" width="16" height="16" version="1.0"><defs id="defs3212"><linearGradient id="linearGradient3203" x1="10.483" x2="10.483" y1="3.97" y2="11.49" gradientTransform="translate(-4.224479,-2.9700928)" gradientUnits="userSpaceOnUse" xlink:href="#linearGradient3587-6-5"/><linearGradient id="linearGradient3587-6-5"><stop id="stop3589-9-2" offset="0" stop-color="#000" stop-opacity="1"/><stop id="stop3591-7-4" offset="1" stop-color="#363636" stop-opacity="1"/></linearGradient><linearGradient id="linearGradient3201" x1="15.661" x2="15.661" y1="3.97" y2="18.136" gradientTransform="translate(-4.224479,-2.9700928)" gradientUnits="userSpaceOnUse" xlink:href="#linearGradient3587-6-5"/></defs><g id="layer1"><path id="path3205" fill="#fff" fill-opacity="1" fill-rule="evenodd" stroke="none" stroke-dasharray="none" stroke-dashoffset="0" stroke-linecap="butt" stroke-linejoin="miter" stroke-miterlimit="4" stroke-opacity="1" stroke-width="1" marker-end="none" marker-mid="none" marker-start="none" d="M 0,6.9849782 L 7,1.9849782 L 7,4.9849782 L 12,4.9849782 L 15,1.9849782 L 12,7.9849782 L 9,7.9849782 L 9,4.9849782 L 3,9.4849782 L 0,6.9849782 z M 16,1.9849782 L 16,10.627108 C 16,10.627108 15.485533,14.015821 12,14.015821 L 8,14.048094 L 8,16.113595 L 1.9041337,11.595311 L 8,6.980208 L 8,9.0457089 L 12.541964,8.9849782" display="inline" enable-background="accumulate" opacity=".6" overflow="visible" visibility="visible" style="marker:none"/><path id="path2427" fill="url(#linearGradient3203)" fill-opacity="1" fill-rule="evenodd" stroke="none" stroke-dasharray="none" stroke-dashoffset="0" stroke-linecap="butt" stroke-linejoin="miter" stroke-miterlimit="4" stroke-opacity="1" stroke-width="1" marker-end="none" marker-mid="none" marker-start="none" d="M 0,6 L 7,1 L 7,4 L 12,4 L 15,1 L 12,7 L 9,7 L 9,4 L 3,8.5 L 0,6 z" display="inline" enable-background="accumulate" opacity=".7" overflow="visible" visibility="visible" style="marker:none"/><path id="path2429" fill="url(#linearGradient3201)" fill-opacity="1" fill-rule="evenodd" stroke="none" stroke-dasharray="none" stroke-dashoffset="0" stroke-linecap="butt" stroke-linejoin="miter" stroke-miterlimit="4" stroke-opacity="1" stroke-width="1" marker-end="none" marker-mid="none" marker-start="none" d="M 16,1 L 16,9.6421299 C 16,9.6421299 15.485533,13.030843 12,13.030843 L 8,13.063116 L 8,15.128617 L 1.9041337,10.610333 L 8,5.9952298 L 8,8.0607307 L 12.541964,8" display="inline" enable-background="accumulate" opacity=".7" overflow="visible" visibility="visible" style="marker:none"/></g></svg>