<svg xmlns="http://www.w3.org/2000/svg" xmlns:svg="http://www.w3.org/2000/svg" xmlns:xlink="http://www.w3.org/1999/xlink" id="svg3219" width="16" height="16" version="1.0"><defs id="defs3221"><linearGradient id="linearGradient3587-6-5"><stop id="stop3589-9-2" offset="0" stop-color="#000" stop-opacity="1"/><stop id="stop3591-7-4" offset="1" stop-color="#363636" stop-opacity="1"/></linearGradient><linearGradient id="linearGradient2401" x1="-2.404" x2="-2.404" y1="4.457" y2="18.967" gradientTransform="translate(13.927091,-4.4266134)" gradientUnits="userSpaceOnUse" xlink:href="#linearGradient3587-6-5"/><linearGradient id="linearGradient2420" x1="-2.404" x2="-2.404" y1="4.457" y2="18.967" gradientTransform="translate(13.927091,-4.4266134)" gradientUnits="userSpaceOnUse" xlink:href="#linearGradient3587-6-5"/></defs><path id="path2423" fill="#fff" fill-opacity="1" fill-rule="evenodd" stroke="none" stroke-dasharray="none" stroke-dashoffset="0" stroke-linecap="butt" stroke-linejoin="miter" stroke-miterlimit="4" stroke-opacity="1" stroke-width="1" marker-end="none" marker-mid="none" marker-start="none" d="M 6,2 L 1,7 L 1,15 L 15,15 L 15,7 L 10,2 L 6,2 z M 8,4 L 12,9 L 10,8.96875 L 10,13 L 6,13 L 6,8.96875 L 4,9 L 8,4 z" display="inline" enable-background="accumulate" opacity=".6" overflow="visible" visibility="visible" style="marker:none"/><path id="path3883" fill="url(#linearGradient2420)" fill-opacity="1" fill-rule="evenodd" stroke="none" stroke-dasharray="none" stroke-dashoffset="0" stroke-linecap="butt" stroke-linejoin="miter" stroke-miterlimit="4" stroke-opacity="1" stroke-width="1" marker-end="none" marker-mid="none" marker-start="none" d="M 6,1 L 1,6 L 1,14 L 15,14 L 15,6 L 10,1 L 6,1 z M 8,3 L 12,8 L 10,7.96875 L 10,12 L 6,12 L 6,7.96875 L 4,8 L 8,3 z" display="inline" enable-background="accumulate" opacity=".7" overflow="visible" visibility="visible" style="marker:none"/></svg>