<svg xmlns="http://www.w3.org/2000/svg" xmlns:svg="http://www.w3.org/2000/svg" xmlns:xlink="http://www.w3.org/1999/xlink" id="svg2755" width="22" height="22" version="1.0"><defs id="defs2757"><linearGradient id="linearGradient2664" x1="-53.412" x2="-51.786" y1="56.11" y2="2.906" gradientTransform="matrix(0.3922135,0,0,0.4473607,28.199292,0.7613003)" gradientUnits="userSpaceOnUse" xlink:href="#linearGradient2490-113"/><radialGradient id="XMLID_8_" cx="102" cy="112.305" r="139.559" gradientUnits="userSpaceOnUse"><stop id="stop41" offset="0" stop-color="#000" stop-opacity="1"/><stop id="stop47" offset=".131" stop-color="#000" stop-opacity="1"/><stop id="stop49" offset=".257" stop-color="#fafafa" stop-opacity="0"/><stop id="stop51" offset=".301" stop-color="#fff" stop-opacity="0"/><stop id="stop53" offset=".531" stop-color="#fafafa" stop-opacity="0"/><stop id="stop55" offset=".845" stop-color="#ebecec" stop-opacity="0"/><stop id="stop57" offset="1" stop-color="#e1e2e3" stop-opacity="0"/></radialGradient><radialGradient id="radialGradient2659" cx="102" cy="112.305" r="139.559" gradientTransform="matrix(0.1702128,0,0,-0.1907226,0.10638221,25.716504)" gradientUnits="userSpaceOnUse" xlink:href="#XMLID_8_"/><linearGradient id="linearGradient3211"><stop id="stop3213" offset="0" stop-color="#fff" stop-opacity="1"/><stop id="stop3215" offset="1" stop-color="#fff" stop-opacity="0"/></linearGradient><linearGradient id="linearGradient2656" x1="24" x2="24" y1="2" y2="46.017" gradientTransform="matrix(0.4545444,0,0,0.4651153,0.09093361,2.3372293)" gradientUnits="userSpaceOnUse" xlink:href="#linearGradient3211"/><linearGradient id="linearGradient8589"><stop id="stop8591" offset="0" stop-color="#fefefe" stop-opacity="1"/><stop id="stop8593" offset="1" stop-color="#cbcbcb" stop-opacity="1"/></linearGradient><linearGradient id="linearGradient2652" x1="32.892" x2="36.358" y1="8.059" y2="5.457" gradientTransform="matrix(0.4778466,0,0,0.5524833,-0.62774609,1.9238717)" gradientUnits="userSpaceOnUse" xlink:href="#linearGradient8589"/><radialGradient id="radialGradient3679" cx="8.12" cy="6.628" r="9" fx="8.12" fy="6.628" gradientTransform="matrix(0.01444031,2.0653773,-3.052092,0.02133905,27.231754,-9.638481)" gradientUnits="userSpaceOnUse" xlink:href="#linearGradient3174"/><filter id="filter3720" width="1.362" height="1.358" x="-.181" y="-.179" color-interpolation-filters="sRGB"><feGaussianBlur id="feGaussianBlur3722" stdDeviation=".496"/></filter><linearGradient id="linearGradient3174"><stop id="stop3176" offset="0" stop-color="#ffed8c" stop-opacity="1"/><stop id="stop3178" offset=".397" stop-color="#fb9858" stop-opacity="1"/><stop id="stop3180" offset="1" stop-color="#dc572a" stop-opacity="1"/></linearGradient><linearGradient id="linearGradient2490-113"><stop id="stop3468" offset="0" stop-color="#791116" stop-opacity="1"/><stop id="stop3470" offset="1" stop-color="#dd7126" stop-opacity="1"/></linearGradient></defs><g id="layer1" transform="translate(0,-2)"><path id="path4160" fill="url(#radialGradient3679)" fill-opacity="1" stroke="url(#linearGradient2664)" stroke-dasharray="none" stroke-dashoffset="0" stroke-linecap="butt" stroke-linejoin="round" stroke-miterlimit="4" stroke-opacity="1" stroke-width="1" d="m 2.4999608,2.499961 c 3.8955799,0 7.6044552,0 11.5000382,0 0.683368,0.2372969 4.541325,3.12817 5.5,5.000039 0,5.729157 3.9e-5,10.270842 3.9e-5,16 l -17.0000772,0 c 0,-7.33336 0,-13.6666811 0,-21.000039 z" display="inline"/><path font-stretch="normal" style="text-align:start;line-height:125%" id="path3349" fill="#fff" fill-opacity="1" stroke="none" d="m 4.0696145,20.798351 c 0,-0.346563 0.1166201,-0.637512 0.3498365,-0.872849 0.2332313,-0.239596 0.5185176,-0.3594 0.8558589,-0.35941 0.329009,10e-6 0.6080479,0.119814 0.8371095,0.35941 0.2332239,0.235337 0.3498357,0.526286 0.3498357,0.872849 0,0.338024 -0.1166118,0.626834 -0.3498357,0.86643 -0.2290616,0.235336 -0.5081005,0.353 -0.8371095,0.352991 -0.3373413,9e-6 -0.6226276,-0.117655 -0.8558589,-0.352991 -0.2332164,-0.235318 -0.3498365,-0.524127 -0.3498365,-0.86643 m -0.069615,-5.564899 0,2.049951 c 2.5522025,0 4.6251419,2.130957 4.6251419,4.754597 l 2.0045726,0 c 0,-3.758187 -2.9738574,-6.804548 -6.6297145,-6.804548 z m 0.00345,-4.485552 0,2.265982 c 4.8458029,0 8.7803565,4.042188 8.7803565,9.020562 l 2.216196,0 C 15.000018,15.802523 10.069438,10.7479 4.0034619,10.7479 z" font-family="Bitstream Vera Serif" font-size="13.59" font-style="normal" font-variant="normal" font-weight="bold" opacity=".4" text-anchor="start" writing-mode="lr-tb"/><path id="path4191" fill="url(#radialGradient2659)" fill-opacity="1" d="M 3.1702119,24 C 3.0764249,24 2.9999991,23.91437 2.9999991,23.809277 l 0,-20.5980318 c 0,-0.1052785 0.076426,-0.1907219 0.1702128,-0.1907219 3.5214555,0.052717 7.4238521,-0.078858 10.9410271,0.013125 l 4.838887,4.3271368 0.04987,16.4484919 C 18.999999,23.914366 18.923742,24 18.829785,24 L 3.1702119,24 z" opacity=".15"/><path font-stretch="normal" style="text-align:start;line-height:125%" id="path4311" fill="#8a3a12" fill-opacity="1" stroke="none" d="m 4.0696145,20.050165 c 0,-0.346563 0.1166201,-0.637512 0.3498365,-0.872849 0.2332313,-0.239595 0.5185176,-0.3594 0.8558589,-0.359408 0.329009,8e-6 0.6080487,0.119813 0.8371102,0.359408 0.2332232,0.235337 0.349835,0.526286 0.349835,0.872849 0,0.338025 -0.1166118,0.626835 -0.349835,0.866432 -0.2290615,0.235335 -0.5081012,0.352998 -0.8371102,0.352992 -0.3373413,6e-6 -0.6226276,-0.117657 -0.8558589,-0.352992 C 4.1862346,20.681279 4.0696145,20.392469 4.0696145,20.050165 m -0.069615,-5.564898 0,2.049951 c 2.5522032,0 4.6251419,2.130959 4.6251419,4.754597 l 2.0045726,0 c 0,-3.758186 -2.9738574,-6.804548 -6.6297145,-6.804548 z m 0.00345,-4.485552 0,2.265983 c 4.8458029,0 8.7803575,4.042187 8.7803575,9.020563 l 2.216196,0 C 15.000018,15.054337 10.069438,9.999715 4.0034619,9.999715 z" font-family="Bitstream Vera Serif" font-size="13.59" font-style="normal" font-variant="normal" font-weight="bold" text-anchor="start" writing-mode="lr-tb"/><path id="path2435" fill="none" stroke="url(#linearGradient2656)" stroke-dasharray="none" stroke-dashoffset="0" stroke-linecap="butt" stroke-linejoin="miter" stroke-miterlimit="4" stroke-opacity="1" stroke-width="1" d="m 18.5,7.6770357 c 0,5.2083053 0,10.6146573 0,15.8229643 -5,0 -9.9999997,0 -15.0000009,0 0,-6.66667 0,-13.333334 0,-20.0000001 3.4372614,0 6.9564989,0 10.3937609,0" display="inline" opacity=".6"/><path id="path3370" fill="#000" fill-opacity=".706" fill-rule="evenodd" stroke="none" d="m 13.075473,3 c 1.156303,0.3287671 0.339059,4.6143789 0.339059,4.6143789 0,0 4.515388,-0.4277362 5.60771,1.1949961 1.489153,2.212257 -0.06822,-0.6351721 -0.173447,-0.8216972 C 18.092867,6.6476323 14.982455,3.4405918 13.803386,3.0464703 13.715154,3.0169778 13.51951,3 13.075473,3 z" display="inline" filter="url(#filter3720)"/><path id="path4474" fill="url(#linearGradient2652)" fill-opacity="1" fill-rule="evenodd" stroke="none" d="m 12.999999,2 c 1.526166,0 1,5 1,5 0,0 6.074781,-0.45326 6.074781,2 C 20.07478,8.4022581 20.11982,7.1774988 20,7 19.160893,5.7569942 15.329245,2.3178781 14,2 13.90952,1.978362 13.444037,2 13,2 z" display="inline"/></g></svg>