<svg xmlns="http://www.w3.org/2000/svg" xmlns:svg="http://www.w3.org/2000/svg" xmlns:xlink="http://www.w3.org/1999/xlink" id="svg2755" width="22" height="22" version="1.0"><defs id="defs2757"><linearGradient id="linearGradient3681"><stop id="stop3683" offset="0" stop-color="#f89b7e" stop-opacity="1"/><stop id="stop3685" offset=".25" stop-color="#e35d4f" stop-opacity="1"/><stop id="stop3687" offset=".752" stop-color="#c6262e" stop-opacity="1"/><stop id="stop3689" offset="1" stop-color="#690b2c" stop-opacity="1"/></linearGradient><linearGradient id="linearGradient3104"><stop id="stop3106" offset="0" stop-color="#791235" stop-opacity="1"/><stop id="stop3108" offset="1" stop-color="#dd3b27" stop-opacity="1"/></linearGradient><linearGradient id="linearGradient2664" x1="-53.412" x2="-51.786" y1="56.11" y2="2.906" gradientTransform="matrix(0.39222413,0,0,0.44736043,28.199995,0.76130823)" gradientUnits="userSpaceOnUse" xlink:href="#linearGradient3104"/><radialGradient id="XMLID_8_" cx="102" cy="112.305" r="139.559" gradientUnits="userSpaceOnUse"><stop id="stop41" offset="0" stop-color="#000" stop-opacity="1"/><stop id="stop47" offset=".189" stop-color="#000" stop-opacity="1"/><stop id="stop49" offset=".257" stop-color="#fafafa" stop-opacity="0"/><stop id="stop51" offset=".301" stop-color="#fff" stop-opacity="0"/><stop id="stop53" offset=".531" stop-color="#fafafa" stop-opacity="0"/><stop id="stop55" offset=".845" stop-color="#ebecec" stop-opacity="0"/><stop id="stop57" offset="1" stop-color="#e1e2e3" stop-opacity="0"/></radialGradient><radialGradient id="radialGradient2659" cx="102" cy="112.305" r="139.559" gradientTransform="matrix(0.17021741,0,0,-0.19072249,0.10632404,25.716497)" gradientUnits="userSpaceOnUse" xlink:href="#XMLID_8_"/><linearGradient id="linearGradient3211"><stop id="stop3213" offset="0" stop-color="#fff" stop-opacity="1"/><stop id="stop3215" offset="1" stop-color="#fff" stop-opacity="0"/></linearGradient><linearGradient id="linearGradient2656" x1="24" x2="24" y1="2" y2="46.017" gradientTransform="matrix(0.45455672,0,0,0.46511502,0.09087503,2.3372363)" gradientUnits="userSpaceOnUse" xlink:href="#linearGradient3211"/><linearGradient id="linearGradient8589"><stop id="stop8591" offset="0" stop-color="#fefefe" stop-opacity="1"/><stop id="stop8593" offset="1" stop-color="#cbcbcb" stop-opacity="1"/></linearGradient><linearGradient id="linearGradient2652" x1="32.892" x2="36.358" y1="8.059" y2="5.457" gradientTransform="matrix(0.47785953,0,0,0.55248297,-0.62782413,1.9238789)" gradientUnits="userSpaceOnUse" xlink:href="#linearGradient8589"/><linearGradient id="linearGradient4246"><stop id="stop4248" offset="0" stop-color="#fff" stop-opacity="1"/><stop id="stop4250" offset="1" stop-color="#dcdcdc" stop-opacity="1"/></linearGradient><linearGradient id="linearGradient2888" x1="23.97" x2="23.97" y1="3.981" y2="44.024" gradientTransform="matrix(0.42106405,0,0,0.52631565,0.89469928,0.36842878)" gradientUnits="userSpaceOnUse" xlink:href="#linearGradient4246"/><radialGradient id="radialGradient3679" cx="8.12" cy="6.628" r="9" fx="8.12" fy="6.628" gradientTransform="matrix(0.0144407,2.0653761,-3.0521747,0.02133904,27.232431,-9.638467)" gradientUnits="userSpaceOnUse" xlink:href="#linearGradient3681"/><filter id="filter3720" width="1.362" height="1.358" x="-.181" y="-.179" color-interpolation-filters="sRGB"><feGaussianBlur id="feGaussianBlur3722" stdDeviation=".496"/></filter></defs><g id="layer1" transform="translate(0,-2)"><path id="path4160" fill="url(#radialGradient3679)" fill-opacity="1" stroke="url(#linearGradient2664)" stroke-dasharray="none" stroke-dashoffset="0" stroke-linecap="butt" stroke-linejoin="round" stroke-miterlimit="4" stroke-opacity="1" stroke-width="1" d="m 2.4999674,2.4999679 c 3.8956854,0 7.6046606,0 11.5003496,0 0.683386,0.2372968 4.541448,3.1281681 5.500149,5.000036 0,5.7291531 3.9e-5,10.2708411 3.9e-5,15.9999961 -5.666847,0 -11.3336914,0 -17.0005376,0 0,-7.333356 0,-13.6666786 0,-21.0000321 z" display="inline"/><path id="path6711" fill="url(#linearGradient2888)" fill-opacity="1" fill-rule="evenodd" stroke="none" d="M 12.60322,3.0000066 C 7.1494997,8.8582264 4.036308,9.6820783 3.0000193,9.7732602 l 0,2.1075578 C 3.7822098,11.744096 5.7444667,11.26973 7.8383858,9.6279115 10.523365,7.5226498 13.735604,3.5232623 13.735604,3.5232623 12.855259,5.6850428 12.605523,13.142551 12.588514,23 l 6.411938,0 c 0,-0.547757 0,-0.43763 0,-0.988373 C 17.957183,19.317989 17.276944,15.4314 16.765098,11.953492 16.462642,9.0802345 16.569224,7.0122289 16.810228,5.2821578 15.906041,4.523381 14.164984,3.3347447 13.596641,3.0000066 l -0.993422,0 z m -9.6032007,10.2034854 0,2.340116 C 5.264153,15.543607 8.7428564,18.940084 10.426691,23 l 1.411802,0 C 11.047302,19.30914 4.7273709,13.203492 3.0000193,13.203492 z"/><path id="path6713" fill="#000" fill-opacity="1" fill-rule="evenodd" stroke="none" d="M 15.939343,4.8604711 C 13.18916,6.7394651 7.5706928,9.9831612 3.0000193,9.4664092 l 0,4.1781198 c 0,-1e-6 12.3080257,2.190748 16.0004327,-2.436057 l 0,-3.6721468 C 18.362899,6.6833209 16.949543,5.6171178 15.939343,4.8604711 z M 19.000452,15.508411 C 17.531892,17.114201 15.729351,20.286692 14.465147,23 L 12.88264,22.98674 c 1.476706,-3.814926 3.864552,-7.562232 6.117812,-10.219295 l 0,2.740966 z" opacity=".15"/><path id="path4191" fill="url(#radialGradient2659)" fill-opacity="1" d="m 3.1702367,23.999994 c -0.09379,0 -0.1702174,-0.08563 -0.1702174,-0.190723 l 0,-20.5980193 c 0,-0.1052785 0.076428,-0.1907218 0.1702174,-0.1907218 3.5215508,0.052717 7.4240533,-0.078858 10.9413233,0.013125 l 4.839018,4.3271342 0.04987,16.4484819 c 3e-6,0.105089 -0.07626,0.190723 -0.170215,0.190723 l -15.6599973,0 z" opacity=".24"/><path id="path2435" fill="none" stroke="url(#linearGradient2656)" stroke-dasharray="none" stroke-dashoffset="0" stroke-linecap="butt" stroke-linejoin="miter" stroke-miterlimit="4" stroke-opacity="1" stroke-width="1" d="m 18.50044,7.6770395 c 0,5.2083015 0,9.6146565 0,14.8229605 -5.000136,0 -10.0002707,0 -15.0004072,0 0,-6.666666 0,-12.333332 0,-18.9999938 3.4373544,0 6.9566872,0 10.3940422,0" display="inline" opacity=".6"/><path id="path3370" fill="#000" fill-opacity=".706" fill-rule="evenodd" stroke="none" d="m 13.075473,2.0000002 c 1.156303,0.3287671 0.339059,4.6143789 0.339059,4.6143789 0,0 4.515388,-0.4277362 5.60771,1.1949961 1.489153,2.2122568 -0.06822,-0.6351721 -0.173447,-0.8216972 -0.755928,-1.3400455 -3.86634,-4.547086 -5.045409,-4.9412075 -0.08823,-0.029492 -0.283876,-0.04647 -0.727913,-0.04647 z" display="inline" filter="url(#filter3720)" transform="matrix(1.0000271,0,0,0.9999994,-6.1046652e-5,1.0000076)"/><path id="path4474" fill="url(#linearGradient2652)" fill-opacity="1" fill-rule="evenodd" stroke="none" d="m 13.00029,2.0000072 c 1.526207,0 1.000027,4.999997 1.000027,4.999997 0,0 6.074945,-0.4532597 6.074945,1.9999988 0,-0.5977415 0.04504,-1.8225001 -0.07478,-1.9999988 -0.839129,-1.243005 -4.670881,-4.6821191 -6.000162,-4.999997 -0.09048,-0.021638 -0.555978,0 -1.000027,0 z" display="inline"/></g></svg>