<svg xmlns="http://www.w3.org/2000/svg" xmlns:svg="http://www.w3.org/2000/svg" xmlns:xlink="http://www.w3.org/1999/xlink" id="svg3386" width="22" height="22" version="1.0"><defs id="defs3388"><linearGradient id="linearGradient3104"><stop id="stop3106" offset="0" stop-color="#aaa" stop-opacity="1"/><stop id="stop3108" offset="1" stop-color="#c8c8c8" stop-opacity="1"/></linearGradient><linearGradient id="linearGradient3600"><stop id="stop3602" offset="0" stop-color="#f4f4f4" stop-opacity="1"/><stop id="stop3604" offset="1" stop-color="#dbdbdb" stop-opacity="1"/></linearGradient><radialGradient id="XMLID_8_" cx="102" cy="112.305" r="139.559" gradientUnits="userSpaceOnUse"><stop id="stop41" offset="0" stop-color="#b7b8b9" stop-opacity="1"/><stop id="stop47" offset=".174" stop-color="#ececec" stop-opacity="1"/><stop id="stop49" offset=".239" stop-color="#fafafa" stop-opacity="0"/><stop id="stop51" offset=".301" stop-color="#fff" stop-opacity="0"/><stop id="stop53" offset=".531" stop-color="#fafafa" stop-opacity="0"/><stop id="stop55" offset=".845" stop-color="#ebecec" stop-opacity="0"/><stop id="stop57" offset="1" stop-color="#e1e2e3" stop-opacity="0"/></radialGradient><linearGradient id="linearGradient3211"><stop id="stop3213" offset="0" stop-color="#fff" stop-opacity="1"/><stop id="stop3215" offset="1" stop-color="#fff" stop-opacity="0"/></linearGradient><linearGradient id="linearGradient8589"><stop id="stop8591" offset="0" stop-color="#fefefe" stop-opacity="1"/><stop id="stop8593" offset="1" stop-color="#cbcbcb" stop-opacity="1"/></linearGradient><linearGradient id="linearGradient2425" x1="32.892" x2="36.358" y1="8.059" y2="5.457" gradientTransform="matrix(0.4778466,0,0,0.5524833,-0.62774609,-0.076128)" gradientUnits="userSpaceOnUse" xlink:href="#linearGradient8589"/><linearGradient id="linearGradient2429" x1="24" x2="24" y1="2" y2="46.017" gradientTransform="matrix(0.4545444,0,0,0.4651153,0.09093361,0.337229)" gradientUnits="userSpaceOnUse" xlink:href="#linearGradient3211"/><radialGradient id="radialGradient2432" cx="92.09" cy="102.703" r="139.559" fx="92.09" fy="102.703" gradientTransform="matrix(0.1702128,0,0,-0.1907226,0.10638221,23.716504)" gradientUnits="userSpaceOnUse" xlink:href="#XMLID_8_"/><linearGradient id="linearGradient2435" x1="25.132" x2="25.132" y1=".985" y2="47.013" gradientTransform="matrix(0.4857154,0,0,0.4780255,-0.65717039,-0.70595)" gradientUnits="userSpaceOnUse" xlink:href="#linearGradient3600"/><linearGradient id="linearGradient2438" x1="-51.786" x2="-51.786" y1="50.786" y2="2.906" gradientTransform="matrix(0.3922135,0,0,0.4473607,28.199292,-1.2387)" gradientUnits="userSpaceOnUse" xlink:href="#linearGradient3104"/></defs><path id="path4160" fill="url(#linearGradient2435)" fill-opacity="1" stroke="url(#linearGradient2438)" stroke-dasharray="none" stroke-dashoffset="0" stroke-linecap="butt" stroke-linejoin="round" stroke-miterlimit="4" stroke-opacity="1" stroke-width="1" d="m 2.4999608,0.499961 c 3.8955799,0 7.6044552,0 11.5000382,0 0.683368,0.237297 4.541325,3.12817 5.5,5.000039 0,5.729157 3.9e-5,10.270842 3.9e-5,16 l -17.0000772,0 c 0,-7.33336 0,-13.666681 0,-21.000039 z" display="inline"/><path id="path4191" fill="url(#radialGradient2432)" fill-opacity="1" d="M 3.1702119,22 C 3.0764249,22 2.9999991,21.91437 2.9999991,21.809277 l 0,-20.598032 c 0,-0.105278 0.076426,-0.190722 0.1702128,-0.190722 3.5214555,0.05272 7.4238521,-0.07886 10.9410271,0.01312 l 4.838887,4.327137 0.04987,16.448492 C 18.999999,21.914366 18.923742,22 18.829785,22 L 3.1702119,22 z"/><path id="path2435" fill="none" stroke="url(#linearGradient2429)" stroke-dasharray="none" stroke-dashoffset="0" stroke-linecap="butt" stroke-linejoin="miter" stroke-miterlimit="4" stroke-opacity="1" stroke-width="1" d="m 18.5,5.677036 c 0,5.208305 0,10.614657 0,15.822964 -5,0 -9.9999997,0 -15.0000009,0 0,-6.66667 0,-13.333334 0,-20 3.4372614,0 6.9564989,0 10.3937609,0" display="inline" opacity=".6"/><path id="path3370" fill="#000" fill-opacity="1" fill-rule="evenodd" stroke="none" d="m 13.075473,1 c 1.156303,0.328767 0.339059,4.614379 0.339059,4.614379 0,0 4.515388,-0.427736 5.60771,1.194996 C 20.511395,9.021632 18.954022,6.174203 18.848795,5.987678 18.092867,4.647632 14.982455,1.440592 13.803386,1.04647 13.715154,1.016978 13.51951,1 13.075473,1 z" display="inline" opacity=".2"/><path id="path4474" fill="url(#linearGradient2425)" fill-opacity="1" fill-rule="evenodd" stroke="none" d="m 12.999999,1 c 1.526166,0 1,4 1,4 0,0 4.992074,-0.45326 4.992074,2 0,-0.597742 0.05575,-1.478434 -0.06407,-1.655933 C 18.088896,4.101062 15.184238,1.48218 14.129934,1.04647 14.043956,1.010938 13.444036,1 12.999999,1 z" display="inline"/><path font-stretch="normal" style="text-align:start;line-height:100%;-inkscape-font-specification:URW Palladio L Bold" id="text3482" fill="#000" fill-opacity="1" stroke="none" d="m 7.9999991,12.851312 c 0.133856,0.363882 0.284521,0.658836 0.605452,0.255527 0.397883,-0.236731 1.7310429,-1.274394 1.5976439,-0.257979 -0.4268769,1.880812 -0.9464809,3.741845 -1.3437769,5.628452 -0.415429,1.033002 0.52793,1.967395 1.5128649,1.295629 1.046924,-0.431584 1.947798,-1.134561 2.868143,-1.779436 -0.125575,-0.307965 -0.209273,-0.750354 -0.556249,-0.347606 -0.455597,0.20679 -1.450673,1.181728 -1.635539,0.377622 0.382698,-2.03658 1.09175,-3.99777 1.544989,-6.018111 0.417097,-0.928949 -0.264105,-2.102709 -1.283786,-1.334271 -1.221604,0.532048 -2.2431849,1.401171 -3.3097419,2.180173 z M 12.533764,6.001595 c -1.246397,-0.06615 -1.898056,1.943082 -0.713613,2.492897 0.96093,0.394087 2.00721,-0.59147 1.772459,-1.576268 C 13.51976,6.405432 13.059368,5.984346 12.533765,6.001595 l -1e-6,0 z" font-family="URW Palladio L" font-size="40" font-style="normal" font-variant="normal" font-weight="bold" opacity=".6" text-anchor="start" writing-mode="lr-tb"/><path font-stretch="normal" style="text-align:start;line-height:100%;-inkscape-font-specification:URW Palladio L Bold" id="path3536" fill="#fff" fill-opacity="1" stroke="none" d="m 7.9999991,13.451312 c 0.133856,0.363882 0.284521,0.658836 0.605452,0.255527 0.397883,-0.236731 1.7310429,-1.274393 1.5976439,-0.257979 -0.4268769,1.880812 -0.9464809,3.741845 -1.3437769,5.628452 -0.415429,1.033002 0.52793,1.967395 1.5128649,1.295629 1.046924,-0.431584 1.947798,-1.134561 2.868143,-1.779436 -0.125575,-0.307965 -0.209273,-0.750354 -0.556249,-0.347606 -0.455597,0.20679 -1.450673,1.181728 -1.635539,0.377622 0.382698,-2.03658 1.09175,-3.99777 1.544989,-6.018111 0.417097,-0.928948 -0.264105,-2.102709 -1.283786,-1.334271 -1.221604,0.532049 -2.2431849,1.401171 -3.3097419,2.180173 z M 12.533764,6.601593 C 11.287367,6.535453 10.635708,8.544675 11.820151,9.09449 12.781081,9.488576 13.827361,8.50302 13.59261,7.518222 13.51976,7.005429 13.059368,6.584343 12.533765,6.601593 l -1e-6,0 z" font-family="URW Palladio L" font-size="40" font-style="normal" font-variant="normal" font-weight="bold" opacity=".4" text-anchor="start" writing-mode="lr-tb"/></svg>