<svg xmlns="http://www.w3.org/2000/svg" xmlns:svg="http://www.w3.org/2000/svg" xmlns:xlink="http://www.w3.org/1999/xlink" id="svg3115" width="22" height="22" version="1.1"><defs id="defs3117"><linearGradient id="linearGradient2988" x1="17.976" x2="17.976" y1="17.984" y2="6.029" gradientUnits="userSpaceOnUse" xlink:href="#linearGradient2490-3-5"/><linearGradient id="linearGradient2490-3-5"><stop id="stop2492-3-33" offset="0" stop-color="#365f0e" stop-opacity="1"/><stop id="stop2494-8-83" offset="1" stop-color="#84a718" stop-opacity="1"/></linearGradient><linearGradient id="linearGradient2996" x1="32.892" x2="36.358" y1="8.059" y2="5.457" gradientTransform="matrix(0.4778466,0,0,0.5524833,-0.6277461,-6.0761284)" gradientUnits="userSpaceOnUse" xlink:href="#linearGradient8589"/><linearGradient id="linearGradient8589"><stop id="stop8591" offset="0" stop-color="#fefefe" stop-opacity="1"/><stop id="stop8593" offset="1" stop-color="#cbcbcb" stop-opacity="1"/></linearGradient><linearGradient id="linearGradient3003" x1="24" x2="24" y1="2" y2="46.017" gradientTransform="matrix(0.4545444,0,0,0.4418595,0.0909336,-5.6046323)" gradientUnits="userSpaceOnUse" xlink:href="#linearGradient3211"/><linearGradient id="linearGradient3211"><stop id="stop3213" offset="0" stop-color="#fff" stop-opacity="1"/><stop id="stop3215" offset="1" stop-color="#fff" stop-opacity="0"/></linearGradient><linearGradient id="linearGradient3242-7-5-0"><stop id="stop3244-5-2-4" offset="0" stop-color="#eef87e" stop-opacity="1"/><stop id="stop3246-9-2-4" offset=".262" stop-color="#cde34f" stop-opacity="1"/><stop id="stop3248-7-2-4" offset=".661" stop-color="#93b723" stop-opacity="1"/><stop id="stop3250-8-70-4" offset="1" stop-color="#5a7e0d" stop-opacity="1"/></linearGradient><linearGradient id="linearGradient2490-3-4-6"><stop id="stop2492-3-6-3" offset="0" stop-color="#365f0e" stop-opacity="1"/><stop id="stop2494-8-3-1" offset="1" stop-color="#84a718" stop-opacity="1"/></linearGradient><radialGradient id="radialGradient3111" cx="24" cy="4.5" r="18" fx="24" fy="4.5" gradientTransform="matrix(0,1.4601221,-1.595671,0,18.180518,-40.781578)" gradientUnits="userSpaceOnUse" xlink:href="#linearGradient3242-7-5-0"/><linearGradient id="linearGradient3113" x1="-51.786" x2="-51.786" y1="50.786" y2="2.906" gradientTransform="matrix(0.39221362,0,0,0.42702619,28.199292,-7.1596897)" gradientUnits="userSpaceOnUse" xlink:href="#linearGradient2490-3-4-6"/></defs><metadata id="metadata3120"/><g id="layer1" transform="translate(0,6)"><path id="path4160" fill="url(#radialGradient3111)" fill-opacity="1" fill-rule="nonzero" stroke="url(#linearGradient3113)" stroke-dasharray="none" stroke-dashoffset="0" stroke-linecap="butt" stroke-linejoin="round" stroke-miterlimit="4" stroke-opacity="1" stroke-width="1" d="m 2.4999608,-5.5000391 c 3.8955799,0 7.6044552,0 11.5000382,0 0.683368,0.2372969 4.541325,3.12817 5.5,5.000039 0,5.7291571 3.9e-5,10.2708421 3.9e-5,16.0000001 l -17.0000772,0 c 0,-7.33336 0,-13.6666812 0,-21.0000391 l 0,0 z" color="#000" display="inline" enable-background="accumulate" overflow="visible" visibility="visible" style="marker:none"/><path id="path2435" fill="none" stroke="url(#linearGradient3003)" stroke-dasharray="none" stroke-dashoffset="0" stroke-linecap="butt" stroke-linejoin="miter" stroke-miterlimit="4" stroke-opacity="1" stroke-width="1" d="m 18.5,-0.5318162 c 0,4.9478902 0,10.0839242 0,15.0318162 -5,0 -9.9999997,0 -15.0000009,0 0,-6.333337 0,-12.6666677 0,-19.0000002 3.4372614,0 6.9564989,0 10.3937609,0" display="inline" opacity=".4"/><path id="path3370" fill="#000" fill-opacity="1" fill-rule="evenodd" stroke="none" d="m 13.075473,-5.0000001 c 1.156303,0.3287671 0.339059,4.6143789 0.339059,4.6143789 0,0 4.515388,-0.4277362 5.60771,1.1949961 1.489153,2.2122567 -0.06822,-0.6351721 -0.173447,-0.8216972 -0.755928,-1.3400455 -3.86634,-4.547086 -5.045409,-4.9412075 -0.08823,-0.029492 -0.283876,-0.04647 -0.727913,-0.04647 z" display="inline" opacity=".2"/><path id="path4474" fill="url(#linearGradient2996)" fill-opacity="1" fill-rule="evenodd" stroke="none" d="m 12.999999,-5.0000001 c 1.526166,0 1,4 1,4 0,0 4.992074,-0.45326 4.992074,2 0,-0.5977419 0.05575,-1.4784338 -0.06407,-1.6559326 -0.839107,-1.2430058 -3.743765,-3.8618871 -4.798069,-4.2975971 -0.08598,-0.035532 -0.685898,-0.04647 -1.129935,-0.04647 z" display="inline"/><path id="path4014" fill="url(#linearGradient2988)" fill-opacity="1" fill-rule="nonzero" stroke="none" stroke-width=".48" d="M 9.34375,6.03125 A 1.4769903,1.4769903 0 0 0 8.03125,7.5 l 0,2.53125 -0.53125,0 A 1.4769903,1.4769903 0 0 0 6.40625,12.5 l 4.5,5 a 1.4769903,1.4769903 0 0 0 2.1875,0 l 4.5,-5 A 1.4769903,1.4769903 0 0 0 16.5,10.03125 l -0.53125,0 0,-2.53125 A 1.4769903,1.4769903 0 0 0 14.5,6.03125 l -5,0 a 1.4769903,1.4769903 0 0 0 -0.15625,0 z" color="#000" display="inline" enable-background="accumulate" opacity=".3" overflow="visible" transform="translate(-1.0000008,-5.9995108)" visibility="visible" style="marker:none"/><path id="path3288-2" fill="#f2f2f2" fill-opacity="1" stroke="#fff" stroke-opacity="1" stroke-width=".985" d="m 15.499999,5.507286 -4.500001,5 -4.4999986,-5 2,0 0,-3.9999989 4.9999996,0 0,3.9999989 2,0 z" display="inline" overflow="visible" visibility="visible" style="marker:none"/></g></svg>