<svg xmlns="http://www.w3.org/2000/svg" xmlns:svg="http://www.w3.org/2000/svg" xmlns:xlink="http://www.w3.org/1999/xlink" id="svg3208" width="48" height="48" version="1.0"><defs id="defs3210"><radialGradient id="radialGradient3314" cx="5" cy="41.5" r="5" fx="5" fy="41.5" gradientTransform="matrix(0.5938225,0,0,1.5366531,41.140892,-103.93618)" gradientUnits="userSpaceOnUse" xlink:href="#linearGradient3681"/><linearGradient id="linearGradient3703"><stop id="stop3705" offset="0" stop-color="#000" stop-opacity="0"/><stop id="stop3711" offset=".5" stop-color="#000" stop-opacity="1"/><stop id="stop3707" offset="1" stop-color="#000" stop-opacity="0"/></linearGradient><linearGradient id="linearGradient3312" x1="17.554" x2="17.554" y1="46" y2="35" gradientTransform="matrix(1.7570316,0,0,1.3969574,-17.394014,-16.411698)" gradientUnits="userSpaceOnUse" xlink:href="#linearGradient3703"/><linearGradient id="linearGradient3681"><stop id="stop3683" offset="0" stop-color="#000" stop-opacity="1"/><stop id="stop3685" offset="1" stop-color="#000" stop-opacity="0"/></linearGradient><radialGradient id="radialGradient3310" cx="5" cy="41.5" r="5" fx="5" fy="41.5" gradientTransform="matrix(0.5938225,0,0,1.5366531,-6.6594735,-103.93618)" gradientUnits="userSpaceOnUse" xlink:href="#linearGradient3681"/><linearGradient id="linearGradient3295"><stop id="stop3297" offset="0" stop-color="#c9af8b" stop-opacity="1"/><stop id="stop3299" offset=".239" stop-color="#ad8757" stop-opacity="1"/><stop id="stop3301" offset=".276" stop-color="#c2a57f" stop-opacity="1"/><stop id="stop3303" offset="1" stop-color="#9d7d53" stop-opacity="1"/></linearGradient><linearGradient id="linearGradient3293" x1="15.464" x2="15.464" y1="7.976" y2="45.042" gradientUnits="userSpaceOnUse" xlink:href="#linearGradient3295"/><linearGradient id="linearGradient3199"><stop id="stop3201" offset="0" stop-color="#dac197" stop-opacity="1"/><stop id="stop3203" offset=".239" stop-color="#c1a581" stop-opacity="1"/><stop id="stop3205" offset=".276" stop-color="#dbc298" stop-opacity="1"/><stop id="stop3207" offset="1" stop-color="#a68b60" stop-opacity="1"/></linearGradient><linearGradient id="linearGradient3197" x1="24.823" x2="24.997" y1="15.378" y2="37.277" gradientTransform="matrix(1.2822251,0,0,1.5572619,-6.0701918,-15.290756)" gradientUnits="userSpaceOnUse" xlink:href="#linearGradient3199"/><linearGradient id="linearGradient4559"><stop id="stop4561" offset="0" stop-color="#fff" stop-opacity="0"/><stop id="stop4563" offset="1" stop-color="#fff" stop-opacity="0"/></linearGradient><linearGradient id="linearGradient2659" x1="23.452" x2="43.007" y1="30.555" y2="45.934" gradientTransform="matrix(1.2822251,0,0,1.1746872,-6.0701918,-5.3031677)" gradientUnits="userSpaceOnUse" xlink:href="#linearGradient4559"/><linearGradient id="linearGradient3827"><stop id="stop3829" offset="0" stop-color="#fff" stop-opacity="1"/><stop id="stop4295" offset=".302" stop-color="#fff" stop-opacity="1"/><stop id="stop4293" offset=".344" stop-color="#fff" stop-opacity=".69"/><stop id="stop3832" offset="1" stop-color="#fff" stop-opacity="0"/></linearGradient><linearGradient id="linearGradient3834" x1="26" x2="26" y1="22" y2="8" gradientUnits="userSpaceOnUse" xlink:href="#linearGradient3827"/><linearGradient id="linearGradient3275"><stop id="stop3277" offset="0" stop-color="#fff" stop-opacity="0"/><stop id="stop3283" offset=".245" stop-color="#fff" stop-opacity="1"/><stop id="stop3285" offset=".774" stop-color="#fff" stop-opacity="1"/><stop id="stop3279" offset="1" stop-color="#fff" stop-opacity="0"/></linearGradient><linearGradient id="linearGradient3281" x1="44.995" x2="3.005" y1="17.5" y2="17.5" gradientUnits="userSpaceOnUse" spreadMethod="reflect" xlink:href="#linearGradient3275"/></defs><g id="layer1"><g id="g3305" display="inline" opacity=".4" transform="matrix(0.9926623,0,0,0.9761474,0.2751901,1.2929634)"><rect id="rect2484" width="2.96" height="15.367" x="-3.69" y="-47.848" fill="url(#radialGradient3310)" fill-opacity="1" stroke="none" transform="scale(-1,-1)"/><rect id="rect2486" width="40.412" height="15.367" x="3.69" y="32.482" fill="url(#linearGradient3312)" fill-opacity="1" stroke="none"/><rect id="rect3444" width="2.96" height="15.367" x="44.11" y="-47.848" fill="url(#radialGradient3314)" fill-opacity="1" stroke="none" display="inline" transform="scale(1,-1)"/></g><path id="path2488" fill="url(#linearGradient3197)" fill-opacity="1" fill-rule="nonzero" stroke="url(#linearGradient3293)" stroke-dasharray="none" stroke-dashoffset="0" stroke-linecap="round" stroke-linejoin="miter" stroke-miterlimit="4" stroke-opacity="1" stroke-width=".994" d="m 9.010725,8.5 29.497723,0 c 1.721985,0 2.496922,-0.2865505 2.991552,1 l 3.001734,8 0,25.673912 c 0,1.553304 0.10293,1.315976 -1.619063,1.315976 l -37.7653422,0 c -1.7219924,0 -1.6190635,0.237328 -1.6190635,-1.315976 L 3.4982653,17.5 6.5,9.5 c 0.4808316,-1.2605622 0.7887325,-1 2.510725,-1 z" display="block" overflow="visible" visibility="visible" style="marker:none"/><path id="path2490" fill="none" stroke="url(#linearGradient2659)" stroke-dasharray="none" stroke-dashoffset="0" stroke-linecap="butt" stroke-linejoin="miter" stroke-miterlimit="4" stroke-opacity="1" stroke-width=".742" d="m 9.948194,9.5129459 27.652872,0 c 1.614293,0 2.61338,0.5565361 3.289521,2.0860281 l 2.32894,6.419721 0,23.144557 c 0,1.460676 -0.818759,2.196085 -2.433056,2.196085 l -33.7332031,0 c -1.6142934,0 -2.2727761,-0.808827 -2.2727761,-2.269504 l 0,-23.071138 2.2538109,-6.55736 C 7.4850649,10.275943 8.3338968,9.5129459 9.948194,9.5129459 z" display="block" opacity=".505" overflow="visible" visibility="visible" style="marker:none"/><path id="rect3326" fill="url(#linearGradient3834)" fill-opacity="1" fill-rule="nonzero" stroke="none" stroke-width="1" d="m 22,8 c 1.333333,0 2.666667,0 4,0 0,4.666667 0,9.333333 0,14 -0.393729,0 -0.787458,0 -1.181187,0 -0.403125,0 -0.80625,0 -1.209375,0 -0.324529,0 -0.649057,0 -0.973585,0 C 22.423902,22 22.211951,22 22,22 22,17.333333 22,12.666667 22,8 z" display="inline" enable-background="accumulate" opacity=".4" overflow="visible" visibility="visible" style="marker:none"/><path id="path3273" fill="none" stroke="url(#linearGradient3281)" stroke-linecap="square" stroke-linejoin="miter" stroke-opacity="1" stroke-width="1" d="m 3.5052248,17.5 40.9895502,0" display="inline" opacity=".4"/><path font-stretch="normal" style="text-align:start;line-height:125%;-inkscape-font-specification:URW Gothic L Book" id="text2427" fill="#000" fill-opacity="1" stroke="none" d="m 30.015137,34.494919 c -0.0059,2.204164 0.01206,4.408725 -0.0095,6.612628 0.184595,0.688873 -0.812482,0.483109 -0.650508,1.047914 0,0.402486 0,0.804972 0,1.207458 1.088793,0.05202 2.113594,-0.807571 2.203407,-1.905052 0.09432,-2.318041 0.05259,-4.642358 0.05259,-6.962948 -0.531999,0 -1.063999,0 -1.595999,0 l 10e-6,0 z m 10e-6,-0.720001 c 0.532,0 1.064,0 1.595999,0 0,-0.5 0,-1 0,-1.5 -0.531999,0 -1.063999,0 -1.595999,0 0,0.5 0,1 0,1.5 z m -6.987931,0.720001 c -0.488,0 -0.976,0 -1.463999,0 0,0.296 0,0.592 0,0.888 -0.586313,-0.873692 -1.71207,-1.177234 -2.710233,-1.005845 -1.43786,0.165821 -2.615857,1.39817 -2.79608,2.821426 -0.264329,1.466639 0.401434,3.141916 1.805429,3.775873 1.156261,0.543738 2.707707,0.450044 3.58156,-0.565348 0.22237,-0.297462 0.07853,0.344186 0.119324,0.513141 -0.103716,0.341265 0.286049,0.189049 0.491896,0.220752 0.324034,0 0.648068,0 0.972103,0 0,-2.216 0,-4.432 0,-6.647999 z m -3.467999,1.308001 c 1.020032,-0.04883 1.911868,0.834757 1.946557,1.841087 0.104806,0.944516 -0.477117,2.01841 -1.483058,2.151161 -0.955762,0.215892 -2.084431,-0.305936 -2.325629,-1.303504 -0.314659,-1.044195 0.225573,-2.375825 1.35415,-2.627433 0.165862,-0.04175 0.33703,-0.06135 0.50798,-0.06131 l 0,-10e-7 z m 5.486036,5.339998 c 0.532,0 1.063995,0 1.595995,0 0.0128,-1.352723 -0.02676,-2.707612 0.02199,-4.058859 0.0257,-0.727717 0.701391,-1.253367 1.406016,-1.209141 0,-0.512001 0,-1.024001 0,-1.536001 -0.632967,-0.0731 -1.252543,0.243878 -1.56,0.804001 -0.02792,-0.200696 0.05421,-0.511432 -0.03784,-0.647999 -0.475387,0 -0.950774,0 -1.426161,0 0,2.215999 0,4.431999 0,6.647999 z" font-family="URW Gothic L" font-size="12" font-style="normal" font-variant="normal" font-weight="bold" opacity=".4" text-anchor="start" writing-mode="lr-tb"/></g></svg>