<svg xmlns="http://www.w3.org/2000/svg" xmlns:svg="http://www.w3.org/2000/svg" xmlns:xlink="http://www.w3.org/1999/xlink" id="svg3208" width="48" height="48" version="1.0"><defs id="defs3210"><radialGradient id="radialGradient3314" cx="5" cy="41.5" r="5" fx="5" fy="41.5" gradientTransform="matrix(0.5938225,0,0,1.5366531,41.140892,-103.93618)" gradientUnits="userSpaceOnUse" xlink:href="#linearGradient3681"/><linearGradient id="linearGradient3703"><stop id="stop3705" offset="0" stop-color="#000" stop-opacity="0"/><stop id="stop3711" offset=".5" stop-color="#000" stop-opacity="1"/><stop id="stop3707" offset="1" stop-color="#000" stop-opacity="0"/></linearGradient><linearGradient id="linearGradient3312" x1="17.554" x2="17.554" y1="46" y2="35" gradientTransform="matrix(1.7570316,0,0,1.3969574,-17.394014,-16.411698)" gradientUnits="userSpaceOnUse" xlink:href="#linearGradient3703"/><linearGradient id="linearGradient3681"><stop id="stop3683" offset="0" stop-color="#000" stop-opacity="1"/><stop id="stop3685" offset="1" stop-color="#000" stop-opacity="0"/></linearGradient><radialGradient id="radialGradient3310" cx="5" cy="41.5" r="5" fx="5" fy="41.5" gradientTransform="matrix(0.5938225,0,0,1.5366531,-6.6594735,-103.93618)" gradientUnits="userSpaceOnUse" xlink:href="#linearGradient3681"/><linearGradient id="linearGradient3295"><stop id="stop3297" offset="0" stop-color="#c9af8b" stop-opacity="1"/><stop id="stop3299" offset=".239" stop-color="#ad8757" stop-opacity="1"/><stop id="stop3301" offset=".276" stop-color="#c2a57f" stop-opacity="1"/><stop id="stop3303" offset="1" stop-color="#9d7d53" stop-opacity="1"/></linearGradient><linearGradient id="linearGradient3293" x1="15.464" x2="15.464" y1="7.976" y2="45.042" gradientUnits="userSpaceOnUse" xlink:href="#linearGradient3295"/><linearGradient id="linearGradient3199"><stop id="stop3201" offset="0" stop-color="#dac197" stop-opacity="1"/><stop id="stop3203" offset=".239" stop-color="#c1a581" stop-opacity="1"/><stop id="stop3205" offset=".276" stop-color="#dbc298" stop-opacity="1"/><stop id="stop3207" offset="1" stop-color="#a68b60" stop-opacity="1"/></linearGradient><linearGradient id="linearGradient3197" x1="24.823" x2="24.997" y1="15.378" y2="37.277" gradientTransform="matrix(1.2822251,0,0,1.5572619,-6.0701918,-15.290756)" gradientUnits="userSpaceOnUse" xlink:href="#linearGradient3199"/><linearGradient id="linearGradient4559"><stop id="stop4561" offset="0" stop-color="#fff" stop-opacity="0"/><stop id="stop4563" offset="1" stop-color="#fff" stop-opacity="0"/></linearGradient><linearGradient id="linearGradient2659" x1="23.452" x2="43.007" y1="30.555" y2="45.934" gradientTransform="matrix(1.2822251,0,0,1.1746872,-6.0701918,-5.3031677)" gradientUnits="userSpaceOnUse" xlink:href="#linearGradient4559"/><linearGradient id="linearGradient3827"><stop id="stop3829" offset="0" stop-color="#fff" stop-opacity="1"/><stop id="stop4295" offset=".302" stop-color="#fff" stop-opacity="1"/><stop id="stop4293" offset=".344" stop-color="#fff" stop-opacity=".69"/><stop id="stop3832" offset="1" stop-color="#fff" stop-opacity="0"/></linearGradient><linearGradient id="linearGradient3834" x1="26" x2="26" y1="22" y2="8" gradientUnits="userSpaceOnUse" xlink:href="#linearGradient3827"/><linearGradient id="linearGradient3275"><stop id="stop3277" offset="0" stop-color="#fff" stop-opacity="0"/><stop id="stop3283" offset=".245" stop-color="#fff" stop-opacity="1"/><stop id="stop3285" offset=".774" stop-color="#fff" stop-opacity="1"/><stop id="stop3279" offset="1" stop-color="#fff" stop-opacity="0"/></linearGradient><linearGradient id="linearGradient3281" x1="44.995" x2="3.005" y1="17.5" y2="17.5" gradientUnits="userSpaceOnUse" spreadMethod="reflect" xlink:href="#linearGradient3275"/></defs><g id="layer1"><g id="g3305" display="inline" opacity=".4" transform="matrix(0.9926623,0,0,0.9761474,0.2751901,1.2929634)"><rect id="rect2484" width="2.96" height="15.367" x="-3.69" y="-47.848" fill="url(#radialGradient3310)" fill-opacity="1" stroke="none" transform="scale(-1,-1)"/><rect id="rect2486" width="40.412" height="15.367" x="3.69" y="32.482" fill="url(#linearGradient3312)" fill-opacity="1" stroke="none"/><rect id="rect3444" width="2.96" height="15.367" x="44.11" y="-47.848" fill="url(#radialGradient3314)" fill-opacity="1" stroke="none" display="inline" transform="scale(1,-1)"/></g><path id="path2488" fill="url(#linearGradient3197)" fill-opacity="1" fill-rule="nonzero" stroke="url(#linearGradient3293)" stroke-dasharray="none" stroke-dashoffset="0" stroke-linecap="round" stroke-linejoin="miter" stroke-miterlimit="4" stroke-opacity="1" stroke-width=".994" d="m 9.010725,8.5 29.497723,0 c 1.721985,0 2.496922,-0.2865505 2.991552,1 l 3.001734,8 0,25.673912 c 0,1.553304 0.10293,1.315976 -1.619063,1.315976 l -37.7653422,0 c -1.7219924,0 -1.6190635,0.237328 -1.6190635,-1.315976 L 3.4982653,17.5 6.5,9.5 c 0.4808316,-1.2605622 0.7887325,-1 2.510725,-1 z" display="block" overflow="visible" visibility="visible" style="marker:none"/><path id="path2490" fill="none" stroke="url(#linearGradient2659)" stroke-dasharray="none" stroke-dashoffset="0" stroke-linecap="butt" stroke-linejoin="miter" stroke-miterlimit="4" stroke-opacity="1" stroke-width=".742" d="m 9.948194,9.5129459 27.652872,0 c 1.614293,0 2.61338,0.5565361 3.289521,2.0860281 l 2.32894,6.419721 0,23.144557 c 0,1.460676 -0.818759,2.196085 -2.433056,2.196085 l -33.7332031,0 c -1.6142934,0 -2.2727761,-0.808827 -2.2727761,-2.269504 l 0,-23.071138 2.2538109,-6.55736 C 7.4850649,10.275943 8.3338968,9.5129459 9.948194,9.5129459 z" display="block" opacity=".505" overflow="visible" visibility="visible" style="marker:none"/><path id="rect3326" fill="url(#linearGradient3834)" fill-opacity="1" fill-rule="nonzero" stroke="none" stroke-width="1" d="m 22,8 c 1.333333,0 2.666667,0 4,0 0,4.666667 0,9.333333 0,14 -0.393729,0 -0.787458,0 -1.181187,0 -0.403125,0 -0.80625,0 -1.209375,0 -0.324529,0 -0.649057,0 -0.973585,0 C 22.423902,22 22.211951,22 22,22 22,17.333333 22,12.666667 22,8 z" display="inline" enable-background="accumulate" opacity=".4" overflow="visible" visibility="visible" style="marker:none"/><path id="path3273" fill="none" stroke="url(#linearGradient3281)" stroke-linecap="square" stroke-linejoin="miter" stroke-opacity="1" stroke-width="1" d="m 3.5052248,17.5 40.9895502,0" display="inline" opacity=".4"/><g id="text2877" fill="#000" fill-opacity="1" stroke="none" font-family="URW Gothic L" font-size="10" font-stretch="normal" font-style="normal" font-variant="normal" font-weight="bold" opacity=".4" transform="translate(0.7596242,0.599945)" style="-inkscape-font-specification:Andale Mono Bold"><path id="path3654" d="m 4.8903758,40.421055 1.33,0 0,-4.33 0.8,0 0,-1.21 -0.8,0 0,-1.85 -1.33,0 0,1.85 -0.65,0 0,1.21 0.65,0 0,4.33"/><path id="path3656" d="m 13.308188,34.881055 -1.22,0 0,0.74 c -0.459999,-0.61 -1.01,-0.87 -1.81,-0.87 -1.639998,0 -2.8199997,1.230002 -2.8199997,2.92 0,1.669998 1.1700017,2.88 2.7899997,2.88 0.78,0 1.310001,-0.250001 1.84,-0.85 l 0,0.72 1.22,0 0,-5.54 m -2.89,1.09 c 0.949999,0 1.63,0.710001 1.63,1.72 0,0.399999 -0.16,0.86 -0.4,1.14 -0.269999,0.32 -0.7,0.5 -1.21,0.5 -0.9699987,0 -1.6399997,-0.660001 -1.6399997,-1.63 0,-1.009999 0.670001,-1.73 1.6199997,-1.73"/><path id="path3658" d="m 14.299751,40.421055 1.33,0 0,-3.08 c 0,-0.859999 0.390001,-1.29 1.19,-1.31 l 0,-1.28 -0.1,0 c -0.57,0 -0.850001,0.16 -1.2,0.67 l 0,-0.54 -1.22,0 0,5.54"/><path id="path3660" d="m 17.682876,40.421055 1.33,0 0,-1.28 -1.33,0 0,1.28"/><path id="path3662" d="m 20.295845,40.421055 1.33,0 0,-7.39 -1.33,0 0,7.39"/><path id="path3664" d="m 22.358188,40.421055 4.22,0 0,-1.19 -2.63,0 2.44,-3.16 0,-1.19 -3.75,0 0,1.19 2.16,0 -2.44,3.16 0,1.19"/><path id="path3666" d="m 27.307563,40.421055 1.33,0 0,-2.73 c 0,-0.55 0.05,-0.92 0.14,-1.15 0.16,-0.36 0.500001,-0.57 0.94,-0.57 0.36,0 0.670001,0.13 0.85,0.35 0.16,0.21 0.23,0.54 0.23,1.06 l 0,3.04 1.33,0 0,-2.73 c 0,-0.62 0.05,-0.93 0.19,-1.19 0.17,-0.34 0.510001,-0.53 0.93,-0.53 0.33,0 0.610001,0.12 0.79,0.34 0.18,0.21 0.25,0.52 0.25,1.07 l 0,3.04 1.33,0 0,-3.2 c 0,-0.669999 -0.12,-1.210001 -0.36,-1.59 -0.349999,-0.56 -1.05,-0.88 -1.88,-0.88 -0.779999,0 -1.33,0.26 -1.78,0.86 -0.379999,-0.6 -0.87,-0.86 -1.63,-0.86 -0.649999,0 -1.05,0.18 -1.44,0.65 l 0,-0.52 -1.22,0 0,5.54"/><path id="path3668" d="m 42.312095,34.881055 -1.22,0 0,0.74 c -0.46,-0.61 -1.010001,-0.87 -1.81,-0.87 -1.639999,0 -2.82,1.230002 -2.82,2.92 0,1.669998 1.170001,2.88 2.79,2.88 0.779999,0 1.31,-0.250001 1.84,-0.85 l 0,0.72 1.22,0 0,-5.54 m -2.89,1.09 c 0.949999,0 1.63,0.710001 1.63,1.72 0,0.399999 -0.160001,0.86 -0.4,1.14 -0.27,0.32 -0.700001,0.5 -1.21,0.5 -0.969999,0 -1.64,-0.660001 -1.64,-1.63 0,-1.009999 0.670001,-1.73 1.62,-1.73"/></g></g></svg>