<svg xmlns="http://www.w3.org/2000/svg" xmlns:svg="http://www.w3.org/2000/svg" xmlns:xlink="http://www.w3.org/1999/xlink" id="svg3624" width="48" height="48" version="1.0"><defs id="defs3626"><linearGradient id="linearGradient5048"><stop id="stop5050" offset="0" stop-color="#000" stop-opacity="0"/><stop id="stop5056" offset=".5" stop-color="#000" stop-opacity="1"/><stop id="stop5052" offset="1" stop-color="#000" stop-opacity="0"/></linearGradient><linearGradient id="linearGradient2643" x1="302.857" x2="302.857" y1="366.648" y2="609.505" gradientTransform="matrix(6.7324884e-2,0,0,1.4700216e-2,-0.3411391,37.040146)" gradientUnits="userSpaceOnUse" xlink:href="#linearGradient5048"/><radialGradient id="radialGradient2640" cx="605.714" cy="486.648" r="117.143" fx="605.714" fy="486.648" gradientTransform="matrix(-2.3039943e-2,0,0,1.4700216e-2,21.62311,37.040176)" gradientUnits="userSpaceOnUse" xlink:href="#linearGradient5060"/><linearGradient id="linearGradient5060"><stop id="stop5062" offset="0" stop-color="#000" stop-opacity="1"/><stop id="stop5064" offset="1" stop-color="#000" stop-opacity="0"/></linearGradient><radialGradient id="radialGradient2637" cx="605.714" cy="486.648" r="117.143" fx="605.714" fy="486.648" gradientTransform="matrix(2.3039948e-2,0,0,1.4700216e-2,26.360882,37.040176)" gradientUnits="userSpaceOnUse" xlink:href="#linearGradient5060"/><linearGradient id="linearGradient2490"><stop id="stop2492" offset="0" stop-color="#2e4a5a" stop-opacity="1"/><stop id="stop2494" offset="1" stop-color="#6e8796" stop-opacity="1"/></linearGradient><linearGradient id="linearGradient2634" x1="-51.786" x2="-51.786" y1="53.624" y2="2.906" gradientTransform="matrix(0.8074968,0,0,0.8948322,59.410232,-2.9805533)" gradientUnits="userSpaceOnUse" xlink:href="#linearGradient2490"/><linearGradient id="linearGradient3993"><stop id="stop3995" offset="0" stop-color="#a3c0d0" stop-opacity="1"/><stop id="stop4001" offset="1" stop-color="#427da1" stop-opacity="1"/></linearGradient><radialGradient id="radialGradient2632" cx="14.766" cy="10.898" r="18" fx="14.766" fy="10.898" gradientTransform="matrix(-2.2703142e-8,2.1357283,-3.5601359,-3.7844828e-8,54.620625,-24.438287)" gradientUnits="userSpaceOnUse" xlink:href="#linearGradient3993"/><radialGradient id="XMLID_8_" cx="102" cy="112.305" r="139.559" gradientUnits="userSpaceOnUse"><stop id="stop41" offset="0" stop-color="#000" stop-opacity="1"/><stop id="stop47" offset=".189" stop-color="#000" stop-opacity="1"/><stop id="stop49" offset=".257" stop-color="#000" stop-opacity="0"/><stop id="stop51" offset="1" stop-color="#000" stop-opacity="0"/></radialGradient><radialGradient id="radialGradient2629" cx="102" cy="112.305" r="139.559" gradientTransform="matrix(0.3617022,0,0,-0.3907784,0.8510637,47.517004)" gradientUnits="userSpaceOnUse" xlink:href="#XMLID_8_"/><linearGradient id="linearGradient4267"><stop id="stop4269" offset="0" stop-color="#c4c4c4" stop-opacity="1"/><stop id="stop4271" offset="1" stop-color="#c4c4c4" stop-opacity="0"/></linearGradient><linearGradient id="linearGradient2623" x1="35.517" x2="34.103" y1="4.858" y2="6.544" gradientUnits="userSpaceOnUse" xlink:href="#linearGradient4267"/><linearGradient id="linearGradient3211"><stop id="stop3213" offset="0" stop-color="#fff" stop-opacity="1"/><stop id="stop3215" offset="1" stop-color="#fff" stop-opacity="0"/></linearGradient><linearGradient id="linearGradient2626" x1="24" x2="24" y1="2" y2="46.017" gradientTransform="matrix(1,0,0,0.9777778,0,-0.9666693)" gradientUnits="userSpaceOnUse" xlink:href="#linearGradient3211"/><filter id="filter3212" width="1.297" height="1.329" x="-.148" y="-.164"><feGaussianBlur id="feGaussianBlur3214" stdDeviation=".774"/></filter><linearGradient id="linearGradient8589"><stop id="stop8591" offset="0" stop-color="#fefefe" stop-opacity="1"/><stop id="stop8593" offset="1" stop-color="#cbcbcb" stop-opacity="1"/></linearGradient><linearGradient id="linearGradient2601" x1="32.892" x2="36.358" y1="8.059" y2="5.457" gradientTransform="matrix(0.9976985,0,0,1.0406866,0.1638029,-1.1057939)" gradientUnits="userSpaceOnUse" xlink:href="#linearGradient8589"/></defs><g id="layer1"><rect id="rect2879" width="32.508" height="3.57" x="7.738" y="42.43" fill="url(#linearGradient2643)" fill-opacity="1" fill-rule="nonzero" stroke="none" stroke-dasharray="none" stroke-dashoffset="0" stroke-linecap="round" stroke-linejoin="miter" stroke-miterlimit="4" stroke-opacity="1" stroke-width="1" marker-end="none" marker-mid="none" marker-start="none" display="inline" opacity=".3" overflow="visible" visibility="visible" style="marker:none"/><path id="path2881" fill="url(#radialGradient2640)" fill-opacity="1" fill-rule="nonzero" stroke="none" stroke-dasharray="none" stroke-dashoffset="0" stroke-linecap="round" stroke-linejoin="miter" stroke-miterlimit="4" stroke-opacity="1" stroke-width="1" marker-end="none" marker-mid="none" marker-start="none" d="M 7.7378475,42.430102 C 7.7378475,42.430102 7.7378475,45.999958 7.7378475,45.999958 C 6.5513473,46.006679 4.869468,45.200135 4.869468,44.2148 C 4.869468,43.229467 6.1935126,42.430103 7.7378475,42.430102 z" display="inline" opacity=".3" overflow="visible" visibility="visible" style="marker:none"/><path id="path2883" fill="url(#radialGradient2637)" fill-opacity="1" fill-rule="nonzero" stroke="none" stroke-dasharray="none" stroke-dashoffset="0" stroke-linecap="round" stroke-linejoin="miter" stroke-miterlimit="4" stroke-opacity="1" stroke-width="1" marker-end="none" marker-mid="none" marker-start="none" d="M 40.246148,42.430102 C 40.246148,42.430102 40.246148,45.999958 40.246148,45.999958 C 41.432648,46.006679 43.114528,45.200135 43.114528,44.2148 C 43.114528,43.229467 41.790483,42.430103 40.246148,42.430102 z" display="inline" opacity=".3" overflow="visible" visibility="visible" style="marker:none"/><path id="path4160" fill="url(#radialGradient2632)" fill-opacity="1" stroke="url(#linearGradient2634)" stroke-dasharray="none" stroke-dashoffset="0" stroke-linecap="butt" stroke-linejoin="round" stroke-miterlimit="4" stroke-opacity="1" stroke-width="1" d="M 6.4999609,0.49719878 C 14.520256,0.49719878 22.540551,0.49719878 30.560847,0.49719878 C 31.086081,2.4573984 36.693941,7.3488015 41.500042,10.123605 C 41.500042,21.583338 41.500042,33.04307 41.500042,44.502803 C 29.833348,44.502803 18.166655,44.502803 6.4999609,44.502803 C 6.4999609,29.834268 6.4999609,15.165733 6.4999609,0.49719878 z" display="inline"/><path id="path4191" fill="url(#radialGradient2629)" fill-opacity="1" d="M 7.3617017,44 C 7.1624047,44 6.9999997,43.824541 6.9999997,43.60922 L 6.9999997,1.4051701 C 6.9999997,1.1894613 7.1624047,1.0143926 7.3617017,1.0143926 C 14.844793,1.1224073 23.137385,0.85281757 30.611384,1.0412872 L 40.894021,9.9073127 L 41,43.60922 C 41,43.824541 40.837957,44 40.638297,44 L 7.3617017,44 z" opacity=".05"/><path id="path4238" fill="none" fill-opacity="1" stroke="url(#linearGradient2623)" stroke-dasharray="none" stroke-dashoffset="0" stroke-linecap="butt" stroke-linejoin="round" stroke-miterlimit="4" stroke-opacity="1" stroke-width="1" d="M 30.560847,0.5 C 31.96778,0.9746531 39.526301,6.3794034 41.500042,10.123605 C 41.500042,21.583338 41.500042,10.949143 41.500042,22.408876 C 1.0542159,38.137806 6.2643971,0.5 30.560847,0.5 z" display="inline"/><path id="path3605" fill="#4a6574" fill-opacity="1" fill-rule="evenodd" stroke="none" stroke-dasharray="none" stroke-linecap="butt" stroke-linejoin="miter" stroke-miterlimit="4" stroke-opacity="1" stroke-width=".85" d="M 17.25,11.6875 C 13.437735,11.687934 8.8392163,14.503489 7,19.15625 C 7,22.791667 7,26.427083 7,30.0625 C 7.8472953,33.393155 9.2040805,35.959929 10.34375,38.71875 L 15.59375,36.53125 C 14.38825,34.061822 12.83854,31.59731 12.28125,30.375 C 10.72107,26.95252 10.151,25.42108 10.28125,22.8125 C 10.4072,20.2905 11.24787,18.73682 12.78125,17.25 C 14.31466,15.76332 16.43577,15.02445 18.96875,15.375 C 24.333229,16.1182 26.05948,20.17832 26.1875,22.15625 C 26.292869,23.78306 25.12139,27.78951 21,27.59375 C 18.142879,27.4578 16.5369,25.87404 16.34375,23.1875 C 16.201459,21.2075 18.11735,19.20893 21.21875,20.21875 C 21.717949,20.38119 21.7517,19.48596 21.1875,19.03125 C 19.734939,17.86067 13.98055,18.30816 14,22.90625 C 14.01803,27.16731 17.4265,30.01215 20.71875,30.03125 C 27.613749,30.07183 28.96775,24.62892 28.71875,20.875 C 28.442859,16.71531 23.19681,11.68681 17.25,11.6875 z" opacity="1"/><path id="path3607" fill="#eeeeec" fill-opacity="1" fill-rule="evenodd" stroke="none" stroke-dasharray="none" stroke-linecap="butt" stroke-linejoin="miter" stroke-miterlimit="4" stroke-opacity="1" stroke-width=".85" d="M 17.25,10.6875 C 13.433524,10.687935 8.83787,13.525976 7,18.1875 C 7,21.8125 7,25.4375 7,29.0625 C 7.8535712,32.392012 9.2040743,34.959929 10.34375,37.71875 L 15.59375,35.53125 C 14.38825,33.06182 12.80729,30.59731 12.25,29.375 C 10.68982,25.95252 10.11974,24.42109 10.25,21.8125 C 10.37595,19.2905 11.24787,17.73681 12.78125,16.25 C 14.31466,14.76332 16.404519,14.02446 18.9375,14.375 C 24.30198,15.1182 26.028209,19.178331 26.15625,21.15625 C 26.26162,22.78306 25.121409,26.78952 21,26.59375 C 18.14288,26.4578 16.536911,24.842791 16.34375,22.15625 C 16.20146,20.17625 18.11733,18.208939 21.21875,19.21875 C 21.71795,19.38119 21.751729,18.48595 21.1875,18.03125 C 19.73494,16.86067 13.98054,17.30817 14,21.90625 C 14.01803,26.16731 17.42652,29.012151 20.71875,29.03125 C 27.61375,29.07183 28.936489,23.628929 28.6875,19.875 C 28.41161,15.71531 23.19684,10.68681 17.25,10.6875 z"/><path id="path3609" fill="#466170" fill-opacity="1" fill-rule="evenodd" stroke="none" stroke-dasharray="none" stroke-linecap="butt" stroke-linejoin="miter" stroke-miterlimit="4" stroke-opacity="1" stroke-width=".85" d="M 37.65625,11.96875 L 32.40625,14.15625 C 33.61172,16.62596 35.19272,19.08978 35.75,20.3125 C 37.31018,23.73499 37.880262,25.26627 37.75,27.875 C 37.62406,30.39658 36.75216,31.919299 35.21875,33.40625 C 33.68536,34.89293 31.595469,35.663191 29.0625,35.3125 C 23.69799,34.56986 21.97179,30.50916 21.84375,28.53125 C 21.73839,26.90472 22.878601,22.89798 27,23.09375 C 29.85712,23.2297 31.4631,24.813469 31.65625,27.5 C 31.79854,29.47987 29.88266,31.478689 26.78125,30.46875 C 26.28202,30.30645 26.248281,31.20155 26.8125,31.65625 C 28.26506,32.82696 34.019448,32.37919 34,27.78125 C 33.98197,23.52033 30.573481,20.64411 27.28125,20.625 C 20.38623,20.58415 19.063521,26.058161 19.3125,29.8125 C 19.58838,33.97177 24.80315,39.001118 30.75,39 C 34.562249,38.99979 39.158066,36.152335 41,31.5 C 41,27.854696 41,24.253614 41,20.625 C 40.14643,17.295468 38.795939,14.727757 37.65625,11.96875 z" opacity=".774"/><path id="path3611" fill="#a9c5d3" fill-opacity="1" fill-rule="evenodd" stroke="none" stroke-dasharray="none" stroke-linecap="butt" stroke-linejoin="miter" stroke-miterlimit="4" stroke-opacity="1" stroke-width=".85" d="M 37.5,10.6875 L 32.25,12.875 C 33.45547,15.34471 35.036471,17.80853 35.59375,19.03125 C 37.15393,22.45374 37.724009,23.98502 37.59375,26.59375 C 37.46781,29.11533 36.595911,30.638049 35.0625,32.125 C 33.52911,33.61168 31.43922,34.381941 28.90625,34.03125 C 23.54174,33.28861 21.815539,29.227911 21.6875,27.25 C 21.58214,25.62347 22.72235,21.61673 26.84375,21.8125 C 29.70087,21.94845 31.306851,23.53222 31.5,26.21875 C 31.64229,28.19862 29.726409,30.19744 26.625,29.1875 C 26.12577,29.0252 26.09203,29.920301 26.65625,30.375 C 28.10881,31.54571 33.894449,31.097941 33.875,26.5 C 33.85697,22.23908 30.41723,19.36286 27.125,19.34375 C 20.22998,19.3029 18.907269,24.776909 19.15625,28.53125 C 19.43213,32.69052 24.646901,37.71987 30.59375,37.71875 C 34.516696,37.718534 39.272306,34.708226 41,29.8125 C 41,26.490962 41,23.208837 41,19.90625 C 40.162743,16.300559 38.7022,13.597835 37.5,10.6875 z"/><path id="path2435" fill="none" fill-opacity="1" stroke="url(#linearGradient2626)" stroke-dasharray="none" stroke-dashoffset="0" stroke-linecap="butt" stroke-linejoin="miter" stroke-miterlimit="4" stroke-opacity="1" stroke-width="1" d="M 40.500039,10.258811 C 40.500039,21.207848 40.500039,32.573221 40.500039,43.522258 C 29.500013,43.522258 18.499987,43.522258 7.4999609,43.522258 C 7.4999609,29.507417 7.4999609,15.492577 7.4999609,1.4777367 C 15.061954,1.4777367 22.804295,1.4777367 30.366289,1.4777367" display="inline" opacity=".4"/><path id="path12038" fill="#000" fill-opacity="1" fill-rule="evenodd" stroke="none" stroke-linecap="butt" stroke-linejoin="miter" stroke-opacity="1" stroke-width="1" d="M 28.617256,0.92125832 C 32.899778,0.92125832 30.770506,9.4044296 30.770506,9.4044296 C 30.770506,9.4044296 41.128148,7.6020829 41.128148,12.223174 C 41.128148,9.6134507 29.825844,1.4945784 28.617256,0.92125832 z" display="inline" filter="url(#filter3212)" opacity=".4"/><path id="path4474" fill="url(#linearGradient2601)" fill-opacity="1" fill-rule="evenodd" stroke="none" stroke-linecap="butt" stroke-linejoin="miter" stroke-opacity="1" stroke-width="1" d="M 28.617256,0.92125832 C 31.803749,0.92125832 30.953016,8.5831368 30.953016,8.5831368 C 30.953016,8.5831368 41.128148,7.6020829 41.128148,12.223174 C 41.128148,11.097235 41.214061,10.290929 40.994371,9.9395812 C 39.416058,7.4154025 32.881194,1.7511811 30.41941,1.008793 C 30.235188,0.95323837 29.544367,0.92125832 28.617256,0.92125832 z" display="inline"/></g></svg>