<svg xmlns="http://www.w3.org/2000/svg" xmlns:svg="http://www.w3.org/2000/svg" xmlns:xlink="http://www.w3.org/1999/xlink" id="svg3783" width="48" height="48" version="1.0"><metadata id="metadata43"/><defs id="defs3785"><linearGradient id="linearGradient3773" x1="25.058" x2="25.058" y1="47.028" y2="39.999" gradientUnits="userSpaceOnUse" xlink:href="#linearGradient3702"/><radialGradient id="radialGradient3771" cx="4.993" cy="43.5" r="2.5" fx="4.993" fy="43.5" gradientTransform="matrix(2.003784,0,0,1.4,-20.01187,-104.4)" gradientUnits="userSpaceOnUse" xlink:href="#linearGradient3688"/><radialGradient id="radialGradient3769" cx="4.993" cy="43.5" r="2.5" fx="4.993" fy="43.5" gradientTransform="matrix(2.003784,0,0,1.4,27.98813,-17.4)" gradientUnits="userSpaceOnUse" xlink:href="#linearGradient3688"/><linearGradient id="linearGradient3702"><stop id="stop3704" offset="0" stop-color="#000" stop-opacity="0"/><stop id="stop3710" offset=".5" stop-color="#000" stop-opacity="1"/><stop id="stop3706" offset="1" stop-color="#000" stop-opacity="0"/></linearGradient><linearGradient id="linearGradient3627" x1="25.058" x2="25.058" y1="47.028" y2="39.999" gradientUnits="userSpaceOnUse" xlink:href="#linearGradient3702"/><radialGradient id="radialGradient3625" cx="4.993" cy="43.5" r="2.5" fx="4.993" fy="43.5" gradientTransform="matrix(2.003784,0,0,1.4,-20.01187,-104.4)" gradientUnits="userSpaceOnUse" xlink:href="#linearGradient3688"/><linearGradient id="linearGradient3688"><stop id="stop3690" offset="0" stop-color="#000" stop-opacity="1"/><stop id="stop3692" offset="1" stop-color="#000" stop-opacity="0"/></linearGradient><radialGradient id="radialGradient3623" cx="4.993" cy="43.5" r="2.5" fx="4.993" fy="43.5" gradientTransform="matrix(2.003784,0,0,1.4,27.98813,-17.4)" gradientUnits="userSpaceOnUse" xlink:href="#linearGradient3688"/><linearGradient id="linearGradient2490"><stop id="stop2492" offset="0" stop-color="#455f0e" stop-opacity="1"/><stop id="stop2494" offset="1" stop-color="#84a718" stop-opacity="1"/></linearGradient><linearGradient id="linearGradient3757" x1="24" x2="24" y1="44" y2="3.899" gradientTransform="matrix(0.7435898,0,0,0.7435898,6.1538498,12.153846)" gradientUnits="userSpaceOnUse" xlink:href="#linearGradient2490"/><linearGradient id="linearGradient3242"><stop id="stop3244" offset="0" stop-color="#eef87e" stop-opacity="1"/><stop id="stop3246" offset=".262" stop-color="#cde34f" stop-opacity="1"/><stop id="stop3248" offset=".661" stop-color="#93b723" stop-opacity="1"/><stop id="stop3250" offset="1" stop-color="#5a7e0d" stop-opacity="1"/></linearGradient><radialGradient id="radialGradient3753" cx="7.44" cy="15.377" r="20" fx="7.44" fy="15.377" gradientTransform="matrix(0,1.7159025,-2.4752027,-5.6670653e-8,54.345979,0.8390795)" gradientUnits="userSpaceOnUse" xlink:href="#linearGradient3242"/><linearGradient id="linearGradient4222"><stop id="stop4224" offset="0" stop-color="#fff" stop-opacity="1"/><stop id="stop4226" offset="1" stop-color="#fff" stop-opacity="0"/></linearGradient><linearGradient id="linearGradient3743" x1="26.959" x2="26.959" y1="0" y2="39.09" gradientUnits="userSpaceOnUse" xlink:href="#linearGradient4222"/><linearGradient id="linearGradient2419" x1="26.959" x2="26.959" y1="0" y2="39.09" gradientTransform="translate(-2.9999999,5.9999999)" gradientUnits="userSpaceOnUse" xlink:href="#linearGradient4222"/><radialGradient id="radialGradient2422" cx="7.44" cy="15.377" r="20" fx="7.44" fy="15.377" gradientTransform="matrix(0,1.7159025,-2.4752027,-5.6670653e-8,51.345979,0.8390795)" gradientUnits="userSpaceOnUse" xlink:href="#linearGradient3242"/><linearGradient id="linearGradient2424" x1="24" x2="24" y1="44" y2="3.899" gradientTransform="matrix(0.7435898,0,0,0.7435898,3.1538499,12.153846)" gradientUnits="userSpaceOnUse" xlink:href="#linearGradient2490"/><radialGradient id="radialGradient2446" cx="4.993" cy="43.5" r="2.5" fx="4.993" fy="43.5" gradientTransform="matrix(2.003784,0,0,1.4,27.98813,-17.4)" gradientUnits="userSpaceOnUse" xlink:href="#linearGradient3688"/><radialGradient id="radialGradient2448" cx="4.993" cy="43.5" r="2.5" fx="4.993" fy="43.5" gradientTransform="matrix(2.003784,0,0,1.4,-20.01187,-104.4)" gradientUnits="userSpaceOnUse" xlink:href="#linearGradient3688"/><linearGradient id="linearGradient2450" x1="25.058" x2="25.058" y1="47.028" y2="39.999" gradientUnits="userSpaceOnUse" xlink:href="#linearGradient3702"/><radialGradient id="radialGradient2452" cx="4.993" cy="43.5" r="2.5" fx="4.993" fy="43.5" gradientTransform="matrix(2.003784,0,0,1.4,27.98813,-17.4)" gradientUnits="userSpaceOnUse" xlink:href="#linearGradient3688"/><radialGradient id="radialGradient2454" cx="4.993" cy="43.5" r="2.5" fx="4.993" fy="43.5" gradientTransform="matrix(2.003784,0,0,1.4,-20.01187,-104.4)" gradientUnits="userSpaceOnUse" xlink:href="#linearGradient3688"/><linearGradient id="linearGradient2456" x1="25.058" x2="25.058" y1="47.028" y2="39.999" gradientUnits="userSpaceOnUse" xlink:href="#linearGradient3702"/><radialGradient id="radialGradient2470" cx="4.993" cy="43.5" r="2.5" fx="4.993" fy="43.5" gradientTransform="matrix(2.003784,0,0,1.4,27.98813,-17.4)" gradientUnits="userSpaceOnUse" xlink:href="#linearGradient3688"/><radialGradient id="radialGradient2472" cx="4.993" cy="43.5" r="2.5" fx="4.993" fy="43.5" gradientTransform="matrix(2.003784,0,0,1.4,-20.01187,-104.4)" gradientUnits="userSpaceOnUse" xlink:href="#linearGradient3688"/><linearGradient id="linearGradient2474" x1="25.058" x2="25.058" y1="47.028" y2="39.999" gradientUnits="userSpaceOnUse" xlink:href="#linearGradient3702"/><radialGradient id="radialGradient2476" cx="4.993" cy="43.5" r="2.5" fx="4.993" fy="43.5" gradientTransform="matrix(2.003784,0,0,1.4,27.98813,-17.4)" gradientUnits="userSpaceOnUse" xlink:href="#linearGradient3688"/><radialGradient id="radialGradient2478" cx="4.993" cy="43.5" r="2.5" fx="4.993" fy="43.5" gradientTransform="matrix(2.003784,0,0,1.4,-20.01187,-104.4)" gradientUnits="userSpaceOnUse" xlink:href="#linearGradient3688"/><linearGradient id="linearGradient2480" x1="25.058" x2="25.058" y1="47.028" y2="39.999" gradientUnits="userSpaceOnUse" xlink:href="#linearGradient3702"/><radialGradient id="radialGradient2482" cx="7.44" cy="15.377" r="20" fx="7.44" fy="15.377" gradientTransform="matrix(0,1.7159025,-2.4752027,-5.6670653e-8,51.345979,0.8390795)" gradientUnits="userSpaceOnUse" xlink:href="#linearGradient3242"/><linearGradient id="linearGradient2484" x1="24" x2="24" y1="44" y2="3.899" gradientTransform="matrix(0.7435898,0,0,0.7435898,3.1538499,12.153846)" gradientUnits="userSpaceOnUse" xlink:href="#linearGradient2490"/><linearGradient id="linearGradient2486" x1="26.959" x2="26.959" y1="0" y2="39.09" gradientTransform="translate(-2.9999999,5.9999999)" gradientUnits="userSpaceOnUse" xlink:href="#linearGradient4222"/><linearGradient id="linearGradient2489" x1="26.959" x2="26.959" y1="0" y2="39.09" gradientTransform="translate(-2.9999999,5.9999999)" gradientUnits="userSpaceOnUse" xlink:href="#linearGradient4222"/><radialGradient id="radialGradient2492" cx="7.44" cy="15.377" r="20" fx="7.44" fy="15.377" gradientTransform="matrix(0,2.0245429,-2.9204189,-6.6864037e-8,58.192106,-1.4573352)" gradientUnits="userSpaceOnUse" xlink:href="#linearGradient3242"/><linearGradient id="linearGradient2494" x1="24" x2="24" y1="44" y2="3.899" gradientTransform="matrix(0.7435898,0,0,0.7435898,3.1538499,12.153846)" gradientUnits="userSpaceOnUse" xlink:href="#linearGradient2490"/></defs><g id="g3761" opacity=".3" transform="matrix(0.4210526,0,0,0.5714286,18.894737,19.14286)"><rect id="rect3763" width="5" height="7" x="38" y="40" fill="url(#radialGradient2470)" fill-opacity="1" stroke="none"/><rect id="rect3765" width="5" height="7" x="-10" y="-47" fill="url(#radialGradient2472)" fill-opacity="1" stroke="none" transform="scale(-1,-1)"/><rect id="rect3767" width="28" height="7" x="10" y="40" fill="url(#linearGradient2474)" fill-opacity="1" stroke="none"/></g><g id="g3550" opacity=".3" transform="matrix(0.4210526,0,0,0.5714286,1.894737,19.14286)"><rect id="rect3552" width="5" height="7" x="38" y="40" fill="url(#radialGradient2476)" fill-opacity="1" stroke="none"/><rect id="rect3554" width="5" height="7" x="-10" y="-47" fill="url(#radialGradient2478)" fill-opacity="1" stroke="none" transform="scale(-1,-1)"/><rect id="rect3556" width="28" height="7" x="10" y="40" fill="url(#linearGradient2480)" fill-opacity="1" stroke="none"/></g><path id="rect3558" fill="url(#radialGradient2492)" fill-opacity="1" stroke="url(#linearGradient2494)" stroke-dasharray="none" stroke-dashoffset="0" stroke-linecap="round" stroke-linejoin="round" stroke-miterlimit="4" stroke-opacity="1" stroke-width="1" d="M 21,6.4999999 C 18.516,6.4999999 16.5,8.5160001 16.5,11 C 16.5,12.5525 17.30293,13.909805 18.5,14.71875 L 18.5,15.5 L 8.5000001,15.5 C 7.3920001,15.5 6.5000001,16.392 6.5000001,17.5 L 6.5000001,27.21875 C 7.3247011,26.183869 8.5748331,25.5 10,25.5 C 12.484,25.5 14.5,27.516 14.5,30 C 14.5,32.484 12.484,34.5 10,34.5 C 8.5748331,34.5 7.3247011,33.816131 6.5000001,32.78125 L 6.5000001,42.5 C 6.5000001,43.608 7.3920001,44.5 8.5000001,44.5 L 18.21875,44.5 C 17.183869,43.675299 16.5,42.425167 16.5,41 C 16.5,38.516 18.516,36.5 21,36.5 C 23.484,36.5 25.5,38.516 25.5,41 C 25.5,42.425167 24.816131,43.675299 23.78125,44.5 L 33.5,44.5 C 34.608,44.5 35.5,43.608 35.5,42.5 L 35.5,32.5 L 36.28125,32.5 C 37.090195,33.69707 38.4475,34.5 40,34.5 C 42.484,34.5 44.5,32.484 44.5,30 C 44.5,27.516 42.484,25.5 40,25.5 C 38.4475,25.5 37.090195,26.30293 36.28125,27.5 L 35.5,27.5 L 35.5,17.5 C 35.5,16.392 34.608,15.5 33.5,15.5 L 23.5,15.5 L 23.5,14.71875 C 24.69707,13.909805 25.5,12.5525 25.5,11 C 25.5,8.5159999 23.484,6.4999999 21,6.4999999 z"/><path id="path3741" fill="none" fill-opacity="1" stroke="url(#linearGradient2489)" stroke-dasharray="none" stroke-dashoffset="0" stroke-linecap="round" stroke-linejoin="round" stroke-miterlimit="4" stroke-opacity="1" stroke-width="1" d="M 21,7.5937499 C 19.112841,7.5937499 17.59375,9.1128415 17.59375,11 C 17.59375,12.172165 18.212613,13.195935 19.125,13.8125 C 19.419947,14.01984 19.594971,14.35822 19.59375,14.71875 L 19.59375,15.5 C 19.588615,16.101922 19.101922,16.588615 18.5,16.59375 L 8.5000001,16.59375 C 7.9840321,16.59375 7.5937501,16.984032 7.5937501,17.5 L 7.5937501,25 C 8.3218831,24.642157 9.132253,24.40625 10,24.40625 C 13.080841,24.40625 15.59375,26.919159 15.59375,30 C 15.59375,33.080841 13.080841,35.59375 10,35.59375 C 9.132253,35.59375 8.3218831,35.357843 7.5937501,35 L 7.5937501,42.5 C 7.5937501,43.015968 7.9840321,43.40625 8.5000001,43.40625 L 16,43.40625 C 15.642157,42.678117 15.40625,41.867747 15.40625,41 C 15.40625,37.919159 17.919159,35.40625 21,35.40625 C 24.080841,35.40625 26.59375,37.919159 26.59375,41 C 26.59375,41.867747 26.357843,42.678117 26,43.40625 L 33.5,43.40625 C 34.015968,43.40625 34.40625,43.015968 34.40625,42.5 L 34.40625,32.5 C 34.411385,31.898078 34.898078,31.411385 35.5,31.40625 L 36.28125,31.40625 C 36.64178,31.405029 36.98016,31.580053 37.1875,31.875 C 37.804064,32.787386 38.827835,33.40625 40,33.40625 C 41.887159,33.40625 43.40625,31.887159 43.40625,30 C 43.40625,28.112841 41.887159,26.59375 40,26.59375 C 38.827835,26.59375 37.804064,27.212614 37.1875,28.125 C 36.98016,28.419947 36.64178,28.594971 36.28125,28.59375 L 35.5,28.59375 C 34.898078,28.588615 34.411385,28.101922 34.40625,27.5 L 34.40625,17.5 C 34.40625,16.984032 34.015968,16.59375 33.5,16.59375 L 23.5,16.59375 C 22.898078,16.588615 22.411385,16.101922 22.40625,15.5 L 22.40625,14.71875 C 22.405029,14.35822 22.580053,14.01984 22.875,13.8125 C 23.787387,13.195935 24.40625,12.172165 24.40625,11 C 24.40625,9.1128412 22.887159,7.5937499 21,7.5937499 z" opacity=".4"/></svg>