<svg xmlns="http://www.w3.org/2000/svg" xmlns:svg="http://www.w3.org/2000/svg" xmlns:xlink="http://www.w3.org/1999/xlink" id="svg2453" width="48" height="48" version="1.0"><defs id="defs2455"><linearGradient id="linearGradient3654-458"><stop id="stop3820" offset="0" stop-color="#fff" stop-opacity="1"/><stop id="stop3822" offset="1" stop-color="#fff" stop-opacity="0"/></linearGradient><linearGradient id="linearGradient2612" x1="19.562" x2="19.562" y1="-30.555" y2="-35.126" gradientTransform="matrix(0.9863292,0,0,-1.0138603,0,1.0000036)" gradientUnits="userSpaceOnUse" xlink:href="#linearGradient3654-458"/><linearGradient id="linearGradient3654-433"><stop id="stop3814" offset="0" stop-color="#fff" stop-opacity="1"/><stop id="stop3816" offset="1" stop-color="#fff" stop-opacity="0"/></linearGradient><linearGradient id="linearGradient2615" x1="19.562" x2="19.562" y1="-30.555" y2="-35.126" gradientTransform="matrix(1.0171518,0,0,-1.0138603,-0.7097362,0.7578484)" gradientUnits="userSpaceOnUse" xlink:href="#linearGradient3654-433"/><linearGradient id="linearGradient3654-601"><stop id="stop3808" offset="0" stop-color="#fff" stop-opacity="1"/><stop id="stop3810" offset="1" stop-color="#fff" stop-opacity="0"/></linearGradient><linearGradient id="linearGradient2618" x1="19.562" x2="19.562" y1="-30.555" y2="-35.126" gradientTransform="matrix(0.9863292,0,0,-1.0138603,0,0.7578484)" gradientUnits="userSpaceOnUse" xlink:href="#linearGradient3654-601"/><radialGradient id="radialGradient19613" cx="605.714" cy="486.648" r="117.143" fx="605.714" fy="486.648" gradientTransform="matrix(2.891661e-2,0,0,1.2352939e-2,26.973101,38.470848)" gradientUnits="userSpaceOnUse" xlink:href="#linearGradient5060"/><linearGradient id="linearGradient5060"><stop id="stop5062" offset="0" stop-color="#000" stop-opacity="1"/><stop id="stop5064" offset="1" stop-color="#000" stop-opacity="0"/></linearGradient><radialGradient id="radialGradient19616" cx="605.714" cy="486.648" r="117.143" fx="605.714" fy="486.648" gradientTransform="matrix(-2.8916604e-2,0,0,1.2352939e-2,21.026894,38.470848)" gradientUnits="userSpaceOnUse" xlink:href="#linearGradient5060"/><linearGradient id="linearGradient5048"><stop id="stop5050" offset="0" stop-color="#000" stop-opacity="0"/><stop id="stop5056" offset=".5" stop-color="#000" stop-opacity="1"/><stop id="stop5052" offset="1" stop-color="#000" stop-opacity="0"/></linearGradient><linearGradient id="linearGradient19619" x1="302.857" x2="302.857" y1="366.648" y2="609.505" gradientTransform="matrix(8.4497041e-2,0,0,1.2352939e-2,-6.5396456,38.470822)" gradientUnits="userSpaceOnUse" xlink:href="#linearGradient5048"/><linearGradient id="linearGradient259-942"><stop id="stop3802" offset="0" stop-color="#fff" stop-opacity="1"/><stop id="stop3804" offset="1" stop-color="#e0e0e0" stop-opacity="1"/></linearGradient><linearGradient id="linearGradient2447" x1="108.265" x2="25.818" y1="110.281" y2="14.029" gradientTransform="matrix(0.5066363,0,0,0.3512482,-58.338079,-49.085984)" gradientUnits="userSpaceOnUse" xlink:href="#linearGradient259-942"/><linearGradient id="linearGradient3610-302"><stop id="stop3796" offset="0" stop-color="#333" stop-opacity="1"/><stop id="stop3798" offset="1" stop-color="#292929" stop-opacity="1"/></linearGradient><linearGradient id="linearGradient2444" x1="-24.032" x2="-24.098" y1="-13.091" y2="-40.164" gradientTransform="matrix(1.1142851,0,0,1.1111113,2.7514431,3.5103428)" gradientUnits="userSpaceOnUse" xlink:href="#linearGradient3610-302"/><linearGradient id="linearGradient4157-401-351"><stop id="stop3790" offset="0" stop-color="#262626" stop-opacity="1"/><stop id="stop3792" offset="1" stop-color="#828282" stop-opacity="1"/></linearGradient><linearGradient id="linearGradient2442" x1="28.938" x2="105.365" y1="17.333" y2="92.824" gradientTransform="matrix(0.4908393,0,0,0.3803351,-57.357124,-48.338393)" gradientUnits="userSpaceOnUse" xlink:href="#linearGradient4157-401-351"/></defs><g id="layer1"><g id="g3257" opacity=".4"><rect id="rect2879" width="40.8" height="3" x="3.6" y="43" fill="url(#linearGradient19619)" fill-opacity="1" fill-rule="nonzero" stroke="none" stroke-dasharray="none" stroke-dashoffset="0" stroke-linecap="round" stroke-linejoin="miter" stroke-miterlimit="4" stroke-opacity="1" stroke-width="1" marker-end="none" marker-mid="none" marker-start="none" display="inline" opacity="1" overflow="visible" visibility="visible" style="marker:none"/><path id="path2881" fill="url(#radialGradient19616)" fill-opacity="1" fill-rule="nonzero" stroke="none" stroke-dasharray="none" stroke-dashoffset="0" stroke-linecap="round" stroke-linejoin="miter" stroke-miterlimit="4" stroke-opacity="1" stroke-width="1" marker-end="none" marker-mid="none" marker-start="none" d="M 3.6,43.00013 C 3.6,43.00013 3.6,45.999965 3.6,45.999965 C 2.1108662,46.005612 7.1054274e-15,45.327854 7.1054274e-15,44.499854 C 7.1054274e-15,43.671856 1.6617608,43.000131 3.6,43.00013 z" display="inline" opacity="1" overflow="visible" visibility="visible" style="marker:none"/><path id="path2883" fill="url(#radialGradient19613)" fill-opacity="1" fill-rule="nonzero" stroke="none" stroke-dasharray="none" stroke-dashoffset="0" stroke-linecap="round" stroke-linejoin="miter" stroke-miterlimit="4" stroke-opacity="1" stroke-width="1" marker-end="none" marker-mid="none" marker-start="none" d="M 44.4,43.00013 C 44.4,43.00013 44.4,45.999965 44.4,45.999965 C 45.889133,46.005612 48,45.327854 48,44.499854 C 48,43.671856 46.338239,43.000131 44.4,43.00013 z" display="inline" opacity="1" overflow="visible" visibility="visible" style="marker:none"/></g><rect id="rect3580" width="44.966" height="35.922" x="-46.457" y="-44.503" fill="url(#linearGradient2447)" fill-opacity="1" stroke="#c1c1c1" stroke-dasharray="none" stroke-linecap="round" stroke-linejoin="miter" stroke-miterlimit="4" stroke-opacity=".969" stroke-width="1" transform="matrix(-0.9999985,1.7331702e-3,-9.6052603e-4,-0.9999995,0,0)"/><rect id="rect3582" width="38.927" height="29.854" x="-43.529" y="-41.517" fill="url(#linearGradient2442)" fill-opacity="1" stroke="url(#linearGradient2444)" stroke-dasharray="none" stroke-linecap="round" stroke-linejoin="miter" stroke-miterlimit="4" stroke-opacity="1" stroke-width="1" rx="0" ry="0" transform="matrix(-0.9999929,3.7552317e-3,2.4409349e-3,-0.999997,0,0)"/></g><path id="path3672" fill="#fff" fill-opacity="1" stroke="none" stroke-linecap="butt" stroke-linejoin="miter" stroke-opacity="1" stroke-width="1" d="M 8,20.003607 C 8,23.945993 8.0000001,27.882725 8,31.825109 C 8.1077933,32.156222 8.7940411,31.89811 9.125,31.988842 C 9.125,30.133161 9.1250004,28.277609 9.125,26.421929 C 10.713721,26.355623 12.436555,26.667499 13.84375,25.701505 C 15.631744,24.364745 15.147556,20.879596 13,20.265579 C 11.358834,19.861822 9.6715056,20.052401 8,20.003607 z M 9.125,21.182482 C 10.222596,21.210471 11.319886,21.081415 12.40625,21.280722 C 13.973279,21.566009 14.281584,24.132365 12.90625,24.915588 C 11.71631,25.488716 10.390581,25.192351 9.125,25.243054 C 9.125,23.886563 9.1250004,22.538973 9.125,21.182482 z" font-family="Century Gothic" font-size="15.689" font-stretch="normal" font-style="normal" font-variant="normal" font-weight="normal" style="-inkscape-font-specification:Century Gothic"/><path id="path3668" fill="#fff" fill-opacity="1" stroke="none" stroke-linecap="butt" stroke-linejoin="miter" stroke-opacity="1" stroke-width="1" d="M 17,31.996224 C 17,28.005428 17,24.01463 17,20.023832 C 17.453783,19.971047 17.614016,20.59069 17.933208,20.846211 C 20.245514,23.626903 22.557822,26.407595 24.870129,29.188287 C 24.870129,26.133469 24.870129,23.078652 24.870129,20.023832 C 25.203589,20.117329 25.897862,19.833958 26,20.169068 C 26,24.111455 26,28.053839 26,31.996224 C 25.541489,32.054053 25.378436,31.43317 25.057326,31.175367 C 22.766356,28.43215 20.475386,25.688932 18.184416,22.945714 C 18.184416,25.962551 18.184416,28.979387 18.184416,31.996224 C 17.789612,31.996224 17.394806,31.996224 17,31.996224 z" font-family="Century Gothic" font-size="15.689" font-stretch="normal" font-style="normal" font-variant="normal" font-weight="normal" style="-inkscape-font-specification:Century Gothic"/><path id="text3634" fill="#fff" fill-opacity="1" stroke="none" stroke-linecap="butt" stroke-linejoin="miter" stroke-opacity="1" stroke-width="1" d="M 39.34262,22.205831 C 39.016729,22.395607 38.688756,23.114096 38.364341,22.928982 C 36.679558,21.219894 33.913376,20.526119 31.794095,21.79418 C 29.615612,22.912708 28.634625,25.926761 29.830577,28.133988 C 31.217186,31.123536 35.739829,31.959048 37.88051,29.384474 C 38.207842,28.936579 39.336489,27.225324 38.281322,27.339812 C 37.257362,27.339812 36.233403,27.339812 35.209443,27.339812 C 35.308358,27.00455 34.989998,26.240366 35.411696,26.236899 C 36.941131,26.236899 38.470564,26.236899 39.999998,26.236899 C 40.081525,28.541368 38.789256,30.946253 36.570417,31.658683 C 33.992124,32.51987 30.792079,31.806521 29.210742,29.417119 C 27.246425,26.758053 28.125418,22.521074 30.951061,20.892696 C 33.615097,19.256492 37.221653,19.948902 39.342619,22.205831 L 39.34262,22.205831 z" font-family="Century Gothic" font-size="15.689" font-stretch="normal" font-style="normal" font-variant="normal" font-weight="normal" style="-inkscape-font-specification:Century Gothic"/><path id="path3681" fill="url(#linearGradient2618)" fill-opacity="1" stroke="none" stroke-linecap="butt" stroke-linejoin="miter" stroke-opacity="1" stroke-width="1" d="M 7.9999996,43.449082 C 9.6715051,43.40252 11.374416,43.595305 13.015582,43.210001 C 15.163138,42.624043 15.63793,39.307029 13.849936,38.031358 C 12.442741,37.109512 10.699466,37.399737 9.1107439,37.336461 C 9.1107439,35.565587 9.1107439,33.794713 9.1107439,32.023839 C 8.7797846,32.110424 8.1077929,31.846458 7.9999996,32.162437 C 7.9999996,35.924652 7.9999996,39.686868 7.9999996,43.449082 z" font-family="Century Gothic" font-size="15.689" font-stretch="normal" font-style="normal" font-variant="normal" font-weight="normal" opacity=".3" style="-inkscape-font-specification:Century Gothic"/><path id="path3677" fill="url(#linearGradient2615)" fill-opacity="1" stroke="none" stroke-linecap="butt" stroke-linejoin="miter" stroke-opacity="1" stroke-width="1" d="M 17,32.023839 C 17,35.832253 17,39.640668 17,43.449082 C 17.453783,43.499456 17.614016,42.908131 17.933208,42.664286 C 20.245514,40.010674 22.557822,37.357062 24.870129,34.70345 C 24.870129,37.61866 24.870129,40.533871 24.870129,43.449082 C 25.203589,43.359858 25.897862,43.63028 26,43.310483 C 26,39.548269 26,35.786053 26,32.023839 C 25.541489,31.968652 25.378436,32.56116 25.057326,32.807183 C 22.766356,35.425033 20.475386,38.042883 18.184416,40.660734 C 18.184416,37.781769 18.184416,34.902803 18.184416,32.023839 C 17.789612,32.023839 17.394806,32.023839 17,32.023839 z" font-family="Century Gothic" font-size="15.689" font-stretch="normal" font-style="normal" font-variant="normal" font-weight="normal" opacity=".3" style="-inkscape-font-specification:Century Gothic"/><path id="text3650" fill="url(#linearGradient2612)" fill-opacity="1" stroke="none" stroke-linecap="butt" stroke-linejoin="miter" stroke-opacity="1" stroke-width="1" d="M 39.34262,41.77279 C 39.016729,41.583015 38.688757,40.864528 38.364341,41.049641 C 36.679557,42.758725 33.913376,43.452503 31.794095,42.184441 C 29.615612,41.065915 28.634625,38.05186 29.830577,35.844634 C 31.217185,32.855085 35.73983,32.019573 37.88051,34.594148 C 38.207842,35.042044 39.336489,36.753299 38.281322,36.63881 C 37.257362,36.638809 36.233403,36.638809 35.209443,36.638808 C 35.308358,36.97407 34.989999,37.738254 35.411696,37.741722 C 36.941131,37.741722 38.470564,37.741722 39.999998,37.741722 C 40.081526,35.437253 38.789256,33.03237 36.570417,32.319938 C 33.992124,31.458751 30.79208,32.172101 29.210742,34.561502 C 27.246424,37.220569 28.125419,41.457548 30.951061,43.085926 C 33.615098,44.722129 37.221652,44.029718 39.342619,41.77279 L 39.34262,41.77279 z" font-family="Century Gothic" font-size="15.689" font-stretch="normal" font-style="normal" font-variant="normal" font-weight="normal" opacity=".3" style="-inkscape-font-specification:Century Gothic"/></svg>