<svg xmlns="http://www.w3.org/2000/svg" xmlns:svg="http://www.w3.org/2000/svg" xmlns:xlink="http://www.w3.org/1999/xlink" id="svg3699" width="48" height="48" version="1.0"><defs id="defs3701"><radialGradient id="radialGradient3697" cx="605.714" cy="486.648" r="117.143" fx="605.714" fy="486.648" gradientTransform="matrix(2.4097166e-2,0,0,1.4700216e-2,25.477592,37.040176)" gradientUnits="userSpaceOnUse" xlink:href="#linearGradient5060"/><linearGradient id="linearGradient5048"><stop id="stop5050" offset="0" stop-color="#000" stop-opacity="0"/><stop id="stop5056" offset=".5" stop-color="#000" stop-opacity="1"/><stop id="stop5052" offset="1" stop-color="#000" stop-opacity="0"/></linearGradient><linearGradient id="linearGradient3333" x1="302.857" x2="302.857" y1="366.648" y2="609.505" gradientTransform="matrix(6.627219e-2,0,0,1.4700216e-2,4.7336872e-2,37.040146)" gradientUnits="userSpaceOnUse" xlink:href="#linearGradient5048"/><linearGradient id="linearGradient5060"><stop id="stop5062" offset="0" stop-color="#000" stop-opacity="1"/><stop id="stop5064" offset="1" stop-color="#000" stop-opacity="0"/></linearGradient><radialGradient id="radialGradient3330" cx="605.714" cy="486.648" r="117.143" fx="605.714" fy="486.648" gradientTransform="matrix(-2.409717e-2,0,0,1.4700216e-2,22.522412,37.040176)" gradientUnits="userSpaceOnUse" xlink:href="#linearGradient5060"/><linearGradient id="linearGradient3104"><stop id="stop3106" offset="0" stop-color="#aaa" stop-opacity="1"/><stop id="stop3108" offset="1" stop-color="#c8c8c8" stop-opacity="1"/></linearGradient><linearGradient id="linearGradient3324" x1="-51.786" x2="-51.786" y1="50.786" y2="2.906" gradientTransform="matrix(0.8074968,0,0,0.8948322,59.410232,-2.9805533)" gradientUnits="userSpaceOnUse" xlink:href="#linearGradient3104"/><linearGradient id="linearGradient3600"><stop id="stop3602" offset="0" stop-color="#f4f4f4" stop-opacity="1"/><stop id="stop3604" offset="1" stop-color="#dbdbdb" stop-opacity="1"/></linearGradient><linearGradient id="linearGradient3322" x1="25.132" x2="25.132" y1=".985" y2="47.013" gradientTransform="matrix(1,0,0,0.9561695,-1.0064697e-7,-1.914922)" gradientUnits="userSpaceOnUse" xlink:href="#linearGradient3600"/><radialGradient id="XMLID_8_" cx="102" cy="112.305" r="139.559" gradientUnits="userSpaceOnUse"><stop id="stop41" offset="0" stop-color="#b7b8b9" stop-opacity="1"/><stop id="stop47" offset=".189" stop-color="#ececec" stop-opacity="1"/><stop id="stop49" offset=".257" stop-color="#fafafa" stop-opacity="0"/><stop id="stop51" offset=".301" stop-color="#fff" stop-opacity="0"/><stop id="stop53" offset=".531" stop-color="#fafafa" stop-opacity="0"/><stop id="stop55" offset=".845" stop-color="#ebecec" stop-opacity="0"/><stop id="stop57" offset="1" stop-color="#e1e2e3" stop-opacity="0"/></radialGradient><radialGradient id="radialGradient3319" cx="102" cy="112.305" r="139.559" gradientTransform="matrix(0.3617022,0,0,-0.3907784,0.8510637,47.517004)" gradientUnits="userSpaceOnUse" xlink:href="#XMLID_8_"/><linearGradient id="linearGradient3211"><stop id="stop3213" offset="0" stop-color="#fff" stop-opacity="1"/><stop id="stop3215" offset="1" stop-color="#fff" stop-opacity="0"/></linearGradient><linearGradient id="linearGradient3316" x1="24" x2="24" y1="2" y2="46.017" gradientTransform="matrix(1,0,0,0.9777778,0,-0.9666693)" gradientUnits="userSpaceOnUse" xlink:href="#linearGradient3211"/><filter id="filter3212" width="1.297" height="1.329" x="-.148" y="-.164"><feGaussianBlur id="feGaussianBlur3214" stdDeviation=".774"/></filter><linearGradient id="linearGradient8589"><stop id="stop8591" offset="0" stop-color="#fefefe" stop-opacity="1"/><stop id="stop8593" offset="1" stop-color="#cbcbcb" stop-opacity="1"/></linearGradient><linearGradient id="linearGradient3312" x1="32.892" x2="36.358" y1="8.059" y2="5.457" gradientTransform="matrix(0.9976985,0,0,1.0406866,0.1638029,-1.1057939)" gradientUnits="userSpaceOnUse" xlink:href="#linearGradient8589"/></defs><g id="layer1"><path id="path3695" fill="url(#radialGradient3697)" fill-opacity="1" fill-rule="nonzero" stroke="none" stroke-dasharray="none" stroke-dashoffset="0" stroke-linecap="round" stroke-linejoin="miter" stroke-miterlimit="4" stroke-opacity="1" stroke-width="1" marker-end="none" marker-mid="none" marker-start="none" d="M 40,42.430102 C 40,42.430102 40,45.999958 40,45.999958 C 41.240944,46.006679 43,45.200135 43,44.2148 C 43,43.229467 41.615199,42.430103 40,42.430102 z" display="inline" opacity=".3" overflow="visible" visibility="visible" style="marker:none"/><rect id="rect2879" width="32" height="3.57" x="8" y="42.43" fill="url(#linearGradient3333)" fill-opacity="1" fill-rule="nonzero" stroke="none" stroke-dasharray="none" stroke-dashoffset="0" stroke-linecap="round" stroke-linejoin="miter" stroke-miterlimit="4" stroke-opacity="1" stroke-width="1" marker-end="none" marker-mid="none" marker-start="none" display="inline" opacity=".3" overflow="visible" visibility="visible" style="marker:none"/><path id="path2881" fill="url(#radialGradient3330)" fill-opacity="1" fill-rule="nonzero" stroke="none" stroke-dasharray="none" stroke-dashoffset="0" stroke-linecap="round" stroke-linejoin="miter" stroke-miterlimit="4" stroke-opacity="1" stroke-width="1" marker-end="none" marker-mid="none" marker-start="none" d="M 8,42.430102 C 8,42.430102 8,45.999958 8,45.999958 C 6.7590552,46.006679 5,45.200135 5,44.2148 C 5,43.229467 6.3848007,42.430103 8,42.430102 z" display="inline" opacity=".3" overflow="visible" visibility="visible" style="marker:none"/><path id="path4160" fill="url(#linearGradient3322)" fill-opacity="1" stroke="url(#linearGradient3324)" stroke-dasharray="none" stroke-dashoffset="0" stroke-linecap="butt" stroke-linejoin="round" stroke-miterlimit="4" stroke-opacity="1" stroke-width="1" d="M 6.4999609,0.49719878 C 14.520256,0.49719878 22.540551,0.49719878 30.560847,0.49719878 C 31.96778,0.97185188 39.526301,6.3794034 41.500042,10.123605 C 41.500042,21.583338 41.500042,33.04307 41.500042,44.502803 C 29.833348,44.502803 18.166655,44.502803 6.4999609,44.502803 C 6.4999609,29.834268 6.4999609,15.165733 6.4999609,0.49719878 z" display="inline"/><path id="path4191" fill="url(#radialGradient3319)" fill-opacity="1" d="M 7.3617017,44 C 7.1624047,44 6.9999997,43.824541 6.9999997,43.60922 L 6.9999997,1.4051701 C 6.9999997,1.1894613 7.1624047,1.0143926 7.3617017,1.0143926 C 14.844793,1.1224073 23.137385,0.85281757 30.611384,1.0412872 L 40.894021,9.9073127 L 41,43.60922 C 41,43.824541 40.837957,44 40.638297,44 L 7.3617017,44 z"/><path id="path2435" fill="none" fill-opacity="1" stroke="url(#linearGradient3316)" stroke-dasharray="none" stroke-dashoffset="0" stroke-linecap="butt" stroke-linejoin="round" stroke-miterlimit="4" stroke-opacity="1" stroke-width="1" d="M 40.500039,10.258811 C 40.500039,21.207848 40.500039,32.573221 40.500039,43.522258 C 29.500013,43.522258 18.499987,43.522258 7.4999609,43.522258 C 7.4999609,29.507417 7.4999609,15.492577 7.4999609,1.4777367 C 15.061954,1.4777367 22.804295,1.4777367 30.366289,1.4777367" display="inline" opacity=".6"/><path id="rect4691" fill="#000" fill-opacity="1" fill-rule="evenodd" stroke="none" stroke-dashoffset="0" stroke-linecap="round" stroke-linejoin="round" stroke-miterlimit="4" stroke-opacity="1" stroke-width="1.215" marker-end="none" marker-mid="none" marker-start="none" d="M 19.863192,31.339245 L 15.666783,31.339245 L 15.666783,35.950594 L 19.863192,35.950594 L 19.863192,31.339245 z M 24.034151,8.3767691 L 19.837743,8.3767691 L 19.837743,12.988119 L 24.034151,12.988119 L 24.034151,8.3767691 z M 32.426964,8.2709217 L 28.230556,8.2709217 L 28.230556,12.882271 L 32.426964,12.882271 L 32.426964,8.2709217 z M 28.230556,12.893847 L 24.034148,12.893847 L 24.034148,17.505197 L 28.230556,17.505197 L 28.230556,12.893847 z M 15.588248,8.2709217 L 11.39184,8.2709217 L 11.39184,12.882271 L 15.588248,12.882271 L 15.588248,8.2709217 z M 36.623371,12.893847 L 32.426963,12.893847 L 32.426963,17.505197 L 36.623371,17.505197 L 36.623371,12.893847 z M 32.426964,17.505196 L 28.230556,17.505196 L 28.230556,22.116545 L 32.426964,22.116545 L 32.426964,17.505196 z M 28.230556,22.116545 L 24.034148,22.116545 L 24.034148,26.727894 L 28.230556,26.727894 L 28.230556,22.116545 z M 24.034151,17.505196 L 19.837743,17.505196 L 19.837743,22.116545 L 24.034151,22.116545 L 24.034151,17.505196 z M 19.83774,12.893847 L 15.641332,12.893847 L 15.641332,17.505197 L 19.83774,17.505197 L 19.83774,12.893847 z M 15.641336,17.505196 L 11.444928,17.505196 L 11.444928,22.116545 L 15.641336,22.116545 L 15.641336,17.505196 z M 19.83774,22.116545 L 15.641332,22.116545 L 15.641332,26.727894 L 19.83774,26.727894 L 19.83774,22.116545 z M 15.641336,26.727894 L 11.444928,26.727894 L 11.444928,31.339243 L 15.641336,31.339243 L 15.641336,26.727894 z M 36.623371,22.116545 L 32.426963,22.116545 L 32.426963,26.727894 L 36.623371,26.727894 L 36.623371,22.116545 z M 32.426964,26.727894 L 28.230556,26.727894 L 28.230556,31.339243 L 32.426964,31.339243 L 32.426964,26.727894 z M 36.623371,31.339245 L 32.426963,31.339245 L 32.426963,35.950594 L 36.623371,35.950594 L 36.623371,31.339245 z M 32.426964,35.950596 L 28.230556,35.950596 L 28.230556,40.561945 L 32.426964,40.561945 L 32.426964,35.950596 z M 28.230556,31.339245 L 24.034148,31.339245 L 24.034148,35.950594 L 28.230556,35.950594 L 28.230556,31.339245 z M 24.034151,26.727894 L 19.837743,26.727894 L 19.837743,31.339243 L 24.034151,31.339243 L 24.034151,26.727894 z M 23.979624,35.950596 L 19.783216,35.950596 L 19.783216,40.561945 L 23.979624,40.561945 L 23.979624,35.950596 z M 15.641336,35.950596 L 11.444928,35.950596 L 11.444928,40.561945 L 15.641336,40.561945 L 15.641336,35.950596 z" display="inline" opacity=".12" overflow="visible" visibility="visible" style="marker:none"/><path id="path12038" fill="#000" fill-opacity="1" fill-rule="evenodd" stroke="none" stroke-linecap="butt" stroke-linejoin="miter" stroke-opacity="1" stroke-width="1" d="M 28.617256,0.92125832 C 32.899778,0.92125832 30.770506,9.4044296 30.770506,9.4044296 C 30.770506,9.4044296 41.128148,7.6020829 41.128148,12.223174 C 41.128148,9.6134507 29.825844,1.4945784 28.617256,0.92125832 z" display="inline" filter="url(#filter3212)" opacity=".4"/><path id="path4474" fill="url(#linearGradient3312)" fill-opacity="1" fill-rule="evenodd" stroke="none" stroke-linecap="butt" stroke-linejoin="miter" stroke-opacity="1" stroke-width="1" d="M 28.617256,0.92125832 C 31.803749,0.92125832 30.953016,8.5831368 30.953016,8.5831368 C 30.953016,8.5831368 41.128148,7.6020829 41.128148,12.223174 C 41.128148,11.097235 41.214061,10.290929 40.994371,9.9395812 C 39.416058,7.4154025 32.598855,1.7511811 30.137071,1.008793 C 29.952849,0.95323837 29.544367,0.92125832 28.617256,0.92125832 z" display="inline"/></g></svg>