<svg xmlns="http://www.w3.org/2000/svg" xmlns:svg="http://www.w3.org/2000/svg" xmlns:xlink="http://www.w3.org/1999/xlink" id="svg2" width="48" height="48" display="inline" version="1.0"><defs id="defs4"><linearGradient id="linearGradient3104"><stop id="stop3106" offset="0" stop-color="#aaa" stop-opacity="1"/><stop id="stop3108" offset="1" stop-color="#d2d2d2" stop-opacity="1"/></linearGradient><linearGradient id="linearGradient3600"><stop id="stop3602" offset="0" stop-color="#f4f4f4" stop-opacity="1"/><stop id="stop3604" offset="1" stop-color="#dbdbdb" stop-opacity="1"/></linearGradient><linearGradient id="linearGradient5048"><stop id="stop5050" offset="0" stop-color="#000" stop-opacity="0"/><stop id="stop5056" offset=".5" stop-color="#000" stop-opacity="1"/><stop id="stop5052" offset="1" stop-color="#000" stop-opacity="0"/></linearGradient><linearGradient id="linearGradient5060"><stop id="stop5062" offset="0" stop-color="#000" stop-opacity="1"/><stop id="stop5064" offset="1" stop-color="#000" stop-opacity="0"/></linearGradient><linearGradient id="linearGradient3584" x1="302.857" x2="302.857" y1="366.648" y2="609.505" gradientTransform="matrix(0.0704142,0,0,0.01537476,-1.4497047,38.629007)" gradientUnits="userSpaceOnUse" xlink:href="#linearGradient5048"/><radialGradient id="radialGradient3586" cx="605.714" cy="486.648" r="117.143" fx="605.714" fy="486.648" gradientTransform="matrix(-0.02409717,0,0,0.01537476,21.522412,38.629039)" gradientUnits="userSpaceOnUse" xlink:href="#linearGradient5060"/><radialGradient id="radialGradient3588" cx="605.714" cy="486.648" r="117.143" fx="605.714" fy="486.648" gradientTransform="matrix(0.02409717,0,0,0.01537476,26.477584,38.629039)" gradientUnits="userSpaceOnUse" xlink:href="#linearGradient5060"/><linearGradient id="linearGradient3601" x1="25.132" x2="25.132" y1="6.729" y2="47.013" gradientTransform="translate(0,-0.99999972)" gradientUnits="userSpaceOnUse" xlink:href="#linearGradient3600"/><linearGradient id="linearGradient3603" x1="-51.786" x2="-51.786" y1="50.786" y2="2.906" gradientTransform="matrix(0.8074968,0,0,0.9358511,59.410236,-2.1144791)" gradientUnits="userSpaceOnUse" xlink:href="#linearGradient3104"/><linearGradient id="linearGradient5031"><stop id="stop5033" offset="0" stop-color="#a3a3a3" stop-opacity="1"/><stop id="stop5035" offset="1" stop-color="#bababa" stop-opacity="1"/></linearGradient><linearGradient id="linearGradient5980" x1="22.104" x2="22.104" y1="40.124" y2="10.035" gradientTransform="matrix(0.369496,0,0,1.4205132,9.0116197,3.7802626)" gradientUnits="userSpaceOnUse" xlink:href="#linearGradient5031"/><linearGradient id="linearGradient5984" x1="22.104" x2="22.104" y1="40.124" y2="10.035" gradientTransform="matrix(0.4876325,0,0,1.4406684,7.777273,1.4082398)" gradientUnits="userSpaceOnUse" xlink:href="#linearGradient5031"/><linearGradient id="linearGradient5988" x1="22.104" x2="22.104" y1="40.124" y2="10.035" gradientTransform="matrix(0.3342091,0,0,1.4207463,9.6790122,-0.23795132)" gradientUnits="userSpaceOnUse" xlink:href="#linearGradient5031"/><linearGradient id="linearGradient6065" x1="22.104" x2="22.104" y1="40.124" y2="10.035" gradientTransform="matrix(1.7828362,0,0,1.4407913,-37.938893,-27.441342)" gradientUnits="userSpaceOnUse" xlink:href="#linearGradient5031"/><linearGradient id="linearGradient6073" x1="22.104" x2="22.104" y1="40.124" y2="10.035" gradientTransform="matrix(0.3814643,0,0,1.4009103,8.4789307,6.2584122)" gradientUnits="userSpaceOnUse" xlink:href="#linearGradient5031"/><linearGradient id="linearGradient6143" x1="22.104" x2="22.104" y1="40.124" y2="10.035" gradientTransform="matrix(0.4063605,0,0,1.4407893,8.3143938,-4.5939912)" gradientUnits="userSpaceOnUse" xlink:href="#linearGradient5031"/><radialGradient id="XMLID_8_" cx="102" cy="112.305" r="139.559" gradientUnits="userSpaceOnUse"><stop id="stop41" offset="0" stop-color="#b7b8b9" stop-opacity="1"/><stop id="stop47" offset=".189" stop-color="#ececec" stop-opacity="1"/><stop id="stop49" offset=".257" stop-color="#fafafa" stop-opacity="0"/><stop id="stop51" offset=".301" stop-color="#fff" stop-opacity="0"/><stop id="stop53" offset=".531" stop-color="#fafafa" stop-opacity="0"/><stop id="stop55" offset=".845" stop-color="#ebecec" stop-opacity="0"/><stop id="stop57" offset="1" stop-color="#e1e2e3" stop-opacity="0"/></radialGradient><filter id="filter3248" width="1.297" height="1.329" x="-.148" y="-.164" color-interpolation-filters="sRGB"><feGaussianBlur id="feGaussianBlur3250" stdDeviation=".774"/></filter><linearGradient id="linearGradient2633" x1="32.892" x2="36.358" y1="8.059" y2="5.457" gradientTransform="matrix(0.99771106,0,0,1.0406866,0.1637173,-1.1057947)" gradientUnits="userSpaceOnUse" xlink:href="#linearGradient8589-8"/><linearGradient id="linearGradient8589-8"><stop id="stop8591-1" offset="0" stop-color="#fefefe" stop-opacity="1"/><stop id="stop8593-2" offset="1" stop-color="#cbcbcb" stop-opacity="1"/></linearGradient><radialGradient id="radialGradient2997" cx="102" cy="112.305" r="139.559" gradientTransform="matrix(0.36170675,0,0,-0.3907784,0.8509869,47.517004)" gradientUnits="userSpaceOnUse" xlink:href="#XMLID_8_"/><linearGradient id="linearGradient3211"><stop id="stop3213" offset="0" stop-color="#fff" stop-opacity="1"/><stop id="stop3215" offset="1" stop-color="#fff" stop-opacity="0"/></linearGradient><linearGradient id="linearGradient2946" x1="24" x2="24" y1="2" y2="46.017" gradientTransform="matrix(1,0,0,0.9777778,9.9353024e-8,-0.9888879)" gradientUnits="userSpaceOnUse" xlink:href="#linearGradient3211"/></defs><g id="layer1"><g id="g2877" display="inline" transform="matrix(0.9561265,0,0,0.9561265,1.044962,1.1059287)"><rect id="rect2879" width="34" height="3.734" x="7" y="44.266" fill="url(#linearGradient3584)" fill-opacity="1" fill-rule="nonzero" stroke="none" stroke-width="1" display="inline" opacity=".402" overflow="visible" visibility="visible" style="marker:none"/><path id="path2881" fill="url(#radialGradient3586)" fill-opacity="1" fill-rule="nonzero" stroke="none" stroke-width="1" d="m 7,44.266291 c 0,0 0,3.733665 0,3.733665 -1.2409448,0.007 -3,-0.836525 -3,-1.867073 0,-1.030547 1.3848007,-1.866591 3,-1.866592 z" display="inline" opacity=".402" overflow="visible" visibility="visible" style="marker:none"/><path id="path2883" fill="url(#radialGradient3588)" fill-opacity="1" fill-rule="nonzero" stroke="none" stroke-width="1" d="m 41,44.266291 c 0,0 0,3.733665 0,3.733665 1.240944,0.007 3,-0.836525 3,-1.867073 0,-1.030547 -1.384801,-1.866591 -3,-1.866592 z" display="inline" opacity=".402" overflow="visible" visibility="visible" style="marker:none"/></g><path id="rect2594" fill="url(#linearGradient3601)" fill-opacity="1" stroke="url(#linearGradient3603)" stroke-dasharray="none" stroke-dashoffset="0" stroke-linecap="butt" stroke-linejoin="round" stroke-miterlimit="4" stroke-opacity="1" stroke-width="1" d="m 6.4999609,0.49996288 c 8.0202951,0 16.0405901,0 24.0608861,0 1.406933,0.4853797 8.965454,6.01513552 10.939195,9.84395212 0,11.718709 0,23.437418 0,35.156127 -11.666694,0 -23.333387,0 -35.0000811,0 0,-15.000027 0,-30.000053 0,-45.00007912 z" display="inline"/><path id="path2435" fill="none" stroke="url(#linearGradient2946)" stroke-dasharray="none" stroke-dashoffset="0" stroke-linecap="butt" stroke-linejoin="round" stroke-miterlimit="4" stroke-opacity="1" stroke-width="1" d="m 40.500039,10.236593 c 0,10.949037 0,22.314409 0,33.263446 -11.000026,0 -22.000052,0 -33.0000781,0 0,-14.014841 0,-28.02968 0,-42.0445209 7.5619931,0 15.3043341,0 22.8663281,0" display="inline" opacity=".6"/><path id="path4149" fill="#89adc2" fill-opacity="1" stroke="none" d="m 11,7.0000003 2.369787,0 0,1 -2.369787,0 0,-1 z" display="inline"/><path id="path4147" fill="#89adc2" fill-opacity="1" stroke="none" d="m 13.692593,7.0000003 2.235993,0 0,1 -2.235993,0 0,-1 z" display="inline"/><path id="path4145" fill="#89adc2" fill-opacity="1" stroke="none" d="m 16.251394,7.0000003 1.968407,0 0,1 -1.968407,0 0,-1 z" display="inline"/><path id="path4143" fill="#89adc2" fill-opacity="1" stroke="none" d="m 18.54261,7.0000003 0.864609,0 0,1 -0.864609,0 0,-1 z" display="inline"/><path id="path4141" fill="#89adc2" fill-opacity="1" stroke="none" d="m 19.730027,7.0000003 1.934957,0 0,1 -1.934957,0 0,-1 z" display="inline"/><path id="path4139" fill="#89adc2" fill-opacity="1" stroke="none" d="m 21.987791,7.0000003 5.012209,0 0,1 -5.012209,0 0,-1 z" display="inline"/><path id="path4131" fill="#89adc2" fill-opacity="1" stroke="none" d="m 11,13 2.29764,0 0,1 L 11,14 11,13 z" display="inline"/><path id="path4129" fill="#89adc2" fill-opacity="1" stroke="none" d="m 13.610621,13 2.167919,0 0,1 -2.167919,0 0,-1 z" display="inline"/><path id="path4127" fill="#89adc2" fill-opacity="1" stroke="none" d="M 16.09152,13 18,13 l 0,1 -1.90848,0 0,-1 z" display="inline"/><path id="path4113" fill="#89adc2" fill-opacity="1" stroke="none" d="m 11,9.0000003 3.794449,0 0,0.9999997 L 11,10 11,9.0000003 z" display="inline"/><path id="path4111" fill="#89adc2" fill-opacity="1" stroke="none" d="m 15.140767,9.0000003 1.825534,0 0,0.9999997 -1.825534,0 0,-0.9999997 z" display="inline"/><path id="path4109" fill="#89adc2" fill-opacity="1" stroke="none" d="m 17.312621,9.0000003 0.858347,0 0,0.9999997 -0.858347,0 0,-0.9999997 z" display="inline"/><path id="path4107" fill="#89adc2" fill-opacity="1" stroke="none" d="m 18.517286,9.0000003 1.652821,0 0,0.9999997 -1.652821,0 0,-0.9999997 z" display="inline"/><path id="path4105" fill="#89adc2" fill-opacity="1" stroke="none" d="m 20.516425,9.0000003 1.652821,0 0,0.9999997 -1.652821,0 0,-0.9999997 z" display="inline"/><path id="path4103" fill="#89adc2" fill-opacity="1" stroke="none" d="m 22.515565,9.0000003 2.654549,0 0,0.9999997 -2.654549,0 0,-0.9999997 z" display="inline"/><path id="path4101" fill="#89adc2" fill-opacity="1" stroke="none" d="M 25.516433,9.0000003 29,9.0000003 29,10 l -3.483567,0 0,-0.9999997 z" display="inline"/><path id="path4095" fill="#89adc2" fill-opacity="1" stroke="none" d="m 11,11 4.186235,0 0,1 L 11,12 11,11 z" display="inline"/><path id="path4093" fill="#89adc2" fill-opacity="1" stroke="none" d="M 15.514391,11 20,11 l 0,1 -4.485609,0 0,-1 z" display="inline"/><path id="path4063" fill="#b78ed4" fill-opacity="1" stroke="none" d="m 11,16 3.066842,0 0,1 L 11,17 11,16 z" display="inline"/><path id="path4061" fill="#d48eb3" fill-opacity="1" stroke="none" d="M 14.392634,16 20,16 l 0,1 -5.607366,0 0,-1 z" display="inline"/><path id="path4049" fill="#b78ed4" fill-opacity="1" stroke="none" d="m 11,18 3.085091,0 0,1 L 11,19 11,18 z" display="inline"/><path id="path4045" fill="#d48eb3" fill-opacity="1" stroke="none" d="m 14.4348,18 5.100985,0 0,1 -5.100985,0 0,-1 z" display="inline"/><path id="path4043" fill="#89adc2" fill-opacity="1" stroke="none" d="m 19.898933,18 1.904204,0 0,1 -1.904204,0 0,-1 z" display="inline"/><path id="path4041" fill="#89adc2" fill-opacity="1" stroke="none" d="m 22.123666,18 1.904205,0 0,1 -1.904205,0 0,-1 z" display="inline"/><path id="path4039" fill="#89adc2" fill-opacity="1" stroke="none" d="m 24.348401,18 2.756592,0 0,1 -2.756592,0 0,-1 z" display="inline"/><path id="path4037" fill="#89adc2" fill-opacity="1" stroke="none" d="M 27.425522,18 28,18 l 0,1 -0.574478,0 0,-1 z" display="inline"/><path id="path4241" fill="#89adc2" fill-opacity="1" stroke="none" d="m 19.999794,27 1.866925,0 0,0.999916 -1.866925,0 0,-0.999916 z" display="inline"/><path id="path4239" fill="#89adc2" fill-opacity="1" stroke="none" d="m 22.178177,27 4.835982,0 0,0.999916 -4.835982,0 0,-0.999916 z" display="inline"/><path id="path4237" fill="#89adc2" fill-opacity="1" stroke="none" d="m 27.325618,27 3.674176,0 0,0.999916 -3.674176,0 0,-0.999916 z" display="inline"/><path id="path4209" fill="#89adc2" fill-opacity="1" stroke="none" d="m 20,29 2.444613,0 0,0.985927 -2.444613,0 L 20,29 z" display="inline"/><path id="path4207" fill="#89adc2" fill-opacity="1" stroke="none" d="m 22.777067,29 4.274761,0 0,0.985927 -4.274761,0 0,-0.985927 z" display="inline"/><path id="path4203" fill="#89adc2" fill-opacity="1" stroke="none" d="m 27.384282,29 2.926777,0 0,0.985927 -2.926777,0 0,-0.985927 z" display="inline"/><path id="path4177" fill="#89adc2" fill-opacity="1" stroke="none" d="m 20,25 2.340812,0 0,1 L 20,26 20,25 z" display="inline"/><path id="path4175" fill="#89adc2" fill-opacity="1" stroke="none" d="M 25.141173,25 27,25 l 0,1 -1.858827,0 0,-1 z" display="inline"/><path id="path4169" fill="#89adc2" fill-opacity="1" stroke="none" d="m 22.650919,25 2.180148,0 0,1 -2.180148,0 0,-1 z" display="inline"/><path id="path4161" fill="#89adc2" fill-opacity="1" stroke="none" d="m 20,31.116321 1.88209,0 0,0.972321 -1.88209,0 0,-0.972321 z" display="inline"/><path id="path4159" fill="#89adc2" fill-opacity="1" stroke="none" d="m 22.198897,31.116321 1.882091,0 0,0.972321 -1.882091,0 0,-0.972321 z" display="inline"/><path id="path4157" fill="#89adc2" fill-opacity="1" stroke="none" d="m 24.397795,31.116321 2.72458,0 0,0.972321 -2.72458,0 0,-0.972321 z" display="inline"/><path id="path4155" fill="#89adc2" fill-opacity="1" stroke="none" d="m 27.439181,31.116321 0.567807,0 0,0.972321 -0.567807,0 0,-0.972321 z" display="inline"/><path id="path4153" fill="#89adc2" fill-opacity="1" stroke="none" d="m 28.323796,31.116321 3.533369,0 0,0.972321 -3.533369,0 0,-0.972321 z" display="inline"/><path id="path5302" fill="#94d48e" fill-opacity="1" stroke="none" d="m 11,25 2.759665,0 0,0.986089 -2.759665,0 L 11,25 z" display="inline"/><path id="path5304" fill="url(#linearGradient5988)" fill-opacity="1" stroke="none" d="M 14.143674,25 16,25 l 0,0.986089 -1.856326,0 0,-0.986089 z" display="inline"/><path id="path5310" fill="#94d48e" fill-opacity="1" stroke="none" d="m 11,27.000084 2.941725,0 0,0.999916 L 11,28 11,27.000084 z" display="inline"/><path id="path5312" fill="url(#linearGradient5984)" fill-opacity="1" stroke="none" d="m 14.2915,27.000084 2.7085,0 L 17,28 l -2.7085,0 0,-0.999916 z" display="inline"/><path id="path5318" fill="#94d48e" fill-opacity="1" stroke="none" d="m 11,29.014073 2.535,0 L 13.535,30 11,30 11,29.014073 z" display="inline"/><path id="path5320" fill="url(#linearGradient5980)" fill-opacity="1" stroke="none" d="M 13.947676,29.014073 16,29.014073 16,30 l -2.052324,0 0,-0.985927 z" display="inline"/><path id="path5326" fill="#94d48e" fill-opacity="1" stroke="none" d="m 11,31.144001 2.214387,0 0,0.97232 -2.214387,0 0,-0.97232 z" display="inline"/><path id="path5328" fill="url(#linearGradient6073)" fill-opacity="1" stroke="none" d="m 13.57487,31.144001 2.118799,0 0,0.97232 -2.118799,0 0,-0.97232 z" display="inline"/><path id="path4031" fill="#94d48e" fill-opacity="1" stroke="none" d="m 11,21 2.358908,0 0,1 L 11,22 11,21 z" display="inline"/><path id="path4029" fill="url(#linearGradient6143)" fill-opacity="1" stroke="none" d="M 13.742918,21 16,21 l 0,1 -2.257082,0 0,-1 z" display="inline"/><path id="path5685" fill="url(#linearGradient6065)" fill-opacity="1" stroke="none" d="m 11,23 1,0 0,1 -1,0 0,-1 z" display="inline"/><path id="text2019" fill="gray" fill-opacity="1" stroke="none" d="m 18.372793,36.563377 c 0,0.463185 0,0.926369 0,1.389553 -0.775706,-0.570632 -2.124096,-0.740642 -2.70921,0.180239 -0.454198,0.826099 -0.25243,2.209104 0.795154,2.454987 0.656285,0.154146 1.379893,-7.22e-4 1.914056,-0.412896 0,0.46477 0,0.929539 0,1.394309 -1.331386,0.471363 -3.063449,0.473005 -4.083368,-0.637149 -0.84621,-1.028463 -0.848824,-2.700571 -10e-7,-3.728246 1.005305,-1.115979 2.7634,-1.108545 4.083369,-0.640795 l 0,-2e-6 z m 5.310751,-0.946987 c 0,0.831192 0,1.662384 0,2.493576 0.82802,0 1.65604,0 2.48406,0 0,0.374354 0,0.748708 0,1.123062 -0.82802,0 -1.65604,0 -2.48406,0 0,0.831194 0,1.662387 0,2.49358 -0.377526,0 -0.755053,0 -1.13258,0 0,-0.831193 0,-1.662386 0,-2.49358 -0.82802,0 -1.65604,0 -2.48406,0 0,-0.374354 0,-0.748708 0,-1.123062 0.82802,0 1.65604,0 2.48406,0 0,-0.831192 0,-1.662384 0,-2.493576 0.377527,0 0.755054,0 1.13258,0 z m 8.165993,0 c 0,0.831192 0,1.662384 0,2.493576 0.828021,0 1.656041,0 2.484062,0 0,0.374354 0,0.748708 0,1.123062 -0.828021,0 -1.656041,0 -2.484062,0 0,0.831194 0,1.662387 0,2.49358 -0.377527,0 -0.755053,0 -1.13258,0 0,-0.831193 0,-1.662386 0,-2.49358 -0.82802,0 -1.65604,0 -2.48406,0 0,-0.374354 0,-0.748708 0,-1.123062 0.82802,0 1.65604,0 2.48406,0 0,-0.831192 0,-1.662384 0,-2.493576 0.377527,0 0.755053,0 1.13258,0 z" display="inline" font-family="Bitstream Vera Sans" font-size="11.695" font-style="normal" font-weight="normal" style="line-height:125%"/><path id="path4191" fill="url(#radialGradient2997)" fill-opacity="1" d="M 7.361707,44 C 7.162407,44 7,43.824541 7,43.60922 L 7,1.4051693 c 0,-0.215708 0.162407,-0.390777 0.361707,-0.390777 7.483185,0.108015 15.775881,-0.16157502 23.249974,0.02689 l 10.282767,8.866025 0.10598,33.7019077 c 0,0.215321 -0.162045,0.39078 -0.361708,0.39078 l -33.277013,0 z"/><path id="path12038" fill="#000" fill-opacity="1" fill-rule="evenodd" stroke="none" d="m 28.617256,0.9212581 c 4.282522,0 2.15325,8.4831709 2.15325,8.4831709 0,0 10.357642,-1.8023467 10.357642,2.818745 0,-2.609724 -11.302304,-10.7285959 -12.510892,-11.3019159 z" display="inline" filter="url(#filter3248)" opacity=".4" transform="matrix(1.0000126,0,0,1,-8.77e-5,2.8387497e-7)"/><path id="path4474" fill="url(#linearGradient2633)" fill-opacity="1" fill-rule="evenodd" stroke="none" d="m 28.617528,0.92125828 c 3.186533,0 2.33579,7.66187852 2.33579,7.66187852 0,0 10.17526,-0.9810539 10.17526,3.6400372 0,-1.125939 0.08591,-1.932245 -0.133779,-2.2835927 -1.578333,-2.5241788 -8.395622,-8.188401 -10.857437,-8.930789 -0.184224,-0.05555 -0.592711,-0.08753 -1.519834,-0.08753 z" display="inline"/></g></svg>