<svg xmlns="http://www.w3.org/2000/svg" xmlns:svg="http://www.w3.org/2000/svg" xmlns:xlink="http://www.w3.org/1999/xlink" id="svg3853" width="48" height="48" version="1.1"><defs id="defs3855"><linearGradient id="linearGradient3764" x1="25.076" x2="25.076" y1="45.915" y2="6.443" gradientUnits="userSpaceOnUse" xlink:href="#linearGradient2490-3"/><linearGradient id="linearGradient2490-3"><stop id="stop2492-3" offset="0" stop-color="#365f0e" stop-opacity="1"/><stop id="stop2494-8" offset="1" stop-color="#84a718" stop-opacity="1"/></linearGradient><linearGradient id="linearGradient3766" x1="25.076" x2="25.076" y1="45.915" y2="6.443" gradientUnits="userSpaceOnUse" xlink:href="#linearGradient2490-3-7"/><linearGradient id="linearGradient2490-3-7"><stop id="stop2492-3-7" offset="0" stop-color="#365f0e" stop-opacity="1"/><stop id="stop2494-8-5" offset="1" stop-color="#84a718" stop-opacity="1"/></linearGradient><linearGradient id="linearGradient3768" x1="25.076" x2="25.076" y1="45.915" y2="6.443" gradientUnits="userSpaceOnUse" xlink:href="#linearGradient2490-3-1"/><linearGradient id="linearGradient2490-3-1"><stop id="stop2492-3-3" offset="0" stop-color="#365f0e" stop-opacity="1"/><stop id="stop2494-8-0" offset="1" stop-color="#84a718" stop-opacity="1"/></linearGradient><linearGradient id="linearGradient3312" x1="32.892" x2="36.358" y1="8.059" y2="5.457" gradientTransform="matrix(0.9976985,0,0,1.0406866,0.1638029,-1.1057942)" gradientUnits="userSpaceOnUse" xlink:href="#linearGradient8589"/><linearGradient id="linearGradient8589"><stop id="stop8591" offset="0" stop-color="#fefefe" stop-opacity="1"/><stop id="stop8593" offset="1" stop-color="#cbcbcb" stop-opacity="1"/></linearGradient><filter id="filter3212" width="1.297" height="1.329" x="-.148" y="-.164" color-interpolation-filters="sRGB"><feGaussianBlur id="feGaussianBlur3214" stdDeviation=".774"/></filter><linearGradient id="linearGradient3316" x1="24" x2="24" y1="2" y2="46.017" gradientTransform="matrix(1,0,0,0.9777778,0,-0.96666964)" gradientUnits="userSpaceOnUse" xlink:href="#linearGradient3211"/><linearGradient id="linearGradient3211"><stop id="stop3213" offset="0" stop-color="#fff" stop-opacity="1"/><stop id="stop3215" offset="1" stop-color="#fff" stop-opacity="0"/></linearGradient><radialGradient id="radialGradient3319" cx="102" cy="112.305" r="139.559" gradientTransform="matrix(0.3617022,0,0,-0.3907784,0.8510637,47.517004)" gradientUnits="userSpaceOnUse" xlink:href="#linearGradient3754"/><linearGradient id="linearGradient3754"><stop id="stop3756" offset="0" stop-color="#181818" stop-opacity="1"/><stop id="stop3762" offset=".25" stop-color="#181818" stop-opacity="0"/><stop id="stop3758" offset="1" stop-color="#181818" stop-opacity="0"/></linearGradient><radialGradient id="radialGradient3752" cx="24" cy="4.5" r="18" fx="24" fy="4.5" gradientTransform="matrix(0,3.0596818,-3.2851975,0,38.783389,-73.43513)" gradientUnits="userSpaceOnUse" xlink:href="#linearGradient3242-7"/><linearGradient id="linearGradient3242-7"><stop id="stop3244-5" offset="0" stop-color="#eef87e" stop-opacity="1"/><stop id="stop3246-9" offset=".262" stop-color="#cde34f" stop-opacity="1"/><stop id="stop3248-7" offset=".661" stop-color="#93b723" stop-opacity="1"/><stop id="stop3250-8" offset="1" stop-color="#5a7e0d" stop-opacity="1"/></linearGradient><linearGradient id="linearGradient3324" x1="-51.786" x2="-51.786" y1="50.786" y2="2.906" gradientTransform="matrix(0.8074968,0,0,0.8948322,59.410232,-2.9805536)" gradientUnits="userSpaceOnUse" xlink:href="#linearGradient2490-3"/><radialGradient id="radialGradient3327" cx="605.714" cy="486.648" r="117.143" fx="605.714" fy="486.648" gradientTransform="matrix(0.02303995,0,0,0.01470022,26.360882,37.040176)" gradientUnits="userSpaceOnUse" xlink:href="#linearGradient5060"/><linearGradient id="linearGradient5060"><stop id="stop5062" offset="0" stop-color="#000" stop-opacity="1"/><stop id="stop5064" offset="1" stop-color="#000" stop-opacity="0"/></linearGradient><radialGradient id="radialGradient3330" cx="605.714" cy="486.648" r="117.143" fx="605.714" fy="486.648" gradientTransform="matrix(-0.02303994,0,0,0.01470022,21.62311,37.040176)" gradientUnits="userSpaceOnUse" xlink:href="#linearGradient5060"/><linearGradient id="linearGradient5048"><stop id="stop5050" offset="0" stop-color="#000" stop-opacity="0"/><stop id="stop5056" offset=".5" stop-color="#000" stop-opacity="1"/><stop id="stop5052" offset="1" stop-color="#000" stop-opacity="0"/></linearGradient><linearGradient id="linearGradient3851" x1="302.857" x2="302.857" y1="366.648" y2="609.505" gradientTransform="matrix(0.06732488,0,0,0.01470022,-0.3411391,37.040146)" gradientUnits="userSpaceOnUse" xlink:href="#linearGradient5048"/></defs><metadata id="metadata3858"/><g id="layer1"><rect id="rect2879" width="32.508" height="3.57" x="7.738" y="42.43" fill="url(#linearGradient3851)" fill-opacity="1" fill-rule="nonzero" stroke="none" stroke-width="1" display="inline" opacity=".3" overflow="visible" visibility="visible" style="marker:none"/><path id="path2881" fill="url(#radialGradient3330)" fill-opacity="1" fill-rule="nonzero" stroke="none" stroke-width="1" d="m 7.7378475,42.430102 c 0,0 0,3.569856 0,3.569856 -1.1865002,0.0067 -2.8683795,-0.799823 -2.8683795,-1.785158 0,-0.985333 1.3240446,-1.784697 2.8683795,-1.784698 z" display="inline" opacity=".3" overflow="visible" visibility="visible" style="marker:none"/><path id="path2883" fill="url(#radialGradient3327)" fill-opacity="1" fill-rule="nonzero" stroke="none" stroke-width="1" d="m 40.246148,42.430102 c 0,0 0,3.569856 0,3.569856 1.1865,0.0067 2.86838,-0.799823 2.86838,-1.785158 0,-0.985333 -1.324045,-1.784697 -2.86838,-1.784698 z" display="inline" opacity=".3" overflow="visible" visibility="visible" style="marker:none"/><path id="path4160" fill="url(#radialGradient3752)" fill-opacity="1" stroke="url(#linearGradient3324)" stroke-dasharray="none" stroke-dashoffset="0" stroke-linecap="butt" stroke-linejoin="round" stroke-miterlimit="4" stroke-opacity="1" stroke-width="1" d="m 6.4999609,0.49719839 c 8.0202951,0 16.0405901,0 24.0608861,0 1.406933,0.4746531 8.965454,5.88220471 10.939195,9.62640661 0,11.459733 0,22.919465 0,34.379198 -11.666694,0 -23.333387,0 -35.0000811,0 0,-14.668535 0,-29.33707 0,-44.00560461 z" display="inline"/><path id="path4191" fill="url(#radialGradient3319)" fill-opacity="1" d="m 7.3617017,44 c -0.199297,0 -0.361702,-0.175459 -0.361702,-0.39078 l 0,-42.2040502 c 0,-0.2157088 0.162405,-0.3907775 0.361702,-0.3907775 C 14.844793,1.122407 23.137385,0.85281719 30.611384,1.0412869 L 40.894021,9.907312 41,43.60922 C 41,43.824541 40.837957,44 40.638297,44 L 7.3617017,44 z" opacity=".3"/><path id="path2435" fill="none" stroke="url(#linearGradient3316)" stroke-dasharray="none" stroke-dashoffset="0" stroke-linecap="butt" stroke-linejoin="round" stroke-miterlimit="4" stroke-opacity="1" stroke-width="1" d="m 40.500039,10.258811 c 0,10.949037 0,22.31441 0,33.263447 -11.000026,0 -22.000052,0 -33.0000781,0 0,-14.014841 0,-28.029681 0,-42.0445216 7.5619931,0 15.3043341,0 22.8663281,0" display="inline" opacity=".4"/><path id="path12038" fill="#000" fill-opacity="1" fill-rule="evenodd" stroke="none" d="m 28.617256,0.92125799 c 4.282522,0 2.15325,8.48317101 2.15325,8.48317101 0,0 10.357642,-1.8023464 10.357642,2.818745 0,-2.609724 -11.302304,-10.7285959 -12.510892,-11.30191601 z" display="inline" filter="url(#filter3212)" opacity=".4"/><path id="path4474" fill="url(#linearGradient3312)" fill-opacity="1" fill-rule="evenodd" stroke="none" d="m 28.617256,0.92125799 c 3.186493,0 2.33576,7.66187851 2.33576,7.66187851 0,0 10.175132,-0.9810539 10.175132,3.6400375 0,-1.125939 0.08591,-1.932245 -0.133777,-2.283593 -1.578313,-2.5241788 -8.395516,-8.1884002 -10.8573,-8.9307883 -0.184222,-0.0555547 -0.592704,-0.0875347 -1.519815,-0.0875347 z" display="inline"/><path id="path3932-8-3" fill="url(#linearGradient3768)" fill-opacity="1" fill-rule="nonzero" stroke="none" stroke-width=".985" d="M 18.71875,14.09375 A 2.9091695,2.9091695 0 0 0 16.09375,17 l 0,6.09375 -1.59375,0 a 2.9091695,2.9091695 0 0 0 -2.1875,4.8125 l 9.5,11 a 2.9091695,2.9091695 0 0 0 4.375,0 l 9.5,-11 A 2.9091695,2.9091695 0 0 0 33.5,23.09375 l -1.59375,0 0,-6.09375 A 2.9091695,2.9091695 0 0 0 29,14.09375 l -10,0 a 2.9091695,2.9091695 0 0 0 -0.28125,0 z" color="#000" display="inline" enable-background="accumulate" opacity=".05" overflow="visible" transform="translate(0,-1.9995796)" visibility="visible" style="marker:none"/><path id="path3932-8" fill="url(#linearGradient3766)" fill-opacity="1" fill-rule="nonzero" stroke="none" stroke-width=".985" d="M 18.8125,14.96875 A 2.0262062,2.0262062 0 0 0 16.96875,17 l 0,6.96875 -2.46875,0 a 2.0262062,2.0262062 0 0 0 -1.53125,3.34375 l 9.5,11 a 2.0262062,2.0262062 0 0 0 3.0625,0 l 9.5,-11 A 2.0262062,2.0262062 0 0 0 33.5,23.96875 l -2.46875,0 0,-6.96875 A 2.0262062,2.0262062 0 0 0 29,14.96875 l -10,0 a 2.0262062,2.0262062 0 0 0 -0.1875,0 z" color="#000" display="inline" enable-background="accumulate" opacity=".1" overflow="visible" transform="translate(0,-1.9995796)" visibility="visible" style="marker:none"/><path id="path3932" fill="url(#linearGradient3764)" fill-opacity="1" fill-rule="nonzero" stroke="none" stroke-width=".985" d="M 18.90625,15.9375 A 1.0548436,1.0548436 0 0 0 17.9375,17 l 0,7.9375 -3.4375,0 a 1.0548436,1.0548436 0 0 0 -0.8125,1.75 l 9.5,11 a 1.0548436,1.0548436 0 0 0 1.625,0 l 9.5,-11 A 1.0548436,1.0548436 0 0 0 33.5,24.9375 l -3.4375,0 0,-7.9375 A 1.0548436,1.0548436 0 0 0 29,15.9375 l -10,0 a 1.0548436,1.0548436 0 0 0 -0.09375,0 z" display="inline" opacity=".25" overflow="visible" transform="translate(0,-1.9995796)" visibility="visible" style="marker:none"/><path id="path3288" fill="#f2f2f2" fill-opacity="1" fill-rule="nonzero" stroke="none" stroke-width=".985" d="m 33.507286,24.010753 -9.507286,11 -9.507286,-11 4.507286,0 0,-9.014573 10,0 0,9.014573 4.507286,0 z" display="inline" overflow="visible" visibility="visible" style="marker:none"/><path style="marker:none" id="path3288-2" fill="none" stroke="#fff" stroke-opacity="1" stroke-width=".985" d="m 32.5,24.503466 -8.5,10 -8.5,-10 4,0 0,-9 9,0 0,9 4,0 z" display="inline" overflow="visible" visibility="visible"/></g></svg>