<svg xmlns="http://www.w3.org/2000/svg" xmlns:svg="http://www.w3.org/2000/svg" xmlns:xlink="http://www.w3.org/1999/xlink" id="svg3845" width="48" height="48" version="1.0"><defs id="defs3847"><linearGradient id="linearGradient5048"><stop id="stop5050" offset="0" stop-color="#000" stop-opacity="0"/><stop id="stop5056" offset=".5" stop-color="#000" stop-opacity="1"/><stop id="stop5052" offset="1" stop-color="#000" stop-opacity="0"/></linearGradient><linearGradient id="linearGradient3333" x1="302.857" x2="302.857" y1="366.648" y2="609.505" gradientTransform="matrix(6.7324884e-2,0,0,1.4700216e-2,-0.3411391,37.040146)" gradientUnits="userSpaceOnUse" xlink:href="#linearGradient5048"/><radialGradient id="radialGradient3330" cx="605.714" cy="486.648" r="117.143" fx="605.714" fy="486.648" gradientTransform="matrix(-2.3039943e-2,0,0,1.4700216e-2,21.62311,37.040176)" gradientUnits="userSpaceOnUse" xlink:href="#linearGradient5060"/><linearGradient id="linearGradient5060"><stop id="stop5062" offset="0" stop-color="#000" stop-opacity="1"/><stop id="stop5064" offset="1" stop-color="#000" stop-opacity="0"/></linearGradient><radialGradient id="radialGradient3327" cx="605.714" cy="486.648" r="117.143" fx="605.714" fy="486.648" gradientTransform="matrix(2.3039948e-2,0,0,1.4700216e-2,26.360882,37.040176)" gradientUnits="userSpaceOnUse" xlink:href="#linearGradient5060"/><linearGradient id="linearGradient3324" x1="-51.786" x2="-51.786" y1="50.786" y2="2.906" gradientTransform="matrix(0.8074968,0,0,0.8948322,59.410232,-2.9805533)" gradientUnits="userSpaceOnUse" xlink:href="#linearGradient3104"/><linearGradient id="linearGradient3600"><stop id="stop3602" offset="0" stop-color="#f4f4f4" stop-opacity="1"/><stop id="stop3604" offset="1" stop-color="#dbdbdb" stop-opacity="1"/></linearGradient><linearGradient id="linearGradient3322" x1="25.132" x2="25.132" y1=".985" y2="47.013" gradientTransform="matrix(1,0,0,0.9561695,-1.0064697e-7,-1.914922)" gradientUnits="userSpaceOnUse" xlink:href="#linearGradient3600"/><radialGradient id="XMLID_8_" cx="102" cy="112.305" r="139.559" gradientUnits="userSpaceOnUse"><stop id="stop41" offset="0" stop-color="#b7b8b9" stop-opacity="1"/><stop id="stop47" offset=".189" stop-color="#ececec" stop-opacity="1"/><stop id="stop49" offset=".257" stop-color="#fafafa" stop-opacity="0"/><stop id="stop51" offset=".301" stop-color="#fff" stop-opacity="0"/><stop id="stop53" offset=".531" stop-color="#fafafa" stop-opacity="0"/><stop id="stop55" offset=".845" stop-color="#ebecec" stop-opacity="0"/><stop id="stop57" offset="1" stop-color="#e1e2e3" stop-opacity="0"/></radialGradient><radialGradient id="radialGradient3319" cx="102" cy="112.305" r="139.559" gradientTransform="matrix(0.3617022,0,0,-0.3907784,0.8510637,47.517004)" gradientUnits="userSpaceOnUse" xlink:href="#XMLID_8_"/><linearGradient id="linearGradient3211"><stop id="stop3213" offset="0" stop-color="#fff" stop-opacity="1"/><stop id="stop3215" offset="1" stop-color="#fff" stop-opacity="0"/></linearGradient><linearGradient id="linearGradient3316" x1="24" x2="24" y1="2" y2="46.017" gradientTransform="matrix(1,0,0,0.9777778,0,-0.9666693)" gradientUnits="userSpaceOnUse" xlink:href="#linearGradient3211"/><filter id="filter3212" width="1.297" height="1.329" x="-.148" y="-.164"><feGaussianBlur id="feGaussianBlur3214" stdDeviation=".774"/></filter><linearGradient id="linearGradient8589"><stop id="stop8591" offset="0" stop-color="#fefefe" stop-opacity="1"/><stop id="stop8593" offset="1" stop-color="#cbcbcb" stop-opacity="1"/></linearGradient><linearGradient id="linearGradient3312" x1="32.892" x2="36.358" y1="8.059" y2="5.457" gradientTransform="matrix(0.9976985,0,0,1.0406866,0.1638029,-1.1057939)" gradientUnits="userSpaceOnUse" xlink:href="#linearGradient8589"/><linearGradient id="linearGradient3818" x1="18.386" x2="18.386" y1="44.961" y2=".259" gradientUnits="userSpaceOnUse" xlink:href="#linearGradient3104"/><linearGradient id="linearGradient3104"><stop id="stop3106" offset="0" stop-color="#aaa" stop-opacity="1"/><stop id="stop3108" offset="1" stop-color="#c8c8c8" stop-opacity="1"/></linearGradient><linearGradient id="linearGradient3843" x1="25.498" x2="25.498" y1="44.638" y2=".276" gradientUnits="userSpaceOnUse" xlink:href="#linearGradient3104"/><linearGradient id="linearGradient3623-623"><stop id="stop3127" offset="0" stop-color="#fff" stop-opacity="1"/><stop id="stop3129" offset="1" stop-color="#e1e1e1" stop-opacity="1"/></linearGradient><linearGradient id="linearGradient3805" x1="83.24" x2="83.24" y1="42.457" y2="57.61" gradientTransform="matrix(0.403936,0,0,0.4256678,-1.4432356,-4.7929839)" gradientUnits="userSpaceOnUse" xlink:href="#linearGradient3623-623"/></defs><g id="layer1"><rect id="rect2879" width="32.508" height="3.57" x="7.738" y="42.43" fill="url(#linearGradient3333)" fill-opacity="1" fill-rule="nonzero" stroke="none" stroke-dasharray="none" stroke-dashoffset="0" stroke-linecap="round" stroke-linejoin="miter" stroke-miterlimit="4" stroke-opacity="1" stroke-width="1" marker-end="none" marker-mid="none" marker-start="none" display="inline" opacity=".3" overflow="visible" visibility="visible" style="marker:none"/><path id="path2881" fill="url(#radialGradient3330)" fill-opacity="1" fill-rule="nonzero" stroke="none" stroke-dasharray="none" stroke-dashoffset="0" stroke-linecap="round" stroke-linejoin="miter" stroke-miterlimit="4" stroke-opacity="1" stroke-width="1" marker-end="none" marker-mid="none" marker-start="none" d="M 7.7378475,42.430102 C 7.7378475,42.430102 7.7378475,45.999958 7.7378475,45.999958 C 6.5513473,46.006679 4.869468,45.200135 4.869468,44.2148 C 4.869468,43.229467 6.1935126,42.430103 7.7378475,42.430102 z" display="inline" opacity=".3" overflow="visible" visibility="visible" style="marker:none"/><path id="path2883" fill="url(#radialGradient3327)" fill-opacity="1" fill-rule="nonzero" stroke="none" stroke-dasharray="none" stroke-dashoffset="0" stroke-linecap="round" stroke-linejoin="miter" stroke-miterlimit="4" stroke-opacity="1" stroke-width="1" marker-end="none" marker-mid="none" marker-start="none" d="M 40.246148,42.430102 C 40.246148,42.430102 40.246148,45.999958 40.246148,45.999958 C 41.432648,46.006679 43.114528,45.200135 43.114528,44.2148 C 43.114528,43.229467 41.790483,42.430103 40.246148,42.430102 z" display="inline" opacity=".3" overflow="visible" visibility="visible" style="marker:none"/><path id="path4160" fill="url(#linearGradient3322)" fill-opacity="1" stroke="url(#linearGradient3324)" stroke-dasharray="none" stroke-dashoffset="0" stroke-linecap="butt" stroke-linejoin="round" stroke-miterlimit="4" stroke-opacity="1" stroke-width="1" d="M 6.4999609,0.49719878 C 14.520256,0.49719878 22.540551,0.49719878 30.560847,0.49719878 C 31.96778,0.97185188 39.526301,6.3794034 41.500042,10.123605 C 41.500042,21.583338 41.500042,33.04307 41.500042,44.502803 C 29.833348,44.502803 18.166655,44.502803 6.4999609,44.502803 C 6.4999609,29.834268 6.4999609,15.165733 6.4999609,0.49719878 z" display="inline"/><path id="path4191" fill="url(#radialGradient3319)" fill-opacity="1" d="M 7.3617017,44 C 7.1624047,44 6.9999997,43.824541 6.9999997,43.60922 L 6.9999997,1.4051701 C 6.9999997,1.1894613 7.1624047,1.0143926 7.3617017,1.0143926 C 14.844793,1.1224073 23.137385,0.85281757 30.611384,1.0412872 L 40.894021,9.9073127 L 41,43.60922 C 41,43.824541 40.837957,44 40.638297,44 L 7.3617017,44 z"/><path id="path2435" fill="none" fill-opacity="1" stroke="url(#linearGradient3316)" stroke-dasharray="none" stroke-dashoffset="0" stroke-linecap="butt" stroke-linejoin="round" stroke-miterlimit="4" stroke-opacity="1" stroke-width="1" d="M 40.500039,10.258811 C 40.500039,21.207848 40.500039,32.573221 40.500039,43.522258 C 29.500013,43.522258 18.499987,43.522258 7.4999609,43.522258 C 7.4999609,29.507417 7.4999609,15.492577 7.4999609,1.4777367 C 15.061954,1.4777367 22.804295,1.4777367 30.366289,1.4777367" display="inline" opacity=".6"/><path id="path12038" fill="#000" fill-opacity="1" fill-rule="evenodd" stroke="none" stroke-linecap="butt" stroke-linejoin="miter" stroke-opacity="1" stroke-width="1" d="M 28.617256,0.92125832 C 32.899778,0.92125832 30.770506,9.4044296 30.770506,9.4044296 C 30.770506,9.4044296 41.128148,7.6020829 41.128148,12.223174 C 41.128148,9.6134507 29.825844,1.4945784 28.617256,0.92125832 z" display="inline" filter="url(#filter3212)" opacity=".4"/><path id="path4474" fill="url(#linearGradient3312)" fill-opacity="1" fill-rule="evenodd" stroke="none" stroke-linecap="butt" stroke-linejoin="miter" stroke-opacity="1" stroke-width="1" d="M 28.617256,0.92125832 C 31.803749,0.92125832 30.953016,8.5831368 30.953016,8.5831368 C 30.953016,8.5831368 41.128148,7.6020829 41.128148,12.223174 C 41.128148,11.097235 41.214061,10.290929 40.994371,9.9395812 C 39.416058,7.4154025 32.598855,1.7511811 30.137071,1.008793 C 29.952849,0.95323837 29.544367,0.92125832 28.617256,0.92125832 z" display="inline"/><path id="path3835" fill="#fff" fill-opacity="1" fill-rule="evenodd" stroke="url(#linearGradient3818)" stroke-dashoffset="0" stroke-linecap="round" stroke-linejoin="round" stroke-miterlimit="4" stroke-opacity="1" stroke-width="1" marker-end="none" marker-mid="none" marker-start="none" d="M 11.5,30.5 L 19.5,30.5 L 19.5,38.5 L 11.5,38.5 L 11.5,30.5 z" display="inline" enable-background="accumulate" overflow="visible" visibility="visible" style="marker:none"/><path id="path3833" fill="#fff" fill-opacity="1" fill-rule="evenodd" stroke="url(#linearGradient3818)" stroke-dashoffset="0" stroke-linecap="round" stroke-linejoin="round" stroke-miterlimit="4" stroke-opacity="1" stroke-width="1" marker-end="none" marker-mid="none" marker-start="none" d="M 36.5,34.499998 C 36.5,36.707998 34.708,38.499998 32.5,38.499998 C 30.292,38.499998 28.500001,36.707998 28.500001,34.499998 C 28.500001,32.291998 30.292,30.499998 32.5,30.499998 C 34.708,30.499998 36.5,32.291998 36.5,34.499998 z" display="inline" enable-background="accumulate" overflow="visible" visibility="visible" style="marker:none"/><path id="path3831" fill="#fff" fill-opacity="1" fill-rule="evenodd" stroke="url(#linearGradient3818)" stroke-dashoffset="0" stroke-linecap="round" stroke-linejoin="round" stroke-miterlimit="4" stroke-opacity="1" stroke-width="1" marker-end="none" marker-mid="none" marker-start="none" d="M 12.868934,12.50151 L 35.145123,12.50151 C 35.899613,12.50151 36.507018,13.164348 36.507018,13.987695 L 36.507018,19.013815 C 36.507018,19.837161 35.899613,20.5 35.145123,20.5 L 12.868934,20.5 C 12.114444,20.5 11.507039,19.837161 11.507039,19.013815 L 11.507039,13.987695 C 11.507039,13.164348 12.114444,12.50151 12.868934,12.50151 z" display="inline" enable-background="accumulate" overflow="visible" visibility="visible" style="marker:none"/><path id="rect2257" fill="#4d4d4d" fill-opacity="1" fill-rule="evenodd" stroke="none" stroke-dashoffset="0" stroke-linecap="round" stroke-linejoin="round" stroke-miterlimit="4" stroke-opacity="1" stroke-width="1" marker-end="none" marker-mid="none" marker-start="none" d="M 34.500003,34.499997 C 34.500003,35.603997 33.604003,36.499999 32.5,36.499999 C 31.395998,36.499999 30.499998,35.603997 30.499998,34.499997 C 30.499998,33.395997 31.395998,32.499997 32.5,32.499997 C 33.604003,32.499997 34.500003,33.395997 34.500003,34.499997 z" display="inline" enable-background="accumulate" overflow="visible" visibility="visible" style="marker:none"/><path id="rect3618" fill="url(#linearGradient3805)" fill-opacity="1" fill-rule="evenodd" stroke="url(#linearGradient3843)" stroke-dasharray="none" stroke-dashoffset="0" stroke-linecap="round" stroke-linejoin="round" stroke-miterlimit="4" stroke-opacity="1" stroke-width="1" marker-end="none" marker-mid="none" marker-start="none" d="M 28.460655,12.499772 L 28.460655,20.494347 L 34.746909,20.494347 C 35.723055,20.494347 36.501508,19.674015 36.501507,18.645351 L 36.501507,14.362069 C 36.501507,13.333406 35.723057,12.499772 34.746909,12.499772 L 28.460655,12.499772 z" display="inline" enable-background="accumulate" overflow="visible" visibility="visible" style="marker:none"/><path id="path3631" fill="none" fill-rule="evenodd" stroke="#4d4d4d" stroke-dasharray="none" stroke-linecap="round" stroke-linejoin="round" stroke-miterlimit="4" stroke-opacity="1" stroke-width="1" d="M 31.110031,15.736799 L 32.50447,17.288504 L 33.940984,15.721211"/><path id="path2259" fill="none" fill-rule="evenodd" stroke="#4d4d4d" stroke-dasharray="none" stroke-linecap="round" stroke-linejoin="round" stroke-miterlimit="4" stroke-opacity="1" stroke-width="1" d="M 13.256096,35.18292 L 15.207312,36.743898 L 17.93902,33.036582"/></g></svg>