<svg xmlns="http://www.w3.org/2000/svg" xmlns:svg="http://www.w3.org/2000/svg" xmlns:xlink="http://www.w3.org/1999/xlink" id="svg2481" width="48" height="48" version="1.1"><defs id="defs2483"><radialGradient id="radialGradient3588" cx="605.714" cy="486.648" r="117.143" fx="605.714" fy="486.648" gradientTransform="matrix(0.02409717,0,0,0.01537476,26.477584,38.629039)" gradientUnits="userSpaceOnUse" xlink:href="#linearGradient5060"/><linearGradient id="linearGradient5060"><stop id="stop5062" offset="0" stop-color="#000" stop-opacity="1"/><stop id="stop5064" offset="1" stop-color="#000" stop-opacity="0"/></linearGradient><radialGradient id="radialGradient3586" cx="605.714" cy="486.648" r="117.143" fx="605.714" fy="486.648" gradientTransform="matrix(-0.02409717,0,0,0.01537476,21.522412,38.629039)" gradientUnits="userSpaceOnUse" xlink:href="#linearGradient5060"/><linearGradient id="linearGradient5048"><stop id="stop5050" offset="0" stop-color="#000" stop-opacity="0"/><stop id="stop5056" offset=".5" stop-color="#000" stop-opacity="1"/><stop id="stop5052" offset="1" stop-color="#000" stop-opacity="0"/></linearGradient><linearGradient id="linearGradient3584" x1="302.857" x2="302.857" y1="366.648" y2="609.505" gradientTransform="matrix(0.0704142,0,0,0.01537476,-1.4497047,38.629007)" gradientUnits="userSpaceOnUse" xlink:href="#linearGradient5048"/><linearGradient id="linearGradient3104"><stop id="stop3106" offset="0" stop-color="#aaa" stop-opacity="1"/><stop id="stop3108" offset="1" stop-color="#d2d2d2" stop-opacity="1"/></linearGradient><linearGradient id="linearGradient3603" x1="-51.786" x2="-51.786" y1="50.786" y2="2.906" gradientTransform="matrix(0.8074968,0,0,0.9358511,59.410236,-2.1144791)" gradientUnits="userSpaceOnUse" xlink:href="#linearGradient3104"/><linearGradient id="linearGradient3600"><stop id="stop3602" offset="0" stop-color="#f4f4f4" stop-opacity="1"/><stop id="stop3604" offset="1" stop-color="#dbdbdb" stop-opacity="1"/></linearGradient><linearGradient id="linearGradient3601" x1="25.132" x2="25.132" y1="6.729" y2="47.013" gradientTransform="translate(0,-0.99999972)" gradientUnits="userSpaceOnUse" xlink:href="#linearGradient3600"/><linearGradient id="linearGradient5988" x1="22.104" x2="22.104" y1="40.124" y2="10.035" gradientTransform="matrix(0.3342091,0,0,1.4207463,9.6790122,-0.23795132)" gradientUnits="userSpaceOnUse" xlink:href="#linearGradient5031"/><linearGradient id="linearGradient5984" x1="22.104" x2="22.104" y1="40.124" y2="10.035" gradientTransform="matrix(0.4876325,0,0,1.4406684,7.777273,1.4082398)" gradientUnits="userSpaceOnUse" xlink:href="#linearGradient5031"/><linearGradient id="linearGradient5980" x1="22.104" x2="22.104" y1="40.124" y2="10.035" gradientTransform="matrix(0.369496,0,0,1.4205132,9.0116197,3.7802626)" gradientUnits="userSpaceOnUse" xlink:href="#linearGradient5031"/><linearGradient id="linearGradient6073" x1="22.104" x2="22.104" y1="40.124" y2="10.035" gradientTransform="matrix(0.3814643,0,0,1.4009103,8.4789307,6.2584122)" gradientUnits="userSpaceOnUse" xlink:href="#linearGradient5031"/><linearGradient id="linearGradient6143" x1="22.104" x2="22.104" y1="40.124" y2="10.035" gradientTransform="matrix(0.4063605,0,0,1.4407893,8.3143938,-4.5939912)" gradientUnits="userSpaceOnUse" xlink:href="#linearGradient5031"/><linearGradient id="linearGradient5031"><stop id="stop5033" offset="0" stop-color="#a3a3a3" stop-opacity="1"/><stop id="stop5035" offset="1" stop-color="#bababa" stop-opacity="1"/></linearGradient><linearGradient id="linearGradient6065" x1="22.104" x2="22.104" y1="40.124" y2="10.035" gradientTransform="matrix(1.7828362,0,0,1.4407913,-37.938893,-27.441342)" gradientUnits="userSpaceOnUse" xlink:href="#linearGradient5031"/><radialGradient id="XMLID_8_" cx="102" cy="112.305" r="139.559" gradientUnits="userSpaceOnUse"><stop id="stop41" offset="0" stop-color="#b7b8b9" stop-opacity="1"/><stop id="stop47" offset=".189" stop-color="#ececec" stop-opacity="1"/><stop id="stop49" offset=".257" stop-color="#fafafa" stop-opacity="0"/><stop id="stop51" offset=".301" stop-color="#fff" stop-opacity="0"/><stop id="stop53" offset=".531" stop-color="#fafafa" stop-opacity="0"/><stop id="stop55" offset=".845" stop-color="#ebecec" stop-opacity="0"/><stop id="stop57" offset="1" stop-color="#e1e2e3" stop-opacity="0"/></radialGradient><filter id="filter3212" width="1.297" height="1.329" x="-.148" y="-.164" color-interpolation-filters="sRGB"><feGaussianBlur id="feGaussianBlur3214" stdDeviation=".774"/></filter><linearGradient id="linearGradient2447" x1="32.892" x2="36.358" y1="8.059" y2="5.457" gradientTransform="matrix(0.9976985,0,0,1.0406866,0.1638032,-1.1280129)" gradientUnits="userSpaceOnUse" xlink:href="#linearGradient8589-0"/><linearGradient id="linearGradient8589-0"><stop id="stop8591-3" offset="0" stop-color="#fefefe" stop-opacity="1"/><stop id="stop8593-0" offset="1" stop-color="#cbcbcb" stop-opacity="1"/></linearGradient><linearGradient id="linearGradient2451" x1="24" x2="24" y1="2" y2="46.017" gradientTransform="matrix(1,0,0,0.9777778,3e-7,-0.9888879)" gradientUnits="userSpaceOnUse" xlink:href="#linearGradient3211"/><linearGradient id="linearGradient3211"><stop id="stop3213" offset="0" stop-color="#fff" stop-opacity="1"/><stop id="stop3215" offset="1" stop-color="#fff" stop-opacity="0"/></linearGradient><radialGradient id="radialGradient2927" cx="102" cy="112.305" r="139.559" gradientTransform="matrix(0.3617022,0,0,-0.3907784,0.851064,47.494785)" gradientUnits="userSpaceOnUse" xlink:href="#XMLID_8_"/></defs><g id="layer1"><g id="g2877" display="inline" transform="matrix(0.9561265,0,0,0.9561265,1.044962,1.1059287)"><rect id="rect2879" width="34" height="3.734" x="7" y="44.266" fill="url(#linearGradient3584)" fill-opacity="1" fill-rule="nonzero" stroke="none" stroke-width="1" display="inline" opacity=".402" overflow="visible" visibility="visible" style="marker:none"/><path id="path2881" fill="url(#radialGradient3586)" fill-opacity="1" fill-rule="nonzero" stroke="none" stroke-width="1" d="m 7,44.266291 c 0,0 0,3.733665 0,3.733665 -1.2409448,0.007 -3,-0.836525 -3,-1.867073 0,-1.030547 1.3848007,-1.866591 3,-1.866592 z" display="inline" opacity=".402" overflow="visible" visibility="visible" style="marker:none"/><path id="path2883" fill="url(#radialGradient3588)" fill-opacity="1" fill-rule="nonzero" stroke="none" stroke-width="1" d="m 41,44.266291 c 0,0 0,3.733665 0,3.733665 1.240944,0.007 3,-0.836525 3,-1.867073 0,-1.030547 -1.384801,-1.866591 -3,-1.866592 z" display="inline" opacity=".402" overflow="visible" visibility="visible" style="marker:none"/></g><path id="rect2594" fill="url(#linearGradient3601)" fill-opacity="1" stroke="url(#linearGradient3603)" stroke-dasharray="none" stroke-dashoffset="0" stroke-linecap="butt" stroke-linejoin="round" stroke-miterlimit="4" stroke-opacity="1" stroke-width="1" d="m 6.4999609,0.49996288 c 8.0202951,0 16.0405901,0 24.0608861,0 1.406933,0.4853797 8.965454,6.01513552 10.939195,9.84395212 0,11.718709 0,23.437418 0,35.156127 -11.666694,0 -23.333387,0 -35.0000811,0 0,-15.000027 0,-30.000053 0,-45.00007912 z" display="inline"/><path id="path4149" fill="#89adc2" fill-opacity="1" stroke="none" d="m 11,7.0000003 2.369787,0 0,1 -2.369787,0 0,-1 z" display="inline"/><path id="path4147" fill="#89adc2" fill-opacity="1" stroke="none" d="m 13.692593,7.0000003 2.235993,0 0,1 -2.235993,0 0,-1 z" display="inline"/><path id="path4145" fill="#89adc2" fill-opacity="1" stroke="none" d="m 16.251394,7.0000003 1.968407,0 0,1 -1.968407,0 0,-1 z" display="inline"/><path id="path4143" fill="#89adc2" fill-opacity="1" stroke="none" d="m 18.54261,7.0000003 0.864609,0 0,1 -0.864609,0 0,-1 z" display="inline"/><path id="path4141" fill="#89adc2" fill-opacity="1" stroke="none" d="m 19.730027,7.0000003 1.934957,0 0,1 -1.934957,0 0,-1 z" display="inline"/><path id="path4139" fill="#89adc2" fill-opacity="1" stroke="none" d="m 21.987791,7.0000003 5.012209,0 0,1 -5.012209,0 0,-1 z" display="inline"/><path id="path4131" fill="#89adc2" fill-opacity="1" stroke="none" d="m 11,13 2.29764,0 0,1 L 11,14 11,13 z" display="inline"/><path id="path4129" fill="#89adc2" fill-opacity="1" stroke="none" d="m 13.610621,13 2.167919,0 0,1 -2.167919,0 0,-1 z" display="inline"/><path id="path4127" fill="#89adc2" fill-opacity="1" stroke="none" d="M 16.09152,13 18,13 l 0,1 -1.90848,0 0,-1 z" display="inline"/><path id="path4113" fill="#89adc2" fill-opacity="1" stroke="none" d="m 11,9.0000003 3.794449,0 0,0.9999997 L 11,10 11,9.0000003 z" display="inline"/><path id="path4111" fill="#89adc2" fill-opacity="1" stroke="none" d="m 15.140767,9.0000003 1.825534,0 0,0.9999997 -1.825534,0 0,-0.9999997 z" display="inline"/><path id="path4109" fill="#89adc2" fill-opacity="1" stroke="none" d="m 17.312621,9.0000003 0.858347,0 0,0.9999997 -0.858347,0 0,-0.9999997 z" display="inline"/><path id="path4107" fill="#89adc2" fill-opacity="1" stroke="none" d="m 18.517286,9.0000003 1.652821,0 0,0.9999997 -1.652821,0 0,-0.9999997 z" display="inline"/><path id="path4105" fill="#89adc2" fill-opacity="1" stroke="none" d="m 20.516425,9.0000003 1.652821,0 0,0.9999997 -1.652821,0 0,-0.9999997 z" display="inline"/><path id="path4103" fill="#89adc2" fill-opacity="1" stroke="none" d="m 22.515565,9.0000003 2.654549,0 0,0.9999997 -2.654549,0 0,-0.9999997 z" display="inline"/><path id="path4101" fill="#89adc2" fill-opacity="1" stroke="none" d="M 25.516433,9.0000003 29,9.0000003 29,10 l -3.483567,0 0,-0.9999997 z" display="inline"/><path id="path4095" fill="#89adc2" fill-opacity="1" stroke="none" d="m 11,11 4.186235,0 0,1 L 11,12 11,11 z" display="inline"/><path id="path4093" fill="#89adc2" fill-opacity="1" stroke="none" d="M 15.514391,11 20,11 l 0,1 -4.485609,0 0,-1 z" display="inline"/><path id="path4063" fill="#b78ed4" fill-opacity="1" stroke="none" d="m 11,16 3.066842,0 0,1 L 11,17 11,16 z" display="inline"/><path id="path4061" fill="#d48eb3" fill-opacity="1" stroke="none" d="M 14.392634,16 20,16 l 0,1 -5.607366,0 0,-1 z" display="inline"/><path id="path4049" fill="#b78ed4" fill-opacity="1" stroke="none" d="m 11,18 3.085091,0 0,1 L 11,19 11,18 z" display="inline"/><path id="path4045" fill="#d48eb3" fill-opacity="1" stroke="none" d="m 14.4348,18 5.100985,0 0,1 -5.100985,0 0,-1 z" display="inline"/><path id="path4043" fill="#89adc2" fill-opacity="1" stroke="none" d="m 19.898933,18 1.904204,0 0,1 -1.904204,0 0,-1 z" display="inline"/><path id="path4041" fill="#89adc2" fill-opacity="1" stroke="none" d="m 22.123666,18 1.904205,0 0,1 -1.904205,0 0,-1 z" display="inline"/><path id="path4039" fill="#89adc2" fill-opacity="1" stroke="none" d="m 24.348401,18 2.756592,0 0,1 -2.756592,0 0,-1 z" display="inline"/><path id="path4037" fill="#89adc2" fill-opacity="1" stroke="none" d="M 27.425522,18 28,18 l 0,1 -0.574478,0 0,-1 z" display="inline"/><path id="path4241" fill="#89adc2" fill-opacity="1" stroke="none" d="m 19.999794,27 1.866925,0 0,0.999916 -1.866925,0 0,-0.999916 z" display="inline"/><path id="path4239" fill="#89adc2" fill-opacity="1" stroke="none" d="m 22.178177,27 4.835982,0 0,0.999916 -4.835982,0 0,-0.999916 z" display="inline"/><path id="path4237" fill="#89adc2" fill-opacity="1" stroke="none" d="m 27.325618,27 3.674176,0 0,0.999916 -3.674176,0 0,-0.999916 z" display="inline"/><path id="path4209" fill="#89adc2" fill-opacity="1" stroke="none" d="m 20,29 2.444613,0 0,0.985927 -2.444613,0 L 20,29 z" display="inline"/><path id="path4207" fill="#89adc2" fill-opacity="1" stroke="none" d="m 22.777067,29 4.274761,0 0,0.985927 -4.274761,0 0,-0.985927 z" display="inline"/><path id="path4203" fill="#89adc2" fill-opacity="1" stroke="none" d="m 27.384282,29 2.926777,0 0,0.985927 -2.926777,0 0,-0.985927 z" display="inline"/><path id="path4177" fill="#89adc2" fill-opacity="1" stroke="none" d="m 20,25 2.340812,0 0,1 L 20,26 20,25 z" display="inline"/><path id="path4175" fill="#89adc2" fill-opacity="1" stroke="none" d="M 25.141173,25 27,25 l 0,1 -1.858827,0 0,-1 z" display="inline"/><path id="path4169" fill="#89adc2" fill-opacity="1" stroke="none" d="m 22.650919,25 2.180148,0 0,1 -2.180148,0 0,-1 z" display="inline"/><path id="path4161" fill="#89adc2" fill-opacity="1" stroke="none" d="m 20,31.116321 1.88209,0 0,0.972321 -1.88209,0 0,-0.972321 z" display="inline"/><path id="path4159" fill="#89adc2" fill-opacity="1" stroke="none" d="m 22.198897,31.116321 1.882091,0 0,0.972321 -1.882091,0 0,-0.972321 z" display="inline"/><path id="path4157" fill="#89adc2" fill-opacity="1" stroke="none" d="m 24.397795,31.116321 2.72458,0 0,0.972321 -2.72458,0 0,-0.972321 z" display="inline"/><path id="path4155" fill="#89adc2" fill-opacity="1" stroke="none" d="m 27.439181,31.116321 0.567807,0 0,0.972321 -0.567807,0 0,-0.972321 z" display="inline"/><path id="path4153" fill="#89adc2" fill-opacity="1" stroke="none" d="m 28.323796,31.116321 3.533369,0 0,0.972321 -3.533369,0 0,-0.972321 z" display="inline"/><path id="path5302" fill="#94d48e" fill-opacity="1" stroke="none" d="m 11,25 2.759665,0 0,0.986089 -2.759665,0 L 11,25 z" display="inline"/><path id="path5304" fill="url(#linearGradient5988)" fill-opacity="1" stroke="none" d="M 14.143674,25 16,25 l 0,0.986089 -1.856326,0 0,-0.986089 z" display="inline"/><path id="path5310" fill="#94d48e" fill-opacity="1" stroke="none" d="m 11,27.000084 2.941725,0 0,0.999916 L 11,28 11,27.000084 z" display="inline"/><path id="path5312" fill="url(#linearGradient5984)" fill-opacity="1" stroke="none" d="m 14.2915,27.000084 2.7085,0 L 17,28 l -2.7085,0 0,-0.999916 z" display="inline"/><path id="path5318" fill="#94d48e" fill-opacity="1" stroke="none" d="m 11,29.014073 2.535,0 L 13.535,30 11,30 11,29.014073 z" display="inline"/><path id="path5320" fill="url(#linearGradient5980)" fill-opacity="1" stroke="none" d="M 13.947676,29.014073 16,29.014073 16,30 l -2.052324,0 0,-0.985927 z" display="inline"/><path id="path5326" fill="#94d48e" fill-opacity="1" stroke="none" d="m 11,31.144001 2.214387,0 0,0.97232 -2.214387,0 0,-0.97232 z" display="inline"/><path id="path5328" fill="url(#linearGradient6073)" fill-opacity="1" stroke="none" d="m 13.57487,31.144001 2.118799,0 0,0.97232 -2.118799,0 0,-0.97232 z" display="inline"/><path id="path4031" fill="#94d48e" fill-opacity="1" stroke="none" d="m 11,21 2.358908,0 0,1 L 11,22 11,21 z" display="inline"/><path id="path4029" fill="url(#linearGradient6143)" fill-opacity="1" stroke="none" d="M 13.742918,21 16,21 l 0,1 -2.257082,0 0,-1 z" display="inline"/><path id="path5685" fill="url(#linearGradient6065)" fill-opacity="1" stroke="none" d="m 11,23 1,0 0,1 -1,0 0,-1 z" display="inline"/><path font-family="URW Gothic L" style="-inkscape-font-specification:URW Gothic L Book" id="text2474" fill="gray" fill-opacity="1" stroke="none" d="m 12,34.643266 c 0.622757,0 1.245515,0 1.868273,0 0.637241,1.773331 1.274482,3.546661 1.911722,5.319992 0.635631,-1.773331 1.271262,-3.546661 1.906893,-5.319992 0.622758,0 1.245517,0 1.868275,0 -0.889884,2.402525 -1.779769,4.805051 -2.669653,7.207577 -0.738619,0 -1.477239,0 -2.215858,0 C 13.779768,39.448317 12.889884,37.045791 12,34.643266 z m 10.311711,4.774475 c -1.113661,-0.316176 -1.540445,1.516709 -0.255862,1.424137 0.742148,0.03179 1.25525,-0.733539 1.153792,-1.424137 -0.29931,0 -0.59862,0 -0.89793,0 z m 2.640686,-0.651722 c 0,1.028275 0,2.056549 0,3.084824 -0.580919,0 -1.161837,0 -1.742756,0 -0.04772,-0.228453 0.133513,-1.112265 -0.179226,-0.571767 -0.876166,1.103519 -3.049274,0.943878 -3.474348,-0.504481 -0.273185,-0.859591 0.133322,-1.94073 1.061351,-2.175201 0.835839,-0.278452 1.725776,-0.196194 2.592223,-0.209928 0.08138,-1.006236 -1.176043,-0.980046 -1.868275,-0.899132 -0.457801,-0.188605 -1.487061,0.808591 -1.385514,0.07659 -1e-6,-0.326048 -1e-6,-0.652097 -1e-6,-0.978146 1.324303,-0.272114 2.812269,-0.51722 4.073553,0.107264 0.728038,0.404464 0.933094,1.298974 0.922994,2.069974 l -10e-7,0 z m 1.617239,-4.426891 c 0.576092,0 1.152183,0 1.728275,0 0,2.503905 0,5.00781 0,7.511715 -0.576092,0 -1.152183,0 -1.728275,0 0,-2.503905 0,-5.00781 0,-7.511715 z m 5.822063,5.078613 c -1.113661,-0.316177 -1.540446,1.516709 -0.255862,1.424137 0.742148,0.03179 1.255248,-0.73354 1.153793,-1.424137 -0.299311,0 -0.598621,0 -0.897931,0 z m 2.640686,-0.651722 c 0,1.028275 0,2.056549 0,3.084824 -0.580918,0 -1.161837,0 -1.742755,0 -0.04772,-0.228454 0.133513,-1.112265 -0.179227,-0.571767 -0.876167,1.103519 -3.049274,0.943878 -3.474348,-0.504481 -0.273186,-0.859591 0.133322,-1.94073 1.061351,-2.175201 0.83584,-0.278452 1.725776,-0.196194 2.592224,-0.209928 0.08138,-1.006236 -1.176045,-0.980046 -1.868277,-0.899132 -0.457801,-0.188605 -1.487061,0.80859 -1.385514,0.07659 1e-6,-0.326048 1e-6,-0.652097 1e-6,-0.978146 1.324302,-0.272114 2.812268,-0.51722 4.073551,0.107264 0.728038,0.404464 0.933094,1.298974 0.922994,2.069974 z" display="inline" font-size="9.887" font-stretch="normal" font-style="normal" font-variant="normal" font-weight="normal"/><path id="path4191" fill="url(#radialGradient2927)" fill-opacity="1" d="M 7.361702,43.977781 C 7.162405,43.977781 7,43.802322 7,43.587001 L 7,1.3829514 C 7,1.1672426 7.162405,0.9921741 7.361702,0.9921741 c 7.483091,0.1080145 15.775683,-0.161575 23.249682,0.02689 L 40.894021,9.8850896 41,43.586997 c 0,0.215321 -0.162043,0.39078 -0.361703,0.39078 l -33.276595,0 z"/><path id="path2435" fill="none" stroke="url(#linearGradient2451)" stroke-dasharray="none" stroke-dashoffset="0" stroke-linecap="butt" stroke-linejoin="round" stroke-miterlimit="4" stroke-opacity="1" stroke-width="1" d="m 40.500039,10.236593 c 0,10.949036 0,22.314409 0,33.263446 -11.000026,0 -22.000052,0 -33.000078,0 0,-14.014841 0,-28.02968 0,-42.044521 7.561993,0 15.304334,0 22.866328,0" display="inline" opacity=".6"/><path id="path12038" fill="#000" fill-opacity="1" fill-rule="evenodd" stroke="none" d="m 28.617256,0.8990391 c 4.282522,0 2.15325,8.4831715 2.15325,8.4831715 0,0 10.357642,-1.8023464 10.357642,2.8187454 0,-2.6097244 -11.302304,-10.7285963 -12.510892,-11.3019169 z" display="inline" filter="url(#filter3212)" opacity=".4"/><path id="path4474" fill="url(#linearGradient2447)" fill-opacity="1" fill-rule="evenodd" stroke="none" d="m 28.617256,0.8990391 c 3.186493,0 2.33576,7.661879 2.33576,7.661879 0,0 10.175132,-0.9810539 10.175132,3.6400379 0,-1.125939 0.08591,-1.932245 -0.133777,-2.2835934 -1.578313,-2.5241788 -8.395516,-8.1884002 -10.8573,-8.9307885 -0.184222,-0.05556 -0.592704,-0.08754 -1.519815,-0.08754 z" display="inline"/></g></svg>