<svg xmlns="http://www.w3.org/2000/svg" xmlns:svg="http://www.w3.org/2000/svg" xmlns:xlink="http://www.w3.org/1999/xlink" id="svg4354" width="48" height="48" version="1.0"><defs id="defs4356"><linearGradient id="linearGradient5048"><stop id="stop5050" offset="0" stop-color="#000" stop-opacity="0"/><stop id="stop5056" offset=".5" stop-color="#000" stop-opacity="1"/><stop id="stop5052" offset="1" stop-color="#000" stop-opacity="0"/></linearGradient><linearGradient id="linearGradient2631" x1="302.857" x2="302.857" y1="366.648" y2="609.505" gradientTransform="matrix(0.06732488,0,0,0.01470022,-0.3411391,37.040146)" gradientUnits="userSpaceOnUse" xlink:href="#linearGradient5048"/><radialGradient id="radialGradient2628" cx="605.714" cy="486.648" r="117.143" fx="605.714" fy="486.648" gradientTransform="matrix(-0.02303994,0,0,0.01470022,21.62311,37.040176)" gradientUnits="userSpaceOnUse" xlink:href="#linearGradient5060"/><linearGradient id="linearGradient5060"><stop id="stop5062" offset="0" stop-color="#000" stop-opacity="1"/><stop id="stop5064" offset="1" stop-color="#000" stop-opacity="0"/></linearGradient><radialGradient id="radialGradient2625" cx="605.714" cy="486.648" r="117.143" fx="605.714" fy="486.648" gradientTransform="matrix(0.02303995,0,0,0.01470022,26.360882,37.040176)" gradientUnits="userSpaceOnUse" xlink:href="#linearGradient5060"/><linearGradient id="linearGradient2622" x1="-51.786" x2="-51.786" y1="50.786" y2="2.906" gradientTransform="matrix(0.8074968,0,0,0.8948322,59.410232,-2.9805533)" gradientUnits="userSpaceOnUse" xlink:href="#linearGradient3104"/><linearGradient id="linearGradient3600"><stop id="stop3602" offset="0" stop-color="#f4f4f4" stop-opacity="1"/><stop id="stop3604" offset="1" stop-color="#dbdbdb" stop-opacity="1"/></linearGradient><linearGradient id="linearGradient2620" x1="25.132" x2="25.132" y1=".985" y2="47.013" gradientTransform="matrix(1,0,0,0.9561695,-1.0064697e-7,-1.914922)" gradientUnits="userSpaceOnUse" xlink:href="#linearGradient3600"/><radialGradient id="XMLID_8_" cx="102" cy="112.305" r="139.559" gradientUnits="userSpaceOnUse"><stop id="stop41" offset="0" stop-color="#b7b8b9" stop-opacity="1"/><stop id="stop47" offset=".189" stop-color="#ececec" stop-opacity="1"/><stop id="stop49" offset=".257" stop-color="#fafafa" stop-opacity="0"/><stop id="stop51" offset=".301" stop-color="#fff" stop-opacity="0"/><stop id="stop53" offset=".531" stop-color="#fafafa" stop-opacity="0"/><stop id="stop55" offset=".845" stop-color="#ebecec" stop-opacity="0"/><stop id="stop57" offset="1" stop-color="#e1e2e3" stop-opacity="0"/></radialGradient><radialGradient id="radialGradient2617" cx="102" cy="112.305" r="139.559" gradientTransform="matrix(0.3617022,0,0,-0.3907784,0.8510637,47.517004)" gradientUnits="userSpaceOnUse" xlink:href="#XMLID_8_"/><linearGradient id="linearGradient3211"><stop id="stop3213" offset="0" stop-color="#fff" stop-opacity="1"/><stop id="stop3215" offset="1" stop-color="#fff" stop-opacity="0"/></linearGradient><linearGradient id="linearGradient2614" x1="24" x2="24" y1="2" y2="46.017" gradientTransform="matrix(1,0,0,0.9777778,0,-0.9666693)" gradientUnits="userSpaceOnUse" xlink:href="#linearGradient3211"/><filter id="filter3212" width="1.297" height="1.329" x="-.148" y="-.164" color-interpolation-filters="sRGB"><feGaussianBlur id="feGaussianBlur3214" stdDeviation=".774"/></filter><linearGradient id="linearGradient8589"><stop id="stop8591" offset="0" stop-color="#fefefe" stop-opacity="1"/><stop id="stop8593" offset="1" stop-color="#cbcbcb" stop-opacity="1"/></linearGradient><linearGradient id="linearGradient2610" x1="32.892" x2="36.358" y1="8.059" y2="5.457" gradientTransform="matrix(0.9976985,0,0,1.0406866,0.1638029,-1.1057939)" gradientUnits="userSpaceOnUse" xlink:href="#linearGradient8589"/><linearGradient id="linearGradient3104"><stop id="stop3106" offset="0" stop-color="#aaa" stop-opacity="1"/><stop id="stop3108" offset="1" stop-color="#c8c8c8" stop-opacity="1"/></linearGradient><linearGradient id="linearGradient3649" x1="21.253" x2="21.253" y1="44.301" y2=".505" gradientUnits="userSpaceOnUse" xlink:href="#linearGradient3104"/><linearGradient id="linearGradient4114"><stop id="stop4116" offset="0" stop-color="#000" stop-opacity="1"/><stop id="stop4118" offset="1" stop-color="#000" stop-opacity="0"/></linearGradient><radialGradient id="radialGradient3780" cx="15.116" cy="63.965" r="12.289" fx="15.116" fy="63.965" gradientTransform="matrix(1.139227,0,0,0.4068666,6.7799989,7.7470768)" gradientUnits="userSpaceOnUse" xlink:href="#linearGradient4114"/><linearGradient id="linearGradient2490"><stop id="stop2492" offset="0" stop-color="#3d6378" stop-opacity="1"/><stop id="stop2494" offset="1" stop-color="#4d7f9c" stop-opacity="1"/></linearGradient><linearGradient id="linearGradient4350" x1="25" x2="25" y1="36.056" y2="10.224" gradientUnits="userSpaceOnUse" xlink:href="#linearGradient2490"/><linearGradient id="linearGradient3993"><stop id="stop3995" offset="0" stop-color="#a3c0d0" stop-opacity="1"/><stop id="stop4001" offset="1" stop-color="#427da1" stop-opacity="1"/></linearGradient><radialGradient id="radialGradient4352" cx="15" cy="13.252" r="12.672" fx="15" fy="13.252" gradientTransform="matrix(6.7330579e-8,2.2533394,-2.7620222,8.2530202e-8,51.603431,-20.800091)" gradientUnits="userSpaceOnUse" xlink:href="#linearGradient3993"/><linearGradient id="linearGradient3843" x1="30" x2="30" y1="9.983" y2="35.723" gradientUnits="userSpaceOnUse" xlink:href="#linearGradient3830"/><linearGradient id="linearGradient3830"><stop id="stop3832" offset="0" stop-color="#fff" stop-opacity="1"/><stop id="stop3834" offset="1" stop-color="#fff" stop-opacity="0"/></linearGradient><linearGradient id="linearGradient3847" x1="25" x2="25" y1="43" y2="14" gradientUnits="userSpaceOnUse" xlink:href="#linearGradient3830"/></defs><g id="layer1"><rect id="rect2879" width="32.508" height="3.57" x="7.738" y="42.43" fill="url(#linearGradient2631)" fill-opacity="1" fill-rule="nonzero" stroke="none" stroke-width="1" display="inline" opacity=".3" overflow="visible" visibility="visible" style="marker:none"/><path id="path2881" fill="url(#radialGradient2628)" fill-opacity="1" fill-rule="nonzero" stroke="none" stroke-width="1" d="m 7.7378475,42.430102 c 0,0 0,3.569856 0,3.569856 -1.1865002,0.0067 -2.8683795,-0.799823 -2.8683795,-1.785158 0,-0.985333 1.3240446,-1.784697 2.8683795,-1.784698 z" display="inline" opacity=".3" overflow="visible" visibility="visible" style="marker:none"/><path id="path2883" fill="url(#radialGradient2625)" fill-opacity="1" fill-rule="nonzero" stroke="none" stroke-width="1" d="m 40.246148,42.430102 c 0,0 0,3.569856 0,3.569856 1.1865,0.0067 2.86838,-0.799823 2.86838,-1.785158 0,-0.985333 -1.324045,-1.784697 -2.86838,-1.784698 z" display="inline" opacity=".3" overflow="visible" visibility="visible" style="marker:none"/><path id="path4160" fill="url(#linearGradient2620)" fill-opacity="1" stroke="url(#linearGradient2622)" stroke-dasharray="none" stroke-dashoffset="0" stroke-linecap="butt" stroke-linejoin="round" stroke-miterlimit="4" stroke-opacity="1" stroke-width="1" d="m 6.4999609,0.49719878 c 8.0202951,0 16.0405901,0 24.0608861,0 1.406933,0.4746531 8.965454,5.88220462 10.939195,9.62640622 0,11.459733 0,22.919465 0,34.379198 -11.666694,0 -23.333387,0 -35.0000811,0 0,-14.668535 0,-29.33707 0,-44.00560422 z" display="inline"/><path id="path4191" fill="url(#radialGradient2617)" fill-opacity="1" d="m 7.3617017,44 c -0.199297,0 -0.361702,-0.175459 -0.361702,-0.39078 l 0,-42.2040499 c 0,-0.2157088 0.162405,-0.3907775 0.361702,-0.3907775 C 14.844793,1.1224073 23.137385,0.85281757 30.611384,1.0412872 L 40.894021,9.9073127 41,43.60922 C 41,43.824541 40.837957,44 40.638297,44 L 7.3617017,44 z"/><path id="path2435" fill="none" stroke="url(#linearGradient2614)" stroke-dasharray="none" stroke-dashoffset="0" stroke-linecap="butt" stroke-linejoin="round" stroke-miterlimit="4" stroke-opacity="1" stroke-width="1" d="m 40.500039,10.258811 c 0,10.949037 0,22.31441 0,33.263447 -11.000026,0 -22.000052,0 -33.0000781,0 0,-14.014841 0,-28.029681 0,-42.0445213 7.5619931,0 15.3043341,0 22.8663281,0" display="inline" opacity=".6"/><path id="path12038" fill="#000" fill-opacity="1" fill-rule="evenodd" stroke="none" d="m 28.617256,0.92125832 c 4.282522,0 2.15325,8.48317128 2.15325,8.48317128 0,0 10.357642,-1.8023467 10.357642,2.8187444 0,-2.6097233 -11.302304,-10.7285956 -12.510892,-11.30191568 z" display="inline" filter="url(#filter3212)" opacity=".4"/><path id="path4474" fill="url(#linearGradient2610)" fill-opacity="1" fill-rule="evenodd" stroke="none" d="m 28.617256,0.92125832 c 3.186493,0 2.33576,7.66187848 2.33576,7.66187848 0,0 10.175132,-0.9810539 10.175132,3.6400372 0,-1.125939 0.08591,-1.932245 -0.133777,-2.2835928 C 39.416058,7.4154025 32.598855,1.7511811 30.137071,1.008793 29.952849,0.95323837 29.544367,0.92125832 28.617256,0.92125832 z" display="inline"/><path id="path4149" fill="url(#linearGradient3649)" fill-opacity="1" stroke="none" d="m 11,6 0,1 2.375,0 0,-1 L 11,6 z m 2.6875,0 0,1 2.25,0 0,-1 -2.25,0 z m 2.5625,0 0,1 1.96875,0 0,-1 L 16.25,6 z m 2.28125,0 0,1 0.875,0 0,-1 -0.875,0 z m 1.1875,0 0,1 1.9375,0 0,-1 -1.9375,0 z M 22,6 l 0,1 5,0 0,-1 -5,0 z m -11,2 0,1 3.78125,0 0,-1 L 11,8 z m 4.15625,0 0,1 1.8125,0 0,-1 -1.8125,0 z m 2.15625,0 0,1 0.84375,0 0,-1 -0.84375,0 z m 1.21875,0 0,1 1.625,0 0,-1 -1.625,0 z m 2,0 0,1 1.625,0 0,-1 -1.625,0 z M 22.5,8 l 0,1 2.65625,0 0,-1 L 22.5,8 z m 3.03125,0 0,1 L 29,9 29,8 25.53125,8 z M 11,10 l 0,1 4.1875,0 0,-1 L 11,10 z m 4.5,0 0,1 4.5,0 0,-1 -4.5,0 z m -4.5,2 0,1 2.3125,0 0,-1 L 11,12 z m 2.625,0 0,1 2.15625,0 0,-1 -2.15625,0 z m 2.46875,0 0,1 L 18,13 18,12 16.09375,12 z M 11,15 l 0,1 3.0625,0 0,-1 L 11,15 z m 3.40625,0 0,1 L 20,16 20,15 14.40625,15 z M 11,17 l 0,1 3.09375,0 0,-1 L 11,17 z m 3.4375,0 0,1 5.09375,0 0,-1 -5.09375,0 z m 5.46875,0 0,1 1.90625,0 0,-1 -1.90625,0 z m 2.21875,0 0,1 1.90625,0 0,-1 -1.90625,0 z m 2.21875,0 0,1 2.75,0 0,-1 -2.75,0 z m 3.09375,0 0,1 0.5625,0 0,-1 -0.5625,0 z M 11,20 l 0,1 2.34375,0 0,-1 L 11,20 z m 2.75,0 0,1 2.25,0 0,-1 -2.25,0 z m -2.75,2 0,1 1,0 0,-1 -1,0 z m 0,2 0,1 2.75,0 0,-1 -2.75,0 z m 3.15625,0 0,1 L 16,25 16,24 14.15625,24 z M 20,24 l 0,1 2.34375,0 0,-1 L 20,24 z m 2.65625,0 0,1 2.1875,0 0,-1 -2.1875,0 z m 2.5,0 0,1 L 27,25 27,24 25.15625,24 z M 11,26 l 0,1 2.9375,0 0,-1 L 11,26 z m 3.28125,0 0,1 L 17,27 17,26 14.28125,26 z M 20,26 l 0,1 1.875,0 0,-1 L 20,26 z m 2.1875,0 0,1 4.8125,0 0,-1 -4.8125,0 z m 5.125,0 0,1 3.6875,0 0,-1 -3.6875,0 z M 11,28 l 0,1 2.53125,0 0,-1 L 11,28 z m 2.9375,0 0,1 2.0625,0 0,-1 -2.0625,0 z M 20,28 l 0,1 2.4375,0 0,-1 L 20,28 z m 2.78125,0 0,1 4.28125,0 0,-1 -4.28125,0 z m 4.59375,0 0,1 2.9375,0 0,-1 -2.9375,0 z M 20,30.125 l 0,0.96875 1.875,0 0,-0.96875 -1.875,0 z m 2.1875,0 0,0.96875 1.90625,0 0,-0.96875 -1.90625,0 z m 2.21875,0 0,0.96875 2.71875,0 0,-0.96875 -2.71875,0 z m 3.03125,0 0,0.96875 0.5625,0 0,-0.96875 -0.5625,0 z m 0.875,0 0,0.96875 3.53125,0 0,-0.96875 -3.53125,0 z M 11,30.15625 l 0,0.96875 2.21875,0 0,-0.96875 -2.21875,0 z m 2.5625,0 0,0.96875 2.125,0 0,-0.96875 -2.125,0 z M 11,33 l 0,1 4.28125,0 0,-1 L 11,33 z m 4.625,0 0,1 4.59375,0 0,-1 -4.59375,0 z m 4.9375,0 0,1 1.8125,0 0,-1 -1.8125,0 z m 2.15625,0 0,1 4.3125,0 0,-1 -4.3125,0 z m 4.65625,0 0,1 2.96875,0 0,-1 -2.96875,0 z m 3.28125,0 0,1 1.15625,0 0,-1 -1.15625,0 z m 1.5,0 0,1 0.6875,0 0,-1 -0.6875,0 z m 1,0 0,1 L 35,34 35,33 33.15625,33 z M 11,35 l 0,1 3.6875,0 0,-1 L 11,35 z m 3.96875,0 0,1 1.78125,0 0,-1 -1.78125,0 z m 2.15625,0 0,1 0.8125,0 0,-1 -0.8125,0 z m 1.03125,0 0,1 1.625,0 0,-1 -1.625,0 z m 1.875,0 0,1 1.625,0 0,-1 -1.625,0 z m 2.125,0 0,1 2.59375,0 0,-1 -2.59375,0 z m 2.90625,0 0,1 3.375,0 0,-1 -3.375,0 z m 3.84375,0 0,1 2.28125,0 0,-1 -2.28125,0 z m 2.5625,0 0,1 L 32,36 32,35 31.46875,35 z M 11,37 l 0,1 3.03125,0 0,-1 L 11,37 z m 3.34375,0 0,1 3.34375,0 0,-1 -3.34375,0 z m 5.59375,0 0,1 2.4375,0 0,-1 -2.4375,0 z m 2.75,0 0,1 2.25,0 0,-1 -2.25,0 z m 2.59375,0 0,1 1.9375,0 0,-1 -1.9375,0 z m 2.25,0 0,1 3.09375,0 0,-1 -3.09375,0 z m 3.4375,0 0,1 5.03125,0 0,-1 -5.03125,0 z" display="inline"/><path id="path2917" fill="url(#radialGradient3780)" fill-opacity="1" stroke="none" d="M 38.000001,33.772466 C 38.00154,36.534278 31.733075,38.773461 24,38.773461 16.266925,38.773461 9.9984609,36.534278 9.9999989,33.772466 9.9984609,31.010654 16.266925,28.771471 24,28.771471 c 7.733075,0 14.00154,2.239183 14.000001,5.000995 z" display="inline" opacity=".3"/><path id="path3737" fill="url(#radialGradient4352)" fill-opacity="1" fill-rule="nonzero" stroke="url(#linearGradient4350)" stroke-dasharray="none" stroke-dashoffset="0" stroke-linecap="square" stroke-linejoin="round" stroke-miterlimit="4" stroke-opacity="1" stroke-width="1" d="m 24,10.5 c -6.9,0 -12.499999,5.6 -12.5,12.5 0,6.9 5.599999,12.499999 12.5,12.5 5.125438,0 10,-3.5 11.553499,-8 l -5.536003,0 c -1.331447,1.750621 -3.793958,3 -6.017496,3 -4.14,0 -7.5,-3.36 -7.5,-7.5 -2e-6,-4.14 3.36,-7.5 7.5,-7.5 2.667408,0 5.183494,1.900424 6.513248,4 l 4.949131,0 C 35,15 29.501942,10.5 24,10.5 z" display="inline" enable-background="accumulate" overflow="visible" visibility="visible" style="marker:none"/><path id="path3838" fill="none" stroke="url(#linearGradient3843)" stroke-dasharray="none" stroke-dashoffset="0" stroke-linecap="square" stroke-linejoin="miter" stroke-miterlimit="4" stroke-opacity="1" stroke-width="1" d="M 34.125,17.9375 C 32.274957,14.150042 28.249049,11.503825 24,11.5625 c -4.449315,-0.06217 -8.751065,2.759233 -10.485048,6.853654 -1.845338,4.107129 -0.950527,9.256661 2.202417,12.47864 2.140297,2.305678 5.28364,3.567885 8.406425,3.542411" display="inline" enable-background="accumulate" opacity=".4" overflow="visible" visibility="visible" style="marker:none"/><path id="path3845" fill="none" stroke="url(#linearGradient3847)" stroke-dasharray="none" stroke-dashoffset="0" stroke-linecap="square" stroke-linejoin="miter" stroke-miterlimit="4" stroke-opacity="1" stroke-width="1" d="m 23.560696,14.448684 c -4.019671,0.132986 -7.611931,3.468568 -8.054149,7.463758 -0.566086,3.852928 1.888226,7.846435 5.555393,9.128804 3.010601,1.169689 7.32868,0.172164 9.361806,-2.549741 l 4.576254,0" display="inline" enable-background="accumulate" opacity=".4" overflow="visible" visibility="visible" style="marker:none"/></g></svg>