<svg xmlns="http://www.w3.org/2000/svg" xmlns:svg="http://www.w3.org/2000/svg" xmlns:xlink="http://www.w3.org/1999/xlink" id="svg2" width="48" height="48" display="inline" version="1.0"><defs id="defs4"><linearGradient id="linearGradient3104"><stop id="stop3106" offset="0" stop-color="#aaa" stop-opacity="1"/><stop id="stop3108" offset="1" stop-color="#d2d2d2" stop-opacity="1"/></linearGradient><linearGradient id="linearGradient3600"><stop id="stop3602" offset="0" stop-color="#f4f4f4" stop-opacity="1"/><stop id="stop3604" offset="1" stop-color="#dbdbdb" stop-opacity="1"/></linearGradient><linearGradient id="linearGradient5048"><stop id="stop5050" offset="0" stop-color="#000" stop-opacity="0"/><stop id="stop5056" offset=".5" stop-color="#000" stop-opacity="1"/><stop id="stop5052" offset="1" stop-color="#000" stop-opacity="0"/></linearGradient><linearGradient id="linearGradient5060"><stop id="stop5062" offset="0" stop-color="#000" stop-opacity="1"/><stop id="stop5064" offset="1" stop-color="#000" stop-opacity="0"/></linearGradient><linearGradient id="linearGradient3584" x1="302.857" x2="302.857" y1="366.648" y2="609.505" gradientTransform="matrix(0.0704142,0,0,0.01537476,-1.4497047,38.629007)" gradientUnits="userSpaceOnUse" xlink:href="#linearGradient5048"/><radialGradient id="radialGradient3586" cx="605.714" cy="486.648" r="117.143" fx="605.714" fy="486.648" gradientTransform="matrix(-0.02409717,0,0,0.01537476,21.522412,38.629039)" gradientUnits="userSpaceOnUse" xlink:href="#linearGradient5060"/><radialGradient id="radialGradient3588" cx="605.714" cy="486.648" r="117.143" fx="605.714" fy="486.648" gradientTransform="matrix(0.02409717,0,0,0.01537476,26.477584,38.629039)" gradientUnits="userSpaceOnUse" xlink:href="#linearGradient5060"/><linearGradient id="linearGradient3601" x1="25.132" x2="25.132" y1="6.729" y2="47.013" gradientTransform="translate(0,-0.99999972)" gradientUnits="userSpaceOnUse" xlink:href="#linearGradient3600"/><linearGradient id="linearGradient3603" x1="-51.786" x2="-51.786" y1="50.786" y2="2.906" gradientTransform="matrix(0.8074968,0,0,0.9358511,59.410236,-2.1144791)" gradientUnits="userSpaceOnUse" xlink:href="#linearGradient3104"/><linearGradient id="linearGradient5031"><stop id="stop5033" offset="0" stop-color="#a3a3a3" stop-opacity="1"/><stop id="stop5035" offset="1" stop-color="#bababa" stop-opacity="1"/></linearGradient><linearGradient id="linearGradient5980" x1="22.104" x2="22.104" y1="40.124" y2="10.035" gradientTransform="matrix(0.369496,0,0,1.4205132,9.0116197,4.7802623)" gradientUnits="userSpaceOnUse" xlink:href="#linearGradient5031"/><linearGradient id="linearGradient5984" x1="22.104" x2="22.104" y1="40.124" y2="10.035" gradientTransform="matrix(0.4876325,0,0,1.4406684,7.777273,2.4082395)" gradientUnits="userSpaceOnUse" xlink:href="#linearGradient5031"/><linearGradient id="linearGradient5988" x1="22.104" x2="22.104" y1="40.124" y2="10.035" gradientTransform="matrix(0.3342091,0,0,1.4207463,9.6790122,0.7620484)" gradientUnits="userSpaceOnUse" xlink:href="#linearGradient5031"/><linearGradient id="linearGradient6065" x1="22.104" x2="22.104" y1="40.124" y2="10.035" gradientTransform="matrix(1.7828362,0,0,1.4407913,-37.938893,-26.441342)" gradientUnits="userSpaceOnUse" xlink:href="#linearGradient5031"/><linearGradient id="linearGradient6073" x1="22.104" x2="22.104" y1="40.124" y2="10.035" gradientTransform="matrix(0.3814643,0,0,1.4009103,8.4789307,7.2584119)" gradientUnits="userSpaceOnUse" xlink:href="#linearGradient5031"/><linearGradient id="linearGradient6143" x1="22.104" x2="22.104" y1="40.124" y2="10.035" gradientTransform="matrix(0.4063605,0,0,1.4407893,8.3143938,-3.5939915)" gradientUnits="userSpaceOnUse" xlink:href="#linearGradient5031"/><radialGradient id="XMLID_8_" cx="102" cy="112.305" r="139.559" gradientUnits="userSpaceOnUse"><stop id="stop41" offset="0" stop-color="#b7b8b9" stop-opacity="1"/><stop id="stop47" offset=".189" stop-color="#ececec" stop-opacity="1"/><stop id="stop49" offset=".257" stop-color="#fafafa" stop-opacity="0"/><stop id="stop51" offset=".301" stop-color="#fff" stop-opacity="0"/><stop id="stop53" offset=".531" stop-color="#fafafa" stop-opacity="0"/><stop id="stop55" offset=".845" stop-color="#ebecec" stop-opacity="0"/><stop id="stop57" offset="1" stop-color="#e1e2e3" stop-opacity="0"/></radialGradient><filter id="filter3212" width="1.297" height="1.329" x="-.148" y="-.164" color-interpolation-filters="sRGB"><feGaussianBlur id="feGaussianBlur3214" stdDeviation=".774"/></filter><linearGradient id="linearGradient2447" x1="32.892" x2="36.358" y1="8.059" y2="5.457" gradientTransform="matrix(0.99771124,0,0,1.0406865,0.16371249,-1.1280095)" gradientUnits="userSpaceOnUse" xlink:href="#linearGradient8589-8"/><linearGradient id="linearGradient8589-8"><stop id="stop8591-5" offset="0" stop-color="#fefefe" stop-opacity="1"/><stop id="stop8593-6" offset="1" stop-color="#cbcbcb" stop-opacity="1"/></linearGradient><linearGradient id="linearGradient2451" x1="24" x2="24" y1="2" y2="46.017" gradientTransform="matrix(1.0000128,0,0,0.97777766,-9.2604681e-5,-0.98888557)" gradientUnits="userSpaceOnUse" xlink:href="#linearGradient3211"/><linearGradient id="linearGradient3211"><stop id="stop3213" offset="0" stop-color="#fff" stop-opacity="1"/><stop id="stop3215" offset="1" stop-color="#fff" stop-opacity="0"/></linearGradient><radialGradient id="radialGradient2927" cx="102" cy="112.305" r="139.559" gradientTransform="matrix(0.36170682,0,0,-0.39077834,0.85098226,47.494781)" gradientUnits="userSpaceOnUse" xlink:href="#XMLID_8_"/></defs><g id="layer1"><g id="g2877" display="inline" transform="matrix(0.9561265,0,0,0.9561265,1.044962,1.1059287)"><rect id="rect2879" width="34" height="3.734" x="7" y="44.266" fill="url(#linearGradient3584)" fill-opacity="1" fill-rule="nonzero" stroke="none" stroke-width="1" display="inline" opacity=".402" overflow="visible" visibility="visible" style="marker:none"/><path id="path2881" fill="url(#radialGradient3586)" fill-opacity="1" fill-rule="nonzero" stroke="none" stroke-width="1" d="m 7,44.266291 c 0,0 0,3.733665 0,3.733665 -1.2409448,0.007 -3,-0.836525 -3,-1.867073 0,-1.030547 1.3848007,-1.866591 3,-1.866592 z" display="inline" opacity=".402" overflow="visible" visibility="visible" style="marker:none"/><path id="path2883" fill="url(#radialGradient3588)" fill-opacity="1" fill-rule="nonzero" stroke="none" stroke-width="1" d="m 41,44.266291 c 0,0 0,3.733665 0,3.733665 1.240944,0.007 3,-0.836525 3,-1.867073 0,-1.030547 -1.384801,-1.866591 -3,-1.866592 z" display="inline" opacity=".402" overflow="visible" visibility="visible" style="marker:none"/></g><path id="rect2594" fill="url(#linearGradient3601)" fill-opacity="1" stroke="url(#linearGradient3603)" stroke-dasharray="none" stroke-dashoffset="0" stroke-linecap="butt" stroke-linejoin="round" stroke-miterlimit="4" stroke-opacity="1" stroke-width="1" d="m 6.4999609,0.49996288 c 8.0202951,0 16.0405901,0 24.0608861,0 1.406933,0.4853797 8.965454,6.01513552 10.939195,9.84395212 0,11.718709 0,23.437418 0,35.156127 -11.666694,0 -23.333387,0 -35.0000811,0 0,-15.000027 0,-30.000053 0,-45.00007912 z" display="inline"/><path id="path4149" fill="#89adc2" fill-opacity="1" stroke="none" d="m 11,8 2.369787,0 0,1 L 11,9 11,8 z" display="inline"/><path id="path4147" fill="#89adc2" fill-opacity="1" stroke="none" d="m 13.692593,8 2.235993,0 0,1 -2.235993,0 0,-1 z" display="inline"/><path id="path4145" fill="#89adc2" fill-opacity="1" stroke="none" d="m 16.251394,8 1.968407,0 0,1 -1.968407,0 0,-1 z" display="inline"/><path id="path4143" fill="#89adc2" fill-opacity="1" stroke="none" d="m 18.54261,8 0.864609,0 0,1 -0.864609,0 0,-1 z" display="inline"/><path id="path4141" fill="#89adc2" fill-opacity="1" stroke="none" d="m 19.730027,8 1.934957,0 0,1 -1.934957,0 0,-1 z" display="inline"/><path id="path4139" fill="#89adc2" fill-opacity="1" stroke="none" d="M 21.987791,8 27,8 l 0,1 -5.012209,0 0,-1 z" display="inline"/><path id="path4131" fill="#89adc2" fill-opacity="1" stroke="none" d="m 11,14 2.29764,0 0,1 L 11,15 11,14 z" display="inline"/><path id="path4129" fill="#89adc2" fill-opacity="1" stroke="none" d="m 13.610621,14 2.167919,0 0,1 -2.167919,0 0,-1 z" display="inline"/><path id="path4127" fill="#89adc2" fill-opacity="1" stroke="none" d="M 16.09152,14 18,14 l 0,1 -1.90848,0 0,-1 z" display="inline"/><path id="path4113" fill="#89adc2" fill-opacity="1" stroke="none" d="m 11,10 3.794449,0 0,1 L 11,11 11,10 z" display="inline"/><path id="path4111" fill="#89adc2" fill-opacity="1" stroke="none" d="m 15.140767,10 1.825534,0 0,1 -1.825534,0 0,-1 z" display="inline"/><path id="path4109" fill="#89adc2" fill-opacity="1" stroke="none" d="m 17.312621,10 0.858347,0 0,1 -0.858347,0 0,-1 z" display="inline"/><path id="path4107" fill="#89adc2" fill-opacity="1" stroke="none" d="m 18.517286,10 1.652821,0 0,1 -1.652821,0 0,-1 z" display="inline"/><path id="path4105" fill="#89adc2" fill-opacity="1" stroke="none" d="m 20.516425,10 1.652821,0 0,1 -1.652821,0 0,-1 z" display="inline"/><path id="path4103" fill="#89adc2" fill-opacity="1" stroke="none" d="m 22.515565,10 2.654549,0 0,1 -2.654549,0 0,-1 z" display="inline"/><path id="path4101" fill="#89adc2" fill-opacity="1" stroke="none" d="M 25.516433,10 29,10 l 0,1 -3.483567,0 0,-1 z" display="inline"/><path id="path4095" fill="#89adc2" fill-opacity="1" stroke="none" d="m 11,12 4.186235,0 0,1 L 11,13 11,12 z" display="inline"/><path id="path4093" fill="#89adc2" fill-opacity="1" stroke="none" d="M 15.514391,12 20,12 l 0,1 -4.485609,0 0,-1 z" display="inline"/><path id="path4063" fill="#b78ed4" fill-opacity="1" stroke="none" d="m 11,17 3.066842,0 0,1 L 11,18 11,17 z" display="inline"/><path id="path4061" fill="#d48eb3" fill-opacity="1" stroke="none" d="M 14.392634,17 20,17 l 0,1 -5.607366,0 0,-1 z" display="inline"/><path id="path4049" fill="#b78ed4" fill-opacity="1" stroke="none" d="m 11,19 3.085091,0 0,1 L 11,20 11,19 z" display="inline"/><path id="path4045" fill="#d48eb3" fill-opacity="1" stroke="none" d="m 14.4348,19 5.100985,0 0,1 -5.100985,0 0,-1 z" display="inline"/><path id="path4043" fill="#89adc2" fill-opacity="1" stroke="none" d="m 19.898933,19 1.904204,0 0,1 -1.904204,0 0,-1 z" display="inline"/><path id="path4041" fill="#89adc2" fill-opacity="1" stroke="none" d="m 22.123666,19 1.904205,0 0,1 -1.904205,0 0,-1 z" display="inline"/><path id="path4039" fill="#89adc2" fill-opacity="1" stroke="none" d="m 24.348401,19 2.756592,0 0,1 -2.756592,0 0,-1 z" display="inline"/><path id="path4037" fill="#89adc2" fill-opacity="1" stroke="none" d="M 27.425522,19 28,19 l 0,1 -0.574478,0 0,-1 z" display="inline"/><path id="path4241" fill="#89adc2" fill-opacity="1" stroke="none" d="m 19.999794,28 1.866925,0 0,0.999916 -1.866925,0 0,-0.999916 z" display="inline"/><path id="path4239" fill="#89adc2" fill-opacity="1" stroke="none" d="m 22.178177,28 4.835982,0 0,0.999916 -4.835982,0 0,-0.999916 z" display="inline"/><path id="path4237" fill="#89adc2" fill-opacity="1" stroke="none" d="m 27.325618,28 3.674176,0 0,0.999916 -3.674176,0 0,-0.999916 z" display="inline"/><path id="path4209" fill="#89adc2" fill-opacity="1" stroke="none" d="m 20,30 2.444613,0 0,0.985927 -2.444613,0 L 20,30 z" display="inline"/><path id="path4207" fill="#89adc2" fill-opacity="1" stroke="none" d="m 22.777067,30 4.274761,0 0,0.985927 -4.274761,0 0,-0.985927 z" display="inline"/><path id="path4203" fill="#89adc2" fill-opacity="1" stroke="none" d="m 27.384282,30 2.926777,0 0,0.985927 -2.926777,0 0,-0.985927 z" display="inline"/><path id="path4177" fill="#89adc2" fill-opacity="1" stroke="none" d="m 20,26 2.340812,0 0,1 L 20,27 20,26 z" display="inline"/><path id="path4175" fill="#89adc2" fill-opacity="1" stroke="none" d="M 25.141173,26 27,26 l 0,1 -1.858827,0 0,-1 z" display="inline"/><path id="path4169" fill="#89adc2" fill-opacity="1" stroke="none" d="m 22.650919,26 2.180148,0 0,1 -2.180148,0 0,-1 z" display="inline"/><path id="path4161" fill="#89adc2" fill-opacity="1" stroke="none" d="m 20,32.116321 1.88209,0 0,0.972321 -1.88209,0 0,-0.972321 z" display="inline"/><path id="path4159" fill="#89adc2" fill-opacity="1" stroke="none" d="m 22.198897,32.116321 1.882091,0 0,0.972321 -1.882091,0 0,-0.972321 z" display="inline"/><path id="path4157" fill="#89adc2" fill-opacity="1" stroke="none" d="m 24.397795,32.116321 2.72458,0 0,0.972321 -2.72458,0 0,-0.972321 z" display="inline"/><path id="path4155" fill="#89adc2" fill-opacity="1" stroke="none" d="m 27.439181,32.116321 0.567807,0 0,0.972321 -0.567807,0 0,-0.972321 z" display="inline"/><path id="path4153" fill="#89adc2" fill-opacity="1" stroke="none" d="m 28.323796,32.116321 3.533369,0 0,0.972321 -3.533369,0 0,-0.972321 z" display="inline"/><path id="path5302" fill="#94d48e" fill-opacity="1" stroke="none" d="m 11,26 2.759665,0 0,0.986089 -2.759665,0 L 11,26 z" display="inline"/><path id="path5304" fill="url(#linearGradient5988)" fill-opacity="1" stroke="none" d="M 14.143674,26 16,26 l 0,0.986089 -1.856326,0 0,-0.986089 z" display="inline"/><path id="path5310" fill="#94d48e" fill-opacity="1" stroke="none" d="m 11,28.000084 2.941725,0 0,0.999916 L 11,29 11,28.000084 z" display="inline"/><path id="path5312" fill="url(#linearGradient5984)" fill-opacity="1" stroke="none" d="m 14.2915,28.000084 2.7085,0 L 17,29 l -2.7085,0 0,-0.999916 z" display="inline"/><path id="path5318" fill="#94d48e" fill-opacity="1" stroke="none" d="m 11,30.014073 2.535,0 L 13.535,31 11,31 11,30.014073 z" display="inline"/><path id="path5320" fill="url(#linearGradient5980)" fill-opacity="1" stroke="none" d="M 13.947676,30.014073 16,30.014073 16,31 l -2.052324,0 0,-0.985927 z" display="inline"/><path id="path5326" fill="#94d48e" fill-opacity="1" stroke="none" d="m 11,32.144001 2.214387,0 0,0.97232 -2.214387,0 0,-0.97232 z" display="inline"/><path id="path5328" fill="url(#linearGradient6073)" fill-opacity="1" stroke="none" d="m 13.57487,32.144001 2.118799,0 0,0.97232 -2.118799,0 0,-0.97232 z" display="inline"/><path id="path4031" fill="#94d48e" fill-opacity="1" stroke="none" d="m 11,22 2.358908,0 0,1 L 11,23 11,22 z" display="inline"/><path id="path4029" fill="url(#linearGradient6143)" fill-opacity="1" stroke="none" d="M 13.742918,22 16,22 l 0,1 -2.257082,0 0,-1 z" display="inline"/><path id="path5685" fill="url(#linearGradient6065)" fill-opacity="1" stroke="none" d="m 11,24 1,0 0,1 -1,0 0,-1 z" display="inline"/><path id="text2019" fill="gray" fill-opacity="1" stroke="none" d="m 14,35.751339 c 1.226288,0.01645 2.45548,-0.03793 3.679393,0.03778 1.023058,0.06932 2.056415,0.79888 2.143495,1.88022 0.182109,1.008725 -0.31532,2.154656 -1.33399,2.487553 -0.84851,0.327535 -1.768484,0.21226 -2.656785,0.234217 0,0.821676 0,1.643352 0,2.465027 -0.610704,0 -1.221409,0 -1.832113,0 0,-2.368264 0,-4.736529 0,-7.104793 z m 1.832113,1.327686 c 0,0.661465 0,1.322929 0,1.984394 0.637448,-0.05033 1.398386,0.171312 1.904907,-0.325749 0.4865,-0.560936 0.162838,-1.622642 -0.639977,-1.642581 -0.42028,-0.03145 -0.843554,-0.0095 -1.26493,-0.01606 z m 10.55012,3.097939 c 0.0027,0.265091 0.08571,0.610431 -0.301696,0.485389 -1.227122,0 -2.454245,0 -3.681367,0 0.0059,0.95728 1.065616,1.352836 1.877097,1.17712 0.618032,0.06187 1.518753,-0.608716 1.853753,-0.491048 0,0.394705 0,0.789409 0,1.184114 -1.371427,0.490439 -3.025199,0.752382 -4.344151,-0.0222 -1.246674,-0.793931 -1.411864,-2.620109 -0.752512,-3.844035 0.781207,-1.314249 2.647407,-1.565917 3.957389,-0.972881 0.928783,0.448887 1.424139,1.478371 1.391487,2.483536 l 0,1e-6 z m -1.751215,-0.566292 c 0.06603,-0.720373 -0.69692,-1.271778 -1.368213,-1.040746 -0.430354,-0.02236 -1.207832,1.055851 -0.586004,1.040747 0.651406,0 1.302811,-10e-7 1.954217,-10e-7 z m 6.995344,-0.632912 c -0.711763,-0.368318 -1.820884,-0.277161 -2.118086,0.584511 -0.240012,0.801103 -0.09982,1.650819 -0.137556,2.476128 0,0.272578 0,0.545155 0,0.817733 -0.567876,0 -1.135751,0 -1.703627,0 0,-1.776595 0,-3.553189 0,-5.329784 0.567876,0 1.135751,0 1.703627,0 0,0.291869 0,0.583738 0,0.875606 0.424561,-0.804392 1.388633,-1.143675 2.250883,-0.966023 0.0016,0.513943 0.0032,1.027886 0.0048,1.541829 z m 0.856571,-3.526222 c 0.567876,0 1.135752,0 1.703629,0 0,2.468198 0,4.936396 0,7.404594 -0.567877,0 -1.135753,0 -1.703629,0 0,-2.468198 0,-4.936396 0,-7.404594 z" display="inline" font-family="Bitstream Vera Sans" font-size="11.695" font-style="normal" font-weight="normal" style="line-height:125%"/><path id="path4191" fill="url(#radialGradient2927)" fill-opacity="1" d="m 7.3617034,43.977778 c -0.1992996,0 -0.3617066,-0.175459 -0.3617066,-0.39078 l 0,-42.204044 c 0,-0.2157088 0.162407,-0.39077745 0.3617066,-0.39077745 C 14.84489,1.1001912 23.137588,0.83060147 30.611682,1.0190715 l 10.282769,8.8660243 0.10598,33.7019022 c 0,0.215321 -0.162045,0.39078 -0.361708,0.39078 l -33.2770196,0 z"/><path id="path2435" fill="none" stroke="url(#linearGradient2451)" stroke-dasharray="none" stroke-dashoffset="0" stroke-linecap="butt" stroke-linejoin="round" stroke-miterlimit="4" stroke-opacity="1" stroke-width="1" d="m 40.500464,10.236594 c 0,10.949035 0,22.314407 0,33.263442 -11.000167,0 -22.000333,0 -33.0004998,0 0,-14.014839 0,-28.029677 0,-42.0445154 7.5620898,0 15.3045298,0 22.8666198,0" display="inline" opacity=".6"/><path id="path12038" fill="#000" fill-opacity="1" fill-rule="evenodd" stroke="none" d="m 28.617256,1.8990392 c 4.282522,0 2.15325,8.4831708 2.15325,8.4831708 0,0 10.357642,-1.8023462 10.357642,2.818745 0,-2.609724 -11.302304,-10.7285957 -12.510892,-11.3019158 z" display="inline" filter="url(#filter3212)" opacity=".4" transform="matrix(1.0000128,0,0,0.99999986,-9.2604681e-5,-0.99999667)"/><path id="path4474" fill="url(#linearGradient2447)" fill-opacity="1" fill-rule="evenodd" stroke="none" d="m 28.617529,0.89904226 c 3.186533,0 2.33579,7.66187744 2.33579,7.66187744 0,0 10.175262,-0.9810538 10.175262,3.6400363 0,-1.125938 0.08591,-1.932244 -0.133779,-2.2835922 -1.578333,-2.5241783 -8.395623,-8.1883989 -10.857439,-8.93078685 -0.184224,-0.055555 -0.592711,-0.087535 -1.519834,-0.087535 z" display="inline"/></g></svg>