<svg xmlns="http://www.w3.org/2000/svg" xmlns:svg="http://www.w3.org/2000/svg" xmlns:xlink="http://www.w3.org/1999/xlink" id="svg3347" width="32" height="32" version="1.0"><defs id="defs3349"><linearGradient id="linearGradient10691-1"><stop id="stop10693-3" offset="0" stop-color="#000" stop-opacity="1"/><stop id="stop10695-1" offset="1" stop-color="#000" stop-opacity="0"/></linearGradient><radialGradient id="radialGradient2557" cx="6.703" cy="73.616" r="7.228" fx="6.703" fy="73.616" gradientTransform="matrix(1.2450862,0,0,0.2766858,7.6545456,8.631578)" gradientUnits="userSpaceOnUse" xlink:href="#linearGradient10691-1"/><linearGradient id="linearGradient3962"><stop id="stop3964" offset="0" stop-color="#464646" stop-opacity="1"/><stop id="stop3968" offset=".233" stop-color="#969696" stop-opacity="1"/><stop id="stop3970" offset=".344" stop-color="#aaa" stop-opacity="1"/><stop id="stop3972" offset="1" stop-color="#646464" stop-opacity="1"/></linearGradient><linearGradient id="linearGradient2554" x1="98.584" x2="98.584" y1="36.076" y2="44.323" gradientTransform="matrix(0.6843014,0,0,0.6062554,-52.461444,3.1287517)" gradientUnits="userSpaceOnUse" xlink:href="#linearGradient3962"/><linearGradient id="linearGradient3178"><stop id="stop3180" offset="0" stop-color="#787878" stop-opacity="1"/><stop id="stop3184" offset=".24" stop-color="#c8c8c8" stop-opacity="1"/><stop id="stop3186" offset=".335" stop-color="#e6e6e6" stop-opacity="1"/><stop id="stop3188" offset="1" stop-color="#8c8c8c" stop-opacity="1"/></linearGradient><linearGradient id="linearGradient2552" x1="397.073" x2="397.073" y1="87.076" y2="95.366" gradientTransform="matrix(0.681844,0,0,0.6063426,-254.2496,-27.797984)" gradientUnits="userSpaceOnUse" xlink:href="#linearGradient3178"/><linearGradient id="linearGradient3342-3"><stop id="stop3344-0" offset="0" stop-color="#fff" stop-opacity="0"/><stop id="stop3346-3" offset="1" stop-color="#fff" stop-opacity="1"/></linearGradient><linearGradient id="linearGradient2549" x1="15.574" x2="23.578" y1="46.971" y2="46.971" gradientTransform="matrix(0.7274459,0,0,0.6589186,-1.151775,-2.450068)" gradientUnits="userSpaceOnUse" spreadMethod="reflect" xlink:href="#linearGradient3342-3"/><linearGradient id="linearGradient3654"><stop id="stop3656" offset="0" stop-color="#76de98" stop-opacity="1"/><stop id="stop3658" offset=".5" stop-color="#37b862" stop-opacity="1"/><stop id="stop3660" offset="1" stop-color="#2f7b48" stop-opacity="1"/></linearGradient><radialGradient id="radialGradient2545" cx="12.244" cy="4.863" r="21" fx="12.244" fy="4.863" gradientTransform="matrix(1.1539587,0,2.5614294e-3,0.9264253,-6.1701773,3.7550591)" gradientUnits="userSpaceOnUse" xlink:href="#linearGradient3654"/><linearGradient id="linearGradient6592-2-7-1"><stop id="stop6594-0-2-4" offset="0" stop-color="#fff" stop-opacity=".275"/><stop id="stop6596-2-5-3" offset="1" stop-color="#fff" stop-opacity="0"/></linearGradient><linearGradient id="linearGradient2542" x1="12.938" x2="15.25" y1="8.438" y2="19.813" gradientTransform="matrix(0.7142858,0,0,0.866666,-1.1428573,0.4000017)" gradientUnits="userSpaceOnUse" xlink:href="#linearGradient6592-2-7-1"/><linearGradient id="linearGradient3202"><stop id="stop3204" offset="0" stop-color="#fff" stop-opacity="1"/><stop id="stop3206" offset="1" stop-color="#d3fce1" stop-opacity="1"/></linearGradient><linearGradient id="linearGradient3338" x1="-83.757" x2="-92.223" y1="-7.838" y2="27.521" gradientTransform="matrix(0.4211262,-0.101411,0.1008249,0.4235749,52.062512,-4.3075088e-2)" gradientUnits="userSpaceOnUse" xlink:href="#linearGradient3202"/></defs><g id="layer1"><path id="path2589" fill="url(#radialGradient2557)" fill-opacity="1" fill-rule="nonzero" stroke="none" stroke-width=".8" d="M 25,29 C 25,30.10457 20.970562,31 15.999999,31 C 11.029436,31 7,30.10457 7,29 C 7,27.895431 11.029436,27 15.999999,27 C 20.970562,27 25,27.895431 25,29 L 25,29 z" display="inline" opacity=".3" overflow="visible" visibility="visible" style="marker:none"/><path id="rect1789-8" fill="url(#linearGradient2552)" fill-opacity="1" fill-rule="nonzero" stroke="url(#linearGradient2554)" stroke-dasharray="none" stroke-dashoffset=".5" stroke-linecap="round" stroke-linejoin="round" stroke-miterlimit="4" stroke-opacity="1" stroke-width=".998" d="M 11.798578,24.5 C 11.798578,24.5 11.895578,26.398544 11.411765,27 C 10.927949,27.601454 9.9652422,27.5 9.9652422,27.5 C 9.3474772,27.56319 9.3423672,29.5 9.9652422,29.5 L 22.034709,29.5 C 22.657585,29.5 22.652603,27.562381 22.034709,27.5 C 22.034709,27.5 21.072045,27.60147 20.588235,27 C 20.104425,26.398546 20.201372,24.5 20.201372,24.5 L 11.798578,24.5 z" display="inline" enable-background="new" overflow="visible" visibility="visible" style="marker:none"/><path id="path3340-3" fill="none" stroke="url(#linearGradient2549)" stroke-linecap="square" stroke-linejoin="miter" stroke-opacity="1" stroke-width="1" d="M 10.541117,28.5 L 21.458883,28.5"/><rect id="rect2722" width="31" height="22" x=".5" y="2.5" fill="#1a1a1a" fill-opacity="1" stroke="#000" stroke-dasharray="none" stroke-dashoffset=".5" stroke-linecap="round" stroke-linejoin="round" stroke-miterlimit="4" stroke-opacity="1" stroke-width="1" rx=".689" ry=".667"/><rect id="rect2716" width="28" height="19" x="2" y="4" fill="url(#radialGradient2545)" fill-opacity="1" fill-rule="evenodd" stroke="none" display="inline" enable-background="new"/><path id="rect6588" fill="url(#linearGradient2542)" fill-opacity="1" stroke="none" d="M 0.99999999,3 L 31,3 L 31,9.9333362 L 0.99999999,16 L 0.99999999,3 z"/><path id="path3343" fill="#1f6235" fill-opacity="1" fill-rule="nonzero" stroke="none" stroke-width="1.003" d="M 20.262501,5.0030671 C 20.03079,4.9794096 19.800425,5.0935616 19.681374,5.3126976 L 14.608934,14.64757 L 11.347684,12.039391 C 11.057186,11.879729 10.694743,11.982443 10.536007,12.274629 L 9.0735233,14.163183 C 8.9147887,14.455366 9.0215731,14.81981 9.3120712,14.979467 C 9.3120712,14.979467 15.266706,19.926076 15.274055,19.929736 C 15.342138,19.967158 15.413336,19.985986 15.485713,19.995189 C 15.722137,20.025233 15.964087,19.913508 16.085619,19.689807 L 22.926477,7.1005641 C 23.085212,6.8083785 22.978425,6.4439371 22.68793,6.2842764 L 20.49294,5.072768 C 20.420314,5.0328473 20.339739,5.0109514 20.262501,5.0030671 z" display="inline" overflow="visible" visibility="visible" style="marker:none"/><path id="path4368" fill="url(#linearGradient3338)" fill-opacity="1" fill-rule="nonzero" stroke="none" stroke-width="1.003" d="M 20.262501,5.9673524 C 20.03079,5.9436949 19.800425,6.0578469 19.681374,6.2769829 L 14.608934,15.611855 L 11.347684,13.003676 C 11.057186,12.844014 10.694743,12.946728 10.536007,13.238914 L 9.0735233,15.127468 C 8.9147887,15.419651 9.0215731,15.784095 9.3120712,15.943752 C 9.3120712,15.943752 15.266706,20.890361 15.274055,20.894021 C 15.342138,20.931443 15.413336,20.950271 15.485713,20.959474 C 15.722137,20.989518 15.964087,20.877793 16.085619,20.654092 L 22.926477,8.0648494 C 23.085212,7.7726638 22.978425,7.4082224 22.68793,7.2485617 L 20.49294,6.0370533 C 20.420314,5.9971326 20.339739,5.9752367 20.262501,5.9673524 z" display="inline" overflow="visible" visibility="visible" style="marker:none"/></g></svg>