<svg xmlns="http://www.w3.org/2000/svg" xmlns:svg="http://www.w3.org/2000/svg" xmlns:xlink="http://www.w3.org/1999/xlink" id="svg11300" width="32" height="32" version="1.0"><defs id="defs3"><linearGradient id="linearGradient14993"><stop id="stop14995" offset="0" stop-color="#000" stop-opacity="1"/><stop id="stop14997" offset="1" stop-color="#000" stop-opacity="0"/></linearGradient><linearGradient id="linearGradient14981-4"><stop id="stop14983-1" offset="0" stop-color="#6d9335" stop-opacity="1"/><stop id="stop14985-7" offset="1" stop-color="#364d17" stop-opacity="1"/></linearGradient><linearGradient id="linearGradient14780-7"><stop id="stop14782-0" offset="0" stop-color="#d3ba00" stop-opacity="1"/><stop id="stop14784-4" offset="1" stop-color="#d3ba00" stop-opacity="0"/></linearGradient><linearGradient id="linearGradient14861-7"><stop id="stop14863-5" offset="0" stop-color="#fff" stop-opacity="1"/><stop id="stop14865-8" offset="1" stop-color="#fff" stop-opacity="0"/></linearGradient><linearGradient id="linearGradient7622"><stop id="stop7624" offset="0" stop-color="#fff" stop-opacity="1"/><stop id="stop7626" offset="1" stop-color="#fff" stop-opacity="0"/></linearGradient><linearGradient id="linearGradient3721" x1="16.965" x2="18.968" y1="20.166" y2="31.347" gradientTransform="matrix(0.52974791,0,0,0.58623377,6.0240374,1.0899086)" gradientUnits="userSpaceOnUse" xlink:href="#linearGradient14861-7"/><radialGradient id="radialGradient3975" cx="21.5" cy="44.75" r="17" fx="21.5" fy="44.75" gradientTransform="matrix(0.73529415,0,0,0.14705867,0.69117637,22.91912)" gradientUnits="userSpaceOnUse" xlink:href="#linearGradient14993"/><linearGradient id="linearGradient4755" x1="6.221" x2="6.238" y1="42.891" y2="39.267" gradientTransform="matrix(1,0,0,0.65428945,17.000002,-0.39947556)" gradientUnits="userSpaceOnUse" xlink:href="#linearGradient14780-7"/><linearGradient id="linearGradient4758" x1="6.221" x2="6.238" y1="42.891" y2="39.267" gradientTransform="matrix(1,0,0,0.65428945,15.000003,-0.39947556)" gradientUnits="userSpaceOnUse" xlink:href="#linearGradient14780-7"/><linearGradient id="linearGradient4761" x1="6.221" x2="6.238" y1="42.891" y2="39.267" gradientTransform="matrix(1,0,0,0.65428945,13,-0.39947556)" gradientUnits="userSpaceOnUse" xlink:href="#linearGradient14780-7"/><linearGradient id="linearGradient4764" x1="6.221" x2="6.238" y1="42.891" y2="39.267" gradientTransform="matrix(1,0,0,0.65428945,11,-0.39947556)" gradientUnits="userSpaceOnUse" xlink:href="#linearGradient14780-7"/><linearGradient id="linearGradient4767" x1="6.221" x2="6.238" y1="42.891" y2="39.267" gradientTransform="matrix(1,0,0,0.65428945,9.0000004,-0.39947556)" gradientUnits="userSpaceOnUse" xlink:href="#linearGradient14780-7"/><linearGradient id="linearGradient4770" x1="6.221" x2="6.238" y1="42.891" y2="39.267" gradientTransform="matrix(1,0,0,0.65428945,7.0000001,-0.39058056)" gradientUnits="userSpaceOnUse" xlink:href="#linearGradient14780-7"/><linearGradient id="linearGradient4773" x1="6.221" x2="6.238" y1="42.891" y2="39.267" gradientTransform="matrix(1,0,0,0.65428945,4.9716212,-0.39058056)" gradientUnits="userSpaceOnUse" xlink:href="#linearGradient14780-7"/><linearGradient id="linearGradient4776" x1="6.221" x2="6.238" y1="42.891" y2="39.267" gradientTransform="matrix(1,0,0,0.65428945,3.0000002,-0.39058056)" gradientUnits="userSpaceOnUse" xlink:href="#linearGradient14780-7"/><radialGradient id="radialGradient4795" cx="10" cy="16.655" r="16" fx="10" fy="16.655" gradientTransform="matrix(1.6522243,0.05409591,-0.04032055,1.1881302,-8.3837147,-7.9790224)" gradientUnits="userSpaceOnUse" xlink:href="#linearGradient7622"/><radialGradient id="radialGradient4797" cx="15" cy="19.77" r="17.001" fx="15" fy="19.77" gradientTransform="matrix(2.5486327,0,1.1011413e-8,1.1582811,-27.730016,-8.8224498)" gradientUnits="userSpaceOnUse" xlink:href="#linearGradient14981-4"/></defs><path id="rect14772" fill="url(#radialGradient4797)" fill-opacity="1" fill-rule="nonzero" stroke="#2d410f" stroke-dasharray="none" stroke-dashoffset="0" stroke-linecap="butt" stroke-linejoin="round" stroke-miterlimit="4" stroke-opacity="1" stroke-width="1" d="m 5.5031573,26.5 1.9987666,0 -0.00192,3 18.0000001,0 0.0033,-3 1.996454,0 0,-18 L 5.5,8.4999981 5.5031573,26.5 z" color="#000" display="block" overflow="visible" visibility="visible" style="marker:none"/><path d="m 29,29.5 a 12.5,2.5 0 0 1 -25,0 12.5,2.5 0 1 1 25,0 z" style="marker:none" id="path14991" fill="url(#radialGradient3975)" fill-opacity="1" fill-rule="nonzero" stroke="none" stroke-width="1" color="#000" display="block" opacity=".4" overflow="visible" visibility="visible"/><path id="path14957" fill="none" stroke="#305526" stroke-dasharray="none" stroke-dashoffset="0" stroke-linecap="butt" stroke-linejoin="miter" stroke-miterlimit="4" stroke-opacity="1" stroke-width=".5" d="m 20.864205,15.09023 0.04207,0.347391 1.58509,1.238016 0,3.112363 -11.153173,0 0,2.473344" color="#000" display="block" overflow="visible" visibility="visible" style="marker:none"/><path id="path14826" fill="none" stroke="#305526" stroke-dasharray="none" stroke-dashoffset="0" stroke-linecap="butt" stroke-linejoin="miter" stroke-miterlimit="4" stroke-opacity="1" stroke-width=".5" d="m 9.3847153,27.841531 0.03586,-3.78224 1.2428507,-1.744638 14.630574,0 0,-3.514665 -3.84795,-3.617319 2.360263,-0.09412 0,-2.597313 -3.59591,0" color="#000" display="block" overflow="visible" visibility="visible" style="marker:none"/><path id="path14830" fill="none" stroke="#305526" stroke-dasharray="none" stroke-dashoffset="0" stroke-linecap="butt" stroke-linejoin="miter" stroke-miterlimit="4" stroke-opacity="1" stroke-width=".5" d="m 13.345485,27.841531 0.03586,-3.78224 1.242849,-1.744638" color="#000" display="block" overflow="visible" visibility="visible" style="marker:none"/><path id="path14838" fill="none" stroke="#305526" stroke-dasharray="none" stroke-dashoffset="0" stroke-linecap="butt" stroke-linejoin="miter" stroke-miterlimit="4" stroke-opacity="1" stroke-width=".5" d="m 11.384079,27.841531 0.03586,-3.78224 1.24285,-1.744638" color="#000" display="block" overflow="visible" visibility="visible" style="marker:none"/><path id="path14840" fill="none" stroke="#305526" stroke-dasharray="none" stroke-dashoffset="0" stroke-linecap="butt" stroke-linejoin="miter" stroke-miterlimit="4" stroke-opacity="1" stroke-width=".5" d="m 15.30689,27.841531 0.03586,-3.78224 1.24285,-1.744638" color="#000" display="block" overflow="visible" visibility="visible" style="marker:none"/><path id="path14842" fill="none" stroke="#305526" stroke-dasharray="none" stroke-dashoffset="0" stroke-linecap="butt" stroke-linejoin="miter" stroke-miterlimit="4" stroke-opacity="1" stroke-width=".5" d="m 17.268295,27.841531 0.03586,-3.78224 1.24285,-1.744638" color="#000" display="block" overflow="visible" visibility="visible" style="marker:none"/><path id="path14844" fill="none" stroke="#305526" stroke-dasharray="none" stroke-dashoffset="0" stroke-linecap="butt" stroke-linejoin="miter" stroke-miterlimit="4" stroke-opacity="1" stroke-width=".5" d="m 19.229701,27.841531 0.03586,-3.78224 1.24285,-1.744638" color="#000" display="block" overflow="visible" visibility="visible" style="marker:none"/><path id="path14846" fill="none" stroke="#305526" stroke-dasharray="none" stroke-dashoffset="0" stroke-linecap="butt" stroke-linejoin="miter" stroke-miterlimit="4" stroke-opacity="1" stroke-width=".5" d="m 21.220002,27.841531 0.03586,-3.78224 1.24285,-1.744638" color="#000" display="block" overflow="visible" visibility="visible" style="marker:none"/><path id="path14848" fill="none" stroke="#305526" stroke-dasharray="none" stroke-dashoffset="0" stroke-linecap="butt" stroke-linejoin="miter" stroke-miterlimit="4" stroke-opacity="1" stroke-width=".5" d="m 23.152512,27.841531 0.03586,-3.78224 1.24285,-1.744638" color="#000" display="block" overflow="visible" visibility="visible" style="marker:none"/><path d="m 9.5,25.515192 c 0.4029843,0 0.5,0.411712 0.5,0.59295 L 10,29 c 0,0 -1,0 -1,0 l 0,-2.891858 c 0,-0.181238 0.10489,-0.59295 0.5,-0.59295 z" style="marker:none" id="rect14777" fill="url(#linearGradient4776)" fill-opacity="1" fill-rule="nonzero" stroke="none" stroke-width="1" color="#000" display="block" overflow="visible" visibility="visible"/><path d="m 11.471621,25.515192 c 0.402984,0 0.5,0.411712 0.5,0.59295 l 0,2.891858 c 0,0 -1,0 -1,0 l 0,-2.891858 c 0,-0.181238 0.10489,-0.59295 0.5,-0.59295 z" style="marker:none" id="path14788" fill="url(#linearGradient4773)" fill-opacity="1" fill-rule="nonzero" stroke="none" stroke-width="1" color="#000" display="block" overflow="visible" visibility="visible"/><path d="M 13.499999,25.515192 C 13.902984,25.515192 14,25.926904 14,26.108142 L 14,29 c 0,0 -1,0 -1,0 l 0,-2.891858 c 0,-0.181238 0.10489,-0.59295 0.499999,-0.59295 z" style="marker:none" id="path14792" fill="url(#linearGradient4770)" fill-opacity="1" fill-rule="nonzero" stroke="none" stroke-width="1" color="#000" display="block" overflow="visible" visibility="visible"/><path d="m 15.5,25.506297 c 0.402984,0 0.5,0.411712 0.5,0.59295 l 0,2.891858 c 0,0 -1,0 -1,0 l 0,-2.891858 c 0,-0.181238 0.10489,-0.59295 0.5,-0.59295 z" style="marker:none" id="path14796" fill="url(#linearGradient4767)" fill-opacity="1" fill-rule="nonzero" stroke="none" stroke-width="1" color="#000" display="block" overflow="visible" visibility="visible"/><path d="m 17.499999,25.506297 c 0.402985,0 0.500001,0.411712 0.500001,0.59295 l 0,2.891858 c 0,0 -1,0 -1,0 l 0,-2.891858 c 0,-0.181238 0.10489,-0.59295 0.499999,-0.59295 z" style="marker:none" id="path14800" fill="url(#linearGradient4764)" fill-opacity="1" fill-rule="nonzero" stroke="none" stroke-width="1" color="#000" display="block" overflow="visible" visibility="visible"/><path d="m 19.499999,25.506297 c 0.402985,0 0.500001,0.411712 0.500001,0.59295 l 0,2.891858 c 0,0 -1,0 -1,0 l 0,-2.891858 c 0,-0.181238 0.10489,-0.59295 0.499999,-0.59295 z" style="marker:none" id="path14804" fill="url(#linearGradient4761)" fill-opacity="1" fill-rule="nonzero" stroke="none" stroke-width="1" color="#000" display="block" overflow="visible" visibility="visible"/><path d="m 21.5,25.506297 c 0.402984,0 0.5,0.411712 0.5,0.59295 l 0,2.891858 c 0,0 -1,0 -1,0 l 0,-2.891858 c 0,-0.181238 0.10489,-0.59295 0.5,-0.59295 z" style="marker:none" id="path14808" fill="url(#linearGradient4758)" fill-opacity="1" fill-rule="nonzero" stroke="none" stroke-width="1" color="#000" display="block" overflow="visible" visibility="visible"/><path d="m 23.499999,25.506297 c 0.402985,0 0.500001,0.411712 0.500001,0.59295 l 0,2.891858 c 0,0 -1,0 -1,0 l 0,-2.891858 c 0,-0.181238 0.10489,-0.59295 0.499999,-0.59295 z" style="marker:none" id="path14812" fill="url(#linearGradient4755)" fill-opacity="1" fill-rule="nonzero" stroke="none" stroke-width="1" color="#000" display="block" overflow="visible" visibility="visible"/><path id="path15029" fill="none" stroke="#305526" stroke-dasharray="none" stroke-dashoffset="0" stroke-linecap="butt" stroke-linejoin="miter" stroke-miterlimit="4" stroke-opacity="1" stroke-width=".5" d="M 9.9958752,12.691347 7.728,13.386529 l 0,1.226793 0,6.583788 3.677,0.04089" color="#000" display="block" overflow="visible" visibility="visible" style="marker:none"/><path id="path14959" fill="none" stroke="#305526" stroke-dasharray="none" stroke-dashoffset="0" stroke-linecap="butt" stroke-linejoin="miter" stroke-miterlimit="4" stroke-opacity="1" stroke-width=".5" d="m 10.702525,16.941 0.693462,2.746839 1.271346,0 L 11.973872,16.941" color="#000" display="block" overflow="visible" visibility="visible" style="marker:none"/><path id="path14961" fill="none" stroke="#305526" stroke-dasharray="none" stroke-dashoffset="0" stroke-linecap="butt" stroke-linejoin="miter" stroke-miterlimit="4" stroke-opacity="1" stroke-width=".5" d="m 13.317733,17.007 0.693461,2.680839 1.271346,0 L 14.589079,17.007" color="#000" display="block" overflow="visible" visibility="visible" style="marker:none"/><path id="path14963" fill="none" stroke="#305526" stroke-dasharray="none" stroke-dashoffset="0" stroke-linecap="butt" stroke-linejoin="miter" stroke-miterlimit="4" stroke-opacity="1" stroke-width=".5" d="m 15.93294,16.907 0.693461,2.780839 1.271347,0 L 17.204286,16.907" color="#000" display="block" overflow="visible" visibility="visible" style="marker:none"/><path id="path14965" fill="none" stroke="#305526" stroke-dasharray="none" stroke-dashoffset="0" stroke-linecap="butt" stroke-linejoin="miter" stroke-miterlimit="4" stroke-opacity="1" stroke-width=".5" d="m 18.548147,16.879 0.693462,2.808839" color="#000" display="block" overflow="visible" visibility="visible" style="marker:none"/><path id="path14989" fill="none" stroke="url(#radialGradient4795)" stroke-dasharray="none" stroke-dashoffset="0" stroke-linecap="butt" stroke-linejoin="miter" stroke-miterlimit="4" stroke-opacity="1" stroke-width="1" d="m 6.5000496,25.342303 1.9342186,-3.6e-5 0.0071,3.157733 16.1292768,-0.0016 -0.0019,-3.160379 1.928853,0.0017 c 0.0026,-2.58e-4 0.0024,-15.8384154 0.0024,-15.8384154 L 6.50226,9.5000006 C 6.50486,14.78407 6.5,25.342308 6.5,25.342308 z" color="#000" display="block" opacity=".239" overflow="visible" visibility="visible" style="marker:none"/><rect id="rect14857-2" width="10" height="5" x="9.5" y="11.5" fill="#646662" fill-opacity="1" fill-rule="nonzero" stroke="#2e3436" stroke-dasharray="none" stroke-dashoffset="0" stroke-linecap="butt" stroke-linejoin="miter" stroke-miterlimit="4" stroke-opacity="1" stroke-width="1" color="#000" display="block" overflow="visible" rx=".942" ry=".942" visibility="visible" style="marker:none"/><rect id="rect14859-2" width="8" height="3" x="10.5" y="12.5" fill="none" stroke="url(#linearGradient3721)" stroke-dasharray="none" stroke-dashoffset="0" stroke-linecap="butt" stroke-linejoin="miter" stroke-miterlimit="4" stroke-opacity="1" stroke-width="1" color="#000" display="block" opacity=".25" overflow="visible" rx="0" ry="0" visibility="visible" style="marker:none"/><path id="path13687-7" fill="#7da5ca" fill-opacity="1" stroke="#356ca0" stroke-dasharray="none" stroke-linecap="butt" stroke-linejoin="miter" stroke-miterlimit="4" stroke-opacity="1" stroke-width="1" d="m 30.5,3.7 -4.361,4.8 4.361,0 0,2 -7,0 0,-2.2 4.365,-4.8 -4.365,0 0,-2 7,0 0,2.2 z" font-family="Segoe" font-size="10" font-stretch="normal" font-style="normal" font-variant="normal" font-weight="normal" text-anchor="start" writing-mode="lr-tb" style="line-height:100%"/><path id="path13696-3" fill="#7da5ca" fill-opacity="1" stroke="#356ca0" stroke-dasharray="none" stroke-linecap="butt" stroke-linejoin="miter" stroke-miterlimit="4" stroke-opacity="1" stroke-width="1" d="m 23.5,14.7 -2.507,2.8 2.507,0 0,2 -5,0 0,-2.249 2.564,-2.751 -2.564,0 0,-2 5,0 0,2.2 z" font-family="Segoe" font-size="10" font-stretch="normal" font-style="normal" font-variant="normal" font-weight="normal" text-anchor="start" writing-mode="lr-tb" style="line-height:100%"/></svg>