<svg xmlns="http://www.w3.org/2000/svg" xmlns:svg="http://www.w3.org/2000/svg" xmlns:xlink="http://www.w3.org/1999/xlink" id="svg2285" width="32" height="32" version="1.1"><defs id="defs2287"><linearGradient id="linearGradient3709"><stop id="stop3711" offset="0" stop-color="#000" stop-opacity="1"/><stop id="stop3713" offset=".127" stop-color="#000" stop-opacity="1"/><stop id="stop3715" offset=".177" stop-color="#fff" stop-opacity="1"/><stop id="stop3717" offset=".867" stop-color="#fff" stop-opacity="1"/><stop id="stop3719" offset=".925" stop-color="#000" stop-opacity="1"/><stop id="stop3721" offset="1" stop-color="#000" stop-opacity="1"/></linearGradient><linearGradient id="linearGradient2181"><stop id="stop2183" offset="0" stop-color="#f0f0f0" stop-opacity="1"/><stop id="stop2185" offset="1" stop-color="#d3d3d3" stop-opacity="1"/></linearGradient><linearGradient id="linearGradient3781"><stop id="stop3783" offset="0" stop-color="#fff" stop-opacity="1"/><stop id="stop3785" offset="1" stop-color="#fff" stop-opacity="0"/></linearGradient><linearGradient id="linearGradient3062" x1="21.299" x2="21.039" y1="23.933" y2="48.795" gradientTransform="matrix(1,0,0,1.004318,0,-6.023254)" gradientUnits="userSpaceOnUse" xlink:href="#linearGradient2181"/><linearGradient id="linearGradient3840" x1="19.363" x2="19.546" y1="24.925" y2="47.827" gradientTransform="matrix(1.043004,0,0,1.004318,-1.032297,-6.023254)" gradientUnits="userSpaceOnUse" xlink:href="#linearGradient3781"/><linearGradient id="linearGradient2781"><stop id="stop2783" offset="0" stop-color="#505050" stop-opacity="1"/><stop id="stop6301" offset=".132" stop-color="#6e6e6e" stop-opacity="1"/><stop id="stop2785" offset="1" stop-color="#8c8c8c" stop-opacity="1"/></linearGradient><linearGradient id="linearGradient4288" x1="21.866" x2="21.78" y1="8.576" y2="39.924" gradientTransform="matrix(0.27273093,0,0,0.26229943,6.1817186,10.139238)" gradientUnits="userSpaceOnUse" xlink:href="#linearGradient2781"/><linearGradient id="linearGradient4168"><stop id="stop4170" offset="0" stop-color="#f8cd70" stop-opacity="1"/><stop id="stop4172" offset="1" stop-color="#cc9110" stop-opacity="1"/></linearGradient><linearGradient id="linearGradient3952" x1="23" x2="23" y1="20" y2="23" gradientTransform="translate(-7.999987,-8.0000006)" gradientUnits="userSpaceOnUse" xlink:href="#linearGradient4168"/><radialGradient id="radialGradient2913" cx="14.644" cy="30.538" r="23.969" fx="14.644" fy="30.538" gradientTransform="matrix(3.0972922,0.05187265,-0.0170043,1.0113751,-29.803076,-1.1070013)" gradientUnits="userSpaceOnUse" xlink:href="#linearGradient2181"/><radialGradient id="radialGradient2915" cx="14.644" cy="30.538" r="23.969" fx="14.644" fy="30.538" gradientTransform="matrix(3.0790726,0.05188162,-0.01690427,1.01155,-30.089527,-1.1112571)" gradientUnits="userSpaceOnUse" xlink:href="#linearGradient2181"/><radialGradient id="radialGradient3693" cx="7.99" cy="-1.183" r="24.016" fx="7.99" fy="-1.183" gradientTransform="matrix(1.8424228,-0.00718001,9.4868904e-4,0.43458053,-9.9398176,16.557583)" gradientUnits="userSpaceOnUse" xlink:href="#linearGradient3781"/><radialGradient id="radialGradient3695" cx="8.184" cy="-1.092" r="24.016" fx="8.184" fy="-1.092" gradientTransform="matrix(2.426869,-0.00717908,0.00124963,0.43452394,-12.859908,16.533426)" gradientUnits="userSpaceOnUse" xlink:href="#linearGradient3781"/><linearGradient id="linearGradient3727" x1="-1" x2="49.27" y1="30.684" y2="30.684" gradientTransform="matrix(0.75592409,0,0,0.75097405,-3.24408,-6.0428586)" gradientUnits="userSpaceOnUse" xlink:href="#linearGradient3709"/><mask id="mask3723"><rect id="rect3725" width="37.796" height="20.276" x="-4" y="6.724" fill="url(#linearGradient3727)" fill-opacity="1" stroke="none"/></mask></defs><g id="g3697" mask="url(#mask3723)"><rect id="rect3734" width="47.055" height="23.969" x=".522" y="18.513" fill="url(#linearGradient3062)" fill-opacity="1" stroke="#969696" stroke-dasharray="none" stroke-dashoffset="0" stroke-linecap="butt" stroke-linejoin="round" stroke-miterlimit="4" stroke-opacity="1" stroke-width="1.327" rx="0" ry="0" transform="matrix(0.75592409,0,0,0.75097405,-2.8091995,-6.403125)"/><path id="path2911" fill="url(#radialGradient2915)" fill-opacity="1" stroke="#8c8c8c" stroke-dasharray="none" stroke-dashoffset="0" stroke-linecap="butt" stroke-linejoin="round" stroke-miterlimit="4" stroke-opacity="1" stroke-width="1" d="M -2.5,9.5000001 -2.5,23.5 l 5.0117647,0 c 0.1027076,0 0.2128862,-0.01859 0.3058824,-0.04865 0.1456476,-0.05121 0.2938858,-0.156835 0.3999999,-0.267536 0.04905,-0.05367 0.1040953,-0.130776 0.1411765,-0.194572 C 3.4419751,22.838043 3.5,22.641679 3.5,22.454172 l 0,-11.908347 C 3.5,10.358317 3.4419749,10.161953 3.3588235,10.010751 3.3217425,9.9469564 3.2666966,9.8698611 3.217647,9.8161801 3.1115329,9.7054795 2.9632947,9.5998571 2.8176471,9.5486432 2.7246509,9.5185935 2.6144722,9.5000001 2.5117647,9.5000001 l -5.0117647,0 z"/><path id="rect3762" fill="url(#radialGradient2913)" fill-opacity="1" stroke="#8c8c8c" stroke-dasharray="none" stroke-dashoffset="0" stroke-linecap="butt" stroke-linejoin="round" stroke-miterlimit="4" stroke-opacity="1" stroke-width="1" d="M 6.37574,9.5024209 C 6.3175339,9.5100509 6.2409598,9.5335319 6.1863909,9.5510559 6.0398816,9.6022579 5.8907661,9.7078648 5.784024,9.8185465 5.7346871,9.8722155 5.6793125,9.9492999 5.6420121,10.013085 5.5583685,10.164261 5.5000003,10.360592 5.5000003,10.548067 l 0,11.906287 c 0,0.187475 0.058365,0.383806 0.1420118,0.534982 0.037302,0.06378 0.092672,0.140867 0.1420119,0.194538 0.1067421,0.110682 0.2558576,0.216286 0.4023669,0.267491 C 6.2799377,23.48141 6.3907675,23.5 6.4940832,23.5 l 27.0059188,0 0,-13.9975791 -27.0059188,0 c -0.043051,0 -0.076766,-0.00545 -0.1183432,0 z"/><path id="path3691" fill="none" stroke="url(#radialGradient3693)" stroke-dasharray="none" stroke-dashoffset="0" stroke-linecap="butt" stroke-linejoin="round" stroke-miterlimit="4" stroke-opacity="1" stroke-width="1" d="m -1.4999994,10.499999 0,12 3.6444438,0 c 0.053724,0 0.11476,-0.01834 0.16,-0.0472 0.083068,-0.05976 0.1537594,-0.182281 0.1777777,-0.306764 C 2.4868018,22.116183 2.5,22.083338 2.5,22.051654 l 0,-11.079701 c 0,-0.134698 -0.055116,-0.270356 -0.1244445,-0.35396 -0.017016,-0.01862 -0.051565,-0.05673 -0.071112,-0.07079 -0.045239,-0.02885 -0.1062761,-0.0472 -0.1600001,-0.0472 l -3.6444438,0 z" opacity=".8"/><path id="rect3736" fill="none" stroke="url(#radialGradient3695)" stroke-dasharray="none" stroke-dashoffset="0" stroke-linecap="butt" stroke-linejoin="round" stroke-miterlimit="4" stroke-opacity="1" stroke-width="1" d="m 6.8980917,10.476631 c -0.052731,0.008 -0.1188656,0.04619 -0.1639202,0.07078 -0.018727,0.01144 -0.053444,0.03322 -0.070252,0.04719 -0.010746,0.0099 -0.037071,0.03636 -0.046834,0.04719 -0.013862,0.01693 -0.035482,0.05192 -0.046834,0.07078 C 6.5353766,10.777422 6.5,10.869294 6.5,10.948517 l 0,11.078258 c 0,0.03961 0.01411,0.08137 0.023418,0.117972 0.013234,0.04304 0.045815,0.10506 0.070252,0.141565 0.082678,0.111527 0.2252791,0.188755 0.3746748,0.188755 l 26.5316562,0 0,-11.998436 -26.5316562,0 c -0.023589,0 -0.047651,-0.0035 -0.070252,0 z" opacity=".7"/><rect id="rect3752" width="14.363" height="3" x="19" y="15" fill="#000" fill-opacity="1" stroke="none" opacity=".1" rx=".563" ry=".563"/><rect id="rect2247" width="47.591" height="22" x=".409" y="19.51" fill="none" stroke="url(#linearGradient3840)" stroke-dasharray="none" stroke-dashoffset="0" stroke-linecap="butt" stroke-linejoin="round" stroke-miterlimit="4" stroke-opacity="1" stroke-width="1.349" opacity=".8" rx="0" ry="0" transform="matrix(0.75592409,0,0,0.72726375,-2.8091995,-5.6887591)"/><rect id="rect1887" width="9" height="8" x="8.5" y="12.5" fill="url(#linearGradient4288)" fill-opacity="1" stroke="#565853" stroke-dasharray="none" stroke-linejoin="round" stroke-miterlimit="4" stroke-opacity="1" stroke-width="1"/><rect id="rect6287" width="8" height="5" x="9" y="15" fill="#fff" fill-opacity="1" stroke="none"/><rect id="rect3650" width="3" height="1" x="13" y="13" fill="url(#linearGradient3952)" fill-opacity="1" stroke="none"/></g></svg>