<svg xmlns="http://www.w3.org/2000/svg" xmlns:svg="http://www.w3.org/2000/svg" xmlns:xlink="http://www.w3.org/1999/xlink" id="svg1325" width="32" height="32" version="1.1"><defs id="defs1327"><linearGradient id="linearGradient3958"><stop id="stop3960" offset="0" stop-color="#fff" stop-opacity="1"/><stop id="stop3962" offset=".515" stop-color="#000" stop-opacity="1"/><stop id="stop3964" offset="1" stop-color="#000" stop-opacity="1"/></linearGradient><linearGradient id="linearGradient2270"><stop id="stop2272" offset="0" stop-color="#fff" stop-opacity="1"/><stop id="stop2274" offset="1" stop-color="#fff" stop-opacity="0"/></linearGradient><linearGradient id="linearGradient2268" x1="31.67" x2="31.654" y1="17" y2="47" gradientTransform="translate(0,-8)" gradientUnits="userSpaceOnUse" xlink:href="#linearGradient2181"/><linearGradient id="linearGradient1341" x1="23.997" x2="23.788" y1="18.375" y2="46" gradientTransform="translate(0,-8)" gradientUnits="userSpaceOnUse" xlink:href="#linearGradient2270"/><linearGradient id="linearGradient2181"><stop id="stop2183" offset="0" stop-color="#f0f0f0" stop-opacity="1"/><stop id="stop2185" offset="1" stop-color="#d3d3d3" stop-opacity="1"/></linearGradient><radialGradient id="radialGradient3890" cx="9.5" cy="24" r="5.5" fx="9.5" fy="24" gradientTransform="matrix(1.5177196,1.0726872e-7,-1.6705603e-7,2.3636362,-4.9183319,-32.727271)" gradientUnits="userSpaceOnUse" xlink:href="#linearGradient2181"/><linearGradient id="linearGradient3898" x1="9.5" x2="9.5" y1="12" y2="36" gradientUnits="userSpaceOnUse" xlink:href="#linearGradient2270"/><linearGradient id="linearGradient3970" x1="44" x2="50" y1="24" y2="24" gradientTransform="translate(-1.336101,0.480508)" gradientUnits="userSpaceOnUse" xlink:href="#linearGradient3958"/><mask id="mask3966"><rect id="rect3968" width="49" height="32" x="-.336" y="8.481" fill="url(#linearGradient3970)" fill-opacity="1" stroke="none"/></mask><linearGradient id="linearGradient3976" x1="44" x2="50" y1="24" y2="24" gradientUnits="userSpaceOnUse" xlink:href="#linearGradient3958"/><mask id="mask3972"><rect id="rect3974" width="49" height="32" x="1" y="8" fill="url(#linearGradient3976)" fill-opacity="1" stroke="none"/></mask><linearGradient id="linearGradient3982" x1="44" x2="50" y1="24" y2="24" gradientUnits="userSpaceOnUse" xlink:href="#linearGradient3958"/><mask id="mask3978"><rect id="rect3980" width="49" height="32" x="1" y="8" fill="url(#linearGradient3982)" fill-opacity="1" stroke="none"/></mask><linearGradient id="linearGradient3988" x1="44" x2="50" y1="24" y2="24" gradientUnits="userSpaceOnUse" xlink:href="#linearGradient3958"/><mask id="mask3984"><rect id="rect3986" width="49" height="32" x="1" y="8" fill="url(#linearGradient3988)" fill-opacity="1" stroke="none"/></mask><linearGradient id="linearGradient3994" x1="44" x2="50" y1="24" y2="24" gradientUnits="userSpaceOnUse" xlink:href="#linearGradient3958"/><mask id="mask3990"><rect id="rect3992" width="49" height="32" x="1" y="8" fill="url(#linearGradient3994)" fill-opacity="1" stroke="none"/></mask><linearGradient id="linearGradient4000" x1="44" x2="50" y1="24" y2="24" gradientUnits="userSpaceOnUse" xlink:href="#linearGradient3958"/><mask id="mask3996"><rect id="rect3998" width="49" height="32" x="1" y="8" fill="url(#linearGradient4000)" fill-opacity="1" stroke="none"/></mask></defs><g id="layer1" transform="matrix(0.63829788,0,0,0.62159216,-0.09574494,1.5817881)"><rect id="rect1333" width="46" height="29" x="2.5" y="9.5" fill="url(#linearGradient2268)" fill-opacity="1" stroke="#969696" stroke-dasharray="none" stroke-dashoffset="0" stroke-linecap="butt" stroke-linejoin="round" stroke-miterlimit="4" stroke-opacity="1" stroke-width="1.588" mask="url(#mask3996)"/><rect id="rect2210" width="45" height="27" x="3.5" y="10.5" fill="none" stroke="url(#linearGradient1341)" stroke-dasharray="none" stroke-dashoffset="0" stroke-linecap="butt" stroke-linejoin="round" stroke-miterlimit="4" stroke-opacity="1" stroke-width="1.647" mask="url(#mask3990)" opacity=".8" transform="matrix(0.97481481,0,0,0.95334633,0.65481497,1.1196883)"/><rect stroke-linejoin="miter" style="marker:none" id="rect1337" width="10" height="25" x="4.5" y="11.5" fill="url(#radialGradient3890)" fill-opacity="1" fill-rule="nonzero" stroke="#969696" stroke-dasharray="none" stroke-dashoffset="0" stroke-linecap="square" stroke-miterlimit="4" stroke-opacity="1" stroke-width="1.89" color="#000" display="inline" mask="url(#mask3984)" overflow="visible" rx="1.277" ry="1.11" transform="matrix(0.78333334,0,0,0.90091227,2.1083336,2.3781054)" visibility="visible"/><rect id="rect2212" width="8" height="23" x="5.5" y="12.5" fill="none" stroke="url(#linearGradient3898)" stroke-dasharray="none" stroke-dashoffset="0" stroke-linecap="square" stroke-linejoin="miter" stroke-miterlimit="4" stroke-opacity="1" stroke-width="2.261" color="#000" display="inline" mask="url(#mask3978)" opacity=".7" overflow="visible" transform="matrix(0.5875,0,0,0.83935926,3.9687503,3.8553779)" visibility="visible" style="marker:none"/><path id="path2214" fill="#000" fill-opacity="1" fill-rule="evenodd" stroke="none" d="M 8,23.5 11,21 11,26 8,23.5 z" mask="url(#mask3972)" transform="matrix(1.0444444,0,0,0.96526314,-0.37222182,1.3163163)"/><g id="layer6" fill="#2e3436" display="inline" mask="url(#mask3966)" transform="translate(1.336101,-0.480508)"><g id="g2450" fill="#2e3436" fill-opacity="1" display="inline" transform="matrix(1.111126,0,0,1.11111,-1.111123,-1.999954)"><path id="path4490" fill="#2e3436" fill-opacity="1" fill-rule="nonzero" stroke="none" d="m 29.316814,14.421115 c -3.965818,0 -4.709751,5.20968 -2.478757,5.20968 2.230672,0 6.444736,-5.20968 2.478757,-5.20968 z"/><path id="path4492" fill="#2e3436" fill-opacity="1" fill-rule="nonzero" stroke="none" d="m 22.731674,18.985253 c 1.187876,0.0669 2.491169,-4.181005 0.258563,-3.913839 -2.2318,0.267167 -1.446922,3.846936 -0.258563,3.913839 z"/><path id="path4494" fill="#2e3436" fill-opacity="1" fill-rule="nonzero" stroke="none" d="m 17.287662,21.624809 c 0.844844,-0.34299 0.10881,-3.697816 -1.327796,-2.782877 -1.435961,0.915087 0.482952,3.125719 1.327796,2.782877 z"/><path id="path4496" fill="#2e3436" fill-opacity="1" fill-rule="nonzero" stroke="none" d="m 19.668088,19.868823 c 1.00572,-0.189114 1.06085,-3.993975 -0.73265,-3.311413 -1.793823,0.68271 -0.272266,3.500822 0.73265,3.311413 l 0,0 z"/><path id="path4498" fill="#2e3436" fill-opacity="1" fill-rule="nonzero" stroke="none" d="m 25.006987,29.187306 c 0.177854,1.408523 -0.996431,2.104121 -2.146457,1.196095 -3.661028,-2.89052 6.061654,-4.332365 5.420769,-8.281526 -0.531955,-3.277889 -10.230377,-2.268731 -11.334774,2.86003 -0.747565,3.469158 3.077178,8.28186 7.068047,8.28186 1.963302,0 4.227847,-1.838376 4.651515,-4.167254 0.323576,-1.775898 -3.807552,-1.064306 -3.6591,0.110795 l 0,0 z"/></g></g></g></svg>