<svg xmlns="http://www.w3.org/2000/svg" xmlns:svg="http://www.w3.org/2000/svg" xmlns:xlink="http://www.w3.org/1999/xlink" id="svg2999" width="32" height="32" version="1.1"><defs id="defs3001"><linearGradient id="linearGradient2900" x1="2.001" x2="16.137" y1="31.956" y2="23.877" gradientTransform="matrix(0.65564475,0,0,0.6521786,0.49898876,0.87806051)" gradientUnits="userSpaceOnUse" xlink:href="#linearGradient6036-2"/><linearGradient id="linearGradient6036-2"><stop id="stop6038-8" offset="0" stop-color="#fff" stop-opacity="1"/><stop id="stop6040-8" offset="1" stop-color="#fff" stop-opacity="0"/></linearGradient><linearGradient id="linearGradient2904" x1="45.247" x2="27.521" y1="43.235" y2="25.797" gradientTransform="matrix(0.65564475,0,0,0.6521786,0.49898876,0.87806051)" gradientUnits="userSpaceOnUse" xlink:href="#linearGradient6036-9"/><linearGradient id="linearGradient6036-9"><stop id="stop6038-0" offset="0" stop-color="#fff" stop-opacity="1"/><stop id="stop6040-0" offset="1" stop-color="#fff" stop-opacity="0"/></linearGradient><linearGradient id="linearGradient2896" x1="24.846" x2="24.846" y1="1.41" y2="14.964" gradientTransform="matrix(0.65564475,0,0,0.6521786,0.49898876,0.87806051)" gradientUnits="userSpaceOnUse" xlink:href="#linearGradient6036"/><linearGradient id="linearGradient6036"><stop id="stop6038" offset="0" stop-color="#fff" stop-opacity="1"/><stop id="stop6040" offset="1" stop-color="#fff" stop-opacity="0"/></linearGradient><radialGradient id="radialGradient2904" cx="-36.642" cy="18.894" r="8.524" fx="-36.831" fy="17.431" gradientTransform="matrix(0.56450771,0,0,0.50152138,36.684416,4.0246955)" gradientUnits="userSpaceOnUse" xlink:href="#linearGradient6472-615-677-498"/><linearGradient id="linearGradient6472-615-677-498"><stop id="stop10677" offset="0" stop-color="#f2f2f2" stop-opacity="1"/><stop id="stop10679" offset=".637" stop-color="#c3effb" stop-opacity="1"/><stop id="stop10681" offset=".747" stop-color="#79c3e9" stop-opacity="1"/><stop id="stop10683" offset="1" stop-color="#2b609c" stop-opacity="1"/></linearGradient><linearGradient id="linearGradient2906" x1="-36.642" x2="-36.642" y1="27.437" y2="10.35" gradientTransform="matrix(0.56450771,0,0,0.50152138,36.684416,4.0246955)" gradientUnits="userSpaceOnUse" xlink:href="#linearGradient6269-922-214-380"/><linearGradient id="linearGradient6269-922-214-380"><stop id="stop10687" offset="0" stop-color="#3c679c" stop-opacity="1"/><stop id="stop10689" offset="1" stop-color="#41cbf4" stop-opacity="1"/></linearGradient><radialGradient id="radialGradient2909" cx="-36.642" cy="20.297" r="9.456" fx="-36.642" fy="18.265" gradientTransform="matrix(1.0575438,0,0,0.95138567,54.749999,-5.3107723)" gradientUnits="userSpaceOnUse" xlink:href="#linearGradient6253"/><linearGradient id="linearGradient6253"><stop id="stop6255" offset="0" stop-color="#c9fbff" stop-opacity="1"/><stop id="stop6261" offset=".476" stop-color="#c4effc" stop-opacity="1"/><stop id="stop6257" offset="1" stop-color="#bfe4f9" stop-opacity="0"/></linearGradient><radialGradient id="radialGradient2912" cx="37.017" cy="-2.044" r="13.931" fx="37.017" fy="-2.044" gradientTransform="matrix(-0.99988538,0.66135637,-0.59195641,-0.83393847,52.175077,-13.204211)" gradientUnits="userSpaceOnUse" xlink:href="#linearGradient11168"/><linearGradient id="linearGradient11168"><stop id="stop11170" offset="0" stop-color="#ffeb9f" stop-opacity="1"/><stop id="stop11172" offset=".496" stop-color="#ffd57e" stop-opacity="1"/><stop id="stop11174" offset=".788" stop-color="#ffbc43" stop-opacity="1"/><stop id="stop11176" offset="1" stop-color="#ff921a" stop-opacity="1"/></linearGradient><linearGradient id="linearGradient2914" x1="77.329" x2="71.87" y1="63.334" y2="54.239" gradientTransform="matrix(1.0851582,0,0,1.0507823,-59.29437,-41.950205)" gradientUnits="userSpaceOnUse" xlink:href="#linearGradient3603-5"/><linearGradient id="linearGradient3603-5"><stop id="stop3605-0" offset="0" stop-color="#a7651c" stop-opacity="1"/><stop id="stop3607-8" offset="1" stop-color="#c8a700" stop-opacity="1"/></linearGradient><radialGradient id="radialGradient2917" cx="68.187" cy="33.752" r="31" fx="68.187" fy="33.752" gradientTransform="matrix(-0.28822192,0.39768028,-0.46404617,-0.31581477,50.106603,-3.1994878)" gradientUnits="userSpaceOnUse" xlink:href="#linearGradient11158"/><linearGradient id="linearGradient11158"><stop id="stop11160" offset="0" stop-color="#eef87e" stop-opacity="1"/><stop id="stop11162" offset=".344" stop-color="#cde34f" stop-opacity="1"/><stop id="stop11164" offset=".629" stop-color="#93b723" stop-opacity="1"/><stop id="stop11166" offset="1" stop-color="#5a7e0d" stop-opacity="1"/></linearGradient><linearGradient id="linearGradient2919" x1="75.306" x2="111.627" y1="121.736" y2="67.683" gradientTransform="matrix(0.18435217,0,0,0.17986128,-8.0264876,3.6899424)" gradientUnits="userSpaceOnUse" xlink:href="#linearGradient2490-3-3"/><linearGradient id="linearGradient2490-3-3"><stop id="stop2492-3-6" offset="0" stop-color="#365f0e" stop-opacity="1"/><stop id="stop2494-8-4" offset="1" stop-color="#84a718" stop-opacity="1"/></linearGradient><radialGradient id="radialGradient2922" cx="10.615" cy="12.446" r="11" fx="10.615" fy="12.446" gradientTransform="matrix(-1.0526401e-8,-1.1108372,1.7525476,-1.6432181e-8,-5.3281434,25.148999)" gradientUnits="userSpaceOnUse" xlink:href="#linearGradient5745"/><linearGradient id="linearGradient5745"><stop id="stop5747" offset="0" stop-color="#ffed8c" stop-opacity="1"/><stop id="stop5749" offset=".468" stop-color="#ffb055" stop-opacity="1"/><stop id="stop5751" offset=".712" stop-color="#e05e31" stop-opacity="1"/><stop id="stop5753" offset="1" stop-color="#bd1515" stop-opacity="1"/></linearGradient><linearGradient id="linearGradient2924" x1="7.757" x2="7.757" y1="16.041" y2=".332" gradientTransform="matrix(0.65564475,0,0,0.6521786,0.49898876,0.87806004)" gradientUnits="userSpaceOnUse" xlink:href="#linearGradient5755"/><linearGradient id="linearGradient5755"><stop id="stop5757" offset="0" stop-color="#ce5c00" stop-opacity="1"/><stop id="stop5759" offset="1" stop-color="#971f31" stop-opacity="1"/></linearGradient><radialGradient id="radialGradient2927" cx="-37.749" cy="19.402" r="18.733" fx="-37.749" fy="15.539" gradientTransform="matrix(0.76076996,0,0,0.72711221,44.809912,1.3423707)" gradientUnits="userSpaceOnUse" xlink:href="#linearGradient5138-0"/><linearGradient id="linearGradient5138-0"><stop id="stop5140-0" offset="0" stop-color="#32455d" stop-opacity="1"/><stop id="stop5142-9" offset="1" stop-color="#19242b" stop-opacity="1"/></linearGradient><linearGradient id="linearGradient2929" x1="-50.518" x2="-50.518" y1=".663" y2="38.16" gradientTransform="matrix(0.76076996,0,0,0.72711221,44.809912,1.3423707)" gradientUnits="userSpaceOnUse" xlink:href="#linearGradient5216"/><linearGradient id="linearGradient5216"><stop id="stop5218" offset="0" stop-color="#11191d" stop-opacity="1"/><stop id="stop5220" offset="1" stop-color="#000" stop-opacity="1"/></linearGradient><linearGradient id="linearGradient8838"><stop id="stop8840" offset="0" stop-color="#000" stop-opacity="1"/><stop id="stop8842" offset="1" stop-color="#000" stop-opacity="0"/></linearGradient><radialGradient id="radialGradient2997" cx="62.625" cy="4.625" r="10.625" fx="62.625" fy="4.625" gradientTransform="matrix(1.4117647,0,0,0.51764634,-72.411765,24.105883)" gradientUnits="userSpaceOnUse" xlink:href="#linearGradient8838"/></defs><metadata id="metadata3004"/><g id="layer1"><path id="path8836" fill="url(#radialGradient2997)" fill-opacity="1" fill-rule="evenodd" stroke="none" stroke-width="1" d="M 31,26.499999 C 31,29.537567 24.284271,32 16,32 7.7157311,32 1,29.537567 1,26.499999 1,23.462434 7.7157317,21 16,21 c 8.284269,0 15,2.462434 15,5.499999 l 0,0 z" display="inline" opacity=".3" overflow="visible" visibility="visible" style="marker:none"/><path id="path3682-8" fill="url(#radialGradient2927)" fill-opacity="1" fill-rule="evenodd" stroke="url(#linearGradient2929)" stroke-dasharray="none" stroke-dashoffset="0" stroke-linecap="round" stroke-linejoin="miter" stroke-miterlimit="4" stroke-opacity=".843" stroke-width="1" d="m 30.015439,15.449727 a 13.924212,13.30818 0 0 1 -27.8484233,0 13.924212,13.30818 0 1 1 27.8484233,0 z" color="#000" display="inline" enable-background="accumulate" overflow="visible" visibility="visible" style="marker:none"/><path id="path5146" fill="url(#radialGradient2922)" fill-opacity="1" fill-rule="nonzero" stroke="url(#linearGradient2924)" stroke-dasharray="none" stroke-dashoffset="0" stroke-linecap="round" stroke-linejoin="round" stroke-miterlimit="4" stroke-opacity="1" stroke-width="1" d="M 14.998337,1.5078215 C 12.735619,1.6016399 7.6810859,2.4886327 3.4622907,7.9440711 l 3.845349,-2.0595996 c 0,0 0.2786352,2.8028353 3.2786663,4.5746875 l 0.708353,0.0396 c 1.128148,-1.2283352 2.856202,-2.0199919 4.796567,-2.0199919 2.199806,0 4.112976,1.0152236 5.20134,2.5348929 l 0.08095,0 c 0,0 2.428112,-1.2047842 5.990651,-0.831762 0,0 0.0565,-2.7440474 -2.381031,-6.1012402 0,0 -2.937852,-2.5332347 -8.733047,-2.5332347 0,0 -0.497518,-0.07088 -1.251756,-0.039603 z" color="#000" display="inline" enable-background="accumulate" overflow="visible" visibility="visible" style="marker:none"/><path id="path5767" fill="url(#radialGradient2917)" fill-opacity="1" fill-rule="nonzero" stroke="url(#linearGradient2919)" stroke-dasharray="none" stroke-dashoffset="0" stroke-linecap="round" stroke-linejoin="round" stroke-miterlimit="4" stroke-opacity="1" stroke-width=".985" d="m 6.3301003,8.4194418 c 0,0 -3.4457884,0.84432 -4.6892907,4.4755892 0,0 -2.4583419,13.130024 12.6673104,16.612108 0,0 -4.571838,-4.072329 -4.571838,-6.056661 0,0 4.088318,-0.838452 4.73585,-3.76273 l -0.505967,-0.77235 C 11.620513,18.154784 9.9386684,16.183676 9.9386684,13.86542 c 0,-0.309622 -0.149333,-1.077672 0.080953,-1.661788 C 9.9736994,12.180672 7.52694,10.951043 6.3301,8.4194418 z" color="#000" display="inline" enable-background="accumulate" overflow="visible" visibility="visible" style="marker:none"/><path id="path5934" fill="url(#radialGradient2912)" fill-opacity="1" fill-rule="nonzero" stroke="url(#linearGradient2914)" stroke-dasharray="none" stroke-dashoffset="0" stroke-linecap="butt" stroke-linejoin="round" stroke-miterlimit="4" stroke-opacity="1" stroke-width=".992" d="m 28.917475,8.4763253 0,4.2214747 c 0,0 -0.855015,-1.426972 -7.073217,-0.41824 0.202356,0.53082 0.232973,0.720797 0.232973,1.310101 0,2.91862 -2.685087,5.296235 -6.039133,5.390802 l -0.431366,0.554934 c 0,0 -0.39346,2.806886 -4.375292,4.399847 0,0 1.848114,3.763596 6.1213,5.450261 0,0 6.20401,-0.106611 10.977089,-6.292204 0,0 4.47236,-5.996393 0.587646,-14.6169757 z" color="#000" display="inline" enable-background="accumulate" overflow="visible" visibility="visible" style="marker:none"/><path id="path6114" fill="url(#radialGradient2909)" fill-opacity="1" fill-rule="nonzero" stroke="none" stroke-width="1.023" d="m 25.999999,13.999739 a 10,8.9961832 0 1 1 -19.9999982,0 10,8.9961832 0 1 1 19.9999982,0 z" color="#000" display="inline" enable-background="accumulate" opacity=".8" overflow="visible" visibility="visible" style="marker:none"/><path id="path6267" fill="url(#radialGradient2904)" fill-opacity="1" fill-rule="nonzero" stroke="url(#linearGradient2906)" stroke-opacity="1" stroke-width=".992" d="m 20.503863,13.500259 a 4.5038644,4.0013348 0 1 1 -9.007727,0 4.5038644,4.0013348 0 1 1 9.007727,0 z" color="#000" display="inline" enable-background="accumulate" overflow="visible" visibility="visible" style="marker:none"/><path id="path2893" fill="none" stroke="url(#linearGradient2896)" stroke-dasharray="none" stroke-dashoffset="0" stroke-linecap="round" stroke-linejoin="round" stroke-miterlimit="4" stroke-opacity="1" stroke-width="1" d="m 15.03125,2.4375 c -1.463634,0.060679 -4.246658,0.6222159 -7.1875,2.71875 0.2132528,0.1413532 0.3753962,0.3390671 0.40625,0.625 0,0 0.2148245,2.1918231 2.6875,3.75 l 0.09375,0 c 1.297214,-1.2048524 3.058856,-2 5.0625,-2 2.233071,0 4.19148,0.9396576 5.5,2.40625 0.608805,-0.2501251 2.213474,-0.7429254 4.75,-0.6875 -0.311574,-1.4623442 -1.123114,-3.0999905 -2.0625,-4.4375 -0.0074,-0.0058 -0.02245,-0.024384 -0.03125,-0.03125 -0.02262,-0.017656 -0.0611,-0.037951 -0.09375,-0.0625 -0.09069,-0.068191 -0.203593,-0.1383779 -0.375,-0.25 C 23.438437,4.2455058 22.92275,3.9480494 22.25,3.65625 20.904501,3.0726513 18.898707,2.5 16.1875,2.5 l 0,-0.03125 c -0.03855,0.00175 -0.08747,0.00292 -0.125,0 a 0.3283255,0.3283255 0 0 1 -0.03125,0 c 0,0 -0.319705,-0.059447 -1,-0.03125 z" color="#000" display="inline" enable-background="accumulate" opacity=".4" overflow="visible" visibility="visible" style="marker:none"/><path id="path2902" fill="none" stroke="url(#linearGradient2904)" stroke-dasharray="none" stroke-dashoffset="0" stroke-linecap="round" stroke-linejoin="round" stroke-miterlimit="4" stroke-opacity="1" stroke-width="1" d="m 29.15625,12.84375 c 0.0114,-0.01672 -0.01204,0.04751 0,0.03125 0.01266,-0.01578 -0.04451,0.01527 -0.03125,0 0.01384,-0.01474 -0.01441,0.04545 0,0.03125 0.01494,-0.01363 -0.04671,0.01304 -0.03125,0 0.01595,-0.01243 -0.01641,0.04306 0,0.03125 0.01685,-0.01117 -0.04852,0.01051 -0.03125,0 0.01802,-0.0092 -0.0496,0.0085 -0.03125,0 0.01835,-0.0085 -0.01866,0.039 0,0.03125 0.01894,-0.007 -0.05045,0.0063 -0.03125,0 0.01962,-0.0048 -0.05104,0.0041 -0.03125,0 0.02004,-0.0026 -0.05137,0.0018 -0.03125,0 0.0202,-2.78e-4 -0.05145,-4.88e-4 -0.03125,0 0.0201,0.002 -0.05126,-0.0028 -0.03125,0 0.01974,0.0043 -0.05082,-0.005 -0.03125,0 0.01913,0.0065 -0.05012,-0.0072 -0.03125,0 0.01887,0.0072 -0.01858,-0.0392 0,-0.03125 0.01826,0.0087 -0.04917,-0.0093 -0.03125,0 0.01673,0.01134 -0.04754,-0.04323 -0.03125,-0.03125 0.0148,0.01379 -0.0455,-0.01435 -0.03125,0 A 0.37814923,0.37814923 0 0 1 28.125,13.3125 c 0.01079,0.0071 -0.235658,-0.09012 -0.65625,-0.1875 -0.407734,-0.09441 -0.988664,-0.195135 -1.875,-0.1875 -0.62519,0.0054 -1.577607,0.122123 -2.5625,0.25 0.02864,0.135436 0.0625,0.222064 0.0625,0.40625 0,3.349912 -2.910045,5.92529 -6.46875,6.28125 L 16.53125,20 16.5,20.03125 c -0.06858,0.298873 -0.212442,0.890618 -0.71875,1.65625 -0.57093,0.863353 -1.644662,1.778373 -3.09375,2.5625 0.518773,0.869866 1.936855,2.888015 4.90625,4.125 0.582558,-0.02474 5.662672,-0.375606 9.90625,-5.875 0,0 2.739538,-3.721289 1.6875,-9.59375 a 0.37814923,0.37814923 0 0 1 0,-0.0625 c -0.0034,0.0067 -0.03593,0.009 -0.03125,0 z" color="#000" display="inline" enable-background="accumulate" opacity=".4" overflow="visible" visibility="visible" style="marker:none"/><path id="path2898" fill="none" stroke="url(#linearGradient2900)" stroke-dasharray="none" stroke-dashoffset="0" stroke-linecap="round" stroke-linejoin="round" stroke-miterlimit="4" stroke-opacity="1" stroke-width="1" d="m 5.9375,9.875 c -0.7198216,0.258828 -2.6993155,1.11317 -3.3125,3.28125 -1.602e-4,9.99e-4 2.139e-4,0.0299 0,0.03125 -0.026373,0.16659 -0.4705939,2.964149 0.625,6.28125 0.8866654,2.684533 2.7756009,5.785062 7.3125,7.8125 C 10.172204,26.82469 9.8603344,26.339981 9.46875,25.6875 a 0.37580528,0.37580528 0 0 1 -0.03125,0 C 9.0494039,24.972699 8.75,24.221863 8.75,23.4375 c -0.00723,-0.487204 0.3530852,-0.874417 0.8125,-0.96875 0,0 0.848703,-0.153698 1.8125,-0.65625 0.856662,-0.44669 1.641494,-1.128165 1.96875,-2.03125 l -0.0625,-0.125 C 10.794341,18.691486 8.96875,16.515675 8.96875,13.875 8.96875,13.721646 8.9885963,13.565973 9,13.40625 8.6543215,13.181856 8.2348951,12.843644 7.6875,12.25 7.1177848,11.63215 6.51247,10.81738 5.9375,9.875 z" color="#000" display="inline" enable-background="accumulate" opacity=".4" overflow="visible" visibility="visible" style="marker:none"/></g></svg>