<svg xmlns="http://www.w3.org/2000/svg" xmlns:svg="http://www.w3.org/2000/svg" xmlns:xlink="http://www.w3.org/1999/xlink" id="svg3335" width="32" height="32" version="1.0"><defs id="defs3337"><radialGradient id="radialGradient2477" cx="4.993" cy="43.5" r="2.5" fx="4.993" fy="43.5" gradientTransform="matrix(2.4045408,0,0,0.8,27.985756,10.199998)" gradientUnits="userSpaceOnUse" xlink:href="#linearGradient3688"/><radialGradient id="radialGradient2475" cx="4.993" cy="43.5" r="2.5" fx="4.993" fy="43.5" gradientTransform="matrix(2.4045408,0,0,0.8,-52.014245,-79.800002)" gradientUnits="userSpaceOnUse" xlink:href="#linearGradient3688"/><radialGradient id="radialGradient2481" cx="4.993" cy="43.5" r="2.5" fx="4.993" fy="43.5" gradientTransform="matrix(2.4045408,0,0,0.8,27.985756,10.199998)" gradientUnits="userSpaceOnUse" xlink:href="#linearGradient3688"/><radialGradient id="radialGradient2479" cx="4.993" cy="43.5" r="2.5" fx="4.993" fy="43.5" gradientTransform="matrix(2.4045408,0,0,0.8,-52.014245,-79.800002)" gradientUnits="userSpaceOnUse" xlink:href="#linearGradient3688"/><linearGradient id="linearGradient2515" x1="24" x2="24" y1="44" y2="3.899" gradientTransform="matrix(0.6756099,0,0,0.6756099,-0.2146341,-0.2363017)" gradientUnits="userSpaceOnUse" xlink:href="#linearGradient2490-113-765"/><radialGradient id="radialGradient2513" cx="12.011" cy="10.291" r="20" fx="12.011" fy="10.291" gradientTransform="matrix(4.0715862e-8,1.391907,-2.0078368,0,33.647817,-7.9788781)" gradientUnits="userSpaceOnUse" xlink:href="#linearGradient3839"/><linearGradient id="linearGradient2490-113-765"><stop id="stop3686" offset="0" stop-color="#861318" stop-opacity="1"/><stop id="stop3688" offset="1" stop-color="#f67e2a" stop-opacity="1"/></linearGradient><linearGradient id="linearGradient3313" x1="24" x2="24" y1="44" y2="3.899" gradientTransform="matrix(0.6489838,0,0,0.6524917,-0.2702072,0.8359665)" gradientUnits="userSpaceOnUse" xlink:href="#linearGradient2490-113-765"/><linearGradient id="linearGradient3839"><stop id="stop3841" offset="0" stop-color="#ffed8c" stop-opacity="1"/><stop id="stop3843" offset=".262" stop-color="#fb9858" stop-opacity="1"/><stop id="stop3845" offset=".661" stop-color="#dc572a" stop-opacity="1"/><stop id="stop3847" offset="1" stop-color="#9f3110" stop-opacity="1"/></linearGradient><radialGradient id="radialGradient3311" cx="12.011" cy="10.291" r="20" fx="12.011" fy="10.291" gradientTransform="matrix(3.9111234e-8,1.3442784,-1.9287071,0,32.257711,-6.6416729)" gradientUnits="userSpaceOnUse" xlink:href="#linearGradient3839"/><linearGradient id="linearGradient2529" x1="30.15" x2="30.15" y1="5.07" y2="44.02" gradientTransform="matrix(0.6756099,0,0,0.6756099,-0.2146341,-0.2363017)" gradientUnits="userSpaceOnUse" xlink:href="#linearGradient3308-4-6"/><linearGradient id="linearGradient3303" x1="15.8" x2="15.8" y1="20.445" y2="44.109" gradientTransform="matrix(0.6756099,0,0,0.6756099,-0.2146341,-0.2363017)" gradientUnits="userSpaceOnUse" xlink:href="#linearGradient3308-4-6"/><linearGradient id="linearGradient3308-4-6"><stop id="stop3310-1-4" offset="0" stop-color="#fff" stop-opacity="1"/><stop id="stop3312-5-3" offset="1" stop-color="#fff" stop-opacity="0"/></linearGradient><linearGradient id="linearGradient2504" x1="9.65" x2="9.65" y1="36.845" y2="42.995" gradientTransform="matrix(0.5155195,0,0,0.5214778,0.8160355,6.0918257)" gradientUnits="userSpaceOnUse" xlink:href="#linearGradient3308-4-6"/><linearGradient id="linearGradient8265-821-176-38-919-66-249-7-7"><stop id="stop2687-1-9" offset="0" stop-color="#fff" stop-opacity="1"/><stop id="stop2689-5-4" offset="1" stop-color="#fff" stop-opacity="0"/></linearGradient><linearGradient id="linearGradient2525" x1="16.626" x2="20.055" y1="15.298" y2="24.628" gradientTransform="matrix(0.6632926,0,0,0.7051607,2.4279432,2.6212682)" gradientUnits="userSpaceOnUse" xlink:href="#linearGradient8265-821-176-38-919-66-249-7-7"/><linearGradient id="linearGradient3688"><stop id="stop3690" offset="0" stop-color="#000" stop-opacity="1"/><stop id="stop3692" offset="1" stop-color="#000" stop-opacity="0"/></linearGradient><radialGradient id="radialGradient2498" cx="-8.312" cy="44.75" r="2.5" fx="-8.312" fy="44.75" gradientTransform="matrix(1.189465,0,0,0.5276528,14.886444,6.2385874)" gradientUnits="userSpaceOnUse" xlink:href="#linearGradient3688"/></defs><g id="layer1"><g id="g3619" transform="matrix(0.659566,0,0,0.659566,-9.925244,0.1705815)"><rect id="rect3621" width="6" height="4" x="-40" y="-47" fill="url(#radialGradient2475)" fill-opacity="1" stroke="none" opacity=".3" transform="scale(-1,-1)"/><rect id="rect3623" width="6" height="4" x="40" y="43" fill="url(#radialGradient2477)" fill-opacity="1" stroke="none" opacity=".3"/></g><g id="g3615" transform="matrix(0.659566,0,0,0.659566,0.574756,0.1705815)"><rect id="rect3611" width="6" height="4" x="-40" y="-47" fill="url(#radialGradient2479)" fill-opacity="1" stroke="none" opacity=".3" transform="scale(-1,-1)"/><rect id="rect2801" width="6" height="4" x="40" y="43" fill="url(#radialGradient2481)" fill-opacity="1" stroke="none" opacity=".3"/></g><path marker-start="none" style="text-align:start;line-height:125%;marker:none" id="path3309" fill="url(#radialGradient2513)" fill-opacity="1" fill-rule="nonzero" stroke="url(#linearGradient2515)" stroke-dasharray="none" stroke-dashoffset="0" stroke-linecap="round" stroke-linejoin="round" stroke-miterlimit="4" stroke-opacity="1" stroke-width=".976" marker-end="none" marker-mid="none" d="M 2.487805,2.4881362 L 2.487805,7.2406047 C 14.668335,7.4675792 24.507721,17.320264 24.731607,29.512528 L 29.512196,29.512528 C 29.286186,14.681975 17.304447,2.713879 2.487805,2.4881362 z" display="inline" enable-background="accumulate" font-family="Bitstream Vera Serif" font-size="13.59" font-stretch="normal" font-style="normal" font-variant="normal" font-weight="bold" overflow="visible" text-anchor="start" visibility="visible" writing-mode="lr-tb"/><path marker-start="none" style="text-align:start;line-height:125%;marker:none" id="path3307" fill="url(#radialGradient2513)" fill-opacity="1" fill-rule="nonzero" stroke="url(#linearGradient2515)" stroke-dasharray="none" stroke-dashoffset="0" stroke-linecap="round" stroke-linejoin="round" stroke-miterlimit="4" stroke-opacity="1" stroke-width=".976" marker-end="none" marker-mid="none" d="M 2.487805,13.427249 L 2.487805,17.70166 C 8.9170026,17.925369 14.074712,23.077776 14.298674,29.512528 L 18.573083,29.512528 C 18.347316,20.705145 11.287062,13.652749 2.487805,13.427249 z" display="inline" enable-background="accumulate" font-family="Bitstream Vera Serif" font-size="13.59" font-stretch="normal" font-style="normal" font-variant="normal" font-weight="bold" overflow="visible" text-anchor="start" visibility="visible" writing-mode="lr-tb"/><path marker-start="none" style="text-align:start;line-height:125%;marker:none" id="path8636" fill="url(#radialGradient3311)" fill-opacity="1" fill-rule="nonzero" stroke="url(#linearGradient3313)" stroke-dasharray="none" stroke-dashoffset="0" stroke-linecap="round" stroke-linejoin="round" stroke-miterlimit="4" stroke-opacity="1" stroke-width=".976" marker-end="none" marker-mid="none" d="M 5.027013,24.488137 C 4.3027815,24.488159 3.7457698,24.743807 3.2441644,25.248585 C 2.7418815,25.745069 2.4878052,26.285095 2.4878049,27.013912 C 2.4878049,27.731339 2.7436503,28.284543 3.2441644,28.779238 C 3.7431779,29.272478 4.2972314,29.512545 5.027013,29.512527 C 5.7341619,29.512544 6.2644298,29.27379 6.7558358,28.779238 C 7.2590306,28.272853 7.5121869,27.719876 7.5121949,27.013912 C 7.5121869,26.285091 7.2581179,25.745066 6.7558358,25.248585 C 6.2618454,24.742433 5.728471,24.488158 5.027013,24.488137 z" display="inline" enable-background="accumulate" font-family="Bitstream Vera Serif" font-size="13.59" font-stretch="normal" font-style="normal" font-variant="normal" font-weight="bold" overflow="visible" text-anchor="start" visibility="visible" writing-mode="lr-tb"/><path d="M 3.5,3.59375 C 3.5,4.5107901 3.5,5.4266317 3.5,6.34375 C 11.382761,6.7539592 18.841682,11.436522 22.65625,18.34375 C 24.410178,21.451603 25.414787,24.939273 25.625,28.5 C 26.554174,28.5 27.477433,28.5 28.40625,28.5 C 28.049212,20.801514 24.072264,13.364917 17.875,8.78125 C 13.727358,5.6603712 8.6827779,3.8549681 3.5,3.59375 z" style="text-align:start;line-height:125%;marker:none" id="path2527" fill="none" fill-opacity="1" fill-rule="nonzero" stroke="url(#linearGradient2529)" stroke-dasharray="none" stroke-dashoffset="0" stroke-linecap="round" stroke-linejoin="round" stroke-miterlimit="4" stroke-opacity="1" stroke-width=".976" marker-end="none" marker-mid="none" marker-start="none" display="inline" enable-background="accumulate" font-family="Bitstream Vera Serif" font-size="13.59" font-stretch="normal" font-style="normal" font-variant="normal" font-weight="bold" opacity=".4" overflow="visible" text-anchor="start" visibility="visible" writing-mode="lr-tb"/><path d="M 3.46875,14.53125 C 3.46875,15.311283 3.46875,16.095485 3.46875,16.875 C 8.8358606,17.368129 13.573274,21.463958 14.8125,26.71875 C 14.817789,26.741179 14.838589,26.758778 14.84375,26.78125 C 15.021505,27.294244 15.014072,27.894762 15.09375,28.25 C 15.13528,28.435161 15.168106,28.527772 15.21875,28.5625 C 15.269394,28.597228 15.376628,28.611535 15.65625,28.53125 C 15.687326,28.526587 15.718924,28.526587 15.75,28.53125 C 16.333148,28.53125 16.9167,28.53125 17.5,28.53125 C 17.058118,23.007403 13.366628,17.870091 8.25,15.71875 C 6.7324448,15.061221 5.1108656,14.680596 3.46875,14.53125 z" style="text-align:start;line-height:125%;marker:none" id="path3301" fill="none" fill-opacity="1" fill-rule="nonzero" stroke="url(#linearGradient3303)" stroke-dasharray="none" stroke-dashoffset="0" stroke-linecap="round" stroke-linejoin="round" stroke-miterlimit="4" stroke-opacity="1" stroke-width=".976" marker-end="none" marker-mid="none" marker-start="none" display="inline" enable-background="accumulate" font-family="Bitstream Vera Serif" font-size="13.59" font-stretch="normal" font-style="normal" font-variant="normal" font-weight="bold" opacity=".4" overflow="visible" text-anchor="start" transform="translate(0,-8.0700379e-2)" visibility="visible" writing-mode="lr-tb"/><path d="M 5.0312129,25.489444 C 3.9209431,25.438523 3.0259758,26.886373 3.7480935,27.823433 C 4.292223,28.71885 5.7258072,28.76134 6.2622503,27.835005 C 6.9407276,26.887668 6.1403187,25.49426 5.0312129,25.489444 z" style="text-align:start;line-height:125%;marker:none" id="path3219" fill="none" fill-opacity="1" fill-rule="nonzero" stroke="url(#linearGradient2504)" stroke-dasharray="none" stroke-dashoffset="0" stroke-linecap="round" stroke-linejoin="round" stroke-miterlimit="4" stroke-opacity="1" stroke-width=".976" marker-end="none" marker-mid="none" marker-start="none" display="inline" enable-background="accumulate" font-family="Bitstream Vera Serif" font-size="13.59" font-stretch="normal" font-style="normal" font-variant="normal" font-weight="bold" opacity=".4" overflow="visible" text-anchor="start" visibility="visible" writing-mode="lr-tb"/><path id="path2523" fill="url(#linearGradient2525)" fill-opacity="1" fill-rule="evenodd" stroke="none" stroke-dasharray="none" stroke-dashoffset="0" stroke-linecap="butt" stroke-linejoin="miter" stroke-miterlimit="4" stroke-opacity="1" stroke-width="1" marker-end="none" marker-mid="none" marker-start="none" d="M 2.46875,2 C 2.2070352,2.0114141 1.9946366,2.2435228 2,2.5 L 2,7.25 C 1.9974613,7.3758943 2.0745498,7.4807994 2.15625,7.5625 C 2.2379502,7.6441992 2.3401979,7.753222 2.5,7.75 C 9.784314,7.8857372 16.175639,11.519843 20.125,17.0625 C 20.239402,17.217431 20.441328,17.290534 20.625,17.25 L 25.78125,16.40625 C 25.953737,16.365061 26.040883,16.215344 26.09375,16.09375 C 26.146163,15.973207 26.170744,15.823182 26.09375,15.6875 C 21.289246,7.6154503 12.52976,2.152811 2.5,2 C 2.4854824,1.999537 2.4832674,1.999537 2.46875,2 z M 2.46875,12.9375 C 2.2070357,12.948915 1.9946366,13.181023 2,13.4375 L 2,17.71875 C 1.9946365,17.975227 2.2070342,18.207336 2.46875,18.21875 C 4.2037895,18.279122 5.8500438,18.677664 7.3125,19.40625 C 7.4003883,19.446105 7.5082135,19.495653 7.625,19.46875 L 13.53125,18.4375 C 13.691322,18.401196 13.854036,18.263448 13.90625,18.09375 C 13.955187,17.934711 13.91021,17.763215 13.78125,17.625 C 10.832749,14.821406 6.8739639,13.049591 2.5,12.9375 C 2.4854824,12.937037 2.4832674,12.937037 2.46875,12.9375 z" display="inline" enable-background="accumulate" opacity=".2" overflow="visible" visibility="visible" style="marker:none"/><path id="path3629" fill="url(#radialGradient2498)" fill-opacity="1" fill-rule="nonzero" stroke="none" stroke-dasharray="none" stroke-dashoffset="0" stroke-linecap="butt" stroke-linejoin="miter" stroke-miterlimit="4" stroke-opacity="1" stroke-width="1" marker-end="none" marker-mid="none" marker-start="none" d="M 7.9680469,29.851052 C 7.9680469,30.579588 6.6392067,31.170184 4.9999999,31.170184 C 3.3607928,31.170184 2.0319529,30.579588 2.0319529,29.851052 C 2.0319529,29.122515 3.3607928,28.53192 4.9999999,28.53192 C 6.6392067,28.53192 7.9680469,29.122515 7.9680469,29.851052 z" display="inline" enable-background="accumulate" opacity=".3" overflow="visible" visibility="visible" style="marker:none"/></g></svg>