<svg xmlns="http://www.w3.org/2000/svg" xmlns:svg="http://www.w3.org/2000/svg" xmlns:xlink="http://www.w3.org/1999/xlink" id="svg3048" width="32" height="32" version="1.1"><defs id="defs3050"><linearGradient id="linearGradient2982" x1="22.885" x2="22.885" y1="17.629" y2="30.89" gradientTransform="matrix(0.7230483,0,0,0.6788783,188.43512,45.607685)" gradientUnits="userSpaceOnUse" xlink:href="#linearGradient3202"/><linearGradient id="linearGradient3202"><stop id="stop3204" offset="0" stop-color="#fff" stop-opacity="1"/><stop id="stop3206" offset="1" stop-color="#d3eefc" stop-opacity="1"/></linearGradient><linearGradient id="linearGradient3152" x1="8.903" x2="45.547" y1="-.266" y2="35.481" gradientTransform="matrix(0.65673613,0,0,0.61333559,-0.91722278,2.2008202)" gradientUnits="userSpaceOnUse" xlink:href="#linearGradient3921"/><linearGradient id="linearGradient3921"><stop id="stop3923" offset="0" stop-color="#cdcdcd" stop-opacity="1"/><stop id="stop3652" offset="1" stop-color="#cdcdcd" stop-opacity=".122"/></linearGradient><radialGradient id="radialGradient2926-8" cx="39.651" cy="18.619" r="20.714" fx="39.651" fy="18.619" gradientTransform="matrix(0.03178107,1.8508697,-2.9784553,2.1054162e-7,51.797465,-75.223824)" gradientUnits="userSpaceOnUse" xlink:href="#linearGradient3242-2-8"/><linearGradient id="linearGradient3242-2-8"><stop id="stop3244-8" offset="0" stop-color="#f8b17e" stop-opacity="1"/><stop id="stop3246-9-6" offset=".312" stop-color="#e35d4f" stop-opacity="1"/><stop id="stop3248-3-8" offset=".571" stop-color="#c6262e" stop-opacity="1"/><stop id="stop3250-9-3" offset="1" stop-color="#690b54" stop-opacity="1"/></linearGradient><linearGradient id="linearGradient2928-8" x1="24.009" x2="24.009" y1="38.246" y2="1" gradientTransform="matrix(0.69262419,0,0,0.63455034,-0.37411578,0.37068525)" gradientUnits="userSpaceOnUse" xlink:href="#linearGradient2490-3"/><linearGradient id="linearGradient2490-3"><stop id="stop2492-3" offset="0" stop-color="#791235" stop-opacity="1"/><stop id="stop2494-3" offset="1" stop-color="#dd3b27" stop-opacity="1"/></linearGradient><linearGradient id="linearGradient3168" x1="64.67" x2="64.67" y1="42.353" y2="34.452" gradientTransform="matrix(0.89542836,0,0,0.76855914,-41.907111,-2.5144991)" gradientUnits="userSpaceOnUse" xlink:href="#linearGradient2346-4"/><linearGradient id="linearGradient2346-4"><stop id="stop2348-0" offset="0" stop-color="#eee" stop-opacity="1"/><stop id="stop2350-3" offset="1" stop-color="#d9d9da" stop-opacity="1"/></linearGradient><linearGradient id="linearGradient3004" x1="302.857" x2="302.857" y1="366.648" y2="609.505" gradientTransform="matrix(2.774389,0,0,1.969706,-1892.179,-872.8854)" gradientUnits="userSpaceOnUse" xlink:href="#linearGradient5048"/><linearGradient id="linearGradient5048"><stop id="stop5050" offset="0" stop-color="#000" stop-opacity="0"/><stop id="stop5056" offset=".5" stop-color="#000" stop-opacity="1"/><stop id="stop5052" offset="1" stop-color="#000" stop-opacity="0"/></linearGradient><radialGradient id="radialGradient3006" cx="605.714" cy="486.648" r="117.143" fx="605.714" fy="486.648" gradientTransform="matrix(2.774389,0,0,1.969706,-1891.633,-872.8854)" gradientUnits="userSpaceOnUse" xlink:href="#linearGradient5060"/><linearGradient id="linearGradient5060"><stop id="stop5062" offset="0" stop-color="#000" stop-opacity="1"/><stop id="stop5064" offset="1" stop-color="#000" stop-opacity="0"/></linearGradient><radialGradient id="radialGradient3046" cx="605.714" cy="486.648" r="117.143" fx="605.714" fy="486.648" gradientTransform="matrix(-2.774389,0,0,1.969706,112.7623,-872.8854)" gradientUnits="userSpaceOnUse" xlink:href="#linearGradient5060"/></defs><metadata id="metadata3053"/><g id="layer1"><g id="g8875" transform="matrix(0.0142336,0,0,0.00970873,28.659868,28.820132)"><rect id="rect8877" width="1339.633" height="478.357" x="-1559.252" y="-150.697" fill="url(#linearGradient3004)" fill-opacity="1" fill-rule="nonzero" stroke="none" stroke-width="1" display="inline" opacity=".402" overflow="visible" visibility="visible" style="marker:none"/><path id="path8879" fill="url(#radialGradient3006)" fill-opacity="1" fill-rule="nonzero" stroke="none" stroke-width="1" d="m -219.61876,-150.68038 c 0,0 0,478.33079 0,478.33079 142.874166,0.90045 345.40022,-107.16966 345.40014,-239.196175 0,-132.026537 -159.436816,-239.134595 -345.40014,-239.134615 z" display="inline" opacity=".402" overflow="visible" visibility="visible" style="marker:none"/><path id="path8881" fill="url(#radialGradient3046)" fill-opacity="1" fill-rule="nonzero" stroke="none" stroke-width="1" d="m -1559.2523,-150.68038 c 0,0 0,478.33079 0,478.33079 -142.8742,0.90045 -345.4002,-107.16966 -345.4002,-239.196175 0,-132.026537 159.4368,-239.134595 345.4002,-239.134615 z" display="inline" opacity=".402" overflow="visible" visibility="visible" style="marker:none"/></g><path id="rect8840" fill="url(#linearGradient3168)" fill-opacity="1" fill-rule="nonzero" stroke="#7a1235" stroke-dasharray="none" stroke-dashoffset=".06" stroke-linecap="round" stroke-linejoin="round" stroke-miterlimit="4" stroke-opacity="1" stroke-width="1" d="m 28.825816,29.500118 -25.4092668,0 c -0.2358341,0 -0.4256935,-0.226998 -0.4256935,-0.50897 L 2.4998732,25.061263 c 0,-0.281971 0.1898593,-0.508971 0.4256936,-0.508971 l 26.3912312,0" color="#000" display="inline" enable-background="accumulate" overflow="visible" visibility="visible" style="marker:none"/><path id="path9017" fill="none" stroke="#666" stroke-dasharray="none" stroke-linecap="round" stroke-linejoin="miter" stroke-miterlimit="4" stroke-opacity="1" stroke-width="1" d="M 28.968155,28.744635 C 28.665834,28.365921 28.55039,26.4941 29.138855,25.54502"/><path id="rect8064" fill="url(#radialGradient2926-8)" fill-opacity="1" fill-rule="nonzero" stroke="url(#linearGradient2928-8)" stroke-dasharray="none" stroke-dashoffset=".06" stroke-linecap="round" stroke-linejoin="round" stroke-miterlimit="4" stroke-opacity="1" stroke-width="1" d="m 4.2531899,1.4998729 c -0.2421591,0 -0.4306586,0.2576539 -0.4306584,0.5840696 L 2.4998724,23.916058 c 0,0.326415 0.207224,0.58407 0.4493827,0.584069 l 26.1014889,0 c 0.242159,1e-6 0.449383,-0.257654 0.449383,-0.584069 L 28.02096,2.0839425 c 1e-6,-0.3264157 -0.188498,-0.5840696 -0.430658,-0.5840696 l -23.3371121,0 z" color="#000" display="inline" enable-background="accumulate" overflow="visible" visibility="visible" style="marker:none"/><path id="path3267" fill="none" stroke="#bebebe" stroke-dasharray="none" stroke-linecap="square" stroke-linejoin="miter" stroke-miterlimit="4" stroke-opacity="1" stroke-width="1" d="M 3.905798,28.526033 3.6079518,26.103505"/><path id="path2864" fill="none" stroke="url(#linearGradient3152)" stroke-dasharray="none" stroke-dashoffset=".06" stroke-linecap="round" stroke-linejoin="round" stroke-miterlimit="4" stroke-opacity="1" stroke-width="1" d="m 5.2520654,2.5000002 c -0.2419862,0 -0.4303514,0.2559714 -0.4303511,0.5802557 L 3.4999995,22.919744 c 0,0.324285 0.2070761,0.580256 0.4490621,0.580256 l 24.1018764,0 C 28.292922,23.5 28.5,23.244029 28.5,22.919744 L 27.021889,3.0802559 c 10e-7,-0.3242843 -0.188364,-0.5802557 -0.430352,-0.5802557 l -21.3394716,0 z" display="inline" enable-background="accumulate" opacity=".2" overflow="visible" visibility="visible" style="marker:none"/><g id="g2978" transform="translate(-189.87969,-49.331816)"><path font-stretch="normal" style="text-align:start;line-height:125%;-inkscape-font-specification:URW Gothic L Book" id="path2438" fill="#a1ceef" fill-opacity="1" stroke="none" d="m 197.87972,66.331789 c 0.85231,0 2.62542,0 3.47773,0 0.0139,-1.921743 -0.0581,-3.844699 0,-5.765543 0,-1.024604 0.14568,-1.940744 1.31932,-1.940744 1.34647,0 1.45347,0.692727 1.45347,2.012195 0,1.205883 0,4.488209 0,5.694092 0.85231,0 2.63483,0 3.48713,0 0.01,-1.88979 -0.0409,-3.780282 0,-5.669561 0.006,-0.9087 -0.0788,-2.036726 1.38583,-2.036726 1.31767,0 1.39571,0.890368 1.39571,2.051976 0,1.192621 0,4.461688 0,5.654311 0.85231,0 2.62608,0 3.47838,0 -0.01,-2.108481 0.0206,-4.217701 -0.0169,-6.32568 -0.0535,-1.274525 -0.53062,-2.682733 -1.80006,-3.328305 -0.72623,-0.244865 -0.93388,-0.337587 -1.8397,-0.337587 -1.86546,0 -9.10478,-0.0084 -12.34091,-0.0084 0,3.333333 0,6.666668 0,10 z" font-family="URW Gothic L" font-size="26.706" font-style="normal" font-variant="normal" font-weight="bold" text-anchor="start" writing-mode="lr-tb"/><path font-stretch="normal" style="text-align:start;line-height:125%;-inkscape-font-specification:URW Gothic L Book" id="text3190" fill="url(#linearGradient2982)" fill-opacity="1" stroke="none" d="m 197.87972,67.331788 c 0.85231,0 2.62542,0 3.47773,0 0.0139,-1.921743 -0.0581,-3.844699 0,-5.765543 0,-1.024604 0.14568,-1.940743 1.31932,-1.940743 1.34647,0 1.45347,0.692726 1.45347,2.012195 0,1.205882 0,4.488208 0,5.694091 0.85231,0 2.63483,10e-7 3.48713,10e-7 0.01,-1.88979 -0.0409,-3.780282 0,-5.669561 0.006,-0.908701 -0.0788,-2.036726 1.38583,-2.036726 1.31767,0 1.39571,0.890367 1.39571,2.051976 0,1.192621 0,4.461688 0,5.654311 0.85231,0 2.62608,0 3.47838,0 -0.01,-2.108481 0.0206,-4.217702 -0.0169,-6.325681 -0.0535,-1.274524 -0.53062,-2.682733 -1.80006,-3.328304 -0.72623,-0.244865 -0.93388,-0.337587 -1.8397,-0.337587 -1.86546,0 -9.10478,-0.0084 -12.34091,-0.0084 0,3.333332 0,6.666666 0,9.999999 z" font-family="URW Gothic L" font-size="26.706" font-style="normal" font-variant="normal" font-weight="bold" text-anchor="start" writing-mode="lr-tb"/></g></g></svg>