<svg xmlns="http://www.w3.org/2000/svg" xmlns:svg="http://www.w3.org/2000/svg" xmlns:xlink="http://www.w3.org/1999/xlink" id="svg2510" width="32" height="32" version="1.0"><defs id="defs2512"><linearGradient id="linearGradient23419"><stop id="stop23421" offset="0" stop-color="#000" stop-opacity="1"/><stop id="stop23423" offset="1" stop-color="#000" stop-opacity="0"/></linearGradient><linearGradient id="linearGradient3858"><stop id="stop3860" offset="0" stop-color="#a0a0a0" stop-opacity="1"/><stop id="stop3862" offset="1" stop-color="#4a4a4a" stop-opacity="1"/></linearGradient><linearGradient id="linearGradient2793"><stop id="stop2795" offset="0" stop-color="#868688" stop-opacity="1"/><stop id="stop2797" offset="1" stop-color="#d9d9da" stop-opacity="1"/></linearGradient><linearGradient id="linearGradient2509"><stop id="stop2511" offset="0" stop-color="#b3b3b3" stop-opacity="1"/><stop id="stop2513" offset="1" stop-color="#dadada" stop-opacity="1"/></linearGradient><linearGradient id="linearGradient3844"><stop id="stop3846" offset="0" stop-color="#a5a6a8" stop-opacity="1"/><stop id="stop3848" offset="1" stop-color="#e8e8e8" stop-opacity="1"/></linearGradient><linearGradient id="linearGradient2581" x1="102.308" x2="102.308" y1="-2.393" y2="-24.582" gradientTransform="matrix(0.4581255,0,0,0.4388939,-31.619713,14.933095)" gradientUnits="userSpaceOnUse" spreadMethod="reflect" xlink:href="#linearGradient3844"/><linearGradient id="linearGradient2583" x1="109.956" x2="109.956" y1="-24.911" y2="-2.376" gradientTransform="matrix(0.4581255,0,0,0.4388939,-31.619713,14.933095)" gradientUnits="userSpaceOnUse" xlink:href="#linearGradient2509"/><linearGradient id="linearGradient2586" x1="103.95" x2="89.424" y1="-7.666" y2="-7.666" gradientTransform="matrix(0.4578345,0,0,0.432286,-31.591968,18.911518)" gradientUnits="userSpaceOnUse" spreadMethod="reflect" xlink:href="#linearGradient2793"/><linearGradient id="linearGradient2588" x1="89.018" x2="89.018" y1="22.537" y2="27.546" gradientTransform="translate(-78.157465,-9.5461107)" gradientUnits="userSpaceOnUse" xlink:href="#linearGradient3858"/><linearGradient id="linearGradient2592" x1="103.95" x2="89.424" y1="-7.666" y2="-7.666" gradientTransform="matrix(0.4578345,0,0,0.432286,-31.591968,24.911518)" gradientUnits="userSpaceOnUse" spreadMethod="reflect" xlink:href="#linearGradient2793"/><linearGradient id="linearGradient2594" x1="89.018" x2="89.018" y1="22.537" y2="27.546" gradientTransform="translate(-78.157465,-3.546111)" gradientUnits="userSpaceOnUse" xlink:href="#linearGradient3858"/><linearGradient id="linearGradient2598" x1="103.95" x2="89.424" y1="-7.666" y2="-7.666" gradientTransform="matrix(0.4578345,0,0,0.432286,-31.591968,30.911518)" gradientUnits="userSpaceOnUse" spreadMethod="reflect" xlink:href="#linearGradient2793"/><linearGradient id="linearGradient2600" x1="89.018" x2="89.018" y1="22.537" y2="27.546" gradientTransform="translate(-78.157465,2.453889)" gradientUnits="userSpaceOnUse" xlink:href="#linearGradient3858"/><radialGradient id="radialGradient2603" cx="23.335" cy="41.636" r="22.627" fx="23.335" fy="41.636" gradientTransform="matrix(0.5745243,0,0,0.2209368,2.59375,17.801069)" gradientUnits="userSpaceOnUse" xlink:href="#linearGradient23419"/></defs><g id="layer1"><path id="path23417" fill="url(#radialGradient2603)" fill-opacity="1" fill-rule="evenodd" stroke="none" stroke-dasharray="none" stroke-dashoffset="0" stroke-linecap="butt" stroke-linejoin="miter" stroke-miterlimit="4" stroke-opacity="1" stroke-width="2" marker-end="none" marker-mid="none" marker-start="none" d="M 29,27 C 29.00111,29.761299 23.180486,32 16,32 C 8.819514,32 2.998891,29.761299 3,27 C 2.998891,24.238701 8.819514,22 16,22 C 23.180486,22 29.00111,24.238701 29,27 z" display="inline" opacity=".3" overflow="visible" visibility="visible" style="marker:none"/><path id="path4834" fill="url(#linearGradient2598)" fill-opacity="1" stroke="url(#linearGradient2600)" stroke-dasharray="none" stroke-miterlimit="4" stroke-opacity="1" stroke-width="1" d="M 27.490168,25.06775 C 27.490168,27.514351 22.341439,29.5 15.997481,29.5 C 9.653513,29.5 4.504786,27.514351 4.504786,25.06775 C 4.619246,19.598328 3.100066,20.72777 15.997481,20.6355 C 29.190268,20.540298 27.328308,19.508798 27.490168,25.06775 z"/><path id="path4838" fill="#868688" fill-opacity="1" stroke="#d8d8d8" stroke-dasharray="none" stroke-miterlimit="4" stroke-opacity="1" stroke-width="1" d="M 27.499999,21 C 27.499999,23.485282 22.351273,25.5 16,25.5 C 9.648725,25.5 4.499999,23.485282 4.499999,21 C 4.499999,18.514719 9.648725,16.5 16,16.5 C 22.351273,16.5 27.499999,18.514719 27.499999,21 L 27.499999,21 z"/><path id="path3866" fill="url(#linearGradient2592)" fill-opacity="1" stroke="url(#linearGradient2594)" stroke-dasharray="none" stroke-miterlimit="4" stroke-opacity="1" stroke-width="1" d="M 27.490168,19.06775 C 27.490168,21.514351 22.341439,23.5 15.997481,23.5 C 9.653513,23.5 4.504786,21.514351 4.504786,19.06775 C 4.619246,13.598328 3.100066,14.72777 15.997481,14.6355 C 29.190268,14.540298 27.328308,13.508798 27.490168,19.06775 z"/><path id="path3868" fill="#868688" fill-opacity="1" stroke="#d8d8d8" stroke-dasharray="none" stroke-miterlimit="4" stroke-opacity="1" stroke-width="1" d="M 27.499999,15 C 27.499999,17.485282 22.351273,19.5 16,19.5 C 9.648725,19.5 4.499999,17.485282 4.499999,15 C 4.499999,12.514719 9.648725,10.5 16,10.5 C 22.351273,10.5 27.499999,12.514719 27.499999,15 L 27.499999,15 z"/><path id="path3878" fill="url(#linearGradient2586)" fill-opacity="1" stroke="url(#linearGradient2588)" stroke-dasharray="none" stroke-miterlimit="4" stroke-opacity="1" stroke-width="1" d="M 27.490168,13.06775 C 27.490168,15.514351 22.341439,17.5 15.997481,17.5 C 9.653513,17.5 4.504786,15.514351 4.504786,13.06775 C 4.619246,7.598328 3.100066,8.72777 15.997481,8.6355 C 29.190268,8.540298 27.328308,7.508798 27.490168,13.06775 z"/><path id="path3880" fill="url(#linearGradient2581)" fill-opacity="1" stroke="url(#linearGradient2583)" stroke-dasharray="none" stroke-miterlimit="4" stroke-opacity="1" stroke-width="1" d="M 27.499999,9 C 27.499999,11.485282 22.351273,13.5 16,13.5 C 9.648725,13.5 4.499999,11.485282 4.499999,9 C 4.499999,6.514719 9.648725,4.5 16,4.5 C 22.351273,4.5 27.499999,6.514719 27.499999,9 L 27.499999,9 z"/></g></svg>