<svg xmlns="http://www.w3.org/2000/svg" xmlns:svg="http://www.w3.org/2000/svg" xmlns:xlink="http://www.w3.org/1999/xlink" id="svg3979" width="32" height="32" version="1.0"><defs id="defs3981"><linearGradient id="linearGradient4588"><stop id="stop4591" offset="0" stop-color="#000" stop-opacity=".326"/><stop id="stop4590" offset=".5" stop-color="#000" stop-opacity=".192"/><stop id="stop4589" offset="1" stop-color="#000" stop-opacity="0"/></linearGradient><radialGradient id="radialGradient3436" cx="6.703" cy="73.616" r="7.228" fx="6.703" fy="73.616" gradientTransform="matrix(2.2134622,0,0,0.4851991,1.1638,-7.2254955)" gradientUnits="userSpaceOnUse" xlink:href="#linearGradient4588"/><linearGradient id="linearGradient3332-412-419"><stop id="stop2554" offset="0" stop-color="#611358" stop-opacity="1"/><stop id="stop2556" offset="1" stop-color="#a1619b" stop-opacity="1"/></linearGradient><linearGradient id="linearGradient3456" x1="18.139" x2="18.139" y1="45.218" y2="3" gradientTransform="matrix(0.6444819,0,0,0.6585761,0.5324327,0.1941734)" gradientUnits="userSpaceOnUse" xlink:href="#linearGradient3332-412-419"/><linearGradient id="linearGradient3242-593-605"><stop id="stop2544" offset="0" stop-color="#d196bf" stop-opacity="1"/><stop id="stop2546" offset=".262" stop-color="#bb70b6" stop-opacity="1"/><stop id="stop2548" offset=".661" stop-color="#954a9a" stop-opacity="1"/><stop id="stop2550" offset="1" stop-color="#6c3b77" stop-opacity="1"/></linearGradient><radialGradient id="radialGradient3454" cx="20.249" cy="4.912" r="23" fx="20.249" fy="4.912" gradientTransform="matrix(0,1.0196732,-1.2489421,0,21.39771,-18.484713)" gradientUnits="userSpaceOnUse" xlink:href="#linearGradient3242-593-605"/><linearGradient id="linearGradient4593"><stop id="stop12409" offset="0" stop-color="#fff" stop-opacity=".702"/><stop id="stop12411" offset="1" stop-color="#fff" stop-opacity="0"/></linearGradient><linearGradient id="linearGradient3977" x1="27.198" x2="27.198" y1="2.742" y2="45.27" gradientTransform="matrix(0.6444819,0,0,0.6585761,0.5324327,0.1941734)" gradientUnits="userSpaceOnUse" xlink:href="#linearGradient4593"/></defs><g id="layer1"><path id="path10689" fill="url(#radialGradient3436)" fill-opacity="1" fill-rule="nonzero" stroke="none" stroke-dasharray="none" stroke-dashoffset="0" stroke-linecap="butt" stroke-linejoin="miter" stroke-miterlimit="0" stroke-opacity="1" stroke-width=".72" marker-end="none" marker-mid="none" marker-start="none" d="M 31.999824,28.492779 C 31.999824,30.429763 24.836459,32 16.000001,32 C 7.1635418,32 0.00017645,30.429763 0.00017645,28.492779 C 0.00017645,26.555794 7.1635418,24.985558 16.000001,24.985558 C 24.836459,24.985558 31.999824,26.555794 31.999824,28.492779 z" display="inline" opacity=".4" overflow="visible" visibility="visible" style="marker:none"/><path id="path6145" fill="url(#radialGradient3454)" fill-opacity="1" fill-rule="evenodd" stroke="url(#linearGradient3456)" stroke-dasharray="none" stroke-dashoffset="0" stroke-linecap="butt" stroke-linejoin="round" stroke-miterlimit="4" stroke-opacity="1" stroke-width=".995" marker-end="none" marker-mid="none" marker-start="none" d="M 13.945831,2.6857928 C 6.5226988,3.8041288 1.0300328,9.0304885 1.5291015,14.68925 C 1.8522698,18.353528 4.6045245,21.369545 8.5403568,22.960836 L 6.8974861,29.502375 L 14.165427,24.131082 L 14.215672,24.126399 C 15.112587,24.170206 16.013667,24.184729 16.948729,24.097553 C 24.927915,23.353663 30.994489,17.9281 30.470872,11.991041 C 29.947258,6.0539801 23.030432,1.8388455 15.051245,2.5827365 C 14.67722,2.6176051 14.310904,2.6307934 13.945831,2.6857928 z" display="inline" overflow="visible" visibility="visible" style="marker:none"/><path id="path3393" fill="#fff" fill-opacity="1" stroke="none" stroke-dasharray="none" stroke-linecap="round" stroke-linejoin="round" stroke-miterlimit="4" stroke-opacity="1" stroke-width="1.001" d="M 15.45622,5.4422036 C 14.760052,5.3402883 14.045542,5.8789338 14.026275,6.4506475 C 14.026518,6.4575051 14.026518,6.4643706 14.026275,6.4712273 C 14.022608,6.5178366 14.035574,6.5818284 14.046415,6.6770334 C 14.04749,6.6864686 14.045312,6.6875255 14.046415,6.6976142 C 14.675284,9.7307248 14.889576,12.774637 15.516639,15.753036 C 15.896823,15.711506 16.487535,15.631866 16.886163,15.588392 C 16.79978,12.649232 16.538093,9.7293565 16.503502,6.7593556 C 16.503259,6.752498 16.503259,6.7456335 16.503502,6.7387748 C 16.56036,6.1604596 16.179454,5.5073679 15.476358,5.4422036 C 15.469648,5.4424508 15.46293,5.4424508 15.45622,5.4422036 L 15.45622,5.4422036 z M 16.765323,17.93457 C 16.368384,17.892794 15.975863,18.000603 15.71804,18.305018 C 15.718283,18.311876 15.718283,18.318741 15.71804,18.325599 C 15.441378,18.619433 15.282413,19.041977 15.335378,19.436946 C 15.335622,19.443804 15.335622,19.45067 15.335378,19.457527 C 15.399515,20.315759 16.426243,20.882947 17.168125,20.527713 C 17.174836,20.527464 17.181554,20.527464 17.188264,20.527713 C 17.910871,20.248547 18.214865,19.18645 17.752186,18.531405 C 17.745133,18.524899 17.73841,18.518031 17.732045,18.510824 C 17.51989,18.169712 17.158925,17.975995 16.765323,17.93457 z" font-family="Georgia" font-size="62.458" font-stretch="normal" font-style="normal" font-variant="normal" font-weight="normal" text-anchor="start" writing-mode="lr-tb" style="text-align:start;line-height:125%"/><path id="path3975" fill="none" fill-opacity="1" fill-rule="evenodd" stroke="url(#linearGradient3977)" stroke-dasharray="none" stroke-dashoffset="0" stroke-linecap="butt" stroke-linejoin="round" stroke-miterlimit="4" stroke-opacity="1" stroke-width=".995" marker-end="none" marker-mid="none" marker-start="none" d="M 15.15625,3.5625 C 14.726438,3.6025694 14.364179,3.6155091 14.09375,3.65625 C 10.570796,4.1870026 7.5060676,5.6958928 5.4375,7.6875 C 3.3689324,9.6791072 2.2806155,12.106227 2.5,14.59375 C 2.7843994,17.818443 5.2261081,20.574587 8.90625,22.0625 C 9.3654954,22.245172 9.619123,22.739078 9.5,23.21875 L 8.53125,27.0625 L 13.5625,23.34375 C 13.731086,23.207718 13.939705,23.130858 14.15625,23.125 L 14.21875,23.125 C 14.239578,23.124341 14.260422,23.124341 14.28125,23.125 C 15.155339,23.167693 15.974597,23.206031 16.84375,23.125 C 20.635899,22.771462 23.946139,21.279159 26.21875,19.25 C 28.491361,17.220841 29.730121,14.702987 29.5,12.09375 C 29.269778,9.4833501 27.613767,7.2015406 25.03125,5.625 C 22.448733,4.0484594 18.94798,3.2090011 15.15625,3.5625 z" display="inline" opacity=".4" overflow="visible" visibility="visible" style="marker:none"/></g></svg>