<svg xmlns="http://www.w3.org/2000/svg" xmlns:svg="http://www.w3.org/2000/svg" xmlns:xlink="http://www.w3.org/1999/xlink" id="svg3360" width="32" height="32" version="1.0"><defs id="defs3362"><linearGradient id="linearGradient10691-1"><stop id="stop10693-3" offset="0" stop-color="#000" stop-opacity="1"/><stop id="stop10695-1" offset="1" stop-color="#000" stop-opacity="0"/></linearGradient><radialGradient id="radialGradient2570" cx="6.703" cy="73.616" r="7.228" fx="6.703" fy="73.616" gradientTransform="matrix(1.2450862,0,0,0.2766858,7.6545456,8.631578)" gradientUnits="userSpaceOnUse" xlink:href="#linearGradient10691-1"/><linearGradient id="linearGradient3962"><stop id="stop3964" offset="0" stop-color="#464646" stop-opacity="1"/><stop id="stop3968" offset=".233" stop-color="#969696" stop-opacity="1"/><stop id="stop3970" offset=".344" stop-color="#aaa" stop-opacity="1"/><stop id="stop3972" offset="1" stop-color="#646464" stop-opacity="1"/></linearGradient><linearGradient id="linearGradient2567" x1="98.584" x2="98.584" y1="36.076" y2="44.323" gradientTransform="matrix(0.6843014,0,0,0.6062554,-52.461444,3.1287517)" gradientUnits="userSpaceOnUse" xlink:href="#linearGradient3962"/><linearGradient id="linearGradient3178"><stop id="stop3180" offset="0" stop-color="#787878" stop-opacity="1"/><stop id="stop3184" offset=".24" stop-color="#c8c8c8" stop-opacity="1"/><stop id="stop3186" offset=".335" stop-color="#e6e6e6" stop-opacity="1"/><stop id="stop3188" offset="1" stop-color="#8c8c8c" stop-opacity="1"/></linearGradient><linearGradient id="linearGradient2565" x1="397.073" x2="397.073" y1="87.076" y2="95.366" gradientTransform="matrix(0.681844,0,0,0.6063426,-254.2496,-27.797984)" gradientUnits="userSpaceOnUse" xlink:href="#linearGradient3178"/><linearGradient id="linearGradient3342-3"><stop id="stop3344-0" offset="0" stop-color="#fff" stop-opacity="0"/><stop id="stop3346-3" offset="1" stop-color="#fff" stop-opacity="1"/></linearGradient><linearGradient id="linearGradient2562" x1="15.574" x2="23.578" y1="46.971" y2="46.971" gradientTransform="matrix(0.7274459,0,0,0.6589186,-1.151775,-2.450068)" gradientUnits="userSpaceOnUse" spreadMethod="reflect" xlink:href="#linearGradient3342-3"/><linearGradient id="linearGradient6712-2"><stop id="stop6714-7" offset="0" stop-color="#3c3c3c" stop-opacity="1"/><stop id="stop6716-3" offset="1" stop-color="#1e1e1e" stop-opacity="1"/></linearGradient><radialGradient id="radialGradient2558" cx="12.244" cy="4.863" r="21" fx="12.244" fy="4.863" gradientTransform="matrix(0.944509,1.356539e-2,-8.7941e-3,0.7583043,-3.5503801,4.4065437)" gradientUnits="userSpaceOnUse" xlink:href="#linearGradient6712-2"/><linearGradient id="linearGradient3298-628-126"><stop id="stop2579" offset="0" stop-color="#2f537b" stop-opacity="1"/><stop id="stop2581" offset="1" stop-color="#76a7dd" stop-opacity="1"/></linearGradient><linearGradient id="linearGradient2535" x1="31.847" x2="31.847" y1="32" y2=".999" gradientTransform="matrix(0.6829262,0,0,0.6333325,-2.438993,3.0500253)" gradientUnits="userSpaceOnUse" xlink:href="#linearGradient3298-628-126"/><linearGradient id="linearGradient8589-4-3"><stop id="stop8591-7-2" offset="0" stop-color="#fefefe" stop-opacity="1"/><stop id="stop8593-2-4" offset="1" stop-color="#cbcbcb" stop-opacity="1"/></linearGradient><linearGradient id="linearGradient3352" x1="32.892" x2="36.358" y1="8.059" y2="5.457" gradientTransform="matrix(0.9511534,0,0,1.0169682,-9.4369174,2.4608484)" gradientUnits="userSpaceOnUse" xlink:href="#linearGradient8589-4-3"/><linearGradient id="linearGradient6592-2-7-1"><stop id="stop6594-0-2-4" offset="0" stop-color="#fff" stop-opacity=".275"/><stop id="stop6596-2-5-3" offset="1" stop-color="#fff" stop-opacity="0"/></linearGradient><linearGradient id="linearGradient2555" x1="12.938" x2="15.25" y1="8.438" y2="19.813" gradientTransform="matrix(0.7142858,0,0,0.866666,-1.1428573,0.4000017)" gradientUnits="userSpaceOnUse" xlink:href="#linearGradient6592-2-7-1"/></defs><g id="layer1"><path id="path2589" fill="url(#radialGradient2570)" fill-opacity="1" fill-rule="nonzero" stroke="none" stroke-width=".8" d="M 25,29 C 25,30.10457 20.970562,31 15.999999,31 C 11.029436,31 7,30.10457 7,29 C 7,27.895431 11.029436,27 15.999999,27 C 20.970562,27 25,27.895431 25,29 L 25,29 z" display="inline" opacity=".3" overflow="visible" visibility="visible" style="marker:none"/><path id="rect1789-8" fill="url(#linearGradient2565)" fill-opacity="1" fill-rule="nonzero" stroke="url(#linearGradient2567)" stroke-dasharray="none" stroke-dashoffset=".5" stroke-linecap="round" stroke-linejoin="round" stroke-miterlimit="4" stroke-opacity="1" stroke-width=".998" d="M 11.798578,24.5 C 11.798578,24.5 11.895578,26.398544 11.411765,27 C 10.927949,27.601454 9.9652422,27.5 9.9652422,27.5 C 9.3474772,27.56319 9.3423672,29.5 9.9652422,29.5 L 22.034709,29.5 C 22.657585,29.5 22.652603,27.562381 22.034709,27.5 C 22.034709,27.5 21.072045,27.60147 20.588235,27 C 20.104425,26.398546 20.201372,24.5 20.201372,24.5 L 11.798578,24.5 z" display="inline" enable-background="new" overflow="visible" visibility="visible" style="marker:none"/><path id="path3340-3" fill="none" stroke="url(#linearGradient2562)" stroke-linecap="square" stroke-linejoin="miter" stroke-opacity="1" stroke-width="1" d="M 10.541117,28.5 L 21.458883,28.5"/><rect id="rect2722" width="31" height="22" x=".5" y="2.5" fill="#1a1a1a" fill-opacity="1" stroke="#000" stroke-dasharray="none" stroke-dashoffset=".5" stroke-linecap="round" stroke-linejoin="round" stroke-miterlimit="4" stroke-opacity="1" stroke-width="1" rx=".689" ry=".667"/><rect id="rect2716" width="28" height="19" x="2" y="4" fill="url(#radialGradient2558)" fill-opacity="1" fill-rule="evenodd" stroke="none" display="inline" enable-background="new"/><path id="path4322" fill="url(#linearGradient2535)" fill-opacity="1" stroke="none" stroke-dasharray="none" stroke-dashoffset="0" stroke-linecap="butt" stroke-linejoin="round" stroke-miterlimit="4" stroke-opacity="1" stroke-width="1" d="M 2,4 C 7.477266,4 13.0521,4.0614142 18.529366,4.0614142 C 19.490202,4.3688202 28.652081,11.083168 30,13.508082 C 30,20.929921 30,15.578161 30,23 C 22.03251,23 9.967488,23 2,23 C 2,13.499996 2,13.500004 2,4 L 2,4 z" display="inline"/><path id="path4891" fill="#000" fill-opacity="1" fill-rule="evenodd" stroke="none" stroke-dasharray="none" stroke-linecap="butt" stroke-linejoin="round" stroke-miterlimit="4" stroke-opacity=".444" stroke-width="1.5" d="M -25.861914,-6.1251024 C -22.223331,-6.475303 -23.130149,7.6297815 -23.130149,7.6297815 C -23.130149,7.6297815 -6.925463,7.046472 -6.493875,9.849271 C -2.643128,6.580367 -23.147382,-6.9118023 -25.861914,-6.1251024 z" display="inline" opacity=".3" transform="matrix(0.6624671,0,0,0.6624671,34.322963,7.9455208)"/><path id="path3357" fill="#000" fill-opacity="1" fill-rule="evenodd" stroke="none" stroke-dasharray="none" stroke-linecap="butt" stroke-linejoin="round" stroke-miterlimit="4" stroke-opacity=".444" stroke-width="1.5" d="M 18,4 C 19,5 18,13 18,14 C 21,13 26.391491,13.77206 30,14 C 26,9 21.303772,5.0425762 18,4 z" display="inline" opacity=".1"/><path id="path4893" fill="url(#linearGradient3352)" fill-opacity="1" fill-rule="evenodd" stroke="none" d="M 17.927416,4.0349208 C 20.291399,4.4692051 20.04293,12.092281 20.04293,12.092281 C 20.04293,12.092281 29.762166,11.589269 29.997436,13.833219 C 30.608507,12.512868 22.936509,5.8385592 19.163072,4.3357439 C 18.678202,4.1426388 18.257702,4.0349208 17.927416,4.0349208 z" display="inline"/><path id="rect6588" fill="url(#linearGradient2555)" fill-opacity="1" stroke="none" d="M 0.99999999,3 L 31,3 L 31,9.9333362 L 0.99999999,16 L 0.99999999,3 z"/></g></svg>