<svg xmlns="http://www.w3.org/2000/svg" xmlns:svg="http://www.w3.org/2000/svg" xmlns:xlink="http://www.w3.org/1999/xlink" id="svg3294" width="32" height="32" version="1.1"><defs id="defs3296"><linearGradient id="linearGradient3164" x1="182" x2="182" y1="33" y2="24.52" gradientTransform="matrix(1.0666675,0,0,1.0666676,-186.98792,-14.145548)" gradientUnits="userSpaceOnUse" xlink:href="#linearGradient3985-6-635-120-628-965"/><linearGradient id="linearGradient3985-6-635-120-628-965"><stop id="stop7116" offset="0" stop-color="#fff" stop-opacity="1"/><stop id="stop7118" offset="1" stop-color="#fff" stop-opacity="0"/></linearGradient><linearGradient id="linearGradient3167" x1="188" x2="188" y1="17" y2="36.026" gradientTransform="matrix(1.0698189,0,0,1.0698191,-187.28961,-14.512006)" gradientUnits="userSpaceOnUse" xlink:href="#linearGradient3985-746-156-539-972"/><linearGradient id="linearGradient3985-746-156-539-972"><stop id="stop7110" offset="0" stop-color="#fff" stop-opacity="1"/><stop id="stop7112" offset="1" stop-color="#fff" stop-opacity="0"/></linearGradient><linearGradient id="linearGradient3170" x1="30.143" x2="45.873" y1="26.714" y2="26.714" gradientTransform="matrix(0,1.4666667,1.4666666,0,-26.633281,-42.233337)" gradientUnits="userSpaceOnUse" xlink:href="#linearGradient3937-859-978-64-227"/><linearGradient id="linearGradient3937-859-978-64-227"><stop id="stop7104" offset="0" stop-color="#fff" stop-opacity=".302"/><stop id="stop7106" offset="1" stop-color="#feffff" stop-opacity=".4"/></linearGradient><linearGradient id="linearGradient3174" x1="384" x2="384" y1="9" y2="32" gradientTransform="matrix(0.50000003,0,0,1.1363637,-165.25001,-7.2954544)" gradientUnits="userSpaceOnUse" xlink:href="#linearGradient5093"/><linearGradient id="linearGradient5093"><stop id="stop5095" offset="0" stop-color="#fff" stop-opacity="1"/><stop id="stop5097" offset="1" stop-color="#fff" stop-opacity="0"/></linearGradient><linearGradient id="linearGradient3177" x1="385" x2="385" y1="8" y2="33" gradientTransform="matrix(0.62499999,0,0,1.1250002,-213.31249,-7.0625016)" gradientUnits="userSpaceOnUse" xlink:href="#linearGradient5047"/><linearGradient id="linearGradient5047"><stop id="stop5049" offset="0" stop-color="#e7d198" stop-opacity="1"/><stop id="stop5051" offset="1" stop-color="#ba964a" stop-opacity="1"/></linearGradient><linearGradient id="linearGradient3198" x1="12.938" x2="15.25" y1="8.438" y2="19.813" gradientTransform="matrix(0.7142858,0,0,0.86666598,-1.1428573,0.4000018)" gradientUnits="userSpaceOnUse" xlink:href="#linearGradient6592-2-7-1"/><linearGradient id="linearGradient6592-2-7-1"><stop id="stop6594-0-2-4" offset="0" stop-color="#fff" stop-opacity=".275"/><stop id="stop6596-2-5-3" offset="1" stop-color="#fff" stop-opacity="0"/></linearGradient><radialGradient id="radialGradient3201" cx="12.244" cy="4.863" r="21" fx="12.244" fy="4.863" gradientTransform="matrix(0.94450895,0.01356539,-0.0087941,0.75830433,-3.5503801,4.4065438)" gradientUnits="userSpaceOnUse" xlink:href="#linearGradient6712-2"/><linearGradient id="linearGradient6712-2"><stop id="stop6714-7" offset="0" stop-color="#3c3c3c" stop-opacity="1"/><stop id="stop6716-3" offset="1" stop-color="#1e1e1e" stop-opacity="1"/></linearGradient><linearGradient id="linearGradient3205" x1="15.574" x2="23.578" y1="46.971" y2="46.971" gradientTransform="matrix(0.72744588,0,0,0.65891862,-1.151775,-2.4500679)" gradientUnits="userSpaceOnUse" spreadMethod="reflect" xlink:href="#linearGradient3342-3"/><linearGradient id="linearGradient3342-3"><stop id="stop3344-0" offset="0" stop-color="#fff" stop-opacity="0"/><stop id="stop3346-3" offset="1" stop-color="#fff" stop-opacity="1"/></linearGradient><linearGradient id="linearGradient3208" x1="397.073" x2="397.073" y1="87.076" y2="95.366" gradientTransform="matrix(0.68184398,0,0,0.6063426,-254.2496,-27.797984)" gradientUnits="userSpaceOnUse" xlink:href="#linearGradient3178"/><linearGradient id="linearGradient3178"><stop id="stop3180" offset="0" stop-color="#787878" stop-opacity="1"/><stop id="stop3184" offset=".24" stop-color="#c8c8c8" stop-opacity="1"/><stop id="stop3186" offset=".335" stop-color="#e6e6e6" stop-opacity="1"/><stop id="stop3188" offset="1" stop-color="#8c8c8c" stop-opacity="1"/></linearGradient><linearGradient id="linearGradient3210" x1="98.584" x2="98.584" y1="36.076" y2="44.323" gradientTransform="matrix(0.68430138,0,0,0.60625543,-52.461444,3.1287518)" gradientUnits="userSpaceOnUse" xlink:href="#linearGradient3962"/><linearGradient id="linearGradient3962"><stop id="stop3964" offset="0" stop-color="#464646" stop-opacity="1"/><stop id="stop3968" offset=".233" stop-color="#969696" stop-opacity="1"/><stop id="stop3970" offset=".344" stop-color="#aaa" stop-opacity="1"/><stop id="stop3972" offset="1" stop-color="#646464" stop-opacity="1"/></linearGradient><linearGradient id="linearGradient10691-1"><stop id="stop10693-3" offset="0" stop-color="#000" stop-opacity="1"/><stop id="stop10695-1" offset="1" stop-color="#000" stop-opacity="0"/></linearGradient><radialGradient id="radialGradient3292" cx="6.703" cy="73.616" r="7.228" fx="6.703" fy="73.616" gradientTransform="matrix(1.2450862,0,0,0.27668578,7.6545456,8.6315781)" gradientUnits="userSpaceOnUse" xlink:href="#linearGradient10691-1"/></defs><metadata id="metadata3299"/><g id="layer1"><path id="path2589" fill="url(#radialGradient3292)" fill-opacity="1" fill-rule="nonzero" stroke="none" stroke-width=".8" d="m 25,29 c 0,1.10457 -4.029438,2 -9.000001,2 C 11.029436,31 7,30.10457 7,29 7,27.895431 11.029436,27 15.999999,27 20.970562,27 25,27.895431 25,29 l 0,0 z" display="inline" opacity=".3" overflow="visible" visibility="visible" style="marker:none"/><path id="rect1789-8" fill="url(#linearGradient3208)" fill-opacity="1" fill-rule="nonzero" stroke="url(#linearGradient3210)" stroke-dasharray="none" stroke-dashoffset=".5" stroke-linecap="round" stroke-linejoin="round" stroke-miterlimit="4" stroke-opacity="1" stroke-width=".998" d="m 11.798578,24.5 c 0,0 0.097,1.898544 -0.386813,2.5 -0.483816,0.601454 -1.4465228,0.5 -1.4465228,0.5 -0.617765,0.06319 -0.622875,2 0,2 l 12.0694668,0 c 0.622876,0 0.617894,-1.937619 0,-2 0,0 -0.962664,0.10147 -1.446474,-0.5 -0.48381,-0.601454 -0.386863,-2.5 -0.386863,-2.5 l -8.402794,0 z" color="#000" display="inline" enable-background="new" overflow="visible" visibility="visible" style="marker:none"/><path id="path3340-3" fill="none" stroke="url(#linearGradient3205)" stroke-linecap="square" stroke-linejoin="miter" stroke-opacity="1" stroke-width="1" d="m 10.541117,28.5 10.917766,0"/><rect id="rect2722" width="31" height="22" x=".5" y="2.5" fill="#1a1a1a" fill-opacity="1" stroke="#000" stroke-dasharray="none" stroke-dashoffset=".5" stroke-linecap="round" stroke-linejoin="round" stroke-miterlimit="4" stroke-opacity="1" stroke-width="1" rx=".689" ry=".667"/><rect id="rect2716" width="28" height="19" x="2" y="4" fill="url(#radialGradient3201)" fill-opacity="1" fill-rule="evenodd" stroke="none" display="inline" enable-background="new"/><path id="rect6588" fill="url(#linearGradient3198)" fill-opacity="1" stroke="none" d="M 0.99999999,3.0000001 31,3.0000001 31,9.9333363 0.99999999,16 l 0,-12.9999999 z"/><rect id="rect5045" width="5" height="27" x="24.5" y="2.5" fill="url(#linearGradient3177)" fill-opacity="1" fill-rule="nonzero" stroke="#956e37" stroke-dasharray="none" stroke-dashoffset="0" stroke-linecap="butt" stroke-linejoin="miter" stroke-miterlimit="4" stroke-opacity="1" stroke-width="1" color="#000" display="inline" enable-background="accumulate" overflow="visible" rx=".5" ry=".5" visibility="visible" style="marker:none"/><rect id="rect5045-1" width="3" height="25" x="25.5" y="3.5" fill="none" stroke="url(#linearGradient3174)" stroke-dasharray="none" stroke-dashoffset="0" stroke-linecap="butt" stroke-linejoin="miter" stroke-miterlimit="4" stroke-opacity="1" stroke-width="1" color="#000" display="inline" enable-background="accumulate" opacity=".4" overflow="visible" visibility="visible" style="marker:none"/><path color="#000" style="marker:none" id="rect5101-0-3" fill="#956e37" fill-opacity="1" stroke="none" stroke-width="1" d="m 27.937499,6.0357125 1.250001,0 0,0.6428574 -1.250001,0 0,-0.6428574 z m -3.124999,8.3571435 1.25,0 0,0.642857 -1.25,0 0,-0.642857 z m 0,-3.857143 1.25,0 0,0.642857 -1.25,0 0,-0.642857 z m 0,2.571428 0.625,0 0,0.642858 -0.625,0 0,-0.642858 z m 0,-1.285713 0.625,0 0,0.642856 -0.625,0 0,-0.642856 z m 0,-2.5714297 0.625,0 0,0.6428574 -0.625,0 0,-0.6428574 z m 0,-1.2857137 0.625,0 0,0.6428573 -0.625,0 0,-0.6428573 z m 0,-2.5714285 0.625,0 0,0.6428574 -0.625,0 0,-0.6428574 z m 0,-1.2857143 0.625,0 0,0.6428572 -0.625,0 0,-0.6428572 z m 3.124999,9.6428572 1.250001,0 0,0.642857 -1.250001,0 0,-0.642857 z m 0,-1.928571 1.250001,0 0,0.642856 -1.250001,0 0,-0.642856 z m 0,-1.9285723 1.250001,0 0,0.6428573 -1.250001,0 0,-0.6428573 z m 0,-1.9285711 1.250001,0 0,0.6428573 -1.250001,0 0,-0.6428573 z M 24.8125,6.6785699 l 1.25,0 0,0.6428573 -1.25,0 0,-0.6428573 z m 3.124999,-2.5714281 1.250001,0 0,0.6428572 -1.250001,0 0,-0.6428572 z m 0,13.5000002 1.250001,0 0,0.642857 -1.250001,0 0,-0.642857 z m -3.124999,8.357144 1.25,0 0,0.642857 -1.25,0 0,-0.642857 z m 0,-3.857143 1.25,0 0,0.642857 -1.25,0 0,-0.642857 z m 0,5.142857 0.625,0 0,0.642858 -0.625,0 0,-0.642858 z m 0,-2.571428 0.625,0 0,0.642857 -0.625,0 0,-0.642857 z m 0,-1.285715 0.625,0 0,0.642857 -0.625,0 0,-0.642857 z m 0,-2.571429 0.625,0 0,0.642856 -0.625,0 0,-0.642856 z m 0,-1.285715 0.625,0 0,0.642857 -0.625,0 0,-0.642857 z m 0,-2.571429 0.625,0 0,0.642858 -0.625,0 0,-0.642858 z m 0,-1.285714 0.625,0 0,0.642857 -0.625,0 0,-0.642857 z m 3.124999,11.57143 1.250001,0 0,0.642858 -1.250001,0 0,-0.642858 z m 0,-1.928571 1.250001,0 0,0.642857 -1.250001,0 0,-0.642857 z m 0,-1.928572 1.250001,0 0,0.642857 -1.250001,0 0,-0.642857 z m 0,-1.928571 1.250001,0 0,0.642857 -1.250001,0 0,-0.642857 z m 0,-1.928573 1.250001,0 0,0.642857 -1.250001,0 0,-0.642857 z m -3.124999,-1.285714 1.25,0 0,0.642857 -1.25,0 0,-0.642857 z m 3.124999,-2.571429 1.250001,0 0,0.642857 -1.250001,0 0,-0.642857 z" display="inline" enable-background="accumulate" opacity=".6" overflow="visible" visibility="visible"/><path id="path3410" fill="url(#linearGradient3170)" fill-opacity="1" fill-rule="evenodd" stroke="#4d4d4d" stroke-linecap="butt" stroke-linejoin="miter" stroke-opacity="1" stroke-width="1" d="M 0.50004106,2.4999989 22.500041,24.499998 l -21.99999994,0 z M 5.5,14.521144 5.5,19.5 l 4.978889,0 z"/><path id="path3981" fill="none" stroke="url(#linearGradient3167)" stroke-linecap="butt" stroke-linejoin="miter" stroke-opacity="1" stroke-width="1" d="m 1.5,4.8729342 c 0,6.3074758 0,12.3195918 0,18.6270658 6.307471,0 12.319598,0 18.62707,0 C 20.12707,23.5 1.5,4.8729342 1.5,4.8729342 z" opacity=".5"/><path id="path3981-5" fill="none" stroke="url(#linearGradient3164)" stroke-linecap="butt" stroke-linejoin="miter" stroke-opacity="1" stroke-width="1" d="m 4.5,12.521141 0,8.000007 7.312223,0" opacity=".15"/><path color="#000" style="marker:none" id="rect4034-50" fill="#000" fill-opacity="1" stroke="none" stroke-width="2" d="m 0.99999999,5.0000001 1.00000001,0 0,0.6799992 -1.00000001,0 0,-0.6799992 z m 0,2.0399997 L 2,7.0399998 2,7.72 l -1.00000001,0 0,-0.6800002 z m 0,2.0400006 1.00000001,0 0,0.6799989 -1.00000001,0 0,-0.6799989 z m 0,2.0399996 L 2,11.12 l 0,0.68 -1.00000001,0 0,-0.68 z m 0,2.039999 1.00000001,0 0,0.680001 -1.00000001,0 0,-0.680001 z m 0,2.040002 1.00000001,0 0,0.68 -1.00000001,0 0,-0.68 z m 0,2.039999 L 2,17.24 l 0,0.68 -1.00000001,0 0,-0.68 z m 0,2.040001 1.00000001,0 0,0.679999 -1.00000001,0 0,-0.679999 z m 0,2.039999 L 2,21.32 2,22 l -1.00000001,0 0,-0.68 z" display="inline" enable-background="accumulate" opacity=".15" overflow="visible" visibility="visible"/><path color="#000" style="marker:none" id="rect5101-0-3-9" fill="#fff" fill-opacity="1" stroke="none" stroke-width="1" d="m 27.937499,6.6785708 1.250001,0 0,0.6428564 -1.250001,0 0,-0.6428564 z m -3.124999,8.3571422 1.25,0 0,0.642857 -1.25,0 0,-0.642857 z m 0,-3.857143 1.25,0 0,0.642858 -1.25,0 0,-0.642858 z m 0,2.571429 0.625,0 0,0.642857 -0.625,0 0,-0.642857 z m 0,-1.285715 0.625,0 0,0.642857 -0.625,0 0,-0.642857 z m 0,-2.5714283 0.625,0 0,0.6428573 -0.625,0 0,-0.6428573 z m 0,-1.2857138 0.625,0 0,0.6428564 -0.625,0 0,-0.6428564 z m 0,-2.5714284 0.625,0 0,0.6428573 -0.625,0 0,-0.6428573 z m 0,-1.2857142 0.625,0 0,0.6428571 -0.625,0 0,-0.6428571 z m 3.124999,9.6428567 1.250001,0 0,0.642857 -1.250001,0 0,-0.642857 z m 0,-1.928572 1.250001,0 0,0.642857 -1.250001,0 0,-0.642857 z m 0,-1.928571 1.250001,0 0,0.642857 -1.250001,0 0,-0.642857 z m 0,-1.9285711 1.250001,0 0,0.6428564 -1.250001,0 0,-0.6428564 z M 24.8125,7.3214272 l 1.25,0 0,0.6428574 -1.25,0 0,-0.6428574 z m 3.124999,-2.5714279 1.250001,0 0,0.6428571 -1.250001,0 0,-0.6428571 z m 0,13.4999997 1.250001,0 0,0.642857 -1.250001,0 0,-0.642857 z m -3.124999,8.357144 1.25,0 0,0.642857 -1.25,0 0,-0.642857 z m 0,-3.857143 1.25,0 0,0.642857 -1.25,0 0,-0.642857 z m 0,5.142858 0.625,0 0,0.642857 -0.625,0 0,-0.642857 z m 0,-2.571429 0.625,0 0,0.642857 -0.625,0 0,-0.642857 z m 0,-1.285715 0.625,0 0,0.642858 -0.625,0 0,-0.642858 z m 0,-2.57143 0.625,0 0,0.642857 -0.625,0 0,-0.642857 z m 0,-1.285714 0.625,0 0,0.642858 -0.625,0 0,-0.642858 z m 0,-2.571428 0.625,0 0,0.642857 -0.625,0 0,-0.642857 z m 0,-1.285715 0.625,0 0,0.642857 -0.625,0 0,-0.642857 z m 3.124999,11.571431 1.250001,0 0,0.642857 -1.250001,0 0,-0.642857 z m 0,-1.928572 1.250001,0 0,0.642857 -1.250001,0 0,-0.642857 z m 0,-1.928572 1.250001,0 0,0.642858 -1.250001,0 0,-0.642858 z m 0,-1.928571 1.250001,0 0,0.642857 -1.250001,0 0,-0.642857 z m 0,-1.928573 1.250001,0 0,0.642858 -1.250001,0 0,-0.642858 z m -3.124999,-1.285714 1.25,0 0,0.642857 -1.25,0 0,-0.642857 z m 3.124999,-2.571429 1.250001,0 0,0.642857 -1.250001,0 0,-0.642857 z" display="inline" enable-background="accumulate" opacity=".1" overflow="visible" visibility="visible"/><path color="#000" style="marker:none" id="rect4034-50-3" fill="#fff" fill-opacity="1" stroke="none" stroke-width="2" d="m 0.99999999,6.0000001 1.00000001,0 0,0.6800003 -1.00000001,0 0,-0.6800003 z m 0,2.0399997 L 2,8.0399998 2,8.72 l -1.00000001,0 0,-0.6800002 z m 0,2.0400002 L 2,10.08 l 0,0.679999 -1.00000001,0 0,-0.679999 z m 0,2.04 L 2,12.12 l 0,0.680001 -1.00000001,0 0,-0.680001 z m 0,2.04 L 2,14.16 l 0,0.68 -1.00000001,0 0,-0.68 z m 0,2.04 L 2,16.2 l 0,0.68 -1.00000001,0 0,-0.68 z m 0,2.04 L 2,18.24 l 0,0.68 -1.00000001,0 0,-0.68 z m 0,2.04 L 2,20.28 l 0,0.68 -1.00000001,0 0,-0.68 z m 0,2.039999 L 2,22.319999 2,23 l -1.00000001,0 0,-0.680001 z" display="inline" enable-background="accumulate" opacity=".15" overflow="visible" visibility="visible"/><path color="#000" style="marker:none" id="rect4034-50-5" fill="#000" fill-opacity="1" stroke="none" stroke-width="2" d="m 19,23 0,1 -0.653839,0 0,-1 L 19,23 z m -1.961518,0 0,1 -0.653839,0 0,-1 0.653839,0 z m -1.961517,0 0,1 -0.65384,0 0,-1 0.65384,0 z m -1.961519,0 0,1 -0.653839,0 0,-1 0.653839,0 z m -1.961519,0 0,1 -0.653839,0 0,-1 0.653839,0 z m -1.9615175,0 0,1 -0.6538393,0 0,-1 0.6538393,0 z m -1.9615178,0 0,1 -0.6538393,0 0,-1 0.6538393,0 z m -1.9615189,0 0,1 -0.6538392,0 0,-1 0.6538392,0 z m -1.9615178,0 0,1 -0.6538393,0 0,-1 0.6538393,0 z" display="inline" enable-background="accumulate" opacity=".15" overflow="visible" visibility="visible"/><path color="#000" style="marker:none" id="rect4034-50-3-7" fill="#fff" fill-opacity="1" stroke="none" stroke-width="2" d="m 18.345985,23 0,1 -0.653839,0 0,-1 0.653839,0 z m -1.961518,0 0,1 -0.65384,0 0,-1 0.65384,0 z m -1.961518,0 0,1 -0.653839,0 0,-1 0.653839,0 z m -1.961518,0 0,1 -0.65384,0 0,-1 0.65384,0 z m -1.961519,0 0,1 -0.6538395,0 0,-1 0.6538395,0 z m -1.9615172,0 0,1 -0.6538393,0 0,-1 0.6538393,0 z m -1.9615188,0 0,1 -0.6538393,0 0,-1 0.6538393,0 z m -1.9615179,0 0,1 -0.6538393,0 0,-1 0.6538393,0 z m -1.9615189,0 0,1 L 2,24 2,23 2.6538392,23 z" display="inline" enable-background="accumulate" opacity=".15" overflow="visible" visibility="visible"/></g></svg>