<svg xmlns="http://www.w3.org/2000/svg" xmlns:svg="http://www.w3.org/2000/svg" xmlns:xlink="http://www.w3.org/1999/xlink" id="svg3333" width="32" height="32" version="1.0"><defs id="defs3335"><linearGradient id="linearGradient5128"><stop id="stop5130" offset="0" stop-color="#fff" stop-opacity="1"/><stop id="stop5132" offset="1" stop-color="#959595" stop-opacity="1"/></linearGradient><linearGradient id="linearGradient3322" x1="86.133" x2="84.639" y1="105.105" y2="20.895" gradientTransform="matrix(0.2014014,0,0,0.2014015,3.1103045,3.311705)" gradientUnits="userSpaceOnUse" xlink:href="#linearGradient5128"/><linearGradient id="linearGradient3397"><stop id="stop3399" offset="0" stop-color="#aaa" stop-opacity="1"/><stop id="stop3401" offset="1" stop-color="#8c8c8c" stop-opacity="1"/></linearGradient><linearGradient id="linearGradient3328" x1="25.923" x2="25.923" y1="19" y2="47.045" gradientTransform="translate(-15,-17)" gradientUnits="userSpaceOnUse" xlink:href="#linearGradient3397"/><linearGradient id="linearGradient3309" x1="63.999" x2="63.999" y1="3.1" y2="122.899" gradientUnits="userSpaceOnUse"><stop id="stop3311" offset="0" stop-color="#f6f6f6" stop-opacity="1"/><stop id="stop3313" offset="1" stop-color="#d2d2d2" stop-opacity="1"/></linearGradient><linearGradient id="linearGradient3326" x1="32.036" x2="32.036" y1="19" y2="47.012" gradientTransform="translate(-15,-17)" gradientUnits="userSpaceOnUse" xlink:href="#linearGradient3309"/><linearGradient id="linearGradient10691"><stop id="stop10693" offset="0" stop-color="#000" stop-opacity="1"/><stop id="stop10695" offset="1" stop-color="#000" stop-opacity="0"/></linearGradient><radialGradient id="radialGradient2538" cx="6.703" cy="73.616" r="7.228" fx="6.703" fy="73.616" gradientTransform="matrix(2.2134617,0,0,0.4842001,1.1638028,-7.1447362)" gradientUnits="userSpaceOnUse" xlink:href="#linearGradient10691"/><linearGradient id="linearGradient5432"><stop id="stop5434" offset="0" stop-color="#ce5c00" stop-opacity="1"/><stop id="stop5436" offset="1" stop-color="#ce5c00" stop-opacity="0"/></linearGradient><linearGradient id="linearGradient2548" x1="22.76" x2="22.76" y1="29.137" y2="42.242" gradientTransform="matrix(0.754477,0,0,0.7959389,6.8278957,-2.1219053)" gradientUnits="userSpaceOnUse" xlink:href="#linearGradient5432"/><linearGradient id="linearGradient2442"><stop id="stop2444" offset="0" stop-color="#fcaf3e" stop-opacity="1"/><stop id="stop2446" offset="1" stop-color="#f57900" stop-opacity="0"/></linearGradient><linearGradient id="linearGradient2546" x1="23.177" x2="49.243" y1="23.891" y2="23.891" gradientTransform="matrix(0,0.4007466,-0.379871,0,33.075486,11.766183)" gradientUnits="userSpaceOnUse" xlink:href="#linearGradient2442"/><linearGradient id="linearGradient4222"><stop id="stop4224" offset="0" stop-color="#fff" stop-opacity="1"/><stop id="stop4226" offset="1" stop-color="#fff" stop-opacity="0"/></linearGradient><linearGradient id="linearGradient3331" x1="22.76" x2="22.76" y1="29.137" y2="42.242" gradientTransform="matrix(0.754477,0,0,0.7959389,6.8278957,-2.1219053)" gradientUnits="userSpaceOnUse" xlink:href="#linearGradient4222"/></defs><g id="layer1"><g id="g3371"><path id="path10689" fill="url(#radialGradient2538)" fill-opacity="1" fill-rule="nonzero" stroke="none" stroke-dashoffset="0" stroke-linecap="butt" stroke-linejoin="miter" stroke-miterlimit="4" stroke-opacity="1" stroke-width=".8" marker-end="none" marker-mid="none" marker-start="none" d="M 31.99982,28.5 C 31.99982,30.432997 24.836456,32 16,32 C 7.1635428,32 0.00017975,30.432997 0.00017975,28.5 C 0.00017975,26.567004 7.1635428,25 16,25 C 24.836456,25 31.99982,26.567004 31.99982,28.5 z" display="inline" opacity=".2" overflow="visible" visibility="visible" style="marker:none"/><path id="rect2576" fill="url(#linearGradient3326)" fill-opacity="1" fill-rule="nonzero" stroke="url(#linearGradient3328)" stroke-dasharray="none" stroke-dashoffset="0" stroke-linecap="butt" stroke-linejoin="round" stroke-miterlimit="4" stroke-opacity="1" stroke-width="1" marker-end="none" marker-mid="none" marker-start="none" d="M 13.875001,2.5 C 13.126262,2.5 12.500001,3.095012 12.500001,3.84375 L 12.500001,5.5937496 C 12.026599,5.7526256 11.56725,5.9371556 11.125001,6.1562496 L 9.9062506,4.9374996 C 9.3768116,4.4080616 8.5294385,4.4080616 8.0000005,4.9374996 L 4.9375005,7.9687496 C 4.4080615,8.4981876 4.4080645,9.3455626 4.9375005,9.8749996 L 6.1562505,11.09375 C 5.9319235,11.543682 5.7556185,12.017682 5.5937505,12.5 L 3.8750005,12.5 C 3.1262615,12.5 2.4999985,13.095012 2.5000005,13.84375 L 2.5000005,18.15625 C 2.4999995,18.904988 3.1262645,19.500002 3.8750005,19.5 L 5.5937505,19.5 C 5.7556185,19.982318 5.9319235,20.456318 6.1562505,20.90625 L 4.9375005,22.125 C 4.4080615,22.654438 4.4080605,23.501812 4.9375005,24.03125 L 8.0000005,27.0625 C 8.5294375,27.591938 9.3768136,27.591936 9.9062506,27.0625 L 11.125001,25.84375 C 11.56725,26.062844 12.026599,26.247374 12.500001,26.40625 L 12.500001,28.15625 C 12.5,28.904988 13.126267,29.500002 13.875001,29.5 L 18.156251,29.5 C 18.90499,29.5 19.500001,28.904986 19.500001,28.15625 L 19.500001,26.40625 C 19.982319,26.244382 20.456319,26.068077 20.906251,25.84375 L 22.125,27.0625 C 22.654439,27.591938 23.501811,27.591938 24.03125,27.0625 L 27.09375,24.03125 C 27.623189,23.501812 27.623184,22.654436 27.09375,22.125 L 25.84375,20.875 C 26.062844,20.432751 26.247374,19.973402 26.40625,19.5 L 28.15625,19.5 C 28.904989,19.5 29.5,18.904986 29.5,18.15625 L 29.5,13.84375 C 29.500001,13.095012 28.904984,12.5 28.15625,12.5 L 26.40625,12.5 C 26.247374,12.026598 26.062844,11.567249 25.84375,11.125 L 27.09375,9.8749996 C 27.623189,9.3455616 27.623188,8.4981876 27.09375,7.9687496 L 24.03125,4.9374996 C 23.501813,4.4080616 22.654436,4.4080616 22.125,4.9374996 L 20.906251,6.1562496 C 20.456319,5.9319226 19.982319,5.7556176 19.500001,5.5937496 L 19.500001,3.84375 C 19.500002,3.095012 18.904985,2.5 18.156251,2.5 L 13.875001,2.5 z M 16.000001,12.5 C 17.932001,12.5 19.500001,14.068 19.500001,16 C 19.500001,17.932 17.932001,19.5 16.000001,19.5 C 14.068,19.5 12.500001,17.932 12.500001,16 C 12.5,14.068 14.068001,12.5 16.000001,12.5 z" display="block" enable-background="accumulate" overflow="visible" visibility="visible" style="marker:none"/><path id="path3315" fill="#000" fill-opacity="1" stroke="none" stroke-dasharray="none" stroke-miterlimit="4" stroke-width="1" d="M 16.000001,7.9999996 C 11.588728,7.9999996 8.0000025,11.588727 8.0000025,16 C 8.0000025,20.411274 11.588728,24 16.000001,24 C 20.411274,24 24,20.411274 24,16 C 24,11.588727 20.411274,7.9999996 16.000001,7.9999996 z M 16.000001,11.692309 C 18.377845,11.692309 20.307694,13.622155 20.307694,16 C 20.307694,18.377847 18.377845,20.307693 16.000001,20.307693 C 13.622155,20.307693 11.69231,18.377847 11.69231,16 C 11.69231,13.622155 13.622155,11.692309 16.000001,11.692309 z" opacity=".05"/><path id="path28" fill="none" stroke="url(#linearGradient3322)" stroke-dasharray="none" stroke-miterlimit="4" stroke-width="1" d="M 16.000001,7.6206906 C 11.379648,7.6206906 7.6206925,11.379648 7.6206925,15.999999 C 7.6206925,20.620351 11.379648,24.379309 16.000001,24.379309 C 20.620354,24.379309 24.37931,20.620351 24.37931,15.999999 C 24.37931,11.379648 20.620354,7.6206906 16.000001,7.6206906 z"/></g><path id="path2426" fill="url(#linearGradient2546)" fill-opacity="1" fill-rule="nonzero" stroke="url(#linearGradient2548)" stroke-dasharray="none" stroke-dashoffset="0" stroke-linecap="round" stroke-linejoin="round" stroke-miterlimit="4" stroke-opacity="1" stroke-width="1" marker-end="none" marker-mid="none" marker-start="none" d="M 31.500001,21.5 L 23.98119,12.5 L 16.5,21.5 L 19.5,21.5 L 19.5,31.5 L 28.5,31.5 L 28.5,21.5 L 31.500001,21.5 z" display="inline" overflow="visible" visibility="visible" style="marker:none"/><path id="path3329" fill="none" fill-opacity="1" fill-rule="nonzero" stroke="url(#linearGradient3331)" stroke-dasharray="none" stroke-dashoffset="0" stroke-linecap="round" stroke-linejoin="miter" stroke-miterlimit="4" stroke-opacity="1" stroke-width="1" marker-end="none" marker-mid="none" marker-start="none" d="M 23.96875,14.09375 L 18.65625,20.5 L 19.5,20.5 C 20.050992,20.503108 20.496892,20.949008 20.5,21.5 L 20.5,30.5 L 27.5,30.5 L 27.5,21.5 C 27.503108,20.949008 27.949008,20.503108 28.5,20.5 L 29.34375,20.5 L 23.96875,14.09375 z" display="inline" opacity=".4" overflow="visible" visibility="visible" style="marker:none"/></g></svg>