<svg xmlns="http://www.w3.org/2000/svg" xmlns:svg="http://www.w3.org/2000/svg" xmlns:xlink="http://www.w3.org/1999/xlink" id="svg3211" width="32" height="32" version="1.1"><defs id="defs3213"><linearGradient id="linearGradient3001" x1="32.817" x2="32.817" y1="19.819" y2="30.185" gradientTransform="matrix(0.64102564,0,0,0.64102564,0.6153853,0.9952315)" gradientUnits="userSpaceOnUse" xlink:href="#linearGradient2238"/><linearGradient id="linearGradient2238"><stop id="stop2240" offset="0" stop-color="#fff" stop-opacity="1"/><stop id="stop2242" offset="1" stop-color="#fff" stop-opacity="0"/></linearGradient><linearGradient id="linearGradient3004" x1="16.626" x2="20.055" y1="15.298" y2="24.628" gradientTransform="matrix(0.60630606,0,0,0.64312588,3.3747472,1.1613442)" gradientUnits="userSpaceOnUse" xlink:href="#linearGradient8265-821-176-38-919-66-249"/><linearGradient id="linearGradient8265-821-176-38-919-66-249"><stop id="stop2687" offset="0" stop-color="#fff" stop-opacity="1"/><stop id="stop2689" offset="1" stop-color="#fff" stop-opacity="0"/></linearGradient><linearGradient id="linearGradient3007" x1="23" x2="23" y1="20" y2="41" gradientTransform="matrix(0.64102564,0,0,0.64102564,0.6153853,0.9952315)" gradientUnits="userSpaceOnUse" xlink:href="#linearGradient2867-449-88-871-390-598-476-591-434-148"/><linearGradient id="linearGradient2867-449-88-871-390-598-476-591-434-148"><stop id="stop4627" offset="0" stop-color="#51cfee" stop-opacity="1"/><stop id="stop4629" offset=".262" stop-color="#49a3d2" stop-opacity="1"/><stop id="stop4631" offset=".705" stop-color="#3470b4" stop-opacity="1"/><stop id="stop4633" offset="1" stop-color="#1b5699" stop-opacity="1"/></linearGradient><linearGradient id="linearGradient3009" x1="35" x2="35" y1="32.036" y2="18" gradientTransform="matrix(0.64102564,0,0,0.64102564,0.6153853,0.9952315)" gradientUnits="userSpaceOnUse" xlink:href="#linearGradient3332-412-419-652-471-761-410-156-661-505"/><linearGradient id="linearGradient3332-412-419-652-471-761-410-156-661-505"><stop id="stop8032" offset="0" stop-color="#205286" stop-opacity="1"/><stop id="stop8034" offset="1" stop-color="#5492be" stop-opacity="1"/></linearGradient><linearGradient id="linearGradient3013" x1="34.542" x2="34.542" y1="41" y2="6.845" gradientTransform="matrix(0.69696961,0,0,0.69696975,-0.7272726,0.2727286)" gradientUnits="userSpaceOnUse" xlink:href="#linearGradient3996-4"/><linearGradient id="linearGradient3996-4"><stop id="stop3998-0" offset="0" stop-color="#fff" stop-opacity="1"/><stop id="stop4000-8" offset="1" stop-color="#fff" stop-opacity="0"/></linearGradient><radialGradient id="radialGradient3017" cx="24" cy="24" r="17" fx="24" fy="24" gradientTransform="matrix(0.57575757,0,0,0.57575757,2.1818183,3.1818183)" gradientUnits="userSpaceOnUse" xlink:href="#linearGradient3301"/><linearGradient id="linearGradient3301"><stop id="stop3303" offset="0" stop-color="#fff" stop-opacity="0"/><stop id="stop3309" offset=".7" stop-color="#fff" stop-opacity="0"/><stop id="stop3305" offset="1" stop-color="#000" stop-opacity="1"/></linearGradient><linearGradient id="linearGradient3019" x1="29.05" x2="29.05" y1="7.028" y2="26.494" gradientTransform="matrix(0.57575757,0,0,-0.57575757,2.1818193,30.81818)" gradientUnits="userSpaceOnUse" xlink:href="#linearGradient3708"/><linearGradient id="linearGradient3708"><stop id="stop3710" offset="0" stop-color="#000" stop-opacity="1"/><stop id="stop3712" offset="1" stop-color="#000" stop-opacity="1"/></linearGradient><radialGradient id="radialGradient3022" cx="27.412" cy="12.08" r="18" fx="27.412" fy="12.08" gradientTransform="matrix(1.058274e-8,1.0638645,-1.5954668,1.5870832e-8,37.288226,-8.199561)" gradientUnits="userSpaceOnUse" xlink:href="#linearGradient3268-1"/><linearGradient id="linearGradient3268-1"><stop id="stop3270-7" offset="0" stop-color="#fff" stop-opacity="1"/><stop id="stop3272-0" offset="1" stop-color="#d8d8d8" stop-opacity="1"/></linearGradient><linearGradient id="linearGradient3024" x1="29.05" x2="29.05" y1="5.108" y2="43.199" gradientTransform="matrix(0.63636361,0,0,0.63636367,0.7272722,1.7272741)" gradientUnits="userSpaceOnUse" xlink:href="#linearGradient3332-412-419-652-471-761-410-156-661-505"/><linearGradient id="linearGradient3042" x1="24" x2="24" y1="5" y2="43" gradientTransform="matrix(0.6216218,0,0,0.6216218,1.0810807,2.0810698)" gradientUnits="userSpaceOnUse" xlink:href="#linearGradient3308-4-6-931-761"/><linearGradient id="linearGradient3308-4-6-931-761"><stop id="stop2919" offset="0" stop-color="#fff" stop-opacity="1"/><stop id="stop2921" offset="1" stop-color="#fff" stop-opacity="0"/></linearGradient><radialGradient id="radialGradient3030-0" cx="7.496" cy="8.45" r="20" fx="7.496" fy="8.45" gradientTransform="matrix(0,1.474209,-1.9732084,-6.2205768e-8,32.673224,-6.176783)" gradientUnits="userSpaceOnUse" xlink:href="#linearGradient2867-449-88-871-390-598-476-591-434-148-4"/><linearGradient id="linearGradient2867-449-88-871-390-598-476-591-434-148-4"><stop id="stop4627-6" offset="0" stop-color="#51cfee" stop-opacity="1"/><stop id="stop4629-2" offset=".262" stop-color="#49a3d2" stop-opacity="1"/><stop id="stop4631-6" offset=".705" stop-color="#3470b4" stop-opacity="1"/><stop id="stop4633-7" offset="1" stop-color="#1b5699" stop-opacity="1"/></linearGradient><linearGradient id="linearGradient3032-5" x1="24" x2="24" y1="44" y2="3.899" gradientTransform="matrix(0.64102564,0,0,0.64102564,0.6153853,1.6153842)" gradientUnits="userSpaceOnUse" xlink:href="#linearGradient3332-412-419-652-471-761-410-156-661-505-6"/><linearGradient id="linearGradient3332-412-419-652-471-761-410-156-661-505-6"><stop id="stop8032-9" offset="0" stop-color="#205286" stop-opacity="1"/><stop id="stop8034-8" offset="1" stop-color="#5492be" stop-opacity="1"/></linearGradient><radialGradient id="radialGradient2482" cx="4.993" cy="43.5" r="2.5" fx="4.993" fy="43.5" gradientTransform="matrix(2.003784,0,0,1.4,27.98813,-17.4)" gradientUnits="userSpaceOnUse" xlink:href="#linearGradient3688-166-749"/><linearGradient id="linearGradient3688-166-749"><stop id="stop2883" offset="0" stop-color="#181818" stop-opacity="1"/><stop id="stop2885" offset="1" stop-color="#181818" stop-opacity="0"/></linearGradient><radialGradient id="radialGradient2484" cx="4.993" cy="43.5" r="2.5" fx="4.993" fy="43.5" gradientTransform="matrix(2.003784,0,0,1.4,-20.01187,-104.4)" gradientUnits="userSpaceOnUse" xlink:href="#linearGradient3688-464-309"/><linearGradient id="linearGradient3688-464-309"><stop id="stop2889" offset="0" stop-color="#181818" stop-opacity="1"/><stop id="stop2891" offset="1" stop-color="#181818" stop-opacity="0"/></linearGradient><linearGradient id="linearGradient2486" x1="25.058" x2="25.058" y1="47.028" y2="39.999" gradientUnits="userSpaceOnUse" xlink:href="#linearGradient3702-501-757"/><linearGradient id="linearGradient3702-501-757"><stop id="stop2895" offset="0" stop-color="#181818" stop-opacity="0"/><stop id="stop2897" offset=".5" stop-color="#181818" stop-opacity="1"/><stop id="stop2899" offset="1" stop-color="#181818" stop-opacity="0"/></linearGradient></defs><metadata id="metadata3216"/><g id="layer1"><g id="g2036" display="inline" transform="matrix(0.6999997,0,0,0.3333336,-0.8000003,15.33333)"><g id="g3712" opacity=".4" transform="matrix(1.052632,0,0,1.285713,-1.263158,-13.42854)"><rect id="rect2801" width="5" height="7" x="38" y="40" fill="url(#radialGradient2482)" fill-opacity="1" stroke="none"/><rect id="rect3696" width="5" height="7" x="-10" y="-47" fill="url(#radialGradient2484)" fill-opacity="1" stroke="none" transform="scale(-1,-1)"/><rect id="rect3700" width="28" height="7" x="10" y="40" fill="url(#linearGradient2486)" fill-opacity="1" stroke="none"/></g></g><rect stroke-linejoin="round" style="marker:none" id="rect5505" width="25" height="25" x="3.5" y="4.5" fill="url(#radialGradient3030-0)" fill-opacity="1" fill-rule="nonzero" stroke="url(#linearGradient3032-5)" stroke-dasharray="none" stroke-dashoffset="0" stroke-linecap="round" stroke-miterlimit="4" stroke-opacity="1" stroke-width="1" color="#000" display="inline" enable-background="accumulate" overflow="visible" rx="2" ry="2" visibility="visible"/><rect id="rect6741" width="23" height="23" x="4.5" y="5.5" fill="none" stroke="url(#linearGradient3042)" stroke-dasharray="none" stroke-dashoffset="0" stroke-linecap="round" stroke-linejoin="round" stroke-miterlimit="4" stroke-opacity="1" stroke-width="1" opacity=".4" rx="1" ry="1"/><path id="path3576" fill="#fff" fill-opacity="1" fill-rule="nonzero" stroke="none" stroke-width="1.7" d="m 15.333333,9.9999997 c -0.369333,0 -0.666666,0.2973333 -0.666666,0.6666673 l 0,1.499999 c -0.670271,0.152626 -1.289916,0.414412 -1.854168,0.770833 L 11.75,11.874999 c -0.261159,-0.261158 -0.676342,-0.261158 -0.9375,0 L 9.8749985,12.8125 c -0.2611571,0.261157 -0.2611571,0.676341 0,0.937499 l 1.0625015,1.0625 c -0.356422,0.564252 -0.618208,1.183896 -0.770835,1.854167 l -1.4999985,0 c -0.3693335,0 -0.6666668,0.297333 -0.6666668,0.666667 l 0,1.333333 c 0,0.369333 0.2973333,0.666667 0.6666668,0.666667 l 1.4999985,0 c 0.152627,0.670271 0.414413,1.289916 0.770835,1.854168 L 9.8749985,22.25 c -0.2611571,0.261159 -0.2611571,0.676341 0,0.9375 L 10.8125,24.125001 c 0.261158,0.261157 0.67634,0.261158 0.9375,0 L 12.812499,23.0625 c 0.564252,0.356421 1.183897,0.618207 1.854168,0.770834 l 0,1.499999 C 14.666667,25.702666 14.964,26 15.333333,26 l 1.333334,0 c 0.369333,0 0.666666,-0.297334 0.666666,-0.666667 l 0,-1.499999 C 18.003604,23.680707 18.623248,23.418921 19.1875,23.0625 l 1.0625,1.062501 c 0.261158,0.261157 0.676342,0.261155 0.937499,0 L 22.125,23.1875 c 0.261158,-0.261158 0.26116,-0.676342 0,-0.9375 l -1.0625,-1.062499 c 0.356421,-0.564252 0.618208,-1.183897 0.770834,-1.854168 l 1.499999,0 C 23.702667,19.333333 24,19.035999 24,18.666666 l 0,-1.333333 c 0,-0.369334 -0.297333,-0.666667 -0.666667,-0.666667 l -1.499999,0 C 21.680708,15.996395 21.418921,15.376751 21.0625,14.812499 l 1.0625,-1.0625 c 0.261158,-0.261158 0.261157,-0.676341 0,-0.937499 l -0.937501,-0.937501 c -0.261157,-0.261158 -0.676341,-0.261158 -0.937499,0 l -1.0625,1.0625 c -0.564252,-0.356421 -1.183896,-0.618207 -1.854167,-0.770833 l 0,-1.499999 c 0,-0.369334 -0.297333,-0.6666673 -0.666666,-0.6666673 l -1.333334,0 z M 16,15.333333 c 1.472,-10e-7 2.666667,1.194667 2.666667,2.666666 C 18.666667,19.472 17.472,20.666666 16,20.666666 14.528,20.666668 13.333332,19.472 13.333332,17.999999 13.333334,16.528 14.528,15.333333 16,15.333333 z" display="inline" enable-background="accumulate" opacity=".4" overflow="visible" visibility="visible" style="marker:none"/><path id="rect3557" fill="#6e6e6e" fill-opacity="1" fill-rule="nonzero" stroke="none" stroke-width="1.7" d="m 15.333333,9.0000005 c -0.369333,0 -0.666666,0.2973332 -0.666666,0.6666667 l 0,1.4999988 c -0.670271,0.152626 -1.289916,0.414413 -1.854168,0.770833 L 11.75,10.874999 c -0.261159,-0.261158 -0.676342,-0.261158 -0.9375,0 L 9.8749987,11.8125 c -0.2611571,0.261157 -0.2611571,0.676342 0,0.937499 L 10.9375,13.8125 c -0.356422,0.564252 -0.618208,1.183896 -0.770835,1.854166 l -1.4999983,0 c -0.3693335,0 -0.6666668,0.297334 -0.6666668,0.666667 l 0,1.333333 c 0,0.369334 0.2973333,0.666667 0.6666668,0.666667 l 1.4999983,0 c 0.152627,0.670271 0.414413,1.289915 0.770835,1.854168 L 9.8749987,21.25 c -0.2611571,0.261159 -0.2611571,0.676341 0,0.9375 L 10.8125,23.125 c 0.261158,0.261158 0.67634,0.261159 0.9375,0 l 1.062499,-1.0625 c 0.564252,0.356422 1.183897,0.618207 1.854168,0.770833 l 0,1.5 C 14.666667,24.702667 14.964,25 15.333333,25 l 1.333334,0 c 0.369333,0 0.666666,-0.297333 0.666666,-0.666667 l 0,-1.5 C 18.003604,22.680707 18.623248,22.418922 19.1875,22.0625 L 20.25,23.125 c 0.261158,0.261158 0.676342,0.261157 0.937499,0 L 22.125,22.1875 c 0.261158,-0.261158 0.26116,-0.676343 0,-0.9375 l -1.0625,-1.062499 c 0.356421,-0.564253 0.618208,-1.183897 0.770834,-1.854168 l 1.499999,0 C 23.702667,18.333333 24,18.036 24,17.666666 l 0,-1.333333 C 24,15.964 23.702667,15.666666 23.333333,15.666666 l -1.499999,0 C 21.680708,14.996396 21.418921,14.376752 21.0625,13.8125 l 1.0625,-1.062501 c 0.261158,-0.261157 0.261157,-0.676341 0,-0.937499 l -0.937501,-0.937501 c -0.261157,-0.261158 -0.676341,-0.261158 -0.937499,0 l -1.0625,1.0625 c -0.564252,-0.35642 -1.183896,-0.618207 -1.854167,-0.770833 l 0,-1.4999988 c 0,-0.3693335 -0.297333,-0.6666667 -0.666666,-0.6666667 l -1.333334,0 z M 16,14.333333 C 17.472,14.333332 18.666667,15.528001 18.666667,17 18.666667,18.472001 17.472,19.666666 16,19.666666 14.528,19.666667 13.333332,18.472001 13.333332,17 13.333334,15.528001 14.528,14.333333 16,14.333333 z" display="inline" enable-background="accumulate" overflow="visible" visibility="visible" style="marker:none"/><path id="path3215-6" fill="url(#radialGradient3022)" fill-opacity="1" fill-rule="nonzero" stroke="url(#linearGradient3024)" stroke-dasharray="none" stroke-miterlimit="4" stroke-width="1" d="M 26.5,16.999628 C 26.5,22.798804 21.798641,27.5 16.000132,27.5 10.201089,27.5 5.5,22.79875 5.5,16.999628 5.5,11.200718 10.201089,6.4999999 16.000132,6.4999999 21.798641,6.4999999 26.5,11.200718 26.5,16.999628 l 0,0 0,0 0,0 z"/><path id="path3215-4" fill="url(#radialGradient3017)" fill-opacity="1" stroke="url(#linearGradient3019)" stroke-dasharray="none" stroke-miterlimit="4" stroke-width="1" d="m 25.5,17.000336 c 0,-5.246873 -4.25361,-9.5003362 -9.499881,-9.5003362 -5.246752,0 -9.5001191,4.2535112 -9.5001191,9.5003362 C 6.4999999,22.24697 10.753367,26.5 16.000119,26.5 21.24639,26.5 25.5,22.24697 25.5,17.000336 l 0,0 z" opacity=".2"/><path id="path3215-6-0" fill="none" stroke="url(#linearGradient3013)" stroke-dasharray="none" stroke-miterlimit="4" stroke-width="1" d="M 27.499999,16.999593 C 27.499999,23.351071 22.350891,28.5 16.000144,28.5 9.6488118,28.5 4.4999998,23.351012 4.4999998,16.999593 c 0,-6.351188 5.148812,-11.4995932 11.5001442,-11.4995932 6.350747,0 11.499855,5.1484052 11.499855,11.4995932 l 0,0 0,0 0,0 z" opacity=".4"/><path id="path4293" fill="url(#linearGradient3007)" fill-opacity="1" stroke="url(#linearGradient3009)" stroke-linecap="butt" stroke-linejoin="miter" stroke-opacity="1" stroke-width="1" d="m 13.5,15.5 5,0 0,-2.666664 6,4.166666 -6,4.166667 0,-2.666669 -5,0 0,2.666669 -6,-4.166667 6,-4.166666 0,2.666664 z"/><path id="path3333" fill="url(#linearGradient3004)" fill-opacity="1" fill-rule="evenodd" stroke="none" d="M 5.3262952,5.0000022 C 4.5937085,5.0000022 4,5.6297657 4,6.4068397 L 4,16.696854 c 0.00168,0.08657 0.037465,0.16843 0.09868,0.225716 0.061204,0.05728 0.1422386,0.08476 0.2234238,0.07575 L 27.753688,12.416046 C 27.894035,12.392567 27.998038,12.265276 28,12.114581 L 28,6.4068378 C 28,5.6297637 27.40629,5.0000003 26.673706,5.0000003 l -21.3474079,0 z" opacity=".2"/><path id="path4293-3" fill="none" stroke="url(#linearGradient3001)" stroke-linecap="butt" stroke-linejoin="miter" stroke-opacity="1" stroke-width="1" d="m 12.47436,16.5 7.051282,0 0,-1.776402 3.112561,2.276404 -3.112561,2.212514 0,-1.712516 -7.051282,0 0,1.712516 -3.2083883,-2.212514 3.2083883,-2.276404 0,1.776402 z" opacity=".4"/></g></svg>