<svg xmlns="http://www.w3.org/2000/svg" xmlns:svg="http://www.w3.org/2000/svg" xmlns:xlink="http://www.w3.org/1999/xlink" id="svg11300" width="32" height="32" version="1.0"><defs id="defs3"><linearGradient id="linearGradient4302"><stop id="stop4304" offset="0" stop-color="#8badea" stop-opacity="1"/><stop id="stop4306" offset=".262" stop-color="#6396cd" stop-opacity="1"/><stop id="stop4308" offset=".661" stop-color="#3b7caf" stop-opacity="1"/><stop id="stop4310" offset="1" stop-color="#194c70" stop-opacity="1"/></linearGradient><linearGradient id="linearGradient4296"><stop id="stop4298" offset="0" stop-color="#1f4b6a" stop-opacity="1"/><stop id="stop4300" offset="1" stop-color="#4083c2" stop-opacity="1"/></linearGradient><linearGradient id="linearGradient3785"><stop id="stop3787" offset="0" stop-color="#b8b8b8" stop-opacity="1"/><stop id="stop3789" offset="1" stop-color="#878787" stop-opacity="1"/></linearGradient><linearGradient id="linearGradient6954"><stop id="stop6960" offset="0" stop-color="#f5f5f5" stop-opacity="1"/><stop id="stop6962" offset="1" stop-color="#d2d2d2" stop-opacity="1"/></linearGradient><linearGradient id="linearGradient3341"><stop id="stop3343" offset="0" stop-color="#fff" stop-opacity="1"/><stop id="stop3345" offset="1" stop-color="#fff" stop-opacity="0"/></linearGradient><linearGradient id="linearGradient5060"><stop id="stop5062" offset="0" stop-color="#000" stop-opacity="1"/><stop id="stop5064" offset="1" stop-color="#000" stop-opacity="0"/></linearGradient><radialGradient id="radialGradient2880" cx="32" cy="41.5" r="21" fx="32" fy="41.5" gradientTransform="matrix(0.57142856,0,0,0.16666666,1.7142828,20.583334)" gradientUnits="userSpaceOnUse" xlink:href="#linearGradient5060"/><radialGradient id="radialGradient2882" cx="25" cy="28.66" r="16" fx="25" fy="28.66" gradientTransform="matrix(0.88911393,0,0,0.26439791,-5.6149485,12.359857)" gradientUnits="userSpaceOnUse" xlink:href="#linearGradient6954"/><linearGradient id="linearGradient2884" x1="30" x2="30" y1="25.085" y2="45" gradientTransform="matrix(0.67742015,0,0,0.70833449,-0.32260348,-2.0208703)" gradientUnits="userSpaceOnUse" xlink:href="#linearGradient3785"/><linearGradient id="linearGradient2886" x1="24.349" x2="24.349" y1="57.333" y2="83.733" gradientTransform="matrix(0.65517451,0,0,0.68182253,3.0473758,-28.09122)" gradientUnits="userSpaceOnUse" xlink:href="#linearGradient3341"/><radialGradient id="radialGradient2888" cx="26.376" cy="12.313" r="8" fx="26.376" fy="12.313" gradientTransform="matrix(0.98412314,-0.08459387,0.07687018,1.0112316,-9.0385241,-4.3447189)" gradientUnits="userSpaceOnUse" xlink:href="#linearGradient6954"/><linearGradient id="linearGradient2890" x1="30" x2="30" y1="5" y2="44.679" gradientTransform="matrix(0.6000148,0,0,0.6380476,1.9995574,-1.0093725)" gradientUnits="userSpaceOnUse" xlink:href="#linearGradient3785"/><linearGradient id="linearGradient2892" x1="22" x2="17" y1="39" y2="37.438" gradientTransform="matrix(0.74999996,0,0,0.65217387,-1.7499962,0.22608877)" gradientUnits="userSpaceOnUse" xlink:href="#linearGradient5060"/><linearGradient id="linearGradient2894" x1="38" x2="43" y1="39" y2="38.6" gradientTransform="matrix(0.74999996,0,0,0.65217387,-3.2499956,0.22608875)" gradientUnits="userSpaceOnUse" xlink:href="#linearGradient5060"/><radialGradient id="radialGradient2896" cx="30" cy="33.188" r="4.688" fx="30" fy="33.188" gradientTransform="matrix(1.3038704,-4.7098302e-7,1.8183369e-7,0.3072442,-19.11612,9.803347)" gradientUnits="userSpaceOnUse" xlink:href="#linearGradient5060"/><linearGradient id="linearGradient2898" x1="30" x2="30" y1="5.703" y2="27.957" gradientTransform="matrix(0.5410937,0,0,0.60327904,3.7671936,-0.44038972)" gradientUnits="userSpaceOnUse" xlink:href="#linearGradient3341"/><linearGradient id="linearGradient4286" x1="63.397" x2="63.397" y1="-12.489" y2="5.468" gradientTransform="matrix(0.7432394,0,0,0.7432224,-38.229789,10.609333)" gradientUnits="userSpaceOnUse" xlink:href="#linearGradient3341"/><linearGradient id="linearGradient4294" x1="18.379" x2="18.379" y1="44.98" y2="3.082" gradientTransform="matrix(0.3685738,0,0,0.3685738,-0.84577,-0.8457701)" gradientUnits="userSpaceOnUse" xlink:href="#linearGradient4296"/><radialGradient id="radialGradient4312" cx="23.896" cy="3.99" r="20.397" fx="23.896" fy="3.99" gradientTransform="matrix(0,0.8796593,-1.1611346,0,12.632931,-21.08413)" gradientUnits="userSpaceOnUse" xlink:href="#linearGradient4302"/></defs><g id="g3499"><g id="g3735" transform="translate(-7,0)"><path id="path3823" fill="url(#radialGradient2880)" fill-opacity="1" stroke="none" d="m 32,27.5 a 12,3.5 0 0 1 -24,0 12,3.5 0 1 1 24,0 z" opacity=".8"/><path id="path3766" fill="url(#radialGradient2882)" fill-opacity="1" stroke="url(#linearGradient2884)" stroke-dasharray="none" stroke-miterlimit="4" stroke-opacity="1" stroke-width="1" d="m 17.052,12.499986 c 0.311757,1.541852 0.584909,2.708155 0.332,4.250006 -1.971764,1.710542 -7.214153,2.479171 -7.206591,4.250007 l -0.6774226,5.312509 c 0,1.760409 4.7010176,3.187506 10.5000126,3.187506 5.798999,0 10.500015,-1.427097 10.500015,-3.187506 l -0.677422,-5.312509 c -0.0081,-1.515596 -5.281011,-2.47917 -7.228592,-4.250007 -0.166358,-1.431074 0.06603,-2.818931 0.354,-4.250006 l -5.896,0 z"/><path id="path3894" fill="none" stroke="url(#linearGradient2886)" stroke-dasharray="none" stroke-miterlimit="4" stroke-opacity="1" stroke-width="1" d="m 18.109,13.499954 c 0.207393,1.218146 0.570657,2.497463 0.262,3.709711 -0.585769,0.734972 -2.025119,1.099427 -2.851104,1.502651 -1.402263,0.659278 -2.992252,1.011179 -4.207909,2.009432 -0.266813,0.372919 -0.178552,0.888667 -0.282572,1.3286 -0.175558,1.361602 -0.358458,2.722727 -0.529428,4.084626 0.372246,0.828351 1.400214,1.075215 2.17834,1.390329 3.317714,1.00997 6.848903,1.122646 10.285027,0.837892 2.001225,-0.219888 4.070287,-0.507484 5.854322,-1.497126 0.548661,-0.230487 0.801396,-0.764344 0.609573,-1.311147 -0.190493,-1.518534 -0.410223,-3.035237 -0.582372,-4.55492 -0.763945,-0.784676 -1.874787,-1.099534 -2.846897,-1.555017 -1.343902,-0.592332 -3.411526,-1.104157 -4.45398,-2.178649 -0.2021,-1.20712 0.253539,-2.749145 0.191,-3.766385 -1.375118,2e-6 -2.250884,-4e-6 -3.626,3e-6 z"/><path id="path3764" fill="url(#radialGradient2888)" fill-opacity="1" stroke="url(#linearGradient2890)" stroke-dasharray="none" stroke-miterlimit="4" stroke-opacity="1" stroke-width="1" d="m 19.999999,2.4998895 c -2.485343,0 -4.50011,1.9996461 -4.50011,4.4663339 0.01948,0.912872 0.09275,1.9973308 0.600015,4.4663346 0.300007,0.95707 2.975929,3.709418 3.000073,4.028442 0.581816,0.319023 1.500037,0.319023 2.100051,0 0,-0.319024 2.400059,-3.071372 2.700066,-4.028442 0.57084,-2.5660315 0.569398,-3.5092631 0.600015,-4.4663346 0,-2.4666878 -2.014767,-4.4663339 -4.50011,-4.4663339 z"/><path id="path3848" fill="url(#linearGradient2892)" fill-opacity="1" stroke="none" d="m 14,28.4 c -1.771762,-1.292736 -0.926902,-4.162735 -0.75,-6 -0.749999,1.304348 -0.749999,5.217391 -2.25,5.217391 1.021958,0.299057 2.06217,0.629863 3,0.782609 z" opacity=".3"/><path id="path3850" fill="url(#linearGradient2894)" fill-opacity="1" stroke="none" d="m 26,28.4 c 1.762535,-1.137226 0.867541,-4.229946 0.749999,-6 0.75,1.304347 0.75,5.217391 2.250001,5.217391 -1.021958,0.299057 -2.062172,0.629862 -3,0.782609 z" opacity=".3"/><path id="path3833" fill="url(#radialGradient2896)" fill-opacity="1" stroke="none" d="m 16,18 c 0.585645,1.163172 2.149469,2 4,2 1.850531,0 3.414353,-0.836828 4,-2 l -8,0 z" opacity=".2"/><path id="path3906" fill="none" stroke="url(#linearGradient2898)" stroke-dasharray="none" stroke-miterlimit="4" stroke-opacity="1" stroke-width="1" d="m 20.000002,3.4997762 c -1.578445,-0.031463 -3.034642,1.1664635 -3.388069,2.6909471 -0.233174,1.0034105 -0.04469,2.0406579 0.07761,3.0470577 0.113228,0.6678987 0.192524,1.351298 0.375784,2.000751 0.66871,1.163508 1.691301,2.069914 2.461217,3.157989 0.412903,0.122857 1.079832,0.241399 1.323731,-0.198062 0.691144,-1.019356 1.571217,-1.917699 2.125742,-3.02571 C 23.274472,9.6804095 23.5787,8.1576319 23.470502,6.6280494 23.29848,5.0137106 21.908939,3.6071807 20.272085,3.5103276 c -0.09051,-0.00705 -0.181338,-0.010502 -0.272086,-0.010551 z" opacity=".7"/></g><g id="layer1" transform="translate(15,16.000001)"><path id="path2449" fill="url(#radialGradient4312)" fill-opacity="1" stroke="url(#linearGradient4294)" stroke-dasharray="none" stroke-dashoffset="0" stroke-linecap="round" stroke-linejoin="round" stroke-miterlimit="4" stroke-opacity="1" stroke-width="1.004" d="m 8.0000011,0.50182793 c -4.1372321,0 -7.4981741,3.36093917 -7.4981741,7.49817177 0,4.1372333 3.360942,7.4981753 7.4981741,7.4981723 4.1372309,0 7.4981759,-3.360939 7.4981719,-7.4981723 0,-4.1372326 -3.360941,-7.49817177 -7.4981719,-7.49817177 z"/><path id="path2451" fill="none" stroke="url(#linearGradient4286)" stroke-dasharray="none" stroke-miterlimit="4" stroke-opacity="1" stroke-width="1" d="M 14.500001,7.9997709 C 14.500001,11.589737 11.589636,14.5 8.0000818,14.5 4.4101984,14.5 1.5000001,11.589705 1.5000001,7.9997709 c 0,-3.5898006 2.9101983,-6.4997695 6.5000817,-6.4997695 3.5895542,0 6.4999192,2.9099689 6.4999192,6.4997695 l 0,0 z" opacity=".4"/><path font-stretch="normal" style="text-align:start;line-height:100%;-inkscape-font-specification:URW Palladio L Bold" id="path3536" fill="#fff" fill-opacity="1" stroke="none" d="M 5.8808697,7.603876 C 5.9920845,7.8766392 6.1138306,8.0964522 6.3422525,7.7798598 6.6333333,7.5876564 7.6013138,6.7576696 7.531799,7.5349971 7.2682512,8.9788703 6.934621,10.410517 6.6934147,11.857898 6.4130436,12.656425 7.1479948,13.3386 7.8659783,12.797572 8.6376129,12.437386 9.2916656,11.87517 9.9620516,11.356565 9.858718,11.12609 9.7827399,10.792076 9.5347822,11.109033 9.1995537,11.280214 8.483054,12.052198 8.3204222,11.446071 8.546195,9.8850359 9.0187967,8.3714296 9.2979195,6.8206037 9.5826587,6.1011893 9.0369959,5.2289339 8.2958702,5.8445643 7.3963404,6.2864958 6.6568077,6.9787827 5.8808697,7.603876 z M 9.0732421,2.2548262 C 8.1372088,2.2424167 7.7090569,3.790823 8.6131539,4.1730842 9.3450838,4.4436686 10.099637,3.6620495 9.8942076,2.9199733 9.8242477,2.5320657 9.4666136,2.2257154 9.073243,2.2548262 l -9e-7,0 z" font-family="URW Palladio L" font-size="40" font-style="normal" font-variant="normal" font-weight="bold" text-anchor="start" writing-mode="lr-tb"/></g></g></svg>