<svg xmlns="http://www.w3.org/2000/svg" xmlns:svg="http://www.w3.org/2000/svg" xmlns:xlink="http://www.w3.org/1999/xlink" id="svg3172" width="18" height="22" version="1.0"><metadata id="metadata10"/><defs id="defs3174"><linearGradient id="linearGradient2388" x1="99.624" x2="99.624" y1="8.443" y2="34.187" gradientTransform="matrix(0.4100229,0,0,0.5447147,-34.849272,-0.5989154)" gradientUnits="userSpaceOnUse" xlink:href="#linearGradient3587-6-5-3"/><linearGradient id="linearGradient3587-6-5-3"><stop id="stop3589-9-2-2" offset="0" stop-color="#000" stop-opacity="1"/><stop id="stop3591-7-4-73" offset="1" stop-color="#363636" stop-opacity="1"/></linearGradient><linearGradient id="linearGradient3776" x1="9.443" x2="9.443" y1="3.968" y2="18.105" gradientTransform="translate(-2.0000003,0)" gradientUnits="userSpaceOnUse" xlink:href="#linearGradient3587-6-5-3"/></defs><path id="path2396-7" fill="#fff" fill-opacity="1" fill-rule="nonzero" stroke="none" stroke-width="3" d="M 8.9999997,5 C 5.1360001,5 2,8.1360005 2,12 2,15.864 5.1359999,18.999999 8.9999997,19 12.864,19 16,15.864 16,12 16,8.1360001 12.864,5.0000002 8.9999997,5 z M 12,7 14,9 8.4999997,16.5 4.5,13 6.5,11 8.4999997,13 12,7 z" display="inline" enable-background="accumulate" opacity=".6" overflow="visible" visibility="visible" style="marker:none"/><path id="path2396" fill="url(#linearGradient3776)" fill-opacity="1" fill-rule="nonzero" stroke="none" stroke-width="3" d="M 8.9999997,3.9991931 C 5.1360001,3.9991931 2,7.1351936 2,10.999193 c 0,3.864 3.1359999,6.999999 6.9999997,7 3.8640003,0 7.0000003,-3.136 7.0000003,-7 C 16,7.1351932 12.864,3.9991933 8.9999997,3.9991931 z m 3.0000003,2 2,2 L 8.4999997,15.499193 4.5,11.999193 6.5,9.9991931 8.4999997,11.999193 12,5.9991931 z" display="inline" enable-background="accumulate" opacity=".7" overflow="visible" visibility="visible" style="marker:none"/><path id="path3170" fill="none" stroke="#fff" stroke-dasharray="none" stroke-linecap="butt" stroke-linejoin="miter" stroke-miterlimit="4" stroke-opacity="1" stroke-width=".5" d="M 4.8544493,11.999193 6.5,10.353642 8.5545307,12.408173 12.054531,6.4081731 13.672816,8.0264584 8.4727347,15.144744 4.8544493,11.999193 z" opacity=".3"/></svg>