<svg xmlns="http://www.w3.org/2000/svg" xmlns:svg="http://www.w3.org/2000/svg" xmlns:xlink="http://www.w3.org/1999/xlink" id="svg4431" width="22" height="22" version="1.0"><metadata id="metadata17"/><defs id="defs4433"><linearGradient id="linearGradient3587-6-5"><stop id="stop3589-9-2" offset="0" stop-color="#000" stop-opacity="1"/><stop id="stop3591-7-4" offset="1" stop-color="#363636" stop-opacity="1"/></linearGradient><linearGradient id="linearGradient2390" x1="50.926" x2="73.987" y1="11.648" y2="11.648" gradientTransform="matrix(0,0.7805424,-0.7617909,0,29.873684,-36.749634)" gradientUnits="userSpaceOnUse" xlink:href="#linearGradient3587-6-5"/><linearGradient id="linearGradient2393" x1="9" x2="9" y1="3" y2="21" gradientTransform="translate(-2,-1)" gradientUnits="userSpaceOnUse" xlink:href="#linearGradient3587-6-5"/><linearGradient id="linearGradient2391" x1="50.926" x2="73.987" y1="11.648" y2="11.648" gradientTransform="matrix(0,0.78185871,-0.73611337,0,28.252419,-37.833531)" gradientUnits="userSpaceOnUse" xlink:href="#linearGradient3587-6-5"/></defs><path id="path3170" fill="none" stroke="#fff" stroke-dasharray="none" stroke-dashoffset="0" stroke-linecap="butt" stroke-linejoin="miter" stroke-miterlimit="4" stroke-opacity="1" stroke-width="1.673" d="m 13.763776,7.0872051 c 0,0 1.78315,1.7477434 1.719708,5.4136379 -0.06397,3.696302 -1.748348,5.413638 -1.748348,5.413638 m -2.89888,-8.697307 c 0,0 0.950324,0.796326 0.974546,3.236095 0.02393,2.409353 -0.974546,3.331243 -0.974546,3.331243" display="inline" enable-background="accumulate" opacity=".6" overflow="visible" visibility="visible" style="marker:none"/><path id="path2387-4" fill="#fff" fill-opacity="1" fill-rule="evenodd" stroke="none" d="m 2,10 0,5 2,0 4,4 0,-13 -4,4 -2,0 z" opacity=".6"/><path id="path2387" fill="url(#linearGradient2393)" fill-opacity="1" fill-rule="evenodd" stroke="none" d="m 2,9 0,5 2,0 4,4 L 8,5 4,9 2,9 z" opacity=".7"/><g id="g3179" opacity=".4" transform="matrix(0.96629321,0,0,1.0016864,-0.6143185,-1.0219229)"><path id="path3172" fill="none" stroke="#fff" stroke-dasharray="none" stroke-dashoffset="0" stroke-linecap="butt" stroke-linejoin="miter" stroke-miterlimit="4" stroke-opacity="1" stroke-width="1.7" d="m 17.854435,5.85 c 0,0 2.613537,2.422712 2.613537,7.634915 C 20.467972,18.671495 17.85,21.15 17.85,21.15" display="inline" enable-background="accumulate" opacity=".6" overflow="visible" visibility="visible" style="marker:none"/><path id="path3166" fill="none" stroke="url(#linearGradient2390)" stroke-dasharray="none" stroke-dashoffset="0" stroke-linecap="butt" stroke-linejoin="miter" stroke-miterlimit="4" stroke-opacity="1" stroke-width="1.7" d="m 17.854435,4.85 c 0,0 2.613537,2.422712 2.613537,7.634915 C 20.467972,17.671495 17.85,20.15 17.85,20.15" display="inline" enable-background="accumulate" opacity=".8" overflow="visible" visibility="visible" style="marker:none"/></g><path id="path3164" fill="none" stroke="url(#linearGradient2391)" stroke-dasharray="none" stroke-dashoffset="0" stroke-linecap="butt" stroke-linejoin="miter" stroke-miterlimit="4" stroke-opacity="1" stroke-width="1.673" d="m 13.763776,6.0855188 c 0,0 1.78315,1.7477434 1.719708,5.4136382 -0.06397,3.696302 -1.748348,5.413638 -1.748348,5.413638 m -2.89888,-8.6973074 c 0,0 0.950324,0.7963257 0.974546,3.2360954 0.02393,2.409353 -0.974546,3.331243 -0.974546,3.331243" display="inline" enable-background="accumulate" opacity=".7" overflow="visible" visibility="visible" style="marker:none"/></svg>