<svg xmlns="http://www.w3.org/2000/svg" xmlns:svg="http://www.w3.org/2000/svg" xmlns:xlink="http://www.w3.org/1999/xlink" id="svg4431" width="22" height="22" version="1.0"><metadata id="metadata16"/><defs id="defs4433"><linearGradient id="linearGradient3587-6-5"><stop id="stop3589-9-2" offset="0" stop-color="#000" stop-opacity="1"/><stop id="stop3591-7-4" offset="1" stop-color="#363636" stop-opacity="1"/></linearGradient><linearGradient id="linearGradient2393" x1="9" x2="9" y1="3" y2="21" gradientTransform="translate(-1,0)" gradientUnits="userSpaceOnUse" xlink:href="#linearGradient3587-6-5"/></defs><g id="g3272" opacity=".4" transform="translate(-1,-1)"><path id="path2387-4" fill="#fff" fill-opacity="1" fill-rule="evenodd" stroke="none" d="m 3,11 0,5 2,0 4,4 0,-13 -4,4 -2,0 z m 8,2 c 0.666667,0 1.333333,0 2,0 0,0.333333 0,0.666667 0,1 -0.666667,0 -1.333333,0 -2,0 0,-0.333333 0,-0.666667 0,-1 z m 8,0 c 0.666667,0 1.333333,0 2,0 0,0.333333 0,0.666667 0,1 -0.666667,0 -1.333333,0 -2,0 0,-0.333333 0,-0.666667 0,-1 z m -4,0 c 0.666667,0 1.333333,0 2,0 0,0.333333 0,0.666667 0,1 -0.666667,0 -1.333333,0 -2,0 0,-0.333333 0,-0.666667 0,-1 z" opacity=".6"/><path id="path2387" fill="url(#linearGradient2393)" fill-opacity="1" fill-rule="evenodd" stroke="none" d="m 3,10 0,5 2,0 4,4 0,-13 -4,4 -2,0 z m 8,2 c 0.666667,0 1.333333,0 2,0 0,0.333333 0,0.666667 0,1 -0.666667,0 -1.333333,0 -2,0 0,-0.333333 0,-0.666667 0,-1 z m 8,0 c 0.666667,0 1.333333,0 2,0 0,0.333333 0,0.666667 0,1 -0.666667,0 -1.333333,0 -2,0 0,-0.333333 0,-0.666667 0,-1 z m -4,0 c 0.666667,0 1.333333,0 2,0 0,0.333333 0,0.666667 0,1 -0.666667,0 -1.333333,0 -2,0 0,-0.333333 0,-0.666667 0,-1 z" opacity=".8"/></g></svg>