<svg xmlns="http://www.w3.org/2000/svg" xmlns:svg="http://www.w3.org/2000/svg" xmlns:xlink="http://www.w3.org/1999/xlink" id="svg2426" width="16" height="22" version="1.0"><metadata id="metadata23"/><defs id="defs2428"><linearGradient id="linearGradient2418" x1="12.096" x2="12.096" y1="4.049" y2="19.955" gradientUnits="userSpaceOnUse" xlink:href="#linearGradient3587-6-5"/><linearGradient id="linearGradient3587-6-5"><stop id="stop3589-9-2" offset="0" stop-color="#000" stop-opacity="1"/><stop id="stop3591-7-4" offset="1" stop-color="#363636" stop-opacity="1"/></linearGradient><linearGradient id="linearGradient2416" x1="14.313" x2="14.313" y1="4" y2="20.001" gradientUnits="userSpaceOnUse" xlink:href="#linearGradient3587-6-5"/><linearGradient id="linearGradient3587-6-5-3"><stop id="stop3589-9-2-2" offset="0" stop-color="#000" stop-opacity="1"/><stop id="stop3591-7-4-73" offset="1" stop-color="#363636" stop-opacity="1"/></linearGradient><linearGradient id="linearGradient2399" x1="31.262" x2="31.262" y1="23.638" y2="38.39" gradientTransform="matrix(0.4101105,0,0,0.5452071,-0.82080453,-6.8985155)" gradientUnits="userSpaceOnUse" xlink:href="#linearGradient3587-6-5-3"/></defs><g id="g3216" stroke="#fff" stroke-opacity="1" opacity=".6" transform="translate(-8,-1.3659515e-6)"><path id="path3218" fill="none" stroke="#fff" stroke-dasharray="none" stroke-linecap="round" stroke-linejoin="round" stroke-miterlimit="4" stroke-opacity="1" stroke-width="1.411" d="M 11.788737,19.294254 15.294253,15.55392 8.7057475,8.9228629 m -10e-8,6.0660801 6.5885056,-6.6310583 -3.55157,-3.6521367"/><path id="path3220" fill="none" stroke="#fff" stroke-linecap="round" stroke-linejoin="miter" stroke-opacity="1" stroke-width="1" d="m 11.507463,4.8748901 0.08824,14.1558389"/></g><g id="g3212" opacity=".7" transform="translate(-8,-1)"><path id="path3367" fill="none" stroke="url(#linearGradient2416)" stroke-dasharray="none" stroke-linecap="round" stroke-linejoin="round" stroke-miterlimit="4" stroke-opacity="1" stroke-width="1.411" d="M 11.788737,19.294254 15.294253,15.55392 8.7057475,8.9228629 m -10e-8,6.0660801 6.5885056,-6.6310583 -3.55157,-3.6521367"/><path id="path3590" fill="none" stroke="url(#linearGradient2418)" stroke-linecap="round" stroke-linejoin="miter" stroke-opacity="1" stroke-width="1" d="m 11.507463,4.8748901 0.08824,14.1558389"/></g><path id="path2441" fill="#fff" fill-opacity="1" fill-rule="nonzero" stroke="none" stroke-width="1" d="M 12,7 C 10.892,7 10,7.910763 10,9.03125 L 10,10 c -0.554,0 -1,0.446 -1,1 l 0,3 c 0,0.554 0.446,1 1,1 l 4,0 c 0.554,0 1,-0.446 1,-1 l 0,-3 c 0,-0.554 -0.446,-1 -1,-1 L 14,9.03125 C 14,7.910764 13.108,7 12,7 z m 0,1 c 0.554,0 1,0.442363 1,1 l 0,1 -2,0 0,-1 c 0,-0.557637 0.446,-1 1,-1 z" display="inline" enable-background="accumulate" opacity=".6" overflow="visible" visibility="visible" style="marker:none"/><path id="rect2822" fill="url(#linearGradient2399)" fill-opacity="1" fill-rule="nonzero" stroke="none" stroke-width="1" d="M 12,6 C 10.892,6 10,6.910763 10,8.03125 L 10,9 C 9.446,9 9,9.446 9,10 l 0,3 c 0,0.554 0.446,1 1,1 l 4,0 c 0.554,0 1,-0.446 1,-1 l 0,-3 C 15,9.446 14.554,9 14,9 L 14,8.03125 C 14,6.910764 13.108,6 12,6 z m 0,1 c 0.554,0 1,0.442363 1,1 l 0,1 -2,0 0,-1 c 0,-0.557637 0.446,-1 1,-1 z" display="inline" enable-background="accumulate" opacity=".7" overflow="visible" visibility="visible" style="marker:none"/></svg>