<svg xmlns="http://www.w3.org/2000/svg" xmlns:svg="http://www.w3.org/2000/svg" xmlns:xlink="http://www.w3.org/1999/xlink" id="svg3833" width="22" height="22" version="1.1"><metadata id="metadata20"/><defs id="defs3835"><linearGradient id="linearGradient3587-6-5-8"><stop id="stop3589-9-2-4" offset="0" stop-color="#000" stop-opacity="1"/><stop id="stop3591-7-4-3" offset="1" stop-color="#363636" stop-opacity="1"/></linearGradient><linearGradient id="linearGradient3913" x1="11.191" x2="11.191" y1="3.561" y2="17.561" gradientTransform="translate(-0.191199,0.438695)" gradientUnits="userSpaceOnUse" xlink:href="#linearGradient3587-6-5-8"/></defs><g id="layer1" transform="translate(0,6)"><path id="path3920" fill="#fff" fill-opacity="1" fill-rule="nonzero" stroke="none" stroke-width="1" d="M 6.5,4.5 2,8 6.5,11 2,15 11,21 20,15 15.5,11 20,8 15.5,4.5 11,8 6.5,4.5 z M 7,9 l 2,0 1,0 0,1 0,2 -1,0 0,-1.3125 C 8.443283,11.122852 8,11.829952 8,13 c 0,3 3,3 3,3 l 0,1 c 0,0 -4,0 -4,-4 0,-1.482632 0.558291,-2.412772 1.25,-3 L 7,10 7,9 z m 4,0 c 0,0 4,0 4,4 0,1.482632 -0.558292,2.412772 -1.25,3 l 1.25,0 0,1 -2,0 -1,0 0,-1 0,-2 1,0 0,1.3125 C 13.556717,14.877148 14,14.170048 14,13 14,10 11,10 11,10 l 0,-1 z" color="#000" display="inline" enable-background="accumulate" opacity=".6" overflow="visible" transform="translate(0,-6)" visibility="visible" style="marker:none"/><path id="path3887" fill="url(#linearGradient3913)" fill-opacity="1" fill-rule="nonzero" stroke="none" stroke-width="1" d="M 6.5,3.5 2,7 6.5,10 2,14 11,20 20,14 15.5,10 20,7 15.5,3.5 11,7 6.5,3.5 z M 7,8 l 2,0 1,0 0,1 0,2 -1,0 0,-1.3125 C 8.443283,10.122852 8,10.829952 8,12 c 0,3 3,3 3,3 l 0,1 C 11,16 7,16 7,12 7,10.517368 7.558291,9.587228 8.25,9 L 7,9 7,8 z m 4,0 c 0,0 4,0 4,4 0,1.482632 -0.558292,2.412772 -1.25,3 l 1.25,0 0,1 -2,0 -1,0 0,-1 0,-2 1,0 0,1.3125 C 13.556717,13.877148 14,13.170048 14,12 14,9 11,9 11,9 l 0,-1 z" color="#000" display="inline" enable-background="accumulate" opacity=".7" overflow="visible" transform="translate(0,-6)" visibility="visible" style="marker:none"/></g></svg>