<svg xmlns="http://www.w3.org/2000/svg" xmlns:svg="http://www.w3.org/2000/svg" xmlns:xlink="http://www.w3.org/1999/xlink" id="svg3218" width="22" height="22" version="1.0"><metadata id="metadata20"/><defs id="defs3220"><linearGradient id="linearGradient3587-6-5-3"><stop id="stop3589-9-2-2" offset="0" stop-color="#000" stop-opacity="1"/><stop id="stop3591-7-4-73" offset="1" stop-color="#363636" stop-opacity="1"/></linearGradient><linearGradient id="linearGradient2396" x1="95.495" x2="95.495" y1="7.182" y2="34.699" gradientTransform="matrix(0.4101105,0,0,0.5452071,-33.509578,0.0845009)" gradientUnits="userSpaceOnUse" xlink:href="#linearGradient3587-6-5-3"/><linearGradient id="linearGradient2401" x1="41.735" x2="41.735" y1="3.948" y2="20.989" gradientTransform="translate(-24.710843,-1.9586168)" gradientUnits="userSpaceOnUse" xlink:href="#linearGradient3587-6-5-3"/><linearGradient id="linearGradient2404" x1="121.7" x2="121.7" y1="10.85" y2="31.026" gradientTransform="matrix(0.4101105,0,0,0.1982571,-33.509578,10.848909)" gradientUnits="userSpaceOnUse" xlink:href="#linearGradient3587-6-5-3"/></defs><rect stroke-miterlimit="4" style="marker:none" id="rect3236" width="12.5" height="5.5" x="-17.75" y="13.25" fill="none" stroke="#000" stroke-dasharray="none" stroke-dashoffset="0" stroke-linecap="round" stroke-linejoin="miter" stroke-opacity="1" stroke-width=".5" display="inline" enable-background="accumulate" opacity=".3" overflow="visible" rx=".25" ry=".25" transform="matrix(0,-1,1,0,0,0)" visibility="visible"/><rect id="rect3296" width="4" height="4" x="14" y="14" fill="#fff" fill-opacity="1" fill-rule="nonzero" stroke="none" stroke-width="1" display="inline" enable-background="accumulate" opacity=".6" overflow="visible" rx="0" ry="0" visibility="visible" style="marker:none"/><path id="path3214" fill="none" stroke="#fff" stroke-dasharray="none" stroke-dashoffset="0" stroke-linecap="round" stroke-linejoin="miter" stroke-miterlimit="4" stroke-opacity="1" stroke-width="1" d="m 12.5,18.5 0,-12 c 0,-0.554 0.446,-1 1,-1 l 5,0 c 0.554,0 1,0.446 1,1 l 0,12 c 0,0.554 -0.446,1 -1,1 l -5,0 c -0.554,0 -1,-0.446 -1,-1 z M 14.50264,5.381549 c 7e-4,-0.32804 0.0015,-0.656076 0.0025,-0.984108 0.04076,-0.597825 0.649596,-0.976733 1.212194,-0.897474 0.532922,0.023433 1.176896,-0.124121 1.554865,0.363195 0.350761,0.438478 0.191405,1.0212 0.227797,1.537207" display="inline" enable-background="accumulate" opacity=".6" overflow="visible" visibility="visible" style="marker:none"/><rect id="rect3728" width="4" height="4" x="14" y="13" fill="url(#linearGradient2404)" fill-opacity="1" fill-rule="nonzero" stroke="none" stroke-width="1" display="inline" enable-background="accumulate" opacity=".7" overflow="visible" rx="0" ry="0" visibility="visible" style="marker:none"/><path id="rect2442" fill="none" stroke="url(#linearGradient2401)" stroke-dasharray="none" stroke-dashoffset="0" stroke-linecap="round" stroke-linejoin="miter" stroke-miterlimit="4" stroke-opacity="1" stroke-width="1" d="m 12.5,17.5 0,-12 c 0,-0.554 0.446,-1 1,-1 l 5,0 c 0.554,0 1,0.446 1,1 l 0,12 c 0,0.554 -0.446,1 -1,1 l -5,0 c -0.554,0 -1,-0.446 -1,-1 z M 14.50264,4.381549 c 7e-4,-0.32804 0.0015,-0.656076 0.0025,-0.984108 0.04076,-0.597825 0.649596,-0.976733 1.212194,-0.897474 0.532922,0.023433 1.176896,-0.124121 1.554865,0.363195 0.350761,0.438478 0.191405,1.0212 0.227797,1.537207" display="inline" enable-background="accumulate" opacity=".7" overflow="visible" visibility="visible" style="marker:none"/><rect stroke-miterlimit="4" style="marker:none" id="rect3204" width="7.5" height="5.5" x="-12.75" y="3.25" fill="none" stroke="#000" stroke-dasharray="none" stroke-dashoffset="0" stroke-linecap="round" stroke-linejoin="miter" stroke-opacity="1" stroke-width=".5" display="inline" enable-background="accumulate" opacity=".3" overflow="visible" rx=".25" ry=".25" transform="matrix(0,-1,1,0,0,0)" visibility="visible"/><path id="path2442" fill="#fff" fill-opacity="1" fill-rule="nonzero" stroke="none" stroke-width="1" d="M 3,5 C 2.446,5 2,5.446 2,6 l 0,13 c 0,0.554 0.446,1 1,1 l 6,0 c 0.554,0 1,-0.446 1,-1 L 10,6 C 10,5.446 9.554,5 9,5 L 3,5 z m 0.5,1 5,0 C 8.777,6 9,6.223 9,6.5 l 0,7 C 9,13.777 8.777,14 8.5,14 l -5,0 C 3.223,14 3,13.777 3,13.5 l 0,-7 C 3,6.223 3.223,6 3.5,6 z m 0,10 C 3.777,16 4,16.223 4,16.5 4,16.777 3.777,17 3.5,17 3.223,17 3,16.777 3,16.5 3,16.223 3.223,16 3.5,16 z m 2,0 C 5.777,16 6,16.223 6,16.5 6,16.223 6.223,16 6.5,16 6.777,16 7,16.223 7,16.5 7,16.777 6.777,17 6.5,17 6.223,17 6,16.777 6,16.5 6,16.777 5.777,17 5.5,17 5.223,17 5,16.777 5,16.5 5,16.223 5.223,16 5.5,16 z m 3,0 C 8.777,16 9,16.223 9,16.5 9,16.777 8.777,17 8.5,17 8.223,17 8,16.777 8,16.5 8,16.223 8.223,16 8.5,16 z m -5,2 C 3.777,18 4,18.223 4,18.5 4,18.777 3.777,19 3.5,19 3.223,19 3,18.777 3,18.5 3,18.223 3.223,18 3.5,18 z m 2,0 C 5.777,18 6,18.223 6,18.5 6,18.223 6.223,18 6.5,18 6.777,18 7,18.223 7,18.5 7,18.777 6.777,19 6.5,19 6.223,19 6,18.777 6,18.5 6,18.777 5.777,19 5.5,19 5.223,19 5,18.777 5,18.5 5,18.223 5.223,18 5.5,18 z m 3,0 C 8.777,18 9,18.223 9,18.5 9,18.777 8.777,19 8.5,19 8.223,19 8,18.777 8,18.5 8,18.223 8.223,18 8.5,18 z" display="inline" enable-background="accumulate" opacity=".6" overflow="visible" visibility="visible" style="marker:none"/><path id="rect2397" fill="url(#linearGradient2396)" fill-opacity="1" fill-rule="nonzero" stroke="none" stroke-width="1" d="M 3,4 C 2.446,4 2,4.446 2,5 l 0,13 c 0,0.554 0.446,1 1,1 l 6,0 c 0.554,0 1,-0.446 1,-1 L 10,5 C 10,4.446 9.554,4 9,4 L 3,4 z m 0.5,1 5,0 C 8.777,5 9,5.223 9,5.5 l 0,7 C 9,12.777 8.777,13 8.5,13 l -5,0 C 3.223,13 3,12.777 3,12.5 l 0,-7 C 3,5.223 3.223,5 3.5,5 z m 0,10 C 3.777,15 4,15.223 4,15.5 4,15.777 3.777,16 3.5,16 3.223,16 3,15.777 3,15.5 3,15.223 3.223,15 3.5,15 z m 2,0 C 5.777,15 6,15.223 6,15.5 6,15.223 6.223,15 6.5,15 6.777,15 7,15.223 7,15.5 7,15.777 6.777,16 6.5,16 6.223,16 6,15.777 6,15.5 6,15.777 5.777,16 5.5,16 5.223,16 5,15.777 5,15.5 5,15.223 5.223,15 5.5,15 z m 3,0 C 8.777,15 9,15.223 9,15.5 9,15.777 8.777,16 8.5,16 8.223,16 8,15.777 8,15.5 8,15.223 8.223,15 8.5,15 z m -5,2 C 3.777,17 4,17.223 4,17.5 4,17.777 3.777,18 3.5,18 3.223,18 3,17.777 3,17.5 3,17.223 3.223,17 3.5,17 z m 2,0 C 5.777,17 6,17.223 6,17.5 6,17.223 6.223,17 6.5,17 6.777,17 7,17.223 7,17.5 7,17.777 6.777,18 6.5,18 6.223,18 6,17.777 6,17.5 6,17.777 5.777,18 5.5,18 5.223,18 5,17.777 5,17.5 5,17.223 5.223,17 5.5,17 z m 3,0 C 8.777,17 9,17.223 9,17.5 9,17.777 8.777,18 8.5,18 8.223,18 8,17.777 8,17.5 8,17.223 8.223,17 8.5,17 z" display="inline" enable-background="accumulate" opacity=".7" overflow="visible" visibility="visible" style="marker:none"/></svg>