<svg xmlns="http://www.w3.org/2000/svg" xmlns:svg="http://www.w3.org/2000/svg" xmlns:xlink="http://www.w3.org/1999/xlink" id="svg3382" width="22" height="22" version="1.0"><metadata id="metadata22"/><defs id="defs3384"><linearGradient id="linearGradient3187"><stop id="stop3189" offset="0" stop-color="#a60000" stop-opacity="1"/><stop id="stop3191" offset="1" stop-color="#ff1313" stop-opacity="1"/></linearGradient><linearGradient id="linearGradient3587-6-5-3"><stop id="stop3589-9-2-2" offset="0" stop-color="#000" stop-opacity="1"/><stop id="stop3591-7-4-73" offset="1" stop-color="#363636" stop-opacity="1"/></linearGradient><linearGradient id="linearGradient2398" x1="7.289" x2="7.289" y1="5" y2="20.011" gradientTransform="translate(-1,-1)" gradientUnits="userSpaceOnUse" xlink:href="#linearGradient3587-6-5-3"/><linearGradient id="linearGradient2402" x1="41.735" x2="41.735" y1="3.948" y2="20.989" gradientTransform="translate(-24.710843,-1.9586168)" gradientUnits="userSpaceOnUse" xlink:href="#linearGradient3587-6-5-3"/><linearGradient id="linearGradient2405" x1="121.7" x2="121.7" y1="10.85" y2="31.026" gradientTransform="matrix(0.4101105,0,0,0.09912855,-33.509578,13.924455)" gradientUnits="userSpaceOnUse" xlink:href="#linearGradient3187"/></defs><rect stroke-miterlimit="4" style="marker:none" id="rect3236" width="12.5" height="5.5" x="-17.75" y="13.25" fill="none" stroke="#000" stroke-dasharray="none" stroke-dashoffset="0" stroke-linecap="round" stroke-linejoin="miter" stroke-opacity="1" stroke-width=".5" display="inline" enable-background="accumulate" opacity=".3" overflow="visible" rx=".25" ry=".25" transform="matrix(0,-1,1,0,0,0)" visibility="visible"/><rect id="rect3296" width="4" height="2" x="14" y="16" fill="#fff" fill-opacity="1" fill-rule="nonzero" stroke="none" stroke-width="1" display="inline" enable-background="accumulate" opacity=".6" overflow="visible" rx="0" ry="0" visibility="visible" style="marker:none"/><path id="path3214" fill="none" stroke="#fff" stroke-dasharray="none" stroke-dashoffset="0" stroke-linecap="round" stroke-linejoin="miter" stroke-miterlimit="4" stroke-opacity="1" stroke-width="1" d="m 12.5,18.5 0,-12 c 0,-0.554 0.446,-1 1,-1 l 5,0 c 0.554,0 1,0.446 1,1 l 0,12 c 0,0.554 -0.446,1 -1,1 l -5,0 c -0.554,0 -1,-0.446 -1,-1 z M 14.50264,5.381549 c 7e-4,-0.32804 0.0015,-0.656076 0.0025,-0.984108 0.04076,-0.597825 0.649596,-0.976733 1.212194,-0.897474 0.532922,0.023433 1.176896,-0.124121 1.554865,0.363195 0.350761,0.438478 0.191405,1.0212 0.227797,1.537207" display="inline" enable-background="accumulate" opacity=".6" overflow="visible" visibility="visible" style="marker:none"/><rect id="rect3728" width="4" height="2" x="14" y="15" fill="url(#linearGradient2405)" fill-opacity="1" fill-rule="nonzero" stroke="none" stroke-width="1" display="inline" enable-background="accumulate" opacity=".8" overflow="visible" rx="0" ry="0" visibility="visible" style="marker:none"/><path id="rect2442" fill="none" stroke="url(#linearGradient2402)" stroke-dasharray="none" stroke-dashoffset="0" stroke-linecap="round" stroke-linejoin="miter" stroke-miterlimit="4" stroke-opacity="1" stroke-width="1" d="m 12.5,17.5 0,-12 c 0,-0.554 0.446,-1 1,-1 l 5,0 c 0.554,0 1,0.446 1,1 l 0,12 c 0,0.554 -0.446,1 -1,1 l -5,0 c -0.554,0 -1,-0.446 -1,-1 z M 14.50264,4.381549 c 7e-4,-0.32804 0.0015,-0.656076 0.0025,-0.984108 0.04076,-0.597825 0.649596,-0.976733 1.212194,-0.897474 0.532922,0.023433 1.176896,-0.124121 1.554865,0.363195 0.350761,0.438478 0.191405,1.0212 0.227797,1.537207" display="inline" enable-background="accumulate" opacity=".7" overflow="visible" visibility="visible" style="marker:none"/><path id="path2424" fill="#fff" fill-opacity="1" fill-rule="evenodd" stroke="none" stroke-width="1.7" d="M 3,5 C 2.446,5 2,5.446 2,6 l 0,13 c 0,0.554 0.446,1 1,1 l 6,0 c 0.554,0 1,-0.446 1,-1 L 10,6 C 10,5.446 9.554,5 9,5 L 3,5 z M 3,8 4,8 4,9 3,9 3,8 z M 5,8 6,8 6,9 5,9 5,8 z m 3,1 1,0 0,7 -1,0 0,-7 z m -5,1 1,0 0,1 -1,0 0,-1 z m 2,0 1,0 0,1 -1,0 0,-1 z m -2,2 1,0 0,1 -1,0 0,-1 z m 2,0 1,0 0,1 -1,0 0,-1 z m -2,2 1,0 0,1 -1,0 0,-1 z m 2,0 1,0 0,1 -1,0 0,-1 z m -2,2 1,0 0,1 -1,0 0,-1 z m 2,0 1,0 0,1 -1,0 0,-1 z" display="inline" enable-background="accumulate" opacity=".6" overflow="visible" visibility="visible" style="marker:none"/><path id="path2408" fill="url(#linearGradient2398)" fill-opacity="1" fill-rule="evenodd" stroke="none" stroke-width="1.7" d="M 3,4 C 2.446,4 2,4.446 2,5 l 0,13 c 0,0.554 0.446,1 1,1 l 6,0 c 0.554,0 1,-0.446 1,-1 L 10,5 C 10,4.446 9.554,4 9,4 L 3,4 z M 3,7 4,7 4,8 3,8 3,7 z M 5,7 6,7 6,8 5,8 5,7 z M 8,8 9,8 9,15 8,15 8,8 z M 3,9 4,9 4,10 3,10 3,9 z m 2,0 1,0 0,1 -1,0 0,-1 z m -2,2 1,0 0,1 -1,0 0,-1 z m 2,0 1,0 0,1 -1,0 0,-1 z m -2,2 1,0 0,1 -1,0 0,-1 z m 2,0 1,0 0,1 -1,0 0,-1 z m -2,2 1,0 0,1 -1,0 0,-1 z m 2,0 1,0 0,1 -1,0 0,-1 z" display="inline" enable-background="accumulate" opacity=".7" overflow="visible" visibility="visible" style="marker:none"/></svg>