<svg xmlns="http://www.w3.org/2000/svg" xmlns:svg="http://www.w3.org/2000/svg" xmlns:xlink="http://www.w3.org/1999/xlink" id="svg3887" width="14" height="22" version="1.1"><metadata id="metadata25"/><defs id="defs3889"><linearGradient id="linearGradient3587-6-5-3-4-7"><stop id="stop3589-9-2-2-8-2" offset="0" stop-color="#000" stop-opacity="1"/><stop id="stop3591-7-4-73-1-8" offset="1" stop-color="#363636" stop-opacity="1"/></linearGradient><linearGradient id="linearGradient3587-6-5-3-2-7"><stop id="stop3589-9-2-2-2-7" offset="0" stop-color="#000" stop-opacity="1"/><stop id="stop3591-7-4-73-6-9" offset="1" stop-color="#363636" stop-opacity="1"/></linearGradient><linearGradient id="linearGradient3587-6-5-3-2-7-2"><stop id="stop3589-9-2-2-2-7-2" offset="0" stop-color="#000" stop-opacity="1"/><stop id="stop3591-7-4-73-6-9-9" offset="1" stop-color="#363636" stop-opacity="1"/></linearGradient><linearGradient id="linearGradient2836" x1="51.78" x2="51.78" y1="7.258" y2="31.112" gradientTransform="matrix(0.4101105,0,0,0.5452071,-13.798734,1.0431177)" gradientUnits="userSpaceOnUse" xlink:href="#linearGradient3587-6-5-3-4-7"/><linearGradient id="linearGradient2843" x1="12" x2="12" y1="1.99" y2="21" gradientTransform="translate(-5,-1.0000003)" gradientUnits="userSpaceOnUse" xlink:href="#linearGradient3587-6-5-3-2-7"/><linearGradient id="linearGradient2852" x1="51.78" x2="51.78" y1="7.258" y2="31.112" gradientTransform="matrix(0.4101105,0,0,0.20969504,-13.798735,11.478122)" gradientUnits="userSpaceOnUse" xlink:href="#linearGradient3587-6-5-3-2-7-2"/></defs><path id="path3208-6" fill="none" stroke="#fff" stroke-dashoffset="0" stroke-linecap="round" stroke-linejoin="miter" stroke-miterlimit="4" stroke-opacity="1" stroke-width="1" d="m 2.5,19.5 0,-14.0000003 c 0,-0.554 0.446,-1 1,-1 l 7,0 c 0.554,0 1,0.446 1,1 L 11.5,19.5 c 0,0.554 -0.446,1 -1,1 l -7,0 c -0.554,0 -1,-0.446 -1,-1 z M 5.50264,4.3815487 c 7e-4,-0.32804 0.00153,-0.656076 0.0025,-0.984108 0.040761,-0.597825 0.6496,-0.976733 1.212198,-0.897474 0.532922,0.023433 1.176896,-0.124121 1.554865,0.363195 0.350761,0.438478 0.191405,1.0212 0.227797,1.537207" display="inline" enable-background="accumulate" opacity=".6" overflow="visible" visibility="visible" style="marker:none"/><rect id="rect3236-1" width="14.5" height="7.5" x="-18.75" y="3.25" fill="none" stroke="#000" stroke-dasharray="none" stroke-dashoffset="0" stroke-linecap="round" stroke-linejoin="miter" stroke-miterlimit="4" stroke-opacity="1" stroke-width=".5" display="inline" enable-background="accumulate" opacity=".2" overflow="visible" rx=".25" ry=".25" transform="matrix(0,-1,1,0,0,0)" visibility="visible" style="marker:none"/><path id="rect2442-9" fill="none" stroke="url(#linearGradient2843)" stroke-dashoffset="0" stroke-linecap="round" stroke-linejoin="miter" stroke-miterlimit="4" stroke-opacity="1" stroke-width="1" d="m 2.5,18.5 0,-14.0000003 c 0,-0.554 0.446,-1 1,-1 l 7,0 c 0.554,0 1,0.446 1,1 L 11.5,18.5 c 0,0.554 -0.446,1 -1,1 l -7,0 c -0.554,0 -1,-0.446 -1,-1 z M 5.50264,3.3815487 c 7e-4,-0.32804 0.00153,-0.656076 0.0025,-0.984108 0.040761,-0.597825 0.6496,-0.976733 1.212198,-0.897474 0.532922,0.023433 1.176896,-0.124121 1.554865,0.363195 0.350761,0.438478 0.191405,1.0212 0.227797,1.537207" display="inline" enable-background="accumulate" opacity=".7" overflow="visible" visibility="visible" style="marker:none"/><rect id="rect3965-9" width="6" height="5" x="4" y="14" fill="#fff" fill-opacity="1" fill-rule="nonzero" stroke="none" stroke-width="1" color="#000" display="inline" enable-background="accumulate" opacity=".3" overflow="visible" rx=".25" ry="0" visibility="visible" style="marker:none"/><rect id="rect3965" width="6" height="5" x="4" y="13" fill="url(#linearGradient2852)" fill-opacity="1" fill-rule="nonzero" stroke="none" stroke-width="1" color="#000" display="inline" enable-background="accumulate" opacity=".35" overflow="visible" rx=".25" ry="0" visibility="visible" style="marker:none"/><path id="path3172-0" fill="#fff" fill-opacity="1" fill-rule="nonzero" stroke="none" stroke-width="1" d="m 10.055385,5.972 -7.0000002,6.999999 4.0000002,0 -3.0000002,6.000001 7.0000002,-8.000001 -3,0 2,-4.999999 z" display="inline" enable-background="accumulate" opacity=".4" overflow="visible" visibility="visible" style="marker:none"/><path id="path3172" fill="url(#linearGradient2836)" fill-opacity="1" fill-rule="nonzero" stroke="none" stroke-width="1" d="m 10.055385,4.972344 -7.0000002,6.999999 4.0000002,0 -3.0000002,6.000001 7.0000002,-8.000001 -3,0 2,-4.999999 z" display="inline" enable-background="accumulate" opacity=".7" overflow="visible" visibility="visible" style="marker:none"/></svg>