<svg xmlns="http://www.w3.org/2000/svg" xmlns:svg="http://www.w3.org/2000/svg" xmlns:xlink="http://www.w3.org/1999/xlink" id="svg3218" width="22" height="22" version="1.0"><metadata id="metadata20"/><defs id="defs3220"><linearGradient id="linearGradient3587-6-5-3"><stop id="stop3589-9-2-2" offset="0" stop-color="#000" stop-opacity="1"/><stop id="stop3591-7-4-73" offset="1" stop-color="#363636" stop-opacity="1"/></linearGradient><linearGradient id="linearGradient2401" x1="41.735" x2="41.735" y1="3.948" y2="20.989" gradientTransform="translate(-24.710843,-1.9586168)" gradientUnits="userSpaceOnUse" xlink:href="#linearGradient3587-6-5-3"/><linearGradient id="linearGradient2404" x1="121.7" x2="121.7" y1="10.85" y2="31.026" gradientTransform="matrix(0.4101105,0,0,0.5452071,-33.509578,8.45009e-2)" gradientUnits="userSpaceOnUse" xlink:href="#linearGradient3587-6-5-3"/><linearGradient id="linearGradient3860" x1="95.495" x2="95.495" y1="7.182" y2="34.699" gradientTransform="matrix(0.4101105,0,0,0.5452071,-33.509578,0.0845009)" gradientUnits="userSpaceOnUse" xlink:href="#linearGradient3587-6-5-3"/></defs><path id="rect2397-5" fill="#fff" fill-opacity="1" fill-rule="nonzero" stroke="none" stroke-width="1" d="M 3,5 C 2.446,5 2,5.446 2,6 l 0,13 c 0,0.554 0.446,1 1,1 l 6,0 c 0.554,0 1,-0.446 1,-1 L 10,6 C 10,5.446 9.554,5 9,5 L 3,5 z m 2.25,1 1.5,0 C 6.8885,6 7,6.1115 7,6.25 7,6.3885 6.8885,6.5 6.75,6.5 l -1.5,0 C 5.1115,6.5 5,6.3885 5,6.25 5,6.1115 5.1115,6 5.25,6 z M 3.5,8 8.5,8 C 8.777,8 9,8.223 9,8.5 l 0,8 C 9,16.777 8.777,17 8.5,17 l -5,0 C 3.223,17 3,16.777 3,16.5 l 0,-8 C 3,8.223 3.223,8 3.5,8 z M 6,18 c 0.2761424,0 0.5,0.223858 0.5,0.5 C 6.5,18.776142 6.2761424,19 6,19 5.7238576,19 5.5,18.776142 5.5,18.5 5.5,18.223858 5.7238576,18 6,18 z" display="inline" enable-background="accumulate" opacity=".6" overflow="visible" visibility="visible" style="marker:none"/><rect id="rect3236" width="12.5" height="5.5" x="-17.75" y="13.25" fill="none" fill-opacity="1" fill-rule="nonzero" stroke="#000" stroke-dasharray="none" stroke-dashoffset="0" stroke-linecap="round" stroke-linejoin="miter" stroke-miterlimit="4" stroke-opacity="1" stroke-width=".5" marker-end="none" marker-mid="none" marker-start="none" display="inline" enable-background="accumulate" opacity=".3" overflow="visible" rx=".25" ry=".25" transform="matrix(0,-1,1,0,0,0)" visibility="visible" style="marker:none"/><rect stroke-miterlimit="4" style="marker:none" id="rect3296" width="4" height="11" x="14" y="7" fill="#fff" fill-opacity="1" fill-rule="nonzero" stroke="none" stroke-dasharray="none" stroke-dashoffset="0" stroke-linecap="butt" stroke-linejoin="miter" stroke-opacity="1" stroke-width="1" marker-end="none" marker-mid="none" marker-start="none" display="inline" enable-background="accumulate" opacity=".6" overflow="visible" rx="0" ry="0" visibility="visible"/><path id="path3214" fill="none" fill-opacity="1" fill-rule="nonzero" stroke="#fff" stroke-dasharray="none" stroke-dashoffset="0" stroke-linecap="round" stroke-linejoin="miter" stroke-miterlimit="4" stroke-opacity="1" stroke-width="1" marker-end="none" marker-mid="none" marker-start="none" d="M 12.5,18.5 L 12.5,6.5 C 12.5,5.946 12.946,5.5 13.5,5.5 L 18.5,5.5 C 19.054,5.5 19.5,5.946 19.5,6.5 L 19.5,18.5 C 19.5,19.054 19.054,19.5 18.5,19.5 L 13.5,19.5 C 12.946,19.5 12.5,19.054 12.5,18.5 z M 14.50264,5.381549 C 14.50334,5.053509 14.504168,4.725473 14.505144,4.397441 C 14.545901,3.799616 15.15474,3.420708 15.717338,3.499967 C 16.25026,3.5234 16.894234,3.375846 17.272203,3.863162 C 17.622964,4.30164 17.463608,4.884362 17.5,5.400369" display="inline" enable-background="accumulate" opacity=".6" overflow="visible" visibility="visible" style="marker:none"/><rect stroke-miterlimit="4" style="marker:none" id="rect3728" width="4" height="11" x="14" y="6" fill="url(#linearGradient2404)" fill-opacity="1" fill-rule="nonzero" stroke="none" stroke-dasharray="none" stroke-dashoffset="0" stroke-linecap="butt" stroke-linejoin="miter" stroke-opacity="1" stroke-width="1" marker-end="none" marker-mid="none" marker-start="none" display="inline" enable-background="accumulate" opacity=".7" overflow="visible" rx="0" ry="0" visibility="visible"/><path id="rect2442" fill="none" fill-opacity="1" fill-rule="nonzero" stroke="url(#linearGradient2401)" stroke-dasharray="none" stroke-dashoffset="0" stroke-linecap="round" stroke-linejoin="miter" stroke-miterlimit="4" stroke-opacity="1" stroke-width="1" marker-end="none" marker-mid="none" marker-start="none" d="M 12.5,17.5 L 12.5,5.5 C 12.5,4.946 12.946,4.5 13.5,4.5 L 18.5,4.5 C 19.054,4.5 19.5,4.946 19.5,5.5 L 19.5,17.5 C 19.5,18.054 19.054,18.5 18.5,18.5 L 13.5,18.5 C 12.946,18.5 12.5,18.054 12.5,17.5 z M 14.50264,4.381549 C 14.50334,4.053509 14.504168,3.725473 14.505144,3.397441 C 14.545901,2.799616 15.15474,2.420708 15.717338,2.499967 C 16.25026,2.5234 16.894234,2.375846 17.272203,2.863162 C 17.622964,3.30164 17.463608,3.884362 17.5,4.400369" display="inline" enable-background="accumulate" opacity=".7" overflow="visible" visibility="visible" style="marker:none"/><path id="rect2397" fill="url(#linearGradient3860)" fill-opacity="1" fill-rule="nonzero" stroke="none" stroke-width="1" d="M 3 4 C 2.446 4 2 4.446 2 5 L 2 18 C 2 18.554 2.446 19 3 19 L 9 19 C 9.554 19 10 18.554 10 18 L 10 5 C 10 4.446 9.554 4 9 4 L 3 4 z M 5.25 5 L 6.75 5 C 6.8885 5 7 5.1115 7 5.25 C 7 5.3885 6.8885 5.5 6.75 5.5 L 5.25 5.5 C 5.1115 5.5 5 5.3885 5 5.25 C 5 5.1115 5.1115 5 5.25 5 z M 3.5 7 L 8.5 7 C 8.777 7 9 7.223 9 7.5 L 9 15.5 C 9 15.777 8.777 16 8.5 16 L 3.5 16 C 3.223 16 3 15.777 3 15.5 L 3 7.5 C 3 7.223 3.223 7 3.5 7 z M 6 17 C 6.2761424 17 6.5 17.223858 6.5 17.5 C 6.5 17.776142 6.2761424 18 6 18 C 5.7238576 18 5.5 17.776142 5.5 17.5 C 5.5 17.223858 5.7238576 17 6 17 z" display="inline" enable-background="accumulate" opacity=".7" overflow="visible" visibility="visible" style="marker:none"/></svg>