<svg xmlns="http://www.w3.org/2000/svg" xmlns:svg="http://www.w3.org/2000/svg" xmlns:xlink="http://www.w3.org/1999/xlink" id="svg3887" width="14" height="22" version="1.1"><metadata id="metadata27"/><defs id="defs3889"><linearGradient id="linearGradient3848" x1="51.78" x2="51.78" y1="7.258" y2="31.112" gradientTransform="matrix(0.4101105,0,0,0.5452071,-9.798734,-4.9568823)" gradientUnits="userSpaceOnUse" xlink:href="#linearGradient3587-6-5-3-4-7"/><linearGradient id="linearGradient3587-6-5-3-4-7"><stop id="stop3589-9-2-2-8-2" offset="0" stop-color="#000" stop-opacity="1"/><stop id="stop3591-7-4-73-1-8" offset="1" stop-color="#363636" stop-opacity="1"/></linearGradient><linearGradient id="linearGradient2893-1" x1="12" x2="12" y1="1.99" y2="21" gradientTransform="translate(-1,-7.0000003)" gradientUnits="userSpaceOnUse" xlink:href="#linearGradient3587-6-5-3-2-7"/><linearGradient id="linearGradient3587-6-5-3-2-7"><stop id="stop3589-9-2-2-2-7" offset="0" stop-color="#000" stop-opacity="1"/><stop id="stop3591-7-4-73-6-9" offset="1" stop-color="#363636" stop-opacity="1"/></linearGradient><linearGradient id="linearGradient4478-1" x1="51.78" x2="51.78" y1="7.258" y2="31.112" gradientTransform="matrix(0.4101105,0,0,0.5452071,-9.798735,-4.9568826)" gradientUnits="userSpaceOnUse" xlink:href="#linearGradient3587-6-5-3-2-7-2"/><linearGradient id="linearGradient3587-6-5-3-2-7-2"><stop id="stop3589-9-2-2-2-7-2" offset="0" stop-color="#000" stop-opacity="1"/><stop id="stop3591-7-4-73-6-9-9" offset="1" stop-color="#363636" stop-opacity="1"/></linearGradient></defs><g id="layer1" transform="translate(-4,6)"><path id="path3208-6" fill="none" stroke="#fff" stroke-dashoffset="0" stroke-linecap="round" stroke-linejoin="miter" stroke-miterlimit="4" stroke-opacity="1" stroke-width="1" d="m 6.5,13.5 0,-14.0000003 c 0,-0.554 0.446,-1 1,-1 l 7,0 c 0.554,0 1,0.446 1,1 L 15.5,13.5 c 0,0.554 -0.446,1 -1,1 l -7,0 c -0.554,0 -1,-0.446 -1,-1 z M 9.50264,-1.6184513 c 7e-4,-0.32804 0.00153,-0.656076 0.0025,-0.984108 0.040761,-0.597825 0.6496,-0.976733 1.212198,-0.897474 0.532922,0.023433 1.176896,-0.124121 1.554865,0.363195 0.350761,0.438478 0.191405,1.0212 0.227797,1.537207" display="inline" enable-background="accumulate" opacity=".6" overflow="visible" visibility="visible" style="marker:none"/><rect id="rect3236-1" width="14.5" height="7.5" x="-12.75" y="7.25" fill="none" stroke="#000" stroke-dasharray="none" stroke-dashoffset="0" stroke-linecap="round" stroke-linejoin="miter" stroke-miterlimit="4" stroke-opacity="1" stroke-width=".5" display="inline" enable-background="accumulate" opacity=".2" overflow="visible" rx=".25" ry=".25" transform="matrix(0,-1,1,0,0,0)" visibility="visible" style="marker:none"/><path id="rect2442-9" fill="none" stroke="url(#linearGradient2893-1)" stroke-dashoffset="0" stroke-linecap="round" stroke-linejoin="miter" stroke-miterlimit="4" stroke-opacity="1" stroke-width="1" d="m 6.5,12.5 0,-14.0000003 c 0,-0.554 0.446,-1 1,-1 l 7,0 c 0.554,0 1,0.446 1,1 L 15.5,12.5 c 0,0.554 -0.446,1 -1,1 l -7,0 c -0.554,0 -1,-0.446 -1,-1 z M 9.50264,-2.6184513 c 7e-4,-0.32804 0.00153,-0.656076 0.0025,-0.984108 0.040761,-0.597825 0.6496,-0.976733 1.212198,-0.897474 0.532922,0.023433 1.176896,-0.124121 1.554865,0.363195 0.350761,0.438478 0.191405,1.0212 0.227797,1.537207" display="inline" enable-background="accumulate" opacity=".7" overflow="visible" visibility="visible" style="marker:none"/><g id="g3611" opacity=".5"><rect id="rect3965-9" width="6" height="13" x="8" y="0" fill="#fff" fill-opacity="1" fill-rule="nonzero" stroke="none" stroke-width="1" color="#000" display="inline" enable-background="accumulate" opacity=".6" overflow="visible" rx=".25" ry="0" visibility="visible" style="marker:none"/><rect id="rect3965" width="6" height="13" x="8" y="-1" fill="url(#linearGradient4478-1)" fill-opacity="1" fill-rule="nonzero" stroke="none" stroke-width="1" color="#000" display="inline" enable-background="accumulate" opacity=".7" overflow="visible" rx=".25" ry="0" visibility="visible" style="marker:none"/></g><path id="path3172-0" fill="#fff" fill-opacity="1" fill-rule="nonzero" stroke="none" stroke-width="1" d="m 14.055385,-0.028 -7.0000002,6.999999 4.0000002,0 -3.0000002,6.000001 7.0000002,-8.000001 -3,0 2,-4.999999 z" display="inline" enable-background="accumulate" opacity=".4" overflow="visible" visibility="visible" style="marker:none"/><path id="path3172" fill="url(#linearGradient3848)" fill-opacity="1" fill-rule="nonzero" stroke="none" stroke-width="1" d="m 14.055385,-1.027656 -7.0000002,6.999999 4.0000002,0 -3.0000002,6.000001 7.0000002,-8.000001 -3,0 2,-4.999999 z" display="inline" enable-background="accumulate" opacity=".7" overflow="visible" visibility="visible" style="marker:none"/></g></svg>