<svg xmlns="http://www.w3.org/2000/svg" xmlns:svg="http://www.w3.org/2000/svg" xmlns:xlink="http://www.w3.org/1999/xlink" id="svg3239" width="14" height="22" version="1.0"><metadata id="metadata17"/><defs id="defs3241"><linearGradient id="linearGradient3587-6-5-3"><stop id="stop3589-9-2-2" offset="0" stop-color="#000" stop-opacity="1"/><stop id="stop3591-7-4-73" offset="1" stop-color="#363636" stop-opacity="1"/></linearGradient><linearGradient id="linearGradient2392" x1="12" x2="12" y1="1.99" y2="21" gradientTransform="translate(-5,-1)" gradientUnits="userSpaceOnUse" xlink:href="#linearGradient3587-6-5-3"/><linearGradient id="linearGradient2395" x1="51.78" x2="51.78" y1="7.258" y2="31.112" gradientTransform="matrix(0.4101105,0,0,0.4193901,-13.798735,4.9562444)" gradientUnits="userSpaceOnUse" xlink:href="#linearGradient3587-6-5-3"/></defs><rect id="rect3206" width="6" height="10" x="4.05" y="9" fill="#fff" fill-opacity="1" fill-rule="nonzero" stroke="none" stroke-width="1" display="inline" enable-background="accumulate" opacity=".6" overflow="visible" rx=".5" ry=".5" visibility="visible" style="marker:none"/><rect id="rect3236" width="14.5" height="7.5" x="-18.75" y="3.25" fill="none" stroke="#000" stroke-dasharray="none" stroke-dashoffset="0" stroke-linecap="round" stroke-linejoin="miter" stroke-miterlimit="4" stroke-opacity="1" stroke-width=".5" display="inline" enable-background="accumulate" opacity=".3" overflow="visible" rx=".25" ry=".25" transform="matrix(0,-1,1,0,0,0)" visibility="visible" style="marker:none"/><path id="path3208" fill="none" stroke="#fff" stroke-dashoffset="0" stroke-linecap="round" stroke-linejoin="miter" stroke-miterlimit="4" stroke-opacity="1" stroke-width="1" d="m 2.5,19.5 0,-14 c 0,-0.554 0.446,-1 1,-1 l 7,0 c 0.554,0 1,0.446 1,1 l 0,14 c 0,0.554 -0.446,1 -1,1 l -7,0 c -0.554,0 -1,-0.446 -1,-1 z M 5.50264,4.381549 C 5.50334,4.053509 5.50417,3.725473 5.50514,3.397441 5.545901,2.799616 6.15474,2.420708 6.717338,2.499967 7.25026,2.5234 7.894234,2.375846 8.272203,2.863162 8.622964,3.30164 8.463608,3.884362 8.5,4.400369" display="inline" enable-background="accumulate" opacity=".6" overflow="visible" visibility="visible" style="marker:none"/><path id="rect3728" fill="url(#linearGradient2395)" fill-opacity="1" fill-rule="nonzero" stroke="none" stroke-width="1" d="M 4.0500002,8 C 6.05,8 8.05,8 10.05,8 c 0,3.333333 0,6.666667 0,10 -2,0 -4,0 -5.9999998,0 0,-3.333333 0,-6.666667 0,-10 z" display="inline" enable-background="accumulate" opacity=".7" overflow="visible" visibility="visible" style="marker:none"/><path id="rect2442" fill="none" stroke="url(#linearGradient2392)" stroke-dashoffset="0" stroke-linecap="round" stroke-linejoin="miter" stroke-miterlimit="4" stroke-opacity="1" stroke-width="1" d="m 2.5,18.5 0,-14 c 0,-0.554 0.446,-1 1,-1 l 7,0 c 0.554,0 1,0.446 1,1 l 0,14 c 0,0.554 -0.446,1 -1,1 l -7,0 c -0.554,0 -1,-0.446 -1,-1 z M 5.50264,3.381549 C 5.50334,3.053509 5.50417,2.725473 5.50514,2.397441 5.545901,1.799616 6.15474,1.420708 6.717338,1.499967 7.25026,1.5234 7.894234,1.375846 8.272203,1.863162 8.622964,2.30164 8.463608,2.884362 8.5,3.400369" display="inline" enable-background="accumulate" opacity=".7" overflow="visible" visibility="visible" style="marker:none"/></svg>