<svg xmlns="http://www.w3.org/2000/svg" xmlns:svg="http://www.w3.org/2000/svg" xmlns:xlink="http://www.w3.org/1999/xlink" id="svg3294" width="20" height="22" version="1.0"><metadata id="metadata15"/><defs id="defs3296"><linearGradient id="linearGradient3587-6-5"><stop id="stop3589-9-2" offset="0" stop-color="#000" stop-opacity="1"/><stop id="stop3591-7-4" offset="1" stop-color="#363636" stop-opacity="1"/></linearGradient><linearGradient id="linearGradient2993" x1="-33.806" x2="-33.806" y1="16" y2="19" gradientTransform="translate(43.805604,0)" gradientUnits="userSpaceOnUse" xlink:href="#linearGradient3587-6-5"/><linearGradient id="linearGradient2996" x1="-33.806" x2="-33.806" y1="3" y2="15.042" gradientTransform="translate(43.805604,0)" gradientUnits="userSpaceOnUse" xlink:href="#linearGradient3587-6-5"/></defs><path id="path3287" fill="#fff" fill-opacity="1" fill-rule="nonzero" stroke="none" stroke-width="1" d="M 3,4 C 2.446,4 2,4.4893865 2,5.09375 l 0,9.8125 C 2,15.510614 2.446,16 3,16 l 14,0 c 0.554,0 1,-0.489386 1,-1.09375 l 0,-9.8125 C 18,4.4893863 17.554,4 17,4 L 3,4 z m 1,2 12,0 0,8 -12,0 0,-8 z m 3,11 6,0 0,1 2,0 0,2 -10,0 0,-2 2,0 0,-1 z" display="inline" enable-background="accumulate" opacity=".6" overflow="visible" visibility="visible" style="marker:none"/><path id="rect2722" fill="url(#linearGradient2996)" fill-opacity="1" fill-rule="nonzero" stroke="none" stroke-width="1" d="M 3,3 C 2.446,3 2,3.4893865 2,4.09375 l 0,9.8125 C 2,14.510614 2.446,15 3,15 l 14,0 c 0.554,0 1,-0.489386 1,-1.09375 l 0,-9.8125 C 18,3.4893863 17.554,3 17,3 L 3,3 z m 1,2 12,0 0,8 -12,0 0,-8 z" display="inline" enable-background="accumulate" opacity=".7" overflow="visible" visibility="visible" style="marker:none"/><path id="path3271" fill="url(#linearGradient2993)" fill-opacity="1" fill-rule="nonzero" stroke="none" stroke-width="1" d="m 7,16 6,0 0,1 2,0 0,2 -10,0 0,-2 2,0 0,-1 z" display="inline" enable-background="accumulate" opacity=".7" overflow="visible" visibility="visible" style="marker:none"/></svg>