<svg xmlns="http://www.w3.org/2000/svg" xmlns:svg="http://www.w3.org/2000/svg" xmlns:xlink="http://www.w3.org/1999/xlink" id="svg3226" width="23" height="22" version="1.0"><metadata id="metadata16"/><defs id="defs3228"><linearGradient id="linearGradient3587-6-5"><stop id="stop3589-9-2" offset="0" stop-color="#000" stop-opacity="1"/><stop id="stop3591-7-4" offset="1" stop-color="#363636" stop-opacity="1"/></linearGradient><linearGradient id="linearGradient3878" x1="4.586" x2="4.586" y1="11.952" y2="20.535" gradientTransform="translate(-0.9591669,-1)" gradientUnits="userSpaceOnUse" xlink:href="#linearGradient3587-6-5"/><linearGradient id="linearGradient3881" x1="65.775" x2="65.775" y1="48.412" y2="9.183" gradientTransform="matrix(0.4101105,0,0,-0.4101105,-12.920728,22.852985)" gradientUnits="userSpaceOnUse" xlink:href="#linearGradient3587-6-5"/></defs><path id="path3220" fill="none" stroke="#fff" stroke-linecap="butt" stroke-linejoin="bevel" stroke-opacity="1" stroke-width="1" d="m 3.5434052,12.452023 0.041691,3.376929 m -5e-7,4.169048 0,-3.960596 L 0.5,12.493714 l 6.2535723,0 -3.1267862,3.585381" opacity=".6"/><g id="g3885" opacity=".4"><path id="path3218" fill="#fff" fill-opacity="1" fill-rule="nonzero" stroke="none" stroke-width="1" d="m 7.0504203,17.010548 2.0428338,0 0,3.001714 -2.0428338,0 0,-3.001714 0,0 z m 4.0308067,-4.002286 2.014309,0 0,7.004 -2.042833,0 0.02852,-7.004 4e-6,0 z m 3.973762,-4.002287 2.016321,0 -0.01517,11.006288 -2.001143,0 -8e-6,-11.006288 z m 6.00341,-5.0071616 0,16.0134486 -2.012613,0 0.02601,-16.0129257 1.986603,-5.229e-4 0,0 z" display="inline" enable-background="accumulate" opacity=".6" overflow="visible" visibility="visible" style="marker:none"/><path id="path3694" fill="url(#linearGradient3881)" fill-opacity="1" fill-rule="nonzero" stroke="none" stroke-width="1" d="m 7.0504203,16.010261 2.0428338,0 0,3.001714 -2.0428338,0 0,-3.001714 0,0 z m 4.0308067,-4.002286 2.014309,0 0,7.004 -2.042833,0 0.02852,-7.004 4e-6,0 z m 3.973762,-4.0022869 2.016321,0 -0.01517,11.0062879 -2.001143,0 -8e-6,-11.0062879 z m 6.00341,-5.0071617 0,16.0134486 -2.012613,0 0.02601,-16.0129257 1.986603,-5.229e-4 0,0 z" display="inline" enable-background="accumulate" opacity=".7" overflow="visible" visibility="visible" style="marker:none"/></g><path id="path3657" fill="none" stroke="url(#linearGradient3878)" stroke-linecap="butt" stroke-linejoin="bevel" stroke-opacity="1" stroke-width="1" d="m 3.5434052,11.451736 0.041691,3.376929 m -5e-7,4.169048 0,-3.960596 L 0.5,11.493427 l 6.2535723,0 -3.1267862,3.585381" opacity=".7"/></svg>