<svg xmlns="http://www.w3.org/2000/svg" xmlns:svg="http://www.w3.org/2000/svg" xmlns:xlink="http://www.w3.org/1999/xlink" id="svg3263" width="20" height="22" version="1.0"><metadata id="metadata17"/><defs id="defs3265"><linearGradient id="linearGradient3587-6-5"><stop id="stop3589-9-2" offset="0" stop-color="#000" stop-opacity="1"/><stop id="stop3591-7-4" offset="1" stop-color="#363636" stop-opacity="1"/></linearGradient><linearGradient id="linearGradient2394" x1="11.186" x2="11.186" y1="7.499" y2="13.106" gradientTransform="translate(-2,-1)" gradientUnits="userSpaceOnUse" xlink:href="#linearGradient3587-6-5"/><linearGradient id="linearGradient2397" x1="-33.806" x2="-33.806" y1="16" y2="19" gradientTransform="translate(43.805604,0)" gradientUnits="userSpaceOnUse" xlink:href="#linearGradient3587-6-5"/><linearGradient id="linearGradient2400" x1="-33.806" x2="-33.806" y1="3" y2="15.042" gradientTransform="translate(43.805604,0)" gradientUnits="userSpaceOnUse" xlink:href="#linearGradient3587-6-5"/></defs><path id="path3259" fill="none" stroke="#fff" stroke-linecap="round" stroke-linejoin="miter" stroke-opacity="1" stroke-width="1" d="m 7.5026178,10.999554 c 0,0 0.4973822,-0.999999 2.4973822,-0.999999 2,0 2.497382,1.041884 2.497382,1.041884 M 6,9.507408 c 0,0 0.9817579,-1.5499925 4,-1.507853 3.018242,0.04214 4,1.507853 4,1.507853 M 9.434555,12.565 c 0,0 -0.020942,-0.565445 0.565445,-0.565445 0.576517,0 0.481675,0.565445 0.481675,0.565445" opacity=".6"/><path id="path3287" fill="#fff" fill-opacity="1" fill-rule="nonzero" stroke="none" stroke-width="1" d="M 3,4 C 2.446,4 2,4.4893865 2,5.09375 l 0,9.8125 C 2,15.510614 2.446,16 3,16 l 14,0 c 0.554,0 1,-0.489386 1,-1.09375 l 0,-9.8125 C 18,4.4893863 17.554,4 17,4 L 3,4 z m 1,2 12,0 0,8 -12,0 0,-8 z m 3,11 6,0 0,1 2,0 0,2 -10,0 0,-2 2,0 0,-1 z" display="inline" enable-background="accumulate" opacity=".6" overflow="visible" visibility="visible" style="marker:none"/><path id="rect2722" fill="url(#linearGradient2400)" fill-opacity="1" fill-rule="nonzero" stroke="none" stroke-width="1" d="M 3,3 C 2.446,3 2,3.4893865 2,4.09375 l 0,9.8125 C 2,14.510614 2.446,15 3,15 l 14,0 c 0.554,0 1,-0.489386 1,-1.09375 l 0,-9.8125 C 18,3.4893863 17.554,3 17,3 L 3,3 z m 1,2 12,0 0,8 -12,0 0,-8 z" display="inline" enable-background="accumulate" opacity=".7" overflow="visible" visibility="visible" style="marker:none"/><path id="path3271" fill="url(#linearGradient2397)" fill-opacity="1" fill-rule="nonzero" stroke="none" stroke-width="1" d="m 7,16 6,0 0,1 2,0 0,2 -10,0 0,-2 2,0 0,-1 z" display="inline" enable-background="accumulate" opacity=".7" overflow="visible" visibility="visible" style="marker:none"/><path id="path3445" fill="none" stroke="url(#linearGradient2394)" stroke-linecap="round" stroke-linejoin="miter" stroke-opacity="1" stroke-width="1" d="M 7.5026178,9.999999 C 7.5026178,9.999999 8,9 10,9 c 2,0 2.497382,1.041884 2.497382,1.041884 M 6,8.5078534 c 0,0 0.9817579,-1.5499929 4,-1.5078534 3.018242,0.04214 4,1.5078534 4,1.5078534 M 9.434555,11.565445 C 9.434555,11.565445 9.413613,11 10,11 c 0.576517,0 0.481675,0.565445 0.481675,0.565445" opacity=".7"/></svg>