<svg xmlns="http://www.w3.org/2000/svg" xmlns:svg="http://www.w3.org/2000/svg" xmlns:xlink="http://www.w3.org/1999/xlink" id="svg3167" width="22" height="22" version="1.0"><metadata id="metadata18"/><defs id="defs3169"><linearGradient id="linearGradient3587-6-5-3"><stop id="stop3589-9-2-0" offset="0" stop-color="#000" stop-opacity="1"/><stop id="stop3591-7-4-7" offset="1" stop-color="#363636" stop-opacity="1"/></linearGradient><linearGradient id="linearGradient3587-8-5-3-2"><stop id="stop3589-2-7-0-1" offset="0" stop-color="#000" stop-opacity="1"/><stop id="stop3591-3-5-2-8" offset="1" stop-color="#363636" stop-opacity="1"/></linearGradient><linearGradient id="linearGradient2395" x1="66.097" x2="66.097" y1="9.364" y2="27.364" gradientTransform="translate(-52.096803,-7.363826)" gradientUnits="userSpaceOnUse" xlink:href="#linearGradient3587-8-5-3-2"/><linearGradient id="linearGradient2398" x1="14" x2="14" y1="3" y2="21" gradientUnits="userSpaceOnUse" xlink:href="#linearGradient3587-6-5-3"/><linearGradient id="linearGradient3177" x1="14" x2="14" y1="3" y2="21" gradientTransform="translate(-1.0001235,-1)" gradientUnits="userSpaceOnUse" xlink:href="#linearGradient3587-6-5-3"/></defs><path id="path3209-4" fill="none" stroke="#fff" stroke-dasharray="none" stroke-dashoffset="0" stroke-linecap="butt" stroke-linejoin="miter" stroke-miterlimit="4" stroke-opacity="1" stroke-width="1.624" d="M 8.0435287,15.541611 C 8.0435287,15.541611 8.6057337,14.688743 10.917018,14.662365 C 13.282811,14.635365 14.120438,15.705247 14.120438,15.705247 M 5.2784117,12.563637 C 5.2784117,12.563637 7.196683,10.603146 10.982131,10.678445 C 14.767579,10.753745 16.685849,12.656844 16.685849,12.656844 M 2.4362401,9.563637 C 2.4362401,9.563637 5.0265877,6.5708846 10.982131,6.5708846 C 16.937675,6.5708846 19.563514,9.54958 19.563514,9.54958" display="inline" enable-background="accumulate" opacity=".24" overflow="visible" visibility="visible" style="marker:none"/><path id="path3375-2" fill="#fff" fill-opacity="1" fill-rule="evenodd" stroke="none" d="M 12.971363,18.223407 C 12.884814,18.304188 10.974534,20.5 10.974534,20.5 C 10.974534,20.5 9.0824435,18.285633 9.0114535,18.223407 C 9.1383195,18.120264 9.6561155,17.71465 10.978659,17.720434 C 12.280013,17.726134 12.872244,18.123429 12.971363,18.223407 L 12.971363,18.223407 z" opacity=".6" overflow="visible"/><path id="path3375" fill="url(#linearGradient3177)" fill-opacity="1" fill-rule="evenodd" stroke="none" d="M 13.146798,16.709046 C 13.052548,16.790336 10.972279,19 10.972279,19 C 10.972279,19 8.911818,16.771664 8.8345108,16.709046 C 8.9726655,16.605252 9.5365385,16.197079 10.976771,16.2029 C 12.393928,16.2086 13.038859,16.608437 13.146798,16.709046 L 13.146798,16.709046 z" opacity=".7" overflow="visible"/><path id="path3209" fill="none" stroke="url(#linearGradient2395)" stroke-dasharray="none" stroke-dashoffset="0" stroke-linecap="butt" stroke-linejoin="miter" stroke-miterlimit="4" stroke-opacity="1" stroke-width="1.7" d="M 6.7706663,14.449448 C 6.7706663,14.449448 7.7891705,13.158446 10.909645,13.12554 C 13.991216,13.09304 15.170316,14.449448 15.170316,14.449448 M 4.0564876,11.452688 C 4.0564876,11.452688 6.2918592,9.030303 10.980552,9.116488 C 15.708135,9.203388 17.904614,11.491594 17.904614,11.491594 M 1.199,8.4137962 C 1.199,8.4137962 4.3028827,4.983016 10.980552,4.983016 C 17.625393,4.983016 20.800755,8.4196184 20.800755,8.4196184" display="inline" enable-background="accumulate" opacity=".32" overflow="visible" visibility="visible" style="marker:none"/></svg>