<svg xmlns="http://www.w3.org/2000/svg" xmlns:svg="http://www.w3.org/2000/svg" xmlns:xlink="http://www.w3.org/1999/xlink" id="svg3167" width="22" height="22" version="1.0"><metadata id="metadata20"/><defs id="defs3169"><linearGradient id="linearGradient3587-6-5-3"><stop id="stop3589-9-2-0" offset="0" stop-color="#000" stop-opacity="1"/><stop id="stop3591-7-4-7" offset="1" stop-color="#363636" stop-opacity="1"/></linearGradient><linearGradient id="linearGradient3587-8-5-3-2"><stop id="stop3589-2-7-0-1" offset="0" stop-color="#000" stop-opacity="1"/><stop id="stop3591-3-5-2-8" offset="1" stop-color="#363636" stop-opacity="1"/></linearGradient><linearGradient id="linearGradient2395" x1="66.097" x2="66.097" y1="9.364" y2="27.364" gradientTransform="translate(-52.096803,-7.363826)" gradientUnits="userSpaceOnUse" xlink:href="#linearGradient3587-8-5-3-2"/><linearGradient id="linearGradient2398" x1="14" x2="14" y1="3" y2="21" gradientTransform="translate(-1.0001235,-1)" gradientUnits="userSpaceOnUse" xlink:href="#linearGradient3587-6-5-3"/><linearGradient id="linearGradient2393" x1="66.097" x2="66.097" y1="9.364" y2="27.364" gradientTransform="translate(-51.09668,-6.363826)" gradientUnits="userSpaceOnUse" xlink:href="#linearGradient3587-8-5-3-2"/></defs><path id="path2412" fill="none" stroke="#fff" stroke-dasharray="none" stroke-dashoffset="0" stroke-linecap="butt" stroke-linejoin="miter" stroke-miterlimit="4" stroke-opacity="1" stroke-width="1.624" d="M 8.0435287,15.541611 C 8.0435287,15.541611 8.6057337,14.688743 10.917018,14.662365 C 13.282811,14.635365 14.120438,15.705247 14.120438,15.705247" display="inline" enable-background="accumulate" opacity=".6" overflow="visible" visibility="visible" style="marker:none"/><path id="path3375-2" fill="#fff" fill-opacity="1" fill-rule="evenodd" stroke="none" d="M 12.971363,18.223407 C 12.884814,18.304188 10.974534,20.5 10.974534,20.5 C 10.974534,20.5 9.0824435,18.285633 9.0114535,18.223407 C 9.1383195,18.120264 9.6561155,17.71465 10.978659,17.720434 C 12.280013,17.726134 12.872244,18.123429 12.971363,18.223407 L 12.971363,18.223407 z" opacity=".6" overflow="visible"/><path id="path3375" fill="url(#linearGradient2398)" fill-opacity="1" fill-rule="evenodd" stroke="none" d="M 13.146798,16.709046 C 13.052548,16.790336 10.972279,19 10.972279,19 C 10.972279,19 8.911818,16.771664 8.8345108,16.709046 C 8.9726655,16.605252 9.5365385,16.197079 10.976771,16.2029 C 12.393928,16.2086 13.038859,16.608437 13.146798,16.709046 L 13.146798,16.709046 z" opacity=".7" overflow="visible"/><path id="path2406" fill="none" stroke="url(#linearGradient2395)" stroke-dasharray="none" stroke-dashoffset="0" stroke-linecap="butt" stroke-linejoin="miter" stroke-miterlimit="4" stroke-opacity="1" stroke-width="1.7" d="M 6.7706663,14.449448 C 6.7706663,14.449448 7.7891705,13.158446 10.909645,13.12554 C 13.991216,13.09304 15.170316,14.449448 15.170316,14.449448" display="inline" enable-background="accumulate" opacity=".7" overflow="visible" visibility="visible" style="marker:none"/><g id="g2416" opacity=".4" transform="translate(-1.0001235,-1)"><path id="path2410" fill="none" stroke="#fff" stroke-dasharray="none" stroke-dashoffset="0" stroke-linecap="butt" stroke-linejoin="miter" stroke-miterlimit="4" stroke-opacity="1" stroke-width="1.624" d="M 6.2785352,13.563637 C 6.2785352,13.563637 8.1968065,11.603146 11.982254,11.678445 C 15.767702,11.753745 17.685972,13.656844 17.685972,13.656844 M 3.4363636,10.563637 C 3.4363636,10.563637 6.0267112,7.5708846 11.982254,7.5708846 C 17.937798,7.5708846 20.563637,10.54958 20.563637,10.54958" display="inline" enable-background="accumulate" opacity=".6" overflow="visible" visibility="visible" style="marker:none"/><path id="path2404" fill="none" stroke="url(#linearGradient2393)" stroke-dasharray="none" stroke-dashoffset="0" stroke-linecap="butt" stroke-linejoin="miter" stroke-miterlimit="4" stroke-opacity="1" stroke-width="1.7" d="M 5.0566111,12.452688 C 5.0566111,12.452688 7.2919827,10.030303 11.980675,10.116488 C 16.708258,10.203388 18.904737,12.491594 18.904737,12.491594 M 2.1991235,9.4137962 C 2.1991235,9.4137962 5.3030062,5.983016 11.980675,5.983016 C 18.625516,5.983016 21.800878,9.4196184 21.800878,9.4196184" display="inline" enable-background="accumulate" opacity=".8" overflow="visible" visibility="visible" style="marker:none"/></g></svg>