<svg xmlns="http://www.w3.org/2000/svg" xmlns:svg="http://www.w3.org/2000/svg" xmlns:xlink="http://www.w3.org/1999/xlink" id="svg3167" width="22" height="22" version="1.0"><metadata id="metadata18"/><defs id="defs3169"><linearGradient id="linearGradient3587-6-5-3"><stop id="stop3589-9-2-0" offset="0" stop-color="#000" stop-opacity="1"/><stop id="stop3591-7-4-7" offset="1" stop-color="#363636" stop-opacity="1"/></linearGradient><linearGradient id="linearGradient2394" x1="14" x2="14" y1="3" y2="21" gradientUnits="userSpaceOnUse" xlink:href="#linearGradient3587-6-5-3"/><linearGradient id="linearGradient3587-8-5-3-2"><stop id="stop3589-2-7-0-1" offset="0" stop-color="#000" stop-opacity="1"/><stop id="stop3591-3-5-2-8" offset="1" stop-color="#363636" stop-opacity="1"/></linearGradient><linearGradient id="linearGradient3763-6" x1="66.097" x2="66.097" y1="9.364" y2="27.364" gradientTransform="translate(-51.09668,-6.363826)" gradientUnits="userSpaceOnUse" xlink:href="#linearGradient3587-8-5-3-2"/></defs><g id="layer1" opacity=".4" transform="translate(-1.0001235,-1)"><path id="path3209-4" fill="none" stroke="#fff" stroke-dasharray="none" stroke-dashoffset="0" stroke-linecap="butt" stroke-linejoin="miter" stroke-miterlimit="4" stroke-opacity="1" stroke-width="1.624" d="M 9.0436522,16.541611 C 9.0436522,16.541611 9.6058572,15.688743 11.917141,15.662365 C 14.282934,15.635365 15.120561,16.705247 15.120561,16.705247 M 6.2785352,13.563637 C 6.2785352,13.563637 8.1968065,11.603146 11.982254,11.678445 C 15.767702,11.753745 17.685972,13.656844 17.685972,13.656844 M 3.4363636,10.563637 C 3.4363636,10.563637 6.0267112,7.5708846 11.982254,7.5708846 C 17.937798,7.5708846 20.563637,10.54958 20.563637,10.54958" display="inline" enable-background="accumulate" opacity=".6" overflow="visible" visibility="visible" style="marker:none"/><path id="path3375-2" fill="#fff" fill-opacity="1" fill-rule="evenodd" stroke="none" d="M 13.971486,19.223407 C 13.884937,19.304188 11.974657,21.5 11.974657,21.5 C 11.974657,21.5 10.082567,19.285633 10.011577,19.223407 C 10.138443,19.120264 10.656239,18.71465 11.978782,18.720434 C 13.280136,18.726134 13.872367,19.123429 13.971486,19.223407 L 13.971486,19.223407 z" opacity=".6" overflow="visible"/><path id="path3375" fill="url(#linearGradient2394)" fill-opacity="1" fill-rule="evenodd" stroke="none" d="M 14.146921,17.709046 C 14.052671,17.790336 11.972402,20 11.972402,20 C 11.972402,20 9.9119415,17.771664 9.8346343,17.709046 C 9.972789,17.605252 10.536662,17.197079 11.976894,17.2029 C 13.394051,17.2086 14.038982,17.608437 14.146921,17.709046 L 14.146921,17.709046 z" opacity=".8" overflow="visible"/><path id="path3209" fill="none" stroke="url(#linearGradient3763-6)" stroke-dasharray="none" stroke-dashoffset="0" stroke-linecap="butt" stroke-linejoin="miter" stroke-miterlimit="4" stroke-opacity="1" stroke-width="1.7" d="M 7.7707898,15.449448 C 7.7707898,15.449448 8.789294,14.158446 11.909768,14.12554 C 14.991339,14.09304 16.170439,15.449448 16.170439,15.449448 M 5.0566111,12.452688 C 5.0566111,12.452688 7.2919827,10.030303 11.980675,10.116488 C 16.708258,10.203388 18.904737,12.491594 18.904737,12.491594 M 2.1991235,9.4137962 C 2.1991235,9.4137962 5.3030062,5.983016 11.980675,5.983016 C 18.625516,5.983016 21.800878,9.4196184 21.800878,9.4196184" display="inline" enable-background="accumulate" opacity=".8" overflow="visible" visibility="visible" style="marker:none"/></g></svg>