<svg xmlns="http://www.w3.org/2000/svg" xmlns:svg="http://www.w3.org/2000/svg" xmlns:xlink="http://www.w3.org/1999/xlink" id="svg2386" width="18" height="22" version="1.0"><metadata id="metadata13"/><defs id="defs2388"><linearGradient id="linearGradient3587-6-5-3"><stop id="stop3589-9-2-2" offset="0" stop-color="#000" stop-opacity="1"/><stop id="stop3591-7-4-73" offset="1" stop-color="#363636" stop-opacity="1"/></linearGradient><linearGradient id="linearGradient2390" x1="45.523" x2="45.523" y1=".941" y2="34.003" gradientTransform="matrix(0.4101105,0,0,0.5452071,-12.350926,1.4870267)" gradientUnits="userSpaceOnUse" xlink:href="#linearGradient3587-6-5-3"/></defs><g id="layer1"><path id="path3337" fill="none" stroke="#000" stroke-dasharray="none" stroke-miterlimit="4" stroke-opacity="1" stroke-width=".5" d="m 8,4.21875 c 0.844149,0.030316 1.701715,-0.073098 2.534088,0.079066 0.905603,0.2439946 1.347367,1.2115035 1.247162,2.088098 0,0.7984452 0,1.5968903 0,2.3953355 -1.854167,0 -3.708333,0 -5.5625,0 C 6.2375632,7.7338132 6.1780822,6.6814969 6.2544528,5.6376154 6.4025451,4.8224285 7.173141,4.2011802 8,4.21875 z" opacity=".3"/><path id="path2416" fill="#fff" fill-opacity="1" fill-rule="nonzero" stroke="none" stroke-width="1" d="M 8,3 C 5.784,3 4,4.784 4,7 l 0,3 -1,0 c -0.554,0 -1,0.446 -1,1 l 0,9 c 0,0.554 0.446,1 1,1 l 12,0 c 0.554,0 1,-0.446 1,-1 l 0,-9 c 0,-0.554 -0.446,-1 -1,-1 l -1,0 0,-3 C 14,4.784 12.216,3 10,3 L 8,3 z m 0,2 2,0 c 1.108,0 2,0.892 2,2 l 0,3 -6,0 0,-3 C 6,5.892 6.892,5 8,5 z" display="inline" enable-background="accumulate" opacity=".6" overflow="visible" visibility="visible" style="marker:none"/><path id="rect2822" fill="url(#linearGradient2390)" fill-opacity="1" fill-rule="nonzero" stroke="none" stroke-width="1" d="M 8,2 C 5.784,2 4,3.784 4,6 L 4,9 3,9 C 2.446,9 2,9.446 2,10 l 0,9 c 0,0.554 0.446,1 1,1 l 12,0 c 0.554,0 1,-0.446 1,-1 l 0,-9 C 16,9.446 15.554,9 15,9 L 14,9 14,6 C 14,3.784 12.216,2 10,2 L 8,2 z m 0,2 2,0 c 1.108,0 2,0.892 2,2 L 12,9 6,9 6,6 C 6,4.892 6.892,4 8,4 z" display="inline" enable-background="accumulate" opacity=".7" overflow="visible" visibility="visible" style="marker:none"/></g></svg>