<svg xmlns="http://www.w3.org/2000/svg" xmlns:svg="http://www.w3.org/2000/svg" xmlns:xlink="http://www.w3.org/1999/xlink" id="svg4073" width="22" height="22" version="1.0"><metadata id="metadata18"/><defs id="defs4075"><linearGradient id="linearGradient3684" x1="9.17" x2="9.311" y1="3" y2="15" gradientUnits="userSpaceOnUse" xlink:href="#linearGradient3587-6-5-1"/><linearGradient id="linearGradient3692" x1="15" x2="15" y1="8" y2="20" gradientUnits="userSpaceOnUse" xlink:href="#linearGradient3587-6-5-1"/><linearGradient id="linearGradient3587-6-5-1"><stop id="stop3589-9-2-9" offset="0" stop-color="#000" stop-opacity="1"/><stop id="stop3591-7-4-9" offset="1" stop-color="#363636" stop-opacity="1"/></linearGradient></defs><path id="path4348-1-7" fill="#fff" fill-opacity="1" fill-rule="nonzero" stroke="none" stroke-width="1" d="M 7,4 2,9 5,9 5,16 9,16 9,9 12,9 7,4 z m 6,5 0,7 -3,0 5,5 5,-5 -3,0 0,-7 -4,0 z" display="inline" enable-background="accumulate" opacity=".6" overflow="visible" visibility="visible" style="marker:none"/><path id="path4348-1" fill="url(#linearGradient3692)" fill-opacity="1" fill-rule="nonzero" stroke="none" stroke-width="1" d="m 20,15 -5,5 -5,-5 3,0 0,-7 4,0 0,7 3,0 z" display="inline" enable-background="accumulate" opacity=".7" overflow="visible" visibility="visible" style="marker:none"/><path id="path4348-1-3" fill="url(#linearGradient3684)" fill-opacity="1" fill-rule="nonzero" stroke="none" stroke-width="1" d="M 12,8 7,3 2,8 l 3,0 0,7 4,0 0,-7 3,0 z" display="inline" enable-background="accumulate" opacity=".7" overflow="visible" visibility="visible" style="marker:none"/></svg>