<svg xmlns="http://www.w3.org/2000/svg" xmlns:svg="http://www.w3.org/2000/svg" xmlns:xlink="http://www.w3.org/1999/xlink" id="svg3211" width="16" height="22" version="1.0"><metadata id="metadata14"/><defs id="defs3213"><linearGradient id="linearGradient2867-449-88-871-390-598-476-591-434-148-69-4"><stop id="stop4629-22-2" offset="0" stop-color="#49a3d2" stop-opacity="1"/><stop id="stop4631-4-9" offset=".705" stop-color="#3470b4" stop-opacity="1"/><stop id="stop4633-7-6" offset="1" stop-color="#1b5699" stop-opacity="1"/></linearGradient><linearGradient id="linearGradient2878" x1="15.487" x2="15.487" y1="19.006" y2="5" gradientTransform="translate(-4,-1)" gradientUnits="userSpaceOnUse" xlink:href="#linearGradient2867-449-88-871-390-598-476-591-434-148-69-4"/></defs><path id="path3224" fill="#fff" fill-opacity="1" fill-rule="evenodd" stroke="none" d="m 8,5 0,2 c -3.312,0 -6,2.688 -6,6 0,3.312 2.688,6 6,6 3.312,0 6,-2.688 6,-6 l -2,0 c 0,2.208 -1.792,4 -4,4 C 5.7920001,17 4,15.208 4,13 4,10.792 5.7919999,9 8,9 L 8,11 13,8 8,5 z" opacity=".7"/><path id="path4199" fill="url(#linearGradient2878)" fill-opacity="1" fill-rule="evenodd" stroke="none" d="m 8,4 0,2 c -3.312,0 -6,2.6879996 -6,6 0,3.312 2.688,6 6,6 3.312,0 6,-2.688 6,-6 l -2,0 c 0,2.208 -1.792,4 -4,4 C 5.7920001,16 4,14.208 4,12 4,9.792 5.7919999,8 8,8 L 8,10 13,7 8,4 z"/></svg>