<svg xmlns="http://www.w3.org/2000/svg" xmlns:svg="http://www.w3.org/2000/svg" xmlns:xlink="http://www.w3.org/1999/xlink" id="svg2423" width="22" height="22" version="1.0"><metadata id="metadata12"/><defs id="defs2425"><linearGradient id="linearGradient3587-6-5-3"><stop id="stop3589-9-2-2" offset="0" stop-color="#000" stop-opacity="1"/><stop id="stop3591-7-4-73" offset="1" stop-color="#363636" stop-opacity="1"/></linearGradient><linearGradient id="linearGradient2388" x1="99.624" x2="99.624" y1="8.443" y2="34.187" gradientTransform="matrix(0.4100229,0,0,0.5447147,-32.849272,-0.5989154)" gradientUnits="userSpaceOnUse" xlink:href="#linearGradient3587-6-5-3"/></defs><path id="path2419" fill="#fff" fill-opacity="1" fill-rule="nonzero" stroke="none" stroke-width="1" d="M 12.497992,5.0002625 C 10.862048,4.980538 9.3811857,6.0768727 8.6550621,7.4980048 7.8124788,6.9672897 6.7279519,6.8302001 5.8146146,7.2701088 4.5218215,7.8001964 3.7071107,9.3198044 4.0935365,10.682625 c -1.9031724,1.147329 -2.647498,3.782905 -1.650965,5.761593 0.7664987,1.660228 2.6097779,2.681074 4.4214794,2.5434 2.9933808,-0.0085 5.9875941,0.01709 8.9804441,-0.01306 2.193627,-0.117405 4.084741,-2.056448 4.146063,-4.250836 0.133874,-1.947804 -1.169743,-3.870141 -3.024771,-4.478201 0.225565,-2.357895 -1.473588,-4.8783701 -3.895038,-5.2050983 -0.18966,-0.026806 -0.381212,-0.04017 -0.572757,-0.040159 z" display="inline" enable-background="accumulate" opacity=".6" overflow="visible" visibility="visible" style="marker:none"/><path id="rect3193" fill="url(#linearGradient2388)" fill-opacity="1" fill-rule="nonzero" stroke="none" stroke-width="1" d="M 12.497992,4.0002621 C 10.862048,3.9805376 9.3811857,5.0768723 8.6550621,6.4980044 7.8124788,5.9672893 6.7279519,5.8301997 5.8146146,6.2701084 4.5218215,6.800196 3.7071107,8.3198041 4.0935365,9.6826254 2.1903641,10.829954 1.4460385,13.46553 2.4425715,15.444218 c 0.7664987,1.660228 2.6097779,2.681074 4.4214794,2.5434 2.9933808,-0.0085 5.9875941,0.01709 8.9804441,-0.01306 2.193627,-0.117405 4.084741,-2.056448 4.146063,-4.250836 0.133874,-1.947804 -1.169743,-3.8701406 -3.024771,-4.4782006 0.225565,-2.3578958 -1.473588,-4.8783709 -3.895038,-5.2050991 -0.18966,-0.026806 -0.381212,-0.04017 -0.572757,-0.040159 z" display="inline" enable-background="accumulate" opacity=".7" overflow="visible" visibility="visible" style="marker:none"/></svg>