<svg xmlns="http://www.w3.org/2000/svg" xmlns:svg="http://www.w3.org/2000/svg" xmlns:xlink="http://www.w3.org/1999/xlink" id="svg3872" width="22" height="22" version="1.1"><metadata id="metadata16"/><defs id="defs3874"><linearGradient id="linearGradient3805" x1="12" x2="12" y1="34" y2="38" gradientTransform="translate(0,-32)" gradientUnits="userSpaceOnUse" xlink:href="#linearGradient3587-6-5-0"/><linearGradient id="linearGradient3587-6-5-0"><stop id="stop3589-9-2-8" offset="0" stop-color="#000" stop-opacity="1"/><stop id="stop3591-7-4-9" offset="1" stop-color="#363636" stop-opacity="1"/></linearGradient><linearGradient id="linearGradient3725" x1="22" x2="22" y1="-17" y2="-2.964" gradientTransform="translate(-11,14)" gradientUnits="userSpaceOnUse" xlink:href="#linearGradient3587-6-5-0"/></defs><g id="layer1" transform="translate(-1,7.0000002)"><path id="rect3637-0" fill="#fff" fill-opacity="1" fill-rule="evenodd" stroke="none" stroke-width="1" d="m 7.40625,-1.999553 c -0.2556191,0 -0.5228814,0.08538 -0.71875,0.28125 l -1.40625,1.40625 c -0.3917372,0.391737 -0.3917372,1.045763 0,1.4375 l 0.875,0.875 5.6875,0 L 8.125,-1.718303 C 7.9291314,-1.914172 7.6618691,-1.999553 7.40625,-1.999553 z m 9.1875,0 c -0.261441,0 -0.522882,0.08538 -0.71875,0.28125 l -3.71875,3.71875 5.6875,0 0.875,-0.875 c 0.391737,-0.391737 0.391737,-1.045763 0,-1.4375 l -1.40625,-1.40625 c -0.195868,-0.195869 -0.457309,-0.28125 -0.71875,-0.28125 z m -10.4375,10 -0.875,0.875 c -0.3917372,0.391737 -0.3917372,1.045763 0,1.4375 l 1.40625,1.40625 c 0.3917372,0.391737 1.0457628,0.391737 1.4375,0 l 3.71875,-3.71875 -5.6875,0 z m 6,0 3.71875,3.71875 c 0.391737,0.391737 1.045763,0.391737 1.4375,0 l 1.40625,-1.40625 c 0.391737,-0.391737 0.391737,-1.045763 0,-1.4375 l -0.875,-0.875 -5.6875,0 z" color="#000" display="inline" enable-background="accumulate" opacity=".6" overflow="visible" visibility="visible" style="marker:none"/><path id="rect3637" fill="url(#linearGradient3725)" fill-opacity="1" fill-rule="evenodd" stroke="none" stroke-width="1" d="M 7.40625,-3 C 7.1506309,-3 6.8833686,-2.9146186 6.6875,-2.71875 L 5.28125,-1.3125 c -0.3917372,0.3917372 -0.3917372,1.0457628 0,1.4375 L 6.15625,1 11.84375,1 8.125,-2.71875 C 7.9291314,-2.9146186 7.6618691,-3 7.40625,-3 z m 9.1875,0 c -0.261441,0 -0.522882,0.085381 -0.71875,0.28125 L 12.15625,1 l 5.6875,0 0.875,-0.875 c 0.391737,-0.3917372 0.391737,-1.0457628 0,-1.4375 L 17.3125,-2.71875 C 17.116632,-2.9146186 16.855191,-3 16.59375,-3 z M 6.15625,7 5.28125,7.875 c -0.3917372,0.391737 -0.3917372,1.045763 0,1.4375 l 1.40625,1.40625 c 0.3917372,0.391737 1.0457628,0.391737 1.4375,0 L 11.84375,7 6.15625,7 z m 6,0 3.71875,3.71875 c 0.391737,0.391737 1.045763,0.391737 1.4375,0 L 18.71875,9.3125 c 0.391737,-0.391737 0.391737,-1.045763 0,-1.4375 L 17.84375,7 12.15625,7 z" color="#000" display="inline" enable-background="accumulate" opacity=".7" overflow="visible" visibility="visible" style="marker:none"/><path id="path3615-0" fill="none" stroke="#fff" stroke-linecap="round" stroke-linejoin="round" stroke-opacity="1" stroke-width="1" d="m 21,4.5 -2.5,0 1,0 0,-1.5 0,3.5 1.5,0 m -5.5,0 0,-2 -2,0 0,2 0.75,0 m -3.75,0 0,-2 -2,0 0,-1.5 0,3.5 m -3,-2 -2,0 0,2 2,0" opacity=".6"/><path id="path3615" fill="none" stroke="url(#linearGradient3805)" stroke-linecap="round" stroke-linejoin="round" stroke-opacity="1" stroke-width="1" d="m 21,3.5 -2.5,0 1,0 0,-1.5 0,3.5 1.5,0 m -5.5,0 0,-2 -2,0 0,2 0.75,0 m -3.75,0 0,-2 -2,0 0,-1.5 0,3.5 m -3,-2 -2,0 0,2 2,0" opacity=".7"/></g></svg>