<svg xmlns="http://www.w3.org/2000/svg" xmlns:svg="http://www.w3.org/2000/svg" xmlns:xlink="http://www.w3.org/1999/xlink" id="svg3330" width="14" height="22" version="1.1"><defs id="defs3332"><linearGradient id="linearGradient3300" x1="97.044" x2="97.044" y1="12.76" y2="34.77" gradientTransform="matrix(0.4101105,0,0,0.5452071,-27.798735,-4.9568823)" gradientUnits="userSpaceOnUse" xlink:href="#linearGradient3587-6-5-3-0"/><linearGradient id="linearGradient3587-6-5-3-0"><stop id="stop3589-9-2-2-7" offset="0" stop-color="#000" stop-opacity="1"/><stop id="stop3591-7-4-73-6" offset="1" stop-color="#363636" stop-opacity="1"/></linearGradient><linearGradient id="linearGradient3298" x1="97.044" x2="97.044" y1="-.079" y2="34.77" gradientTransform="matrix(0.4101105,0,0,0.5452071,-27.798735,-4.9568823)" gradientUnits="userSpaceOnUse" xlink:href="#linearGradient3587-6-5-3-0"/></defs><metadata id="metadata3335"/><g id="layer1" transform="translate(0,6)"><g id="g3419" opacity=".4" transform="translate(-4,0)"><path id="path3122-6" fill="#fff" fill-opacity="1" fill-rule="nonzero" stroke="none" stroke-width="1" d="m 11,-4 c -1.662,0 -3,1.338 -3,3 l 0,8 c 0,1.662 1.338,3 3,3 1.662,0 3,-1.338 3,-3 l 0,-8 c 0,-1.662 -1.338,-3 -3,-3 z M 5,3 5,4 6,4 6,7 c 0,2.42375 1.717481,4.441543 4,4.90625 L 10,14 l -1,0 0,1 4,0 0,-1 -1,0 0,-2.09375 C 14.28252,11.441543 16,9.42375 16,7 l 0,-3 1,0 0,-1 -1,0 -1,0 0,4 c 0,2.216 -1.784,4 -4,4 C 8.784,11 7,9.216 7,7 L 7,3 6,3 5,3 z" color="#000" display="inline" enable-background="accumulate" opacity=".6" overflow="visible" visibility="visible" style="marker:none"/><path id="path3122" fill="url(#linearGradient3298)" fill-opacity="1" fill-rule="nonzero" stroke="none" stroke-width="1" d="m 11,-5 c -1.662,0 -3,1.338 -3,3 l 0,8 c 0,1.662 1.338,3 3,3 1.662,0 3,-1.338 3,-3 l 0,-8 c 0,-1.662 -1.338,-3 -3,-3 z" color="#000" display="inline" enable-background="accumulate" opacity=".7" overflow="visible" visibility="visible" style="marker:none"/><path id="rect3004" fill="url(#linearGradient3300)" fill-opacity="1" fill-rule="nonzero" stroke="none" stroke-width="1" d="m 5,2 0,1 1,0 0,3 c 0,2.42375 1.717481,4.441543 4,4.90625 L 10,13 l -1,0 0,1 4,0 0,-1 -1,0 0,-2.09375 C 14.28252,10.441543 16,8.42375 16,6 l 0,-3 1,0 0,-1 -1,0 -1,0 0,4 c 0,2.216 -1.784,4 -4,4 C 8.784,10 7,8.216 7,6 L 7,2 6,2 5,2 z" color="#000" display="inline" enable-background="accumulate" opacity=".7" overflow="visible" visibility="visible" style="marker:none"/></g></g></svg>