<svg xmlns="http://www.w3.org/2000/svg" xmlns:svg="http://www.w3.org/2000/svg" xmlns:xlink="http://www.w3.org/1999/xlink" id="svg3804" width="15" height="22" version="1.0"><metadata id="metadata16"/><defs id="defs3806"><linearGradient id="linearGradient3208" x1="165.477" x2="165.477" y1="11.02" y2="33.049" gradientTransform="matrix(0.4100229,0,0,0.5447147,-61.849273,-1.0025304)" gradientUnits="userSpaceOnUse" xlink:href="#linearGradient3587-6-5-3"/><linearGradient id="linearGradient3587-6-5-3"><stop id="stop3589-9-2-2" offset="0" stop-color="#000" stop-opacity="1"/><stop id="stop3591-7-4-73" offset="1" stop-color="#363636" stop-opacity="1"/></linearGradient><linearGradient id="linearGradient3204" x1="14" x2="14" y1="4" y2="20" gradientTransform="translate(-6,-1)" gradientUnits="userSpaceOnUse" xlink:href="#linearGradient3587-6-5-3"/></defs><g id="layer1" transform="translate(0.99999997,0)"><path id="path3291" fill="#fff" fill-opacity="1" fill-rule="nonzero" stroke="none" stroke-width="1" d="m 3,14 0,2 c 0,1.108 1.338,2 3,2 l 1,0 c 1.662,0 3,-0.892 3,-2 l 0,-2 z" display="inline" enable-background="accumulate" opacity=".6" overflow="visible" visibility="visible" style="marker:none"/><path id="rect3236" fill="none" stroke="#000" stroke-dasharray="none" stroke-dashoffset="0" stroke-linecap="round" stroke-linejoin="miter" stroke-miterlimit="4" stroke-opacity="1" stroke-width=".5" d="M 2.25,15.450001 C 2.252844,12.443791 2.2443067,9.437377 2.254278,6.4312954 2.3659022,5.2690397 3.5191399,4.5697645 4.566642,4.3530654 5.038101,4.263253 5.75,4.245207 5.75,4.245207 c 0,0 0,3.254793 0,3.254793 0,0 0.058301,0.75 0.798532,0.75 C 7.271982,8.25 7.25,7.5 7.25,7.5 c 0,0 0,-3.2452164 0,-3.2452164 1.562167,-0.078009 2.75,0.5175975 3.35212,1.6098018 0.244364,0.6091286 0.115217,1.2771243 0.14788,1.9170201 -0.0028,2.5956745 0.0057,5.1915535 -0.0043,7.7870995 -0.111624,1.162256 -1.264862,1.86153 -2.312364,2.07823 C 7.506212,17.823555 6.557192,17.723572 5.619145,17.75 4.387631,17.764194 2.9779253,17.310668 2.3978805,16.135415 2.3019013,15.920455 2.2495712,15.685646 2.25,15.450001 z" display="inline" enable-background="accumulate" opacity=".3" overflow="visible" visibility="visible" style="marker:none"/><path id="path3212" fill="none" stroke="#fff" stroke-dashoffset="0" stroke-linecap="round" stroke-linejoin="miter" stroke-miterlimit="4" stroke-opacity="1" stroke-width="1" d="m 5.5,4.499999 2,0 c 2.216,0 4,1.338 4,3 L 11.5,16.5 c 0,1.662 -1.784,3 -4,3 l -2,0 c -2.2160001,0 -4,-1.338 -4,-3 l 0,-9.000001 c 0,-1.662 1.7839999,-3 4,-3 z m 1.041885,1e-6 0,4" display="inline" enable-background="accumulate" opacity=".6" overflow="visible" visibility="visible" style="marker:none"/><path id="rect3728" fill="url(#linearGradient3208)" fill-opacity="1" fill-rule="nonzero" stroke="none" stroke-width="1" d="m 3,13 0,2 c 0,1.108 1.338,2 3,2 l 1,0 c 1.662,0 3,-0.892 3,-2 l 0,-2 z" display="inline" enable-background="accumulate" opacity=".7" overflow="visible" visibility="visible" style="marker:none"/><path id="path3231" fill="none" stroke="url(#linearGradient3204)" stroke-dashoffset="0" stroke-linecap="round" stroke-linejoin="miter" stroke-miterlimit="4" stroke-opacity="1" stroke-width="1" d="m 5.5,3.499999 2,0 c 2.216,0 4,1.338 4,3 L 11.5,15.5 c 0,1.662 -1.784,3 -4,3 l -2,0 c -2.2160001,0 -4,-1.338 -4,-3 l 0,-9.000001 c 0,-1.662 1.7839999,-3 4,-3 z m 1,1e-6 0,4" display="inline" enable-background="accumulate" opacity=".7" overflow="visible" visibility="visible" style="marker:none"/></g></svg>