<svg xmlns="http://www.w3.org/2000/svg" xmlns:svg="http://www.w3.org/2000/svg" xmlns:xlink="http://www.w3.org/1999/xlink" id="svg3437" width="128" height="128" version="1.0"><defs id="defs3439"><radialGradient id="radialGradient2487" cx="605.714" cy="486.648" r="117.143" fx="605.714" fy="486.648" gradientTransform="matrix(5.903808e-2,0,0,3.920058e-2,69.07008,98.773804)" gradientUnits="userSpaceOnUse" xlink:href="#linearGradient5060"/><linearGradient id="linearGradient5060"><stop id="stop5062" offset="0" stop-color="#000" stop-opacity="1"/><stop id="stop5064" offset="1" stop-color="#000" stop-opacity="0"/></linearGradient><radialGradient id="radialGradient2485" cx="605.714" cy="486.648" r="117.143" fx="605.714" fy="486.648" gradientTransform="matrix(-5.903807e-2,0,0,3.920058e-2,56.929907,98.773804)" gradientUnits="userSpaceOnUse" xlink:href="#linearGradient5060"/><linearGradient id="linearGradient5048"><stop id="stop5050" offset="0" stop-color="#000" stop-opacity="0"/><stop id="stop5056" offset=".5" stop-color="#000" stop-opacity="1"/><stop id="stop5052" offset="1" stop-color="#000" stop-opacity="0"/></linearGradient><linearGradient id="linearGradient2483" x1="302.857" x2="302.857" y1="366.648" y2="609.505" gradientTransform="matrix(0.1725148,0,0,3.920058e-2,0.6482238,98.773724)" gradientUnits="userSpaceOnUse" xlink:href="#linearGradient5048"/><linearGradient id="linearGradient4711-257"><stop id="stop4963" offset="0" stop-color="#643340" stop-opacity="1"/><stop id="stop4965" offset="1" stop-color="#a77a86" stop-opacity="1"/></linearGradient><linearGradient id="linearGradient3407" x1="-51.786" x2="-51.786" y1="53.624" y2="2.906" gradientTransform="matrix(2.1456312,0,0,2.3791386,158.0899,-7.7465248)" gradientUnits="userSpaceOnUse" xlink:href="#linearGradient4711-257"/><linearGradient id="linearGradient4145-42"><stop id="stop4953" offset="0" stop-color="#e694bb" stop-opacity="1"/><stop id="stop4955" offset=".262" stop-color="#d3819a" stop-opacity="1"/><stop id="stop4957" offset=".705" stop-color="#b25a64" stop-opacity="1"/><stop id="stop4959" offset="1" stop-color="#98313d" stop-opacity="1"/></linearGradient><radialGradient id="radialGradient3405" cx="14.239" cy="11.49" r="18" fx="14.239" fy="11.49" gradientTransform="matrix(0,8.4510876,-14.078919,0,197.36443,-104.85185)" gradientUnits="userSpaceOnUse" xlink:href="#linearGradient4145-42"/><linearGradient id="linearGradient8265-821-176-38-919-66-249"><stop id="stop2687" offset="0" stop-color="#fff" stop-opacity="1"/><stop id="stop2689" offset="1" stop-color="#fff" stop-opacity="0"/></linearGradient><linearGradient id="linearGradient2608" x1="16.626" x2="20.055" y1="15.298" y2="24.628" gradientTransform="matrix(2.0027208,0,0,3.7515682,15.934693,-20.392175)" gradientUnits="userSpaceOnUse" xlink:href="#linearGradient8265-821-176-38-919-66-249"/><radialGradient id="radialGradient2532" cx="102" cy="112.305" r="139.559" gradientUnits="userSpaceOnUse"><stop id="stop2534" offset="0" stop-color="#000" stop-opacity="1"/><stop id="stop2536" offset=".189" stop-color="#000" stop-opacity="1"/><stop id="stop2538" offset=".257" stop-color="#000" stop-opacity="0"/><stop id="stop2540" offset="1" stop-color="#000" stop-opacity="0"/></radialGradient><radialGradient id="radialGradient2462" cx="102" cy="112.305" r="139.559" gradientTransform="matrix(0.9787237,0,0,-1.0535153,1.3617012,127.48164)" gradientUnits="userSpaceOnUse" xlink:href="#radialGradient2532"/><linearGradient id="linearGradient3211"><stop id="stop3213" offset="0" stop-color="#fff" stop-opacity="1"/><stop id="stop3215" offset="1" stop-color="#fff" stop-opacity="0"/></linearGradient><linearGradient id="linearGradient2459" x1="24" x2="24" y1="2" y2="46.017" gradientTransform="matrix(2.7575715,0,0,2.6744155,-2.1817183,-4.1859717)" gradientUnits="userSpaceOnUse" xlink:href="#linearGradient3211"/><linearGradient id="linearGradient8589"><stop id="stop8591" offset="0" stop-color="#fefefe" stop-opacity="1"/><stop id="stop8593" offset="1" stop-color="#cbcbcb" stop-opacity="1"/></linearGradient><linearGradient id="linearGradient2455" x1="32.892" x2="36.358" y1="8.059" y2="5.457" gradientTransform="matrix(2.6605294,0,0,2.7751643,0.7455334,-3.5662351)" gradientUnits="userSpaceOnUse" xlink:href="#linearGradient8589"/><linearGradient id="linearGradient4267"><stop id="stop4269" offset="0" stop-color="#c4c4c4" stop-opacity="1"/><stop id="stop4271" offset="1" stop-color="#c4c4c4" stop-opacity="0"/></linearGradient><linearGradient id="linearGradient2602" x1="35.517" x2="34.103" y1="4.858" y2="6.544" gradientTransform="matrix(2.6571389,0,0,2.6477195,0.2286612,0.176103)" gradientUnits="userSpaceOnUse" xlink:href="#linearGradient4267"/><linearGradient id="linearGradient4000"><stop id="stop4002" offset="0" stop-color="#000" stop-opacity="1"/><stop id="stop4004" offset="1" stop-color="#000" stop-opacity="0"/></linearGradient><linearGradient id="linearGradient3429" x1="75.854" x2="91" y1="28" y2="12" gradientTransform="matrix(3.2239495,0,0,2.4718282,-173.38079,13.354843)" gradientUnits="userSpaceOnUse" spreadMethod="reflect" xlink:href="#linearGradient4000"/><linearGradient id="linearGradient5293"><stop id="stop5295" offset="0" stop-color="#fff" stop-opacity="1"/><stop id="stop5297" offset="1" stop-color="#fff" stop-opacity="0"/></linearGradient><linearGradient id="linearGradient3426" x1="75.854" x2="91" y1="28" y2="12" gradientTransform="matrix(3.2239495,0,0,2.4722069,-173.38079,10.350301)" gradientUnits="userSpaceOnUse" spreadMethod="reflect" xlink:href="#linearGradient5293"/><linearGradient id="linearGradient4106"><stop id="stop4108" offset="0" stop-color="#51293c" stop-opacity="1"/><stop id="stop4110" offset="1" stop-color="#876374" stop-opacity="1"/></linearGradient><linearGradient id="linearGradient3422" x1="24.239" x2="24.239" y1="44.11" y2=".191" gradientTransform="matrix(2.672571,0,0,2.7431947,10.507936,-1.0644052)" gradientUnits="userSpaceOnUse" xlink:href="#linearGradient4106"/></defs><g id="layer1"><g id="g2478" transform="matrix(1.0408163,0,0,0.6302428,-1.5714269,43.690218)"><rect id="rect2879" width="83.3" height="9.52" x="21.35" y="113.147" fill="url(#linearGradient2483)" fill-opacity="1" fill-rule="nonzero" stroke="none" stroke-width="1" display="inline" opacity=".3" overflow="visible" visibility="visible" style="marker:none"/><path id="path2881" fill="url(#radialGradient2485)" fill-opacity="1" fill-rule="nonzero" stroke="none" stroke-width="1" d="M 21.35,113.14694 C 21.35,113.14694 21.35,122.66656 21.35,122.66656 C 18.309686,122.68446 14,120.53369 14,117.90613 C 14,115.27858 17.392762,113.14694 21.35,113.14694 z" display="inline" opacity=".3" overflow="visible" visibility="visible" style="marker:none"/><path id="path2883" fill="url(#radialGradient2487)" fill-opacity="1" fill-rule="nonzero" stroke="none" stroke-width="1" d="M 104.64999,113.14694 C 104.64999,113.14694 104.64999,122.66656 104.64999,122.66656 C 107.69031,122.68446 112,120.53369 112,117.90613 C 112,115.27858 108.60723,113.14694 104.64999,113.14694 z" display="inline" opacity=".3" overflow="visible" visibility="visible" style="marker:none"/></g><path id="path3403" fill="url(#radialGradient3405)" fill-opacity="1" stroke="url(#linearGradient3407)" stroke-dasharray="none" stroke-dashoffset="0" stroke-linecap="butt" stroke-linejoin="round" stroke-miterlimit="4" stroke-opacity="1" stroke-width="1" d="M 17.499961,1.499961 C 38.811001,1.499961 59.685184,1.499961 80.996224,1.499961 C 82.391844,6.7116511 97.729566,19.716687 110.50004,27.094208 C 110.50004,57.562817 110.50004,88.031424 110.50004,118.50004 C 79.500013,118.50004 48.49999,118.50004 17.499961,118.50004 C 17.499961,79.50001 17.499961,40.499986 17.499961,1.499961 L 17.499961,1.499961 z" display="inline"/><path id="path3879" fill="url(#linearGradient2608)" fill-opacity="1" fill-rule="evenodd" stroke="none" stroke-dasharray="none" stroke-dashoffset="0" stroke-linecap="round" stroke-linejoin="round" stroke-miterlimit="4" stroke-opacity="1" stroke-width="1.002" d="M 18,2 C 18,2 18,72 18,72 L 109.1864,45.260261 C 109.64999,45.123313 109.99351,44.380774 110,43.501713 L 110,27.347106 C 110,27.347106 80.685255,1.9999996 80.685255,1.9999996 C 80.685255,1.9999996 18,2 18,2 z" opacity=".2"/><path id="path4191" fill="url(#radialGradient2462)" fill-opacity="1" d="M 18.978723,118 C 18.439449,118 18,117.52697 18,116.94648 L 18,3.1668773 C 18,2.5853392 18.439449,2.1133645 18.978723,2.1133645 C 39.22709,2.4045657 61.66587,1.6777678 81.889633,2.1858707 L 109.71323,26.088148 L 110,116.94648 C 110,117.52697 109.56154,118 109.02128,118 L 18.978723,118 L 18.978723,118 z" opacity=".05"/><path id="path2435" fill="none" stroke="url(#linearGradient2459)" stroke-dasharray="none" stroke-dashoffset="0" stroke-linecap="butt" stroke-linejoin="round" stroke-miterlimit="4" stroke-opacity="1" stroke-width="1" d="M 109.50003,26.517935 C 109.50003,56.465715 109.50003,87.552256 109.50003,117.50004 C 79.166677,117.50004 48.833318,117.50004 18.49996,117.50004 C 18.49996,79.166676 18.49996,40.833319 18.49996,2.4999616 C 39.352697,2.4999616 60.702756,2.4999616 81.555495,2.4999616" display="inline" opacity=".4"/><path id="path3232" fill="#000" fill-opacity="1" fill-rule="evenodd" stroke="none" d="M 71.923062,1.8392376 C 84.951381,1.8392376 78.473694,27.646803 78.473694,27.646803 C 78.473694,27.646803 109.98379,20.457276 109.98379,33.209225 C 109.98379,33.209225 110.05573,27.150866 110.05573,27.150866 C 103.32475,20.41989 89.06065,7.2507492 79.88133,2.2376883 C 79.88133,2.2376883 71.923062,1.8392376 71.923062,1.8392376 L 71.923062,1.8392376 z" display="inline" opacity=".05"/><path id="path3230" fill="#000" fill-opacity="1" fill-rule="evenodd" stroke="none" d="M 74.395876,1.8392376 C 86.577743,1.8392376 80.520913,25.970079 80.520913,25.970079 C 80.520913,25.970079 109.98379,20.329555 109.98379,32.11062 C 111.54407,22.058999 83.996871,-1.2887721 74.395876,1.8392376 L 74.395876,1.8392376 z" display="inline" opacity=".1"/><path id="path12038" fill="#000" fill-opacity="1" fill-rule="evenodd" stroke="none" d="M 30.770506,9.4044296 C 30.770506,9.4044296 41.128148,7.6020829 41.128148,12.223174 C 41.128148,9.6134507 35.296571,2.3137247 28.617256,0.92125832 C 31.864351,2.1641973 31.423163,6.3282809 30.770506,9.4044296 z" display="inline" opacity=".15" transform="matrix(2.6666667,0,0,2.6666667,0.3087257,-0.6174513)"/><path id="path4474" fill="url(#linearGradient2455)" fill-opacity="1" fill-rule="evenodd" stroke="none" d="M 76.62141,1.8392376 C 85.118724,1.8392376 82.850103,22.270914 82.850103,22.270914 C 82.850103,22.270914 109.98379,19.65477 109.98379,31.97768 C 109.98379,28.975176 110.21289,26.825027 109.62705,25.888099 C 105.41822,19.156956 87.239007,4.052365 80.67425,2.0726634 C 80.182991,1.9245177 79.093706,1.8392376 76.62141,1.8392376 z" display="inline"/><path id="path3883" fill="none" stroke="url(#linearGradient2602)" stroke-dasharray="none" stroke-dashoffset="0" stroke-linecap="butt" stroke-linejoin="round" stroke-miterlimit="4" stroke-opacity="1" stroke-width="1" d="M 80.850605,1.499962 C 85.899588,3.0479469 105.25554,17.066972 110.50004,26.980569 C 110.50004,57.322727 110.50004,29.166362 110.50004,59.50852 C 3.0298612,101.15431 16.291567,1.499962 80.850605,1.499962 z" display="inline"/><path id="path5316" fill="url(#linearGradient3429)" fill-opacity="1" fill-rule="nonzero" stroke="none" stroke-dasharray="none" stroke-dashoffset="0" stroke-linecap="butt" stroke-linejoin="miter" stroke-miterlimit="4" stroke-opacity="1" stroke-width=".912" marker-end="none" marker-mid="none" marker-start="none" d="M 88.984424,43.016785 C 87.800319,42.971446 86.620429,43.022905 85.466396,43.111854 C 75.310949,43.894639 66.53085,49.796497 63.154706,59.178739 C 61.074368,64.960012 61.490099,71.083984 63.710186,76.766748 L 18.000001,115.31075 L 18.000001,118 L 45.040043,118 L 44.453624,110.61178 L 59.358943,113.4639 L 61.117955,100.24913 L 75.097481,103.10123 L 84.262864,95.590673 C 93.622553,98.511563 103.12027,97.019392 110,92.16814 C 110,81.592727 110,71.115838 110,60.509721 C 108.86433,60.784548 107.54647,60.71657 106.29681,60.224513 C 103.24603,59.023248 101.5228,55.812764 102.50105,53.094241 C 103.23473,51.055362 105.34035,49.733757 107.59293,49.766776 C 108.34378,49.777785 109.14472,49.941813 109.90742,50.242133 C 109.94871,50.258388 109.95924,50.320206 110,50.337199 C 110,48.684581 110,47.04351 110,45.393543 C 107.01948,44.622118 104.0189,44.935979 101.66783,46.249174 C 101.02959,45.951026 100.4809,45.56019 99.816239,45.298473 C 96.226817,43.885123 92.536737,43.152798 88.984424,43.016785 z" display="inline" enable-background="accumulate" opacity=".1" overflow="visible" visibility="visible" style="marker:none"/><path id="path5283" fill="url(#linearGradient3426)" fill-opacity="1" fill-rule="nonzero" stroke="none" stroke-dasharray="none" stroke-dashoffset="0" stroke-linecap="butt" stroke-linejoin="miter" stroke-miterlimit="4" stroke-opacity="1" stroke-width=".912" marker-end="none" marker-mid="none" marker-start="none" d="M 88.984424,40.016789 C 87.800319,39.971441 86.620429,40.022907 85.466396,40.111874 C 75.310949,40.894778 66.53085,46.797539 63.154706,56.181217 C 61.074368,61.963376 61.490099,68.088286 63.710186,73.771925 L 18.000001,112.62068 C 18.000001,112.62068 18.125104,118 18.125104,118 C 27.179022,118 36.232902,118 45.286838,118 L 44.453624,107.62215 L 59.358943,110.4747 L 61.117955,97.257896 L 75.097481,100.11044 L 84.262864,92.598734 C 93.622553,95.520075 103.12027,94.027672 110,89.175681 C 110,78.598642 110,68.120148 110,57.512409 C 108.86433,57.787275 107.54647,57.719286 106.29681,57.227154 C 103.24603,56.025707 101.5228,52.814726 102.50105,50.095789 C 103.23473,48.056598 105.34035,46.734794 107.59293,46.767815 C 108.34378,46.778824 109.14472,46.942879 109.90742,47.243241 C 109.94871,47.259502 109.95924,47.32133 110,47.338323 C 110,45.685454 110,44.04413 110,42.393908 C 107.01948,41.622365 104.0189,41.936278 101.66783,43.249674 C 101.02959,42.951479 100.4809,42.560581 99.816239,42.298824 C 96.226817,40.88526 92.536737,40.152823 88.984424,40.016789 z" display="inline" enable-background="accumulate" opacity=".4" overflow="visible" visibility="visible" style="marker:none"/><path id="path3433" fill="#fff" fill-opacity="1" stroke="none" stroke-linecap="butt" stroke-linejoin="miter" stroke-opacity="1" stroke-width="1" d="M 78.03644,95 C 76.709117,90.258856 75.381792,85.741144 74.054473,81 C 67.364765,81 60.675058,81 53.98535,81 C 52.644754,85.741144 51.304159,90.258856 49.963563,95 C 45.809041,95 41.654522,95 37.5,95 C 43.804785,74.999998 50.109568,54.999996 56.414352,35 C 61.444906,35 66.475458,35 71.506009,35 C 77.837342,54.999996 84.168669,74.999998 90.5,95 C 86.345479,95 82.190958,95 78.03644,95 z M 71.187456,70 C 71.187456,70 64,44 64,44 C 64,44 56.971826,70 56.971826,70 C 56.971826,70 71.187456,70 71.187456,70 z" font-family="Droid Sans" font-size="30.514" font-stretch="normal" font-style="normal" font-variant="normal" font-weight="bold" opacity=".4" style="-inkscape-font-specification:Droid Sans Bold"/><path id="text3893" fill="url(#linearGradient3422)" fill-opacity="1" stroke="none" stroke-linecap="butt" stroke-linejoin="miter" stroke-opacity="1" stroke-width="1" d="M 78.03644,94 C 76.709117,89.258856 75.381792,84.741144 74.054473,80 C 67.364765,80 60.675058,80 53.98535,80 C 52.644754,84.741144 51.304159,89.258856 49.963563,94 C 45.809041,94 41.654522,94 37.5,94 C 43.804785,73.999998 50.109568,53.999996 56.414352,34 C 61.444906,34 66.475458,34 71.506009,34 C 77.837342,53.999996 84.168669,73.999998 90.5,94 C 86.345479,94 82.190958,94 78.03644,94 z M 71.187456,69 C 71.187456,69 64,43 64,43 C 64,43 56.971826,69 56.971826,69 C 56.971826,69 71.187456,69 71.187456,69 z" font-family="Droid Sans" font-size="30.514" font-stretch="normal" font-style="normal" font-variant="normal" font-weight="bold" style="-inkscape-font-specification:Droid Sans Bold"/></g></svg>