<svg xmlns="http://www.w3.org/2000/svg" xmlns:svg="http://www.w3.org/2000/svg" xmlns:xlink="http://www.w3.org/1999/xlink" id="svg2930" width="128" height="128" version="1.0"><defs id="defs2932"><linearGradient id="linearGradient5060"><stop id="stop5062" offset="0" stop-color="#000" stop-opacity="1"/><stop id="stop5064" offset="1" stop-color="#000" stop-opacity="0"/></linearGradient><linearGradient id="linearGradient5048"><stop id="stop5050" offset="0" stop-color="#000" stop-opacity="0"/><stop id="stop5056" offset=".5" stop-color="#000" stop-opacity="1"/><stop id="stop5052" offset="1" stop-color="#000" stop-opacity="0"/></linearGradient><linearGradient id="linearGradient3104"><stop id="stop3106" offset="0" stop-color="#aaa" stop-opacity="1"/><stop id="stop3108" offset="1" stop-color="#c8c8c8" stop-opacity="1"/></linearGradient><linearGradient id="linearGradient2467" x1="-51.786" x2="-51.786" y1="50.786" y2="2.906" gradientTransform="matrix(2.1456312,0,0,2.3791388,158.0899,-7.7465258)" gradientUnits="userSpaceOnUse" xlink:href="#linearGradient3104"/><linearGradient id="linearGradient3600"><stop id="stop3602" offset="0" stop-color="#f4f4f4" stop-opacity="1"/><stop id="stop3604" offset="1" stop-color="#dbdbdb" stop-opacity="1"/></linearGradient><linearGradient id="linearGradient2465" x1="25.132" x2="25.132" y1=".985" y2="47.013" gradientTransform="matrix(2.657139,0,0,2.5422197,0.2286615,-4.9132741)" gradientUnits="userSpaceOnUse" xlink:href="#linearGradient3600"/><radialGradient id="XMLID_8_" cx="102" cy="112.305" r="139.559" gradientUnits="userSpaceOnUse"><stop id="stop41" offset="0" stop-color="#b7b8b9" stop-opacity="1"/><stop id="stop47" offset=".189" stop-color="#ececec" stop-opacity="1"/><stop id="stop49" offset=".257" stop-color="#fafafa" stop-opacity="0"/><stop id="stop51" offset=".301" stop-color="#fff" stop-opacity="0"/><stop id="stop53" offset=".531" stop-color="#fafafa" stop-opacity="0"/><stop id="stop55" offset=".845" stop-color="#ebecec" stop-opacity="0"/><stop id="stop57" offset="1" stop-color="#e1e2e3" stop-opacity="0"/></radialGradient><radialGradient id="radialGradient2462" cx="102" cy="112.305" r="139.559" gradientTransform="matrix(0.9787237,0,0,-1.0535153,1.3617012,127.48164)" gradientUnits="userSpaceOnUse" xlink:href="#XMLID_8_"/><linearGradient id="linearGradient3211"><stop id="stop3213" offset="0" stop-color="#fff" stop-opacity="1"/><stop id="stop3215" offset="1" stop-color="#fff" stop-opacity="0"/></linearGradient><linearGradient id="linearGradient2459" x1="24" x2="24" y1="2" y2="46.017" gradientTransform="matrix(2.7575715,0,0,2.6744155,-2.1817183,-4.1859717)" gradientUnits="userSpaceOnUse" xlink:href="#linearGradient3211"/><filter id="filter3212" width="1.297" height="1.329" x="-.148" y="-.164" color-interpolation-filters="sRGB"><feGaussianBlur id="feGaussianBlur3214" stdDeviation=".774"/></filter><linearGradient id="linearGradient8589"><stop id="stop8591" offset="0" stop-color="#fefefe" stop-opacity="1"/><stop id="stop8593" offset="1" stop-color="#cbcbcb" stop-opacity="1"/></linearGradient><linearGradient id="linearGradient2455" x1="32.892" x2="36.358" y1="8.059" y2="5.457" gradientTransform="matrix(2.6605294,0,0,2.7751643,0.7455334,-3.5662351)" gradientUnits="userSpaceOnUse" xlink:href="#linearGradient8589"/><linearGradient id="linearGradient7067"><stop id="stop7069" offset="0" stop-color="#fff" stop-opacity="1"/><stop id="stop7071" offset="1" stop-color="#fff" stop-opacity="0"/></linearGradient><linearGradient id="linearGradient2372"><stop id="stop2374" offset="0" stop-color="#fff" stop-opacity="1"/><stop id="stop2376" offset="1" stop-color="#fff" stop-opacity="0"/></linearGradient><linearGradient id="linearGradient3668"><stop id="stop3670" offset="0" stop-color="#fff" stop-opacity="1"/><stop id="stop3672" offset="1" stop-color="#fff" stop-opacity="0"/></linearGradient><radialGradient id="radialGradient3004" cx="605.714" cy="486.648" r="117.143" fx="605.714" fy="486.648" gradientTransform="matrix(6.1447796e-2,0,0,2.4705883e-2,70.317838,105.9417)" gradientUnits="userSpaceOnUse" xlink:href="#linearGradient5060"/><radialGradient id="radialGradient3007" cx="605.714" cy="486.648" r="117.143" fx="605.714" fy="486.648" gradientTransform="matrix(-6.1447786e-2,0,0,2.4705883e-2,57.682148,105.9417)" gradientUnits="userSpaceOnUse" xlink:href="#linearGradient5060"/><linearGradient id="linearGradient3010" x1="302.857" x2="302.857" y1="366.648" y2="609.505" gradientTransform="matrix(0.1795562,0,0,2.4705883e-2,-0.896745,105.94165)" gradientUnits="userSpaceOnUse" xlink:href="#linearGradient5048"/><radialGradient id="radialGradient3013" cx="17.059" cy="41.059" r="5.738" fx="14.688" fy="37.456" gradientTransform="matrix(1.9168866,-0.3433748,6.7302e-2,1.8255217,8.537615,17.400314)" gradientUnits="userSpaceOnUse" xlink:href="#linearGradient7067"/><linearGradient id="linearGradient3016" x1="33.4" x2="33.4" y1="120.827" y2="233.021" gradientTransform="matrix(0.5927395,0,0,0.5905239,37.338172,-40.423106)" gradientUnits="userSpaceOnUse" xlink:href="#linearGradient2372"/><radialGradient id="radialGradient3019" cx="17.059" cy="41.059" r="5.738" fx="14.758" fy="37.841" gradientTransform="matrix(2.0040184,-0.3318837,4.374149e-2,1.9132533,41.518615,6.102119)" gradientUnits="userSpaceOnUse" xlink:href="#linearGradient3668"/></defs><g id="layer1"><rect id="rect2879" width="86.7" height="6" x="20.65" y="115" fill="url(#linearGradient3010)" fill-opacity="1" fill-rule="nonzero" stroke="none" stroke-width="1" display="inline" opacity=".3" overflow="visible" visibility="visible" style="marker:none"/><path id="path2881" fill="url(#radialGradient3007)" fill-opacity="1" fill-rule="nonzero" stroke="none" stroke-width="1" d="M 20.650001,115.00026 C 20.650001,115.00026 20.650001,120.99993 20.650001,120.99993 C 17.485593,121.01122 13.000001,119.65571 13.000001,117.99971 C 13.000001,116.34371 16.531243,115.00026 20.650001,115.00026 z" display="inline" opacity=".3" overflow="visible" visibility="visible" style="marker:none"/><path id="path2883" fill="url(#radialGradient3004)" fill-opacity="1" fill-rule="nonzero" stroke="none" stroke-width="1" d="M 107.34999,115.00026 C 107.34999,115.00026 107.34999,120.99993 107.34999,120.99993 C 110.5144,121.01122 115,119.65571 115,117.99971 C 115,116.34371 111.46875,115.00026 107.34999,115.00026 z" display="inline" opacity=".3" overflow="visible" visibility="visible" style="marker:none"/><path id="path4160" fill="url(#linearGradient2465)" fill-opacity="1" stroke="url(#linearGradient2467)" stroke-dasharray="none" stroke-dashoffset="0" stroke-linecap="butt" stroke-linejoin="round" stroke-miterlimit="4" stroke-opacity="1" stroke-width="1" d="M 17.499961,1.499962 C 38.811,1.499962 60.122038,1.499962 81.433079,1.499962 C 85.171495,2.7619479 105.25553,17.139298 110.50004,27.094209 C 110.50004,57.562823 110.50004,88.031432 110.50004,118.50004 C 79.500014,118.50004 48.499989,118.50004 17.499961,118.50004 C 17.499961,79.500017 17.499961,40.499988 17.499961,1.499962 L 17.499961,1.499962 z" display="inline"/><path id="path4191" fill="url(#radialGradient2462)" fill-opacity="1" d="M 18.978723,118 C 18.439449,118 18,117.52697 18,116.94648 L 18,3.1668773 C 18,2.5853392 18.439449,2.1133645 18.978723,2.1133645 C 39.22709,2.4045657 61.66587,1.6777678 81.889633,2.1858707 L 109.71323,26.088148 L 110,116.94648 C 110,117.52697 109.56154,118 109.02128,118 L 18.978723,118 L 18.978723,118 z"/><path id="path2435" fill="none" stroke="url(#linearGradient2459)" stroke-dasharray="none" stroke-dashoffset="0" stroke-linecap="butt" stroke-linejoin="round" stroke-miterlimit="4" stroke-opacity="1" stroke-width="1" d="M 109.50003,26.517935 C 109.50003,56.465715 109.50003,87.552256 109.50003,117.50004 C 79.166677,117.50004 48.833318,117.50004 18.49996,117.50004 C 18.49996,79.166676 18.49996,40.833319 18.49996,2.4999616 C 39.352697,2.4999616 60.702756,2.4999616 81.555495,2.4999616" display="inline" opacity=".6"/><path id="path12038" fill="#000" fill-opacity="1" fill-rule="evenodd" stroke="none" d="M 28.617256,0.92125832 C 32.899778,0.92125832 30.770506,9.4044296 30.770506,9.4044296 C 30.770506,9.4044296 41.128148,7.6020829 41.128148,12.223174 C 41.128148,9.6134507 29.825844,1.4945784 28.617256,0.92125832 L 28.617256,0.92125832 z" display="inline" filter="url(#filter3212)" opacity=".4" transform="matrix(2.6666667,0,0,2.6666667,0.3087257,-0.6174513)"/><path id="path4474" fill="url(#linearGradient2455)" fill-opacity="1" fill-rule="evenodd" stroke="none" d="M 76.62141,1.8392376 C 85.118724,1.8392376 82.850103,22.270914 82.850103,22.270914 C 82.850103,22.270914 109.98379,19.65477 109.98379,31.97768 C 109.98379,28.975176 110.21289,26.825027 109.62705,25.888099 C 105.41822,19.156956 87.239007,4.052365 80.67425,2.0726634 C 80.182991,1.9245177 79.093706,1.8392376 76.62141,1.8392376 z" display="inline"/><path id="path3406" fill="#4d4d4d" fill-opacity="1" stroke="#333" stroke-dasharray="none" stroke-linecap="round" stroke-linejoin="round" stroke-miterlimit="4" stroke-opacity="1" stroke-width="1" d="M 85.46491,24.50281 C 85.46491,24.50281 52.021125,31.776459 52.021125,31.776459 C 49.636264,32.692226 49.557778,34.585764 49.50078,37.921379 C 49.50078,37.921379 49.50078,75.769791 49.50078,75.769791 C 41.721614,74.042611 32.582016,80.088761 32.515501,88.301881 C 32.165254,93.576191 37.81475,97.946481 42.953732,97.463441 C 49.91981,97.107551 56.246664,90.385161 55.50078,83.207071 C 55.50078,71.465009 55.50078,57.372339 55.50078,45.630283 C 55.50078,45.630283 83.50078,39.279527 83.50078,39.279527 C 83.50078,39.279527 83.50078,59.212506 83.50078,68.264076 C 76.04648,66.124718 66.948342,71.028943 65.713121,78.868901 C 64.8395,84.464791 67.642437,88.706051 72.069233,90.026481 C 80.35571,92.732461 89.40459,84.178261 88.42728,75.643701 C 88.40418,59.635296 88.49708,43.626845 88.42728,27.618492 C 88.23255,26.027284 87.20465,24.422354 85.46491,24.50281 L 85.46491,24.50281 z"/><path id="path2716" fill="url(#radialGradient3019)" fill-opacity="1" stroke="none" d="M 89.00078,76.997221 C 89.00078,82.970061 83.85207,88.707151 77.50078,89.811371 C 71.149509,90.915571 66.00078,86.968771 66.00078,80.995941 C 66.00078,75.023091 71.149509,69.285986 77.50078,68.181777 C 83.85207,67.077557 89.00078,71.02437 89.00078,76.997221 L 89.00078,76.997221 z" opacity=".6"/><path id="path2720" fill="url(#linearGradient3016)" fill-opacity="1" fill-rule="evenodd" stroke="none" d="M 50.00078,35.996576 C 49.95471,34.199794 51.00078,31.996576 53.00078,31.996576 C 53.169593,32.286557 85.70851,25.003253 85.70851,25.003253 C 79.72694,30.129905 52.962115,31.009451 52.00078,36.088719 C 52.00078,36.088719 52.00078,55.734168 52.00078,77.805221 C 51.569161,77.439931 50.00078,76.496581 50.00078,76.496581 L 50.00078,35.996576 L 50.00078,35.996576 z M 84.00078,68.82956 L 84.00078,38.684956 C 84.00078,38.684956 86.00078,38.291273 86.00078,38.291273 C 86.00078,38.291273 86.00078,69.979336 86.00078,69.979336 L 84.00078,68.82956 L 84.00078,68.82956 z" opacity=".3"/><path id="path2712" fill="url(#radialGradient3013)" fill-opacity="1" stroke="none" d="M 55.00078,84.588091 C 55.00078,90.289441 50.075916,95.765761 44.000785,96.819791 C 37.925656,97.873811 33.00078,94.106421 33.00078,88.405061 C 33.00078,82.703711 37.925656,77.227391 44.000785,76.173361 C 50.075916,75.119331 55.00078,78.886741 55.00078,84.588091 z" opacity=".6"/></g></svg>