<svg xmlns="http://www.w3.org/2000/svg" xmlns:svg="http://www.w3.org/2000/svg" xmlns:xlink="http://www.w3.org/1999/xlink" id="svg3909" width="128" height="128" version="1.1"><defs id="defs3911"><linearGradient id="linearGradient3823" x1="25.076" x2="25.076" y1="45.915" y2="6.443" gradientUnits="userSpaceOnUse" xlink:href="#linearGradient2490-3-92"/><linearGradient id="linearGradient2490-3-92"><stop id="stop2492-3-5" offset="0" stop-color="#365f0e" stop-opacity="1"/><stop id="stop2494-8-7" offset="1" stop-color="#84a718" stop-opacity="1"/></linearGradient><linearGradient id="linearGradient3825" x1="25.076" x2="25.076" y1="45.915" y2="6.443" gradientUnits="userSpaceOnUse" xlink:href="#linearGradient2490-3-7-8"/><linearGradient id="linearGradient2490-3-7-8"><stop id="stop2492-3-7-0" offset="0" stop-color="#365f0e" stop-opacity="1"/><stop id="stop2494-8-5-9" offset="1" stop-color="#84a718" stop-opacity="1"/></linearGradient><linearGradient id="linearGradient3006" x1="35.517" x2="34.103" y1="4.858" y2="6.544" gradientTransform="matrix(2.6571389,0,0,2.6477195,0.2286608,-63.823897)" gradientUnits="userSpaceOnUse" xlink:href="#linearGradient4267"/><linearGradient id="linearGradient4267"><stop id="stop4269" offset="0" stop-color="#c4c4c4" stop-opacity="1"/><stop id="stop4271" offset="1" stop-color="#c4c4c4" stop-opacity="0"/></linearGradient><linearGradient id="linearGradient3009" x1="32.892" x2="36.358" y1="8.059" y2="5.457" gradientTransform="matrix(2.6605294,0,0,2.7751643,0.7455328,-67.566235)" gradientUnits="userSpaceOnUse" xlink:href="#linearGradient8589"/><linearGradient id="linearGradient8589"><stop id="stop8591" offset="0" stop-color="#fefefe" stop-opacity="1"/><stop id="stop8593" offset="1" stop-color="#cbcbcb" stop-opacity="1"/></linearGradient><linearGradient id="linearGradient3015" x1="24" x2="24" y1="2" y2="46.017" gradientTransform="matrix(2.7575715,0,0,2.6744155,-2.1817192,-68.185972)" gradientUnits="userSpaceOnUse" xlink:href="#linearGradient3211"/><linearGradient id="linearGradient3211"><stop id="stop3213" offset="0" stop-color="#fff" stop-opacity="1"/><stop id="stop3215" offset="1" stop-color="#fff" stop-opacity="0"/></linearGradient><radialGradient id="radialGradient3018" cx="102" cy="112.305" r="139.559" gradientTransform="matrix(0.9787237,0,0,-1.0535153,1.3617008,63.48164)" gradientUnits="userSpaceOnUse" xlink:href="#radialGradient2532"/><radialGradient id="radialGradient2532" cx="102" cy="112.305" r="139.559" gradientUnits="userSpaceOnUse"><stop id="stop2534" offset="0" stop-color="#000" stop-opacity="1"/><stop id="stop2536" offset=".189" stop-color="#000" stop-opacity="1"/><stop id="stop2538" offset=".257" stop-color="#000" stop-opacity="0"/><stop id="stop2540" offset="1" stop-color="#000" stop-opacity="0"/></radialGradient><radialGradient id="radialGradient3024" cx="12.525" cy="9.473" r="18" fx="12.525" fy="9.473" gradientTransform="matrix(2.0796694e-7,7.8484511,-8.4750484,2.2457041e-7,144.28102,-161.30369)" gradientUnits="userSpaceOnUse" xlink:href="#linearGradient3242-7-1"/><linearGradient id="linearGradient3242-7-1"><stop id="stop3244-5-1" offset="0" stop-color="#eef87e" stop-opacity="1"/><stop id="stop3246-9-0" offset=".262" stop-color="#cde34f" stop-opacity="1"/><stop id="stop3248-7-3" offset=".661" stop-color="#93b723" stop-opacity="1"/><stop id="stop3250-8-4" offset="1" stop-color="#5a7e0d" stop-opacity="1"/></linearGradient><linearGradient id="linearGradient3026" x1="-51.786" x2="-51.786" y1="53.624" y2="2.906" gradientTransform="matrix(2.1456312,0,0,2.3791386,158.0899,-71.746525)" gradientUnits="userSpaceOnUse" xlink:href="#linearGradient2490-3-3"/><linearGradient id="linearGradient2490-3-3"><stop id="stop2492-3-9" offset="0" stop-color="#365f0e" stop-opacity="1"/><stop id="stop2494-8-1" offset="1" stop-color="#84a718" stop-opacity="1"/></linearGradient><linearGradient id="linearGradient2483" x1="302.857" x2="302.857" y1="366.648" y2="609.505" gradientTransform="matrix(0.1725148,0,0,0.03920058,0.6482238,98.773724)" gradientUnits="userSpaceOnUse" xlink:href="#linearGradient5048"/><linearGradient id="linearGradient5048"><stop id="stop5050" offset="0" stop-color="#000" stop-opacity="0"/><stop id="stop5056" offset=".5" stop-color="#000" stop-opacity="1"/><stop id="stop5052" offset="1" stop-color="#000" stop-opacity="0"/></linearGradient><radialGradient id="radialGradient2485" cx="605.714" cy="486.648" r="117.143" fx="605.714" fy="486.648" gradientTransform="matrix(-0.05903807,0,0,0.03920058,56.929907,98.773804)" gradientUnits="userSpaceOnUse" xlink:href="#linearGradient5060"/><linearGradient id="linearGradient5060"><stop id="stop5062" offset="0" stop-color="#000" stop-opacity="1"/><stop id="stop5064" offset="1" stop-color="#000" stop-opacity="0"/></linearGradient><radialGradient id="radialGradient3907" cx="605.714" cy="486.648" r="117.143" fx="605.714" fy="486.648" gradientTransform="matrix(0.05903808,0,0,0.03920058,69.07008,98.773804)" gradientUnits="userSpaceOnUse" xlink:href="#linearGradient5060"/></defs><metadata id="metadata3914"/><g id="layer1" transform="translate(0,64)"><g id="g2478" transform="matrix(1.0408163,0,0,0.6302428,-1.5714272,-20.309782)"><rect id="rect2879" width="83.3" height="9.52" x="21.35" y="113.147" fill="url(#linearGradient2483)" fill-opacity="1" fill-rule="nonzero" stroke="none" stroke-width="1" display="inline" opacity=".3" overflow="visible" visibility="visible" style="marker:none"/><path id="path2881" fill="url(#radialGradient2485)" fill-opacity="1" fill-rule="nonzero" stroke="none" stroke-width="1" d="m 21.35,113.14694 c 0,0 0,9.51962 0,9.51962 -3.040314,0.0179 -7.35,-2.13287 -7.35,-4.76043 0,-2.62755 3.392762,-4.75919 7.35,-4.75919 z" display="inline" opacity=".3" overflow="visible" visibility="visible" style="marker:none"/><path id="path2883" fill="url(#radialGradient3907)" fill-opacity="1" fill-rule="nonzero" stroke="none" stroke-width="1" d="m 104.64999,113.14694 c 0,0 0,9.51962 0,9.51962 3.04032,0.0179 7.35001,-2.13287 7.35001,-4.76043 0,-2.62755 -3.39277,-4.75919 -7.35001,-4.75919 z" display="inline" opacity=".3" overflow="visible" visibility="visible" style="marker:none"/></g><path id="path3403" fill="url(#radialGradient3024)" fill-opacity="1" stroke="url(#linearGradient3026)" stroke-dasharray="none" stroke-dashoffset="0" stroke-linecap="butt" stroke-linejoin="round" stroke-miterlimit="4" stroke-opacity="1" stroke-width="1" d="m 17.49996,-62.500039 c 21.311041,0 42.185224,0 63.496264,0 1.39562,5.21169 16.733342,18.216726 29.503816,25.594247 0,30.468609 0,60.937216 0,91.405832 -31.000027,0 -62.00005,0 -93.00008,0 0,-39.00003 0,-78.000054 0,-117.000079 l 0,0 z" display="inline"/><path id="path4191" fill="url(#radialGradient3018)" fill-opacity="1" d="m 18.978722,54 c -0.539274,0 -0.978723,-0.47303 -0.978723,-1.05352 l 0,-113.779603 c 0,-0.581538 0.439449,-1.053513 0.978723,-1.053513 20.248368,0.291202 42.687148,-0.435596 62.910911,0.07251 L 109.71323,-37.911852 110,52.94648 C 110,53.52697 109.56154,54 109.02128,54 l -90.042557,0 0,0 z" opacity=".05"/><path id="path2435" fill="none" stroke="url(#linearGradient3015)" stroke-dasharray="none" stroke-dashoffset="0" stroke-linecap="butt" stroke-linejoin="round" stroke-miterlimit="4" stroke-opacity="1" stroke-width="1" d="m 109.50003,-37.482065 c 0,29.94778 0,61.034321 0,90.982105 -30.333353,0 -60.666712,0 -91.000071,0 0,-38.333364 0,-76.666721 0,-115.000079 20.852738,0 42.202797,0 63.055536,0" display="inline" opacity=".4"/><path id="path3232" fill="#000" fill-opacity="1" fill-rule="evenodd" stroke="none" d="m 71.923062,-62.160762 c 13.028319,0 6.550632,25.807565 6.550632,25.807565 0,0 31.510096,-7.189527 31.510096,5.562422 0,0 0.0719,-6.058359 0.0719,-6.058359 -6.73094,-6.730976 -20.99504,-19.900117 -30.17436,-24.913178 0,0 -7.958268,-0.39845 -7.958268,-0.39845 l 0,0 z" display="inline" opacity=".05"/><path id="path3230" fill="#000" fill-opacity="1" fill-rule="evenodd" stroke="none" d="m 74.395876,-62.160762 c 12.181867,0 6.125037,24.130841 6.125037,24.130841 0,0 29.462877,-5.640524 29.462877,6.140541 1.56028,-10.051621 -25.986919,-33.399392 -35.587914,-30.271382 l 0,0 z" display="inline" opacity=".1"/><path id="path12038" fill="#000" fill-opacity="1" fill-rule="evenodd" stroke="none" d="m 82.363409,-39.538972 c 0,0 27.620381,-4.806258 27.620381,7.516652 0,-6.959262 -15.550874,-26.425199 -33.362381,-30.138442 8.65892,3.314503 7.482419,14.418727 5.742,22.62179 z" display="inline" opacity=".15"/><path id="path4474" fill="url(#linearGradient3009)" fill-opacity="1" fill-rule="evenodd" stroke="none" d="m 76.62141,-62.160762 c 8.497314,0 6.228693,20.431676 6.228693,20.431676 0,0 27.133687,-2.616144 27.133687,9.706766 0,-3.002504 0.2291,-5.152653 -0.35674,-6.089581 -4.20883,-6.731143 -22.388043,-21.835734 -28.9528,-23.815436 -0.491259,-0.148145 -1.580544,-0.233425 -4.05284,-0.233425 z" display="inline"/><path id="path3883" fill="none" stroke="url(#linearGradient3006)" stroke-dasharray="none" stroke-dashoffset="0" stroke-linecap="butt" stroke-linejoin="round" stroke-miterlimit="4" stroke-opacity="1" stroke-width="1" d="m 80.850605,-62.500038 c 5.048983,1.547985 24.404935,15.56701 29.649435,25.480607 0,30.342158 0,2.185793 0,32.527951 C 3.0298607,37.15431 16.291566,-62.500038 80.850605,-62.500038 z" display="inline"/><path id="path3107-6" fill="url(#linearGradient3825)" fill-opacity="1" fill-rule="nonzero" stroke="none" stroke-width="2.604" d="M 50.59375,37.09375 A 3.9183417,3.9183417 0 0 0 47.09375,41 l 0,19.09375 -9.09375,0 a 3.9183417,3.9183417 0 0 0 -2.96875,6.46875 l 26,30 a 3.9183417,3.9183417 0 0 0 5.9375,0 l 26,-30 A 3.9183417,3.9183417 0 0 0 90,60.09375 l -9.09375,0 0,-19.09375 A 3.9183417,3.9183417 0 0 0 77,37.09375 l -26,0 a 3.9183417,3.9183417 0 0 0 -0.40625,0 z" color="#000" display="inline" enable-background="accumulate" opacity=".08" overflow="visible" transform="translate(-2e-7,-68.005998)" visibility="visible" style="marker:none"/><path id="path3107" fill="url(#linearGradient3823)" fill-opacity="1" fill-rule="nonzero" stroke="none" stroke-width="2.604" d="M 50.8125,39.03125 A 1.9782027,1.9782027 0 0 0 49.03125,41 l 0,21.03125 -11.03125,0 a 1.9782027,1.9782027 0 0 0 -1.5,3.25 l 26,30 a 1.9782027,1.9782027 0 0 0 3,0 l 26,-30 a 1.9782027,1.9782027 0 0 0 -1.5,-3.25 l -11.03125,0 0,-21.03125 A 1.9782027,1.9782027 0 0 0 77,39.03125 l -26,0 a 1.9782027,1.9782027 0 0 0 -0.1875,0 z" color="#000" display="inline" enable-background="accumulate" opacity=".15" overflow="visible" transform="translate(-2e-7,-67.999398)" visibility="visible" style="marker:none"/><path id="path3288" fill="#f2f2f2" fill-opacity="1" fill-rule="nonzero" stroke="none" stroke-width=".985" d="M 90,-4 64,26 38,-4 l 13,0 0,-23 26,0 0,23 13,0 z" display="inline" overflow="visible" visibility="visible" style="marker:none"/><path style="marker:none" id="path3288-2" fill="none" stroke="#fff" stroke-opacity="1" stroke-width=".985" d="m 88.5,-3.5 -24.5,29 -24.5,-29 12,0 0,-23 25,0 0,23 12,0 z" display="inline" overflow="visible" visibility="visible"/></g></svg>