<svg xmlns="http://www.w3.org/2000/svg" xmlns:svg="http://www.w3.org/2000/svg" xmlns:xlink="http://www.w3.org/1999/xlink" id="svg5490" width="24" height="24" version="1.1"><defs id="defs5492"><linearGradient id="linearGradient3921"><stop id="stop3923" offset="0" stop-color="#000" stop-opacity="1"/><stop id="stop3925" offset="1" stop-color="#000" stop-opacity="0"/></linearGradient><linearGradient id="linearGradient3821"><stop id="stop3823" offset="0" stop-color="#6c6c6c" stop-opacity="1"/><stop id="stop3825" offset="1" stop-color="#a8a8a8" stop-opacity="1"/></linearGradient><linearGradient id="linearGradient3143"><stop id="stop3145" offset="0" stop-color="#e6e6e6" stop-opacity="1"/><stop id="stop3147" offset="1" stop-color="#afafaf" stop-opacity="1"/></linearGradient><linearGradient id="linearGradient3737"><stop id="stop3739" offset="0" stop-color="#121214" stop-opacity="1"/><stop id="stop3741" offset=".093" stop-color="#393e44" stop-opacity="1"/><stop id="stop3743" offset=".502" stop-color="#50555b" stop-opacity="1"/><stop id="stop3745" offset=".911" stop-color="#22272d" stop-opacity="1"/><stop id="stop3747" offset="1" stop-color="#303438" stop-opacity="1"/></linearGradient><linearGradient id="linearGradient9936"><stop id="stop9938" offset="0" stop-color="#575757" stop-opacity="1"/><stop id="stop9940" offset="1" stop-color="#333" stop-opacity="1"/></linearGradient><linearGradient id="linearGradient6592-2-7"><stop id="stop6594-0-2" offset="0" stop-color="#fff" stop-opacity=".275"/><stop id="stop6596-2-5" offset="1" stop-color="#fff" stop-opacity="0"/></linearGradient><filter id="filter3915" color-interpolation-filters="sRGB"><feGaussianBlur id="feGaussianBlur3917" stdDeviation=".67"/></filter><linearGradient id="linearGradient4647"><stop id="stop4653" offset="0" stop-color="#b3b3b3" stop-opacity="1"/><stop id="stop4655" offset=".407" stop-color="#fff" stop-opacity="1"/><stop id="stop4657" offset=".587" stop-color="#f0f0f0" stop-opacity="1"/><stop id="stop4659" offset="1" stop-color="#999" stop-opacity="1"/></linearGradient><linearGradient id="linearGradient2882" x1="12.938" x2="15.25" y1="8.438" y2="19.813" gradientTransform="matrix(0.23809525,0,0,0.39999977,6.2857146,2.8000008)" gradientUnits="userSpaceOnUse" xlink:href="#linearGradient6592-2-7"/><radialGradient id="radialGradient2885" cx="19.063" cy="8.418" r="11" fx="19.063" fy="8.418" gradientTransform="matrix(0.60156817,0,0,1.0150091,-2.0594605,-1.1552919)" gradientUnits="userSpaceOnUse" xlink:href="#linearGradient9936"/><linearGradient id="linearGradient2887" x1="13" x2="35" y1="13" y2="13" gradientTransform="matrix(0.52496631,0,0,0.93355972,-0.59919157,-1.636278)" gradientUnits="userSpaceOnUse" xlink:href="#linearGradient3737"/><radialGradient id="radialGradient2890" cx="12.425" cy="38.05" r="1.818" fx="12.425" fy="38.05" gradientTransform="matrix(1.0499463,0,0,1.0498231,-1.0454521,-19.945564)" gradientUnits="userSpaceOnUse" xlink:href="#linearGradient4647"/><linearGradient id="linearGradient2894" x1="22.487" x2="22.487" y1="2.024" y2="42.997" gradientTransform="matrix(0.49999973,0,0,0.52473347,0.74999819,0.18816643)" gradientUnits="userSpaceOnUse" xlink:href="#linearGradient3143"/><linearGradient id="linearGradient2896" x1="22" x2="22" y1="45" y2="2" gradientTransform="matrix(0.48346055,0,0,0.50000002,0.39058555,0.24999991)" gradientUnits="userSpaceOnUse" xlink:href="#linearGradient3821"/><radialGradient id="radialGradient2899" cx="26" cy="42.5" r="19" fx="26" fy="42.5" gradientTransform="matrix(0.52631579,0,0,0.10526314,-1.6842106,17.526317)" gradientUnits="userSpaceOnUse" xlink:href="#linearGradient3921"/></defs><path id="path3919" fill="url(#radialGradient2899)" fill-opacity="1" stroke="none" d="M 22,22 A 10,2 0 0 1 2,22 10,2 0 1 1 22,22 z" opacity=".5"/><path id="rect5508" fill="url(#linearGradient2894)" fill-opacity="1" stroke="url(#linearGradient2896)" stroke-linecap="round" stroke-linejoin="miter" stroke-miterlimit="4" stroke-opacity="1" stroke-width="1" d="m 5.2142865,1.5000004 13.5714275,0 C 19.181428,1.5000004 19.5,1.842899 19.5,2.268831 l 0,18.375048 c 0,0.425932 -0.318572,0.768831 -0.714286,0.768831 0,0 -3.392856,1.08729 -6.785714,1.08729 -3.3928562,0 -6.7857135,-1.08729 -6.7857135,-1.08729 -0.3957146,0 -0.7142861,-0.342899 -0.7142861,-0.768831 l 0,-18.375048 c 0,-0.425932 0.3185715,-0.7688306 0.7142861,-0.7688306 z"/><path id="path3909" fill="#fff" fill-opacity="1" stroke="none" d="m 11.333334,-20 25.333333,0 C 37.405333,-20 38,-19.363189 38,-18.572172 l 0,34.125092 c 0,0.791016 -0.594667,1.427827 -1.333333,1.427827 C 36.666667,16.980747 30.333333,19 24,19 17.666669,19 11.333334,16.980747 11.333334,16.980747 10.594667,16.980747 10,16.343936 10,15.55292 l 0,-34.125092 C 10,-19.363189 10.594667,-20 11.333334,-20 z" filter="url(#filter3915)" opacity=".3" transform="matrix(0.48387869,0,0,0.50430137,0.38703132,12.161823)"/><path id="path6724" fill="url(#radialGradient2890)" fill-opacity="1" stroke="#787878" stroke-dasharray="none" stroke-linecap="round" stroke-linejoin="miter" stroke-miterlimit="4" stroke-opacity="1" stroke-width=".5" d="m 13.75,20.000205 a 1.75,1.7497946 0 0 1 -3.5,0 1.75,1.7497946 0 1 1 3.5,0 z"/><rect stroke-linecap="round" style="marker:none" id="rect4140" width="11.051" height="14.051" x="6.474" y="3.474" fill="url(#radialGradient2885)" fill-opacity="1" fill-rule="evenodd" stroke="url(#linearGradient2887)" stroke-dasharray="none" stroke-dashoffset="0" stroke-linejoin="round" stroke-miterlimit="3.429" stroke-opacity="1" stroke-width=".949" display="inline" enable-background="accumulate" overflow="visible" rx="0" ry="0" visibility="visible"/><path id="rect6588" fill="url(#linearGradient2882)" fill-opacity="1" stroke="none" d="M 7,4 17,4 17,7.2000013 7,10 7,4 z"/><rect id="rect3675" width="3" height="1" x="6" y="19" fill="#787878" fill-opacity="1" stroke="none" rx=".5" ry=".5"/><rect id="rect3677" width="3" height="1" x="15" y="19" fill="#787878" fill-opacity="1" stroke="none" rx=".5" ry=".5"/></svg>