<svg xmlns="http://www.w3.org/2000/svg" xmlns:svg="http://www.w3.org/2000/svg" xmlns:xlink="http://www.w3.org/1999/xlink" id="svg44406" width="32" height="32" version="1.0"><defs id="defs44408"><linearGradient id="linearGradient5128"><stop id="stop5130" offset="0" stop-color="#e5e5e5" stop-opacity="1"/><stop id="stop5132" offset="1" stop-color="#ababab" stop-opacity="1"/></linearGradient><linearGradient id="linearGradient3260" x1="86.133" x2="84.639" y1="105.105" y2="20.895" gradientTransform="matrix(9.614231e-2,0,0,9.614231e-2,1.8468935,1.9430362)" gradientUnits="userSpaceOnUse" xlink:href="#linearGradient5128"/><linearGradient id="linearGradient3397"><stop id="stop3399" offset="0" stop-color="#aaa" stop-opacity="1"/><stop id="stop3401" offset="1" stop-color="#8c8c8c" stop-opacity="1"/></linearGradient><linearGradient id="linearGradient3264" x1="21" x2="21" y1="0" y2="16.005" gradientTransform="translate(-17.058189,0)" gradientUnits="userSpaceOnUse" xlink:href="#linearGradient3397"/><linearGradient id="linearGradient3309" x1="63.999" x2="63.999" y1="3.1" y2="122.899" gradientUnits="userSpaceOnUse"><stop id="stop3311" offset="0" stop-color="#f6f6f6" stop-opacity="1"/><stop id="stop3313" offset="1" stop-color="#ccc" stop-opacity="1"/></linearGradient><linearGradient id="linearGradient3262" x1="25" x2="25" y1="0" y2="16" gradientTransform="translate(-17.058189,0)" gradientUnits="userSpaceOnUse" xlink:href="#linearGradient3309"/><linearGradient id="linearGradient3484"><stop id="stop3486" offset="0" stop-color="#bdbdbd" stop-opacity="1"/><stop id="stop3488" offset="1" stop-color="#d0d0d0" stop-opacity="1"/></linearGradient><linearGradient id="linearGradient6404"><stop id="stop6406" offset="0" stop-color="#f9f9f9" stop-opacity="1"/><stop id="stop6408" offset="1" stop-color="#c9c9c9" stop-opacity="1"/></linearGradient><linearGradient id="linearGradient5048-585"><stop id="stop2667" offset="0" stop-color="#000" stop-opacity="0"/><stop id="stop2669" offset=".5" stop-color="#000" stop-opacity="1"/><stop id="stop2671" offset="1" stop-color="#000" stop-opacity="0"/></linearGradient><linearGradient id="linearGradient5060-179"><stop id="stop2675" offset="0" stop-color="#000" stop-opacity="1"/><stop id="stop2677" offset="1" stop-color="#000" stop-opacity="0"/></linearGradient><linearGradient id="linearGradient5060-820"><stop id="stop2681" offset="0" stop-color="#000" stop-opacity="1"/><stop id="stop2683" offset="1" stop-color="#000" stop-opacity="0"/></linearGradient><linearGradient id="linearGradient3390"><stop id="stop3392" offset="0" stop-color="#425e7b" stop-opacity="1"/><stop id="stop3394" offset="1" stop-color="#7a91a7" stop-opacity="1"/></linearGradient><linearGradient id="linearGradient7012-661-145-733-759-865-745"><stop id="stop2699" offset="0" stop-color="#9cbbd9" stop-opacity="1"/><stop id="stop2701" offset="1" stop-color="#5c82ab" stop-opacity="1"/></linearGradient><linearGradient id="linearGradient6129-963-697-142-998-580-273"><stop id="stop2661" offset="0" stop-color="#0a0a0a" stop-opacity=".498"/><stop id="stop2663" offset="1" stop-color="#0a0a0a" stop-opacity="0"/></linearGradient><linearGradient id="linearGradient6087-437-184-795-110-662-495"><stop id="stop2693" offset="0" stop-color="#fff" stop-opacity=".4"/><stop id="stop2695" offset="1" stop-color="#fff" stop-opacity="0"/></linearGradient><linearGradient id="linearGradient8265-821-176-38-919-66-249"><stop id="stop2687" offset="0" stop-color="#fff" stop-opacity=".2"/><stop id="stop2689" offset="1" stop-color="#fff" stop-opacity="0"/></linearGradient><linearGradient id="linearGradient2431" x1="11.566" x2="15.215" y1="22.292" y2="33.955" gradientTransform="matrix(0.6515346,0,0,0.6760494,0.3603499,0.1849652)" gradientUnits="userSpaceOnUse" xlink:href="#linearGradient8265-821-176-38-919-66-249"/><radialGradient id="radialGradient2434" cx="7.265" cy="8.302" r="20.98" fx="7.265" fy="8.302" gradientTransform="matrix(0,0.7386341,-0.9984871,0,17.148572,6.8540185)" gradientUnits="userSpaceOnUse" xlink:href="#linearGradient6087-437-184-795-110-662-495"/><linearGradient id="linearGradient2437" x1="22.935" x2="22.809" y1="49.629" y2="36.658" gradientTransform="matrix(0.7467531,0,0,0.6554922,-1.9220764,1.1676179)" gradientUnits="userSpaceOnUse" xlink:href="#linearGradient6129-963-697-142-998-580-273"/><radialGradient id="radialGradient2440" cx="63.969" cy="14.113" r="23.097" fx="63.969" fy="14.113" gradientTransform="matrix(1.007989,-6.1246211e-8,3.9794263e-8,0.6539555,-55.005411,6.1061543)" gradientUnits="userSpaceOnUse" xlink:href="#linearGradient7012-661-145-733-759-865-745"/><linearGradient id="linearGradient2442" x1="82.453" x2="82.453" y1="45.114" y2="10.826" gradientTransform="matrix(0.644209,0,0,0.643728,-34.102646,0.7887616)" gradientUnits="userSpaceOnUse" xlink:href="#linearGradient3390"/><linearGradient id="linearGradient2454" x1="62.989" x2="62.989" y1="13.183" y2="16.19" gradientTransform="matrix(0.627907,0,0,0.6348983,-31.055913,1.1034431)" gradientUnits="userSpaceOnUse" xlink:href="#linearGradient6404"/><radialGradient id="radialGradient2456" cx="3" cy="5.017" r="21" fx="3" fy="5.017" gradientTransform="matrix(0,1.0884009,-1.355859,0,8.9733195,2.9173483)" gradientUnits="userSpaceOnUse" xlink:href="#linearGradient3484"/><linearGradient id="linearGradient2463" x1="302.857" x2="302.857" y1="366.648" y2="609.505" gradientTransform="matrix(5.1142824e-2,0,0,1.5915752e-2,-2.4899573,22.29927)" gradientUnits="userSpaceOnUse" xlink:href="#linearGradient5048-585"/><radialGradient id="radialGradient2465" cx="605.714" cy="486.648" r="117.143" fx="605.714" fy="486.648" gradientTransform="matrix(1.9835731e-2,0,0,1.5915752e-2,16.38765,22.29927)" gradientUnits="userSpaceOnUse" xlink:href="#linearGradient5060-179"/><radialGradient id="radialGradient2467" cx="605.714" cy="486.648" r="117.143" fx="605.714" fy="486.648" gradientTransform="matrix(-1.9835727e-2,0,0,1.5915752e-2,15.60139,22.29927)" gradientUnits="userSpaceOnUse" xlink:href="#linearGradient5060-820"/></defs><path id="path3468" fill="url(#linearGradient2454)" fill-opacity="1" stroke="url(#radialGradient2456)" stroke-dasharray="none" stroke-linecap="round" stroke-linejoin="round" stroke-miterlimit="4" stroke-opacity="1" stroke-width="1" d="M 4,6.5000785 C 3.566574,6.5049492 3.5,6.7173065 3.5,7.1349768 L 3.5,8.5 C 2.2543195,8.5 2.5,8.4981971 2.5,9.0438922 C 2.5216068,15.577024 2.5,15.945324 2.5,16.5 C 3.4013419,16.5 29.499999,14.151046 29.499999,13.13995 L 29.499999,9.0438922 C 29.499999,8.6262224 29.152009,8.4951297 28.718581,8.5 L 14.5,8.5 L 14.5,7.1349768 C 14.5,6.7173065 14.235751,6.4952078 13.802324,6.5000785 L 4,6.5000785 z" display="inline"/><g id="g2458" transform="translate(0,-1.000001)"><rect id="rect4173" width="24.695" height="3.865" x="3.647" y="28.135" fill="url(#linearGradient2463)" fill-opacity="1" fill-rule="nonzero" stroke="none" stroke-dasharray="none" stroke-dashoffset="0" stroke-linecap="round" stroke-linejoin="miter" stroke-miterlimit="4" stroke-opacity="1" stroke-width="1" marker-end="none" marker-mid="none" marker-start="none" display="inline" opacity=".3" overflow="visible" visibility="visible" style="marker:none"/><path id="path5058" fill="url(#radialGradient2465)" fill-opacity="1" fill-rule="nonzero" stroke="none" stroke-dasharray="none" stroke-dashoffset="0" stroke-linecap="round" stroke-linejoin="miter" stroke-miterlimit="4" stroke-opacity="1" stroke-width="1" marker-end="none" marker-mid="none" marker-start="none" d="M 28.341859,28.13488 C 28.341859,28.13488 28.341859,31.999921 28.341859,31.999921 C 29.36335,32.007197 30.811327,31.133961 30.811327,30.067152 C 30.811327,29.000342 29.671419,28.13488 28.341859,28.13488 z" display="inline" opacity=".3" overflow="visible" visibility="visible" style="marker:none"/><path id="path5018" fill="url(#radialGradient2467)" fill-opacity="1" fill-rule="nonzero" stroke="none" stroke-dasharray="none" stroke-dashoffset="0" stroke-linecap="round" stroke-linejoin="miter" stroke-miterlimit="4" stroke-opacity="1" stroke-width="1" marker-end="none" marker-mid="none" marker-start="none" d="M 3.6471816,28.13488 C 3.6471816,28.13488 3.6471816,31.999921 3.6471816,31.999921 C 2.6256904,32.007197 1.1777138,31.133961 1.1777138,30.067152 C 1.1777138,29.000342 2.3176206,28.13488 3.6471816,28.13488 z" display="inline" opacity=".3" overflow="visible" visibility="visible" style="marker:none"/></g><path id="path3388" fill="url(#radialGradient2440)" fill-opacity="1" stroke="url(#linearGradient2442)" stroke-dashoffset="0" stroke-linecap="round" stroke-linejoin="round" stroke-miterlimit="4" stroke-opacity="1" stroke-width="1" d="M 1.9268353,11.499999 C 1.2357878,11.579625 1.604879,12.402582 1.5497817,12.865354 C 1.6299747,13.164415 2.1474964,28.583337 2.1474964,29.112792 C 2.1474964,29.572969 2.3741638,29.495006 2.9485023,29.495006 C 11.447903,29.495006 20.846581,29.495006 29.345982,29.495006 C 29.964708,29.509351 29.833949,29.502483 29.833949,29.105535 C 29.879172,28.902853 30.473875,12.127064 30.496766,11.862096 C 30.496766,11.583102 30.554865,11.499999 30.191836,11.499999 C 21.115334,11.499999 11.00334,11.499999 1.9268353,11.499999 z"/><path id="path6127" fill="url(#linearGradient2437)" fill-opacity="1" stroke="none" stroke-dashoffset="0" stroke-linecap="round" stroke-linejoin="round" stroke-miterlimit="4" stroke-opacity="1" stroke-width="1" d="M 1.6818182,11 L 30.318182,11.000266 C 30.731883,11.000266 31,11.29236 31,11.655504 L 30.326494,29.367605 C 30.336061,29.82709 30.190093,30.009274 29.709425,29.999639 L 2.4532999,29.988097 C 2.0395984,29.988097 1.6224334,29.716924 1.6224334,29.353782 L 1,11.655493 C 1,11.292349 1.2681168,11 1.6818182,11 z" opacity=".4"/><path id="path2435" fill="none" fill-rule="evenodd" stroke="url(#radialGradient2434)" stroke-dasharray="none" stroke-linecap="round" stroke-linejoin="round" stroke-miterlimit="4" stroke-opacity="1" stroke-width="1" d="M 29.5,12.5 C 21.196732,12.5 10.803266,12.5 2.4999998,12.5 C 2.7365055,17.5 2.9730111,22.500001 3.2095168,27.500001"/><path id="path3455" fill="url(#linearGradient2431)" fill-opacity="1" stroke="none" stroke-dashoffset="0" stroke-linecap="round" stroke-linejoin="round" stroke-miterlimit="4" stroke-opacity="1" stroke-width="1" d="M 30.405737,11.017168 C 20.926175,11.066755 11.205415,10.987455 1.7245005,11.001754 C 0.54733374,11.279689 1.1808557,12.669304 1.0909311,13.551491 C 1.235591,16.366119 1.3014202,19.193082 1.4951832,22 C 11.268537,20.402631 20.993365,18.885268 30.595629,17.234084 C 31.104472,15.48543 30.967512,12.329225 30.994211,11.689651 C 31.045461,11.232938 30.748835,11.009517 30.405737,11.017168 z"/><g id="g2467" transform="translate(13,15)"><g id="g2479"><path id="path2426" fill="url(#linearGradient3262)" fill-opacity="1" fill-rule="nonzero" stroke="url(#linearGradient3264)" stroke-dasharray="none" stroke-dashoffset="0" stroke-linecap="butt" stroke-linejoin="round" stroke-miterlimit="4" stroke-opacity="1" stroke-width="1" d="M 6.9375,0.5 C 6.6890831,0.5 6.5,0.68908218 6.5,0.9375 L 6.5,2.1875 C 5.9460971,2.3297005 5.448836,2.5593783 4.96875,2.84375 L 4.0625,1.9375 C 3.8868431,1.7618421 3.613158,1.7618421 3.4375,1.9375 L 1.9375,3.4375 C 1.761843,3.6131579 1.761843,3.8868421 1.9375,4.0625 L 2.84375,4.96875 C 2.5593789,5.4488356 2.329701,5.9460968 2.1875,6.5 L 0.9375,6.5 C 0.68908301,6.5 0.5,6.6890821 0.5,6.9375 L 0.5,9.0625 C 0.50000001,9.3109178 0.689083,9.5 0.9375,9.5 L 2.1875,9.5 C 2.3297009,10.053903 2.559379,10.551164 2.84375,11.03125 L 1.9375,11.9375 C 1.761843,12.113158 1.761843,12.386842 1.9375,12.5625 L 3.4375,14.0625 C 3.6131579,14.238158 3.886842,14.238158 4.0625,14.0625 L 4.96875,13.15625 C 5.4488361,13.440622 5.946097,13.6703 6.5,13.8125 L 6.5,15.0625 C 6.5000001,15.310918 6.689083,15.5 6.9375,15.5 L 9.0625,15.5 C 9.3109176,15.5 9.5,15.310918 9.5,15.0625 L 9.5,13.8125 C 10.053903,13.6703 10.551164,13.440622 11.03125,13.15625 L 11.9375,14.0625 C 12.113158,14.238158 12.386842,14.238158 12.5625,14.0625 L 14.0625,12.5625 C 14.238158,12.386842 14.238158,12.113158 14.0625,11.9375 L 13.15625,11.03125 C 13.440622,10.551164 13.6703,10.053903 13.8125,9.5 L 15.0625,9.5 C 15.310918,9.5 15.5,9.3109174 15.5,9.0625 L 15.5,6.9375 C 15.5,6.6890822 15.310917,6.5 15.0625,6.5 L 13.8125,6.5 C 13.6703,5.9460968 13.440622,5.4488356 13.15625,4.96875 L 14.0625,4.0625 C 14.238158,3.8868421 14.238158,3.613158 14.0625,3.4375 L 12.5625,1.9375 C 12.386842,1.7618421 12.113158,1.7618421 11.9375,1.9375 L 11.03125,2.84375 C 10.551164,2.5593783 10.053903,2.3297005 9.5,2.1875 L 9.5,0.9375 C 9.4999996,0.68908218 9.310918,0.5 9.0625,0.5 L 6.9375,0.5 L 6.9375,0.5 z M 8,6 C 9.104,6 10,6.896 10,8 C 10,9.104 9.104,10 8,10 C 6.896,10 6,9.104 6,8 C 6,6.896 6.896,6 8,6 z" display="block" enable-background="accumulate" overflow="visible" visibility="visible" style="marker:none"/><path id="path3315" fill="#000" fill-opacity="1" stroke="none" d="M 8,3.465116 C 5.4994229,3.465116 3.4651163,5.499423 3.4651163,8 C 3.4651163,10.500577 5.4994229,12.534884 8,12.534884 C 10.500576,12.534883 12.534884,10.500577 12.534884,8 C 12.534884,5.499423 10.500576,3.465116 8,3.465116 z M 8,5.55814 C 9.347907,5.55814 10.44186,6.652093 10.44186,8 C 10.44186,9.347907 9.347907,10.44186 8,10.44186 C 6.652093,10.44186 5.5581395,9.347907 5.5581395,8 C 5.5581395,6.652093 6.652093,5.55814 8,5.55814 z" opacity=".05"/><path id="path28" fill="none" stroke="url(#linearGradient3260)" stroke-dasharray="none" stroke-miterlimit="4" stroke-width="1" d="M 8.0000001,4 C 5.7943997,4 3.9999999,5.7944001 3.9999999,8.0000008 C 3.9999999,10.2056 5.7943997,12 8.0000001,12 C 10.2056,12 12,10.2056 12,8.0000008 C 12,5.7944001 10.2056,4 8.0000001,4 z"/></g></g></svg>