<svg xmlns="http://www.w3.org/2000/svg" xmlns:svg="http://www.w3.org/2000/svg" xmlns:xlink="http://www.w3.org/1999/xlink" id="svg44406" width="32" height="32" version="1.0"><defs id="defs44408"><linearGradient id="linearGradient3484"><stop id="stop3486" offset="0" stop-color="#bdbdbd" stop-opacity="1"/><stop id="stop3488" offset="1" stop-color="#d0d0d0" stop-opacity="1"/></linearGradient><linearGradient id="linearGradient6404"><stop id="stop6406" offset="0" stop-color="#f9f9f9" stop-opacity="1"/><stop id="stop6408" offset="1" stop-color="#c9c9c9" stop-opacity="1"/></linearGradient><linearGradient id="linearGradient5048-585"><stop id="stop2667" offset="0" stop-color="#000" stop-opacity="0"/><stop id="stop2669" offset=".5" stop-color="#000" stop-opacity="1"/><stop id="stop2671" offset="1" stop-color="#000" stop-opacity="0"/></linearGradient><linearGradient id="linearGradient5060-179"><stop id="stop2675" offset="0" stop-color="#000" stop-opacity="1"/><stop id="stop2677" offset="1" stop-color="#000" stop-opacity="0"/></linearGradient><linearGradient id="linearGradient5060-820"><stop id="stop2681" offset="0" stop-color="#000" stop-opacity="1"/><stop id="stop2683" offset="1" stop-color="#000" stop-opacity="0"/></linearGradient><linearGradient id="linearGradient3390"><stop id="stop3392" offset="0" stop-color="#425e7b" stop-opacity="1"/><stop id="stop3394" offset="1" stop-color="#7a91a7" stop-opacity="1"/></linearGradient><linearGradient id="linearGradient7012-661-145-733-759-865-745"><stop id="stop2699" offset="0" stop-color="#9cbbd9" stop-opacity="1"/><stop id="stop2701" offset="1" stop-color="#5c82ab" stop-opacity="1"/></linearGradient><linearGradient id="linearGradient6129-963-697-142-998-580-273"><stop id="stop2661" offset="0" stop-color="#0a0a0a" stop-opacity=".498"/><stop id="stop2663" offset="1" stop-color="#0a0a0a" stop-opacity="0"/></linearGradient><linearGradient id="linearGradient6087-437-184-795-110-662-495"><stop id="stop2693" offset="0" stop-color="#fff" stop-opacity=".4"/><stop id="stop2695" offset="1" stop-color="#fff" stop-opacity="0"/></linearGradient><linearGradient id="linearGradient8265-821-176-38-919-66-249"><stop id="stop2687" offset="0" stop-color="#fff" stop-opacity=".2"/><stop id="stop2689" offset="1" stop-color="#fff" stop-opacity="0"/></linearGradient><linearGradient id="linearGradient2431" x1="11.566" x2="15.215" y1="22.292" y2="33.955" gradientTransform="matrix(0.6515346,0,0,0.6760494,0.3603499,0.1849652)" gradientUnits="userSpaceOnUse" xlink:href="#linearGradient8265-821-176-38-919-66-249"/><radialGradient id="radialGradient2434" cx="7.265" cy="8.302" r="20.98" fx="7.265" fy="8.302" gradientTransform="matrix(0,0.7386341,-0.9984871,0,17.148572,6.8540185)" gradientUnits="userSpaceOnUse" xlink:href="#linearGradient6087-437-184-795-110-662-495"/><linearGradient id="linearGradient2437" x1="22.935" x2="22.809" y1="49.629" y2="36.658" gradientTransform="matrix(0.7467531,0,0,0.6554922,-1.9220764,1.1676179)" gradientUnits="userSpaceOnUse" xlink:href="#linearGradient6129-963-697-142-998-580-273"/><radialGradient id="radialGradient2440" cx="63.969" cy="14.113" r="23.097" fx="63.969" fy="14.113" gradientTransform="matrix(1.007989,-6.1246211e-8,3.9794263e-8,0.6539555,-55.005411,6.1061543)" gradientUnits="userSpaceOnUse" xlink:href="#linearGradient7012-661-145-733-759-865-745"/><linearGradient id="linearGradient2442" x1="82.453" x2="82.453" y1="45.114" y2="10.826" gradientTransform="matrix(0.644209,0,0,0.643728,-34.102646,0.7887616)" gradientUnits="userSpaceOnUse" xlink:href="#linearGradient3390"/><linearGradient id="linearGradient2454" x1="62.989" x2="62.989" y1="13.183" y2="16.19" gradientTransform="matrix(0.627907,0,0,0.6348983,-31.055913,1.1034431)" gradientUnits="userSpaceOnUse" xlink:href="#linearGradient6404"/><radialGradient id="radialGradient2456" cx="3" cy="5.017" r="21" fx="3" fy="5.017" gradientTransform="matrix(0,1.0884009,-1.355859,0,8.9733195,2.9173483)" gradientUnits="userSpaceOnUse" xlink:href="#linearGradient3484"/><linearGradient id="linearGradient2463" x1="302.857" x2="302.857" y1="366.648" y2="609.505" gradientTransform="matrix(0.05114282,0,0,0.01591575,-2.4899573,22.29927)" gradientUnits="userSpaceOnUse" xlink:href="#linearGradient5048-585"/><radialGradient id="radialGradient2465" cx="605.714" cy="486.648" r="117.143" fx="605.714" fy="486.648" gradientTransform="matrix(0.01983573,0,0,0.01591575,16.38765,22.29927)" gradientUnits="userSpaceOnUse" xlink:href="#linearGradient5060-179"/><radialGradient id="radialGradient2467" cx="605.714" cy="486.648" r="117.143" fx="605.714" fy="486.648" gradientTransform="matrix(-0.01983573,0,0,0.01591575,15.60139,22.29927)" gradientUnits="userSpaceOnUse" xlink:href="#linearGradient5060-820"/><linearGradient id="linearGradient3932"><stop id="stop3934" offset="0" stop-color="#828282" stop-opacity="1"/><stop id="stop3936" offset="1" stop-color="#434343" stop-opacity="1"/></linearGradient><linearGradient id="linearGradient3582"><stop id="stop3584" offset="0" stop-color="#333" stop-opacity="1"/><stop id="stop3586" offset="1" stop-color="#5a5a5a" stop-opacity="1"/></linearGradient><linearGradient id="linearGradient3294" x1="12.872" x2="12.872" y1="5.056" y2="21.468" gradientTransform="matrix(0.6581265,0,0,0.6674529,13.39223,15.787296)" gradientUnits="userSpaceOnUse" xlink:href="#linearGradient3522"/><linearGradient id="linearGradient3296" x1="5.66" x2="5.66" y1="18.3" y2="1" gradientTransform="matrix(0.8374561,0,0,0.8569233,13.481556,15.322905)" gradientUnits="userSpaceOnUse" xlink:href="#linearGradient3582"/><linearGradient id="linearGradient3299" x1="5.45" x2="5.45" y1="-.382" y2="18.299" gradientTransform="matrix(0.8527832,0,0,0.8564799,13.352374,15.327136)" gradientUnits="userSpaceOnUse" xlink:href="#linearGradient3932"/><linearGradient id="linearGradient3301" x1="2.671" x2="2.671" y1="18.3" y2=".781" gradientTransform="matrix(0.8527832,0,0,0.8564799,13.352374,15.327136)" gradientUnits="userSpaceOnUse" xlink:href="#linearGradient3582"/><linearGradient id="linearGradient3576"><stop id="stop3578" offset="0" stop-color="#9fbad6" stop-opacity="1"/><stop id="stop3580" offset="1" stop-color="#587b9f" stop-opacity="1"/></linearGradient><linearGradient id="linearGradient3522"><stop id="stop3524" offset="0" stop-color="#81aac3" stop-opacity="1"/><stop id="stop3526" offset="1" stop-color="#4e82a3" stop-opacity="1"/></linearGradient><linearGradient id="linearGradient4689" x1="17" x2="17" y1="15" y2="30" gradientUnits="userSpaceOnUse" xlink:href="#linearGradient3576"/></defs><path id="path3468" fill="url(#linearGradient2454)" fill-opacity="1" stroke="url(#radialGradient2456)" stroke-dasharray="none" stroke-linecap="round" stroke-linejoin="round" stroke-miterlimit="4" stroke-opacity="1" stroke-width="1" d="M 4,6.5000785 C 3.566574,6.5049492 3.5,6.7173065 3.5,7.1349768 L 3.5,8.5 c -1.2456805,0 -1,-0.0018 -1,0.5438922 0.021607,6.5331318 0,6.9014318 0,7.4561078 0.9013419,0 26.999999,-2.348954 26.999999,-3.36005 l 0,-4.0960578 C 29.499999,8.6262224 29.152009,8.4951297 28.718581,8.5 L 14.5,8.5 l 0,-1.3650232 c 0,-0.4176703 -0.264249,-0.639769 -0.697676,-0.6348983 l -9.802324,0 z" display="inline"/><g id="g2458" transform="translate(0,-1.000001)"><rect id="rect4173" width="24.695" height="3.865" x="3.647" y="28.135" fill="url(#linearGradient2463)" fill-opacity="1" fill-rule="nonzero" stroke="none" stroke-width="1" display="inline" opacity=".3" overflow="visible" visibility="visible" style="marker:none"/><path id="path5058" fill="url(#radialGradient2465)" fill-opacity="1" fill-rule="nonzero" stroke="none" stroke-width="1" d="m 28.341859,28.13488 c 0,0 0,3.865041 0,3.865041 1.021491,0.0073 2.469468,-0.86596 2.469468,-1.932769 0,-1.06681 -1.139908,-1.932272 -2.469468,-1.932272 z" display="inline" opacity=".3" overflow="visible" visibility="visible" style="marker:none"/><path id="path5018" fill="url(#radialGradient2467)" fill-opacity="1" fill-rule="nonzero" stroke="none" stroke-width="1" d="m 3.6471816,28.13488 c 0,0 0,3.865041 0,3.865041 -1.0214912,0.0073 -2.4694678,-0.86596 -2.4694678,-1.932769 0,-1.06681 1.1399068,-1.932272 2.4694678,-1.932272 z" display="inline" opacity=".3" overflow="visible" visibility="visible" style="marker:none"/></g><path id="path3388" fill="url(#radialGradient2440)" fill-opacity="1" stroke="url(#linearGradient2442)" stroke-dashoffset="0" stroke-linecap="round" stroke-linejoin="round" stroke-miterlimit="4" stroke-opacity="1" stroke-width="1" d="m 1.9268353,11.499999 c -0.6910475,0.07963 -0.3219563,0.902583 -0.3770536,1.365355 0.080193,0.299061 0.5977147,15.717983 0.5977147,16.247438 0,0.460177 0.2266674,0.382214 0.8010059,0.382214 8.4994007,0 17.8980787,0 26.3974797,0 0.618726,0.01434 0.487967,0.0075 0.487967,-0.389471 0.04522,-0.202682 0.639926,-16.978471 0.662817,-17.243439 0,-0.278994 0.0581,-0.362097 -0.30493,-0.362097 -9.076502,0 -19.188496,0 -28.2650007,0 z"/><path id="path6127" fill="url(#linearGradient2437)" fill-opacity="1" stroke="none" d="m 1.6818182,11 28.6363638,2.66e-4 C 30.731883,11.000266 31,11.29236 31,11.655504 l -0.673506,17.712101 c 0.0096,0.459485 -0.136401,0.641669 -0.617069,0.632034 L 2.4532999,29.988097 c -0.4137015,0 -0.8308665,-0.271173 -0.8308665,-0.634315 L 1,11.655493 C 1,11.292349 1.2681168,11 1.6818182,11 z" opacity=".4"/><path id="path2435" fill="none" stroke="url(#radialGradient2434)" stroke-dasharray="none" stroke-linecap="round" stroke-linejoin="round" stroke-miterlimit="4" stroke-opacity="1" stroke-width="1" d="m 29.5,12.5 c -8.303268,0 -18.696734,0 -27.0000002,0 0.2365057,5 0.4730113,10.000001 0.709517,15.000001"/><path id="path3455" fill="url(#linearGradient2431)" fill-opacity="1" stroke="none" d="M 30.405737,11.017168 C 20.926175,11.066755 11.205415,10.987455 1.7245005,11.001754 0.54733374,11.279689 1.1808557,12.669304 1.0909311,13.551491 1.235591,16.366119 1.3014202,19.193082 1.4951832,22 11.268537,20.402631 20.993365,18.885268 30.595629,17.234084 c 0.508843,-1.748654 0.371883,-4.904859 0.398582,-5.544433 0.05125,-0.456713 -0.245376,-0.680134 -0.588474,-0.672483 z"/><path id="path3385" fill="url(#linearGradient3299)" fill-opacity="1" fill-rule="nonzero" stroke="url(#linearGradient3301)" stroke-dasharray="none" stroke-dashoffset="0" stroke-linecap="butt" stroke-linejoin="round" stroke-miterlimit="4" stroke-opacity="1" stroke-width="1" d="m 16.635,30.5 -2.016,0 c -0.171433,-0.167493 -0.07827,-0.427541 -0.119,-0.664659 0,-4.442429 0,-10.684912 0,-15.127341 L 14.519,14.5 c 0.734067,0 1.352933,0 2.087,0 m 8.780225,-4.8e-5 c 0.704751,0 1.306305,0 2.002775,0 0.09887,0 0.111002,0.370643 0.111002,0.663247 0,4.439577 0,10.788223 0,15.227801 -0.168583,0.170223 -0.432289,0.05955 -0.670947,0.1 L 25.40393,30.5" display="block" overflow="visible" visibility="visible" style="marker:none"/><rect id="rect3457" width="8.97" height="16.011" x="16.532" y="14.491" fill="url(#linearGradient3294)" fill-opacity="1" stroke="url(#linearGradient3296)" stroke-dasharray="none" stroke-dashoffset="0" stroke-linecap="butt" stroke-linejoin="miter" stroke-miterlimit="4" stroke-opacity="1" stroke-width="1" display="inline" rx="0" ry="0"/><path id="path4320" fill="none" stroke="#464646" stroke-dasharray="none" stroke-dashoffset="0" stroke-linecap="square" stroke-linejoin="round" stroke-miterlimit="4" stroke-opacity="1" stroke-width="1" d="m 16.5,22.5 8.484484,0" display="block" overflow="visible" visibility="visible" style="marker:none"/><path id="path4820" fill="none" stroke="#fff" stroke-dasharray="none" stroke-dashoffset="0" stroke-linecap="square" stroke-linejoin="round" stroke-miterlimit="4" stroke-opacity="1" stroke-width="1" d="m 17.5,23.5 7,0 m -7,-8 7,0" display="block" opacity=".366" overflow="visible" visibility="visible" style="marker:none"/><path id="rect4176" fill="url(#linearGradient4689)" fill-opacity="1" stroke="none" d="m 15,15 0.999999,0 0,1 L 15,16 15,15 z m 0,2 0.999999,0 0,1 L 15,18 15,17 z m 0,2 0.999999,0 0,1 L 15,20 15,19 z m 0,2 0.999999,0 0,1 L 15,22 15,21 z m 0,2 0.999999,0 0,0.999999 -0.999999,0 L 15,23 z m 0,2 0.999999,0 0,1 L 15,26 15,25 z m 0,2 0.999999,0 0,0.999999 -0.999999,0 L 15,27 z m 0,2 0.999999,0 0,1 L 15,30 15,29 z m 11,-14 1,0 0,1 -1,0 0,-1 z m 0,2 1,0 0,1 -1,0 0,-1 z m 0,2 1,0 0,1 -1,0 0,-1 z m 0,2 1,0 0,1 -1,0 0,-1 z m 0,2 1,0 0,0.999999 -1,0 L 26,23 z m 0,2 1,0 0,1 -1,0 0,-1 z m 0,2 1,0 0,0.999999 -1,0 L 26,27 z m 0,2 1,0 0,1 -1,0 0,-1 z" opacity=".9"/></svg>