<svg xmlns="http://www.w3.org/2000/svg" xmlns:svg="http://www.w3.org/2000/svg" xmlns:xlink="http://www.w3.org/1999/xlink" id="svg44406" width="32" height="32" version="1.0"><defs id="defs44408"><linearGradient id="linearGradient2776"><stop id="stop2778" offset="0" stop-color="#aaa" stop-opacity="1"/><stop id="stop2780" offset="1" stop-color="#c5c5c5" stop-opacity="1"/></linearGradient><linearGradient id="linearGradient2494" x1="-51.786" x2="-51.786" y1="50.786" y2="2.906" gradientTransform="matrix(0.2537858,0,0,0.3050189,34.128981,14.31452)" gradientUnits="userSpaceOnUse" xlink:href="#linearGradient2776"/><linearGradient id="linearGradient3600"><stop id="stop3602" offset="0" stop-color="#f4f4f4" stop-opacity="1"/><stop id="stop3604" offset="1" stop-color="#dbdbdb" stop-opacity="1"/></linearGradient><linearGradient id="linearGradient2492" x1="25.132" x2="25.132" y1=".985" y2="47.013" gradientTransform="matrix(0.3142872,0,0,0.3259268,15.457106,14.677759)" gradientUnits="userSpaceOnUse" xlink:href="#linearGradient3600"/><linearGradient id="linearGradient3211"><stop id="stop3213" offset="0" stop-color="#fff" stop-opacity="1"/><stop id="stop3215" offset="1" stop-color="#fff" stop-opacity="0"/></linearGradient><linearGradient id="linearGradient2489" x1="24" x2="24" y1="2" y2="46.017" gradientTransform="matrix(0.2727267,0,0,0.302325,16.45456,15.744204)" gradientUnits="userSpaceOnUse" xlink:href="#linearGradient3211"/><linearGradient id="linearGradient8589"><stop id="stop8591" offset="0" stop-color="#fefefe" stop-opacity="1"/><stop id="stop8593" offset="1" stop-color="#cbcbcb" stop-opacity="1"/></linearGradient><linearGradient id="linearGradient2485" x1="32.892" x2="36.358" y1="8.059" y2="5.457" gradientTransform="matrix(0.3091956,0,0,0.3766935,15.476145,14.154848)" gradientUnits="userSpaceOnUse" xlink:href="#linearGradient8589"/><linearGradient id="linearGradient3484"><stop id="stop3486" offset="0" stop-color="#bdbdbd" stop-opacity="1"/><stop id="stop3488" offset="1" stop-color="#d0d0d0" stop-opacity="1"/></linearGradient><linearGradient id="linearGradient6404"><stop id="stop6406" offset="0" stop-color="#f9f9f9" stop-opacity="1"/><stop id="stop6408" offset="1" stop-color="#c9c9c9" stop-opacity="1"/></linearGradient><linearGradient id="linearGradient5048-585"><stop id="stop2667" offset="0" stop-color="#000" stop-opacity="0"/><stop id="stop2669" offset=".5" stop-color="#000" stop-opacity="1"/><stop id="stop2671" offset="1" stop-color="#000" stop-opacity="0"/></linearGradient><linearGradient id="linearGradient5060-179"><stop id="stop2675" offset="0" stop-color="#000" stop-opacity="1"/><stop id="stop2677" offset="1" stop-color="#000" stop-opacity="0"/></linearGradient><linearGradient id="linearGradient5060-820"><stop id="stop2681" offset="0" stop-color="#000" stop-opacity="1"/><stop id="stop2683" offset="1" stop-color="#000" stop-opacity="0"/></linearGradient><linearGradient id="linearGradient3390"><stop id="stop3392" offset="0" stop-color="#425e7b" stop-opacity="1"/><stop id="stop3394" offset="1" stop-color="#7a91a7" stop-opacity="1"/></linearGradient><linearGradient id="linearGradient7012-661-145-733-759-865-745"><stop id="stop2699" offset="0" stop-color="#9cbbd9" stop-opacity="1"/><stop id="stop2701" offset="1" stop-color="#5c82ab" stop-opacity="1"/></linearGradient><linearGradient id="linearGradient6129-963-697-142-998-580-273"><stop id="stop2661" offset="0" stop-color="#0a0a0a" stop-opacity=".498"/><stop id="stop2663" offset="1" stop-color="#0a0a0a" stop-opacity="0"/></linearGradient><linearGradient id="linearGradient6087-437-184-795-110-662-495"><stop id="stop2693" offset="0" stop-color="#fff" stop-opacity=".4"/><stop id="stop2695" offset="1" stop-color="#fff" stop-opacity="0"/></linearGradient><linearGradient id="linearGradient8265-821-176-38-919-66-249"><stop id="stop2687" offset="0" stop-color="#fff" stop-opacity=".2"/><stop id="stop2689" offset="1" stop-color="#fff" stop-opacity="0"/></linearGradient><linearGradient id="linearGradient2431" x1="11.566" x2="15.215" y1="22.292" y2="33.955" gradientTransform="matrix(0.6515346,0,0,0.6760494,0.3603499,0.1849652)" gradientUnits="userSpaceOnUse" xlink:href="#linearGradient8265-821-176-38-919-66-249"/><radialGradient id="radialGradient2434" cx="7.265" cy="8.302" r="20.98" fx="7.265" fy="8.302" gradientTransform="matrix(0,0.7386341,-0.9984871,0,17.148572,6.8540185)" gradientUnits="userSpaceOnUse" xlink:href="#linearGradient6087-437-184-795-110-662-495"/><linearGradient id="linearGradient2437" x1="22.935" x2="22.809" y1="49.629" y2="36.658" gradientTransform="matrix(0.7467531,0,0,0.6554922,-1.9220764,1.1676179)" gradientUnits="userSpaceOnUse" xlink:href="#linearGradient6129-963-697-142-998-580-273"/><radialGradient id="radialGradient2440" cx="63.969" cy="14.113" r="23.097" fx="63.969" fy="14.113" gradientTransform="matrix(1.007989,-6.1246211e-8,3.9794263e-8,0.6539555,-55.005411,6.1061543)" gradientUnits="userSpaceOnUse" xlink:href="#linearGradient7012-661-145-733-759-865-745"/><linearGradient id="linearGradient2442" x1="82.453" x2="82.453" y1="45.114" y2="10.826" gradientTransform="matrix(0.644209,0,0,0.643728,-34.102646,0.7887616)" gradientUnits="userSpaceOnUse" xlink:href="#linearGradient3390"/><linearGradient id="linearGradient2454" x1="62.989" x2="62.989" y1="13.183" y2="16.19" gradientTransform="matrix(0.627907,0,0,0.6348983,-31.055913,1.1034431)" gradientUnits="userSpaceOnUse" xlink:href="#linearGradient6404"/><radialGradient id="radialGradient2456" cx="3" cy="5.017" r="21" fx="3" fy="5.017" gradientTransform="matrix(0,1.0884009,-1.355859,0,8.9733195,2.9173483)" gradientUnits="userSpaceOnUse" xlink:href="#linearGradient3484"/><linearGradient id="linearGradient2463" x1="302.857" x2="302.857" y1="366.648" y2="609.505" gradientTransform="matrix(5.1142824e-2,0,0,1.5915752e-2,-2.4899573,22.29927)" gradientUnits="userSpaceOnUse" xlink:href="#linearGradient5048-585"/><radialGradient id="radialGradient2465" cx="605.714" cy="486.648" r="117.143" fx="605.714" fy="486.648" gradientTransform="matrix(1.9835731e-2,0,0,1.5915752e-2,16.38765,22.29927)" gradientUnits="userSpaceOnUse" xlink:href="#linearGradient5060-179"/><radialGradient id="radialGradient2467" cx="605.714" cy="486.648" r="117.143" fx="605.714" fy="486.648" gradientTransform="matrix(-1.9835727e-2,0,0,1.5915752e-2,15.60139,22.29927)" gradientUnits="userSpaceOnUse" xlink:href="#linearGradient5060-820"/></defs><path id="path3468" fill="url(#linearGradient2454)" fill-opacity="1" stroke="url(#radialGradient2456)" stroke-dasharray="none" stroke-linecap="round" stroke-linejoin="round" stroke-miterlimit="4" stroke-opacity="1" stroke-width="1" d="M 4,6.5000785 C 3.566574,6.5049492 3.5,6.7173065 3.5,7.1349768 L 3.5,8.5 C 2.2543195,8.5 2.5,8.4981971 2.5,9.0438922 C 2.5216068,15.577024 2.5,15.945324 2.5,16.5 C 3.4013419,16.5 29.499999,14.151046 29.499999,13.13995 L 29.499999,9.0438922 C 29.499999,8.6262224 29.152009,8.4951297 28.718581,8.5 L 14.5,8.5 L 14.5,7.1349768 C 14.5,6.7173065 14.235751,6.4952078 13.802324,6.5000785 L 4,6.5000785 z" display="inline"/><g id="g2458" transform="translate(0,-1.000001)"><rect id="rect4173" width="24.695" height="3.865" x="3.647" y="28.135" fill="url(#linearGradient2463)" fill-opacity="1" fill-rule="nonzero" stroke="none" stroke-dasharray="none" stroke-dashoffset="0" stroke-linecap="round" stroke-linejoin="miter" stroke-miterlimit="4" stroke-opacity="1" stroke-width="1" marker-end="none" marker-mid="none" marker-start="none" display="inline" opacity=".3" overflow="visible" visibility="visible" style="marker:none"/><path id="path5058" fill="url(#radialGradient2465)" fill-opacity="1" fill-rule="nonzero" stroke="none" stroke-dasharray="none" stroke-dashoffset="0" stroke-linecap="round" stroke-linejoin="miter" stroke-miterlimit="4" stroke-opacity="1" stroke-width="1" marker-end="none" marker-mid="none" marker-start="none" d="M 28.341859,28.13488 C 28.341859,28.13488 28.341859,31.999921 28.341859,31.999921 C 29.36335,32.007197 30.811327,31.133961 30.811327,30.067152 C 30.811327,29.000342 29.671419,28.13488 28.341859,28.13488 z" display="inline" opacity=".3" overflow="visible" visibility="visible" style="marker:none"/><path id="path5018" fill="url(#radialGradient2467)" fill-opacity="1" fill-rule="nonzero" stroke="none" stroke-dasharray="none" stroke-dashoffset="0" stroke-linecap="round" stroke-linejoin="miter" stroke-miterlimit="4" stroke-opacity="1" stroke-width="1" marker-end="none" marker-mid="none" marker-start="none" d="M 3.6471816,28.13488 C 3.6471816,28.13488 3.6471816,31.999921 3.6471816,31.999921 C 2.6256904,32.007197 1.1777138,31.133961 1.1777138,30.067152 C 1.1777138,29.000342 2.3176206,28.13488 3.6471816,28.13488 z" display="inline" opacity=".3" overflow="visible" visibility="visible" style="marker:none"/></g><path id="path3388" fill="url(#radialGradient2440)" fill-opacity="1" stroke="url(#linearGradient2442)" stroke-dashoffset="0" stroke-linecap="round" stroke-linejoin="round" stroke-miterlimit="4" stroke-opacity="1" stroke-width="1" d="M 1.9268353,11.499999 C 1.2357878,11.579625 1.604879,12.402582 1.5497817,12.865354 C 1.6299747,13.164415 2.1474964,28.583337 2.1474964,29.112792 C 2.1474964,29.572969 2.3741638,29.495006 2.9485023,29.495006 C 11.447903,29.495006 20.846581,29.495006 29.345982,29.495006 C 29.964708,29.509351 29.833949,29.502483 29.833949,29.105535 C 29.879172,28.902853 30.473875,12.127064 30.496766,11.862096 C 30.496766,11.583102 30.554865,11.499999 30.191836,11.499999 C 21.115334,11.499999 11.00334,11.499999 1.9268353,11.499999 z"/><path id="path6127" fill="url(#linearGradient2437)" fill-opacity="1" stroke="none" stroke-dashoffset="0" stroke-linecap="round" stroke-linejoin="round" stroke-miterlimit="4" stroke-opacity="1" stroke-width="1" d="M 1.6818182,11 L 30.318182,11.000266 C 30.731883,11.000266 31,11.29236 31,11.655504 L 30.326494,29.367605 C 30.336061,29.82709 30.190093,30.009274 29.709425,29.999639 L 2.4532999,29.988097 C 2.0395984,29.988097 1.6224334,29.716924 1.6224334,29.353782 L 1,11.655493 C 1,11.292349 1.2681168,11 1.6818182,11 z" opacity=".4"/><path id="path2435" fill="none" fill-rule="evenodd" stroke="url(#radialGradient2434)" stroke-dasharray="none" stroke-linecap="round" stroke-linejoin="round" stroke-miterlimit="4" stroke-opacity="1" stroke-width="1" d="M 29.5,12.5 C 21.196732,12.5 10.803266,12.5 2.4999998,12.5 C 2.7365055,17.5 2.9730111,22.500001 3.2095168,27.500001"/><path id="path3455" fill="url(#linearGradient2431)" fill-opacity="1" stroke="none" stroke-dashoffset="0" stroke-linecap="round" stroke-linejoin="round" stroke-miterlimit="4" stroke-opacity="1" stroke-width="1" d="M 30.405737,11.017168 C 20.926175,11.066755 11.205415,10.987455 1.7245005,11.001754 C 0.54733374,11.279689 1.1808557,12.669304 1.0909311,13.551491 C 1.235591,16.366119 1.3014202,19.193082 1.4951832,22 C 11.268537,20.402631 20.993365,18.885268 30.595629,17.234084 C 31.104472,15.48543 30.967512,12.329225 30.994211,11.689651 C 31.045461,11.232938 30.748835,11.009517 30.405737,11.017168 z"/><path id="path4160" fill="url(#linearGradient2492)" fill-opacity="1" stroke="url(#linearGradient2494)" stroke-dasharray="none" stroke-dashoffset="0" stroke-linecap="butt" stroke-linejoin="round" stroke-miterlimit="4" stroke-opacity="1" stroke-width="1" d="M 16.5,14.5 C 19.020675,14.5 22.479322,14.5 25,14.5 C 25.442179,14.661794 27.938512,16.723725 28.558831,18 C 28.558831,21.906246 28.500038,26.59379 28.500038,30.500039 C 24.833345,30.500039 20.166692,30.500039 16.5,30.500039 C 16.5,25.500016 16.5,19.500021 16.5,14.5 z" display="inline"/><path id="path2480" fill="none" fill-opacity="1" stroke="url(#linearGradient2489)" stroke-dasharray="none" stroke-dashoffset="0" stroke-linecap="butt" stroke-linejoin="miter" stroke-miterlimit="4" stroke-opacity="1" stroke-width="1" d="M 27.499999,18 C 27.499999,21.385398 27.499999,26.114607 27.499999,29.500006 C 24.5,29.500006 20.500001,29.500006 17.5,29.500006 C 17.5,25.166669 17.5,19.833333 17.5,15.5 C 19.562357,15.5 22.673899,15.5 24.736257,15.5" display="inline" opacity=".6"/><path id="path3330" fill="#c1c1c1" fill-opacity="1" fill-rule="evenodd" stroke="none" stroke-linecap="butt" stroke-linejoin="miter" stroke-opacity="1" stroke-width="1" d="M 24.29412,14.888572 C 25.142027,17.692475 23.999999,19.081789 23.999999,19.081789 C 23.999999,19.081789 25.892806,17.830383 28.171353,18.979484 C 30.114209,19.959293 28.207428,17.971461 28.129894,17.850439 C 27.586943,17.002934 25.707453,15.217332 25.025255,14.920257 C 24.969622,14.89603 24.581437,14.888572 24.29412,14.888572 z" display="inline"/><path id="path4474" fill="url(#linearGradient2485)" fill-opacity="1" fill-rule="evenodd" stroke="none" stroke-linecap="butt" stroke-linejoin="miter" stroke-opacity="1" stroke-width="1" d="M 24.29412,14.888572 C 25.28164,14.888572 24.999999,18.069591 24.999999,18.069591 C 24.999999,18.069591 27.272471,17.56886 28.171353,18.979484 C 28.334235,19.235097 28.207428,17.971461 28.129894,17.850439 C 27.586943,17.002934 25.707453,15.217332 25.025255,14.920257 C 24.969622,14.89603 24.581437,14.888572 24.29412,14.888572 z" display="inline"/></svg>