<svg xmlns="http://www.w3.org/2000/svg" xmlns:svg="http://www.w3.org/2000/svg" xmlns:xlink="http://www.w3.org/1999/xlink" id="svg44406" width="32" height="32" version="1.0"><defs id="defs44408"><linearGradient id="linearGradient3484"><stop id="stop3486" offset="0" stop-color="#bdbdbd" stop-opacity="1"/><stop id="stop3488" offset="1" stop-color="#d0d0d0" stop-opacity="1"/></linearGradient><linearGradient id="linearGradient6404"><stop id="stop6406" offset="0" stop-color="#f9f9f9" stop-opacity="1"/><stop id="stop6408" offset="1" stop-color="#c9c9c9" stop-opacity="1"/></linearGradient><linearGradient id="linearGradient5048-585"><stop id="stop2667" offset="0" stop-color="#000" stop-opacity="0"/><stop id="stop2669" offset=".5" stop-color="#000" stop-opacity="1"/><stop id="stop2671" offset="1" stop-color="#000" stop-opacity="0"/></linearGradient><linearGradient id="linearGradient5060-179"><stop id="stop2675" offset="0" stop-color="#000" stop-opacity="1"/><stop id="stop2677" offset="1" stop-color="#000" stop-opacity="0"/></linearGradient><linearGradient id="linearGradient5060-820"><stop id="stop2681" offset="0" stop-color="#000" stop-opacity="1"/><stop id="stop2683" offset="1" stop-color="#000" stop-opacity="0"/></linearGradient><linearGradient id="linearGradient3390"><stop id="stop3392" offset="0" stop-color="#425e7b" stop-opacity="1"/><stop id="stop3394" offset="1" stop-color="#7a91a7" stop-opacity="1"/></linearGradient><linearGradient id="linearGradient7012-661-145-733-759-865-745"><stop id="stop2699" offset="0" stop-color="#9cbbd9" stop-opacity="1"/><stop id="stop2701" offset="1" stop-color="#5c82ab" stop-opacity="1"/></linearGradient><linearGradient id="linearGradient6129-963-697-142-998-580-273"><stop id="stop2661" offset="0" stop-color="#0a0a0a" stop-opacity=".498"/><stop id="stop2663" offset="1" stop-color="#0a0a0a" stop-opacity="0"/></linearGradient><linearGradient id="linearGradient6087-437-184-795-110-662-495"><stop id="stop2693" offset="0" stop-color="#fff" stop-opacity=".4"/><stop id="stop2695" offset="1" stop-color="#fff" stop-opacity="0"/></linearGradient><linearGradient id="linearGradient8265-821-176-38-919-66-249"><stop id="stop2687" offset="0" stop-color="#fff" stop-opacity=".2"/><stop id="stop2689" offset="1" stop-color="#fff" stop-opacity="0"/></linearGradient><linearGradient id="linearGradient2431" x1="11.566" x2="15.215" y1="22.292" y2="33.955" gradientTransform="matrix(0.6515346,0,0,0.6760494,0.3603499,0.1849652)" gradientUnits="userSpaceOnUse" xlink:href="#linearGradient8265-821-176-38-919-66-249"/><radialGradient id="radialGradient2434" cx="7.265" cy="8.302" r="20.98" fx="7.265" fy="8.302" gradientTransform="matrix(0,0.7386341,-0.9984871,0,17.148572,6.8540185)" gradientUnits="userSpaceOnUse" xlink:href="#linearGradient6087-437-184-795-110-662-495"/><linearGradient id="linearGradient2437" x1="22.935" x2="22.809" y1="49.629" y2="36.658" gradientTransform="matrix(0.7467531,0,0,0.6554922,-1.9220764,1.1676179)" gradientUnits="userSpaceOnUse" xlink:href="#linearGradient6129-963-697-142-998-580-273"/><radialGradient id="radialGradient2440" cx="63.969" cy="14.113" r="23.097" fx="63.969" fy="14.113" gradientTransform="matrix(1.007989,-6.1246211e-8,3.9794263e-8,0.6539555,-55.005411,6.1061543)" gradientUnits="userSpaceOnUse" xlink:href="#linearGradient7012-661-145-733-759-865-745"/><linearGradient id="linearGradient2442" x1="82.453" x2="82.453" y1="45.114" y2="10.826" gradientTransform="matrix(0.644209,0,0,0.643728,-34.102646,0.7887616)" gradientUnits="userSpaceOnUse" xlink:href="#linearGradient3390"/><linearGradient id="linearGradient2454" x1="62.989" x2="62.989" y1="13.183" y2="16.19" gradientTransform="matrix(0.627907,0,0,0.6348983,-31.055913,1.1034431)" gradientUnits="userSpaceOnUse" xlink:href="#linearGradient6404"/><radialGradient id="radialGradient2456" cx="3" cy="5.017" r="21" fx="3" fy="5.017" gradientTransform="matrix(0,1.0884009,-1.355859,0,8.9733195,2.9173483)" gradientUnits="userSpaceOnUse" xlink:href="#linearGradient3484"/><linearGradient id="linearGradient2463" x1="302.857" x2="302.857" y1="366.648" y2="609.505" gradientTransform="matrix(0.05114282,0,0,0.01591575,-2.4899573,22.29927)" gradientUnits="userSpaceOnUse" xlink:href="#linearGradient5048-585"/><radialGradient id="radialGradient2465" cx="605.714" cy="486.648" r="117.143" fx="605.714" fy="486.648" gradientTransform="matrix(0.01983573,0,0,0.01591575,16.38765,22.29927)" gradientUnits="userSpaceOnUse" xlink:href="#linearGradient5060-179"/><radialGradient id="radialGradient2467" cx="605.714" cy="486.648" r="117.143" fx="605.714" fy="486.648" gradientTransform="matrix(-0.01983573,0,0,0.01591575,15.60139,22.29927)" gradientUnits="userSpaceOnUse" xlink:href="#linearGradient5060-820"/><linearGradient id="linearGradient2372-5"><stop id="stop2374-7" offset="0" stop-color="#fff" stop-opacity="1"/><stop id="stop2376-4" offset="1" stop-color="#fff" stop-opacity=".379"/></linearGradient><linearGradient id="linearGradient7067-814-120-245"><stop id="stop3877" offset="0" stop-color="#aaa" stop-opacity="1"/><stop id="stop3879" offset="1" stop-color="#4d4d4d" stop-opacity="1"/></linearGradient><linearGradient id="linearGradient4233" x1="28.739" x2="26.257" y1="144.117" y2="125.391" gradientTransform="matrix(0.27271923,0,0,0.13827453,19.71158,-2.3690473)" gradientUnits="userSpaceOnUse" xlink:href="#linearGradient2372-5"/><linearGradient id="linearGradient4236" x1="28.739" x2="25.4" y1="144.117" y2="119.865" gradientTransform="matrix(0.13553818,0,0,0.13827453,15.45671,-1.1698957)" gradientUnits="userSpaceOnUse" xlink:href="#linearGradient2372-5"/><radialGradient id="radialGradient4239" cx="17.059" cy="41.059" r="5.738" fx="15.97" fy="39.106" gradientTransform="matrix(0.39629873,-0.06671573,0,0.38532405,18.195979,12.299405)" gradientUnits="userSpaceOnUse" xlink:href="#linearGradient7067-814-120-245"/><radialGradient id="radialGradient4242" cx="17.059" cy="41.059" r="5.738" fx="15.544" fy="39.027" gradientTransform="matrix(0.40360339,-0.06777837,0,0.39146147,10.570462,13.18451)" gradientUnits="userSpaceOnUse" xlink:href="#linearGradient7067-814-120-245"/></defs><path id="path3468" fill="url(#linearGradient2454)" fill-opacity="1" stroke="url(#radialGradient2456)" stroke-dasharray="none" stroke-linecap="round" stroke-linejoin="round" stroke-miterlimit="4" stroke-opacity="1" stroke-width="1" d="M 4,6.5000785 C 3.566574,6.5049492 3.5,6.7173065 3.5,7.1349768 L 3.5,8.5 c -1.2456805,0 -1,-0.0018 -1,0.5438922 0.021607,6.5331318 0,6.9014318 0,7.4561078 0.9013419,0 26.999999,-2.348954 26.999999,-3.36005 l 0,-4.0960578 C 29.499999,8.6262224 29.152009,8.4951297 28.718581,8.5 L 14.5,8.5 l 0,-1.3650232 c 0,-0.4176703 -0.264249,-0.639769 -0.697676,-0.6348983 l -9.802324,0 z" display="inline"/><g id="g2458" transform="translate(0,-1.000001)"><rect id="rect4173" width="24.695" height="3.865" x="3.647" y="28.135" fill="url(#linearGradient2463)" fill-opacity="1" fill-rule="nonzero" stroke="none" stroke-width="1" display="inline" opacity=".3" overflow="visible" visibility="visible" style="marker:none"/><path id="path5058" fill="url(#radialGradient2465)" fill-opacity="1" fill-rule="nonzero" stroke="none" stroke-width="1" d="m 28.341859,28.13488 c 0,0 0,3.865041 0,3.865041 1.021491,0.0073 2.469468,-0.86596 2.469468,-1.932769 0,-1.06681 -1.139908,-1.932272 -2.469468,-1.932272 z" display="inline" opacity=".3" overflow="visible" visibility="visible" style="marker:none"/><path id="path5018" fill="url(#radialGradient2467)" fill-opacity="1" fill-rule="nonzero" stroke="none" stroke-width="1" d="m 3.6471816,28.13488 c 0,0 0,3.865041 0,3.865041 -1.0214912,0.0073 -2.4694678,-0.86596 -2.4694678,-1.932769 0,-1.06681 1.1399068,-1.932272 2.4694678,-1.932272 z" display="inline" opacity=".3" overflow="visible" visibility="visible" style="marker:none"/></g><path id="path3388" fill="url(#radialGradient2440)" fill-opacity="1" stroke="url(#linearGradient2442)" stroke-dashoffset="0" stroke-linecap="round" stroke-linejoin="round" stroke-miterlimit="4" stroke-opacity="1" stroke-width="1" d="m 1.9268353,11.499999 c -0.6910475,0.07963 -0.3219563,0.902583 -0.3770536,1.365355 0.080193,0.299061 0.5977147,15.717983 0.5977147,16.247438 0,0.460177 0.2266674,0.382214 0.8010059,0.382214 8.4994007,0 17.8980787,0 26.3974797,0 0.618726,0.01434 0.487967,0.0075 0.487967,-0.389471 0.04522,-0.202682 0.639926,-16.978471 0.662817,-17.243439 0,-0.278994 0.0581,-0.362097 -0.30493,-0.362097 -9.076502,0 -19.188496,0 -28.2650007,0 z"/><path id="path6127" fill="url(#linearGradient2437)" fill-opacity="1" stroke="none" d="m 1.6818182,11 28.6363638,2.66e-4 C 30.731883,11.000266 31,11.29236 31,11.655504 l -0.673506,17.712101 c 0.0096,0.459485 -0.136401,0.641669 -0.617069,0.632034 L 2.4532999,29.988097 c -0.4137015,0 -0.8308665,-0.271173 -0.8308665,-0.634315 L 1,11.655493 C 1,11.292349 1.2681168,11 1.6818182,11 z" opacity=".4"/><path id="path2435" fill="none" stroke="url(#radialGradient2434)" stroke-dasharray="none" stroke-linecap="round" stroke-linejoin="round" stroke-miterlimit="4" stroke-opacity="1" stroke-width="1" d="m 29.5,12.5 c -8.303268,0 -18.696734,0 -27.0000002,0 0.2365057,5 0.4730113,10.000001 0.709517,15.000001"/><path id="path3455" fill="url(#linearGradient2431)" fill-opacity="1" stroke="none" d="M 30.405737,11.017168 C 20.926175,11.066755 11.205415,10.987455 1.7245005,11.001754 0.54733374,11.279689 1.1808557,12.669304 1.0909311,13.551491 1.235591,16.366119 1.3014202,19.193082 1.4951832,22 11.268537,20.402631 20.993365,18.885268 30.595629,17.234084 c 0.508843,-1.748654 0.371883,-4.904859 0.398582,-5.544433 0.05125,-0.456713 -0.245376,-0.680134 -0.588474,-0.672483 z"/><path id="path2931" fill="none" stroke="none" d="M 27,26 26.607107,22.826495"/><path id="path4031" fill="#464646" fill-opacity="1" stroke="#333" stroke-dasharray="none" stroke-linecap="round" stroke-linejoin="round" stroke-miterlimit="4" stroke-opacity="1" stroke-width="1" d="m 26.973254,14.464346 c -2.525607,0.407916 -5.905644,0.827833 -8.424231,1.25853 -0.666934,0.326142 -0.516998,1.165964 -0.546504,1.775333 0,2.719122 0,5.438244 0,8.157366 -1.405499,-0.264839 -3.119482,0.899171 -3.19382,2.742192 -0.121348,1.147425 0.893843,2.146193 1.99777,2.17305 1.976535,0.04809 3.328346,-1.266242 3.349786,-2.928446 -0.02159,-2.791575 0.0061,-5.584248 0,-8.376252 0.305992,-0.02271 4.940662,-0.909083 5.357439,-0.968099 0,2.091095 0,4.182189 0,6.273284 -1.22834,-0.29494 -2.798616,0.514112 -3.187965,2.166384 -0.164334,0.926139 0.146254,2.088607 1.083859,2.480755 1.830355,0.842964 4.343027,-0.864551 4.240875,-2.86853 -0.02835,-3.722418 0.02324,-7.446358 0,-11.169173 -0.04807,-0.349841 -0.284595,-0.741646 -0.677209,-0.716394 z"/><path id="path2937" fill="url(#radialGradient4242)" fill-opacity="1" stroke="none" d="m 19.592185,27.742423 a 1.8423261,2.2510919 56.794677 0 1 -4.273448,0.717652 1.8423261,2.2510919 56.794677 0 1 4.273448,-0.717652 z"/><path id="path2941" fill="url(#radialGradient4239)" fill-opacity="1" stroke="none" d="m 27.054421,26.629075 a 1.8120916,2.2119972 56.466221 0 1 -4.196104,0.706402 1.8120916,2.2119972 56.466221 1 1 4.196104,-0.706402 z"/><path id="path2945" fill="url(#linearGradient4236)" fill-opacity="1" fill-rule="evenodd" stroke="none" d="m 18.606548,26.251013 -0.05753,-9.324305 c 0,0 0.06297,-0.712835 0.530083,-0.715008 0.165665,-0.02905 7.427247,-1.242047 7.427247,-1.242047 0,0 0.14249,0.761923 -6.503384,1.75013 -0.553885,0.08277 -0.820159,0.07354 -0.817241,0.599645 0.0079,1.419329 -0.03253,4.076578 -0.03253,9.24464 0,0.03698 -0.348703,-0.261971 -0.546652,-0.313055 z" opacity=".4"/><path id="path2947" fill="url(#linearGradient4233)" fill-opacity="1" fill-rule="evenodd" stroke="none" d="m 26.049437,24.956905 0.03636,-7.043912 c 0.383049,-0.03469 0.05881,-0.0056 0.575335,-0.05754 0.0071,1.315731 2.94e-4,2.407849 2.94e-4,7.377016 0,0.03697 -0.213682,-0.224482 -0.611981,-0.275566 z" opacity=".4"/></svg>