<svg xmlns="http://www.w3.org/2000/svg" xmlns:svg="http://www.w3.org/2000/svg" xmlns:xlink="http://www.w3.org/1999/xlink" id="svg44406" width="32" height="32" version="1.0"><defs id="defs44408"><linearGradient id="linearGradient3484"><stop id="stop3486" offset="0" stop-color="#bdbdbd" stop-opacity="1"/><stop id="stop3488" offset="1" stop-color="#d0d0d0" stop-opacity="1"/></linearGradient><linearGradient id="linearGradient6404"><stop id="stop6406" offset="0" stop-color="#f9f9f9" stop-opacity="1"/><stop id="stop6408" offset="1" stop-color="#c9c9c9" stop-opacity="1"/></linearGradient><linearGradient id="linearGradient5048-585"><stop id="stop2667" offset="0" stop-color="#000" stop-opacity="0"/><stop id="stop2669" offset=".5" stop-color="#000" stop-opacity="1"/><stop id="stop2671" offset="1" stop-color="#000" stop-opacity="0"/></linearGradient><linearGradient id="linearGradient5060-179"><stop id="stop2675" offset="0" stop-color="#000" stop-opacity="1"/><stop id="stop2677" offset="1" stop-color="#000" stop-opacity="0"/></linearGradient><linearGradient id="linearGradient5060-820"><stop id="stop2681" offset="0" stop-color="#000" stop-opacity="1"/><stop id="stop2683" offset="1" stop-color="#000" stop-opacity="0"/></linearGradient><linearGradient id="linearGradient3390"><stop id="stop3392" offset="0" stop-color="#425e7b" stop-opacity="1"/><stop id="stop3394" offset="1" stop-color="#7a91a7" stop-opacity="1"/></linearGradient><linearGradient id="linearGradient7012-661-145-733-759-865-745"><stop id="stop2699" offset="0" stop-color="#9cbbd9" stop-opacity="1"/><stop id="stop2701" offset="1" stop-color="#5c82ab" stop-opacity="1"/></linearGradient><linearGradient id="linearGradient6129-963-697-142-998-580-273"><stop id="stop2661" offset="0" stop-color="#0a0a0a" stop-opacity=".498"/><stop id="stop2663" offset="1" stop-color="#0a0a0a" stop-opacity="0"/></linearGradient><linearGradient id="linearGradient6087-437-184-795-110-662-495"><stop id="stop2693" offset="0" stop-color="#fff" stop-opacity=".4"/><stop id="stop2695" offset="1" stop-color="#fff" stop-opacity="0"/></linearGradient><linearGradient id="linearGradient8265-821-176-38-919-66-249"><stop id="stop2687" offset="0" stop-color="#fff" stop-opacity=".2"/><stop id="stop2689" offset="1" stop-color="#fff" stop-opacity="0"/></linearGradient><linearGradient id="linearGradient2431" x1="11.566" x2="15.215" y1="22.292" y2="33.955" gradientTransform="matrix(0.6515346,0,0,0.6760494,0.3603499,0.1849652)" gradientUnits="userSpaceOnUse" xlink:href="#linearGradient8265-821-176-38-919-66-249"/><radialGradient id="radialGradient2434" cx="7.265" cy="8.302" r="20.98" fx="7.265" fy="8.302" gradientTransform="matrix(0,0.7386341,-0.9984871,0,17.148572,6.8540185)" gradientUnits="userSpaceOnUse" xlink:href="#linearGradient6087-437-184-795-110-662-495"/><linearGradient id="linearGradient2437" x1="22.935" x2="22.809" y1="49.629" y2="36.658" gradientTransform="matrix(0.7467531,0,0,0.6554922,-1.9220764,1.1676179)" gradientUnits="userSpaceOnUse" xlink:href="#linearGradient6129-963-697-142-998-580-273"/><radialGradient id="radialGradient2440" cx="63.969" cy="14.113" r="23.097" fx="63.969" fy="14.113" gradientTransform="matrix(1.007989,-6.1246211e-8,3.9794263e-8,0.6539555,-55.005411,6.1061543)" gradientUnits="userSpaceOnUse" xlink:href="#linearGradient7012-661-145-733-759-865-745"/><linearGradient id="linearGradient2442" x1="82.453" x2="82.453" y1="45.114" y2="10.826" gradientTransform="matrix(0.644209,0,0,0.643728,-34.102646,0.7887616)" gradientUnits="userSpaceOnUse" xlink:href="#linearGradient3390"/><linearGradient id="linearGradient2454" x1="62.989" x2="62.989" y1="13.183" y2="16.19" gradientTransform="matrix(0.627907,0,0,0.6348983,-31.055913,1.1034431)" gradientUnits="userSpaceOnUse" xlink:href="#linearGradient6404"/><radialGradient id="radialGradient2456" cx="3" cy="5.017" r="21" fx="3" fy="5.017" gradientTransform="matrix(0,1.0884009,-1.355859,0,8.9733195,2.9173483)" gradientUnits="userSpaceOnUse" xlink:href="#linearGradient3484"/><linearGradient id="linearGradient2463" x1="302.857" x2="302.857" y1="366.648" y2="609.505" gradientTransform="matrix(0.05114282,0,0,0.01591575,-2.4899573,22.29927)" gradientUnits="userSpaceOnUse" xlink:href="#linearGradient5048-585"/><radialGradient id="radialGradient2465" cx="605.714" cy="486.648" r="117.143" fx="605.714" fy="486.648" gradientTransform="matrix(0.01983573,0,0,0.01591575,16.38765,22.29927)" gradientUnits="userSpaceOnUse" xlink:href="#linearGradient5060-179"/><radialGradient id="radialGradient2467" cx="605.714" cy="486.648" r="117.143" fx="605.714" fy="486.648" gradientTransform="matrix(-0.01983573,0,0,0.01591575,15.60139,22.29927)" gradientUnits="userSpaceOnUse" xlink:href="#linearGradient5060-820"/><linearGradient id="linearGradient3428-8-7"><stop id="stop3430-8" offset="0" stop-color="#fff" stop-opacity="1"/><stop id="stop3432-2" offset="1" stop-color="#fff" stop-opacity="0"/></linearGradient><linearGradient id="linearGradient3412-1"><stop id="stop3414-9" offset="0" stop-color="#fcfcfc" stop-opacity="1"/><stop id="stop3416-9" offset="1" stop-color="#cbcdd9" stop-opacity="1"/></linearGradient><linearGradient id="linearGradient3104"><stop id="stop3106" offset="0" stop-color="#9a9a9a" stop-opacity="1"/><stop id="stop3108" offset="1" stop-color="#afafaf" stop-opacity="1"/></linearGradient><linearGradient id="linearGradient3600"><stop id="stop3602" offset="0" stop-color="#f4f4f4" stop-opacity="1"/><stop id="stop3604" offset="1" stop-color="#dbdbdb" stop-opacity="1"/></linearGradient><linearGradient id="linearGradient3284" x1="45.094" x2="45.094" y1="18.404" y2="31.781" gradientTransform="matrix(0.5,0,0,0.5,5.802975,4.1591108)" gradientUnits="userSpaceOnUse" xlink:href="#linearGradient3428-8-7"/><linearGradient id="linearGradient3295" x1="25.132" x2="25.132" y1="6.729" y2="47.013" gradientTransform="matrix(0.3285713,0,0,0.30000085,11.3643,16.549949)" gradientUnits="userSpaceOnUse" xlink:href="#linearGradient3600"/><linearGradient id="linearGradient3297" x1="-51.786" x2="-51.786" y1="50.786" y2="2.906" gradientTransform="matrix(0.2653203,0,0,0.28075615,30.884799,16.215604)" gradientUnits="userSpaceOnUse" xlink:href="#linearGradient3104"/><linearGradient id="linearGradient3310" x1="33.877" x2="44.119" y1="19.948" y2="30.191" gradientUnits="userSpaceOnUse" xlink:href="#linearGradient3412-1"/></defs><path id="path3468" fill="url(#linearGradient2454)" fill-opacity="1" stroke="url(#radialGradient2456)" stroke-dasharray="none" stroke-linecap="round" stroke-linejoin="round" stroke-miterlimit="4" stroke-opacity="1" stroke-width="1" d="M 4,6.5000785 C 3.566574,6.5049492 3.5,6.7173065 3.5,7.1349768 L 3.5,8.5 c -1.2456805,0 -1,-0.0018 -1,0.5438922 0.021607,6.5331318 0,6.9014318 0,7.4561078 0.9013419,0 26.999999,-2.348954 26.999999,-3.36005 l 0,-4.0960578 C 29.499999,8.6262224 29.152009,8.4951297 28.718581,8.5 L 14.5,8.5 l 0,-1.3650232 c 0,-0.4176703 -0.264249,-0.639769 -0.697676,-0.6348983 l -9.802324,0 z" display="inline"/><g id="g2458" transform="translate(0,-1.000001)"><rect id="rect4173" width="24.695" height="3.865" x="3.647" y="28.135" fill="url(#linearGradient2463)" fill-opacity="1" fill-rule="nonzero" stroke="none" stroke-width="1" display="inline" opacity=".3" overflow="visible" visibility="visible" style="marker:none"/><path id="path5058" fill="url(#radialGradient2465)" fill-opacity="1" fill-rule="nonzero" stroke="none" stroke-width="1" d="m 28.341859,28.13488 c 0,0 0,3.865041 0,3.865041 1.021491,0.0073 2.469468,-0.86596 2.469468,-1.932769 0,-1.06681 -1.139908,-1.932272 -2.469468,-1.932272 z" display="inline" opacity=".3" overflow="visible" visibility="visible" style="marker:none"/><path id="path5018" fill="url(#radialGradient2467)" fill-opacity="1" fill-rule="nonzero" stroke="none" stroke-width="1" d="m 3.6471816,28.13488 c 0,0 0,3.865041 0,3.865041 -1.0214912,0.0073 -2.4694678,-0.86596 -2.4694678,-1.932769 0,-1.06681 1.1399068,-1.932272 2.4694678,-1.932272 z" display="inline" opacity=".3" overflow="visible" visibility="visible" style="marker:none"/></g><path id="path3388" fill="url(#radialGradient2440)" fill-opacity="1" stroke="url(#linearGradient2442)" stroke-dashoffset="0" stroke-linecap="round" stroke-linejoin="round" stroke-miterlimit="4" stroke-opacity="1" stroke-width="1" d="m 1.9268353,11.499999 c -0.6910475,0.07963 -0.3219563,0.902583 -0.3770536,1.365355 0.080193,0.299061 0.5977147,15.717983 0.5977147,16.247438 0,0.460177 0.2266674,0.382214 0.8010059,0.382214 8.4994007,0 17.8980787,0 26.3974797,0 0.618726,0.01434 0.487967,0.0075 0.487967,-0.389471 0.04522,-0.202682 0.639926,-16.978471 0.662817,-17.243439 0,-0.278994 0.0581,-0.362097 -0.30493,-0.362097 -9.076502,0 -19.188496,0 -28.2650007,0 z"/><path id="path6127" fill="url(#linearGradient2437)" fill-opacity="1" stroke="none" d="m 1.6818182,11 28.6363638,2.66e-4 C 30.731883,11.000266 31,11.29236 31,11.655504 l -0.673506,17.712101 c 0.0096,0.459485 -0.136401,0.641669 -0.617069,0.632034 L 2.4532999,29.988097 c -0.4137015,0 -0.8308665,-0.271173 -0.8308665,-0.634315 L 1,11.655493 C 1,11.292349 1.2681168,11 1.6818182,11 z" opacity=".4"/><path id="path2435" fill="none" stroke="url(#radialGradient2434)" stroke-dasharray="none" stroke-linecap="round" stroke-linejoin="round" stroke-miterlimit="4" stroke-opacity="1" stroke-width="1" d="m 29.5,12.5 c -8.303268,0 -18.696734,0 -27.0000002,0 0.2365057,5 0.4730113,10.000001 0.709517,15.000001"/><path id="path3455" fill="url(#linearGradient2431)" fill-opacity="1" stroke="none" d="M 30.405737,11.017168 C 20.926175,11.066755 11.205415,10.987455 1.7245005,11.001754 0.54733374,11.279689 1.1808557,12.669304 1.0909311,13.551491 1.235591,16.366119 1.3014202,19.193082 1.4951832,22 11.268537,20.402631 20.993365,18.885268 30.595629,17.234084 c 0.508843,-1.748654 0.371883,-4.904859 0.398582,-5.544433 0.05125,-0.456713 -0.245376,-0.680134 -0.588474,-0.672483 z"/><path id="rect2594" fill="url(#linearGradient3295)" fill-opacity="1" stroke="url(#linearGradient3297)" stroke-dasharray="none" stroke-dashoffset="0" stroke-linecap="butt" stroke-linejoin="round" stroke-miterlimit="4" stroke-opacity="1" stroke-width="1" d="m 13.5,15.5 9.905717,0 c 0.462278,0.145614 3.445768,1.304485 4.094283,2.453133 l 0,12.546867 -14,0 0,-15 z" display="inline"/><path id="path3449" fill="none" stroke="#9a9eac" stroke-dasharray="none" stroke-linecap="butt" stroke-linejoin="miter" stroke-miterlimit="4" stroke-opacity="1" stroke-width="1" d="m 24.5,16.523139 0,12.476842" opacity=".8"/><path id="path3453" fill="none" stroke="#9a9eac" stroke-dasharray="none" stroke-linecap="butt" stroke-linejoin="miter" stroke-miterlimit="4" stroke-opacity="1" stroke-width="1" d="M 26.044044,18.5 15,18.5" opacity=".8"/><path id="path3447" fill="none" stroke="#9a9eac" stroke-dasharray="none" stroke-linecap="butt" stroke-linejoin="miter" stroke-miterlimit="4" stroke-opacity="1" stroke-width="1" d="m 16.5,17 0,12" opacity=".8"/><path id="path3451" fill="none" stroke="#9a9eac" stroke-dasharray="none" stroke-linecap="butt" stroke-linejoin="miter" stroke-miterlimit="4" stroke-opacity="1" stroke-width="1" d="M 26.022268,27.5 15,27.5" opacity=".8"/><text id="text3455" x="16.97" y="26.329" fill="#9a9eac" fill-opacity="1" stroke="none" font-family="Bitstream Vera Sans" font-size="8" font-style="normal" font-weight="normal" opacity=".8" transform="scale(1.0404097,0.96115982)" xml:space="preserve"><tspan id="tspan3457" x="16.97" y="26.329" font-size="8">a</tspan></text><g id="g3553" stroke-dasharray="none" stroke-miterlimit="4" stroke-width="2" transform="matrix(0.5,0,0,0.5,5.698,4.25)"><path id="path3410" fill="url(#linearGradient3310)" fill-opacity="1" fill-rule="evenodd" stroke="#83899a" stroke-dasharray="none" stroke-linecap="butt" stroke-linejoin="round" stroke-miterlimit="4" stroke-opacity="1" stroke-width="2" d="m 30.5,18.5 15,15 0,-15 -15,0 z m 9,4 2,0 0,2 -2,-2 z" opacity=".8"/></g><path id="path3424" fill="none" stroke="url(#linearGradient3284)" stroke-dasharray="none" stroke-linecap="butt" stroke-linejoin="miter" stroke-miterlimit="4" stroke-opacity="1" stroke-width="1" d="m 22.162348,13.862236 5.9375,5.9375 0,-5.9375 -5.9375,0 z" opacity=".4"/></svg>