<svg xmlns="http://www.w3.org/2000/svg" xmlns:svg="http://www.w3.org/2000/svg" xmlns:xlink="http://www.w3.org/1999/xlink" id="svg4827" width="48" height="48" version="1.0"><defs id="defs4829"><linearGradient id="linearGradient3280-373"><stop id="stop4633" offset="0" stop-color="#000" stop-opacity="1"/><stop id="stop4635" offset="1" stop-color="#000" stop-opacity="0"/></linearGradient><radialGradient id="radialGradient3353-234" cx="21.344" cy="14.125" r="11.969" fx="21.344" fy="14.125" gradientTransform="matrix(1.2532661,0,0,0.5125818,-2.749384,33.625524)" gradientUnits="userSpaceOnUse" xlink:href="#linearGradient3280-373"/><linearGradient id="linearGradient3578-995-735-4-566-885-385-488-812-692-100-298-982-943"><stop id="stop4639" offset="0" stop-color="#115984" stop-opacity="1"/><stop id="stop4641" offset="1" stop-color="#5498c5" stop-opacity="1"/></linearGradient><linearGradient id="linearGradient3350-938-964-679-827" x1="21.512" x2="13.015" y1="28.375" y2="28.375" gradientTransform="matrix(0.9583404,0,0,1.1331788,3.3956552,-1.3937463)" gradientUnits="userSpaceOnUse" spreadMethod="reflect" xlink:href="#linearGradient3578-995-735-4-566-885-385-488-812-692-100-298-982-943"/><linearGradient id="linearGradient2793-2-0-403"><stop id="stop4645" offset="0" stop-color="#878787" stop-opacity="1"/><stop id="stop4647" offset="1" stop-color="#d9d9d9" stop-opacity="1"/></linearGradient><linearGradient id="linearGradient4413-535" x1="21.555" x2="12.894" y1="19.125" y2="19.125" gradientTransform="matrix(0.9583175,0,0,1.3271368,3.3961292,-11.417605)" gradientUnits="userSpaceOnUse" spreadMethod="reflect" xlink:href="#linearGradient2793-2-0-403"/><linearGradient id="linearGradient3355-273"><stop id="stop4657" offset="0" stop-color="#e1e1e1" stop-opacity="1"/><stop id="stop4659" offset="1" stop-color="#a6a6a6" stop-opacity="1"/></linearGradient><linearGradient id="linearGradient3343-144" x1="24" x2="24" y1="9.373" y2="5.603" gradientTransform="matrix(0.9200488,0,0,1,1.9193297,0)" gradientUnits="userSpaceOnUse" xlink:href="#linearGradient3355-273"/><linearGradient id="linearGradient3844-342"><stop id="stop4651" offset="0" stop-color="#a6a6a6" stop-opacity="1"/><stop id="stop4653" offset="1" stop-color="#e8e8e8" stop-opacity="1"/></linearGradient><linearGradient id="linearGradient3341-843" x1="17.243" x2="17.243" y1="11.001" y2="2" gradientTransform="matrix(0.9200488,0,0,1,1.9193297,0)" gradientUnits="userSpaceOnUse" xlink:href="#linearGradient3844-342"/><linearGradient id="linearGradient3254-3-182"><stop id="stop4663" offset="0" stop-color="#fff" stop-opacity="1"/><stop id="stop4665" offset="1" stop-color="#fff" stop-opacity="0"/></linearGradient><linearGradient id="linearGradient3322-765" x1="12.25" x2="17.125" y1="20.231" y2="34.174" gradientTransform="matrix(0.9583175,0,0,1.365896,3.3961295,-10.808688)" gradientUnits="userSpaceOnUse" xlink:href="#linearGradient3254-3-182"/><linearGradient id="linearGradient3254-8-457"><stop id="stop4669" offset="0" stop-color="#fff" stop-opacity="1"/><stop id="stop4671" offset="1" stop-color="#fff" stop-opacity="0"/></linearGradient><linearGradient id="linearGradient3338-694" x1="23.5" x2="23.5" y1="10.996" y2="39.851" gradientTransform="matrix(0.9583174,0,0,1.4262344,1.4794943,-12.860302)" gradientUnits="userSpaceOnUse" xlink:href="#linearGradient3254-8-457"/><linearGradient id="linearGradient2509-6-3-746"><stop id="stop4699" offset="0" stop-color="#b3b3b3" stop-opacity="1"/><stop id="stop4701" offset="1" stop-color="#dadada" stop-opacity="1"/></linearGradient><linearGradient id="linearGradient3327-313" x1="109.956" x2="109.956" y1="-24.911" y2="-2.376" gradientTransform="matrix(0.1792665,0,0,0.1462979,5.307569,3.9776969)" gradientUnits="userSpaceOnUse" xlink:href="#linearGradient2509-6-3-746"/><linearGradient id="linearGradient3844-9-5-84"><stop id="stop4693" offset="0" stop-color="#a6a6a6" stop-opacity="1"/><stop id="stop4695" offset="1" stop-color="#e8e8e8" stop-opacity="1"/></linearGradient><linearGradient id="linearGradient3325-263" x1="102.308" x2="102.308" y1="-2.393" y2="-24.582" gradientTransform="matrix(0.1792665,0,0,0.1462979,5.307569,3.9776969)" gradientUnits="userSpaceOnUse" spreadMethod="reflect" xlink:href="#linearGradient3844-9-5-84"/><linearGradient id="linearGradient3858-1-3-594"><stop id="stop4687" offset="0" stop-color="#a0a0a0" stop-opacity="1"/><stop id="stop4689" offset="1" stop-color="#646464" stop-opacity="1"/></linearGradient><linearGradient id="linearGradient3332-129" x1="89.018" x2="89.018" y1="22.537" y2="27.546" gradientTransform="matrix(0.3895815,0,0,0.3605526,-12.76462,-2.2515447)" gradientUnits="userSpaceOnUse" xlink:href="#linearGradient3858-1-3-594"/><linearGradient id="linearGradient2793-2-0-669"><stop id="stop4681" offset="0" stop-color="#878787" stop-opacity="1"/><stop id="stop4683" offset="1" stop-color="#d9d9d9" stop-opacity="1"/></linearGradient><linearGradient id="linearGradient3330-113" x1="103.95" x2="89.424" y1="-7.666" y2="-7.666" gradientTransform="matrix(0.1783638,0,0,0.1558618,5.376436,8.0089281)" gradientUnits="userSpaceOnUse" spreadMethod="reflect" xlink:href="#linearGradient2793-2-0-669"/><linearGradient id="linearGradient4126-65-434-2-3-659"><stop id="stop4675" offset="0" stop-color="#000" stop-opacity="1"/><stop id="stop4677" offset="1" stop-color="#000" stop-opacity="0"/></linearGradient><radialGradient id="radialGradient3335-162" cx="23.857" cy="40" r="17.143" fx="23.857" fy="40" gradientTransform="matrix(0.361547,0,0,0.185261,15.374522,-2.9009258)" gradientUnits="userSpaceOnUse" xlink:href="#linearGradient4126-65-434-2-3-659"/></defs><g id="layer1"><path id="path3278" fill="url(#radialGradient3353-234)" fill-opacity="1" fill-rule="nonzero" stroke="none" stroke-width="1" d="M 39.000021,40.865743 C 39.000021,44.253991 32.284283,47.000708 24,47.000708 C 15.715717,47.000708 8.999979,44.253991 8.999979,40.865743 C 8.999979,37.477495 15.715717,34.730778 24,34.730778 C 32.284283,34.730778 39.000021,37.477495 39.000021,40.865743 z" display="inline" opacity=".7" overflow="visible" visibility="visible" style="marker:none"/><path id="path2230" fill="url(#linearGradient3350-938-964-679-827)" fill-opacity="1" fill-rule="nonzero" stroke="#2b719c" stroke-opacity="1" stroke-width="1" d="M 22.562465,10.504633 C 16.892941,10.749987 12.499891,12.449689 12.499891,14.470759 L 12.499891,40.533873 C 12.499891,42.723177 17.651928,44.500002 23.999976,44.5 C 30.348022,44.5 35.500059,42.723177 35.500059,40.533873 L 35.500059,14.470759 C 35.500059,12.281455 30.348023,10.504633 23.999976,10.504633 C 23.652815,10.504633 23.321096,10.494213 22.981739,10.504633 C 22.844253,10.508833 22.698533,10.498733 22.562465,10.504633 L 22.562465,10.504633 z" display="inline" overflow="visible" visibility="visible" style="marker:none"/><path id="path2232" fill="url(#linearGradient4413-535)" fill-opacity="1" fill-rule="nonzero" stroke="none" stroke-width="1" d="M 22.981745,2.517332 C 17.11584,2.7279709 12.500148,4.738501 12.500148,7.1623106 L 12.500148,15.7887 C 12.500148,18.352731 17.652061,20.433679 23.999956,20.433678 C 30.347852,20.433678 35.499766,18.35273 35.499766,15.7887 L 35.499766,7.1623106 C 35.499766,4.5982797 30.347852,2.517332 23.999956,2.517332 C 23.652806,2.517332 23.321094,2.505123 22.981745,2.517332 L 22.981745,2.517332 z" display="inline" overflow="visible" visibility="visible" style="marker:none"/><path id="path2219" fill="none" stroke="#9f9f9f" stroke-dasharray="none" stroke-dashoffset="0" stroke-linecap="butt" stroke-linejoin="round" stroke-miterlimit="4" stroke-opacity="1" stroke-width="1" d="M 12.500145,7.0774439 L 12.500145,16.849324 M 35.499764,16.849324 L 35.499764,7.0774439" display="inline" overflow="visible" visibility="visible" style="marker:none"/><path id="path3164" fill="url(#linearGradient3341-843)" fill-opacity="1" fill-rule="nonzero" stroke="url(#linearGradient3343-144)" stroke-dasharray="none" stroke-dashoffset="0" stroke-linecap="round" stroke-linejoin="round" stroke-miterlimit="4" stroke-opacity="1" stroke-width=".984" d="M 35.508537,6.5 C 35.508537,8.7135878 30.356205,10.508055 24.000483,10.508055 C 17.644759,10.508055 12.492427,8.7135878 12.492427,6.5 C 12.492427,4.2864122 17.644759,2.4919448 24.000483,2.4919448 C 30.356205,2.4919448 35.508537,4.2864122 35.508537,6.5 L 35.508537,6.5 z" display="inline" overflow="visible" visibility="visible" style="marker:none"/><path id="rect3244" fill="url(#linearGradient3322-765)" fill-opacity="1" fill-rule="nonzero" stroke="none" stroke-width="1" d="M 15.854257,10.177193 L 20.645845,11.045651 L 20.645845,44.254004 L 15.854257,43.144213 L 15.854257,10.177193 L 15.854257,10.177193 z" display="inline" opacity=".2" overflow="visible" visibility="visible" style="marker:none"/><path id="path2206" fill="none" stroke="url(#linearGradient3338-694)" stroke-dasharray="none" stroke-dashoffset="0" stroke-linecap="round" stroke-linejoin="round" stroke-miterlimit="4" stroke-opacity="1" stroke-width="1" d="M 13.419897,6.7004591 C 13.419897,8.3303775 13.419897,38.277646 13.419897,39.910373 C 13.419897,41.878577 18.181045,43.475959 23.999955,43.475959 C 29.818864,43.475959 34.580051,41.878577 34.580051,39.910373 C 34.580051,38.399685 34.580051,8.2111495 34.580051,6.7004591 C 34.580051,5.0560507 29.815753,3.5143354 23.999955,3.5413953 C 18.184156,3.5684553 13.419897,5.0636078 13.419897,6.7004591 z" display="inline" opacity=".15" overflow="visible" visibility="visible" style="marker:none"/><g id="g3361"><path id="path9139" fill="url(#radialGradient3335-162)" fill-opacity="1" fill-rule="nonzero" stroke="none" stroke-width="2.473" d="M 30.197948,4.5095162 C 30.197948,6.2635193 27.423032,7.6854198 24,7.6854198 C 20.576967,7.6854198 17.802051,6.2635193 17.802051,4.5095162 C 17.802051,2.7555131 20.576967,1.3336126 24,1.3336126 C 27.423032,1.3336126 30.197948,2.7555131 30.197948,4.5095162 L 30.197948,4.5095162 z" display="block" opacity=".2" overflow="visible" visibility="visible" style="marker:none"/><path id="path3878" fill="url(#linearGradient3330-113)" fill-opacity="1" stroke="url(#linearGradient3332-129)" stroke-dasharray="none" stroke-miterlimit="4" stroke-opacity="1" stroke-width="1" d="M 28.393743,5.9019405 C 28.393743,6.7840697 26.387893,7.4999997 23.916405,7.4999997 C 21.444913,7.4999997 19.439064,6.7840697 19.439064,5.9019405 C 19.439064,1.6023697 18.891811,0.71826195 23.916405,0.68499455 C 29.056071,0.65065855 28.393743,1.4725892 28.393743,5.9019405 z"/><path id="path3880" fill="url(#linearGradient3325-263)" fill-opacity="1" stroke="url(#linearGradient3327-313)" stroke-dasharray="none" stroke-miterlimit="4" stroke-opacity="1" stroke-width="1" d="M 28.441368,1.9999981 C 28.441368,2.8284255 26.426648,3.4999993 23.941368,3.4999993 C 21.456086,3.4999993 19.441367,2.8284255 19.441367,1.9999981 C 19.441367,1.1715728 21.456086,0.49999885 23.941368,0.49999885 C 26.426648,0.49999885 28.441368,1.1715728 28.441368,1.9999981 L 28.441368,1.9999981 z"/></g></g></svg>