<svg xmlns="http://www.w3.org/2000/svg" xmlns:svg="http://www.w3.org/2000/svg" xmlns:xlink="http://www.w3.org/1999/xlink" id="svg3211" width="48" height="48" version="1.1"><defs id="defs3213"><radialGradient id="radialGradient3018-3" cx="24" cy="42" r="21" fx="24" fy="42" gradientTransform="matrix(0.99999995,-1.0652117e-8,2.7812622e-8,0.35714279,1.07e-6,24.500003)" gradientUnits="userSpaceOnUse" xlink:href="#linearGradient6310-8-8-4"/><linearGradient id="linearGradient6310-8-8-4"><stop id="stop6312-6-0-4" offset="0" stop-color="#fff" stop-opacity="1"/><stop id="stop6314-6-2-3" offset="1" stop-color="#fff" stop-opacity="0"/></linearGradient><linearGradient id="linearGradient2982-9" x1="-56.731" x2="-56.731" y1="66.838" y2="74.808" gradientTransform="matrix(0.79127958,0,0,0.91751166,68.898346,-24.42898)" gradientUnits="userSpaceOnUse" xlink:href="#linearGradient4234-7"/><linearGradient id="linearGradient4234-7"><stop id="stop4236-2" offset="0" stop-color="#bcbcba" stop-opacity="1"/><stop id="stop4238-0-5" offset="1" stop-color="#787a75" stop-opacity="1"/></linearGradient><linearGradient id="linearGradient2984-8" x1="18.094" x2="18.094" y1="39.789" y2="46.001" gradientTransform="matrix(0.9476634,0,0,1.0902744,1.2645996,-7.381805)" gradientUnits="userSpaceOnUse" spreadMethod="reflect" xlink:href="#linearGradient3385-9"/><linearGradient id="linearGradient3385-9"><stop id="stop3387-0" offset="0" stop-color="#f0f0f0" stop-opacity="1"/><stop id="stop3389-2" offset=".309" stop-color="#a7a7a7" stop-opacity="1"/><stop id="stop3391-4" offset="1" stop-color="#666" stop-opacity="1"/></linearGradient><linearGradient id="linearGradient3056" x1="-59.202" x2="-54.885" y1="48.915" y2="50.292" gradientTransform="matrix(-0.55536938,-0.0139836,-0.02078996,0.82568901,10.03095,-19.687697)" gradientUnits="userSpaceOnUse" xlink:href="#linearGradient7406-4"/><linearGradient id="linearGradient7406-4"><stop id="stop7408-1" offset="0" stop-color="#000" stop-opacity=".402"/><stop id="stop7410-5" offset="1" stop-color="#000" stop-opacity="0"/></linearGradient><linearGradient id="linearGradient2990" x1="-59.202" x2="-54.885" y1="48.915" y2="50.292" gradientTransform="matrix(0.55536938,-0.0139836,0.02078996,0.82568901,37.575041,-19.687697)" gradientUnits="userSpaceOnUse" xlink:href="#linearGradient7406"/><linearGradient id="linearGradient7406"><stop id="stop7408" offset="0" stop-color="#000" stop-opacity=".402"/><stop id="stop7410" offset="1" stop-color="#000" stop-opacity="0"/></linearGradient><radialGradient id="radialGradient2927" cx="11.734" cy="8.49" r="23.048" fx="11.734" fy="8.49" gradientTransform="matrix(1.3767077,0.69719425,-0.46810846,0.92434578,-0.04915651,-2.938628)" gradientUnits="userSpaceOnUse" xlink:href="#linearGradient7056"/><linearGradient id="linearGradient7056"><stop id="stop7064" offset="0" stop-color="#e6e6e6" stop-opacity="1"/><stop id="stop7060" offset="1" stop-color="#c8c8c8" stop-opacity="1"/></linearGradient><linearGradient id="linearGradient2929" x1="17.814" x2="18.073" y1="29.797" y2="10" gradientTransform="translate(0,-1.000147)" gradientUnits="userSpaceOnUse" xlink:href="#linearGradient3484"/><linearGradient id="linearGradient3484"><stop id="stop3486" offset="0" stop-color="#969696" stop-opacity="1"/><stop id="stop3488" offset="1" stop-color="#b4b4b4" stop-opacity="1"/></linearGradient><radialGradient id="radialGradient2936" cx="605.714" cy="486.648" r="117.143" fx="605.714" fy="486.648" gradientTransform="matrix(-0.04484747,0,0,0.02058824,32.61113,32.451372)" gradientUnits="userSpaceOnUse" xlink:href="#linearGradient5060"/><linearGradient id="linearGradient5060"><stop id="stop5062" offset="0" stop-color="#000" stop-opacity="1"/><stop id="stop5064" offset="1" stop-color="#000" stop-opacity="0"/></linearGradient><radialGradient id="radialGradient2939" cx="605.714" cy="486.648" r="117.143" fx="605.714" fy="486.648" gradientTransform="matrix(0.04484747,0,0,0.02058824,15.38888,32.451372)" gradientUnits="userSpaceOnUse" xlink:href="#linearGradient5060"/><linearGradient id="linearGradient5048"><stop id="stop5050" offset="0" stop-color="#000" stop-opacity="0"/><stop id="stop5056" offset=".5" stop-color="#000" stop-opacity="1"/><stop id="stop5052" offset="1" stop-color="#000" stop-opacity="0"/></linearGradient><linearGradient id="linearGradient3209" x1="302.857" x2="302.857" y1="366.648" y2="609.505" gradientTransform="matrix(0.07635654,0,0,0.02058824,-3.5974283,32.451372)" gradientUnits="userSpaceOnUse" xlink:href="#linearGradient5048"/></defs><g id="layer1"><rect id="rect2723" width="36.869" height="5" x="5.565" y="40" fill="url(#linearGradient3209)" fill-opacity="1" fill-rule="nonzero" stroke="none" stroke-width=".5" display="inline" opacity=".3" overflow="visible" visibility="visible" style="marker:none"/><path id="path2725" fill="url(#radialGradient2939)" fill-opacity="1" fill-rule="nonzero" stroke="none" stroke-width=".5" d="m 42.41667,40.000174 c 0,0 0,4.999723 0,4.999723 C 44.7262,45.009311 48,43.879712 48,42.499715 48,41.119718 45.42274,40.000174 42.41667,40.000174 z" display="inline" opacity=".3" overflow="visible" visibility="visible" style="marker:none"/><path id="path2727" fill="url(#radialGradient2936)" fill-opacity="1" fill-rule="nonzero" stroke="none" stroke-width="1" d="m 5.58333,40.000174 c 0,0 0,4.999723 0,4.999723 C 3.2737899,45.009311 0,43.879712 0,42.499715 0,41.119718 2.5772699,40.000174 5.58333,40.000174 z" display="inline" opacity=".3" overflow="visible" visibility="visible" style="marker:none"/><path id="path6345" fill="url(#radialGradient2927)" fill-opacity="1" fill-rule="nonzero" stroke="url(#linearGradient2929)" stroke-dasharray="none" stroke-dashoffset="0" stroke-linecap="round" stroke-linejoin="round" stroke-miterlimit="4" stroke-opacity="1" stroke-width=".996" d="M 46.5,39.5 39.740367,10.827625 c -0.192553,-0.733973 -1.2012,-1.3298793 -2.049166,-1.3298793 l -27.617218,0 c -1.30274,0 -2.049257,0.198573 -2.323959,1.3298793 L 1.5,39.5" display="inline" enable-background="accumulate" overflow="visible" visibility="visible" style="marker:none"/><path id="path6434" fill="url(#linearGradient2990)" fill-opacity="1" fill-rule="nonzero" stroke="none" stroke-width=".494" d="M 9.7496143,9.8356802 C 8.5109418,9.8668702 8.1691745,11.37595 8.1691745,11.37595 L 2.7578489,35.67822 c 0.031866,1.643004 -0.1288879,1.699694 0.243195,2.117437 0.00274,0.0093 -0.00205,0.02193 7.866e-4,0.03124 0.2992963,0.981032 0.9490806,1.664139 1.7021648,1.645176 L 32.628246,38.768971 c 1.00411,-0.02528 1.774061,-1.270671 1.73569,-2.794574 -0.0125,-0.496324 -0.122351,-0.939664 -0.282777,-1.337056 l 0.236368,-0.50611 c -4.3e-4,-0.01703 -10e-4,-0.03123 -0.02153,-0.03072 L 27.380851,10.92348 c -1e-6,0 -0.357612,-1.5227305 -1.615246,-1.4910646 -1.234382,0.03108 -14.800567,0.3726618 -16.0159887,0.4032648 z" display="inline" enable-background="accumulate" opacity=".4" overflow="visible" visibility="visible" style="marker:none"/><path id="path6434-5" fill="url(#linearGradient3056)" fill-opacity="1" fill-rule="nonzero" stroke="none" stroke-width=".494" d="m 37.856376,9.8356806 c 1.238673,0.03119 1.58044,1.5402694 1.58044,1.5402694 l 5.411326,24.30227 c -0.03187,1.643004 0.128888,1.699694 -0.243195,2.117437 -0.0027,0.0093 0.002,0.02193 -7.87e-4,0.03124 -0.299296,0.981032 -0.94908,1.664139 -1.702165,1.645176 l -27.92425,-0.703102 c -1.00411,-0.02528 -1.774061,-1.270671 -1.73569,-2.794574 0.0125,-0.496324 0.122351,-0.939664 0.282777,-1.337056 l -0.236368,-0.50611 c 4.3e-4,-0.01703 0.001,-0.03123 0.02153,-0.03072 L 20.22514,10.92348 c 1e-6,0 0.357612,-1.5227301 1.615246,-1.4910642 1.234382,0.03108 14.800567,0.3726618 16.015988,0.4032648 z" display="inline" enable-background="accumulate" opacity=".4" overflow="visible" visibility="visible" style="marker:none"/><rect stroke-linecap="round" style="marker:none" id="rect2526" width="45.017" height="6" x="1.5" y="36.5" fill="url(#linearGradient2982-9)" fill-opacity="1" fill-rule="nonzero" stroke="url(#linearGradient2984-8)" stroke-dasharray="none" stroke-dashoffset="0" stroke-linejoin="round" stroke-miterlimit="4" stroke-opacity="1" stroke-width="1" display="inline" enable-background="accumulate" overflow="visible" rx="2.587" ry="3" visibility="visible"/><rect id="rect6300-3" width="42" height="5" x="3" y="37" fill="url(#radialGradient3018-3)" fill-opacity="1" stroke="none" opacity=".3"/></g></svg>