<svg xmlns="http://www.w3.org/2000/svg" xmlns:svg="http://www.w3.org/2000/svg" xmlns:xlink="http://www.w3.org/1999/xlink" id="svg5490" width="48" height="48" version="1.1"><metadata id="metadata60"/><defs id="defs5492"><linearGradient id="linearGradient4760"><stop id="stop4762" offset="0" stop-color="#b3b3b3" stop-opacity="1"/><stop id="stop4764" offset=".355" stop-color="#fff" stop-opacity="1"/><stop id="stop4766" offset=".514" stop-color="#f0f0f0" stop-opacity="1"/><stop id="stop4768" offset="1" stop-color="#999" stop-opacity="1"/></linearGradient><linearGradient id="linearGradient3921"><stop id="stop3923" offset="0" stop-color="#000" stop-opacity="1"/><stop id="stop3925" offset="1" stop-color="#000" stop-opacity="0"/></linearGradient><linearGradient id="linearGradient7693" x1="22.487" x2="22.487" y1="2.024" y2="42.997" gradientTransform="matrix(1.03421,0,0,1.0494669,0.7434167,-0.1236673)" gradientUnits="userSpaceOnUse" xlink:href="#linearGradient3143"/><linearGradient id="linearGradient3821"><stop id="stop3823" offset="0" stop-color="#6c6c6c" stop-opacity="1"/><stop id="stop3825" offset="1" stop-color="#a8a8a8" stop-opacity="1"/></linearGradient><linearGradient id="linearGradient3143"><stop id="stop3145" offset="0" stop-color="#e6e6e6" stop-opacity="1"/><stop id="stop3147" offset="1" stop-color="#afafaf" stop-opacity="1"/></linearGradient><linearGradient id="linearGradient3737"><stop id="stop3739" offset="0" stop-color="#121214" stop-opacity="1"/><stop id="stop3741" offset=".093" stop-color="#393e44" stop-opacity="1"/><stop id="stop3743" offset=".502" stop-color="#50555b" stop-opacity="1"/><stop id="stop3745" offset=".911" stop-color="#22272d" stop-opacity="1"/><stop id="stop3747" offset="1" stop-color="#303438" stop-opacity="1"/></linearGradient><linearGradient id="linearGradient9936"><stop id="stop9938" offset="0" stop-color="#575757" stop-opacity="1"/><stop id="stop9940" offset="1" stop-color="#333" stop-opacity="1"/></linearGradient><linearGradient id="linearGradient6592-2-7"><stop id="stop6594-0-2" offset="0" stop-color="#fff" stop-opacity=".275"/><stop id="stop6596-2-5" offset="1" stop-color="#fff" stop-opacity="0"/></linearGradient><linearGradient id="linearGradient3881" x1="22" x2="22" y1="45" y2="2" gradientUnits="userSpaceOnUse" xlink:href="#linearGradient3821"/><linearGradient id="linearGradient3884" x1="12.938" x2="15.25" y1="8.438" y2="19.813" gradientTransform="matrix(0.5714286,0,0,0.9999994,10.285715,3.0000016)" gradientUnits="userSpaceOnUse" xlink:href="#linearGradient6592-2-7"/><radialGradient id="radialGradient3888" cx="19.063" cy="8.418" r="11" fx="19.063" fy="8.418" gradientTransform="matrix(1.3636576,0,0,2.0985615,-7.8705182,-4.0976584)" gradientUnits="userSpaceOnUse" xlink:href="#linearGradient9936"/><linearGradient id="linearGradient3890" x1="13" x2="35" y1="13" y2="13" gradientTransform="matrix(1.1900136,0,0,1.9301623,-4.5603251,-5.0921114)" gradientUnits="userSpaceOnUse" xlink:href="#linearGradient3737"/><filter id="filter3915" color-interpolation-filters="sRGB"><feGaussianBlur id="feGaussianBlur3917" stdDeviation=".67"/></filter><radialGradient id="radialGradient3927" cx="26" cy="42.5" r="19" fx="26" fy="42.5" gradientTransform="matrix(1,0,0,0.1842105,0,34.671053)" gradientUnits="userSpaceOnUse" xlink:href="#linearGradient3921"/><linearGradient id="linearGradient4647"><stop id="stop4653" offset="0" stop-color="#b3b3b3" stop-opacity="1"/><stop id="stop4655" offset=".407" stop-color="#fff" stop-opacity="1"/><stop id="stop4657" offset=".587" stop-color="#f0f0f0" stop-opacity="1"/><stop id="stop4659" offset="1" stop-color="#999" stop-opacity="1"/></linearGradient><radialGradient id="radialGradient4750" cx="12.425" cy="38.05" r="1.818" fx="12.425" fy="38.05" gradientUnits="userSpaceOnUse" xlink:href="#linearGradient4647"/><linearGradient id="linearGradient4758" x1="13" x2="13" y1="37" y2="40" gradientUnits="userSpaceOnUse" xlink:href="#linearGradient4760"/><linearGradient id="linearGradient4772" x1="13" x2="13" y1="37" y2="40" gradientTransform="translate(5,0)" gradientUnits="userSpaceOnUse" xlink:href="#linearGradient4760"/><linearGradient id="linearGradient4776" x1="13" x2="13" y1="37" y2="40" gradientTransform="translate(17,0)" gradientUnits="userSpaceOnUse" xlink:href="#linearGradient4760"/><linearGradient id="linearGradient4780" x1="13" x2="13" y1="37" y2="40" gradientTransform="translate(22,0)" gradientUnits="userSpaceOnUse" xlink:href="#linearGradient4760"/><linearGradient id="linearGradient2436" x1="13" x2="13" y1="37" y2="40" gradientTransform="translate(22,0)" gradientUnits="userSpaceOnUse" xlink:href="#linearGradient4760"/><linearGradient id="linearGradient2439" x1="13" x2="13" y1="37" y2="40" gradientTransform="translate(17,0)" gradientUnits="userSpaceOnUse" xlink:href="#linearGradient4760"/><linearGradient id="linearGradient2442" x1="13" x2="13" y1="37" y2="40" gradientTransform="translate(5,0)" gradientUnits="userSpaceOnUse" xlink:href="#linearGradient4760"/><linearGradient id="linearGradient2445" x1="13" x2="13" y1="37" y2="40" gradientUnits="userSpaceOnUse" xlink:href="#linearGradient4760"/><linearGradient id="linearGradient2448" x1="12.938" x2="15.25" y1="8.438" y2="19.813" gradientTransform="matrix(0.5714286,0,0,0.9999994,10.285715,3.0000016)" gradientUnits="userSpaceOnUse" xlink:href="#linearGradient6592-2-7"/><radialGradient id="radialGradient2451" cx="19.063" cy="8.418" r="11" fx="19.063" fy="8.418" gradientTransform="matrix(1.3636576,0,0,2.0985615,-7.8705182,-4.0976584)" gradientUnits="userSpaceOnUse" xlink:href="#linearGradient9936"/><linearGradient id="linearGradient2453" x1="13" x2="35" y1="13" y2="13" gradientTransform="matrix(1.1900136,0,0,1.9301623,-4.5603251,-5.0921114)" gradientUnits="userSpaceOnUse" xlink:href="#linearGradient3737"/><radialGradient id="radialGradient2456" cx="12.425" cy="38.05" r="1.818" fx="12.425" fy="38.05" gradientTransform="matrix(1.6499159,0,0,1.6499156,3.4999989,-23.779287)" gradientUnits="userSpaceOnUse" xlink:href="#linearGradient4647"/><linearGradient id="linearGradient2460" x1="22.487" x2="22.487" y1="2.024" y2="42.997" gradientTransform="matrix(1.03421,0,0,1.0494669,0.7434167,-0.1236673)" gradientUnits="userSpaceOnUse" xlink:href="#linearGradient3143"/><linearGradient id="linearGradient2462" x1="22" x2="22" y1="45" y2="2" gradientUnits="userSpaceOnUse" xlink:href="#linearGradient3821"/><radialGradient id="radialGradient2465" cx="26" cy="42.5" r="19" fx="26" fy="42.5" gradientTransform="matrix(1.0526316,0,0,0.2105263,-3.3684208,34.05263)" gradientUnits="userSpaceOnUse" xlink:href="#linearGradient3921"/></defs><path id="path3919" fill="url(#radialGradient2465)" fill-opacity="1" stroke="none" d="M 44.000001,42.999998 C 44.000001,45.209137 35.045696,46.999998 24.000001,46.999998 C 12.954306,46.999998 4.0000004,45.209137 4.0000004,42.999998 C 4.0000004,40.790859 12.954306,38.999998 24.000001,38.999998 C 35.045696,38.999998 44.000001,40.790859 44.000001,42.999998 z" opacity=".4"/><path id="rect5508" fill="url(#linearGradient2460)" fill-opacity="1" stroke="url(#linearGradient2462)" stroke-linecap="round" stroke-linejoin="miter" stroke-miterlimit="4" stroke-opacity="1" stroke-width="1" d="M 9.9774449,2.5000012 L 38.048872,2.5000012 C 38.867376,2.5000012 39.526316,3.185798 39.526316,4.0376621 L 39.526316,40.787758 C 39.526316,41.639621 38.867376,42.325418 38.048872,42.325418 C 38.048872,42.325418 31.031016,44.499998 24.013158,44.499998 C 16.995302,44.499998 9.9774449,42.325418 9.9774449,42.325418 C 9.1589403,42.325418 8.5000004,41.639621 8.5000004,40.787758 L 8.5000004,4.0376621 C 8.5000004,3.185798 9.1589403,2.5000012 9.9774449,2.5000012 L 9.9774449,2.5000012 z"/><path id="path3909" fill="#fff" fill-opacity="1" stroke="none" d="M 11.333334,4 L 36.666667,4 C 37.405333,4 38,4.6368114 38,5.4278282 L 38,39.55292 C 38,40.343936 37.405333,40.980747 36.666667,40.980747 C 36.666667,40.980747 30.333333,43 24,43 C 17.666669,43 11.333334,40.980747 11.333334,40.980747 C 10.594667,40.980747 10,40.343936 10,39.55292 L 10,5.4278282 C 10,4.6368114 10.594667,4 11.333334,4 z" filter="url(#filter3915)" opacity=".3"/><path id="path6724" fill="url(#radialGradient2456)" fill-opacity="1" stroke="#787878" stroke-dasharray="none" stroke-linecap="round" stroke-linejoin="miter" stroke-miterlimit="4" stroke-opacity="1" stroke-width=".5" d="M 26.75,39 C 26.75,40.518784 25.518783,41.75 23.999999,41.75 C 22.481215,41.75 21.249999,40.518784 21.249999,39 C 21.249999,37.481216 22.481215,36.25 23.999999,36.25 C 25.518783,36.25 26.75,37.481216 26.75,39 z"/><rect stroke-linecap="round" style="marker:none" id="rect4140" width="25.051" height="29.051" x="11.474" y="5.474" fill="url(#radialGradient2451)" fill-opacity="1" fill-rule="evenodd" stroke="url(#linearGradient2453)" stroke-dasharray="none" stroke-dashoffset="0" stroke-linejoin="round" stroke-miterlimit="3.429" stroke-opacity="1" stroke-width=".949" display="inline" enable-background="accumulate" overflow="visible" rx="0" ry="0" visibility="visible"/><path id="rect6588" fill="url(#linearGradient2448)" fill-opacity="1" stroke="none" d="M 12,6 L 36,6 L 36,14.000003 L 12,21 L 12,6 z"/><rect id="rect3933" width="3.5" height="2.5" x="11.25" y="37.25" fill="url(#linearGradient2445)" fill-opacity="1" stroke="#787878" stroke-dasharray="none" stroke-linejoin="round" stroke-miterlimit="4" stroke-opacity="1" stroke-width=".5"/><rect id="rect4770" width="3.5" height="2.5" x="16.25" y="37.25" fill="url(#linearGradient2442)" fill-opacity="1" stroke="#787878" stroke-dasharray="none" stroke-linejoin="round" stroke-miterlimit="4" stroke-opacity="1" stroke-width=".5"/><rect id="rect4774" width="3.5" height="2.5" x="28.25" y="37.25" fill="url(#linearGradient2439)" fill-opacity="1" stroke="#787878" stroke-dasharray="none" stroke-linejoin="round" stroke-miterlimit="4" stroke-opacity="1" stroke-width=".5"/><rect id="rect4778" width="3.5" height="2.5" x="33.25" y="37.25" fill="url(#linearGradient2436)" fill-opacity="1" stroke="#787878" stroke-dasharray="none" stroke-linejoin="round" stroke-miterlimit="4" stroke-opacity="1" stroke-width=".5"/></svg>