<svg xmlns="http://www.w3.org/2000/svg" xmlns:svg="http://www.w3.org/2000/svg" xmlns:xlink="http://www.w3.org/1999/xlink" id="svg3968" width="48" height="48"><defs id="defs3970"><linearGradient id="linearGradient3967"><stop id="stop3969" offset="0" stop-color="#fff" stop-opacity="1"/><stop id="stop3971" offset="1" stop-color="#fff" stop-opacity="0"/></linearGradient><linearGradient id="linearGradient4873" x1="-282.75" x2="-362.781" y1="4.703" y2="11.719" gradientTransform="matrix(0.1146633,0,0,0.124318,192.91173,17.832196)" gradientUnits="userSpaceOnUse" xlink:href="#linearGradient3967"/><linearGradient id="linearGradient3910"><stop id="stop3912" offset="0" stop-color="#2f2f2f" stop-opacity="1"/><stop id="stop3914" offset="1" stop-color="#000" stop-opacity="1"/></linearGradient><linearGradient id="linearGradient4878" x1="-305.529" x2="-305.529" y1="-78.314" y2="-85.986" gradientTransform="matrix(0.1197575,0,0,0.124318,194.47684,17.351603)" gradientUnits="userSpaceOnUse" xlink:href="#linearGradient3910"/><linearGradient id="linearGradient3918"><stop id="stop3920" offset="0" stop-color="#000" stop-opacity="1"/><stop id="stop3922" offset="1" stop-color="#1e1e1e" stop-opacity="1"/></linearGradient><linearGradient id="linearGradient4876" x1="-314.029" x2="-314.029" y1="-83.614" y2="-75.274" gradientTransform="matrix(0.1197575,0,0,0.124318,194.47684,17.351603)" gradientUnits="userSpaceOnUse" xlink:href="#linearGradient3918"/><linearGradient id="linearGradient3847"><stop id="stop3849" offset="0" stop-color="#ababab" stop-opacity="1"/><stop id="stop3851" offset="1" stop-color="#dcdcdc" stop-opacity="0"/></linearGradient><linearGradient id="linearGradient4882" x1="-400.995" x2="-222.534" y1="189.646" y2="218.646" gradientTransform="matrix(0.1197575,0,0,0.1640376,193.06554,8.6098596)" gradientUnits="userSpaceOnUse" xlink:href="#linearGradient3847"/><linearGradient id="linearGradient3731-3"><stop id="stop3733-3" offset="0" stop-color="#cdcdcd" stop-opacity="1"/><stop id="stop3735-2" offset="1" stop-color="#303030" stop-opacity="1"/></linearGradient><linearGradient id="linearGradient4887" x1="-389.487" x2="-175.064" y1="65.211" y2="61.538" gradientTransform="matrix(0.130707,0,0,0.1204152,197.31216,17.147564)" gradientUnits="userSpaceOnUse" xlink:href="#linearGradient3731-3"/><linearGradient id="linearGradient3898"><stop id="stop3900" offset="0" stop-color="#030303" stop-opacity="1"/><stop id="stop3902" offset="1" stop-color="#383838" stop-opacity="0"/></linearGradient><linearGradient id="linearGradient3771"><stop id="stop3773" offset="0" stop-color="#fff" stop-opacity="1"/><stop id="stop3775" offset="1" stop-color="#0d0d0d" stop-opacity="1"/></linearGradient><linearGradient id="linearGradient4895" x1="-396.625" x2="-399.563" y1="260.446" y2="258.258" gradientTransform="matrix(0.1875517,0,0,0.1062801,232.9384,18.816076)" gradientUnits="userSpaceOnUse" xlink:href="#linearGradient3771"/><linearGradient id="linearGradient3779"><stop id="stop3781" offset="0" stop-color="#5b5b5b" stop-opacity="1"/><stop id="stop3783" offset="1" stop-color="#000" stop-opacity="1"/></linearGradient><radialGradient id="radialGradient4893" cx="-398" cy="257.924" r="2.313" fx="-398" fy="257.924" gradientTransform="matrix(0.1317931,0,0,0.1502763,210.74647,7.4839525)" gradientUnits="userSpaceOnUse" xlink:href="#linearGradient3779"/><linearGradient id="linearGradient3709"><stop id="stop3711" offset="0" stop-color="#adadad" stop-opacity="1"/><stop id="stop3713" offset="1" stop-color="#434343" stop-opacity="1"/></linearGradient><linearGradient id="linearGradient4915" x1="-397.063" x2="-212.125" y1="72.438" y2="72.438" gradientUnits="userSpaceOnUse" xlink:href="#linearGradient3709"/><linearGradient id="linearGradient3793"><stop id="stop3795" offset="0" stop-color="#3f3f3f" stop-opacity="1"/><stop id="stop5268" offset=".361" stop-color="#3c3c3c" stop-opacity="1"/><stop id="stop5266" offset=".66" stop-color="#2e2e2e" stop-opacity="1"/><stop id="stop3797" offset="1" stop-color="#202020" stop-opacity="1"/></linearGradient><linearGradient id="linearGradient4913" x1="-393.433" x2="-221.406" y1="67.439" y2="68.025" gradientTransform="matrix(1.0107504,0,0,1,2.2655936,0)" gradientUnits="userSpaceOnUse" xlink:href="#linearGradient3793"/><linearGradient id="linearGradient5258"><stop id="stop5260" offset="0" stop-color="#5f5f5f" stop-opacity="1"/><stop id="stop5262" offset="1" stop-color="#252525" stop-opacity="1"/></linearGradient><linearGradient id="linearGradient4907" x1="-301.943" x2="-245.239" y1="152.961" y2="134.961" gradientTransform="matrix(0.1197575,0,0,0.1231168,194.47682,17.705761)" gradientUnits="userSpaceOnUse" xlink:href="#linearGradient5258"/><radialGradient id="radialGradient4921" cx="605.714" cy="486.648" r="117.143" fx="605.714" fy="486.648" gradientTransform="matrix(-3.2949134,0,0,2.5953268,259.21603,-1254.2044)" gradientUnits="userSpaceOnUse" xlink:href="#linearGradient5060"/><linearGradient id="linearGradient5060"><stop id="stop5062" offset="0" stop-color="#000" stop-opacity="1"/><stop id="stop5064" offset="1" stop-color="#000" stop-opacity="0"/></linearGradient><radialGradient id="radialGradient4919" cx="605.714" cy="486.648" r="117.143" fx="605.714" fy="486.648" gradientTransform="matrix(3.2949134,0,0,2.5953268,-2121.2392,-1254.2044)" gradientUnits="userSpaceOnUse" xlink:href="#linearGradient5060"/><linearGradient id="linearGradient5048"><stop id="stop5050" offset="0" stop-color="#000" stop-opacity="0"/><stop id="stop5056" offset=".5" stop-color="#000" stop-opacity="1"/><stop id="stop5052" offset="1" stop-color="#000" stop-opacity="0"/></linearGradient><linearGradient id="linearGradient4917" x1="302.857" x2="302.857" y1="366.648" y2="609.505" gradientTransform="matrix(3.2949134,0,0,2.5953268,-2121.8877,-1254.2044)" gradientUnits="userSpaceOnUse" xlink:href="#linearGradient5048"/><linearGradient id="linearGradient4592" x1="-307.512" x2="-307.326" y1="224.5" y2="-102.184" gradientTransform="matrix(0.1290283,0,0,0.1230834,63.87231,13.741743)" gradientUnits="userSpaceOnUse" xlink:href="#linearGradient3898"/><linearGradient id="linearGradient3269" x1="-282.75" x2="-362.781" y1="4.703" y2="11.719" gradientTransform="matrix(0.1146633,0,0,0.1242241,59.98316,13.8577)" gradientUnits="userSpaceOnUse" xlink:href="#linearGradient3967"/><linearGradient id="linearGradient3272" x1="-314.029" x2="-314.029" y1="-83.614" y2="-75.274" gradientTransform="matrix(0.1197575,0,0,0.1242241,61.54827,13.37747)" gradientUnits="userSpaceOnUse" xlink:href="#linearGradient3918"/><linearGradient id="linearGradient3274" x1="-305.529" x2="-305.529" y1="-78.314" y2="-85.986" gradientTransform="matrix(0.1197575,0,0,0.1242241,61.54827,13.37747)" gradientUnits="userSpaceOnUse" xlink:href="#linearGradient3910"/><linearGradient id="linearGradient3278" x1="-400.995" x2="-222.534" y1="189.646" y2="218.646" gradientTransform="matrix(0.1197575,0,0,0.1639138,60.13697,4.6423267)" gradientUnits="userSpaceOnUse" xlink:href="#linearGradient3847"/><linearGradient id="linearGradient3283" x1="-389.487" x2="-175.064" y1="65.211" y2="61.538" gradientTransform="matrix(0.130707,0,0,0.1203243,64.38359,13.173585)" gradientUnits="userSpaceOnUse" xlink:href="#linearGradient3731-3"/><linearGradient id="linearGradient3286" x1="-307.512" x2="-307.326" y1="224.5" y2="-102.184" gradientTransform="matrix(0.1290283,0,0,0.1230834,63.87231,13.741743)" gradientUnits="userSpaceOnUse" xlink:href="#linearGradient3898"/><radialGradient id="radialGradient3289" cx="-398" cy="257.924" r="2.313" fx="-398" fy="257.924" gradientTransform="matrix(1.1185191e-2,0,0,0.1501628,28.960081,3.4920158)" gradientUnits="userSpaceOnUse" xlink:href="#linearGradient3779"/><linearGradient id="linearGradient3291" x1="-396.625" x2="-399.563" y1="260.446" y2="258.258" gradientTransform="matrix(1.5917386e-2,0,0,0.1061999,30.843495,14.815583)" gradientUnits="userSpaceOnUse" xlink:href="#linearGradient3771"/><linearGradient id="linearGradient3297" x1="-301.943" x2="-245.239" y1="152.961" y2="134.961" gradientTransform="matrix(0.1197575,0,0,0.1230238,61.54825,13.731361)" gradientUnits="userSpaceOnUse" xlink:href="#linearGradient5258"/><linearGradient id="linearGradient3339" x1="-314.029" x2="-314.029" y1="-83.614" y2="-75.274" gradientTransform="matrix(0.1099535,0,0,0.1480336,58.057004,15.241841)" gradientUnits="userSpaceOnUse" xlink:href="#linearGradient3918"/><linearGradient id="linearGradient3341" x1="-305.529" x2="-305.529" y1="-78.314" y2="-85.986" gradientTransform="matrix(0.1099535,0,0,0.1480336,58.057004,15.241841)" gradientUnits="userSpaceOnUse" xlink:href="#linearGradient3910"/></defs><metadata id="metadata3973"/><g id="layer1"><g id="g3303"><g id="g4245" opacity="1" transform="matrix(1.2026313e-2,0,0,9.5126496e-3,35.76807,44.883082)"><rect id="rect4247" width="1590.973" height="630.294" x="-1726.498" y="-302.633" fill="url(#linearGradient4917)" fill-opacity="1" fill-rule="nonzero" stroke="none" stroke-width="1" display="inline" opacity=".402" overflow="visible" visibility="visible" style="marker:none"/><path id="path4249" fill="url(#radialGradient4919)" fill-opacity="1" fill-rule="nonzero" stroke="none" stroke-width="1" d="M -135.52559,-302.61162 C -135.52559,-302.61162 -135.52559,327.64726 -135.52559,327.64726 C 34.154293,328.83371 274.67781,186.43822 274.67771,12.477262 C 274.67771,-161.48373 85.327731,-302.6116 -135.52559,-302.61162 L -135.52559,-302.61162 z" display="inline" opacity=".402" overflow="visible" visibility="visible" style="marker:none"/><path id="path4251" fill="url(#radialGradient4921)" fill-opacity="1" fill-rule="nonzero" stroke="none" stroke-width="1" d="M -1726.4981,-302.61162 C -1726.4981,-302.61162 -1726.4981,327.64726 -1726.4981,327.64726 C -1896.1779,328.83371 -2136.7014,186.43822 -2136.7014,12.477262 C -2136.7014,-161.48373 -1947.3515,-302.6116 -1726.4981,-302.61162 L -1726.4981,-302.61162 z" display="inline" opacity=".402" overflow="visible" visibility="visible" style="marker:none"/></g><rect id="rect4253" width="22.479" height="44.22" x="13.832" y=".782" fill="url(#linearGradient3297)" fill-opacity="1" stroke="none" stroke-width=".1" display="inline" enable-background="accumulate" opacity="1" overflow="visible" ry="1.547" visibility="visible" style="marker:none"/><g id="g4255" stroke-dasharray="none" stroke-miterlimit="4" stroke-width=".101" opacity="1" transform="matrix(0.125156,0,0,0.1223279,62.98392,13.74934)"><rect id="rect4257" width="189.711" height="364.926" x="-400.455" y="-110.023" fill="url(#linearGradient4913)" fill-opacity="1" stroke="#000" stroke-dasharray="none" stroke-miterlimit="4" stroke-opacity="1" stroke-width="4.121" display="inline" enable-background="accumulate" overflow="visible" ry="12.769" visibility="visible" style="marker:none"/><path id="path4259" fill="none" stroke="url(#linearGradient4915)" stroke-dasharray="none" stroke-miterlimit="4" stroke-opacity="1" stroke-width=".1" d="M -385.65625,-108.3125 C -391.81011,-108.3125 -396.71875,-103.40386 -396.71875,-97.25 L -396.71875,242.125 C -396.71875,248.27886 -391.81011,253.1875 -385.65625,253.1875 L -223.5,253.1875 C -217.34614,253.1875 -212.46875,248.2839 -212.46875,242.125 L -212.46875,-97.25 C -212.46875,-103.4089 -217.34614,-108.3125 -223.5,-108.3125 L -385.65625,-108.3125 z" display="inline" enable-background="accumulate" overflow="visible" transform="matrix(1.0083732,0,0,1,1.7752717,0)" visibility="visible" style="marker:none"/></g><rect stroke-miterlimit="4" style="marker:none" id="rect4265" width=".062" height=".618" x="24.452" y="41.861" fill="url(#radialGradient3289)" fill-opacity="1" fill-rule="nonzero" stroke="url(#linearGradient3291)" stroke-dasharray="none" stroke-dashoffset=".06" stroke-linecap="round" stroke-linejoin="round" stroke-opacity="1" stroke-width="1" marker-end="none" marker-mid="none" marker-start="none" display="inline" enable-background="accumulate" opacity="1" overflow="visible" ry=".216" visibility="visible"/><path id="path4267" fill="url(#linearGradient3286)" fill-opacity="1" stroke="none" stroke-dashoffset="0" stroke-linecap="square" stroke-linejoin="miter" stroke-miterlimit="4" stroke-opacity="1" stroke-width="1.536" d="M 13.0625,40.5625 L 13.0625,40.90625 L 13.0625,41.1875 C 13.0625,41.634242 13.35617,41.999999 13.71875,42 L 35.40625,42 C 35.76883,42 36.0625,41.634243 36.0625,41.1875 L 36.0625,40.5625 L 13.0625,40.5625 z" display="inline" enable-background="accumulate" opacity="1" overflow="visible" visibility="visible" style="marker:none"/><path stroke-opacity="1" style="marker:none" id="path4269" fill="#030303" fill-opacity="1" stroke="url(#linearGradient3283)" stroke-dasharray="none" stroke-dashoffset="0" stroke-linecap="square" stroke-linejoin="miter" stroke-miterlimit="4" stroke-width="1" d="M 14.19744,1.534815 L 34.94542,1.534815 C 35.29222,1.534815 35.57143,1.8785642 35.57143,2.3055535 L 35.57143,39.734635 C 35.57143,40.161625 35.29222,40.505371 34.94542,40.505371 L 14.19744,40.505371 C 13.85062,40.505371 13.57143,40.161625 13.57143,39.734635 L 13.57143,39.46445 L 13.57143,2.3055535 C 13.57143,1.8785642 13.85062,1.534815 14.19744,1.534815 L 14.19744,1.534815 z" display="inline" enable-background="accumulate" opacity="1" overflow="visible" visibility="visible"/><path id="path4271" fill="#939499" fill-opacity="1" d="M 26.8157,5.0322068 C 26.48838,5.0293478 26.15914,5.2055376 26.08523,5.4692785 C 26.01479,5.7206918 26.16965,5.9211542 26.4769,5.9768645 C 26.69079,6.0156453 26.96852,5.9578994 27.13077,5.8403144 C 27.4454,5.6123022 27.44644,5.2377359 27.13293,5.0982432 C 27.03383,5.054151 26.92481,5.0331597 26.8157,5.0322068 z M 21.74664,5.0338852 C 21.5343,5.0342904 21.31595,5.1055792 21.17749,5.2353527 C 20.87561,5.5182553 20.9994,5.9023441 21.41647,5.9768645 C 21.54026,5.9989818 21.74338,5.9830628 21.87451,5.9410483 C 22.32688,5.7961062 22.46545,5.2952222 22.1038,5.1116741 C 21.99948,5.058734 21.87407,5.0336427 21.74664,5.0338852 z M 24.16464,5.0338852 C 24.12107,5.0341446 24.0762,5.0370309 24.03032,5.0433993 C 23.68933,5.0907253 23.43633,5.3163759 23.43633,5.5733708 C 23.43633,5.7855396 23.59263,5.9372605 23.85444,5.979103 C 24.13757,6.0243554 24.44031,5.9261628 24.60865,5.7351039 C 24.7042,5.6266461 24.73987,5.5223165 24.72734,5.3870133 C 24.70764,5.1744431 24.46972,5.0320743 24.16464,5.0338852 z M 29.31733,5.0641058 L 29.1107,5.0691427 L 28.90407,5.074179 L 28.62246,5.5039759 C 28.46749,5.740364 28.34017,5.9398168 28.33976,5.947204 C 28.33936,5.9545913 28.40464,5.9606351 28.48489,5.9606351 L 28.6311,5.9606351 L 28.6845,5.8800483 L 28.73791,5.7994614 L 28.93321,5.7994614 L 29.12851,5.7994614 L 29.14415,5.8755713 L 29.15926,5.9516813 L 29.33837,5.9567182 L 29.51747,5.9617544 L 29.50722,5.9209014 C 29.50152,5.8983818 29.45621,5.6964432 29.40688,5.4720769 L 29.31733,5.0641058 z M 19.91292,5.0652252 C 19.71781,5.0652252 19.69143,5.0688307 19.68363,5.0965642 C 19.67879,5.113801 19.6395,5.2534806 19.59624,5.4071597 C 19.5332,5.631076 19.51747,5.7137795 19.51747,5.8235255 L 19.51747,5.9606351 L 19.62051,5.9606351 L 19.72303,5.9606351 L 19.77697,5.7770764 C 19.80643,5.6761187 19.83628,5.5741229 19.84333,5.5504254 C 19.85336,5.5166454 19.86805,5.5562975 19.91292,5.7339848 L 19.97064,5.9606351 L 20.05912,5.9606351 L 20.14759,5.9606351 L 20.31862,5.7636445 C 20.41279,5.6553404 20.49301,5.5695939 20.49665,5.5733708 C 20.50227,5.5791944 20.42689,5.8704644 20.40224,5.9382498 C 20.3931,5.9633971 20.57846,5.9682858 20.69896,5.9460851 L 20.7664,5.9337729 L 20.84138,5.656196 C 20.88256,5.5035737 20.93494,5.3081048 20.95792,5.2219216 L 21,5.0652252 L 20.76316,5.0652252 L 20.52686,5.0652252 L 20.38119,5.2459857 L 20.23554,5.4261875 L 20.18428,5.2459857 L 20.13358,5.0652252 L 19.91292,5.0652252 z M 22.43611,5.0652252 L 22.41777,5.1413347 C 22.40745,5.1831952 22.3912,5.2409343 22.38217,5.26949 C 22.35065,5.3691671 22.35178,5.3696643 22.5397,5.3696643 C 22.69727,5.3696643 22.71269,5.3725933 22.70424,5.4010038 C 22.69913,5.4182407 22.67124,5.537106 22.6422,5.6651496 C 22.61317,5.7931939 22.58539,5.9122662 22.58016,5.9298556 C 22.5714,5.9593446 22.5841,5.9614387 22.74795,5.9567182 L 22.92597,5.9516813 L 22.98154,5.7278287 C 23.01228,5.6047098 23.04621,5.473756 23.05653,5.4368202 L 23.07542,5.3696643 L 23.25237,5.3696643 L 23.42986,5.3696643 L 23.45953,5.23983 C 23.47564,5.1684206 23.48825,5.0999221 23.48813,5.0876099 C 23.48795,5.0701969 23.37119,5.0652252 22.96212,5.0652252 L 22.43611,5.0652252 z M 24.96201,5.0652252 L 24.84656,5.4927834 C 24.78312,5.7278675 24.73112,5.9293348 24.73112,5.9404887 C 24.73112,5.9541434 24.78373,5.9606351 24.89243,5.9606351 L 25.05372,5.9606351 L 25.08771,5.8308009 L 25.1217,5.7009661 L 25.26144,5.6959297 C 25.43293,5.689571 25.46569,5.7117799 25.44863,5.8224065 C 25.43167,5.9324943 25.44992,5.9429199 25.66119,5.9427271 L 25.84461,5.9421676 L 25.84894,5.8218466 C 25.85432,5.6689074 25.84454,5.6256079 25.80146,5.6114249 C 25.76334,5.5988717 25.75444,5.5666544 25.78906,5.5666544 C 25.82764,5.5666544 25.94304,5.4547672 25.96762,5.3937286 C 25.99909,5.3156175 25.99766,5.2175125 25.96438,5.1648395 C 25.90943,5.077824 25.83682,5.0652252 25.38119,5.0652252 L 24.96201,5.0652252 z M 27.82186,5.068023 C 27.80174,5.0681071 27.77972,5.0684373 27.75658,5.0691427 L 27.58826,5.074179 L 27.48143,5.4950217 C 27.4228,5.7264854 27.37425,5.9259382 27.37354,5.9382498 C 27.37254,5.955596 27.46959,5.9606351 27.80351,5.9606351 L 28.23456,5.9606351 L 28.25344,5.8845251 C 28.26391,5.8426645 28.27878,5.7822246 28.28689,5.7502139 L 28.302,5.6920118 L 28.04413,5.6920118 C 27.87654,5.6920118 27.78679,5.6857213 27.78679,5.6735443 C 27.78679,5.6632517 27.81787,5.5263704 27.85585,5.3696643 C 27.89383,5.2129587 27.9249,5.0799034 27.9249,5.074179 C 27.9249,5.0698856 27.88221,5.0677709 27.82186,5.068023 z M 25.25064,5.2801233 L 25.40117,5.2801233 C 25.4838,5.2802579 25.56862,5.2853768 25.58999,5.2913159 C 25.64129,5.3055767 25.64162,5.376189 25.59052,5.4133157 C 25.56216,5.4339322 25.50819,5.4412975 25.38336,5.4412975 C 25.29052,5.4412975 25.21444,5.4352533 25.2145,5.4278658 C 25.21455,5.420479 25.22295,5.3842149 25.23284,5.3472791 L 25.25064,5.2801233 z M 21.73047,5.2812426 C 21.79257,5.2834082 21.85165,5.3033253 21.89339,5.3405637 C 21.99232,5.4288364 21.92686,5.6321544 21.77578,5.7060029 C 21.68021,5.7527217 21.61304,5.764292 21.53787,5.7457367 C 21.36985,5.7042671 21.35399,5.4978053 21.5082,5.3573527 C 21.56612,5.3045915 21.65062,5.2784585 21.73047,5.2812426 z M 26.74881,5.2818022 C 26.77244,5.2807737 26.79727,5.2820281 26.82381,5.28572 C 26.9352,5.3012183 26.98308,5.3484699 26.98943,5.4496917 C 26.99636,5.5604299 26.93888,5.6550954 26.83404,5.7060029 C 26.69275,5.7746245 26.57988,5.7691001 26.49849,5.6897734 C 26.42235,5.6155859 26.45463,5.4591436 26.567,5.3567931 C 26.6193,5.3091648 26.6779,5.2848889 26.74881,5.2818022 z M 24.15331,5.2829211 C 24.19705,5.2833136 24.23906,5.2910885 24.27362,5.3081048 C 24.42376,5.3820087 24.38016,5.6133534 24.1981,5.7082418 C 24.02903,5.7963589 23.84866,5.7500796 23.82369,5.6119844 C 23.81251,5.5501884 23.84817,5.4404137 23.89869,5.3814165 C 23.95233,5.3187339 24.0571,5.2820591 24.15331,5.2829211 z M 29.02115,5.364068 L 29.04111,5.4340219 C 29.05229,5.4724856 29.06249,5.5221079 29.06321,5.5442697 C 29.06443,5.5808663 29.05638,5.5845633 28.97798,5.5845633 C 28.93051,5.5845633 28.89167,5.5806852 28.89167,5.575609 C 28.89167,5.5705321 28.92085,5.5209107 28.95641,5.4653617 L 29.02115,5.364068 z" display="inline" enable-background="new" opacity="1"/><path id="path4273" fill="none" stroke="#000" stroke-dasharray="none" stroke-miterlimit="4" stroke-opacity="1" stroke-width="7.922" d="M -385.65625,-108.3125 C -391.81011,-108.3125 -396.71875,-103.40386 -396.71875,-97.25 L -396.71875,242.125 C -396.71875,248.27886 -391.81011,253.1875 -385.65625,253.1875 L -223.5,253.1875 C -217.34614,253.1875 -212.46875,248.2839 -212.46875,242.125 L -212.46875,-97.25 C -212.46875,-103.4089 -217.34614,-108.3125 -223.5,-108.3125 L -385.65625,-108.3125 z" display="inline" enable-background="accumulate" opacity="1" overflow="visible" transform="matrix(0.1302577,0,0,0.1223279,64.24712,13.74934)" visibility="visible" style="marker:none"/><path id="path4275" fill="url(#linearGradient3278)" fill-opacity="1" stroke="none" d="M 13.07143,41.458394 C 13.07143,41.458394 13.158,41.083271 13.20099,40.817775 C 13.26971,40.393498 13.11436,40.005748 13.11436,40.005748 C 13.3944,40.544503 14.05906,40.620009 14.77415,40.563305 L 33.48688,40.447146 L 32.76407,40.782085 L 15.17571,40.782085 C 13.97632,40.941488 13.61853,41.388878 13.69349,41.984338 C 13.32172,42.079074 13.16272,41.824338 13.07143,41.458394 L 13.07143,41.458394 z" opacity="1"/><rect id="rect4277" width="17" height="29.059" x="16.071" y="7.031" fill="#2d2d2d" fill-opacity="1" stroke="none" stroke-width="2.011" display="inline" enable-background="accumulate" opacity="1" overflow="visible" ry="0" visibility="visible" style="marker:none"/><rect id="rect4279" width="7.93" height=".942" x="20.601" y="2.708" fill="url(#linearGradient3339)" fill-opacity="1" fill-rule="nonzero" stroke="url(#linearGradient3341)" stroke-dasharray="none" stroke-miterlimit="4" stroke-opacity="1" stroke-width="1" display="inline" enable-background="accumulate" opacity="1" overflow="visible" ry=".471" visibility="visible" style="marker:none"/><path id="path4281" fill="url(#linearGradient3269)" fill-opacity="1" stroke="none" stroke-dashoffset="0" stroke-linecap="square" stroke-linejoin="miter" stroke-miterlimit="4" stroke-opacity="1" stroke-width="1.464" d="M 15.95604,1.8429047 C 15.65177,1.8429047 15.40781,2.1891492 15.40781,2.6231873 L 15.40781,40.395063 L 15.40781,40.670684 C 15.40781,41.104723 15.65177,41.454848 15.95604,41.454848 L 20.78982,41.454848 C 22.61779,28.250943 23.90495,15.046812 24.69196,1.8429047 L 15.95604,1.8429047 z" display="inline" enable-background="accumulate" opacity=".1" overflow="visible" visibility="visible" style="marker:none"/><g id="g4283" stroke="#b2b2b6" stroke-dasharray="none" stroke-miterlimit="4" stroke-opacity="1" stroke-width="3.514" opacity="1" transform="matrix(0.1435626,0,0,0.1410284,97.05125,7.5436643)"><path id="path4285" fill="none" stroke="#b2b2b6" stroke-dasharray="none" stroke-miterlimit="4" stroke-opacity="1" stroke-width="4.502" d="M -451.84124,213.40047 A 4.3310289,4.3310289 0 1 1 -460.5033,213.40047 A 4.3310289,4.3310289 0 1 1 -451.84124,213.40047 z" display="inline" enable-background="accumulate" overflow="visible" transform="matrix(0.7804484,0,0,0.7804484,-97.704371,48.406795)" visibility="visible" style="marker:none"/><path id="path4287" fill="none" stroke="#b2b2b6" stroke-dasharray="none" stroke-linecap="square" stroke-linejoin="miter" stroke-miterlimit="4" stroke-opacity="1" stroke-width="3.514" d="M -451.22252,217.46633 L -448.04054,220.82509"/></g><g id="g4289" stroke="#b2b2b6" stroke-dasharray="none" stroke-miterlimit="4" stroke-opacity="1" stroke-width="3.525" opacity="1" transform="matrix(0.1392687,0,0,0.144468,96.34491,6.7379071)"><path id="path4291" fill="none" stroke="#b2b2b6" stroke-dasharray="none" stroke-linecap="butt" stroke-linejoin="miter" stroke-miterlimit="4" stroke-opacity="1" stroke-width="3.525" d="M -498.69737,217.61513 L -498.69737,220.82237 L -492.55263,220.82237 L -492.55263,217.61513"/><path id="path4293" fill="none" stroke="#b2b2b6" stroke-dasharray="none" stroke-linecap="butt" stroke-linejoin="miter" stroke-miterlimit="4" stroke-opacity="1" stroke-width="3.525" d="M -501.125,217.375 L -495.8125,211.9375 L -490.125,217.625"/><path id="path4295" fill="none" stroke="#b2b2b6" stroke-dasharray="none" stroke-linecap="square" stroke-linejoin="miter" stroke-miterlimit="4" stroke-opacity="1" stroke-width="3.525" d="M -492.5,214.83108 L -492.5,212.04392"/></g><g id="g4297" stroke="#b2b2b6" stroke-dasharray="none" stroke-miterlimit="4" stroke-opacity="1" stroke-width="3.884" opacity="1" transform="matrix(0.1263814,0,0,0.1310995,89.98965,9.632939)"><path id="path4299" fill="none" stroke="#b2b2b6" stroke-dasharray="none" stroke-linecap="square" stroke-linejoin="miter" stroke-miterlimit="4" stroke-opacity="1" stroke-width="3.884" d="M -545.33081,211.72109 L -533.84033,211.72109"/><path id="path4301" fill="none" stroke="#b2b2b6" stroke-dasharray="none" stroke-linecap="square" stroke-linejoin="miter" stroke-miterlimit="4" stroke-opacity="1" stroke-width="3.884" d="M -542.23495,214.721 L -533.84033,214.721" display="inline" enable-background="new"/><path id="path4303" fill="none" stroke="#b2b2b6" stroke-dasharray="none" stroke-linecap="square" stroke-linejoin="miter" stroke-miterlimit="4" stroke-opacity="1" stroke-width="3.884" d="M -542.23495,217.92114 L -533.84033,217.92114" display="inline" enable-background="new"/><path id="path4305" fill="none" stroke="#b2b2b6" stroke-dasharray="none" stroke-linecap="square" stroke-linejoin="miter" stroke-miterlimit="4" stroke-opacity="1" stroke-width="3.884" d="M -542.23495,221.021 L -533.84033,221.021" display="inline" enable-background="new"/></g><g id="g4307" stroke="#b2b2b6" stroke-dasharray="none" stroke-miterlimit="4" stroke-opacity="1" stroke-width="3.461" opacity="1" transform="matrix(0.146047,0,0,0.1429051,100.13753,7.0428127)"><path id="path4309" fill="none" stroke="#b2b2b6" stroke-dasharray="none" stroke-linecap="square" stroke-linejoin="miter" stroke-miterlimit="4" stroke-opacity="1" stroke-width="3.461" d="M -571.0625,216.75 L -573.1875,214.625 L -570.9375,212.375"/><path id="path4311" fill="none" stroke="#b2b2b6" stroke-dasharray="none" stroke-linecap="square" stroke-linejoin="miter" stroke-miterlimit="4" stroke-opacity="1" stroke-width="3.461" d="M -571.34988,221.3499 L -567.87473,221.3499"/><path id="path4313" fill="none" stroke="#b2b2b6" stroke-dasharray="none" stroke-linecap="square" stroke-linejoin="miter" stroke-miterlimit="4" stroke-opacity="1" stroke-width="3.461" d="M -571.81153,214.57452 L -568.0943,214.57452" display="inline" enable-background="new"/><path id="path4315" fill="none" stroke="#b2b2b6" stroke-dasharray="none" stroke-dashoffset="0" stroke-linecap="square" stroke-linejoin="miter" stroke-miterlimit="4" stroke-opacity="1" stroke-width="3.461" d="M -581.16605,214.06253 A 2.53125,3.375 0 1 1 -581.21261,220.81166" display="inline" enable-background="accumulate" overflow="visible" transform="translate(14.18633,0.5432743)" visibility="visible" style="marker:none"/></g></g></g></svg>