<svg xmlns="http://www.w3.org/2000/svg" xmlns:svg="http://www.w3.org/2000/svg" xmlns:xlink="http://www.w3.org/1999/xlink" id="svg1" width="16" height="16" version="1.0"><defs id="defs3"><linearGradient id="linearGradient2780"><stop id="stop2782" offset="0" stop-color="#fff" stop-opacity="1"/><stop id="stop2784" offset="1" stop-color="#fff" stop-opacity="0"/></linearGradient><linearGradient id="linearGradient6621"><stop id="stop6622" offset="0" stop-color="#f5a108" stop-opacity="0"/><stop id="stop6623" offset="1" stop-color="#fefdc3" stop-opacity=".743"/></linearGradient><linearGradient id="linearGradient7881" x1="22.82" x2="12.85" y1="28.829" y2="12.239" gradientTransform="matrix(0.36634562,0,0,0.18487721,0.09201511,0.98373703)" gradientUnits="userSpaceOnUse" xlink:href="#linearGradient6621"/><linearGradient id="linearGradient2786" x1="24" x2="24" y1="5.079" y2="41.079" gradientTransform="matrix(0.31609932,0,0,0.30746702,0.37420195,0.8554193)" gradientUnits="userSpaceOnUse" xlink:href="#linearGradient2780"/><linearGradient id="linearGradient3242"><stop id="stop3244" offset="0" stop-color="#f8b17e" stop-opacity="1"/><stop id="stop3246" offset=".312" stop-color="#e35d4f" stop-opacity="1"/><stop id="stop3248" offset=".571" stop-color="#c6262e" stop-opacity="1"/><stop id="stop3250" offset="1" stop-color="#690b54" stop-opacity="1"/></linearGradient><linearGradient id="linearGradient2490"><stop id="stop2492" offset="0" stop-color="#791235" stop-opacity="1"/><stop id="stop2494" offset="1" stop-color="#dd3b27" stop-opacity="1"/></linearGradient><linearGradient id="linearGradient3853" x1="24" x2="24" y1="6" y2="51" gradientTransform="matrix(0.34580644,0,0,0.33925848,-0.34018139,-0.59700218)" gradientUnits="userSpaceOnUse" xlink:href="#linearGradient3242"/><linearGradient id="linearGradient3861" x1="17" x2="17" y1="45" y2="6" gradientTransform="matrix(0.34580644,0,0,0.33925848,-0.34018139,-0.59700218)" gradientUnits="userSpaceOnUse" xlink:href="#linearGradient2490"/></defs><path id="path7876" fill="url(#linearGradient7881)" fill-opacity="1" fill-rule="evenodd" stroke="none" d="M 4.5140562,2.2867658 C 2.657805,2.1971654 1.7930306,3.3665529 1.3252546,4.4789787 0.86104569,5.9438985 1.5172417,8.7107873 4.7329124,8.500294 6.567115,8.500294 7.2961449,6.6556822 8.2614763,6.1768313 9.1387813,5.851533 9.2078291,5.822419 10.134716,5.822419 c 1.288084,0 3.617431,-0.9141615 3.617432,-1.8212231 C 13.35622,3.2733341 12.305088,1.9771251 10.373564,2.1980488 9.1440706,2.3383772 7.980897,3.200228 7.6770592,3.6290877 6.9327592,2.9853054 5.9824,2.2867658 4.5140562,2.2867658 z"/><path id="path920" fill="url(#linearGradient3853)" fill-opacity="1" fill-rule="evenodd" stroke="url(#linearGradient3861)" stroke-dasharray="none" stroke-linecap="butt" stroke-linejoin="miter" stroke-miterlimit="4" stroke-opacity="1" stroke-width="1" d="M 7.9026548,2.8629634 C 11.114738,-0.28698441 15.528893,2.6163356 15.499858,5.603663 15.473313,8.3346001 13.350893,9.6424802 8.0187984,14.5 2.4377011,9.9811165 0.47128043,8.9390447 0.50031614,5.6988794 0.52935193,2.3448169 4.3082404,-0.17242286 7.9026548,2.8629634 z"/><path id="path2778" fill="none" stroke="url(#linearGradient2786)" stroke-dasharray="none" stroke-linecap="butt" stroke-linejoin="miter" stroke-miterlimit="4" stroke-opacity="1" stroke-width="1" d="M 5.1552041,2.5176629 C 4.8920387,2.4957498 4.6296891,2.5012872 4.3847121,2.5368796 2.7500963,2.7743711 1.5155137,4.2253139 1.5003057,5.967059 1.4876573,7.3664765 1.8658439,8.2129065 2.9128746,9.2915459 3.9219501,10.331083 5.6043026,11.576456 8.0099764,13.5 10.312094,11.429674 11.968179,10.043231 12.998418,8.9552533 14.067537,7.8262189 14.488611,7.0311286 14.49989,5.8805834 14.511522,4.6945314 13.596184,3.4492819 12.336586,2.8635633 11.076987,2.2778448 9.5303599,2.3076565 8.1581476,3.6418392 A 0.35451478,0.3448334 0 0 1 7.6839993,3.6610558 C 6.8064022,2.9262743 5.9447009,2.5834023 5.1552041,2.5176629 z" opacity=".4"/></svg>