<svg xmlns="http://www.w3.org/2000/svg" xmlns:svg="http://www.w3.org/2000/svg" xmlns:xlink="http://www.w3.org/1999/xlink" id="svg3882" width="16" height="16" version="1.1"><defs id="defs3884"><linearGradient id="linearGradient3795-2" x1="46.396" x2="46.396" y1="12.708" y2="38.409" gradientTransform="matrix(-0.4100229,0,0,0.5447147,28.02322,-5.9219706)" gradientUnits="userSpaceOnUse" xlink:href="#linearGradient3587-6-5-3-5-7"/><linearGradient id="linearGradient3587-6-5-3-5-7"><stop id="stop3589-9-2-2-6-2" offset="0" stop-color="#000" stop-opacity="1"/><stop id="stop3591-7-4-73-5-1" offset="1" stop-color="#363636" stop-opacity="1"/></linearGradient></defs><metadata id="metadata3887"/><g id="layer1"><path id="path3220-5" fill="#fff" fill-opacity="1" fill-rule="nonzero" stroke="none" stroke-width="1" d="m 6,1.9992355 c -2.7614237,0 -5,2.2385763 -5,5 0,2.7614237 2.2385763,4.9999995 5,4.9999995 0.9847834,0 1.8822735,-0.289667 2.65625,-0.78125 l 4.46875,4.625 c 0.09558,0.105267 0.226186,0.164519 0.375,0.15625 0.148816,-0.0083 0.303095,-0.07119 0.40625,-0.1875 l 0.9375,-1.0625 c 0.191938,-0.220889 0.195486,-0.535924 0,-0.71875 L 10.25,9.6242355 c 0.477599,-0.7663478 0.75,-1.6555164 0.75,-2.625 0,-2.7614237 -2.2385763,-5 -5,-5 z m 0,2 c 1.6568542,0 3,1.3431458 3,3 0,1.6568542 -1.3431458,3 -3,3 -1.6568542,0 -3,-1.3431458 -3,-3 0,-1.6568542 1.3431458,-3 3,-3 z" color="#000" display="inline" enable-background="accumulate" opacity=".6" overflow="visible" visibility="visible" style="marker:none"/><path id="path3220" fill="url(#linearGradient3795-2)" fill-opacity="1" fill-rule="nonzero" stroke="none" stroke-width="1" d="M 6,1 C 3.2385763,1 1,3.2385763 1,6 c 0,2.7614237 2.2385763,5 5,5 0.9847834,0 1.8822735,-0.289667 2.65625,-0.78125 l 4.46875,4.625 c 0.09558,0.105267 0.226186,0.164519 0.375,0.15625 0.148816,-0.0083 0.303095,-0.07119 0.40625,-0.1875 l 0.9375,-1.0625 c 0.191938,-0.220889 0.195486,-0.535924 0,-0.71875 L 10.25,8.625 C 10.727599,7.8586522 11,6.9694836 11,6 11,3.2385763 8.7614237,1 6,1 z M 6,3 C 7.6568542,3 9,4.3431458 9,6 9,7.6568542 7.6568542,9 6,9 4.3431458,9 3,7.6568542 3,6 3,4.3431458 4.3431458,3 6,3 z" color="#000" display="inline" enable-background="accumulate" opacity=".7" overflow="visible" visibility="visible" style="marker:none"/></g></svg>