<svg xmlns="http://www.w3.org/2000/svg" xmlns:svg="http://www.w3.org/2000/svg" xmlns:xlink="http://www.w3.org/1999/xlink" id="svg3882" width="16" height="16" version="1.1"><defs id="defs3884"><linearGradient id="linearGradient3587-6-5-3-5-7"><stop id="stop3589-9-2-2-6-2" offset="0" stop-color="#000" stop-opacity="1"/><stop id="stop3591-7-4-73-5-1" offset="1" stop-color="#363636" stop-opacity="1"/></linearGradient><linearGradient id="linearGradient3766" x1="46.396" x2="46.396" y1="12.708" y2="38.409" gradientTransform="matrix(-0.4100229,0,0,0.5447147,27.02322,-5.9219706)" gradientUnits="userSpaceOnUse" xlink:href="#linearGradient3587-6-5-3-5-7"/></defs><metadata id="metadata3887"/><path id="path3220-5" fill="#fff" fill-opacity="1" fill-rule="nonzero" stroke="none" stroke-width="1" d="M 5,2 C 2.2385763,2 0,4.2385763 0,7 c 0,2.7614237 2.2385763,5 5,5 0.9847834,0 1.8822735,-0.289667 2.65625,-0.78125 l 4.46875,4.625 c 0.09558,0.105267 0.226186,0.164519 0.375,0.15625 0.148816,-0.0083 0.303095,-0.07119 0.40625,-0.1875 l 0.9375,-1.0625 c 0.191938,-0.220889 0.195486,-0.535924 0,-0.71875 L 9.25,9.625 C 9.727599,8.8586522 10,7.9694836 10,7 10,4.2385763 7.7614237,2 5,2 z M 5,4 C 6.6568542,4 8,5.3431458 8,7 8,8.6568542 6.6568542,10 5,10 3.3431458,10 2,8.6568542 2,7 2,5.3431458 3.3431458,4 5,4 z m 6,3 2.5,4 2.5,-4 z" color="#000" display="inline" enable-background="accumulate" opacity=".6" overflow="visible" visibility="visible" style="marker:none"/><path id="path3220" fill="url(#linearGradient3766)" fill-opacity="1" fill-rule="nonzero" stroke="none" stroke-width="1" d="M 5,1 C 2.2385763,1 0,3.2385763 0,6 c 0,2.7614237 2.2385763,5 5,5 0.9847834,0 1.8822735,-0.289667 2.65625,-0.78125 l 4.46875,4.625 c 0.09558,0.105267 0.226186,0.164519 0.375,0.15625 0.148816,-0.0083 0.303095,-0.07119 0.40625,-0.1875 l 0.9375,-1.0625 c 0.191938,-0.220889 0.195486,-0.535924 0,-0.71875 L 9.25,8.625 C 9.727599,7.8586522 10,6.9694836 10,6 10,3.2385763 7.7614237,1 5,1 z M 5,3 C 6.6568542,3 8,4.3431458 8,6 8,7.6568542 6.6568542,9 5,9 3.3431458,9 2,7.6568542 2,6 2,4.3431458 3.3431458,3 5,3 z m 6,3 2.5,4 2.5,-4 z" color="#000" display="inline" enable-background="accumulate" opacity=".7" overflow="visible" visibility="visible" style="marker:none"/></svg>