<svg xmlns="http://www.w3.org/2000/svg" xmlns:svg="http://www.w3.org/2000/svg" xmlns:xlink="http://www.w3.org/1999/xlink" id="svg3713" width="16" height="16" version="1.1"><defs id="defs3715"><linearGradient id="linearGradient3674" x1="63.397" x2="63.397" y1="-12.489" y2="5.468" gradientTransform="matrix(0.51455032,0,0,0.51453856,-24.005236,9.8064595)" gradientUnits="userSpaceOnUse" xlink:href="#linearGradient4873"/><linearGradient id="linearGradient4873"><stop id="stop4875" offset="0" stop-color="#fff" stop-opacity="1"/><stop id="stop4877" offset="1" stop-color="#fff" stop-opacity="0"/></linearGradient><radialGradient id="radialGradient3677" cx="23.896" cy="3.99" r="20.397" fx="23.896" fy="3.99" gradientTransform="matrix(0,0.64524082,-0.85170617,0,11.39831,-13.333564)" gradientUnits="userSpaceOnUse" xlink:href="#linearGradient3242-187-536"/><linearGradient id="linearGradient3242-187-536"><stop id="stop2778" offset="0" stop-color="#8badea" stop-opacity="1"/><stop id="stop2780" offset=".262" stop-color="#6396cd" stop-opacity="1"/><stop id="stop2782" offset=".661" stop-color="#3b7caf" stop-opacity="1"/><stop id="stop2784" offset="1" stop-color="#194c70" stop-opacity="1"/></linearGradient><linearGradient id="linearGradient3679" x1="18.379" x2="18.379" y1="44.98" y2="3.082" gradientTransform="matrix(0.2703533,0,0,0.27035337,1.5115215,1.5115197)" gradientUnits="userSpaceOnUse" xlink:href="#linearGradient2490-182-124"/><linearGradient id="linearGradient2490-182-124"><stop id="stop2788" offset="0" stop-color="#1f4b6a" stop-opacity="1"/><stop id="stop2790" offset="1" stop-color="#4083c2" stop-opacity="1"/></linearGradient><radialGradient id="radialGradient3709" cx="23.896" cy="3.99" r="20.397" fx="23.896" fy="3.99" gradientTransform="matrix(0,0.64524082,-0.85170617,0,11.39831,-13.333564)" gradientUnits="userSpaceOnUse" xlink:href="#linearGradient2867-449-88-871-390-598-476-591-434-148"/><linearGradient id="linearGradient3711" x1="18.379" x2="18.379" y1="44.98" y2="3.082" gradientTransform="matrix(0.2703533,0,0,0.27035337,1.5115215,1.5115197)" gradientUnits="userSpaceOnUse" xlink:href="#linearGradient3707-319-631"/><radialGradient id="radialGradient2902" cx="62.625" cy="4.625" r="10.625" fx="62.625" fy="4.625" gradientTransform="matrix(2.1647059,0,0,0.7529402,-111.56471,36.517647)" gradientUnits="userSpaceOnUse" xlink:href="#linearGradient8838-561-565"/><linearGradient id="linearGradient2899" x1="18.139" x2="18.139" y1="45.218" y2="3" gradientUnits="userSpaceOnUse" xlink:href="#linearGradient3707-319-631"/><radialGradient id="radialGradient2897" cx="20.249" cy="4.912" r="23" fx="20.249" fy="4.912" gradientTransform="matrix(0,1.7703635,-1.4881952,0,30.166509,-32.859046)" gradientUnits="userSpaceOnUse" xlink:href="#linearGradient2867-449-88-871-390-598-476-591-434-148"/><radialGradient id="radialGradient2894" cx="24.016" cy="2.246" r="21.996" fx="24.016" fy="2.246" gradientTransform="matrix(-1.4868718e-8,1.4132436,-1.2268499,-1.2907672e-8,26.77217,-29.044021)" gradientUnits="userSpaceOnUse" xlink:href="#linearGradient4593-546-445"/><radialGradient id="radialGradient2889" cx="90.747" cy="32.164" r="23" fx="90.747" fy="32.164" gradientTransform="matrix(0.32729625,-0.22730582,0.12062179,0.17368257,-25.123657,54.138634)" gradientUnits="userSpaceOnUse" xlink:href="#linearGradient3725-941-985"/><linearGradient id="linearGradient3725-941-985"><stop id="stop4651" offset="0" stop-color="#54e1fa" stop-opacity="1"/><stop id="stop4653" offset="1" stop-color="#05a4dd" stop-opacity="0"/></linearGradient><radialGradient id="radialGradient3847-112-902" cx="90.747" cy="32.164" r="23" fx="90.747" fy="32.164" gradientTransform="matrix(0.32729625,-0.22730582,0.12062179,0.17368257,-25.123657,54.138634)" gradientUnits="userSpaceOnUse" xlink:href="#linearGradient3725-941-985"/><linearGradient id="linearGradient4593-546-445"><stop id="stop4645" offset="0" stop-color="#fff" stop-opacity=".702"/><stop id="stop4647" offset="1" stop-color="#fff" stop-opacity="0"/></linearGradient><radialGradient id="radialGradient2857-700-249" cx="24.016" cy="2.246" r="21.996" fx="24.016" fy="2.246" gradientTransform="matrix(-1.4868718e-8,1.4132436,-1.2268499,-1.2907672e-8,26.77217,-29.044021)" gradientUnits="userSpaceOnUse" xlink:href="#linearGradient4593-546-445"/><linearGradient id="linearGradient3707-319-631"><stop id="stop4637" offset="0" stop-color="#254b6d" stop-opacity="1"/><stop id="stop4639" offset=".5" stop-color="#415b73" stop-opacity="1"/><stop id="stop4641" offset="1" stop-color="#6195b5" stop-opacity="1"/></linearGradient><linearGradient id="linearGradient2862-249-451-585-788-999-493-675-437-502" x1="18.139" x2="18.139" y1="45.218" y2="3" gradientUnits="userSpaceOnUse" xlink:href="#linearGradient3707-319-631"/><linearGradient id="linearGradient2867-449-88-871-390-598-476-591-434-148"><stop id="stop4627" offset="0" stop-color="#51cfee" stop-opacity="1"/><stop id="stop4629" offset=".262" stop-color="#49a3d2" stop-opacity="1"/><stop id="stop4631" offset=".705" stop-color="#3470b4" stop-opacity="1"/><stop id="stop4633" offset="1" stop-color="#1b5699" stop-opacity="1"/></linearGradient><radialGradient id="radialGradient2860-830-797-965-521-124-769-292-682-235" cx="20.249" cy="4.912" r="23" fx="20.249" fy="4.912" gradientTransform="matrix(0,1.7703635,-1.4881952,0,30.166509,-32.859046)" gradientUnits="userSpaceOnUse" xlink:href="#linearGradient2867-449-88-871-390-598-476-591-434-148"/><linearGradient id="linearGradient8838-561-565"><stop id="stop4621" offset="0" stop-color="#0a0a0a" stop-opacity="1"/><stop id="stop4623" offset="1" stop-color="#0a0a0a" stop-opacity="0"/></linearGradient><radialGradient id="radialGradient3890-540-810" cx="62.625" cy="4.625" r="10.625" fx="62.625" fy="4.625" gradientTransform="matrix(2.1647059,0,0,0.7529402,-111.56471,36.517647)" gradientUnits="userSpaceOnUse" xlink:href="#linearGradient8838-561-565"/><radialGradient id="radialGradient3844" cx="90.747" cy="32.164" r="23" fx="90.747" fy="32.164" gradientTransform="matrix(0.32729625,-0.22730582,0.12062179,0.17368257,-78.72118,36.75497)" gradientUnits="userSpaceOnUse" xlink:href="#linearGradient3725-941-985"/><radialGradient id="radialGradient3849" cx="24.016" cy="2.246" r="21.996" fx="24.016" fy="2.246" gradientTransform="matrix(-1.4868718e-8,1.4132436,-1.2268499,-1.2907672e-8,-26.825353,-46.427685)" gradientUnits="userSpaceOnUse" xlink:href="#linearGradient4593-546-445"/><radialGradient id="radialGradient3852" cx="20.249" cy="4.912" r="23" fx="20.249" fy="4.912" gradientTransform="matrix(0,1.7703635,-1.4881952,0,-22.89042,-48.891225)" gradientUnits="userSpaceOnUse" xlink:href="#linearGradient2867-449-88-871-390-598-476-591-434-148"/><linearGradient id="linearGradient3854" x1="18.139" x2="18.139" y1="45.218" y2="3" gradientTransform="translate(-53.056929,-16.032179)" gradientUnits="userSpaceOnUse" xlink:href="#linearGradient3707-319-631"/><radialGradient id="radialGradient3857" cx="62.625" cy="4.625" r="10.625" fx="62.625" fy="4.625" gradientTransform="matrix(2.1647059,0,0,0.7529402,-165.16223,19.133983)" gradientUnits="userSpaceOnUse" xlink:href="#linearGradient8838-561-565"/></defs><metadata id="metadata3718"/><g id="layer1"><path id="path2555" fill="url(#radialGradient3709)" fill-opacity="1" stroke="url(#linearGradient3711)" stroke-dasharray="none" stroke-dashoffset="0" stroke-linecap="round" stroke-linejoin="round" stroke-miterlimit="4" stroke-opacity="1" stroke-width="1" d="M 8.0000007,2.5 C 4.9652912,2.5 2.5,4.9652892 2.5,8.0000002 2.5,11.034712 4.9652912,13.500003 8.0000007,13.5 11.034709,13.5 13.500003,11.034712 13.5,8.0000002 13.5,4.9652892 11.034709,2.5 8.0000007,2.5 z"/><path id="path2463" fill="none" stroke="url(#linearGradient3674)" stroke-dasharray="none" stroke-miterlimit="4" stroke-opacity="1" stroke-width="1" d="M 12.5,7.9998378 C 12.5,10.485198 10.485132,12.5 8.0000561,12.5 5.5147526,12.5 3.5,10.48518 3.5,7.9998378 3.5,5.5145945 5.5147526,3.5000005 8.0000561,3.5000005 10.485132,3.5000005 12.5,5.5145945 12.5,7.9998378 l 0,0 z" opacity=".4"/><path id="path8836" fill="url(#radialGradient3857)" fill-opacity="1" fill-rule="evenodd" stroke="none" stroke-width="1" d="m -6.597526,22.616336 c 0,4.418278 -10.297452,8 -23,8 -12.702548,0 -23,-3.581722 -23,-8 0,-4.418278 10.297452,-8 23,-8 12.702548,0 23,3.581722 23,8 l 0,0 z" display="inline" opacity=".3" overflow="visible" visibility="visible" style="marker:none"/><path id="path6145" fill="url(#radialGradient3852)" fill-opacity="1" fill-rule="evenodd" stroke="url(#linearGradient3854)" stroke-dasharray="none" stroke-dashoffset="0" stroke-linecap="butt" stroke-linejoin="round" stroke-miterlimit="4" stroke-opacity="1" stroke-width=".995" d="m -32.244249,-12.248836 c -11.517981,1.698112 -20.040587,9.6339592 -19.266215,18.2263782 0.501439,5.5639418 4.77193,10.1435428 10.878901,12.5598028 l -2.549134,9.93285 11.277182,-8.155916 0.07796,-0.0071 c 1.391686,0.06652 2.789829,0.08857 4.240703,-0.0438 C -15.204073,19.133824 -5.7909729,10.8955 -6.6034349,1.8805072 -7.4158919,-7.1344883 -18.148272,-13.534864 -30.52905,-12.40532 c -0.580348,0.05295 -1.148739,0.07297 -1.715199,0.156484 z" display="inline" overflow="visible" visibility="visible" style="marker:none"/><path id="path6179" fill="none" stroke="url(#radialGradient3849)" stroke-dasharray="none" stroke-dashoffset="0" stroke-linecap="butt" stroke-linejoin="miter" stroke-miterlimit="4" stroke-opacity="1" stroke-width=".995" d="m -32.502875,-12.621342 c -10.228879,1.489752 -19.248101,8.120261 -18.536699,17.09826 0.477826,6.030239 5.182384,10.122252 11.016274,12.024558 l -1.960294,8.057691 9.157595,-6.58386 c 1.235244,0.05367 3.135772,0.14938 4.424056,0.03185 9.740872,-0.888702 21.093047,-8.123387 20.277341,-17.118372 -0.869129,-9.5260549 -12.214737,-14.619852 -22.855284,-13.649075 -0.51531,0.04701 -1.01993,0.06568 -1.522989,0.138948 z" display="inline" opacity=".4" overflow="visible" visibility="visible" style="marker:none"/><path font-stretch="normal" style="text-align:start;line-height:125%" id="path3393-4" fill="#393939" fill-opacity="1" stroke="none" d="m -30.441273,-10.453336 c -1.080196,-0.15475 -2.188854,0.6631441 -2.21875,1.5312497 3.77e-4,0.01041 3.77e-4,0.02084 0,0.03125 -0.0057,0.07077 0.01443,0.167938 0.03125,0.3125 0.0017,0.01433 -0.0017,0.01593 0,0.03125 0.975774,4.6055603 1.308276,9.2275193 2.28125,13.7500013 0.589907,-0.06306 1.506475,-0.183989 2.125,-0.25 -0.134035,-4.462899 -0.540078,-8.896519 -0.59375,-13.4062513 -3.77e-4,-0.01041 -3.77e-4,-0.02084 0,-0.03125 0.08822,-0.87813 -0.502805,-1.8698027 -1.59375,-1.9687497 -0.01041,3.77e-4 -0.02084,3.77e-4 -0.03125,0 l 0,0 z m 2.03125,18.968751 c -0.615904,-0.06343 -1.224953,0.100268 -1.625,0.5625 3.77e-4,0.01041 3.77e-4,0.02084 0,0.03125 -0.429279,0.446165 -0.675933,1.087768 -0.59375,1.6875 3.77e-4,0.01041 3.77e-4,0.02084 0,0.03125 0.09952,1.303162 1.692621,2.164395 2.84375,1.625 0.01041,-3.77e-4 0.02084,-3.77e-4 0.03125,0 1.12122,-0.423893 1.592908,-2.036611 0.875,-3.03125 -0.01094,-0.0099 -0.02137,-0.02031 -0.03125,-0.03125 -0.329188,-0.517953 -0.889274,-0.8121 -1.5,-0.875 z" font-family="Georgia" font-size="62.458" font-style="normal" font-variant="normal" font-weight="normal" opacity=".3" text-anchor="start" writing-mode="lr-tb"/><path font-stretch="normal" style="text-align:start;line-height:125%" id="path3393" fill="#fff" fill-opacity="1" stroke="none" d="m -30.441273,-9.4533353 c -1.080196,-0.1547498 -2.188854,0.6631442 -2.21875,1.5312494 3.77e-4,0.01041 3.77e-4,0.02084 0,0.03125 -0.0057,0.07077 0.01443,0.167938 0.03125,0.3125 0.0017,0.01433 -0.0017,0.01593 0,0.03125 0.975774,4.6055599 1.308276,9.2275189 2.28125,13.7500009 0.589907,-0.06306 1.506475,-0.183989 2.125,-0.25 -0.134035,-4.462899 -0.540078,-8.896519 -0.59375,-13.4062509 -3.77e-4,-0.01041 -3.77e-4,-0.02084 0,-0.03125 0.08822,-0.87813 -0.502805,-1.8698019 -1.59375,-1.9687494 -0.01041,3.773e-4 -0.02084,3.773e-4 -0.03125,0 l 0,0 z m 2.03125,18.9687503 c -0.615904,-0.06343 -1.224953,0.100268 -1.625,0.5625 3.77e-4,0.01041 3.77e-4,0.02084 0,0.03125 -0.429279,0.446165 -0.675933,1.087768 -0.59375,1.6875 3.77e-4,0.01041 3.77e-4,0.02084 0,0.03125 0.09952,1.303162 1.692621,2.164395 2.84375,1.625 0.01041,-3.77e-4 0.02084,-3.77e-4 0.03125,0 1.12122,-0.423893 1.592908,-2.036611 0.875,-3.03125 -0.01094,-0.0099 -0.02137,-0.02031 -0.03125,-0.03125 -0.329188,-0.517953 -0.889274,-0.8121 -1.5,-0.875 z" font-family="Georgia" font-size="62.458" font-style="normal" font-variant="normal" font-weight="normal" text-anchor="start" writing-mode="lr-tb"/><path id="path3845" fill="url(#radialGradient3844)" fill-opacity="1" fill-rule="evenodd" stroke="none" stroke-width=".995" d="m -26.566273,-13.414914 c -1.455129,-0.0831 -2.940319,-0.04569 -4.46875,0.09375 -0.596884,0.05446 -1.15413,0.07761 -1.6875,0.15625 -5.674895,0.836658 -10.599601,3.2102162 -14,6.40625 -3.400399,3.196034 -5.279056,7.207099 -4.90625,11.34375 0.48279,5.357016 4.631842,9.816271 10.625,12.1875 a 0.45001441,0.45001441 0 0 1 0.28125,0.53125 l -2.25,8.71875 10.28125,-7.4375 a 0.45001441,0.45001441 0 0 1 0.25,-0.0625 l 0.0625,0 a 0.45001441,0.45001441 0 0 1 0.03125,0 c 1.377954,0.06586 2.763531,0.06741 4.1875,-0.0625 6.102208,-0.556732 11.465224,-2.870732 15.1875,-6.125 3.722276,-3.254268 5.79741,-7.440976 5.40625,-11.78125 -0.342237,-3.79745 -2.520149,-7.119634 -5.90625,-9.59375 -3.386101,-2.474116 -7.992077,-4.08365 -13.09375,-4.375 z" display="inline" overflow="visible" visibility="visible" style="marker:none"/></g></svg>