<svg xmlns="http://www.w3.org/2000/svg" xmlns:svg="http://www.w3.org/2000/svg" xmlns:xlink="http://www.w3.org/1999/xlink" id="svg3338" width="16" height="16" version="1.0"><defs id="defs3340"><linearGradient id="linearGradient3533-867"><stop id="stop2752" offset="0" stop-color="#d1b0e6" stop-opacity="1"/><stop id="stop2754" offset="1" stop-color="#b483d5" stop-opacity="1"/></linearGradient><linearGradient id="linearGradient3279" x1="17" x2="16" y1="11" y2="15" gradientTransform="translate(-9.001188,-4)" gradientUnits="userSpaceOnUse" xlink:href="#linearGradient3533-867"/><linearGradient id="linearGradient3266-587"><stop id="stop2764" offset="0" stop-color="#9853c6" stop-opacity="1"/><stop id="stop2766" offset="1" stop-color="#903fc4" stop-opacity="0"/></linearGradient><linearGradient id="linearGradient3311" x1="19" x2="19.999" y1="16.322" y2="15.004" gradientTransform="matrix(-1,0,0,1,23.999249,-3.0039745)" gradientUnits="userSpaceOnUse" xlink:href="#linearGradient3266-587"/><linearGradient id="linearGradient3330"><stop id="stop3332" offset="0" stop-color="#c198dd" stop-opacity="0"/><stop id="stop3336" offset="1" stop-color="#b483d5" stop-opacity="1"/></linearGradient><linearGradient id="linearGradient3309" x1="20.387" x2="19.467" y1="14.776" y2="15.924" gradientTransform="matrix(-1,0,0,1,24.999686,-3.0039745)" gradientUnits="userSpaceOnUse" xlink:href="#linearGradient3330"/></defs><g id="layer1"><path id="path2823" fill="#c49bde" fill-opacity="1" stroke="#9853c6" stroke-dasharray="none" stroke-miterlimit="4" stroke-opacity="1" stroke-width="1.818" d="M 8.9085675,8.5 C 8.9085675,9.001788 8.501788,9.4085675 8,9.4085675 C 7.498212,9.4085675 7.0914325,9.001788 7.0914325,8.5 C 7.0914325,7.998212 7.498212,7.5914325 8,7.5914325 C 8.501788,7.5914325 8.9085675,7.998212 8.9085675,8.5 z" transform="matrix(0.5501356,0,0,0.5501356,3.5992447,5.3235183)"/><path id="path2849" fill="url(#linearGradient3279)" fill-opacity="1" stroke="#9853c6" stroke-dasharray="none" stroke-linecap="butt" stroke-linejoin="round" stroke-miterlimit="4" stroke-opacity="1" stroke-width="1" d="M 8.1082455,12.444637 C 9.9972996,12.396273 11.472748,11.091132 11.499249,9 C 11.525749,6.908868 9.846667,5.4248827 7.499249,5.5 L 7.499249,7.5 L 3.499249,4 C 3.499249,4 7.499249,0.5 7.499249,0.5 L 7.499249,2.5 C 11.435868,2.450702 14.555587,5.0633803 14.499249,9 C 14.442919,12.936217 11.141556,15.689654 8.2743355,15.444637"/><path id="path3605" fill="url(#linearGradient3309)" fill-opacity="1" stroke="url(#linearGradient3311)" stroke-dasharray="none" stroke-linecap="butt" stroke-linejoin="round" stroke-miterlimit="4" stroke-opacity="1" stroke-width="1" d="M 8.1670691,12.444637 C 5.8759901,12.505678 4.52575,11.136453 4.499249,9.4960255 L 1.499249,9.5000255 C 1.499249,13.042279 4.9744914,15.574002 8.3054774,15.468369"/></g></svg>