<svg xmlns="http://www.w3.org/2000/svg" xmlns:svg="http://www.w3.org/2000/svg" xmlns:xlink="http://www.w3.org/1999/xlink" id="svg3328" width="16" height="16" version="1.0"><defs id="defs3330"><linearGradient id="linearGradient3930" x1="8" x2="8" y1="1037.362" y2="1051.362" gradientTransform="matrix(0.8461539,0,0,0.8461527,1.2307693,-875.68989)" gradientUnits="userSpaceOnUse" xlink:href="#linearGradient3195"/><linearGradient id="linearGradient3195"><stop id="stop3197" offset="0" stop-color="#fff" stop-opacity="1"/><stop id="stop3199" offset="1" stop-color="#fff" stop-opacity="0"/></linearGradient><linearGradient id="linearGradient3201" x1="8" x2="8" y1="1052.362" y2="1039.672" gradientUnits="userSpaceOnUse" xlink:href="#linearGradient3195"/><linearGradient id="linearGradient3390"><stop id="stop3392" offset="0" stop-color="#425e7b" stop-opacity="1"/><stop id="stop3394" offset="1" stop-color="#7a91a7" stop-opacity="1"/></linearGradient><linearGradient id="linearGradient3312" x1="11.375" x2="11.375" y1="1051.449" y2="1037.362" gradientUnits="userSpaceOnUse" xlink:href="#linearGradient3390"/><linearGradient id="linearGradient7012-661-145-733-759-865-745"><stop id="stop2699" offset="0" stop-color="#9cbbd9" stop-opacity="1"/><stop id="stop2701" offset="1" stop-color="#5c82ab" stop-opacity="1"/></linearGradient><linearGradient id="linearGradient3320" x1="5.682" x2="5.682" y1="1038.588" y2="1050.293" gradientUnits="userSpaceOnUse" xlink:href="#linearGradient7012-661-145-733-759-865-745"/></defs><g id="layer1"><rect id="rect3180" width="15" height="15" x=".5" y="1036.862" fill="none" fill-opacity="1" stroke="url(#linearGradient3201)" stroke-dasharray="none" stroke-miterlimit="4" stroke-opacity="1" stroke-width="1" opacity=".3" rx="3.021" ry="3.021" transform="translate(0,-1036.3622)"/><rect id="rect7169" width="13" height="13" x="1.5" y="1037.862" fill="url(#linearGradient3320)" fill-opacity="1" stroke="url(#linearGradient3312)" stroke-dasharray="none" stroke-miterlimit="4" stroke-opacity="1" stroke-width="1" rx="2" ry="2" transform="translate(0,-1036.3622)"/><path id="path3326" fill="#fff" fill-opacity="1" fill-rule="evenodd" stroke="none" stroke-linecap="butt" stroke-linejoin="miter" stroke-opacity="1" stroke-width="1" d="M 4,8 L 2,10 L 7,14 C 7,14 8,11 14,4 C 13,3 14,4 13,3 C 8.5587517,8 7,11 7,11 L 4,8 z"/><rect id="rect3419" width="11" height="11" x="2.5" y="2.5" fill="none" fill-opacity="1" stroke="url(#linearGradient3930)" stroke-dasharray="none" stroke-miterlimit="4" stroke-opacity="1" stroke-width="1" opacity=".3" rx="1.036" ry="1.036"/></g></svg>