<svg xmlns="http://www.w3.org/2000/svg" xmlns:svg="http://www.w3.org/2000/svg" xmlns:xlink="http://www.w3.org/1999/xlink" id="svg2" width="16" height="16" version="1.0"><defs id="defs4"><linearGradient id="linearGradient3195"><stop id="stop3197" offset="0" stop-color="#fff" stop-opacity="1"/><stop id="stop3199" offset="1" stop-color="#fff" stop-opacity="0"/></linearGradient><linearGradient id="linearGradient3172"><stop id="stop3174" offset="0" stop-color="#6e6e6e" stop-opacity="1"/><stop id="stop3176" offset="1" stop-color="gray" stop-opacity="1"/></linearGradient><linearGradient id="linearGradient3164"><stop id="stop3166" offset="0" stop-color="#000" stop-opacity="1"/><stop id="stop3168" offset="1" stop-color="#000" stop-opacity="0"/></linearGradient><linearGradient id="linearGradient3170" x1="7.205" x2="7.205" y1="1038.362" y2="1050.362" gradientUnits="userSpaceOnUse" xlink:href="#linearGradient3164"/><linearGradient id="linearGradient3178" x1="7.786" x2="7.786" y1="1037.362" y2="1051.367" gradientUnits="userSpaceOnUse" xlink:href="#linearGradient3172"/><linearGradient id="linearGradient3201" x1="8" x2="8" y1="1052.362" y2="1039.672" gradientUnits="userSpaceOnUse" xlink:href="#linearGradient3195"/></defs><g id="layer1" transform="translate(0,-1036.3622)"><rect id="rect7169" width="13" height="13" x="1.5" y="1037.862" fill="#fff" fill-opacity="1" stroke="url(#linearGradient3178)" stroke-dasharray="none" stroke-miterlimit="4" stroke-opacity="1" stroke-width="1" rx="2" ry="2"/><rect id="rect2392" width="11" height="11" x="2.5" y="1038.862" fill="none" fill-opacity="1" stroke="url(#linearGradient3170)" stroke-dasharray="none" stroke-miterlimit="4" stroke-opacity="1" stroke-width="1" opacity=".2" rx=".981" ry=".981"/><rect id="rect3180" width="15" height="15" x=".5" y="1036.862" fill="none" fill-opacity="1" stroke="url(#linearGradient3201)" stroke-dasharray="none" stroke-miterlimit="4" stroke-opacity="1" stroke-width="1" opacity=".3" rx="3.021" ry="3.021"/><path id="path1307" fill="#000" fill-opacity="1" fill-rule="nonzero" stroke="none" stroke-dasharray="none" stroke-dashoffset="0" stroke-linecap="butt" stroke-linejoin="round" stroke-miterlimit="4" stroke-opacity="1" stroke-width="1" d="M 7.9998022,1039.8622 C 8.2945682,1040.0511 8.4074012,1040.4449 8.5841002,1040.7435 C 8.8914342,1041.3438 9.1342522,1041.9814 9.4820942,1042.5581 C 9.7832122,1042.7902 10.207327,1042.7495 10.56471,1042.8361 C 11.188315,1042.9463 11.835018,1042.9809 12.43154,1043.2131 C 12.685831,1043.4658 12.159331,1043.7895 12.029096,1044.01 C 11.540889,1044.5536 10.984897,1045.0302 10.526013,1045.602 C 10.407907,1045.973 10.575963,1046.382 10.607573,1046.764 C 10.700043,1047.4179 10.868419,1048.0714 10.841388,1048.7361 C 10.690018,1049.0669 10.232809,1048.6436 9.9919272,1048.5823 C 9.3463822,1048.265 8.7408642,1047.8596 8.0787922,1047.5802 C 7.7046852,1047.5774 7.3844362,1047.8709 7.0465862,1048.0204 C 6.4801342,1048.3143 5.9374892,1048.6836 5.3242612,1048.8622 C 4.9764172,1048.814 5.1677192,1048.281 5.2017062,1047.9703 C 5.2909462,1047.2306 5.4727072,1046.5034 5.5224092,1045.759 C 5.4092992,1045.3863 5.0433152,1045.1586 4.8029062,1044.869 C 4.3603462,1044.3968 3.8566022,1043.9715 3.5046372,1043.4172 C 3.4410272,1043.0565 4.0489962,1043.1181 4.2783572,1043.0197 C 4.9790562,1042.8799 5.6969092,1042.8358 6.3896972,1042.6552 C 6.6938992,1042.4276 6.7879582,1041.9934 6.9772282,1041.665 C 7.2701612,1041.0792 7.5014752,1040.447 7.8971772,1039.9259 C 7.9258872,1039.8982 7.9578372,1039.8644 7.9998032,1039.8622 L 7.9998022,1039.8622 z" display="inline" opacity=".4" overflow="visible" visibility="visible" style="marker:none"/></g></svg>