<svg xmlns="http://www.w3.org/2000/svg" xmlns:svg="http://www.w3.org/2000/svg" xmlns:xlink="http://www.w3.org/1999/xlink" id="svg3992" width="128" height="128" version="1.0"><defs id="defs3994"><linearGradient id="linearGradient5060-820"><stop id="stop2681" offset="0" stop-color="#000" stop-opacity="1"/><stop id="stop2683" offset="1" stop-color="#000" stop-opacity="0"/></linearGradient><radialGradient id="radialGradient2488" cx="605.714" cy="486.648" r="117.143" fx="605.714" fy="486.648" gradientTransform="matrix(-8.2775052e-2,0,0,6.6416887e-2,62.347829,75.518568)" gradientUnits="userSpaceOnUse" xlink:href="#linearGradient5060-820"/><linearGradient id="linearGradient5060-179"><stop id="stop2675" offset="0" stop-color="#000" stop-opacity="1"/><stop id="stop2677" offset="1" stop-color="#000" stop-opacity="0"/></linearGradient><radialGradient id="radialGradient2486" cx="605.714" cy="486.648" r="117.143" fx="605.714" fy="486.648" gradientTransform="matrix(8.2775071e-2,0,0,6.6416887e-2,65.628912,75.518568)" gradientUnits="userSpaceOnUse" xlink:href="#linearGradient5060-179"/><linearGradient id="linearGradient5048-585"><stop id="stop2667" offset="0" stop-color="#000" stop-opacity="0"/><stop id="stop2669" offset=".5" stop-color="#000" stop-opacity="1"/><stop id="stop2671" offset="1" stop-color="#000" stop-opacity="0"/></linearGradient><linearGradient id="linearGradient2484" x1="302.857" x2="302.857" y1="366.648" y2="609.505" gradientTransform="matrix(0.2134205,0,0,6.6416887e-2,-13.147881,75.518568)" gradientUnits="userSpaceOnUse" xlink:href="#linearGradient5048-585"/><linearGradient id="linearGradient3484"><stop id="stop3486" offset="0" stop-color="#bdbdbd" stop-opacity="1"/><stop id="stop3488" offset="1" stop-color="#d0d0d0" stop-opacity="1"/></linearGradient><radialGradient id="radialGradient3982" cx="3" cy="5.017" r="21" fx="3" fy="5.017" gradientTransform="matrix(0,4.5810288,-7.2733208,0,40.564727,8.4207689)" gradientUnits="userSpaceOnUse" xlink:href="#linearGradient3484"/><linearGradient id="linearGradient6404"><stop id="stop6406" offset="0" stop-color="#f9f9f9" stop-opacity="1"/><stop id="stop6408" offset="1" stop-color="#c9c9c9" stop-opacity="1"/></linearGradient><linearGradient id="linearGradient3980" x1="62.989" x2="62.989" y1="12.725" y2="17.325" gradientTransform="matrix(2.7209303,0,0,2.6722576,-139.90895,0.7861261)" gradientUnits="userSpaceOnUse" xlink:href="#linearGradient6404"/><linearGradient id="linearGradient3390"><stop id="stop3392" offset="0" stop-color="#425e7b" stop-opacity="1"/><stop id="stop3394" offset="1" stop-color="#7a91a7" stop-opacity="1"/></linearGradient><linearGradient id="linearGradient3977" x1="82.453" x2="82.453" y1="45.114" y2="7.633" gradientTransform="matrix(2.6658408,0,0,2.6469079,-143.33284,0.950492)" gradientUnits="userSpaceOnUse" xlink:href="#linearGradient3390"/><linearGradient id="linearGradient7012-661-145-733-759-865-745"><stop id="stop2699" offset="0" stop-color="#9cbbd9" stop-opacity="1"/><stop id="stop2701" offset="1" stop-color="#5c82ab" stop-opacity="1"/></linearGradient><radialGradient id="radialGradient3975" cx="63.969" cy="14.113" r="23.097" fx="63.969" fy="14.113" gradientTransform="matrix(4.1712212,-2.5183476e-7,1.6467508e-7,2.688962,-229.83186,22.814774)" gradientUnits="userSpaceOnUse" xlink:href="#linearGradient7012-661-145-733-759-865-745"/><linearGradient id="linearGradient6129-963-697-142-998-580-273"><stop id="stop2661" offset="0" stop-color="#0a0a0a" stop-opacity=".498"/><stop id="stop2663" offset="1" stop-color="#0a0a0a" stop-opacity="0"/></linearGradient><linearGradient id="linearGradient3972" x1="22.935" x2="22.935" y1="49.629" y2="36.599" gradientTransform="matrix(3.036796,0,0,2.6219687,-8.8831095,4.6704719)" gradientUnits="userSpaceOnUse" xlink:href="#linearGradient6129-963-697-142-998-580-273"/><linearGradient id="linearGradient6087-437-184-795-110-662-495"><stop id="stop2693" offset="0" stop-color="#fff" stop-opacity=".4"/><stop id="stop2695" offset="1" stop-color="#fff" stop-opacity="0"/></linearGradient><radialGradient id="radialGradient3969" cx="32.264" cy="14.299" r="61" fx="32.264" fy="14.299" gradientTransform="matrix(0,1.1019148,-1.5096234,0,53.85015,9.2569441)" gradientUnits="userSpaceOnUse" xlink:href="#linearGradient6087-437-184-795-110-662-495"/><linearGradient id="linearGradient8265-821-176-38-919-66-249"><stop id="stop2687" offset="0" stop-color="#fff" stop-opacity=".2"/><stop id="stop2689" offset="1" stop-color="#fff" stop-opacity="0"/></linearGradient><linearGradient id="linearGradient3966" x1="11.566" x2="15.215" y1="22.292" y2="33.955" gradientTransform="matrix(2.6482074,0,0,2.640269,0.4315584,1.7937658)" gradientUnits="userSpaceOnUse" xlink:href="#linearGradient8265-821-176-38-919-66-249"/><linearGradient id="linearGradient5048"><stop id="stop5050" offset="0" stop-color="#000" stop-opacity="0"/><stop id="stop5056" offset=".5" stop-color="#000" stop-opacity="1"/><stop id="stop5052" offset="1" stop-color="#000" stop-opacity="0"/></linearGradient><linearGradient id="linearGradient3963" x1="3.78" x2="3.78" y1="106.373" y2="99.721" gradientTransform="matrix(8.4231912,0,0,0.8128326,48.45705,40.536578)" gradientUnits="userSpaceOnUse" xlink:href="#linearGradient5048"/><radialGradient id="radialGradient3960" cx="605.714" cy="486.648" r="117.143" fx="605.714" fy="486.648" gradientTransform="matrix(-4.0161947e-2,0,0,2.2251613e-2,85.204018,113.43758)" gradientUnits="userSpaceOnUse" xlink:href="#linearGradient5060"/><linearGradient id="linearGradient5060"><stop id="stop5062" offset="0" stop-color="#000" stop-opacity="1"/><stop id="stop5064" offset="1" stop-color="#000" stop-opacity="0"/></linearGradient><radialGradient id="radialGradient3957" cx="605.714" cy="486.648" r="117.143" fx="605.714" fy="486.648" gradientTransform="matrix(4.0161882e-2,0,0,2.2251613e-2,92.79603,113.43758)" gradientUnits="userSpaceOnUse" xlink:href="#linearGradient5060"/><linearGradient id="linearGradient3104"><stop id="stop3106" offset="0" stop-color="#9a9a9a" stop-opacity="1"/><stop id="stop3108" offset="1" stop-color="#afafaf" stop-opacity="1"/></linearGradient><linearGradient id="linearGradient3954" x1="-51.786" x2="-51.786" y1="50.786" y2="2.906" gradientTransform="matrix(1.4230819,0,0,1.5943797,150.06385,39.895919)" gradientUnits="userSpaceOnUse" xlink:href="#linearGradient3104"/><linearGradient id="linearGradient3600"><stop id="stop3602" offset="0" stop-color="#f4f4f4" stop-opacity="1"/><stop id="stop3604" offset="1" stop-color="#dbdbdb" stop-opacity="1"/></linearGradient><linearGradient id="linearGradient3952" x1="25.132" x2="25.132" y1=".985" y2="47.013" gradientTransform="matrix(1.7623379,0,0,1.7036682,45.362951,41.794622)" gradientUnits="userSpaceOnUse" xlink:href="#linearGradient3600"/><radialGradient id="XMLID_8_" cx="102" cy="112.305" r="139.559" gradientUnits="userSpaceOnUse"><stop id="stop41" offset="0" stop-color="#b7b8b9" stop-opacity="1"/><stop id="stop47" offset=".189" stop-color="#ececec" stop-opacity="1"/><stop id="stop49" offset=".257" stop-color="#fafafa" stop-opacity="0"/><stop id="stop51" offset=".301" stop-color="#fff" stop-opacity="0"/><stop id="stop53" offset=".531" stop-color="#fafafa" stop-opacity="0"/><stop id="stop55" offset=".845" stop-color="#ebecec" stop-opacity="0"/><stop id="stop57" offset="1" stop-color="#e1e2e3" stop-opacity="0"/></radialGradient><radialGradient id="radialGradient3949" cx="102" cy="112.305" r="139.559" gradientTransform="matrix(0.6358481,0,0,-0.6969257,47.420881,135.00913)" gradientUnits="userSpaceOnUse" xlink:href="#XMLID_8_"/><linearGradient id="linearGradient3211"><stop id="stop3213" offset="0" stop-color="#fff" stop-opacity="1"/><stop id="stop3215" offset="1" stop-color="#fff" stop-opacity="0"/></linearGradient><linearGradient id="linearGradient3946" x1="-47.452" x2="-47.452" y1="6.965" y2="53.412" gradientTransform="matrix(1.3748418,0,0,1.5506982,147.99389,41.213839)" gradientUnits="userSpaceOnUse" xlink:href="#linearGradient3211"/><linearGradient id="linearGradient22140"><stop id="stop22142" offset="0" stop-color="#000" stop-opacity="0"/><stop id="stop22148" offset=".5" stop-color="#000" stop-opacity="1"/><stop id="stop22144" offset="1" stop-color="#000" stop-opacity="0"/></linearGradient><linearGradient id="linearGradient3069" x1="18.142" x2="18.142" y1="35" y2="42.041" gradientUnits="userSpaceOnUse" xlink:href="#linearGradient22140"/><radialGradient id="radialGradient3067" cx="7" cy="39.465" r="3.5" fx="7" fy="39.465" gradientTransform="matrix(0,-1.000001,1.142856,0,-89.10259,-31.49999)" gradientUnits="userSpaceOnUse" xlink:href="#linearGradient22122"/><linearGradient id="linearGradient22122"><stop id="stop22124" offset="0" stop-color="#000" stop-opacity="1"/><stop id="stop22126" offset="1" stop-color="#000" stop-opacity="0"/></linearGradient><radialGradient id="radialGradient3065" cx="7" cy="39.465" r="3.5" fx="7" fy="39.465" gradientTransform="matrix(0,-1.000001,1.142856,0,-41.10259,45.50001)" gradientUnits="userSpaceOnUse" xlink:href="#linearGradient22122"/><linearGradient id="linearGradient3412"><stop id="stop3414" offset="0" stop-color="#f0f0f1" stop-opacity="1"/><stop id="stop3416" offset="1" stop-color="#cbcdd9" stop-opacity="1"/></linearGradient><linearGradient id="linearGradient3005" x1="30.739" x2="45.903" y1="35.285" y2="50.736" gradientTransform="matrix(0,2.7038931,2.6535314,0,-36.630687,2.8839515)" gradientUnits="userSpaceOnUse" xlink:href="#linearGradient3412"/><linearGradient id="linearGradient6240"><stop id="stop6242" offset="0" stop-color="#fff" stop-opacity="1"/><stop id="stop6244" offset="1" stop-color="#fff" stop-opacity="0"/></linearGradient><linearGradient id="linearGradient3939" x1="75.78" x2="75.78" y1="86" y2="127.036" gradientUnits="userSpaceOnUse" xlink:href="#linearGradient6240"/><filter id="filter3212" width="1.297" height="1.329" x="-.148" y="-.164"><feGaussianBlur id="feGaussianBlur3214" stdDeviation=".774"/></filter><linearGradient id="linearGradient8589"><stop id="stop8591" offset="0" stop-color="#fefefe" stop-opacity="1"/><stop id="stop8593" offset="1" stop-color="#cbcbcb" stop-opacity="1"/></linearGradient><linearGradient id="linearGradient3942" x1="32.892" x2="36.358" y1="8.059" y2="5.457" gradientTransform="matrix(1.7309538,0,0,1.7664914,46.90035,48.559223)" gradientUnits="userSpaceOnUse" xlink:href="#linearGradient8589"/></defs><g id="layer1"><g id="g2479" transform="matrix(1.0027339,0,0,0.9919518,-0.1633104,9.9335969)"><rect id="rect4173" width="103.052" height="16.13" x="12.463" y="99.87" fill="url(#linearGradient2484)" fill-opacity="1" fill-rule="nonzero" stroke="none" stroke-dasharray="none" stroke-dashoffset="0" stroke-linecap="round" stroke-linejoin="miter" stroke-miterlimit="4" stroke-opacity="1" stroke-width="1" marker-end="none" marker-mid="none" marker-start="none" display="inline" opacity=".3" overflow="visible" visibility="visible" style="marker:none"/><path id="path5058" fill="url(#radialGradient2486)" fill-opacity="1" fill-rule="nonzero" stroke="none" stroke-dasharray="none" stroke-dashoffset="0" stroke-linecap="round" stroke-linejoin="miter" stroke-miterlimit="4" stroke-opacity="1" stroke-width="1" marker-end="none" marker-mid="none" marker-start="none" d="M 115.51417,99.870734 C 115.51417,99.870734 115.51417,115.99966 115.51417,115.99966 C 119.77688,116.03002 125.81933,112.38599 125.81933,107.93416 C 125.81933,103.48233 121.06246,99.870734 115.51417,99.870734 z" display="inline" opacity=".3" overflow="visible" visibility="visible" style="marker:none"/><path id="path5018" fill="url(#radialGradient2488)" fill-opacity="1" fill-rule="nonzero" stroke="none" stroke-dasharray="none" stroke-dashoffset="0" stroke-linecap="round" stroke-linejoin="miter" stroke-miterlimit="4" stroke-opacity="1" stroke-width="1" marker-end="none" marker-mid="none" marker-start="none" d="M 12.462574,99.870734 C 12.462574,99.870734 12.462574,115.99966 12.462574,115.99966 C 8.1998627,116.03002 2.1574152,112.38599 2.1574152,107.93416 C 2.1574152,103.48233 6.9142788,99.870734 12.462574,99.870734 z" display="inline" opacity=".3" overflow="visible" visibility="visible" style="marker:none"/></g><path id="path3468" fill="url(#linearGradient3980)" fill-opacity="1" stroke="url(#radialGradient3982)" stroke-dasharray="none" stroke-linecap="round" stroke-linejoin="round" stroke-miterlimit="4" stroke-opacity="1" stroke-width="1" d="M 13.662787,23.500315 C 11.784608,23.520815 10.500001,24.414617 10.500001,26.172572 L 10.500001,31.5 C 9.5393972,31.5 9.0229003,31.496869 8.3955999,31.5 C 6.7170422,31.50838 5.517981,32.444908 5.517981,34.332981 C 5.6116109,61.830632 5.4999992,63.254919 5.4999992,65.589523 C 9.4058145,65.589523 122.5,55.702886 122.5,51.44723 L 122.5,34.305133 C 122.5,32.547181 121.34214,31.479501 119.46395,31.5 L 57.500001,31.5 L 57.500001,26.30113 C 57.500001,24.543175 56.312566,23.500315 54.551734,23.500315 L 13.662787,23.500315 z" display="inline"/><path id="path3369" fill="url(#radialGradient3975)" fill-opacity="1" fill-rule="nonzero" stroke="url(#linearGradient3977)" stroke-dasharray="none" stroke-dashoffset="0" stroke-linecap="round" stroke-linejoin="round" stroke-miterlimit="4" stroke-opacity="1" stroke-width="1" marker-end="none" marker-mid="none" marker-start="none" d="M 6.2500001,44.499996 L 121.74999,44.501042 C 123.4186,44.501042 124.5,45.654048 124.5,47.087508 L 121.78352,117.00371 C 121.8221,118.81745 121.23337,119.5366 119.29468,119.49857 L 9.3616428,119.453 C 7.6930472,119.453 6.0104813,118.3826 6.0104813,116.94913 L 3.5,47.087466 C 3.5,45.654004 4.5814044,44.499996 6.2500001,44.499996 z" display="inline" enable-background="accumulate" overflow="visible" visibility="visible" style="marker:none"/><path id="path6127" fill="url(#linearGradient3972)" fill-opacity="1" stroke="none" stroke-dashoffset="0" stroke-linecap="round" stroke-linejoin="round" stroke-miterlimit="4" stroke-opacity="1" stroke-width="1" d="M 5.7727205,44.000001 L 122.22726,44.001061 C 123.90966,44.001061 125,45.169441 125,46.622013 L 122.26107,117.47043 C 122.29997,119.30835 121.70637,120.03709 119.75166,119.99855 L 8.9100805,119.95238 C 7.2277005,119.95238 5.5312305,118.8677 5.5312305,117.41512 L 3.0000005,46.621971 C 3.0000005,45.169396 4.0903405,44.000001 5.7727205,44.000001 z" opacity=".4"/><path id="path3405" fill="none" fill-opacity="1" fill-rule="nonzero" stroke="url(#radialGradient3969)" stroke-dasharray="none" stroke-dashoffset="0" stroke-linecap="round" stroke-linejoin="round" stroke-miterlimit="4" stroke-opacity="1" stroke-width="1" marker-end="none" marker-mid="none" marker-start="none" d="M 6.2683292,45.561614 C 3.7990813,45.450369 4.6063039,48.830958 4.7006757,51.348383 C 5.4832994,73.221841 6.2689057,95.095245 7.0496654,116.96874 C 74.055045,147.22182 142.28903,45.561614 117.55369,45.561614 C 80.458574,45.561614 43.363451,45.561614 6.2683292,45.561614 z" display="inline" enable-background="accumulate" overflow="visible" visibility="visible" style="marker:none"/><path id="path3445" fill="url(#linearGradient3966)" fill-opacity="1" fill-rule="nonzero" stroke="none" stroke-dasharray="none" stroke-dashoffset="0" stroke-linecap="round" stroke-linejoin="round" stroke-miterlimit="4" stroke-opacity="1" stroke-width="1" marker-end="none" marker-mid="none" marker-start="none" d="M 6.2797886,44.000001 C 4.3672309,44.000001 3.000231,45.424461 3.000231,47.122081 C 2.9999231,47.132485 2.9999231,47.142897 3.000231,47.153301 L 4.4057557,86.491509 C 4.4114183,86.644976 4.4836516,86.788373 4.6036209,86.884308 C 4.7235902,86.980243 4.8794038,87.019208 5.0304333,86.991042 L 123.75042,68.321004 C 123.99576,68.278356 124.17797,68.070202 124.18769,67.821471 L 124.99977,47.153301 C 125.00008,47.142897 125.00008,47.132485 124.99977,47.122081 C 124.99977,45.424467 123.63279,44.000002 121.72021,44.000001 L 6.2797886,44.000001 z" display="inline" enable-background="accumulate" overflow="visible" visibility="visible" style="marker:none"/><rect id="rect2879" width="56" height="5.404" x="61" y="121.596" fill="url(#linearGradient3963)" fill-opacity="1" fill-rule="nonzero" stroke="none" stroke-dasharray="none" stroke-dashoffset="0" stroke-linecap="round" stroke-linejoin="miter" stroke-miterlimit="4" stroke-opacity="1" stroke-width="1" marker-end="none" marker-mid="none" marker-start="none" display="inline" opacity=".15" overflow="visible" visibility="visible" style="marker:none"/><path id="path2881" fill="url(#radialGradient3960)" fill-opacity="1" fill-rule="nonzero" stroke="none" stroke-dasharray="none" stroke-dashoffset="0" stroke-linecap="round" stroke-linejoin="miter" stroke-miterlimit="4" stroke-opacity="1" stroke-width="1" marker-end="none" marker-mid="none" marker-start="none" d="M 61,121.59627 C 61,121.59627 61,126.99994 61,126.99994 C 58.931758,127.01011 56,125.78925 56,124.29775 C 56,122.80626 58.308,121.59627 61,121.59627 z" display="inline" opacity=".15" overflow="visible" visibility="visible" style="marker:none"/><path id="path2883" fill="url(#radialGradient3957)" fill-opacity="1" fill-rule="nonzero" stroke="none" stroke-dasharray="none" stroke-dashoffset="0" stroke-linecap="round" stroke-linejoin="miter" stroke-miterlimit="4" stroke-opacity="1" stroke-width="1" marker-end="none" marker-mid="none" marker-start="none" d="M 117,121.59627 C 117,121.59627 117,126.99994 117,126.99994 C 119.06825,127.01011 122,125.78925 122,124.29775 C 122,122.80626 119.692,121.59627 117,121.59627 z" display="inline" opacity=".15" overflow="visible" visibility="visible" style="marker:none"/><path id="path4160" fill="url(#linearGradient3952)" fill-opacity="1" stroke="url(#linearGradient3954)" stroke-dasharray="none" stroke-dashoffset="0" stroke-linecap="butt" stroke-linejoin="round" stroke-miterlimit="4" stroke-opacity="1" stroke-width="1" d="M 59.499964,51.499962 C 59.499964,51.499962 99.221493,51.499962 99.221493,51.499962 C 101.70098,52.34568 115.02165,61.980968 118.50004,68.652252 C 118.50004,68.652252 118.50004,124.50004 118.50004,124.50004 C 118.50004,124.50004 59.499964,124.50004 59.499964,124.50004 C 59.499964,124.50004 59.499964,51.499962 59.499964,51.499962 z" display="inline"/><path id="path4191" fill="url(#radialGradient3949)" fill-opacity="1" d="M 99.737514,52.122956 L 117.81371,68.708437 C 117.81371,124.02946 58.13985,52.122956 99.737514,52.122956 z"/><path id="path2877" fill="none" fill-opacity="1" stroke="url(#linearGradient3946)" stroke-dasharray="none" stroke-dashoffset="0" stroke-linecap="butt" stroke-linejoin="round" stroke-miterlimit="4" stroke-opacity="1" stroke-width="1" d="M 117.50004,69.18233 C 117.50004,69.18233 117.50004,123.50004 117.50004,123.50004 C 117.50004,123.50004 60.499959,123.50004 60.499959,123.50004 C 60.499959,123.50004 60.499959,52.499964 60.499959,52.499964 C 60.499959,52.499964 98.378635,52.499964 98.378635,52.499964" display="inline" opacity=".6"/><path id="path2759" fill="none" stroke="#9a9eac" stroke-linecap="butt" stroke-linejoin="miter" stroke-opacity="1" stroke-width="1" d="M 107.5,62.497074 L 107.5,119.49697" opacity=".8"/><path id="path2777" fill="none" stroke="#9a9eac" stroke-linecap="butt" stroke-linejoin="miter" stroke-opacity="1" stroke-width="1" d="M 112.49906,70.5 L 64.500949,70.5" opacity=".8"/><path id="path2763" fill="none" stroke="#9a9eac" stroke-linecap="butt" stroke-linejoin="miter" stroke-opacity="1" stroke-width="1" d="M 69.5,62.733021 L 69.5,119.38953" opacity=".8"/><path id="path2765" fill="none" stroke="#9a9eac" stroke-linecap="butt" stroke-linejoin="miter" stroke-opacity="1" stroke-width="1" d="M 112.57341,114.5 L 61.920167,114.5" opacity=".8"/><text id="text2767" x="74.659" y="106.012" fill="#9a9eac" fill-opacity="1" stroke="none" font-family="Bitstream Vera Sans" font-size="47.323" font-style="normal" font-weight="normal" opacity=".8" transform="scale(1.0064392,0.993602)" xml:space="preserve"><tspan id="tspan2769" x="74.659" y="106.012">a</tspan></text><g id="g22150" opacity=".3" transform="matrix(0.916667,0,0,0.714282,55,98.000156)"><rect id="rect22120" width="4" height="7" x="0" y="35" fill="url(#radialGradient3065)" fill-opacity="1" stroke="none" stroke-dasharray="none" stroke-dashoffset="1.2" stroke-linecap="square" stroke-linejoin="miter" stroke-miterlimit="10" stroke-opacity="1" stroke-width="3" opacity="1"/><rect id="rect22134" width="4" height="7" x="-48" y="-42" fill="url(#radialGradient3067)" fill-opacity="1" stroke="none" stroke-dasharray="none" stroke-dashoffset="1.2" stroke-linecap="square" stroke-linejoin="miter" stroke-miterlimit="10" stroke-opacity="1" stroke-width="3" opacity="1" transform="scale(-1,-1)"/><rect id="rect22138" width="40" height="7" x="4" y="35" fill="url(#linearGradient3069)" fill-opacity="1" stroke="none" stroke-dasharray="none" stroke-dashoffset="1.2" stroke-linecap="square" stroke-linejoin="miter" stroke-miterlimit="10" stroke-opacity="1" stroke-width="3" opacity="1"/></g><path id="path2993" fill="url(#linearGradient3005)" fill-opacity="1" fill-rule="evenodd" stroke="#83899a" stroke-dasharray="none" stroke-dashoffset="0" stroke-linecap="butt" stroke-linejoin="miter" stroke-miterlimit="4" stroke-opacity="1" stroke-width="1" marker-end="none" marker-mid="none" marker-start="none" d="M 57.499998,86.499999 L 97.499997,126.5 L 57.499998,126.5 L 57.499998,86.499999 z M 65.499994,105.16666 L 65.499994,118.50001 L 79,118.50001 L 65.499994,105.16666 z" display="inline" enable-background="accumulate" opacity=".8" overflow="visible" visibility="visible" style="marker:none"/><path id="path3101" fill="none" fill-opacity=".75" fill-rule="evenodd" stroke="#fff" stroke-linecap="round" stroke-linejoin="miter" stroke-opacity="1" stroke-width="1" d="M 62.5,125.5 L 62.5,124.5" opacity=".3"/><path id="path3103" fill="none" fill-opacity=".75" fill-rule="evenodd" stroke="#fff" stroke-linecap="round" stroke-linejoin="miter" stroke-opacity="1" stroke-width="1" d="M 68.5,125.5 L 68.5,124.5" opacity=".3"/><path id="path3105" fill="none" fill-opacity=".75" fill-rule="evenodd" stroke="#fff" stroke-linecap="round" stroke-linejoin="miter" stroke-opacity="1" stroke-width="1" d="M 74.5,125.5 L 74.5,124.5119" opacity=".3"/><path id="path3107" fill="none" fill-opacity=".75" fill-rule="evenodd" stroke="#fff" stroke-linecap="round" stroke-linejoin="miter" stroke-opacity="1" stroke-width="1" d="M 80.5,125.5 L 80.5,124.5" opacity=".3"/><path id="path3109" fill="none" fill-opacity=".75" fill-rule="evenodd" stroke="#fff" stroke-linecap="round" stroke-linejoin="miter" stroke-opacity="1" stroke-width="1" d="M 86.5,125.5 L 86.5,124.5" opacity=".3"/><path id="path3091" fill="none" fill-opacity=".75" fill-rule="evenodd" stroke="#83899a" stroke-linecap="round" stroke-linejoin="miter" stroke-opacity="1" stroke-width="1" d="M 63.5,126.5 L 63.5,124.5 M 69.5,126.5 L 69.5,124.5 M 75.5,126.5 L 75.5,124.52381 M 81.5,126.5 L 81.5,124.5 M 87.5,126.5 L 87.5,124.5" opacity=".75"/><path id="path3934" fill="none" fill-opacity="1" fill-rule="evenodd" stroke="url(#linearGradient3939)" stroke-dasharray="none" stroke-dashoffset="0" stroke-linecap="butt" stroke-linejoin="miter" stroke-miterlimit="4" stroke-opacity="1" stroke-width="1" marker-end="none" marker-mid="none" marker-start="none" d="M 58.5,88.9375 C 58.5,88.9375 58.5,125.5 58.5,125.5 C 58.5,125.5 95.0625,125.5 95.0625,125.5 C 95.0625,125.5 58.5,88.9375 58.5,88.9375 z M 64.5,102.5 C 64.5,102.5 81.5,119.5 81.5,119.5 C 81.5,119.5 64.5,119.5 64.5,119.5 C 64.5,119.5 64.5,102.5 64.5,102.5 z" display="inline" enable-background="accumulate" opacity=".5" overflow="visible" visibility="visible" style="marker:none"/><path id="path2575" fill="#000" fill-opacity="1" fill-rule="evenodd" stroke="none" stroke-linecap="butt" stroke-linejoin="miter" stroke-opacity="1" stroke-width="1" d="M 28.789796,0.41258267 C 33.072318,0.41258267 30.770506,9.4044296 30.770506,9.4044296 C 30.770506,9.4044296 41.635745,7.1376479 41.635745,11.758739 C 41.635745,9.1490157 29.998384,0.98590275 28.789796,0.41258267 z" display="inline" filter="url(#filter3212)" opacity=".4" transform="matrix(1.7126022,0,0,1.6745759,46.694532,51.309099)"/><path id="path4474" fill="url(#linearGradient3942)" fill-opacity="1" fill-rule="evenodd" stroke="none" stroke-linecap="butt" stroke-linejoin="miter" stroke-opacity="1" stroke-width="1" d="M 96.265569,51.999999 C 101,51.999999 100,65 100,65 C 100,65 118,63.340227 118,71.184198 C 118,71.184198 118,68.817331 118,68.817331 C 115.54626,63.627805 103.17342,53.408733 98.902366,52.148583 C 98.582754,52.054285 97.874055,51.999999 96.265569,51.999999 z" display="inline"/></g></svg>