<svg xmlns="http://www.w3.org/2000/svg" xmlns:svg="http://www.w3.org/2000/svg" xmlns:xlink="http://www.w3.org/1999/xlink" id="svg3154" width="24" height="24" version="1.0"><defs id="defs3156"><linearGradient id="linearGradient3587"><stop id="stop3589" offset="0" stop-color="#000" stop-opacity="1"/><stop id="stop3591" offset="1" stop-color="#363636" stop-opacity="1"/></linearGradient><linearGradient id="linearGradient3593" x1="12" x2="12" y1="3" y2="21" gradientUnits="userSpaceOnUse" xlink:href="#linearGradient3587"/></defs><metadata id="metadata3159"/><g id="layer1"><path id="path3205" fill="none" fill-opacity="1" fill-rule="nonzero" stroke="#fff" stroke-dasharray="none" stroke-dashoffset="0" stroke-linecap="butt" stroke-linejoin="miter" stroke-miterlimit="4" stroke-opacity="1" stroke-width="2" marker-end="none" marker-mid="none" marker-start="none" d="M 20,15.733552 C 18.900407,18.799135 15.708188,20.989585 12.364443,20.997629 C 9.0541807,21.079722 5.8255216,19.022557 4.6164005,16.026048 C 3.2994112,13.034904 4.1486488,9.3218647 6.6308619,7.1401885 C 8.9698089,4.9790362 12.652956,4.3828597 15.59005,5.6812687 C 16.748057,6.1570883 17.767829,6.9171123 18.567736,7.8559238 L 6.0149646,18.071003" display="inline" enable-background="accumulate" opacity=".6" overflow="visible" visibility="visible" style="marker:none"/><path id="path2386" fill="none" fill-opacity="1" fill-rule="nonzero" stroke="url(#linearGradient3593)" stroke-dasharray="none" stroke-dashoffset="0" stroke-linecap="butt" stroke-linejoin="miter" stroke-miterlimit="4" stroke-opacity="1" stroke-width="2" marker-end="none" marker-mid="none" marker-start="none" d="M 20,14.733552 C 18.900407,17.799135 15.708188,19.989585 12.364443,19.997629 C 9.0541807,20.079722 5.8255216,18.022557 4.6164005,15.026048 C 3.2994112,12.034904 4.1486488,8.3218647 6.6308619,6.1401885 C 8.9698089,3.9790362 12.652956,3.3828597 15.59005,4.6812687 C 16.748057,5.1570883 17.767829,5.9171123 18.567736,6.8559238 L 6.0149646,17.071003" display="inline" enable-background="accumulate" opacity=".7" overflow="visible" visibility="visible" style="marker:none"/></g></svg>