<svg xmlns="http://www.w3.org/2000/svg" xmlns:svg="http://www.w3.org/2000/svg" xmlns:xlink="http://www.w3.org/1999/xlink" id="svg2" width="24" height="24" version="1.0"><defs id="defs4"><radialGradient id="radialGradient4361" cx="605.714" cy="486.648" r="117.143" fx="605.714" fy="486.648" gradientTransform="matrix(-2.774389,0,0,1.969706,112.7623,-872.8854)" gradientUnits="userSpaceOnUse" xlink:href="#linearGradient5060"/><linearGradient id="linearGradient5060"><stop id="stop5062" offset="0" stop-color="#000" stop-opacity="1"/><stop id="stop5064" offset="1" stop-color="#000" stop-opacity="0"/></linearGradient><radialGradient id="radialGradient4359" cx="605.714" cy="486.648" r="117.143" fx="605.714" fy="486.648" gradientTransform="matrix(2.774389,0,0,1.969706,-1891.633,-872.8854)" gradientUnits="userSpaceOnUse" xlink:href="#linearGradient5060"/><linearGradient id="linearGradient5048"><stop id="stop5050" offset="0" stop-color="#000" stop-opacity="0"/><stop id="stop5056" offset=".5" stop-color="#000" stop-opacity="1"/><stop id="stop5052" offset="1" stop-color="#000" stop-opacity="0"/></linearGradient><linearGradient id="linearGradient4357" x1="302.857" x2="302.857" y1="366.648" y2="609.505" gradientTransform="matrix(2.774389,0,0,1.969706,-1892.179,-872.8854)" gradientUnits="userSpaceOnUse" xlink:href="#linearGradient5048"/><linearGradient id="linearGradient5157"><stop id="stop5159" offset="0" stop-color="#c1c1c1" stop-opacity="1"/><stop id="stop5161" offset="1" stop-color="#909090" stop-opacity="1"/></linearGradient><linearGradient id="linearGradient5163" x1="9.876" x2="9.876" y1="2.601" y2="23.062" gradientUnits="userSpaceOnUse" xlink:href="#linearGradient5157"/><linearGradient id="linearGradient11111"><stop id="stop11113" offset="0" stop-color="#fff" stop-opacity="1"/><stop id="stop11115" offset=".91" stop-color="#cdcdcd" stop-opacity="1"/><stop id="stop11117" offset="1" stop-color="#a1a1a1" stop-opacity="1"/></linearGradient><linearGradient id="linearGradient4380" x1="-28.531" x2="-28.531" y1="17.956" y2="37.503" gradientTransform="translate(34.378004,-14.501322)" gradientUnits="userSpaceOnUse" xlink:href="#linearGradient11111"/><linearGradient id="linearGradient3390"><stop id="stop3392" offset="0" stop-color="#425e7b" stop-opacity="1"/><stop id="stop3394" offset="1" stop-color="#7a91a7" stop-opacity="1"/></linearGradient><linearGradient id="linearGradient4377" x1="9.705" x2="9.705" y1="20.882" y2="4.303" gradientTransform="matrix(0.9945751,0,0,0.9945751,-0.3392671,1.7177729)" gradientUnits="userSpaceOnUse" xlink:href="#linearGradient3390"/><linearGradient id="linearGradient7012-661-145-733-759-865-745"><stop id="stop2699" offset="0" stop-color="#9cbbd9" stop-opacity="1"/><stop id="stop2701" offset="1" stop-color="#5c82ab" stop-opacity="1"/></linearGradient><radialGradient id="radialGradient3334" cx="7.819" cy="8.561" r="11.268" fx="7.819" fy="8.561" gradientTransform="matrix(1.6899516,0,0,1.0436086,-5.448971,0.9617527)" gradientUnits="userSpaceOnUse" xlink:href="#linearGradient7012-661-145-733-759-865-745"/><linearGradient id="linearGradient3752"><stop id="stop3754" offset="0" stop-color="#fff" stop-opacity="1"/><stop id="stop3760" offset=".848" stop-color="#fff" stop-opacity="1"/><stop id="stop3756" offset="1" stop-color="#fff" stop-opacity="0"/></linearGradient><radialGradient id="radialGradient4372" cx="4.02" cy="5.593" r="10.273" fx="4.02" fy="5.593" gradientTransform="matrix(-0.01680222,1.3942814,-1.79662,-0.02165073,14.152267,2.1566239)" gradientUnits="userSpaceOnUse" xlink:href="#linearGradient3752"/><linearGradient id="linearGradient8265-821-176-38-919-66-249"><stop id="stop2687" offset="0" stop-color="#fff" stop-opacity="1"/><stop id="stop2689" offset="1" stop-color="#fff" stop-opacity="0"/></linearGradient><linearGradient id="linearGradient3332" x1="18.031" x2="20.055" y1="16.408" y2="24.628" gradientUnits="userSpaceOnUse" xlink:href="#linearGradient8265-821-176-38-919-66-249"/><linearGradient id="linearGradient7067-814-120-245"><stop id="stop3877" offset="0" stop-color="#aaa" stop-opacity="1"/><stop id="stop3879" offset="1" stop-color="#4d4d4d" stop-opacity="1"/></linearGradient><linearGradient id="linearGradient2372-5"><stop id="stop2374-7" offset="0" stop-color="#fff" stop-opacity="1"/><stop id="stop2376-4" offset="1" stop-color="#fff" stop-opacity=".379"/></linearGradient><linearGradient id="linearGradient3358" x1="28.739" x2="26.257" y1="144.117" y2="125.391" gradientTransform="matrix(0.2545239,0,0,0.12875595,16.084992,-7.17353)" gradientUnits="userSpaceOnUse" xlink:href="#linearGradient2372-5"/><linearGradient id="linearGradient3361" x1="28.739" x2="25.4" y1="144.117" y2="119.865" gradientTransform="matrix(0.12649532,0,0,0.12875595,12.113999,-6.056926)" gradientUnits="userSpaceOnUse" xlink:href="#linearGradient2372-5"/><radialGradient id="radialGradient3364" cx="17.059" cy="41.059" r="5.738" fx="15.97" fy="39.106" gradientTransform="matrix(0.3698584,-0.06212313,0,0.35879901,14.670509,6.4851711)" gradientUnits="userSpaceOnUse" xlink:href="#linearGradient7067-814-120-245"/><radialGradient id="radialGradient3367" cx="17.059" cy="41.059" r="5.738" fx="15.544" fy="39.027" gradientTransform="matrix(0.37667571,-0.06311262,0,0.36451394,7.553753,7.3093475)" gradientUnits="userSpaceOnUse" xlink:href="#linearGradient7067-814-120-245"/></defs><g id="layer1"><g id="g3490" stroke-dasharray="none" stroke-miterlimit="4" stroke-width="1.883" transform="matrix(0.5459263,0,0,0.5168524,-1.0020361,-0.5781821)"><g id="g5022" stroke-dasharray="none" stroke-miterlimit="4" stroke-width="104.962" display="inline" transform="matrix(0.02165152,0,0,0.01485743,43.0076,42.68539)"><rect id="rect4173" width="1339.633" height="478.357" x="-1559.252" y="-150.697" fill="url(#linearGradient4357)" fill-opacity="1" fill-rule="nonzero" stroke="none" stroke-width="104.962" display="inline" opacity=".402" overflow="visible" visibility="visible" style="marker:none"/><path id="path5058" fill="url(#radialGradient4359)" fill-opacity="1" fill-rule="nonzero" stroke="none" stroke-width="104.962" d="m -219.61876,-150.68038 c 0,0 0,478.33079 0,478.33079 142.874166,0.90045 345.40022,-107.16966 345.40014,-239.196175 0,-132.026537 -159.436816,-239.134595 -345.40014,-239.134615 z" display="inline" opacity=".402" overflow="visible" visibility="visible" style="marker:none"/><path id="path5018" fill="url(#radialGradient4361)" fill-opacity="1" fill-rule="nonzero" stroke="none" stroke-width="104.962" d="m -1559.2523,-150.68038 c 0,0 0,478.33079 0,478.33079 -142.8742,0.90045 -345.4002,-107.16966 -345.4002,-239.196175 0,-132.026537 159.4368,-239.134595 345.4002,-239.134615 z" display="inline" opacity=".402" overflow="visible" visibility="visible" style="marker:none"/></g></g><path id="path3496" fill="url(#linearGradient4380)" fill-opacity="1" stroke="url(#linearGradient5163)" stroke-dasharray="none" stroke-linecap="round" stroke-linejoin="round" stroke-miterlimit="4" stroke-opacity="1" stroke-width="1.011" d="m 2.6510299,2.5338039 c -0.085539,0 -0.158869,0.092747 -0.158869,0.188543 l 0,1.80342 -1.196774,0 -0.603702,0 c -0.106745,0 -0.190642,0.094861 -0.190642,0.188543 l 0,0.377085 0,4.1702921 c -0.010775,3.954554 -0.031774,8.079318 -0.031774,11.721073 0.029084,0.895035 0.537241,1.505142 0.889665,1.508342 1.012736,0.0092 0.539272,-0.004 1.048535,0 6.4703329,-0.0161 13.5789171,-0.07817 20.0492481,-0.09427 0.05421,0.0069 -1.476715,-0.107725 -1.461594,-1.445495 1e-6,-4.672947 -0.502047,-11.186992 -0.502047,-15.8599411 0,-0.186878 -0.01544,-0.290886 -0.03177,-0.377085 -0.01261,-0.066563 -0.0287,-0.09887 -0.06355,-0.125695 -0.02786,-0.024451 -0.05455,-0.057043 -0.09532,-0.062848 l -9.835171,0 0,-1.80342 c 0,-0.095796 -0.07333,-0.188543 -0.158869,-0.188543 l -7.6573641,0 z" display="inline"/><path id="path3498" fill="url(#radialGradient3334)" fill-opacity="1" stroke="url(#linearGradient4377)" stroke-dasharray="none" stroke-linecap="round" stroke-linejoin="round" stroke-miterlimit="4" stroke-opacity="1" stroke-width="1" d="m 3.4993539,6.5471259 c 10.5699021,0 13.0304441,4.6e-4 19.9935051,-0.027539 0,1.570444 0.258156,16.0402751 -0.484112,16.0402751 -0.714048,0 -14.0456512,-0.09435 -21.0087101,-0.06635 1.471684,0 1.499317,-0.622748 1.499317,-15.9463841 z" display="inline"/><path id="path3211" fill="none" stroke="url(#radialGradient4372)" stroke-dasharray="none" stroke-linecap="butt" stroke-linejoin="miter" stroke-miterlimit="4" stroke-opacity="1" stroke-width=".981" d="m 22.938799,7.6088419 c 0,0 -16.8318011,0.09361 -18.3967961,-0.092369 C 4.4590639,21.345907 4.0410549,21.955515 4.0410549,21.955515" display="inline" opacity=".4"/><path id="path2608" fill="url(#linearGradient3332)" fill-opacity="1" fill-rule="evenodd" stroke="none" d="m 3.21875,5.34375 c -1.5389481,0 -2.8125,1.273552 -2.8125,2.8125 l 0,16 c 0.005894,0.286233 0.14841957,0.612577 0.375,0.8125 0.2265775,0.199921 0.5161946,0.284272 0.84375,0.25 a 0.61209076,0.61209076 0 0 0 0.03125,0 l 45,-7.125 c 0.521773,-0.08229 0.930206,-0.53433 0.9375,-1.0625 l 0,-8.875 c 0,-1.538948 -1.273552,-2.8125 -2.8125,-2.8125 l -41.5625,0 z" opacity=".2" transform="matrix(0.4450331,0,0,0.4023652,2.8192053,3.8498613)"/><path id="path2931" fill="none" stroke="none" d="m 22.887142,19.242641 -0.36668,-2.955046"/><path id="path4031" fill="#4d4d4d" fill-opacity="1" stroke="#333" stroke-dasharray="none" stroke-linecap="round" stroke-linejoin="round" stroke-miterlimit="4" stroke-opacity="1" stroke-width="1" d="m 22.86218,8.501082 c -2.357103,0.3798351 -5.51163,0.7708459 -7.862181,1.1718944 -0.622438,0.3036913 -0.482505,1.0857016 -0.510043,1.6531226 0,2.531942 0,5.063884 0,7.595827 -1.311726,-0.246608 -2.911356,0.837273 -2.980733,2.553424 -0.113253,1.068438 0.834206,1.998453 1.864481,2.023461 1.844664,0.04478 3.106286,-1.179076 3.126295,-2.726857 -0.02014,-2.599408 0.0057,-5.199838 0,-7.799645 0.285576,-0.02115 4.61103,-0.846503 5,-0.901457 0,1.947147 0,3.894295 0,5.841442 -1.146387,-0.274636 -2.611897,0.478721 -2.97527,2.017254 -0.15337,0.862385 0.136497,1.944831 1.011547,2.309984 1.708237,0.784936 4.053268,-0.805037 3.957931,-2.671065 -0.02646,-3.466173 0.02169,-6.933764 0,-10.4003066 C 23.449347,8.8424018 23.2286,8.4775679 22.86218,8.501082 z"/><path id="path2937" fill="url(#radialGradient3367)" fill-opacity="1" stroke="none" d="m 15.973563,20.865119 a 1.7166647,2.0994822 57.095252 0 1 -3.988331,0.66825 1.7166647,2.0994822 57.095252 0 1 3.988331,-0.66825 z"/><path id="path2941" fill="url(#radialGradient3364)" fill-opacity="1" stroke="none" d="m 22.937932,19.828412 a 1.6885125,2.0629959 56.769744 0 1 -3.916148,0.657774 1.6885125,2.0629959 56.769744 1 1 3.916148,-0.657774 z"/><path id="path2945" fill="url(#linearGradient3361)" fill-opacity="1" fill-rule="evenodd" stroke="none" d="m 15.053686,19.476375 -0.05369,-8.682436 c 0,0 0.05877,-0.663765 0.494716,-0.665788 0.154613,-0.02705 6.931715,-1.1565474 6.931715,-1.1565474 0,0 0.132983,0.7094737 -6.06949,1.6296544 -0.516931,0.07707 -0.76544,0.06848 -0.762716,0.558367 0.0073,1.321624 -0.03036,3.795953 -0.03036,8.608255 0,0.03443 -0.325438,-0.243938 -0.510181,-0.291505 z" opacity=".4"/><path id="path2947" fill="url(#linearGradient3358)" fill-opacity="1" fill-rule="evenodd" stroke="none" d="m 21.999999,18.271351 0.03393,-6.559021 c 0.357493,-0.0323 0.05489,-0.0052 0.53695,-0.05358 0.0066,1.225158 2.74e-4,2.242096 2.74e-4,6.869194 0,0.03443 -0.199425,-0.209029 -0.571151,-0.256596 z" opacity=".4"/></g></svg>