<svg xmlns="http://www.w3.org/2000/svg" xmlns:svg="http://www.w3.org/2000/svg" xmlns:xlink="http://www.w3.org/1999/xlink" id="svg2500" width="24" height="24" version="1.0"><defs id="defs2502"><radialGradient id="radialGradient4361" cx="605.714" cy="486.648" r="117.143" fx="605.714" fy="486.648" gradientTransform="matrix(-2.774389,0,0,1.969706,112.7623,-872.8854)" gradientUnits="userSpaceOnUse" xlink:href="#linearGradient5060"/><linearGradient id="linearGradient5060"><stop id="stop5062" offset="0" stop-color="#000" stop-opacity="1"/><stop id="stop5064" offset="1" stop-color="#000" stop-opacity="0"/></linearGradient><radialGradient id="radialGradient4359" cx="605.714" cy="486.648" r="117.143" fx="605.714" fy="486.648" gradientTransform="matrix(2.774389,0,0,1.969706,-1891.633,-872.8854)" gradientUnits="userSpaceOnUse" xlink:href="#linearGradient5060"/><linearGradient id="linearGradient5048"><stop id="stop5050" offset="0" stop-color="#000" stop-opacity="0"/><stop id="stop5056" offset=".5" stop-color="#000" stop-opacity="1"/><stop id="stop5052" offset="1" stop-color="#000" stop-opacity="0"/></linearGradient><linearGradient id="linearGradient4357" x1="302.857" x2="302.857" y1="366.648" y2="609.505" gradientTransform="matrix(2.774389,0,0,1.969706,-1892.179,-872.8854)" gradientUnits="userSpaceOnUse" xlink:href="#linearGradient5048"/><linearGradient id="linearGradient5157"><stop id="stop5159" offset="0" stop-color="#c1c1c1" stop-opacity="1"/><stop id="stop5161" offset="1" stop-color="#909090" stop-opacity="1"/></linearGradient><linearGradient id="linearGradient5163" x1="9.876" x2="9.876" y1="2.601" y2="23.062" gradientUnits="userSpaceOnUse" xlink:href="#linearGradient5157"/><linearGradient id="linearGradient11111"><stop id="stop11113" offset="0" stop-color="#fff" stop-opacity="1"/><stop id="stop11115" offset=".91" stop-color="#cdcdcd" stop-opacity="1"/><stop id="stop11117" offset="1" stop-color="#a1a1a1" stop-opacity="1"/></linearGradient><linearGradient id="linearGradient4380" x1="-28.531" x2="-28.531" y1="17.956" y2="37.503" gradientTransform="translate(34.378004,-14.501322)" gradientUnits="userSpaceOnUse" xlink:href="#linearGradient11111"/><linearGradient id="linearGradient3390"><stop id="stop3392" offset="0" stop-color="#425e7b" stop-opacity="1"/><stop id="stop3394" offset="1" stop-color="#7a91a7" stop-opacity="1"/></linearGradient><linearGradient id="linearGradient4377" x1="9.705" x2="9.705" y1="20.882" y2="4.303" gradientTransform="matrix(0.9945751,0,0,0.9945751,-0.3392671,1.7177729)" gradientUnits="userSpaceOnUse" xlink:href="#linearGradient3390"/><linearGradient id="linearGradient7012-661-145-733-759-865-745"><stop id="stop2699" offset="0" stop-color="#9cbbd9" stop-opacity="1"/><stop id="stop2701" offset="1" stop-color="#5c82ab" stop-opacity="1"/></linearGradient><radialGradient id="radialGradient3334" cx="7.819" cy="8.561" r="11.268" fx="7.819" fy="8.561" gradientTransform="matrix(1.6899516,0,0,1.0436086,-5.448971,0.9617527)" gradientUnits="userSpaceOnUse" xlink:href="#linearGradient7012-661-145-733-759-865-745"/><linearGradient id="linearGradient3752"><stop id="stop3754" offset="0" stop-color="#fff" stop-opacity="1"/><stop id="stop3760" offset=".848" stop-color="#fff" stop-opacity="1"/><stop id="stop3756" offset="1" stop-color="#fff" stop-opacity="0"/></linearGradient><radialGradient id="radialGradient4372" cx="4.02" cy="5.593" r="10.273" fx="4.02" fy="5.593" gradientTransform="matrix(-1.6802223e-2,1.3942814,-1.79662,-2.1650729e-2,14.152267,2.1566239)" gradientUnits="userSpaceOnUse" xlink:href="#linearGradient3752"/><linearGradient id="linearGradient8265-821-176-38-919-66-249"><stop id="stop2687" offset="0" stop-color="#fff" stop-opacity="1"/><stop id="stop2689" offset="1" stop-color="#fff" stop-opacity="0"/></linearGradient><linearGradient id="linearGradient3332" x1="18.031" x2="20.055" y1="16.408" y2="24.628" gradientUnits="userSpaceOnUse" xlink:href="#linearGradient8265-821-176-38-919-66-249"/><radialGradient id="radialGradient2496" cx="25" cy="28.66" r="16" fx="25" fy="28.66" gradientTransform="matrix(0.561868,0,0,0.1578792,0.8318003,13.336901)" gradientUnits="userSpaceOnUse" xlink:href="#linearGradient6954"/><linearGradient id="linearGradient6954"><stop id="stop6960" offset="0" stop-color="#f5f5f5" stop-opacity="1"/><stop id="stop6962" offset="1" stop-color="#d2d2d2" stop-opacity="1"/></linearGradient><radialGradient id="radialGradient2491" cx="26.376" cy="12.313" r="8" fx="26.376" fy="12.313" gradientTransform="matrix(0.5525016,-4.26402e-2,4.315608e-2,0.5097191,0.6973932,6.0218737)" gradientUnits="userSpaceOnUse" xlink:href="#linearGradient6954"/><linearGradient id="linearGradient2488" x1="30" x2="30" y1=".918" y2="25.793" gradientTransform="matrix(0.3368574,0,0,0.3216128,6.8943398,7.7030807)" gradientUnits="userSpaceOnUse" xlink:href="#linearGradient3341"/><linearGradient id="linearGradient3341"><stop id="stop3343" offset="0" stop-color="#fff" stop-opacity="1"/><stop id="stop3345" offset="1" stop-color="#fff" stop-opacity="0"/></linearGradient><linearGradient id="linearGradient2485" x1="29.956" x2="29.956" y1="21.866" y2="43.144" gradientTransform="matrix(0.4280899,0,0,0.4229659,4.1762517,4.749778)" gradientUnits="userSpaceOnUse" xlink:href="#linearGradient3341"/></defs><g id="layer1"><g id="g3490" stroke-dasharray="none" stroke-miterlimit="4" stroke-width="1.883" transform="matrix(0.5459263,0,0,0.5168524,-1.0020361,-0.5781821)"><g id="g5022" stroke-dasharray="none" stroke-miterlimit="4" stroke-width="104.962" display="inline" transform="matrix(2.165152e-2,0,0,1.485743e-2,43.0076,42.68539)"><rect id="rect4173" width="1339.633" height="478.357" x="-1559.252" y="-150.697" fill="url(#linearGradient4357)" fill-opacity="1" fill-rule="nonzero" stroke="none" stroke-dasharray="none" stroke-dashoffset="0" stroke-linecap="round" stroke-linejoin="miter" stroke-miterlimit="4" stroke-opacity="1" stroke-width="104.962" marker-end="none" marker-mid="none" marker-start="none" display="inline" opacity=".402" overflow="visible" visibility="visible" style="marker:none"/><path id="path5058" fill="url(#radialGradient4359)" fill-opacity="1" fill-rule="nonzero" stroke="none" stroke-dasharray="none" stroke-dashoffset="0" stroke-linecap="round" stroke-linejoin="miter" stroke-miterlimit="4" stroke-opacity="1" stroke-width="104.962" marker-end="none" marker-mid="none" marker-start="none" d="M -219.61876,-150.68038 C -219.61876,-150.68038 -219.61876,327.65041 -219.61876,327.65041 C -76.744594,328.55086 125.78146,220.48075 125.78138,88.454235 C 125.78138,-43.572302 -33.655436,-150.68036 -219.61876,-150.68038 z" display="inline" opacity=".402" overflow="visible" visibility="visible" style="marker:none"/><path id="path5018" fill="url(#radialGradient4361)" fill-opacity="1" fill-rule="nonzero" stroke="none" stroke-dasharray="none" stroke-dashoffset="0" stroke-linecap="round" stroke-linejoin="miter" stroke-miterlimit="4" stroke-opacity="1" stroke-width="104.962" marker-end="none" marker-mid="none" marker-start="none" d="M -1559.2523,-150.68038 C -1559.2523,-150.68038 -1559.2523,327.65041 -1559.2523,327.65041 C -1702.1265,328.55086 -1904.6525,220.48075 -1904.6525,88.454235 C -1904.6525,-43.572302 -1745.2157,-150.68036 -1559.2523,-150.68038 z" display="inline" opacity=".402" overflow="visible" visibility="visible" style="marker:none"/></g></g><path id="path3496" fill="url(#linearGradient4380)" fill-opacity="1" stroke="url(#linearGradient5163)" stroke-dasharray="none" stroke-linecap="round" stroke-linejoin="round" stroke-miterlimit="4" stroke-opacity="1" stroke-width="1.011" d="M 2.6510299,2.5338039 C 2.5654909,2.5338039 2.4921609,2.6265509 2.4921609,2.7223469 L 2.4921609,4.5257669 L 1.2953869,4.5257669 L 0.6916849,4.5257669 C 0.5849399,4.5257669 0.5010429,4.6206279 0.5010429,4.7143099 L 0.5010429,5.0913949 L 0.5010429,9.261687 C 0.4902679,13.216241 0.4692689,17.341005 0.4692689,20.98276 C 0.4983529,21.877795 1.0065099,22.487902 1.3589339,22.491102 C 2.3716699,22.500297 1.8982059,22.487073 2.4074689,22.491102 C 8.8778018,22.475003 15.986386,22.412929 22.456717,22.396831 C 22.510931,22.403749 20.980002,22.289106 20.995123,20.951336 C 20.995124,16.278389 20.493076,9.764344 20.493076,5.0913949 C 20.493076,4.9045169 20.477636,4.8005089 20.461302,4.7143099 C 20.448688,4.6477469 20.432606,4.6154399 20.397755,4.5886149 C 20.369893,4.5641639 20.343206,4.5315719 20.302434,4.5257669 L 10.467263,4.5257669 L 10.467263,2.7223469 C 10.467263,2.6265509 10.393932,2.5338039 10.308394,2.5338039 L 2.6510299,2.5338039 z" display="inline"/><path id="path3498" fill="url(#radialGradient3334)" fill-opacity="1" stroke="url(#linearGradient4377)" stroke-dasharray="none" stroke-linecap="round" stroke-linejoin="round" stroke-miterlimit="4" stroke-opacity="1" stroke-width="1" d="M 3.4993539,6.5471259 C 14.069256,6.5471259 16.529798,6.5475859 23.492859,6.5195869 C 23.492859,8.0900309 23.751015,22.559862 23.008747,22.559862 C 22.294699,22.559862 8.9630958,22.465511 2.0000369,22.49351 C 3.4717209,22.49351 3.4993539,21.870762 3.4993539,6.5471259 z" display="inline"/><path id="path3211" fill="none" fill-rule="evenodd" stroke="url(#radialGradient4372)" stroke-dasharray="none" stroke-linecap="butt" stroke-linejoin="miter" stroke-miterlimit="4" stroke-opacity="1" stroke-width=".981" d="M 22.938799,7.6088419 C 22.938799,7.6088419 6.1069979,7.7024519 4.5420029,7.5164729 C 4.4590639,21.345907 4.0410549,21.955515 4.0410549,21.955515" display="inline" opacity=".4"/><path id="path2608" fill="url(#linearGradient3332)" fill-opacity="1" fill-rule="evenodd" stroke="none" stroke-dasharray="none" stroke-dashoffset="0" stroke-linecap="round" stroke-linejoin="round" stroke-miterlimit="4" stroke-opacity="1" stroke-width="1.002" d="M 3.21875,5.34375 C 1.6798019,5.34375 0.40625,6.617302 0.40625,8.15625 L 0.40625,24.15625 C 0.41214423,24.442483 0.55466957,24.768827 0.78125,24.96875 C 1.0078275,25.168671 1.2974446,25.253022 1.625,25.21875 C 1.635415,25.219016 1.645835,25.219016 1.65625,25.21875 L 46.65625,18.09375 C 47.178023,18.01146 47.586456,17.55942 47.59375,17.03125 L 47.59375,8.15625 C 47.59375,6.617302 46.320198,5.34375 44.78125,5.34375 L 3.21875,5.34375 z" opacity=".2" transform="matrix(0.4450331,0,0,0.4023652,2.8192053,3.8498613)"/><path id="path2880" fill="url(#radialGradient2496)" fill-opacity="1" stroke="gray" stroke-dasharray="none" stroke-linejoin="round" stroke-miterlimit="4" stroke-opacity="1" stroke-width="1" d="M 15.843811,14.49838 C 15.763171,15.178473 15.937423,16.598485 15.566009,17.21713 C 14.121184,17.722021 12.013703,18.643278 11.875061,19.24838 C 11.772691,20.188315 11.619142,21.559801 11.500061,22.49838 C 14.032958,23.866547 19.991862,23.80063 22.437561,22.49838 C 22.351261,21.832463 22.273859,19.914296 22.187561,19.24838 C 21.533921,18.467862 20.14371,18.01113 18.331095,17.21713 C 17.857448,16.600957 18.243522,15.22395 18.093811,14.52963 C 17.807385,14.480383 16.133873,14.505905 15.843811,14.49838 z"/><path id="path2870" fill="url(#radialGradient2491)" fill-opacity="1" stroke="#999" stroke-dasharray="none" stroke-miterlimit="4" stroke-opacity="1" stroke-width=".947" d="M 17.000061,9.4671304 C 15.604753,9.4671304 14.468811,10.473778 14.468811,11.71713 C 14.479757,12.177271 14.527761,12.722611 14.812561,13.96713 C 14.98099,14.449549 16.486506,15.743825 16.500061,15.90463 C 16.826702,16.065435 17.350703,16.065435 17.687561,15.90463 C 17.687561,15.743825 19.019133,14.449549 19.187561,13.96713 C 19.508039,12.673703 19.51412,12.19955 19.531311,11.71713 C 19.531311,10.473778 18.395371,9.4671304 17.000061,9.4671304 z"/><path id="path2866" fill="none" stroke="url(#linearGradient2488)" stroke-dasharray="none" stroke-miterlimit="4" stroke-opacity="1" stroke-width=".947" d="M 17.000061,10.46713 C 16.38767,10.452306 15.733077,10.797687 15.531311,11.40463 C 15.417734,11.815119 15.52115,12.241469 15.562561,12.65463 C 15.614781,12.99277 15.675839,13.320711 15.750061,13.65463 C 15.944153,13.826082 16.111203,14.052094 16.312561,14.21713 C 16.575868,14.473162 16.803357,14.738332 17.062561,14.99838 C 17.330764,14.78107 17.510985,14.49511 17.750061,14.24838 C 17.902742,14.068557 18.060312,13.86076 18.218811,13.68588 C 18.376447,12.975599 18.55854,12.263681 18.500061,11.52963 C 18.375429,10.842857 17.653037,10.449942 17.000061,10.46713 z"/><path id="path2876" fill="none" stroke="url(#linearGradient2485)" stroke-dasharray="none" stroke-linejoin="round" stroke-miterlimit="4" stroke-opacity="1" stroke-width="1" d="M 17.000061,17.06088 C 17.040891,17.679352 16.515562,18.161922 15.937561,18.24838 C 14.875746,18.625957 13.772469,18.954885 12.812561,19.56088 C 12.587837,20.101604 12.708323,20.721585 12.562561,21.27963 C 12.231631,21.988591 13.131638,22.055687 13.593811,22.18588 C 15.849911,22.726595 18.245924,22.684941 20.500061,22.15463 C 20.835908,21.986037 21.638343,22.06969 21.437561,21.52963 C 21.375331,20.942117 21.345641,20.337977 21.312561,19.74838 C 20.392513,19.040049 19.225643,18.791051 18.187561,18.31088 C 17.364588,18.194119 17.334956,17.591264 17.000061,17.06088 z"/></g></svg>