<svg xmlns="http://www.w3.org/2000/svg" xmlns:svg="http://www.w3.org/2000/svg" xmlns:xlink="http://www.w3.org/1999/xlink" id="svg2" width="24" height="24" version="1.0"><defs id="defs4"><radialGradient id="radialGradient4361" cx="605.714" cy="486.648" r="117.143" fx="605.714" fy="486.648" gradientTransform="matrix(-2.774389,0,0,1.969706,112.7623,-872.8854)" gradientUnits="userSpaceOnUse" xlink:href="#linearGradient5060"/><linearGradient id="linearGradient5060"><stop id="stop5062" offset="0" stop-color="#000" stop-opacity="1"/><stop id="stop5064" offset="1" stop-color="#000" stop-opacity="0"/></linearGradient><radialGradient id="radialGradient4359" cx="605.714" cy="486.648" r="117.143" fx="605.714" fy="486.648" gradientTransform="matrix(2.774389,0,0,1.969706,-1891.633,-872.8854)" gradientUnits="userSpaceOnUse" xlink:href="#linearGradient5060"/><linearGradient id="linearGradient5048"><stop id="stop5050" offset="0" stop-color="#000" stop-opacity="0"/><stop id="stop5056" offset=".5" stop-color="#000" stop-opacity="1"/><stop id="stop5052" offset="1" stop-color="#000" stop-opacity="0"/></linearGradient><linearGradient id="linearGradient4357" x1="302.857" x2="302.857" y1="366.648" y2="609.505" gradientTransform="matrix(2.774389,0,0,1.969706,-1892.179,-872.8854)" gradientUnits="userSpaceOnUse" xlink:href="#linearGradient5048"/><linearGradient id="linearGradient5157"><stop id="stop5159" offset="0" stop-color="#c1c1c1" stop-opacity="1"/><stop id="stop5161" offset="1" stop-color="#909090" stop-opacity="1"/></linearGradient><linearGradient id="linearGradient5163" x1="9.876" x2="9.876" y1="2.601" y2="23.062" gradientUnits="userSpaceOnUse" xlink:href="#linearGradient5157"/><linearGradient id="linearGradient11111"><stop id="stop11113" offset="0" stop-color="#fff" stop-opacity="1"/><stop id="stop11115" offset=".91" stop-color="#cdcdcd" stop-opacity="1"/><stop id="stop11117" offset="1" stop-color="#a1a1a1" stop-opacity="1"/></linearGradient><linearGradient id="linearGradient4380" x1="-28.531" x2="-28.531" y1="17.956" y2="37.503" gradientTransform="translate(34.378004,-14.501322)" gradientUnits="userSpaceOnUse" xlink:href="#linearGradient11111"/><linearGradient id="linearGradient3390"><stop id="stop3392" offset="0" stop-color="#425e7b" stop-opacity="1"/><stop id="stop3394" offset="1" stop-color="#7a91a7" stop-opacity="1"/></linearGradient><linearGradient id="linearGradient4377" x1="9.705" x2="9.705" y1="20.882" y2="4.303" gradientTransform="matrix(0.9945751,0,0,0.9945751,-0.3392671,1.7177729)" gradientUnits="userSpaceOnUse" xlink:href="#linearGradient3390"/><linearGradient id="linearGradient7012-661-145-733-759-865-745"><stop id="stop2699" offset="0" stop-color="#9cbbd9" stop-opacity="1"/><stop id="stop2701" offset="1" stop-color="#5c82ab" stop-opacity="1"/></linearGradient><radialGradient id="radialGradient3334" cx="7.819" cy="8.561" r="11.268" fx="7.819" fy="8.561" gradientTransform="matrix(1.6899516,0,0,1.0436086,-5.448971,0.9617527)" gradientUnits="userSpaceOnUse" xlink:href="#linearGradient7012-661-145-733-759-865-745"/><linearGradient id="linearGradient3752"><stop id="stop3754" offset="0" stop-color="#fff" stop-opacity="1"/><stop id="stop3760" offset=".848" stop-color="#fff" stop-opacity="1"/><stop id="stop3756" offset="1" stop-color="#fff" stop-opacity="0"/></linearGradient><radialGradient id="radialGradient4372" cx="4.02" cy="5.593" r="10.273" fx="4.02" fy="5.593" gradientTransform="matrix(-1.6802223e-2,1.3942814,-1.79662,-2.1650729e-2,14.152267,2.1566239)" gradientUnits="userSpaceOnUse" xlink:href="#linearGradient3752"/><linearGradient id="linearGradient8265-821-176-38-919-66-249"><stop id="stop2687" offset="0" stop-color="#fff" stop-opacity="1"/><stop id="stop2689" offset="1" stop-color="#fff" stop-opacity="0"/></linearGradient><linearGradient id="linearGradient3332" x1="18.031" x2="20.055" y1="16.408" y2="24.628" gradientUnits="userSpaceOnUse" xlink:href="#linearGradient8265-821-176-38-919-66-249"/><linearGradient id="linearGradient5128"><stop id="stop5130" offset="0" stop-color="#e5e5e5" stop-opacity="1"/><stop id="stop5132" offset="1" stop-color="#ababab" stop-opacity="1"/></linearGradient><linearGradient id="linearGradient3260" x1="86.133" x2="84.639" y1="105.105" y2="20.895" gradientTransform="matrix(9.6142312e-2,0,0,9.6142312e-2,1.8468935,1.9430362)" gradientUnits="userSpaceOnUse" xlink:href="#linearGradient5128"/><linearGradient id="linearGradient3397"><stop id="stop3399" offset="0" stop-color="#a0a0a0" stop-opacity="1"/><stop id="stop3401" offset="1" stop-color="#828282" stop-opacity="1"/></linearGradient><linearGradient id="linearGradient3264" x1="21" x2="21" y1="0" y2="16.005" gradientTransform="translate(-17.058189,0)" gradientUnits="userSpaceOnUse" xlink:href="#linearGradient3397"/><linearGradient id="linearGradient3309" x1="63.999" x2="63.999" y1="3.1" y2="122.899" gradientUnits="userSpaceOnUse"><stop id="stop3311" offset="0" stop-color="#f6f6f6" stop-opacity="1"/><stop id="stop3313" offset="1" stop-color="#ccc" stop-opacity="1"/></linearGradient><linearGradient id="linearGradient3262" x1="25" x2="25" y1="0" y2="16" gradientTransform="translate(-17.058189,0)" gradientUnits="userSpaceOnUse" xlink:href="#linearGradient3309"/></defs><g id="layer1"><g id="g3490" stroke-dasharray="none" stroke-miterlimit="4" stroke-width="1.883" transform="matrix(0.5459263,0,0,0.5168524,-1.0020361,-0.5781821)"><g id="g5022" stroke-dasharray="none" stroke-miterlimit="4" stroke-width="104.962" display="inline" transform="matrix(2.165152e-2,0,0,1.485743e-2,43.0076,42.68539)"><rect id="rect4173" width="1339.633" height="478.357" x="-1559.252" y="-150.697" fill="url(#linearGradient4357)" fill-opacity="1" fill-rule="nonzero" stroke="none" stroke-dasharray="none" stroke-dashoffset="0" stroke-linecap="round" stroke-linejoin="miter" stroke-miterlimit="4" stroke-opacity="1" stroke-width="104.962" marker-end="none" marker-mid="none" marker-start="none" display="inline" opacity=".402" overflow="visible" visibility="visible" style="marker:none"/><path id="path5058" fill="url(#radialGradient4359)" fill-opacity="1" fill-rule="nonzero" stroke="none" stroke-dasharray="none" stroke-dashoffset="0" stroke-linecap="round" stroke-linejoin="miter" stroke-miterlimit="4" stroke-opacity="1" stroke-width="104.962" marker-end="none" marker-mid="none" marker-start="none" d="M -219.61876,-150.68038 C -219.61876,-150.68038 -219.61876,327.65041 -219.61876,327.65041 C -76.744594,328.55086 125.78146,220.48075 125.78138,88.454235 C 125.78138,-43.572302 -33.655436,-150.68036 -219.61876,-150.68038 z" display="inline" opacity=".402" overflow="visible" visibility="visible" style="marker:none"/><path id="path5018" fill="url(#radialGradient4361)" fill-opacity="1" fill-rule="nonzero" stroke="none" stroke-dasharray="none" stroke-dashoffset="0" stroke-linecap="round" stroke-linejoin="miter" stroke-miterlimit="4" stroke-opacity="1" stroke-width="104.962" marker-end="none" marker-mid="none" marker-start="none" d="M -1559.2523,-150.68038 C -1559.2523,-150.68038 -1559.2523,327.65041 -1559.2523,327.65041 C -1702.1265,328.55086 -1904.6525,220.48075 -1904.6525,88.454235 C -1904.6525,-43.572302 -1745.2157,-150.68036 -1559.2523,-150.68038 z" display="inline" opacity=".402" overflow="visible" visibility="visible" style="marker:none"/></g></g><path id="path3496" fill="url(#linearGradient4380)" fill-opacity="1" stroke="url(#linearGradient5163)" stroke-dasharray="none" stroke-linecap="round" stroke-linejoin="round" stroke-miterlimit="4" stroke-opacity="1" stroke-width="1.011" d="M 2.6510299,2.5338039 C 2.5654909,2.5338039 2.4921609,2.6265509 2.4921609,2.7223469 L 2.4921609,4.5257669 L 1.2953869,4.5257669 L 0.6916849,4.5257669 C 0.5849399,4.5257669 0.5010429,4.6206279 0.5010429,4.7143099 L 0.5010429,5.0913949 L 0.5010429,9.261687 C 0.4902679,13.216241 0.4692689,17.341005 0.4692689,20.98276 C 0.4983529,21.877795 1.0065099,22.487902 1.3589339,22.491102 C 2.3716699,22.500297 1.8982059,22.487073 2.4074689,22.491102 C 8.8778018,22.475003 15.986386,22.412929 22.456717,22.396831 C 22.510931,22.403749 20.980002,22.289106 20.995123,20.951336 C 20.995124,16.278389 20.493076,9.764344 20.493076,5.0913949 C 20.493076,4.9045169 20.477636,4.8005089 20.461302,4.7143099 C 20.448688,4.6477469 20.432606,4.6154399 20.397755,4.5886149 C 20.369893,4.5641639 20.343206,4.5315719 20.302434,4.5257669 L 10.467263,4.5257669 L 10.467263,2.7223469 C 10.467263,2.6265509 10.393932,2.5338039 10.308394,2.5338039 L 2.6510299,2.5338039 z" display="inline"/><path id="path3498" fill="url(#radialGradient3334)" fill-opacity="1" stroke="url(#linearGradient4377)" stroke-dasharray="none" stroke-linecap="round" stroke-linejoin="round" stroke-miterlimit="4" stroke-opacity="1" stroke-width="1" d="M 3.4993539,6.5471259 C 14.069256,6.5471259 16.529798,6.5475859 23.492859,6.5195869 C 23.492859,8.0900309 23.751015,22.559862 23.008747,22.559862 C 22.294699,22.559862 8.9630958,22.465511 2.0000369,22.49351 C 3.4717209,22.49351 3.4993539,21.870762 3.4993539,6.5471259 z" display="inline"/><path id="path3211" fill="none" fill-rule="evenodd" stroke="url(#radialGradient4372)" stroke-dasharray="none" stroke-linecap="butt" stroke-linejoin="miter" stroke-miterlimit="4" stroke-opacity="1" stroke-width=".981" d="M 22.938799,7.6088419 C 22.938799,7.6088419 6.1069979,7.7024519 4.5420029,7.5164729 C 4.4590639,21.345907 4.0410549,21.955515 4.0410549,21.955515" display="inline" opacity=".4"/><path id="path2608" fill="url(#linearGradient3332)" fill-opacity="1" fill-rule="evenodd" stroke="none" stroke-dasharray="none" stroke-dashoffset="0" stroke-linecap="round" stroke-linejoin="round" stroke-miterlimit="4" stroke-opacity="1" stroke-width="1.002" d="M 3.21875,5.34375 C 1.6798019,5.34375 0.40625,6.617302 0.40625,8.15625 L 0.40625,24.15625 C 0.41214423,24.442483 0.55466957,24.768827 0.78125,24.96875 C 1.0078275,25.168671 1.2974446,25.253022 1.625,25.21875 C 1.635415,25.219016 1.645835,25.219016 1.65625,25.21875 L 46.65625,18.09375 C 47.178023,18.01146 47.586456,17.55942 47.59375,17.03125 L 47.59375,8.15625 C 47.59375,6.617302 46.320198,5.34375 44.78125,5.34375 L 3.21875,5.34375 z" opacity=".2" transform="matrix(0.4450331,0,0,0.4023652,2.8192053,3.8498613)"/><g id="g2479" transform="translate(8,8.0000001)"><path id="path2426" fill="url(#linearGradient3262)" fill-opacity="1" fill-rule="nonzero" stroke="url(#linearGradient3264)" stroke-dasharray="none" stroke-dashoffset="0" stroke-linecap="butt" stroke-linejoin="round" stroke-miterlimit="4" stroke-opacity="1" stroke-width="1" marker-end="none" marker-mid="none" marker-start="none" d="M 6.9375,0.5 C 6.6890831,0.5 6.5,0.68908218 6.5,0.9375 L 6.5,2.1875 C 5.9460971,2.3297005 5.448836,2.5593783 4.96875,2.84375 L 4.0625,1.9375 C 3.8868431,1.7618421 3.613158,1.7618421 3.4375,1.9375 L 1.9375,3.4375 C 1.761843,3.6131579 1.761843,3.8868421 1.9375,4.0625 L 2.84375,4.96875 C 2.5593789,5.4488356 2.329701,5.9460968 2.1875,6.5 L 0.9375,6.5 C 0.68908301,6.5 0.5,6.6890821 0.5,6.9375 L 0.5,9.0625 C 0.50000001,9.3109178 0.689083,9.5 0.9375,9.5 L 2.1875,9.5 C 2.3297009,10.053903 2.559379,10.551164 2.84375,11.03125 L 1.9375,11.9375 C 1.761843,12.113158 1.761843,12.386842 1.9375,12.5625 L 3.4375,14.0625 C 3.6131579,14.238158 3.886842,14.238158 4.0625,14.0625 L 4.96875,13.15625 C 5.4488361,13.440622 5.946097,13.6703 6.5,13.8125 L 6.5,15.0625 C 6.5000001,15.310918 6.689083,15.5 6.9375,15.5 L 9.0625,15.5 C 9.3109176,15.5 9.5,15.310918 9.5,15.0625 L 9.5,13.8125 C 10.053903,13.6703 10.551164,13.440622 11.03125,13.15625 L 11.9375,14.0625 C 12.113158,14.238158 12.386842,14.238158 12.5625,14.0625 L 14.0625,12.5625 C 14.238158,12.386842 14.238158,12.113158 14.0625,11.9375 L 13.15625,11.03125 C 13.440622,10.551164 13.6703,10.053903 13.8125,9.5 L 15.0625,9.5 C 15.310918,9.5 15.5,9.3109174 15.5,9.0625 L 15.5,6.9375 C 15.5,6.6890822 15.310917,6.5 15.0625,6.5 L 13.8125,6.5 C 13.6703,5.9460968 13.440622,5.4488356 13.15625,4.96875 L 14.0625,4.0625 C 14.238158,3.8868421 14.238158,3.613158 14.0625,3.4375 L 12.5625,1.9375 C 12.386842,1.7618421 12.113158,1.7618421 11.9375,1.9375 L 11.03125,2.84375 C 10.551164,2.5593783 10.053903,2.3297005 9.5,2.1875 L 9.5,0.9375 C 9.4999996,0.68908218 9.310918,0.5 9.0625,0.5 L 6.9375,0.5 z M 8,6 C 9.104,6 10,6.896 10,8 C 10,9.104 9.104,10 8,10 C 6.896,10 6,9.104 6,8 C 6,6.896 6.896,6 8,6 z" display="block" enable-background="accumulate" opacity="1" overflow="visible" visibility="visible" style="marker:none"/><path id="path3315" fill="#000" fill-opacity="1" stroke="none" stroke-dasharray="none" stroke-miterlimit="4" stroke-width="1" d="M 8,3.465116 C 5.4994229,3.465116 3.4651163,5.499423 3.4651163,8 C 3.4651163,10.500577 5.4994229,12.534884 8,12.534884 C 10.500576,12.534883 12.534884,10.500577 12.534884,8 C 12.534884,5.499423 10.500576,3.465116 8,3.465116 z M 8,5.55814 C 9.347907,5.55814 10.44186,6.652093 10.44186,8 C 10.44186,9.347907 9.347907,10.44186 8,10.44186 C 6.652093,10.44186 5.5581395,9.347907 5.5581395,8 C 5.5581395,6.652093 6.652093,5.55814 8,5.55814 z" opacity=".05"/><path id="path28" fill="none" stroke="url(#linearGradient3260)" stroke-dasharray="none" stroke-miterlimit="4" stroke-width="1" d="M 8.0000001,4 C 5.7943997,4 3.9999999,5.7944001 3.9999999,8.0000008 C 3.9999999,10.2056 5.7943997,12 8.0000001,12 C 10.2056,12 12,10.2056 12,8.0000008 C 12,5.7944001 10.2056,4 8.0000001,4 z"/></g></g></svg>