<svg xmlns="http://www.w3.org/2000/svg" xmlns:svg="http://www.w3.org/2000/svg" xmlns:xlink="http://www.w3.org/1999/xlink" id="svg2" width="24" height="24" version="1.0"><defs id="defs4"><radialGradient id="radialGradient4361" cx="605.714" cy="486.648" r="117.143" fx="605.714" fy="486.648" gradientTransform="matrix(-2.774389,0,0,1.969706,112.7623,-872.8854)" gradientUnits="userSpaceOnUse" xlink:href="#linearGradient5060"/><linearGradient id="linearGradient5060"><stop id="stop5062" offset="0" stop-color="#000" stop-opacity="1"/><stop id="stop5064" offset="1" stop-color="#000" stop-opacity="0"/></linearGradient><radialGradient id="radialGradient4359" cx="605.714" cy="486.648" r="117.143" fx="605.714" fy="486.648" gradientTransform="matrix(2.774389,0,0,1.969706,-1891.633,-872.8854)" gradientUnits="userSpaceOnUse" xlink:href="#linearGradient5060"/><linearGradient id="linearGradient5048"><stop id="stop5050" offset="0" stop-color="#000" stop-opacity="0"/><stop id="stop5056" offset=".5" stop-color="#000" stop-opacity="1"/><stop id="stop5052" offset="1" stop-color="#000" stop-opacity="0"/></linearGradient><linearGradient id="linearGradient4357" x1="302.857" x2="302.857" y1="366.648" y2="609.505" gradientTransform="matrix(2.774389,0,0,1.969706,-1892.179,-872.8854)" gradientUnits="userSpaceOnUse" xlink:href="#linearGradient5048"/><linearGradient id="linearGradient5157"><stop id="stop5159" offset="0" stop-color="#c1c1c1" stop-opacity="1"/><stop id="stop5161" offset="1" stop-color="#909090" stop-opacity="1"/></linearGradient><linearGradient id="linearGradient5163" x1="9.876" x2="9.876" y1="2.601" y2="23.062" gradientUnits="userSpaceOnUse" xlink:href="#linearGradient5157"/><linearGradient id="linearGradient11111"><stop id="stop11113" offset="0" stop-color="#fff" stop-opacity="1"/><stop id="stop11115" offset=".91" stop-color="#cdcdcd" stop-opacity="1"/><stop id="stop11117" offset="1" stop-color="#a1a1a1" stop-opacity="1"/></linearGradient><linearGradient id="linearGradient4380" x1="-28.531" x2="-28.531" y1="17.956" y2="37.503" gradientTransform="translate(34.378004,-14.501322)" gradientUnits="userSpaceOnUse" xlink:href="#linearGradient11111"/><linearGradient id="linearGradient3390"><stop id="stop3392" offset="0" stop-color="#425e7b" stop-opacity="1"/><stop id="stop3394" offset="1" stop-color="#7a91a7" stop-opacity="1"/></linearGradient><linearGradient id="linearGradient4377" x1="9.705" x2="9.705" y1="20.882" y2="4.303" gradientTransform="matrix(0.9945751,0,0,0.9945751,-0.3392671,1.7177729)" gradientUnits="userSpaceOnUse" xlink:href="#linearGradient3390"/><linearGradient id="linearGradient7012-661-145-733-759-865-745"><stop id="stop2699" offset="0" stop-color="#9cbbd9" stop-opacity="1"/><stop id="stop2701" offset="1" stop-color="#5c82ab" stop-opacity="1"/></linearGradient><radialGradient id="radialGradient3334" cx="7.819" cy="8.561" r="11.268" fx="7.819" fy="8.561" gradientTransform="matrix(1.6899516,0,0,1.0436086,-5.448971,0.9617527)" gradientUnits="userSpaceOnUse" xlink:href="#linearGradient7012-661-145-733-759-865-745"/><linearGradient id="linearGradient3752"><stop id="stop3754" offset="0" stop-color="#fff" stop-opacity="1"/><stop id="stop3760" offset=".848" stop-color="#fff" stop-opacity="1"/><stop id="stop3756" offset="1" stop-color="#fff" stop-opacity="0"/></linearGradient><radialGradient id="radialGradient4372" cx="4.02" cy="5.593" r="10.273" fx="4.02" fy="5.593" gradientTransform="matrix(-1.6802223e-2,1.3942814,-1.79662,-2.1650729e-2,14.152267,2.1566239)" gradientUnits="userSpaceOnUse" xlink:href="#linearGradient3752"/><linearGradient id="linearGradient8265-821-176-38-919-66-249"><stop id="stop2687" offset="0" stop-color="#fff" stop-opacity="1"/><stop id="stop2689" offset="1" stop-color="#fff" stop-opacity="0"/></linearGradient><linearGradient id="linearGradient3332" x1="18.031" x2="20.055" y1="16.408" y2="24.628" gradientUnits="userSpaceOnUse" xlink:href="#linearGradient8265-821-176-38-919-66-249"/><linearGradient id="linearGradient6209"><stop id="stop6211" offset="0" stop-color="#96979b" stop-opacity="1"/><stop id="stop6213" offset="1" stop-color="#000" stop-opacity=".341"/></linearGradient><linearGradient id="linearGradient2659" x1="173.096" x2="173.096" y1="75.319" y2="11.949" gradientTransform="matrix(0.9523505,0,0,0.9523505,-117.1021,-1.9494324)" gradientUnits="userSpaceOnUse" xlink:href="#linearGradient6209"/><linearGradient id="linearGradient11104"><stop id="stop11106" offset="0" stop-color="#333" stop-opacity="1"/><stop id="stop11108" offset="1" stop-color="#333" stop-opacity=".612"/></linearGradient><linearGradient id="linearGradient2657" x1="41.542" x2="41.485" y1="68.292" y2="4.536" gradientTransform="matrix(0.1323262,0,0,0.1375548,7.6676761,7.6826166)" gradientUnits="userSpaceOnUse" xlink:href="#linearGradient11104"/><linearGradient id="linearGradient2300"><stop id="stop2302" offset="0" stop-color="#343435" stop-opacity=".976"/><stop id="stop2304" offset="1" stop-color="#919295" stop-opacity="1"/></linearGradient><linearGradient id="linearGradient2655" x1="173.096" x2="173.096" y1="75.319" y2="11.949" gradientTransform="matrix(0.1323262,0,0,0.1375548,-9.496509,6.6473925)" gradientUnits="userSpaceOnUse" xlink:href="#linearGradient2300"/><linearGradient id="linearGradient4467"><stop id="stop4469" offset="0" stop-color="#fff" stop-opacity="1"/><stop id="stop4471" offset="1" stop-color="#fff" stop-opacity=".248"/></linearGradient><radialGradient id="radialGradient2653" cx="15.414" cy="13.078" r="6.656" fx="15.414" fy="13.078" gradientTransform="matrix(1.0064485,0,0,0.8130167,-3.3276971,-0.5826922)" gradientUnits="userSpaceOnUse" xlink:href="#linearGradient4467"/><linearGradient id="linearGradient4454"><stop id="stop4456" offset="0" stop-color="#a1a1a1" stop-opacity=".208"/><stop id="stop4458" offset="1" stop-color="#a1a1a1" stop-opacity=".678"/></linearGradient><radialGradient id="radialGradient2651" cx="18.241" cy="21.818" r="8.309" fx="18.241" fy="21.818" gradientUnits="userSpaceOnUse" xlink:href="#linearGradient4454"/><linearGradient id="linearGradient11114"><stop id="stop11116" offset="0" stop-color="#242424" stop-opacity=".992"/><stop id="stop11118" offset="1" stop-color="#656565" stop-opacity="1"/></linearGradient><linearGradient id="linearGradient2649" x1="-172.653" x2="-166.64" y1="99.667" y2="93.654" gradientTransform="matrix(0.1323262,0,0,0.1375548,41.439475,5.0886772)" gradientUnits="userSpaceOnUse" xlink:href="#linearGradient11114"/></defs><metadata id="metadata7"/><g id="layer1"><g id="g3490" stroke-dasharray="none" stroke-miterlimit="4" stroke-width="1.883" transform="matrix(0.5459263,0,0,0.5168524,-1.0020361,-0.5781821)"><g id="g5022" stroke-dasharray="none" stroke-miterlimit="4" stroke-width="104.962" display="inline" transform="matrix(2.165152e-2,0,0,1.485743e-2,43.0076,42.68539)"><rect id="rect4173" width="1339.633" height="478.357" x="-1559.252" y="-150.697" fill="url(#linearGradient4357)" fill-opacity="1" fill-rule="nonzero" stroke="none" stroke-dasharray="none" stroke-dashoffset="0" stroke-linecap="round" stroke-linejoin="miter" stroke-miterlimit="4" stroke-opacity="1" stroke-width="104.962" marker-end="none" marker-mid="none" marker-start="none" display="inline" opacity=".402" overflow="visible" visibility="visible" style="marker:none"/><path id="path5058" fill="url(#radialGradient4359)" fill-opacity="1" fill-rule="nonzero" stroke="none" stroke-dasharray="none" stroke-dashoffset="0" stroke-linecap="round" stroke-linejoin="miter" stroke-miterlimit="4" stroke-opacity="1" stroke-width="104.962" marker-end="none" marker-mid="none" marker-start="none" d="M -219.61876,-150.68038 C -219.61876,-150.68038 -219.61876,327.65041 -219.61876,327.65041 C -76.744594,328.55086 125.78146,220.48075 125.78138,88.454235 C 125.78138,-43.572302 -33.655436,-150.68036 -219.61876,-150.68038 z" display="inline" opacity=".402" overflow="visible" visibility="visible" style="marker:none"/><path id="path5018" fill="url(#radialGradient4361)" fill-opacity="1" fill-rule="nonzero" stroke="none" stroke-dasharray="none" stroke-dashoffset="0" stroke-linecap="round" stroke-linejoin="miter" stroke-miterlimit="4" stroke-opacity="1" stroke-width="104.962" marker-end="none" marker-mid="none" marker-start="none" d="M -1559.2523,-150.68038 C -1559.2523,-150.68038 -1559.2523,327.65041 -1559.2523,327.65041 C -1702.1265,328.55086 -1904.6525,220.48075 -1904.6525,88.454235 C -1904.6525,-43.572302 -1745.2157,-150.68036 -1559.2523,-150.68038 z" display="inline" opacity=".402" overflow="visible" visibility="visible" style="marker:none"/></g></g><path id="path3496" fill="url(#linearGradient4380)" fill-opacity="1" stroke="url(#linearGradient5163)" stroke-dasharray="none" stroke-linecap="round" stroke-linejoin="round" stroke-miterlimit="4" stroke-opacity="1" stroke-width="1.011" d="M 2.6510299,2.5338039 C 2.5654909,2.5338039 2.4921609,2.6265509 2.4921609,2.7223469 L 2.4921609,4.5257669 L 1.2953869,4.5257669 L 0.6916849,4.5257669 C 0.5849399,4.5257669 0.5010429,4.6206279 0.5010429,4.7143099 L 0.5010429,5.0913949 L 0.5010429,9.261687 C 0.4902679,13.216241 0.4692689,17.341005 0.4692689,20.98276 C 0.4983529,21.877795 1.0065099,22.487902 1.3589339,22.491102 C 2.3716699,22.500297 1.8982059,22.487073 2.4074689,22.491102 C 8.8778018,22.475003 15.986386,22.412929 22.456717,22.396831 C 22.510931,22.403749 20.980002,22.289106 20.995123,20.951336 C 20.995124,16.278389 20.493076,9.764344 20.493076,5.0913949 C 20.493076,4.9045169 20.477636,4.8005089 20.461302,4.7143099 C 20.448688,4.6477469 20.432606,4.6154399 20.397755,4.5886149 C 20.369893,4.5641639 20.343206,4.5315719 20.302434,4.5257669 L 10.467263,4.5257669 L 10.467263,2.7223469 C 10.467263,2.6265509 10.393932,2.5338039 10.308394,2.5338039 L 2.6510299,2.5338039 z" display="inline"/><path id="path3498" fill="url(#radialGradient3334)" fill-opacity="1" stroke="url(#linearGradient4377)" stroke-dasharray="none" stroke-linecap="round" stroke-linejoin="round" stroke-miterlimit="4" stroke-opacity="1" stroke-width="1" d="M 3.4993539,6.5471259 C 14.069256,6.5471259 16.529798,6.5475859 23.492859,6.5195869 C 23.492859,8.0900309 23.751015,22.559862 23.008747,22.559862 C 22.294699,22.559862 8.9630958,22.465511 2.0000369,22.49351 C 3.4717209,22.49351 3.4993539,21.870762 3.4993539,6.5471259 z" display="inline"/><path id="path3211" fill="none" fill-rule="evenodd" stroke="url(#radialGradient4372)" stroke-dasharray="none" stroke-linecap="butt" stroke-linejoin="miter" stroke-miterlimit="4" stroke-opacity="1" stroke-width=".981" d="M 22.938799,7.6088419 C 22.938799,7.6088419 6.1069979,7.7024519 4.5420029,7.5164729 C 4.4590639,21.345907 4.0410549,21.955515 4.0410549,21.955515" display="inline" opacity=".4"/><path id="path2608" fill="url(#linearGradient3332)" fill-opacity="1" fill-rule="evenodd" stroke="none" stroke-dasharray="none" stroke-dashoffset="0" stroke-linecap="round" stroke-linejoin="round" stroke-miterlimit="4" stroke-opacity="1" stroke-width="1.002" d="M 3.21875,5.34375 C 1.6798019,5.34375 0.40625,6.617302 0.40625,8.15625 L 0.40625,24.15625 C 0.41214423,24.442483 0.55466957,24.768827 0.78125,24.96875 C 1.0078275,25.168671 1.2974446,25.253022 1.625,25.21875 C 1.635415,25.219016 1.645835,25.219016 1.65625,25.21875 L 46.65625,18.09375 C 47.178023,18.01146 47.586456,17.55942 47.59375,17.03125 L 47.59375,8.15625 C 47.59375,6.617302 46.320198,5.34375 44.78125,5.34375 L 3.21875,5.34375 z" opacity=".2" transform="matrix(0.4450331,0,0,0.4023652,2.8192053,3.8498613)"/><g id="g3968" display="inline" transform="matrix(1.0321144,0,0,1.0265858,8.4524665e-2,0.8150387)"><path id="path11112" fill="url(#linearGradient2649)" fill-opacity="1" fill-rule="evenodd" stroke="#333" stroke-dasharray="none" stroke-linecap="round" stroke-linejoin="round" stroke-miterlimit="4" stroke-opacity="1" stroke-width=".75" d="M 16.835527,15.327332 L 22.752192,21.051512 L 21.932059,22.208525 L 16.036823,16.016494 L 16.835527,15.327332 z"/><path id="path13082" fill="#3e3e3e" fill-opacity="1" stroke="none" stroke-dasharray="none" stroke-linecap="round" stroke-linejoin="round" stroke-miterlimit="4" stroke-opacity="1" stroke-width="4.253" d="M 248.35479,110.29199 A 5.3124018,2.6562009 0 1 1 237.72999,110.29199 A 5.3124018,2.6562009 0 1 1 248.35479,110.29199 z" transform="matrix(0.1311877,-0.152415,0.1466215,0.1363713,-25.682419,43.655661)"/><path id="path4452" fill="url(#radialGradient2651)" fill-opacity="1" fill-rule="evenodd" stroke="none" stroke-dasharray="none" stroke-dashoffset="0" stroke-linecap="round" stroke-linejoin="miter" stroke-miterlimit="4" stroke-opacity="1" stroke-width="1.526" marker-end="none" marker-mid="none" marker-start="none" d="M 25.897786,18.478292 A 8.3085051,8.3085051 0 1 1 9.280776,18.478292 A 8.3085051,8.3085051 0 1 1 25.897786,18.478292 z" transform="matrix(0.4879693,0,0,0.494916,5.030665,3.3199676)" visibility="visible" style="marker:none"/><path id="path4462" fill="url(#radialGradient2653)" fill-opacity="1" fill-rule="evenodd" stroke="none" stroke-dasharray="none" stroke-dashoffset="0" stroke-linecap="round" stroke-linejoin="miter" stroke-miterlimit="4" stroke-opacity="1" stroke-width=".75" marker-end="none" marker-mid="none" marker-start="none" d="M 13.446684,8.9252989 C 11.425378,8.9252989 9.7885819,10.447634 9.7885819,12.32759 C 9.7885819,12.87053 9.9517238,13.370086 10.195037,13.825719 C 10.681144,13.992362 11.197525,14.105743 11.745591,14.105743 C 14.140824,14.105743 16.053735,12.350676 16.20155,10.157404 C 15.529683,9.4189608 14.56744,8.9252989 13.446684,8.9252989 z" display="inline" opacity=".834" overflow="visible" visibility="visible" style="marker:none"/><path id="path2298" fill="url(#linearGradient2655)" fill-opacity="1" stroke="url(#linearGradient2657)" stroke-dasharray="none" stroke-linecap="round" stroke-linejoin="round" stroke-miterlimit="4" stroke-opacity="1" stroke-width=".75" d="M 13.524565,8.3589321 C 11.034645,8.3589321 9.0130671,10.296693 9.0130684,12.683311 C 9.0130684,15.069929 11.034645,17.00769 13.524565,17.00769 C 16.014483,17.00769 18.036061,15.069929 18.036061,12.683311 C 18.036061,10.296694 16.014485,8.3589321 13.524565,8.3589321 z M 13.578322,8.6426389 C 15.806816,8.6426389 17.618407,10.37533 17.618407,12.511368 C 17.618407,14.647406 15.806816,16.380097 13.578322,16.380097 C 11.349827,16.380097 9.5423732,14.647406 9.5423732,12.511368 C 9.5423732,10.37533 11.349827,8.6426389 13.578322,8.6426389 z"/><path id="path4267" fill="url(#linearGradient2659)" fill-opacity="1" stroke="none" stroke-dasharray="none" stroke-linecap="round" stroke-linejoin="round" stroke-miterlimit="4" stroke-opacity="1" stroke-width="5.559" d="M 48.577332,9.920532 C 30.657402,9.920532 16.139832,23.33446 16.139832,39.858033 C 16.139832,56.381604 30.657392,69.795535 48.577332,69.795533 C 66.497262,69.795533 81.046082,56.381602 81.046082,39.858033 C 81.046082,23.334461 66.497252,9.920532 48.577332,9.920532 z M 48.764832,11.076782 C 65.605742,11.076782 79.296082,23.673148 79.296082,39.201783 C 79.296082,54.730415 65.605742,67.326783 48.764832,67.326783 C 31.923912,67.326785 18.264832,54.730417 18.264832,39.201783 C 18.264832,23.673148 31.923912,11.076782 48.764832,11.076782 z" display="inline" transform="matrix(0.1323262,0,0,0.1375548,7.1254574,7.1189744)"/></g></g></svg>