<svg xmlns="http://www.w3.org/2000/svg" xmlns:svg="http://www.w3.org/2000/svg" xmlns:xlink="http://www.w3.org/1999/xlink" id="svg2" width="24" height="24" version="1.1"><defs id="defs6"><linearGradient id="linearGradient3797"><stop id="stop3799" offset="0" stop-color="#9e9e9e" stop-opacity="1"/><stop id="stop3801" offset="1" stop-color="#878787" stop-opacity="1"/></linearGradient><linearGradient id="linearGradient3681"><stop id="stop3683" offset="0" stop-color="#fff" stop-opacity="1"/><stop id="stop3685" offset="1" stop-color="#fff" stop-opacity="0"/></linearGradient><linearGradient id="linearGradient3671"><stop id="stop3673" offset="0" stop-color="#9e9e9e" stop-opacity="1"/><stop id="stop3675" offset="1" stop-color="#656565" stop-opacity="1"/></linearGradient><linearGradient id="linearGradient3665"><stop id="stop3667" offset="0" stop-color="#686868" stop-opacity="1"/><stop id="stop3669" offset="1" stop-color="#d2d2d2" stop-opacity="1"/></linearGradient><linearGradient id="linearGradient3635"><stop id="stop3637" offset="0" stop-color="#dfdfdf" stop-opacity="1"/><stop id="stop3639" offset="1" stop-color="#686868" stop-opacity="1"/></linearGradient><linearGradient id="linearGradient3617" x1="3.985" x2="1.071" y1="6.931" y2="13.935" gradientTransform="translate(0,7.000492)" gradientUnits="userSpaceOnUse" xlink:href="#linearGradient3635"/><linearGradient id="linearGradient3625" x1="19.995" x2="22.956" y1="7.587" y2="14.058" gradientTransform="translate(0,7.000492)" gradientUnits="userSpaceOnUse" xlink:href="#linearGradient3635"/><linearGradient id="linearGradient3663" x1="12.111" x2="12.021" y1="34.127" y2="23.232" gradientTransform="translate(0,-0.999508)" gradientUnits="userSpaceOnUse" xlink:href="#linearGradient3665"/><linearGradient id="linearGradient3677" x1="9.934" x2="9.899" y1="23.191" y2="31.014" gradientTransform="translate(0,-0.999508)" gradientUnits="userSpaceOnUse" xlink:href="#linearGradient3671"/><linearGradient id="linearGradient3687" x1="9.934" x2="9.899" y1="23.191" y2="31.014" gradientTransform="translate(0,-0.999508)" gradientUnits="userSpaceOnUse" xlink:href="#linearGradient3681"/><linearGradient id="linearGradient3695" x1="3.28" x2="8.206" y1="7.259" y2="11.273" gradientTransform="translate(0,7.000492)" gradientUnits="userSpaceOnUse" xlink:href="#linearGradient3671"/><linearGradient id="linearGradient3703" x1="11.334" x2="11.149" y1="1.761" y2="13.319" gradientTransform="matrix(1.0134538,0,0,0.65864057,-0.16139607,11.843857)" gradientUnits="userSpaceOnUse" xlink:href="#linearGradient3797"/><linearGradient id="linearGradient3711" x1="21.551" x2="17.099" y1="9.225" y2="10.495" gradientTransform="translate(0,7.000492)" gradientUnits="userSpaceOnUse" xlink:href="#linearGradient3671"/><linearGradient id="linearGradient3719" x1="14.443" x2="14.522" y1="15.124" y2="10.836" gradientTransform="matrix(0.99609579,0,0,1.1930934,0.04701667,2.7972321)" gradientUnits="userSpaceOnUse" xlink:href="#linearGradient3671"/><linearGradient id="linearGradient3725" x1="12.76" x2="12.876" y1="12.822" y2="2.806" gradientTransform="matrix(1.0134538,0,0,0.65864057,-0.16139607,11.843857)" gradientUnits="userSpaceOnUse" xlink:href="#linearGradient3665"/><linearGradient id="linearGradient3756" x1="12.987" x2="12.941" y1="14.997" y2="29.699" gradientTransform="matrix(0.99735741,0,0,1.1253974,0.03182357,-4.7317107)" gradientUnits="userSpaceOnUse" xlink:href="#linearGradient3635"/><linearGradient id="linearGradient3803" x1="12.552" x2="12.407" y1="6.247" y2="-1.205" gradientTransform="matrix(1.0092219,0,0,0.7670215,-0.11070411,11.517704)" gradientUnits="userSpaceOnUse" xlink:href="#linearGradient3681"/><linearGradient id="linearGradient2512-6" x1="16.571" x2="44.095" y1="14.002" y2="14.002" gradientTransform="matrix(0,0.319447,-0.313352,0,15.486281,0.91413)" gradientUnits="userSpaceOnUse" xlink:href="#linearGradient4168"/><linearGradient id="linearGradient4168"><stop id="stop4170" offset="0" stop-color="#f8cd70" stop-opacity="1"/><stop id="stop4172" offset="1" stop-color="#cc9110" stop-opacity="1"/></linearGradient><linearGradient id="linearGradient4222-4"><stop id="stop4224-1" offset="0" stop-color="#fff" stop-opacity="1"/><stop id="stop4226-0" offset="1" stop-color="#fff" stop-opacity="0"/></linearGradient><linearGradient id="linearGradient2883" x1="36.992" x2="-7.201" y1="20.441" y2="20.441" gradientTransform="matrix(0,-0.3704967,-0.3617496,0,17.508315,17.332054)" gradientUnits="userSpaceOnUse" xlink:href="#linearGradient4222-4"/></defs><g id="layer2" transform="translate(0,-8)"><path id="path3593" fill="url(#linearGradient3756)" fill-opacity="1" stroke="url(#linearGradient3719)" stroke-dasharray="none" stroke-linejoin="round" stroke-miterlimit="4" stroke-width="1.009" d="m 18.465685,19.477602 -12.863814,0.04187 -4.97181548,8.972634 22.82498548,0 -4.989356,-9.014514 z"/><path id="path3597" fill="url(#linearGradient3725)" fill-opacity="1" stroke="url(#linearGradient3703)" stroke-dasharray="none" stroke-linecap="round" stroke-linejoin="round" stroke-miterlimit="4" stroke-width="1" d="m 3.3929166,19.573827 17.1818374,0.0077 4.94e-4,-6.076251 -17.1939038,0.02698 0.011572,6.041542 4e-7,2.9e-5 z"/><path id="path3599" fill="url(#linearGradient3617)" fill-opacity="1" stroke="url(#linearGradient3695)" stroke-linecap="round" stroke-linejoin="round" stroke-opacity="1" d="M 3.3951458,13.504038 0.50325307,20.514671 0.59114225,28.572 4.5347381,19.153508 4.5259144,13.571371 3.3951458,13.504038 z"/><path id="path3601" fill="url(#linearGradient3625)" fill-opacity="1" stroke="url(#linearGradient3711)" stroke-linecap="round" stroke-linejoin="round" d="m 19.51666,19.052566 -0.0409,-5.567514 1.126387,0.0014 2.886075,6.981389 -0.006,8.080717 -3.965562,-9.495992 z"/><path id="path3655" fill="url(#linearGradient3663)" fill-opacity="1" stroke="url(#linearGradient3677)" stroke-linejoin="round" stroke-opacity="1" d="m 23.568964,28.522777 -0.07992,-7.984784 -5.970221,-0.03876 0.02244,3.012871 -11.0207251,0.04096 -0.018512,-3.017275 -5.90011489,-0.03876 -0.0799439,8.025738 23.04699689,8e-6 z"/><path id="path3793" fill="none" stroke="url(#linearGradient3803)" stroke-dasharray="none" stroke-linecap="round" stroke-linejoin="round" stroke-miterlimit="4" stroke-width="1" d="M 22.463903,20.692494 20.00689,14.483248 3.9906617,14.514706 1.5446799,20.642573" opacity=".81"/><path id="path3679" fill="none" stroke="url(#linearGradient3687)" stroke-linejoin="round" stroke-opacity="1" d="m 22.58596,27.498834 -0.03896,-6.018772 -4.045175,0.0022 0.02244,3.012871 -12.9867293,0.04096 0.022446,-3.017274 -4.0569856,0.04316 0.00197,5.977815 21.0809909,-0.04096 z" opacity=".5"/><g id="layer1" transform="matrix(0.99997102,0,0,1,4.000232,6.9999998)"><path id="path3288" fill="url(#linearGradient2512-6)" fill-opacity="1" fill-rule="nonzero" stroke="#bf8407" stroke-dasharray="none" stroke-dashoffset="0" stroke-linecap="round" stroke-linejoin="round" stroke-miterlimit="4" stroke-opacity="1" stroke-width=".998" d="M 14.176046,8.5 7.9844847,1.499147 1.8239536,8.5 l 2.676046,0 0,6.000853 7.0000004,0 0,-6.000853 2.676046,0 z" display="inline" overflow="visible" visibility="visible" style="marker:none"/><path id="path3290" fill="none" stroke="url(#linearGradient2883)" stroke-dasharray="none" stroke-dashoffset="0" stroke-linecap="butt" stroke-linejoin="miter" stroke-miterlimit="4" stroke-opacity="1" stroke-width=".998" d="M 11.926403,7.5 8,2.954885 3.9630616,7.5 l 1.536938,0 0,6 5.0000004,0 0,-6 1.426403,0 z" display="inline" opacity=".354" overflow="visible" visibility="visible" style="marker:none"/></g></g></svg>