<svg xmlns="http://www.w3.org/2000/svg" xmlns:svg="http://www.w3.org/2000/svg" xmlns:xlink="http://www.w3.org/1999/xlink" id="svg1" width="64" height="64" version="1.0"><defs id="defs3"><linearGradient id="linearGradient2790"><stop id="stop2792" offset="0" stop-color="#000" stop-opacity="1"/><stop id="stop2794" offset="1" stop-color="#000" stop-opacity="0"/></linearGradient><linearGradient id="linearGradient2780"><stop id="stop2782" offset="0" stop-color="#fff" stop-opacity="1"/><stop id="stop2784" offset="1" stop-color="#fff" stop-opacity="0"/></linearGradient><linearGradient id="linearGradient6621"><stop id="stop6622" offset="0" stop-color="#f5a108" stop-opacity="0"/><stop id="stop6623" offset="1" stop-color="#fefdc3" stop-opacity=".743"/></linearGradient><linearGradient id="linearGradient7881" x1="22.82" x2="12.85" y1="28.829" y2="12.239" gradientTransform="matrix(1.4125286,0,0,0.7265943,1.6664317,6.2125354)" gradientUnits="userSpaceOnUse" xlink:href="#linearGradient6621"/><linearGradient id="linearGradient2786" x1="24" x2="24" y1="5.079" y2="41.079" gradientTransform="matrix(1.3373432,0,0,1.3416742,-0.2629916,2.323733)" gradientUnits="userSpaceOnUse" xlink:href="#linearGradient2780"/><radialGradient id="radialGradient2796" cx="24.375" cy="37.75" r="17.375" fx="24.375" fy="37.75" gradientTransform="matrix(1.3333352,0,0,0.5899288,-3.7916374e-8,28.813597)" gradientUnits="userSpaceOnUse" xlink:href="#linearGradient2790"/><linearGradient id="linearGradient3242"><stop id="stop3244" offset="0" stop-color="#f8b17e" stop-opacity="1"/><stop id="stop3246" offset=".312" stop-color="#e35d4f" stop-opacity="1"/><stop id="stop3248" offset=".571" stop-color="#c6262e" stop-opacity="1"/><stop id="stop3250" offset="1" stop-color="#690b54" stop-opacity="1"/></linearGradient><linearGradient id="linearGradient2490"><stop id="stop2492" offset="0" stop-color="#791235" stop-opacity="1"/><stop id="stop2494" offset="1" stop-color="#dd3b27" stop-opacity="1"/></linearGradient><linearGradient id="linearGradient3853" x1="24" x2="24" y1="6" y2="51" gradientTransform="matrix(1.3140645,0,0,1.3309371,0.3073108,0.2733841)" gradientUnits="userSpaceOnUse" xlink:href="#linearGradient3242"/><linearGradient id="linearGradient3861" x1="17" x2="17" y1="45" y2="6" gradientTransform="matrix(1.3140645,0,0,1.3309371,0.3073108,0.2733841)" gradientUnits="userSpaceOnUse" xlink:href="#linearGradient2490"/></defs><path id="path2788" fill="url(#radialGradient2796)" fill-opacity="1" fill-rule="nonzero" stroke="none" stroke-width="1" d="M 55.666743,51.083404 C 55.666743,56.74433 45.294659,61.333417 32.500045,61.333417 C 19.705431,61.333417 9.3333462,56.74433 9.3333462,51.083404 C 9.3333462,45.422478 19.705431,40.83339 32.500045,40.83339 C 45.294659,40.83339 55.666743,45.422478 55.666743,51.083404 z" display="inline" opacity=".3" overflow="visible" visibility="visible" style="marker:none"/><path id="path7876" fill="url(#linearGradient7881)" fill-opacity="1" fill-rule="evenodd" stroke="none" d="M 18.716614,11.333628 C 11.559417,10.981485 8.2250827,15.577348 6.4214664,19.949343 C 4.6316036,25.706691 7.161716,36.580967 19.560463,35.753697 C 26.632648,35.753697 29.443588,28.504104 33.165641,26.622151 C 36.548291,25.343681 36.814519,25.229259 40.388341,25.229259 C 45.354842,25.229259 54.336166,21.636471 54.336169,18.071587 C 52.809583,15.210985 48.756702,10.116695 41.309274,10.984957 C 36.568684,11.536468 32.083805,14.923667 30.912289,16.609148 C 28.04247,14.07899 24.378146,11.333628 18.716614,11.333628 z"/><path id="path920" fill="url(#linearGradient3853)" fill-opacity="1" fill-rule="evenodd" stroke="url(#linearGradient3861)" stroke-dasharray="none" stroke-linecap="butt" stroke-linejoin="miter" stroke-miterlimit="4" stroke-opacity="1" stroke-width="1" d="M 31.63009,13.847095 C 43.836006,1.4896083 60.609794,12.879556 60.49946,24.599072 C 60.398593,35.312749 52.333394,40.443661 32.071433,59.500087 C 10.863264,41.772159 3.3908657,37.684032 3.5012017,24.972613 C 3.6115375,11.814366 17.971314,1.9390416 31.63009,13.847095 z"/><path id="path2778" fill="none" stroke="url(#linearGradient2786)" stroke-dasharray="none" stroke-linecap="butt" stroke-linejoin="miter" stroke-miterlimit="4" stroke-opacity="1" stroke-width="1" d="M 19.964325,9.577159 C 18.850933,9.4815379 17.740991,9.5057015 16.704551,9.6610138 C 9.7888687,10.69734 4.5656348,17.028726 4.5012937,24.629067 C 4.4477813,30.73562 6.0478013,34.429132 10.477546,39.13592 C 14.746712,43.672083 21.822151,50.106435 32,58.500084 C 41.739734,49.465931 48.788448,42.416 53.147155,37.668462 C 57.670346,32.741767 59.451815,29.272279 59.499534,24.25172 C 59.548723,19.07622 55.67616,13.642405 50.347092,11.086543 C 45.018023,8.53068 38.474599,8.6607673 32.669086,14.482655 C 32.120413,15.021692 31.25454,15.057886 30.663071,14.56651 C 26.95016,11.36019 23.304503,9.8640217 19.964325,9.577159 L 19.964325,9.577159 z" opacity=".4"/></svg>