<svg xmlns="http://www.w3.org/2000/svg" xmlns:svg="http://www.w3.org/2000/svg" xmlns:xlink="http://www.w3.org/1999/xlink" id="svg11300" width="64" height="64" version="1.0"><defs id="defs3"><linearGradient id="linearGradient6672"><stop id="stop6674" offset="0" stop-color="#000" stop-opacity="1"/><stop id="stop6676" offset="1" stop-color="#000" stop-opacity="0"/></linearGradient><linearGradient id="linearGradient9942"><stop id="stop9944" offset="0" stop-color="#a0a0a0" stop-opacity="1"/><stop id="stop9946" offset=".519" stop-color="#828282" stop-opacity="1"/><stop id="stop9948" offset=".685" stop-color="#5a5a5a" stop-opacity="1"/><stop id="stop9950" offset=".765" stop-color="#5a5a5a" stop-opacity="1"/><stop id="stop9952" offset=".914" stop-color="#828282" stop-opacity="1"/><stop id="stop9954" offset="1" stop-color="#6e6e6e" stop-opacity="1"/></linearGradient><linearGradient id="linearGradient9920"><stop id="stop9922" offset="0" stop-color="#f0f0f0" stop-opacity="1"/><stop id="stop9924" offset=".519" stop-color="#c8c8c8" stop-opacity="1"/><stop id="stop9926" offset=".685" stop-color="#a0a0a0" stop-opacity="1"/><stop id="stop9928" offset=".765" stop-color="#a0a0a0" stop-opacity="1"/><stop id="stop9930" offset=".914" stop-color="#c8c8c8" stop-opacity="1"/><stop id="stop9932" offset="1" stop-color="#dcdcdc" stop-opacity="1"/></linearGradient><linearGradient id="linearGradient9827"><stop id="stop9829" offset="0" stop-color="#000" stop-opacity="0"/><stop id="stop9835" offset=".584" stop-color="#000" stop-opacity=".265"/><stop id="stop9831" offset="1" stop-color="#000" stop-opacity="0"/></linearGradient><linearGradient id="linearGradient2264"><stop id="stop2266" offset="0" stop-color="#d7e866" stop-opacity="1"/><stop id="stop2268" offset="1" stop-color="#8cab2a" stop-opacity="1"/></linearGradient><linearGradient id="linearGradient4222"><stop id="stop4224" offset="0" stop-color="#fff" stop-opacity="1"/><stop id="stop4226" offset="1" stop-color="#fff" stop-opacity="0"/></linearGradient><linearGradient id="linearGradient9821" x1="40.125" x2="44.563" y1="12.625" y2="17.125" gradientTransform="translate(-1.2779322,2.0302001)" gradientUnits="userSpaceOnUse" xlink:href="#linearGradient2264"/><linearGradient id="linearGradient9833" x1="39.89" x2="43.968" y1="13" y2="17.688" gradientTransform="matrix(0.9480828,0,0,0.9426665,0.96263487,2.8188689)" gradientUnits="userSpaceOnUse" xlink:href="#linearGradient9827"/><linearGradient id="linearGradient9914" x1="10.866" x2="22.517" y1="47.686" y2="16.166" gradientTransform="matrix(0.9996532,0,0,1.0200807,-1.2701235,1.0319849)" gradientUnits="userSpaceOnUse" xlink:href="#linearGradient9920"/><linearGradient id="linearGradient9940" x1="13.34" x2="23.386" y1="48.039" y2="18.074" gradientTransform="matrix(0.9996532,0,0,1.0200807,-1.2701235,1.0319849)" gradientUnits="userSpaceOnUse" xlink:href="#linearGradient9942"/><radialGradient id="radialGradient6680" cx="15.459" cy="51.218" r="10.625" fx="15.459" fy="51.218" gradientTransform="matrix(1.5823527,-0.1070592,0.01707452,0.2523643,-16.19807,39.780717)" gradientUnits="userSpaceOnUse" xlink:href="#linearGradient6672"/><filter id="filter6722" width="1.137" height="1.97" x="-.068" y="-.485" color-interpolation-filters="sRGB"><feGaussianBlur id="feGaussianBlur6724" collect="always" stdDeviation=".606"/></filter><radialGradient id="radialGradient6346" cx=".836" cy="32.749" r="13.125" fx=".836" fy="32.749" gradientTransform="matrix(0.43574339,-0.08810095,0.12612856,0.6144526,16.921358,11.828851)" gradientUnits="userSpaceOnUse" xlink:href="#linearGradient4222"/><radialGradient id="radialGradient6348" cx="36.258" cy="18.125" r="7.553" fx="36.258" fy="18.125" gradientTransform="matrix(0.72407974,-0.17954082,0.13508217,0.51579536,6.0304968,17.13073)" gradientUnits="userSpaceOnUse" xlink:href="#linearGradient4222"/></defs><g id="g6744" transform="matrix(1.33,0,0,1.33,-3.95135,-10.06015)"><path id="path6670" fill="url(#radialGradient6680)" fill-opacity="1" fill-rule="evenodd" stroke="none" d="m 5.7001218,51.863814 22.2500002,0 -12.682,-3.9 -9.5680002,3.9 z" filter="url(#filter6722)" opacity=".3"/><g id="g5527"><path id="path5748" fill="url(#linearGradient9821)" fill-opacity="1" stroke="#366407" stroke-dasharray="none" stroke-miterlimit="4" stroke-opacity="1" stroke-width=".752" d="m 43.557183,11.266411 -10.652944,8.941634 c -0.459065,0.427336 -0.711696,0.997121 -0.711696,1.604961 0,0.607842 0.252631,1.177975 0.711696,1.604964 l 0.783643,0.729339 c 0.950834,0.88505 3.401909,0.199704 4.352744,-0.685348 l 9.369358,-8.550609 c 0.950834,-0.885051 1.186295,-2.219785 0.23505,-3.104835 l -0.78364,-0.729686 c -0.950426,-0.884353 -2.353378,-0.695122 -3.304211,0.18958 z" display="inline" enable-background="new"/><path id="path9823" fill="url(#linearGradient9833)" fill-opacity="1" stroke="none" d="m 43.478777,11.814308 -9.994698,8.395277 c -0.434508,0.401226 -0.541041,0.803613 -0.541041,1.374312 0,0.570701 0.01815,0.973416 0.452653,1.374314 l 0.741724,0.684774 c 0.899972,0.830971 2.512824,0.408472 3.412794,-0.4225 l 9.354301,-8.381697 c 0.89997,-0.830971 1.388001,-1.818984 0.48764,-2.649956 l -0.785915,-0.729294 c -0.899584,-0.830315 -2.227489,-0.475871 -3.127458,0.35477 z" display="inline" enable-background="new"/><path id="path9837" fill="none" stroke="url(#radialGradient6348)" stroke-dasharray="none" stroke-linecap="butt" stroke-linejoin="miter" stroke-miterlimit="4" stroke-opacity="1" stroke-width=".773" d="m 33.285554,21.009144 11.325978,-9.228601 c 1.072245,-0.499906 1.122751,-0.289681 1.381219,-0.223994 0.491099,0.240561 0.982197,0.627226 1.473297,1.343969 0.155838,0.373326 0.104778,0.746651 -0.230204,1.119977 l -10.036842,8.959808 c -0.844078,0.440625 -1.688154,0.852533 -2.532232,0.94078 -0.575722,-0.19371 -1.095384,-0.496516 -1.427256,-1.164776 -0.144755,-0.47853 -0.816039,-0.615509 0.04604,-1.747163 z" opacity=".6"/><path id="path5784" fill="url(#linearGradient9914)" fill-opacity="1" stroke="url(#linearGradient9940)" stroke-dasharray="none" stroke-linejoin="round" stroke-miterlimit="4" stroke-opacity="1" stroke-width=".752" d="m 33.842691,21.529225 c -0.548527,-0.0041 -1.462946,0.417906 -1.922569,0.887094 -0.98134,1.000933 -0.7185,2.170934 -0.7185,5.674199 0,1.02649 -2.265155,2.346437 -2.919498,2.346437 -0.03242,-3.9e-4 -0.06106,0 -0.09372,0 -2.092872,0 -8.902952,-0.0012 -10.996185,2.918834 -2.093233,2.919997 -9.9340531,16.191295 -9.9340531,18.138309 3.1396691,10e-7 25.9456851,-11.567452 27.1155921,-12.655376 1.415105,-1.316254 0.727087,-3.97021 -0.187435,-5.737954 0.0062,-0.0082 -0.0039,-0.02205 0,-0.03188 0.02544,-0.0639 0.01875,-0.148731 -0.06248,-0.286898 -0.490149,-0.833758 -0.749742,-1.668987 -0.74974,-2.837099 0,-2.948492 0.304195,-4.45492 1.030892,-5.196036 0.654342,-0.667643 1.232646,-1.92965 0.40611,-2.773344 -0.309953,-0.316385 -0.639299,-0.443831 -0.968414,-0.446286 z"/><path id="path9956" fill="none" stroke="url(#radialGradient6346)" stroke-dasharray="none" stroke-linejoin="miter" stroke-miterlimit="4" stroke-opacity="1" stroke-width=".752" d="m 33.375055,22.505043 c -1.489903,0.664433 -0.779405,4.292142 -0.869284,5.568482 0.163718,1.23835 -3.316789,3.032817 -4.019444,2.893656 -0.03065,-3.68e-4 -8.725985,0.06229 -10.704633,2.814613 -3.42153,5.174843 -6.354645,10.061799 -9.20014,16.153305 8.1907,-3.002776 16.627107,-7.176249 24.870805,-11.739955 1.781172,-0.947211 0.07456,-4.218401 -0.267918,-5.237215 -0.46332,-0.78588 -0.803758,-1.604593 -0.803756,-2.705625 0,-2.779173 0.350913,-5.299731 1.037831,-5.998289 1.466509,-1.170326 0.659614,-2.362596 -0.04346,-1.748972 z" display="inline" enable-background="new" opacity=".6"/></g></g></svg>