<svg xmlns="http://www.w3.org/2000/svg" xmlns:svg="http://www.w3.org/2000/svg" xmlns:xlink="http://www.w3.org/1999/xlink" id="svg2963" width="64" height="64" version="1.1"><defs id="defs3"><linearGradient id="linearGradient5784"><stop id="stop5786" offset="0" stop-color="#000" stop-opacity="1"/><stop id="stop5788" offset="1" stop-color="#000" stop-opacity="0"/></linearGradient><linearGradient id="linearGradient3919"><stop id="stop3921" offset="0" stop-color="#fff" stop-opacity="1"/><stop id="stop3923" offset="1" stop-color="#fff" stop-opacity="0"/></linearGradient><linearGradient id="linearGradient3251"><stop id="stop3253" offset="0" stop-color="#695337" stop-opacity="1"/><stop id="stop3255" offset="1" stop-color="#695337" stop-opacity="0"/></linearGradient><linearGradient id="linearGradient3275"><stop id="stop3277" offset="0" stop-color="#fff" stop-opacity="0"/><stop id="stop3283" offset=".245" stop-color="#fff" stop-opacity="1"/><stop id="stop3285" offset=".774" stop-color="#fff" stop-opacity="1"/><stop id="stop3279" offset="1" stop-color="#fff" stop-opacity="0"/></linearGradient><linearGradient id="linearGradient3199"><stop id="stop3201" offset="0" stop-color="#dac197" stop-opacity="1"/><stop id="stop3203" offset=".239" stop-color="#c1a581" stop-opacity="1"/><stop id="stop3205" offset=".276" stop-color="#dbc298" stop-opacity="1"/><stop id="stop3207" offset="1" stop-color="#a68b60" stop-opacity="1"/></linearGradient><linearGradient id="linearGradient3295"><stop id="stop3297" offset="0" stop-color="#c3a67d" stop-opacity="1"/><stop id="stop3299" offset=".239" stop-color="#a17d4f" stop-opacity="1"/><stop id="stop3301" offset=".276" stop-color="#bb9b71" stop-opacity="1"/><stop id="stop3303" offset="1" stop-color="#836945" stop-opacity="1"/></linearGradient><linearGradient id="linearGradient3681-3"><stop id="stop3683-8" offset="0" stop-color="#000" stop-opacity="1"/><stop id="stop3685-0" offset="1" stop-color="#000" stop-opacity="0"/></linearGradient><linearGradient id="linearGradient3703-9"><stop id="stop3705-0" offset="0" stop-color="#000" stop-opacity="0"/><stop id="stop3711-2" offset=".5" stop-color="#000" stop-opacity="1"/><stop id="stop3707-8" offset="1" stop-color="#000" stop-opacity="0"/></linearGradient><linearGradient id="linearGradient3250" x1="24.823" x2="24.997" y1="15.378" y2="37.277" gradientTransform="matrix(1.4073019,0,0,1.4697691,-2.0034399,2.0686836)" gradientUnits="userSpaceOnUse" xlink:href="#linearGradient3199"/><linearGradient id="linearGradient3252" x1="15.464" x2="15.464" y1="7.976" y2="45.042" gradientTransform="matrix(1.0975467,0,0,0.94381628,4.658879,16.500348)" gradientUnits="userSpaceOnUse" xlink:href="#linearGradient3295"/><linearGradient id="linearGradient3313" x1="11.124" x2="13.168" y1="21.563" y2="21.563" gradientTransform="matrix(-1.6243493,0,0,-1.302046,66.365711,63.057)" gradientUnits="userSpaceOnUse" xlink:href="#linearGradient3251"/><linearGradient id="linearGradient3325" x1="10.749" x2="12.11" y1="21.5" y2="21.5" gradientTransform="matrix(1.6045929,0,0,-1.291556,-3.6419112,62.822115)" gradientUnits="userSpaceOnUse" xlink:href="#linearGradient3251"/><linearGradient id="linearGradient3328" x1="22.188" x2="22.188" y1="20" y2="24.08" gradientTransform="matrix(1.359477,0,0,1.3333333,-0.40522932,-0.33333215)" gradientUnits="userSpaceOnUse" xlink:href="#linearGradient3251"/><radialGradient id="radialGradient3351" cx="5" cy="41.5" r="5" fx="5" fy="41.5" gradientTransform="matrix(0.5938225,0,0,1.5366531,-6.6594735,-103.93618)" gradientUnits="userSpaceOnUse" xlink:href="#linearGradient3681-3"/><linearGradient id="linearGradient3353" x1="17.554" x2="17.554" y1="46" y2="35" gradientTransform="matrix(1.7570316,0,0,1.3969574,-17.394014,-16.411698)" gradientUnits="userSpaceOnUse" xlink:href="#linearGradient3703-9"/><radialGradient id="radialGradient3355" cx="5" cy="41.5" r="5" fx="5" fy="41.5" gradientTransform="matrix(0.5938225,0,0,1.5366531,41.140892,-103.93618)" gradientUnits="userSpaceOnUse" xlink:href="#linearGradient3681-3"/><linearGradient id="linearGradient3359" x1="44.995" x2="3.005" y1="17.5" y2="17.5" gradientTransform="matrix(1.0008041,0,0,1.3020459,6.9807017,10.714196)" gradientUnits="userSpaceOnUse" spreadMethod="reflect" xlink:href="#linearGradient3275"/><linearGradient id="linearGradient4137" x1="20.781" x2="20.813" y1="24.594" y2="23.531" gradientTransform="matrix(1.409611,0,0,1.3020459,-1.8318043,0.5587934)" gradientUnits="userSpaceOnUse" xlink:href="#linearGradient5784"/><linearGradient id="linearGradient3777" x1="23" x2="23" y1="19" y2="44" gradientTransform="matrix(1.3413116,0,0,1.3311315,-0.52082005,-0.44292295)" gradientUnits="userSpaceOnUse" xlink:href="#linearGradient3919"/><linearGradient id="linearGradient3470"><stop id="stop3472" offset="0" stop-color="#f5e0be" stop-opacity="1"/><stop id="stop3474" offset="1" stop-color="#8ae234" stop-opacity="1"/></linearGradient><linearGradient id="linearGradient3517"><stop id="stop3519" offset="0" stop-color="#fff" stop-opacity="1"/><stop id="stop3521" offset="1" stop-color="#eeeeec" stop-opacity="1"/></linearGradient><linearGradient id="linearGradient3539"><stop id="stop3541" offset="0" stop-color="#fff" stop-opacity="1"/><stop id="stop3543" offset="1" stop-color="#888a85" stop-opacity="1"/></linearGradient><linearGradient id="linearGradient3551"><stop id="stop3553" offset="0" stop-color="#fff" stop-opacity="1"/><stop id="stop3555" offset="1" stop-color="#888a85" stop-opacity="1"/></linearGradient><linearGradient id="linearGradient3786"><stop id="stop3788" offset="0" stop-color="#888a85" stop-opacity="1"/><stop id="stop3790" offset="1" stop-color="#2e3436" stop-opacity="1"/></linearGradient><linearGradient id="linearGradient3792"><stop id="stop3794" offset="0" stop-color="#fff" stop-opacity="1"/><stop id="stop3796" offset=".5" stop-color="#fff" stop-opacity="1"/><stop id="stop3798" offset="1" stop-color="#888a85" stop-opacity="1"/></linearGradient><linearGradient id="linearGradient3800"><stop id="stop3802" offset="0" stop-color="#babdb6" stop-opacity="1"/><stop id="stop3804" offset=".5" stop-color="#eeeeec" stop-opacity="1"/><stop id="stop3806" offset="1" stop-color="#babdb6" stop-opacity="1"/></linearGradient><linearGradient id="linearGradient3887"><stop id="stop3889" offset="0" stop-color="#edd400" stop-opacity="1"/><stop id="stop3891" offset="1" stop-color="#fce94f" stop-opacity="1"/></linearGradient><linearGradient id="linearGradient3919-2"><stop id="stop3921-2" offset="0" stop-color="#fff" stop-opacity="1"/><stop id="stop3923-2" offset="1" stop-color="#fff" stop-opacity="0"/></linearGradient><linearGradient id="linearGradient2384"><stop id="stop2386" offset="0" stop-color="#5c3566" stop-opacity="1"/><stop id="stop2388" offset="1" stop-color="#43274b" stop-opacity="1"/></linearGradient><linearGradient id="linearGradient2394"><stop id="stop2396" offset="0" stop-color="#5c3566" stop-opacity="1"/><stop id="stop2398" offset="1" stop-color="#45284d" stop-opacity="1"/></linearGradient><linearGradient id="linearGradient3972" x1="23" x2="23" y1="19" y2="44" gradientTransform="matrix(1.3010929,0,0,1.3010929,-100.71636,-1.1584265)" gradientUnits="userSpaceOnUse" xlink:href="#linearGradient3919-2"/><radialGradient id="radialGradient4144" cx="19.219" cy="22.255" r="4.469" fx="19.219" fy="22.255" gradientTransform="matrix(1.5959856,0,0,0.85714465,-4.95572,11.150896)" gradientUnits="userSpaceOnUse" xlink:href="#linearGradient3786"/><linearGradient id="linearGradient4164" x1="27.617" x2="35.258" y1="15.721" y2="15.5" gradientTransform="matrix(1,0,0,-1,0,48)" gradientUnits="userSpaceOnUse" xlink:href="#linearGradient3800"/><radialGradient id="radialGradient4166" cx="31.264" cy="12.943" r="4.556" fx="31.264" fy="12.943" gradientTransform="matrix(1.3566902,0,0,0.7525334,-11.151648,1.0040626)" gradientUnits="userSpaceOnUse" xlink:href="#linearGradient3792"/><linearGradient id="linearGradient4168" x1="30.369" x2="30.513" y1="6.712" y2="24.091" gradientUnits="userSpaceOnUse" xlink:href="#linearGradient3919-2"/><radialGradient id="radialGradient4170" cx="27.233" cy="22.5" r="7" fx="27.233" fy="22.5" gradientTransform="matrix(1.5151192,0,0,0.96315959,-12.01881,0.87027858)" gradientUnits="userSpaceOnUse" xlink:href="#linearGradient3470"/><linearGradient id="linearGradient4172" x1="30.5" x2="30.5" y1="18.665" y2="26" gradientTransform="matrix(1.0760185,0,0,1.0760185,-2.2379264,-1.8227636)" gradientUnits="userSpaceOnUse" xlink:href="#linearGradient3919-2"/><linearGradient id="linearGradient4174" x1="13.896" x2="12.92" y1="4.666" y2="13.139" gradientUnits="userSpaceOnUse" xlink:href="#linearGradient3887"/><linearGradient id="linearGradient4176" x1="14.177" x2="13.837" y1="2.159" y2="13.282" gradientUnits="userSpaceOnUse" xlink:href="#linearGradient3919-2"/><linearGradient id="linearGradient4178" x1="13.896" x2="12.92" y1="4.666" y2="13.139" gradientUnits="userSpaceOnUse" xlink:href="#linearGradient3887"/><linearGradient id="linearGradient4180" x1="14" x2="14" y1="3" y2="16.361" gradientUnits="userSpaceOnUse" xlink:href="#linearGradient3919-2"/><linearGradient id="linearGradient4208" x1="13.563" x2="13.563" y1="19.844" y2="21.313" gradientUnits="userSpaceOnUse" xlink:href="#linearGradient2394"/><linearGradient id="linearGradient4210" x1="2.052" x2="2.052" y1="23.776" y2="20.549" gradientTransform="translate(13,0)" gradientUnits="userSpaceOnUse" xlink:href="#linearGradient3517"/><linearGradient id="linearGradient4212" x1="12.813" x2="12.813" y1="16.279" y2="13.742" gradientTransform="translate(3,0)" gradientUnits="userSpaceOnUse" xlink:href="#linearGradient3539"/><linearGradient id="linearGradient4233" x1="12.813" x2="12.813" y1="16.279" y2="13.742" gradientTransform="matrix(1.3454965,0,0,1.2654978,0.38935613,1.1366042)" gradientUnits="userSpaceOnUse" xlink:href="#linearGradient3539"/><linearGradient id="linearGradient4243" x1="2.052" x2="2.052" y1="23.776" y2="20.549" gradientTransform="matrix(1.3454965,0,0,1.2654978,13.844316,1.1366029)" gradientUnits="userSpaceOnUse" xlink:href="#linearGradient3517"/><linearGradient id="linearGradient4246" x1="10.5" x2="10.5" y1="19.837" y2="21.077" gradientTransform="matrix(1.3454965,0,0,1.2654978,0.38935613,1.1366042)" gradientUnits="userSpaceOnUse" xlink:href="#linearGradient2384"/><linearGradient id="linearGradient4248" x1="20.813" x2="22.719" y1="15.281" y2="24.594" gradientUnits="userSpaceOnUse" xlink:href="#linearGradient2384"/><linearGradient id="linearGradient4250" x1="2.052" x2="2.052" y1="23.776" y2="20.549" gradientTransform="matrix(0.9659258,0.258819,0.258819,-0.9659258,12.365949,46.030428)" gradientUnits="userSpaceOnUse" xlink:href="#linearGradient3517"/><linearGradient id="linearGradient4252" x1="12.5" x2="12.5" y1="16.248" y2="13.748" gradientTransform="translate(3,0)" gradientUnits="userSpaceOnUse" xlink:href="#linearGradient3551"/></defs><g id="g3305" display="inline" opacity=".4" transform="matrix(1.0789808,0,0,0.65076495,5.2121632,30.861976)"><rect id="rect2484" width="2.96" height="15.367" x="-3.69" y="-47.848" fill="url(#radialGradient3351)" fill-opacity="1" stroke="none" transform="scale(-1,-1)"/><rect id="rect2486" width="40.412" height="15.367" x="3.69" y="32.482" fill="url(#linearGradient3353)" fill-opacity="1" stroke="none"/><rect id="rect3444" width="2.96" height="15.367" x="44.11" y="-47.848" fill="url(#radialGradient3355)" fill-opacity="1" stroke="none" display="inline" transform="scale(1,-1)"/></g><path id="path2488" fill="url(#linearGradient3250)" fill-opacity="1" fill-rule="nonzero" stroke="url(#linearGradient3252)" stroke-dasharray="none" stroke-dashoffset="0" stroke-linecap="round" stroke-linejoin="miter" stroke-miterlimit="4" stroke-opacity="1" stroke-width=".994" d="m 14.548572,24.522787 32.375127,0 c 1.88996,0 2.740489,-0.270451 3.283369,0.943815 l 3.294544,7.550531 0,24.231454 c 0,1.46604 0.112975,1.242044 -1.776998,1.242044 l -41.449227,0 c -1.8899679,0 -1.7769984,0.223996 -1.7769984,-1.242044 l 0,-24.231454 3.2945444,-7.550531 c 0.527734,-1.189739 0.865671,-0.943815 2.755639,-0.943815 z" display="block" overflow="visible" visibility="visible" style="marker:none"/><path id="path4194" fill="none" stroke="url(#linearGradient3777)" stroke-dasharray="none" stroke-dashoffset="0" stroke-linecap="butt" stroke-linejoin="miter" stroke-miterlimit="4" stroke-opacity="1" stroke-width=".994" d="m 52.502902,33.168152 c -1.101916,-2.543959 -2.255809,-5.068749 -3.325256,-7.62468 -0.873749,-0.10158 -2.121683,-2.05e-4 -3.15244,-0.02932 -11.044292,-1.7e-5 -22.088677,2.8e-5 -33.132911,0 -1.18748,2.522838 -2.254447,5.107274 -3.3951942,7.654" display="block" opacity=".5" overflow="visible" visibility="visible" style="marker:none"/><path d="m 15.611112,25 c -0.563165,0 -0.743563,0.09388 -0.892158,0.208335 -0.148595,0.114455 -0.341401,0.356032 -0.509803,0.833332 L 12,33 51,33 48.748366,26.291668 C 48.4647,25.600087 48.261702,25.377173 48.068627,25.250001 47.87555,25.122825 47.580803,25 46.921568,25 l -31.310456,0 z" style="marker:none" id="path3692" fill="url(#linearGradient3328)" fill-opacity="1" fill-rule="nonzero" stroke="none" stroke-width="1" color="#000" display="block" opacity=".6" overflow="visible" visibility="visible"/><path d="m 15.262201,25.366991 c -0.664703,0 -0.877628,0.09094 -1.053015,0.201806 -0.175387,0.110871 -0.402956,0.344877 -0.601723,0.807224 L 11,33.116327 l 7.822391,0 0,-7.749336 -3.56019,0 z" style="marker:none" id="path3694" fill="url(#linearGradient3325)" fill-opacity="1" fill-rule="nonzero" stroke="none" stroke-width="1" color="#000" display="block" opacity=".6" overflow="visible" visibility="visible"/><path d="m 47.228839,25.297666 c 0.672888,0 0.88843,0.09168 1.065977,0.203446 0.177551,0.11177 0.40792,0.347678 0.60913,0.813778 l 2.639571,6.795052 -7.918704,0 0,-7.812276 3.604026,0 z" style="marker:none" id="path3696" fill="url(#linearGradient3313)" fill-opacity="1" fill-rule="nonzero" stroke="none" stroke-width="1" color="#000" display="block" opacity=".67" overflow="visible" visibility="visible"/><path id="path3772" fill="none" stroke="url(#linearGradient3777)" stroke-dasharray="none" stroke-dashoffset="0" stroke-linecap="round" stroke-linejoin="miter" stroke-miterlimit="4" stroke-opacity="1" stroke-width=".994" d="m 9.4971008,33.5 c 0,8.111582 0,15.891317 0,24.002901 14.3352592,0 28.6705432,0 43.0058012,0 0,-8.111584 0,-15.891319 0,-24.002901" display="block" opacity=".5" overflow="visible" visibility="visible" style="marker:none"/><g id="g3899" opacity=".84" transform="matrix(1.2134692,0,0,1.2862571,8.5114306,-0.72134415)"><path id="path3901" fill="url(#linearGradient4178)" fill-opacity="1" fill-rule="nonzero" stroke="#c4a000" stroke-dashoffset="0" stroke-linecap="round" stroke-linejoin="round" stroke-miterlimit="4" stroke-opacity="1" stroke-width=".8" d="m 11.5,2.5 5,0 L 16.391747,23.437502 11.5,23.500002 11.5,2.5 z" color="#000" display="inline" enable-background="accumulate" overflow="visible" visibility="visible" style="marker:none"/><rect id="rect3903" width="3" height="19" x="12.5" y="3.5" fill="none" stroke="url(#linearGradient4180)" stroke-dasharray="none" stroke-dashoffset="0" stroke-linecap="round" stroke-linejoin="miter" stroke-miterlimit="4" stroke-opacity="1" stroke-width=".8" color="#000" display="inline" enable-background="accumulate" opacity=".5" overflow="visible" visibility="visible" style="marker:none"/><g id="g3905"><rect id="rect3907" width="2" height="1.031" x="14" y="6" fill="#c4a000" fill-opacity="1" fill-rule="nonzero" stroke="none" stroke-width="1" color="#000" display="inline" enable-background="accumulate" opacity=".621" overflow="visible" visibility="visible" style="marker:none"/><rect id="rect3909" width="2" height="1.031" x="14" y="9" fill="#c4a000" fill-opacity="1" fill-rule="nonzero" stroke="none" stroke-width="1" color="#000" display="inline" enable-background="accumulate" opacity=".621" overflow="visible" visibility="visible" style="marker:none"/><rect id="rect3911" width="2" height="1.031" x="14" y="12" fill="#c4a000" fill-opacity="1" fill-rule="nonzero" stroke="none" stroke-width="1" color="#000" display="inline" enable-background="accumulate" opacity=".621" overflow="visible" visibility="visible" style="marker:none"/><rect id="rect3913" width="2" height="1.031" x="14" y="15" fill="#c4a000" fill-opacity="1" fill-rule="nonzero" stroke="none" stroke-width="1" color="#000" display="inline" enable-background="accumulate" opacity=".621" overflow="visible" visibility="visible" style="marker:none"/><rect id="rect3915" width="2" height="1.031" x="14" y="18" fill="#c4a000" fill-opacity="1" fill-rule="nonzero" stroke="none" stroke-width="1" color="#000" display="inline" enable-background="accumulate" opacity=".621" overflow="visible" visibility="visible" style="marker:none"/></g></g><g id="g3877" transform="matrix(1.1193506,-0.65945231,0.64625727,1.1422051,-6.9914721,17.532295)"><path id="rect3846" fill="url(#linearGradient4174)" fill-opacity="1" fill-rule="nonzero" stroke="#b89600" stroke-dashoffset="0" stroke-linecap="round" stroke-linejoin="round" stroke-miterlimit="4" stroke-opacity="1" stroke-width=".766" d="m 11.5,2.5 5,0 L 16.391747,23.437502 11.586278,20.663063 11.5,2.5 z" color="#000" display="inline" enable-background="accumulate" overflow="visible" visibility="visible" style="marker:none"/><path id="rect3858" fill="none" stroke="url(#linearGradient4176)" stroke-dashoffset="0" stroke-linecap="round" stroke-linejoin="miter" stroke-miterlimit="4" stroke-opacity="1" stroke-width=".766" d="m 12.5,3.5 3,0 0,19.000002 L 12.587921,21.035219 12.5,3.5 z" color="#000" display="inline" enable-background="accumulate" opacity=".5" overflow="visible" visibility="visible" style="marker:none"/><g id="g3870"><rect id="rect3860" width="2" height="1.031" x="14" y="6" fill="#c4a000" fill-opacity="1" fill-rule="nonzero" stroke="none" stroke-width="1" color="#000" display="inline" enable-background="accumulate" opacity=".621" overflow="visible" visibility="visible" style="marker:none"/><rect id="rect3862" width="2" height="1.031" x="14" y="9" fill="#c4a000" fill-opacity="1" fill-rule="nonzero" stroke="none" stroke-width="1" color="#000" display="inline" enable-background="accumulate" opacity=".621" overflow="visible" visibility="visible" style="marker:none"/><rect id="rect3864" width="2" height="1.031" x="14" y="12" fill="#c4a000" fill-opacity="1" fill-rule="nonzero" stroke="none" stroke-width="1" color="#000" display="inline" enable-background="accumulate" opacity=".621" overflow="visible" visibility="visible" style="marker:none"/><rect id="rect3866" width="2" height="1.031" x="14" y="15" fill="#c4a000" fill-opacity="1" fill-rule="nonzero" stroke="none" stroke-width="1" color="#000" display="inline" enable-background="accumulate" opacity=".621" overflow="visible" visibility="visible" style="marker:none"/><rect id="rect3868" width="2" height="1.031" x="14" y="18" fill="#c4a000" fill-opacity="1" fill-rule="nonzero" stroke="none" stroke-width="1" color="#000" display="inline" enable-background="accumulate" opacity=".621" overflow="visible" visibility="visible" style="marker:none"/></g></g><path id="path3698" fill="url(#radialGradient4144)" fill-opacity="1" fill-rule="nonzero" stroke="#2e3436" stroke-dasharray="none" stroke-dashoffset="0" stroke-linecap="round" stroke-linejoin="round" stroke-miterlimit="4" stroke-opacity="1" stroke-width="1" d="m 27.994037,28.145081 c -2.850369,0 -5.163713,1.748668 -5.163713,3.903278 0,0.457109 0.133992,0.893349 0.325274,1.301093 l 9.676878,0 c 0.191282,-0.407744 0.325273,-0.843984 0.325273,-1.301093 0,-2.15461 -2.313344,-3.903278 -5.163712,-3.903278 z" color="#000" display="inline" enable-background="accumulate" overflow="visible" visibility="visible" style="marker:none"/><g id="g3927" transform="matrix(1.2364698,0.33674756,-0.33131104,1.2567592,13.462001,-15.49615)"><g id="g3700" transform="translate(-2,20)"><path id="path3702" fill="url(#linearGradient4164)" fill-opacity="1" fill-rule="nonzero" stroke="#888a85" stroke-dasharray="none" stroke-dashoffset="0" stroke-linecap="round" stroke-linejoin="miter" stroke-miterlimit="4" stroke-opacity="1" stroke-width=".775" d="m 32.5,6.5 c -2.207764,0 -4,0.672 -4,1.5 L 28.47473,26.250876 36.5,25.5 c -2.14e-4,-6.54711 0,-14.060322 0,-17.5 0,-0.828 -1.792236,-1.5 -4,-1.5 z" color="#000" display="inline" enable-background="accumulate" overflow="visible" transform="translate(0,-20)" visibility="visible" style="marker:none"/><path id="path3704" fill="#fff" fill-opacity="1" fill-rule="nonzero" stroke="url(#radialGradient4166)" stroke-dasharray="none" stroke-dashoffset="0" stroke-linecap="round" stroke-linejoin="miter" stroke-miterlimit="4" stroke-opacity="1" stroke-width=".862" d="m 36.504387,8.2694378 a 3.999573,1.8561554 0 1 1 -7.999146,0 3.999573,1.8561554 0 1 1 7.999146,0 z" color="#000" display="inline" enable-background="accumulate" overflow="visible" transform="matrix(1,0,0,0.808122,0,-18.682714)" visibility="visible" style="marker:none"/><path id="path3706" fill="none" stroke="#888a85" stroke-dashoffset="0" stroke-linecap="round" stroke-linejoin="miter" stroke-miterlimit="4" stroke-opacity="1" stroke-width=".775" d="m 36.504387,-4.999999 c 0,0.828 -1.791809,1.499999 -3.999573,1.499999 -2.207764,0 -3.999573,-0.671999 -3.999573,-1.499999" color="#000" display="inline" enable-background="accumulate" opacity=".529" overflow="visible" visibility="visible" style="marker:none"/></g><path id="path3708" fill="none" stroke="url(#linearGradient4168)" stroke-dasharray="none" stroke-dashoffset="0" stroke-linecap="round" stroke-linejoin="miter" stroke-miterlimit="4" stroke-opacity="1" stroke-width=".775" d="M 30.5,7.5 C 29.496989,7.5 28.599735,7.661827 28.03125,7.875 27.765957,7.974481 27.579146,8.061242 27.5,8.125 l 0,17.375 6,0 c -4.58e-4,-6.397466 -5.1e-5,-13.894689 0,-17.375 C 33.420854,8.061242 33.234043,7.974481 32.96875,7.875 32.400265,7.661827 31.503011,7.5 30.5,7.5 z" color="#000" display="inline" enable-background="accumulate" opacity=".5" overflow="visible" visibility="visible" style="marker:none"/></g><path id="path3718" fill="#75507b" fill-opacity="1" fill-rule="nonzero" stroke="url(#linearGradient4246)" stroke-dasharray="none" stroke-dashoffset="0" stroke-linecap="round" stroke-linejoin="round" stroke-miterlimit="4" stroke-opacity="1" stroke-width="1" d="m 15.86256,19.703829 -1.345496,7.37548 0,6.327488 5.381986,0 0,-13.702968 -1.009123,-0.217508 -1.009122,0 -1.009122,0 -1.009123,0.217508 z" color="#000" display="inline" enable-background="accumulate" overflow="visible" visibility="visible" style="marker:none"/><path d="m 16.871683,20.119071 -0.420467,0.07909 -1.261404,6.881145 0.02103,-0.197735 0,6.881145 2.690994,-0.0099 -0.02104,-6.675219 1.345497,-6.879465 -0.336375,-0.07909 -1.009122,0 -1.009122,0 z" style="marker:none" id="path3720" fill="url(#linearGradient4243)" fill-opacity="1" fill-rule="nonzero" stroke="none" stroke-width="1" color="#000" display="inline" enable-background="accumulate" overflow="visible" visibility="visible"/><g id="g2417" transform="matrix(1.3454965,0,0,1.2654978,0.38935613,1.1366042)"><path id="path2387" fill="#5c3566" fill-opacity="1" fill-rule="nonzero" stroke="url(#linearGradient4208)" stroke-dasharray="none" stroke-dashoffset="0" stroke-linecap="round" stroke-linejoin="round" stroke-miterlimit="4" stroke-opacity="1" stroke-width=".766" d="m 14.5,14.671875 -1,5.828125 0,5 4,0 0,-10.828125 L 16.75,14.5 l -0.75,0 -0.75,0 -0.75,0.171875 z" color="#000" display="inline" enable-background="accumulate" overflow="visible" visibility="visible" style="marker:none"/><path d="M 15.25,15 14.9375,15.0625 14,20.5 l 0.01563,-0.15625 0,5.4375 2,-0.0078 L 16,20.498673 17,15.0625 16.75,15 16,15 15.25,15 z" style="marker:none" id="path2391" fill="url(#linearGradient4210)" fill-opacity="1" fill-rule="nonzero" stroke="none" stroke-width="1" color="#000" display="inline" enable-background="accumulate" overflow="visible" visibility="visible"/><path d="M 15.25,15 14.9375,15.0625 14,20.5 16,20.498673 17,15.0625 16.75,15 16,15 15.25,15 z" style="marker:none" id="path2393" fill="url(#linearGradient4212)" fill-opacity="1" fill-rule="nonzero" stroke="none" stroke-width="1" color="#000" display="inline" enable-background="accumulate" overflow="visible" visibility="visible"/><path id="path2395" fill="#000" fill-opacity="1" fill-rule="evenodd" stroke="none" d="m 15.6875,17.5 -0.375,3 0.09375,5.28125 0.0625,-5.28125 0.21875,-3 z" opacity=".318"/><path id="path2397" fill="#000" fill-opacity="1" fill-rule="evenodd" stroke="none" d="m 15.3125,15.03125 -1,5.46875 0.09375,5.28125 0.0625,-5.28125 0.84375,-5.46875 z" opacity=".268"/><path id="path2399" fill="#000" fill-opacity="1" fill-rule="evenodd" stroke="none" d="M 15.15625,18.4375 14.875,20.5 14.984375,24.609375 15.03125,20.5 l 0.125,-2.0625 z" opacity=".513"/></g><path d="m 16.871683,20.119071 -0.420467,0.07909 -1.261404,6.881145 2.690993,-0.0017 1.345497,-6.879465 -0.336375,-0.07909 -1.009122,0 -1.009122,0 z" style="marker:none" id="path3722" fill="url(#linearGradient4233)" fill-opacity="1" fill-rule="nonzero" stroke="none" stroke-width="1" color="#000" display="inline" enable-background="accumulate" overflow="visible" visibility="visible"/><path id="path3951" fill="#000" fill-opacity="1" fill-rule="evenodd" stroke="none" d="m 17.460337,23.282815 -0.504561,3.796494 0.126141,6.68341 0.08409,-6.68341 0.294327,-3.796494 z" opacity=".318"/><path id="path3948" fill="#000" fill-opacity="1" fill-rule="evenodd" stroke="none" d="m 16.955776,20.158617 -1.345496,6.920692 0.12614,6.68341 0.08409,-6.68341 1.135263,-6.920692 z" opacity=".268"/><g id="g2371" transform="matrix(1.2996498,-0.33245087,0.34824005,1.2407237,-0.03593931,8.0972199)"><path id="path3724" fill="#75507b" fill-opacity="1" fill-rule="nonzero" stroke="url(#linearGradient4248)" stroke-dasharray="none" stroke-dashoffset="0" stroke-linecap="round" stroke-linejoin="round" stroke-miterlimit="4" stroke-opacity="1" stroke-width=".761" d="m 19.75,15 -0.71875,0.1875 -0.75,0.21875 -0.65625,0.34375 0.53125,5.90625 0.953125,3.4375 4.125,0 L 20.6875,15.6875 C 20.446816,14.967169 20.013567,14.985925 19.75,15 z" color="#000" display="inline" enable-background="accumulate" overflow="visible" transform="matrix(0.9659259,0.258819,-0.258819,0.9659259,1.5651722,-5.1030033)" visibility="visible" style="marker:none"/><path id="path3726" fill="url(#linearGradient4250)" fill-opacity="1" fill-rule="nonzero" stroke="none" stroke-width="1" d="m 20.125,15.46875 -0.25,0.03125 -0.71875,0.1875 -0.75,0.1875 -0.28125,0.15625 0.5,5.3125 1.09375,4.15625 2.0625,0 -1.0625,-4.53125 -0.59375,-5.5 z" color="#000" display="inline" enable-background="accumulate" overflow="visible" transform="matrix(0.9659259,0.258819,-0.258819,0.9659259,1.5651722,-5.1030033)" visibility="visible" style="marker:none"/><path d="M 15.25,15 14.9375,15.0625 14,20.5 16.163058,20.493836 17,15.0625 16.75,15 16,15 15.25,15 z" style="marker:none" id="path3732" fill="url(#linearGradient4252)" fill-opacity="1" fill-rule="nonzero" stroke="none" stroke-width="1" color="#000" display="inline" enable-background="accumulate" overflow="visible" visibility="visible"/><path id="path3955" fill="#000" fill-opacity="1" fill-rule="evenodd" stroke="none" d="M 15.8125,17.78125 15.46875,20.5 15.549362,24.985096 15.625,20.5 15.8125,17.78125 z" opacity=".318"/><path id="path3957" fill="#000" fill-opacity="1" fill-rule="evenodd" stroke="none" d="M 14.573995,19.358831 14.3125,20.5 14.428658,22.196139 14.46875,20.5 14.573995,19.358831 z" opacity=".494"/><path id="path3959" fill="#000" fill-opacity="1" fill-rule="evenodd" stroke="none" d="M 15.802067,15.219871 14.875,20.5 14.984375,24.609375 15.03125,20.5 15.802067,15.219871 z" opacity=".318"/></g><path id="path3953" fill="#000" fill-opacity="1" fill-rule="evenodd" stroke="none" d="m 16.745543,24.46922 -0.378422,2.610089 0.147164,5.200404 0.06306,-5.200404 0.168187,-2.610089 z" opacity=".513"/><g id="g2433" transform="matrix(1.3010929,0,0,1.3010929,0.71175,0.1715846)"><path id="path3710" fill="#aacd37" fill-opacity="1" fill-rule="nonzero" stroke="#699536" stroke-dasharray="none" stroke-dashoffset="0" stroke-linecap="round" stroke-linejoin="miter" stroke-miterlimit="4" stroke-opacity="1" stroke-width=".769" d="m 26.161275,19.467031 c -0.962345,0 -1.729315,0.76697 -1.729315,1.729315 l 0,4.419362 12.297354,0 0,-4.419362 c 0,-0.962346 -0.76697,-1.729315 -1.729315,-1.729315 l -8.838724,0 z" color="#000" display="inline" enable-background="accumulate" overflow="visible" visibility="visible" style="marker:none"/><rect id="rect3712" width="11.529" height="3.843" x="24.816" y="22.157" fill="#c17d11" fill-opacity="1" fill-rule="nonzero" stroke="none" stroke-width="1" color="#000" display="inline" enable-background="accumulate" opacity=".625" overflow="visible" visibility="visible" style="marker:none"/><path id="path3714" fill="none" stroke="url(#linearGradient4172)" stroke-dashoffset="0" stroke-linecap="round" stroke-linejoin="miter" stroke-miterlimit="4" stroke-opacity="1" stroke-width=".769" d="m 25.940308,20.235616 c -0.431352,0 -0.739762,0.308412 -0.739762,0.739763 l 0,4.640329 10.760185,0 0,-4.640329 c 0,-0.431354 -0.30841,-0.739763 -0.739763,-0.739763 l -9.28066,0 z" color="#000" display="inline" enable-background="accumulate" opacity=".295" overflow="visible" visibility="visible" style="marker:none"/><rect id="rect3716" width="11.529" height=".769" x="24.816" y="22.157" fill="url(#radialGradient4170)" fill-opacity="1" fill-rule="nonzero" stroke="none" stroke-width="1" color="#000" display="inline" enable-background="accumulate" overflow="visible" rx="0" ry="0" visibility="visible" style="marker:none"/></g><rect id="rect4133" width="42" height="2" x="10" y="33" fill="#dac197" fill-opacity="1" stroke="none"/><path id="path3357" fill="none" stroke="url(#linearGradient3359)" stroke-linecap="square" stroke-linejoin="miter" stroke-opacity="1" stroke-width="1" d="m 10.488745,33.5 41.022511,0" display="inline" opacity=".4"/><path id="path3772-4" fill="none" stroke="url(#linearGradient3972)" stroke-dasharray="none" stroke-dashoffset="0" stroke-linecap="round" stroke-linejoin="miter" stroke-miterlimit="4" stroke-opacity="1" stroke-width=".994" d="m -87.705436,24.212885 c -1.151873,2.465906 -2.186848,4.992028 -3.293391,7.481284 0,7.928535 0,15.85707 0,23.785605 13.905422,0 27.810868,0 41.716291,0 0,-7.928535 0,-15.85707 0,-23.785605 -1.068878,-2.48655 -2.188174,-4.954364 -3.225553,-7.452618 -0.84755,-0.09929 -2.058063,-2.02e-4 -3.057914,-0.02866 -10.713133,-2e-5 -21.426356,2.6e-5 -32.139433,0 z" display="block" opacity=".5" overflow="visible" visibility="visible" style="marker:none"/><path id="path3730" fill="none" stroke="url(#linearGradient4137)" stroke-dashoffset="0" stroke-linecap="butt" stroke-linejoin="miter" stroke-miterlimit="4" stroke-opacity="1" stroke-width="1" d="m 14.775174,25.948689 c -0.252036,0 -0.393205,0.02813 -0.440505,0.04069 -0.04731,0.01248 -0.0026,0.01043 -0.04407,0.04069 -0.0083,0.0058 -0.164069,0.103143 -0.308352,0.488269 L 12,32.458924 l 38.499999,0 -2.026315,-5.655764 0,-0.04069 c -0.245189,-0.549046 -0.370077,-0.648018 -0.440506,-0.691709 -0.09898,-0.06139 -0.198621,-0.122066 -0.792906,-0.122066 l -32.465102,0 z" color="#000" display="block" opacity=".15" overflow="visible" visibility="visible" style="marker:none"/></svg>