<svg xmlns="http://www.w3.org/2000/svg" xmlns:svg="http://www.w3.org/2000/svg" xmlns:xlink="http://www.w3.org/1999/xlink" id="svg3486" width="64" height="64" version="1.0"><defs id="defs3488"><linearGradient id="linearGradient9936"><stop id="stop9938" offset="0" stop-color="#575757" stop-opacity="1"/><stop id="stop9940" offset="1" stop-color="#333" stop-opacity="1"/></linearGradient><linearGradient id="linearGradient2490"><stop id="stop2492" offset="0" stop-color="#791235" stop-opacity="1"/><stop id="stop2494" offset="1" stop-color="#dd3b27" stop-opacity="1"/></linearGradient><linearGradient id="linearGradient3242"><stop id="stop3244" offset="0" stop-color="#f8b17e" stop-opacity="1"/><stop id="stop3246" offset=".312" stop-color="#e35d4f" stop-opacity="1"/><stop id="stop3248" offset=".571" stop-color="#c6262e" stop-opacity="1"/><stop id="stop3250" offset="1" stop-color="#690b54" stop-opacity="1"/></linearGradient><linearGradient id="linearGradient3342"><stop id="stop3344" offset="0" stop-color="#fff" stop-opacity="0"/><stop id="stop3346" offset="1" stop-color="#fff" stop-opacity="1"/></linearGradient><linearGradient id="linearGradient3434"><stop id="stop3436" offset="0" stop-color="#fff" stop-opacity="0"/><stop id="stop3438" offset="1" stop-color="#fff" stop-opacity="1"/></linearGradient><linearGradient id="linearGradient3463"><stop id="stop3465" offset="0" stop-color="#000" stop-opacity="1"/><stop id="stop3467" offset="1" stop-color="#000" stop-opacity="0"/></linearGradient><linearGradient id="linearGradient3683" x1="15" x2="15" y1="17" y2="33.434" gradientTransform="matrix(1.3333333,0,0,1.310345,0.4999999,-13.810346)" gradientUnits="userSpaceOnUse" xlink:href="#linearGradient3434"/><linearGradient id="linearGradient3686" x1="14.499" x2="14.499" y1="44.179" y2="15.875" gradientTransform="matrix(1.4222224,0,0,1.3174689,-0.6333333,-13.851066)" gradientUnits="userSpaceOnUse" xlink:href="#linearGradient3434"/><linearGradient id="linearGradient3689" x1="22.056" x2="22.056" y1="15.834" y2="45.497" gradientTransform="matrix(1.3159837,0,0,1.3253406,1.2168818e-2,-15.140326)" gradientUnits="userSpaceOnUse" xlink:href="#linearGradient9936"/><radialGradient id="radialGradient3693" cx="-6.16" cy="36.686" r="14.098" fx="-6.16" fy="36.686" gradientTransform="matrix(1,0,0,0.3739496,0,22.967467)" gradientUnits="userSpaceOnUse" xlink:href="#linearGradient3463"/><radialGradient id="radialGradient3695" cx="-6.16" cy="36.686" r="14.098" fx="-6.16" fy="36.686" gradientTransform="matrix(1,0,0,0.3739496,0,22.967467)" gradientUnits="userSpaceOnUse" xlink:href="#linearGradient3463"/><radialGradient id="radialGradient3697" cx="-6.16" cy="36.686" r="14.098" fx="-6.16" fy="36.686" gradientTransform="matrix(1,0,0,0.3739496,0,22.967467)" gradientUnits="userSpaceOnUse" xlink:href="#linearGradient3463"/><linearGradient id="linearGradient3714" x1="143.915" x2="143.915" y1="75.221" y2="103.126" gradientTransform="matrix(1.5009986,0,0,1.4604107,-184.01667,-95.083372)" gradientUnits="userSpaceOnUse" xlink:href="#linearGradient3242"/><linearGradient id="linearGradient3716" x1="153.409" x2="153.409" y1="98.785" y2="75.221" gradientTransform="matrix(1.5009986,0,0,1.4604107,-184.01667,-95.083372)" gradientUnits="userSpaceOnUse" xlink:href="#linearGradient2490"/><radialGradient id="radialGradient3718" cx="-6.16" cy="36.686" r="14.098" fx="-6.16" fy="36.686" gradientTransform="matrix(1,0,0,0.3739496,0,22.967467)" gradientUnits="userSpaceOnUse" xlink:href="#linearGradient3463"/><linearGradient id="linearGradient4235" x1="153.409" x2="153.409" y1="98.785" y2="75.221" gradientTransform="matrix(1.5009986,0,0,1.4604107,-184.01667,-95.083372)" gradientUnits="userSpaceOnUse" xlink:href="#linearGradient3342"/><radialGradient id="radialGradient3206" cx="-6.16" cy="36.686" r="14.098" fx="-6.16" fy="36.686" gradientTransform="matrix(1,0,0,0.3739496,0,22.967467)" gradientUnits="userSpaceOnUse" xlink:href="#linearGradient3463"/><linearGradient id="linearGradient3208" x1="143.915" x2="143.915" y1="75.221" y2="103.126" gradientTransform="matrix(1.5009986,0,0,1.4604107,-184.01667,-95.083372)" gradientUnits="userSpaceOnUse" xlink:href="#linearGradient3242"/><linearGradient id="linearGradient3210" x1="153.409" x2="153.409" y1="98.785" y2="75.221" gradientTransform="matrix(1.5009986,0,0,1.4604107,-184.01667,-95.083372)" gradientUnits="userSpaceOnUse" xlink:href="#linearGradient2490"/><radialGradient id="radialGradient3212" cx="-6.16" cy="36.686" r="14.098" fx="-6.16" fy="36.686" gradientTransform="matrix(1,0,0,0.3739496,0,22.967467)" gradientUnits="userSpaceOnUse" xlink:href="#linearGradient3463"/><radialGradient id="radialGradient3214" cx="-6.16" cy="36.686" r="14.098" fx="-6.16" fy="36.686" gradientTransform="matrix(1,0,0,0.3739496,0,22.967467)" gradientUnits="userSpaceOnUse" xlink:href="#linearGradient3463"/><radialGradient id="radialGradient3216" cx="-6.16" cy="36.686" r="14.098" fx="-6.16" fy="36.686" gradientTransform="matrix(1,0,0,0.3739496,0,22.967467)" gradientUnits="userSpaceOnUse" xlink:href="#linearGradient3463"/><linearGradient id="linearGradient3218" x1="153.409" x2="153.409" y1="98.785" y2="75.221" gradientTransform="matrix(1.5009986,0,0,1.4604107,-184.01667,-95.083372)" gradientUnits="userSpaceOnUse" xlink:href="#linearGradient3342"/><linearGradient id="linearGradient3220" x1="22.056" x2="22.056" y1="15.834" y2="45.497" gradientTransform="matrix(1.3159837,0,0,1.3253406,1.2168818e-2,-15.140326)" gradientUnits="userSpaceOnUse" xlink:href="#linearGradient9936"/><linearGradient id="linearGradient3222" x1="14.499" x2="14.499" y1="44.179" y2="15.875" gradientTransform="matrix(1.4222224,0,0,1.3174689,-0.6333333,-13.851066)" gradientUnits="userSpaceOnUse" xlink:href="#linearGradient3434"/><linearGradient id="linearGradient3224" x1="15" x2="15" y1="17" y2="33.434" gradientTransform="matrix(1.3333333,0,0,1.310345,0.4999999,-13.810346)" gradientUnits="userSpaceOnUse" xlink:href="#linearGradient3434"/><radialGradient id="radialGradient3239" cx="-6.16" cy="36.686" r="14.098" fx="-6.16" fy="36.686" gradientTransform="matrix(1,0,0,0.3739496,0,22.967467)" gradientUnits="userSpaceOnUse" xlink:href="#linearGradient3463"/><linearGradient id="linearGradient3241" x1="143.915" x2="143.915" y1="75.221" y2="103.126" gradientTransform="matrix(1.5009986,0,0,1.4604107,-184.01667,-95.083372)" gradientUnits="userSpaceOnUse" xlink:href="#linearGradient3242"/><linearGradient id="linearGradient3243" x1="153.409" x2="153.409" y1="98.785" y2="75.221" gradientTransform="matrix(1.5009986,0,0,1.4604107,-184.01667,-95.083372)" gradientUnits="userSpaceOnUse" xlink:href="#linearGradient2490"/><radialGradient id="radialGradient3245" cx="-6.16" cy="36.686" r="14.098" fx="-6.16" fy="36.686" gradientTransform="matrix(1,0,0,0.3739496,0,22.967467)" gradientUnits="userSpaceOnUse" xlink:href="#linearGradient3463"/><radialGradient id="radialGradient3247" cx="-6.16" cy="36.686" r="14.098" fx="-6.16" fy="36.686" gradientTransform="matrix(1,0,0,0.3739496,0,22.967467)" gradientUnits="userSpaceOnUse" xlink:href="#linearGradient3463"/><radialGradient id="radialGradient3249" cx="-6.16" cy="36.686" r="14.098" fx="-6.16" fy="36.686" gradientTransform="matrix(1,0,0,0.3739496,0,22.967467)" gradientUnits="userSpaceOnUse" xlink:href="#linearGradient3463"/><linearGradient id="linearGradient3251" x1="153.409" x2="153.409" y1="98.785" y2="75.221" gradientTransform="matrix(1.5009986,0,0,1.4604107,-184.01667,-95.083372)" gradientUnits="userSpaceOnUse" xlink:href="#linearGradient3342"/><linearGradient id="linearGradient3253" x1="22.056" x2="22.056" y1="15.834" y2="45.497" gradientTransform="matrix(1.3159837,0,0,1.3253406,1.2168818e-2,-15.140326)" gradientUnits="userSpaceOnUse" xlink:href="#linearGradient9936"/><linearGradient id="linearGradient3255" x1="14.499" x2="14.499" y1="44.179" y2="15.875" gradientTransform="matrix(1.4222224,0,0,1.3174689,-0.6333333,-13.851066)" gradientUnits="userSpaceOnUse" xlink:href="#linearGradient3434"/><linearGradient id="linearGradient3257" x1="15" x2="15" y1="17" y2="33.434" gradientTransform="matrix(1.3333333,0,0,1.310345,0.4999999,-13.810346)" gradientUnits="userSpaceOnUse" xlink:href="#linearGradient3434"/><linearGradient id="linearGradient3260" x1="15" x2="15" y1="17" y2="33.434" gradientTransform="matrix(1.7500001,0,0,1.7586208,0.8749999,-18.758621)" gradientUnits="userSpaceOnUse" xlink:href="#linearGradient3434"/><linearGradient id="linearGradient3263" x1="14.499" x2="14.499" y1="44.179" y2="15.875" gradientTransform="matrix(1.866667,0,0,1.7681819,-0.6125,-18.813272)" gradientUnits="userSpaceOnUse" xlink:href="#linearGradient3434"/><linearGradient id="linearGradient3266" x1="22.056" x2="22.056" y1="15.834" y2="45.497" gradientTransform="matrix(1.7272287,0,0,1.7787465,0.2347216,-20.543594)" gradientUnits="userSpaceOnUse" xlink:href="#linearGradient9936"/><linearGradient id="linearGradient3269" x1="153.409" x2="153.409" y1="98.785" y2="75.221" gradientTransform="matrix(2.0013313,0,0,1.9640004,-245.52219,-128.21556)" gradientUnits="userSpaceOnUse" xlink:href="#linearGradient3342"/><radialGradient id="radialGradient3272" cx="-6.16" cy="36.686" r="14.098" fx="-6.16" fy="36.686" gradientTransform="matrix(0.517352,0,0,0.3900607,11.480545,43.190118)" gradientUnits="userSpaceOnUse" xlink:href="#linearGradient3463"/><radialGradient id="radialGradient3275" cx="-6.16" cy="36.686" r="14.098" fx="-6.16" fy="36.686" gradientTransform="matrix(1.6931519,0,0,0.3854196,35.299964,43.425814)" gradientUnits="userSpaceOnUse" xlink:href="#linearGradient3463"/><radialGradient id="radialGradient3278" cx="-6.16" cy="36.686" r="14.098" fx="-6.16" fy="36.686" gradientTransform="matrix(1.41096,0,0,0.3900607,50.800695,43.190118)" gradientUnits="userSpaceOnUse" xlink:href="#linearGradient3463"/><linearGradient id="linearGradient3281" x1="143.915" x2="143.915" y1="75.221" y2="103.126" gradientTransform="matrix(2.0013313,0,0,1.9640004,-245.52219,-128.21556)" gradientUnits="userSpaceOnUse" xlink:href="#linearGradient3242"/><linearGradient id="linearGradient3283" x1="153.409" x2="153.409" y1="98.785" y2="75.221" gradientTransform="matrix(2.0013313,0,0,1.9640004,-245.52219,-128.21556)" gradientUnits="userSpaceOnUse" xlink:href="#linearGradient2490"/><radialGradient id="radialGradient3286" cx="-6.16" cy="36.686" r="14.098" fx="-6.16" fy="36.686" gradientTransform="matrix(0.517352,0,0,0.3900607,44.632721,43.190117)" gradientUnits="userSpaceOnUse" xlink:href="#linearGradient3463"/><linearGradient id="linearGradient3290" x1="153.409" x2="153.409" y1="98.785" y2="75.221" gradientTransform="matrix(2.0013313,0,0,1.9640004,-245.52219,-128.21556)" gradientUnits="userSpaceOnUse" xlink:href="#linearGradient3434"/><linearGradient id="linearGradient3294" x1="153.409" x2="153.409" y1="98.785" y2="75.221" gradientTransform="matrix(2.0013313,0,0,1.9640004,-245.52219,-128.21556)" gradientUnits="userSpaceOnUse" xlink:href="#linearGradient3434"/></defs><path id="path3478" fill="url(#radialGradient3286)" fill-opacity="1" fill-rule="evenodd" stroke="none" stroke-dasharray="none" stroke-dashoffset="0" stroke-linecap="butt" stroke-linejoin="round" stroke-miterlimit="4" stroke-opacity="1" stroke-width="1" marker-end="none" marker-mid="none" marker-start="none" d="M 48.739133,57.499999 C 48.739891,60.537398 45.474268,62.999999 41.445654,62.999999 C 37.41704,62.999999 34.151416,60.537398 34.152175,57.499999 C 34.151416,54.462601 37.41704,52 41.445654,52 C 45.474268,52 48.739891,54.462601 48.739133,57.499999 L 48.739133,57.499999 z" display="inline" enable-background="accumulate" opacity=".2" overflow="visible" visibility="visible" style="marker:none"/><path marker-start="none" style="text-align:start;line-height:100%;marker:none;-inkscape-font-specification:Gabrielle" id="text2400" fill="url(#linearGradient3281)" fill-opacity="1" fill-rule="evenodd" stroke="url(#linearGradient3283)" stroke-dasharray="none" stroke-dashoffset="0" stroke-linecap="butt" stroke-linejoin="miter" stroke-miterlimit="4" stroke-opacity="1" stroke-width="1" marker-end="none" marker-mid="none" d="M 58.626883,23.028531 C 57.651165,20.798957 55.270075,21.032495 53.636479,20.678354 C 48.228158,20.050756 42.829103,21.051675 38.296278,24.122557 C 33.921272,27.112026 29.962458,31.156779 27.181585,36.376325 C 24.764445,41.02582 23.679063,47.237268 25.204058,53.15416 C 26.404326,57.137301 30.017563,59.597546 33.064879,58.934142 C 37.729978,58.14943 41.054318,53.782183 43.796683,49.521604 C 45.036801,47.764564 45.798554,45.437598 47.262345,43.960961 C 47.054022,47.747457 46.960734,51.680324 47.813959,55.525408 C 48.2989,57.7926 50.072885,59.579862 51.870748,59.497242 C 53.699852,59.285545 55.092164,57.684316 56.608443,56.639303 C 57.9722,55.420878 59.534361,54.373243 60.499998,52.611654 C 60.333652,49.693595 57.747194,51.52589 56.844384,52.527442 C 55.582309,54.530757 52.974848,52.938932 53.53263,50.212741 C 53.824641,43.985673 55.264224,38.137889 56.481761,32.26702 C 57.166231,29.171987 57.886733,26.095 58.626886,23.028531 L 58.626883,23.028531 z M 51.071716,26.91419 C 48.754823,34.295737 46.252026,41.808564 41.970082,47.53168 C 39.949857,50.142717 36.987831,52.510365 33.721896,51.254417 C 31.464951,50.245007 30.942058,46.926246 30.893218,44.429662 C 30.601945,37.057388 34.131183,30.951524 38.543336,27.268337 C 41.618851,24.798939 45.594089,23.681245 49.476802,24.887169 C 50.209822,25.16245 51.004938,25.875024 51.071716,26.914193 L 51.071716,26.91419 z" display="inline" enable-background="accumulate" font-family="Gabrielle" font-size="55.902" font-stretch="normal" font-style="normal" font-variant="normal" font-weight="normal" overflow="visible" text-anchor="start" visibility="visible" writing-mode="lr-tb"/><path id="path3461" fill="url(#radialGradient3278)" fill-opacity="1" fill-rule="evenodd" stroke="none" stroke-dasharray="none" stroke-dashoffset="0" stroke-linecap="butt" stroke-linejoin="round" stroke-miterlimit="4" stroke-opacity="1" stroke-width="1" marker-end="none" marker-mid="none" marker-start="none" d="M 62,57.500001 C 62.002069,60.537399 53.095823,63 42.108696,63 C 31.12157,63 22.215324,60.537399 22.217392,57.500001 C 22.215324,54.462602 31.12157,52.000001 42.108696,52.000001 C 53.095823,52.000001 62.002069,54.462602 62,57.500001 L 62,57.500001 z" display="inline" enable-background="accumulate" opacity=".2" overflow="visible" visibility="visible" style="marker:none"/><path id="path3482" fill="url(#radialGradient3275)" fill-opacity="1" fill-rule="evenodd" stroke="none" stroke-dasharray="none" stroke-dashoffset="0" stroke-linecap="butt" stroke-linejoin="round" stroke-miterlimit="4" stroke-opacity="1" stroke-width="1" marker-end="none" marker-mid="none" marker-start="none" d="M 48.73913,57.56543 C 48.741613,60.566688 38.054117,62.999988 24.869566,62.999988 C 11.685014,62.999988 0.99751909,60.566688 1.0000012,57.56543 C 0.99751909,54.564173 11.685014,52.130873 24.869566,52.130873 C 38.054117,52.130873 48.741613,54.564173 48.73913,57.56543 L 48.73913,57.56543 z" display="inline" enable-background="accumulate" opacity=".05" overflow="visible" visibility="visible" style="marker:none"/><path id="path3474" fill="url(#radialGradient3272)" fill-opacity="1" fill-rule="evenodd" stroke="none" stroke-dasharray="none" stroke-dashoffset="0" stroke-linecap="butt" stroke-linejoin="round" stroke-miterlimit="4" stroke-opacity="1" stroke-width="1" marker-end="none" marker-mid="none" marker-start="none" d="M 15.586958,57.500001 C 15.587716,60.537399 12.322093,63 8.2934791,63 C 4.2648656,63 0.99924167,60.537399 1.0000001,57.500001 C 0.99924167,54.462602 4.2648656,52.000001 8.293479,52.000001 C 12.322093,52.000001 15.587716,54.462602 15.586958,57.500001 L 15.586958,57.500001 z" display="inline" enable-background="accumulate" opacity=".2" overflow="visible" visibility="visible" style="marker:none"/><path d="M 49.625,21.5625 C 45.776484,21.716617 42.07226,22.781511 38.84375,24.96875 C 34.58648,27.877768 30.789734,31.783536 28.09375,36.84375 C 25.790649,41.273886 24.76556,47.267956 26.21875,52.90625 C 27.290543,56.463041 30.469638,58.454347 32.84375,57.9375 C 32.864578,57.93686 32.885422,57.93686 32.90625,57.9375 C 37.041325,57.241942 40.225837,53.18163 42.9375,48.96875 C 42.93734,48.958334 42.93734,48.947916 42.9375,48.9375 C 44.047129,47.365341 44.815855,44.980449 46.53125,43.25 C 46.831566,42.962574 47.2766,42.886905 47.655036,43.058921 C 48.033472,43.230937 48.269085,43.615992 48.25,44.03125 C 48.04299,47.793893 47.99402,51.623994 48.8125,55.3125 C 49.209616,57.169084 50.718699,58.489716 51.8125,58.46875 C 53.055207,58.287857 54.315489,56.996728 55.90625,55.875 C 55.947208,55.838407 55.990332,55.817305 56.03125,55.78125 C 57.350808,54.618506 58.593976,53.658668 59.40625,52.34375 C 59.374574,52.261943 59.323967,52.015439 59.34375,52.03125 C 59.385653,52.064741 59.428431,52.035682 59.21875,52.09375 C 58.799388,52.209886 57.927157,52.848878 57.59375,53.21875 L 57.5625,53.1875 C 57.136698,53.777271 56.577138,54.266815 55.9375,54.40625 C 55.234877,54.559416 54.505094,54.37408 53.9375,54 C 52.839493,53.276344 52.254821,51.794491 52.53125,50.15625 C 52.532245,50.135033 52.530229,50.114957 52.53125,50.09375 C 52.537361,50.060366 52.524391,50.033526 52.53125,50 L 52.5625,50 C 52.877224,43.709759 54.266462,37.859841 55.46875,32.0625 C 56.123171,29.103337 56.82597,26.146175 57.53125,23.21875 C 57.186559,22.609988 56.756461,22.313643 56.09375,22.125 C 55.363892,21.917243 54.430707,21.877889 53.5,21.6875 C 53.468543,21.68385 53.437692,21.691033 53.40625,21.6875 C 52.136752,21.544846 50.877599,21.512338 49.625,21.5625 z M 46.59375,23.375 C 47.640876,23.403395 48.713353,23.574574 49.78125,23.90625 C 49.791892,23.916439 49.802311,23.926858 49.8125,23.9375 C 50.86311,24.33205 51.964568,25.319782 52.0625,26.84375 C 52.075506,26.969606 52.064908,27.096783 52.03125,27.21875 C 49.710991,34.61102 47.205641,42.211494 42.78125,48.125 C 42.78141,48.135416 42.78141,48.145834 42.78125,48.15625 C 41.714747,49.534651 40.369467,50.888548 38.78125,51.75 C 37.193033,52.611452 35.272316,52.92915 33.34375,52.1875 C 33.333334,52.18766 33.322916,52.18766 33.3125,52.1875 C 31.832232,51.525456 30.996967,50.13854 30.53125,48.71875 C 30.065533,47.29896 29.900593,45.77701 29.875,44.46875 C 29.570156,36.752961 33.242147,30.367423 37.875,26.5 C 37.885416,26.49984 37.895834,26.49984 37.90625,26.5 C 40.37535,24.517506 43.418489,23.288897 46.59375,23.375 z" style="text-align:start;line-height:100%;marker:none;-inkscape-font-specification:Gabrielle" id="path3292" fill="none" fill-opacity="1" fill-rule="evenodd" stroke="url(#linearGradient3294)" stroke-dasharray="none" stroke-dashoffset="0" stroke-linecap="butt" stroke-linejoin="miter" stroke-miterlimit="4" stroke-opacity="1" stroke-width="1" marker-end="none" marker-mid="none" marker-start="none" display="inline" enable-background="accumulate" font-family="Gabrielle" font-size="55.902" font-stretch="normal" font-style="normal" font-variant="normal" font-weight="normal" opacity=".4" overflow="visible" text-anchor="start" visibility="visible" writing-mode="lr-tb"/><path id="text2396" fill="url(#linearGradient3266)" fill-opacity="1" stroke="#333" stroke-linecap="butt" stroke-linejoin="miter" stroke-opacity="1" stroke-width="1" d="M 39.090361,59.499999 C 39.090361,59.499999 34.311831,44.5 34.311831,44.5 C 34.311831,44.5 14.739648,44.5 14.739648,44.5 C 14.739648,44.5 9.8421685,59.499999 9.8421685,59.499999 C 9.8421685,59.499999 5.6140556,59.499999 3.4999999,59.499999 C 9.5385545,42.499999 15.577108,25.5 21.615665,8.4999996 C 23.52731,8.4999996 25.438956,8.4999996 27.350604,8.4999996 C 33.400402,25.5 39.450202,42.499999 45.500002,59.499999 C 43.363457,59.499999 39.090361,59.499999 39.090361,59.499999 z M 32.374999,38.5 C 32.374999,38.5 24.5,16.413791 24.5,16.413791 C 24.5,16.413791 16.625,38.5 16.625,38.5 C 16.625,38.5 32.374999,38.5 32.374999,38.5 z" font-family="Droid Sans" font-size="40" font-stretch="normal" font-style="normal" font-variant="normal" font-weight="normal" style="-inkscape-font-specification:Sans"/><path id="path3422" fill="none" fill-opacity="1" stroke="url(#linearGradient3263)" stroke-linecap="butt" stroke-linejoin="miter" stroke-opacity="1" stroke-width="1" d="M 44.099466,58.553529 C 44.099466,58.553529 26.651542,9.5 26.651542,9.5 C 26.651542,9.5 22.323065,9.5 22.323065,9.5 C 22.323065,9.5 4.857639,58.716681 4.857639,58.716681" font-family="Droid Sans" font-size="40" font-stretch="normal" font-style="normal" font-variant="normal" font-weight="normal" opacity=".3" style="-inkscape-font-specification:Sans"/><path id="path3447" fill="none" fill-rule="evenodd" stroke="url(#linearGradient3260)" stroke-linecap="butt" stroke-linejoin="round" stroke-opacity="1" stroke-width="1" d="M 24.5,13.5 L 33.812805,39.5 L 15.187195,39.5 L 24.5,13.5 z" opacity=".2"/></svg>