<svg xmlns="http://www.w3.org/2000/svg" xmlns:svg="http://www.w3.org/2000/svg" xmlns:xlink="http://www.w3.org/1999/xlink" id="svg2963" width="64" height="64" version="1.1"><defs id="defs3"><linearGradient id="linearGradient5784"><stop id="stop5786" offset="0" stop-color="#000" stop-opacity="1"/><stop id="stop5788" offset="1" stop-color="#000" stop-opacity="0"/></linearGradient><linearGradient id="linearGradient3919"><stop id="stop3921" offset="0" stop-color="#fff" stop-opacity="1"/><stop id="stop3923" offset="1" stop-color="#fff" stop-opacity="0"/></linearGradient><linearGradient id="linearGradient3251"><stop id="stop3253" offset="0" stop-color="#695337" stop-opacity="1"/><stop id="stop3255" offset="1" stop-color="#695337" stop-opacity="0"/></linearGradient><linearGradient id="linearGradient3275"><stop id="stop3277" offset="0" stop-color="#fff" stop-opacity="0"/><stop id="stop3283" offset=".245" stop-color="#fff" stop-opacity="1"/><stop id="stop3285" offset=".774" stop-color="#fff" stop-opacity="1"/><stop id="stop3279" offset="1" stop-color="#fff" stop-opacity="0"/></linearGradient><linearGradient id="linearGradient3199"><stop id="stop3201" offset="0" stop-color="#dac197" stop-opacity="1"/><stop id="stop3203" offset=".239" stop-color="#c1a581" stop-opacity="1"/><stop id="stop3205" offset=".276" stop-color="#dbc298" stop-opacity="1"/><stop id="stop3207" offset="1" stop-color="#a68b60" stop-opacity="1"/></linearGradient><linearGradient id="linearGradient3295"><stop id="stop3297" offset="0" stop-color="#c3a67d" stop-opacity="1"/><stop id="stop3299" offset=".239" stop-color="#a17d4f" stop-opacity="1"/><stop id="stop3301" offset=".276" stop-color="#bb9b71" stop-opacity="1"/><stop id="stop3303" offset="1" stop-color="#836945" stop-opacity="1"/></linearGradient><linearGradient id="linearGradient3681-3"><stop id="stop3683-8" offset="0" stop-color="#000" stop-opacity="1"/><stop id="stop3685-0" offset="1" stop-color="#000" stop-opacity="0"/></linearGradient><linearGradient id="linearGradient3703-9"><stop id="stop3705-0" offset="0" stop-color="#000" stop-opacity="0"/><stop id="stop3711-2" offset=".5" stop-color="#000" stop-opacity="1"/><stop id="stop3707-8" offset="1" stop-color="#000" stop-opacity="0"/></linearGradient><linearGradient id="linearGradient3250" x1="24.823" x2="24.997" y1="15.378" y2="37.277" gradientTransform="matrix(1.4073019,0,0,1.4697691,-2.0034399,2.0686836)" gradientUnits="userSpaceOnUse" xlink:href="#linearGradient3199"/><linearGradient id="linearGradient3252" x1="15.464" x2="15.464" y1="7.976" y2="45.042" gradientTransform="matrix(1.0975467,0,0,0.94381628,4.658879,16.500348)" gradientUnits="userSpaceOnUse" xlink:href="#linearGradient3295"/><linearGradient id="linearGradient3313" x1="11.124" x2="13.168" y1="21.563" y2="21.563" gradientTransform="matrix(-1.6243493,0,0,-1.302046,66.365711,63.057)" gradientUnits="userSpaceOnUse" xlink:href="#linearGradient3251"/><linearGradient id="linearGradient3325" x1="10.749" x2="12.11" y1="21.5" y2="21.5" gradientTransform="matrix(1.6045929,0,0,-1.291556,-3.6419112,62.822115)" gradientUnits="userSpaceOnUse" xlink:href="#linearGradient3251"/><linearGradient id="linearGradient3328" x1="22.188" x2="22.188" y1="20" y2="24.08" gradientTransform="matrix(1.359477,0,0,1.3333333,-0.40522932,-0.33333215)" gradientUnits="userSpaceOnUse" xlink:href="#linearGradient3251"/><radialGradient id="radialGradient3351" cx="5" cy="41.5" r="5" fx="5" fy="41.5" gradientTransform="matrix(0.5938225,0,0,1.5366531,-6.6594735,-103.93618)" gradientUnits="userSpaceOnUse" xlink:href="#linearGradient3681-3"/><linearGradient id="linearGradient3353" x1="17.554" x2="17.554" y1="46" y2="35" gradientTransform="matrix(1.7570316,0,0,1.3969574,-17.394014,-16.411698)" gradientUnits="userSpaceOnUse" xlink:href="#linearGradient3703-9"/><radialGradient id="radialGradient3355" cx="5" cy="41.5" r="5" fx="5" fy="41.5" gradientTransform="matrix(0.5938225,0,0,1.5366531,41.140892,-103.93618)" gradientUnits="userSpaceOnUse" xlink:href="#linearGradient3681-3"/><linearGradient id="linearGradient3359" x1="44.995" x2="3.005" y1="17.5" y2="17.5" gradientTransform="matrix(1.0008041,0,0,1.3020459,6.9807017,10.714196)" gradientUnits="userSpaceOnUse" spreadMethod="reflect" xlink:href="#linearGradient3275"/><linearGradient id="linearGradient4137" x1="20.781" x2="20.813" y1="24.594" y2="23.531" gradientTransform="matrix(1.409611,0,0,1.3020459,-1.8318043,0.5587934)" gradientUnits="userSpaceOnUse" xlink:href="#linearGradient5784"/><linearGradient id="linearGradient3777" x1="23" x2="23" y1="19" y2="44" gradientTransform="matrix(1.3413116,0,0,1.3311315,-0.52082005,-0.44292295)" gradientUnits="userSpaceOnUse" xlink:href="#linearGradient3919"/><linearGradient id="linearGradient7381"><stop id="stop7383" offset="0" stop-color="#babdb6" stop-opacity="1"/><stop id="stop7385" offset="1" stop-color="#fff" stop-opacity="1"/></linearGradient><linearGradient id="linearGradient7444"><stop id="stop7446" offset="0" stop-color="#888a85" stop-opacity="1"/><stop id="stop7448" offset="1" stop-color="#555753" stop-opacity="1"/></linearGradient><linearGradient id="linearGradient5443"><stop id="stop5445" offset="0" stop-color="#fff" stop-opacity="1"/><stop id="stop5447" offset="1" stop-color="#fff" stop-opacity="0"/></linearGradient><linearGradient id="linearGradient6221"><stop id="stop6223" offset="0" stop-color="#000" stop-opacity="1"/><stop id="stop6225" offset="1" stop-color="#000" stop-opacity="0"/></linearGradient><linearGradient id="linearGradient4093"><stop id="stop4095" offset="0" stop-color="#bb5e12" stop-opacity="1"/><stop id="stop4097" offset="1" stop-color="#cd8033" stop-opacity="1"/></linearGradient><linearGradient id="linearGradient4099"><stop id="stop4101" offset="0" stop-color="#edd563" stop-opacity="1"/><stop id="stop4103" offset="1" stop-color="#e08223" stop-opacity="1"/></linearGradient><linearGradient id="linearGradient3408" x1="25.572" x2="27.368" y1="20.762" y2="22.476" gradientTransform="matrix(-1.0423996,0,0,-1.0378417,46.101123,124.35976)" gradientUnits="userSpaceOnUse" xlink:href="#linearGradient7381"/><linearGradient id="linearGradient3410" x1="22.376" x2="31.089" y1="35.624" y2="26.885" gradientTransform="matrix(1.0468682,0,0,1.0468717,-4.7990563,64.563522)" gradientUnits="userSpaceOnUse" xlink:href="#linearGradient7444"/><linearGradient id="linearGradient3412" x1="54.765" x2="54.721" y1="1" y2="12.585" gradientTransform="matrix(-0.73220338,-0.7338647,0.73220338,-0.7338647,45.136583,156.11941)" gradientUnits="userSpaceOnUse" xlink:href="#linearGradient5443"/><linearGradient id="linearGradient4190" x1="24.823" x2="24.997" y1="15.378" y2="37.277" gradientTransform="matrix(1.3758901,0,0,1.3840846,-1.2674218,4.8557827)" gradientUnits="userSpaceOnUse" xlink:href="#linearGradient3199"/><linearGradient id="linearGradient4207" x1="-2.197" x2="-10.566" y1="40.972" y2="40.949" gradientTransform="matrix(0.84492232,-2.9977411e-8,0,1.6837108,-78.410157,-106.39604)" gradientUnits="userSpaceOnUse" xlink:href="#linearGradient4099"/><linearGradient id="linearGradient4209" x1="-45.569" x2="-36.083" y1="7.714" y2="12.324" gradientTransform="matrix(1.0468699,0,0,1.04687,-42.286861,-49.278977)" gradientUnits="userSpaceOnUse" xlink:href="#linearGradient4093"/><radialGradient id="radialGradient4211" cx="25.977" cy="21.623" r="2" fx="25.977" fy="21.623" gradientTransform="matrix(-1.0000007,-1.0000001,0.79056976,-0.79057026,35.482415,136.95508)" gradientUnits="userSpaceOnUse" xlink:href="#linearGradient6221"/><radialGradient id="radialGradient4213" cx="-39.458" cy="11.84" r="3.906" fx="-39.458" fy="11.84" gradientTransform="matrix(2.3533908,-0.16336681,0.28682268,5.972601,7.7820711,-114.74264)" gradientUnits="userSpaceOnUse" xlink:href="#linearGradient5443"/><linearGradient id="linearGradient4215" x1="25.572" x2="27.368" y1="20.762" y2="22.476" gradientTransform="matrix(-1.0423996,0,0,-1.0378417,46.101123,124.35976)" gradientUnits="userSpaceOnUse" xlink:href="#linearGradient7381"/><linearGradient id="linearGradient4217" x1="22.376" x2="31.089" y1="35.624" y2="26.885" gradientTransform="matrix(1.0468682,0,0,1.0468717,-4.7990563,64.563522)" gradientUnits="userSpaceOnUse" xlink:href="#linearGradient7444"/><linearGradient id="linearGradient4219" x1="-10.939" x2="-6.93" y1="36.912" y2="36.892" gradientTransform="matrix(0.60312184,0,0,1.4585579,-82.706709,-93.637395)" gradientUnits="userSpaceOnUse" xlink:href="#linearGradient6221"/><linearGradient id="linearGradient4221" x1="-7.097" x2="-10.179" y1="40.324" y2="40.309" gradientTransform="matrix(0.50479505,0,0,1.4199623,-81.183425,-91.350926)" gradientUnits="userSpaceOnUse" xlink:href="#linearGradient6221"/><linearGradient id="linearGradient4223" x1="58.548" x2="56.447" y1="37.501" y2="37.586" gradientTransform="matrix(1.0366781,0,0,2.1488993,-142.36097,-116.21385)" gradientUnits="userSpaceOnUse" xlink:href="#linearGradient5443"/><linearGradient id="linearGradient4225" x1="54.765" x2="54.721" y1="1" y2="12.585" gradientTransform="matrix(-0.73220338,-0.7338647,0.73220338,-0.7338647,45.136583,156.11941)" gradientUnits="userSpaceOnUse" xlink:href="#linearGradient5443"/><linearGradient id="linearGradient4434-0"><stop id="stop4436-2" offset="0" stop-color="#d3d7cf" stop-opacity="1"/><stop id="stop4438-4" offset=".183" stop-color="#babdb6" stop-opacity="1"/><stop id="stop4440-3" offset=".319" stop-color="#fff" stop-opacity="1"/><stop id="stop4442-7" offset=".876" stop-color="#babdb6" stop-opacity="1"/><stop id="stop4444-3" offset="1" stop-color="#eeeeec" stop-opacity="1"/></linearGradient><linearGradient id="linearGradient7444-0"><stop id="stop7446-5" offset="0" stop-color="#888a85" stop-opacity="1"/><stop id="stop7448-2" offset="1" stop-color="#555753" stop-opacity="1"/></linearGradient><linearGradient id="linearGradient7381-8"><stop id="stop7383-9" offset="0" stop-color="#babdb6" stop-opacity="1"/><stop id="stop7385-8" offset="1" stop-color="#fff" stop-opacity="1"/></linearGradient><linearGradient id="linearGradient7421-7"><stop id="stop7423-9" offset="0" stop-color="#fff" stop-opacity="1"/><stop id="stop7425-8" offset="1" stop-color="#fff" stop-opacity="0"/></linearGradient><linearGradient id="linearGradient4613" x1="304.762" x2="335.3" y1="64.295" y2="81.926" gradientTransform="translate(55.750001,906.7774)" gradientUnits="userSpaceOnUse" xlink:href="#linearGradient4434-0"/><linearGradient id="linearGradient4615" x1="324.497" x2="330.061" y1="70.282" y2="99.274" gradientTransform="translate(55.750001,906.7774)" gradientUnits="userSpaceOnUse" xlink:href="#linearGradient7444-0"/><linearGradient id="linearGradient4617" x1="302.292" x2="308.649" y1="58.443" y2="60.768" gradientTransform="translate(55.750001,906.7774)" gradientUnits="userSpaceOnUse" xlink:href="#linearGradient7381-8"/><linearGradient id="linearGradient4619" x1="326.602" x2="317.161" y1="75.575" y2="88.006" gradientUnits="userSpaceOnUse" xlink:href="#linearGradient7421-7"/><linearGradient id="linearGradient4633" x1="304.762" x2="335.3" y1="64.295" y2="81.926" gradientTransform="translate(55.750001,906.7774)" gradientUnits="userSpaceOnUse" xlink:href="#linearGradient4434-0"/><linearGradient id="linearGradient4635" x1="324.497" x2="330.061" y1="70.282" y2="99.274" gradientTransform="translate(55.750001,906.7774)" gradientUnits="userSpaceOnUse" xlink:href="#linearGradient7444-0"/><linearGradient id="linearGradient4637" x1="302.292" x2="308.649" y1="58.443" y2="60.768" gradientTransform="translate(55.750001,906.7774)" gradientUnits="userSpaceOnUse" xlink:href="#linearGradient7381-8"/><linearGradient id="linearGradient4639" x1="326.602" x2="317.161" y1="75.575" y2="88.006" gradientUnits="userSpaceOnUse" xlink:href="#linearGradient7421-7"/><linearGradient id="linearGradient5128"><stop id="stop5130" offset="0" stop-color="#fff" stop-opacity="1"/><stop id="stop5132" offset="1" stop-color="#959595" stop-opacity="1"/></linearGradient><linearGradient id="linearGradient3309" x1="63.999" x2="63.999" y1="3.1" y2="122.899" gradientUnits="userSpaceOnUse"><stop id="stop3311" offset="0" stop-color="#f6f6f6" stop-opacity="1"/><stop id="stop3313" offset="1" stop-color="#d2d2d2" stop-opacity="1"/></linearGradient><linearGradient id="linearGradient3397"><stop id="stop3399" offset="0" stop-color="#969696" stop-opacity="1"/><stop id="stop3401" offset="1" stop-color="#787878" stop-opacity="1"/></linearGradient><linearGradient id="linearGradient5776" x1="32.036" x2="32.036" y1="19" y2="47.012" gradientTransform="translate(-1.71457,54.524593)" gradientUnits="userSpaceOnUse" xlink:href="#linearGradient3309"/><linearGradient id="linearGradient5778" x1="25.923" x2="25.923" y1="19" y2="47.045" gradientTransform="translate(-1.71457,54.524593)" gradientUnits="userSpaceOnUse" xlink:href="#linearGradient3397"/><linearGradient id="linearGradient5780" x1="86.133" x2="84.639" y1="105.105" y2="20.895" gradientTransform="matrix(0.2014014,0,0,0.2014015,16.395734,74.836298)" gradientUnits="userSpaceOnUse" xlink:href="#linearGradient5128"/><radialGradient id="radialGradient5790" cx="32" cy="29" r="19" fx="32" fy="29" gradientTransform="matrix(1.1052632,-2.068421e-7,6.8947368e-8,0.36842107,-3.3684231,18.315796)" gradientUnits="userSpaceOnUse" xlink:href="#linearGradient5784"/><radialGradient id="radialGradient5800" cx="21.5" cy="20" r="2.5" fx="21.5" fy="20" gradientTransform="matrix(1,0,0,1.2,0,-4)" gradientUnits="userSpaceOnUse" xlink:href="#linearGradient5784"/><radialGradient id="radialGradient5804" cx="21.5" cy="20" r="2.5" fx="21.5" fy="20" gradientTransform="matrix(1,0,0,1.2,0,-4)" gradientUnits="userSpaceOnUse" xlink:href="#linearGradient5784"/><radialGradient id="radialGradient5808" cx="21.5" cy="20" r="2.5" fx="21.5" fy="20" gradientTransform="matrix(1,0,0,1.2,0,-4)" gradientUnits="userSpaceOnUse" xlink:href="#linearGradient5784"/></defs><g id="g3305" display="inline" opacity=".4" transform="matrix(1.0789808,0,0,0.65076495,5.2121632,30.861976)"><rect id="rect2484" width="2.96" height="15.367" x="-3.69" y="-47.848" fill="url(#radialGradient3351)" fill-opacity="1" stroke="none" transform="scale(-1,-1)"/><rect id="rect2486" width="40.412" height="15.367" x="3.69" y="32.482" fill="url(#linearGradient3353)" fill-opacity="1" stroke="none"/><rect id="rect3444" width="2.96" height="15.367" x="44.11" y="-47.848" fill="url(#radialGradient3355)" fill-opacity="1" stroke="none" display="inline" transform="scale(1,-1)"/></g><path id="path2488" fill="url(#linearGradient3250)" fill-opacity="1" fill-rule="nonzero" stroke="url(#linearGradient3252)" stroke-dasharray="none" stroke-dashoffset="0" stroke-linecap="round" stroke-linejoin="miter" stroke-miterlimit="4" stroke-opacity="1" stroke-width=".994" d="m 14.548572,24.522787 32.375127,0 c 1.88996,0 2.740489,-0.270451 3.283369,0.943815 l 3.294544,7.550531 0,24.231454 c 0,1.46604 0.112975,1.242044 -1.776998,1.242044 l -41.449227,0 c -1.8899679,0 -1.7769984,0.223996 -1.7769984,-1.242044 l 0,-24.231454 3.2945444,-7.550531 c 0.527734,-1.189739 0.865671,-0.943815 2.755639,-0.943815 z" display="block" overflow="visible" visibility="visible" style="marker:none"/><path id="path4194" fill="none" stroke="url(#linearGradient3777)" stroke-dasharray="none" stroke-dashoffset="0" stroke-linecap="butt" stroke-linejoin="miter" stroke-miterlimit="4" stroke-opacity="1" stroke-width=".994" d="m 52.502902,33.168152 c -1.101916,-2.543959 -2.255809,-5.068749 -3.325256,-7.62468 -0.873749,-0.10158 -2.121683,-2.05e-4 -3.15244,-0.02932 -11.044292,-1.7e-5 -22.088677,2.8e-5 -33.132911,0 -1.18748,2.522838 -2.254447,5.107274 -3.3951942,7.654" display="block" opacity=".5" overflow="visible" visibility="visible" style="marker:none"/><path d="m 15.611112,25 c -0.563165,0 -0.743563,0.09388 -0.892158,0.208335 -0.148595,0.114455 -0.341401,0.356032 -0.509803,0.833332 L 12,33 51,33 48.748366,26.291668 C 48.4647,25.600087 48.261702,25.377173 48.068627,25.250001 47.87555,25.122825 47.580803,25 46.921568,25 l -31.310456,0 z" style="marker:none" id="path3692" fill="url(#linearGradient3328)" fill-opacity="1" fill-rule="nonzero" stroke="none" stroke-width="1" color="#000" display="block" opacity=".6" overflow="visible" visibility="visible"/><path d="m 15.262201,25.366991 c -0.664703,0 -0.877628,0.09094 -1.053015,0.201806 -0.175387,0.110871 -0.402956,0.344877 -0.601723,0.807224 L 11,33.116327 l 7.822391,0 0,-7.749336 -3.56019,0 z" style="marker:none" id="path3694" fill="url(#linearGradient3325)" fill-opacity="1" fill-rule="nonzero" stroke="none" stroke-width="1" color="#000" display="block" opacity=".6" overflow="visible" visibility="visible"/><path d="m 47.228839,25.297666 c 0.672888,0 0.88843,0.09168 1.065977,0.203446 0.177551,0.11177 0.40792,0.347678 0.60913,0.813778 l 2.639571,6.795052 -7.918704,0 0,-7.812276 3.604026,0 z" style="marker:none" id="path3696" fill="url(#linearGradient3313)" fill-opacity="1" fill-rule="nonzero" stroke="none" stroke-width="1" color="#000" display="block" opacity=".67" overflow="visible" visibility="visible"/><g id="g3403" transform="matrix(0.93673772,0.35003206,0.35003206,-0.93673772,-38.326046,117.39366)"><path id="path3397" fill="url(#linearGradient3408)" fill-opacity="1" stroke="url(#linearGradient3410)" stroke-dasharray="none" stroke-linecap="round" stroke-linejoin="round" stroke-miterlimit="4" stroke-opacity="1" stroke-width="1" d="m 6.221677,116.38358 4.911842,-3.39317 0.59624,-2.04872 15.224969,-15.248886 c 1.035492,-1.167574 -0.9169,-3.239435 -2.211263,-2.201595 l -15.2307055,15.228451 -2.0579608,0.58368 -3.3553825,4.93182 c 0,0 2.1222608,2.14842 2.1222608,2.14842 z"/><path id="path3399" fill="url(#linearGradient3412)" fill-opacity="1" stroke="none" d="m 6.2706212,115.69753 4.3721608,-2.93331 0.489477,-1.86659 c 0.402632,-0.46565 -1.1760828,-1.93605 -1.6016954,-1.60533 l -1.8394783,0.51353 -2.926607,4.38214 c 0.5745834,0.57588 0.9315599,0.93367 1.5061429,1.50956 z"/><path id="path3401" fill="none" stroke="#fff" stroke-linecap="round" stroke-linejoin="round" stroke-miterlimit="4" stroke-opacity="1" stroke-width="1" d="m 26.317336,94.998677 c 0.07671,-0.382845 -0.456934,-0.862307 -0.822644,-0.86103 -5.169376,5.02062 -10.343933,10.300253 -15.435447,15.402783 l -2.0364637,0.61348 c -0.893434,1.31324 -1.786868,2.62648 -2.6803019,3.93973 0.3380515,0.34896 0.676102,0.69791 1.0141536,1.04687 1.3303946,-0.91601 2.6607903,-1.83202 3.991185,-2.74804 0.181651,-0.57372 0.308435,-1.17983 0.523434,-1.73388" opacity=".7"/></g><g id="g6402" display="inline" transform="matrix(1.0449925,0.55048528,-0.55017338,1.0444004,171.3437,-1197.0954)"><path id="path6912" fill="url(#linearGradient4613)" fill-opacity="1" fill-rule="evenodd" stroke="url(#linearGradient4615)" stroke-dasharray="none" stroke-dashoffset=".361" stroke-linecap="round" stroke-linejoin="round" stroke-miterlimit="4" stroke-opacity="1" stroke-width=".847" d="m 354.90196,961.71351 c -0.0462,0.0494 -0.0794,0.10928 -0.0952,0.17501 -0.43512,1.87515 -0.22941,4.02968 0.59591,5.50649 1.12712,2.01686 3.47459,2.9792 5.77326,2.57211 0.9393,0.316 2.18526,1.01168 3.66202,2.47857 l 18.43588,18.31271 3.47323,-3.45018 -18.43587,-18.31271 c -1.33126,-1.32235 -2.02985,-2.45591 -2.38768,-3.35103 0.31046,-1.23743 0.18398,-2.55857 -0.46932,-3.7276 -0.82498,-1.47618 -2.55608,-2.78144 -4.39068,-3.41795 -0.15743,-0.0576 -0.33081,-0.0136 -0.43789,0.11308 -0.10709,0.12665 -0.1257,0.3083 -0.0417,0.45274 l 2.24619,4.0281 c 0.20176,0.36101 0.0965,0.82534 -0.22868,1.30022 -0.32826,0.47938 -0.87442,0.95837 -1.57324,1.33928 -0.69896,0.38097 -1.3978,0.58999 -1.98206,0.60974 -0.58081,0.0197 -1.03722,-0.1415 -1.23949,-0.50346 l -2.25969,-4.05046 c -0.063,-0.11238 -0.17357,-0.18604 -0.3018,-0.20096 -0.12822,-0.0149 -0.25763,0.0312 -0.34317,0.1263 l -2e-5,0 z" display="inline" enable-background="new"/><path id="path7379" fill="url(#linearGradient4617)" fill-opacity="1" fill-rule="evenodd" stroke="none" d="m 360.9375,958.8399 c 0.0187,0.007 0.007,0.0312 0,0.0313 l 2.25,4.03125 c 0.30353,0.54308 0.0846,1.18445 -0.28125,1.71875 -0.36949,0.53959 -0.942,1.0624 -1.6875,1.46875 -0.7471,0.40722 -1.53072,0.60279 -2.1875,0.625 -0.65534,0.0222 -1.27047,-0.16491 -1.5625,-0.6875 l -2.25,-4.0625 c -0.0129,-0.002 -0.0334,0.002 -0.0313,0 0.0206,-0.022 0.004,0.016 0,0.0313 -0.41492,1.78813 -0.19972,3.85485 0.5625,5.21875 1.04262,1.86566 3.21941,2.75675 5.375,2.375 2.14547,-0.38402 3.97996,-2.25317 4.4375,-4.03125 0.28891,-1.15158 0.16583,-2.38914 -0.4375,-3.46875 -0.76015,-1.36017 -2.43237,-2.64106 -4.1875,-3.25 l 5e-5,-1e-4 z" display="inline" enable-background="new"/><path id="path6394" fill="none" stroke="url(#linearGradient4619)" stroke-dasharray="none" stroke-dashoffset=".361" stroke-linecap="round" stroke-linejoin="miter" stroke-miterlimit="4" stroke-opacity="1" stroke-width=".593" d="m 306.3125,53.1875 1.5,2.71875 c 0.42656,0.763203 0.1338,1.581368 -0.28125,2.1875 -0.41934,0.612393 -1.04182,1.156645 -1.84375,1.59375 -0.8053,0.438942 -1.63055,0.693576 -2.375,0.71875 -0.74544,0.02522 -1.56821,-0.220734 -1.96875,-0.9375 l -1.5625,-2.8125 c -0.0666,1.318109 0.0835,2.649454 0.59375,3.5625 0.94047,1.682871 2.92363,2.507367 4.90625,2.15625 0.14514,-0.02867 0.2979,-0.01776 0.4375,0.03125 1.07459,0.361502 2.41864,1.116511 3.96875,2.65625 l 18.4375,18.3125 2.28125,-2.25 -18.4375,-18.3125 c -1.39757,-1.388206 -2.15786,-2.612796 -2.5625,-3.625 -0.061,-0.15828 -0.072,-0.335369 -0.0312,-0.5 0.26287,-1.047793 0.16792,-2.184737 -0.375,-3.15625 -0.49621,-0.887897 -1.54649,-1.701366 -2.6875,-2.34375 l -5e-5,0 z" display="inline" enable-background="new" transform="translate(55.750001,906.7774)"/><rect id="rect7166" width="1.956" height="30.755" x="-428.175" y="943.147" fill="#000" fill-opacity="1" fill-rule="evenodd" stroke="none" display="inline" enable-background="new" opacity=".08" rx=".747" ry="1.493" transform="matrix(0.7071068,-0.7071068,0.7071068,0.7071068,0,0)"/></g><g id="g4196" transform="matrix(0.74180779,-0.2164778,0.2164778,0.74180779,6.745645,-41.853957)"><rect id="rect5288" width="9.256" height="30.017" x="-89.817" y="-51.386" fill="url(#linearGradient4207)" fill-opacity="1" stroke="url(#linearGradient4209)" stroke-dasharray="none" stroke-linecap="round" stroke-linejoin="round" stroke-miterlimit="4" stroke-opacity="1" stroke-width="1.294" rx="5.12" ry="5.12" transform="matrix(-0.71097924,-0.703213,0.70748499,-0.70672837,0,0)"/><path id="path4983" fill="url(#radialGradient4211)" fill-opacity="1" stroke="none" d="m 24.60607,90.829256 a 3.5,2 45.846222 0 1 4.876106,5.022309 3.5,2 45.846222 1 1 -4.876106,-5.022309 z" opacity=".3"/><rect id="rect5292" width="7.178" height="27.938" x="-88.78" y="-50.518" fill="none" stroke="url(#radialGradient4213)" stroke-dasharray="none" stroke-linecap="round" stroke-linejoin="round" stroke-miterlimit="4" stroke-opacity="1" stroke-width="1.294" opacity=".6" rx="3.84" ry="3.84" transform="matrix(-0.71239463,-0.70177909,0.70750329,-0.70671005,0,0)"/><path id="path5286" fill="url(#linearGradient4215)" fill-opacity="1" stroke="url(#linearGradient4217)" stroke-dasharray="none" stroke-linecap="round" stroke-linejoin="round" stroke-miterlimit="4" stroke-opacity="1" stroke-width="1.294" d="m 6.221677,116.38358 4.911842,-3.39317 0.59624,-2.04872 15.224969,-15.248886 c 1.035492,-1.167574 -0.9169,-3.239435 -2.211263,-2.201595 l -15.2307055,15.228451 -2.0579608,0.58368 -3.3553825,4.93182 c 0,0 2.1222608,2.14842 2.1222608,2.14842 z"/><rect id="rect2804" width="1.472" height="22.806" x="-88.738" y="-46.964" fill="url(#linearGradient4219)" fill-opacity="1" stroke="none" opacity=".3" rx="1.28" ry="1.408" transform="matrix(-0.71258595,-0.70158482,0.70777179,-0.70644115,0,0)"/><rect id="rect5290" width="2.019" height="22.719" x="-86.231" y="-45.912" fill="url(#linearGradient4221)" fill-opacity="1" stroke="none" opacity=".3" rx="1.28" ry="1.408" transform="matrix(-0.71337531,-0.70078219,0.70733391,-0.70687958,0,0)"/><rect id="rect5398" width="1.472" height="22.806" x="-83.133" y="-46.914" fill="url(#linearGradient4223)" fill-opacity="1" stroke="none" opacity=".25" rx="1.28" ry="1.408" transform="matrix(-0.71258595,-0.70158482,0.70777179,-0.70644115,0,0)"/><path id="path5450" fill="url(#linearGradient4225)" fill-opacity="1" stroke="none" d="m 6.2706212,115.69753 4.3721608,-2.93331 0.489477,-1.86659 c 0.402632,-0.46565 -1.1760828,-1.93605 -1.6016954,-1.60533 l -1.8394783,0.51353 -2.926607,4.38214 c 0.5745834,0.57588 0.9315599,0.93367 1.5061429,1.50956 z"/><path id="path4979" fill="none" stroke="#fff" stroke-linecap="round" stroke-linejoin="round" stroke-miterlimit="4" stroke-opacity="1" stroke-width="1.294" d="m 26.317336,94.998677 c 0.07671,-0.382845 -0.456934,-0.862307 -0.822644,-0.86103 -5.169376,5.02062 -10.343933,10.300253 -15.435447,15.402783 l -2.0364637,0.61348 c -0.893434,1.31324 -1.786868,2.62648 -2.6803019,3.93973 0.3380515,0.34896 0.676102,0.69791 1.0141536,1.04687 1.3303946,-0.91601 2.6607903,-1.83202 3.991185,-2.74804 0.181651,-0.57372 0.308435,-1.17983 0.523434,-1.73388" opacity=".7"/></g><g id="g4621" display="inline" transform="matrix(-1.1811195,0,0,1.1804503,479.29449,-1114.9411)"><path id="path4623" fill="url(#linearGradient4633)" fill-opacity="1" fill-rule="evenodd" stroke="url(#linearGradient4635)" stroke-dasharray="none" stroke-dashoffset=".361" stroke-linecap="round" stroke-linejoin="round" stroke-miterlimit="4" stroke-opacity="1" stroke-width=".847" d="m 354.90196,961.71351 c -0.0462,0.0494 -0.0794,0.10928 -0.0952,0.17501 -0.43512,1.87515 -0.22941,4.02968 0.59591,5.50649 1.12712,2.01686 3.47459,2.9792 5.77326,2.57211 0.9393,0.316 2.18526,1.01168 3.66202,2.47857 l 18.43588,18.31271 3.47323,-3.45018 -18.43587,-18.31271 c -1.33126,-1.32235 -2.02985,-2.45591 -2.38768,-3.35103 0.31046,-1.23743 0.18398,-2.55857 -0.46932,-3.7276 -0.82498,-1.47618 -2.55608,-2.78144 -4.39068,-3.41795 -0.15743,-0.0576 -0.33081,-0.0136 -0.43789,0.11308 -0.10709,0.12665 -0.1257,0.3083 -0.0417,0.45274 l 2.24619,4.0281 c 0.20176,0.36101 0.0965,0.82534 -0.22868,1.30022 -0.32826,0.47938 -0.87442,0.95837 -1.57324,1.33928 -0.69896,0.38097 -1.3978,0.58999 -1.98206,0.60974 -0.58081,0.0197 -1.03722,-0.1415 -1.23949,-0.50346 l -2.25969,-4.05046 c -0.063,-0.11238 -0.17357,-0.18604 -0.3018,-0.20096 -0.12822,-0.0149 -0.25763,0.0312 -0.34317,0.1263 l -2e-5,0 z" display="inline" enable-background="new"/><path id="path4625" fill="url(#linearGradient4637)" fill-opacity="1" fill-rule="evenodd" stroke="none" d="m 360.9375,958.8399 c 0.0187,0.007 0.007,0.0312 0,0.0313 l 2.25,4.03125 c 0.30353,0.54308 0.0846,1.18445 -0.28125,1.71875 -0.36949,0.53959 -0.942,1.0624 -1.6875,1.46875 -0.7471,0.40722 -1.53072,0.60279 -2.1875,0.625 -0.65534,0.0222 -1.27047,-0.16491 -1.5625,-0.6875 l -2.25,-4.0625 c -0.0129,-0.002 -0.0334,0.002 -0.0313,0 0.0206,-0.022 0.004,0.016 0,0.0313 -0.41492,1.78813 -0.19972,3.85485 0.5625,5.21875 1.04262,1.86566 3.21941,2.75675 5.375,2.375 2.14547,-0.38402 3.97996,-2.25317 4.4375,-4.03125 0.28891,-1.15158 0.16583,-2.38914 -0.4375,-3.46875 -0.76015,-1.36017 -2.43237,-2.64106 -4.1875,-3.25 l 5e-5,-1e-4 z" display="inline" enable-background="new"/><path id="path4627" fill="none" stroke="url(#linearGradient4639)" stroke-dasharray="none" stroke-dashoffset=".361" stroke-linecap="round" stroke-linejoin="miter" stroke-miterlimit="4" stroke-opacity="1" stroke-width=".593" d="m 306.3125,53.1875 1.5,2.71875 c 0.42656,0.763203 0.1338,1.581368 -0.28125,2.1875 -0.41934,0.612393 -1.04182,1.156645 -1.84375,1.59375 -0.8053,0.438942 -1.63055,0.693576 -2.375,0.71875 -0.74544,0.02522 -1.56821,-0.220734 -1.96875,-0.9375 l -1.5625,-2.8125 c -0.0666,1.318109 0.0835,2.649454 0.59375,3.5625 0.94047,1.682871 2.92363,2.507367 4.90625,2.15625 0.14514,-0.02867 0.2979,-0.01776 0.4375,0.03125 1.07459,0.361502 2.41864,1.116511 3.96875,2.65625 l 18.4375,18.3125 2.28125,-2.25 -18.4375,-18.3125 c -1.39757,-1.388206 -2.15786,-2.612796 -2.5625,-3.625 -0.061,-0.15828 -0.072,-0.335369 -0.0312,-0.5 0.26287,-1.047793 0.16792,-2.184737 -0.375,-3.15625 -0.49621,-0.887897 -1.54649,-1.701366 -2.6875,-2.34375 l -5e-5,0 z" display="inline" enable-background="new" transform="translate(55.750001,906.7774)"/><rect id="rect4629" width="1.956" height="30.755" x="-428.175" y="943.147" fill="#000" fill-opacity="1" fill-rule="evenodd" stroke="none" display="inline" enable-background="new" opacity=".08" rx=".747" ry="1.493" transform="matrix(0.7071068,-0.7071068,0.7071068,0.7071068,0,0)"/></g><rect id="rect5782" width="38" height="8" x="13" y="25" fill="url(#radialGradient5790)" fill-opacity="1" stroke="none" opacity=".3"/><path id="path5792" fill="url(#radialGradient5800)" fill-opacity="1" stroke="none" d="m 24,20 a 2.5,3 0 1 1 -5,0 2.5,3 0 1 1 5,0 z" opacity=".3" transform="matrix(1.6,0,0,1.4999999,-13.4,-9.4999977)"/><path id="path5802" fill="url(#radialGradient5804)" fill-opacity="1" stroke="none" d="m 24,20 a 2.5,3 0 1 1 -5,0 2.5,3 0 1 1 5,0 z" opacity=".3" transform="matrix(1.6,0,0,1.4999999,9.6,1.5000023)"/><path id="path5806" fill="url(#radialGradient5808)" fill-opacity="1" stroke="none" d="m 24,20 a 2.5,3 0 1 1 -5,0 2.5,3 0 1 1 5,0 z" opacity=".3" transform="matrix(1.6,0,0,1.4999999,-17.4,1.5000023)"/><g id="g5771" transform="translate(1.714569,-59.52459)"><path id="rect2576" fill="url(#linearGradient5776)" fill-opacity="1" fill-rule="nonzero" stroke="url(#linearGradient5778)" stroke-dasharray="none" stroke-dashoffset="0" stroke-linecap="butt" stroke-linejoin="round" stroke-miterlimit="4" stroke-opacity="1" stroke-width="1" d="m 27.160431,74.024593 c -0.748739,0 -1.375,0.595012 -1.375,1.34375 l 0,1.75 c -0.473402,0.158876 -0.932751,0.343406 -1.375,0.5625 l -1.21875,-1.21875 c -0.529439,-0.529438 -1.376813,-0.529438 -1.906251,0 l -3.0625,3.03125 c -0.529439,0.529438 -0.529436,1.376813 0,1.90625 l 1.21875,1.21875 c -0.224326,0.449932 -0.400631,0.923932 -0.5625,1.40625 l -1.71875,0 c -0.748739,0 -1.375001,0.595012 -1.374999,1.34375 l 0,4.3125 c -2e-6,0.748738 0.626263,1.343752 1.374999,1.34375 l 1.71875,0 c 0.161869,0.482318 0.338174,0.956318 0.5625,1.40625 l -1.21875,1.21875 c -0.529439,0.529438 -0.52944,1.376812 0,1.90625 l 3.0625,3.03125 c 0.529437,0.529438 1.376814,0.529436 1.906251,0 l 1.21875,-1.21875 c 0.442249,0.219094 0.901598,0.403624 1.375,0.5625 l 0,1.75 c -10e-7,0.748737 0.626266,1.343747 1.375,1.343747 l 4.28125,0 c 0.748739,0 1.34375,-0.59501 1.34375,-1.343747 l 0,-1.75 c 0.482318,-0.161868 0.956318,-0.338173 1.40625,-0.5625 l 1.218749,1.21875 c 0.529439,0.529438 1.376811,0.529438 1.90625,0 l 3.0625,-3.03125 c 0.529439,-0.529438 0.529434,-1.376814 0,-1.90625 l -1.25,-1.25 c 0.219094,-0.442249 0.403624,-0.901598 0.5625,-1.375 l 1.75,0 c 0.748739,0 1.34375,-0.595014 1.34375,-1.34375 l 0,-4.3125 c 1e-6,-0.748738 -0.595016,-1.34375 -1.34375,-1.34375 l -1.75,0 c -0.158876,-0.473402 -0.343406,-0.932751 -0.5625,-1.375 l 1.25,-1.25 c 0.529439,-0.529438 0.529438,-1.376812 0,-1.90625 l -3.0625,-3.03125 c -0.529437,-0.529438 -1.376814,-0.529438 -1.90625,0 l -1.218749,1.21875 c -0.449932,-0.224327 -0.923932,-0.400632 -1.40625,-0.5625 l 0,-1.75 c 10e-7,-0.748738 -0.595016,-1.34375 -1.34375,-1.34375 l -4.28125,0 z m 2.125,10 c 1.932,0 3.5,1.568 3.5,3.5 0,1.932 -1.568,3.5 -3.5,3.5 -1.932001,0 -3.5,-1.568 -3.5,-3.5 -10e-7,-1.932 1.568,-3.5 3.5,-3.5 z" display="block" enable-background="accumulate" overflow="visible" visibility="visible" style="marker:none"/><path id="path3315" fill="#000" fill-opacity="1" stroke="none" d="m 29.285431,79.524593 c -4.411273,0 -7.999999,3.588727 -7.999999,8 0,4.411274 3.588726,8 7.999999,8 4.411273,0 7.999999,-3.588726 7.999999,-8 0,-4.411273 -3.588726,-8 -7.999999,-8 z m 0,3.692309 c 2.377844,0 4.307693,1.929846 4.307693,4.307691 0,2.377847 -1.929849,4.307693 -4.307693,4.307693 -2.377846,0 -4.307691,-1.929846 -4.307691,-4.307693 0,-2.377845 1.929845,-4.307691 4.307691,-4.307691 z" opacity=".05"/><path id="path28" fill="none" stroke="url(#linearGradient5780)" stroke-dasharray="none" stroke-miterlimit="4" stroke-width="1" d="m 29.285431,79.145284 c -4.620353,0 -8.379308,3.758957 -8.379308,8.379308 0,4.620352 3.758955,8.37931 8.379308,8.37931 4.620353,0 8.379309,-3.758958 8.379309,-8.37931 0,-4.620351 -3.758956,-8.379308 -8.379309,-8.379308 z"/></g><path id="path3416" fill="url(#linearGradient4190)" fill-opacity="1" fill-rule="nonzero" stroke="none" stroke-width=".994" d="m 52.998726,34 0,22.818809 c 0,1.380573 0.110454,1.169635 -1.737334,1.169635 l -40.524057,0 C 8.889552,57.988444 9,58.199382 9,56.818809 L 9,34 52.998726,34 z" display="block" overflow="visible" visibility="visible" style="marker:none"/><path id="path3772" fill="none" stroke="url(#linearGradient3777)" stroke-dasharray="none" stroke-dashoffset="0" stroke-linecap="round" stroke-linejoin="miter" stroke-miterlimit="4" stroke-opacity="1" stroke-width=".994" d="m 9.4971008,33.5 c 0,8.111582 0,15.891317 0,24.002901 14.3352592,0 28.6705432,0 43.0058012,0 0,-8.111584 0,-15.891319 0,-24.002901" display="block" opacity=".5" overflow="visible" visibility="visible" style="marker:none"/><rect id="rect4133" width="42" height="2" x="10" y="33" fill="#dac197" fill-opacity="1" stroke="none"/><path id="path3357" fill="none" stroke="url(#linearGradient3359)" stroke-linecap="square" stroke-linejoin="miter" stroke-opacity="1" stroke-width="1" d="m 10.488745,33.5 41.022511,0" display="inline" opacity=".4"/><path id="path3730" fill="none" stroke="url(#linearGradient4137)" stroke-dashoffset="0" stroke-linecap="butt" stroke-linejoin="miter" stroke-miterlimit="4" stroke-opacity="1" stroke-width="1" d="m 14.775174,25.948689 c -0.252036,0 -0.393205,0.02813 -0.440505,0.04069 -0.04731,0.01248 -0.0026,0.01043 -0.04407,0.04069 -0.0083,0.0058 -0.164069,0.103143 -0.308352,0.488269 L 12,32.458924 l 38.499999,0 -2.026315,-5.655764 0,-0.04069 c -0.245189,-0.549046 -0.370077,-0.648018 -0.440506,-0.691709 -0.09898,-0.06139 -0.198621,-0.122066 -0.792906,-0.122066 l -32.465102,0 z" color="#000" display="block" opacity=".15" overflow="visible" visibility="visible" style="marker:none"/></svg>