<svg xmlns="http://www.w3.org/2000/svg" xmlns:svg="http://www.w3.org/2000/svg" xmlns:xlink="http://www.w3.org/1999/xlink" id="svg4410" width="48" height="48" version="1.1"><defs id="defs4412"><linearGradient id="linearGradient3166" x1="14" x2="32" y1="2" y2="40" gradientTransform="matrix(2.1460849,0,0,1.0156771,-23.23498,-3.5595862)" gradientUnits="userSpaceOnUse" xlink:href="#linearGradient3208"/><linearGradient id="linearGradient3208"><stop id="stop3210" offset="0" stop-color="#fff" stop-opacity="1"/><stop id="stop3212" offset="1" stop-color="#fff" stop-opacity="0"/></linearGradient><linearGradient id="linearGradient3170" x1="24.118" x2="-32.012" y1="33.658" y2="33.658" gradientTransform="matrix(1.6404588e-7,-0.71176883,0.77331967,3.5230759e-7,-2.0282201,21.190684)" gradientUnits="userSpaceOnUse" xlink:href="#linearGradient3948"/><linearGradient id="linearGradient3948"><stop id="stop3950" offset="0" stop-color="#fff" stop-opacity="1"/><stop id="stop3952" offset=".059" stop-color="#fff" stop-opacity=".235"/><stop id="stop3954" offset=".864" stop-color="#fff" stop-opacity=".157"/><stop id="stop3956" offset="1" stop-color="#fff" stop-opacity=".392"/></linearGradient><radialGradient id="radialGradient4310" cx="23.646" cy="12.18" r="12" fx="23.646" fy="12.18" gradientTransform="matrix(0,3.479059,-1.7500004,0,44.961416,-78.952438)" gradientUnits="userSpaceOnUse" xlink:href="#linearGradient3600"/><linearGradient id="linearGradient3600"><stop id="stop3602" offset="0" stop-color="#f4f4f4" stop-opacity="1"/><stop id="stop3604" offset="1" stop-color="#dbdbdb" stop-opacity="1"/></linearGradient><linearGradient id="linearGradient3175" x1="-74.785" x2="-74.785" y1="54.703" y2="2.104" gradientTransform="matrix(0.8104507,0,0,0.8004955,76.958179,1.3158719)" gradientUnits="userSpaceOnUse" xlink:href="#linearGradient3104"/><linearGradient id="linearGradient3104"><stop id="stop3106" offset="0" stop-color="#a0a0a0" stop-opacity="1"/><stop id="stop3108" offset="1" stop-color="#bebebe" stop-opacity="1"/></linearGradient><linearGradient id="linearGradient23419-5"><stop id="stop23421-7" offset="0" stop-color="#000" stop-opacity="1"/><stop id="stop23423-0" offset="1" stop-color="#000" stop-opacity="0"/></linearGradient><radialGradient id="radialGradient4408" cx="23.335" cy="41.636" r="22.627" fx="23.335" fy="41.636" gradientTransform="matrix(0.61871836,0,0,0.17676017,9.5625,35.640404)" gradientUnits="userSpaceOnUse" xlink:href="#linearGradient23419-5"/><linearGradient id="linearGradient3280-373-0"><stop id="stop4633-4" offset="0" stop-color="#000" stop-opacity="1"/><stop id="stop4635-4" offset="1" stop-color="#000" stop-opacity="0"/></linearGradient><linearGradient id="linearGradient4151-767-958"><stop id="stop4470" offset="0" stop-color="#979797" stop-opacity="1"/><stop id="stop4472" offset="1" stop-color="#d5d5d5" stop-opacity="1"/></linearGradient><linearGradient id="linearGradient3707-319-631-407-324-1"><stop id="stop3760-0" offset="0" stop-color="#185f9a" stop-opacity="1"/><stop id="stop3762-3" offset="1" stop-color="#599ec9" stop-opacity="1"/></linearGradient><linearGradient id="linearGradient3578-995-735-4-566-885-385-488-812-692-100-298-982-943-8"><stop id="stop4639-4" offset="0" stop-color="#115984" stop-opacity="1"/><stop id="stop4641-8" offset="1" stop-color="#57a4ea" stop-opacity="1"/></linearGradient><linearGradient id="linearGradient3598-871-484-814-161-889-287-317-39-832-801-67-687-466-1"><stop id="stop3875-5" offset="0" stop-color="#68b1e0" stop-opacity="1"/><stop id="stop3877-9" offset="1" stop-color="#236894" stop-opacity="1"/></linearGradient><linearGradient id="linearGradient3592-990-183-196-279-371-272-744-724-968-605-252-895-210-5"><stop id="stop3869-6" offset="0" stop-color="#7aa7c4" stop-opacity="1"/><stop id="stop3871-1" offset="1" stop-color="#1f7dbb" stop-opacity="1"/></linearGradient><linearGradient id="linearGradient3355-273"><stop id="stop4657" offset="0" stop-color="#e1e1e1" stop-opacity="1"/><stop id="stop4659" offset="1" stop-color="#a6a6a6" stop-opacity="1"/></linearGradient><linearGradient id="linearGradient3844-342"><stop id="stop4651" offset="0" stop-color="#a6a6a6" stop-opacity=".49"/><stop id="stop4653" offset="1" stop-color="#e8e8e8" stop-opacity=".49"/></linearGradient><linearGradient id="linearGradient4152-0"><stop id="stop4154-9" offset="0" stop-color="#fff" stop-opacity="1"/><stop id="stop4156-6" offset=".16" stop-color="#fff" stop-opacity=".235"/><stop id="stop4158-3" offset=".897" stop-color="#fff" stop-opacity=".157"/><stop id="stop4160-8" offset="1" stop-color="#fff" stop-opacity=".392"/></linearGradient><linearGradient id="linearGradient4126-65-434-2-3-659-8"><stop id="stop4675-8" offset="0" stop-color="#000" stop-opacity="1"/><stop id="stop4677-5" offset="1" stop-color="#000" stop-opacity="0"/></linearGradient><linearGradient id="linearGradient3858-1-3-594-3"><stop id="stop4687-9" offset="0" stop-color="#a0a0a0" stop-opacity="1"/><stop id="stop4689-0" offset="1" stop-color="#646464" stop-opacity="1"/></linearGradient><linearGradient id="linearGradient2793-2-0-669-1"><stop id="stop4681-2" offset="0" stop-color="#878787" stop-opacity="1"/><stop id="stop4683-9" offset="1" stop-color="#d9d9d9" stop-opacity="1"/></linearGradient><linearGradient id="linearGradient2509-6-3-746-9"><stop id="stop4699-4" offset="0" stop-color="#b3b3b3" stop-opacity="1"/><stop id="stop4701-8" offset="1" stop-color="#dadada" stop-opacity="1"/></linearGradient><linearGradient id="linearGradient3844-9-5-84-5"><stop id="stop4693-6" offset="0" stop-color="#a6a6a6" stop-opacity="1"/><stop id="stop4695-3" offset="1" stop-color="#e8e8e8" stop-opacity="1"/></linearGradient><linearGradient id="linearGradient3254-8-457-7"><stop id="stop4669-3" offset="0" stop-color="#fff" stop-opacity="1"/><stop id="stop4671-6" offset="1" stop-color="#fff" stop-opacity="0"/></linearGradient><linearGradient id="linearGradient3444" x1="23.5" x2="23.5" y1="11.149" y2="39.851" gradientTransform="matrix(0.6388713,0,0,0.95081097,21.153369,7.9264693)" gradientUnits="userSpaceOnUse" xlink:href="#linearGradient3254-8-457-7"/><linearGradient id="linearGradient3447" x1="102.308" x2="102.308" y1="-2.393" y2="-24.582" gradientTransform="matrix(0.11951098,0,0,0.09753194,23.577549,19.485124)" gradientUnits="userSpaceOnUse" spreadMethod="reflect" xlink:href="#linearGradient3844-9-5-84-5"/><linearGradient id="linearGradient3449" x1="109.956" x2="109.956" y1="-24.911" y2="-2.376" gradientTransform="matrix(0.11951098,0,0,0.09753194,23.577549,19.485124)" gradientUnits="userSpaceOnUse" xlink:href="#linearGradient2509-6-3-746-9"/><linearGradient id="linearGradient3452" x1="103.95" x2="89.424" y1="-7.666" y2="-7.666" gradientTransform="matrix(0.11511151,0,0,0.08906795,23.9809,21.457488)" gradientUnits="userSpaceOnUse" spreadMethod="reflect" xlink:href="#linearGradient2793-2-0-669-1"/><linearGradient id="linearGradient3454" x1="89.018" x2="89.018" y1="22.537" y2="27.546" gradientTransform="matrix(0.2514261,0,0,0.20603946,12.273119,15.594094)" gradientUnits="userSpaceOnUse" xlink:href="#linearGradient3858-1-3-594-3"/><radialGradient id="radialGradient3457" cx="23.857" cy="40" r="17.143" fx="23.857" fy="40" gradientTransform="matrix(0.23333334,0,0,0.10586826,30.433413,15.223002)" gradientUnits="userSpaceOnUse" xlink:href="#linearGradient4126-65-434-2-3-659-8"/><linearGradient id="linearGradient3460" x1="23.5" x2="23.5" y1="11.149" y2="39.851" gradientTransform="matrix(0.58875407,0,0,0.92856328,22.164552,8.4885817)" gradientUnits="userSpaceOnUse" xlink:href="#linearGradient4152-0"/><linearGradient id="linearGradient3463" x1="17.243" x2="17.243" y1="11.001" y2="2" gradientTransform="matrix(0.60025583,0,0,0.6257537,21.593951,16.59926)" gradientUnits="userSpaceOnUse" xlink:href="#linearGradient3844-342"/><linearGradient id="linearGradient3465" x1="24" x2="24" y1="9.373" y2="5.603" gradientTransform="matrix(0.60025583,0,0,0.6257537,21.593951,16.59926)" gradientUnits="userSpaceOnUse" xlink:href="#linearGradient3355-273"/><linearGradient id="linearGradient3468" x1="15.036" x2="19.777" y1="11.206" y2="18.185" gradientTransform="matrix(0.58418894,0,0,0.45654547,21.979544,28.242412)" gradientUnits="userSpaceOnUse" xlink:href="#linearGradient3592-990-183-196-279-371-272-744-724-968-605-252-895-210-5"/><linearGradient id="linearGradient3470" x1="24" x2="24" y1="16.525" y2="13.285" gradientTransform="matrix(0.58418894,0,0,0.45654547,21.979544,28.242412)" gradientUnits="userSpaceOnUse" xlink:href="#linearGradient3598-871-484-814-161-889-287-317-39-832-801-67-687-466-1"/><linearGradient id="linearGradient3473" x1="13.042" x2="21.512" y1="32.288" y2="32.288" gradientTransform="matrix(0.62500004,0,0,0.778784,22.562577,14.625904)" gradientUnits="userSpaceOnUse" spreadMethod="reflect" xlink:href="#linearGradient3578-995-735-4-566-885-385-488-812-692-100-298-982-943-8"/><linearGradient id="linearGradient3475" x1="13.269" x2="13.269" y1="30.301" y2="1.363" gradientTransform="translate(20.000188,16.332659)" gradientUnits="userSpaceOnUse" xlink:href="#linearGradient3707-319-631-407-324-1"/><linearGradient id="linearGradient3478" x1="4" x2="10.143" y1="13.5" y2="13.5" gradientTransform="matrix(0.99994202,0,0,1.2727114,24.000537,14.985217)" gradientUnits="userSpaceOnUse" spreadMethod="reflect" xlink:href="#linearGradient4151-767-958"/><radialGradient id="radialGradient3481" cx="21.344" cy="14.125" r="11.969" fx="21.344" fy="14.125" gradientTransform="matrix(0.83550161,0,0,0.34171691,18.167176,39.083323)" gradientUnits="userSpaceOnUse" xlink:href="#linearGradient3280-373-0"/></defs><metadata id="metadata4415"/><g id="layer1"><path id="path23417-6" fill="url(#radialGradient4408)" fill-opacity="1" fill-rule="evenodd" stroke="none" stroke-width="2" d="m 38,43.000004 c 6.3e-4,2.20908 -6.2675,4 -14,4 -7.7325,0 -14.00072,-1.79092 -14,-4 -6.3e-4,-2.20907 6.2675,-4 14,-4 7.7325,0 14.00071,1.79093 14,4 l 0,0 z" display="inline" opacity=".3" overflow="visible" visibility="visible" style="marker:none"/><path id="path4487" fill="url(#radialGradient4310)" fill-opacity="1" fill-rule="nonzero" stroke="url(#linearGradient3175)" stroke-dasharray="none" stroke-dashoffset="0" stroke-linecap="butt" stroke-linejoin="round" stroke-miterlimit="4" stroke-opacity="1" stroke-width="1" d="m 23.95654,3.5004864 c -2.716039,0.061363 -5.775119,0.2193494 -8.342908,1.9116249 A 0.96200285,0.91614295 0 0 0 15.425446,5.561457 c -2.667532,2.9655993 -2.183187,6.89936 -2.603238,9.916554 a 0.96200285,0.91614295 0 0 0 -0.03131,0.05974 c -0.482438,7.73236 -0.455761,15.572804 0.784108,23.297929 a 0.96200285,0.91614295 0 0 0 0,0.02982 c 0.40329,2.045276 1.740453,4.216165 4.202818,4.779062 0.02399,0.0057 0.03854,0.02466 0.06273,0.02982 l 0,-0.02982 c 3.736097,1.090821 7.770522,1.091118 11.510704,0.268823 1.93717,-0.426532 3.944296,-1.56932 4.641918,-3.644035 0.003,-0.0086 -0.003,-0.02093 0,-0.02982 0.910539,-2.478679 0.892905,-5.030355 1.16048,-7.347808 a 0.96200285,0.91614295 0 0 0 0.03131,-0.02982 C 35.683552,25.428057 35.649438,17.923065 34.651772,10.489913 34.513648,9.4357568 34.289612,8.2754482 33.742207,7.2043075 33.200733,6.1447798 32.315135,5.1863867 31.013511,4.6654306 c -0.006,-0.00191 0.006,-0.027527 0,-0.029821 -0.009,-0.00382 -0.02188,0.00382 -0.03131,0 C 28.706533,3.6627834 26.220532,3.5839384 24.019319,3.500582 a 0.96200285,0.91614295 0 0 0 -0.06273,0 z" color="#000" display="inline" enable-background="accumulate" overflow="visible" visibility="visible" style="marker:none"/><path id="rect1320-6-9-3" fill="none" stroke="url(#linearGradient3170)" stroke-dasharray="none" stroke-dashoffset="0" stroke-linecap="round" stroke-linejoin="round" stroke-miterlimit="4" stroke-opacity="1" stroke-width="1" d="m 24.00115,4.5000038 c -2.68108,0.0605 -5.54829,0.24154 -7.82558,1.74062 -2.33446,2.5923 -1.93646,6.2128102 -2.37749,9.3770102 -0.47838,7.65842 -0.48031,15.39521 0.74047,22.99257 0.3576,1.81145 1.54533,3.65159 3.5524,4.08004 3.54719,1.04671 7.41342,1.02744 11.01589,0.23635 1.71882,-0.37802 3.38324,-1.36245 3.93756,-3.04279 0.84594,-2.28189 0.85972,-4.74783 1.13511,-7.13017 0.49411,-7.35848 0.48228,-14.78193 -0.50155,-22.10346 -0.26047,-1.9856102 -0.95856,-4.2722102 -3.09499,-5.1036002 -2.04341,-0.88004 -4.37588,-0.96313 -6.58182,-1.04657 z" display="inline" overflow="visible" visibility="visible" style="marker:none"/><path id="path3576" fill="#000" fill-opacity="1" fill-rule="nonzero" stroke="none" stroke-width="1.7" d="m 23.75,33.000004 c -0.1385,0 -0.25,0.1115 -0.25,0.25 l 0,0.5625 c -0.25135,0.0572 -0.48371,0.1554 -0.69531,0.28906 l -0.39844,-0.39844 c -0.0979,-0.0979 -0.25363,-0.0979 -0.35156,0 l -0.35156,0.35157 c -0.0979,0.0979 -0.0979,0.25362 0,0.35156 l 0.39843,0.39844 c -0.13365,0.21159 -0.23182,0.44396 -0.28906,0.69531 l -0.5625,0 c -0.1385,0 -0.25,0.1115 -0.25,0.25 l 0,0.5 c 0,0.1385 0.1115,0.25 0.25,0.25 l 0.5625,0 c 0.0572,0.25135 0.15541,0.48372 0.28906,0.69531 l -0.39843,0.39844 c -0.0979,0.0979 -0.0979,0.25363 0,0.35156 l 0.35156,0.35156 c 0.0979,0.0979 0.25363,0.0979 0.35156,0 l 0.39844,-0.39843 c 0.2116,0.13365 0.44396,0.23182 0.69531,0.28906 l 0,0.5625 c 0,0.1385 0.1115,0.25 0.25,0.25 l 0.5,0 c 0.1385,0 0.25,-0.1115 0.25,-0.25 l 0,-0.5625 c 0.25135,-0.0572 0.48372,-0.1554 0.69531,-0.28906 l 0.39844,0.39843 c 0.0979,0.0979 0.25363,0.0979 0.35156,0 l 0.35157,-0.35156 c 0.0979,-0.0979 0.0979,-0.25362 0,-0.35156 l -0.39844,-0.39844 c 0.13366,-0.21159 0.23182,-0.44396 0.28906,-0.69531 l 0.5625,0 c 0.1385,0 0.25,-0.1115 0.25,-0.25 l 0,-0.5 c 0,-0.1385 -0.1115,-0.25 -0.25,-0.25 l -0.5625,0 c -0.0572,-0.25135 -0.1554,-0.48372 -0.28906,-0.69531 l 0.39844,-0.39844 c 0.0979,-0.0979 0.0979,-0.25363 0,-0.35156 l -0.35157,-0.35157 c -0.0979,-0.0979 -0.25362,-0.0979 -0.35156,0 l -0.39844,0.39844 C 24.98372,33.967904 24.75135,33.869744 24.5,33.812504 l 0,-0.5625 c 0,-0.1385 -0.1115,-0.25 -0.25,-0.25 l -0.5,0 z m 0.25,2 c 0.552,0 1,0.448 1,1 0,0.552 -0.448,1 -1,1 -0.552,0 -1,-0.448 -1,-1 0,-0.552 0.448,-1 1,-1 z" display="inline" enable-background="accumulate" opacity=".2" overflow="visible" visibility="visible" style="marker:none"/><path id="rect3238" fill="url(#linearGradient3166)" fill-opacity="1" fill-rule="nonzero" stroke="none" stroke-width="1" d="m 24,4.5000038 c -2.68108,0.0605 -5.53521,0.25092 -7.8125,1.75 -2.33446,2.5923 -1.93397,6.2108002 -2.375,9.3750002 -0.342342,5.480577 -0.450406,10.987724 -0.03125,16.46875 l 20,-20.6875 C 33.74991,11.156107 33.72108,10.90617 33.6875,10.656254 33.42703,8.6706438 32.73018,6.3626438 30.59375,5.5312538 28.55034,4.6512138 26.20594,4.5834438 24,4.5000038 z" display="inline" enable-background="accumulate" opacity=".5" overflow="visible" visibility="visible" style="marker:none"/><path id="path3576-2" fill="#fff" fill-opacity="1" fill-rule="nonzero" stroke="none" stroke-width="1.7" d="m 23.75,34.000004 c -0.1385,0 -0.25,0.1115 -0.25,0.25 l 0,0.5625 c -0.25135,0.0572 -0.48371,0.1554 -0.69531,0.28906 l -0.39844,-0.39844 c -0.0979,-0.0979 -0.25363,-0.0979 -0.35156,0 l -0.35156,0.35157 c -0.0979,0.0979 -0.0979,0.25362 0,0.35156 l 0.39843,0.39844 c -0.13365,0.21159 -0.23182,0.44396 -0.28906,0.69531 l -0.5625,0 c -0.1385,0 -0.25,0.1115 -0.25,0.25 l 0,0.5 c 0,0.1385 0.1115,0.25 0.25,0.25 l 0.5625,0 c 0.0572,0.25135 0.15541,0.48372 0.28906,0.69531 l -0.39843,0.39844 c -0.0979,0.0979 -0.0979,0.25363 0,0.35156 l 0.35156,0.35156 c 0.0979,0.0979 0.25363,0.0979 0.35156,0 l 0.39844,-0.39843 c 0.2116,0.13365 0.44396,0.23182 0.69531,0.28906 l 0,0.5625 c 0,0.1385 0.1115,0.25 0.25,0.25 l 0.5,0 c 0.1385,0 0.25,-0.1115 0.25,-0.25 l 0,-0.5625 c 0.25135,-0.0572 0.48372,-0.1554 0.69531,-0.28906 l 0.39844,0.39843 c 0.0979,0.0979 0.25363,0.0979 0.35156,0 l 0.35157,-0.35156 c 0.0979,-0.0979 0.0979,-0.25362 0,-0.35156 l -0.39844,-0.39844 c 0.13366,-0.21159 0.23182,-0.44396 0.28906,-0.69531 l 0.5625,0 c 0.1385,0 0.25,-0.1115 0.25,-0.25 l 0,-0.5 c 0,-0.1385 -0.1115,-0.25 -0.25,-0.25 l -0.5625,0 c -0.0572,-0.25135 -0.1554,-0.48372 -0.28906,-0.69531 l 0.39844,-0.39844 c 0.0979,-0.0979 0.0979,-0.25363 0,-0.35156 l -0.35157,-0.35157 c -0.0979,-0.0979 -0.25362,-0.0979 -0.35156,0 l -0.39844,0.39844 C 24.98372,34.967904 24.75135,34.869744 24.5,34.812504 l 0,-0.5625 c 0,-0.1385 -0.1115,-0.25 -0.25,-0.25 l -0.5,0 z m 0.25,2 c 0.552,0 1,0.448 1,1 0,0.552 -0.448,1 -1,1 -0.552,0 -1,-0.448 -1,-1 0,-0.552 0.448,-1 1,-1 z" display="inline" enable-background="accumulate" opacity=".3" overflow="visible" visibility="visible" style="marker:none"/><path id="path3278" fill="url(#radialGradient3481)" fill-opacity="1" fill-rule="nonzero" stroke="none" stroke-width="1" d="M 45.99981,43.910075 C 45.99981,46.168879 41.5227,48 35.999904,48 30.477109,48 26,46.168879 26,43.910075 c 0,-2.258804 4.477109,-4.089925 9.999904,-4.089925 5.522796,0 9.999906,1.831121 9.999906,4.089925 z" display="inline" opacity=".7" overflow="visible" visibility="visible" style="marker:none"/><path id="rect2432" fill="url(#linearGradient3478)" fill-opacity="1" fill-rule="nonzero" stroke="#575757" stroke-dasharray="none" stroke-dashoffset="0" stroke-linecap="round" stroke-linejoin="round" stroke-miterlimit="10" stroke-opacity="1" stroke-width="1" d="m 35.999842,18.167013 c -4.148905,0 -7.499566,1.131893 -7.499566,2.545423 2.4e-5,8.302535 0,22.908801 0,22.908801 l 14.99913,0 c 0,0 0,-16.409092 0,-22.90881 0,-1.413529 -3.35066,-2.545421 -7.499564,-2.545414 z" display="inline" enable-background="accumulate" opacity=".6" overflow="visible" visibility="visible" style="marker:none"/><path id="path2230" fill="url(#linearGradient3473)" fill-opacity="1" fill-rule="nonzero" stroke="url(#linearGradient3475)" stroke-opacity="1" stroke-width="1" d="m 28.500079,35.166659 0,8.274255 c 0,1.504613 3.359999,2.725746 7.5,2.725745 4.14,0 7.5,-1.221132 7.5,-2.725745 l 0,-8.274255 z" display="inline" overflow="visible" visibility="visible" style="marker:none"/><path id="path2675" fill="url(#linearGradient3468)" fill-opacity="1" fill-rule="nonzero" stroke="url(#linearGradient3470)" stroke-dasharray="none" stroke-dashoffset="0" stroke-linecap="butt" stroke-linejoin="round" stroke-miterlimit="10" stroke-opacity="1" stroke-width=".978" d="m 43.511079,34.666659 a 7.511,2.5110001 0 0 1 -15.022,0 7.511,2.5110001 0 1 1 15.022,0 z" display="block" overflow="visible" visibility="visible" style="marker:none"/><path id="path2570" fill="url(#linearGradient3463)" fill-opacity="1" fill-rule="nonzero" stroke="url(#linearGradient3465)" stroke-dasharray="none" stroke-dashoffset="0" stroke-linecap="round" stroke-linejoin="round" stroke-miterlimit="4" stroke-opacity="1" stroke-width=".984" d="m 43.508134,20.666659 c 0,1.38516 -3.36147,2.508055 -7.508055,2.508055 -4.146584,0 -7.508055,-1.122895 -7.508055,-2.508055 0,-1.385161 3.361471,-2.508055 7.508055,-2.508055 4.146585,0 7.508055,1.122894 7.508055,2.508055 l 0,0 z" display="inline" overflow="visible" visibility="visible" style="marker:none"/><path id="path3416-8" fill="none" stroke="url(#linearGradient3460)" stroke-dasharray="none" stroke-dashoffset="0" stroke-linecap="round" stroke-linejoin="round" stroke-miterlimit="4" stroke-opacity="1" stroke-width="1" d="m 29.500285,21.223798 c 0,1.061174 0,20.558625 0,21.621627 0,1.281418 2.92507,2.321408 6.499989,2.321408 3.574918,0 6.500011,-1.03999 6.500011,-2.321408 0,-0.983548 0,-20.638076 0,-21.621627 0,-1.070606 -2.927005,-2.074355 -6.500011,-2.056737 -3.573008,0.01762 -6.499989,0.991052 -6.499989,2.056737 z" display="inline" opacity=".4" overflow="visible" visibility="visible" style="marker:none"/><path id="path2611" fill="url(#radialGradient3457)" fill-opacity="1" fill-rule="nonzero" stroke="none" stroke-width="2.473" d="m 40.000079,19.457733 c 0,1.002333 -1.790861,1.814885 -4,1.814885 -2.209139,0 -4,-0.812552 -4,-1.814885 0,-1.002333 1.790861,-1.814885 4,-1.814885 2.209139,0 4,0.812552 4,1.814885 l 0,0 z" display="block" opacity=".2" overflow="visible" visibility="visible" style="marker:none"/><path id="path2613" fill="url(#linearGradient3452)" fill-opacity="1" stroke="url(#linearGradient3454)" stroke-dasharray="none" stroke-miterlimit="4" stroke-opacity="1" stroke-width="1" d="m 38.835691,20.253441 c 0,0.504096 -1.294526,0.913218 -2.889562,0.913218 -1.595038,0 -2.889563,-0.409122 -2.889563,-0.913218 0,-2.45701 -0.353183,-2.962238 2.889563,-2.981248 3.317011,-0.01962 2.889562,0.450074 2.889562,2.981248 z"/><path id="path2615" fill="url(#linearGradient3447)" fill-opacity="1" stroke="url(#linearGradient3449)" stroke-dasharray="none" stroke-miterlimit="4" stroke-opacity="1" stroke-width="1" d="m 39.000079,18.166658 c 0,0.552285 -1.343146,1.000001 -2.999999,1.000001 -1.656855,0 -3.000001,-0.447716 -3.000001,-1.000001 0,-0.552283 1.343146,-0.999999 3.000001,-0.999999 1.656853,0 2.999999,0.447716 2.999999,0.999999 l 0,0 z"/><path id="rect3244" fill="url(#linearGradient3444)" fill-opacity="1" fill-rule="nonzero" stroke="none" stroke-width="1" d="m 30.736422,23.284605 3.194358,0.578966 0,22.138623 -3.194358,-0.739852 0,-21.977736 0,0 z" display="inline" opacity=".4" overflow="visible" visibility="visible" style="marker:none"/></g></svg>