<svg xmlns="http://www.w3.org/2000/svg" xmlns:svg="http://www.w3.org/2000/svg" xmlns:xlink="http://www.w3.org/1999/xlink" id="svg4193" width="48" height="48" version="1.1"><defs id="defs4195"><linearGradient id="linearGradient3245" x1="23.5" x2="23.5" y1="11.149" y2="39.851" gradientTransform="matrix(0.6388713,0,0,0.95081097,21.153369,7.9264693)" gradientUnits="userSpaceOnUse" xlink:href="#linearGradient3254-8-457-5"/><linearGradient id="linearGradient3254-8-457-5"><stop id="stop4669-4" offset="0" stop-color="#fff" stop-opacity="1"/><stop id="stop4671-7" offset="1" stop-color="#fff" stop-opacity="0"/></linearGradient><linearGradient id="linearGradient3248" x1="102.308" x2="102.308" y1="-2.393" y2="-24.582" gradientTransform="matrix(0.11951098,0,0,0.09753194,23.577549,19.485124)" gradientUnits="userSpaceOnUse" spreadMethod="reflect" xlink:href="#linearGradient3844-9-5-84-5"/><linearGradient id="linearGradient3844-9-5-84-5"><stop id="stop4693-6" offset="0" stop-color="#a6a6a6" stop-opacity="1"/><stop id="stop4695-9" offset="1" stop-color="#e8e8e8" stop-opacity="1"/></linearGradient><linearGradient id="linearGradient3250" x1="109.956" x2="109.956" y1="-24.911" y2="-2.376" gradientTransform="matrix(0.11951098,0,0,0.09753194,23.577549,19.485124)" gradientUnits="userSpaceOnUse" xlink:href="#linearGradient2509-6-3-746-7"/><linearGradient id="linearGradient2509-6-3-746-7"><stop id="stop4699-4" offset="0" stop-color="#b3b3b3" stop-opacity="1"/><stop id="stop4701-5" offset="1" stop-color="#dadada" stop-opacity="1"/></linearGradient><linearGradient id="linearGradient3253" x1="103.95" x2="89.424" y1="-7.666" y2="-7.666" gradientTransform="matrix(0.11511151,0,0,0.08906795,23.9809,21.457488)" gradientUnits="userSpaceOnUse" spreadMethod="reflect" xlink:href="#linearGradient2793-2-0-669-5"/><linearGradient id="linearGradient2793-2-0-669-5"><stop id="stop4681-4" offset="0" stop-color="#878787" stop-opacity="1"/><stop id="stop4683-7" offset="1" stop-color="#d9d9d9" stop-opacity="1"/></linearGradient><linearGradient id="linearGradient3255" x1="89.018" x2="89.018" y1="22.537" y2="27.546" gradientTransform="matrix(0.2514261,0,0,0.20603946,12.273119,15.594094)" gradientUnits="userSpaceOnUse" xlink:href="#linearGradient3858-1-3-594-4"/><linearGradient id="linearGradient3858-1-3-594-4"><stop id="stop4687-3" offset="0" stop-color="#a0a0a0" stop-opacity="1"/><stop id="stop4689-0" offset="1" stop-color="#646464" stop-opacity="1"/></linearGradient><radialGradient id="radialGradient3258" cx="23.857" cy="40" r="17.143" fx="23.857" fy="40" gradientTransform="matrix(0.23333334,0,0,0.10586826,30.433413,15.223002)" gradientUnits="userSpaceOnUse" xlink:href="#linearGradient4126-65-434-2-3-659-8"/><linearGradient id="linearGradient4126-65-434-2-3-659-8"><stop id="stop4675-6" offset="0" stop-color="#000" stop-opacity="1"/><stop id="stop4677-8" offset="1" stop-color="#000" stop-opacity="0"/></linearGradient><linearGradient id="linearGradient3261" x1="23.5" x2="23.5" y1="11.149" y2="39.851" gradientTransform="matrix(0.58875407,0,0,0.92856328,22.164346,8.4884094)" gradientUnits="userSpaceOnUse" xlink:href="#linearGradient3254-8-457-5"/><linearGradient id="linearGradient3264" x1="17.243" x2="17.243" y1="11.001" y2="2" gradientTransform="matrix(0.60025583,0,0,0.6257537,21.593951,16.59926)" gradientUnits="userSpaceOnUse" xlink:href="#linearGradient3844-342-3"/><linearGradient id="linearGradient3844-342-3"><stop id="stop4651-1" offset="0" stop-color="#a6a6a6" stop-opacity=".49"/><stop id="stop4653-4" offset="1" stop-color="#e8e8e8" stop-opacity=".49"/></linearGradient><linearGradient id="linearGradient3266" x1="24" x2="24" y1="9.373" y2="5.603" gradientTransform="matrix(0.60025583,0,0,0.6257537,21.593951,16.59926)" gradientUnits="userSpaceOnUse" xlink:href="#linearGradient3355-273-2"/><linearGradient id="linearGradient3355-273-2"><stop id="stop4657-0" offset="0" stop-color="#e1e1e1" stop-opacity="1"/><stop id="stop4659-6" offset="1" stop-color="#a6a6a6" stop-opacity="1"/></linearGradient><linearGradient id="linearGradient3269" x1="15.036" x2="19.777" y1="11.206" y2="18.185" gradientTransform="matrix(0.58418888,0,0,0.45654548,21.979545,36.242411)" gradientUnits="userSpaceOnUse" xlink:href="#linearGradient4259-9"/><linearGradient id="linearGradient4259-9"><stop id="stop4261-2" offset="0" stop-color="#d26c6c" stop-opacity="1"/><stop id="stop4263-6" offset="1" stop-color="#db4949" stop-opacity="1"/></linearGradient><linearGradient id="linearGradient3271" x1="24" x2="24" y1="16.525" y2="13.285" gradientTransform="matrix(0.58418888,0,0,0.45654548,21.979545,36.242411)" gradientUnits="userSpaceOnUse" xlink:href="#linearGradient4247-4"/><linearGradient id="linearGradient4247-4"><stop id="stop4249-9" offset="0" stop-color="#ed978e" stop-opacity="1"/><stop id="stop4251-5" offset="1" stop-color="#db2727" stop-opacity="1"/></linearGradient><linearGradient id="linearGradient3274" x1="21.66" x2="13.26" y1="35.911" y2="35.911" gradientTransform="matrix(0.62500005,0,0,0.85714243,22.562577,11.451919)" gradientUnits="userSpaceOnUse" spreadMethod="reflect" xlink:href="#linearGradient4231-4"/><linearGradient id="linearGradient4231-4"><stop id="stop4233-8" offset="0" stop-color="#f87e71" stop-opacity="1"/><stop id="stop4237-7" offset="1" stop-color="#b5222a" stop-opacity="1"/></linearGradient><linearGradient id="linearGradient3277" x1="4" x2="10.143" y1="13.5" y2="13.5" gradientTransform="matrix(0.99994202,0,0,1.2727114,24.000537,14.985217)" gradientUnits="userSpaceOnUse" spreadMethod="reflect" xlink:href="#linearGradient4151-767-958"/><linearGradient id="linearGradient4151-767-958"><stop id="stop4470" offset="0" stop-color="#979797" stop-opacity="1"/><stop id="stop4472" offset="1" stop-color="#d5d5d5" stop-opacity="1"/></linearGradient><radialGradient id="radialGradient3280" cx="21.344" cy="14.125" r="11.969" fx="21.344" fy="14.125" gradientTransform="matrix(0.83550161,0,0,0.34171691,18.167176,39.083323)" gradientUnits="userSpaceOnUse" xlink:href="#linearGradient3280-373-7"/><linearGradient id="linearGradient3280-373-7"><stop id="stop4633-2" offset="0" stop-color="#000" stop-opacity="1"/><stop id="stop4635-7" offset="1" stop-color="#000" stop-opacity="0"/></linearGradient><linearGradient id="linearGradient3043" x1="24" x2="24" y1="37" y2="39" gradientTransform="translate(-8.32461e-8,0.99999988)" gradientUnits="userSpaceOnUse" xlink:href="#linearGradient3260"/><linearGradient id="linearGradient3260"><stop id="stop3262" offset="0" stop-color="#3c3c3c" stop-opacity="1"/><stop id="stop3264" offset="1" stop-color="#505050" stop-opacity="1"/></linearGradient><linearGradient id="linearGradient3049" x1="14" x2="32" y1="2" y2="40" gradientTransform="translate(-8.32461e-8,0.99999988)" gradientUnits="userSpaceOnUse" xlink:href="#linearGradient3246"/><linearGradient id="linearGradient3246"><stop id="stop3248" offset="0" stop-color="#e6e6e6" stop-opacity="1"/><stop id="stop3250" offset="1" stop-color="#e6e6e6" stop-opacity="0"/></linearGradient><linearGradient id="linearGradient3052" x1="24" x2="24" y1="4" y2="48.301" gradientTransform="translate(-8.32461e-8,0.99999988)" gradientUnits="userSpaceOnUse" xlink:href="#linearGradient3208"/><linearGradient id="linearGradient3208"><stop id="stop3210" offset="0" stop-color="#fff" stop-opacity="1"/><stop id="stop3212" offset="1" stop-color="#fff" stop-opacity="0"/></linearGradient><radialGradient id="radialGradient3055" cx="24" cy="13.202" r="10" fx="24" fy="13.202" gradientTransform="matrix(1.4396946e-8,2.423502,-1.7508987,0,47.115126,-47.233753)" gradientUnits="userSpaceOnUse" xlink:href="#linearGradient3851"/><linearGradient id="linearGradient3851"><stop id="stop3853" offset="0" stop-color="#545454" stop-opacity="1"/><stop id="stop3855" offset="1" stop-color="#4d4d4d" stop-opacity="1"/></linearGradient><linearGradient id="linearGradient3058" x1="23.052" x2="23.052" y1="3" y2="42.074" gradientTransform="translate(-8.32461e-8,0.99999988)" gradientUnits="userSpaceOnUse" xlink:href="#linearGradient3188"/><linearGradient id="linearGradient3188"><stop id="stop3190" offset="0" stop-color="#404040" stop-opacity="1"/><stop id="stop3192" offset="1" stop-color="#282828" stop-opacity="1"/></linearGradient><linearGradient id="linearGradient3847" x1="12.148" x2="23.564" y1="23.588" y2="23.5" gradientUnits="userSpaceOnUse" spreadMethod="reflect" xlink:href="#linearGradient3841"/><linearGradient id="linearGradient3841"><stop id="stop3843" offset="0" stop-color="#b4b4b4" stop-opacity="1"/><stop id="stop3849" offset=".142" stop-color="#9e9e9e" stop-opacity="1"/><stop id="stop3845" offset="1" stop-color="#ddd" stop-opacity="1"/></linearGradient><linearGradient id="linearGradient3061" x1="24" x2="24" y1="41.209" y2="44.023" gradientTransform="translate(-8.32461e-8,0.99999988)" gradientUnits="userSpaceOnUse" xlink:href="#linearGradient3067"/><linearGradient id="linearGradient3067"><stop id="stop3069" offset="0" stop-color="gray" stop-opacity="1"/><stop id="stop3071" offset="1" stop-color="#666" stop-opacity="1"/></linearGradient><linearGradient id="linearGradient3421" x1="32.085" x2="32.085" y1="-14.402" y2="-5.563" gradientTransform="matrix(0.6655121,0,0,0.4518781,-54.615029,45.875214)" gradientUnits="userSpaceOnUse" xlink:href="#linearGradient47870"/><linearGradient id="linearGradient47870"><stop id="stop47872" offset="0" stop-color="#000" stop-opacity="0"/><stop id="stop47878" offset=".5" stop-color="#000" stop-opacity="1"/><stop id="stop47874" offset="1" stop-color="#000" stop-opacity="0"/></linearGradient><radialGradient id="radialGradient3418" cx="51.438" cy="-12.203" r="2.172" fx="51.438" fy="-12.203" gradientTransform="matrix(1.8417267,-5.1455073e-7,6.2669991e-7,0.9200109,-115.2312,52.586443)" gradientUnits="userSpaceOnUse" xlink:href="#linearGradient51765"/><linearGradient id="linearGradient51765"><stop id="stop51767" offset="0" stop-color="#000" stop-opacity="1"/><stop id="stop51769" offset="1" stop-color="#000" stop-opacity="0"/></linearGradient><radialGradient id="radialGradient4191" cx="51.438" cy="-12.203" r="2.172" fx="51.438" fy="-12.203" gradientTransform="matrix(-1.8417267,-5.8450938e-8,-1.2125708e-7,0.9200109,52.236437,52.586419)" gradientUnits="userSpaceOnUse" xlink:href="#linearGradient51765"/></defs><metadata id="metadata4198"/><g id="layer1"><g id="g3423" transform="matrix(0.9333333,0,0,1.2500002,53.397557,-8.201581)"><rect id="rect46899" width="22" height="3.994" x="-42.497" y="39.367" fill="url(#linearGradient3421)" fill-opacity="1" fill-rule="evenodd" stroke="none" opacity=".3"/><path id="path48849" fill="url(#radialGradient3418)" fill-opacity="1" fill-rule="evenodd" stroke="none" d="m -20.497383,39.36126 0,3.996297 c 2.205021,-0.01509 4,-0.897792 4,-1.991088 0,-1.093295 -1.794978,-1.990122 -4,-2.005209 z" opacity=".3"/><path id="path52742" fill="url(#radialGradient4191)" fill-opacity="1" fill-rule="evenodd" stroke="none" d="m -42.497383,39.36126 0,3.996297 c -2.205021,-0.01509 -4,-0.897792 -4,-1.991088 0,-1.093295 1.794978,-1.990122 4,-2.005209 z" opacity=".3"/></g><rect stroke-linecap="butt" style="marker:none" id="rect3166" width="25" height="42" x="11.5" y="2.5" fill="url(#linearGradient3847)" fill-opacity="1" fill-rule="nonzero" stroke="url(#linearGradient3061)" stroke-dasharray="none" stroke-dashoffset="0" stroke-linejoin="round" stroke-miterlimit="4" stroke-opacity="1" stroke-width="1" display="inline" enable-background="accumulate" overflow="visible" rx="3" ry="3" visibility="visible"/><rect stroke-linecap="butt" style="marker:none" id="rect3184" width="21" height="38" x="13.5" y="4.5" fill="url(#linearGradient3058)" fill-opacity="1" fill-rule="nonzero" stroke="#1a1a1a" stroke-dasharray="none" stroke-dashoffset="0" stroke-linejoin="round" stroke-miterlimit="4" stroke-opacity="1" stroke-width="1" display="inline" enable-background="accumulate" overflow="visible" rx="1" ry="1" visibility="visible"/><rect id="rect3216" width="19" height="25" x="14.5" y="10.5" fill="url(#radialGradient3055)" fill-opacity="1" fill-rule="nonzero" stroke="#212121" stroke-dasharray="none" stroke-dashoffset="0" stroke-linecap="butt" stroke-linejoin="round" stroke-miterlimit="4" stroke-opacity="1" stroke-width="1" display="inline" enable-background="accumulate" overflow="visible" visibility="visible" style="marker:none"/><rect id="rect3196" width="19" height="36" x="14.5" y="5.5" fill="none" stroke="url(#linearGradient3052)" stroke-dasharray="none" stroke-dashoffset="0" stroke-linecap="butt" stroke-linejoin="round" stroke-miterlimit="4" stroke-opacity="1" stroke-width="1" display="inline" enable-background="accumulate" opacity=".2" overflow="visible" visibility="visible" style="marker:none"/><path id="rect3238" fill="url(#linearGradient3049)" fill-opacity="1" fill-rule="nonzero" stroke="none" stroke-width="1" d="M 15,5.9999998 15,41 31,5.9999998 l -16,0 z" display="inline" enable-background="accumulate" opacity=".15" overflow="visible" visibility="visible" style="marker:none"/><rect id="rect3233" width="6" height="1" x="21" y="7" fill="#333" fill-opacity="1" fill-rule="nonzero" stroke="none" stroke-width="1" display="inline" enable-background="accumulate" overflow="visible" visibility="visible" style="marker:none"/><rect id="rect3258" width="2" height="2" x="23" y="38" fill="url(#linearGradient3043)" fill-opacity="1" fill-rule="nonzero" stroke="none" stroke-width="1" display="inline" enable-background="accumulate" overflow="visible" visibility="visible" style="marker:none"/><rect id="rect3233-6" width="6" height="1" x="21" y="8" fill="#fff" fill-opacity="1" fill-rule="nonzero" stroke="none" stroke-width="1" display="inline" enable-background="accumulate" opacity=".15" overflow="visible" visibility="visible" style="marker:none"/><path id="path4045" fill="none" stroke="#666" stroke-linecap="square" stroke-linejoin="miter" stroke-opacity="1" stroke-width="1" d="m 11.5,38.5 1.00029,0"/><path id="path4045-2" fill="none" stroke="gray" stroke-linecap="square" stroke-linejoin="miter" stroke-opacity="1" stroke-width="1" d="m 18.5,2.4997099 0,1.00029"/><path id="path3278" fill="url(#radialGradient3280)" fill-opacity="1" fill-rule="nonzero" stroke="none" stroke-width="1" d="M 45.99981,43.910075 C 45.99981,46.168879 41.5227,48 35.999904,48 30.477109,48 26,46.168879 26,43.910075 c 0,-2.258804 4.477109,-4.089925 9.999904,-4.089925 5.522796,0 9.999906,1.831121 9.999906,4.089925 z" display="inline" opacity=".7" overflow="visible" visibility="visible" style="marker:none"/><path id="rect2432" fill="url(#linearGradient3277)" fill-opacity="1" fill-rule="nonzero" stroke="#575757" stroke-dasharray="none" stroke-dashoffset="0" stroke-linecap="round" stroke-linejoin="round" stroke-miterlimit="10" stroke-opacity="1" stroke-width="1" d="m 35.999842,18.167013 c -4.148905,0 -7.499566,1.131893 -7.499566,2.545423 0,8.484743 0,14.185426 0,22.67017 0.0017,0.01106 0.03179,0.02735 0.03605,0.03977 -0.01339,0.06242 -0.03605,0.135284 -0.03605,0.198861 0,1.412801 3.352799,2.545422 7.499566,2.545422 4.146766,0 7.499564,-1.132622 7.499564,-2.545422 0,-0.02473 0.002,-0.05499 0,-0.07955 0,-8.484743 0,-14.344516 0,-22.82926 0,-1.413529 -3.35066,-2.545421 -7.499564,-2.545421 z" display="inline" enable-background="accumulate" opacity=".6" overflow="visible" visibility="visible" style="marker:none"/><path id="path2564" fill="url(#linearGradient3274)" fill-opacity="1" fill-rule="nonzero" stroke="#a6242e" stroke-opacity="1" stroke-width="1" d="m 28.500079,43.16619 c 0,1.656001 3.36,3.000002 7.500002,3 4.139998,0 7.499998,-1.343999 7.499998,-3 l -15,0 z" display="inline" overflow="visible" visibility="visible" style="marker:none"/><path id="path2566" fill="url(#linearGradient3269)" fill-opacity="1" fill-rule="nonzero" stroke="url(#linearGradient3271)" stroke-dasharray="none" stroke-dashoffset="0" stroke-linecap="butt" stroke-linejoin="round" stroke-miterlimit="10" stroke-opacity="1" stroke-width=".978" d="m 43.511079,42.666659 c 0,1.386786 -3.36279,2.511 -7.511,2.511 -4.148211,0 -7.511,-1.124214 -7.511,-2.511 0,-1.386788 3.362789,-2.511 7.511,-2.511 4.14821,0 7.511,1.124212 7.511,2.511 l 0,0 z" display="block" overflow="visible" visibility="visible" style="marker:none"/><path id="path2570" fill="url(#linearGradient3264)" fill-opacity="1" fill-rule="nonzero" stroke="url(#linearGradient3266)" stroke-dasharray="none" stroke-dashoffset="0" stroke-linecap="round" stroke-linejoin="round" stroke-miterlimit="4" stroke-opacity="1" stroke-width=".984" d="m 43.508134,20.666659 c 0,1.38516 -3.36147,2.508055 -7.508055,2.508055 -4.146584,0 -7.508055,-1.122895 -7.508055,-2.508055 0,-1.385161 3.361471,-2.508055 7.508055,-2.508055 4.146585,0 7.508055,1.122894 7.508055,2.508055 l 0,0 z" display="inline" overflow="visible" visibility="visible" style="marker:none"/><path id="path3416" fill="none" stroke="url(#linearGradient3261)" stroke-dasharray="none" stroke-dashoffset="0" stroke-linecap="round" stroke-linejoin="round" stroke-miterlimit="4" stroke-opacity="1" stroke-width="1" d="m 29.500079,21.223626 c 0,1.061174 0,20.558624 0,21.621626 0,1.281418 2.92507,2.321408 6.499989,2.321408 3.574918,0 6.500011,-1.03999 6.500011,-2.321408 0,-0.983548 0,-20.638076 0,-21.621626 0,-1.070607 -2.927005,-2.074355 -6.500011,-2.056738 -3.573008,0.01762 -6.499989,0.991052 -6.499989,2.056738 z" display="inline" opacity=".3" overflow="visible" visibility="visible" style="marker:none"/><path id="path2611" fill="url(#radialGradient3258)" fill-opacity="1" fill-rule="nonzero" stroke="none" stroke-width="2.473" d="m 40.000079,19.457733 c 0,1.002333 -1.790861,1.814885 -4,1.814885 -2.209139,0 -4,-0.812552 -4,-1.814885 0,-1.002333 1.790861,-1.814885 4,-1.814885 2.209139,0 4,0.812552 4,1.814885 l 0,0 z" display="block" opacity=".2" overflow="visible" visibility="visible" style="marker:none"/><path id="path2613" fill="url(#linearGradient3253)" fill-opacity="1" stroke="url(#linearGradient3255)" stroke-dasharray="none" stroke-miterlimit="4" stroke-opacity="1" stroke-width="1" d="m 38.835691,20.253441 c 0,0.504096 -1.294526,0.913218 -2.889562,0.913218 -1.595038,0 -2.889563,-0.409122 -2.889563,-0.913218 0,-2.45701 -0.353183,-2.962238 2.889563,-2.981248 3.317011,-0.01962 2.889562,0.450074 2.889562,2.981248 z"/><path id="path2615" fill="url(#linearGradient3248)" fill-opacity="1" stroke="url(#linearGradient3250)" stroke-dasharray="none" stroke-miterlimit="4" stroke-opacity="1" stroke-width="1" d="m 39.000079,18.166658 c 0,0.552285 -1.343146,1.000001 -2.999999,1.000001 -1.656855,0 -3.000001,-0.447716 -3.000001,-1.000001 0,-0.552283 1.343146,-0.999999 3.000001,-0.999999 1.656853,0 2.999999,0.447716 2.999999,0.999999 l 0,0 z"/><path id="rect3244" fill="url(#linearGradient3245)" fill-opacity="1" fill-rule="nonzero" stroke="none" stroke-width="1" d="m 30.736422,23.284605 3.194358,0.578966 0,22.138623 -3.194358,-0.739852 0,-21.977736 0,0 z" display="inline" opacity=".4" overflow="visible" visibility="visible" style="marker:none"/><g id="g3658" opacity=".6" transform="translate(20.000079,16.66706)"><path font-stretch="normal" style="text-align:start;line-height:125%" id="text2315" fill="#fff" fill-opacity="1" stroke="none" d="m 14.132304,10.668937 c 0.442592,3.64625 0.94956,7.267406 1.32632,10.927938 0.378948,0 0.82341,0 1.202358,0 0.312512,-3.515272 0.816575,-7.009303 1.18019,-10.520217 0.185353,-0.831334 -0.320738,-1.8183887 -1.361617,-2.020366 -1.028546,-0.2536212 -2.177687,0.3744257 -2.314454,1.27154 -0.02268,0.112619 -0.0328,0.226917 -0.0328,0.341105 l -10e-7,0 z M 14.00113,25.330075 c -0.0468,1.085349 1.369189,1.936156 2.578172,1.592058 1.170986,-0.252051 1.787763,-1.493349 1.18763,-2.375696 -0.537222,-0.9121 -2.112596,-1.212621 -3.018835,-0.514553 -0.458087,0.317411 -0.761714,0.79126 -0.746967,1.298191 l 0,0 z" font-family="Georgia" font-size="62.458" font-style="normal" font-variant="normal" font-weight="normal" text-anchor="start" writing-mode="lr-tb"/><path font-stretch="normal" style="text-align:start;line-height:125%" id="path3295" fill="#000" fill-opacity="1" stroke="none" d="m 14.132304,9.6689372 c 0.442592,3.6462498 0.94956,7.2674058 1.32632,10.9279378 0.378948,0 0.82341,0 1.202358,0 0.312512,-3.515272 0.816575,-7.009302 1.18019,-10.520216 0.185353,-0.8313355 -0.320738,-1.81839 -1.361617,-2.0203674 -1.028546,-0.2536212 -2.177687,0.3744257 -2.314454,1.2715407 -0.02268,0.112618 -0.0328,0.2269161 -0.0328,0.3411049 l -10e-7,0 z M 14.00113,24.330074 c -0.0468,1.085349 1.369189,1.936156 2.578172,1.592059 1.170986,-0.252052 1.787763,-1.493349 1.18763,-2.375697 -0.537222,-0.9121 -2.112596,-1.21262 -3.018835,-0.514552 -0.458087,0.317409 -0.761714,0.79126 -0.746967,1.298191 l 0,-1e-6 z" font-family="Georgia" font-size="62.458" font-style="normal" font-variant="normal" font-weight="normal" text-anchor="start" writing-mode="lr-tb"/></g></g></svg>