<svg xmlns="http://www.w3.org/2000/svg" xmlns:svg="http://www.w3.org/2000/svg" xmlns:xlink="http://www.w3.org/1999/xlink" id="svg4079" width="48" height="48"><defs id="defs4081"><radialGradient id="radialGradient3385" cx=".105" cy="-19.537" r="4.594" fx=".105" fy="-19.537" gradientTransform="matrix(8.3080024e-7,8.6383219,-10.432547,1.0033618e-6,-203.7122,-0.5931084)" gradientUnits="userSpaceOnUse" xlink:href="#linearGradient2521"/><linearGradient id="linearGradient2521-75"><stop id="stop4039" offset="0" stop-color="#c5c5c5" stop-opacity="1"/><stop id="stop4041" offset="1" stop-color="#7d7d7d" stop-opacity="1"/></linearGradient><radialGradient id="radialGradient3368-801" cx="47.876" cy="-3.583" r="22.884" fx="47.876" fy="-3.583" gradientTransform="matrix(2.6708795e-8,1.7378252,-2.0934422,3.2174306e-8,-7.3756773,-82.760394)" gradientUnits="userSpaceOnUse" xlink:href="#linearGradient2521-75"/><linearGradient id="linearGradient2521"><stop id="stop2523" offset="0" stop-color="#a6c3e4" stop-opacity="1"/><stop id="stop2525" offset="1" stop-color="#3f76bc" stop-opacity="1"/></linearGradient><radialGradient id="radialGradient3372-330" cx=".249" cy="-57.653" r="16.754" fx=".249" fy="-57.653" gradientTransform="matrix(-6.1323916e-8,2.3786212,-2.8469673,-7.3398481e-8,-163.88697,-0.5789265)" gradientUnits="userSpaceOnUse" xlink:href="#linearGradient2521-728"/><linearGradient id="linearGradient2521-728"><stop id="stop4161" offset="0" stop-color="#c5c5c5" stop-opacity="1"/><stop id="stop4163" offset="1" stop-color="#7d7d7d" stop-opacity="1"/></linearGradient><radialGradient id="radialGradient3374-192" cx=".393" cy="-64.223" r="10.949" fx=".393" fy="-64.223" gradientTransform="matrix(3.9099873e-7,3.6854511,-4.3396167,4.604008e-7,-278.31023,-1.5533348)" gradientUnits="userSpaceOnUse" xlink:href="#linearGradient2521-194"/><linearGradient id="linearGradient2521-194"><stop id="stop2422" offset="0" stop-color="#c5c5c5" stop-opacity="1"/><stop id="stop2424" offset="1" stop-color="#7d7d7d" stop-opacity="1"/></linearGradient></defs><metadata id="metadata4084"/><g id="layer1"><path id="path2538" fill="url(#radialGradient3385)" fill-opacity="1" fill-rule="evenodd" stroke="none" stroke-dasharray="none" stroke-linecap="round" stroke-linejoin="miter" stroke-miterlimit="4" stroke-opacity="1" stroke-width="5.333" d="M 28.574733,35.052298 C 28.373902,35.225514 23.941192,39.933943 23.941192,39.933943 C 23.941192,39.933943 19.550691,35.185725 19.385962,35.052298 C 19.680347,34.83113 20.881867,33.96138 23.950763,33.973784 C 26.970491,33.98599 28.344732,34.837915 28.574733,35.052298 z" opacity=".98" overflow="visible"/><path id="path2513" fill="none" fill-rule="evenodd" stroke="url(#radialGradient3368-801)" stroke-dasharray="none" stroke-linecap="butt" stroke-linejoin="miter" stroke-miterlimit="4" stroke-opacity="1" stroke-width="4" d="M 3.1159451,17.376485 C 3.1159451,17.376485 9.7298084,10.066057 23.958819,10.066057 C 38.117882,10.066057 44.884055,17.388891 44.884055,17.388891" opacity=".4" overflow="visible"/><path id="path2511" fill="none" fill-rule="evenodd" stroke="url(#radialGradient3372-330)" stroke-dasharray="none" stroke-linecap="butt" stroke-linejoin="miter" stroke-miterlimit="4" stroke-opacity="1" stroke-width="4" d="M 9.204781,23.851864 C 9.204781,23.851864 13.96799,18.69016 23.958819,18.873806 C 34.032521,19.058975 38.712857,23.934766 38.712857,23.934766" opacity=".4" overflow="visible"/><path id="path3209" fill="none" fill-rule="evenodd" stroke="url(#radialGradient3374-192)" stroke-dasharray="none" stroke-linecap="butt" stroke-linejoin="miter" stroke-miterlimit="4" stroke-opacity="1" stroke-width="4" d="M 14.988249,30.322943 C 14.988249,30.322943 17.158514,27.57203 23.807728,27.501912 C 30.37405,27.432668 32.886516,30.322943 32.886516,30.322943" opacity=".4" overflow="visible"/><path id="path3360" fill="none" fill-rule="evenodd" stroke="#000" stroke-dasharray="none" stroke-linecap="butt" stroke-linejoin="miter" stroke-miterlimit="4" stroke-opacity="1" stroke-width="1" d="M 2.0501981,16.326623 C 2.0501981,16.326623 8.985404,8.4690591 23.838312,8.4690591 C 38.766418,8.4690591 45.921645,16.326623 45.921645,16.326623" opacity=".1"/><path id="path3362" fill="none" fill-rule="evenodd" stroke="#000" stroke-dasharray="none" stroke-linecap="butt" stroke-linejoin="miter" stroke-miterlimit="4" stroke-opacity="1" stroke-width="1" d="M 8.1428988,22.810993 C 8.1428988,22.810993 13.103857,17.466203 23.878839,17.466203 C 34.708373,17.466203 39.763474,22.862448 39.763474,22.862448" opacity=".1"/><path id="path3364" fill="none" fill-rule="evenodd" stroke="#000" stroke-dasharray="none" stroke-linecap="butt" stroke-linejoin="miter" stroke-miterlimit="4" stroke-opacity="1" stroke-width="1" d="M 13.857849,29.336821 C 13.857849,29.336821 16.313012,25.982859 23.900542,25.982859 C 31.534839,25.982859 33.921212,29.283604 33.921212,29.283604" opacity=".1"/><path id="path3366" fill="none" fill-rule="evenodd" stroke="#fff" stroke-dasharray="none" stroke-linecap="butt" stroke-linejoin="miter" stroke-miterlimit="4" stroke-opacity="1" stroke-width="1" d="M 19.771867,35.411037 C 19.771867,35.411037 20.65444,34.50512 23.923479,34.50512 C 27.212667,34.50512 28.24082,35.453679 28.24082,35.453679" opacity=".3"/></g></svg>