<svg xmlns="http://www.w3.org/2000/svg" xmlns:svg="http://www.w3.org/2000/svg" xmlns:xlink="http://www.w3.org/1999/xlink" id="svg2" width="16" height="16" version="1.0"><defs id="defs4"><linearGradient id="linearGradient3622"><stop id="stop3624" offset="0" stop-color="#3c3c3c" stop-opacity="1"/><stop id="stop3626" offset="1" stop-color="#1e1e1e" stop-opacity="1"/></linearGradient><linearGradient id="linearGradient3324"><stop id="stop3326" offset="0" stop-color="#fff" stop-opacity="1"/><stop id="stop3328" offset="1" stop-color="#fff" stop-opacity="0"/></linearGradient><linearGradient id="linearGradient4429" x1="17.676" x2="15.543" y1="28.648" y2="26.971" gradientTransform="matrix(0.6435676,0,0,0.6283907,-5.5307498,-1.6478643)" gradientUnits="userSpaceOnUse" xlink:href="#linearGradient3324"/><linearGradient id="linearGradient3155"><stop id="stop3157" offset="0" stop-color="#f0f0f0" stop-opacity="1"/><stop id="stop3159" offset="1" stop-color="#9b9b9b" stop-opacity="1"/></linearGradient><radialGradient id="radialGradient4432" cx="37.972" cy="11.218" r="10.024" fx="37.972" fy="11.218" gradientTransform="matrix(0.60661043,0.01127182,-0.01092652,0.60630977,-4.1778358,-3.3357922)" gradientUnits="userSpaceOnUse" xlink:href="#linearGradient3155"/><linearGradient id="linearGradient3685"><stop id="stop3687" offset="0" stop-color="#fff" stop-opacity="0"/><stop id="stop3689" offset=".771" stop-color="#000" stop-opacity=".498"/><stop id="stop3691" offset="1" stop-color="#000" stop-opacity="1"/></linearGradient><radialGradient id="radialGradient4596" cx="31.002" cy="20.938" r=".914" fx="31.002" fy="20.938" gradientTransform="matrix(10.024331,0.18763351,-0.18343892,10.253549,-286.44733,-216.55653)" gradientUnits="userSpaceOnUse" xlink:href="#linearGradient3685"/><linearGradient id="linearGradient4609" x1="32.303" x2="34.59" y1="18.646" y2="16.081" gradientTransform="matrix(0.50352448,0.01030998,-0.0090697,0.55457246,-0.56473541,-2.4696947)" gradientUnits="userSpaceOnUse" xlink:href="#linearGradient3165"/><linearGradient id="linearGradient4606" x1="34.204" x2="39" y1="17.334" y2="23.119" gradientTransform="matrix(0.50352448,0.01030998,-0.0090697,0.55457246,-0.56473541,-2.4696947)" gradientUnits="userSpaceOnUse" spreadMethod="reflect" xlink:href="#linearGradient3179"/><linearGradient id="linearGradient3449"><stop id="stop3451" offset="0" stop-color="#fff" stop-opacity="1"/><stop id="stop3453" offset="1" stop-color="#9b9b9b" stop-opacity="0"/></linearGradient><radialGradient id="radialGradient4602" cx="37.972" cy="11.218" r="10.024" fx="37.972" fy="11.218" gradientTransform="matrix(0.60661033,0.01127153,-0.01092652,0.60629392,-4.1778309,-3.3356661)" gradientUnits="userSpaceOnUse" xlink:href="#linearGradient3449"/><linearGradient id="linearGradient3165"><stop id="stop3167" offset="0" stop-color="#1e1e1e" stop-opacity="1"/><stop id="stop3173" offset=".266" stop-color="#8d8d8d" stop-opacity="1"/><stop id="stop3169" offset="1" stop-color="#eee" stop-opacity="1"/></linearGradient><linearGradient id="linearGradient4339" x1="26.546" x2="28.415" y1="25.605" y2="23.377" gradientTransform="matrix(0.6435676,0,0,0.6283907,-4.5383864,-4.7948011)" gradientUnits="userSpaceOnUse" xlink:href="#linearGradient3165"/><linearGradient id="linearGradient3179"><stop id="stop3181" offset="0" stop-color="#fff" stop-opacity="1"/><stop id="stop3183" offset="1" stop-color="#fff" stop-opacity="0"/></linearGradient><linearGradient id="linearGradient4336" x1="27.501" x2="31.416" y1="24.468" y2="28.492" gradientTransform="matrix(0.6406125,0,0,0.6305674,-4.2302166,-4.778761)" gradientUnits="userSpaceOnUse" spreadMethod="reflect" xlink:href="#linearGradient3179"/><radialGradient id="radialGradient3628" cx="11.306" cy="8.303" r="8.703" fx="11.306" fy="8.303" gradientTransform="matrix(-0.75215422,1.7163962,-0.68816332,-0.31291346,24.728001,-7.6690858)" gradientUnits="userSpaceOnUse" xlink:href="#linearGradient3622"/></defs><g id="layer1" transform="matrix(0.72727244,0,0,0.72715331,-0.99827015,-0.4516793)"><path id="path2383" fill="url(#radialGradient4432)" fill-opacity="1" stroke="none" d="M 21.999094,7.6020835 A 5.5007203,5.4965697 25.00122 1 1 11.00092,7.3977192 5.5007203,5.4965697 25.00122 1 1 21.999094,7.6020835 z"/><path id="path3681" fill="url(#radialGradient4596)" fill-opacity="1" stroke="none" d="M 21.74822,7.5978728 A 5.3745271,5.4974217 0 1 1 11.000967,7.3967077 5.3745271,5.4974217 0 1 1 21.74822,7.5978728 z" opacity=".191"/><path id="path3163" fill="url(#linearGradient4609)" fill-opacity="1" fill-rule="evenodd" stroke="none" d="m 13.127573,3.3716128 c 0,0 1.99827,2.9835932 7.451303,7.4780512 0.222807,0.18364 -0.422069,0.951096 -0.64316,0.735418 0,0 -3.376319,-1.822492 -7.502458,-7.3186841 -0.204417,-0.2722901 0.153463,-0.4780937 0.694315,-0.8947851 z"/><path id="path3177" fill="url(#linearGradient4606)" fill-opacity="1" fill-rule="evenodd" stroke="none" d="m 13.127573,3.3716128 c 0,0 1.99827,2.9835932 7.451303,7.4780512 0.222807,0.18364 -0.422069,0.951096 -0.64316,0.735418 0,0 -3.376319,-1.822492 -7.502458,-7.3186841 -0.204417,-0.2722901 0.153463,-0.4780937 0.694315,-0.8947851 z" opacity=".674"/><path id="path2677" fill="url(#radialGradient4602)" fill-opacity="1" stroke="none" d="M 21.999094,7.6019236 A 5.5006945,5.4964508 24.262456 1 1 11.000922,7.3975647 5.5006945,5.4964508 24.262456 1 1 21.999094,7.6019236 z" opacity=".479"/><path id="path3320" fill="url(#radialGradient3628)" fill-opacity="1" fill-rule="evenodd" stroke="none" d="M 11.000004,7.4972902 1.375,19.273357 c 0.5776362,3.207784 3.8509079,3.351417 3.8509079,3.351417 L 16.500007,12.998193 11.000004,7.4972902 z"/><path id="path3322" fill="url(#linearGradient4429)" fill-opacity="1" fill-rule="evenodd" stroke="none" d="M 12.375005,10.247742 C 1.0466829,22.844882 2.5514137,21.16732 2.5514137,21.16732 c 0,0 -1.129758,-1.020127 -1.1787917,-1.738287 L 10.55231,8.3106299 c 0,0 0.844845,1.0549553 1.822695,1.9371121 z" opacity=".42"/><path id="path3302" fill="url(#linearGradient4339)" fill-opacity="1" fill-rule="evenodd" stroke="none" d="m 15.800489,13.480982 c 0.468232,-0.05715 1.580286,-0.714362 1.580286,-0.714362 -1.609551,-0.800084 -6.496734,-5.6005886 -6.496734,-5.6005886 0,0 -0.848672,1.0858295 -0.760878,1.4001475 0,0 2.809398,3.2574851 5.677326,4.9148031 z"/><path id="path3316" fill="url(#linearGradient4336)" fill-opacity="1" fill-rule="evenodd" stroke="none" d="m 16.015267,13.560329 c 0.466082,-0.05735 1.57303,-0.716836 1.57303,-0.716836 -1.602161,-0.802856 -6.466903,-5.619989 -6.466903,-5.619989 0,0 -0.844775,1.089591 -0.757384,1.404998 0,0 2.796498,3.268768 5.651257,4.931827 z" opacity=".526"/></g></svg>