<svg xmlns="http://www.w3.org/2000/svg" xmlns:svg="http://www.w3.org/2000/svg" xmlns:xlink="http://www.w3.org/1999/xlink" id="svg5519" width="16" height="16"><defs id="defs5521"><linearGradient id="linearGradient3967"><stop id="stop3969" offset="0" stop-color="#fff" stop-opacity="1"/><stop id="stop3971" offset="1" stop-color="#fff" stop-opacity="0"/></linearGradient><linearGradient id="linearGradient3930" x1="-282.75" x2="-362.781" y1="4.703" y2="11.719" gradientTransform="matrix(3.9994259e-2,0,0,4.2140267e-2,154.35152,121.03082)" gradientUnits="userSpaceOnUse" xlink:href="#linearGradient3967"/><linearGradient id="linearGradient3731-3"><stop id="stop3733-3" offset="0" stop-color="#cdcdcd" stop-opacity="1"/><stop id="stop3735-2" offset="1" stop-color="#303030" stop-opacity="1"/></linearGradient><linearGradient id="linearGradient3935" x1="-396.399" x2="-134.4" y1="65.211" y2="65.211" gradientTransform="matrix(4.1588516e-2,0,0,4.0138414e-2,154.66747,121.38251)" gradientUnits="userSpaceOnUse" xlink:href="#linearGradient3731-3"/></defs><metadata id="metadata5524"/><g id="layer1"><g id="g5508" display="inline" opacity="1" transform="translate(-134,-116)"><rect id="rect3865" width="8.36" height="14.979" x="138" y="116.617" fill="#030303" fill-opacity="1" stroke="none" stroke-width=".1" display="inline" enable-background="accumulate" opacity="1" overflow="visible" ry=".524" visibility="visible" style="marker:none"/><path stroke-opacity="1" style="marker:none" id="path3881" fill="#030303" fill-opacity="1" stroke="url(#linearGradient3935)" stroke-dasharray="none" stroke-dashoffset="0" stroke-linecap="square" stroke-linejoin="miter" stroke-miterlimit="4" stroke-width="1" d="M 138.69919,117.5 L 145.30081,117.5 C 145.41115,117.5 145.5,117.61467 145.5,117.7571 L 145.5,130.24289 C 145.5,130.38532 145.41115,130.5 145.30081,130.5 L 138.69919,130.5 C 138.58883,130.5 138.50001,130.38532 138.50001,130.24289 L 138.50001,130.15275 L 138.50001,117.7571 C 138.50001,117.61467 138.58883,117.5 138.69919,117.5 L 138.69919,117.5 z" display="inline" enable-background="accumulate" opacity="1" overflow="visible" visibility="visible"/><path id="path3885" fill="none" stroke="#000" stroke-dasharray="none" stroke-miterlimit="4" stroke-opacity="1" stroke-width="22.334" d="M -385.65625,-108.3125 C -391.81011,-108.3125 -396.71875,-103.40386 -396.71875,-97.25 L -396.71875,242.125 C -396.71875,248.27886 -391.81011,253.1875 -385.65625,253.1875 L -223.5,253.1875 C -217.34614,253.1875 -212.46875,248.2839 -212.46875,242.125 L -212.46875,-97.25 C -212.46875,-103.4089 -217.34614,-108.3125 -223.5,-108.3125 L -385.65625,-108.3125 z" display="inline" enable-background="accumulate" opacity="1" overflow="visible" transform="matrix(4.8309554e-2,0,0,4.1497001e-2,156.71479,120.99406)" visibility="visible" style="marker:none"/><rect id="rect3887" width="4" height="8" x="140" y="119" fill="#2d2d2d" fill-opacity="1" stroke="none" stroke-width="2.011" display="inline" enable-background="accumulate" opacity="1" overflow="visible" ry="0" visibility="visible" style="marker:none"/><path id="path3889" fill="url(#linearGradient3930)" fill-opacity="1" stroke="none" stroke-dashoffset="0" stroke-linecap="square" stroke-linejoin="miter" stroke-miterlimit="4" stroke-opacity="1" stroke-width="1.464" d="M 138.99497,116.95507 C 138.88885,116.95507 138.80375,117.07252 138.80375,117.21976 L 138.80375,130.03303 L 138.80375,130.12653 C 138.80375,130.27376 138.88885,130.39254 138.99497,130.39254 L 140.68099,130.39254 C 141.31857,125.9134 141.76753,121.4342 142.04204,116.95507 L 138.99497,116.95507 z" display="inline" enable-background="accumulate" opacity=".1" overflow="visible" visibility="visible" style="marker:none"/><rect id="rect3891" width=".682" height=".682" x="141" y="128.318" fill="#fff" fill-opacity="1" fill-rule="nonzero" stroke="none" stroke-dasharray="none" stroke-dashoffset=".06" stroke-linecap="round" stroke-linejoin="round" stroke-miterlimit="4" stroke-opacity="1" stroke-width=".5" marker-end="none" marker-mid="none" marker-start="none" display="inline" enable-background="accumulate" opacity="1" overflow="visible" visibility="visible" style="marker:none"/><rect id="rect3893" width=".682" height=".682" x="140" y="128.318" fill="#fff" fill-opacity="1" fill-rule="nonzero" stroke="none" stroke-dasharray="none" stroke-dashoffset=".06" stroke-linecap="round" stroke-linejoin="round" stroke-miterlimit="4" stroke-opacity="1" stroke-width=".5" marker-end="none" marker-mid="none" marker-start="none" display="inline" enable-background="accumulate" opacity="1" overflow="visible" visibility="visible" style="marker:none"/><rect id="rect3895" width=".682" height=".682" x="142.318" y="128.318" fill="#fff" fill-opacity="1" fill-rule="nonzero" stroke="none" stroke-dasharray="none" stroke-dashoffset=".06" stroke-linecap="round" stroke-linejoin="round" stroke-miterlimit="4" stroke-opacity="1" stroke-width=".5" marker-end="none" marker-mid="none" marker-start="none" display="inline" enable-background="accumulate" opacity="1" overflow="visible" visibility="visible" style="marker:none"/><rect id="rect3897" width=".682" height=".682" x="143.318" y="128.318" fill="#fff" fill-opacity="1" fill-rule="nonzero" stroke="none" stroke-dasharray="none" stroke-dashoffset=".06" stroke-linecap="round" stroke-linejoin="round" stroke-miterlimit="4" stroke-opacity="1" stroke-width=".5" marker-end="none" marker-mid="none" marker-start="none" display="inline" enable-background="accumulate" opacity="1" overflow="visible" visibility="visible" style="marker:none"/></g></g></svg>