<svg xmlns="http://www.w3.org/2000/svg" xmlns:svg="http://www.w3.org/2000/svg" xmlns:xlink="http://www.w3.org/1999/xlink" id="svg3150" width="16" height="16" version="1.1"><defs id="defs3152"><linearGradient id="linearGradient3931"><stop id="stop3933" offset="0" stop-color="#8d8f8a" stop-opacity="1"/><stop id="stop3935" offset="1" stop-color="#c1c1c1" stop-opacity="1"/></linearGradient><linearGradient id="linearGradient4547" x1="-51.786" x2="-51.786" y1="50.786" y2="2.906" gradientTransform="matrix(0.3000362,0,0,0.3120485,21.157141,-0.3741276)" gradientUnits="userSpaceOnUse" xlink:href="#linearGradient3931"/><linearGradient id="linearGradient3600"><stop id="stop3602" offset="0" stop-color="#f4f4f4" stop-opacity="1"/><stop id="stop3604" offset="1" stop-color="#dbdbdb" stop-opacity="1"/></linearGradient><linearGradient id="linearGradient4545" x1="25.132" x2="25.132" y1="6.729" y2="47.013" gradientTransform="matrix(0.3715633,0,0,0.3334383,-0.9175205,-0.0025171)" gradientUnits="userSpaceOnUse" xlink:href="#linearGradient3600"/><linearGradient id="linearGradient4559"><stop id="stop4561" offset="0" stop-color="silver" stop-opacity="1"/><stop id="stop4563" offset="1" stop-color="#949492" stop-opacity="1"/></linearGradient><linearGradient id="linearGradient4565" x1="17.289" x2="15.18" y1="2.185" y2="5.821" gradientTransform="matrix(0.6844293,0,0,0.6820072,-0.2131519,0.1569169)" gradientUnits="userSpaceOnUse" xlink:href="#linearGradient4559"/><linearGradient id="linearGradient8589"><stop id="stop8591" offset="0" stop-color="#fefefe" stop-opacity="1"/><stop id="stop8593" offset="1" stop-color="#cbcbcb" stop-opacity="1"/></linearGradient><linearGradient id="linearGradient4543" x1="32.892" x2="36.358" y1="8.059" y2="5.457" gradientTransform="matrix(0.3707081,0,0,0.3548465,-0.8566575,-0.04895116)" gradientUnits="userSpaceOnUse" xlink:href="#linearGradient8589"/><linearGradient id="linearGradient4222"><stop id="stop4224" offset="0" stop-color="#fff" stop-opacity="1"/><stop id="stop4226" offset="1" stop-color="#fff" stop-opacity="0"/></linearGradient><linearGradient id="linearGradient2739"><stop id="stop2741" offset="0" stop-color="#a2bfcf" stop-opacity="0"/><stop id="stop2743" offset=".282" stop-color="#a2bfcf" stop-opacity="1"/><stop id="stop2745" offset="1" stop-color="#427da1" stop-opacity="1"/></linearGradient><linearGradient id="linearGradient2747"><stop id="stop2749" offset="0" stop-color="#517081" stop-opacity="0"/><stop id="stop2751" offset=".281" stop-color="#3f6479" stop-opacity="1"/><stop id="stop2753" offset="1" stop-color="#2e5871" stop-opacity="1"/></linearGradient><linearGradient id="linearGradient3681" x1="7" x2="7" y1="13" y2="4" gradientUnits="userSpaceOnUse" xlink:href="#linearGradient4222"/><linearGradient id="linearGradient3685" x1="55.173" x2="-.247" y1="25.167" y2="25.167" gradientTransform="matrix(0,-0.1804387,-0.1858545,0,11.677365,13.955404)" gradientUnits="userSpaceOnUse" xlink:href="#linearGradient2739"/><linearGradient id="linearGradient3687" x1="8" x2="8" y1="4" y2="14" gradientUnits="userSpaceOnUse" xlink:href="#linearGradient2747"/></defs><g id="layer1"><path id="rect2594" fill="url(#linearGradient4545)" fill-opacity="1" stroke="url(#linearGradient4547)" stroke-dasharray="none" stroke-dashoffset="0" stroke-linecap="butt" stroke-linejoin="round" stroke-miterlimit="4" stroke-opacity="1" stroke-width=".995" d="m 1.4976268,0.49762721 c 2.980045,0 4.9376418,0 7.9176887,0 0.522766,0.16184396 4.3536885,2.61362219 5.0870585,3.89029659 0,3.907463 0,7.2069842 0,11.1144502 -4.334914,0 -8.6698338,0 -13.0047472,0 0,-5.001584 0,-10.0031638 0,-15.00474679 z" display="inline"/><path id="path4348" fill="url(#linearGradient3685)" fill-opacity="1" fill-rule="nonzero" stroke="url(#linearGradient3687)" stroke-dasharray="none" stroke-dashoffset="0" stroke-linecap="round" stroke-linejoin="round" stroke-miterlimit="4" stroke-opacity="1" stroke-width=".75" d="M 12.5,9.5 8,13.625 3.5,9.5 l 2,0 0,-5.5 5,0 0,5.5 2,0 z" display="inline" overflow="visible" visibility="visible" style="marker:none"/><path id="path12038" fill="url(#linearGradient4543)" fill-opacity="1" fill-rule="evenodd" stroke="url(#linearGradient4565)" stroke-dasharray="none" stroke-linecap="butt" stroke-linejoin="round" stroke-miterlimit="4" stroke-opacity="1" stroke-width=".995" d="M 9.5,0.4979205 C 9.5,2.041279 9.5,4.5 9.5,4.5 c 0,0 4.080603,0 5.00208,0 0,-1.9018156 -3.00574,-4.0020795 -5.00208,-4.0020795 z" display="inline"/><path id="path3683" fill="none" stroke="url(#linearGradient3681)" stroke-dasharray="none" stroke-dashoffset="0" stroke-linecap="round" stroke-linejoin="round" stroke-miterlimit="4" stroke-opacity="1" stroke-width=".75" d="m 6.15625,4.65625 0,4.84375 A 0.66172028,0.66172028 0 0 1 5.5,10.15625 l -0.3125,0 2.8125,2.5625 2.8125,-2.5625 -0.3125,0 A 0.66172028,0.66172028 0 0 1 9.84375,9.5 l 0,-4.84375 -3.6875,0 z" display="inline" opacity=".42" overflow="visible" visibility="visible" style="marker:none"/></g></svg>