<svg xmlns="http://www.w3.org/2000/svg" xmlns:svg="http://www.w3.org/2000/svg" xmlns:xlink="http://www.w3.org/1999/xlink" id="svg3779" width="16" height="16" version="1.1"><defs id="defs3781"><linearGradient id="linearGradient2926" x1="25.076" x2="25.076" y1="45.915" y2="6.443" gradientUnits="userSpaceOnUse" xlink:href="#linearGradient2490-3-0"/><linearGradient id="linearGradient2490-3-0"><stop id="stop2492-3-1" offset="0" stop-color="#365f0e" stop-opacity="1"/><stop id="stop2494-8-7" offset="1" stop-color="#84a718" stop-opacity="1"/></linearGradient><linearGradient id="linearGradient2939" x1="35.517" x2="34.103" y1="4.858" y2="6.544" gradientTransform="matrix(0.3428665,0,0,0.3408721,-0.6875871,0.32953006)" gradientUnits="userSpaceOnUse" xlink:href="#linearGradient4267"/><linearGradient id="linearGradient4267"><stop id="stop4269" offset="0" stop-color="#c4c4c4" stop-opacity="1"/><stop id="stop4271" offset="1" stop-color="#c4c4c4" stop-opacity="0"/></linearGradient><linearGradient id="linearGradient2945" x1="32.892" x2="36.358" y1="8.059" y2="5.457" gradientTransform="matrix(0.3091956,0,0,0.3766935,0.47614606,0.10717746)" gradientUnits="userSpaceOnUse" xlink:href="#linearGradient8589"/><linearGradient id="linearGradient8589"><stop id="stop8591" offset="0" stop-color="#fefefe" stop-opacity="1"/><stop id="stop8593" offset="1" stop-color="#cbcbcb" stop-opacity="1"/></linearGradient><linearGradient id="linearGradient2949" x1="24" x2="24" y1="2" y2="46.017" gradientTransform="matrix(0.2727267,0,0,0.302325,1.4545607,0.74419866)" gradientUnits="userSpaceOnUse" xlink:href="#linearGradient3211"/><linearGradient id="linearGradient3211"><stop id="stop3213" offset="0" stop-color="#fff" stop-opacity="1"/><stop id="stop3215" offset="1" stop-color="#fff" stop-opacity="0"/></linearGradient><linearGradient id="linearGradient3242-7-9"><stop id="stop3244-5-3" offset="0" stop-color="#eef87e" stop-opacity="1"/><stop id="stop3246-9-6" offset=".262" stop-color="#cde34f" stop-opacity="1"/><stop id="stop3248-7-8" offset=".661" stop-color="#93b723" stop-opacity="1"/><stop id="stop3250-8-0" offset="1" stop-color="#5a7e0d" stop-opacity="1"/></linearGradient><linearGradient id="linearGradient2490-3-10"><stop id="stop2492-3-5" offset="0" stop-color="#365f0e" stop-opacity="1"/><stop id="stop2494-8-1" offset="1" stop-color="#84a718" stop-opacity="1"/></linearGradient><radialGradient id="radialGradient3775" cx="12.123" cy="9.473" r="18" fx="12.123" fy="9.473" gradientTransform="matrix(0,1.0269953,-1.0975954,0,17.897137,-12.45032)" gradientUnits="userSpaceOnUse" xlink:href="#linearGradient3242-7-9"/><linearGradient id="linearGradient3777" x1="-51.786" x2="-51.786" y1="53.624" y2="2.906" gradientTransform="matrix(0.2768636,0,0,0.3050233,19.641,-0.68561044)" gradientUnits="userSpaceOnUse" xlink:href="#linearGradient2490-3-10"/><linearGradient id="linearGradient2849" x1="25.076" x2="25.076" y1="45.915" y2="6.443" gradientTransform="translate(-0.4999805,0.00518214)" gradientUnits="userSpaceOnUse" xlink:href="#linearGradient2490-3-0"/></defs><metadata id="metadata3784"/><g id="layer1"><path id="path4160" fill="url(#radialGradient3775)" fill-opacity="1" fill-rule="nonzero" stroke="url(#linearGradient3777)" stroke-dasharray="none" stroke-dashoffset="0" stroke-linecap="butt" stroke-linejoin="round" stroke-miterlimit="4" stroke-opacity="1" stroke-width="1" d="m 1.5,0.49996596 c 2.5206756,0 5.9205035,0 8.4411815,0 0.4421795,0.1617935 2.9385125,2.13284514 3.5588315,3.40912114 0,3.906246 2.6e-5,7.6846979 2.6e-5,11.5909469 -3.6666935,0 -8.3333464,0 -12.000039,0 0,-5.000023 0,-10.0000469 0,-15.00006804 z" display="inline" enable-background="accumulate" overflow="visible" visibility="visible" style="marker:none"/><path id="path2435" fill="none" stroke="url(#linearGradient2949)" stroke-dasharray="none" stroke-dashoffset="0" stroke-linecap="butt" stroke-linejoin="miter" stroke-miterlimit="4" stroke-opacity="1" stroke-width="1" d="m 12.5,4.2150732 c 0,3.3853981 0,6.8995288 0,10.2849278 -2.999999,0 -6.9999991,0 -10,0 0,-4.333337 0,-8.6666688 0,-13.0000014 2.0623569,0 5.1738997,0 7.2362577,0" display="inline" opacity=".4"/><path id="path3330" fill="#000" fill-opacity="1" fill-rule="evenodd" stroke="none" d="M 9.2941205,0.84090186 C 10.142028,3.6448051 9,5.0341182 9,5.0341182 c 0,0 1.892807,-1.2514061 4.171354,-0.1023041 1.942856,0.9798084 0.03608,-1.008024 -0.04146,-1.129046 C 12.586944,2.9552639 10.707454,1.1696615 10.025256,0.87258626 9.9696235,0.84835986 9.5814385,0.84090186 9.2941205,0.84090186 z" display="inline" opacity=".3"/><path id="path4474" fill="url(#linearGradient2945)" fill-opacity="1" fill-rule="evenodd" stroke="none" d="M 9.2941205,0.84090186 C 10.281641,0.84090186 10,4.0219208 10,4.0219208 c 0,0 2.272472,-0.5007314 3.171354,0.9098933 0.162882,0.2556128 0.03608,-1.008024 -0.04146,-1.129046 C 12.586944,2.9552639 10.707454,1.1696615 10.025256,0.87258626 9.9696235,0.84835986 9.5814385,0.84090186 9.2941205,0.84090186 z" display="inline"/><path id="path3883" fill="none" stroke="url(#linearGradient2939)" stroke-dasharray="none" stroke-dashoffset="0" stroke-linecap="butt" stroke-linejoin="round" stroke-miterlimit="4" stroke-opacity="1" stroke-width="1" d="m 9.7907032,0.49996611 c 0.4823898,0.16179596 3.0739538,2.00412449 3.7506838,3.28041839 0,3.9063032 0,0.2814028 0,4.1877061 C -0.3261322,13.329645 1.4602649,0.49996611 9.7907032,0.49996611 z" display="inline"/><path id="path3107" fill="url(#linearGradient2849)" fill-opacity="1" fill-rule="nonzero" stroke="none" stroke-width=".328" d="M 5.8437695,4.0051821 C 5.0316463,4.0654691 4.9161608,4.8626671 5,5.6594864 5,6.1080516 5,6.5566169 5,7.0051821 4.0145478,7.0696251 2.8488375,8.241281 3.2979226,9.1208215 c 0.2947327,0.5004594 0.7086625,0.9192435 1.0616081,1.3797205 0.6968007,0.849323 1.3776361,1.712362 2.0847414,2.552832 0.6210512,0.660979 1.7974327,0.539983 2.2930834,-0.21049 0.94892,-1.174716 1.9114775,-2.338843 2.8517205,-3.5202959 C 12.168383,8.5227929 11.691234,7.2625138 10.727497,7.0469238 10.383426,7.108693 10.031025,6.7663325 10,6.5679866 9.975777,6.0182667 10.189867,5.4499394 10,4.9223815 9.750929,4.2782156 9.4308814,3.9437772 8.768563,4.0051821 c -0.9749286,4e-7 -1.9498795,-5e-7 -2.9247935,0 z" color="#000" display="inline" enable-background="accumulate" opacity=".3" overflow="visible" visibility="visible" style="marker:none"/><path id="path3288-2" fill="#f2f2f2" fill-opacity="1" stroke="#fff" stroke-opacity="1" stroke-width=".985" d="M 10.333354,8.5 7.5000195,12 4.6666855,8.5 6.5,8.5 l 0,-3.0072866 2,0 0,3.0072866 1.833354,0 z" display="inline" overflow="visible" visibility="visible" style="marker:none"/></g></svg>