<svg xmlns="http://www.w3.org/2000/svg" xmlns:svg="http://www.w3.org/2000/svg" xmlns:xlink="http://www.w3.org/1999/xlink" id="svg5069" width="22" height="22" version="1.0"><defs id="defs5071"><linearGradient id="linearGradient3967"><stop id="stop3969" offset="0" stop-color="#fff" stop-opacity="1"/><stop id="stop3971" offset="1" stop-color="#fff" stop-opacity="0"/></linearGradient><linearGradient id="linearGradient3731-3"><stop id="stop3733-3" offset="0" stop-color="#cdcdcd" stop-opacity="1"/><stop id="stop3735-2" offset="1" stop-color="#303030" stop-opacity="1"/></linearGradient><linearGradient id="linearGradient3771"><stop id="stop3773" offset="0" stop-color="#fff" stop-opacity="1"/><stop id="stop3775" offset="1" stop-color="#0d0d0d" stop-opacity="1"/></linearGradient><linearGradient id="linearGradient3779"><stop id="stop3781" offset="0" stop-color="#5b5b5b" stop-opacity="1"/><stop id="stop3783" offset="1" stop-color="#000" stop-opacity="1"/></linearGradient><linearGradient id="linearGradient3709"><stop id="stop3711" offset="0" stop-color="#adadad" stop-opacity="1"/><stop id="stop3713" offset="1" stop-color="#434343" stop-opacity="1"/></linearGradient><linearGradient id="linearGradient3793"><stop id="stop3795" offset="0" stop-color="#3f3f3f" stop-opacity="1"/><stop id="stop5268" offset=".361" stop-color="#3c3c3c" stop-opacity="1"/><stop id="stop5266" offset=".66" stop-color="#2e2e2e" stop-opacity="1"/><stop id="stop3797" offset="1" stop-color="#202020" stop-opacity="1"/></linearGradient><linearGradient id="linearGradient5060"><stop id="stop5062" offset="0" stop-color="#000" stop-opacity="1"/><stop id="stop5064" offset="1" stop-color="#000" stop-opacity="0"/></linearGradient><linearGradient id="linearGradient5048"><stop id="stop5050" offset="0" stop-color="#000" stop-opacity="0"/><stop id="stop5056" offset=".5" stop-color="#000" stop-opacity="1"/><stop id="stop5052" offset="1" stop-color="#000" stop-opacity="0"/></linearGradient><linearGradient id="linearGradient5470" x1="302.857" x2="302.857" y1="366.648" y2="609.505" gradientTransform="matrix(3.2949134,0,0,2.5953268,-2121.8877,-1254.2044)" gradientUnits="userSpaceOnUse" xlink:href="#linearGradient5048"/><radialGradient id="radialGradient5472" cx="605.714" cy="486.648" r="117.143" fx="605.714" fy="486.648" gradientTransform="matrix(3.2949134,0,0,2.5953268,-2121.2392,-1254.2044)" gradientUnits="userSpaceOnUse" xlink:href="#linearGradient5060"/><radialGradient id="radialGradient5474" cx="605.714" cy="486.648" r="117.143" fx="605.714" fy="486.648" gradientTransform="matrix(-3.2949134,0,0,2.5953268,259.21603,-1254.2044)" gradientUnits="userSpaceOnUse" xlink:href="#linearGradient5060"/><linearGradient id="linearGradient5476" x1="-393.433" x2="-221.406" y1="67.439" y2="68.025" gradientUnits="userSpaceOnUse" xlink:href="#linearGradient3793"/><linearGradient id="linearGradient5478" x1="-397.063" x2="-212.125" y1="72.438" y2="72.438" gradientUnits="userSpaceOnUse" xlink:href="#linearGradient3709"/><linearGradient id="linearGradient2450" x1="-282.75" x2="-362.781" y1="4.703" y2="11.719" gradientTransform="matrix(5.375088e-2,0,0,5.663504e-2,27.600015,6.5483307)" gradientUnits="userSpaceOnUse" xlink:href="#linearGradient3967"/><linearGradient id="linearGradient2456" x1="-396.399" x2="-134.4" y1="65.211" y2="65.211" gradientTransform="matrix(6.4941419e-2,0,0,5.2735439e-2,30.810894,6.5675102)" gradientUnits="userSpaceOnUse" xlink:href="#linearGradient3731-3"/><radialGradient id="radialGradient2459" cx="-398" cy="257.924" r="2.313" fx="-398" fy="257.924" gradientTransform="matrix(2.0487531e-2,0,0,5.7143861e-2,18.726985,4.7256295)" gradientUnits="userSpaceOnUse" xlink:href="#linearGradient3779"/><linearGradient id="linearGradient2461" x1="-396.625" x2="-399.563" y1="260.446" y2="258.258" gradientTransform="matrix(2.9155328e-2,0,0,4.0413934e-2,22.176777,9.0347682)" gradientUnits="userSpaceOnUse" xlink:href="#linearGradient3771"/></defs><metadata id="metadata5074"/><g id="layer1"><g id="g3240"><g id="g3661" transform="matrix(5.6375921e-3,0,0,3.2549782e-3,16.248665,20.933472)"><rect id="rect3663" width="1590.973" height="630.294" x="-1726.498" y="-302.633" fill="url(#linearGradient5470)" fill-opacity="1" fill-rule="nonzero" stroke="none" stroke-width="1" display="inline" opacity=".402" overflow="visible" visibility="visible" style="marker:none"/><path id="path3665" fill="url(#radialGradient5472)" fill-opacity="1" fill-rule="nonzero" stroke="none" stroke-width="1" d="M -135.52559,-302.61162 C -135.52559,-302.61162 -135.52559,327.64726 -135.52559,327.64726 C 34.154293,328.83371 274.67781,186.43822 274.67771,12.477262 C 274.67771,-161.48373 85.327731,-302.6116 -135.52559,-302.61162 L -135.52559,-302.61162 z" display="inline" opacity=".402" overflow="visible" visibility="visible" style="marker:none"/><path id="path3667" fill="url(#radialGradient5474)" fill-opacity="1" fill-rule="nonzero" stroke="none" stroke-width="1" d="M -1726.4981,-302.61162 C -1726.4981,-302.61162 -1726.4981,327.64726 -1726.4981,327.64726 C -1896.1779,328.83371 -2136.7014,186.43822 -2136.7014,12.477262 C -2136.7014,-161.48373 -1947.3515,-302.6116 -1726.4981,-302.61162 L -1726.4981,-302.61162 z" display="inline" opacity=".402" overflow="visible" visibility="visible" style="marker:none"/></g><g id="g3672" stroke-dasharray="none" stroke-miterlimit="4" stroke-width=".101" transform="matrix(6.5631438e-2,0,0,5.5274095e-2,31.013437,6.3705988)"><rect id="rect3674" width="187.693" height="364.926" x="-398.438" y="-110.023" fill="url(#linearGradient5476)" fill-opacity="1" stroke="#000" stroke-dasharray="none" stroke-miterlimit="4" stroke-opacity="1" stroke-width="7.759" display="inline" enable-background="accumulate" overflow="visible" ry="12.769" visibility="visible" style="marker:none"/><path id="path3676" fill="none" stroke="url(#linearGradient5478)" stroke-dasharray="none" stroke-miterlimit="4" stroke-opacity="1" stroke-width=".19" d="M -385.65625,-108.3125 C -391.81011,-108.3125 -396.71875,-103.40386 -396.71875,-97.25 L -396.71875,242.125 C -396.71875,248.27886 -391.81011,253.1875 -385.65625,253.1875 L -223.5,253.1875 C -217.34614,253.1875 -212.46875,248.2839 -212.46875,242.125 L -212.46875,-97.25 C -212.46875,-103.4089 -217.34614,-108.3125 -223.5,-108.3125 L -385.65625,-108.3125 z" display="inline" enable-background="accumulate" overflow="visible" visibility="visible" style="marker:none"/></g><path id="path3686" fill="#030303" fill-opacity="1" stroke="url(#linearGradient2456)" stroke-dasharray="none" stroke-dashoffset="0" stroke-linecap="square" stroke-linejoin="miter" stroke-miterlimit="4" stroke-opacity="1" stroke-width="1" d="M 5.8760572,1.4665011 L 16.184624,1.4665011 C 16.356921,1.4665011 16.495661,1.6171576 16.495661,1.8042979 L 16.495661,18.20862 C 16.495661,18.395755 16.356921,18.546417 16.184624,18.546417 L 5.8760572,18.546417 C 5.7037208,18.546417 5.5650209,18.395755 5.5650209,18.20862 L 5.5650209,18.090203 L 5.5650209,1.8042979 C 5.5650209,1.6171576 5.7037208,1.4665011 5.8760572,1.4665011 L 5.8760572,1.4665011 z" display="inline" enable-background="accumulate" overflow="visible" visibility="visible" style="marker:none"/><path id="path3688" fill="#fff" fill-opacity="1" d="M 12.17074,2.3153767 C 11.994263,2.3140734 11.816761,2.3944006 11.776908,2.5146416 C 11.738944,2.629264 11.822434,2.720657 11.988077,2.746056 C 12.103399,2.7637366 12.25313,2.7374091 12.340607,2.6838008 C 12.510237,2.5798481 12.510805,2.4090794 12.341771,2.3454833 C 12.288345,2.3253811 12.229565,2.3158112 12.17074,2.3153767 z M 9.4378058,2.3161421 C 9.3233263,2.3163272 9.2056022,2.3488278 9.1309568,2.4079933 C 8.9682016,2.536971 9.034937,2.7120806 9.2597989,2.746056 C 9.3265343,2.7561401 9.4360551,2.7488818 9.5067409,2.7297264 C 9.7506399,2.6636464 9.8253495,2.4352887 9.6303677,2.3516069 C 9.5741271,2.3274709 9.5065026,2.3160312 9.4378058,2.3161421 z M 10.741451,2.3161421 C 10.717959,2.3162603 10.693771,2.3175765 10.669033,2.3204793 C 10.485187,2.3420562 10.348784,2.4449319 10.348784,2.5620988 C 10.348784,2.6588289 10.433053,2.7279996 10.574205,2.7470761 C 10.726859,2.7677072 10.890073,2.7229401 10.980831,2.6358349 C 11.032343,2.5863879 11.051581,2.5388225 11.044826,2.4771365 C 11.034194,2.380224 10.905929,2.3153162 10.741451,2.3161421 z M 13.519471,2.3299199 L 13.408062,2.3322169 L 13.296662,2.3345119 L 13.144832,2.5304606 C 13.061287,2.6382327 12.992645,2.7291655 12.992425,2.7325329 C 12.992205,2.7359013 13.027402,2.7386565 13.070673,2.7386565 L 13.149498,2.7386565 L 13.178287,2.7019159 L 13.207086,2.6651761 L 13.312372,2.6651761 L 13.417668,2.6651761 L 13.4261,2.6998756 L 13.434248,2.7345751 L 13.530809,2.7368711 L 13.627378,2.7391671 L 13.621842,2.7205415 C 13.618781,2.710275 13.594345,2.6182093 13.567756,2.5159184 L 13.519471,2.3299199 z M 8.4491761,2.3304305 C 8.3439815,2.3304305 8.3297563,2.3320739 8.3255584,2.3447179 C 8.3229462,2.3525766 8.3017551,2.416258 8.2784376,2.4863214 C 8.2444513,2.588408 8.235973,2.6261129 8.235973,2.6761465 L 8.235973,2.7386565 L 8.2915171,2.7386565 L 8.3467953,2.7386565 L 8.3758781,2.6549701 C 8.3917622,2.6089428 8.4078572,2.5624416 8.4116518,2.551638 C 8.4170687,2.5362369 8.4249787,2.5543153 8.4491761,2.6353244 L 8.4802936,2.7386565 L 8.528001,2.7386565 L 8.5756993,2.7386565 L 8.667897,2.6488465 C 8.7186749,2.59947 8.7619278,2.5603765 8.7638801,2.5620988 C 8.7669139,2.5647541 8.7262732,2.6975466 8.712983,2.7284505 C 8.708061,2.7399159 8.8079945,2.7421441 8.8729518,2.7320233 L 8.9093212,2.7264103 L 8.9497419,2.5998596 C 8.9719412,2.5302782 9.0001899,2.4411612 9.0125727,2.4018697 L 9.0352578,2.3304305 L 8.9075706,2.3304305 L 8.7801767,2.3304305 L 8.7016359,2.412841 L 8.6231134,2.4949968 L 8.5954697,2.412841 L 8.5681376,2.3304305 L 8.4491761,2.3304305 z M 9.8095295,2.3304305 L 9.7996397,2.365129 C 9.7940761,2.3842138 9.7853137,2.4105377 9.7804467,2.4235566 C 9.7634536,2.4690001 9.7640585,2.4692274 9.865376,2.4692274 C 9.9503328,2.4692274 9.9586369,2.4705619 9.9540907,2.4835149 C 9.9513319,2.4913736 9.9363001,2.5455657 9.920636,2.603942 C 9.904981,2.6623183 9.8900042,2.7166048 9.8871904,2.7246239 C 9.8824609,2.7380681 9.8893076,2.7390232 9.9776557,2.7368711 L 10.07363,2.7345751 L 10.103592,2.6325179 C 10.120164,2.5763863 10.138459,2.5166837 10.144022,2.4998436 L 10.154205,2.4692274 L 10.249611,2.4692274 L 10.345301,2.4692274 L 10.361295,2.4100336 C 10.369984,2.3774779 10.376776,2.3462486 10.376712,2.3406355 C 10.37662,2.3326971 10.313661,2.3304305 10.093125,2.3304305 L 9.8095295,2.3304305 z M 11.17134,2.3304305 L 11.109096,2.5253581 C 11.07489,2.6325353 11.046861,2.7243865 11.046861,2.7294716 C 11.046861,2.7356969 11.07522,2.7386565 11.133825,2.7386565 L 11.220789,2.7386565 L 11.239111,2.6794645 L 11.257443,2.6202707 L 11.332776,2.6179747 C 11.425239,2.6150755 11.442892,2.6252009 11.433699,2.6756369 C 11.424552,2.7258264 11.434396,2.7305807 11.548298,2.7304917 L 11.647186,2.7302369 L 11.649523,2.6753812 C 11.65242,2.6056551 11.64714,2.585914 11.623924,2.5794485 C 11.603365,2.5737255 11.598571,2.5590374 11.617242,2.5590374 C 11.638039,2.5590374 11.700256,2.5080267 11.713509,2.4801988 C 11.730475,2.4445873 11.729705,2.3998596 11.711758,2.3758455 C 11.682135,2.3361737 11.642988,2.3304305 11.397339,2.3304305 L 11.17134,2.3304305 z M 12.713202,2.3317054 C 12.702359,2.3317439 12.69048,2.3318951 12.678015,2.3322169 L 12.587256,2.3345119 L 12.529659,2.5263792 C 12.498046,2.6319056 12.471869,2.7228384 12.471493,2.7284505 C 12.470962,2.7363596 12.523279,2.7386565 12.703312,2.7386565 L 12.935708,2.7386565 L 12.945882,2.7039571 C 12.951528,2.6848732 12.959548,2.6573175 12.96392,2.6427239 L 12.972059,2.6161892 L 12.833034,2.6161892 C 12.742679,2.6161892 12.694293,2.6133212 12.694293,2.6077696 C 12.694293,2.6030767 12.711048,2.5406712 12.731524,2.4692274 C 12.752,2.3977836 12.768755,2.3371223 12.768755,2.3345119 C 12.768755,2.3325551 12.74574,2.3315908 12.713202,2.3317054 z M 11.326955,2.4284044 L 11.408108,2.4284044 C 11.452663,2.4284658 11.498381,2.4307993 11.509912,2.4335069 C 11.537565,2.440009 11.537739,2.4722017 11.510196,2.489128 C 11.494907,2.4985274 11.465806,2.5018848 11.398503,2.5018848 C 11.348458,2.5018848 11.307442,2.4991296 11.307469,2.4957621 C 11.307497,2.4923937 11.312024,2.4758606 11.31735,2.4590214 L 11.326955,2.4284044 z M 9.4290892,2.4289149 C 9.4625715,2.429902 9.4944222,2.4389825 9.516924,2.4559592 C 9.5702591,2.4962039 9.5349712,2.5888983 9.4535158,2.6225676 C 9.4019862,2.6438668 9.3657726,2.6491417 9.3252511,2.6406827 C 9.2346666,2.6217757 9.2261058,2.5276477 9.309257,2.4636144 C 9.3404845,2.4395599 9.3860379,2.4276454 9.4290892,2.4289149 z M 12.134682,2.4291697 C 12.147413,2.4287004 12.160804,2.4292733 12.175112,2.4309561 C 12.235165,2.4380219 12.260976,2.459564 12.264404,2.5057124 C 12.268143,2.5561988 12.237154,2.5993582 12.180629,2.6225676 C 12.104453,2.6538528 12.043602,2.6513341 11.999717,2.6151681 C 11.958664,2.5813458 11.976079,2.5100221 12.036655,2.4633586 C 12.064848,2.4416451 12.096452,2.4305775 12.134682,2.4291697 z M 10.735337,2.4296802 C 10.758921,2.4298589 10.781569,2.4334033 10.800203,2.4411612 C 10.881154,2.4748552 10.857644,2.5803275 10.759489,2.6235886 C 10.668336,2.6637609 10.571097,2.6426624 10.557624,2.5797033 C 10.551602,2.5515298 10.570823,2.5014824 10.598063,2.4745857 C 10.626981,2.4460071 10.683469,2.429287 10.735337,2.4296802 z M 13.359795,2.4666757 L 13.370547,2.4985686 C 13.376578,2.5161044 13.382077,2.5387281 13.382462,2.5488314 C 13.383122,2.5655157 13.378777,2.5672013 13.336514,2.5672013 C 13.310924,2.5672013 13.28998,2.5654342 13.28998,2.5631198 C 13.28998,2.5608046 13.305718,2.5381818 13.324883,2.5128561 L 13.359795,2.4666757 z" display="inline" enable-background="new"/><path id="path3690" fill="none" stroke="#000" stroke-dasharray="none" stroke-miterlimit="4" stroke-opacity="1" stroke-width="16.045" d="M -385.65625,-108.3125 C -391.81011,-108.3125 -396.71875,-103.40386 -396.71875,-97.25 L -396.71875,242.125 C -396.71875,248.27886 -391.81011,253.1875 -385.65625,253.1875 L -223.5,253.1875 C -217.34614,253.1875 -212.46875,248.2839 -212.46875,242.125 L -212.46875,-97.25 C -212.46875,-103.4089 -217.34614,-108.3125 -223.5,-108.3125 L -385.65625,-108.3125 z" display="inline" enable-background="accumulate" overflow="visible" transform="matrix(7.0257882e-2,0,0,5.5289958e-2,32.377792,6.5312956)" visibility="visible" style="marker:none"/><rect id="rect3694" width="7.971" height="11" x="7.029" y="4" fill="#2d2d2d" fill-opacity="1" stroke="none" stroke-width="2.011" display="inline" enable-background="accumulate" overflow="visible" ry="0" visibility="visible" style="marker:none"/><path id="path3698" fill="url(#linearGradient2450)" fill-opacity="1" stroke="none" stroke-dashoffset="0" stroke-linecap="square" stroke-linejoin="miter" stroke-miterlimit="4" stroke-opacity="1" stroke-width="1.464" d="M 6.9613555,1.0706641 C 6.8187282,1.0706641 6.7043587,1.2285211 6.7043587,1.4264029 L 6.7043587,18.646981 L 6.7043587,18.772643 C 6.7043587,18.970521 6.8187282,19.13015 6.9613555,19.13015 L 9.2272974,19.13015 C 10.084189,13.110354 10.687575,7.0904583 11.056503,1.0706641 L 6.9613555,1.0706641 z" display="inline" enable-background="accumulate" opacity=".1" overflow="visible" visibility="visible" style="marker:none"/><rect id="rect3766" width="1.346" height=".917" x="9.153" y="16.1" fill="#c7c7c9" fill-opacity="1" fill-rule="nonzero" stroke="none" stroke-dasharray="none" stroke-dashoffset=".06" stroke-linecap="round" stroke-linejoin="round" stroke-miterlimit="4" stroke-opacity="1" stroke-width=".5" marker-end="none" marker-mid="none" marker-start="none" display="inline" enable-background="accumulate" overflow="visible" visibility="visible" style="marker:none"/><rect id="rect3768" width="1.346" height=".917" x="7.319" y="16.1" fill="#c7c7c9" fill-opacity="1" fill-rule="nonzero" stroke="none" stroke-dasharray="none" stroke-dashoffset=".06" stroke-linecap="round" stroke-linejoin="round" stroke-miterlimit="4" stroke-opacity="1" stroke-width=".5" marker-end="none" marker-mid="none" marker-start="none" display="inline" enable-background="accumulate" overflow="visible" visibility="visible" style="marker:none"/><rect id="rect3770" width="1.346" height=".917" x="11.473" y="16.1" fill="#c7c7c9" fill-opacity="1" fill-rule="nonzero" stroke="none" stroke-dasharray="none" stroke-dashoffset=".06" stroke-linecap="round" stroke-linejoin="round" stroke-miterlimit="4" stroke-opacity="1" stroke-width=".5" marker-end="none" marker-mid="none" marker-start="none" display="inline" enable-background="accumulate" overflow="visible" visibility="visible" style="marker:none"/><rect id="rect3772" width="1.346" height=".917" x="13.306" y="16.1" fill="#c7c7c9" fill-opacity="1" fill-rule="nonzero" stroke="none" stroke-dasharray="none" stroke-dashoffset=".06" stroke-linecap="round" stroke-linejoin="round" stroke-miterlimit="4" stroke-opacity="1" stroke-width=".5" marker-end="none" marker-mid="none" marker-start="none" display="inline" enable-background="accumulate" overflow="visible" visibility="visible" style="marker:none"/></g></g></svg>