<svg xmlns="http://www.w3.org/2000/svg" xmlns:svg="http://www.w3.org/2000/svg" xmlns:xlink="http://www.w3.org/1999/xlink" id="svg2456" width="48" height="48" version="1.0"><metadata id="metadata30"/><defs id="defs2458"><linearGradient id="linearGradient3189"><stop id="stop3191" offset="0" stop-color="#fff" stop-opacity="1"/><stop id="stop3193" offset="1" stop-color="#fff" stop-opacity="0"/></linearGradient><linearGradient id="linearGradient23419"><stop id="stop23421" offset="0" stop-color="#000" stop-opacity="1"/><stop id="stop23423" offset="1" stop-color="#000" stop-opacity="0"/></linearGradient><linearGradient id="linearGradient3428"><stop id="stop3430" offset="0" stop-color="#aaa" stop-opacity="1"/><stop id="stop3432" offset="1" stop-color="#d4d4d4" stop-opacity="1"/></linearGradient><linearGradient id="linearGradient3839"><stop id="stop3841" offset="0" stop-color="#ffed8c" stop-opacity="1"/><stop id="stop3843" offset=".262" stop-color="#fb9858" stop-opacity="1"/><stop id="stop3845" offset=".661" stop-color="#dc572a" stop-opacity="1"/><stop id="stop3847" offset="1" stop-color="#9f3110" stop-opacity="1"/></linearGradient><linearGradient id="linearGradient6036"><stop id="stop6038" offset="0" stop-color="#fff" stop-opacity="1"/><stop id="stop6040" offset="1" stop-color="#fff" stop-opacity="0"/></linearGradient><linearGradient id="linearGradient2407" x1="18.776" x2="18.203" y1="4.038" y2="45.962" gradientTransform="matrix(0.4293444,0,0,-0.4293442,13.546752,34.733607)" gradientUnits="userSpaceOnUse" xlink:href="#linearGradient6036"/><radialGradient id="radialGradient2410" cx="8.891" cy="12.123" r="11" fx="8.891" fy="12.123" gradientTransform="matrix(0,3.4076715,-4.4528468,0,77.533666,-12.124767)" gradientUnits="userSpaceOnUse" xlink:href="#linearGradient3839"/><linearGradient id="linearGradient2414" x1="21.448" x2="21.448" y1="15.5" y2="32.509" gradientTransform="matrix(0.9375,0,0,0.9375,1.5,1.5)" gradientUnits="userSpaceOnUse" xlink:href="#linearGradient3428"/><radialGradient id="radialGradient2417" cx="23.335" cy="41.636" r="22.627" fx="23.335" fy="41.636" gradientTransform="matrix(0.9722718,0,0,0.2872354,1.3124992,27.540524)" gradientUnits="userSpaceOnUse" xlink:href="#linearGradient23419"/><linearGradient id="linearGradient3195" x1="19.904" x2="19.904" y1="-.096" y2="47.883" gradientUnits="userSpaceOnUse" xlink:href="#linearGradient3189"/></defs><path id="path23417" fill="url(#radialGradient2417)" fill-opacity="1" fill-rule="evenodd" stroke="none" stroke-width="2" d="M 46,39.499867 C 46.0011,43.08962 36.151066,45.999868 24,45.999868 C 11.848934,45.999868 1.998867,43.08962 2.0000001,39.499867 C 1.998867,35.910116 11.848934,32.999868 24,32.999868 C 36.151066,32.999868 46.001133,35.910116 46,39.499867 L 46,39.499867 z" display="inline" opacity=".3" overflow="visible" visibility="visible" style="marker:none"/><path id="path3418" fill="none" stroke="url(#linearGradient2414)" stroke-dasharray="none" stroke-dashoffset="0" stroke-linecap="butt" stroke-linejoin="round" stroke-miterlimit="4" stroke-opacity="1" stroke-width="1" d="M 24,16.5 C 19.86,16.5 16.5,19.86 16.5,24 C 16.5,28.14 19.86,31.5 24,31.5 C 28.14,31.5 31.5,28.14 31.5,24 C 31.5,19.86 28.14,16.5 24,16.5 z M 24,20.25 C 26.07,20.25 27.75,21.93 27.75,24 C 27.75,26.07 26.07,27.75 24,27.75 C 21.93,27.75 20.25,26.07 20.25,24 C 20.25,21.93 21.93,20.25 24,20.25 z" display="inline" enable-background="accumulate" overflow="visible" visibility="visible" style="marker:none"/><path id="path2474" fill="#fff" fill-opacity="1" fill-rule="nonzero" stroke="none" stroke-width="1" d="M 24,16 C 19.584,16 16,19.584 16,24 C 16,28.416 19.584,32 24,32 C 28.416,32 32,28.416 32,24 C 32,19.584 28.416,16 24,16 z M 24,20 C 26.208,20 28,21.792 28,24 C 28,26.208 26.208,28 24,28 C 21.792,28 20,26.208 20,24 C 20,21.792 21.792,20 24,20 z" display="inline" enable-background="accumulate" opacity=".5" overflow="visible" visibility="visible" style="marker:none"/><path id="path2781" fill="url(#radialGradient2410)" fill-opacity="1" fill-rule="nonzero" stroke="#ce5c00" stroke-dasharray="none" stroke-dashoffset="0" stroke-linecap="round" stroke-linejoin="round" stroke-miterlimit="4" stroke-opacity="1" stroke-width="1" marker-end="none" marker-mid="none" marker-start="none" d="M 44.5,24 C 44.5,12.637039 35.362959,3.5 24,3.5 C 12.637038,3.5 3.5000001,12.63704 3.5000001,24 C 3.4999981,35.36296 12.637039,44.5 24,44.5 C 35.362958,44.499998 44.5,35.362961 44.5,24 z M 31.5,24 C 31.5,28.12813 28.21073,31.5 24,31.5 C 19.70667,31.5 16.5,28.044687 16.5,24 C 16.5,19.872697 19.541467,16.5 24,16.5 C 28.458533,16.5 31.5,19.95447 31.5,24 z" display="inline" enable-background="accumulate" overflow="visible" visibility="visible" style="marker:none"/><path id="path3281" fill="none" stroke="url(#linearGradient2407)" stroke-miterlimit="4" stroke-opacity="1" stroke-width="1" d="M 24,32.5 C 19.288571,32.5 15.5,28.711429 15.5,24 C 15.5,19.288571 19.288571,15.499999 24,15.499999 C 28.711431,15.499999 32.5,19.288571 32.5,24 C 32.5,28.711429 28.711431,32.5 24,32.5 L 24,32.5 L 24,32.5 L 24,32.5 z" opacity=".4"/><path id="path2561" fill="none" fill-opacity="1" fill-rule="evenodd" stroke="url(#linearGradient3195)" stroke-linecap="butt" stroke-linejoin="miter" stroke-opacity="1" stroke-width="1" d="M 24.000001,4.5000009 C 13.191429,4.5000009 4.4999995,13.191431 4.4999995,24.000001 C 4.4999995,34.808572 13.191429,43.499999 24.000001,43.499999 C 34.808573,43.499999 43.5,34.808572 43.5,24.000001 C 43.5,13.191431 34.808573,4.5000009 24.000001,4.5000009 L 24.000001,4.5000009 L 24.000001,4.5000009 z" opacity=".4"/></svg>