<svg xmlns="http://www.w3.org/2000/svg" xmlns:svg="http://www.w3.org/2000/svg" xmlns:xlink="http://www.w3.org/1999/xlink" id="svg2520" width="48" height="48" version="1.0"><defs id="defs2522"><linearGradient id="linearGradient23419"><stop id="stop23421" offset="0" stop-color="#000" stop-opacity="1"/><stop id="stop23423" offset="1" stop-color="#000" stop-opacity="0"/></linearGradient><radialGradient id="radialGradient2463" cx="23.335" cy="41.636" r="22.627" fx="23.335" fy="41.636" gradientTransform="matrix(0.9722718,0,0,0.2872354,1.3124992,27.540524)" gradientUnits="userSpaceOnUse" xlink:href="#linearGradient23419"/><linearGradient id="linearGradient3772"><stop id="stop3774" offset="0" stop-color="#b4b4b4" stop-opacity="1"/><stop id="stop3776" offset="1" stop-color="#969696" stop-opacity="1"/></linearGradient><linearGradient id="linearGradient2460" x1="-21.916" x2="-21.916" y1="3" y2="45.033" gradientTransform="translate(50.26506,0)" gradientUnits="userSpaceOnUse" xlink:href="#linearGradient3772"/><linearGradient id="linearGradient3263" x1="12.274" x2="35.391" y1="32.416" y2="14.203" gradientUnits="userSpaceOnUse"><stop id="stop3265" offset="0" stop-color="#dedbde" stop-opacity="1"/><stop id="stop3267" offset=".5" stop-color="#e6e6e6" stop-opacity="1"/><stop id="stop3269" offset="1" stop-color="#d2d2d2" stop-opacity="1"/></linearGradient><linearGradient id="linearGradient2458" x1="12.274" x2="35.391" y1="32.416" y2="14.203" gradientTransform="matrix(0,1.1714389,-1.1714389,0,51.060244,-4.11454)" gradientUnits="userSpaceOnUse" xlink:href="#linearGradient3263"/><linearGradient id="linearGradient3428"><stop id="stop3430" offset="0" stop-color="#aaa" stop-opacity="1"/><stop id="stop3432" offset="1" stop-color="#d4d4d4" stop-opacity="1"/></linearGradient><linearGradient id="linearGradient2454" x1="21.448" x2="21.448" y1="15.5" y2="32.509" gradientTransform="matrix(0.9375,0,0,0.9375,1.5,1.5)" gradientUnits="userSpaceOnUse" xlink:href="#linearGradient3428"/><linearGradient id="linearGradient3487"><stop id="stop3489" offset="0" stop-color="#e6cde2" stop-opacity="1"/><stop id="stop3491" offset="1" stop-color="#e6cde2" stop-opacity="0"/></linearGradient><linearGradient id="linearGradient2451" x1="20.58" x2="24.274" y1="10.775" y2="9.862" gradientTransform="matrix(0.9996011,2.824295e-2,-2.824295e-2,0.9996011,0.6924114,-0.6708346)" gradientUnits="userSpaceOnUse" spreadMethod="reflect" xlink:href="#linearGradient3487"/><linearGradient id="linearGradient3495"><stop id="stop3497" offset="0" stop-color="#c1cbe4" stop-opacity="1"/><stop id="stop3499" offset="1" stop-color="#c1cbe4" stop-opacity="0"/></linearGradient><linearGradient id="linearGradient2447" x1="17.495" x2="21.047" y1="11.2" y2="9.796" gradientUnits="userSpaceOnUse" spreadMethod="reflect" xlink:href="#linearGradient3495"/><linearGradient id="linearGradient3503"><stop id="stop3505" offset="0" stop-color="#c4ebdd" stop-opacity="1"/><stop id="stop3507" offset="1" stop-color="#c4ebdd" stop-opacity="0"/></linearGradient><linearGradient id="linearGradient2444" x1="14.085" x2="16.994" y1="13.046" y2="10.732" gradientUnits="userSpaceOnUse" spreadMethod="reflect" xlink:href="#linearGradient3503"/><linearGradient id="linearGradient3839"><stop id="stop3841" offset="0" stop-color="#ffed8c" stop-opacity="1"/><stop id="stop3843" offset=".262" stop-color="#fb9858" stop-opacity="1"/><stop id="stop3845" offset=".661" stop-color="#dc572a" stop-opacity="1"/><stop id="stop3847" offset="1" stop-color="#9f3110" stop-opacity="1"/></linearGradient><radialGradient id="radialGradient2441" cx="8.891" cy="12.123" r="11" fx="8.891" fy="12.123" gradientTransform="matrix(0,3.4076715,-4.4528468,0,77.533666,-12.124767)" gradientUnits="userSpaceOnUse" xlink:href="#linearGradient3839"/><linearGradient id="linearGradient6036"><stop id="stop6038" offset="0" stop-color="#fff" stop-opacity="1"/><stop id="stop6040" offset="1" stop-color="#fff" stop-opacity="0"/></linearGradient><linearGradient id="linearGradient2438" x1="18.776" x2="18.203" y1="4.038" y2="45.962" gradientTransform="matrix(0.4293444,0,0,-0.4293442,13.546752,34.733607)" gradientUnits="userSpaceOnUse" xlink:href="#linearGradient6036"/><linearGradient id="linearGradient2518" x1="20.578" x2="20.578" y1="-.048" y2="15.5" gradientUnits="userSpaceOnUse" xlink:href="#linearGradient3211"/><linearGradient id="linearGradient3211"><stop id="stop3213" offset="0" stop-color="#fff" stop-opacity="1"/><stop id="stop3215" offset="1" stop-color="#fff" stop-opacity="0"/></linearGradient><linearGradient id="linearGradient2435" x1="20.578" x2="20.578" y1="-.048" y2="48.193" gradientUnits="userSpaceOnUse" xlink:href="#linearGradient3211"/></defs><g id="layer1"><path id="path23417" fill="url(#radialGradient2463)" fill-opacity="1" fill-rule="evenodd" stroke="none" stroke-width="2" d="M 46,39.499867 C 46.0011,43.08962 36.151066,45.999868 24,45.999868 C 11.848934,45.999868 1.998867,43.08962 2.0000001,39.499867 C 1.998867,35.910116 11.848934,32.999868 24,32.999868 C 36.151066,32.999868 46.001133,35.910116 46,39.499867 L 46,39.499867 z" display="inline" opacity=".3" overflow="visible" visibility="visible" style="marker:none"/><path id="path2781" fill="url(#linearGradient2458)" fill-rule="nonzero" stroke="url(#linearGradient2460)" stroke-miterlimit="4" stroke-opacity="1" stroke-width="1" d="M 44.5,24 C 44.5,12.637039 35.362959,3.5 24,3.5 C 12.637038,3.5 3.5000001,12.63704 3.5000001,24 C 3.4999981,35.36296 12.637039,44.5 24,44.5 C 35.362958,44.499998 44.5,35.362961 44.5,24 z M 31.5,24 C 31.5,28.12813 28.21073,31.5 24,31.5 C 19.70667,31.5 16.5,28.044687 16.5,24 C 16.5,19.872697 19.541467,16.5 24,16.5 C 28.458533,16.5 31.5,19.95447 31.5,24 z"/><path id="path2474" fill="#fff" fill-opacity="1" fill-rule="nonzero" stroke="none" stroke-width="1" d="M 24,16 C 19.584,16 16,19.584 16,24 C 16,28.416 19.584,32 24,32 C 28.416,32 32,28.416 32,24 C 32,19.584 28.416,16 24,16 z M 24,20 C 26.208,20 28,21.792 28,24 C 28,26.208 26.208,28 24,28 C 21.792,28 20,26.208 20,24 C 20,21.792 21.792,20 24,20 z" display="inline" enable-background="accumulate" opacity=".5" overflow="visible" visibility="visible" style="marker:none"/><path id="path3418" fill="none" stroke="url(#linearGradient2454)" stroke-dasharray="none" stroke-dashoffset="0" stroke-linecap="butt" stroke-linejoin="round" stroke-miterlimit="4" stroke-opacity="1" stroke-width="1" d="M 24,16.5 C 19.86,16.5 16.5,19.86 16.5,24 C 16.5,28.14 19.86,31.5 24,31.5 C 28.14,31.5 31.5,28.14 31.5,24 C 31.5,19.86 28.14,16.5 24,16.5 z M 24,20.25 C 26.07,20.25 27.75,21.93 27.75,24 C 27.75,26.07 26.07,27.75 24,27.75 C 21.93,27.75 20.25,26.07 20.25,24 C 20.25,21.93 21.93,20.25 24,20.25 z" display="inline" enable-background="accumulate" overflow="visible" visibility="visible" style="marker:none"/><path id="path3296" fill="url(#linearGradient2451)" fill-opacity="1" fill-rule="nonzero" stroke="none" d="M 16.38116,5.5055006 L 20.847588,16.248907 C 21.89553,15.819768 23.037356,15.59174 24.241542,15.625763 C 24.273589,15.626669 24.303307,15.627148 24.335254,15.628411 L 24.677699,4.0132004 C 21.738719,3.8594466 19.118305,4.5136729 16.381159,5.5055006 L 16.38116,5.5055006 z" opacity=".8"/><path id="path3308" fill="url(#linearGradient2447)" fill-opacity="1" fill-rule="nonzero" stroke="none" d="M 12.121471,7.9060109 L 19.052497,17.266115 C 19.965606,16.59636 21.018435,16.099051 22.195126,15.840946 C 22.226446,15.834046 22.255386,15.827356 22.286696,15.820856 L 19.857174,4.426276 C 16.968201,4.9876004 14.537644,6.2818798 12.121471,7.9060109 L 12.121471,7.9060109 z" opacity=".8"/><path id="path3310" fill="url(#linearGradient2444)" fill-opacity="1" fill-rule="nonzero" stroke="none" d="M 8.2523933,11.646535 L 17.466117,18.802353 C 18.174767,17.919089 19.063008,17.166234 20.132802,16.612373 C 20.161272,16.597633 20.187492,16.583653 20.216052,16.569273 L 14.86585,6.2506132 C 12.220599,7.5405321 10.165881,9.452393 8.2523933,11.646535 z" opacity=".8"/><path id="path2559" fill="url(#radialGradient2441)" fill-opacity="1" fill-rule="nonzero" stroke="#ce5c00" stroke-dasharray="none" stroke-dashoffset="0" stroke-linecap="round" stroke-linejoin="round" stroke-miterlimit="4" stroke-opacity="1" stroke-width="1" marker-end="none" marker-mid="none" marker-start="none" d="M 23.5,3.5 C 23.500109,7.8333333 23.5,12.166667 23.5,16.5 C 27.929586,16.391734 32.22189,20.583979 31.40625,25.125 C 30.80067,28.646102 27.478751,31.281052 23.96875,31.46875 C 19.902034,31.20228 16.5,27.87927 16.5,24 C 16.5,23.115666 16.682535,22.181172 16.945841,21.393098 C 16.945841,21.393098 4.6226752,17.24857 4.6226752,17.24857 C 3.9132436,19.332499 3.5,21.669641 3.5,24 C 3.491725,27.936977 4.6496138,31.727001 6.75,35.03125 C 10.904448,40.685234 15.778754,44.085895 24.5,44.5 C 31.516158,44.131357 35.630649,41.134571 40,36.84375 C 44.648668,31.146924 45.822924,22.889563 42.9375,16.125 C 40.525211,10.29424 35.311657,5.5436346 29.0625,4.25 C 27.233474,3.8623217 25.379362,3.4474494 23.5,3.5 z" display="inline" enable-background="accumulate" overflow="visible" visibility="visible" style="marker:none"/><path id="path3281" fill="none" stroke="url(#linearGradient2438)" stroke-miterlimit="4" stroke-opacity="1" stroke-width="1" d="M 24,32.5 C 19.288571,32.5 15.5,28.711429 15.5,24 C 15.5,19.288571 19.288571,15.499999 24,15.499999 C 28.711431,15.499999 32.5,19.288571 32.5,24 C 32.5,28.711429 28.711431,32.5 24,32.5 L 24,32.5 L 24,32.5 L 24,32.5 z" opacity=".4"/><path id="path2516" fill="none" fill-opacity="1" fill-rule="evenodd" stroke="url(#linearGradient2435)" stroke-linecap="butt" stroke-linejoin="miter" stroke-opacity="1" stroke-width="1" d="M 15.213186,21.862587 L 5.7237543,18.678019" opacity=".4"/><path id="path2514" fill="none" fill-opacity="1" fill-rule="evenodd" stroke="url(#linearGradient2518)" stroke-linecap="butt" stroke-linejoin="miter" stroke-opacity="1" stroke-width="1" d="M 24.5,5 L 24.5,15" opacity=".4"/><path id="path2561" fill="none" fill-opacity="1" fill-rule="evenodd" stroke="url(#linearGradient2435)" stroke-linecap="butt" stroke-linejoin="miter" stroke-opacity="1" stroke-width="1" d="M 24.000001,4.5000009 C 13.191429,4.5000009 4.4999995,13.191431 4.4999995,24.000001 C 4.4999995,34.808572 13.191429,43.499999 24.000001,43.499999 C 34.808573,43.499999 43.5,34.808572 43.5,24.000001 C 43.5,13.191431 34.808573,4.5000009 24.000001,4.5000009 L 24.000001,4.5000009 L 24.000001,4.5000009 z" opacity=".4"/></g></svg>