<svg xmlns="http://www.w3.org/2000/svg" xmlns:svg="http://www.w3.org/2000/svg" xmlns:xlink="http://www.w3.org/1999/xlink" id="svg3473" width="24" height="24" version="1.0"><defs id="defs3475"><linearGradient id="linearGradient5048"><stop id="stop5050" offset="0" stop-color="#000" stop-opacity="0"/><stop id="stop5056" offset=".5" stop-color="#000" stop-opacity="1"/><stop id="stop5052" offset="1" stop-color="#000" stop-opacity="0"/></linearGradient><linearGradient id="linearGradient2447" x1="302.857" x2="302.857" y1="366.648" y2="609.505" gradientTransform="matrix(3.52071e-2,0,0,8.23529e-3,-0.724852,18.980551)" gradientUnits="userSpaceOnUse" xlink:href="#linearGradient5048"/><radialGradient id="radialGradient2444" cx="605.714" cy="486.648" r="117.143" fx="605.714" fy="486.648" gradientTransform="matrix(-1.204859e-2,0,0,8.23529e-3,10.761206,18.980568)" gradientUnits="userSpaceOnUse" xlink:href="#linearGradient5060"/><linearGradient id="linearGradient5060"><stop id="stop5062" offset="0" stop-color="#000" stop-opacity="1"/><stop id="stop5064" offset="1" stop-color="#000" stop-opacity="0"/></linearGradient><radialGradient id="radialGradient2441" cx="605.714" cy="486.648" r="117.143" fx="605.714" fy="486.648" gradientTransform="matrix(1.204859e-2,0,0,8.23529e-3,13.238794,18.980568)" gradientUnits="userSpaceOnUse" xlink:href="#linearGradient5060"/><linearGradient id="linearGradient4711-257"><stop id="stop4963" offset="0" stop-color="#643340" stop-opacity="1"/><stop id="stop4965" offset="1" stop-color="#a77a86" stop-opacity="1"/></linearGradient><linearGradient id="linearGradient3405" x1="-51.786" x2="-51.786" y1="53.624" y2="2.906" gradientTransform="matrix(0.3922137,0,0,0.4473607,29.199293,-1.2386986)" gradientUnits="userSpaceOnUse" xlink:href="#linearGradient4711-257"/><linearGradient id="linearGradient4145-42"><stop id="stop4953" offset="0" stop-color="#e694bb" stop-opacity="1"/><stop id="stop4955" offset=".262" stop-color="#d3819a" stop-opacity="1"/><stop id="stop4957" offset=".705" stop-color="#b25a64" stop-opacity="1"/><stop id="stop4959" offset="1" stop-color="#98313d" stop-opacity="1"/></linearGradient><radialGradient id="radialGradient3403" cx="14.239" cy="11.49" r="18" fx="14.239" fy="11.49" gradientTransform="matrix(0,1.5890979,-2.5735756,0,36.378536,-19.497874)" gradientUnits="userSpaceOnUse" xlink:href="#linearGradient4145-42"/><linearGradient id="linearGradient3211"><stop id="stop3213" offset="0" stop-color="#fff" stop-opacity="1"/><stop id="stop3215" offset="1" stop-color="#fff" stop-opacity="0"/></linearGradient><linearGradient id="linearGradient2429" x1="24" x2="24" y1="2" y2="46.017" gradientTransform="matrix(0.4545444,0,0,0.4651153,1.0909345,0.3372293)" gradientUnits="userSpaceOnUse" xlink:href="#linearGradient3211"/><linearGradient id="linearGradient8589"><stop id="stop8591" offset="0" stop-color="#fefefe" stop-opacity="1"/><stop id="stop8593" offset="1" stop-color="#cbcbcb" stop-opacity="1"/></linearGradient><linearGradient id="linearGradient2425" x1="32.892" x2="36.358" y1="8.059" y2="5.457" gradientTransform="matrix(0.4778466,0,0,0.5524833,0.3722548,-7.61283e-2)" gradientUnits="userSpaceOnUse" xlink:href="#linearGradient8589"/><linearGradient id="linearGradient8265-821-176-38-919-66-249"><stop id="stop2687" offset="0" stop-color="#fff" stop-opacity="1"/><stop id="stop2689" offset="1" stop-color="#fff" stop-opacity="0"/></linearGradient><linearGradient id="linearGradient3376" x1="16.626" x2="20.055" y1="15.298" y2="24.628" gradientTransform="matrix(0.3482993,0,0,0.6967199,3.640816,-3.1585463)" gradientUnits="userSpaceOnUse" xlink:href="#linearGradient8265-821-176-38-919-66-249"/><linearGradient id="linearGradient4000"><stop id="stop4002" offset="0" stop-color="#000" stop-opacity="1"/><stop id="stop4004" offset="1" stop-color="#000" stop-opacity="0"/></linearGradient><linearGradient id="linearGradient3465" x1="75.854" x2="91" y1="28" y2="12" gradientTransform="matrix(0.5606869,0,0,0.4468189,-29.283614,3.0838632)" gradientUnits="userSpaceOnUse" spreadMethod="reflect" xlink:href="#linearGradient4000"/><linearGradient id="linearGradient5293"><stop id="stop5295" offset="0" stop-color="#fff" stop-opacity="1"/><stop id="stop5297" offset="1" stop-color="#fff" stop-opacity="0"/></linearGradient><linearGradient id="linearGradient3462" x1="75.854" x2="91" y1="28" y2="12" gradientTransform="matrix(0.5606869,0,0,0.4468189,-29.283614,2.5437301)" gradientUnits="userSpaceOnUse" spreadMethod="reflect" xlink:href="#linearGradient5293"/><linearGradient id="linearGradient4106"><stop id="stop4108" offset="0" stop-color="#51293c" stop-opacity="1"/><stop id="stop4110" offset="1" stop-color="#876374" stop-opacity="1"/></linearGradient><linearGradient id="linearGradient3450" x1="24.239" x2="24.239" y1="44.11" y2=".191" gradientTransform="matrix(0.5042588,0,0,0.5029191,1.9071584,-0.4284744)" gradientUnits="userSpaceOnUse" xlink:href="#linearGradient4106"/></defs><g id="layer1"><rect id="rect2879" width="17" height="2" x="3.5" y="22" fill="url(#linearGradient2447)" fill-opacity="1" fill-rule="nonzero" stroke="none" stroke-width="1" display="inline" opacity=".15" overflow="visible" visibility="visible" style="marker:none"/><path id="path2881" fill="url(#radialGradient2444)" fill-opacity="1" fill-rule="nonzero" stroke="none" stroke-width="1" d="M 3.5,22.000086 C 3.5,22.000086 3.5,23.999975 3.5,23.999975 C 2.8795275,24.00374 2,23.551901 2,22.999901 C 2,22.447902 2.6924,22.000086 3.5,22.000086 z" display="inline" opacity=".15" overflow="visible" visibility="visible" style="marker:none"/><path id="path2883" fill="url(#radialGradient2441)" fill-opacity="1" fill-rule="nonzero" stroke="none" stroke-width="1" d="M 20.5,22.000086 C 20.5,22.000086 20.5,23.999975 20.5,23.999975 C 21.120472,24.003775 22,23.551901 22,22.999901 C 22,22.447902 21.307599,22.000086 20.5,22.000086 L 20.5,22.000086 z" display="inline" opacity=".15" overflow="visible" visibility="visible" style="marker:none"/><path id="path4160" fill="url(#radialGradient3403)" fill-opacity="1" fill-rule="nonzero" stroke="url(#linearGradient3405)" stroke-dasharray="none" stroke-dashoffset="0" stroke-linecap="butt" stroke-linejoin="round" stroke-miterlimit="4" stroke-opacity="1" stroke-width="1" marker-end="none" marker-mid="none" marker-start="none" d="M 3.4999617,0.49996097 C 7.3955416,0.49996097 11.104417,0.49996097 15,0.49996097 C 15.683368,0.73725787 19.541325,3.628131 20.5,5.5 C 20.5,11.229157 20.500039,16.770881 20.500039,22.500039 C 14.833346,22.500039 9.1666545,22.500039 3.4999617,22.500039 C 3.4999617,15.166679 3.4999617,7.8333189 3.4999617,0.49996097 L 3.4999617,0.49996097 z" display="inline" enable-background="accumulate" opacity="1" overflow="visible" visibility="visible" style="marker:none"/><path id="path2435" fill="none" stroke="url(#linearGradient2429)" stroke-dasharray="none" stroke-dashoffset="0" stroke-linecap="butt" stroke-linejoin="miter" stroke-miterlimit="4" stroke-opacity="1" stroke-width="1" d="M 19.500001,5.6770357 C 19.500001,10.885341 19.500001,16.291693 19.500001,21.5 C 14.500001,21.5 9.5000012,21.5 4.5,21.5 C 4.5,14.83333 4.5,8.1666657 4.5,1.4999999 C 7.9372614,1.4999999 11.456499,1.4999999 14.893761,1.4999999" display="inline" opacity=".4"/><path id="path3370" fill="#000" fill-opacity="1" fill-rule="evenodd" stroke="none" d="M 14.075474,1 C 15.231777,1.3287671 14.414533,5.6143789 14.414533,5.6143789 C 14.414533,5.6143789 18.929921,5.1866427 20.022243,6.809375 C 21.511396,9.0216317 19.954018,6.1742029 19.848796,5.9876778 C 19.092868,4.6476323 15.982456,1.4405918 14.803387,1.0464703 C 14.715155,1.0169778 14.519511,1 14.075474,1 z" display="inline" opacity=".2"/><path id="path4474" fill="url(#linearGradient2425)" fill-opacity="1" fill-rule="evenodd" stroke="none" d="M 14,1 C 15.526166,1 15,5 15,5 C 15,5 19.992074,4.54674 19.992074,7 C 19.992074,6.4022581 20.047824,5.5215662 19.928004,5.3440674 C 19.088897,4.1010616 16.184239,1.4821803 15.129935,1.0464703 C 15.043957,1.0109384 14.444037,1 14,1 z" display="inline"/><path id="path3879" fill="url(#linearGradient3376)" fill-opacity="1" fill-rule="evenodd" stroke="none" stroke-dasharray="none" stroke-dashoffset="0" stroke-linecap="round" stroke-linejoin="round" stroke-miterlimit="4" stroke-opacity="1" stroke-width="1.002" d="M 4.7619044,1.0000005 C 4.3410625,1.0000005 4,1.682244 4,2.5240739 L 4,13.671593 C 4.000965,13.765372 4.0215241,13.854055 4.0566849,13.916116 C 4.0918466,13.978178 4.1383962,14.007941 4.1850331,13.998178 L 19.858503,9.0340495 C 19.939128,9.008616 19.998873,8.870716 20,8.707462 L 20,5.7073203 C 20,5.7073203 14.901785,1.0000005 14.901785,1.0000005 L 4.7619044,1.0000005 z" opacity=".2"/><path id="path5316" fill="url(#linearGradient3465)" fill-opacity="1" fill-rule="nonzero" stroke="none" stroke-dasharray="none" stroke-dashoffset="0" stroke-linecap="butt" stroke-linejoin="miter" stroke-miterlimit="4" stroke-opacity="1" stroke-width=".912" marker-end="none" marker-mid="none" marker-start="none" d="M 16.345118,8.445691 C 16.139187,8.4374955 15.933988,8.4467974 15.733287,8.4628764 C 13.967123,8.6043761 12.440149,9.6712231 11.852994,11.3672 C 11.491195,12.412249 11.563496,13.519246 11.949598,14.546488 L 4.0000009,21.513879 L 4.0000009,21.999999 L 8.7026173,21.999999 L 8.6006313,20.664471 L 11.192861,21.180032 L 11.498776,18.791269 L 13.929997,19.30683 L 15.523977,17.949187 C 17.151749,18.477181 18.803526,18.207449 20,17.330514 C 20,15.418855 20,13.525004 20,11.607795 C 19.802493,11.657474 19.573299,11.645185 19.355968,11.556239 C 18.825397,11.339093 18.525706,10.758751 18.695835,10.267337 C 18.823431,9.8987804 19.189626,9.6598821 19.581379,9.6658502 C 19.711963,9.6678406 19.851256,9.6974909 19.9839,9.751777 C 19.991081,9.7547165 19.992911,9.7658908 20,9.7689625 C 20,9.4702283 20,9.1735801 20,8.8753247 C 19.481649,8.7358784 18.959809,8.7926133 18.550928,9.0299925 C 18.439929,8.9760978 18.344505,8.9054485 18.228912,8.8581394 C 17.604665,8.6026557 16.962911,8.4702775 16.345118,8.445691 z" display="inline" enable-background="accumulate" opacity=".1" overflow="visible" visibility="visible" style="marker:none"/><path id="path5283" fill="url(#linearGradient3462)" fill-opacity="1" fill-rule="nonzero" stroke="none" stroke-dasharray="none" stroke-dashoffset="0" stroke-linecap="butt" stroke-linejoin="miter" stroke-miterlimit="4" stroke-opacity="1" stroke-width=".912" marker-end="none" marker-mid="none" marker-start="none" d="M 16.345118,7.9055579 C 16.139187,7.8973619 15.933988,7.9066639 15.733287,7.9227432 C 13.967123,8.0642431 12.440149,9.1310894 11.852994,10.827066 C 11.491195,11.872115 11.563496,12.979112 11.949598,14.006355 L 4.0000009,21.027759 C 4.0000009,21.027759 4.0217584,21.999999 4.0217584,21.999999 C 5.5963527,21.999999 7.1709411,21.999999 8.7455382,21.999999 L 8.6006313,20.124339 L 11.192861,20.6399 L 11.498776,18.251136 L 13.929997,18.766697 L 15.523977,17.409054 C 17.151749,17.937048 18.803526,17.667315 20,16.790383 C 20,14.878722 20,12.984871 20,11.067661 C 19.802493,11.11734 19.573299,11.105051 19.355968,11.016106 C 18.825397,10.798959 18.525706,10.218618 18.695835,9.7272051 C 18.823431,9.3586479 19.189626,9.1197491 19.581379,9.1257172 C 19.711963,9.1277069 19.851256,9.1573579 19.9839,9.2116442 C 19.991081,9.2145833 19.992911,9.2257578 20,9.228829 C 20,8.9300948 20,8.6334469 20,8.335191 C 19.481649,8.1957447 18.959809,8.2524802 18.550928,8.4898593 C 18.439929,8.4359647 18.344505,8.3653149 18.228912,8.3180057 C 17.604665,8.0625227 16.962911,7.9301445 16.345118,7.9055579 z" display="inline" enable-background="accumulate" opacity=".4" overflow="visible" visibility="visible" style="marker:none"/><path marker-start="none" style="marker:none;-inkscape-font-specification:Droid Sans Bold" id="path3467" fill="#fff" fill-opacity="1" fill-rule="nonzero" stroke="none" stroke-dasharray="none" stroke-dashoffset="0" stroke-linecap="butt" stroke-linejoin="miter" stroke-miterlimit="4" stroke-opacity="1" stroke-width="1" marker-end="none" marker-mid="none" d="M 14.648385,18 C 14.397948,17.130791 14.250438,15.86921 14,15 C 12.737792,15 11.475583,15 10.213373,15 C 9.9604297,15.86921 9.6045584,17.130791 9.3516156,18 C 8.5677445,18 7.7838723,18 7,18 C 8.1895817,14.333334 9.3791645,10.666666 10.568746,7 C 11.517907,7 12.467068,7 13.416228,7 C 14.610819,10.666666 15.80541,14.333334 17,18 C 16.216128,18 15.432257,18 14.648385,18 z M 13.356125,13.444143 C 12.943409,11.991459 12.468003,10.555959 12.109761,9.088612 C 12.040555,8.867585 12.009955,8.2797982 11.945996,8.8245965 C 11.596164,10.383807 11.113792,11.908764 10.673931,13.444143 C 11.567993,13.444143 12.46206,13.444143 13.356125,13.444143 z" display="inline" enable-background="accumulate" font-family="Droid Sans" font-size="30.514" font-stretch="normal" font-style="normal" font-variant="normal" font-weight="bold" opacity=".4" overflow="visible" visibility="visible"/><path id="text3893" fill="url(#linearGradient3450)" fill-opacity="1" stroke="none" stroke-linecap="butt" stroke-linejoin="miter" stroke-opacity="1" stroke-width="1" d="M 14.648385,17 C 14.397948,16.130791 14.250438,14.86921 14,14 C 12.737792,14 11.475583,14 10.213373,14 C 9.9604297,14.86921 9.6045584,16.130791 9.3516156,17 C 8.5677445,17 7.7838723,17 7,17 C 8.1895817,13.333334 9.3791645,9.666666 10.568746,6 C 11.517907,6 12.467068,6 13.416228,6 C 14.610819,9.666666 15.80541,13.333334 17,17 C 16.216128,17 15.432257,17 14.648385,17 z M 13.356125,12 C 13.075508,10.860097 12.117224,8.3417866 12,8 C 11.650168,9.5592105 11.113792,10.464621 10.673931,12 C 11.567993,12 12.46206,12 13.356125,12 z" font-family="Droid Sans" font-size="30.514" font-stretch="normal" font-style="normal" font-variant="normal" font-weight="bold" style="-inkscape-font-specification:Droid Sans Bold"/></g></svg>