<svg xmlns="http://www.w3.org/2000/svg" xmlns:svg="http://www.w3.org/2000/svg" xmlns:xlink="http://www.w3.org/1999/xlink" id="svg4228" width="24" height="24" version="1.1"><defs id="defs4230"><linearGradient id="linearGradient4083" x1="32.892" x2="36.358" y1="8.059" y2="5.457" gradientTransform="matrix(0.4778466,0,0,0.5524833,0.3722548,-8.0761287)" gradientUnits="userSpaceOnUse" xlink:href="#linearGradient8589"/><linearGradient id="linearGradient8589"><stop id="stop8591" offset="0" stop-color="#fefefe" stop-opacity="1"/><stop id="stop8593" offset="1" stop-color="#cbcbcb" stop-opacity="1"/></linearGradient><linearGradient id="linearGradient4089" x1="24" x2="24" y1="2" y2="46.017" gradientTransform="matrix(0.4545444,0,0,0.4651153,1.0909345,-7.6627711)" gradientUnits="userSpaceOnUse" xlink:href="#linearGradient3211"/><linearGradient id="linearGradient3211"><stop id="stop3213" offset="0" stop-color="#fff" stop-opacity="1"/><stop id="stop3215" offset="1" stop-color="#fff" stop-opacity="0"/></linearGradient><linearGradient id="linearGradient4092" x1="35.349" x2="34.103" y1="5.307" y2="6.544" gradientTransform="matrix(0.5155606,0,0,0.5130904,-0.8957459,-7.8145513)" gradientUnits="userSpaceOnUse" xlink:href="#linearGradient4267"/><linearGradient id="linearGradient4267"><stop id="stop4269" offset="0" stop-color="#c4c4c4" stop-opacity="1"/><stop id="stop4271" offset="1" stop-color="#c4c4c4" stop-opacity="0"/></linearGradient><radialGradient id="radialGradient4095" cx="8.12" cy="6.628" r="9" fx="8.12" fy="6.628" gradientTransform="matrix(-1.3255769e-8,2.3981821,-3.5438912,0,31.608571,-22.199525)" gradientUnits="userSpaceOnUse" xlink:href="#linearGradient3242-593-605-251-305-8"/><linearGradient id="linearGradient3242-593-605-251-305-8"><stop id="stop3942" offset="0" stop-color="#d391bf" stop-opacity="1"/><stop id="stop3944" offset=".262" stop-color="#bf69b9" stop-opacity="1"/><stop id="stop3946" offset=".661" stop-color="#98439e" stop-opacity="1"/><stop id="stop3948" offset="1" stop-color="#5c2f6f" stop-opacity="1"/></linearGradient><linearGradient id="linearGradient4097" x1="-53.412" x2="-53.412" y1="54.135" y2="2.707" gradientTransform="matrix(0.3922135,0,0,0.4473607,29.199293,-9.2387001)" gradientUnits="userSpaceOnUse" xlink:href="#linearGradient3332-412-419-652-471-847"/><linearGradient id="linearGradient3332-412-419-652-471-847"><stop id="stop3952" offset="0" stop-color="#620f59" stop-opacity="1"/><stop id="stop3954" offset="1" stop-color="#a6599f" stop-opacity="1"/></linearGradient><radialGradient id="radialGradient4100" cx="605.714" cy="486.648" r="117.143" fx="605.714" fy="486.648" gradientTransform="matrix(0.01204859,0,0,0.00823529,13.238794,10.980568)" gradientUnits="userSpaceOnUse" xlink:href="#linearGradient5060"/><linearGradient id="linearGradient5060"><stop id="stop5062" offset="0" stop-color="#000" stop-opacity="1"/><stop id="stop5064" offset="1" stop-color="#000" stop-opacity="0"/></linearGradient><radialGradient id="radialGradient4103" cx="605.714" cy="486.648" r="117.143" fx="605.714" fy="486.648" gradientTransform="matrix(-0.01204859,0,0,0.00823529,10.761206,10.980568)" gradientUnits="userSpaceOnUse" xlink:href="#linearGradient5060"/><linearGradient id="linearGradient5048"><stop id="stop5050" offset="0" stop-color="#000" stop-opacity="0"/><stop id="stop5056" offset=".5" stop-color="#000" stop-opacity="1"/><stop id="stop5052" offset="1" stop-color="#000" stop-opacity="0"/></linearGradient><linearGradient id="linearGradient4226" x1="302.857" x2="302.857" y1="366.648" y2="609.505" gradientTransform="matrix(0.0352071,0,0,0.00823529,-0.724852,10.980551)" gradientUnits="userSpaceOnUse" xlink:href="#linearGradient5048"/></defs><metadata id="metadata4233"/><g id="layer1" transform="translate(0,8)"><rect id="rect2879" width="17" height="2" x="3.5" y="14" fill="url(#linearGradient4226)" fill-opacity="1" fill-rule="nonzero" stroke="none" stroke-width="1" display="inline" opacity=".15" overflow="visible" visibility="visible" style="marker:none"/><path id="path2881" fill="url(#radialGradient4103)" fill-opacity="1" fill-rule="nonzero" stroke="none" stroke-width="1" d="m 3.5,14.000086 c 0,0 0,1.999889 0,1.999889 C 2.8795275,16.00374 2,15.551901 2,14.999901 2,14.447902 2.6924,14.000086 3.5,14.000086 z" display="inline" opacity=".15" overflow="visible" visibility="visible" style="marker:none"/><path id="path2883" fill="url(#radialGradient4100)" fill-opacity="1" fill-rule="nonzero" stroke="none" stroke-width="1" d="m 20.5,14.000086 c 0,0 0,1.999889 0,1.999889 0.620472,0.0038 1.5,-0.448074 1.5,-1.000074 0,-0.551999 -0.692401,-0.999815 -1.5,-0.999815 l 0,0 z" display="inline" opacity=".15" overflow="visible" visibility="visible" style="marker:none"/><path id="path4160" fill="url(#radialGradient4095)" fill-opacity="1" stroke="url(#linearGradient4097)" stroke-dasharray="none" stroke-dashoffset="0" stroke-linecap="butt" stroke-linejoin="round" stroke-miterlimit="4" stroke-opacity="1" stroke-width="1" d="m 3.4999617,-7.5000394 c 3.8955799,0 7.6044553,0 11.5000383,0 0.683368,0.2372969 4.541325,3.12817 5.5,5.000039 0,5.7291574 3.9e-5,11.2708814 3.9e-5,17.0000394 -5.666693,0 -11.3333845,0 -17.0000773,0 0,-7.33336 0,-14.6667205 0,-22.0000784 l 0,0 z" display="inline"/><path id="path4238" fill="none" stroke="url(#linearGradient4092)" stroke-dasharray="none" stroke-dashoffset="0" stroke-linecap="butt" stroke-linejoin="round" stroke-miterlimit="4" stroke-opacity="1" stroke-width="1" d="m 15.004136,-7.5004402 c 0.725358,0.24354 4.478321,3.0454484 5.495903,4.9665621 0,5.8798791 0,0.3372268 0,6.2171051 C -0.3522334,11.75359 2.4778444,-7.5004402 15.004136,-7.5004402 z" display="inline"/><path id="path2435" fill="none" stroke="url(#linearGradient4089)" stroke-dasharray="none" stroke-dashoffset="0" stroke-linecap="butt" stroke-linejoin="miter" stroke-miterlimit="4" stroke-opacity="1" stroke-width="1" d="m 19.500001,-2.3229647 c 0,5.2083057 0,10.6146577 0,15.8229647 -5,0 -9.9999998,0 -15.000001,0 0,-6.66667 0,-13.3333347 0,-20.0000005 3.4372614,0 6.956499,0 10.393761,0" display="inline" opacity=".4"/><path id="path3370" fill="#000" fill-opacity="1" fill-rule="evenodd" stroke="none" d="m 14.075474,-7.0000004 c 1.156303,0.3287671 0.339059,4.6143789 0.339059,4.6143789 0,0 4.515388,-0.4277362 5.60771,1.1949961 1.489153,2.2122567 -0.06822,-0.6351721 -0.173447,-0.8216972 -0.755928,-1.3400455 -3.86634,-4.547086 -5.045409,-4.9412075 -0.08823,-0.029493 -0.283876,-0.04647 -0.727913,-0.04647 z" display="inline" opacity=".2"/><path id="path4474" fill="url(#linearGradient4083)" fill-opacity="1" fill-rule="evenodd" stroke="none" d="m 14,-7.0000004 c 1.526166,0 1,4 1,4 0,0 4.992074,-0.45326 4.992074,2 0,-0.5977419 0.05575,-1.4784338 -0.06407,-1.6559326 -0.839107,-1.2430058 -3.743765,-3.8618871 -4.798069,-4.2975971 -0.08598,-0.035532 -0.685898,-0.04647 -1.129935,-0.04647 z" display="inline"/><path id="rect3557-7" fill="#fff" fill-opacity="1" fill-rule="nonzero" stroke="none" stroke-width="1.7" d="m 11.302805,-1.7739994 c -0.323166,0 -0.583332,0.2601667 -0.583332,0.5833332 l 0,1.3124999 C 10.132986,0.2553814 9.5907959,0.4844448 9.0970759,0.7963128 L 8.1673884,-0.1333745 c -0.2285139,-0.2285134 -0.5917988,-0.2285134 -0.8203124,0 L 6.5267634,0.6869381 c -0.228514,0.2285129 -0.228514,0.5917983 0,0.8203116 L 7.4564508,2.436939 C 7.1445822,2.930659 6.915519,3.472846 6.7819718,4.059335 l -1.3125,0 c -0.3231666,0 -0.5833334,0.260167 -0.5833334,0.583332 l 0,1.166667 c 0,0.323165 0.2601668,0.583332 0.5833334,0.583332 l 1.3125,0 C 6.915519,6.979153 7.1445822,7.521342 7.4564508,8.015062 L 6.5267634,8.944751 c -0.228514,0.228512 -0.228514,0.591796 0,0.820312 l 0.8203126,0.820313 c 0.2285124,0.228512 0.5917985,0.228515 0.8203124,0 L 9.0970759,9.655687 c 0.49372,0.311871 1.0359101,0.540933 1.6223971,0.674481 l 0,1.312501 c 0,0.323163 0.260166,0.583331 0.583332,0.583331 l 1.166667,0 c 0.323167,0 0.583333,-0.260168 0.583333,-0.583331 l 0,-1.312501 c 0.586488,-0.133548 1.128676,-0.36261 1.622396,-0.674481 l 0.929687,0.929689 c 0.228515,0.228512 0.5918,0.228512 0.820314,0 l 0.820311,-0.820313 c 0.228513,-0.228514 0.228515,-0.5918 0,-0.820312 L 16.315826,8.015062 c 0.311868,-0.49372 0.540931,-1.035909 0.674479,-1.622396 l 1.312499,0 c 0.323169,0 0.583334,-0.260167 0.583334,-0.583332 l 0,-1.166667 c 0,-0.323165 -0.260165,-0.583332 -0.583334,-0.583332 l -1.312499,0 C 16.856757,3.472846 16.627694,2.930659 16.315826,2.436939 l 0.929687,-0.9296893 c 0.228513,-0.2285127 0.228513,-0.5917981 0,-0.8203116 l -0.820311,-0.8203126 c -0.228514,-0.2285134 -0.591799,-0.2285134 -0.820314,0 L 14.675201,0.7963128 C 14.181481,0.4844448 13.639293,0.2553814 13.052805,0.1218337 l 0,-1.3124999 c 0,-0.3231665 -0.260166,-0.5833332 -0.583333,-0.5833332 l -1.166667,0 z m 0.583334,4.6666664 c 1.287999,-10e-7 2.333334,1.045335 2.333334,2.333333 0,1.288 -1.045335,2.333332 -2.333334,2.333332 -1.288,0 -2.3333331,-1.045332 -2.3333331,-2.333332 1e-6,-1.287998 1.0453331,-2.333333 2.3333331,-2.333333 z" display="inline" enable-background="accumulate" opacity=".4" overflow="visible" visibility="visible" style="marker:none"/><path id="rect3557" fill="#620f59" fill-opacity="1" fill-rule="nonzero" stroke="none" stroke-width="1.7" d="m 11.302805,-2.7737255 c -0.323166,0 -0.583332,0.2601667 -0.583332,0.5833332 l 0,1.3124999 c -0.586487,0.1335477 -1.1286771,0.3626111 -1.6223971,0.6744791 L 8.1673884,-1.1331006 c -0.2285139,-0.2285134 -0.5917988,-0.2285134 -0.8203124,0 L 6.5267634,-0.312788 c -0.228514,0.2285129 -0.228514,0.5917983 0,0.8203116 L 7.4564508,1.4372129 C 7.1445822,1.930933 6.915519,2.47312 6.7819718,3.059609 l -1.3125,0 c -0.3231666,0 -0.5833334,0.260167 -0.5833334,0.583332 l 0,1.166667 c 0,0.323165 0.2601668,0.583332 0.5833334,0.583332 l 1.3125,0 C 6.915519,5.979427 7.1445822,6.521616 7.4564508,7.015336 L 6.5267634,7.945025 c -0.228514,0.228512 -0.228514,0.591796 0,0.820312 L 7.347076,9.58565 c 0.2285124,0.228512 0.5917985,0.228515 0.8203124,0 L 9.0970759,8.655961 c 0.49372,0.311871 1.0359101,0.540933 1.6223971,0.674481 l 0,1.312501 c 0,0.323163 0.260166,0.583331 0.583332,0.583331 l 1.166667,0 c 0.323167,0 0.583333,-0.260168 0.583333,-0.583331 l 0,-1.312501 c 0.586488,-0.133548 1.128676,-0.36261 1.622396,-0.674481 l 0.929687,0.929689 c 0.228515,0.228512 0.5918,0.228512 0.820314,0 l 0.820311,-0.820313 c 0.228513,-0.228514 0.228515,-0.5918 0,-0.820312 L 16.315826,7.015336 c 0.311868,-0.49372 0.540931,-1.035909 0.674479,-1.622396 l 1.312499,0 c 0.323169,0 0.583334,-0.260167 0.583334,-0.583332 l 0,-1.166667 c 0,-0.323165 -0.260165,-0.583332 -0.583334,-0.583332 l -1.312499,0 C 16.856757,2.47312 16.627694,1.930933 16.315826,1.4372129 l 0.929687,-0.9296893 c 0.228513,-0.2285127 0.228513,-0.5917981 0,-0.8203116 l -0.820311,-0.8203126 c -0.228514,-0.2285134 -0.591799,-0.2285134 -0.820314,0 l -0.929687,0.9296873 c -0.49372,-0.311868 -1.035908,-0.5409314 -1.622396,-0.6744791 l 0,-1.3124999 c 0,-0.3231665 -0.260166,-0.5833332 -0.583333,-0.5833332 l -1.166667,0 z m 0.583334,4.6666659 c 1.287999,-1.2e-6 2.333334,1.0453356 2.333334,2.3333336 0,1.288 -1.045335,2.333332 -2.333334,2.333332 -1.288,0 -2.3333331,-1.045332 -2.3333331,-2.333332 1e-6,-1.287998 1.0453331,-2.3333336 2.3333331,-2.3333336 z" display="inline" enable-background="accumulate" overflow="visible" visibility="visible" style="marker:none"/></g></svg>