<svg xmlns="http://www.w3.org/2000/svg" xmlns:svg="http://www.w3.org/2000/svg" xmlns:xlink="http://www.w3.org/1999/xlink" id="svg3620" width="24" height="24" version="1.0"><metadata id="metadata52"/><defs id="defs3622"><linearGradient id="linearGradient5048"><stop id="stop5050" offset="0" stop-color="#000" stop-opacity="0"/><stop id="stop5056" offset=".5" stop-color="#000" stop-opacity="1"/><stop id="stop5052" offset="1" stop-color="#000" stop-opacity="0"/></linearGradient><linearGradient id="linearGradient5060"><stop id="stop5062" offset="0" stop-color="#000" stop-opacity="1"/><stop id="stop5064" offset="1" stop-color="#000" stop-opacity="0"/></linearGradient><linearGradient id="linearGradient3104"><stop id="stop3106" offset="0" stop-color="#791235" stop-opacity="1"/><stop id="stop3108" offset="1" stop-color="#dd3b27" stop-opacity="1"/></linearGradient><linearGradient id="linearGradient3681"><stop id="stop3683" offset="0" stop-color="#f89b7e" stop-opacity="1"/><stop id="stop3685" offset=".25" stop-color="#e35d4f" stop-opacity="1"/><stop id="stop3687" offset=".752" stop-color="#c6262e" stop-opacity="1"/><stop id="stop3689" offset="1" stop-color="#690b2c" stop-opacity="1"/></linearGradient><linearGradient id="linearGradient4246"><stop id="stop4248" offset="0" stop-color="#fff" stop-opacity="1"/><stop id="stop4250" offset="1" stop-color="#dcdcdc" stop-opacity="1"/></linearGradient><linearGradient id="linearGradient3211"><stop id="stop3213" offset="0" stop-color="#fff" stop-opacity="1"/><stop id="stop3215" offset="1" stop-color="#fff" stop-opacity="0"/></linearGradient><linearGradient id="linearGradient8589"><stop id="stop8591" offset="0" stop-color="#fefefe" stop-opacity="1"/><stop id="stop8593" offset="1" stop-color="#cbcbcb" stop-opacity="1"/></linearGradient><linearGradient id="linearGradient4267"><stop id="stop4269" offset="0" stop-color="#c4c4c4" stop-opacity="1"/><stop id="stop4271" offset="1" stop-color="#c4c4c4" stop-opacity="0"/></linearGradient><linearGradient id="linearGradient2428" x1="35.349" x2="34.103" y1="5.307" y2="6.544" gradientTransform="matrix(0.5155606,0,0,0.5130904,-0.8957459,0.1854491)" gradientUnits="userSpaceOnUse" xlink:href="#linearGradient4267"/><linearGradient id="linearGradient2431" x1="32.892" x2="36.358" y1="8.059" y2="5.457" gradientTransform="matrix(0.4778466,0,0,0.5524833,0.3722548,-7.61283e-2)" gradientUnits="userSpaceOnUse" xlink:href="#linearGradient8589"/><linearGradient id="linearGradient2435" x1="24" x2="24" y1="2" y2="46.017" gradientTransform="matrix(0.4545444,0,0,0.4651153,1.0909345,0.3372293)" gradientUnits="userSpaceOnUse" xlink:href="#linearGradient3211"/><linearGradient id="linearGradient2439" x1="23.97" x2="23.97" y1="3.981" y2="44.024" gradientTransform="matrix(0.4210526,0,0,0.5526316,1.894737,-1.7631576)" gradientUnits="userSpaceOnUse" xlink:href="#linearGradient4246"/><radialGradient id="radialGradient2442" cx="8.12" cy="6.628" r="9" fx="8.12" fy="6.628" gradientTransform="matrix(1.444031e-2,2.0653773,-3.052092,2.133905e-2,28.231755,-11.638481)" gradientUnits="userSpaceOnUse" xlink:href="#linearGradient3681"/><linearGradient id="linearGradient2444" x1="-53.412" x2="-51.786" y1="56.11" y2="2.906" gradientTransform="matrix(0.3922135,0,0,0.4473607,29.199293,-1.2386997)" gradientUnits="userSpaceOnUse" xlink:href="#linearGradient3104"/><radialGradient id="radialGradient2447" cx="605.714" cy="486.648" r="117.143" fx="605.714" fy="486.648" gradientTransform="matrix(1.204859e-2,0,0,8.23529e-3,13.238794,18.980568)" gradientUnits="userSpaceOnUse" xlink:href="#linearGradient5060"/><radialGradient id="radialGradient2450" cx="605.714" cy="486.648" r="117.143" fx="605.714" fy="486.648" gradientTransform="matrix(-1.204859e-2,0,0,8.23529e-3,10.761206,18.980568)" gradientUnits="userSpaceOnUse" xlink:href="#linearGradient5060"/><linearGradient id="linearGradient2453" x1="302.857" x2="302.857" y1="366.648" y2="609.505" gradientTransform="matrix(3.52071e-2,0,0,8.23529e-3,-0.724852,18.980551)" gradientUnits="userSpaceOnUse" xlink:href="#linearGradient5048"/></defs><rect id="rect2879" width="17" height="2" x="3.5" y="22" fill="url(#linearGradient2453)" fill-opacity="1" fill-rule="nonzero" stroke="none" stroke-width="1" display="inline" opacity=".15" overflow="visible" visibility="visible" style="marker:none"/><path id="path2881" fill="url(#radialGradient2450)" fill-opacity="1" fill-rule="nonzero" stroke="none" stroke-width="1" d="M 3.5,22.000086 C 3.5,22.000086 3.5,23.999975 3.5,23.999975 C 2.8795275,24.00374 2,23.551901 2,22.999901 C 2,22.447902 2.6924,22.000086 3.5,22.000086 z" display="inline" opacity=".15" overflow="visible" visibility="visible" style="marker:none"/><path id="path2883" fill="url(#radialGradient2447)" fill-opacity="1" fill-rule="nonzero" stroke="none" stroke-width="1" d="M 20.5,22.000086 C 20.5,22.000086 20.5,23.999975 20.5,23.999975 C 21.120472,24.003775 22,23.551901 22,22.999901 C 22,22.447902 21.307599,22.000086 20.5,22.000086 L 20.5,22.000086 z" display="inline" opacity=".15" overflow="visible" visibility="visible" style="marker:none"/><path id="path4160" fill="url(#radialGradient2442)" fill-opacity="1" stroke="url(#linearGradient2444)" stroke-dasharray="none" stroke-dashoffset="0" stroke-linecap="butt" stroke-linejoin="round" stroke-miterlimit="4" stroke-opacity="1" stroke-width="1" d="M 3.4999617,0.49996097 C 7.3955416,0.49996097 11.104417,0.49996097 15,0.49996097 C 15.683368,0.73725787 19.541325,3.628131 20.5,5.5 C 20.5,11.229157 20.500039,16.770881 20.500039,22.500039 C 14.833346,22.500039 9.1666545,22.500039 3.4999617,22.500039 C 3.4999617,15.166679 3.4999617,7.8333189 3.4999617,0.49996097 L 3.4999617,0.49996097 z" display="inline"/><path id="path6711" fill="url(#linearGradient2439)" fill-opacity="1" fill-rule="evenodd" stroke="none" d="M 13.602941,1 C 8.1493681,7.1511328 5.0362607,8.0161777 4,8.1119188 L 4,10.324855 C 4.7821694,10.181297 6.7443732,9.6832125 8.8382356,7.9593025 C 11.523142,5.7487769 14.735294,1.5494186 14.735294,1.5494186 C 13.854973,3.819289 13.605244,11.649675 13.588235,22 L 20,22 C 20,21.424855 20,21.540489 20,20.962209 C 18.956759,18.133888 18.276538,14.052967 17.764706,10.401163 C 17.462258,7.3842414 17.568838,5.2128348 17.809835,3.3962595 C 16.905673,2.5995437 15.164663,1.3514751 14.596335,1 L 13.60294,1 L 13.602941,1 z M 4,11.713663 L 4,14.170785 C 6.2640725,14.170784 9.7426817,17.737087 11.426471,22 L 12.838235,22 C 12.047065,18.124596 5.7273049,11.713663 4,11.713663 z"/><path id="path6713" fill="#000" fill-opacity="1" fill-rule="evenodd" stroke="none" d="M 16.938974,2.9534884 C 14.188865,4.9264327 8.5705498,8.3323148 4,7.789725 L 4,12.176752 C 4,12.176751 16.307693,14.477039 20,9.6188921 L 20,5.763136 C 19.362464,4.8674813 17.949146,3.7479676 16.938974,2.9534884 z M 20,14.133829 C 18.53148,15.819909 16.728987,19.151025 15.464818,22 L 13.882353,21.98608 C 15.359019,17.980407 17.746801,14.045734 20,11.255817 L 20,14.133832 L 20,14.133829 z" opacity=".15"/><path id="path2435" fill="none" stroke="url(#linearGradient2435)" stroke-dasharray="none" stroke-dashoffset="0" stroke-linecap="butt" stroke-linejoin="miter" stroke-miterlimit="4" stroke-opacity="1" stroke-width="1" d="M 19.500001,5.6770357 C 19.500001,10.885341 19.500001,16.291693 19.500001,21.5 C 14.500001,21.5 9.5000012,21.5 4.5,21.5 C 4.5,14.83333 4.5,8.1666657 4.5,1.4999999 C 7.9372614,1.4999999 11.456499,1.4999999 14.893761,1.4999999" display="inline" opacity=".4"/><path id="path3370" fill="#000" fill-opacity="1" fill-rule="evenodd" stroke="none" d="M 14.075474,1 C 15.231777,1.3287671 14.414533,5.6143789 14.414533,5.6143789 C 14.414533,5.6143789 18.929921,5.1866427 20.022243,6.809375 C 21.511396,9.0216317 19.954018,6.1742029 19.848796,5.9876778 C 19.092868,4.6476323 15.982456,1.4405918 14.803387,1.0464703 C 14.715155,1.0169778 14.519511,1 14.075474,1 z" display="inline" opacity=".2"/><path id="path4474" fill="url(#linearGradient2431)" fill-opacity="1" fill-rule="evenodd" stroke="none" d="M 14,1 C 15.526166,1 15,5 15,5 C 15,5 19.992074,4.54674 19.992074,7 C 19.992074,6.4022581 20.047824,5.5215662 19.928004,5.3440674 C 19.088897,4.1010616 16.184239,1.4821803 15.129935,1.0464703 C 15.043957,1.0109384 14.444037,1 14,1 z" display="inline"/><path id="path4238" fill="none" fill-opacity="1" stroke="url(#linearGradient2428)" stroke-dasharray="none" stroke-dashoffset="0" stroke-linecap="butt" stroke-linejoin="round" stroke-miterlimit="4" stroke-opacity="1" stroke-width="1" d="M 15.004136,0.4995602 C 15.729494,0.74310014 19.482457,3.5450086 20.500039,5.4661223 C 20.500039,11.346001 20.500039,5.8033491 20.500039,11.683227 C -0.35223341,19.75359 2.4778444,0.4995602 15.004136,0.4995602 z" display="inline"/></svg>