<svg xmlns="http://www.w3.org/2000/svg" xmlns:svg="http://www.w3.org/2000/svg" xmlns:xlink="http://www.w3.org/1999/xlink" id="svg3386" width="24" height="24" version="1.0"><defs id="defs3388"><linearGradient id="linearGradient5048"><stop id="stop5050" offset="0" stop-color="#000" stop-opacity="0"/><stop id="stop5056" offset=".5" stop-color="#000" stop-opacity="1"/><stop id="stop5052" offset="1" stop-color="#000" stop-opacity="0"/></linearGradient><linearGradient id="linearGradient5060"><stop id="stop5062" offset="0" stop-color="#000" stop-opacity="1"/><stop id="stop5064" offset="1" stop-color="#000" stop-opacity="0"/></linearGradient><linearGradient id="linearGradient3104"><stop id="stop3106" offset="0" stop-color="#aaa" stop-opacity="1"/><stop id="stop3108" offset="1" stop-color="#c8c8c8" stop-opacity="1"/></linearGradient><linearGradient id="linearGradient3600"><stop id="stop3602" offset="0" stop-color="#f4f4f4" stop-opacity="1"/><stop id="stop3604" offset="1" stop-color="#dbdbdb" stop-opacity="1"/></linearGradient><radialGradient id="XMLID_8_" cx="102" cy="112.305" r="139.559" gradientUnits="userSpaceOnUse"><stop id="stop41" offset="0" stop-color="#b7b8b9" stop-opacity="1"/><stop id="stop47" offset=".174" stop-color="#ececec" stop-opacity="1"/><stop id="stop49" offset=".239" stop-color="#fafafa" stop-opacity="0"/><stop id="stop51" offset=".301" stop-color="#fff" stop-opacity="0"/><stop id="stop53" offset=".531" stop-color="#fafafa" stop-opacity="0"/><stop id="stop55" offset=".845" stop-color="#ebecec" stop-opacity="0"/><stop id="stop57" offset="1" stop-color="#e1e2e3" stop-opacity="0"/></radialGradient><linearGradient id="linearGradient3211"><stop id="stop3213" offset="0" stop-color="#fff" stop-opacity="1"/><stop id="stop3215" offset="1" stop-color="#fff" stop-opacity="0"/></linearGradient><linearGradient id="linearGradient8589"><stop id="stop8591" offset="0" stop-color="#fefefe" stop-opacity="1"/><stop id="stop8593" offset="1" stop-color="#cbcbcb" stop-opacity="1"/></linearGradient><linearGradient id="linearGradient2425" x1="32.892" x2="36.358" y1="8.059" y2="5.457" gradientTransform="matrix(0.4778466,0,0,0.5524833,0.3722548,-0.0761283)" gradientUnits="userSpaceOnUse" xlink:href="#linearGradient8589"/><linearGradient id="linearGradient2429" x1="24" x2="24" y1="2" y2="46.017" gradientTransform="matrix(0.4545444,0,0,0.4651153,1.0909345,0.3372293)" gradientUnits="userSpaceOnUse" xlink:href="#linearGradient3211"/><radialGradient id="radialGradient2432" cx="92.09" cy="102.703" r="139.559" fx="92.09" fy="102.703" gradientTransform="matrix(0.1702128,0,0,-0.1907226,1.1063831,23.716504)" gradientUnits="userSpaceOnUse" xlink:href="#XMLID_8_"/><linearGradient id="linearGradient2435" x1="25.132" x2="25.132" y1=".985" y2="47.013" gradientTransform="matrix(0.4857154,0,0,0.4780255,0.3428305,-0.7059501)" gradientUnits="userSpaceOnUse" xlink:href="#linearGradient3600"/><linearGradient id="linearGradient2438" x1="-51.786" x2="-51.786" y1="50.786" y2="2.906" gradientTransform="matrix(0.3922135,0,0,0.4473607,29.199293,-1.2386997)" gradientUnits="userSpaceOnUse" xlink:href="#linearGradient3104"/><radialGradient id="radialGradient2441" cx="605.714" cy="486.648" r="117.143" fx="605.714" fy="486.648" gradientTransform="matrix(0.01204859,0,0,0.00823529,13.238794,18.980568)" gradientUnits="userSpaceOnUse" xlink:href="#linearGradient5060"/><radialGradient id="radialGradient2444" cx="605.714" cy="486.648" r="117.143" fx="605.714" fy="486.648" gradientTransform="matrix(-0.01204859,0,0,0.00823529,10.761206,18.980568)" gradientUnits="userSpaceOnUse" xlink:href="#linearGradient5060"/><linearGradient id="linearGradient2447" x1="302.857" x2="302.857" y1="366.648" y2="609.505" gradientTransform="matrix(0.0352071,0,0,0.00823529,-0.724852,18.980551)" gradientUnits="userSpaceOnUse" xlink:href="#linearGradient5048"/><linearGradient id="linearGradient7060" x1="375.625" x2="393.433" y1="311.791" y2="374.925" gradientTransform="matrix(0.14454376,-0.0258744,0.02414305,0.15490929,-55.072724,-35.263332)" gradientUnits="userSpaceOnUse" xlink:href="#linearGradient7176"/><linearGradient id="linearGradient7176"><stop id="stop7178" offset="0" stop-color="#204a87" stop-opacity="1"/><stop id="stop7180" offset="1" stop-color="#97bcd4" stop-opacity="1"/></linearGradient><linearGradient id="linearGradient7062" x1="13.113" x2="20.404" y1="7.251" y2="21.767" gradientTransform="matrix(0.62911359,0,0,0.67422865,-3.0534855,-1.6707578)" gradientUnits="userSpaceOnUse" xlink:href="#linearGradient7613"/><linearGradient id="linearGradient7613"><stop id="stop7615" offset="0" stop-color="#304456" stop-opacity="1"/><stop id="stop7617" offset="1" stop-color="#6394be" stop-opacity="1"/></linearGradient><radialGradient id="radialGradient7065" cx="416.655" cy="392.078" r="27.077" fx="416.655" fy="392.078" gradientTransform="matrix(0.17992296,-0.19211484,0.2031471,0.18249679,-139.12999,25.083914)" gradientUnits="userSpaceOnUse" xlink:href="#linearGradient7192"/><linearGradient id="linearGradient7192"><stop id="stop7210" offset="0" stop-color="#fce94f" stop-opacity="1"/><stop id="stop8189" offset=".5" stop-color="#66d09a" stop-opacity="1"/><stop id="stop8187" offset="1" stop-color="#66c6d0" stop-opacity="1"/></linearGradient><linearGradient id="linearGradient7067" x1="32.027" x2="27.56" y1="21.986" y2="15.299" gradientTransform="matrix(0.68679991,0,0,0.67265216,-4.3832399,-1.6478847)" gradientUnits="userSpaceOnUse" xlink:href="#linearGradient7605"/><linearGradient id="linearGradient7605"><stop id="stop7607" offset="0" stop-color="#bcae3e" stop-opacity="1"/><stop id="stop7609" offset=".5" stop-color="#3b9a6a" stop-opacity="1"/><stop id="stop7611" offset="1" stop-color="#3d8891" stop-opacity="1"/></linearGradient><linearGradient id="linearGradient9162"><stop id="stop9170" offset="0" stop-color="#8ae234" stop-opacity="1"/><stop id="stop9166" offset="1" stop-color="#4db07d" stop-opacity=".882"/></linearGradient><radialGradient id="radialGradient2907" cx="416.802" cy="399.142" r="20.131" fx="416.802" fy="399.142" gradientTransform="matrix(-0.24383917,-0.0411249,0.01853542,-0.1054198,111.07233,77.082896)" gradientUnits="userSpaceOnUse" xlink:href="#linearGradient9162"/></defs><rect id="rect2879" width="17" height="2" x="3.5" y="22" fill="url(#linearGradient2447)" fill-opacity="1" fill-rule="nonzero" stroke="none" stroke-width="1" display="inline" opacity=".15" overflow="visible" visibility="visible" style="marker:none"/><path id="path2881" fill="url(#radialGradient2444)" fill-opacity="1" fill-rule="nonzero" stroke="none" stroke-width="1" d="m 3.5,22.000086 c 0,0 0,1.999889 0,1.999889 C 2.8795275,24.00374 2,23.551901 2,22.999901 2,22.447902 2.6924,22.000086 3.5,22.000086 z" display="inline" opacity=".15" overflow="visible" visibility="visible" style="marker:none"/><path id="path2883" fill="url(#radialGradient2441)" fill-opacity="1" fill-rule="nonzero" stroke="none" stroke-width="1" d="m 20.5,22.000086 c 0,0 0,1.999889 0,1.999889 0.620472,0.0038 1.5,-0.448074 1.5,-1.000074 0,-0.551999 -0.692401,-0.999815 -1.5,-0.999815 z" display="inline" opacity=".15" overflow="visible" visibility="visible" style="marker:none"/><path id="path4160" fill="url(#linearGradient2435)" fill-opacity="1" stroke="url(#linearGradient2438)" stroke-dasharray="none" stroke-dashoffset="0" stroke-linecap="butt" stroke-linejoin="round" stroke-miterlimit="4" stroke-opacity="1" stroke-width="1" d="m 3.4999617,0.49996097 c 3.8955799,0 7.6044553,0 11.5000383,0 C 15.683368,0.73725787 19.541325,3.628131 20.5,5.5 c 0,5.729157 3.9e-5,11.270881 3.9e-5,17.000039 -5.666693,0 -11.3333845,0 -17.0000773,0 0,-7.33336 0,-14.6667201 0,-22.00007803 z" display="inline"/><path id="path4191" fill="url(#radialGradient2432)" fill-opacity="1" d="M 4.1702128,22 C 4.0764256,22 4,21.914366 4,21.809277 L 4,1.2112452 C 4,1.1059667 4.0764256,1.0205233 4.1702128,1.0205233 7.6916683,1.0732401 11.594065,0.94166522 15.11124,1.0336487 L 19.950127,5.3607855 20,21.809277 C 20,21.914366 19.923743,22 19.829786,22 L 4.1702128,22 z"/><path id="path2435" fill="none" stroke="url(#linearGradient2429)" stroke-dasharray="none" stroke-dashoffset="0" stroke-linecap="butt" stroke-linejoin="miter" stroke-miterlimit="4" stroke-opacity="1" stroke-width="1" d="m 19.500001,5.6770357 c 0,5.2083053 0,10.6146573 0,15.8229643 -5,0 -9.9999998,0 -15.000001,0 0,-6.66667 0,-13.3333343 0,-20.0000001 3.4372614,0 6.956499,0 10.393761,0" display="inline" opacity=".6"/><path id="path3370" fill="#000" fill-opacity="1" fill-rule="evenodd" stroke="none" d="m 14.075474,1 c 1.156303,0.3287671 0.339059,4.6143789 0.339059,4.6143789 0,0 4.515388,-0.4277362 5.60771,1.1949961 C 21.511396,9.0216317 19.954018,6.1742029 19.848796,5.9876778 19.092868,4.6476323 15.982456,1.4405918 14.803387,1.0464703 14.715155,1.0169778 14.519511,1 14.075474,1 z" display="inline" opacity=".2"/><path id="path4474" fill="url(#linearGradient2425)" fill-opacity="1" fill-rule="evenodd" stroke="none" d="m 14,1 c 1.526166,0 1,4 1,4 0,0 4.992074,-0.45326 4.992074,2 0,-0.5977419 0.05575,-1.4784338 -0.06407,-1.6559326 C 19.088897,4.1010616 16.184239,1.4821803 15.129935,1.0464703 15.043957,1.0109384 14.444037,1 14,1 z" display="inline"/><path id="path8191" fill="url(#radialGradient2907)" fill-opacity="1" fill-rule="evenodd" stroke="#4b8748" stroke-dasharray="none" stroke-linecap="butt" stroke-linejoin="miter" stroke-miterlimit="4" stroke-opacity="1" stroke-width=".51" d="m 11.254567,16.179776 c 1.023857,1.287178 2.339658,1.48531 3.938398,1.466311 -0.10967,0.247941 -0.219338,0.495881 -0.329007,0.743821 0.306377,-0.358423 0.534765,-0.747873 1.041334,-0.697997 -0.313393,0.44167 -0.364857,0.727461 -0.483454,1.053206 0.606224,-0.535793 1.556642,-0.719728 2.323279,-0.93454 -0.203948,-0.304872 -0.513907,-0.524982 -0.717855,-0.829855 0.354767,-0.592497 0.5061,-1.395297 0.535295,-2.106321 -0.137244,0.370438 -0.338696,0.667102 -0.529,0.928234 0.388049,-0.943883 -0.538009,-1.929317 -0.867624,-2.716993 0.03598,0.372938 -0.198727,0.836102 0.288372,1.38949 -0.305895,1.098472 -0.205694,1.319066 -0.881335,1.986756 -1.115067,0.271426 -2.823782,0.516569 -4.318403,-0.282112 z" display="inline"/><path id="path27337" fill="url(#radialGradient7065)" fill-opacity="1" fill-rule="evenodd" stroke="url(#linearGradient7067)" stroke-dasharray="none" stroke-linecap="butt" stroke-linejoin="miter" stroke-miterlimit="4" stroke-opacity="1" stroke-width=".51" d="m 6.8512427,10.366719 c 0.074132,2.918692 2.6208477,4.647263 4.9812363,5.991252 1.334585,0.490328 2.537749,0.356149 3.911266,0.191143 0.848558,-1.699925 0.493859,-3.106596 -0.250679,-4.786593 C 15.029105,11.107134 14.913259,10.425682 14.81096,9.6581563 14.275642,10.147176 14.555695,10.950459 14.543067,11.640936 14.222951,10.467948 13.480389,9.4959664 12.832008,8.4782114 12.350088,6.7052732 10.560353,5.620551 9.1356003,4.5718641 11.47346,8.1496612 12.028979,8.3323885 11.031856,12.611035 8.8831931,13.374443 7.5122244,12.310858 6.8512427,10.366719 z" display="inline"/><path id="path24402" fill="url(#linearGradient7060)" fill-opacity="1" fill-rule="evenodd" stroke="url(#linearGradient7062)" stroke-dasharray="none" stroke-linecap="butt" stroke-linejoin="miter" stroke-miterlimit="4" stroke-opacity="1" stroke-width=".488" d="m 5.2442302,8.0316908 c 0.4886853,1.9941882 1.8185428,3.6182152 3.6081344,4.3913512 0.8012731,0.181964 1.5997934,0.357151 2.2444784,0.153507 -0.152716,-1.268182 0.103813,-2.47889 0.205878,-3.8659046 0.05274,-1.195559 0.109938,-2.2559635 -0.545939,-3.2362866 C 9.7468157,4.013985 8.4388243,3.4642339 6.9170791,3.5675977 6.5465199,4.1219227 6.1752409,4.5850496 5.8937591,5.0616921 5.4251255,5.8552485 5.0630008,7.1828774 5.6523091,8.0379692 6.2321342,8.618973 6.9918964,9.2329943 7.4410684,9.3042967 6.7598145,9.3540008 6.2987221,8.9824341 5.7425171,8.6167689 5.576421,8.4217435 5.4103262,8.2267162 5.2442302,8.0316908 z" display="inline"/><path id="path24368-2" fill="#2a6a28" d="M 18.116441,19.401527 C 16.622353,18.230138 13.170077,14.972068 12.208007,13.825464 11.488978,12.968524 11.055941,12.763374 10.342656,12.941766 9.6899189,13.10502 9.5870134,13.065968 9.9965495,12.810409 10.317106,12.610385 10.570719,12.347725 10.560135,12.22672 10.549545,12.105717 9.9137055,11.024929 9.1471456,9.8249702 L 6.8120301,3.9924812 c 1.9713438,3.980637 4.2566209,7.5493658 4.6716529,7.0829998 0.197168,-0.221556 0.27026,-0.115636 0.2234,0.323741 -0.08522,0.799008 2.221259,3.47448 5.020717,5.823947 1.079861,0.906282 2.044704,1.911646 2.144095,2.234148 0.225501,0.73168 0.25138,0.733592 -0.755454,-0.05579 z" display="inline"/></svg>