<svg xmlns="http://www.w3.org/2000/svg" xmlns:svg="http://www.w3.org/2000/svg" xmlns:xlink="http://www.w3.org/1999/xlink" id="svg4031" width="24" height="24" version="1.1"><defs id="defs4033"><linearGradient id="linearGradient2425" x1="32.892" x2="36.358" y1="8.059" y2="5.457" gradientTransform="matrix(0.4778466,0,0,0.5524833,0.3722548,7.9238717)" gradientUnits="userSpaceOnUse" xlink:href="#linearGradient8589"/><linearGradient id="linearGradient8589"><stop id="stop8591" offset="0" stop-color="#fefefe" stop-opacity="1"/><stop id="stop8593" offset="1" stop-color="#cbcbcb" stop-opacity="1"/></linearGradient><linearGradient id="linearGradient2961" x1="17.976" x2="17.976" y1="17.984" y2="6.029" gradientUnits="userSpaceOnUse" xlink:href="#linearGradient2490-3-5"/><linearGradient id="linearGradient2490-3-5"><stop id="stop2492-3-33" offset="0" stop-color="#365f0e" stop-opacity="1"/><stop id="stop2494-8-83" offset="1" stop-color="#84a718" stop-opacity="1"/></linearGradient><linearGradient id="linearGradient2429" x1="24" x2="24" y1="2" y2="46.017" gradientTransform="matrix(0.4545444,0,0,0.4651153,1.0909345,8.3372293)" gradientUnits="userSpaceOnUse" xlink:href="#linearGradient3211"/><linearGradient id="linearGradient3211"><stop id="stop3213" offset="0" stop-color="#fff" stop-opacity="1"/><stop id="stop3215" offset="1" stop-color="#fff" stop-opacity="0"/></linearGradient><radialGradient id="radialGradient2432" cx="92.09" cy="102.703" r="139.559" fx="92.09" fy="102.703" gradientTransform="matrix(0.1702128,0,0,-0.1907226,1.1063831,31.716504)" gradientUnits="userSpaceOnUse" xlink:href="#linearGradient3737"/><linearGradient id="linearGradient3737"><stop id="stop3739" offset="0" stop-color="#181818" stop-opacity="1"/><stop id="stop3745" offset=".25" stop-color="#181818" stop-opacity="0"/><stop id="stop3741" offset="1" stop-color="#181818" stop-opacity="0"/></linearGradient><radialGradient id="radialGradient3886-8" cx="24" cy="4.5" r="18" fx="24" fy="4.5" gradientTransform="matrix(0,1.5296515,-1.595671,0,19.180519,-28.461626)" gradientUnits="userSpaceOnUse" xlink:href="#linearGradient3242-7-5"/><linearGradient id="linearGradient3242-7-5"><stop id="stop3244-5-2" offset="0" stop-color="#eef87e" stop-opacity="1"/><stop id="stop3246-9-2" offset=".262" stop-color="#cde34f" stop-opacity="1"/><stop id="stop3248-7-2" offset=".661" stop-color="#93b723" stop-opacity="1"/><stop id="stop3250-8-70" offset="1" stop-color="#5a7e0d" stop-opacity="1"/></linearGradient><linearGradient id="linearGradient3888-3" x1="-51.786" x2="-51.786" y1="50.786" y2="2.906" gradientTransform="matrix(0.39221362,0,0,0.4473607,29.199293,6.7613001)" gradientUnits="userSpaceOnUse" xlink:href="#linearGradient2490-3-4"/><linearGradient id="linearGradient2490-3-4"><stop id="stop2492-3-6" offset="0" stop-color="#365f0e" stop-opacity="1"/><stop id="stop2494-8-3" offset="1" stop-color="#84a718" stop-opacity="1"/></linearGradient><radialGradient id="radialGradient2441" cx="605.714" cy="486.648" r="117.143" fx="605.714" fy="486.648" gradientTransform="matrix(0.01204859,0,0,0.00823529,13.238794,26.980568)" gradientUnits="userSpaceOnUse" xlink:href="#linearGradient5060"/><linearGradient id="linearGradient5060"><stop id="stop5062" offset="0" stop-color="#000" stop-opacity="1"/><stop id="stop5064" offset="1" stop-color="#000" stop-opacity="0"/></linearGradient><radialGradient id="radialGradient2444" cx="605.714" cy="486.648" r="117.143" fx="605.714" fy="486.648" gradientTransform="matrix(-0.01204859,0,0,0.00823529,10.761206,26.980568)" gradientUnits="userSpaceOnUse" xlink:href="#linearGradient5060"/><linearGradient id="linearGradient5048"><stop id="stop5050" offset="0" stop-color="#000" stop-opacity="0"/><stop id="stop5056" offset=".5" stop-color="#000" stop-opacity="1"/><stop id="stop5052" offset="1" stop-color="#000" stop-opacity="0"/></linearGradient><linearGradient id="linearGradient4029" x1="302.857" x2="302.857" y1="366.648" y2="609.505" gradientTransform="matrix(0.0352071,0,0,0.00823529,-0.724852,26.980551)" gradientUnits="userSpaceOnUse" xlink:href="#linearGradient5048"/></defs><metadata id="metadata4036"/><g id="layer1" transform="translate(0,-8)"><rect id="rect2879" width="17" height="2" x="3.5" y="30" fill="url(#linearGradient4029)" fill-opacity="1" fill-rule="nonzero" stroke="none" stroke-width="1" display="inline" opacity=".15" overflow="visible" visibility="visible" style="marker:none"/><path id="path2881" fill="url(#radialGradient2444)" fill-opacity="1" fill-rule="nonzero" stroke="none" stroke-width="1" d="m 3.5,30.000086 c 0,0 0,1.999889 0,1.999889 C 2.8795275,32.00374 2,31.551901 2,30.999901 2,30.447902 2.6924,30.000086 3.5,30.000086 z" display="inline" opacity=".15" overflow="visible" visibility="visible" style="marker:none"/><path id="path2883" fill="url(#radialGradient2441)" fill-opacity="1" fill-rule="nonzero" stroke="none" stroke-width="1" d="m 20.5,30.000086 c 0,0 0,1.999889 0,1.999889 0.620472,0.0038 1.5,-0.448074 1.5,-1.000074 0,-0.551999 -0.692401,-0.999815 -1.5,-0.999815 z" display="inline" opacity=".15" overflow="visible" visibility="visible" style="marker:none"/><path id="path4160" fill="url(#radialGradient3886-8)" fill-opacity="1" fill-rule="nonzero" stroke="url(#linearGradient3888-3)" stroke-dasharray="none" stroke-dashoffset="0" stroke-linecap="butt" stroke-linejoin="round" stroke-miterlimit="4" stroke-opacity="1" stroke-width="1" d="m 3.4999617,8.4999609 c 3.8955799,0 7.6044553,0 11.5000383,0 0.683368,0.2372969 4.541325,3.1281701 5.5,5.0000391 0,5.729157 3.9e-5,11.270881 3.9e-5,17.000039 -5.666693,0 -11.3333845,0 -17.0000773,0 0,-7.33336 0,-14.66672 0,-22.0000781 z" color="#000" display="inline" enable-background="accumulate" overflow="visible" visibility="visible" style="marker:none"/><path id="path4191" fill="url(#radialGradient2432)" fill-opacity="1" d="M 4.1702128,30 C 4.0764256,30 4,29.914366 4,29.809277 L 4,9.2112452 C 4,9.1059667 4.0764256,9.0205233 4.1702128,9.0205233 7.6916683,9.0732401 11.594065,8.9416652 15.11124,9.0336487 L 19.950127,13.360785 20,29.809277 C 20,29.914366 19.923743,30 19.829786,30 L 4.1702128,30 z" opacity=".3"/><path id="path2435" fill="none" stroke="url(#linearGradient2429)" stroke-dasharray="none" stroke-dashoffset="0" stroke-linecap="butt" stroke-linejoin="miter" stroke-miterlimit="4" stroke-opacity="1" stroke-width="1" d="m 19.500001,13.677036 c 0,5.208305 0,10.614657 0,15.822964 -5,0 -9.9999998,0 -15.000001,0 0,-6.66667 0,-13.333334 0,-20.0000001 3.4372614,0 6.956499,0 10.393761,0" display="inline" opacity=".4"/><path id="path4014" fill="url(#linearGradient2961)" fill-opacity="1" fill-rule="nonzero" stroke="none" stroke-width=".48" d="M 9.34375,6.03125 A 1.4769903,1.4769903 0 0 0 8.03125,7.5 l 0,2.53125 -0.53125,0 A 1.4769903,1.4769903 0 0 0 6.40625,12.5 l 4.5,5 a 1.4769903,1.4769903 0 0 0 2.1875,0 l 4.5,-5 A 1.4769903,1.4769903 0 0 0 16.5,10.03125 l -0.53125,0 0,-2.53125 A 1.4769903,1.4769903 0 0 0 14.5,6.03125 l -5,0 a 1.4769903,1.4769903 0 0 0 -0.15625,0 z" color="#000" display="inline" enable-background="accumulate" opacity=".3" overflow="visible" transform="translate(0,8)" visibility="visible" style="marker:none"/><path id="path3288-2" fill="#f2f2f2" fill-opacity="1" stroke="#fff" stroke-opacity="1" stroke-width=".985" d="m 16.5,19.506797 -4.500001,5 -4.499999,-5 2,0 0,-3.999999 5,0 0,3.999999 2,0 z" display="inline" overflow="visible" visibility="visible" style="marker:none"/><path id="path3370" fill="#000" fill-opacity="1" fill-rule="evenodd" stroke="none" d="m 14.075474,9 c 1.156303,0.3287671 0.339059,4.614379 0.339059,4.614379 0,0 4.515388,-0.427736 5.60771,1.194996 1.489153,2.212257 -0.06822,-0.635172 -0.173447,-0.821697 C 19.092868,12.647632 15.982456,9.4405918 14.803387,9.0464703 14.715157,9.0169783 14.519511,9 14.075474,9 z" display="inline" opacity=".2"/><path id="path4474" fill="url(#linearGradient2425)" fill-opacity="1" fill-rule="evenodd" stroke="none" d="m 14,9 c 1.526166,0 1,4 1,4 0,0 4.992074,-0.45326 4.992074,2 0,-0.597742 0.05575,-1.478434 -0.06407,-1.655933 C 19.088897,12.101062 16.184239,9.4821803 15.129935,9.0464703 15.043957,9.0109384 14.444037,9 14,9 z" display="inline"/></g></svg>