<svg xmlns="http://www.w3.org/2000/svg" xmlns:svg="http://www.w3.org/2000/svg" xmlns:xlink="http://www.w3.org/1999/xlink" id="svg2597" width="24" height="24" version="1.0"><defs id="defs2599"><linearGradient id="linearGradient5048"><stop id="stop5050" offset="0" stop-color="#000" stop-opacity="0"/><stop id="stop5056" offset=".5" stop-color="#000" stop-opacity="1"/><stop id="stop5052" offset="1" stop-color="#000" stop-opacity="0"/></linearGradient><linearGradient id="linearGradient2447" x1="302.857" x2="302.857" y1="366.648" y2="609.505" gradientTransform="matrix(3.52071e-2,0,0,8.23529e-3,-0.724852,18.980551)" gradientUnits="userSpaceOnUse" xlink:href="#linearGradient5048"/><radialGradient id="radialGradient2444" cx="605.714" cy="486.648" r="117.143" fx="605.714" fy="486.648" gradientTransform="matrix(-1.204859e-2,0,0,8.23529e-3,10.761206,18.980568)" gradientUnits="userSpaceOnUse" xlink:href="#linearGradient5060"/><linearGradient id="linearGradient5060"><stop id="stop5062" offset="0" stop-color="#000" stop-opacity="1"/><stop id="stop5064" offset="1" stop-color="#000" stop-opacity="0"/></linearGradient><radialGradient id="radialGradient2441" cx="605.714" cy="486.648" r="117.143" fx="605.714" fy="486.648" gradientTransform="matrix(1.204859e-2,0,0,8.23529e-3,13.238794,18.980568)" gradientUnits="userSpaceOnUse" xlink:href="#linearGradient5060"/><linearGradient id="linearGradient3104"><stop id="stop3106" offset="0" stop-color="#aaa" stop-opacity="1"/><stop id="stop3108" offset="1" stop-color="#c8c8c8" stop-opacity="1"/></linearGradient><linearGradient id="linearGradient2438" x1="-51.786" x2="-51.786" y1="50.786" y2="2.906" gradientTransform="matrix(0.3922135,0,0,0.4473607,29.199293,-1.2386997)" gradientUnits="userSpaceOnUse" xlink:href="#linearGradient3104"/><linearGradient id="linearGradient3600"><stop id="stop3602" offset="0" stop-color="#f4f4f4" stop-opacity="1"/><stop id="stop3604" offset="1" stop-color="#dbdbdb" stop-opacity="1"/></linearGradient><linearGradient id="linearGradient2435" x1="25.132" x2="25.132" y1=".985" y2="47.013" gradientTransform="matrix(0.4857154,0,0,0.4780255,0.3428305,-0.7059501)" gradientUnits="userSpaceOnUse" xlink:href="#linearGradient3600"/><radialGradient id="XMLID_8_" cx="102" cy="112.305" r="139.559" gradientUnits="userSpaceOnUse"><stop id="stop41" offset="0" stop-color="#b7b8b9" stop-opacity="1"/><stop id="stop47" offset=".174" stop-color="#ececec" stop-opacity="1"/><stop id="stop49" offset=".239" stop-color="#fafafa" stop-opacity="0"/><stop id="stop51" offset=".301" stop-color="#fff" stop-opacity="0"/><stop id="stop53" offset=".531" stop-color="#fafafa" stop-opacity="0"/><stop id="stop55" offset=".845" stop-color="#ebecec" stop-opacity="0"/><stop id="stop57" offset="1" stop-color="#e1e2e3" stop-opacity="0"/></radialGradient><radialGradient id="radialGradient2432" cx="92.09" cy="102.703" r="139.559" fx="92.09" fy="102.703" gradientTransform="matrix(0.1702128,0,0,-0.1907226,1.1063831,23.716504)" gradientUnits="userSpaceOnUse" xlink:href="#XMLID_8_"/><linearGradient id="linearGradient3211"><stop id="stop3213" offset="0" stop-color="#fff" stop-opacity="1"/><stop id="stop3215" offset="1" stop-color="#fff" stop-opacity="0"/></linearGradient><linearGradient id="linearGradient2429" x1="24" x2="24" y1="2" y2="46.017" gradientTransform="matrix(0.4545444,0,0,0.4651153,1.0909345,0.3372293)" gradientUnits="userSpaceOnUse" xlink:href="#linearGradient3211"/><linearGradient id="linearGradient8589"><stop id="stop8591" offset="0" stop-color="#fefefe" stop-opacity="1"/><stop id="stop8593" offset="1" stop-color="#cbcbcb" stop-opacity="1"/></linearGradient><linearGradient id="linearGradient2425" x1="32.892" x2="36.358" y1="8.059" y2="5.457" gradientTransform="matrix(0.4778466,0,0,0.5524833,0.3722548,-7.61283e-2)" gradientUnits="userSpaceOnUse" xlink:href="#linearGradient8589"/></defs><g id="layer1"><rect id="rect2879" width="17" height="2" x="3.5" y="22" fill="url(#linearGradient2447)" fill-opacity="1" fill-rule="nonzero" stroke="none" stroke-width="1" display="inline" opacity=".15" overflow="visible" visibility="visible" style="marker:none"/><path id="path2881" fill="url(#radialGradient2444)" fill-opacity="1" fill-rule="nonzero" stroke="none" stroke-width="1" d="M 3.5,22.000086 C 3.5,22.000086 3.5,23.999975 3.5,23.999975 C 2.8795275,24.00374 2,23.551901 2,22.999901 C 2,22.447902 2.6924,22.000086 3.5,22.000086 z" display="inline" opacity=".15" overflow="visible" visibility="visible" style="marker:none"/><path id="path2883" fill="url(#radialGradient2441)" fill-opacity="1" fill-rule="nonzero" stroke="none" stroke-width="1" d="M 20.5,22.000086 C 20.5,22.000086 20.5,23.999975 20.5,23.999975 C 21.120472,24.003775 22,23.551901 22,22.999901 C 22,22.447902 21.307599,22.000086 20.5,22.000086 L 20.5,22.000086 z" display="inline" opacity=".15" overflow="visible" visibility="visible" style="marker:none"/><path id="path4160" fill="url(#linearGradient2435)" fill-opacity="1" stroke="url(#linearGradient2438)" stroke-dasharray="none" stroke-dashoffset="0" stroke-linecap="butt" stroke-linejoin="round" stroke-miterlimit="4" stroke-opacity="1" stroke-width="1" d="M 3.4999617,0.49996097 C 7.3955416,0.49996097 11.104417,0.49996097 15,0.49996097 C 15.683368,0.73725787 19.541325,3.628131 20.5,5.5 C 20.5,11.229157 20.500039,16.770881 20.500039,22.500039 C 14.833346,22.500039 9.1666545,22.500039 3.4999617,22.500039 C 3.4999617,15.166679 3.4999617,7.8333189 3.4999617,0.49996097 L 3.4999617,0.49996097 z" display="inline"/><path id="path4191" fill="url(#radialGradient2432)" fill-opacity="1" d="M 4.1702128,22 C 4.0764256,22 4,21.914366 4,21.809277 L 4,1.2112452 C 4,1.1059667 4.0764256,1.0205233 4.1702128,1.0205233 C 7.6916683,1.0732401 11.594065,0.94166522 15.11124,1.0336487 L 19.950127,5.3607855 L 20,21.809277 C 20,21.914366 19.923743,22 19.829786,22 L 4.1702128,22 z"/><path id="path2435" fill="none" stroke="url(#linearGradient2429)" stroke-dasharray="none" stroke-dashoffset="0" stroke-linecap="butt" stroke-linejoin="miter" stroke-miterlimit="4" stroke-opacity="1" stroke-width="1" d="M 19.500001,5.6770357 C 19.500001,10.885341 19.500001,16.291693 19.500001,21.5 C 14.500001,21.5 9.5000012,21.5 4.5,21.5 C 4.5,14.83333 4.5,8.1666657 4.5,1.4999999 C 7.9372614,1.4999999 11.456499,1.4999999 14.893761,1.4999999" display="inline" opacity=".6"/><path font-family="URW Palladio L" style="text-align:start;line-height:100%;-inkscape-font-specification:URW Palladio L Bold" id="text3482" fill="#000" fill-opacity="1" stroke="none" stroke-linecap="butt" stroke-linejoin="miter" stroke-opacity="1" stroke-width="1" d="M 8.5,12.340691 C 8.6665464,12.730565 8.8540062,13.046587 9.2533157,12.61447 C 9.7483707,12.36083 11.407116,11.24905 11.241138,12.338063 C 10.710009,14.35322 10.063506,16.347184 9.5691825,18.368548 C 9.0522968,19.475335 10.226044,20.476472 11.451521,19.756722 C 12.754124,19.294311 13.875012,18.541121 15.020123,17.850184 C 14.863881,17.520222 14.759742,17.046233 14.328028,17.477748 C 13.761163,17.699309 12.52307,18.743885 12.293055,17.882344 C 12.769216,15.700294 13.651434,13.59902 14.215362,11.434367 C 14.734323,10.439065 13.886758,9.1814656 12.61805,10.004792 C 11.098105,10.574844 9.8270327,11.506046 8.5,12.340691 z M 14.141005,5.00171 C 12.590212,4.9308402 11.779404,7.0835833 13.253112,7.6726706 C 14.448721,8.0949061 15.750525,7.0389528 15.458443,5.9838122 C 15.3678,5.4343917 14.794973,4.9832286 14.141005,5.00171 L 14.141005,5.00171 z" font-size="40" font-stretch="normal" font-style="normal" font-variant="normal" font-weight="bold" opacity=".4" text-anchor="start" writing-mode="lr-tb"/><path font-family="URW Palladio L" style="text-align:start;line-height:100%;-inkscape-font-specification:URW Palladio L Bold" id="path3536" fill="#fff" fill-opacity="1" stroke="none" stroke-linecap="butt" stroke-linejoin="miter" stroke-opacity="1" stroke-width="1" d="M 8.5,13.340691 C 8.6665464,13.730564 8.8540062,14.046587 9.2533157,13.614469 C 9.7483707,13.360829 11.407116,12.249049 11.241138,13.338063 C 10.710009,15.35322 10.063506,17.347184 9.5691825,19.368547 C 9.0522968,20.475335 10.226044,21.476472 11.451521,20.756722 C 12.754124,20.294311 13.875012,19.541121 15.020123,18.850184 C 14.863881,18.520221 14.759742,18.046232 14.328028,18.477747 C 13.761163,18.699308 12.52307,19.743885 12.293055,18.882344 C 12.769216,16.700294 13.651434,14.599019 14.215362,12.434367 C 14.734323,11.439065 13.886758,10.181465 12.61805,11.004792 C 11.098105,11.574844 9.8270327,12.506046 8.5,13.340691 z M 14.141005,6.0017096 C 12.590212,5.9308396 11.779404,8.0835829 13.253112,8.6726702 C 14.448721,9.0949057 15.750525,8.0389524 15.458443,6.9838118 C 15.3678,6.4343913 14.794973,5.983228 14.141005,6.0017096 L 14.141005,6.0017096 z" font-size="40" font-stretch="normal" font-style="normal" font-variant="normal" font-weight="bold" opacity=".4" text-anchor="start" writing-mode="lr-tb"/><path id="path3370" fill="#000" fill-opacity="1" fill-rule="evenodd" stroke="none" d="M 14.075474,1 C 15.231777,1.3287671 14.414533,5.6143789 14.414533,5.6143789 C 14.414533,5.6143789 18.929921,5.1866427 20.022243,6.809375 C 21.511396,9.0216317 19.954018,6.1742029 19.848796,5.9876778 C 19.092868,4.6476323 15.982456,1.4405918 14.803387,1.0464703 C 14.715155,1.0169778 14.519511,1 14.075474,1 z" display="inline" opacity=".2"/><path id="path4474" fill="url(#linearGradient2425)" fill-opacity="1" fill-rule="evenodd" stroke="none" d="M 14,1 C 15.526166,1 15,5 15,5 C 15,5 19.992074,4.54674 19.992074,7 C 19.992074,6.4022581 20.047824,5.5215662 19.928004,5.3440674 C 19.088897,4.1010616 16.184239,1.4821803 15.129935,1.0464703 C 15.043957,1.0109384 14.444037,1 14,1 z" display="inline"/></g></svg>