<svg xmlns="http://www.w3.org/2000/svg" xmlns:svg="http://www.w3.org/2000/svg" xmlns:xlink="http://www.w3.org/1999/xlink" id="svg3396" width="24" height="24" version="1.0"><defs id="defs3398"><linearGradient id="linearGradient5048"><stop id="stop5050" offset="0" stop-color="#000" stop-opacity="0"/><stop id="stop5056" offset=".5" stop-color="#000" stop-opacity="1"/><stop id="stop5052" offset="1" stop-color="#000" stop-opacity="0"/></linearGradient><linearGradient id="linearGradient2620" x1="302.857" x2="302.857" y1="366.648" y2="609.505" gradientTransform="matrix(0.0352071,0,0,0.00823529,-0.724852,18.980551)" gradientUnits="userSpaceOnUse" xlink:href="#linearGradient5048"/><radialGradient id="radialGradient2617" cx="605.714" cy="486.648" r="117.143" fx="605.714" fy="486.648" gradientTransform="matrix(-0.01204859,0,0,0.00823529,10.761206,18.980568)" gradientUnits="userSpaceOnUse" xlink:href="#linearGradient5060"/><linearGradient id="linearGradient5060"><stop id="stop5062" offset="0" stop-color="#000" stop-opacity="1"/><stop id="stop5064" offset="1" stop-color="#000" stop-opacity="0"/></linearGradient><radialGradient id="radialGradient2614" cx="605.714" cy="486.648" r="117.143" fx="605.714" fy="486.648" gradientTransform="matrix(0.01204859,0,0,0.00823529,13.238794,18.980568)" gradientUnits="userSpaceOnUse" xlink:href="#linearGradient5060"/><linearGradient id="linearGradient2610" x1="-51.786" x2="-51.786" y1="50.786" y2="2.906" gradientTransform="matrix(0.3922135,0,0,0.4473607,29.199293,-1.2386997)" gradientUnits="userSpaceOnUse" xlink:href="#linearGradient3104"/><linearGradient id="linearGradient3600"><stop id="stop3602" offset="0" stop-color="#f4f4f4" stop-opacity="1"/><stop id="stop3604" offset="1" stop-color="#dbdbdb" stop-opacity="1"/></linearGradient><linearGradient id="linearGradient2608" x1="25.132" x2="25.132" y1=".985" y2="47.013" gradientTransform="matrix(0.4857154,0,0,0.4780255,0.3428305,-0.7059501)" gradientUnits="userSpaceOnUse" xlink:href="#linearGradient3600"/><linearGradient id="linearGradient2577" x1="9.492" x2="9.492" y1="46.314" y2="1.716" gradientTransform="matrix(0.5791452,0,0,0.4883909,-0.2472463,-0.2213815)" gradientUnits="userSpaceOnUse" xlink:href="#linearGradient6691"/><linearGradient id="linearGradient2575" x1="-22.54" x2="-22.54" y1="11.109" y2="46.264" gradientTransform="matrix(0.508146,0,0,0.5017146,25.342473,-0.5277065)" gradientUnits="userSpaceOnUse" xlink:href="#linearGradient3522"/><linearGradient id="linearGradient3211"><stop id="stop3213" offset="0" stop-color="#fff" stop-opacity="1"/><stop id="stop3215" offset="1" stop-color="#fff" stop-opacity="0"/></linearGradient><linearGradient id="linearGradient2604" x1="24" x2="24" y1="1.425" y2="46.017" gradientTransform="matrix(0.4545444,0,0,0.4651153,1.0909345,0.3372293)" gradientUnits="userSpaceOnUse" xlink:href="#linearGradient3211"/><linearGradient id="linearGradient3104"><stop id="stop3106" offset="0" stop-color="#aaa" stop-opacity="1"/><stop id="stop3108" offset="1" stop-color="#c8c8c8" stop-opacity="1"/></linearGradient><linearGradient id="linearGradient8589"><stop id="stop8591" offset="0" stop-color="#fefefe" stop-opacity="1"/><stop id="stop8593" offset="1" stop-color="#cbcbcb" stop-opacity="1"/></linearGradient><linearGradient id="linearGradient2597" x1="32.892" x2="36.358" y1="8.059" y2="5.457" gradientTransform="matrix(0.4778466,0,0,0.5524833,0.3722548,-0.0761283)" gradientUnits="userSpaceOnUse" xlink:href="#linearGradient8589"/><linearGradient id="linearGradient3522"><stop id="stop3524" offset="0" stop-color="#a3c0d0" stop-opacity="1"/><stop id="stop3526" offset="1" stop-color="#5a8caa" stop-opacity="1"/></linearGradient><linearGradient id="linearGradient6691"><stop id="stop6693" offset="0" stop-color="#517492" stop-opacity="1"/><stop id="stop6695" offset="1" stop-color="#85a2bb" stop-opacity="1"/></linearGradient></defs><g id="layer1"><rect id="rect2879" width="17" height="2" x="3.5" y="22" fill="url(#linearGradient2620)" fill-opacity="1" fill-rule="nonzero" stroke="none" stroke-width="1" display="inline" opacity=".15" overflow="visible" visibility="visible" style="marker:none"/><path id="path2881" fill="url(#radialGradient2617)" fill-opacity="1" fill-rule="nonzero" stroke="none" stroke-width="1" d="m 3.5,22.000086 c 0,0 0,1.999889 0,1.999889 C 2.8795275,24.00374 2,23.551901 2,22.999901 2,22.447902 2.6924,22.000086 3.5,22.000086 z" display="inline" opacity=".15" overflow="visible" visibility="visible" style="marker:none"/><path id="path2883" fill="url(#radialGradient2614)" fill-opacity="1" fill-rule="nonzero" stroke="none" stroke-width="1" d="m 20.5,22.000086 c 0,0 0,1.999889 0,1.999889 0.620472,0.0038 1.5,-0.448074 1.5,-1.000074 0,-0.551999 -0.692401,-0.999815 -1.5,-0.999815 z" display="inline" opacity=".15" overflow="visible" visibility="visible" style="marker:none"/><path id="path4160" fill="url(#linearGradient2608)" fill-opacity="1" stroke="url(#linearGradient2610)" stroke-dasharray="none" stroke-dashoffset="0" stroke-linecap="butt" stroke-linejoin="round" stroke-miterlimit="4" stroke-opacity="1" stroke-width="1" d="m 3.4999617,0.49996097 c 3.8955799,0 7.6044553,0 11.5000383,0 C 15.683368,0.73725787 19.541325,3.628131 20.5,5.5 c 0,5.729157 3.9e-5,11.270881 3.9e-5,17.000039 -5.666693,0 -11.3333845,0 -17.0000773,0 0,-7.33336 0,-14.6667201 0,-22.00007803 z" display="inline"/><path id="path4530" fill="url(#linearGradient2575)" fill-opacity="1" fill-rule="nonzero" stroke="url(#linearGradient2577)" stroke-dasharray="none" stroke-dashoffset="0" stroke-linecap="butt" stroke-linejoin="round" stroke-miterlimit="4" stroke-opacity="1" stroke-width="1.01" d="m 6,22.495149 c -1.1152858,0 -1.2354179,0 -2.350709,0 -0.27108,-0.260377 -0.064947,-0.77733 -0.1293549,-1.145943 0,-6.906001 0,-13.8120005 0,-20.71799952 l 0.037805,-0.089429 0.091549,-0.036927 0,0 c 1.160786,0 1.189929,0 2.3507099,0" display="block" overflow="visible" visibility="visible" style="marker:none"/><path id="path2435" fill="none" stroke="url(#linearGradient2604)" stroke-dasharray="none" stroke-dashoffset="0" stroke-linecap="butt" stroke-linejoin="miter" stroke-miterlimit="4" stroke-opacity="1" stroke-width="1" d="m 19.500001,5.6770357 c 0,5.2083053 0,10.6146573 0,15.8229643 -5,0 -9.9999998,0 -15.000001,0 0,-6.66667 0,-13.3333343 0,-20.0000001 3.4372614,0 6.956499,0 10.393761,0" display="inline" opacity=".24"/><path id="path2590" fill="none" stroke="#aaa" stroke-linecap="butt" stroke-linejoin="miter" stroke-opacity="1" stroke-width="1" d="m 8,4.5050062 2.34375,0 -2.34375,0 z m 2.6875,0 2.1875,0 -2.1875,0 z m 2.53125,0 1.9375,0 -1.9375,0 z m 2.25,0 0.84375,0 -0.84375,0 z m 1.1875,0 0,0 z m -8.65625,2 3.65625,0 -3.65625,0 z m 4.0625,0 1.75,0 -1.75,0 z m 2.0625,0 0.875,0 -0.875,0 z m 1.21875,0 1.59375,0 -1.59375,0 z m 1.9375,0 0.339794,0 -0.339794,0 z M 8,8.5350541 l 1.59375,0 -1.59375,0 z m 2.09375,0 5.90625,0 -5.90625,0 z M 8,11.5 11.09375,11.5 8,11.5 z m 3.40625,0 5.0625,0 -5.0625,0 z m 5.375,0 1.183544,0 -1.183544,0 z M 8,13.5 10.34375,13.5 8,13.5 z m 2.6875,0 2.15625,0 -2.15625,0 z m 2.53125,0 1.9375,0 -1.9375,0 z m 2.25,0 0.84375,0 -0.84375,0 z m 1.1875,0 0.589794,0 -0.589794,0 z M 8,16.5 11.09375,16.5 8,16.5 z m 3.40625,0 5.0625,0 -5.0625,0 z m 5.375,0 1.183544,0 -1.183544,0 z M 8,18.5 l 3.875,0 -3.875,0 z m 4.21875,0 1.75,0 -1.75,0 z m 2.0625,0 2.75,0 -2.75,0 z"/><path id="path3370" fill="#000" fill-opacity="1" fill-rule="evenodd" stroke="none" d="m 14.075474,1 c 1.156303,0.3287671 0.339059,4.6143789 0.339059,4.6143789 0,0 4.515388,-0.4277362 5.60771,1.1949961 C 21.511396,9.0216317 19.954018,6.1742029 19.848796,5.9876778 19.092868,4.6476323 15.982456,1.4405918 14.803387,1.0464703 14.715155,1.0169778 14.519511,1 14.075474,1 z" display="inline" opacity=".2"/><path id="path4474" fill="url(#linearGradient2597)" fill-opacity="1" fill-rule="evenodd" stroke="none" d="m 14,1 c 1.526166,0 1,4 1,4 0,0 4.992074,-0.45326 4.992074,2 0,-0.5977419 0.05575,-1.4784338 -0.06407,-1.6559326 C 19.088897,4.1010616 16.184239,1.4821803 15.129935,1.0464703 15.043957,1.0109384 14.444037,1 14,1 z" display="inline"/></g></svg>