<svg xmlns="http://www.w3.org/2000/svg" xmlns:svg="http://www.w3.org/2000/svg" xmlns:xlink="http://www.w3.org/1999/xlink" id="svg4615" width="32" height="32"><defs id="defs4617"><linearGradient id="linearGradient3967"><stop id="stop3969" offset="0" stop-color="#fff" stop-opacity="1"/><stop id="stop3971" offset="1" stop-color="#fff" stop-opacity="0"/></linearGradient><linearGradient id="linearGradient2774" x1="-282.75" x2="-362.781" y1="4.703" y2="11.719" gradientTransform="matrix(7.6384608e-2,0,0,8.2816226e-2,173.59003,64.405346)" gradientUnits="userSpaceOnUse" xlink:href="#linearGradient3967"/><linearGradient id="linearGradient3910"><stop id="stop3912" offset="0" stop-color="#2f2f2f" stop-opacity="1"/><stop id="stop3914" offset="1" stop-color="#000" stop-opacity="1"/></linearGradient><linearGradient id="linearGradient2772" x1="-305.529" x2="-305.529" y1="-78.314" y2="-85.986" gradientTransform="matrix(7.6272759e-2,0,0,7.8750824e-2,173.23202,63.917056)" gradientUnits="userSpaceOnUse" xlink:href="#linearGradient3910"/><linearGradient id="linearGradient3918"><stop id="stop3920" offset="0" stop-color="#000" stop-opacity="1"/><stop id="stop3922" offset="1" stop-color="#1e1e1e" stop-opacity="1"/></linearGradient><linearGradient id="linearGradient2770" x1="-314.029" x2="-314.029" y1="-83.614" y2="-75.274" gradientTransform="matrix(7.6272759e-2,0,0,7.8750824e-2,173.23202,63.917056)" gradientUnits="userSpaceOnUse" xlink:href="#linearGradient3918"/><linearGradient id="linearGradient3847"><stop id="stop3849" offset="0" stop-color="#ababab" stop-opacity="1"/><stop id="stop3851" offset="1" stop-color="#dcdcdc" stop-opacity="0"/></linearGradient><linearGradient id="linearGradient2768" x1="-400.995" x2="-222.534" y1="189.646" y2="218.646" gradientTransform="matrix(7.9778183e-2,0,0,0.109276,173.35339,58.09202)" gradientUnits="userSpaceOnUse" xlink:href="#linearGradient3847"/><linearGradient id="linearGradient3731-3"><stop id="stop3733-3" offset="0" stop-color="#cdcdcd" stop-opacity="1"/><stop id="stop3735-2" offset="1" stop-color="#303030" stop-opacity="1"/></linearGradient><linearGradient id="linearGradient2766" x1="-389.487" x2="-134.4" y1="65.211" y2="65.211" gradientTransform="matrix(8.9118408e-2,0,0,8.0276823e-2,177.14465,64.265034)" gradientUnits="userSpaceOnUse" xlink:href="#linearGradient3731-3"/><linearGradient id="linearGradient3898"><stop id="stop3900" offset="0" stop-color="#030303" stop-opacity="1"/><stop id="stop3902" offset="1" stop-color="#383838" stop-opacity="0"/></linearGradient><linearGradient id="linearGradient2764" x1="-307.512" x2="-307.326" y1="224.5" y2="-102.184" gradientTransform="matrix(8.595406e-2,0,0,8.1543357e-2,176.18085,64.275959)" gradientUnits="userSpaceOnUse" xlink:href="#linearGradient3898"/><linearGradient id="linearGradient3771"><stop id="stop3773" offset="0" stop-color="#fff" stop-opacity="1"/><stop id="stop3775" offset="1" stop-color="#0d0d0d" stop-opacity="1"/></linearGradient><linearGradient id="linearGradient2762" x1="-396.625" x2="-399.563" y1="260.446" y2="258.258" gradientTransform="matrix(0.2757518,0,0,7.0315485e-2,260.21854,65.18416)" gradientUnits="userSpaceOnUse" xlink:href="#linearGradient3771"/><linearGradient id="linearGradient3779"><stop id="stop3781" offset="0" stop-color="#5b5b5b" stop-opacity="1"/><stop id="stop3783" offset="1" stop-color="#000" stop-opacity="1"/></linearGradient><radialGradient id="radialGradient2760" cx="-398" cy="257.924" r="2.313" fx="-398" fy="257.924" gradientTransform="matrix(0.1937715,0,0,9.9423586e-2,227.59039,57.686766)" gradientUnits="userSpaceOnUse" xlink:href="#linearGradient3779"/><linearGradient id="linearGradient3977"><stop id="stop3979" offset="0" stop-color="#000" stop-opacity="1"/><stop id="stop3981" offset="1" stop-color="#000" stop-opacity="0"/></linearGradient><linearGradient id="linearGradient2758" x1="-388.429" x2="-391.541" y1="-101.914" y2="-95.197" gradientTransform="matrix(7.9778183e-2,0,0,8.2816226e-2,174.63264,64.405346)" gradientUnits="userSpaceOnUse" xlink:href="#linearGradient3977"/><linearGradient id="linearGradient3987"><stop id="stop3989" offset="0" stop-color="#131313" stop-opacity="1"/><stop id="stop3991" offset="1" stop-color="#131313" stop-opacity="0"/></linearGradient><linearGradient id="linearGradient2756" x1="-221.718" x2="-316.993" y1="-101.354" y2="-101.854" gradientTransform="matrix(7.9778183e-2,0,0,8.2816226e-2,174.63264,64.405346)" gradientUnits="userSpaceOnUse" xlink:href="#linearGradient3987"/><linearGradient id="linearGradient3709"><stop id="stop3711" offset="0" stop-color="#adadad" stop-opacity="1"/><stop id="stop3713" offset="1" stop-color="#434343" stop-opacity="1"/></linearGradient><linearGradient id="linearGradient2754" x1="-397.063" x2="-212.125" y1="72.438" y2="72.438" gradientUnits="userSpaceOnUse" xlink:href="#linearGradient3709"/><linearGradient id="linearGradient3793"><stop id="stop3795" offset="0" stop-color="#3f3f3f" stop-opacity="1"/><stop id="stop5268" offset=".361" stop-color="#3c3c3c" stop-opacity="1"/><stop id="stop5266" offset=".66" stop-color="#2e2e2e" stop-opacity="1"/><stop id="stop3797" offset="1" stop-color="#202020" stop-opacity="1"/></linearGradient><linearGradient id="linearGradient2752" x1="-393.433" x2="-221.406" y1="67.439" y2="68.025" gradientUnits="userSpaceOnUse" xlink:href="#linearGradient3793"/><linearGradient id="linearGradient5258"><stop id="stop5260" offset="0" stop-color="#5f5f5f" stop-opacity="1"/><stop id="stop5262" offset="1" stop-color="#252525" stop-opacity="1"/></linearGradient><linearGradient id="linearGradient2750" x1="-301.943" x2="-245.239" y1="152.961" y2="134.961" gradientTransform="matrix(7.9778183e-2,0,0,8.2016029e-2,174.63264,64.32112)" gradientUnits="userSpaceOnUse" xlink:href="#linearGradient5258"/><radialGradient id="radialGradient2748" cx="605.714" cy="486.648" r="117.143" fx="605.714" fy="486.648" gradientTransform="matrix(-3.2949134,0,0,2.5953268,259.21603,-1254.2044)" gradientUnits="userSpaceOnUse" xlink:href="#linearGradient5060"/><linearGradient id="linearGradient5060"><stop id="stop5062" offset="0" stop-color="#000" stop-opacity="1"/><stop id="stop5064" offset="1" stop-color="#000" stop-opacity="0"/></linearGradient><radialGradient id="radialGradient2746" cx="605.714" cy="486.648" r="117.143" fx="605.714" fy="486.648" gradientTransform="matrix(3.2949134,0,0,2.5953268,-2121.2392,-1254.2044)" gradientUnits="userSpaceOnUse" xlink:href="#linearGradient5060"/><linearGradient id="linearGradient5048"><stop id="stop5050" offset="0" stop-color="#000" stop-opacity="0"/><stop id="stop5056" offset=".5" stop-color="#000" stop-opacity="1"/><stop id="stop5052" offset="1" stop-color="#000" stop-opacity="0"/></linearGradient><linearGradient id="linearGradient2744" x1="302.857" x2="302.857" y1="366.648" y2="609.505" gradientTransform="matrix(3.2949134,0,0,2.5953268,-2121.8877,-1254.2044)" gradientUnits="userSpaceOnUse" xlink:href="#linearGradient5048"/><linearGradient id="linearGradient4847" x1="302.857" x2="302.857" y1="366.648" y2="609.505" gradientTransform="matrix(3.2949134,0,0,2.5953268,-2121.8877,-1254.2044)" gradientUnits="userSpaceOnUse" xlink:href="#linearGradient5048"/><radialGradient id="radialGradient4849" cx="605.714" cy="486.648" r="117.143" fx="605.714" fy="486.648" gradientTransform="matrix(3.2949134,0,0,2.5953268,-2121.2392,-1254.2044)" gradientUnits="userSpaceOnUse" xlink:href="#linearGradient5060"/><radialGradient id="radialGradient4851" cx="605.714" cy="486.648" r="117.143" fx="605.714" fy="486.648" gradientTransform="matrix(-3.2949134,0,0,2.5953268,259.21603,-1254.2044)" gradientUnits="userSpaceOnUse" xlink:href="#linearGradient5060"/><linearGradient id="linearGradient4853" x1="-301.943" x2="-245.239" y1="152.961" y2="134.961" gradientTransform="matrix(7.9778183e-2,0,0,8.2016029e-2,174.63264,64.32112)" gradientUnits="userSpaceOnUse" xlink:href="#linearGradient5258"/><linearGradient id="linearGradient4855" x1="-393.433" x2="-221.406" y1="67.439" y2="68.025" gradientUnits="userSpaceOnUse" xlink:href="#linearGradient3793"/><linearGradient id="linearGradient4857" x1="-397.063" x2="-212.125" y1="72.438" y2="72.438" gradientUnits="userSpaceOnUse" xlink:href="#linearGradient3709"/><linearGradient id="linearGradient4859" x1="-221.718" x2="-316.993" y1="-101.354" y2="-101.854" gradientTransform="matrix(7.9778183e-2,0,0,8.2816226e-2,174.63264,64.405346)" gradientUnits="userSpaceOnUse" xlink:href="#linearGradient3987"/><linearGradient id="linearGradient4861" x1="-388.429" x2="-391.541" y1="-101.914" y2="-95.197" gradientTransform="matrix(7.9778183e-2,0,0,8.2816226e-2,174.63264,64.405346)" gradientUnits="userSpaceOnUse" xlink:href="#linearGradient3977"/><radialGradient id="radialGradient4863" cx="-398" cy="257.924" r="2.313" fx="-398" fy="257.924" gradientTransform="matrix(0.1937715,0,0,9.9423586e-2,227.59039,57.686766)" gradientUnits="userSpaceOnUse" xlink:href="#linearGradient3779"/><linearGradient id="linearGradient4865" x1="-396.625" x2="-399.563" y1="260.446" y2="258.258" gradientTransform="matrix(0.2757518,0,0,7.0315485e-2,260.21854,65.18416)" gradientUnits="userSpaceOnUse" xlink:href="#linearGradient3771"/><linearGradient id="linearGradient4867" x1="-307.512" x2="-307.326" y1="224.5" y2="-102.184" gradientTransform="matrix(8.595406e-2,0,0,8.1543357e-2,176.18085,64.275959)" gradientUnits="userSpaceOnUse" xlink:href="#linearGradient3898"/><linearGradient id="linearGradient4869" x1="-389.487" x2="-134.4" y1="65.211" y2="65.211" gradientTransform="matrix(8.9118408e-2,0,0,8.0276823e-2,177.14465,64.265034)" gradientUnits="userSpaceOnUse" xlink:href="#linearGradient3731-3"/><linearGradient id="linearGradient4871" x1="-400.995" x2="-222.534" y1="189.646" y2="218.646" gradientTransform="matrix(7.9778183e-2,0,0,0.109276,173.35339,58.09202)" gradientUnits="userSpaceOnUse" xlink:href="#linearGradient3847"/><linearGradient id="linearGradient4873" x1="-314.029" x2="-314.029" y1="-83.614" y2="-75.274" gradientTransform="matrix(7.6272759e-2,0,0,7.8750824e-2,173.23202,63.917056)" gradientUnits="userSpaceOnUse" xlink:href="#linearGradient3918"/><linearGradient id="linearGradient4875" x1="-305.529" x2="-305.529" y1="-78.314" y2="-85.986" gradientTransform="matrix(7.6272759e-2,0,0,7.8750824e-2,173.23202,63.917056)" gradientUnits="userSpaceOnUse" xlink:href="#linearGradient3910"/><linearGradient id="linearGradient4877" x1="-282.75" x2="-362.781" y1="4.703" y2="11.719" gradientTransform="matrix(7.6384608e-2,0,0,8.2816226e-2,173.59003,64.405346)" gradientUnits="userSpaceOnUse" xlink:href="#linearGradient3967"/><linearGradient id="linearGradient4897" x1="-282.75" x2="-362.781" y1="4.703" y2="11.719" gradientTransform="matrix(7.6384608e-2,0,0,8.2816226e-2,39.59003,9.406475)" gradientUnits="userSpaceOnUse" xlink:href="#linearGradient3967"/><linearGradient id="linearGradient4900" x1="-314.029" x2="-314.029" y1="-83.614" y2="-75.274" gradientTransform="matrix(7.6272759e-2,0,0,7.8750824e-2,39.23202,8.918185)" gradientUnits="userSpaceOnUse" xlink:href="#linearGradient3918"/><linearGradient id="linearGradient4902" x1="-305.529" x2="-305.529" y1="-78.314" y2="-85.986" gradientTransform="matrix(7.6272759e-2,0,0,7.8750824e-2,39.23202,8.918185)" gradientUnits="userSpaceOnUse" xlink:href="#linearGradient3910"/><linearGradient id="linearGradient4906" x1="-400.995" x2="-222.534" y1="189.646" y2="218.646" gradientTransform="matrix(7.9778183e-2,0,0,0.109276,39.35339,3.093149)" gradientUnits="userSpaceOnUse" xlink:href="#linearGradient3847"/><linearGradient id="linearGradient4911" x1="-389.487" x2="-134.4" y1="65.211" y2="65.211" gradientTransform="matrix(8.9118408e-2,0,0,8.0276823e-2,43.14465,9.266163)" gradientUnits="userSpaceOnUse" xlink:href="#linearGradient3731-3"/><linearGradient id="linearGradient4914" x1="-307.512" x2="-307.326" y1="224.5" y2="-102.184" gradientTransform="matrix(8.595406e-2,0,0,8.1543357e-2,42.18085,9.277088)" gradientUnits="userSpaceOnUse" xlink:href="#linearGradient3898"/><radialGradient id="radialGradient4917" cx="-398" cy="257.924" r="2.313" fx="-398" fy="257.924" gradientTransform="matrix(9.1509114e-2,0,0,9.9423586e-2,52.662566,2.687895)" gradientUnits="userSpaceOnUse" xlink:href="#linearGradient3779"/><linearGradient id="linearGradient4919" x1="-391.533" x2="-399.563" y1="267.592" y2="258.258" gradientTransform="matrix(0.1302245,0,0,7.0315485e-2,68.071298,10.185289)" gradientUnits="userSpaceOnUse" xlink:href="#linearGradient3771"/><linearGradient id="linearGradient4922" x1="-388.429" x2="-391.541" y1="-101.914" y2="-95.197" gradientTransform="matrix(7.9778183e-2,0,0,8.2816226e-2,40.63264,9.406475)" gradientUnits="userSpaceOnUse" xlink:href="#linearGradient3977"/><linearGradient id="linearGradient4925" x1="-221.718" x2="-316.993" y1="-101.354" y2="-101.854" gradientTransform="matrix(7.9778183e-2,0,0,8.2816226e-2,40.63264,9.406475)" gradientUnits="userSpaceOnUse" xlink:href="#linearGradient3987"/><linearGradient id="linearGradient4931" x1="-301.943" x2="-245.239" y1="152.961" y2="134.961" gradientTransform="matrix(7.9778183e-2,0,0,8.2016029e-2,40.63264,9.322249)" gradientUnits="userSpaceOnUse" xlink:href="#linearGradient5258"/></defs><metadata id="metadata4620"/><g id="layer1"><g id="g2672" opacity="1" transform="matrix(8.0115016e-3,0,0,4.7596861e-3,23.4588,30.441569)"><rect id="rect2674" width="1590.973" height="630.294" x="-1726.498" y="-302.633" fill="url(#linearGradient4847)" fill-opacity="1" fill-rule="nonzero" stroke="none" stroke-width="1" display="inline" opacity=".402" overflow="visible" visibility="visible" style="marker:none"/><path id="path2676" fill="url(#radialGradient4849)" fill-opacity="1" fill-rule="nonzero" stroke="none" stroke-width="1" d="M -135.52559,-302.61162 C -135.52559,-302.61162 -135.52559,327.64726 -135.52559,327.64726 C 34.154293,328.83371 274.67781,186.43822 274.67771,12.477262 C 274.67771,-161.48373 85.327731,-302.6116 -135.52559,-302.61162 L -135.52559,-302.61162 z" display="inline" opacity=".402" overflow="visible" visibility="visible" style="marker:none"/><path id="path2678" fill="url(#radialGradient4851)" fill-opacity="1" fill-rule="nonzero" stroke="none" stroke-width="1" d="M -1726.4981,-302.61162 C -1726.4981,-302.61162 -1726.4981,327.64726 -1726.4981,327.64726 C -1896.1779,328.83371 -2136.7014,186.43822 -2136.7014,12.477262 C -2136.7014,-161.48373 -1947.3515,-302.6116 -1726.4981,-302.61162 L -1726.4981,-302.61162 z" display="inline" opacity=".402" overflow="visible" visibility="visible" style="marker:none"/></g><g id="g2682" stroke-dasharray="none" stroke-miterlimit="4" stroke-width=".101" opacity="1" transform="matrix(9.0827436e-2,0,0,8.0826145e-2,43.4595,9.146581)"><rect id="rect2684" width="187.693" height="364.926" x="-398.438" y="-110.023" fill="url(#linearGradient4855)" fill-opacity="1" stroke="#000" stroke-dasharray="none" stroke-miterlimit="4" stroke-opacity="1" stroke-width="5.951" display="inline" enable-background="accumulate" overflow="visible" ry="12.769" visibility="visible" style="marker:none"/><path id="path2686" fill="none" stroke="url(#linearGradient4857)" stroke-dasharray="none" stroke-miterlimit="4" stroke-opacity="1" stroke-width=".146" d="M -385.65625,-108.3125 C -391.81011,-108.3125 -396.71875,-103.40386 -396.71875,-97.25 L -396.71875,242.125 C -396.71875,248.27886 -391.81011,253.1875 -385.65625,253.1875 L -223.5,253.1875 C -217.34614,253.1875 -212.46875,248.2839 -212.46875,242.125 L -212.46875,-97.25 C -212.46875,-103.4089 -217.34614,-108.3125 -223.5,-108.3125 L -385.65625,-108.3125 z" display="inline" enable-background="accumulate" overflow="visible" visibility="visible" style="marker:none"/></g><rect stroke-miterlimit="4" style="marker:none" id="rect2692" width=".509" height=".409" x="15.784" y="28.092" fill="url(#radialGradient4917)" fill-opacity="1" fill-rule="nonzero" stroke="url(#linearGradient4919)" stroke-dasharray="none" stroke-dashoffset=".06" stroke-linecap="round" stroke-linejoin="round" stroke-opacity="1" stroke-width="1" marker-end="none" marker-mid="none" marker-start="none" display="inline" enable-background="accumulate" opacity="1" overflow="visible" ry=".143" visibility="visible"/><path id="path2696" fill="#030303" fill-opacity="1" stroke="url(#linearGradient4911)" stroke-dasharray="none" stroke-dashoffset="0" stroke-linecap="square" stroke-linejoin="miter" stroke-miterlimit="4" stroke-opacity="1" stroke-width="1" d="M 8.92683,1.501121 L 23.07317,1.501121 C 23.30962,1.501121 23.49999,1.73046 23.49999,2.015335 L 23.49999,26.986908 C 23.49999,27.271782 23.30962,27.50112 23.07317,27.50112 L 8.92683,27.50112 C 8.69035,27.50112 8.49999,27.271782 8.49999,26.986908 L 8.49999,26.806647 L 8.49999,2.015335 C 8.49999,1.73046 8.69035,1.501121 8.92683,1.501121 L 8.92683,1.501121 z" display="inline" enable-background="accumulate" opacity="1" overflow="visible" visibility="visible" style="marker:none"/><path id="path2698" fill="#fff" fill-opacity="1" d="M 17.59165,3.362588 C 17.34086,3.360682 17.08861,3.478142 17.03198,3.653969 C 16.97802,3.821579 17.09667,3.95522 17.33207,3.992361 C 17.49595,4.018215 17.70873,3.979717 17.83304,3.901327 C 18.0741,3.749319 18.0749,3.499607 17.8347,3.406612 C 17.75877,3.377217 17.67524,3.363223 17.59165,3.362588 z M 13.70791,3.363707 C 13.54522,3.363977 13.37793,3.411503 13.27185,3.498019 C 13.04056,3.686621 13.1354,3.94268 13.45495,3.992361 C 13.54979,4.007106 13.70542,3.996493 13.80588,3.968483 C 14.15247,3.871855 14.25864,3.537932 13.98156,3.415566 C 13.90163,3.380273 13.80554,3.363545 13.70791,3.363707 z M 15.5605,3.363707 C 15.52712,3.36388 15.49274,3.365804 15.45759,3.370049 C 15.19633,3.4016 15.00249,3.552034 15.00249,3.723364 C 15.00249,3.86481 15.12224,3.965958 15.32283,3.993853 C 15.53976,4.024021 15.77171,3.958559 15.90068,3.831187 C 15.97389,3.758881 16.00122,3.689328 15.99162,3.599126 C 15.97652,3.457412 15.79424,3.362499 15.5605,3.363707 z M 19.50831,3.383854 L 19.34999,3.387212 L 19.19168,3.390569 L 18.97592,3.677101 C 18.85719,3.834693 18.75964,3.967662 18.75933,3.972587 C 18.75902,3.977512 18.80904,3.981541 18.87052,3.981541 L 18.98254,3.981541 L 19.02345,3.927816 L 19.06438,3.874092 L 19.214,3.874092 L 19.36364,3.874092 L 19.37562,3.924832 L 19.3872,3.975572 L 19.52442,3.97893 L 19.66165,3.982287 L 19.65379,3.955052 C 19.64943,3.940039 19.61471,3.805413 19.57692,3.655835 L 19.50831,3.383854 z M 12.30298,3.3846 C 12.15349,3.3846 12.13328,3.387004 12.12731,3.405493 C 12.1236,3.416984 12.09349,3.510104 12.06035,3.612557 C 12.01205,3.761835 12,3.81697 12,3.890134 L 12,3.981541 L 12.07894,3.981541 L 12.15749,3.981541 L 12.19882,3.859168 C 12.22139,3.791863 12.24426,3.723866 12.24966,3.708067 C 12.25735,3.685547 12.2686,3.711982 12.30298,3.830441 L 12.3472,3.981541 L 12.415,3.981541 L 12.48278,3.981541 L 12.61381,3.850214 C 12.68597,3.778011 12.74743,3.720846 12.75021,3.723364 C 12.75452,3.727247 12.69676,3.921427 12.67788,3.966617 C 12.67088,3.983382 12.81289,3.986641 12.90521,3.971841 L 12.95689,3.963633 L 13.01433,3.778581 C 13.04588,3.676833 13.08602,3.54652 13.10362,3.489065 L 13.13586,3.3846 L 12.9544,3.3846 L 12.77336,3.3846 L 12.66175,3.505107 L 12.55016,3.625242 L 12.51088,3.505107 L 12.47204,3.3846 L 12.30298,3.3846 z M 14.23616,3.3846 L 14.22211,3.43534 C 14.2142,3.463247 14.20175,3.50174 14.19483,3.520777 C 14.17068,3.587228 14.17155,3.58756 14.31552,3.58756 C 14.43625,3.58756 14.44806,3.589512 14.44159,3.608453 C 14.43768,3.619944 14.41631,3.699188 14.39406,3.78455 C 14.37181,3.869913 14.35053,3.949295 14.34653,3.961021 C 14.33981,3.980681 14.34954,3.982077 14.47508,3.97893 L 14.61147,3.975572 L 14.65405,3.826336 C 14.6776,3.744257 14.7036,3.656954 14.7115,3.63233 L 14.72597,3.58756 L 14.86155,3.58756 L 14.99754,3.58756 L 15.02027,3.501003 C 15.03261,3.453397 15.04227,3.407731 15.04218,3.399523 C 15.04204,3.387915 14.95258,3.3846 14.63917,3.3846 L 14.23616,3.3846 z M 16.17141,3.3846 L 16.08296,3.669639 C 16.03435,3.826362 15.99451,3.960674 15.99451,3.96811 C 15.99451,3.977213 16.03482,3.981541 16.1181,3.981541 L 16.24168,3.981541 L 16.26772,3.894985 L 16.29377,3.808428 L 16.40082,3.80507 C 16.53222,3.800831 16.55731,3.815637 16.54424,3.889388 C 16.53125,3.96278 16.54524,3.969731 16.7071,3.969602 L 16.84763,3.969229 L 16.85095,3.889015 C 16.85507,3.787056 16.84757,3.758189 16.81457,3.748734 C 16.78536,3.740365 16.77855,3.718887 16.80507,3.718887 C 16.83463,3.718887 16.92304,3.644295 16.94188,3.603603 C 16.96599,3.551529 16.96489,3.486125 16.93939,3.45101 C 16.89729,3.392999 16.84167,3.3846 16.49258,3.3846 L 16.17141,3.3846 z M 18.36253,3.386465 C 18.34712,3.386521 18.33024,3.386742 18.31252,3.387212 L 18.18355,3.390569 L 18.1017,3.671132 C 18.05678,3.825441 18.01958,3.95841 18.01904,3.966617 C 18.01828,3.978182 18.09264,3.981541 18.34847,3.981541 L 18.67873,3.981541 L 18.69319,3.930801 C 18.70121,3.902894 18.71261,3.8626 18.71882,3.84126 L 18.73039,3.802459 L 18.53282,3.802459 C 18.40442,3.802459 18.33566,3.798265 18.33566,3.790147 C 18.33566,3.783285 18.35947,3.692031 18.38857,3.58756 C 18.41767,3.483089 18.44147,3.394386 18.44147,3.390569 C 18.44147,3.387707 18.40877,3.386297 18.36253,3.386465 z M 16.39255,3.527866 L 16.50788,3.527866 C 16.57119,3.527955 16.63617,3.531368 16.65255,3.535327 C 16.69185,3.544835 16.6921,3.59191 16.65295,3.616661 C 16.63123,3.630405 16.58988,3.635315 16.49423,3.635315 C 16.42311,3.635315 16.36482,3.631286 16.36486,3.626361 C 16.3649,3.621436 16.37134,3.59726 16.37891,3.572636 L 16.39255,3.527866 z M 13.69552,3.528612 C 13.7431,3.530056 13.78837,3.543334 13.82034,3.568159 C 13.89614,3.627008 13.84599,3.762553 13.73024,3.811786 C 13.65701,3.842932 13.60555,3.850645 13.54796,3.838275 C 13.41923,3.810629 13.40707,3.672987 13.52523,3.579352 C 13.56961,3.544178 13.63434,3.526756 13.69552,3.528612 z M 17.5404,3.528985 C 17.5585,3.528299 17.57752,3.529136 17.59786,3.531597 C 17.6832,3.541929 17.71988,3.57343 17.72475,3.640912 C 17.73006,3.714737 17.68602,3.777848 17.6057,3.811786 C 17.49744,3.857534 17.41097,3.853851 17.34861,3.800966 C 17.29027,3.751508 17.31501,3.647213 17.4011,3.578979 C 17.44117,3.547227 17.48607,3.531043 17.5404,3.528985 z M 15.55182,3.529731 C 15.58533,3.529993 15.61752,3.535176 15.644,3.54652 C 15.75903,3.595789 15.72562,3.750019 15.58613,3.813279 C 15.4566,3.872023 15.31841,3.84117 15.29927,3.749107 C 15.29071,3.707909 15.31803,3.634726 15.35674,3.595395 C 15.39783,3.553606 15.47811,3.529156 15.55182,3.529731 z M 19.28139,3.583829 L 19.29667,3.630465 C 19.30524,3.656107 19.31306,3.689189 19.31361,3.703964 C 19.31454,3.728361 19.30837,3.730826 19.24831,3.730826 C 19.21194,3.730826 19.18218,3.728241 19.18218,3.724857 C 19.18218,3.721472 19.20454,3.688391 19.23178,3.651358 L 19.28139,3.583829 z" display="inline" enable-background="new" opacity="1"/><path id="path2700" fill="none" stroke="#000" stroke-dasharray="none" stroke-miterlimit="4" stroke-opacity="1" stroke-width="11.528" d="M -385.65625,-108.3125 C -391.81011,-108.3125 -396.71875,-103.40386 -396.71875,-97.25 L -396.71875,242.125 C -396.71875,248.27886 -391.81011,253.1875 -385.65625,253.1875 L -223.5,253.1875 C -217.34614,253.1875 -212.46875,248.2839 -212.46875,242.125 L -212.46875,-97.25 C -212.46875,-103.4089 -217.34614,-108.3125 -223.5,-108.3125 L -385.65625,-108.3125 z" display="inline" enable-background="accumulate" opacity="1" overflow="visible" transform="matrix(9.2265901e-2,0,0,8.1552046e-2,44.10362,9.334235)" visibility="visible" style="marker:none"/><rect id="rect2704" width="12" height="19" x="10" y="5.001" fill="#2d2d2d" fill-opacity="1" stroke="none" stroke-width="2.011" display="inline" enable-background="accumulate" opacity="1" overflow="visible" ry="0" visibility="visible" style="marker:none"/><rect id="rect2706" width="5.501" height=".501" x="13.249" y="2.251" fill="url(#linearGradient4900)" fill-opacity="1" fill-rule="nonzero" stroke="url(#linearGradient4902)" stroke-dasharray="none" stroke-miterlimit="4" stroke-opacity="1" stroke-width=".499" display="inline" enable-background="accumulate" opacity="1" overflow="visible" ry=".251" visibility="visible" style="marker:none"/><path id="path2708" fill="url(#linearGradient4897)" fill-opacity="1" stroke="none" stroke-dashoffset="0" stroke-linecap="square" stroke-linejoin="miter" stroke-miterlimit="4" stroke-opacity="1" stroke-width="1.464" d="M 10.26073,1.396599 C 10.05804,1.396599 9.89552,1.627429 9.89552,1.916788 L 9.89552,27.098079 L 9.89552,27.281826 C 9.89552,27.571186 10.05804,27.804603 10.26073,27.804603 L 13.48083,27.804603 C 14.69855,19.001986 15.55601,10.199217 16.08029,1.396599 L 10.26073,1.396599 z" display="inline" enable-background="accumulate" opacity=".1" overflow="visible" visibility="visible" style="marker:none"/><g id="g2710" stroke="#b2b2b6" stroke-dasharray="none" stroke-miterlimit="4" stroke-opacity="1" stroke-width="5.273" opacity="1" transform="matrix(9.5636293e-2,0,0,9.4019113e-2,63.96568,5.359063)"><path id="path2712" fill="none" stroke="#b2b2b6" stroke-dasharray="none" stroke-miterlimit="4" stroke-opacity="1" stroke-width="6.756" d="M -451.84124,213.40047 A 4.3310289,4.3310289 0 1 1 -460.5033,213.40047 A 4.3310289,4.3310289 0 1 1 -451.84124,213.40047 z" display="inline" enable-background="accumulate" overflow="visible" transform="matrix(0.7804484,0,0,0.7804484,-97.704371,48.406795)" visibility="visible" style="marker:none"/><path id="path2714" fill="none" stroke="#b2b2b6" stroke-dasharray="none" stroke-linecap="square" stroke-linejoin="miter" stroke-miterlimit="4" stroke-opacity="1" stroke-width="5.273" d="M -451.22252,217.46633 L -448.04054,220.82509"/></g><g id="g2716" stroke="#b2b2b6" stroke-dasharray="none" stroke-miterlimit="4" stroke-opacity="1" stroke-width="5.289" opacity="1" transform="matrix(9.277585e-2,0,0,9.6312184e-2,63.7423,4.838965)"><path id="path2718" fill="none" stroke="#b2b2b6" stroke-dasharray="none" stroke-linecap="butt" stroke-linejoin="miter" stroke-miterlimit="4" stroke-opacity="1" stroke-width="5.289" d="M -498.69737,217.61513 L -498.69737,220.82237 L -492.55263,220.82237 L -492.55263,217.61513"/><path id="path2720" fill="none" stroke="#b2b2b6" stroke-dasharray="none" stroke-linecap="butt" stroke-linejoin="miter" stroke-miterlimit="4" stroke-opacity="1" stroke-width="5.289" d="M -501.125,217.375 L -495.8125,211.9375 L -490.125,217.625"/><path id="path2722" fill="none" stroke="#b2b2b6" stroke-dasharray="none" stroke-linecap="square" stroke-linejoin="miter" stroke-miterlimit="4" stroke-opacity="1" stroke-width="5.289" d="M -492.5,214.83108 L -492.5,212.04392"/></g><g id="g2724" stroke="#b2b2b6" stroke-dasharray="none" stroke-miterlimit="4" stroke-opacity="1" stroke-width="5.829" opacity="1" transform="matrix(8.419079e-2,0,0,8.7399837e-2,59.69444,6.74674)"><path id="path2726" fill="none" stroke="#b2b2b6" stroke-dasharray="none" stroke-linecap="square" stroke-linejoin="miter" stroke-miterlimit="4" stroke-opacity="1" stroke-width="5.829" d="M -545.33081,211.72109 L -533.84033,211.72109"/><path id="path2728" fill="none" stroke="#b2b2b6" stroke-dasharray="none" stroke-linecap="square" stroke-linejoin="miter" stroke-miterlimit="4" stroke-opacity="1" stroke-width="5.829" d="M -542.23495,214.721 L -533.84033,214.721" display="inline" enable-background="new"/><path id="path2730" fill="none" stroke="#b2b2b6" stroke-dasharray="none" stroke-linecap="square" stroke-linejoin="miter" stroke-miterlimit="4" stroke-opacity="1" stroke-width="5.829" d="M -542.23495,217.92114 L -533.84033,217.92114" display="inline" enable-background="new"/><path id="path2732" fill="none" stroke="#b2b2b6" stroke-dasharray="none" stroke-linecap="square" stroke-linejoin="miter" stroke-miterlimit="4" stroke-opacity="1" stroke-width="5.829" d="M -542.23495,221.021 L -533.84033,221.021" display="inline" enable-background="new"/></g><g id="g2734" stroke="#b2b2b6" stroke-dasharray="none" stroke-miterlimit="4" stroke-opacity="1" stroke-width="4.701" opacity="1" transform="matrix(0.1187227,0,0,9.5270236e-2,78.30039,5.018113)"><path id="path2736" fill="none" stroke="#b2b2b6" stroke-dasharray="none" stroke-linecap="square" stroke-linejoin="miter" stroke-miterlimit="4" stroke-opacity="1" stroke-width="4.701" d="M -571.0625,216.75 L -573.1875,214.625 L -570.9375,212.375"/><path id="path2738" fill="none" stroke="#b2b2b6" stroke-dasharray="none" stroke-linecap="square" stroke-linejoin="miter" stroke-miterlimit="4" stroke-opacity="1" stroke-width="4.701" d="M -571.34988,221.3499 L -567.87473,221.3499"/><path id="path2740" fill="none" stroke="#b2b2b6" stroke-dasharray="none" stroke-linecap="square" stroke-linejoin="miter" stroke-miterlimit="4" stroke-opacity="1" stroke-width="4.701" d="M -571.81153,214.57452 L -568.0943,214.57452" display="inline" enable-background="new"/><path id="path2742" fill="none" stroke="#b2b2b6" stroke-dasharray="none" stroke-dashoffset="0" stroke-linecap="square" stroke-linejoin="miter" stroke-miterlimit="4" stroke-opacity="1" stroke-width="4.701" d="M -581.16605,214.06253 A 2.53125,3.375 0 1 1 -581.21261,220.81166" display="inline" enable-background="accumulate" overflow="visible" transform="translate(14.18633,0.5432743)" visibility="visible" style="marker:none"/></g></g></svg>