<svg xmlns="http://www.w3.org/2000/svg" xmlns:svg="http://www.w3.org/2000/svg" xmlns:xlink="http://www.w3.org/1999/xlink" id="svg3397" width="48" height="48" version="1.1"><defs id="defs3399"><linearGradient id="linearGradient2707"><stop id="stop2709" offset="0" stop-color="#eeeeec" stop-opacity="1"/><stop id="stop2711" offset="1" stop-color="#eeeeec" stop-opacity="0"/></linearGradient><linearGradient id="linearGradient3780" x1="18" x2="18" y1="39" y2="45.78" gradientTransform="matrix(1,0,0,0.833333,9.7317314e-7,6.4898544)" gradientUnits="userSpaceOnUse" xlink:href="#linearGradient2707"/><linearGradient id="linearGradient3836" x1="18" x2="18" y1="39" y2="45.78" gradientTransform="matrix(1,0,0,0.833333,9.7317314e-7,6.4898544)" gradientUnits="userSpaceOnUse" xlink:href="#linearGradient2707"/><linearGradient id="linearGradient3734"><stop id="stop3736" offset="0" stop-color="#000" stop-opacity="1"/><stop id="stop3738" offset="1" stop-color="#000" stop-opacity="0"/></linearGradient><radialGradient id="radialGradient4275" cx="12.047" cy="10.047" r="9.547" fx="12.047" fy="10.047" gradientTransform="matrix(2.4091653,0,0,0.7855974,-5.0229128,32.6079)" gradientUnits="userSpaceOnUse" xlink:href="#linearGradient3734"/></defs><path id="path6446" fill="url(#radialGradient4275)" fill-opacity="1" stroke="none" d="m 47,40.500699 a 23,7.5 0 0 1 -45.9999998,0 23,7.5 0 1 1 45.9999998,0 z" display="inline" opacity=".4"/><g id="g3838" transform="translate(-9.0125695,-9.000183)"><path id="path3840" fill="#ddca10" fill-opacity="1" fill-rule="evenodd" stroke="#7d6c0f" stroke-dasharray="none" stroke-miterlimit="4" stroke-opacity="1" stroke-width="1" d="m 46.528917,39.003188 a 5.0033537,2.4982883 0 1 1 -10.006707,0 5.0033537,2.4982883 0 1 1 10.006707,0 z"/><path id="path3842" fill="#ddca10" fill-opacity="1" fill-rule="evenodd" stroke="#7d6c0f" stroke-dasharray="none" stroke-miterlimit="4" stroke-opacity="1" stroke-width="1" d="m 46.538557,37.009618 a 5.0033537,2.4982883 0 1 1 -10.006707,0 5.0033537,2.4982883 0 1 1 10.006707,0 z"/><path id="path3844" fill="#ddca10" fill-opacity="1" fill-rule="evenodd" stroke="#7d6c0f" stroke-dasharray="none" stroke-miterlimit="4" stroke-opacity="1" stroke-width="1" d="m 46.538557,35.009628 a 5.0033537,2.4982883 0 1 1 -10.006707,0 5.0033537,2.4982883 0 1 1 10.006707,0 z"/><path id="path3846" fill="#ddca10" fill-opacity="1" fill-rule="evenodd" stroke="#7d6c0f" stroke-dasharray="none" stroke-miterlimit="4" stroke-opacity="1" stroke-width="1" d="m 46.525987,33.004698 a 5.0033537,2.4982883 0 1 1 -10.006707,0 5.0033537,2.4982883 0 1 1 10.006707,0 z"/><path id="path3848" fill="#ddca10" fill-opacity="1" fill-rule="evenodd" stroke="#7d6c0f" stroke-dasharray="none" stroke-miterlimit="4" stroke-opacity="1" stroke-width="1" d="m 46.538557,31.003205 a 5.0033537,2.4982883 0 1 1 -10.006707,0 5.0033537,2.4982883 0 1 1 10.006707,0 z"/><path id="path3850" fill="#ddca10" fill-opacity="1" fill-rule="evenodd" stroke="#7d6c0f" stroke-dasharray="none" stroke-miterlimit="4" stroke-opacity="1" stroke-width="1" d="m 46.538557,29.008121 a 5.0033537,2.4982883 0 1 1 -10.006707,0 5.0033537,2.4982883 0 1 1 10.006707,0 z"/><path id="path3852" fill="#ddca10" fill-opacity="1" fill-rule="evenodd" stroke="#7d6c0f" stroke-dasharray="none" stroke-miterlimit="4" stroke-opacity="1" stroke-width="1" d="m 46.525987,27.003191 a 5.0033537,2.4982883 0 1 1 -10.006707,0 5.0033537,2.4982883 0 1 1 10.006707,0 z"/><path id="path3854" fill="#ddca10" fill-opacity="1" fill-rule="evenodd" stroke="#7d6c0f" stroke-dasharray="none" stroke-miterlimit="4" stroke-opacity="1" stroke-width="1" d="m 46.538557,25.001697 a 5.0033537,2.4982883 0 1 1 -10.006707,0 5.0033537,2.4982883 0 1 1 10.006707,0 z"/><path id="path3856" fill="#ddc910" fill-opacity="1" fill-rule="evenodd" stroke="#7d6c0f" stroke-dasharray="none" stroke-miterlimit="4" stroke-opacity="1" stroke-width="1" d="m 46.538557,23.001697 a 5.0033537,2.4982883 0 1 1 -10.006707,0 5.0033537,2.4982883 0 1 1 10.006707,0 z"/><path id="path3858" fill="#fce94f" fill-opacity="1" fill-rule="evenodd" stroke="#8c7200" stroke-dasharray="none" stroke-miterlimit="4" stroke-opacity="1" stroke-width="1" d="m 46.519277,20.998274 a 5.0033537,2.4982883 0 1 1 -10.006707,0 5.0033537,2.4982883 0 1 1 10.006707,0 z"/><path id="path3860" fill="none" stroke="#fff" stroke-dasharray="none" stroke-miterlimit="4" stroke-opacity="1" stroke-width="1" d="m 45.509639,20.996769 a 4.0038971,1.4967846 0 1 1 -8.007794,0 4.0038971,1.4967846 0 1 1 8.007794,0 z" opacity=".3"/></g><g id="g2986" transform="translate(-2.0125695,-1.000183)"><path id="path2773" fill="#ddca10" fill-opacity="1" fill-rule="evenodd" stroke="#7d6c0f" stroke-dasharray="none" stroke-miterlimit="4" stroke-opacity="1" stroke-width="1" d="m 46.528917,39.003188 a 5.0033537,2.4982883 0 1 1 -10.006707,0 5.0033537,2.4982883 0 1 1 10.006707,0 z"/><path id="path2777" fill="#ddca10" fill-opacity="1" fill-rule="evenodd" stroke="#7d6c0f" stroke-dasharray="none" stroke-miterlimit="4" stroke-opacity="1" stroke-width="1" d="m 46.538557,37.009618 a 5.0033537,2.4982883 0 1 1 -10.006707,0 5.0033537,2.4982883 0 1 1 10.006707,0 z"/><path id="path2781" fill="#ddca10" fill-opacity="1" fill-rule="evenodd" stroke="#7d6c0f" stroke-dasharray="none" stroke-miterlimit="4" stroke-opacity="1" stroke-width="1" d="m 46.538557,35.009628 a 5.0033537,2.4982883 0 1 1 -10.006707,0 5.0033537,2.4982883 0 1 1 10.006707,0 z"/><path id="path2785" fill="#ddca10" fill-opacity="1" fill-rule="evenodd" stroke="#7d6c0f" stroke-dasharray="none" stroke-miterlimit="4" stroke-opacity="1" stroke-width="1" d="m 46.525987,33.004698 a 5.0033537,2.4982883 0 1 1 -10.006707,0 5.0033537,2.4982883 0 1 1 10.006707,0 z"/><path id="path2789" fill="#ddca10" fill-opacity="1" fill-rule="evenodd" stroke="#7d6c0f" stroke-dasharray="none" stroke-miterlimit="4" stroke-opacity="1" stroke-width="1" d="m 46.538557,31.003205 a 5.0033537,2.4982883 0 1 1 -10.006707,0 5.0033537,2.4982883 0 1 1 10.006707,0 z"/><path id="path2797" fill="#ddca10" fill-opacity="1" fill-rule="evenodd" stroke="#7d6c0f" stroke-dasharray="none" stroke-miterlimit="4" stroke-opacity="1" stroke-width="1" d="m 46.538557,29.008121 a 5.0033537,2.4982883 0 1 1 -10.006707,0 5.0033537,2.4982883 0 1 1 10.006707,0 z"/><path id="path2799" fill="#ddca10" fill-opacity="1" fill-rule="evenodd" stroke="#7d6c0f" stroke-dasharray="none" stroke-miterlimit="4" stroke-opacity="1" stroke-width="1" d="m 46.525987,27.003191 a 5.0033537,2.4982883 0 1 1 -10.006707,0 5.0033537,2.4982883 0 1 1 10.006707,0 z"/><path id="path2801" fill="#ddca10" fill-opacity="1" fill-rule="evenodd" stroke="#7d6c0f" stroke-dasharray="none" stroke-miterlimit="4" stroke-opacity="1" stroke-width="1" d="m 46.538557,25.001697 a 5.0033537,2.4982883 0 1 1 -10.006707,0 5.0033537,2.4982883 0 1 1 10.006707,0 z"/><path id="path2809" fill="#ddc910" fill-opacity="1" fill-rule="evenodd" stroke="#7d6c0f" stroke-dasharray="none" stroke-miterlimit="4" stroke-opacity="1" stroke-width="1" d="m 46.538557,23.001697 a 5.0033537,2.4982883 0 1 1 -10.006707,0 5.0033537,2.4982883 0 1 1 10.006707,0 z"/><path id="path2793" fill="#fce94f" fill-opacity="1" fill-rule="evenodd" stroke="#8c7200" stroke-dasharray="none" stroke-miterlimit="4" stroke-opacity="1" stroke-width="1" d="m 46.519277,20.998274 a 5.0033537,2.4982883 0 1 1 -10.006707,0 5.0033537,2.4982883 0 1 1 10.006707,0 z"/><path id="path2795" fill="none" stroke="#fff" stroke-dasharray="none" stroke-miterlimit="4" stroke-opacity="1" stroke-width="1" d="m 45.509639,20.996769 a 4.0038971,1.4967846 0 1 1 -8.007794,0 4.0038971,1.4967846 0 1 1 8.007794,0 z" opacity=".3"/></g><g id="g2955" transform="translate(2.0001589,-1)"><path id="path2321" fill="#4f7f21" fill-opacity="1" fill-rule="evenodd" stroke="#2e5c02" stroke-linejoin="round" stroke-miterlimit="4" stroke-opacity="1" stroke-width="1" d="m 1.499841,33.478934 24.000325,0 0,6.025232 -24.000325,0 0,-6.025232 z"/><path id="path2323" fill="#59af05" fill-opacity="1" fill-rule="evenodd" stroke="#2e5c02" stroke-linejoin="round" stroke-miterlimit="4" stroke-opacity="1" stroke-width="1" d="m 4.325883,27.490549 20.27169,0 0.902432,6.009461 -24.000006,0 2.825884,-6.009461 z"/><rect id="rect2325" width="23" height="1" x="2" y="37.027" fill="#2e5c02" fill-opacity="1" fill-rule="evenodd" stroke="none"/><rect id="rect2327" width="23" height="1" x="2" y="35.027" fill="#2e5c02" fill-opacity="1" fill-rule="evenodd" stroke="none"/><path id="path2329" fill="none" stroke="#fff" stroke-miterlimit="4" stroke-opacity="1" stroke-width="1" d="m 4.937599,28.542003 -1.96875,3.9375 21.34375,0 -0.59375,-3.9375 -18.78125,0 z" opacity=".25"/><rect id="rect2341" width="4.937" height="6.109" x="11.531" y="33.464" fill="#eeeeec" fill-opacity="1" fill-rule="evenodd" stroke="#555753" stroke-dasharray="none" stroke-miterlimit="4" stroke-opacity="1" stroke-width="1"/><path id="path2746" fill="#2e5c02" fill-opacity="1" fill-rule="evenodd" stroke="none" d="m 19.000001,30.489859 a 5.0000015,1.4999994 0 1 1 -10.0000027,0 5.0000015,1.4999994 0 1 1 10.0000027,0 z"/><path id="path2715" fill="#d3d7cf" fill-opacity="1" fill-rule="evenodd" stroke="#555753" stroke-dasharray="none" stroke-miterlimit="4" stroke-opacity="1" stroke-width="1" d="m 12.500001,27.485562 -1,5.637161 0,6.37143 5,0 0,-6.425371 -1.09375,-5.58322 -2.90625,0 z"/><path id="path2748" fill="#2e5c02" fill-opacity="1" fill-rule="evenodd" stroke="none" d="m 6.9999965,31.489856 a 1.5156056,0.49999981 0 1 1 -3.0312111,0 1.5156056,0.49999981 0 1 1 3.0312111,0 z"/><path id="path2750" fill="#2e5c02" fill-opacity="1" fill-rule="evenodd" stroke="none" d="m 24,31.489856 a 1.4999998,0.49999981 0 1 1 -2.999999,0 1.4999998,0.49999981 0 1 1 2.999999,0 z"/><path id="path2752" fill="#2e5c02" fill-opacity="1" fill-rule="evenodd" stroke="none" d="m 23,29.489856 a 1.4999998,0.49999981 0 1 1 -2.999999,0 1.4999998,0.49999981 0 1 1 2.999999,0 z"/><path id="path2754" fill="#2e5c02" fill-opacity="1" fill-rule="evenodd" stroke="none" d="m 8.0000013,29.489856 a 1.4999998,0.49999981 0 1 1 -2.9999995,0 1.4999998,0.49999981 0 1 1 2.9999995,0 z"/></g><g id="g2999" transform="translate(0,-1)"><path id="path2413" fill="#dcc610" fill-opacity="1" fill-rule="evenodd" stroke="#7d6c0f" stroke-dasharray="none" stroke-miterlimit="4" stroke-opacity="1" stroke-width="1" d="m 41.519277,41.996758 a 5.0033537,2.4982883 0 1 1 -10.006707,0 5.0033537,2.4982883 0 1 1 10.006707,0 z"/><path id="path2417" fill="#dcc610" fill-opacity="1" fill-rule="evenodd" stroke="#7d6c0f" stroke-dasharray="none" stroke-miterlimit="4" stroke-opacity="1" stroke-width="1" d="m 41.528917,40.003188 a 5.0033537,2.4982883 0 1 1 -10.006707,0 5.0033537,2.4982883 0 1 1 10.006707,0 z"/><path id="path2421" fill="#dcc610" fill-opacity="1" fill-rule="evenodd" stroke="#7d6c0f" stroke-dasharray="none" stroke-miterlimit="4" stroke-opacity="1" stroke-width="1" d="m 41.528917,38.003198 a 5.0033537,2.4982883 0 1 1 -10.006707,0 5.0033537,2.4982883 0 1 1 10.006707,0 z"/><path id="path2425" fill="#dcc610" fill-opacity="1" fill-rule="evenodd" stroke="#7d6c0f" stroke-dasharray="none" stroke-miterlimit="4" stroke-opacity="1" stroke-width="1" d="m 41.516347,35.998268 a 5.0033537,2.4982883 0 1 1 -10.006707,0 5.0033537,2.4982883 0 1 1 10.006707,0 z"/><path id="path2429" fill="#dcc610" fill-opacity="1" fill-rule="evenodd" stroke="#7d6c0f" stroke-dasharray="none" stroke-miterlimit="4" stroke-opacity="1" stroke-width="1" d="m 41.528917,33.996778 a 5.0033537,2.4982883 0 1 1 -10.006707,0 5.0033537,2.4982883 0 1 1 10.006707,0 z"/><path id="path2761" fill="#fce94f" fill-opacity="1" fill-rule="evenodd" stroke="#8c7200" stroke-dasharray="none" stroke-miterlimit="4" stroke-opacity="1" stroke-width="1" d="m 41.509637,31.996778 a 5.0033537,2.4982883 0 1 1 -10.006707,0 5.0033537,2.4982883 0 1 1 10.006707,0 z"/><path id="path2763" fill="none" stroke="#fff" stroke-dasharray="none" stroke-miterlimit="4" stroke-opacity="1" stroke-width="1" d="m 40.507799,31.996772 a 4.0038971,1.4967846 0 1 1 -8.007794,0 4.0038971,1.4967846 0 1 1 8.007794,0 z" opacity=".3"/></g><g id="g2969" transform="translate(2.0001589,-1)"><path id="rect2271" fill="#4f7f21" fill-opacity="1" fill-rule="evenodd" stroke="#2e5c02" stroke-linejoin="round" stroke-miterlimit="4" stroke-opacity="1" stroke-width="1" d="m 5.491464,38.460922 24.008514,0 0,6.039078 -24.008514,0 0,-6.039078 z"/><path id="path3816" fill="#57ae06" fill-opacity="1" fill-rule="evenodd" stroke="#2e5c02" stroke-linejoin="round" stroke-miterlimit="4" stroke-opacity="1" stroke-width="1" d="m 7.450819,32.494875 20.208675,0 1.839885,5.993972 -23.999394,0 1.950834,-5.993972 z"/><rect id="rect2441" width="23" height="1" x="6" y="41.99" fill="#2e5c02" fill-opacity="1" fill-rule="evenodd" stroke="none"/><rect id="rect2443" width="23" height="1" x="6" y="39.99" fill="#2e5c02" fill-opacity="1" fill-rule="evenodd" stroke="none"/><path id="path2269" fill="none" stroke="#fff" stroke-miterlimit="4" stroke-opacity="1" stroke-width="1" d="m 8.218751,33.521104 -1.28125,3.9375 21.15625,0 -1.21875,-3.9375 -18.65625,0 z" opacity=".25"/><path id="path3837" fill="#2e5c02" fill-opacity="1" fill-rule="evenodd" stroke="none" d="m 22.999992,35.489859 a 4.9999945,1.4999994 0 1 1 -9.999989,0 4.9999945,1.4999994 0 1 1 9.999989,0 z"/><path id="path3839" fill="#2e5c02" fill-opacity="1" fill-rule="evenodd" stroke="none" d="m 10.999998,36.474386 a 1.5156058,0.49999988 0 0 1 -3.0312116,0 1.5156058,0.49999988 0 1 1 3.0312116,0 z"/><path id="path3841" fill="#2e5c02" fill-opacity="1" fill-rule="evenodd" stroke="none" d="m 27,36.489856 a 1.4999998,0.49999981 0 1 1 -2.999999,0 1.4999998,0.49999981 0 1 1 2.999999,0 z"/><path id="rect1372" fill="#d3d7cf" fill-opacity="1" fill-rule="evenodd" stroke="#555753" stroke-dasharray="none" stroke-miterlimit="4" stroke-opacity="1" stroke-width="1" d="m 16.500001,32.511162 -1,5.625214 0,6.357927 5,0 0,-6.411754 -1.09375,-5.571387 -2.90625,0 z"/><rect id="rect2721" width="4" height="5" x="16" y="38.99" fill="#888a85" fill-opacity="1" fill-rule="evenodd" stroke="none"/><rect id="rect2673" width="4" height="5" x="16" y="38.99" fill="url(#linearGradient3780)" fill-opacity="1" fill-rule="evenodd" stroke="none"/><path id="path2691" fill="#2e5c02" fill-opacity="1" fill-rule="evenodd" stroke="none" d="m 26,34.489856 a 1.4999998,0.49999981 0 1 1 -2.999999,0 1.4999998,0.49999981 0 1 1 2.999999,0 z"/><path id="path2693" fill="#2e5c02" fill-opacity="1" fill-rule="evenodd" stroke="none" d="m 12,34.489856 a 1.4999998,0.49999981 0 1 1 -2.9999992,0 1.4999998,0.49999981 0 1 1 2.9999992,0 z"/></g><g id="g3782" transform="translate(2.0001589,-9)"><path id="path3784" fill="#4f7f21" fill-opacity="1" fill-rule="evenodd" stroke="#2e5c02" stroke-linejoin="round" stroke-miterlimit="4" stroke-opacity="1" stroke-width="1" d="m 1.499841,33.478934 24.000325,0 0,6.025232 -24.000325,0 0,-6.025232 z"/><path id="path3786" fill="#59af05" fill-opacity="1" fill-rule="evenodd" stroke="#2e5c02" stroke-linejoin="round" stroke-miterlimit="4" stroke-opacity="1" stroke-width="1" d="m 4.325883,27.490549 20.27169,0 0.902432,6.009461 -24.000006,0 2.825884,-6.009461 z"/><rect id="rect3788" width="23" height="1" x="2" y="37.027" fill="#2e5c02" fill-opacity="1" fill-rule="evenodd" stroke="none"/><rect id="rect3790" width="23" height="1" x="2" y="35.027" fill="#2e5c02" fill-opacity="1" fill-rule="evenodd" stroke="none"/><path id="path3792" fill="none" stroke="#fff" stroke-miterlimit="4" stroke-opacity="1" stroke-width="1" d="m 4.937599,28.542003 -1.96875,3.9375 21.34375,0 -0.59375,-3.9375 -18.78125,0 z" opacity=".25"/><rect id="rect3794" width="4.937" height="6.109" x="11.531" y="33.464" fill="#eeeeec" fill-opacity="1" fill-rule="evenodd" stroke="#555753" stroke-dasharray="none" stroke-miterlimit="4" stroke-opacity="1" stroke-width="1"/><path id="path3796" fill="#2e5c02" fill-opacity="1" fill-rule="evenodd" stroke="none" d="m 19.000001,30.489859 a 5.0000015,1.4999994 0 1 1 -10.0000027,0 5.0000015,1.4999994 0 1 1 10.0000027,0 z"/><path id="path3798" fill="#d3d7cf" fill-opacity="1" fill-rule="evenodd" stroke="#555753" stroke-dasharray="none" stroke-miterlimit="4" stroke-opacity="1" stroke-width="1" d="m 12.500001,27.485562 -1,5.637161 0,6.37143 5,0 0,-6.425371 -1.09375,-5.58322 -2.90625,0 z"/><path id="path3800" fill="#2e5c02" fill-opacity="1" fill-rule="evenodd" stroke="none" d="m 6.9999965,31.489856 a 1.5156056,0.49999981 0 1 1 -3.0312111,0 1.5156056,0.49999981 0 1 1 3.0312111,0 z"/><path id="path3802" fill="#2e5c02" fill-opacity="1" fill-rule="evenodd" stroke="none" d="m 24,31.489856 a 1.4999998,0.49999981 0 1 1 -2.999999,0 1.4999998,0.49999981 0 1 1 2.999999,0 z"/><path id="path3804" fill="#2e5c02" fill-opacity="1" fill-rule="evenodd" stroke="none" d="m 23,29.489856 a 1.4999998,0.49999981 0 1 1 -2.999999,0 1.4999998,0.49999981 0 1 1 2.999999,0 z"/><path id="path3806" fill="#2e5c02" fill-opacity="1" fill-rule="evenodd" stroke="none" d="m 8.0000013,29.489856 a 1.4999998,0.49999981 0 1 1 -2.9999995,0 1.4999998,0.49999981 0 1 1 2.9999995,0 z"/></g><g id="g3808" transform="translate(2.0001589,-9)"><path id="path3810" fill="#4f7f21" fill-opacity="1" fill-rule="evenodd" stroke="#2e5c02" stroke-linejoin="round" stroke-miterlimit="4" stroke-opacity="1" stroke-width="1" d="m 5.491464,38.460922 24.008514,0 0,6.039078 -24.008514,0 0,-6.039078 z"/><path id="path3812" fill="#57ae06" fill-opacity="1" fill-rule="evenodd" stroke="#2e5c02" stroke-linejoin="round" stroke-miterlimit="4" stroke-opacity="1" stroke-width="1" d="m 7.450819,32.494875 20.208675,0 1.839885,5.993972 -23.999394,0 1.950834,-5.993972 z"/><rect id="rect3814" width="23" height="1" x="6" y="41.99" fill="#2e5c02" fill-opacity="1" fill-rule="evenodd" stroke="none"/><rect id="rect3816" width="23" height="1" x="6" y="39.99" fill="#2e5c02" fill-opacity="1" fill-rule="evenodd" stroke="none"/><path id="path3818" fill="none" stroke="#fff" stroke-miterlimit="4" stroke-opacity="1" stroke-width="1" d="m 8.218751,33.521104 -1.28125,3.9375 21.15625,0 -1.21875,-3.9375 -18.65625,0 z" opacity=".25"/><path id="path3820" fill="#2e5c02" fill-opacity="1" fill-rule="evenodd" stroke="none" d="m 22.999992,35.489859 a 4.9999945,1.4999994 0 1 1 -9.999989,0 4.9999945,1.4999994 0 1 1 9.999989,0 z"/><path id="path3822" fill="#2e5c02" fill-opacity="1" fill-rule="evenodd" stroke="none" d="m 10.999998,36.474386 a 1.5156058,0.49999988 0 0 1 -3.0312116,0 1.5156058,0.49999988 0 1 1 3.0312116,0 z"/><path id="path3824" fill="#2e5c02" fill-opacity="1" fill-rule="evenodd" stroke="none" d="m 27,36.489856 a 1.4999998,0.49999981 0 1 1 -2.999999,0 1.4999998,0.49999981 0 1 1 2.999999,0 z"/><path id="path3826" fill="#d3d7cf" fill-opacity="1" fill-rule="evenodd" stroke="#555753" stroke-dasharray="none" stroke-miterlimit="4" stroke-opacity="1" stroke-width="1" d="m 16.500001,32.511162 -1,5.625214 0,6.357927 5,0 0,-6.411754 -1.09375,-5.571387 -2.90625,0 z"/><rect id="rect3828" width="4" height="5" x="16" y="38.99" fill="#888a85" fill-opacity="1" fill-rule="evenodd" stroke="none"/><rect id="rect3830" width="4" height="5" x="16" y="38.99" fill="url(#linearGradient3836)" fill-opacity="1" fill-rule="evenodd" stroke="none"/><path id="path3832" fill="#2e5c02" fill-opacity="1" fill-rule="evenodd" stroke="none" d="m 26,34.489856 a 1.4999998,0.49999981 0 1 1 -2.999999,0 1.4999998,0.49999981 0 1 1 2.999999,0 z"/><path id="path3834" fill="#2e5c02" fill-opacity="1" fill-rule="evenodd" stroke="none" d="m 12,34.489856 a 1.4999998,0.49999981 0 1 1 -2.9999992,0 1.4999998,0.49999981 0 1 1 2.9999992,0 z"/></g></svg>