<svg xmlns="http://www.w3.org/2000/svg" xmlns:svg="http://www.w3.org/2000/svg" xmlns:xlink="http://www.w3.org/1999/xlink" id="svg3397" width="48" height="48" version="1.1"><defs id="defs3399"><linearGradient id="linearGradient2623"><stop id="stop2625" offset="0" stop-color="#b9b9b9" stop-opacity="1"/><stop id="stop2627" offset="1" stop-color="#b9b9b9" stop-opacity="0"/></linearGradient><linearGradient id="linearGradient2632"><stop id="stop2635" offset="0" stop-color="#204a87" stop-opacity="1"/><stop id="stop2637" offset="1" stop-color="#204a87" stop-opacity="0"/></linearGradient><linearGradient id="linearGradient2936" x1="24.613" x2="29.182" y1="20.16" y2="12.246" gradientTransform="translate(2.000002,5.0000007)" gradientUnits="userSpaceOnUse" xlink:href="#linearGradient2632"/><radialGradient id="radialGradient2940" cx="24.5" cy="18.593" r="14.5" fx="24.5" fy="18.593" gradientTransform="matrix(2.94027,0,0,2.433326,-45.536589,-19.36654)" gradientUnits="userSpaceOnUse" xlink:href="#linearGradient2623"/><linearGradient id="linearGradient3686-5"><stop id="stop3688-7" offset="0" stop-color="#aaa" stop-opacity="1"/><stop id="stop3690-0" offset="1" stop-color="#787878" stop-opacity="1"/></linearGradient><linearGradient id="linearGradient3678-5"><stop id="stop3680-9" offset="0" stop-color="#fafafa" stop-opacity="1"/><stop id="stop3682-3" offset="1" stop-color="#c1c1c1" stop-opacity="1"/></linearGradient><linearGradient id="linearGradient4542"><stop id="stop4544" offset="0" stop-color="#000" stop-opacity="1"/><stop id="stop4546" offset="1" stop-color="#000" stop-opacity="0"/></linearGradient><radialGradient id="radialGradient3310" cx="9.593" cy="9.328" r="21" fx="9.593" fy="9.328" gradientTransform="matrix(3.7089855,-0.00148556,6.788089e-4,1.6947832,-24.735826,-6.1770383)" gradientUnits="userSpaceOnUse" xlink:href="#linearGradient3678-5"/><linearGradient id="linearGradient3312" x1="13.872" x2="13.622" y1="5.74" y2="34.835" gradientTransform="matrix(0.87804879,0,0,0.87804879,2.4268292,1.4268305)" gradientUnits="userSpaceOnUse" xlink:href="#linearGradient3686-5"/><radialGradient id="radialGradient3315" cx="24.307" cy="42.078" r="15.822" fx="24.307" fy="42.078" gradientTransform="matrix(1.3905117,0,0,0.47403771,-9.798882,19.553432)" gradientUnits="userSpaceOnUse" xlink:href="#linearGradient4542"/><linearGradient id="linearGradient2707"><stop id="stop2709" offset="0" stop-color="#eeeeec" stop-opacity="1"/><stop id="stop2711" offset="1" stop-color="#eeeeec" stop-opacity="0"/></linearGradient><linearGradient id="linearGradient3232" x1="18" x2="18" y1="39" y2="45.78" gradientTransform="matrix(1,0,0,0.833333,-0.99999895,6.5000011)" gradientUnits="userSpaceOnUse" xlink:href="#linearGradient2707"/></defs><path id="path3667" fill="url(#radialGradient3315)" fill-opacity="1" fill-rule="evenodd" stroke="none" stroke-width="2" d="m 46,39.5 a 22,7.5 0 0 1 -44,0 22,7.5 0 1 1 44,0 z" display="inline" opacity=".4" overflow="visible" visibility="visible" style="marker:none"/><rect stroke-linecap="butt" style="marker:none" id="rect4414" width="36" height="36" x="5.5" y="4.5" fill="url(#radialGradient3310)" fill-opacity="1" fill-rule="nonzero" stroke="url(#linearGradient3312)" stroke-dasharray="none" stroke-dashoffset="0" stroke-linejoin="miter" stroke-miterlimit="1" stroke-opacity="1" stroke-width="1" display="inline" enable-background="accumulate" overflow="visible" rx="1.15" ry="1.092" visibility="visible"/><path id="rect2281" fill="url(#radialGradient2940)" fill-opacity="1" fill-rule="evenodd" stroke="none" d="m 16.031252,10 0,4 -4.03125,0 0,1 4.03125,0 0,4 -4.03125,0 0,1 4.03125,0 0,4 -4.03125,0 0,1 4.03125,0 0,4 -4.03125,0 0,1 4.03125,0 0,4 1,0 0,-4 4,0 0,4 1,0 0,-4 4,0 0,4 1,0 0,-4 4,0 0,4 1,0 0,-4 4,0 0,-16 -4,0 0,-4 -1,0 0,4 -4,0 0,-4 -1,0 0,4 -4,0 0,-4 -1,0 0,4 -4,0 0,-4 -1,0 z m 1,5 4,0 0,4 -4,0 0,-4 z m 5,0 4,0 0,4 -4,0 0,-4 z m 5,0 4,0 0,4 -4,0 0,-4 z m 5,0 4,0 0,4 -4,0 0,-4 z m -15,5 4,0 0,4 -4,0 0,-4 z m 5,0 4,0 0,4 -4,0 0,-4 z m 5,0 4,0 0,4 -4,0 0,-4 z m 5,0 4,0 0,4 -4,0 0,-4 z m -15,5 4,0 0,4 -4,0 0,-4 z m 5,0 4,0 0,4 -4,0 0,-4 z m 5,0 4,0 0,4 -4,0 0,-4 z m 5,0 4,0 0,4 -4,0 0,-4 z"/><path id="rect2293" fill="url(#linearGradient2936)" fill-opacity="1" fill-rule="evenodd" stroke="none" d="M 30.531252,17 25.648236,25.817147 17.038454,21.019865 11.031252,30.5 l 0.875,0.5 5.412175,-8.726766 8.70144,4.78125 L 31.406252,17.5 30.531252,17 z"/><rect id="rect2600" width="1" height="30" x="34" y="-41" fill="#888a85" fill-opacity="1" fill-rule="evenodd" stroke="none" transform="matrix(0,1,-1,0,0,0)"/><rect id="rect2231" width="1" height="25" x="11.026" y="10" fill="#888a85" fill-opacity="1" fill-rule="evenodd" stroke="none"/><path id="path2321" fill="#4f7f21" fill-opacity="1" fill-rule="evenodd" stroke="#2e5c02" stroke-linejoin="round" stroke-miterlimit="4" stroke-opacity="1" stroke-width="1" d="m 4.4999999,38.474768 24.0003251,0 0,6.025232 -24.0003251,0 0,-6.025232 z"/><path id="path2323" fill="#59af05" fill-opacity="1" fill-rule="evenodd" stroke="#2e5c02" stroke-linejoin="round" stroke-miterlimit="4" stroke-opacity="1" stroke-width="1" d="m 7.3260419,32.486383 18.1719581,0 3.002164,6.009461 -24.0000061,0 2.825884,-6.009461 z"/><rect id="rect2325" width="23" height="1" x="5" y="42.022" fill="#2e5c02" fill-opacity="1" fill-rule="evenodd" stroke="none"/><rect id="rect2327" width="23" height="1" x="5" y="40.022" fill="#2e5c02" fill-opacity="1" fill-rule="evenodd" stroke="none"/><path id="path2329" fill="none" stroke="#fff" stroke-miterlimit="4" stroke-opacity="1" stroke-width="1" d="m 7.9377579,33.537837 -1.96875,3.9375 20.8439921,0 -2.094,-3.9375 -16.7812421,0 z" opacity=".25"/><path id="path2746" fill="#2e5c02" fill-opacity="1" fill-rule="evenodd" stroke="none" d="m 22.00016,35.485693 a 5.0000015,1.4999994 0 0 1 -10.000003,0 5.0000015,1.4999994 0 1 1 10.000003,0 z"/><path id="path2715" fill="#d3d7cf" fill-opacity="1" fill-rule="evenodd" stroke="#555753" stroke-dasharray="none" stroke-miterlimit="4" stroke-opacity="1" stroke-width="1" d="m 15.50016,32.481396 -1,5.637161 0,6.37143 5,0 0,-6.425371 -1.09375,-5.58322 -2.90625,0 z"/><path id="path2748" fill="#2e5c02" fill-opacity="1" fill-rule="evenodd" stroke="none" d="m 10.000155,36.48569 a 1.5156056,0.49999981 0 1 1 -3.0312107,0 1.5156056,0.49999981 0 1 1 3.0312107,0 z"/><path id="path2750" fill="#2e5c02" fill-opacity="1" fill-rule="evenodd" stroke="none" d="m 27.000159,36.48569 a 1.4999998,0.49999981 0 1 1 -2.999999,0 1.4999998,0.49999981 0 1 1 2.999999,0 z"/><path id="path2752" fill="#2e5c02" fill-opacity="1" fill-rule="evenodd" stroke="none" d="m 25.499999,34.48569 a 1.4999998,0.49999981 0 1 1 -2.999999,0 1.4999998,0.49999981 0 1 1 2.999999,0 z"/><path id="path2754" fill="#2e5c02" fill-opacity="1" fill-rule="evenodd" stroke="none" d="m 11.00016,34.48569 a 1.4999998,0.49999981 0 1 1 -2.9999993,0 1.4999998,0.49999981 0 1 1 2.9999993,0 z"/><path id="path2773" fill="#ddca10" fill-opacity="1" fill-rule="evenodd" stroke="#7d6c0f" stroke-dasharray="none" stroke-miterlimit="4" stroke-opacity="1" stroke-width="1" d="m 43.516348,42.001005 a 5.0033537,2.4982883 0 1 1 -10.006707,0 5.0033537,2.4982883 0 1 1 10.006707,0 z"/><path id="path2777" fill="#ddca10" fill-opacity="1" fill-rule="evenodd" stroke="#7d6c0f" stroke-dasharray="none" stroke-miterlimit="4" stroke-opacity="1" stroke-width="1" d="m 43.525987,40.007435 a 5.0033537,2.4982883 0 1 1 -10.006707,0 5.0033537,2.4982883 0 1 1 10.006707,0 z"/><path id="path2781" fill="#ddca10" fill-opacity="1" fill-rule="evenodd" stroke="#7d6c0f" stroke-dasharray="none" stroke-miterlimit="4" stroke-opacity="1" stroke-width="1" d="m 43.525987,38.007445 a 5.0033537,2.4982883 0 1 1 -10.006707,0 5.0033537,2.4982883 0 1 1 10.006707,0 z"/><path id="path2785" fill="#ddca10" fill-opacity="1" fill-rule="evenodd" stroke="#7d6c0f" stroke-dasharray="none" stroke-miterlimit="4" stroke-opacity="1" stroke-width="1" d="m 43.513417,36.002515 a 5.0033537,2.4982883 0 1 1 -10.006707,0 5.0033537,2.4982883 0 1 1 10.006707,0 z"/><path id="path2789" fill="#ddca10" fill-opacity="1" fill-rule="evenodd" stroke="#7d6c0f" stroke-dasharray="none" stroke-miterlimit="4" stroke-opacity="1" stroke-width="1" d="m 43.525987,34.001022 a 5.0033537,2.4982883 0 1 1 -10.006707,0 5.0033537,2.4982883 0 1 1 10.006707,0 z"/><path id="path2797" fill="#ddca10" fill-opacity="1" fill-rule="evenodd" stroke="#7d6c0f" stroke-dasharray="none" stroke-miterlimit="4" stroke-opacity="1" stroke-width="1" d="m 43.525987,32.005938 a 5.0033537,2.4982883 0 1 1 -10.006707,0 5.0033537,2.4982883 0 1 1 10.006707,0 z"/><path id="path2799" fill="#ddca10" fill-opacity="1" fill-rule="evenodd" stroke="#7d6c0f" stroke-dasharray="none" stroke-miterlimit="4" stroke-opacity="1" stroke-width="1" d="m 43.513417,30.001008 a 5.0033537,2.4982883 0 1 1 -10.006707,0 5.0033537,2.4982883 0 1 1 10.006707,0 z"/><path id="path2801" fill="#ddca10" fill-opacity="1" fill-rule="evenodd" stroke="#7d6c0f" stroke-dasharray="none" stroke-miterlimit="4" stroke-opacity="1" stroke-width="1" d="m 43.525987,27.999514 a 5.0033537,2.4982883 0 1 1 -10.006707,0 5.0033537,2.4982883 0 1 1 10.006707,0 z"/><path id="path2809" fill="#ddc910" fill-opacity="1" fill-rule="evenodd" stroke="#7d6c0f" stroke-dasharray="none" stroke-miterlimit="4" stroke-opacity="1" stroke-width="1" d="m 43.525987,25.999514 a 5.0033537,2.4982883 0 1 1 -10.006707,0 5.0033537,2.4982883 0 1 1 10.006707,0 z"/><path id="path2793" fill="#fce94f" fill-opacity="1" fill-rule="evenodd" stroke="#8c7200" stroke-dasharray="none" stroke-miterlimit="4" stroke-opacity="1" stroke-width="1" d="m 43.506707,23.996091 a 5.0033537,2.4982883 0 1 1 -10.006707,0 5.0033537,2.4982883 0 1 1 10.006707,0 z"/><path id="path2795" fill="none" stroke="#fff" stroke-dasharray="none" stroke-miterlimit="4" stroke-opacity="1" stroke-width="1" d="m 42.49707,23.994586 a 4.0038971,1.4967846 0 1 1 -8.007794,0 4.0038971,1.4967846 0 1 1 8.007794,0 z" opacity=".3"/><rect id="rect2673" width="4" height="5" x="15" y="39" fill="url(#linearGradient3232)" fill-opacity="1" fill-rule="evenodd" stroke="none"/></svg>