<svg xmlns="http://www.w3.org/2000/svg" xmlns:svg="http://www.w3.org/2000/svg" xmlns:xlink="http://www.w3.org/1999/xlink" id="svg7299" width="48" height="48" version="1.1"><defs id="defs7301"><filter id="filter11277" width="1.057" height="1.831" x="-.028" y="-.416" color-interpolation-filters="sRGB"><feGaussianBlur id="feGaussianBlur11279" stdDeviation=".52"/></filter><filter id="filter11267" width="1.17" height="3.494" x="-.085" y="-1.247" color-interpolation-filters="sRGB"><feGaussianBlur id="feGaussianBlur11269" stdDeviation="1.559"/></filter><linearGradient id="linearGradient11223" x1="4.191" x2="47.32" y1="11.113" y2="56.052" gradientUnits="userSpaceOnUse"><stop id="stop11225" offset="0" stop-color="#fff" stop-opacity="1"/><stop id="stop11227" offset="1" stop-color="#fff" stop-opacity="0"/></linearGradient><linearGradient id="linearGradient2864" x1="29.127" x2="29.291" y1="19.788" y2="57.567" gradientTransform="matrix(1.0615321,0,-0.00462081,1.1117136,-6.827518,-19.998157)" gradientUnits="userSpaceOnUse" xlink:href="#linearGradient11223"/><linearGradient id="linearGradient7012-661-145-733-759-865-745-661-970-94"><stop id="stop3618" offset="0" stop-color="#edd563" stop-opacity="1"/><stop id="stop3620" offset="1" stop-color="#e08223" stop-opacity="1"/></linearGradient><linearGradient id="linearGradient3390-178-986-453"><stop id="stop3624" offset="0" stop-color="#bb5e12" stop-opacity="1"/><stop id="stop3626" offset="1" stop-color="#cd8033" stop-opacity="1"/></linearGradient><linearGradient id="linearGradient4268" x1="24" x2="24" y1="-3" y2="47" gradientUnits="userSpaceOnUse" xlink:href="#linearGradient7012-661-145-733-759-865-745-661-970-94"/><linearGradient id="linearGradient4276" x1="20" x2="20" y1="47" y2="-3" gradientUnits="userSpaceOnUse" xlink:href="#linearGradient3390-178-986-453"/></defs><rect id="rect11271" width="44" height="3" x="298" y="91" fill="#000" fill-opacity="1" stroke="none" display="inline" enable-background="new" filter="url(#filter11277)" opacity=".3" rx="3.25" ry="1.5" transform="matrix(1,0,0,1.3333333,-296,-79.833758)"/><rect id="rect11249" width="44" height="3" x="298" y="91" fill="#000" fill-opacity="1" stroke="none" display="inline" enable-background="new" filter="url(#filter11267)" opacity=".5" rx="3.25" ry="1.839" transform="matrix(1,0,0,1.2916666,-296,-76.417082)"/><path id="path11155" fill="url(#linearGradient4268)" fill-opacity="1" fill-rule="nonzero" stroke="url(#linearGradient4276)" stroke-dasharray="none" stroke-miterlimit="4" stroke-opacity="1" stroke-width="1" d="M 46.178835,39.999014 26.648631,3.1436738 C 26.087274,2.1199145 25.071516,1.5511602 23.940269,1.5511602 c -1.13125,0 -2.152217,0.6825035 -2.722104,1.7062644 L 1.8333958,40.112766 c -0.456291,0.910008 -0.4615035,2.161269 0.1003316,3.071278 0.5618322,0.910009 1.4649371,1.365012 2.596187,1.365012 l 38.9149676,0 c 1.131247,0 2.151741,-0.568754 2.608035,-1.478764 0.569414,-0.910008 0.574151,-2.047518 0.125922,-3.071278 z"/><path id="path11159" fill="none" stroke="url(#linearGradient2864)" stroke-dasharray="none" stroke-miterlimit="4" stroke-opacity="1" stroke-width="1" d="M 44.54211,39.209205 26.169987,4.4763134 C 25.387534,2.9800591 25.106886,2.5000008 23.91778,2.5000008 c -1.022723,0 -1.557843,0.6991415 -2.296915,2.111484 L 3.4526605,39.316408 c -1.0549914,1.948476 -1.1680244,2.456373 -0.6602242,3.313975 0.5077974,0.857604 1.1597849,0.810895 3.5688175,0.866836 l 35.7085152,0 c 2.242766,0.02797 2.747966,-0.144407 3.160618,-1.002006 0.514923,-0.857606 0.295902,-1.53801 -0.688277,-3.286008 z" opacity=".4"/><g id="g3243" transform="translate(51.138136,1.5686178)"><path font-stretch="normal" style="text-align:start;line-height:125%" id="path3295" fill="#000" fill-opacity="1" stroke="none" d="m -29.450843,12.554367 c 0.562985,5.499325 1.207856,10.960802 1.687101,16.481667 0.482028,0 1.047391,0 1.529419,0 0.39752,-5.301782 1.038697,-10.571527 1.501221,-15.866736 0.235772,-1.253831 -0.407984,-2.74252 -1.731999,-3.047145 -1.308328,-0.3825154 -2.770054,0.564714 -2.944023,1.917755 -0.02885,0.169852 -0.04172,0.342238 -0.04172,0.514459 l -1e-6,0 z m -0.166856,22.358706 c -0.05953,1.636939 1.741632,2.920137 3.279478,2.401164 1.489513,-0.380147 2.274063,-2.252289 1.510684,-3.583058 -0.683355,-1.375642 -2.687256,-1.828891 -3.840007,-0.776055 -0.582694,0.478722 -0.968913,1.193389 -0.950154,1.95795 l -1e-6,-1e-6 z" font-family="Georgia" font-size="62.458" font-style="normal" font-variant="normal" font-weight="normal" opacity=".2" text-anchor="start" writing-mode="lr-tb"/><path font-stretch="normal" style="text-align:start;line-height:125%" id="text2315" fill="#fff" fill-opacity="1" stroke="none" d="m -29.450843,13.554676 c 0.562985,5.499325 1.207856,10.960802 1.687101,16.481667 0.482028,0 1.047391,0 1.529419,0 0.39752,-5.301782 1.038697,-10.571527 1.501221,-15.866736 0.235772,-1.253831 -0.407984,-2.74252 -1.731999,-3.047145 -1.308328,-0.382515 -2.770054,0.564714 -2.944023,1.917755 -0.02885,0.169852 -0.04172,0.342238 -0.04172,0.514459 l -1e-6,0 z m -0.166856,22.358706 c -0.05953,1.636939 1.741632,2.920137 3.279478,2.401164 1.489513,-0.380147 2.274063,-2.252289 1.510684,-3.583058 -0.683355,-1.375642 -2.687256,-1.828891 -3.840007,-0.776055 -0.582694,0.478722 -0.968913,1.193389 -0.950154,1.95795 l -1e-6,-1e-6 z" font-family="Georgia" font-size="62.458" font-style="normal" font-variant="normal" font-weight="normal" text-anchor="start" writing-mode="lr-tb"/></g></svg>