<svg xmlns="http://www.w3.org/2000/svg" xmlns:svg="http://www.w3.org/2000/svg" xmlns:xlink="http://www.w3.org/1999/xlink" id="svg3309" width="48" height="48" version="1.1"><defs id="defs3311"><radialGradient id="radialGradient4601" cx="102.987" cy="154.192" r="2.367" fx="102.987" fy="154.192" gradientUnits="userSpaceOnUse"><stop id="stop4603" offset="0" stop-color="#f0f0f0" stop-opacity="1"/><stop id="stop4605" offset="1" stop-color="#848484" stop-opacity="1"/></radialGradient><linearGradient id="linearGradient4599" x1="25" x2="25" y1="20.875" y2="24" gradientTransform="matrix(1.64,0,0,1.6666668,-17,-28.66667)" gradientUnits="userSpaceOnUse" xlink:href="#radialGradient4601"/><linearGradient id="linearGradient5013" x1="79.236" x2="61.338" y1="72.834" y2="59.877" gradientTransform="matrix(0.62499387,0,0,0.64705888,-22.249497,-26.117649)" gradientUnits="userSpaceOnUse" xlink:href="#linearGradient3705"/><linearGradient id="linearGradient3705" x1="79.236" x2="61.338" y1="72.834" y2="59.877" gradientTransform="translate(-50,-61.999997)" gradientUnits="userSpaceOnUse"><stop id="stop3707" offset="0" stop-color="#85b6d1" stop-opacity="1"/><stop id="stop3709" offset=".171" stop-color="#7ab1d0" stop-opacity="1"/><stop id="stop3711" offset=".468" stop-color="#5ea5cd" stop-opacity="1"/><stop id="stop3713" offset=".855" stop-color="#2f92c9" stop-opacity="1"/><stop id="stop3715" offset="1" stop-color="#1c8ac7" stop-opacity="1"/></linearGradient><linearGradient id="linearGradient5016" x1="72.138" x2="80.393" y1="74.042" y2="74.042" gradientTransform="matrix(0.62499387,0,0,0.64705888,-22.249497,-26.117649)" gradientUnits="userSpaceOnUse" xlink:href="#linearGradient3687"/><linearGradient id="linearGradient3687" x1="72.138" x2="80.393" y1="74.042" y2="74.042" gradientTransform="translate(-50,-61.999997)" gradientUnits="userSpaceOnUse"><stop id="stop3689" offset="0" stop-color="#1773a6" stop-opacity="1"/><stop id="stop3691" offset="1" stop-color="#1773a6" stop-opacity="1"/></linearGradient><linearGradient id="linearGradient5019" x1="65.277" x2="65.277" y1="74.939" y2="67.132" gradientTransform="matrix(0.62499387,0,0,0.64705888,-22.249497,-26.117649)" gradientUnits="userSpaceOnUse" xlink:href="#linearGradient3693"/><linearGradient id="linearGradient3693" x1="65.277" x2="65.277" y1="74.939" y2="67.132" gradientTransform="translate(-50,-61.999997)" gradientUnits="userSpaceOnUse"><stop id="stop3695" offset="0" stop-color="#f5f2b0" stop-opacity="1"/><stop id="stop3697" offset=".137" stop-color="#f5efa5" stop-opacity="1"/><stop id="stop3699" offset=".377" stop-color="#f4e988" stop-opacity="1"/><stop id="stop3701" offset=".689" stop-color="#f3de5a" stop-opacity="1"/><stop id="stop3703" offset="1" stop-color="#f2d125" stop-opacity="1"/></linearGradient><linearGradient id="linearGradient5022" x1="57.16" x2="73.087" y1="73.962" y2="73.962" gradientTransform="matrix(0.62499387,0,0,0.64705888,-22.249497,-26.117649)" gradientUnits="userSpaceOnUse" xlink:href="#linearGradient3677"/><linearGradient id="linearGradient3677" x1="57.16" x2="73.087" y1="73.962" y2="73.962" gradientTransform="translate(-50,-61.999997)" gradientUnits="userSpaceOnUse"><stop id="stop3679" offset="0" stop-color="#e1da1a" stop-opacity="1"/><stop id="stop3681" offset=".313" stop-color="#d6cf14" stop-opacity="1"/><stop id="stop3683" offset=".857" stop-color="#bab305" stop-opacity="1"/><stop id="stop3685" offset="1" stop-color="#b2aa00" stop-opacity="1"/></linearGradient><linearGradient id="linearGradient3658" x1="66" x2="66" y1="61.889" y2="75.497" gradientUnits="userSpaceOnUse" spreadMethod="pad" xlink:href="#linearGradient3764"><stop id="stop3660" offset="0" stop-color="#ef3b3b" stop-opacity="1"/><stop id="stop3662" offset=".383" stop-color="#f14646" stop-opacity="1"/><stop id="stop3664" offset="1" stop-color="#f76060" stop-opacity="1"/></linearGradient><linearGradient id="linearGradient3764" x1="66" x2="66" y1="61.889" y2="75.497" gradientUnits="userSpaceOnUse"><stop id="stop3766" offset="0" stop-color="#ef3b3b" stop-opacity="1"/><stop id="stop3768" offset=".383" stop-color="#f14646" stop-opacity="1"/><stop id="stop3770" offset="1" stop-color="#f76060" stop-opacity="1"/></linearGradient><linearGradient id="linearGradient5026" x1="50" x2="82" y1="73.065" y2="73.065" gradientTransform="matrix(0.62499387,0,0,0.64705888,-22.249497,-26.193296)" gradientUnits="userSpaceOnUse" xlink:href="#linearGradient3667"/><linearGradient id="linearGradient3667" x1="50" x2="82" y1="73.065" y2="73.065" gradientTransform="translate(-50,-61.999997)" gradientUnits="userSpaceOnUse"><stop id="stop3669" offset="0" stop-color="#bb2f2f" stop-opacity="1"/><stop id="stop3671" offset=".309" stop-color="#d53c3c" stop-opacity="1"/><stop id="stop3673" offset=".5" stop-color="#e04242" stop-opacity="1"/><stop id="stop3675" offset="1" stop-color="#bb2f2f" stop-opacity="1"/></linearGradient><linearGradient id="linearGradient5220" x1="66" x2="66" y1="61.889" y2="75.497" gradientUnits="userSpaceOnUse" xlink:href="#linearGradient3658"/><linearGradient id="linearGradient4338-1"><stop id="stop4340-3" offset="0" stop-color="#8e8e8e" stop-opacity="1"/><stop id="stop4342-7" offset="1" stop-color="#b5b5b5" stop-opacity="1"/></linearGradient><linearGradient id="linearGradient5064" x1="22.104" x2="22.104" y1="43.199" y2="11.817" gradientTransform="matrix(0.9946067,0,0,1.5499152,19.562527,-5.319992)" gradientUnits="userSpaceOnUse" xlink:href="#linearGradient4338-1"/><linearGradient id="linearGradient8838"><stop id="stop8840" offset="0" stop-color="#000" stop-opacity="1"/><stop id="stop8842" offset="1" stop-color="#000" stop-opacity="0"/></linearGradient><radialGradient id="radialGradient3093" cx="62.625" cy="4.625" r="10.625" fx="62.625" fy="4.625" gradientTransform="matrix(1.6,0,0,0.3764701,-76.200003,41.258823)" gradientUnits="userSpaceOnUse" xlink:href="#linearGradient8838"/></defs><path id="path7081" fill="none" stroke="#555753" stroke-dasharray="none" stroke-linecap="round" stroke-linejoin="miter" stroke-miterlimit="4" stroke-opacity="1" stroke-width="2" d="M 24,35.017 24,39.399997 17,43.999"/><path id="path3693" fill="none" stroke="#555753" stroke-dasharray="none" stroke-linecap="round" stroke-linejoin="miter" stroke-miterlimit="4" stroke-opacity="1" stroke-width="2" d="m 24,35.017 0,4.382997 7,4.599003"/><path id="path5290" fill="#ededed" fill-opacity="1" fill-rule="nonzero" stroke="#a0a0a0" stroke-dasharray="none" stroke-miterlimit="4" stroke-opacity="1" stroke-width="1" d="M 5.5000001,35.5 5.6505422,9.5000003 42.3483,9.5740195 42.5,35.426359 5.5000047,35.499995 z"/><rect id="rect9278" width="35" height="25" x="6.5" y="9.5" fill="none" stroke="#fff" stroke-dasharray="none" stroke-dashoffset="0" stroke-linecap="butt" stroke-linejoin="miter" stroke-miterlimit="4" stroke-opacity="1" stroke-width="1" color="#000" display="inline" enable-background="accumulate" opacity=".8" overflow="visible" visibility="visible" style="marker:none"/><path id="path5315" fill="#000" fill-rule="nonzero" stroke="none" d="m 41,11.008186 -35,0 L 6,16 c 1.9720488,-5.424419 35,-4.991814 35,-4.991814 z" opacity=".16"/><path id="path4607-0" fill="none" stroke="#555753" stroke-dasharray="none" stroke-linecap="round" stroke-linejoin="miter" stroke-miterlimit="4" stroke-opacity="1" stroke-width="2" d="M 24,2.917332 24,5.3"/><rect id="rect3819" width="41" height="5" x="3.5" y="5.5" fill="url(#linearGradient4599)" fill-opacity="1" stroke="#8c8c8c" stroke-linejoin="round" stroke-opacity="1" stroke-width="1"/><path id="path4812" fill="#000" fill-opacity="1" d="m 9.0001955,18 0,4.545717 0.00184,0 C 9.0489244,24.456234 13.506433,26 19.000184,26 c 5.494376,0 9.951249,-1.543766 9.9975,-3.454283 l 0.0023,0 0,-4.545717 -20,0 z" opacity=".3"/><path id="path3652" fill="url(#linearGradient5026)" fill-opacity="1" d="m 9.0001958,17.273531 0,4.330768 0.00184,0 c 0.04688,1.82017 4.5043322,3.290937 9.9980282,3.290937 5.494321,0 9.951151,-1.470767 9.997401,-3.290937 l 0.0023,0 0,-4.330768 -19.9998035,0 z"/><ellipse id="ellipse3654" cx="66" cy="67.131" fill="url(#linearGradient5220)" fill-opacity="1" rx="16" ry="5.131" transform="matrix(0.62499387,0,0,0.64705888,-22.249497,-26.117649)"/><path id="path3656" fill="url(#linearGradient5022)" fill-opacity="1" d="m 13.669524,20.158051 0,4.330768 C 15.212635,24.812351 17.039493,25 19.000096,25 c 1.58936,0 3.090597,-0.12353 4.424957,-0.34232 l 0.0032,-4.330768 -4.884326,-1.846703 -4.87433,1.67782 z"/><path id="path3658" fill="url(#linearGradient5019)" fill-opacity="1" d="m 19.000098,20.640115 c 1.590608,0 3.093095,-0.12298 4.428081,-0.34232 l -4.428081,-2.977756 -5.330574,2.809522 c 1.543111,0.32351 3.369969,0.51051 5.330574,0.51051 z"/><path id="path3660" fill="url(#linearGradient5016)" fill-opacity="1" d="m 23.428179,20.326296 -0.0032,4.330757 c 1.860604,-0.30602 3.393089,-0.79717 4.37683,-1.40282 l 0,-4.328183 -3.185594,0.323511 -1.188113,1.07668 z"/><path id="path3662" fill="url(#linearGradient5013)" fill-opacity="1" d="m 23.428179,20.297179 c 1.858108,-0.30602 3.389966,-0.79585 4.373707,-1.400235 l 0,0 -8.801788,-1.576883 4.428081,2.977118 z"/><path id="path3299-7" fill="url(#linearGradient5064)" fill-opacity="1" stroke="none" d="m 30.9375,13 0,1 2.34375,0 0,-1 -2.34375,0 z m 2.65625,0 0,1 2.21875,0 0,-1 -2.21875,0 z m 2.53125,0 0,1 1.96875,0 0,-1 -1.96875,0 z m 2.28125,0 0,1 0.59375,0 0,-1 -0.59375,0 z m -7.46875,2 0,1 3.6875,0 0,-1 -3.6875,0 z m 4.03125,0 0,1 1.78125,0 0,-1 -1.78125,0 z m 2.125,0 0,1 0.8125,0 0,-1 -0.8125,0 z m 1.15625,0 0,1 0.75,0 0,-1 -0.75,0 z m -7.3125,2 0,1 3.0625,0 0,-1 -3.0625,0 z m 3.375,0 0,1 4.6875,0 0,-1 -4.6875,0 z m -3.375,2 0,1 4.28125,0 0,-1 -4.28125,0 z m 4.625,0 0,1 3.4375,0 0,-1 -3.4375,0 z m -4.625,2 0,1 0.59375,0 0,-1 -0.59375,0 z m 0.90625,0 0,1 1.96875,0 0,-1 -1.96875,0 z m 2.28125,0 0,1 2.21875,0 0,-1 -2.21875,0 z m 2.53125,0 0,1 2.34375,0 0,-1 -2.34375,0 z m -5.71875,2 0,1 0.75,0 0,-1 -0.75,0 z m 1.09375,0 0,1 0.8125,0 0,-1 -0.8125,0 z m 1.15625,0 0,1 1.78125,0 0,-1 -1.78125,0 z m 2.125,0 0,1 3.6875,0 0,-1 -3.6875,0 z m -4.375,2 0,1 4.6875,0 0,-1 -4.6875,0 z m 5,0 0,1 3.0625,0 0,-1 -3.0625,0 z M 9,27 l 0,1 3.0625,0 0,-1 L 9,27 z m 3.375,0 0,1 5.09375,0 0,-1 -5.09375,0 z m 5.40625,0 0,1 2.46875,0 0,-1 -2.46875,0 z m 2.78125,0 0,1 2.3125,0 0,-1 -2.3125,0 z m 2.625,0 0,1 1.9375,0 0,-1 -1.9375,0 z m 2.28125,0 0,1 3.125,0 0,-1 -3.125,0 z m 3.4375,0 0,1 5.09375,0 0,-1 -5.09375,0 z m 5.71875,0 0,1 3.375,0 0,-1 -3.375,0 z m 3.84375,0 0,1 L 39,28 39,27 38.46875,27 z M 9,29 l 0,1 2.34375,0 0,-1 L 9,29 z m 2.65625,0 0,1 2.21875,0 0,-1 -2.21875,0 z m 2.53125,0 0,1 1.96875,0 0,-1 -1.96875,0 z m 2.28125,0 0,1 0.84375,0 0,-1 -0.84375,0 z m 1.1875,0 0,1 1.90625,0 0,-1 -1.90625,0 z m 2.21875,0 0,1 4.96875,0 0,-1 -4.96875,0 z m 5.28125,0 0,1 3.78125,0 0,-1 -3.78125,0 z m 4.09375,0 0,1 1.15625,0 0,-1 -1.15625,0 z m 1.46875,0 0,1 2.28125,0 0,-1 -2.28125,0 z m 2.75,0 0,1 0.84375,0 0,-1 -0.84375,0 z m 1.03125,0 0,1 1.625,0 0,-1 -1.625,0 z m 1.90625,0 0,1 2.59375,0 0,-1 -2.59375,0 z m -27.4375,2 0,1 4.28125,0 0,-1 -4.28125,0 z m 4.625,0 0,1 4.59375,0 0,-1 -4.59375,0 z m 4.90625,0 0,1 1.84375,0 0,-1 L 18.5,31 z m 2.1875,0 0,1 4.3125,0 0,-1 -4.3125,0 z m 4.65625,0 0,1 2.9375,0 0,-1 -2.9375,0 z m 3.28125,0 0,1 1.15625,0 0,-1 -1.15625,0 z m 1.5,0 0,1 0.65625,0 0,-1 -0.65625,0 z m 1,0 0,1 1.84375,0 0,-1 -1.84375,0 z m 2.84375,0 0,1 3.6875,0 0,-1 -3.6875,0 z m 3.96875,0 0,1 1.0625,0 0,-1 -1.0625,0 z" display="inline" opacity=".7"/><path id="path8836" fill="url(#radialGradient3093)" fill-opacity="1" fill-rule="evenodd" stroke="none" stroke-width="1" d="m 41,43 c 0,2.209139 -7.61116,4 -16.999999,4 C 14.611161,47 7,45.209139 7,43 7,40.790861 14.611161,39 24.000001,39 33.38884,39 41,40.790861 41,43 l 0,0 z" display="inline" opacity=".2" overflow="visible" visibility="visible" style="marker:none"/></svg>