<svg xmlns="http://www.w3.org/2000/svg" xmlns:svg="http://www.w3.org/2000/svg" xmlns:xlink="http://www.w3.org/1999/xlink" id="svg8332" width="48" height="48" version="1.1"><defs id="defs8334"><linearGradient id="linearGradient2491"><stop id="stop2493" offset="0" stop-color="#232d37" stop-opacity="1"/><stop id="stop3442" offset=".748" stop-color="#69737e" stop-opacity="1"/><stop id="stop2495" offset="1" stop-color="#b0bac5" stop-opacity="1"/></linearGradient><linearGradient id="linearGradient3444"><stop id="stop3446" offset="0" stop-color="#232d37" stop-opacity="1"/><stop id="stop3448" offset=".752" stop-color="#69737e" stop-opacity="1"/><stop id="stop3450" offset="1" stop-color="#b0bac5" stop-opacity="1"/></linearGradient><linearGradient id="linearGradient8284"><stop id="stop8286" offset="0" stop-color="#6a97b2" stop-opacity="1"/><stop id="stop8288" offset=".703" stop-color="#79a2ba" stop-opacity="1"/><stop id="stop8290" offset="1" stop-color="#c0d4df" stop-opacity="1"/></linearGradient><linearGradient id="linearGradient3434-533-916"><stop id="stop7411" offset="0" stop-color="#6a97b2" stop-opacity="1"/><stop id="stop7413" offset=".703" stop-color="#7fa6bd" stop-opacity="1"/><stop id="stop7415" offset="1" stop-color="#c0d4df" stop-opacity="1"/></linearGradient><linearGradient id="linearGradient3412"><stop id="stop3414" offset="0" stop-color="#77818a" stop-opacity="1"/><stop id="stop3416" offset=".671" stop-color="#909aa4" stop-opacity="1"/><stop id="stop3418" offset="1" stop-color="#d0d8dc" stop-opacity="1"/></linearGradient><linearGradient id="linearGradient3306"><stop id="stop3308" offset="0" stop-color="#fff" stop-opacity="1"/><stop id="stop3310" offset="1" stop-color="#fff" stop-opacity="0"/></linearGradient><linearGradient id="linearGradient2884" x1="24.574" x2="24.574" y1="35.224" y2="27.12" gradientTransform="translate(1,-2.874364)" gradientUnits="userSpaceOnUse" xlink:href="#linearGradient3306"/><linearGradient id="linearGradient2887" x1="30.355" x2="30.355" y1="20.887" y2="40.907" gradientTransform="translate(1,-2.874364)" gradientUnits="userSpaceOnUse" xlink:href="#linearGradient3412"/><linearGradient id="linearGradient2890" x1="23.085" x2="23.085" y1="22.874" y2="40.878" gradientTransform="translate(1,-2.874364)" gradientUnits="userSpaceOnUse" xlink:href="#linearGradient3434-533-916"/><linearGradient id="linearGradient2893" x1="30.355" x2="30.355" y1="21.152" y2="40.907" gradientTransform="translate(1,-2.874364)" gradientUnits="userSpaceOnUse" xlink:href="#linearGradient3412"/><linearGradient id="linearGradient2896" x1="23.085" x2="23.085" y1="18.922" y2="40.878" gradientTransform="translate(1,-2.874364)" gradientUnits="userSpaceOnUse" xlink:href="#linearGradient8284"/><linearGradient id="linearGradient2899" x1="16.111" x2="16.111" y1="15.091" y2="40.882" gradientTransform="translate(1,-2.874364)" gradientUnits="userSpaceOnUse" xlink:href="#linearGradient3444"/><linearGradient id="linearGradient2902" x1="16.111" x2="16.111" y1="15.091" y2="40.882" gradientTransform="translate(1,-2.874364)" gradientUnits="userSpaceOnUse" xlink:href="#linearGradient2491"/><linearGradient id="linearGradient4542"><stop id="stop4544" offset="0" stop-color="#000" stop-opacity="1"/><stop id="stop4546" offset="1" stop-color="#000" stop-opacity="0"/></linearGradient><linearGradient id="linearGradient3678"><stop id="stop3680" offset="0" stop-color="#fafafa" stop-opacity="1"/><stop id="stop3682" offset="1" stop-color="#c1c1c1" stop-opacity="1"/></linearGradient><linearGradient id="linearGradient3686"><stop id="stop3688" offset="0" stop-color="#aaa" stop-opacity="1"/><stop id="stop3690" offset="1" stop-color="#787878" stop-opacity="1"/></linearGradient><radialGradient id="radialGradient3283" cx="9.593" cy="9.328" r="21" fx="9.593" fy="9.328" gradientTransform="matrix(4.6589503,-0.03415135,0.01976147,2.6958736,-35.283534,-15.490384)" gradientUnits="userSpaceOnUse" xlink:href="#linearGradient3678"/><linearGradient id="linearGradient3285" x1="13.872" x2="13.622" y1="5.74" y2="34.835" gradientTransform="translate(2.1e-7,3.3291193e-4)" gradientUnits="userSpaceOnUse" xlink:href="#linearGradient3686"/><radialGradient id="radialGradient3288" cx="24.307" cy="42.078" r="15.822" fx="24.307" fy="42.078" gradientTransform="matrix(1.3905117,0,0,0.22121761,-9.7988818,34.191935)" gradientUnits="userSpaceOnUse" xlink:href="#linearGradient4542"/></defs><path id="path3667" fill="url(#radialGradient3288)" fill-opacity="1" fill-rule="evenodd" stroke="none" stroke-width="2" d="m 46,43.500334 a 22,3.5000002 0 0 1 -43.9999998,0 22,3.5000002 0 1 1 43.9999998,0 z" display="inline" opacity=".567" overflow="visible" visibility="visible" style="marker:none"/><rect stroke-linecap="butt" style="marker:none" id="rect4414" width="41" height="41" x="3.5" y="3.5" fill="url(#radialGradient3283)" fill-opacity="1" fill-rule="nonzero" stroke="url(#linearGradient3285)" stroke-dasharray="none" stroke-dashoffset="0" stroke-linejoin="miter" stroke-miterlimit="1" stroke-opacity="1" stroke-width="1" display="inline" enable-background="accumulate" overflow="visible" rx="1.15" ry="1.092" visibility="visible"/><path id="path3316" fill="url(#linearGradient2902)" fill-opacity="1" fill-rule="nonzero" stroke="none" stroke-width=".6" d="m 13,23.999984 3,0 0,14 -3,0 0,-14 z" display="inline" enable-background="accumulate" overflow="visible" visibility="visible" style="marker:none"/><path id="rect2474" fill="url(#linearGradient2899)" fill-opacity="1" fill-rule="nonzero" stroke="none" stroke-width=".6" d="m 17,11.999986 3,0 0,26 -3,0 0,-26 z" display="inline" enable-background="accumulate" overflow="visible" visibility="visible" style="marker:none"/><path id="path3320" fill="url(#linearGradient2896)" fill-opacity="1" fill-rule="nonzero" stroke="none" stroke-width=".6" d="m 21,15.999986 3,0 0,22 -3,0 0,-22 z" display="inline" enable-background="accumulate" overflow="visible" visibility="visible" style="marker:none"/><path id="rect2484" fill="url(#linearGradient2893)" fill-opacity="1" fill-rule="nonzero" stroke="none" stroke-width=".6" d="m 33,29.999984 3,0 0,8 -3,0 0,-8 z" display="inline" enable-background="accumulate" overflow="visible" visibility="visible" style="marker:none"/><path id="rect2478" fill="url(#linearGradient2890)" fill-opacity="1" fill-rule="nonzero" stroke="none" stroke-width=".6" d="m 25,19.999986 3,0 0,18 -3,0 0,-18 z" display="inline" enable-background="accumulate" overflow="visible" visibility="visible" style="marker:none"/><path id="path3324" fill="url(#linearGradient2887)" fill-opacity="1" fill-rule="nonzero" stroke="none" stroke-width=".6" d="m 29,17.999986 3,0 0,20 -3,0 0,-20 z" display="inline" enable-background="accumulate" overflow="visible" visibility="visible" style="marker:none"/><path id="path2522" fill="url(#linearGradient2884)" fill-opacity="1" fill-rule="nonzero" stroke="none" stroke-width=".6" d="m 26.5,24.250636 c -0.530839,0.01118 -1.006012,0.03489 -1.5,0.0625 l 0,6.09375 c 0.997693,0.53188 1.953314,1.060284 3,1.4375 l 0,-7.5625 c -0.498578,-0.0041 -1.031082,-0.04112 -1.5,-0.03125 z m 2.5,0.03125 0,7.84375 c 0.879502,0.205917 1.84741,0.289564 3,0.15625 l 0,-7.84375 c -1.049065,-0.07939 -2.055159,-0.130705 -3,-0.15625 z m -5.09375,0.09375 c -1.066657,0.088 -2.01594,0.252256 -2.90625,0.40625 l 0,4.1875 c 0.882505,0.136148 1.714399,0.324591 2.40625,0.625 0.208867,0.09069 0.394204,0.184936 0.59375,0.28125 l 0,-5.5 c -0.02932,0.0024 -0.06457,-0.0024 -0.09375,0 z M 20,24.969386 c -1.159607,0.244797 -2.142062,0.527332 -3,0.84375 l 0,2.9375 c 0.978334,-0.01608 2.004456,-0.0016 3,0.09375 l 0,-3.875 z m -4,1.25 c -1.426296,0.635227 -2.404906,1.301765 -3,1.84375 l 0,0.9375 c 0.693386,-0.08256 1.651559,-0.160507 3,-0.21875 l 0,-2.5625 z m 17,3.78125 0,2.125 c 0.893415,-0.181826 1.877353,-0.461058 3,-0.90625 l 0,-1.21875 -3,0 z" display="inline" enable-background="accumulate" opacity=".4" overflow="visible" visibility="visible" style="marker:none"/><path id="path4570" fill="none" stroke="#5b5b5b" stroke-dasharray="none" stroke-linecap="square" stroke-linejoin="miter" stroke-miterlimit="4" stroke-opacity="1" stroke-width="1" d="m 10.5,14.499985 2,-0.05566 m -2,4.055661 2,-0.05566 m -2,4.055661 2,-0.05566 m -2,4.055662 2,-0.05566 m -2,4.055662 2,-0.05566 m -2,4.055666 2,-0.05566 m 24,4.055663 -25,0 0,-27.5 m -1,-0.5 2,-0.05566" opacity=".4"/></svg>