<svg xmlns="http://www.w3.org/2000/svg" xmlns:svg="http://www.w3.org/2000/svg" xmlns:xlink="http://www.w3.org/1999/xlink" id="svg3486" width="32" height="32" version="1.0"><defs id="defs3488"><linearGradient id="linearGradient5048"><stop id="stop5050" offset="0" stop-color="#000" stop-opacity="0"/><stop id="stop5056" offset=".5" stop-color="#000" stop-opacity="1"/><stop id="stop5052" offset="1" stop-color="#000" stop-opacity="0"/></linearGradient><linearGradient id="linearGradient2690" x1="302.857" x2="302.857" y1="366.648" y2="609.505" gradientTransform="matrix(4.5769278e-2,0,0,8.2352934e-3,-0.5423243,26.980549)" gradientUnits="userSpaceOnUse" xlink:href="#linearGradient5048"/><radialGradient id="radialGradient2687" cx="605.714" cy="486.648" r="117.143" fx="605.714" fy="486.648" gradientTransform="matrix(-1.5663176e-2,0,0,8.2352934e-3,14.389566,26.980566)" gradientUnits="userSpaceOnUse" xlink:href="#linearGradient5060"/><linearGradient id="linearGradient5060"><stop id="stop5062" offset="0" stop-color="#000" stop-opacity="1"/><stop id="stop5064" offset="1" stop-color="#000" stop-opacity="0"/></linearGradient><radialGradient id="radialGradient2684" cx="605.714" cy="486.648" r="117.143" fx="605.714" fy="486.648" gradientTransform="matrix(1.566318e-2,0,0,8.2352934e-3,17.610433,26.980566)" gradientUnits="userSpaceOnUse" xlink:href="#linearGradient5060"/><linearGradient id="linearGradient2490-113-580"><stop id="stop5567" offset="0" stop-color="#71171c" stop-opacity="1"/><stop id="stop5569" offset="1" stop-color="#ed8137" stop-opacity="1"/></linearGradient><linearGradient id="linearGradient2680" x1="-51.786" x2="-51.786" y1="53.624" y2="2.906" gradientTransform="matrix(0.5306414,0,0,0.5897023,39.269604,-0.7919077)" gradientUnits="userSpaceOnUse" xlink:href="#linearGradient2490-113-580"/><linearGradient id="linearGradient5344-867"><stop id="stop5559" offset="0" stop-color="#f9c590" stop-opacity="1"/><stop id="stop5561" offset=".397" stop-color="#f19860" stop-opacity="1"/><stop id="stop5563" offset="1" stop-color="#ce5d36" stop-opacity="1"/></linearGradient><radialGradient id="radialGradient2677" cx="14.239" cy="11.49" r="18" fx="14.239" fy="11.49" gradientTransform="matrix(0,2.0947184,-3.4818923,0,48.982686,-24.860803)" gradientUnits="userSpaceOnUse" xlink:href="#linearGradient5344-867"/><linearGradient id="linearGradient3211"><stop id="stop3213" offset="0" stop-color="#fff" stop-opacity="1"/><stop id="stop3215" offset="1" stop-color="#fff" stop-opacity="0"/></linearGradient><linearGradient id="linearGradient2673" x1="24" x2="24" y1="2" y2="46.017" gradientTransform="matrix(0.6363646,0,0,0.6279076,0.7272514,0.9302159)" gradientUnits="userSpaceOnUse" xlink:href="#linearGradient3211"/><filter id="filter3212" width="1.297" height="1.329" x="-.148" y="-.164"><feGaussianBlur id="feGaussianBlur3214" stdDeviation=".774"/></filter><linearGradient id="linearGradient8589"><stop id="stop8591" offset="0" stop-color="#fefefe" stop-opacity="1"/><stop id="stop8593" offset="1" stop-color="#cbcbcb" stop-opacity="1"/></linearGradient><linearGradient id="linearGradient2669" x1="32.892" x2="36.358" y1="8.059" y2="5.457" gradientTransform="matrix(0.6371285,0,0,0.6445638,0.8296804,0.7445175)" gradientUnits="userSpaceOnUse" xlink:href="#linearGradient8589"/><linearGradient id="linearGradient4000-159-371"><stop id="stop5573" offset="0" stop-color="#000" stop-opacity="1"/><stop id="stop5575" offset="1" stop-color="#000" stop-opacity="0"/></linearGradient><linearGradient id="linearGradient3484" x1="75.854" x2="91" y1="28" y2="12" gradientTransform="matrix(0.7681661,0,0,0.5930025,-40.680372,5.2120293)" gradientUnits="userSpaceOnUse" spreadMethod="reflect" xlink:href="#linearGradient4000-159-371"/><linearGradient id="linearGradient8265-821-176-38-919-66-249"><stop id="stop2687" offset="0" stop-color="#fff" stop-opacity="1"/><stop id="stop2689" offset="1" stop-color="#fff" stop-opacity="0"/></linearGradient><linearGradient id="linearGradient2666" x1="16.626" x2="20.055" y1="15.298" y2="24.628" gradientTransform="matrix(0.4789115,0,0,0.9110951,4.5061223,-3.4380998)" gradientUnits="userSpaceOnUse" xlink:href="#linearGradient8265-821-176-38-919-66-249"/><linearGradient id="linearGradient5293-366-550"><stop id="stop5579" offset="0" stop-color="#fff" stop-opacity="1"/><stop id="stop5581" offset="1" stop-color="#fff" stop-opacity="0"/></linearGradient><linearGradient id="linearGradient3481" x1="75.854" x2="91" y1="28" y2="12" gradientTransform="matrix(0.7681661,0,0,0.5930025,-40.596895,4.1403442)" gradientUnits="userSpaceOnUse" spreadMethod="reflect" xlink:href="#linearGradient5293-366-550"/><linearGradient id="linearGradient4267"><stop id="stop4269" offset="0" stop-color="#c4c4c4" stop-opacity="1"/><stop id="stop4271" offset="1" stop-color="#c4c4c4" stop-opacity="0"/></linearGradient><linearGradient id="linearGradient2663" x1="35.517" x2="34.103" y1="4.858" y2="6.544" gradientTransform="matrix(0.637677,0,0,0.6601523,1.0364157,1.1698855)" gradientUnits="userSpaceOnUse" xlink:href="#linearGradient4267"/><linearGradient id="linearGradient3478" x1="53.4" x2="106.992" y1="70.079" y2="-18.244" gradientTransform="matrix(0.2684284,0,0,0.2078778,1.9501559,15.812257)" gradientUnits="userSpaceOnUse" spreadMethod="reflect" xlink:href="#linearGradient2490-113-373"/><linearGradient id="linearGradient2490-113-373"><stop id="stop5625" offset="0" stop-color="#71171c" stop-opacity="1"/><stop id="stop5627" offset="1" stop-color="#ec7422" stop-opacity="1"/></linearGradient><linearGradient id="linearGradient2612" x1="24.239" x2="24.239" y1="42.236" y2="1.598" gradientTransform="matrix(0.7071977,0,0,0.6425817,1.9187679,1.731565)" gradientUnits="userSpaceOnUse" xlink:href="#linearGradient2490-113-373"/></defs><g id="layer1"><rect id="rect2879" width="22.1" height="2" x="4.95" y="30" fill="url(#linearGradient2690)" fill-opacity="1" fill-rule="nonzero" stroke="none" stroke-dasharray="none" stroke-dashoffset="0" stroke-linecap="round" stroke-linejoin="miter" stroke-miterlimit="4" stroke-opacity="1" stroke-width="1" marker-end="none" marker-mid="none" marker-start="none" display="inline" opacity=".15" overflow="visible" visibility="visible" style="marker:none"/><path id="path2881" fill="url(#radialGradient2687)" fill-opacity="1" fill-rule="nonzero" stroke="none" stroke-dasharray="none" stroke-dashoffset="0" stroke-linecap="round" stroke-linejoin="miter" stroke-miterlimit="4" stroke-opacity="1" stroke-width="1" marker-end="none" marker-mid="none" marker-start="none" d="M 4.9499887,30.000087 C 4.9499887,30.000087 4.9499887,31.999977 4.9499887,31.999977 C 4.1433737,32.003743 2.9999867,31.551903 2.9999867,30.999903 C 2.9999867,30.447903 3.9001077,30.000087 4.9499887,30.000087 z" display="inline" opacity=".15" overflow="visible" visibility="visible" style="marker:none"/><path id="path2883" fill="url(#radialGradient2684)" fill-opacity="1" fill-rule="nonzero" stroke="none" stroke-dasharray="none" stroke-dashoffset="0" stroke-linecap="round" stroke-linejoin="miter" stroke-miterlimit="4" stroke-opacity="1" stroke-width="1" marker-end="none" marker-mid="none" marker-start="none" d="M 27.050011,30.000087 C 27.050011,30.000087 27.050011,31.999977 27.050011,31.999977 C 27.856625,32.003743 29.000013,31.551903 29.000013,30.999903 C 29.000013,30.447903 28.099891,30.000087 27.050011,30.000087 z" display="inline" opacity=".15" overflow="visible" visibility="visible" style="marker:none"/><path id="path4160" fill="url(#radialGradient2677)" fill-opacity="1" fill-rule="nonzero" stroke="url(#linearGradient2680)" stroke-dasharray="none" stroke-dashoffset="0" stroke-linecap="butt" stroke-linejoin="round" stroke-miterlimit="4" stroke-opacity="1" stroke-width="1" marker-end="none" marker-mid="none" marker-start="none" d="M 4.499961,1.4999609 C 9.7704453,1.4999609 15.04093,1.4999609 20.311419,1.4999609 C 21.235975,1.8127611 26.20301,5.3763851 27.50004,7.8438467 C 27.50004,15.395911 27.50004,22.947975 27.50004,30.50004 C 19.833346,30.50004 12.166654,30.50004 4.499961,30.50004 C 4.499961,20.833346 4.499961,11.166652 4.499961,1.4999609 z" display="inline" enable-background="accumulate" overflow="visible" visibility="visible" style="marker:none"/><path id="path2435" fill="none" fill-opacity="1" stroke="url(#linearGradient2673)" stroke-dasharray="none" stroke-dashoffset="0" stroke-linecap="butt" stroke-linejoin="miter" stroke-miterlimit="4" stroke-opacity="1" stroke-width="1" d="M 26.50004,8.1389757 C 26.50004,15.170208 26.50004,22.468805 26.50004,29.50004 C 19.500015,29.50004 12.499989,29.50004 5.4999611,29.50004 C 5.4999611,20.500011 5.4999611,11.499986 5.4999611,2.4999608 C 10.312145,2.4999608 15.239097,2.4999608 20.051281,2.4999608" display="inline" opacity=".4"/><path id="path12038" fill="#000" fill-opacity="1" fill-rule="evenodd" stroke="none" stroke-linecap="butt" stroke-linejoin="miter" stroke-opacity="1" stroke-width="1" d="M 28.617256,0.92125832 C 32.899778,0.92125832 30.770506,9.4044296 30.770506,9.4044296 C 30.770506,9.4044296 41.128148,7.6020829 41.128148,12.223174 C 41.128148,9.6134507 29.825844,1.4945784 28.617256,0.92125832 z" display="inline" filter="url(#filter3212)" opacity=".4" transform="matrix(0.6385981,0,0,0.6193639,0.7250758,1.4294058)"/><path id="path4474" fill="url(#linearGradient2669)" fill-opacity="1" fill-rule="evenodd" stroke="none" stroke-linecap="butt" stroke-linejoin="miter" stroke-opacity="1" stroke-width="1" d="M 19.000002,2.0000004 C 21.03489,2.0000004 20.491614,6.7454911 20.491614,6.7454911 C 20.491614,6.7454911 26.989432,6.1378635 26.989432,9 C 26.989432,8.3026345 27.044298,7.803237 26.904003,7.5856242 C 25.896098,6.0222381 21.542643,2.5140243 19.970553,2.0542158 C 19.85291,2.0198078 19.592053,2.0000004 19.000002,2.0000004 z" display="inline"/><path id="path3743" fill="url(#linearGradient3484)" fill-opacity="1" fill-rule="nonzero" stroke="none" stroke-dasharray="none" stroke-dashoffset="0" stroke-linecap="butt" stroke-linejoin="miter" stroke-miterlimit="4" stroke-opacity="1" stroke-width=".912" marker-end="none" marker-mid="none" marker-start="none" d="M 12.708335,11 C 10.138504,14.301846 7.5698335,17.607883 5.0000019,20.909729 C 5.0000019,24.271715 5.0000019,27.638014 5.0000019,31 C 11.104183,31 17.208321,31 23.312501,31 C 25.001345,28.830084 25.261659,28.49931 27.000001,26.265797 C 27.000001,23.216947 27.000001,20.179811 27.000001,17.118355 C 21.955911,14.958056 15.983868,12.402855 12.708335,11 z" display="inline" enable-background="accumulate" opacity=".1" overflow="visible" visibility="visible" style="marker:none"/><path id="path3879" fill="url(#linearGradient2666)" fill-opacity="1" fill-rule="evenodd" stroke="none" stroke-dasharray="none" stroke-dashoffset="0" stroke-linecap="round" stroke-linejoin="round" stroke-miterlimit="4" stroke-opacity="1" stroke-width="1.002" d="M 6.0476194,1.9999997 C 5.468961,1.9999997 5,2.8921644 5,3.9930194 L 5,18.570542 C 5.0013274,18.693177 5.0295958,18.809148 5.0779422,18.890304 C 5.1262898,18.971461 5.1902952,19.010383 5.2544217,18.997617 L 26.805441,12.506062 C 26.9163,12.472804 26.998449,12.292474 27,12.078987 L 27,8.1557258 C 27,8.1557258 19.989953,1.9999997 19.989953,1.9999997 L 6.0476194,1.9999997 z" opacity=".2"/><path id="path3697" fill="url(#linearGradient3481)" fill-opacity="1" fill-rule="nonzero" stroke="none" stroke-dasharray="none" stroke-dashoffset="0" stroke-linecap="butt" stroke-linejoin="miter" stroke-miterlimit="4" stroke-opacity="1" stroke-width=".912" marker-end="none" marker-mid="none" marker-start="none" d="M 12.708335,10 C 10.138504,13.301846 7.5698335,16.607884 5.0000019,19.90973 C 5.0000019,23.271716 5.0000019,26.638014 5.0000019,30 C 11.104183,30 17.208321,30 23.312501,30 C 25.001345,27.830085 25.261659,27.499311 27.000001,25.265798 C 27.000001,22.216948 27.000001,19.17981 27.000001,16.118355 C 21.955911,13.958056 15.983868,11.402855 12.708335,10 z" display="inline" enable-background="accumulate" opacity=".4" overflow="visible" visibility="visible" style="marker:none"/><path id="path3883" fill="none" stroke="url(#linearGradient2663)" stroke-dasharray="none" stroke-dashoffset="0" stroke-linecap="butt" stroke-linejoin="round" stroke-miterlimit="4" stroke-opacity="1" stroke-width="1" d="M 20.287334,1.4703325 C 21.184503,1.7836753 26.241429,5.3812625 27.500039,7.853006 C 27.500039,15.418176 27.500039,8.397987 27.500039,15.963157 C 1.7086648,26.346645 4.7940469,1.4703325 20.287334,1.4703325 z" display="inline"/><path id="path5975" fill="url(#linearGradient3478)" fill-opacity="1" fill-rule="nonzero" stroke="none" stroke-dasharray="none" stroke-dashoffset="0" stroke-linecap="butt" stroke-linejoin="miter" stroke-miterlimit="4" stroke-opacity="1" stroke-width=".912" marker-end="none" marker-mid="none" marker-start="none" d="M 17.897571,19.701784 C 16.467348,21.434747 17.035424,23.611232 19.165596,24.56001 C 21.295768,25.508787 24.185364,24.872346 25.615586,23.139383 C 27.045809,21.406419 26.477734,19.229934 24.347563,18.281157 C 22.217391,17.33238 19.327794,17.96882 17.897571,19.701784 z M 21.756579,21.420584 L 24.203619,18.45557 C 25.880144,19.202293 26.561521,20.707994 25.908155,22.218693 L 21.756579,21.420584 z" display="inline" enable-background="accumulate" opacity=".3" overflow="visible" visibility="visible" style="marker:none"/><path id="path3462" fill="#fff" fill-opacity="1" stroke="none" stroke-linecap="butt" stroke-linejoin="miter" stroke-opacity="1" stroke-width="1" d="M 14.266413,17.589664 C 15.290555,17.596248 16.477986,17.631196 17.224826,16.883242 C 17.796473,16.211689 17.802695,15.242398 17.490837,14.472448 C 17.086856,13.593083 15.926432,13.409883 14.98967,13.434514 C 14.748584,13.434514 14.507499,13.434514 14.266413,13.434514 C 14.266413,14.819564 14.266413,16.204614 14.266413,17.589664 z M 20.99944,15.368476 C 21.020837,16.771713 20.429594,18.260637 19.097043,19.05884 C 17.720168,19.936518 15.989305,20.057465 14.359611,20.021479 C 14.156646,20.041605 14.317993,20.392755 14.266413,20.550436 C 14.266413,22.033624 14.266413,23.516811 14.266413,25 C 13.177609,25 12.088805,25 11,25 C 11,20.334233 11,15.668465 11,11.002697 C 12.693615,11.014336 14.388484,10.976769 16.081139,11.026941 C 17.703059,11.11818 19.478328,11.631991 20.357509,12.965841 C 20.83114,13.685362 20.999552,14.539308 20.999438,15.368477 L 20.99944,15.368476 z" font-family="Droid Sans" font-size="31.585" font-stretch="normal" font-style="normal" font-variant="normal" font-weight="bold" opacity=".4" style="-inkscape-font-specification:Droid Sans Bold"/><path id="path2605" fill="url(#linearGradient2612)" fill-opacity="1" stroke="none" stroke-linecap="butt" stroke-linejoin="miter" stroke-opacity="1" stroke-width="1" d="M 14.266413,16.589664 C 15.290555,16.596248 16.477986,16.631196 17.224826,15.883242 C 17.796473,15.211689 17.802695,14.242398 17.490837,13.472448 C 17.086856,12.593083 15.926432,12.409883 14.98967,12.434514 C 14.748584,12.434514 14.507499,12.434514 14.266413,12.434514 C 14.266413,13.819564 14.266413,15.204614 14.266413,16.589664 z M 20.99944,14.368476 C 21.020837,15.771713 20.429594,17.260637 19.097043,18.05884 C 17.720168,18.936518 15.989305,19.057465 14.359611,19.021479 C 14.156646,19.041605 14.317993,19.392755 14.266413,19.550436 C 14.266413,21.033624 14.266413,22.516811 14.266413,24 C 13.177609,24 12.088805,24 11,24 C 11,19.334233 11,14.668465 11,10.002697 C 12.693615,10.014336 14.388484,9.976769 16.081139,10.026941 C 17.703059,10.11818 19.478328,10.631991 20.357509,11.965841 C 20.83114,12.685362 20.999552,13.539308 20.999438,14.368477 L 20.99944,14.368476 z" font-family="Droid Sans" font-size="31.585" font-stretch="normal" font-style="normal" font-variant="normal" font-weight="bold" style="-inkscape-font-specification:Droid Sans Bold"/></g></svg>