<svg xmlns="http://www.w3.org/2000/svg" xmlns:svg="http://www.w3.org/2000/svg" xmlns:xlink="http://www.w3.org/1999/xlink" id="svg3498" width="32" height="32" version="1.0"><defs id="defs3500"><linearGradient id="linearGradient5048"><stop id="stop5050" offset="0" stop-color="#000" stop-opacity="0"/><stop id="stop5056" offset=".5" stop-color="#000" stop-opacity="1"/><stop id="stop5052" offset="1" stop-color="#000" stop-opacity="0"/></linearGradient><linearGradient id="linearGradient2679" x1="302.857" x2="302.857" y1="366.648" y2="609.505" gradientTransform="matrix(4.5769278e-2,0,0,8.2352934e-3,-0.5423243,26.980549)" gradientUnits="userSpaceOnUse" xlink:href="#linearGradient5048"/><radialGradient id="radialGradient2676" cx="605.714" cy="486.648" r="117.143" fx="605.714" fy="486.648" gradientTransform="matrix(-1.5663176e-2,0,0,8.2352934e-3,14.389566,26.980566)" gradientUnits="userSpaceOnUse" xlink:href="#linearGradient5060"/><linearGradient id="linearGradient5060"><stop id="stop5062" offset="0" stop-color="#000" stop-opacity="1"/><stop id="stop5064" offset="1" stop-color="#000" stop-opacity="0"/></linearGradient><radialGradient id="radialGradient2673" cx="605.714" cy="486.648" r="117.143" fx="605.714" fy="486.648" gradientTransform="matrix(1.566318e-2,0,0,8.2352934e-3,17.610433,26.980566)" gradientUnits="userSpaceOnUse" xlink:href="#linearGradient5060"/><linearGradient id="linearGradient4711-257"><stop id="stop4963" offset="0" stop-color="#643340" stop-opacity="1"/><stop id="stop4965" offset="1" stop-color="#a77a86" stop-opacity="1"/></linearGradient><linearGradient id="linearGradient2685" x1="-51.786" x2="-51.786" y1="53.624" y2="2.906" gradientTransform="matrix(0.5306414,0,0,0.5897023,39.269604,-0.7919077)" gradientUnits="userSpaceOnUse" xlink:href="#linearGradient4711-257"/><linearGradient id="linearGradient4145-42"><stop id="stop4953" offset="0" stop-color="#e694bb" stop-opacity="1"/><stop id="stop4955" offset=".262" stop-color="#d3819a" stop-opacity="1"/><stop id="stop4957" offset=".705" stop-color="#b25a64" stop-opacity="1"/><stop id="stop4959" offset="1" stop-color="#98313d" stop-opacity="1"/></linearGradient><radialGradient id="radialGradient2683" cx="14.239" cy="11.49" r="18" fx="14.239" fy="11.49" gradientTransform="matrix(0,2.0947184,-3.4818923,0,48.982686,-24.860803)" gradientUnits="userSpaceOnUse" xlink:href="#linearGradient4145-42"/><linearGradient id="linearGradient3211"><stop id="stop3213" offset="0" stop-color="#fff" stop-opacity="1"/><stop id="stop3215" offset="1" stop-color="#fff" stop-opacity="0"/></linearGradient><linearGradient id="linearGradient2662" x1="24" x2="24" y1="2" y2="46.017" gradientTransform="matrix(0.6363646,0,0,0.6279076,0.7272514,0.9302159)" gradientUnits="userSpaceOnUse" xlink:href="#linearGradient3211"/><filter id="filter3212" width="1.297" height="1.329" x="-.148" y="-.164"><feGaussianBlur id="feGaussianBlur3214" stdDeviation=".774"/></filter><linearGradient id="linearGradient8589"><stop id="stop8591" offset="0" stop-color="#fefefe" stop-opacity="1"/><stop id="stop8593" offset="1" stop-color="#cbcbcb" stop-opacity="1"/></linearGradient><linearGradient id="linearGradient2658" x1="32.892" x2="36.358" y1="8.059" y2="5.457" gradientTransform="matrix(0.6371285,0,0,0.6445638,0.8296804,0.7445175)" gradientUnits="userSpaceOnUse" xlink:href="#linearGradient8589"/><linearGradient id="linearGradient8265-821-176-38-919-66-249"><stop id="stop2687" offset="0" stop-color="#fff" stop-opacity="1"/><stop id="stop2689" offset="1" stop-color="#fff" stop-opacity="0"/></linearGradient><linearGradient id="linearGradient2632" x1="16.626" x2="20.055" y1="15.298" y2="24.628" gradientTransform="matrix(0.4789115,0,0,0.9110951,4.5061223,-3.4380998)" gradientUnits="userSpaceOnUse" xlink:href="#linearGradient8265-821-176-38-919-66-249"/><linearGradient id="linearGradient4267"><stop id="stop4269" offset="0" stop-color="#c4c4c4" stop-opacity="1"/><stop id="stop4271" offset="1" stop-color="#c4c4c4" stop-opacity="0"/></linearGradient><linearGradient id="linearGradient2626" x1="35.517" x2="34.103" y1="4.858" y2="6.544" gradientTransform="matrix(0.637677,0,0,0.6601523,1.0364157,1.1698855)" gradientUnits="userSpaceOnUse" xlink:href="#linearGradient4267"/><linearGradient id="linearGradient4000"><stop id="stop4002" offset="0" stop-color="#000" stop-opacity="1"/><stop id="stop4004" offset="1" stop-color="#000" stop-opacity="0"/></linearGradient><linearGradient id="linearGradient3490" x1="75.854" x2="91" y1="28" y2="12" gradientTransform="matrix(0.7709445,0,0,0.6022043,-40.764972,4.5056064)" gradientUnits="userSpaceOnUse" spreadMethod="reflect" xlink:href="#linearGradient4000"/><linearGradient id="linearGradient5293"><stop id="stop5295" offset="0" stop-color="#fff" stop-opacity="1"/><stop id="stop5297" offset="1" stop-color="#fff" stop-opacity="0"/></linearGradient><linearGradient id="linearGradient3488" x1="75.854" x2="91" y1="28" y2="12" gradientTransform="matrix(0.7709445,0,0,0.6022043,-40.764972,3.777637)" gradientUnits="userSpaceOnUse" spreadMethod="reflect" xlink:href="#linearGradient5293"/><linearGradient id="linearGradient4106"><stop id="stop4108" offset="0" stop-color="#51293c" stop-opacity="1"/><stop id="stop4110" offset="1" stop-color="#876374" stop-opacity="1"/></linearGradient><linearGradient id="linearGradient3492" x1="24.239" x2="24.239" y1="44.11" y2=".191" gradientTransform="matrix(0.6051105,0,0,0.6400787,3.8885897,1.8183067)" gradientUnits="userSpaceOnUse" xlink:href="#linearGradient4106"/></defs><g id="layer1"><rect id="rect2879" width="22.1" height="2" x="4.95" y="30" fill="url(#linearGradient2679)" fill-opacity="1" fill-rule="nonzero" stroke="none" stroke-dasharray="none" stroke-dashoffset="0" stroke-linecap="round" stroke-linejoin="miter" stroke-miterlimit="4" stroke-opacity="1" stroke-width="1" marker-end="none" marker-mid="none" marker-start="none" display="inline" opacity=".15" overflow="visible" visibility="visible" style="marker:none"/><path id="path2881" fill="url(#radialGradient2676)" fill-opacity="1" fill-rule="nonzero" stroke="none" stroke-dasharray="none" stroke-dashoffset="0" stroke-linecap="round" stroke-linejoin="miter" stroke-miterlimit="4" stroke-opacity="1" stroke-width="1" marker-end="none" marker-mid="none" marker-start="none" d="M 4.9499887,30.000087 C 4.9499887,30.000087 4.9499887,31.999977 4.9499887,31.999977 C 4.1433737,32.003743 2.9999867,31.551903 2.9999867,30.999903 C 2.9999867,30.447903 3.9001077,30.000087 4.9499887,30.000087 z" display="inline" opacity=".15" overflow="visible" visibility="visible" style="marker:none"/><path id="path2883" fill="url(#radialGradient2673)" fill-opacity="1" fill-rule="nonzero" stroke="none" stroke-dasharray="none" stroke-dashoffset="0" stroke-linecap="round" stroke-linejoin="miter" stroke-miterlimit="4" stroke-opacity="1" stroke-width="1" marker-end="none" marker-mid="none" marker-start="none" d="M 27.050011,30.000087 C 27.050011,30.000087 27.050011,31.999977 27.050011,31.999977 C 27.856625,32.003743 29.000013,31.551903 29.000013,30.999903 C 29.000013,30.447903 28.099891,30.000087 27.050011,30.000087 z" display="inline" opacity=".15" overflow="visible" visibility="visible" style="marker:none"/><path id="path4160" fill="url(#radialGradient2683)" fill-opacity="1" fill-rule="nonzero" stroke="url(#linearGradient2685)" stroke-dasharray="none" stroke-dashoffset="0" stroke-linecap="butt" stroke-linejoin="round" stroke-miterlimit="4" stroke-opacity="1" stroke-width="1" marker-end="none" marker-mid="none" marker-start="none" d="M 4.499961,1.4999609 C 9.7704453,1.4999609 15.04093,1.4999609 20.311419,1.4999609 C 21.235975,1.8127611 26.20301,5.3763851 27.50004,7.8438467 C 27.50004,15.395911 27.50004,22.947975 27.50004,30.50004 C 19.833346,30.50004 12.166654,30.50004 4.499961,30.50004 C 4.499961,20.833346 4.499961,11.166652 4.499961,1.4999609 z" display="inline" enable-background="accumulate" opacity="1" overflow="visible" visibility="visible" style="marker:none"/><path id="path2435" fill="none" fill-opacity="1" stroke="url(#linearGradient2662)" stroke-dasharray="none" stroke-dashoffset="0" stroke-linecap="butt" stroke-linejoin="miter" stroke-miterlimit="4" stroke-opacity="1" stroke-width="1" d="M 26.50004,8.1389757 C 26.50004,15.170208 26.50004,22.468805 26.50004,29.50004 C 19.500015,29.50004 12.499989,29.50004 5.4999611,29.50004 C 5.4999611,20.500011 5.4999611,11.499986 5.4999611,2.4999608 C 10.312145,2.4999608 15.239097,2.4999608 20.051281,2.4999608" display="inline" opacity=".4"/><path id="path12038" fill="#000" fill-opacity="1" fill-rule="evenodd" stroke="none" stroke-linecap="butt" stroke-linejoin="miter" stroke-opacity="1" stroke-width="1" d="M 28.617256,0.92125832 C 32.899778,0.92125832 30.770506,9.4044296 30.770506,9.4044296 C 30.770506,9.4044296 41.128148,7.6020829 41.128148,12.223174 C 41.128148,9.6134507 29.825844,1.4945784 28.617256,0.92125832 z" display="inline" filter="url(#filter3212)" opacity=".4" transform="matrix(0.6385981,0,0,0.6193639,0.7250758,1.4294058)"/><path id="path4474" fill="url(#linearGradient2658)" fill-opacity="1" fill-rule="evenodd" stroke="none" stroke-linecap="butt" stroke-linejoin="miter" stroke-opacity="1" stroke-width="1" d="M 19.000002,2.0000004 C 21.03489,2.0000004 20.491614,6.7454911 20.491614,6.7454911 C 20.491614,6.7454911 26.989432,6.1378635 26.989432,9 C 26.989432,8.3026345 27.044298,7.803237 26.904003,7.5856242 C 25.896098,6.0222381 21.542643,2.5140243 19.970553,2.0542158 C 19.85291,2.0198078 19.592053,2.0000004 19.000002,2.0000004 z" display="inline"/><path id="path3879" fill="url(#linearGradient2632)" fill-opacity="1" fill-rule="evenodd" stroke="none" stroke-dasharray="none" stroke-dashoffset="0" stroke-linecap="round" stroke-linejoin="round" stroke-miterlimit="4" stroke-opacity="1" stroke-width="1.002" d="M 6.0476194,1.9999997 C 5.468961,1.9999997 5,2.8921644 5,3.9930194 L 5,18.570542 C 5.0013274,18.693177 5.0295958,18.809148 5.0779422,18.890304 C 5.1262898,18.971461 5.1902952,19.010383 5.2544217,18.997617 L 26.805441,12.506062 C 26.9163,12.472804 26.998449,12.292474 27,12.078987 L 27,8.1557258 C 27,8.1557258 19.989953,1.9999997 19.989953,1.9999997 L 6.0476194,1.9999997 z" opacity=".2"/><path id="path3883" fill="none" stroke="url(#linearGradient2626)" stroke-dasharray="none" stroke-dashoffset="0" stroke-linecap="butt" stroke-linejoin="round" stroke-miterlimit="4" stroke-opacity="1" stroke-width="1" d="M 20.287334,1.4703325 C 21.184503,1.7836753 26.241429,5.3812625 27.500039,7.853006 C 27.500039,15.418176 27.500039,8.397987 27.500039,15.963157 C 1.7086648,26.346645 4.7940469,1.4703325 20.287334,1.4703325 z" display="inline"/><path id="path5316" fill="url(#linearGradient3490)" fill-opacity="1" fill-rule="nonzero" stroke="none" stroke-dasharray="none" stroke-dashoffset="0" stroke-linecap="butt" stroke-linejoin="miter" stroke-miterlimit="4" stroke-opacity="1" stroke-width=".912" marker-end="none" marker-mid="none" marker-start="none" d="M 21.974537,11.732059 C 21.691381,11.721013 21.409234,11.73355 21.13327,11.755221 C 18.704792,11.945928 16.605204,13.383781 15.797865,15.669549 C 15.300393,17.078024 15.399807,18.569989 15.930697,19.954465 L 5,29.344828 L 5,30 L 11.466098,30 L 11.325867,28.200033 L 14.890183,28.894884 L 15.310815,25.675406 L 18.653746,26.370258 L 20.845468,24.540482 C 23.083654,25.252092 25.354847,24.888557 27,23.70666 C 27,21.130203 27,18.577749 27,15.993812 C 26.728428,16.060767 26.413287,16.044206 26.114457,15.924329 C 25.38492,15.631667 24.972845,14.849506 25.206774,14.187199 C 25.382218,13.690475 25.885736,13.368495 26.424396,13.37654 C 26.603949,13.379223 26.795477,13.419184 26.977862,13.492349 C 26.987736,13.49631 26.990253,13.511372 27,13.51551 C 27,13.112888 27,12.713079 27,12.311102 C 26.287268,12.123161 25.569738,12.199627 25.007526,12.519557 C 24.854902,12.44692 24.723694,12.351701 24.564754,12.28794 C 23.706414,11.94361 22.824003,11.765196 21.974537,11.732059 z" display="inline" enable-background="accumulate" opacity=".1" overflow="visible" visibility="visible" style="marker:none"/><path id="path5283" fill="url(#linearGradient3488)" fill-opacity="1" fill-rule="nonzero" stroke="none" stroke-dasharray="none" stroke-dashoffset="0" stroke-linecap="butt" stroke-linejoin="miter" stroke-miterlimit="4" stroke-opacity="1" stroke-width=".912" marker-end="none" marker-mid="none" marker-start="none" d="M 21.974537,11.00409 C 21.691381,10.993043 21.409234,11.00558 21.13327,11.027251 C 18.704792,11.217959 16.605204,12.65581 15.797865,14.941579 C 15.300393,16.350053 15.399807,17.842019 15.930697,19.226496 L 5,28.689656 C 5,28.689656 5.0299162,30 5.0299162,30 C 7.1949837,30 9.3600423,30 11.525114,30 L 11.325867,27.472063 L 14.890183,28.166913 L 15.310815,24.947437 L 18.653746,25.642288 L 20.845468,23.812512 C 23.083654,24.524122 25.354847,24.160587 27,22.978692 C 27,20.402235 27,17.84978 27,15.265844 C 26.728428,15.332797 26.413287,15.316237 26.114457,15.196359 C 25.38492,14.903698 24.972845,14.121537 25.206774,13.459231 C 25.382218,12.962505 25.885736,12.640528 26.424396,12.64857 C 26.603949,12.651252 26.795477,12.691215 26.977862,12.764379 C 26.987736,12.76834 26.990253,12.783402 27,12.787541 C 27,12.384919 27,11.985109 27,11.583132 C 26.287268,11.395192 25.569738,11.471657 25.007526,11.791587 C 24.854902,11.718951 24.723694,11.623732 24.564754,11.55997 C 23.706414,11.215641 22.824003,11.037226 21.974537,11.00409 z" display="inline" enable-background="accumulate" opacity=".4" overflow="visible" visibility="visible" style="marker:none"/><path marker-start="none" style="marker:none;-inkscape-font-specification:Droid Sans Bold" id="path3496" fill="#fff" fill-opacity="1" fill-rule="nonzero" stroke="none" stroke-dasharray="none" stroke-dashoffset="0" stroke-linecap="butt" stroke-linejoin="miter" stroke-miterlimit="4" stroke-opacity="1" stroke-width="1" marker-end="none" marker-mid="none" d="M 19.178062,25 C 18.877536,23.893733 18.57701,23.106268 18.276484,22 C 16.761834,22 15.247183,22 13.732532,22 C 13.429001,23.106268 13.12547,23.893733 12.821939,25 C 11.881292,25 10.940646,25 10,25 C 11.427498,20.333333 12.854996,15.666667 14.282495,11 C 15.421488,11 16.560481,11 17.699474,11 C 19.132983,15.666667 20.566491,20.333333 22,25 C 21.059354,25 20.118708,25 19.178062,25 z M 17.627349,19 C 17.132091,17.15113 16.561603,15.525765 16.131713,13.658234 C 16.048665,13.376928 16.011946,12.628834 15.935196,13.322214 C 15.515395,15.306662 14.93655,17.045882 14.408716,19 C 15.481593,19 16.554471,19 17.627349,19 z" display="inline" enable-background="accumulate" font-family="Droid Sans" font-size="30.514" font-stretch="normal" font-style="normal" font-variant="normal" font-weight="bold" opacity=".4" overflow="visible" visibility="visible"/><path id="text3893" fill="url(#linearGradient3492)" fill-opacity="1" stroke="none" stroke-linecap="butt" stroke-linejoin="miter" stroke-opacity="1" stroke-width="1" d="M 19.178062,24 C 18.877536,22.893733 18.57701,22.106268 18.276484,21 C 16.761834,21 15.247183,21 13.732532,21 C 13.429001,22.106268 13.12547,22.893733 12.821939,24 C 11.881292,24 10.940646,24 10,24 C 11.427498,19.333333 12.854996,14.666667 14.282495,10 C 15.421488,10 16.560481,10 17.699474,10 C 19.132983,14.666667 20.566491,19.333333 22,24 C 21.059354,24 20.118708,24 19.178062,24 z M 17.627349,18 C 17.132091,16.15113 16.561603,14.525765 16.131713,12.658234 C 16.048665,12.376928 16.011946,11.628834 15.935196,12.322214 C 15.515395,14.306662 14.93655,16.045882 14.408716,18 C 15.481593,18 16.554471,18 17.627349,18 z" font-family="Droid Sans" font-size="30.514" font-stretch="normal" font-style="normal" font-variant="normal" font-weight="bold" style="-inkscape-font-specification:Droid Sans Bold"/></g></svg>