<svg xmlns="http://www.w3.org/2000/svg" xmlns:svg="http://www.w3.org/2000/svg" xmlns:xlink="http://www.w3.org/1999/xlink" id="svg3520" width="32" height="32" version="1.0"><defs id="defs3522"><linearGradient id="linearGradient5048"><stop id="stop5050" offset="0" stop-color="#000" stop-opacity="0"/><stop id="stop5056" offset=".5" stop-color="#000" stop-opacity="1"/><stop id="stop5052" offset="1" stop-color="#000" stop-opacity="0"/></linearGradient><linearGradient id="linearGradient3443" x1="302.857" x2="302.857" y1="366.648" y2="609.505" gradientTransform="matrix(4.5769278e-2,0,0,8.2352934e-3,-0.5423243,26.980549)" gradientUnits="userSpaceOnUse" xlink:href="#linearGradient5048"/><radialGradient id="radialGradient3440" cx="605.714" cy="486.648" r="117.143" fx="605.714" fy="486.648" gradientTransform="matrix(-1.5663176e-2,0,0,8.2352934e-3,14.389566,26.980566)" gradientUnits="userSpaceOnUse" xlink:href="#linearGradient5060"/><linearGradient id="linearGradient5060"><stop id="stop5062" offset="0" stop-color="#000" stop-opacity="1"/><stop id="stop5064" offset="1" stop-color="#000" stop-opacity="0"/></linearGradient><radialGradient id="radialGradient3437" cx="605.714" cy="486.648" r="117.143" fx="605.714" fy="486.648" gradientTransform="matrix(1.566318e-2,0,0,8.2352934e-3,17.610433,26.980566)" gradientUnits="userSpaceOnUse" xlink:href="#linearGradient5060"/><linearGradient id="linearGradient4711-257-850-696-320-311-361-101-393"><stop id="stop5651" offset="0" stop-color="#425a2d" stop-opacity="1"/><stop id="stop5653" offset="1" stop-color="#7f956d" stop-opacity="1"/></linearGradient><linearGradient id="linearGradient3434" x1="-51.786" x2="-51.786" y1="53.624" y2="2.906" gradientTransform="matrix(0.5306414,0,0,0.5897023,39.269604,-0.7919077)" gradientUnits="userSpaceOnUse" xlink:href="#linearGradient4711-257-850-696-320-311-361-101-393"/><linearGradient id="linearGradient4145-42-322-778-541-32-432-871-622"><stop id="stop5641" offset="0" stop-color="#b5cc85" stop-opacity="1"/><stop id="stop5643" offset=".262" stop-color="#9abe74" stop-opacity="1"/><stop id="stop5645" offset=".705" stop-color="#669f4d" stop-opacity="1"/><stop id="stop5647" offset="1" stop-color="#47892b" stop-opacity="1"/></linearGradient><radialGradient id="radialGradient3432" cx="14.239" cy="11.49" r="18" fx="14.239" fy="11.49" gradientTransform="matrix(0,2.0947184,-3.4818923,0,48.982686,-24.860803)" gradientUnits="userSpaceOnUse" xlink:href="#linearGradient4145-42-322-778-541-32-432-871-622"/><linearGradient id="linearGradient3211"><stop id="stop3213" offset="0" stop-color="#fff" stop-opacity="1"/><stop id="stop3215" offset="1" stop-color="#fff" stop-opacity="0"/></linearGradient><linearGradient id="linearGradient3429" x1="24" x2="24" y1="2" y2="46.017" gradientTransform="matrix(0.6363646,0,0,0.6279076,0.7272514,0.9302159)" gradientUnits="userSpaceOnUse" xlink:href="#linearGradient3211"/><filter id="filter3212" width="1.297" height="1.329" x="-.148" y="-.164"><feGaussianBlur id="feGaussianBlur3214" stdDeviation=".774"/></filter><linearGradient id="linearGradient8589"><stop id="stop8591" offset="0" stop-color="#fefefe" stop-opacity="1"/><stop id="stop8593" offset="1" stop-color="#cbcbcb" stop-opacity="1"/></linearGradient><linearGradient id="linearGradient3425" x1="32.892" x2="36.358" y1="8.059" y2="5.457" gradientTransform="matrix(0.6371285,0,0,0.6445638,0.8296804,0.7445175)" gradientUnits="userSpaceOnUse" xlink:href="#linearGradient8589"/><linearGradient id="linearGradient8265-821-176-38-919-66-249"><stop id="stop2687" offset="0" stop-color="#fff" stop-opacity="1"/><stop id="stop2689" offset="1" stop-color="#fff" stop-opacity="0"/></linearGradient><linearGradient id="linearGradient3422" x1="16.626" x2="20.055" y1="15.298" y2="24.628" gradientTransform="matrix(0.4789115,0,0,0.9110951,4.5061223,-3.4380998)" gradientUnits="userSpaceOnUse" xlink:href="#linearGradient8265-821-176-38-919-66-249"/><linearGradient id="linearGradient4267"><stop id="stop4269" offset="0" stop-color="#c4c4c4" stop-opacity="1"/><stop id="stop4271" offset="1" stop-color="#c4c4c4" stop-opacity="0"/></linearGradient><linearGradient id="linearGradient3419" x1="35.517" x2="34.103" y1="4.858" y2="6.544" gradientTransform="matrix(0.637677,0,0,0.6601523,1.0364157,1.1698855)" gradientUnits="userSpaceOnUse" xlink:href="#linearGradient4267"/><linearGradient id="linearGradient4000"><stop id="stop4002" offset="0" stop-color="#000" stop-opacity="1"/><stop id="stop4004" offset="1" stop-color="#000" stop-opacity="0"/></linearGradient><linearGradient id="linearGradient3514" x1="75.854" x2="91" y1="28" y2="12" gradientTransform="matrix(0.7681661,0,0,0.5930025,-40.680373,5.2120319)" gradientUnits="userSpaceOnUse" spreadMethod="reflect" xlink:href="#linearGradient4000"/><linearGradient id="linearGradient5293"><stop id="stop5295" offset="0" stop-color="#fff" stop-opacity="1"/><stop id="stop5297" offset="1" stop-color="#fff" stop-opacity="0"/></linearGradient><linearGradient id="linearGradient3511" x1="75.854" x2="91" y1="28" y2="12" gradientTransform="matrix(0.7681661,0,0,0.5930025,-40.596896,4.1403447)" gradientUnits="userSpaceOnUse" spreadMethod="reflect" xlink:href="#linearGradient5293"/><linearGradient id="linearGradient3759"><stop id="stop3761" offset="0" stop-color="#000" stop-opacity="1"/><stop id="stop3763" offset="1" stop-color="#000" stop-opacity="0"/></linearGradient><linearGradient id="linearGradient3508" x1="-43.305" x2="-25.366" y1="34.497" y2="20.127" gradientTransform="matrix(0.6470588,0,0,0.6561933,45.476234,-1.1613837)" gradientUnits="userSpaceOnUse" spreadMethod="reflect" xlink:href="#linearGradient3759"/><linearGradient id="linearGradient2611"><stop id="stop2613" offset="0" stop-color="#355129" stop-opacity="1"/><stop id="stop2615" offset="1" stop-color="#7c8763" stop-opacity="1"/></linearGradient><linearGradient id="linearGradient3504" x1="24.239" x2="24.239" y1="44.11" y2=".191" gradientTransform="matrix(0.62726,0,0,0.6427056,3.6648879,1.7272733)" gradientUnits="userSpaceOnUse" xlink:href="#linearGradient2611"/></defs><g id="layer1"><rect id="rect2879" width="22.1" height="2" x="4.95" y="30" fill="url(#linearGradient3443)" fill-opacity="1" fill-rule="nonzero" stroke="none" stroke-dasharray="none" stroke-dashoffset="0" stroke-linecap="round" stroke-linejoin="miter" stroke-miterlimit="4" stroke-opacity="1" stroke-width="1" marker-end="none" marker-mid="none" marker-start="none" display="inline" opacity=".15" overflow="visible" visibility="visible" style="marker:none"/><path id="path2881" fill="url(#radialGradient3440)" fill-opacity="1" fill-rule="nonzero" stroke="none" stroke-dasharray="none" stroke-dashoffset="0" stroke-linecap="round" stroke-linejoin="miter" stroke-miterlimit="4" stroke-opacity="1" stroke-width="1" marker-end="none" marker-mid="none" marker-start="none" d="M 4.9499887,30.000087 C 4.9499887,30.000087 4.9499887,31.999977 4.9499887,31.999977 C 4.1433737,32.003743 2.9999867,31.551903 2.9999867,30.999903 C 2.9999867,30.447903 3.9001077,30.000087 4.9499887,30.000087 z" display="inline" opacity=".15" overflow="visible" visibility="visible" style="marker:none"/><path id="path2883" fill="url(#radialGradient3437)" fill-opacity="1" fill-rule="nonzero" stroke="none" stroke-dasharray="none" stroke-dashoffset="0" stroke-linecap="round" stroke-linejoin="miter" stroke-miterlimit="4" stroke-opacity="1" stroke-width="1" marker-end="none" marker-mid="none" marker-start="none" d="M 27.050011,30.000087 C 27.050011,30.000087 27.050011,31.999977 27.050011,31.999977 C 27.856625,32.003743 29.000013,31.551903 29.000013,30.999903 C 29.000013,30.447903 28.099891,30.000087 27.050011,30.000087 z" display="inline" opacity=".15" overflow="visible" visibility="visible" style="marker:none"/><path id="path4160" fill="url(#radialGradient3432)" fill-opacity="1" fill-rule="nonzero" stroke="url(#linearGradient3434)" stroke-dasharray="none" stroke-dashoffset="0" stroke-linecap="butt" stroke-linejoin="round" stroke-miterlimit="4" stroke-opacity="1" stroke-width="1" marker-end="none" marker-mid="none" marker-start="none" d="M 4.499961,1.4999609 C 9.7704453,1.4999609 15.04093,1.4999609 20.311419,1.4999609 C 21.235975,1.8127611 26.20301,5.3763851 27.50004,7.8438467 C 27.50004,15.395911 27.50004,22.947975 27.50004,30.50004 C 19.833346,30.50004 12.166654,30.50004 4.499961,30.50004 C 4.499961,20.833346 4.499961,11.166652 4.499961,1.4999609 z" display="inline" enable-background="accumulate" overflow="visible" visibility="visible" style="marker:none"/><path id="path2435" fill="none" fill-opacity="1" stroke="url(#linearGradient3429)" stroke-dasharray="none" stroke-dashoffset="0" stroke-linecap="butt" stroke-linejoin="miter" stroke-miterlimit="4" stroke-opacity="1" stroke-width="1" d="M 26.50004,8.1389757 C 26.50004,15.170208 26.50004,22.468805 26.50004,29.50004 C 19.500015,29.50004 12.499989,29.50004 5.4999611,29.50004 C 5.4999611,20.500011 5.4999611,11.499986 5.4999611,2.4999608 C 10.312145,2.4999608 15.239097,2.4999608 20.051281,2.4999608" display="inline" opacity=".4"/><path id="path12038" fill="#000" fill-opacity="1" fill-rule="evenodd" stroke="none" stroke-linecap="butt" stroke-linejoin="miter" stroke-opacity="1" stroke-width="1" d="M 28.617256,0.92125832 C 32.899778,0.92125832 30.770506,9.4044296 30.770506,9.4044296 C 30.770506,9.4044296 41.128148,7.6020829 41.128148,12.223174 C 41.128148,9.6134507 29.825844,1.4945784 28.617256,0.92125832 z" display="inline" filter="url(#filter3212)" opacity=".4" transform="matrix(0.6385981,0,0,0.6193639,0.7250758,1.4294058)"/><path id="path4474" fill="url(#linearGradient3425)" fill-opacity="1" fill-rule="evenodd" stroke="none" stroke-linecap="butt" stroke-linejoin="miter" stroke-opacity="1" stroke-width="1" d="M 19.000002,2.0000004 C 21.03489,2.0000004 20.491614,6.7454911 20.491614,6.7454911 C 20.491614,6.7454911 26.989432,6.1378635 26.989432,9 C 26.989432,8.3026345 27.044298,7.803237 26.904003,7.5856242 C 25.896098,6.0222381 21.542643,2.5140243 19.970553,2.0542158 C 19.85291,2.0198078 19.592053,2.0000004 19.000002,2.0000004 z" display="inline"/><path id="path3879" fill="url(#linearGradient3422)" fill-opacity="1" fill-rule="evenodd" stroke="none" stroke-dasharray="none" stroke-dashoffset="0" stroke-linecap="round" stroke-linejoin="round" stroke-miterlimit="4" stroke-opacity="1" stroke-width="1.002" d="M 6.0476194,1.9999997 C 5.468961,1.9999997 5,2.8921644 5,3.9930194 L 5,18.570542 C 5.0013274,18.693177 5.0295958,18.809148 5.0779422,18.890304 C 5.1262898,18.971461 5.1902952,19.010383 5.2544217,18.997617 L 26.805441,12.506062 C 26.9163,12.472804 26.998449,12.292474 27,12.078987 L 27,8.1557258 C 27,8.1557258 19.989953,1.9999997 19.989953,1.9999997 L 6.0476194,1.9999997 z" opacity=".2"/><path id="path3883" fill="none" stroke="url(#linearGradient3419)" stroke-dasharray="none" stroke-dashoffset="0" stroke-linecap="butt" stroke-linejoin="round" stroke-miterlimit="4" stroke-opacity="1" stroke-width="1" d="M 20.287334,1.4703325 C 21.184503,1.7836753 26.241429,5.3812625 27.500039,7.853006 C 27.500039,15.418176 27.500039,8.397987 27.500039,15.963157 C 1.7086648,26.346645 4.7940469,1.4703325 20.287334,1.4703325 z" display="inline"/><path id="path3743" fill="url(#linearGradient3514)" fill-opacity="1" fill-rule="nonzero" stroke="none" stroke-dasharray="none" stroke-dashoffset="0" stroke-linecap="butt" stroke-linejoin="miter" stroke-miterlimit="4" stroke-opacity="1" stroke-width=".912" marker-end="none" marker-mid="none" marker-start="none" d="M 12.708332,11.000002 C 10.138501,14.301848 7.5698307,17.607886 4.9999991,20.909731 C 4.9999991,24.271717 4.9999991,27.638016 4.9999991,31.000002 C 11.10418,31.000002 17.208318,31.000002 23.312498,31.000002 C 25.001342,28.830086 25.261656,28.499312 26.999998,26.265799 C 26.999998,23.216949 26.999998,20.179812 26.999998,17.118357 C 21.955908,14.958059 15.983865,12.402857 12.708332,11.000002 z" display="inline" enable-background="accumulate" opacity=".1" overflow="visible" visibility="visible" style="marker:none"/><path id="path3697" fill="url(#linearGradient3511)" fill-opacity="1" fill-rule="nonzero" stroke="none" stroke-dasharray="none" stroke-dashoffset="0" stroke-linecap="butt" stroke-linejoin="miter" stroke-miterlimit="4" stroke-opacity="1" stroke-width=".912" marker-end="none" marker-mid="none" marker-start="none" d="M 12.708332,10 C 10.138501,13.301846 7.5698307,16.607883 4.9999991,19.90973 C 4.9999991,23.271716 4.9999991,26.638015 4.9999991,30 C 11.10418,30 17.208318,30 23.312498,30 C 25.001342,27.830085 25.261656,27.499311 26.999998,25.265798 C 26.999998,22.216948 26.999998,19.17981 26.999998,16.118355 C 21.955908,13.958056 15.983865,11.402855 12.708332,10 z" display="inline" enable-background="accumulate" opacity=".4" overflow="visible" visibility="visible" style="marker:none"/><path id="path6223" fill="url(#linearGradient3508)" fill-opacity="1" fill-rule="evenodd" stroke="none" stroke-dasharray="none" stroke-dashoffset="0" stroke-linecap="butt" stroke-linejoin="miter" stroke-miterlimit="4" stroke-opacity="1" stroke-width="1" marker-end="none" marker-mid="none" marker-start="none" d="M 13.285058,13.336387 L 12.476235,14.361689 L 16.762999,16.289257 L 17.571823,15.263955 L 13.285058,13.336387 z M 11.667411,15.366485 L 10.858588,16.391787 L 15.145352,18.319355 L 15.954176,17.294053 L 11.667411,15.366485 z M 18.805279,15.817618 L 17.996455,16.84292 L 22.28322,18.770488 L 23.092043,17.745186 L 18.805279,15.817618 z M 10.049764,17.417089 L 9.2207203,18.442391 L 13.507485,20.369959 L 14.336529,19.344657 L 10.049764,17.417089 z M 17.187632,17.847716 L 16.378808,18.873018 L 20.665573,20.800586 L 21.474396,19.775284 L 17.187632,17.847716 z M 24.325499,18.298849 L 23.496455,19.303645 L 26.671087,20.739068 C 26.671087,20.271359 26.671087,19.812555 26.671087,19.344657 L 24.325499,18.298849 z M 8.4118968,19.467693 L 7.6030733,20.472489 L 11.889838,22.400057 L 12.698661,21.395261 L 8.4118968,19.467693 z M 15.569985,19.89832 L 14.740941,20.923622 L 19.027705,22.85119 L 19.856749,21.825888 L 15.569985,19.89832 z M 22.687632,20.328947 L 21.878808,21.354249 L 26.165573,23.281817 L 26.671087,22.646129 C 26.671087,22.467575 26.671087,22.291624 26.671087,22.112972 L 22.687632,20.328947 z M 6.7942498,21.497791 L 5.9854263,22.523093 L 10.272191,24.450661 L 11.081014,23.425359 L 6.7942498,21.497791 z M 13.932117,21.948924 L 13.123294,22.95372 L 17.410058,24.881288 L 18.218882,23.876492 L 13.932117,21.948924 z M 21.069985,22.379551 L 20.261161,23.384347 L 24.547926,25.311915 L 25.356749,24.307119 L 21.069985,22.379551 z M 5.3181469,23.630419 C 5.3181469,24.088532 5.3181469,24.546211 5.3181469,25.004324 L 8.6343233,26.501265 L 9.4431468,25.475963 L 5.3181469,23.630419 z M 12.31447,23.979022 L 11.505647,25.004324 L 15.792411,26.931892 L 16.601235,25.90659 L 12.31447,23.979022 z M 19.432117,24.409649 L 18.623293,25.434951 L 22.910058,27.362519 L 23.718882,26.337217 L 19.432117,24.409649 z M 10.676603,26.029626 L 9.8677791,27.054928 L 14.154544,28.982496 L 14.963367,27.957194 L 10.676603,26.029626 z M 5.3181469,26.378229 C 5.3181469,26.843179 5.3181469,27.307689 5.3181469,27.772639 L 7.0166763,28.531363 L 7.8254998,27.506061 L 5.3181469,26.378229 z M 17.81447,26.460253 L 17.005646,27.485555 L 21.292411,29.413123 L 22.101235,28.387821 L 17.81447,26.460253 z M 9.0589556,28.059724 L 8.2501321,29.085026 L 10.353073,30.028304 C 11.337144,30.028304 12.321208,30.028304 13.305279,30.028304 L 13.34572,29.987292 L 9.0589556,28.059724 z M 16.196823,28.490351 L 15.367779,29.515653 L 16.500132,30.028304 C 17.538124,30.028304 18.57611,30.028304 19.614102,30.028304 L 16.196823,28.490351 z M 5.3181469,29.146544 C 5.3181469,29.440557 5.3181469,29.734291 5.3181469,30.028304 C 5.486652,30.028304 5.6551565,30.028304 5.8236616,30.028304 L 6.2078528,29.556665 L 5.3181469,29.146544 z" display="inline" enable-background="accumulate" opacity=".1" overflow="visible" visibility="visible" style="marker:none"/><path id="path3516" fill="#fff" fill-opacity="1" stroke="none" stroke-linecap="butt" stroke-linejoin="miter" stroke-opacity="1" stroke-width="1" d="M 22,25 C 20.897196,25 19.794392,25 18.691588,25 C 17.760124,23.234838 16.82866,21.469676 15.897196,19.704514 C 14.965732,21.469676 14.034268,23.234838 13.102804,25 C 12.068536,25 11.034268,25 10,25 C 11.383177,22.593251 12.766356,20.186502 14.149533,17.779754 C 12.862928,15.519836 11.576325,13.259918 10.28972,11 C 11.355141,11 12.420561,11 13.485982,11 C 14.339564,12.678979 15.193146,14.357957 16.046729,16.036936 C 16.88162,14.357957 17.71651,12.678979 18.551401,11 C 19.5919,11 20.632399,11 21.672897,11 C 20.370716,13.314181 19.068535,15.628363 17.766355,17.942544 C 19.177569,20.295029 20.588785,22.647515 22,25 z" font-family="Droid Sans" font-size="31.355" font-stretch="normal" font-style="normal" font-variant="normal" font-weight="bold" opacity=".4" style="-inkscape-font-specification:Droid Sans Bold"/><path id="path2636" fill="url(#linearGradient3504)" fill-opacity="1" stroke="none" stroke-linecap="butt" stroke-linejoin="miter" stroke-opacity="1" stroke-width="1" d="M 22,24 C 20.897196,24 19.794392,24 18.691588,24 C 17.760124,22.234838 16.82866,20.469676 15.897196,18.704514 C 14.965732,20.469676 14.034268,22.234838 13.102804,24 C 12.068536,24 11.034268,24 10,24 C 11.383177,21.593251 12.766356,19.186502 14.149533,16.779754 C 12.862928,14.519836 11.576325,12.259918 10.28972,10 C 11.355141,10 12.420561,10 13.485982,10 C 14.339564,11.678979 15.193146,13.357957 16.046729,15.036936 C 16.88162,13.357957 17.71651,11.678979 18.551401,10 C 19.5919,10 20.632399,10 21.672897,10 C 20.370716,12.314181 19.068535,14.628363 17.766355,16.942544 C 19.177569,19.295029 20.588785,21.647515 22,24 z" font-family="Droid Sans" font-size="31.355" font-stretch="normal" font-style="normal" font-variant="normal" font-weight="bold" style="-inkscape-font-specification:Droid Sans Bold"/></g></svg>