<svg xmlns="http://www.w3.org/2000/svg" xmlns:svg="http://www.w3.org/2000/svg" xmlns:xlink="http://www.w3.org/1999/xlink" id="svg4079" width="32" height="32" version="1.1"><defs id="defs4081"><linearGradient id="linearGradient2981" x1="25.076" x2="25.076" y1="45.915" y2="6.443" gradientUnits="userSpaceOnUse" xlink:href="#linearGradient2490-3-17"/><linearGradient id="linearGradient2490-3-17"><stop id="stop2492-3-0" offset="0" stop-color="#365f0e" stop-opacity="1"/><stop id="stop2494-8-4" offset="1" stop-color="#84a718" stop-opacity="1"/></linearGradient><linearGradient id="linearGradient2978" x1="25.076" x2="25.076" y1="45.915" y2="6.443" gradientUnits="userSpaceOnUse" xlink:href="#linearGradient2490-3-17-4"/><linearGradient id="linearGradient2490-3-17-4"><stop id="stop2492-3-0-1" offset="0" stop-color="#365f0e" stop-opacity="1"/><stop id="stop2494-8-4-5" offset="1" stop-color="#84a718" stop-opacity="1"/></linearGradient><linearGradient id="linearGradient3758" x1="32.892" x2="36.358" y1="8.059" y2="5.457" gradientTransform="matrix(0.6371285,0,0,0.6445638,0.8296804,0.74451743)" gradientUnits="userSpaceOnUse" xlink:href="#linearGradient8589"/><linearGradient id="linearGradient8589"><stop id="stop8591" offset="0" stop-color="#fefefe" stop-opacity="1"/><stop id="stop8593" offset="1" stop-color="#cbcbcb" stop-opacity="1"/></linearGradient><filter id="filter3212" width="1.297" height="1.329" x="-.148" y="-.164" color-interpolation-filters="sRGB"><feGaussianBlur id="feGaussianBlur3214" stdDeviation=".774"/></filter><linearGradient id="linearGradient3762" x1="24" x2="24" y1="2" y2="46.017" gradientTransform="matrix(0.6363646,0,0,0.6279076,0.7272514,0.93021583)" gradientUnits="userSpaceOnUse" xlink:href="#linearGradient3211"/><linearGradient id="linearGradient3211"><stop id="stop3213" offset="0" stop-color="#fff" stop-opacity="1"/><stop id="stop3215" offset="1" stop-color="#fff" stop-opacity="0"/></linearGradient><radialGradient id="radialGradient3765" cx="102" cy="112.305" r="139.559" gradientTransform="matrix(0.2340426,0,0,-0.2542968,1.0212767,32.288672)" gradientUnits="userSpaceOnUse" xlink:href="#linearGradient3781"/><linearGradient id="linearGradient3781"><stop id="stop3783" offset="0" stop-color="#181818" stop-opacity="1"/><stop id="stop3789" offset=".25" stop-color="#181818" stop-opacity="0"/><stop id="stop3785" offset="1" stop-color="#181818" stop-opacity="0"/></linearGradient><radialGradient id="radialGradient3932-6" cx="24" cy="4.5" r="18" fx="24" fy="4.5" gradientTransform="matrix(0,2.0163572,-2.1588464,0,25.714809,-47.222093)" gradientUnits="userSpaceOnUse" xlink:href="#linearGradient3242-7-9"/><linearGradient id="linearGradient3242-7-9"><stop id="stop3244-5-2" offset="0" stop-color="#eef87e" stop-opacity="1"/><stop id="stop3246-9-1" offset=".262" stop-color="#cde34f" stop-opacity="1"/><stop id="stop3248-7-7" offset=".661" stop-color="#93b723" stop-opacity="1"/><stop id="stop3250-8-7" offset="1" stop-color="#5a7e0d" stop-opacity="1"/></linearGradient><linearGradient id="linearGradient3934-9" x1="-51.786" x2="-51.786" y1="50.786" y2="2.906" gradientTransform="matrix(0.53064133,0,0,0.58970228,39.269606,-0.7919083)" gradientUnits="userSpaceOnUse" xlink:href="#linearGradient2490-3-76"/><linearGradient id="linearGradient2490-3-76"><stop id="stop2492-3-2" offset="0" stop-color="#365f0e" stop-opacity="1"/><stop id="stop2494-8-7" offset="1" stop-color="#84a718" stop-opacity="1"/></linearGradient><radialGradient id="radialGradient3773" cx="605.714" cy="486.648" r="117.143" fx="605.714" fy="486.648" gradientTransform="matrix(0.01566318,0,0,0.00823529,17.610433,26.980566)" gradientUnits="userSpaceOnUse" xlink:href="#linearGradient5060"/><linearGradient id="linearGradient5060"><stop id="stop5062" offset="0" stop-color="#000" stop-opacity="1"/><stop id="stop5064" offset="1" stop-color="#000" stop-opacity="0"/></linearGradient><radialGradient id="radialGradient3776" cx="605.714" cy="486.648" r="117.143" fx="605.714" fy="486.648" gradientTransform="matrix(-0.01566318,0,0,0.00823529,14.389566,26.980566)" gradientUnits="userSpaceOnUse" xlink:href="#linearGradient5060"/><linearGradient id="linearGradient5048"><stop id="stop5050" offset="0" stop-color="#000" stop-opacity="0"/><stop id="stop5056" offset=".5" stop-color="#000" stop-opacity="1"/><stop id="stop5052" offset="1" stop-color="#000" stop-opacity="0"/></linearGradient><linearGradient id="linearGradient4077" x1="302.857" x2="302.857" y1="366.648" y2="609.505" gradientTransform="matrix(0.04576928,0,0,0.00823529,-0.5423243,26.980549)" gradientUnits="userSpaceOnUse" xlink:href="#linearGradient5048"/></defs><metadata id="metadata4084"/><g id="layer1"><rect id="rect2879" width="22.1" height="2" x="4.95" y="30" fill="url(#linearGradient4077)" fill-opacity="1" fill-rule="nonzero" stroke="none" stroke-width="1" display="inline" opacity=".15" overflow="visible" visibility="visible" style="marker:none"/><path id="path2881" fill="url(#radialGradient3776)" fill-opacity="1" fill-rule="nonzero" stroke="none" stroke-width="1" d="m 4.9499887,30.000087 c 0,0 0,1.99989 0,1.99989 -0.806615,0.0038 -1.950002,-0.448074 -1.950002,-1.000074 0,-0.552 0.900121,-0.999816 1.950002,-0.999816 z" display="inline" opacity=".15" overflow="visible" visibility="visible" style="marker:none"/><path id="path2883" fill="url(#radialGradient3773)" fill-opacity="1" fill-rule="nonzero" stroke="none" stroke-width="1" d="m 27.050011,30.000087 c 0,0 0,1.99989 0,1.99989 0.806614,0.0038 1.950002,-0.448074 1.950002,-1.000074 0,-0.552 -0.900122,-0.999816 -1.950002,-0.999816 z" display="inline" opacity=".15" overflow="visible" visibility="visible" style="marker:none"/><path id="path4160" fill="url(#radialGradient3932-6)" fill-opacity="1" fill-rule="nonzero" stroke="url(#linearGradient3934-9)" stroke-dasharray="none" stroke-dashoffset="0" stroke-linecap="butt" stroke-linejoin="round" stroke-miterlimit="4" stroke-opacity="1" stroke-width="1" d="m 4.499961,1.4999608 c 5.2704843,0 10.540969,0 15.811458,0 0.924556,0.3128002 5.891591,3.8764242 7.188621,6.3438858 0,7.5520644 0,15.1041284 0,22.6561934 -7.666694,0 -15.333386,0 -23.000079,0 0,-9.666694 0,-19.333388 0,-29.0000792 z" color="#000" display="inline" enable-background="accumulate" overflow="visible" visibility="visible" style="marker:none"/><path id="path4191" fill="url(#radialGradient3765)" fill-opacity="1" d="M 5.2340427,30 C 5.1050853,30 5,29.885821 5,29.745703 L 5,2.2816601 C 5,2.1412889 5.1050853,2.0273643 5.2340427,2.0273643 10.076044,2.0976533 15.441839,1.9222202 20.277954,2.0448653 l 6.653472,5.7695156 0.06857,21.9313231 c 0,0.140118 -0.104852,0.254297 -0.234043,0.254297 l -21.5319143,0 z" opacity=".3"/><path id="path2435" fill="none" stroke="url(#linearGradient3762)" stroke-dasharray="none" stroke-dashoffset="0" stroke-linecap="butt" stroke-linejoin="miter" stroke-miterlimit="4" stroke-opacity="1" stroke-width="1" d="m 26.50004,8.1389756 c 0,7.0312324 0,14.3298294 0,21.3610644 -7.000025,0 -14.000051,0 -21.0000789,0 0,-9.000029 0,-18.000054 0,-27.0000793 4.8121839,0 9.7391359,0 14.5513199,0" display="inline" opacity=".4"/><path id="path12038" fill="#000" fill-opacity="1" fill-rule="evenodd" stroke="none" d="m 28.617256,0.92125832 c 4.282522,0 2.15325,8.48317128 2.15325,8.48317128 0,0 10.357642,-1.8023467 10.357642,2.8187444 0,-2.6097233 -11.302304,-10.7285956 -12.510892,-11.30191568 z" display="inline" filter="url(#filter3212)" opacity=".4" transform="matrix(0.6385981,0,0,0.6193639,0.7250758,1.4294057)"/><path id="path4474" fill="url(#linearGradient3758)" fill-opacity="1" fill-rule="evenodd" stroke="none" d="m 19.000002,2.0000003 c 2.034888,0 1.491612,4.7454907 1.491612,4.7454907 0,0 6.497818,-0.6076276 6.497818,2.2545089 0,-0.6973655 0.05487,-1.196763 -0.08543,-1.4143758 -1.007905,-1.5633861 -5.36136,-5.0715999 -6.93345,-5.5314084 -0.117643,-0.034408 -0.3785,-0.054215 -0.970551,-0.054215 z" display="inline"/><path id="path3877-4" fill="url(#linearGradient2978)" fill-opacity="1" fill-rule="nonzero" stroke="none" stroke-width=".632" d="M 12.8125,9.03125 A 1.9648723,1.9648723 0 0 0 11.03125,11 l 0,3.03125 -1.125,0 A 1.9648723,1.9648723 0 0 0 8.375,17.25 l 6.09375,7.40625 a 1.9648723,1.9648723 0 0 0 3.0625,0 L 23.625,17.25 a 1.9648723,1.9648723 0 0 0 -1.53125,-3.21875 l -1.125,0 0,-3.03125 A 1.9648723,1.9648723 0 0 0 19,9.03125 l -6,0 a 1.9648723,1.9648723 0 0 0 -0.1875,0 z" color="#000" display="inline" enable-background="accumulate" opacity=".1" overflow="visible" transform="translate(0,1.3577435e-4)" visibility="visible" style="marker:none"/><path id="path3877" fill="url(#linearGradient2981)" fill-opacity="1" fill-rule="nonzero" stroke="none" stroke-width=".632" d="M 12.8125,10 A 1.0101725,1.0101725 0 0 0 12,11 l 0,4 -2.09375,0 A 1.0101725,1.0101725 0 0 0 9.125,16.65625 l 6.09375,7.40625 a 1.0101725,1.0101725 0 0 0 1.5625,0 L 22.875,16.65625 A 1.0101725,1.0101725 0 0 0 22.09375,15 L 20,15 20,11 a 1.0101725,1.0101725 0 0 0 -1,-1 l -6,0 a 1.0101725,1.0101725 0 0 0 -0.1875,0 z" color="#000" display="inline" enable-background="accumulate" opacity=".3" overflow="visible" transform="translate(0,1.3577435e-4)" visibility="visible" style="marker:none"/><path id="path3288" fill="#f2f2f2" fill-opacity="1" fill-rule="nonzero" stroke="none" stroke-width=".985" d="M 22.094415,16 16.000001,23.414927 9.9055865,16 l 3.0944145,0 0,-5 6,0 0,5 3.094414,0 z" display="inline" overflow="visible" visibility="visible" style="marker:none"/><path style="marker:none" id="path3288-2" fill="none" stroke="#fff" stroke-opacity="1" stroke-width=".985" d="m 21.500001,16.5 -5.5,6 -5.5,-6 3,0 0,-5 5,0 0,5 3,0 z" display="inline" overflow="visible" visibility="visible"/></g></svg>