<svg xmlns="http://www.w3.org/2000/svg" xmlns:svg="http://www.w3.org/2000/svg" xmlns:xlink="http://www.w3.org/1999/xlink" id="svg1" width="128" height="128" version="1.0"><defs id="defs3"><linearGradient id="linearGradient2790"><stop id="stop2792" offset="0" stop-color="#000" stop-opacity="1"/><stop id="stop2794" offset="1" stop-color="#000" stop-opacity="0"/></linearGradient><linearGradient id="linearGradient2780"><stop id="stop2782" offset="0" stop-color="#fff" stop-opacity="1"/><stop id="stop2784" offset="1" stop-color="#fff" stop-opacity="0"/></linearGradient><linearGradient id="linearGradient6621"><stop id="stop6622" offset="0" stop-color="#f5a108" stop-opacity="0"/><stop id="stop6623" offset="1" stop-color="#fefdc3" stop-opacity=".743"/></linearGradient><linearGradient id="linearGradient7881" x1="22.82" x2="12.85" y1="28.829" y2="12.239" gradientTransform="matrix(2.8250585,0,0,1.4531892,3.3328648,12.424993)" gradientUnits="userSpaceOnUse" xlink:href="#linearGradient6621"/><radialGradient id="radialGradient2796" cx="24.375" cy="37.75" r="17.375" fx="24.375" fy="37.75" gradientTransform="matrix(2.6666715,0,0,1.179858,-1.5149841e-7,57.627138)" gradientUnits="userSpaceOnUse" xlink:href="#linearGradient2790"/><linearGradient id="linearGradient3242"><stop id="stop3244" offset="0" stop-color="#f8b17e" stop-opacity="1"/><stop id="stop3246" offset=".312" stop-color="#e35d4f" stop-opacity="1"/><stop id="stop3248" offset=".571" stop-color="#c6262e" stop-opacity="1"/><stop id="stop3250" offset="1" stop-color="#690b54" stop-opacity="1"/></linearGradient><linearGradient id="linearGradient2490"><stop id="stop2492" offset="0" stop-color="#791235" stop-opacity="1"/><stop id="stop2494" offset="1" stop-color="#dd3b27" stop-opacity="1"/></linearGradient><linearGradient id="linearGradient3853" x1="24" x2="24" y1="6" y2="51" gradientTransform="matrix(2.6050751,0,0,2.6618754,1.170634,1.0466096)" gradientUnits="userSpaceOnUse" xlink:href="#linearGradient3242"/><linearGradient id="linearGradient3861" x1="17" x2="17" y1="45" y2="6" gradientTransform="matrix(2.6050751,0,0,2.6618754,1.170634,1.0466096)" gradientUnits="userSpaceOnUse" xlink:href="#linearGradient2490"/><linearGradient id="linearGradient3208" x1="21.802" x2="21.802" y1="5.993" y2="44.754" gradientTransform="matrix(2.6050751,0,0,2.6618754,1.170634,1.0466096)" gradientUnits="userSpaceOnUse" xlink:href="#linearGradient2780"/></defs><path id="path2788" fill="url(#radialGradient2796)" fill-opacity="1" fill-rule="nonzero" stroke="none" stroke-width="1" d="M 111.33354,102.16677 C 111.33354,113.48863 90.589358,122.66681 65.000119,122.66681 C 39.41088,122.66681 18.666701,113.48863 18.666701,102.16677 C 18.666701,90.844915 39.41088,81.666734 65.000119,81.666734 C 90.589358,81.666734 111.33354,90.844915 111.33354,102.16677 z" display="inline" opacity=".3" overflow="visible" visibility="visible" style="marker:none"/><path id="path7876" fill="url(#linearGradient7881)" fill-opacity="1" fill-rule="evenodd" stroke="none" d="M 37.433245,22.667184 C 23.118844,21.962897 16.450174,31.154627 12.842938,39.898621 C 9.2632113,51.413323 14.323439,73.161885 39.120944,71.507344 C 53.26532,71.507344 58.887202,57.008151 66.331312,53.244243 C 73.096615,50.687303 73.629071,50.458457 80.776719,50.458457 C 90.709726,50.458457 108.67237,43.272879 108.67238,36.143107 C 105.61922,30.421901 97.513447,20.233316 82.618585,21.969841 C 73.137401,23.072863 64.167639,29.847264 61.824606,33.218228 C 56.084965,28.15791 48.756314,22.667184 37.433245,22.667184 z"/><path id="path920" fill="url(#linearGradient3853)" fill-opacity="1" fill-rule="evenodd" stroke="url(#linearGradient3861)" stroke-dasharray="none" stroke-linecap="butt" stroke-linejoin="miter" stroke-miterlimit="4" stroke-opacity="1" stroke-width="1" d="M 63.266666,28.194042 C 87.464357,3.4790586 120.71766,26.258962 120.49893,49.698005 C 120.29897,71.125368 104.31006,81.387195 64.141609,119.50006 C 22.097347,84.044192 7.2836461,75.867936 7.5023823,50.445087 C 7.7211181,24.128582 36.188743,4.3779256 63.266666,28.194042 z"/><path id="path3206" fill="none" fill-opacity="1" fill-rule="evenodd" stroke="url(#linearGradient3208)" stroke-dasharray="none" stroke-linecap="butt" stroke-linejoin="miter" stroke-miterlimit="4" stroke-opacity="1" stroke-width="1" d="M 38.375,18.46875 C 21.723209,18.335643 8.6151224,32.827177 8.46875,50.4375 C 8.3610267,62.957761 11.853525,70.985571 20.6875,80.53125 C 29.408271,89.954605 43.498506,100.84585 64.09375,118.1875 C 83.80042,99.518102 97.738584,87.49354 106.59375,77.6875 C 115.55875,67.759826 119.43353,60.159485 119.53125,49.6875 C 119.63627,38.433445 111.61824,27.130762 100.625,21.75 C 89.631763,16.369238 75.805778,16.784923 63.96875,28.875 C 63.608409,29.249165 63.018516,29.276602 62.625,28.9375 C 54.306613,21.621146 45.944359,18.529256 38.375,18.46875 z" opacity=".4"/></svg>