<svg xmlns="http://www.w3.org/2000/svg" xmlns:svg="http://www.w3.org/2000/svg" xmlns:xlink="http://www.w3.org/1999/xlink" id="svg3272" width="128" height="128" version="1.0"><defs id="defs3"><radialGradient id="radialGradient19613" cx="605.714" cy="486.648" r="117.143" fx="605.714" fy="486.648" gradientTransform="matrix(2.891661e-2,0,0,1.235294e-2,26.973101,38.470848)" gradientUnits="userSpaceOnUse" xlink:href="#linearGradient5060"/><linearGradient id="linearGradient5060"><stop id="stop5062" offset="0" stop-color="#000" stop-opacity="1"/><stop id="stop5064" offset="1" stop-color="#000" stop-opacity="0"/></linearGradient><radialGradient id="radialGradient19616" cx="605.714" cy="486.648" r="117.143" fx="605.714" fy="486.648" gradientTransform="matrix(-2.89166e-2,0,0,1.235294e-2,21.026894,38.470848)" gradientUnits="userSpaceOnUse" xlink:href="#linearGradient5060"/><linearGradient id="linearGradient5048"><stop id="stop5050" offset="0" stop-color="#000" stop-opacity="0"/><stop id="stop5056" offset=".5" stop-color="#000" stop-opacity="1"/><stop id="stop5052" offset="1" stop-color="#000" stop-opacity="0"/></linearGradient><linearGradient id="linearGradient19619" x1="302.857" x2="302.857" y1="366.648" y2="609.505" gradientTransform="matrix(8.449704e-2,0,0,1.235294e-2,-6.5396456,38.470822)" gradientUnits="userSpaceOnUse" xlink:href="#linearGradient5048"/><linearGradient id="linearGradient259-942"><stop id="stop3802" offset="0" stop-color="#fff" stop-opacity="1"/><stop id="stop3804" offset="1" stop-color="#e0e0e0" stop-opacity="1"/></linearGradient><linearGradient id="linearGradient2447" x1="108.265" x2="25.818" y1="110.281" y2="14.029" gradientTransform="matrix(1.2159271,0,0,0.8429956,-146.60813,-121.21351)" gradientUnits="userSpaceOnUse" xlink:href="#linearGradient259-942"/><linearGradient id="linearGradient3610-302"><stop id="stop3796" offset="0" stop-color="#333" stop-opacity="1"/><stop id="stop3798" offset="1" stop-color="#292929" stop-opacity="1"/></linearGradient><linearGradient id="linearGradient3262" x1="-24.033" x2="-24.098" y1="-13.447" y2="-40.164" gradientTransform="matrix(-2.6674376,9.9366276e-3,6.4925292e-3,-2.6385322,0.160789,-4.240597)" gradientUnits="userSpaceOnUse" xlink:href="#linearGradient3610-302"/><linearGradient id="linearGradient3266"><stop id="stop3268" offset="0" stop-color="#828282" stop-opacity="1"/><stop id="stop3270" offset="1" stop-color="#272727" stop-opacity="1"/></linearGradient><radialGradient id="radialGradient3264" cx="17" cy="109.586" r="47" fx="17" fy="109.586" gradientTransform="matrix(-5.8820652e-8,1.9908865,-3.0607124,-9.042861e-8,352.41216,-2.845055)" gradientUnits="userSpaceOnUse" xlink:href="#linearGradient3266"/><linearGradient id="linearGradient8838"><stop id="stop8840" offset="0" stop-color="#000" stop-opacity="1"/><stop id="stop8842" offset="1" stop-color="#000" stop-opacity="0"/></linearGradient><radialGradient id="radialGradient3249" cx="62.625" cy="4.625" r="10.625" fx="62.625" fy="4.625" gradientTransform="matrix(2.7105883,0,0,0.677646,-105.5506,86.661599)" gradientUnits="userSpaceOnUse" xlink:href="#linearGradient8838"/><linearGradient id="linearGradient2490"><stop id="stop2492" offset="0" stop-color="#791235" stop-opacity="1"/><stop id="stop2494" offset="1" stop-color="#dd3b27" stop-opacity="1"/></linearGradient><linearGradient id="linearGradient3246" x1="18.379" x2="18.379" y1="44.98" y2="3.082" gradientTransform="matrix(1.2384991,0,0,1.2384991,34.476014,38.471737)" gradientUnits="userSpaceOnUse" xlink:href="#linearGradient2490"/><linearGradient id="linearGradient3242"><stop id="stop3244" offset="0" stop-color="#f8b17e" stop-opacity="1"/><stop id="stop3246" offset=".262" stop-color="#e35d4f" stop-opacity="1"/><stop id="stop3248" offset=".661" stop-color="#c6262e" stop-opacity="1"/><stop id="stop3250" offset="1" stop-color="#690b54" stop-opacity="1"/></linearGradient><radialGradient id="radialGradient3244" cx="23.896" cy="3.99" r="20.397" fx="23.896" fy="3.99" gradientTransform="matrix(0,2.9558729,-3.9016997,0,79.767786,-29.534163)" gradientUnits="userSpaceOnUse" xlink:href="#linearGradient3242"/><linearGradient id="linearGradient3241" x1="62.943" x2="63.397" y1="-20.887" y2="5.468" gradientTransform="matrix(2.6070547,0,0,2.6069954,-97.959872,77.348447)" gradientUnits="userSpaceOnUse" xlink:href="#linearGradient4873"/><linearGradient id="linearGradient3781"><stop id="stop3783" offset="0" stop-color="#fff" stop-opacity="1"/><stop id="stop3785" offset="1" stop-color="#fff" stop-opacity="0"/></linearGradient><linearGradient id="linearGradient3238" x1="24.939" x2="24.481" y1="-3.39" y2="45.074" gradientTransform="matrix(1.2922078,0,0,1.2922078,34.08699,34.991019)" gradientUnits="userSpaceOnUse" xlink:href="#linearGradient3781"/><linearGradient id="linearGradient3231" x1="-64.057" x2="-63.973" y1="-23.751" y2="-110.324" gradientTransform="matrix(0.9809663,0,0,0.9728644,-1.1387337,-1.7656904)" gradientUnits="userSpaceOnUse" xlink:href="#linearGradient4873"/><linearGradient id="linearGradient4873"><stop id="stop4875" offset="0" stop-color="#fff" stop-opacity="1"/><stop id="stop4877" offset="1" stop-color="#fff" stop-opacity="0"/></linearGradient><linearGradient id="linearGradient3235" x1="-64.057" x2="-63.973" y1="-23.751" y2="-110.324" gradientTransform="matrix(0.8875408,0,0,0.8556518,-7.2509991,124.3644)" gradientUnits="userSpaceOnUse" xlink:href="#linearGradient4873"/><linearGradient id="linearGradient3340" x1="108.265" x2="25.818" y1="110.281" y2="14.029" gradientTransform="matrix(-1.2159253,2.1074084e-3,-8.0971926e-4,-0.8429952,146.72434,120.95935)" gradientUnits="userSpaceOnUse" xlink:href="#linearGradient259-942"/></defs><g id="layer1"><g id="g3257" opacity=".3" transform="matrix(2.375,0,0,2.3333333,7,5.6666678)"><rect id="rect2879" width="40.8" height="3" x="3.6" y="43" fill="url(#linearGradient19619)" fill-opacity="1" fill-rule="nonzero" stroke="none" stroke-width="1" display="inline" overflow="visible" visibility="visible" style="marker:none"/><path id="path2881" fill="url(#radialGradient19616)" fill-opacity="1" fill-rule="nonzero" stroke="none" stroke-width="1" d="M 3.6,43.00013 C 3.6,43.00013 3.6,45.999965 3.6,45.999965 C 2.1108662,46.005612 0,45.327854 0,44.499854 C 0,43.671856 1.6617608,43.000131 3.6,43.00013 z" display="inline" overflow="visible" visibility="visible" style="marker:none"/><path id="path2883" fill="url(#radialGradient19613)" fill-opacity="1" fill-rule="nonzero" stroke="none" stroke-width="1" d="M 44.4,43.00013 C 44.4,43.00013 44.4,45.999965 44.4,45.999965 C 45.889133,46.005565 48,45.327854 48,44.499854 C 48,43.671856 46.338239,43.000131 44.4,43.00013 z" display="inline" overflow="visible" visibility="visible" style="marker:none"/></g><path id="rect3580" fill="url(#linearGradient3340)" fill-opacity="1" stroke="#c1c1c1" stroke-dasharray="none" stroke-linecap="round" stroke-linejoin="miter" stroke-miterlimit="4" stroke-opacity=".969" stroke-width="1" d="M 117.5,109.5 C 117.5,109.5 10.5,109.5 10.5,109.5 C 10.5,109.5 10.5,24.5 10.5,24.5 C 10.5,24.5 117.5,24.5 117.5,24.5 C 117.5,24.5 117.5,109.5 117.5,109.5 z"/><path id="path3258" fill="url(#radialGradient3264)" fill-opacity="1" stroke="url(#linearGradient3262)" stroke-dasharray="none" stroke-linecap="round" stroke-linejoin="miter" stroke-miterlimit="4" stroke-opacity="1" stroke-width="1" d="M 110.5,102.5 C 110.5,102.5 17.5,102.5 17.5,102.5 C 17.5,102.5 17.5,31.5 17.5,31.5 C 17.5,31.5 110.50002,31.5 110.50002,31.5 C 110.50002,31.5 110.5,102.5 110.5,102.5 z"/><path id="path8836" fill="url(#radialGradient3249)" fill-opacity="1" fill-rule="evenodd" stroke="none" stroke-width="1" d="M 92.999992,89.795716 C 92.999992,93.772166 80.105793,96.995716 64.199992,96.995716 C 48.294191,96.995716 35.399991,93.772166 35.399991,89.795716 C 35.399991,85.819266 48.294191,82.595716 64.199992,82.595716 C 80.105793,82.595716 92.999992,85.819266 92.999992,89.795716 L 92.999992,89.795716 z" display="inline" opacity=".4" overflow="visible" visibility="visible" style="marker:none"/><path id="path2555" fill="url(#radialGradient3244)" fill-opacity="1" stroke="url(#linearGradient3246)" stroke-dasharray="none" stroke-dashoffset="0" stroke-linecap="round" stroke-linejoin="round" stroke-miterlimit="4" stroke-opacity="1" stroke-width="1" d="M 64.199997,42.5 C 50.29787,42.5 38.499999,54.293874 38.499999,68.195999 C 38.499999,82.098129 50.29787,93.500008 64.199997,93.500001 C 78.102117,93.500001 89.500014,82.098129 89.5,68.195999 C 89.5,54.293874 78.102117,42.5 64.199997,42.5 L 64.199997,42.5 z M 64.199997,51.088947 C 73.651566,51.088947 81.306762,58.744146 81.306762,68.195714 C 81.306762,72.162462 79.93235,75.78345 77.668667,78.684256 L 55.994942,53.178914 C 58.430044,51.846525 61.227131,51.088947 64.199997,51.088947 z M 50.499098,57.978097 L 72.095428,83.36733 C 69.733384,84.597916 67.048912,85.302486 64.199997,85.302486 C 54.748427,85.302484 47.093226,77.647286 47.093226,68.195714 C 47.093226,64.356016 48.365104,60.832038 50.499098,57.978097 L 50.499098,57.978097 z"/><path id="path2463" fill="none" stroke="url(#linearGradient3241)" stroke-dasharray="none" stroke-miterlimit="4" stroke-opacity="1" stroke-width="1" d="M 88.499999,68.195001 C 88.499999,80.787498 76.791328,92.5 64.20028,92.5 C 51.608074,92.5 39.499999,80.787386 39.499999,68.195001 C 39.499999,55.603085 51.608074,43.5 64.20028,43.5 C 76.791328,43.5 88.499999,55.603085 88.499999,68.195001 L 88.499999,68.195001 L 88.499999,68.195001 z" opacity=".4"/><path id="path3270" fill="none" stroke="url(#linearGradient3238)" stroke-dasharray="none" stroke-linecap="round" stroke-linejoin="miter" stroke-miterlimit="4" stroke-opacity="1" stroke-width="1" d="M 55.029999,53.883202 L 76.90606,79.396" opacity=".4"/><rect id="rect2453" width="104.92" height="82.82" x="-116.395" y="-108.52" fill="none" fill-opacity="1" stroke="url(#linearGradient3231)" stroke-dasharray="none" stroke-linecap="round" stroke-linejoin="miter" stroke-miterlimit="4" stroke-opacity=".969" stroke-width="1" transform="matrix(-0.9999985,1.7188556e-3,-9.6852533e-4,-0.9999995,0,0)"/><rect id="rect3233" width="94.928" height="72.841" x="-111.53" y="30.472" fill="none" fill-opacity="1" stroke="url(#linearGradient3235)" stroke-dasharray="none" stroke-linecap="round" stroke-linejoin="miter" stroke-miterlimit="4" stroke-opacity=".969" stroke-width="1" transform="matrix(-0.9999986,-1.670898e-3,-9.9632413e-4,0.9999995,0,0)"/></g></svg>