<svg xmlns="http://www.w3.org/2000/svg" xmlns:svg="http://www.w3.org/2000/svg" xmlns:xlink="http://www.w3.org/1999/xlink" id="svg3968" width="64" height="64" version="1.0"><defs id="defs3970"><linearGradient id="linearGradient3967"><stop id="stop3969" offset="0" stop-color="#fff" stop-opacity="1"/><stop id="stop3971" offset="1" stop-color="#fff" stop-opacity="0"/></linearGradient><linearGradient id="linearGradient3910"><stop id="stop3912" offset="0" stop-color="#2f2f2f" stop-opacity="1"/><stop id="stop3914" offset="1" stop-color="#000" stop-opacity="1"/></linearGradient><linearGradient id="linearGradient3918"><stop id="stop3920" offset="0" stop-color="#000" stop-opacity="1"/><stop id="stop3922" offset="1" stop-color="#1e1e1e" stop-opacity="1"/></linearGradient><linearGradient id="linearGradient3847"><stop id="stop3849" offset="0" stop-color="#ababab" stop-opacity="1"/><stop id="stop3851" offset="1" stop-color="#dcdcdc" stop-opacity="0"/></linearGradient><linearGradient id="linearGradient3731-3"><stop id="stop3733-3" offset="0" stop-color="#cdcdcd" stop-opacity="1"/><stop id="stop3735-2" offset="1" stop-color="#303030" stop-opacity="1"/></linearGradient><linearGradient id="linearGradient3898"><stop id="stop3900" offset="0" stop-color="#030303" stop-opacity="1"/><stop id="stop3902" offset="1" stop-color="#383838" stop-opacity="0"/></linearGradient><linearGradient id="linearGradient3771"><stop id="stop3773" offset="0" stop-color="#fff" stop-opacity="1"/><stop id="stop3775" offset="1" stop-color="#0d0d0d" stop-opacity="1"/></linearGradient><linearGradient id="linearGradient3779"><stop id="stop3781" offset="0" stop-color="#5b5b5b" stop-opacity="1"/><stop id="stop3783" offset="1" stop-color="#000" stop-opacity="1"/></linearGradient><linearGradient id="linearGradient3709"><stop id="stop3711" offset="0" stop-color="#adadad" stop-opacity="1"/><stop id="stop3713" offset="1" stop-color="#434343" stop-opacity="1"/></linearGradient><linearGradient id="linearGradient3793"><stop id="stop3795" offset="0" stop-color="#3f3f3f" stop-opacity="1"/><stop id="stop5268" offset=".361" stop-color="#3c3c3c" stop-opacity="1"/><stop id="stop5266" offset=".66" stop-color="#2e2e2e" stop-opacity="1"/><stop id="stop3797" offset="1" stop-color="#202020" stop-opacity="1"/></linearGradient><linearGradient id="linearGradient5258"><stop id="stop5260" offset="0" stop-color="#5f5f5f" stop-opacity="1"/><stop id="stop5262" offset="1" stop-color="#252525" stop-opacity="1"/></linearGradient><linearGradient id="linearGradient5060"><stop id="stop5062" offset="0" stop-color="#000" stop-opacity="1"/><stop id="stop5064" offset="1" stop-color="#000" stop-opacity="0"/></linearGradient><linearGradient id="linearGradient5048"><stop id="stop5050" offset="0" stop-color="#000" stop-opacity="0"/><stop id="stop5056" offset=".5" stop-color="#000" stop-opacity="1"/><stop id="stop5052" offset="1" stop-color="#000" stop-opacity="0"/></linearGradient><linearGradient id="linearGradient3360" x1="302.857" x2="302.857" y1="366.648" y2="609.505" gradientTransform="matrix(3.2949134,0,0,2.5953268,-2121.8877,-1254.2044)" gradientUnits="userSpaceOnUse" xlink:href="#linearGradient5048"/><radialGradient id="radialGradient3362" cx="605.714" cy="486.648" r="117.143" fx="605.714" fy="486.648" gradientTransform="matrix(3.2949134,0,0,2.5953268,-2121.2392,-1254.2044)" gradientUnits="userSpaceOnUse" xlink:href="#linearGradient5060"/><radialGradient id="radialGradient3364" cx="605.714" cy="486.648" r="117.143" fx="605.714" fy="486.648" gradientTransform="matrix(-3.2949134,0,0,2.5953268,259.21603,-1254.2044)" gradientUnits="userSpaceOnUse" xlink:href="#linearGradient5060"/><linearGradient id="linearGradient3406" x1="-282.75" x2="-362.781" y1="4.703" y2="11.719" gradientTransform="matrix(0.1528834,0,0,0.1656311,79.215345,18.410889)" gradientUnits="userSpaceOnUse" xlink:href="#linearGradient3967"/><linearGradient id="linearGradient3409" x1="-314.029" x2="-314.029" y1="-83.614" y2="-75.274" gradientTransform="matrix(0.1466038,0,0,0.1894404,76.647153,19.533927)" gradientUnits="userSpaceOnUse" xlink:href="#linearGradient3918"/><linearGradient id="linearGradient3411" x1="-305.529" x2="-305.529" y1="-78.314" y2="-85.986" gradientTransform="matrix(0.1466038,0,0,0.1894404,76.647153,19.533927)" gradientUnits="userSpaceOnUse" xlink:href="#linearGradient3910"/><linearGradient id="linearGradient3415" x1="-400.995" x2="-222.534" y1="189.646" y2="218.646" gradientTransform="matrix(0.1581943,0,0,0.2185504,79.090763,6.1238013)" gradientUnits="userSpaceOnUse" xlink:href="#linearGradient3847"/><linearGradient id="linearGradient3420" x1="-389.487" x2="-175.064" y1="65.211" y2="61.538" gradientTransform="matrix(0.1716256,0,0,0.1588719,84.296538,17.852974)" gradientUnits="userSpaceOnUse" xlink:href="#linearGradient3731-3"/><linearGradient id="linearGradient3423" x1="-307.512" x2="-307.326" y1="224.5" y2="-102.184" gradientTransform="matrix(0.1720367,0,0,0.1641102,84.400846,18.256281)" gradientUnits="userSpaceOnUse" xlink:href="#linearGradient3898"/><radialGradient id="radialGradient3426" cx="-398" cy="257.924" r="2.313" fx="-398" fy="257.924" gradientTransform="matrix(0.175723,0,0,0.2002158,102.99485,4.6237345)" gradientUnits="userSpaceOnUse" xlink:href="#linearGradient3779"/><linearGradient id="linearGradient3428" x1="-396.625" x2="-399.563" y1="260.446" y2="258.258" gradientTransform="matrix(0.2500674,0,0,0.141599,132.5839,19.72173)" gradientUnits="userSpaceOnUse" xlink:href="#linearGradient3771"/><linearGradient id="linearGradient3434" x1="-301.943" x2="-245.239" y1="152.961" y2="134.961" gradientTransform="matrix(0.1596757,0,0,0.1640307,81.302118,18.242438)" gradientUnits="userSpaceOnUse" xlink:href="#linearGradient5258"/><linearGradient id="linearGradient3440" x1="-393.433" x2="-221.406" y1="67.439" y2="68.025" gradientUnits="userSpaceOnUse" xlink:href="#linearGradient3793"/><linearGradient id="linearGradient3442" x1="-397.063" x2="-212.125" y1="72.438" y2="72.438" gradientUnits="userSpaceOnUse" xlink:href="#linearGradient3709"/></defs><metadata id="metadata3973"/><g id="layer1"><g id="g3444"><g id="g4245" transform="matrix(1.6034984e-2,0,0,1.2683454e-2,46.92876,59.777806)"><rect id="rect4247" width="1590.973" height="630.294" x="-1726.498" y="-302.633" fill="url(#linearGradient3360)" fill-opacity="1" fill-rule="nonzero" stroke="none" stroke-width="1" display="inline" opacity=".402" overflow="visible" visibility="visible" style="marker:none"/><path id="path4249" fill="url(#radialGradient3362)" fill-opacity="1" fill-rule="nonzero" stroke="none" stroke-width="1" d="M -135.52559,-302.61162 C -135.52559,-302.61162 -135.52559,327.64726 -135.52559,327.64726 C 34.154293,328.83371 274.67781,186.43822 274.67771,12.477262 C 274.67771,-161.48373 85.327731,-302.6116 -135.52559,-302.61162 L -135.52559,-302.61162 z" display="inline" opacity=".402" overflow="visible" visibility="visible" style="marker:none"/><path id="path4251" fill="url(#radialGradient3364)" fill-opacity="1" fill-rule="nonzero" stroke="none" stroke-width="1" d="M -1726.4981,-302.61162 C -1726.4981,-302.61162 -1726.4981,327.64726 -1726.4981,327.64726 C -1896.1779,328.83371 -2136.7014,186.43822 -2136.7014,12.477262 C -2136.7014,-161.48373 -1947.3515,-302.6116 -1726.4981,-302.61162 L -1726.4981,-302.61162 z" display="inline" opacity=".402" overflow="visible" visibility="visible" style="marker:none"/></g><rect id="rect4253" width="29.972" height="58.96" x="17.68" y=".976" fill="url(#linearGradient3434)" fill-opacity="1" stroke="none" stroke-width=".1" display="inline" enable-background="accumulate" overflow="visible" ry="2.063" visibility="visible" style="marker:none"/><g id="g4255" stroke-dasharray="none" stroke-miterlimit="4" stroke-width=".101" transform="matrix(0.1774883,0,0,0.1631028,86.449486,18.26641)"><rect id="rect4257" width="187.693" height="364.926" x="-398.438" y="-110.023" fill="url(#linearGradient3440)" fill-opacity="1" stroke="#000" stroke-dasharray="none" stroke-miterlimit="4" stroke-opacity="1" stroke-width="2.997" display="inline" enable-background="accumulate" overflow="visible" ry="12.769" visibility="visible" style="marker:none"/><path id="path4259" fill="none" stroke="url(#linearGradient3442)" stroke-dasharray="none" stroke-miterlimit="4" stroke-opacity="1" stroke-width=".073" d="M -385.65625,-108.3125 C -391.81011,-108.3125 -396.71875,-103.40386 -396.71875,-97.25 L -396.71875,242.125 C -396.71875,248.27886 -391.81011,253.1875 -385.65625,253.1875 L -223.5,253.1875 C -217.34614,253.1875 -212.46875,248.2839 -212.46875,242.125 L -212.46875,-97.25 C -212.46875,-103.4089 -217.34614,-108.3125 -223.5,-108.3125 L -385.65625,-108.3125 z" display="inline" enable-background="accumulate" overflow="visible" visibility="visible" style="marker:none"/></g><rect id="rect4265" width=".977" height=".824" x="32.178" y="55.781" fill="url(#radialGradient3426)" fill-opacity="1" fill-rule="nonzero" stroke="url(#linearGradient3428)" stroke-dasharray="none" stroke-dashoffset=".06" stroke-linecap="round" stroke-linejoin="round" stroke-miterlimit="4" stroke-opacity="1" stroke-width="1" marker-end="none" marker-mid="none" marker-start="none" display="inline" enable-background="accumulate" overflow="visible" ry=".288" visibility="visible" style="marker:none"/><path id="path4267" fill="url(#linearGradient3423)" fill-opacity="1" stroke="none" stroke-dashoffset="0" stroke-linecap="square" stroke-linejoin="miter" stroke-miterlimit="4" stroke-opacity="1" stroke-width="1.536" d="M 17,36.339396 L 16.654856,54.475397 L 16.654856,54.850394 C 16.654856,55.446047 17.046413,55.93372 17.52985,55.933721 L 46.446336,55.933721 C 46.929773,55.933721 47.321331,55.446048 47.321331,54.850394 L 46.91727,36.339396 L 17,36.339396 z" display="inline" enable-background="accumulate" overflow="visible" visibility="visible" style="marker:none"/><path id="path4269" fill="#030303" fill-opacity="1" stroke="url(#linearGradient3420)" stroke-dasharray="none" stroke-dashoffset="0" stroke-linecap="square" stroke-linejoin="miter" stroke-miterlimit="4" stroke-opacity="1" stroke-width="1" d="M 18.399282,2.4855546 L 45.642554,2.4855546 C 46.097922,2.4855546 46.464541,2.9394288 46.464541,3.5032103 L 46.464541,52.923242 C 46.464541,53.487025 46.097922,53.940895 45.642554,53.940895 L 18.399282,53.940895 C 17.943889,53.940895 17.577296,53.487025 17.577296,52.923242 L 17.577296,52.5665 L 17.577296,3.5032103 C 17.577296,2.9394288 17.943889,2.4855546 18.399282,2.4855546 L 18.399282,2.4855546 z" display="inline" enable-background="accumulate" overflow="visible" visibility="visible" style="marker:none"/><path id="path4271" fill="#939499" fill-opacity="1" d="M 34.992341,6.6436382 C 34.555917,6.6398262 34.116933,6.8747445 34.018387,7.2263968 C 33.924468,7.5616124 34.130946,7.828894 34.540611,7.9031739 C 34.825795,7.9548813 35.1961,7.8778873 35.412432,7.7211082 C 35.831936,7.4170939 35.833323,6.9176753 35.415312,6.7316862 C 35.283179,6.6728969 35.13782,6.6449087 34.992341,6.6436382 z M 28.233637,6.645876 C 27.950518,6.6464163 27.659387,6.7414674 27.474775,6.9144977 C 27.072271,7.2916988 27.237323,7.803814 27.793413,7.9031739 C 27.958465,7.9326635 28.22929,7.9114382 28.404129,7.8554193 C 29.007285,7.6621643 29.192044,6.9943232 28.709847,6.7495939 C 28.570755,6.6790076 28.403542,6.6455527 28.233637,6.645876 z M 31.457617,6.645876 C 31.399524,6.6462219 31.339697,6.6500703 31.278524,6.6585614 C 30.823874,6.7216624 30.486543,7.0225279 30.486543,7.3651857 C 30.486543,7.6480756 30.694941,7.8503689 31.044019,7.9061585 C 31.421523,7.9664947 31.825174,7.8355721 32.049626,7.5808284 C 32.177025,7.436219 32.224585,7.2971137 32.207879,7.1167106 C 32.181612,6.8332854 31.864387,6.6434615 31.457617,6.645876 z M 38.327827,6.6861699 L 38.052322,6.6928857 L 37.776817,6.6996008 L 37.401339,7.2726597 C 37.194714,7.5878419 37.024955,7.8537773 37.024408,7.8636268 C 37.023875,7.8734765 37.110915,7.8815348 37.217914,7.8815348 L 37.412859,7.8815348 L 37.484059,7.7740864 L 37.555272,7.6666379 L 37.81567,7.6666379 L 38.076068,7.6666379 L 38.096922,7.7681171 L 38.117068,7.8695965 L 38.35588,7.8763123 L 38.594679,7.8830272 L 38.581012,7.8285569 C 38.573412,7.798531 38.512999,7.5292812 38.447226,7.230128 L 38.327827,6.6861699 z M 25.788692,6.6876624 C 25.528547,6.6876624 25.493374,6.6924697 25.482974,6.7294475 C 25.476521,6.7524298 25.424134,6.9386681 25.366455,7.1435722 C 25.282402,7.4421254 25.261429,7.5523961 25.261429,7.6987232 L 25.261429,7.8815348 L 25.398814,7.8815348 L 25.535507,7.8815348 L 25.607426,7.6367914 C 25.646706,7.502182 25.686506,7.3661885 25.695906,7.334592 C 25.709279,7.2895523 25.728866,7.3424214 25.788692,7.5793363 L 25.865651,7.8815348 L 25.983624,7.8815348 L 26.101583,7.8815348 L 26.329622,7.6188823 C 26.455181,7.4744778 26.56214,7.3601498 26.566994,7.3651857 C 26.574487,7.3729504 26.473981,7.761308 26.441115,7.851688 C 26.428928,7.8852175 26.676073,7.8917357 26.836739,7.862135 L 26.926658,7.8457188 L 27.026631,7.4756186 C 27.081537,7.2721234 27.151377,7.0114999 27.182017,6.8965897 L 27.238123,6.6876624 L 26.922338,6.6876624 L 26.607274,6.6876624 L 26.413048,6.9286749 L 26.218849,7.1689425 L 26.150503,6.9286749 L 26.082903,6.6876624 L 25.788692,6.6876624 z M 29.152924,6.6876624 L 29.128471,6.7891411 C 29.114711,6.8449548 29.093045,6.9219398 29.081005,6.9600138 C 29.038978,7.0929158 29.040485,7.0935787 29.291043,7.0935787 C 29.501135,7.0935787 29.521695,7.097484 29.510429,7.1353644 C 29.503615,7.1583468 29.466429,7.3168329 29.427709,7.4875566 C 29.389003,7.6582813 29.351963,7.8170434 29.34499,7.8404958 C 29.33331,7.8798142 29.350243,7.8826063 29.568708,7.8763123 L 29.806067,7.8695965 L 29.88016,7.5711282 C 29.921146,7.4069707 29.966386,7.2323668 29.980146,7.1831193 L 30.005332,7.0935787 L 30.241264,7.0935787 L 30.477916,7.0935787 L 30.517476,6.9204674 C 30.538956,6.8252554 30.555769,6.7339247 30.555609,6.7175085 C 30.555369,6.6942913 30.39969,6.6876624 29.854267,6.6876624 L 29.152924,6.6876624 z M 32.52077,6.6876624 L 32.366838,7.2577365 C 32.282251,7.57118 32.212918,7.8398014 32.212918,7.8546731 C 32.212918,7.8728793 32.283065,7.8815348 32.427997,7.8815348 L 32.643049,7.8815348 L 32.688369,7.7084237 L 32.733689,7.5353117 L 32.920007,7.5285965 C 33.148659,7.5201183 33.192339,7.54973 33.169592,7.6972312 C 33.146979,7.844014 33.171312,7.8579147 33.453004,7.8576577 L 33.697563,7.8569117 L 33.703336,7.6964847 C 33.710509,7.492567 33.697469,7.4348347 33.64003,7.4159241 C 33.589203,7.3991867 33.577337,7.3562305 33.623496,7.3562305 C 33.674936,7.3562305 33.828802,7.2070485 33.861575,7.1256642 C 33.903535,7.0215167 33.901628,6.8907109 33.857255,6.8204807 C 33.783989,6.7044607 33.687176,6.6876624 33.079673,6.6876624 L 32.52077,6.6876624 z M 36.333879,6.6913928 C 36.307053,6.6915049 36.277693,6.6919452 36.24684,6.6928857 L 36.022415,6.6996008 L 35.879976,7.2607209 C 35.801803,7.5693372 35.73707,7.8352726 35.736123,7.851688 C 35.73479,7.8748161 35.864189,7.8815348 36.309413,7.8815348 L 36.884143,7.8815348 L 36.909316,7.7800555 C 36.923276,7.7242417 36.943102,7.6436557 36.953916,7.600975 L 36.974062,7.5233727 L 36.630238,7.5233727 C 36.406786,7.5233727 36.28712,7.5149854 36.28712,7.4987495 C 36.28712,7.4850261 36.328559,7.3025189 36.379199,7.0935787 C 36.429839,6.8846392 36.471265,6.7072332 36.471265,6.6996008 C 36.471265,6.6938763 36.414346,6.6910567 36.333879,6.6913928 z M 32.905607,6.9741914 L 33.106313,6.9741914 C 33.216486,6.9743709 33.329578,6.9811961 33.358071,6.9891148 C 33.426471,7.0081291 33.426911,7.1022782 33.358778,7.1517802 C 33.320965,7.1792687 33.249005,7.189089 33.082566,7.189089 C 32.95878,7.189089 32.857341,7.1810301 32.857421,7.1711802 C 32.857488,7.1613312 32.868688,7.1129794 32.881874,7.0637319 L 32.905607,6.9741914 z M 28.212077,6.9756838 C 28.294876,6.9785713 28.373649,7.0051272 28.429302,7.0547781 C 28.561208,7.1724743 28.473929,7.4435633 28.27249,7.5420274 C 28.145064,7.6043187 28.055504,7.6197457 27.955278,7.5950054 C 27.731253,7.539713 27.710107,7.2644323 27.915719,7.0771633 C 27.992945,7.0068155 28.105611,6.9719717 28.212077,6.9756838 z M 34.903155,6.97643 C 34.934661,6.9750586 34.967768,6.9767312 35.003154,6.9816537 C 35.151673,7.0023179 35.215513,7.0653197 35.22398,7.2002812 C 35.23322,7.3479312 35.15658,7.4741511 35.016794,7.5420274 C 34.828409,7.6335223 34.677916,7.6261564 34.569397,7.5203882 C 34.467878,7.4214721 34.510917,7.2128837 34.660743,7.0764172 C 34.730476,7.0129132 34.808609,6.9805455 34.903155,6.97643 z M 31.44251,6.9779218 C 31.50083,6.9784451 31.556843,6.9888116 31.602922,7.0114999 C 31.803108,7.1100378 31.744975,7.4184955 31.50223,7.5450125 C 31.276804,7.6625013 31.036312,7.6007959 31.003019,7.4166701 C 30.988113,7.334276 31.035659,7.1879106 31.103019,7.1092482 C 31.174538,7.0256719 31.314231,6.9767725 31.44251,6.9779218 z M 37.932923,7.086117 L 37.959536,7.1793883 C 37.974442,7.2306729 37.988042,7.2968356 37.989002,7.3263844 C 37.990629,7.3751796 37.979896,7.3801089 37.875363,7.3801089 C 37.81207,7.3801089 37.760284,7.3749381 37.760284,7.3681699 C 37.760284,7.3614008 37.79919,7.2952393 37.846603,7.2211744 L 37.932923,7.086117 z" display="inline" enable-background="new"/><path id="path4273" fill="none" stroke="#000" stroke-dasharray="none" stroke-miterlimit="4" stroke-opacity="1" stroke-width="5.84" d="M -385.65625,-108.3125 C -391.81011,-108.3125 -396.71875,-103.40386 -396.71875,-97.25 L -396.71875,242.125 C -396.71875,248.27886 -391.81011,253.1875 -385.65625,253.1875 L -223.5,253.1875 C -217.34614,253.1875 -212.46875,248.2839 -212.46875,242.125 L -212.46875,-97.25 C -212.46875,-103.4089 -217.34614,-108.3125 -223.5,-108.3125 L -385.65625,-108.3125 z" display="inline" enable-background="accumulate" overflow="visible" transform="matrix(0.1797455,0,0,0.1631028,86.95142,18.26641)" visibility="visible" style="marker:none"/><path id="path4275" fill="url(#linearGradient3415)" fill-opacity="1" stroke="none" d="M 16.9193,55.211584 C 16.9193,55.211584 17.033655,54.711423 17.090443,54.357431 C 17.181219,53.791732 16.976009,53.274735 16.976009,53.274735 C 17.345929,53.993071 18.223915,54.093745 19.168517,54.01814 L 43.887192,53.863262 L 42.932393,54.309845 L 19.698959,54.309845 C 18.11462,54.522381 17.641995,55.118897 17.741013,55.912839 C 17.249922,56.039152 17.039891,55.699507 16.9193,55.211584 L 16.9193,55.211584 z"/><rect id="rect4277" width="23.816" height="38.998" x="20.048" y="9.056" fill="#2d2d2d" fill-opacity="1" stroke="none" stroke-width="2.011" display="inline" enable-background="accumulate" overflow="visible" ry="0" visibility="visible" style="marker:none"/><rect id="rect4279" width="10.574" height="1.206" x="26.706" y="3.494" fill="url(#linearGradient3409)" fill-opacity="1" fill-rule="nonzero" stroke="url(#linearGradient3411)" stroke-dasharray="none" stroke-miterlimit="4" stroke-opacity="1" stroke-width="1" display="inline" enable-background="accumulate" overflow="visible" ry=".603" visibility="visible" style="marker:none"/><path id="path4281" fill="url(#linearGradient3406)" fill-opacity="1" stroke="none" stroke-dashoffset="0" stroke-linecap="square" stroke-linejoin="miter" stroke-miterlimit="4" stroke-opacity="1" stroke-width="1.464" d="M 20.512885,2.391262 C 20.107194,2.391262 19.781916,2.8529184 19.781916,3.4316322 L 19.781916,53.793818 L 19.781916,54.161311 C 19.781916,54.740026 20.107194,55.206856 20.512885,55.206856 L 26.957885,55.206856 C 29.395163,37.60176 31.111365,19.996362 32.160705,2.391262 L 20.512885,2.391262 z" display="inline" enable-background="accumulate" opacity=".1" overflow="visible" visibility="visible" style="marker:none"/><g id="g4283" stroke="#b2b2b6" stroke-dasharray="none" stroke-miterlimit="4" stroke-opacity="1" stroke-width="2.635" transform="matrix(0.1914156,0,0,0.1880367,128.63916,9.9922272)"><path id="path4285" fill="none" stroke="#b2b2b6" stroke-dasharray="none" stroke-miterlimit="4" stroke-opacity="1" stroke-width="3.377" d="M -451.84124,213.40047 A 4.3310289,4.3310289 0 1 1 -460.5033,213.40047 A 4.3310289,4.3310289 0 1 1 -451.84124,213.40047 z" display="inline" enable-background="accumulate" overflow="visible" transform="matrix(0.7804484,0,0,0.7804484,-97.704371,48.406795)" visibility="visible" style="marker:none"/><path id="path4287" fill="none" stroke="#b2b2b6" stroke-dasharray="none" stroke-linecap="square" stroke-linejoin="miter" stroke-miterlimit="4" stroke-opacity="1" stroke-width="2.635" d="M -451.22252,217.46633 L -448.04054,220.82509"/></g><g id="g4289" stroke="#b2b2b6" stroke-dasharray="none" stroke-miterlimit="4" stroke-opacity="1" stroke-width="2.644" transform="matrix(0.1856904,0,0,0.1926228,127.69738,8.917891)"><path id="path4291" fill="none" stroke="#b2b2b6" stroke-dasharray="none" stroke-linecap="butt" stroke-linejoin="miter" stroke-miterlimit="4" stroke-opacity="1" stroke-width="2.644" d="M -498.69737,217.61513 L -498.69737,220.82237 L -492.55263,220.82237 L -492.55263,217.61513"/><path id="path4293" fill="none" stroke="#b2b2b6" stroke-dasharray="none" stroke-linecap="butt" stroke-linejoin="miter" stroke-miterlimit="4" stroke-opacity="1" stroke-width="2.644" d="M -501.125,217.375 L -495.8125,211.9375 L -490.125,217.625"/><path id="path4295" fill="none" stroke="#b2b2b6" stroke-dasharray="none" stroke-linecap="square" stroke-linejoin="miter" stroke-miterlimit="4" stroke-opacity="1" stroke-width="2.644" d="M -492.5,214.83108 L -492.5,212.04392"/></g><g id="g4297" stroke="#b2b2b6" stroke-dasharray="none" stroke-miterlimit="4" stroke-opacity="1" stroke-width="2.913" transform="matrix(0.1685075,0,0,0.1747982,119.22375,12.777909)"><path id="path4299" fill="none" stroke="#b2b2b6" stroke-dasharray="none" stroke-linecap="square" stroke-linejoin="miter" stroke-miterlimit="4" stroke-opacity="1" stroke-width="2.913" d="M -545.33081,211.72109 L -533.84033,211.72109"/><path id="path4301" fill="none" stroke="#b2b2b6" stroke-dasharray="none" stroke-linecap="square" stroke-linejoin="miter" stroke-miterlimit="4" stroke-opacity="1" stroke-width="2.913" d="M -542.23495,214.721 L -533.84033,214.721" display="inline" enable-background="new"/><path id="path4303" fill="none" stroke="#b2b2b6" stroke-dasharray="none" stroke-linecap="square" stroke-linejoin="miter" stroke-miterlimit="4" stroke-opacity="1" stroke-width="2.913" d="M -542.23495,217.92114 L -533.84033,217.92114" display="inline" enable-background="new"/><path id="path4305" fill="none" stroke="#b2b2b6" stroke-dasharray="none" stroke-linecap="square" stroke-linejoin="miter" stroke-miterlimit="4" stroke-opacity="1" stroke-width="2.913" d="M -542.23495,221.021 L -533.84033,221.021" display="inline" enable-background="new"/></g><g id="g4307" stroke="#b2b2b6" stroke-dasharray="none" stroke-miterlimit="4" stroke-opacity="1" stroke-width="2.596" transform="matrix(0.1947281,0,0,0.1905389,132.75417,9.3244293)"><path id="path4309" fill="none" stroke="#b2b2b6" stroke-dasharray="none" stroke-linecap="square" stroke-linejoin="miter" stroke-miterlimit="4" stroke-opacity="1" stroke-width="2.596" d="M -571.0625,216.75 L -573.1875,214.625 L -570.9375,212.375"/><path id="path4311" fill="none" stroke="#b2b2b6" stroke-dasharray="none" stroke-linecap="square" stroke-linejoin="miter" stroke-miterlimit="4" stroke-opacity="1" stroke-width="2.596" d="M -571.34988,221.3499 L -567.87473,221.3499"/><path id="path4313" fill="none" stroke="#b2b2b6" stroke-dasharray="none" stroke-linecap="square" stroke-linejoin="miter" stroke-miterlimit="4" stroke-opacity="1" stroke-width="2.596" d="M -571.81153,214.57452 L -568.0943,214.57452" display="inline" enable-background="new"/><path id="path4315" fill="none" stroke="#b2b2b6" stroke-dasharray="none" stroke-dashoffset="0" stroke-linecap="square" stroke-linejoin="miter" stroke-miterlimit="4" stroke-opacity="1" stroke-width="2.596" d="M -581.16605,214.06253 A 2.53125,3.375 0 1 1 -581.21261,220.81166" display="inline" enable-background="accumulate" overflow="visible" transform="translate(14.18633,0.5432743)" visibility="visible" style="marker:none"/></g></g></g></svg>