<svg xmlns="http://www.w3.org/2000/svg" xmlns:svg="http://www.w3.org/2000/svg" xmlns:xlink="http://www.w3.org/1999/xlink" id="svg4030" width="64" height="64" version="1.0"><defs id="defs4032"><radialGradient id="radialGradient3944" cx="5" cy="41.5" r="5" fx="5" fy="41.5" gradientTransform="matrix(0.5938225,0,0,1.5366531,41.140892,-103.93618)" gradientUnits="userSpaceOnUse" xlink:href="#linearGradient3681"/><linearGradient id="linearGradient3703"><stop id="stop3705" offset="0" stop-color="#000" stop-opacity="0"/><stop id="stop3711" offset=".5" stop-color="#000" stop-opacity="1"/><stop id="stop3707" offset="1" stop-color="#000" stop-opacity="0"/></linearGradient><linearGradient id="linearGradient3942" x1="17.554" x2="17.554" y1="46" y2="35" gradientTransform="matrix(1.7570316,0,0,1.3969574,-17.394014,-16.411698)" gradientUnits="userSpaceOnUse" xlink:href="#linearGradient3703"/><linearGradient id="linearGradient3681"><stop id="stop3683" offset="0" stop-color="#000" stop-opacity="1"/><stop id="stop3685" offset="1" stop-color="#000" stop-opacity="0"/></linearGradient><radialGradient id="radialGradient3940" cx="5" cy="41.5" r="5" fx="5" fy="41.5" gradientTransform="matrix(0.5938225,0,0,1.5366531,-6.6594735,-103.93618)" gradientUnits="userSpaceOnUse" xlink:href="#linearGradient3681"/><linearGradient id="linearGradient3295"><stop id="stop3297" offset="0" stop-color="#c9af8b" stop-opacity="1"/><stop id="stop3299" offset=".239" stop-color="#ad8757" stop-opacity="1"/><stop id="stop3301" offset=".276" stop-color="#c2a57f" stop-opacity="1"/><stop id="stop3303" offset="1" stop-color="#9d7d53" stop-opacity="1"/></linearGradient><linearGradient id="linearGradient3974" x1="15.464" x2="15.464" y1="7.976" y2="45.042" gradientTransform="matrix(1.3414025,0,0,1.3287417,-0.1936585,0.370193)" gradientUnits="userSpaceOnUse" xlink:href="#linearGradient3295"/><linearGradient id="linearGradient3199"><stop id="stop3201" offset="0" stop-color="#dac197" stop-opacity="1"/><stop id="stop3203" offset=".239" stop-color="#c1a581" stop-opacity="1"/><stop id="stop3205" offset=".276" stop-color="#dac197" stop-opacity="1"/><stop id="stop3207" offset="1" stop-color="#a68b60" stop-opacity="1"/></linearGradient><linearGradient id="linearGradient3972" x1="24.823" x2="24.997" y1="15.378" y2="37.277" gradientTransform="matrix(1.7199799,0,0,2.0691988,-8.336229,-19.947272)" gradientUnits="userSpaceOnUse" xlink:href="#linearGradient3199"/><linearGradient id="linearGradient3219"><stop id="stop3225" offset="0" stop-color="#cbad7a" stop-opacity="1"/><stop id="stop3227" offset="1" stop-color="#cbae7d" stop-opacity="0"/></linearGradient><radialGradient id="radialGradient3969" cx="24" cy="31" r="20" fx="24" fy="31" gradientTransform="matrix(2.2339043,0,0,0.875,-21.613703,14.374997)" gradientUnits="userSpaceOnUse" xlink:href="#linearGradient3219"/><linearGradient id="linearGradient4559"><stop id="stop4561" offset="0" stop-color="#fff" stop-opacity="0"/><stop id="stop4563" offset="1" stop-color="#fff" stop-opacity="0"/></linearGradient><linearGradient id="linearGradient3966" x1="23.452" x2="43.007" y1="30.555" y2="45.934" gradientTransform="matrix(1.7199799,0,0,1.5608559,-8.336229,-6.6763471)" gradientUnits="userSpaceOnUse" xlink:href="#linearGradient4559"/><linearGradient id="linearGradient3275"><stop id="stop3277" offset="0" stop-color="#fff" stop-opacity="0"/><stop id="stop3283" offset=".167" stop-color="#fff" stop-opacity="1"/><stop id="stop3285" offset=".832" stop-color="#fff" stop-opacity="1"/><stop id="stop3279" offset="1" stop-color="#fff" stop-opacity="0"/></linearGradient><linearGradient id="linearGradient3960" x1="44.995" x2="3.005" y1="17.5" y2="17.5" gradientTransform="matrix(1.3417982,0,0,1.3287417,-0.2031568,0.247021)" gradientUnits="userSpaceOnUse" spreadMethod="reflect" xlink:href="#linearGradient3275"/><linearGradient id="linearGradient3980"><stop id="stop3982" offset="0" stop-color="#fff" stop-opacity="1"/><stop id="stop3984" offset=".325" stop-color="#fff" stop-opacity="1"/><stop id="stop3986" offset=".374" stop-color="#fff" stop-opacity=".69"/><stop id="stop3988" offset="1" stop-color="#fff" stop-opacity="0"/></linearGradient><linearGradient id="linearGradient3963" x1="26" x2="26" y1="22" y2="8" gradientTransform="matrix(1.4999999,0,0,1.3571429,-3.9999994,0.1428574)" gradientUnits="userSpaceOnUse" xlink:href="#linearGradient3980"/><linearGradient id="linearGradient3076" x1="22.369" x2="22.369" y1="8.032" y2="38.274" gradientTransform="matrix(0.81016199,0,0,0.80527479,30.877615,31.355294)" gradientUnits="userSpaceOnUse" xlink:href="#linearGradient3943"/><linearGradient id="linearGradient3943"><stop id="stop3945" offset="0" stop-color="#fff" stop-opacity="1"/><stop id="stop3947" offset="1" stop-color="#fff" stop-opacity="0"/></linearGradient><linearGradient id="linearGradient3242-7"><stop id="stop3244-5" offset="0" stop-color="#eef87e" stop-opacity="1"/><stop id="stop3246-9" offset=".262" stop-color="#cde34f" stop-opacity="1"/><stop id="stop3248-7" offset=".661" stop-color="#93b723" stop-opacity="1"/><stop id="stop3250-8" offset="1" stop-color="#5a7e0d" stop-opacity="1"/></linearGradient><linearGradient id="linearGradient2490-3"><stop id="stop2492-3" offset="0" stop-color="#365f0e" stop-opacity="1"/><stop id="stop2494-8" offset="1" stop-color="#84a718" stop-opacity="1"/></linearGradient><radialGradient id="radialGradient3164" cx="69.448" cy="51.695" r="31" fx="69.448" fy="51.695" gradientTransform="matrix(0,0.89356802,-0.97209033,0,96.23184,-21.684159)" gradientUnits="userSpaceOnUse" xlink:href="#linearGradient3242-7"/><linearGradient id="linearGradient3166" x1="72.422" x2="72.422" y1="123.191" y2="52.809" gradientTransform="matrix(0.37117353,0,0,0.37420988,16.336726,17.056306)" gradientUnits="userSpaceOnUse" xlink:href="#linearGradient2490-3"/></defs><g id="layer1"><g id="g3305" display="inline" opacity=".3" transform="matrix(1.3379362,0,0,1.3015298,0.02308232,1.7239512)"><rect id="rect2484" width="2.96" height="15.367" x="-3.69" y="-47.848" fill="url(#radialGradient3940)" fill-opacity="1" stroke="none" transform="scale(-1,-1)"/><rect id="rect2486" width="40.412" height="15.367" x="3.69" y="32.482" fill="url(#linearGradient3942)" fill-opacity="1" stroke="none"/><rect id="rect3444" width="2.96" height="15.367" x="44.11" y="-47.848" fill="url(#radialGradient3944)" fill-opacity="1" stroke="none" display="inline" transform="scale(1,-1)"/></g><path id="path2488" fill="url(#linearGradient3972)" fill-opacity="1" fill-rule="nonzero" stroke="url(#linearGradient3974)" stroke-dasharray="none" stroke-dashoffset="0" stroke-linecap="round" stroke-linejoin="miter" stroke-miterlimit="4" stroke-opacity="1" stroke-width=".994" d="m 11.893351,11.664497 39.568319,0 c 2.309875,0 3.349377,-0.380751 4.012876,1.328741 l 4.026533,10.629934 0,34.113998 c 0,2.063939 0.138071,1.748592 -2.171815,1.748592 l -50.6585249,0 c -2.3098849,0 -2.1718158,0.315347 -2.1718158,-1.748592 l 0,-34.113998 4.0265345,-10.629934 c 0.6449886,-1.674961 1.0580077,-1.328741 3.3678932,-1.328741 z" display="block" overflow="visible" visibility="visible" style="marker:none"/><rect id="rect3209" width="54" height="35" x="5" y="24" fill="url(#radialGradient3969)" fill-opacity="1" fill-rule="evenodd" stroke="none" stroke-width="1.7" display="inline" enable-background="accumulate" overflow="visible" visibility="visible" style="marker:none"/><path id="path2490" fill="none" stroke="url(#linearGradient3966)" stroke-dasharray="none" stroke-dashoffset="0" stroke-linecap="butt" stroke-linejoin="miter" stroke-miterlimit="4" stroke-opacity="1" stroke-width=".742" d="m 13.150874,13.010441 37.093631,0 c 2.165417,0 3.505595,0.739493 4.412572,2.771792 l 3.124047,8.530151 0,30.753138 c 0,1.940862 -1.098286,2.91803 -3.263708,2.91803 l -45.2498033,0 c -2.1654173,0 -3.0487076,-1.074722 -3.0487076,-3.015585 l 0,-30.655583 3.0232676,-8.713038 c 0.6046535,-1.57508 1.7432793,-2.588905 3.9087013,-2.588905 z" display="block" opacity=".505" overflow="visible" visibility="visible" style="marker:none"/><path id="path3273" fill="none" stroke="url(#linearGradient3960)" stroke-linecap="square" stroke-linejoin="miter" stroke-opacity="1" stroke-width="1" d="m 4.5001475,23.5 54.9997055,0" display="inline" opacity=".3"/><path id="rect3326" fill="url(#linearGradient3963)" fill-opacity="1" fill-rule="nonzero" stroke="none" stroke-width="1" d="m 29,11 c 1.999999,0 4.000001,0 6,0 0,6.333333 0,12.666666 0,19 -0.590593,0 -1.181187,0 -1.77178,0 -0.604688,0 -1.209376,0 -1.814063,0 -0.486794,0 -0.973585,0 -1.460377,0 -0.317927,0 -0.635854,0 -0.95378,0 0,-6.333334 0,-12.666667 0,-19 z" display="inline" enable-background="accumulate" opacity=".4" overflow="visible" visibility="visible" style="marker:none"/></g><path id="path2262" fill="url(#radialGradient3164)" fill-opacity="1" fill-rule="nonzero" stroke="url(#linearGradient3166)" stroke-dasharray="none" stroke-dashoffset="0" stroke-linecap="round" stroke-linejoin="round" stroke-miterlimit="4" stroke-opacity="1" stroke-width=".985" d="m 44.5,45.5 0,-8.033719 9.104416,0 L 53.5,45.5 l 8.007287,0 0,9 -8.007287,0 0,8.007286 -9,0 0,-8.007286 -8.007286,0 0,-9 8.007286,0 z" color="#000" display="inline" enable-background="accumulate" overflow="visible" visibility="visible" style="marker:none"/><path id="path2272" fill="none" stroke="url(#linearGradient3076)" stroke-dasharray="none" stroke-linecap="butt" stroke-linejoin="miter" stroke-miterlimit="4" stroke-opacity="1" stroke-width="1" d="m 45.5,46.5 0,-8 7,0 0,8 7.999999,0 0,7 -7.999999,0 0,7.999999 -7,0 0,-7.999999 -8.000001,0 0,-7 8.000001,0 z" display="inline" opacity=".4"/></svg>