<svg xmlns="http://www.w3.org/2000/svg" xmlns:svg="http://www.w3.org/2000/svg" xmlns:xlink="http://www.w3.org/1999/xlink" id="svg3359" width="64" height="64" version="1.0"><defs id="defs3361"><radialGradient id="radialGradient3284" cx="605.714" cy="486.648" r="117.143" fx="605.714" fy="486.648" gradientTransform="matrix(2.891661e-2,0,0,1.2352939e-2,26.973101,38.470848)" gradientUnits="userSpaceOnUse" xlink:href="#linearGradient5060"/><linearGradient id="linearGradient5060"><stop id="stop5062" offset="0" stop-color="#000" stop-opacity="1"/><stop id="stop5064" offset="1" stop-color="#000" stop-opacity="0"/></linearGradient><radialGradient id="radialGradient3282" cx="605.714" cy="486.648" r="117.143" fx="605.714" fy="486.648" gradientTransform="matrix(-2.8916604e-2,0,0,1.2352939e-2,21.026894,38.470848)" gradientUnits="userSpaceOnUse" xlink:href="#linearGradient5060"/><linearGradient id="linearGradient5048"><stop id="stop5050" offset="0" stop-color="#000" stop-opacity="0"/><stop id="stop5056" offset=".5" stop-color="#000" stop-opacity="1"/><stop id="stop5052" offset="1" stop-color="#000" stop-opacity="0"/></linearGradient><linearGradient id="linearGradient3280" x1="302.857" x2="302.857" y1="366.648" y2="609.505" gradientTransform="matrix(8.4497041e-2,0,0,1.2352939e-2,-6.5396456,38.470822)" gradientUnits="userSpaceOnUse" xlink:href="#linearGradient5048"/><linearGradient id="linearGradient259-942"><stop id="stop3802" offset="0" stop-color="#fff" stop-opacity="1"/><stop id="stop3804" offset="1" stop-color="#e0e0e0" stop-opacity="1"/></linearGradient><linearGradient id="linearGradient3313" x1="74.799" x2="74.869" y1="116.515" y2="11.679" gradientTransform="matrix(0.6642565,0,0,0.4683309,-77.020882,-65.615587)" gradientUnits="userSpaceOnUse" xlink:href="#linearGradient259-942"/><linearGradient id="linearGradient3610-302"><stop id="stop3796" offset="0" stop-color="#333" stop-opacity="1"/><stop id="stop3798" offset="1" stop-color="#292929" stop-opacity="1"/></linearGradient><linearGradient id="linearGradient3310" x1="-24.032" x2="-24.098" y1="-13.091" y2="-40.164" gradientTransform="matrix(1.4571432,0,0,1.4814813,2.9822608,4.5114288)" gradientUnits="userSpaceOnUse" xlink:href="#linearGradient3610-302"/><linearGradient id="linearGradient4157-401-351"><stop id="stop3790" offset="0" stop-color="#262626" stop-opacity="1"/><stop id="stop3792" offset="1" stop-color="#828282" stop-opacity="1"/></linearGradient><linearGradient id="linearGradient3308" x1="28.938" x2="105.365" y1="17.333" y2="92.824" gradientTransform="matrix(0.6418672,0,0,0.5071133,-75.621312,-64.620203)" gradientUnits="userSpaceOnUse" xlink:href="#linearGradient4157-401-351"/><linearGradient id="linearGradient8838"><stop id="stop8840" offset="0" stop-color="#000" stop-opacity="1"/><stop id="stop8842" offset="1" stop-color="#000" stop-opacity="0"/></linearGradient><radialGradient id="radialGradient3357" cx="62.625" cy="4.625" r="10.625" fx="62.625" fy="4.625" gradientTransform="matrix(1.5058824,0,0,0.37647,-62.305887,46.258823)" gradientUnits="userSpaceOnUse" xlink:href="#linearGradient8838"/><linearGradient id="linearGradient2490"><stop id="stop2492" offset="0" stop-color="#791235" stop-opacity="1"/><stop id="stop2494" offset="1" stop-color="#dd3b27" stop-opacity="1"/></linearGradient><linearGradient id="linearGradient3354" x1="18.379" x2="18.379" y1="44.98" y2="3.082" gradientTransform="matrix(0.6635046,0,0,0.6635046,16.075889,20.075889)" gradientUnits="userSpaceOnUse" xlink:href="#linearGradient2490"/><linearGradient id="linearGradient3242"><stop id="stop3244" offset="0" stop-color="#f8b17e" stop-opacity="1"/><stop id="stop3246" offset=".262" stop-color="#e35d4f" stop-opacity="1"/><stop id="stop3248" offset=".661" stop-color="#c6262e" stop-opacity="1"/><stop id="stop3250" offset="1" stop-color="#690b54" stop-opacity="1"/></linearGradient><radialGradient id="radialGradient3352" cx="23.896" cy="3.99" r="20.397" fx="23.896" fy="3.99" gradientTransform="matrix(0,1.5835583,-2.0902688,0,40.34018,-16.357108)" gradientUnits="userSpaceOnUse" xlink:href="#linearGradient3242"/><linearGradient id="linearGradient3349" x1="63.397" x2="63.397" y1="-12.489" y2="5.468" gradientTransform="matrix(1.4293064,0,0,1.429274,-56.903438,41.017945)" gradientUnits="userSpaceOnUse" xlink:href="#linearGradient4873"/><linearGradient id="linearGradient3781"><stop id="stop3783" offset="0" stop-color="#fff" stop-opacity="1"/><stop id="stop3785" offset="1" stop-color="#fff" stop-opacity="0"/></linearGradient><linearGradient id="linearGradient3346" x1="24.481" x2="24.481" y1="5.081" y2="45.074" gradientTransform="matrix(0.7178932,0,0,0.7178932,14.77056,18.052669)" gradientUnits="userSpaceOnUse" xlink:href="#linearGradient3781"/><linearGradient id="linearGradient3329" x1="-42.773" x2="-42.728" y1="-12.075" y2="-59.088" gradientUnits="userSpaceOnUse" xlink:href="#linearGradient4873"/><linearGradient id="linearGradient4873"><stop id="stop4875" offset="0" stop-color="#fff" stop-opacity="1"/><stop id="stop4877" offset="1" stop-color="#fff" stop-opacity="0"/></linearGradient><linearGradient id="linearGradient3333" x1="-42.773" x2="-42.728" y1="-12.075" y2="-59.088" gradientTransform="matrix(0.9298246,0,0,0.9130437,-2.3114597,67.909111)" gradientUnits="userSpaceOnUse" xlink:href="#linearGradient4873"/></defs><g id="layer1"><g id="g3257" opacity=".4" transform="scale(1.3333333,1.3333333)"><rect id="rect2879" width="40.8" height="3" x="3.6" y="43" fill="url(#linearGradient3280)" fill-opacity="1" fill-rule="nonzero" stroke="none" stroke-dasharray="none" stroke-dashoffset="0" stroke-linecap="round" stroke-linejoin="miter" stroke-miterlimit="4" stroke-opacity="1" stroke-width="1" marker-end="none" marker-mid="none" marker-start="none" display="inline" opacity="1" overflow="visible" visibility="visible" style="marker:none"/><path id="path2881" fill="url(#radialGradient3282)" fill-opacity="1" fill-rule="nonzero" stroke="none" stroke-dasharray="none" stroke-dashoffset="0" stroke-linecap="round" stroke-linejoin="miter" stroke-miterlimit="4" stroke-opacity="1" stroke-width="1" marker-end="none" marker-mid="none" marker-start="none" d="M 3.6,43.00013 C 3.6,43.00013 3.6,45.999965 3.6,45.999965 C 2.1108662,46.005612 7.1054274e-15,45.327854 7.1054274e-15,44.499854 C 7.1054274e-15,43.671856 1.6617608,43.000131 3.6,43.00013 z" display="inline" opacity="1" overflow="visible" visibility="visible" style="marker:none"/><path id="path2883" fill="url(#radialGradient3284)" fill-opacity="1" fill-rule="nonzero" stroke="none" stroke-dasharray="none" stroke-dashoffset="0" stroke-linecap="round" stroke-linejoin="miter" stroke-miterlimit="4" stroke-opacity="1" stroke-width="1" marker-end="none" marker-mid="none" marker-start="none" d="M 44.4,43.00013 C 44.4,43.00013 44.4,45.999965 44.4,45.999965 C 45.889133,46.005612 48,45.327854 48,44.499854 C 48,43.671856 46.338239,43.000131 44.4,43.00013 z" display="inline" opacity="1" overflow="visible" visibility="visible" style="marker:none"/></g><rect id="rect3580" width="58.955" height="47.896" x="-61.444" y="-59.504" fill="url(#linearGradient3313)" fill-opacity="1" stroke="#c1c1c1" stroke-dasharray="none" stroke-linecap="round" stroke-linejoin="miter" stroke-miterlimit="4" stroke-opacity=".969" stroke-width="1" transform="matrix(-0.9999984,1.7625461e-3,-9.4451736e-4,-0.9999996,0,0)"/><rect id="rect3582" width="50.905" height="39.805" x="-57.538" y="-55.526" fill="url(#linearGradient3308)" fill-opacity="1" stroke="url(#linearGradient3310)" stroke-dasharray="none" stroke-linecap="round" stroke-linejoin="miter" stroke-miterlimit="4" stroke-opacity="1" stroke-width="1" rx="0" ry="0" transform="matrix(-0.9999927,3.8288606e-3,2.3939956e-3,-0.9999971,0,0)"/><path id="path8836" fill="url(#radialGradient3357)" fill-opacity="1" fill-rule="evenodd" stroke="none" stroke-dasharray="none" stroke-dashoffset="0" stroke-linecap="butt" stroke-linejoin="round" stroke-miterlimit="4" stroke-opacity="1" stroke-width="1" marker-end="none" marker-mid="none" marker-start="none" d="M 47.999995,47.999999 C 47.999995,50.209138 40.836551,51.999999 31.999996,51.999999 C 23.16344,51.999999 15.999996,50.209138 15.999996,47.999999 C 15.999996,45.790861 23.16344,43.999999 31.999996,43.999999 C 40.836551,43.999999 47.999995,45.790861 47.999995,47.999999 L 47.999995,47.999999 z" display="inline" opacity=".4" overflow="visible" visibility="visible" style="marker:none"/><path id="path2555" fill="url(#radialGradient3352)" fill-opacity="1" stroke="url(#linearGradient3354)" stroke-dasharray="none" stroke-dashoffset="0" stroke-linecap="round" stroke-linejoin="round" stroke-miterlimit="4" stroke-opacity="1" stroke-width="1.004" d="M 32.000003,22.501828 C 24.552176,22.501828 18.501828,28.552174 18.501828,36 C 18.501828,43.447827 24.552176,49.498178 32.000003,49.498174 C 39.447826,49.498174 45.498182,43.447827 45.498174,36 C 45.498174,28.552174 39.447826,22.501828 32.000003,22.501828 z M 32.000003,26.835342 C 37.06352,26.835342 41.16466,30.936485 41.16466,36 C 41.16466,38.125118 40.428342,40.064999 39.215613,41.619057 L 27.604285,27.955007 C 28.90885,27.241202 30.407341,26.835342 32.000003,26.835342 z M 24.659981,30.526087 L 36.229846,44.127934 C 34.964421,44.787199 33.526261,45.164661 32.000003,45.164661 C 26.936486,45.164659 22.835344,41.063517 22.835344,36 C 22.835344,33.942948 23.516731,32.055037 24.659981,30.526087 z"/><path id="path2463" fill="none" fill-opacity="1" fill-rule="nonzero" stroke="url(#linearGradient3349)" stroke-dasharray="none" stroke-miterlimit="4" stroke-opacity="1" stroke-width="1" d="M 44.500002,35.999556 C 44.500002,42.903339 38.903147,48.5 32.00016,48.5 C 25.096538,48.5 19.500001,42.903277 19.500001,35.999556 C 19.500001,29.096094 25.096538,23.5 32.00016,23.5 C 38.903147,23.5 44.500002,29.096094 44.500002,35.999556 L 44.500002,35.999556 z" opacity=".4"/><path id="path3270" fill="none" fill-rule="evenodd" stroke="url(#linearGradient3346)" stroke-linecap="round" stroke-linejoin="miter" stroke-opacity="1" stroke-width="1" d="M 26.678462,28.480102 L 38.558927,42.415093" opacity=".4"/><rect id="rect3319" width="56.956" height="45.9" x="-60.444" y="-58.506" fill="none" fill-opacity="1" stroke="url(#linearGradient3329)" stroke-dasharray="none" stroke-linecap="round" stroke-linejoin="miter" stroke-miterlimit="4" stroke-opacity=".969" stroke-width="1" transform="matrix(-0.9999985,1.7483731e-3,-9.5217409e-4,-0.9999995,0,0)"/><rect id="rect3331" width="52.959" height="41.909" x="-58.514" y="14.49" fill="none" fill-opacity="1" stroke="url(#linearGradient3333)" stroke-dasharray="none" stroke-linecap="round" stroke-linejoin="miter" stroke-miterlimit="4" stroke-opacity=".969" stroke-width="1" transform="matrix(-0.9999985,-1.7168195e-3,-9.696743e-4,0.9999995,0,0)"/></g></svg>