<svg xmlns="http://www.w3.org/2000/svg" xmlns:svg="http://www.w3.org/2000/svg" xmlns:xlink="http://www.w3.org/1999/xlink" id="svg3309" width="32" height="32" version="1.1"><defs id="defs3311"><radialGradient id="radialGradient4424" cx="605.714" cy="486.648" r="117.143" fx="605.714" fy="486.648" gradientTransform="matrix(0.02409717,0,0,0.01537476,26.477584,38.629039)" gradientUnits="userSpaceOnUse" xlink:href="#linearGradient5060"/><linearGradient id="linearGradient5060"><stop id="stop5062" offset="0" stop-color="#000" stop-opacity="1"/><stop id="stop5064" offset="1" stop-color="#000" stop-opacity="0"/></linearGradient><radialGradient id="radialGradient4422" cx="605.714" cy="486.648" r="117.143" fx="605.714" fy="486.648" gradientTransform="matrix(-0.02409717,0,0,0.01537476,21.522412,38.629039)" gradientUnits="userSpaceOnUse" xlink:href="#linearGradient5060"/><linearGradient id="linearGradient5048"><stop id="stop5050" offset="0" stop-color="#000" stop-opacity="0"/><stop id="stop5056" offset=".5" stop-color="#000" stop-opacity="1"/><stop id="stop5052" offset="1" stop-color="#000" stop-opacity="0"/></linearGradient><linearGradient id="linearGradient4420" x1="302.857" x2="302.857" y1="366.648" y2="609.505" gradientTransform="matrix(0.0704142,0,0,0.01537476,-1.4497047,38.629007)" gradientUnits="userSpaceOnUse" xlink:href="#linearGradient5048"/><linearGradient id="linearGradient3104"><stop id="stop3106" offset="0" stop-color="#aaa" stop-opacity="1"/><stop id="stop3108" offset="1" stop-color="#d2d2d2" stop-opacity="1"/></linearGradient><linearGradient id="linearGradient3600"><stop id="stop3602" offset="0" stop-color="#f4f4f4" stop-opacity="1"/><stop id="stop3604" offset="1" stop-color="#dbdbdb" stop-opacity="1"/></linearGradient><linearGradient id="linearGradient8589"><stop id="stop8591" offset="0" stop-color="#fefefe" stop-opacity="1"/><stop id="stop8593" offset="1" stop-color="#cbcbcb" stop-opacity="1"/></linearGradient><linearGradient id="linearGradient3135" x1="32.892" x2="36.358" y1="8.059" y2="5.457" gradientTransform="matrix(0.65097232,0,0,0.7184301,-0.06567137,0.93096268)" gradientUnits="userSpaceOnUse" xlink:href="#linearGradient8589"/><linearGradient id="linearGradient3476" x1="25.132" x2="25.132" y1="6.729" y2="47.013" gradientTransform="matrix(0.62848309,0,0,0.62222209,0.4148459,1.5648289)" gradientUnits="userSpaceOnUse" xlink:href="#linearGradient3600"/><linearGradient id="linearGradient3478" x1="-51.786" x2="-51.786" y1="50.786" y2="2.906" gradientTransform="matrix(0.50749809,0,0,0.58230722,37.75317,0.87137486)" gradientUnits="userSpaceOnUse" xlink:href="#linearGradient3104"/><linearGradient id="linearGradient8639" x1="23.576" x2="23.576" y1="25.357" y2="31.211" gradientTransform="matrix(0.415777,-0.4174938,0.518983,0.5146192,-15.747227,2.6503673)" gradientUnits="userSpaceOnUse" spreadMethod="pad" xlink:href="#linearGradient3155-40-6"/><linearGradient id="linearGradient3155-40-6"><stop id="stop2541-6" offset="0" stop-color="#181818" stop-opacity="1"/><stop id="stop2543-0" offset=".135" stop-color="#dbdbdb" stop-opacity="1"/><stop id="stop2545-2" offset=".202" stop-color="#a4a4a4" stop-opacity="1"/><stop id="stop2547-5" offset=".27" stop-color="#fff" stop-opacity="1"/><stop id="stop2549-8" offset=".447" stop-color="#8d8d8d" stop-opacity="1"/><stop id="stop2551-9" offset=".571" stop-color="#959595" stop-opacity="1"/><stop id="stop2553-5" offset=".72" stop-color="#cecece" stop-opacity="1"/><stop id="stop2555-0" offset="1" stop-color="#181818" stop-opacity="1"/></linearGradient><linearGradient id="linearGradient8641" x1="30.038" x2="30.038" y1="24.99" y2="30" gradientTransform="matrix(0.4040235,-0.4056919,0.6073752,0.6022679,-17.867764,0.6930272)" gradientUnits="userSpaceOnUse" xlink:href="#linearGradient3240-279-0"/><linearGradient id="linearGradient3240-279-0"><stop id="stop2559-0" offset="0" stop-color="#565656" stop-opacity="1"/><stop id="stop2561-3" offset=".5" stop-color="#9a9a9a" stop-opacity="1"/><stop id="stop2563-4" offset="1" stop-color="#545454" stop-opacity="1"/></linearGradient><linearGradient id="linearGradient8643" x1="30.038" x2="30.038" y1="24.99" y2="30" gradientTransform="matrix(0.4040235,-0.4056919,0.6073752,0.6022679,-17.983472,0.8092126)" gradientUnits="userSpaceOnUse" xlink:href="#linearGradient3223-789-1"/><linearGradient id="linearGradient3223-789-1"><stop id="stop2567-5" offset="0" stop-color="#b1b1b1" stop-opacity="1"/><stop id="stop2569-6" offset=".5" stop-color="#fff" stop-opacity="1"/><stop id="stop2571-5" offset="1" stop-color="#8f8f8f" stop-opacity="1"/></linearGradient><linearGradient id="linearGradient8645" x1="30.038" x2="30.038" y1="24.99" y2="30" gradientTransform="matrix(0.4040235,-0.4056919,0.6073752,0.6022679,-17.465684,0.2892868)" gradientUnits="userSpaceOnUse" xlink:href="#linearGradient3240-686-6"/><linearGradient id="linearGradient3240-686-6"><stop id="stop2575-3" offset="0" stop-color="#565656" stop-opacity="1"/><stop id="stop2577-0" offset=".5" stop-color="#9a9a9a" stop-opacity="1"/><stop id="stop2579-2" offset="1" stop-color="#545454" stop-opacity="1"/></linearGradient><linearGradient id="linearGradient8647" x1="30.038" x2="30.038" y1="24.99" y2="30" gradientTransform="matrix(0.4040235,-0.4056919,0.6073752,0.6022679,-17.581392,0.4054707)" gradientUnits="userSpaceOnUse" xlink:href="#linearGradient3223-768-7"/><linearGradient id="linearGradient3223-768-7"><stop id="stop2583-2" offset="0" stop-color="#b1b1b1" stop-opacity="1"/><stop id="stop2585-2" offset=".5" stop-color="#fff" stop-opacity="1"/><stop id="stop2587-1" offset="1" stop-color="#8f8f8f" stop-opacity="1"/></linearGradient><linearGradient id="linearGradient8649" x1="30.038" x2="30.038" y1="24.99" y2="30" gradientTransform="matrix(0.4040235,-0.4056919,0.6073752,0.6022679,-17.061661,-0.1164056)" gradientUnits="userSpaceOnUse" xlink:href="#linearGradient3240-907-6"/><linearGradient id="linearGradient3240-907-6"><stop id="stop2591-4" offset="0" stop-color="#565656" stop-opacity="1"/><stop id="stop2593-7" offset=".5" stop-color="#9a9a9a" stop-opacity="1"/><stop id="stop2595-9" offset="1" stop-color="#545454" stop-opacity="1"/></linearGradient><linearGradient id="linearGradient8651" x1="30.038" x2="30.038" y1="24.99" y2="30" gradientTransform="matrix(0.4040235,-0.4056919,0.6073752,0.6022679,-17.177369,-2.1969969e-4)" gradientUnits="userSpaceOnUse" xlink:href="#linearGradient3223-699-9"/><linearGradient id="linearGradient3223-699-9"><stop id="stop2599-2" offset="0" stop-color="#b1b1b1" stop-opacity="1"/><stop id="stop2601-7" offset=".5" stop-color="#fff" stop-opacity="1"/><stop id="stop2603-3" offset="1" stop-color="#8f8f8f" stop-opacity="1"/></linearGradient><linearGradient id="linearGradient8653" x1="9" x2="9" y1="29.057" y2="26.03" gradientTransform="matrix(0.4040235,-0.4056919,0.6073752,0.602268,-17.636692,0.462492)" gradientUnits="userSpaceOnUse" xlink:href="#linearGradient3290-678-7"/><linearGradient id="linearGradient3290-678-7"><stop id="stop2607-8" offset="0" stop-color="#ece5a5" stop-opacity="1"/><stop id="stop2609-5" offset="1" stop-color="#fcfbf2" stop-opacity="1"/></linearGradient><linearGradient id="linearGradient8655" x1="5.518" x2="9.522" y1="37.372" y2="41.392" gradientTransform="matrix(0.3763801,0.03615261,0.03669995,0.374874,-2.2182805,-1.1331002)" gradientUnits="userSpaceOnUse" xlink:href="#linearGradient3191-577-1"/><linearGradient id="linearGradient3191-577-1"><stop id="stop2613-6" offset="0" stop-color="#dbce48" stop-opacity="1"/><stop id="stop2615-5" offset="1" stop-color="#c5b625" stop-opacity="1"/></linearGradient></defs><g id="g3704" display="inline" transform="matrix(0.625,0,0,0.80345577,0.5,-6.5658764)"><rect id="rect3706" width="34" height="3.734" x="7" y="44.266" fill="url(#linearGradient4420)" fill-opacity="1" fill-rule="nonzero" stroke="none" stroke-width="1" display="inline" opacity=".402" overflow="visible" visibility="visible" style="marker:none"/><path id="path3708" fill="url(#radialGradient4422)" fill-opacity="1" fill-rule="nonzero" stroke="none" stroke-width="1" d="m 7,44.266291 c 0,0 0,3.733665 0,3.733665 -1.2409448,0.007 -3,-0.836525 -3,-1.867073 0,-1.030547 1.3848007,-1.866591 3,-1.866592 z" display="inline" opacity=".402" overflow="visible" visibility="visible" style="marker:none"/><path id="path3710" fill="url(#radialGradient4424)" fill-opacity="1" fill-rule="nonzero" stroke="none" stroke-width="1" d="m 41,44.266291 c 0,0 0,3.733665 0,3.733665 1.240944,0.007 3,-0.836525 3,-1.867073 0,-1.030547 -1.384801,-1.866591 -3,-1.866592 z" display="inline" opacity=".402" overflow="visible" visibility="visible" style="marker:none"/></g><path id="path3712" fill="url(#linearGradient3476)" fill-opacity="1" stroke="url(#linearGradient3478)" stroke-dasharray="none" stroke-dashoffset="0" stroke-linecap="butt" stroke-linejoin="round" stroke-miterlimit="4" stroke-opacity="1" stroke-width="1" d="m 4.4999609,2.4981372 c 5.0406162,0 10.0812401,0 15.1218551,0 0.884238,0.3020142 5.63464,3.7427529 6.875102,6.125123 0,7.2916408 0,14.5832798 0,21.8749218 -7.332316,0 -14.664641,0 -21.9969571,0 0,-9.333351 0,-18.666696 0,-28.0000448 z" display="inline"/><path id="path3755" fill="#000" fill-opacity=".327" fill-rule="evenodd" stroke="#000" stroke-dasharray="none" stroke-linecap="butt" stroke-linejoin="round" stroke-miterlimit="4" stroke-opacity=".166" stroke-width=".5" d="m 19.25,2.25 c 0.415952,2.7847712 0.397658,6.0990459 0.397658,6.0990459 0,0 3.177371,-0.075272 7.102342,0.400954 C 23.554914,5.5178222 21.315903,4.1700936 19.25,2.25 z" display="inline"/><path id="path3757" fill="url(#linearGradient3135)" fill-opacity="1" fill-rule="evenodd" stroke="none" d="m 19.178474,2.0429579 c 0.921438,2.7830431 0.845011,5.576685 0.845011,5.576685 0,0 5.11083,0.3694813 6.639016,1.0760402 0,-1.1551673 -6.066377,-6.6330058 -7.484027,-6.6527252 z" display="inline"/><g id="layer1" transform="translate(12.999773,10.963912)"><g id="g8626" transform="matrix(1.030012,0,0,1.0325071,-0.016773,-0.5215254)"><path id="rect2383" fill="url(#linearGradient8639)" fill-opacity="1" stroke="#0c0c0c" stroke-dasharray="none" stroke-dashoffset="0" stroke-linecap="butt" stroke-linejoin="round" stroke-miterlimit="4" stroke-opacity="1" stroke-width=".485" d="m 2.0488085,11.037368 c 0.2865424,-0.207707 1.1479509,0.256388 1.9603385,1.061945 0.8104458,0.803629 1.2601996,1.641331 1.0575577,1.930575 -7.708e-4,0.0011 0.01977,0.01774 0.01898,0.01882 L 15.224149,3.8683779 C 15.481557,3.6099071 15.011041,2.7247557 14.172862,1.893626 13.334685,1.0624962 12.444681,0.59856571 12.187272,0.85703737 L 2.0488085,11.037368 z"/><path id="rect3175" fill="#ffb6ed" fill-opacity="1" stroke="#e28ccd" stroke-dasharray="none" stroke-dashoffset="0" stroke-linecap="butt" stroke-linejoin="round" stroke-miterlimit="4" stroke-opacity="1" stroke-width=".485" d="m 10.565423,2.4840909 c 0.286542,-0.2077065 1.147951,0.2563879 1.960338,1.0619443 0.810445,0.8036291 1.260199,1.6413295 1.057557,1.9305744 -7.69e-4,0.0011 0.01977,0.017738 0.01898,0.018821 L 15.154234,3.9383089 C 15.562715,3.5297289 15.124956,2.8454879 14.172862,1.893626 13.360476,1.0880699 12.499066,0.6239749 12.212525,0.83168148 l -0.02525,0.0253559 -1.621849,1.62705352 z" opacity=".8"/><path id="path3208" fill="#0c0c0c" fill-opacity="1" stroke="none" d="m 2.0488079,11.037368 c 0.286543,-0.207708 1.1479512,0.256388 1.960339,1.061943 0.8104449,0.80363 1.2601992,1.641332 1.0575579,1.930577 -7.714e-4,0.0011 0.01977,0.01774 0.01898,0.01882 l 6.9820302,-7.0108637 0.02525,-0.025356 c 7.9e-4,-0.00108 -0.01975,-0.01772 -0.01898,-0.01882 C 12.276628,6.7044221 11.826873,5.8667226 11.01643,5.0630931 10.204041,4.2575368 9.3426319,3.7934425 9.0560897,4.0011493 l -0.025251,0.025355 -6.9820304,7.0108637 z" opacity=".6"/><path id="path3233" fill="url(#linearGradient8641)" fill-opacity="1" stroke="none" d="m 9.1785348,3.8767048 c 0.2865413,-0.2077068 1.1479522,0.2563879 1.9603392,1.0619443 0.810445,0.8036291 1.2602,1.6413294 1.057556,1.9305753 -7.71e-4,0.0011 0.01977,0.017736 0.01898,0.01882 l 0.126256,-0.1267795 c 7.9e-4,-0.00108 -0.01975,-0.01772 -0.01898,-0.01882 C 12.525331,6.4531992 12.075576,5.6154986 11.26513,4.8118704 10.452743,4.0063135 9.5913335,3.542219 9.3047918,3.7499256 l -0.126257,0.1267792 z"/><path id="path3216" fill="url(#linearGradient8643)" fill-opacity="1" stroke="none" d="m 9.0628273,3.9928895 c 0.2865436,-0.2077068 1.1479527,0.2563878 1.9603397,1.061944 0.810444,0.8036294 1.2602,1.6413292 1.057556,1.9305742 -7.71e-4,0.0011 0.01977,0.017738 0.01898,0.018822 L 12.22596,6.8774498 c 7.9e-4,-0.00108 -0.01975,-0.017721 -0.01898,-0.018821 C 12.409623,6.569384 11.95987,5.7316836 11.149423,4.9280545 10.337036,4.1224982 9.4756273,3.6584033 9.1890844,3.8661101 L 9.0628273,3.9928895 z"/><path id="path3248" fill="url(#linearGradient8645)" fill-opacity="1" stroke="none" d="m 9.5806143,3.4729643 c 0.2865426,-0.2077069 1.1479517,0.2563872 1.9603387,1.0619442 0.810446,0.803629 1.2602,1.6413292 1.057558,1.9305747 -7.73e-4,0.0011 0.01977,0.017737 0.01898,0.01882 l 0.126258,-0.1267784 c 7.91e-4,-0.00108 -0.01975,-0.017721 -0.01898,-0.01882 C 12.927411,6.0494594 12.477656,5.2117588 11.66721,4.4081298 10.854824,3.6025731 9.9934151,3.1384786 9.7068717,3.3461854 L 9.5806143,3.4729643 z"/><path id="path3250" fill="url(#linearGradient8647)" fill-opacity="1" stroke="none" d="m 9.4649071,3.5891488 c 0.2865435,-0.207707 1.1479529,0.2563877 1.9603379,1.061944 0.810447,0.8036298 1.260201,1.6413294 1.057558,1.9305748 -7.69e-4,0.0011 0.01977,0.017737 0.01898,0.018821 l 0.126257,-0.12678 c 7.9e-4,-0.00108 -0.01975,-0.01772 -0.01898,-0.01882 C 12.811705,6.1656438 12.361949,5.3279425 11.551504,4.5243147 10.739118,3.718758 9.877708,3.254663 9.5911645,3.46237 L 9.4649071,3.5891488 z"/><path id="path3256" fill="url(#linearGradient8649)" fill-opacity="1" stroke="none" d="M 9.9846388,3.0672723 C 10.27118,2.8595657 11.13259,3.3236601 11.944976,4.1292168 c 0.810446,0.8036288 1.260201,1.641329 1.057558,1.9305741 -7.7e-4,0.0011 0.01977,0.017738 0.01898,0.018821 L 13.14777,5.9518328 c 7.92e-4,-0.00108 -0.01975,-0.017721 -0.01898,-0.018821 C 13.331434,5.6437674 12.881679,4.8060668 12.071233,4.0024374 11.258848,3.1968815 10.397438,2.7327869 10.110895,2.9404937 L 9.9846388,3.0672723 z"/><path id="path3258" fill="url(#linearGradient8651)" fill-opacity="1" stroke="none" d="m 9.8689318,3.1834569 c 0.2865412,-0.2077072 1.1479512,0.2563879 1.9603392,1.0619447 0.810444,0.8036283 1.260198,1.6413291 1.057556,1.9305739 -7.71e-4,0.0011 0.01977,0.017737 0.01898,0.018821 l 0.126258,-0.1267782 c 7.89e-4,-0.00108 -0.01975,-0.017722 -0.01898,-0.018821 C 13.215727,5.7599515 12.765972,4.9222512 11.955527,4.1186224 11.143141,3.313066 10.281731,2.848971 9.9951884,3.0566783 L 9.8689318,3.1834569 z"/><path id="path3270" fill="url(#linearGradient8653)" fill-opacity="1" fill-rule="evenodd" stroke="url(#linearGradient8655)" stroke-dasharray="none" stroke-linecap="butt" stroke-linejoin="miter" stroke-miterlimit="4" stroke-opacity="1" stroke-width=".485" d="m 0.25980529,15.79419 4.77185621,-1.725488 0.039308,-0.03926 C 5.2736124,13.740202 4.8185731,12.902156 4.0081274,12.098526 3.1957395,11.29297 2.335449,10.831246 2.0489062,11.038953 L 0.25980529,15.79419 z"/><path id="path3281" fill="#0c0c0c" fill-opacity="1" fill-rule="evenodd" stroke="#0c0c0c" stroke-dasharray="none" stroke-linecap="butt" stroke-linejoin="miter" stroke-miterlimit="4" stroke-opacity="1" stroke-width=".485" d="M 0.7444326,14.506276 0.25922075,15.788967 1.560593,15.315574 C 1.446907,15.182439 1.3413094,15.047739 1.2062351,14.913801 1.0507282,14.759602 0.89915498,14.633134 0.7444326,14.506276 z"/></g></g></svg>