<svg xmlns="http://www.w3.org/2000/svg" xmlns:svg="http://www.w3.org/2000/svg" xmlns:xlink="http://www.w3.org/1999/xlink" id="svg2526" width="32" height="32" version="1.0"><defs id="defs2528"><linearGradient id="linearGradient3390-178-986-453"><stop id="stop3624" offset="0" stop-color="#bb5e12" stop-opacity="1"/><stop id="stop3626" offset="1" stop-color="#cd8033" stop-opacity="1"/></linearGradient><linearGradient id="linearGradient7012-661-145-733-759-865-745-661-970-94"><stop id="stop3618" offset="0" stop-color="#edd563" stop-opacity="1"/><stop id="stop3620" offset="1" stop-color="#e08223" stop-opacity="1"/></linearGradient><linearGradient id="linearGradient11223" x1="4.191" x2="47.32" y1="11.113" y2="56.052" gradientUnits="userSpaceOnUse"><stop id="stop11225" offset="0" stop-color="#fff" stop-opacity="1"/><stop id="stop11227" offset="1" stop-color="#fff" stop-opacity="0"/></linearGradient><linearGradient id="linearGradient3141" x1="29.127" x2="29.291" y1="19.788" y2="57.567" gradientTransform="matrix(0.66654339,0,-0.00290144,0.70498906,-3.3568132,-11.767122)" gradientUnits="userSpaceOnUse" xlink:href="#linearGradient11223"/><linearGradient id="linearGradient3144" x1="24" x2="24" y1="-3" y2="47" gradientTransform="matrix(0.64447283,0,0,0.65119301,0.53270082,0.48991886)" gradientUnits="userSpaceOnUse" xlink:href="#linearGradient7012-661-145-733-759-865-745-661-970-94"/><linearGradient id="linearGradient3146" x1="20" x2="20" y1="47" y2="-3" gradientTransform="matrix(0.64447283,0,0,0.65119301,0.53270082,0.48991886)" gradientUnits="userSpaceOnUse" xlink:href="#linearGradient3390-178-986-453"/><linearGradient id="linearGradient5060-4"><stop id="stop5062-2" offset="0" stop-color="#000" stop-opacity="1"/><stop id="stop5064-21" offset="1" stop-color="#000" stop-opacity="0"/></linearGradient><linearGradient id="linearGradient5048-2"><stop id="stop5050-1" offset="0" stop-color="#000" stop-opacity="0"/><stop id="stop5056-7" offset=".5" stop-color="#000" stop-opacity="1"/><stop id="stop5052-56" offset="1" stop-color="#000" stop-opacity="0"/></linearGradient><radialGradient id="radialGradient4807" cx="605.714" cy="486.648" r="117.143" fx="605.714" fy="486.648" gradientTransform="matrix(-0.04372487,0,0,0.02470588,31.794818,16.941641)" gradientUnits="userSpaceOnUse" xlink:href="#linearGradient5060-4"/><radialGradient id="radialGradient4810" cx="605.714" cy="486.648" r="117.143" fx="605.714" fy="486.648" gradientTransform="matrix(0.04372487,0,0,0.02470588,0.20518964,16.941641)" gradientUnits="userSpaceOnUse" xlink:href="#linearGradient5060-4"/><linearGradient id="linearGradient4813" x1="302.857" x2="302.857" y1="366.648" y2="609.505" gradientTransform="matrix(0.04372487,0,0,0.02470588,0.19658457,16.941641)" gradientUnits="userSpaceOnUse" xlink:href="#linearGradient5048-2"/></defs><g id="g4815"><rect id="rect13073" width="21.113" height="6" x="5.444" y="26" fill="url(#linearGradient4813)" fill-opacity="1" fill-rule="nonzero" stroke="none" stroke-width="1" display="inline" opacity=".5" overflow="visible" visibility="visible" style="marker:none"/><path id="path13075" fill="url(#radialGradient4810)" fill-opacity="1" fill-rule="nonzero" stroke="none" stroke-width="1" d="m 26.556433,26.000207 c 0,0 0,5.999668 0,5.999668 2.251722,0.01129 5.443569,-1.344221 5.443567,-3.00022 0,-1.655999 -2.512752,-2.999448 -5.443567,-2.999448 z" display="inline" opacity=".5" overflow="visible" visibility="visible" style="marker:none"/><path id="path13077" fill="url(#radialGradient4807)" fill-opacity="1" fill-rule="nonzero" stroke="none" stroke-width="1" d="m 5.4435688,26.000207 c 0,0 0,5.999668 0,5.999668 C 3.1918459,32.01117 0,30.655654 0,28.999655 0,27.343656 2.5127524,26.000207 5.4435688,26.000207 z" display="inline" opacity=".5" overflow="visible" visibility="visible" style="marker:none"/></g><path id="path11155" fill="url(#linearGradient3144)" fill-opacity="1" fill-rule="nonzero" stroke="url(#linearGradient3146)" stroke-dasharray="none" stroke-miterlimit="4" stroke-opacity="1" stroke-width="1" d="M 30.293706,26.537007 17.707019,2.5370507 C 17.34524,1.8704001 16.690611,1.5000168 15.961552,1.5000168 c -0.729066,0 -1.387049,0.4443592 -1.75432,1.1110378 L 1.7142743,26.610982 c -0.2940616,0.592479 -0.2974376,1.407278 0.064597,2.000037 0.3620876,0.592478 0.9441233,0.888998 1.6731631,0.888998 l 25.0796416,0 c 0.729066,0 1.38673,-0.370439 1.680792,-0.962919 0.366979,-0.592478 0.370036,-1.333357 0.08108,-2.000036 z"/><path id="path11159" fill="none" stroke="url(#linearGradient3141)" stroke-dasharray="none" stroke-miterlimit="4" stroke-opacity="1" stroke-width="1" d="M 28.898534,25.779007 17.36255,3.753272 C 16.871242,2.8044281 16.695021,2.5000004 15.948373,2.5000004 c -0.642175,0 -0.97818,0.4433584 -1.442248,1.3389904 L 3.0981827,25.846989 c -0.6624369,1.235619 -0.733411,1.557701 -0.4145599,2.101545 0.3188499,0.543847 0.728237,0.514227 2.2408857,0.549701 l 22.4216245,0 c 1.408249,0.01773 1.725468,-0.09157 1.984575,-0.635418 0.323323,-0.543848 0.185799,-0.975324 -0.432174,-2.08381 z" opacity=".4"/><path font-stretch="normal" style="text-align:start;line-height:125%" id="path3295" fill="#000" fill-opacity="1" stroke="none" d="m 14.069304,9.6645041 c 0.442593,3.6356909 0.949561,7.2463629 1.326321,10.8962959 0.378948,0 0.82341,0 1.202357,0 0.312512,-3.505094 0.816576,-6.989009 1.180191,-10.489754 0.185353,-0.8289287 -0.320739,-1.8131252 -1.361617,-2.0145176 -1.028546,-0.2528875 -2.177687,0.3733413 -2.314454,1.2678585 -0.02268,0.1122918 -0.0328,0.2262588 -0.0328,0.3401172 l -1e-6,0 z M 13.93813,24.446206 c -0.0468,1.082208 1.36919,1.93055 2.578173,1.587449 1.170986,-0.251322 1.787762,-1.489025 1.187629,-2.368818 -0.537222,-0.90946 -2.112596,-1.20911 -3.018835,-0.513063 -0.458087,0.31649 -0.761713,0.788969 -0.746967,1.294433 l 0,-1e-6 z" font-family="Georgia" font-size="62.458" font-style="normal" font-variant="normal" font-weight="normal" opacity=".2" text-anchor="start" writing-mode="lr-tb"/><path font-stretch="normal" style="text-align:start;line-height:125%" id="text2315" fill="#fff" fill-opacity="1" stroke="none" d="m 14.069304,10.553606 c 0.442593,3.635692 0.949561,7.246363 1.326321,10.896298 0.378948,0 0.82341,0 1.202357,0 0.312512,-3.505096 0.816576,-6.989009 1.180191,-10.489759 0.185353,-0.828927 -0.320739,-1.8131226 -1.361617,-2.014515 -1.028546,-0.2528865 -2.177687,0.3733422 -2.314454,1.267859 -0.02268,0.112292 -0.0328,0.226258 -0.0328,0.340117 l -1e-6,0 z M 13.93813,25.335309 c -0.0468,1.082207 1.36919,1.930549 2.578173,1.587449 1.170986,-0.251321 1.787762,-1.489025 1.187629,-2.368818 -0.537222,-0.909459 -2.112596,-1.209109 -3.018835,-0.513063 -0.458087,0.316492 -0.761713,0.788969 -0.746967,1.294433 l 0,-1e-6 z" font-family="Georgia" font-size="62.458" font-style="normal" font-variant="normal" font-weight="normal" text-anchor="start" writing-mode="lr-tb"/></svg>