<svg xmlns="http://www.w3.org/2000/svg" xmlns:svg="http://www.w3.org/2000/svg" xmlns:xlink="http://www.w3.org/1999/xlink" id="svg2" width="24" height="24" version="1.0"><defs id="defs4"><linearGradient id="linearGradient3587-6-5"><stop id="stop3589-9-2" offset="0" stop-color="#000" stop-opacity="1"/><stop id="stop3591-7-4" offset="1" stop-color="#363636" stop-opacity="1"/></linearGradient><linearGradient id="linearGradient2399" x1="15.669" x2="15.669" y1="-2.622" y2="11.969" gradientTransform="matrix(0.9302326,0,0,1.2359551,-10.575969,6.1536003)" gradientUnits="userSpaceOnUse" xlink:href="#linearGradient3587-6-5"/><linearGradient id="linearGradient2402" x1="35.008" x2="35.008" y1="23.179" y2="4.995" gradientTransform="translate(-24.785715,-2.035714)" gradientUnits="userSpaceOnUse" xlink:href="#linearGradient3587-6-5"/><linearGradient id="linearGradient2449" x1="15.669" x2="15.669" y1="-2.622" y2="11.969" gradientTransform="matrix(0.9302326,0,0,1.2359551,-10.575969,6.1536003)" gradientUnits="userSpaceOnUse" xlink:href="#linearGradient3587-6-5"/><linearGradient id="linearGradient2460" x1="35.008" x2="35.008" y1="23.179" y2="4.995" gradientTransform="translate(-24.785715,-2.035714)" gradientUnits="userSpaceOnUse" xlink:href="#linearGradient3587-6-5"/><linearGradient id="linearGradient2420" x1="15.669" x2="15.669" y1="-2.622" y2="11.969" gradientTransform="matrix(0.9302326,0,0,1.2359551,-29.0338,-0.5632672)" gradientUnits="userSpaceOnUse" xlink:href="#linearGradient3587-6-5"/><linearGradient id="linearGradient2423" x1="35.008" x2="35.008" y1="23.179" y2="4.995" gradientTransform="translate(-43.243546,-8.7525815)" gradientUnits="userSpaceOnUse" xlink:href="#linearGradient3587-6-5"/><linearGradient id="linearGradient2430" x1="35.008" x2="35.008" y1="23.179" y2="4.995" gradientTransform="translate(-43.243546,-8.7525815)" gradientUnits="userSpaceOnUse" xlink:href="#linearGradient3587-6-5"/><linearGradient id="linearGradient2432" x1="15.669" x2="15.669" y1="-2.622" y2="11.969" gradientTransform="matrix(0.9302326,0,0,1.2359551,-29.0338,-0.5632672)" gradientUnits="userSpaceOnUse" xlink:href="#linearGradient3587-6-5"/><linearGradient id="linearGradient2435" x1="15.669" x2="15.669" y1="-2.622" y2="11.969" gradientTransform="matrix(-0.9302326,0,0,-1.2359551,16.118138,11.129533)" gradientUnits="userSpaceOnUse" xlink:href="#linearGradient3587-6-5"/><linearGradient id="linearGradient2438" x1="35.008" x2="35.008" y1="23.179" y2="4.995" gradientTransform="matrix(-1,0,0,-1,30.327884,19.318847)" gradientUnits="userSpaceOnUse" xlink:href="#linearGradient3587-6-5"/><linearGradient id="linearGradient2452" x1="35.008" x2="35.008" y1="23.179" y2="4.995" gradientTransform="matrix(-1,0,0,-1,30.327884,19.318847)" gradientUnits="userSpaceOnUse" xlink:href="#linearGradient3587-6-5"/><linearGradient id="linearGradient2454" x1="15.669" x2="15.669" y1="-2.622" y2="11.969" gradientTransform="matrix(-0.9302326,0,0,-1.2359551,16.118138,11.129533)" gradientUnits="userSpaceOnUse" xlink:href="#linearGradient3587-6-5"/><linearGradient id="linearGradient2457" x1="15.669" x2="15.669" y1="-2.622" y2="11.969" gradientTransform="matrix(-0.9302326,0,0,-1.2359551,34.575969,17.8464)" gradientUnits="userSpaceOnUse" xlink:href="#linearGradient3587-6-5"/><linearGradient id="linearGradient2461" x1="35.008" x2="35.008" y1="23.179" y2="4.995" gradientTransform="matrix(-1,0,0,-1,48.785715,26.035714)" gradientUnits="userSpaceOnUse" xlink:href="#linearGradient3587-6-5"/><linearGradient id="linearGradient2463" x1="35.008" x2="35.008" y1="23.179" y2="4.995" gradientTransform="translate(-24.785715,-2.035714)" gradientUnits="userSpaceOnUse" xlink:href="#linearGradient3587-6-5"/><linearGradient id="linearGradient2465" x1="15.669" x2="15.669" y1="-2.622" y2="11.969" gradientTransform="matrix(0.9302326,0,0,1.2359551,-10.575969,6.1536003)" gradientUnits="userSpaceOnUse" xlink:href="#linearGradient3587-6-5"/><linearGradient id="linearGradient2468" x1="15.669" x2="15.669" y1="-2.622" y2="11.969" gradientTransform="matrix(0.9302326,0,0,1.2359551,-10.575969,6.1536003)" gradientUnits="userSpaceOnUse" xlink:href="#linearGradient3587-6-5"/><linearGradient id="linearGradient2471" x1="35.008" x2="35.008" y1="23.179" y2="4.995" gradientTransform="translate(-24.785715,-2.035714)" gradientUnits="userSpaceOnUse" xlink:href="#linearGradient3587-6-5"/></defs><path id="path3229" fill="#fff" fill-opacity="1" fill-rule="evenodd" stroke="none" stroke-dasharray="none" stroke-dashoffset="0" stroke-linecap="butt" stroke-linejoin="miter" stroke-miterlimit="4" stroke-opacity="1" stroke-width="1" marker-end="none" marker-mid="none" marker-start="none" d="M 12,5 C 7.5840001,5 3.9999998,8.5840001 4,13 C 4,17.416 7.5840002,21 12,21 C 16.416,21 20,17.416 20,13 C 20,8.5840001 16.416,5.0000002 12,5 z M 12,10 C 13.656,10 15,11.344 15,13 C 15,14.656 13.656,16 12,16 C 10.344,16 9,14.656 9,13 C 9.0000001,11.344 10.344,10 12,10 z" display="inline" enable-background="accumulate" opacity=".6" overflow="visible" visibility="visible" style="marker:none"/><path id="path3170" fill="url(#linearGradient2471)" fill-opacity="1" fill-rule="evenodd" stroke="none" stroke-dasharray="none" stroke-dashoffset="0" stroke-linecap="butt" stroke-linejoin="miter" stroke-miterlimit="4" stroke-opacity="1" stroke-width="1" marker-end="none" marker-mid="none" marker-start="none" d="M 12,4 C 7.5840001,4 3.9999998,7.5840001 4,12 C 4,15.56385 6.3404892,18.560166 9.5625,19.59375 L 11.15625,14.84375 C 9.9207586,14.472613 9,13.35585 9,12 C 9.0000001,10.344 10.344,9 12,9 L 12,4 z M 9.90625,19.71875 C 10.162656,19.788073 10.421598,19.86249 10.6875,19.90625 C 10.420479,19.862832 10.164094,19.788565 9.90625,19.71875 z M 10.8125,19.90625 C 11.200127,19.964032 11.59637,20 12,20 C 11.595261,20 11.199847,19.963077 10.8125,19.90625 z" display="inline" enable-background="accumulate" opacity=".42" overflow="visible" visibility="visible" style="marker:none"/><path id="path3288" fill="url(#linearGradient2468)" fill-opacity="1" fill-rule="nonzero" stroke="none" stroke-dasharray="none" stroke-dashoffset="0" stroke-linecap="butt" stroke-linejoin="miter" stroke-miterlimit="4" stroke-opacity="1" stroke-width="1" marker-end="none" marker-mid="none" marker-start="none" d="M 12,4 L 12,9 C 13.656,9.0000001 15,10.344 15,12 C 15,13.656 13.656,15 12,15 C 11.704235,15 11.425652,14.924092 11.15625,14.84375 L 9.5625,19.625 C 10.332845,19.872009 11.148169,20 12,20 C 16.416,20 20,16.416 20,12 C 20,7.5840001 16.416,4.0000002 12,4 z" display="inline" enable-background="accumulate" opacity=".7" overflow="visible" visibility="visible" style="marker:none"/></svg>