<svg xmlns="http://www.w3.org/2000/svg" xmlns:svg="http://www.w3.org/2000/svg" xmlns:xlink="http://www.w3.org/1999/xlink" id="svg2" width="24" height="24" version="1.0"><defs id="defs4"><linearGradient id="linearGradient3587-6-5"><stop id="stop3589-9-2" offset="0" stop-color="#000" stop-opacity="1"/><stop id="stop3591-7-4" offset="1" stop-color="#363636" stop-opacity="1"/></linearGradient><linearGradient id="linearGradient3170" x1="15.669" x2="15.669" y1="-2.622" y2="11.969" gradientTransform="matrix(0.9302326,0,0,1.2359551,-10.575969,6.1536003)" gradientUnits="userSpaceOnUse" xlink:href="#linearGradient3587-6-5"/><linearGradient id="linearGradient3173" x1="35.008" x2="35.008" y1="23.179" y2="4.995" gradientTransform="translate(-24.785715,-2.035714)" gradientUnits="userSpaceOnUse" xlink:href="#linearGradient3587-6-5"/><linearGradient id="linearGradient2458" x1="15.669" x2="15.669" y1="-2.622" y2="11.969" gradientTransform="matrix(0.9302326,0,0,1.2359551,-10.575969,6.1536003)" gradientUnits="userSpaceOnUse" xlink:href="#linearGradient3587-6-5"/><linearGradient id="linearGradient2461" x1="35.008" x2="35.008" y1="23.179" y2="4.995" gradientTransform="translate(-24.785715,-2.035714)" gradientUnits="userSpaceOnUse" xlink:href="#linearGradient3587-6-5"/><linearGradient id="linearGradient2422" x1="15.669" x2="15.669" y1="-2.622" y2="11.969" gradientTransform="matrix(0.9302326,0,0,1.2359551,-32.568267,8.6196845)" gradientUnits="userSpaceOnUse" xlink:href="#linearGradient3587-6-5"/><linearGradient id="linearGradient2425" x1="35.008" x2="35.008" y1="23.179" y2="4.995" gradientTransform="translate(-46.778013,0.4303702)" gradientUnits="userSpaceOnUse" xlink:href="#linearGradient3587-6-5"/><linearGradient id="linearGradient2432" x1="35.008" x2="35.008" y1="23.179" y2="4.995" gradientTransform="translate(-46.778013,0.4303702)" gradientUnits="userSpaceOnUse" xlink:href="#linearGradient3587-6-5"/><linearGradient id="linearGradient2434" x1="15.669" x2="15.669" y1="-2.622" y2="11.969" gradientTransform="matrix(0.9302326,0,0,1.2359551,-32.568267,8.6196845)" gradientUnits="userSpaceOnUse" xlink:href="#linearGradient3587-6-5"/><linearGradient id="linearGradient2437" x1="15.669" x2="15.669" y1="-2.622" y2="11.969" gradientTransform="matrix(0,0.9302326,-1.2359551,0,-4.1458984,-8.109885)" gradientUnits="userSpaceOnUse" xlink:href="#linearGradient3587-6-5"/><linearGradient id="linearGradient2440" x1="35.008" x2="35.008" y1="23.179" y2="4.995" gradientTransform="matrix(0,1,-1,0,4.0434159,-22.319631)" gradientUnits="userSpaceOnUse" xlink:href="#linearGradient3587-6-5"/><linearGradient id="linearGradient2446" x1="35.008" x2="35.008" y1="23.179" y2="4.995" gradientTransform="matrix(0,1,-1,0,4.0434159,-22.319631)" gradientUnits="userSpaceOnUse" xlink:href="#linearGradient3587-6-5"/><linearGradient id="linearGradient2448" x1="15.669" x2="15.669" y1="-2.622" y2="11.969" gradientTransform="matrix(0,0.9302326,-1.2359551,0,-4.1458984,-8.109885)" gradientUnits="userSpaceOnUse" xlink:href="#linearGradient3587-6-5"/><linearGradient id="linearGradient2451" x1="15.669" x2="15.669" y1="-2.622" y2="11.969" gradientTransform="matrix(0,0.9302326,-1.2359551,0,17.8464,-10.575969)" gradientUnits="userSpaceOnUse" xlink:href="#linearGradient3587-6-5"/><linearGradient id="linearGradient2454" x1="35.008" x2="35.008" y1="23.179" y2="4.995" gradientTransform="matrix(0,1,-1,0,26.035714,-24.785715)" gradientUnits="userSpaceOnUse" xlink:href="#linearGradient3587-6-5"/><linearGradient id="linearGradient2457" x1="35.008" x2="35.008" y1="23.179" y2="4.995" gradientTransform="translate(-24.785715,-2.035714)" gradientUnits="userSpaceOnUse" xlink:href="#linearGradient3587-6-5"/></defs><path id="path3229" fill="#fff" fill-opacity="1" fill-rule="evenodd" stroke="none" stroke-dasharray="none" stroke-dashoffset="0" stroke-linecap="butt" stroke-linejoin="miter" stroke-miterlimit="4" stroke-opacity="1" stroke-width="1" marker-end="none" marker-mid="none" marker-start="none" d="M 12,5 C 7.5840001,5 3.9999998,8.5840001 4,13 C 4,17.416 7.5840002,21 12,21 C 16.416,21 20,17.416 20,13 C 20,8.5840001 16.416,5.0000002 12,5 z M 12,10 C 13.656,10 15,11.344 15,13 C 15,14.656 13.656,16 12,16 C 10.344,16 9,14.656 9,13 C 9.0000001,11.344 10.344,10 12,10 z" display="inline" enable-background="accumulate" opacity=".6" overflow="visible" visibility="visible" style="marker:none"/><path id="path3170" fill="url(#linearGradient2457)" fill-opacity="1" fill-rule="evenodd" stroke="none" stroke-dasharray="none" stroke-dashoffset="0" stroke-linecap="butt" stroke-linejoin="miter" stroke-miterlimit="4" stroke-opacity="1" stroke-width="1" marker-end="none" marker-mid="none" marker-start="none" d="M 12,4 C 7.5840001,4 3.9999998,7.5840001 4,12 C 4,16.416 7.5840002,20 12,20 C 14.65349,20 17.013114,18.709759 18.46875,16.71875 L 14.40625,13.78125 C 13.859473,14.518268 12.987512,15 12,15 C 10.344,15 9,13.656 9,12 C 9.0000001,10.344 10.344,9 12,9 L 12,4 z M 15,12 C 15,12.207 14.977484,12.398516 14.9375,12.59375 C 14.975828,12.404033 15,12.200905 15,12 z M 14.9375,12.59375 C 14.897516,12.788984 14.825938,12.976812 14.75,13.15625 C 14.827977,12.973317 14.897208,12.793187 14.9375,12.59375 z M 19.5,14.78125 C 19.410736,15.023379 19.298876,15.238323 19.1875,15.46875 C 19.296895,15.24234 19.411933,15.0189 19.5,14.78125 z" display="inline" enable-background="accumulate" opacity=".42" overflow="visible" visibility="visible" style="marker:none"/><path id="path3288" fill="url(#linearGradient3170)" fill-opacity="1" fill-rule="nonzero" stroke="none" stroke-dasharray="none" stroke-dashoffset="0" stroke-linecap="butt" stroke-linejoin="miter" stroke-miterlimit="4" stroke-opacity="1" stroke-width="1" marker-end="none" marker-mid="none" marker-start="none" d="M 12,4 L 12,9 C 13.656,9.0000001 15,10.344 15,12 C 15,12.667837 14.776857,13.28395 14.40625,13.78125 L 18.46875,16.71875 C 19.434667,15.396315 20,13.76146 20,12 C 20,7.5840001 16.416,4.0000002 12,4 z" display="inline" enable-background="accumulate" opacity=".7" overflow="visible" visibility="visible" style="marker:none"/></svg>