<svg xmlns="http://www.w3.org/2000/svg" xmlns:svg="http://www.w3.org/2000/svg" xmlns:xlink="http://www.w3.org/1999/xlink" id="svg2" width="24" height="24" version="1.0"><defs id="defs4"><linearGradient id="linearGradient3587-6-5"><stop id="stop3589-9-2" offset="0" stop-color="#000" stop-opacity="1"/><stop id="stop3591-7-4" offset="1" stop-color="#363636" stop-opacity="1"/></linearGradient><linearGradient id="linearGradient2399" x1="15.669" x2="15.669" y1="-2.622" y2="11.969" gradientTransform="matrix(0.9302326,0,0,1.2359551,-10.575969,6.1536003)" gradientUnits="userSpaceOnUse" xlink:href="#linearGradient3587-6-5"/><linearGradient id="linearGradient2402" x1="35.008" x2="35.008" y1="23.179" y2="4.995" gradientTransform="translate(-24.785715,-2.035714)" gradientUnits="userSpaceOnUse" xlink:href="#linearGradient3587-6-5"/><linearGradient id="linearGradient2437" x1="35.008" x2="35.008" y1="23.179" y2="4.995" gradientTransform="translate(-24.785715,-2.035714)" gradientUnits="userSpaceOnUse" xlink:href="#linearGradient3587-6-5"/><linearGradient id="linearGradient2434" x1="15.669" x2="15.669" y1="-2.622" y2="11.969" gradientTransform="matrix(0.9302326,0,0,1.2359551,-10.575969,6.1536003)" gradientUnits="userSpaceOnUse" xlink:href="#linearGradient3587-6-5"/><linearGradient id="linearGradient2452" x1="15.669" x2="15.669" y1="-2.622" y2="11.969" gradientTransform="matrix(-0.9302326,0,0,-1.2359551,18.142234,9.9126647)" gradientUnits="userSpaceOnUse" xlink:href="#linearGradient3587-6-5"/><linearGradient id="linearGradient2455" x1="35.008" x2="35.008" y1="23.179" y2="4.995" gradientTransform="matrix(-1,0,0,-1,32.35198,18.101979)" gradientUnits="userSpaceOnUse" xlink:href="#linearGradient3587-6-5"/><linearGradient id="linearGradient2470" x1="35.008" x2="35.008" y1="23.179" y2="4.995" gradientTransform="matrix(-1,0,0,-1,32.35198,18.101979)" gradientUnits="userSpaceOnUse" xlink:href="#linearGradient3587-6-5"/><linearGradient id="linearGradient2472" x1="15.669" x2="15.669" y1="-2.622" y2="11.969" gradientTransform="matrix(-0.9302326,0,0,-1.2359551,18.142234,9.9126647)" gradientUnits="userSpaceOnUse" xlink:href="#linearGradient3587-6-5"/><linearGradient id="linearGradient2475" x1="15.669" x2="15.669" y1="-2.622" y2="11.969" gradientTransform="matrix(-0.9302326,0,0,-1.2359551,34.575969,17.8464)" gradientUnits="userSpaceOnUse" xlink:href="#linearGradient3587-6-5"/><linearGradient id="linearGradient2478" x1="35.008" x2="35.008" y1="23.179" y2="4.995" gradientTransform="matrix(-1,0,0,-1,48.785715,26.035714)" gradientUnits="userSpaceOnUse" xlink:href="#linearGradient3587-6-5"/><linearGradient id="linearGradient2480" x1="35.008" x2="35.008" y1="23.179" y2="4.995" gradientTransform="translate(-24.785715,-2.035714)" gradientUnits="userSpaceOnUse" xlink:href="#linearGradient3587-6-5"/><linearGradient id="linearGradient2482" x1="15.669" x2="15.669" y1="-2.622" y2="11.969" gradientTransform="matrix(0.9302326,0,0,1.2359551,-10.575969,6.1536003)" gradientUnits="userSpaceOnUse" xlink:href="#linearGradient3587-6-5"/><linearGradient id="linearGradient2485" x1="15.669" x2="15.669" y1="-2.622" y2="11.969" gradientTransform="matrix(0.9302326,0,0,1.2359551,-10.575969,6.1536003)" gradientUnits="userSpaceOnUse" xlink:href="#linearGradient3587-6-5"/><linearGradient id="linearGradient2488" x1="35.008" x2="35.008" y1="23.179" y2="4.995" gradientTransform="translate(-24.785715,-2.035714)" gradientUnits="userSpaceOnUse" xlink:href="#linearGradient3587-6-5"/></defs><path id="path3229" fill="#fff" fill-opacity="1" fill-rule="evenodd" stroke="none" stroke-dasharray="none" stroke-dashoffset="0" stroke-linecap="butt" stroke-linejoin="miter" stroke-miterlimit="4" stroke-opacity="1" stroke-width="1" marker-end="none" marker-mid="none" marker-start="none" d="M 12,5 C 7.5840001,5 3.9999998,8.5840001 4,13 C 4,17.416 7.5840002,21 12,21 C 16.416,21 20,17.416 20,13 C 20,8.5840001 16.416,5.0000002 12,5 z M 12,10 C 13.656,10 15,11.344 15,13 C 15,14.656 13.656,16 12,16 C 10.344,16 9,14.656 9,13 C 9.0000001,11.344 10.344,10 12,10 z" display="inline" enable-background="accumulate" opacity=".6" overflow="visible" visibility="visible" style="marker:none"/><path id="path3170" fill="url(#linearGradient2488)" fill-opacity="1" fill-rule="evenodd" stroke="none" stroke-dasharray="none" stroke-dashoffset="0" stroke-linecap="butt" stroke-linejoin="miter" stroke-miterlimit="4" stroke-opacity="1" stroke-width="1" marker-end="none" marker-mid="none" marker-start="none" d="M 12,4 C 7.5840001,4 3.9999998,7.5840001 4,12 C 4,12.897 4.1648142,13.75722 4.4375,14.5625 L 9.1875,13.03125 C 9.0675274,12.707095 9,12.3657 9,12 C 9.0000001,10.344 10.344,9 12,9 L 12,4 z M 4.53125,14.84375 C 4.6418235,15.134419 4.7638896,15.414161 4.90625,15.6875 C 4.7611704,15.413435 4.6406552,15.128174 4.53125,14.84375 z M 5.625,16.8125 C 5.7730296,17.008162 5.9287413,17.193944 6.09375,17.375 C 5.9322527,17.197141 5.7701364,17.004386 5.625,16.8125 z M 11.03125,19.9375 C 11.350291,19.976251 11.670555,20 12,20 C 11.670282,20 11.350582,19.976324 11.03125,19.9375 z" display="inline" enable-background="accumulate" opacity=".42" overflow="visible" visibility="visible" style="marker:none"/><path id="path3288" fill="url(#linearGradient2485)" fill-opacity="1" fill-rule="nonzero" stroke="none" stroke-dasharray="none" stroke-dashoffset="0" stroke-linecap="butt" stroke-linejoin="miter" stroke-miterlimit="4" stroke-opacity="1" stroke-width="1" marker-end="none" marker-mid="none" marker-start="none" d="M 12,4 L 12,9 C 13.656,9.0000001 15,10.344 15,12 C 15,13.656 13.656,15 12,15 C 11.012488,15 10.140527,14.518268 9.59375,13.78125 C 9.418046,13.543332 9.282915,13.29569 9.1875,13.03125 L 4.40625,14.5625 C 4.66519,15.328917 5.056456,16.064773 5.5625,16.75 C 7.020065,18.720951 9.362255,20 12,20 C 16.416,20 20,16.416 20,12 C 20,7.5840001 16.416,4.0000002 12,4 z" display="inline" enable-background="accumulate" opacity=".7" overflow="visible" visibility="visible" style="marker:none"/></svg>